<svg xmlns="http://www.w3.org/2000/svg" xmlns:xlink="http://www.w3.org/1999/xlink" fill="none" viewBox="245.75 245.75 566.01 566.02">
	<desc>
			Created with Pixso.
	</desc>
	<defs>
		<linearGradient id="paint_linear_67_75_0" x1="1017.139648" y1="608.714539" x2="275.396118" y2="514.547180" gradientUnits="userSpaceOnUse">
			<stop stop-color="#008083"/>
			<stop offset="1.000000" stop-color="#3FBEC1"/>
		</linearGradient>
		<linearGradient id="paint_linear_67_77_0" x1="817.814758" y1="437.817383" x2="535.918274" y2="419.361328" gradientUnits="userSpaceOnUse">
			<stop stop-color="#1091DA"/>
			<stop offset="1.000000" stop-color="#7DC5ED"/>
		</linearGradient>
	</defs>
	<path id="Slice - 85 (85.9%)" d="M528.756 528.756L810.652 547.212C800.459 702.899 665.987 820.846 510.3 810.652C354.613 800.459 236.667 665.987 246.859 510.3C257.052 354.612 391.525 236.666 547.212 246.859C611.95 251.098 673.257 277.49 720.831 321.601L528.756 528.756Z" fill="url(#paint_linear_67_75_0)" fill-opacity="1.000000" fill-rule="nonzero"/>
	<path id="Slice - 85 (85.9%)" d="M810.652 547.212C800.459 702.899 665.987 820.846 510.3 810.652C354.613 800.459 236.667 665.987 246.859 510.3C257.052 354.612 391.525 236.666 547.212 246.859C611.95 251.098 673.257 277.49 720.831 321.601L528.756 528.756L810.652 547.212Z" stroke="#FFFFFF" stroke-opacity="1.000000" stroke-width="1.000000"/>
	<path id="85,25%" d="M337.474 612.096Q339.294 613.002 340.251 614.472Q341.217 615.942 341.217 617.873Q341.217 620.146 339.918 621.846Q338.628 623.538 336.278 624.469Q333.936 625.392 330.86 625.392Q327.775 625.392 325.443 624.469Q323.118 623.538 321.837 621.846Q320.564 620.146 320.564 617.873Q320.564 615.942 321.529 614.472Q322.495 613.002 324.281 612.096Q322.913 611.25 322.179 609.977Q321.444 608.696 321.444 607.055Q321.444 604.919 322.631 603.346Q323.819 601.766 325.955 600.911Q328.092 600.057 330.86 600.057Q333.654 600.057 335.808 600.911Q337.961 601.766 339.149 603.346Q340.345 604.919 340.345 607.055Q340.345 608.696 339.61 609.977Q338.875 611.25 337.474 612.096ZM330.86 604.218Q329.143 604.218 328.109 605.047Q327.075 605.867 327.075 607.303Q327.075 608.696 328.092 609.507Q329.108 610.311 330.86 610.311Q332.603 610.311 333.654 609.507Q334.705 608.696 334.705 607.303Q334.705 605.867 333.654 605.047Q332.603 604.218 330.86 604.218ZM330.86 621.231Q332.988 621.231 334.227 620.265Q335.474 619.3 335.474 617.693Q335.474 616.087 334.227 615.138Q332.988 614.19 330.86 614.19Q328.758 614.19 327.528 615.138Q326.306 616.087 326.306 617.693Q326.306 619.343 327.528 620.291Q328.758 621.231 330.86 621.231ZM352.208 609.678Q357.387 609.678 359.856 611.746Q362.326 613.805 362.326 617.275Q362.326 619.513 361.198 621.351Q360.078 623.188 357.788 624.29Q355.498 625.392 352.14 625.392Q349.542 625.392 347.039 624.709Q344.544 624.025 342.792 622.769L345.031 618.428Q346.432 619.479 348.252 620.06Q350.072 620.633 351.995 620.633Q354.131 620.633 355.353 619.795Q356.583 618.949 356.583 617.446Q356.583 615.873 355.302 615.07Q354.029 614.267 350.875 614.267L344.612 614.267L345.868 600.475L360.813 600.475L360.813 605.021L350.593 605.021L350.209 609.678L352.208 609.678ZM367.889 618.462Q369.359 618.462 370.299 619.394Q371.248 620.317 371.248 621.821Q371.248 622.521 371.068 623.222Q370.897 623.923 370.299 625.324L368.308 630.365L364.839 630.365L366.386 624.803Q365.505 624.452 364.993 623.666Q364.489 622.872 364.489 621.821Q364.489 620.317 365.454 619.394Q366.42 618.462 367.889 618.462ZM392.457 620.351L392.457 624.974L373.94 624.974L373.94 621.299L383.391 612.37Q384.895 610.943 385.416 609.909Q385.946 608.875 385.946 607.858Q385.946 606.388 384.946 605.602Q383.955 604.816 382.024 604.816Q380.417 604.816 379.118 605.431Q377.828 606.038 376.948 607.26L372.821 604.603Q374.256 602.466 376.777 601.261Q379.298 600.057 382.553 600.057Q385.279 600.057 387.33 600.954Q389.381 601.843 390.517 603.466Q391.654 605.09 391.654 607.303Q391.654 609.294 390.808 611.045Q389.97 612.797 387.561 615.036L381.921 620.351L392.457 620.351ZM403.203 609.678Q408.382 609.678 410.851 611.746Q413.321 613.805 413.321 617.275Q413.321 619.513 412.193 621.351Q411.073 623.188 408.783 624.29Q406.493 625.392 403.135 625.392Q400.537 625.392 398.034 624.709Q395.539 624.025 393.787 622.769L396.026 618.428Q397.427 619.479 399.247 620.06Q401.067 620.633 402.99 620.633Q405.126 620.633 406.348 619.795Q407.578 618.949 407.578 617.446Q407.578 615.873 406.297 615.07Q405.024 614.267 401.87 614.267L395.607 614.267L396.863 600.475L411.808 600.475L411.808 605.021L401.588 605.021L401.204 609.678L403.203 609.678ZM420.944 613.703Q418.252 613.703 416.552 611.866Q414.86 610.029 414.86 606.952Q414.86 603.868 416.552 602.031Q418.252 600.193 420.944 600.193Q423.644 600.193 425.319 602.031Q427.002 603.868 427.002 606.952Q427.002 610.029 425.319 611.866Q423.644 613.703 420.944 613.703ZM435.539 600.475L439.709 600.475L422.978 624.974L418.808 624.974L435.539 600.475ZM420.944 610.832Q422.14 610.832 422.815 609.858Q423.499 608.875 423.499 606.952Q423.499 605.021 422.815 604.047Q422.14 603.064 420.944 603.064Q419.791 603.064 419.09 604.064Q418.389 605.055 418.389 606.952Q418.389 608.841 419.09 609.841Q419.791 610.832 420.944 610.832ZM437.573 625.256Q435.821 625.256 434.437 624.435Q433.061 623.606 432.283 622.068Q431.514 620.53 431.514 618.497Q431.514 616.471 432.283 614.933Q433.061 613.387 434.437 612.566Q435.821 611.746 437.573 611.746Q440.264 611.746 441.965 613.583Q443.665 615.42 443.665 618.497Q443.665 621.581 441.965 623.418Q440.264 625.256 437.573 625.256ZM437.573 622.385Q438.76 622.385 439.444 621.385Q440.127 620.385 440.127 618.497Q440.127 616.608 439.444 615.617Q438.76 614.617 437.573 614.617Q436.419 614.617 435.718 615.6Q435.018 616.574 435.018 618.497Q435.018 620.428 435.718 621.41Q436.419 622.385 437.573 622.385Z" fill="#FFFFFF" fill-opacity="1.000000" fill-rule="evenodd"/>
	<path id="Slice - 14 (14.1%)" d="M528.756 528.758L720.831 321.603C783.215 379.445 816.21 462.321 810.652 547.214L528.756 528.758Z" fill="url(#paint_linear_67_77_0)" fill-opacity="1.000000" fill-rule="nonzero"/>
	<path id="Slice - 14 (14.1%)" d="M720.831 321.603C783.215 379.445 816.21 462.321 810.652 547.214L528.756 528.758L720.831 321.603Z" stroke="#FFFFFF" stroke-opacity="1.000000" stroke-width="1.000000"/>
	<path id="14,8%" d="M688.042 448.475L688.042 472.974L682.368 472.974L682.368 453.021L677.472 453.021L677.472 448.475L688.042 448.475ZM714.742 467.83L710.751 467.83L710.751 472.974L705.223 472.974L705.223 467.83L692.029 467.83L692.029 464.01L703.582 448.475L709.529 448.475L698.823 463.207L705.402 463.207L705.402 458.627L710.751 458.627L710.751 463.207L714.742 463.207L714.742 467.83ZM720.382 466.462Q721.852 466.462 722.792 467.394Q723.74 468.317 723.74 469.821Q723.74 470.521 723.561 471.222Q723.39 471.923 722.792 473.324L720.801 478.365L717.331 478.365L718.878 472.803Q717.998 472.452 717.485 471.666Q716.981 470.872 716.981 469.821Q716.981 468.317 717.947 467.394Q718.912 466.462 720.382 466.462ZM743.411 460.096Q745.232 461.002 746.189 462.472Q747.154 463.942 747.154 465.873Q747.154 468.146 745.855 469.846Q744.565 471.538 742.215 472.469Q739.874 473.392 736.798 473.392Q733.713 473.392 731.38 472.469Q729.056 471.538 727.774 469.846Q726.501 468.146 726.501 465.873Q726.501 463.942 727.467 462.472Q728.432 461.002 730.218 460.096Q728.851 459.25 728.116 457.977Q727.381 456.696 727.381 455.055Q727.381 452.919 728.569 451.346Q729.757 449.766 731.893 448.911Q734.029 448.057 736.798 448.057Q739.592 448.057 741.745 448.911Q743.898 449.766 745.086 451.346Q746.283 452.919 746.283 455.055Q746.283 456.696 745.548 457.977Q744.813 459.25 743.411 460.096ZM736.798 452.218Q735.08 452.218 734.046 453.047Q733.012 453.867 733.012 455.303Q733.012 456.696 734.029 457.507Q735.046 458.311 736.798 458.311Q738.541 458.311 739.592 457.507Q740.643 456.696 740.643 455.303Q740.643 453.867 739.592 453.047Q738.541 452.218 736.798 452.218ZM736.798 469.231Q738.925 469.231 740.164 468.265Q741.412 467.3 741.412 465.693Q741.412 464.087 740.164 463.138Q738.925 462.19 736.798 462.19Q734.696 462.19 733.465 463.138Q732.243 464.087 732.243 465.693Q732.243 467.343 733.465 468.291Q734.696 469.231 736.798 469.231ZM755.062 461.703Q752.37 461.703 750.669 459.866Q748.978 458.029 748.978 454.952Q748.978 451.868 750.669 450.031Q752.37 448.193 755.062 448.193Q757.762 448.193 759.437 450.031Q761.12 451.868 761.12 454.952Q761.12 458.029 759.437 459.866Q757.762 461.703 755.062 461.703ZM769.656 448.475L773.826 448.475L757.095 472.974L752.925 472.974L769.656 448.475ZM755.062 458.832Q756.258 458.832 756.933 457.858Q757.617 456.875 757.617 454.952Q757.617 453.021 756.933 452.047Q756.258 451.064 755.062 451.064Q753.908 451.064 753.207 452.064Q752.507 453.055 752.507 454.952Q752.507 456.841 753.207 457.841Q753.908 458.832 755.062 458.832ZM771.69 473.256Q769.938 473.256 768.554 472.435Q767.178 471.606 766.401 470.068Q765.632 468.53 765.632 466.497Q765.632 464.471 766.401 462.933Q767.178 461.387 768.554 460.566Q769.938 459.746 771.69 459.746Q774.382 459.746 776.082 461.583Q777.783 463.42 777.783 466.497Q777.783 469.581 776.082 471.418Q774.382 473.256 771.69 473.256ZM771.69 470.385Q772.878 470.385 773.561 469.385Q774.245 468.385 774.245 466.497Q774.245 464.608 773.561 463.617Q772.878 462.617 771.69 462.617Q770.536 462.617 769.836 463.6Q769.135 464.574 769.135 466.497Q769.135 468.428 769.836 469.41Q770.536 470.385 771.69 470.385Z" fill="#FFFFFF" fill-opacity="1.000000" fill-rule="evenodd"/>
</svg>