<svg width="593.000000" height="134.000000" viewBox="0 0 593 134" fill="none" xmlns="http://www.w3.org/2000/svg" xmlns:xlink="http://www.w3.org/1999/xlink">
	<desc>
			Created with Pixso.
	</desc>
	<defs>
		<linearGradient id="paint_linear_67_165_0" x1="77.771179" y1="-49.820518" x2="67.058815" y2="127.180656" gradientUnits="userSpaceOnUse">
			<stop stop-color="#008083"/>
			<stop offset="1.000000" stop-color="#3FBEC1"/>
		</linearGradient>
	</defs>
	<path id="При профілактичному прийомі підтримує готовність організму до зустрічі з вірусом" d="M168.95 23.5012L168.95 41L165.752 41L165.752 26.2478L156.676 26.2478L156.676 41L153.478 41L153.478 23.5012L168.95 23.5012ZM180.922 27.499Q182.875 27.499 184.413 28.3535Q185.951 29.2019 186.824 30.7522Q187.697 32.3025 187.697 34.3228Q187.697 36.3491 186.824 37.9116Q185.951 39.4741 184.413 40.3286Q182.875 41.177 180.922 41.177Q178.224 41.177 176.65 39.3765L176.65 45.8523L173.525 45.8523L173.525 27.6516L176.497 27.6516L176.497 29.3972Q177.272 28.4512 178.407 27.9751Q179.549 27.499 180.922 27.499ZM180.574 38.4976Q182.301 38.4976 183.412 37.3501Q184.523 36.2026 184.523 34.3228Q184.523 32.449 183.412 31.3015Q182.301 30.1479 180.574 30.1479Q179.451 30.1479 178.548 30.6606Q177.651 31.1733 177.126 32.1255Q176.601 33.0776 176.601 34.3228Q176.601 35.574 177.126 36.5261Q177.651 37.4722 178.548 37.9849Q179.451 38.4976 180.574 38.4976ZM190.8 27.6516L193.925 27.6516L193.925 36.4529L201.298 27.6516L204.148 27.6516L204.148 41L201.023 41L201.023 32.1987L193.674 41L190.8 41L190.8 27.6516ZM228.049 27.6516L228.049 41L224.948 41L224.948 30.3005L218.375 30.3005L218.375 41L215.25 41L215.25 27.6516L228.049 27.6516ZM239.672 27.499Q241.625 27.499 243.163 28.3535Q244.701 29.2019 245.574 30.7522Q246.447 32.3025 246.447 34.3228Q246.447 36.3491 245.574 37.9116Q244.701 39.4741 243.163 40.3286Q241.625 41.177 239.672 41.177Q236.974 41.177 235.4 39.3765L235.4 45.8523L232.275 45.8523L232.275 27.6516L235.247 27.6516L235.247 29.3972Q236.022 28.4512 237.157 27.9751Q238.299 27.499 239.672 27.499ZM239.324 38.4976Q241.051 38.4976 242.162 37.3501Q243.273 36.2026 243.273 34.3228Q243.273 32.449 242.162 31.3015Q241.051 30.1479 239.324 30.1479Q238.201 30.1479 237.298 30.6606Q236.401 31.1733 235.876 32.1255Q235.351 33.0776 235.351 34.3228Q235.351 35.574 235.876 36.5261Q236.401 37.4722 237.298 37.9849Q238.201 38.4976 239.324 38.4976ZM255.501 41.177Q253.474 41.177 251.851 40.3042Q250.227 39.4253 249.312 37.8628Q248.402 36.3003 248.402 34.3228Q248.402 32.3513 249.312 30.801Q250.227 29.2507 251.851 28.3779Q253.474 27.499 255.501 27.499Q257.551 27.499 259.175 28.3779Q260.798 29.2507 261.708 30.801Q262.623 32.3513 262.623 34.3228Q262.623 36.3003 261.708 37.8628Q260.798 39.4253 259.175 40.3042Q257.551 41.177 255.501 41.177ZM255.501 38.4976Q257.228 38.4976 258.351 37.3501Q259.474 36.2026 259.474 34.3228Q259.474 32.449 258.351 31.3015Q257.228 30.1479 255.501 30.1479Q253.773 30.1479 252.662 31.3015Q251.552 32.449 251.552 34.3228Q251.552 36.2026 252.662 37.3501Q253.773 38.4976 255.501 38.4976ZM283.351 34.2983Q283.351 37.3989 281.288 39.175Q279.225 40.9512 275.398 41.2014L275.398 45.8523L272.45 45.8523L272.45 41.2258Q268.623 40.9756 266.572 39.1995Q264.528 37.4233 264.528 34.2983Q264.528 31.1978 266.572 29.4644Q268.623 27.7249 272.45 27.4746L272.45 22.4514L275.398 22.4514L275.398 27.4746Q279.225 27.7249 281.288 29.4766Q283.351 31.2222 283.351 34.2983ZM267.598 34.2983Q267.598 36.2271 268.782 37.3013Q269.972 38.3755 272.45 38.6013L272.45 30.1235Q269.972 30.325 268.782 31.3748Q267.598 32.4246 267.598 34.2983ZM275.398 38.6013Q280.299 38.1497 280.299 34.2983Q280.299 32.4001 279.085 31.3625Q277.876 30.325 275.398 30.1235L275.398 38.6013ZM286.375 27.6516L289.5 27.6516L289.5 41L286.375 41L286.375 27.6516ZM287.949 25.4482Q287.101 25.4482 286.527 24.9111Q285.953 24.374 285.953 23.5745Q285.953 22.7749 286.527 22.2378Q287.101 21.7007 287.949 21.7007Q288.798 21.7007 289.371 22.2134Q289.951 22.7261 289.951 23.5012Q289.951 24.3252 289.39 24.8867Q288.828 25.4482 287.949 25.4482ZM305.828 27.6516L305.828 41L302.703 41L302.703 30.3005L297.698 30.3005L297.576 32.9495Q297.448 35.5984 297.088 37.3867Q296.728 39.175 295.861 40.2126Q295 41.2502 293.499 41.2502Q292.803 41.2502 291.778 40.9756L291.924 38.3511Q292.272 38.4243 292.522 38.4243Q293.474 38.4243 293.95 37.6614Q294.427 36.8984 294.561 35.8364Q294.701 34.7744 294.799 32.803L295.025 27.6516L305.828 27.6516ZM314.999 27.499Q317.953 27.499 319.516 28.915Q321.078 30.325 321.078 33.1753L321.078 41L318.124 41L318.124 39.3765Q317.55 40.2493 316.488 40.7131Q315.426 41.177 313.925 41.177Q312.429 41.177 311.3 40.6643Q310.177 40.1516 309.561 39.2422Q308.95 38.3267 308.95 37.1731Q308.95 35.3726 310.287 34.2861Q311.624 33.1997 314.505 33.1997L317.953 33.1997L317.953 32.9983Q317.953 31.6006 317.111 30.8499Q316.275 30.0991 314.627 30.0991Q313.504 30.0991 312.411 30.4531Q311.325 30.801 310.574 31.4236L309.353 29.147Q310.403 28.3474 311.874 27.9263Q313.351 27.499 314.999 27.499ZM314.578 38.9004Q315.75 38.9004 316.659 38.3633Q317.575 37.8262 317.953 36.8252L317.953 35.2749L314.724 35.2749Q312.027 35.2749 312.027 37.051Q312.027 37.8994 312.698 38.3999Q313.375 38.9004 314.578 38.9004ZM330.498 35.6472L328.075 35.6472L328.075 41L324.95 41L324.95 27.6516L328.075 27.6516L328.075 33.0471L330.577 33.0471L334.526 27.6516L337.877 27.6516L333.025 34.0725L338.2 41L334.526 41L330.498 35.6472ZM350.802 30.3005L346.127 30.3005L346.127 41L343.002 41L343.002 30.3005L338.302 30.3005L338.302 27.6516L350.802 27.6516L350.802 30.3005ZM353.075 27.6516L356.2 27.6516L356.2 36.4529L363.573 27.6516L366.423 27.6516L366.423 41L363.298 41L363.298 32.1987L355.949 41L353.075 41L353.075 27.6516ZM381.953 27.6516L381.953 41L378.828 41L378.828 35.8242Q376.899 36.752 374.799 36.752Q372.224 36.752 370.85 35.5679Q369.477 34.3777 369.477 31.9241L369.477 27.6516L372.602 27.6516L372.602 31.7227Q372.602 32.9983 373.347 33.627Q374.098 34.2495 375.477 34.2495Q377.223 34.2495 378.828 33.4988L378.828 27.6516L381.953 27.6516ZM386.15 27.6516L389.275 27.6516L389.275 33.0776L396.001 33.0776L396.001 27.6516L399.126 27.6516L399.126 41L396.001 41L396.001 35.7266L389.275 35.7266L389.275 41L386.15 41L386.15 27.6516ZM409.276 41.177Q407.249 41.177 405.626 40.3042Q404.002 39.4253 403.087 37.8628Q402.177 36.3003 402.177 34.3228Q402.177 32.3513 403.087 30.801Q404.002 29.2507 405.626 28.3779Q407.249 27.499 409.276 27.499Q411.326 27.499 412.95 28.3779Q414.573 29.2507 415.483 30.801Q416.398 32.3513 416.398 34.3228Q416.398 36.3003 415.483 37.8628Q414.573 39.4253 412.95 40.3042Q411.326 41.177 409.276 41.177ZM409.276 38.4976Q411.003 38.4976 412.126 37.3501Q413.249 36.2026 413.249 34.3228Q413.249 32.449 412.126 31.3015Q411.003 30.1479 409.276 30.1479Q407.548 30.1479 406.437 31.3015Q405.327 32.449 405.327 34.3228Q405.327 36.2026 406.437 37.3501Q407.548 38.4976 409.276 38.4976ZM432.597 41L432.597 32.1499L428.099 39.6023L426.75 39.6023L422.325 32.1255L422.325 41L419.475 41L419.475 27.6516L422.752 27.6516L427.501 36.0012L432.475 27.6516L435.399 27.6516L435.423 41L432.597 41ZM452.228 27.6516L445.978 42.0742Q445.106 44.2471 443.854 45.1321Q442.603 46.0232 440.827 46.0232Q439.826 46.0232 438.849 45.6997Q437.879 45.3762 437.25 44.8025L438.502 42.5015Q438.953 42.9226 439.564 43.1729Q440.18 43.4231 440.803 43.4231Q441.627 43.4231 442.164 42.9958Q442.701 42.5747 443.152 41.5737L443.378 41.0488L437.556 27.6516L440.803 27.6516L445.002 37.5271L449.225 27.6516L452.228 27.6516ZM474.099 27.6516L474.099 41L470.998 41L470.998 30.3005L464.425 30.3005L464.425 41L461.3 41L461.3 27.6516L474.099 27.6516ZM485.722 27.499Q487.675 27.499 489.213 28.3535Q490.751 29.2019 491.624 30.7522Q492.497 32.3025 492.497 34.3228Q492.497 36.3491 491.624 37.9116Q490.751 39.4741 489.213 40.3286Q487.675 41.177 485.722 41.177Q483.024 41.177 481.45 39.3765L481.45 45.8523L478.325 45.8523L478.325 27.6516L481.297 27.6516L481.297 29.3972Q482.072 28.4512 483.207 27.9751Q484.349 27.499 485.722 27.499ZM485.374 38.4976Q487.101 38.4976 488.212 37.3501Q489.323 36.2026 489.323 34.3228Q489.323 32.449 488.212 31.3015Q487.101 30.1479 485.374 30.1479Q484.251 30.1479 483.348 30.6606Q482.451 31.1733 481.926 32.1255Q481.401 33.0776 481.401 34.3228Q481.401 35.574 481.926 36.5261Q482.451 37.4722 483.348 37.9849Q484.251 38.4976 485.374 38.4976ZM495.6 27.6516L498.725 27.6516L498.725 36.4529L506.098 27.6516L508.948 27.6516L508.948 41L505.823 41L505.823 32.1987L498.474 41L495.6 41L495.6 27.6516ZM513.15 27.6516L516.275 27.6516L516.275 36.4529L523.648 27.6516L526.498 27.6516L526.498 41L523.373 41L523.373 32.1987L516.024 41L513.15 41L513.15 27.6516ZM519.625 26.0769Q517.605 26.0769 516.537 25.137Q515.475 24.197 515.451 22.4026L517.526 22.4026Q517.55 23.2998 518.087 23.8247Q518.631 24.3496 519.601 24.3496Q520.553 24.3496 521.115 23.8247Q521.676 23.2998 521.701 22.4026L523.831 22.4026Q523.8 24.197 522.726 25.137Q521.652 26.0769 519.625 26.0769ZM536.651 41.177Q534.624 41.177 533.001 40.3042Q531.377 39.4253 530.462 37.8628Q529.552 36.3003 529.552 34.3228Q529.552 32.3513 530.462 30.801Q531.377 29.2507 533.001 28.3779Q534.624 27.499 536.651 27.499Q538.701 27.499 540.325 28.3779Q541.948 29.2507 542.858 30.801Q543.773 32.3513 543.773 34.3228Q543.773 36.3003 542.858 37.8628Q541.948 39.4253 540.325 40.3042Q538.701 41.177 536.651 41.177ZM536.651 38.4976Q538.378 38.4976 539.501 37.3501Q540.624 36.2026 540.624 34.3228Q540.624 32.449 539.501 31.3015Q538.378 30.1479 536.651 30.1479Q534.923 30.1479 533.812 31.3015Q532.702 32.449 532.702 34.3228Q532.702 36.2026 533.812 37.3501Q534.923 38.4976 536.651 38.4976ZM559.972 41L559.972 32.1499L555.474 39.6023L554.125 39.6023L549.7 32.1255L549.7 41L546.85 41L546.85 27.6516L550.127 27.6516L554.876 36.0012L559.85 27.6516L562.774 27.6516L562.798 41L559.972 41ZM567 27.6516L570.125 27.6516L570.125 41L567 41L567 27.6516ZM568.574 25.4482Q567.726 25.4482 567.152 24.9111Q566.578 24.374 566.578 23.5745Q566.578 22.7749 567.152 22.2378Q567.726 21.7007 568.574 21.7007Q569.423 21.7007 569.996 22.2134Q570.576 22.7261 570.576 23.5012Q570.576 24.3252 570.015 24.8867Q569.453 25.4482 568.574 25.4482Z" fill="#000000" fill-opacity="1.000000" fill-rule="evenodd"/>
	<path id="При профілактичному прийомі підтримує готовність організму до зустрічі з вірусом" d="M166.253 62.5479L166.253 76L162.353 76L162.353 65.7522L156.75 65.7522L156.75 76L152.874 76L152.874 62.5479L166.253 62.5479ZM169.974 62.5479L173.875 62.5479L173.875 76L169.974 76L169.974 62.5479ZM171.921 60.6741Q170.847 60.6741 170.17 60.0515Q169.498 59.4229 169.498 58.5012Q169.498 57.5735 170.17 56.9509Q170.847 56.3223 171.921 56.3223Q172.996 56.3223 173.673 56.9265Q174.351 57.5247 174.351 58.428Q174.351 59.3984 173.673 60.0393Q172.996 60.6741 171.921 60.6741ZM192.699 72.8018L192.699 78.8992L189.074 78.8992L189.074 76L179.626 76L179.626 78.8992L176 78.8992L176 72.8018L176.55 72.8018Q177.801 72.7773 178.277 71.3247Q178.753 69.8721 178.875 67.1987L179.052 62.5479L190.777 62.5479L190.777 72.8018L192.699 72.8018ZM182.403 67.4734Q182.323 69.5242 182.085 70.8242Q181.847 72.1243 181.2 72.8018L186.877 72.8018L186.877 65.7522L182.476 65.7522L182.403 67.4734ZM206.452 65.7522L201.899 65.7522L201.899 76L198.024 76L198.024 65.7522L193.476 65.7522L193.476 62.5479L206.452 62.5479L206.452 65.7522ZM216.446 62.3525Q218.326 62.3525 219.858 63.2131Q221.396 64.0737 222.269 65.6362Q223.148 67.1987 223.148 69.2739Q223.148 71.3491 222.269 72.9116Q221.396 74.4741 219.858 75.3408Q218.326 76.2014 216.446 76.2014Q213.877 76.2014 212.4 74.5779L212.4 80.8523L208.499 80.8523L208.499 62.5479L212.223 62.5479L212.223 64.0981Q213.675 62.3525 216.446 62.3525ZM215.775 72.9971Q217.276 72.9971 218.234 71.99Q219.199 70.9768 219.199 69.2739Q219.199 67.5771 218.234 66.564Q217.276 65.5508 215.775 65.5508Q214.273 65.5508 213.309 66.564Q212.351 67.5771 212.351 69.2739Q212.351 70.9768 213.309 71.99Q214.273 72.9971 215.775 72.9971ZM225.874 62.5479L229.75 62.5479L229.75 70.5496L236.299 62.5479L239.875 62.5479L239.875 76L236 76L236 67.9983L229.475 76L225.874 76L225.874 62.5479ZM256.752 76L256.752 67.9495L252.724 74.7L251.076 74.7L247.152 67.925L247.152 76L243.624 76L243.624 62.5479L247.701 62.5479L251.998 70.3237L256.575 62.5479L260.225 62.5479L260.274 76L256.752 76ZM277.475 62.5479L271.402 76.824Q270.475 79.1494 269.114 80.0955Q267.752 81.0476 265.824 81.0476Q264.774 81.0476 263.749 80.7241Q262.729 80.4006 262.076 79.8269L263.504 77.0498Q263.95 77.4526 264.536 77.6724Q265.128 77.8982 265.702 77.8982Q266.501 77.8982 267.002 77.5076Q267.502 77.123 267.899 76.2258L267.954 76.0977L262.125 62.5479L266.153 62.5479L269.925 71.6726L273.728 62.5479L277.475 62.5479ZM285.45 76.2502Q283.277 76.2502 281.562 75.3652Q279.853 74.4741 278.876 72.875Q277.9 71.2759 277.9 69.2739Q277.9 67.272 278.876 65.6729Q279.853 64.0737 281.562 63.1887Q283.277 62.2976 285.45 62.2976Q287.378 62.2976 288.941 62.9385Q290.503 63.5732 291.529 64.7756L289.301 66.8752Q287.775 65.3005 285.602 65.3005Q284.15 65.3005 283.1 66.0269Q282.05 66.7471 281.678 67.9983L287.329 67.9983L287.329 70.6716L281.726 70.6716Q282.129 71.874 283.149 72.5759Q284.174 73.2717 285.602 73.2717Q287.751 73.2717 289.301 71.6726L291.529 73.7478Q290.503 74.9746 288.941 75.6155Q287.378 76.2502 285.45 76.2502ZM311.628 65.7522L304.724 65.7522L304.724 76L300.849 76L300.849 62.5479L311.628 62.5479L311.628 65.7522ZM319.448 76.2014Q317.324 76.2014 315.633 75.3164Q313.948 74.4253 312.996 72.8506Q312.05 71.2759 312.05 69.2739Q312.05 67.272 312.996 65.6973Q313.948 64.1226 315.633 63.2375Q317.324 62.3525 319.448 62.3525Q321.578 62.3525 323.25 63.2375Q324.929 64.1226 325.875 65.6973Q326.827 67.272 326.827 69.2739Q326.827 71.2759 325.875 72.8506Q324.929 74.4253 323.25 75.3164Q321.578 76.2014 319.448 76.2014ZM319.448 72.9971Q320.949 72.9971 321.913 71.99Q322.878 70.9768 322.878 69.2739Q322.878 67.5771 321.913 66.564Q320.949 65.5508 319.448 65.5508Q317.952 65.5508 316.976 66.564Q315.999 67.5771 315.999 69.2739Q315.999 70.9768 316.976 71.99Q317.952 72.9971 319.448 72.9971ZM340.302 65.7522L335.749 65.7522L335.749 76L331.874 76L331.874 65.7522L327.326 65.7522L327.326 62.5479L340.302 62.5479L340.302 65.7522ZM348.123 76.2014Q345.999 76.2014 344.308 75.3164Q342.623 74.4253 341.671 72.8506Q340.725 71.2759 340.725 69.2739Q340.725 67.272 341.671 65.6973Q342.623 64.1226 344.308 63.2375Q345.999 62.3525 348.123 62.3525Q350.253 62.3525 351.925 63.2375Q353.604 64.1226 354.55 65.6973Q355.502 67.272 355.502 69.2739Q355.502 71.2759 354.55 72.8506Q353.604 74.4253 351.925 75.3164Q350.253 76.2014 348.123 76.2014ZM348.123 72.9971Q349.624 72.9971 350.588 71.99Q351.553 70.9768 351.553 69.2739Q351.553 67.5771 350.588 66.564Q349.624 65.5508 348.123 65.5508Q346.627 65.5508 345.651 66.564Q344.674 67.5771 344.674 69.2739Q344.674 70.9768 345.651 71.99Q346.627 72.9971 348.123 72.9971ZM368.452 68.9749Q370.826 69.7744 370.826 72.1731Q370.826 73.998 369.447 74.999Q368.074 76 365.352 76L358.174 76L358.174 62.5479L365.052 62.5479Q367.573 62.5479 368.995 63.4634Q370.424 64.3728 370.424 66.0269Q370.424 67.0278 369.911 67.7908Q369.398 68.5476 368.452 68.9749ZM361.75 68.0776L364.698 68.0776Q366.749 68.0776 366.749 66.625Q366.749 65.2029 364.698 65.2029L361.75 65.2029L361.75 68.0776ZM365.028 73.3511Q367.176 73.3511 367.176 71.874Q367.176 71.0989 366.676 70.7388Q366.175 70.3726 365.101 70.3726L361.75 70.3726L361.75 73.3511L365.028 73.3511ZM373.724 62.5479L377.6 62.5479L377.6 67.803L383.453 67.803L383.453 62.5479L387.353 62.5479L387.353 76L383.453 76L383.453 70.9768L377.6 70.9768L377.6 76L373.724 76L373.724 62.5479ZM391.049 62.5479L394.95 62.5479L394.95 76L391.049 76L391.049 62.5479ZM392.996 60.6741Q391.922 60.6741 391.245 60.0515Q390.573 59.4229 390.573 58.5012Q390.573 57.5735 391.245 56.9509Q391.922 56.3223 392.996 56.3223Q394.071 56.3223 394.748 56.9265Q395.426 57.5247 395.426 58.428Q395.426 59.3984 394.748 60.0393Q394.071 60.6741 392.996 60.6741ZM405.101 76.2014Q402.953 76.2014 401.238 75.3164Q399.523 74.4253 398.558 72.8506Q397.6 71.2759 397.6 69.2739Q397.6 67.272 398.558 65.6973Q399.523 64.1226 401.238 63.2375Q402.953 62.3525 405.101 62.3525Q407.225 62.3525 408.812 63.2375Q410.399 64.1226 411.126 65.7766L408.098 67.4001Q407.048 65.5508 405.077 65.5508Q403.551 65.5508 402.55 66.5518Q401.549 67.5527 401.549 69.2739Q401.549 71.0012 402.55 72.0022Q403.551 72.9971 405.077 72.9971Q407.073 72.9971 408.098 71.1477L411.126 72.8018Q410.399 74.4009 408.812 75.3042Q407.225 76.2014 405.101 76.2014ZM424.753 65.7522L420.199 65.7522L420.199 76L416.324 76L416.324 65.7522L411.776 65.7522L411.776 62.5479L424.753 62.5479L424.753 65.7522ZM434.099 66.8508Q436.724 66.8752 438.121 68.041Q439.525 69.2007 439.525 71.3247Q439.525 73.5525 437.963 74.7915Q436.4 76.0244 433.574 76.0244L426.824 76L426.824 62.5479L430.7 62.5479L430.7 66.8508L434.099 66.8508ZM433.226 73.2473Q434.349 73.2778 434.948 72.7773Q435.552 72.2769 435.552 71.2759Q435.552 70.2993 434.96 69.8538Q434.374 69.4021 433.226 69.3777L430.7 69.3472L430.7 73.2473L433.226 73.2473ZM455.323 76.2014Q453.199 76.2014 451.508 75.3164Q449.823 74.4253 448.871 72.8506Q447.925 71.2759 447.925 69.2739Q447.925 67.272 448.871 65.6973Q449.823 64.1226 451.508 63.2375Q453.199 62.3525 455.323 62.3525Q457.453 62.3525 459.125 63.2375Q460.804 64.1226 461.75 65.6973Q462.702 67.272 462.702 69.2739Q462.702 71.2759 461.75 72.8506Q460.804 74.4253 459.125 75.3164Q457.453 76.2014 455.323 76.2014ZM455.323 72.9971Q456.824 72.9971 457.788 71.99Q458.753 70.9768 458.753 69.2739Q458.753 67.5771 457.788 66.564Q456.824 65.5508 455.323 65.5508Q453.827 65.5508 452.851 66.564Q451.874 67.5771 451.874 69.2739Q451.874 70.9768 452.851 71.99Q453.827 72.9971 455.323 72.9971ZM473.296 62.3525Q475.176 62.3525 476.708 63.2131Q478.246 64.0737 479.119 65.6362Q479.998 67.1987 479.998 69.2739Q479.998 71.3491 479.119 72.9116Q478.246 74.4741 476.708 75.3408Q475.176 76.2014 473.296 76.2014Q470.727 76.2014 469.25 74.5779L469.25 80.8523L465.349 80.8523L465.349 62.5479L469.073 62.5479L469.073 64.0981Q470.525 62.3525 473.296 62.3525ZM472.625 72.9971Q474.126 72.9971 475.085 71.99Q476.049 70.9768 476.049 69.2739Q476.049 67.5771 475.085 66.564Q474.126 65.5508 472.625 65.5508Q471.123 65.5508 470.159 66.564Q469.201 67.5771 469.201 69.2739Q469.201 70.9768 470.159 71.99Q471.123 72.9971 472.625 72.9971ZM493.503 65.7522L486.6 65.7522L486.6 76L482.724 76L482.724 62.5479L493.503 62.5479L493.503 65.7522ZM500.805 62.3525Q503.93 62.3525 505.602 63.8418Q507.28 65.325 507.28 68.3279L507.28 76L503.63 76L503.63 74.3276Q502.526 76.2014 499.529 76.2014Q497.979 76.2014 496.837 75.6765Q495.702 75.1516 495.104 74.23Q494.506 73.3022 494.506 72.1243Q494.506 70.2505 495.916 69.1763Q497.326 68.1021 500.28 68.1021L503.38 68.1021Q503.38 66.8264 502.605 66.1367Q501.83 65.447 500.28 65.447Q499.205 65.447 498.168 65.7888Q497.13 66.1245 496.404 66.6982L495 63.9761Q496.105 63.2009 497.643 62.7798Q499.181 62.3525 500.805 62.3525ZM500.505 73.5769Q501.5 73.5769 502.275 73.113Q503.051 72.6492 503.38 71.752L503.38 70.3726L500.701 70.3726Q498.302 70.3726 498.302 71.9473Q498.302 72.698 498.888 73.1375Q499.48 73.5769 500.505 73.5769ZM510.674 62.5479L514.55 62.5479L514.55 67.803L520.403 67.803L520.403 62.5479L524.303 62.5479L524.303 76L520.403 76L520.403 70.9768L514.55 70.9768L514.55 76L510.674 76L510.674 62.5479ZM527.999 62.5479L531.9 62.5479L531.9 76L527.999 76L527.999 62.5479ZM529.946 60.6741Q528.872 60.6741 528.195 60.0515Q527.523 59.4229 527.523 58.5012Q527.523 57.5735 528.195 56.9509Q528.872 56.3223 529.946 56.3223Q531.021 56.3223 531.698 56.9265Q532.376 57.5247 532.376 58.428Q532.376 59.3984 531.698 60.0393Q531.021 60.6741 529.946 60.6741ZM544.252 68.9993Q545.448 69.3777 546.107 70.1528Q546.773 70.928 546.773 72.0022Q546.773 73.2778 545.9 74.2422Q545.027 75.2004 543.501 75.7253Q541.975 76.2502 540.053 76.2502Q538.478 76.2502 536.952 75.9268Q535.426 75.5972 534.126 74.9502L535.176 72.228Q537.3 73.2473 539.876 73.2473Q541.249 73.2473 542.036 72.8384Q542.824 72.4233 542.824 71.6726Q542.824 71.0256 542.274 70.6899Q541.725 70.3481 540.675 70.3481L537.922 70.3481L537.922 67.925L540.327 67.925Q541.353 67.925 541.902 67.6016Q542.451 67.272 542.451 66.6494Q542.451 66.0024 541.762 65.6545Q541.078 65.3005 539.802 65.3005Q537.849 65.3005 535.548 66.2222L534.602 63.5244Q537.398 62.2976 540.053 62.2976Q541.878 62.2976 543.312 62.7493Q544.752 63.2009 545.576 64.0615Q546.4 64.9221 546.4 66.0757Q546.4 67.0278 545.827 67.7908Q545.253 68.5476 544.252 68.9993ZM562.728 76L562.728 67.9495L558.699 74.7L557.051 74.7L553.127 67.925L553.127 76L549.599 76L549.599 62.5479L553.676 62.5479L557.973 70.3237L562.551 62.5479L566.2 62.5479L566.249 76L562.728 76ZM583.45 62.5479L577.377 76.824Q576.45 79.1494 575.089 80.0955Q573.728 81.0476 571.799 81.0476Q570.749 81.0476 569.724 80.7241Q568.704 80.4006 568.051 79.8269L569.479 77.0498Q569.925 77.4526 570.511 77.6724Q571.103 77.8982 571.677 77.8982Q572.476 77.8982 572.977 77.5076Q573.477 77.123 573.874 76.2258L573.929 76.0977L568.1 62.5479L572.128 62.5479L575.9 71.6726L579.703 62.5479L583.45 62.5479ZM167.949 107.802L167.949 113.899L164.324 113.899L164.324 111L154.876 111L154.876 113.899L151.25 113.899L151.25 107.802L151.8 107.802Q153.051 107.777 153.527 106.325Q154.003 104.872 154.125 102.199L154.302 97.5479L166.027 97.5479L166.027 107.802L167.949 107.802ZM157.653 102.473Q157.573 104.524 157.335 105.824Q157.097 107.124 156.45 107.802L162.127 107.802L162.127 100.752L157.726 100.752L157.653 102.473ZM176.698 111.201Q174.574 111.201 172.883 110.316Q171.198 109.425 170.246 107.851Q169.3 106.276 169.3 104.274Q169.3 102.272 170.246 100.697Q171.198 99.1226 172.883 98.2375Q174.574 97.3525 176.698 97.3525Q178.828 97.3525 180.5 98.2375Q182.179 99.1226 183.125 100.697Q184.077 102.272 184.077 104.274Q184.077 106.276 183.125 107.851Q182.179 109.425 180.5 110.316Q178.828 111.201 176.698 111.201ZM176.698 107.997Q178.199 107.997 179.163 106.99Q180.128 105.977 180.128 104.274Q180.128 102.577 179.163 101.564Q178.199 100.551 176.698 100.551Q175.202 100.551 174.226 101.564Q173.249 102.577 173.249 104.274Q173.249 105.977 174.226 106.99Q175.202 107.997 176.698 107.997ZM202.552 103.999Q203.748 104.378 204.407 105.153Q205.073 105.928 205.073 107.002Q205.073 108.278 204.2 109.242Q203.327 110.2 201.801 110.725Q200.275 111.25 198.353 111.25Q196.778 111.25 195.252 110.927Q193.726 110.597 192.426 109.95L193.476 107.228Q195.6 108.247 198.176 108.247Q199.549 108.247 200.336 107.838Q201.124 107.423 201.124 106.673Q201.124 106.026 200.574 105.69Q200.025 105.348 198.975 105.348L196.222 105.348L196.222 102.925L198.627 102.925Q199.653 102.925 200.202 102.602Q200.751 102.272 200.751 101.649Q200.751 101.002 200.062 100.655Q199.378 100.301 198.102 100.301Q196.149 100.301 193.848 101.222L192.902 98.5244Q195.698 97.2976 198.353 97.2976Q200.178 97.2976 201.612 97.7493Q203.052 98.2009 203.876 99.0615Q204.7 99.9221 204.7 101.076Q204.7 102.028 204.127 102.791Q203.553 103.548 202.552 103.999ZM221.375 97.5479L215.302 111.824Q214.375 114.149 213.014 115.095Q211.652 116.048 209.724 116.048Q208.674 116.048 207.649 115.724Q206.629 115.401 205.976 114.827L207.404 112.05Q207.85 112.453 208.436 112.672Q209.028 112.898 209.602 112.898Q210.401 112.898 210.902 112.508Q211.402 112.123 211.799 111.226L211.854 111.098L206.025 97.5479L210.053 97.5479L213.825 106.673L217.628 97.5479L221.375 97.5479ZM229.276 111.201Q227.128 111.201 225.413 110.316Q223.698 109.425 222.733 107.851Q221.775 106.276 221.775 104.274Q221.775 102.272 222.733 100.697Q223.698 99.1226 225.413 98.2375Q227.128 97.3525 229.276 97.3525Q231.4 97.3525 232.987 98.2375Q234.574 99.1226 235.301 100.777L232.273 102.4Q231.223 100.551 229.252 100.551Q227.726 100.551 226.725 101.552Q225.724 102.553 225.724 104.274Q225.724 106.001 226.725 107.002Q227.726 107.997 229.252 107.997Q231.248 107.997 232.273 106.148L235.301 107.802Q234.574 109.401 232.987 110.304Q231.4 111.201 229.276 111.201ZM248.927 100.752L244.374 100.752L244.374 111L240.499 111L240.499 100.752L235.951 100.752L235.951 97.5479L248.927 97.5479L248.927 100.752ZM258.921 97.3525Q260.801 97.3525 262.333 98.2131Q263.871 99.0737 264.744 100.636Q265.623 102.199 265.623 104.274Q265.623 106.349 264.744 107.912Q263.871 109.474 262.333 110.341Q260.801 111.201 258.921 111.201Q256.352 111.201 254.875 109.578L254.875 115.852L250.974 115.852L250.974 97.5479L254.698 97.5479L254.698 99.0981Q256.15 97.3525 258.921 97.3525ZM258.25 107.997Q259.751 107.997 260.709 106.99Q261.674 105.977 261.674 104.274Q261.674 102.577 260.709 101.564Q259.751 100.551 258.25 100.551Q256.748 100.551 255.784 101.564Q254.826 102.577 254.826 104.274Q254.826 105.977 255.784 106.99Q256.748 107.997 258.25 107.997ZM268.324 97.5479L272.225 97.5479L272.225 111L268.324 111L268.324 97.5479ZM270.271 95.6741Q269.197 95.6741 268.52 95.0515Q267.848 94.4229 267.848 93.5012Q267.848 92.5735 268.52 91.9509Q269.197 91.3223 270.271 91.3223Q271.346 91.3223 272.023 91.9265Q272.701 92.5247 272.701 93.428Q272.701 94.3984 272.023 95.0393Q271.346 95.6741 270.271 95.6741ZM288.077 97.5479L288.077 111L284.177 111L284.177 106.001Q282.474 106.85 280.423 106.85Q277.701 106.85 276.309 105.617Q274.924 104.378 274.924 101.778L274.924 97.5479L278.824 97.5479L278.824 101.527Q278.824 102.748 279.459 103.303Q280.1 103.853 281.302 103.853Q282.828 103.853 284.177 103.2L284.177 97.5479L288.077 97.5479ZM291.799 97.5479L295.7 97.5479L295.7 111L291.799 111L291.799 97.5479ZM293.746 95.6741Q292.672 95.6741 291.995 95.0515Q291.323 94.4229 291.323 93.5012Q291.323 92.5735 291.995 91.9509Q292.672 91.3223 293.746 91.3223Q294.821 91.3223 295.498 91.9265Q296.176 92.5247 296.176 93.428Q296.176 94.3984 295.498 95.0393Q294.821 95.6741 293.746 95.6741ZM315.252 103.999Q316.448 104.378 317.107 105.153Q317.773 105.928 317.773 107.002Q317.773 108.278 316.9 109.242Q316.027 110.2 314.501 110.725Q312.975 111.25 311.053 111.25Q309.478 111.25 307.952 110.927Q306.426 110.597 305.126 109.95L306.176 107.228Q308.3 108.247 310.876 108.247Q312.249 108.247 313.036 107.838Q313.824 107.423 313.824 106.673Q313.824 106.026 313.274 105.69Q312.725 105.348 311.675 105.348L308.922 105.348L308.922 102.925L311.327 102.925Q312.353 102.925 312.902 102.602Q313.451 102.272 313.451 101.649Q313.451 101.002 312.762 100.655Q312.078 100.301 310.802 100.301Q308.849 100.301 306.548 101.222L305.602 98.5244Q308.398 97.2976 311.053 97.2976Q312.878 97.2976 314.312 97.7493Q315.752 98.2009 316.576 99.0615Q317.4 99.9221 317.4 101.076Q317.4 102.028 316.827 102.791Q316.253 103.548 315.252 103.999ZM337.952 103.975Q340.326 104.774 340.326 107.173Q340.326 108.998 338.947 109.999Q337.574 111 334.852 111L327.674 111L327.674 97.5479L334.552 97.5479Q337.073 97.5479 338.495 98.4634Q339.924 99.3728 339.924 101.027Q339.924 102.028 339.411 102.791Q338.898 103.548 337.952 103.975ZM331.25 103.078L334.198 103.078Q336.249 103.078 336.249 101.625Q336.249 100.203 334.198 100.203L331.25 100.203L331.25 103.078ZM334.528 108.351Q336.676 108.351 336.676 106.874Q336.676 106.099 336.176 105.739Q335.675 105.373 334.601 105.373L331.25 105.373L331.25 108.351L334.528 108.351ZM343.199 97.5479L347.099 97.5479L347.099 111L343.199 111L343.199 97.5479ZM345.146 95.6741Q344.072 95.6741 343.395 95.0515Q342.723 94.4229 342.723 93.5012Q342.723 92.5735 343.395 91.9509Q344.072 91.3223 345.146 91.3223Q346.221 91.3223 346.898 91.9265Q347.576 92.5247 347.576 93.428Q347.576 94.3984 346.898 95.0393Q346.221 95.6741 345.146 95.6741ZM358.771 97.3525Q360.651 97.3525 362.183 98.2131Q363.721 99.0737 364.594 100.636Q365.473 102.199 365.473 104.274Q365.473 106.349 364.594 107.912Q363.721 109.474 362.183 110.341Q360.651 111.201 358.771 111.201Q356.202 111.201 354.724 109.578L354.724 115.852L350.824 115.852L350.824 97.5479L354.547 97.5479L354.547 99.0981Q356 97.3525 358.771 97.3525ZM358.1 107.997Q359.601 107.997 360.559 106.99Q361.524 105.977 361.524 104.274Q361.524 102.577 360.559 101.564Q359.601 100.551 358.1 100.551Q356.598 100.551 355.634 101.564Q354.676 102.577 354.676 104.274Q354.676 105.977 355.634 106.99Q356.598 107.997 358.1 107.997ZM381.3 97.5479L375.227 111.824Q374.3 114.149 372.939 115.095Q371.577 116.048 369.649 116.048Q368.599 116.048 367.574 115.724Q366.554 115.401 365.901 114.827L367.329 112.05Q367.775 112.453 368.361 112.672Q368.953 112.898 369.527 112.898Q370.326 112.898 370.827 112.508Q371.327 112.123 371.724 111.226L371.779 111.098L365.95 97.5479L369.978 97.5479L373.75 106.673L377.553 97.5479L381.3 97.5479ZM389.201 111.201Q387.053 111.201 385.338 110.316Q383.623 109.425 382.658 107.851Q381.7 106.276 381.7 104.274Q381.7 102.272 382.658 100.697Q383.623 99.1226 385.338 98.2375Q387.053 97.3525 389.201 97.3525Q391.325 97.3525 392.912 98.2375Q394.499 99.1226 395.226 100.777L392.198 102.4Q391.148 100.551 389.177 100.551Q387.651 100.551 386.65 101.552Q385.649 102.553 385.649 104.274Q385.649 106.001 386.65 107.002Q387.651 107.997 389.177 107.997Q391.173 107.997 392.198 106.148L395.226 107.802Q394.499 109.401 392.912 110.304Q391.325 111.201 389.201 111.201ZM403.723 111.201Q401.599 111.201 399.908 110.316Q398.223 109.425 397.271 107.851Q396.325 106.276 396.325 104.274Q396.325 102.272 397.271 100.697Q398.223 99.1226 399.908 98.2375Q401.599 97.3525 403.723 97.3525Q405.853 97.3525 407.525 98.2375Q409.204 99.1226 410.15 100.697Q411.102 102.272 411.102 104.274Q411.102 106.276 410.15 107.851Q409.204 109.425 407.525 110.316Q405.853 111.201 403.723 111.201ZM403.723 107.997Q405.224 107.997 406.188 106.99Q407.153 105.977 407.153 104.274Q407.153 102.577 406.188 101.564Q405.224 100.551 403.723 100.551Q402.227 100.551 401.251 101.564Q400.274 102.577 400.274 104.274Q400.274 105.977 401.251 106.99Q402.227 107.997 403.723 107.997ZM426.902 111L426.902 102.949L422.874 109.7L421.226 109.7L417.302 102.925L417.302 111L413.774 111L413.774 97.5479L417.851 97.5479L422.148 105.324L426.725 97.5479L430.375 97.5479L430.424 111L426.902 111Z" fill="#008083" fill-opacity="1.000000" fill-rule="evenodd"/>
	<ellipse id="Ellipse 16" cx="66.500000" cy="67.000000" rx="66.500000" ry="67.000000" fill="url(#paint_linear_67_165_0)" fill-opacity="1.000000"/>
	<path id="Vector" d="M95.8242 78.1309C94.6956 77.4814 93.2612 77.8691 92.6123 78.9912L86.386 75.3955C87.2275 73.4775 87.792 71.4102 88.0295 69.2451C88.0764 69.2471 88.1165 69.2705 88.1636 69.2705L92.8662 69.2705C94.1643 69.2705 95.2175 68.2197 95.2175 66.9189C95.2175 65.6191 94.1643 64.5674 92.8662 64.5674L88.1636 64.5674C88.1165 64.5674 88.0764 64.5918 88.0295 64.5938C87.792 62.4258 87.2253 60.3613 86.386 58.4424L92.6123 54.8477C93.0496 55.5996 93.8374 56.0225 94.6509 56.0225C95.0483 56.0225 95.4526 55.9219 95.8242 55.708C96.9482 55.0586 97.3337 53.6201 96.6848 52.4961L94.3335 48.4229C93.6846 47.2998 92.2478 46.9092 91.1216 47.5625C89.9976 48.2119 89.6121 49.6504 90.261 50.7744L84.0181 54.3789C82.7812 52.7031 81.3069 51.2217 79.6375 49.9756L83.0774 44.6914C83.7852 43.6025 83.4773 42.1455 82.3909 41.4375C81.3044 40.7295 79.8442 41.0352 79.1389 42.124L75.5813 47.5889C73.6414 46.7236 71.5488 46.1377 69.3525 45.8955L69.3525 38.7031C70.6504 38.7031 71.7039 37.6514 71.7039 36.3516C71.7039 35.0508 70.6504 34 69.3525 34L64.6499 34C63.3518 34 62.2983 35.0508 62.2983 36.3516C62.2983 37.6514 63.3518 38.7031 64.6499 38.7031L64.6499 45.8955C62.4536 46.1377 60.3608 46.7236 58.4211 47.5859L54.8635 42.1221C54.1558 41.0332 52.6978 40.7275 51.6116 41.4346C50.5227 42.1426 50.2148 43.6006 50.9226 44.6895L54.3625 49.9727C52.6931 51.2188 51.2188 52.7031 49.9819 54.377L43.7415 50.7744C44.3904 49.6484 44.0049 48.2119 42.8809 47.5625C41.7522 46.9092 40.3154 47.2998 39.6665 48.4229L37.3152 52.4961C36.6663 53.6221 37.0518 55.0586 38.1758 55.708C38.5474 55.9219 38.9517 56.0225 39.3491 56.0225C40.1626 56.0225 40.9504 55.5996 41.3877 54.8477L47.614 58.4424C46.7747 60.3613 46.2056 62.4277 45.9705 64.5938C45.9258 64.5918 45.886 64.5674 45.8389 64.5674L41.1362 64.5674C39.8381 64.5674 38.7847 65.6191 38.7847 66.9189C38.7847 68.2197 39.8381 69.2705 41.1362 69.2705L45.8389 69.2705C45.886 69.2705 45.9258 69.2471 45.9729 69.2451C46.2104 71.4131 46.7771 73.4775 47.6165 75.3955L41.3901 78.9912C40.7388 77.8672 39.302 77.4795 38.178 78.1309C37.0542 78.7793 36.6685 80.2188 37.3174 81.3428L39.6689 85.415C40.1062 86.168 40.8938 86.5908 41.7075 86.5908C42.105 86.5908 42.5093 86.4893 42.8809 86.2754C44.0049 85.627 44.3904 84.1875 43.7415 83.0635L49.9844 79.459C51.2212 81.1357 52.6956 82.6172 54.365 83.8633L50.9248 89.1465C50.217 90.2354 50.5251 91.6934 51.6116 92.4014C52.0066 92.6592 52.4509 92.7842 52.8906 92.7842C53.6594 92.7842 54.4119 92.4082 54.8635 91.7168L58.4211 86.252C60.3633 87.1152 62.4536 87.7002 64.6499 87.9424L64.6499 95.1357C63.3518 95.1357 62.2983 96.1865 62.2983 97.4873C62.2983 98.7871 63.3518 99.8379 64.6499 99.8379L69.3525 99.8379C70.6504 99.8379 71.7039 98.7871 71.7039 97.4873C71.7039 96.1865 70.6504 95.1357 69.3525 95.1357L69.3525 87.9424C71.5488 87.7002 73.6414 87.1152 75.5813 86.252L79.1389 91.7168C79.5903 92.4082 80.3428 92.7842 81.1118 92.7842C81.5515 92.7842 81.9958 92.6592 82.3909 92.4033C83.4795 91.6953 83.7876 90.2373 83.0774 89.1494L79.6375 83.8652C81.3069 82.6191 82.7812 81.1357 84.0181 79.4609L90.261 83.0664C89.6121 84.1924 89.9976 85.6289 91.1216 86.2783C91.4932 86.4922 91.8975 86.5928 92.2949 86.5928C93.1084 86.5928 93.8984 86.1699 94.3335 85.417L96.6848 81.3447C97.3337 80.2158 96.9482 78.7793 95.8242 78.1309ZM57.5957 76.3242C54.9973 76.3242 52.8931 74.2197 52.8931 71.6221C52.8931 69.0234 54.9973 66.9189 57.5957 66.9189C60.1938 66.9189 62.2983 69.0234 62.2983 71.6221C62.2983 74.2197 60.1938 76.3242 57.5957 76.3242ZM68.1768 59.8652C66.23 59.8652 64.6499 58.2852 64.6499 56.3379C64.6499 54.3906 66.23 52.8105 68.1768 52.8105C70.1238 52.8105 71.7039 54.3906 71.7039 56.3379C71.7039 58.2852 70.1238 59.8652 68.1768 59.8652ZM71.7039 75.1494C71.7039 73.2021 73.2839 71.6221 75.231 71.6221C77.178 71.6221 78.7581 73.2021 78.7581 75.1494C78.7581 77.0957 77.178 78.6758 75.231 78.6758C73.2839 78.6758 71.7039 77.0957 71.7039 75.1494Z" fill="#FFFFFF" fill-opacity="1.000000" fill-rule="evenodd"/>
</svg>
