<svg width="493.000000" height="133.000000" viewBox="0 0 493 133" fill="none" xmlns="http://www.w3.org/2000/svg" xmlns:xlink="http://www.w3.org/1999/xlink">
	<desc>
			Created with Pixso.
	</desc>
	<defs>
		<linearGradient id="paint_linear_67_166_0" x1="77.771500" y1="-49.448700" x2="67.058830" y2="126.231537" gradientUnits="userSpaceOnUse">
			<stop stop-color="#008083"/>
			<stop offset="1.000000" stop-color="#3FBEC1"/>
		</linearGradient>
	</defs>
	<path id="Підвищує чутливість рецепторів до інтерферонів" d="M328.176 74.3511L328.176 79.9724L325.253 79.9724L325.253 77L314.95 77L314.95 79.9724L312.051 79.9724L312.051 74.3511L312.673 74.3511Q313.949 74.3022 314.413 72.7153Q314.877 71.1223 315.023 68.2231L315.2 63.6516L326.199 63.6516L326.199 74.3511L328.176 74.3511ZM317.874 68.449Q317.776 70.75 317.501 72.2026Q317.227 73.6492 316.5 74.3511L323.074 74.3511L323.074 66.3005L317.953 66.3005L317.874 68.449ZM336.926 77.177Q334.899 77.177 333.276 76.3042Q331.652 75.4253 330.737 73.8628Q329.827 72.3003 329.827 70.3228Q329.827 68.3513 330.737 66.801Q331.652 65.2507 333.276 64.3779Q334.899 63.499 336.926 63.499Q338.976 63.499 340.6 64.3779Q342.223 65.2507 343.133 66.801Q344.048 68.3513 344.048 70.3228Q344.048 72.3003 343.133 73.8628Q342.223 75.4253 340.6 76.3042Q338.976 77.177 336.926 77.177ZM336.926 74.4976Q338.653 74.4976 339.776 73.3501Q340.899 72.2026 340.899 70.3228Q340.899 68.449 339.776 67.3015Q338.653 66.1479 336.926 66.1479Q335.198 66.1479 334.087 67.3015Q332.977 68.449 332.977 70.3228Q332.977 72.2026 334.087 73.3501Q335.198 74.4976 336.926 74.4976ZM153.1 98.6516L156.225 98.6516L156.225 112L153.1 112L153.1 98.6516ZM154.674 96.4482Q153.826 96.4482 153.252 95.9111Q152.678 95.374 152.678 94.5745Q152.678 93.7749 153.252 93.2378Q153.826 92.7007 154.674 92.7007Q155.523 92.7007 156.096 93.2134Q156.676 93.7261 156.676 94.5012Q156.676 95.3252 156.115 95.8867Q155.553 96.4482 154.674 96.4482ZM160.45 98.6516L163.575 98.6516L163.575 104.078L170.301 104.078L170.301 98.6516L173.426 98.6516L173.426 112L170.301 112L170.301 106.727L163.575 106.727L163.575 112L160.45 112L160.45 98.6516ZM188.202 101.301L183.527 101.301L183.527 112L180.402 112L180.402 101.301L175.702 101.301L175.702 98.6516L188.202 98.6516L188.202 101.301ZM202.4 105.402Q202.4 105.726 202.351 106.324L191.877 106.324Q192.152 107.801 193.311 108.661Q194.477 109.522 196.198 109.522Q198.402 109.522 199.824 108.075L201.502 109.998Q200.599 111.072 199.226 111.628Q197.852 112.177 196.125 112.177Q193.928 112.177 192.249 111.304Q190.577 110.425 189.662 108.863Q188.752 107.3 188.752 105.323Q188.752 103.376 189.637 101.813Q190.522 100.251 192.097 99.3779Q193.678 98.499 195.649 98.499Q197.602 98.499 199.134 99.3657Q200.672 100.226 201.533 101.789Q202.4 103.351 202.4 105.402ZM195.649 101.001Q194.148 101.001 193.11 101.893Q192.072 102.778 191.853 104.249L199.427 104.249Q199.226 102.802 198.2 101.905Q197.175 101.001 195.649 101.001ZM213.222 98.499Q215.175 98.499 216.713 99.3535Q218.251 100.202 219.124 101.752Q219.997 103.302 219.997 105.323Q219.997 107.349 219.124 108.912Q218.251 110.474 216.713 111.329Q215.175 112.177 213.222 112.177Q210.524 112.177 208.95 110.376L208.95 116.852L205.825 116.852L205.825 98.6516L208.797 98.6516L208.797 100.397Q209.572 99.4512 210.707 98.9751Q211.849 98.499 213.222 98.499ZM212.874 109.498Q214.601 109.498 215.712 108.35Q216.823 107.203 216.823 105.323Q216.823 103.449 215.712 102.302Q214.601 101.148 212.874 101.148Q211.751 101.148 210.848 101.661Q209.951 102.173 209.426 103.125Q208.901 104.078 208.901 105.323Q208.901 106.574 209.426 107.526Q209.951 108.472 210.848 108.985Q211.751 109.498 212.874 109.498ZM240.751 105.298Q240.751 108.399 238.688 110.175Q236.625 111.951 232.798 112.201L232.798 116.852L229.85 116.852L229.85 112.226Q226.023 111.976 223.972 110.199Q221.928 108.423 221.928 105.298Q221.928 102.198 223.972 100.464Q226.023 98.7249 229.85 98.4746L229.85 93.4514L232.798 93.4514L232.798 98.4746Q236.625 98.7249 238.688 100.477Q240.751 102.222 240.751 105.298ZM224.998 105.298Q224.998 107.227 226.182 108.301Q227.372 109.375 229.85 109.601L229.85 101.124Q227.372 101.325 226.182 102.375Q224.998 103.425 224.998 105.298ZM232.798 109.601Q237.699 109.15 237.699 105.298Q237.699 103.4 236.485 102.363Q235.276 101.325 232.798 101.124L232.798 109.601ZM256.275 105.402Q256.275 105.726 256.226 106.324L245.752 106.324Q246.027 107.801 247.186 108.661Q248.352 109.522 250.073 109.522Q252.277 109.522 253.699 108.075L255.377 109.998Q254.474 111.072 253.101 111.628Q251.727 112.177 250 112.177Q247.803 112.177 246.124 111.304Q244.452 110.425 243.537 108.863Q242.627 107.3 242.627 105.323Q242.627 103.376 243.512 101.813Q244.397 100.251 245.972 99.3779Q247.553 98.499 249.524 98.499Q251.477 98.499 253.009 99.3657Q254.547 100.226 255.408 101.789Q256.275 103.351 256.275 105.402ZM249.524 101.001Q248.023 101.001 246.985 101.893Q245.947 102.778 245.728 104.249L253.302 104.249Q253.101 102.802 252.075 101.905Q251.05 101.001 249.524 101.001ZM267.097 98.499Q269.05 98.499 270.588 99.3535Q272.126 100.202 272.999 101.752Q273.872 103.302 273.872 105.323Q273.872 107.349 272.999 108.912Q272.126 110.474 270.588 111.329Q269.05 112.177 267.097 112.177Q264.399 112.177 262.825 110.376L262.825 116.852L259.7 116.852L259.7 98.6516L262.672 98.6516L262.672 100.397Q263.447 99.4512 264.582 98.9751Q265.724 98.499 267.097 98.499ZM266.749 109.498Q268.476 109.498 269.587 108.35Q270.698 107.203 270.698 105.323Q270.698 103.449 269.587 102.302Q268.476 101.148 266.749 101.148Q265.626 101.148 264.723 101.661Q263.826 102.173 263.301 103.125Q262.776 104.078 262.776 105.323Q262.776 106.574 263.301 107.526Q263.826 108.472 264.723 108.985Q265.626 109.498 266.749 109.498ZM282.926 112.177Q280.899 112.177 279.276 111.304Q277.652 110.425 276.737 108.863Q275.827 107.3 275.827 105.323Q275.827 103.351 276.737 101.801Q277.652 100.251 279.276 99.3779Q280.899 98.499 282.926 98.499Q284.976 98.499 286.6 99.3779Q288.223 100.251 289.133 101.801Q290.048 103.351 290.048 105.323Q290.048 107.3 289.133 108.863Q288.223 110.425 286.6 111.304Q284.976 112.177 282.926 112.177ZM282.926 109.498Q284.653 109.498 285.776 108.35Q286.899 107.203 286.899 105.323Q286.899 103.449 285.776 102.302Q284.653 101.148 282.926 101.148Q281.198 101.148 280.087 102.302Q278.977 103.449 278.977 105.323Q278.977 107.203 280.087 108.35Q281.198 109.498 282.926 109.498ZM293.125 98.6516L296.25 98.6516L296.25 104.078L302.976 104.078L302.976 98.6516L306.101 98.6516L306.101 112L302.976 112L302.976 106.727L296.25 106.727L296.25 112L293.125 112L293.125 98.6516ZM310.3 98.6516L313.425 98.6516L313.425 112L310.3 112L310.3 98.6516ZM311.874 96.4482Q311.026 96.4482 310.452 95.9111Q309.878 95.374 309.878 94.5745Q309.878 93.7749 310.452 93.2378Q311.026 92.7007 311.874 92.7007Q312.723 92.7007 313.296 93.2134Q313.876 93.7261 313.876 94.5012Q313.876 95.3252 313.315 95.8867Q312.753 96.4482 311.874 96.4482ZM327.324 105.048Q329.802 105.799 329.802 108.252Q329.802 110.053 328.447 111.03Q327.098 112 324.449 112L317.65 112L317.65 98.6516L324.174 98.6516Q326.628 98.6516 328.001 99.5549Q329.374 100.452 329.374 102.1Q329.374 103.125 328.837 103.876Q328.3 104.627 327.324 105.048ZM320.622 104.224L323.9 104.224Q326.323 104.224 326.323 102.552Q326.323 100.922 323.9 100.922L320.622 100.922L320.622 104.224ZM324.199 109.723Q326.774 109.723 326.774 108.051Q326.774 107.172 326.17 106.739Q325.572 106.299 324.302 106.299L320.622 106.299L320.622 109.723L324.199 109.723Z" fill="#000000" fill-opacity="1.000000" fill-rule="evenodd"/>
	<path id="Підвищує чутливість рецепторів до інтерферонів" d="M169.127 24.5012L169.127 42L165.099 42L165.099 27.7971L157.201 27.7971L157.201 42L153.173 42L153.173 24.5012L169.127 24.5012ZM173.149 28.5479L177.05 28.5479L177.05 42L173.149 42L173.149 28.5479ZM175.096 26.6741Q174.022 26.6741 173.345 26.0515Q172.673 25.4229 172.673 24.5012Q172.673 23.5735 173.345 22.9509Q174.022 22.3223 175.096 22.3223Q176.171 22.3223 176.848 22.9265Q177.526 23.5247 177.526 24.428Q177.526 25.3984 176.848 26.0393Q176.171 26.6741 175.096 26.6741ZM195.874 38.8018L195.874 44.8992L192.249 44.8992L192.249 42L182.801 42L182.801 44.8992L179.175 44.8992L179.175 38.8018L179.725 38.8018Q180.976 38.7773 181.452 37.3247Q181.928 35.8721 182.05 33.1987L182.227 28.5479L193.952 28.5479L193.952 38.8018L195.874 38.8018ZM185.578 33.4734Q185.498 35.5242 185.26 36.8242Q185.022 38.1243 184.375 38.8018L190.052 38.8018L190.052 31.7522L185.651 31.7522L185.578 33.4734ZM208.602 34.9749Q210.976 35.7744 210.976 38.1731Q210.976 39.998 209.597 40.999Q208.224 42 205.502 42L198.324 42L198.324 28.5479L205.202 28.5479Q207.723 28.5479 209.145 29.4634Q210.574 30.3728 210.574 32.0269Q210.574 33.0278 210.061 33.7908Q209.548 34.5476 208.602 34.9749ZM201.9 34.0776L204.848 34.0776Q206.899 34.0776 206.899 32.625Q206.899 31.2029 204.848 31.2029L201.9 31.2029L201.9 34.0776ZM205.178 39.3511Q207.326 39.3511 207.326 37.874Q207.326 37.0989 206.826 36.7388Q206.325 36.3726 205.251 36.3726L201.9 36.3726L201.9 39.3511L205.178 39.3511ZM213.874 28.5479L217.75 28.5479L217.75 36.5496L224.299 28.5479L227.875 28.5479L227.875 42L224 42L224 33.9983L217.475 42L213.874 42L213.874 28.5479ZM252.15 28.5479L252.15 42L231.624 42L231.624 28.5479L235.5 28.5479L235.5 38.8018L239.973 38.8018L239.973 28.5479L243.849 28.5479L243.849 38.8018L248.274 38.8018L248.274 28.5479L252.15 28.5479ZM254.024 38.8018L254.024 44.6733L250.398 44.6733L250.398 42L248.177 42L248.177 38.8018L254.024 38.8018ZM269.375 28.5479L263.302 42.824Q262.375 45.1494 261.014 46.0955Q259.652 47.0476 257.724 47.0476Q256.674 47.0476 255.649 46.7241Q254.629 46.4006 253.976 45.8269L255.404 43.0498Q255.85 43.4526 256.436 43.6724Q257.028 43.8982 257.602 43.8982Q258.401 43.8982 258.902 43.5076Q259.402 43.123 259.799 42.2258L259.854 42.0977L254.025 28.5479L258.053 28.5479L261.825 37.6726L265.628 28.5479L269.375 28.5479ZM277.35 42.2502Q275.177 42.2502 273.462 41.3652Q271.753 40.4741 270.776 38.875Q269.8 37.2759 269.8 35.2739Q269.8 33.272 270.776 31.6729Q271.753 30.0737 273.462 29.1887Q275.177 28.2976 277.35 28.2976Q279.278 28.2976 280.841 28.9385Q282.403 29.5732 283.429 30.7756L281.201 32.8752Q279.675 31.3005 277.502 31.3005Q276.05 31.3005 275 32.0269Q273.95 32.7471 273.578 33.9983L279.229 33.9983L279.229 36.6716L273.626 36.6716Q274.029 37.874 275.049 38.5759Q276.074 39.2717 277.502 39.2717Q279.651 39.2717 281.201 37.6726L283.429 39.7478Q282.403 40.9746 280.841 41.6155Q279.278 42.2502 277.35 42.2502ZM304.852 28.5479L304.852 42L300.952 42L300.952 37.0012Q299.249 37.8496 297.198 37.8496Q294.476 37.8496 293.084 36.6167Q291.699 35.3777 291.699 32.7776L291.699 28.5479L295.599 28.5479L295.599 32.5273Q295.599 33.748 296.234 34.3035Q296.875 34.8528 298.077 34.8528Q299.603 34.8528 300.952 34.1997L300.952 28.5479L304.852 28.5479ZM322.075 28.5479L316.002 42.824Q315.075 45.1494 313.714 46.0955Q312.352 47.0476 310.424 47.0476Q309.374 47.0476 308.349 46.7241Q307.329 46.4006 306.676 45.8269L308.104 43.0498Q308.55 43.4526 309.136 43.6724Q309.728 43.8982 310.302 43.8982Q311.101 43.8982 311.602 43.5076Q312.102 43.123 312.499 42.2258L312.554 42.0977L306.725 28.5479L310.753 28.5479L314.525 37.6726L318.328 28.5479L322.075 28.5479ZM335.378 31.7522L330.824 31.7522L330.824 42L326.949 42L326.949 31.7522L322.401 31.7522L322.401 28.5479L335.378 28.5479L335.378 31.7522ZM349.377 28.5479L349.377 42L345.476 42L345.476 31.7522L341.222 31.7522L341.1 34.1265Q341.003 36.7754 340.6 38.5271Q340.203 40.2727 339.3 41.2737Q338.402 42.2747 336.797 42.2747Q335.949 42.2747 334.777 41.9756L334.972 38.7773Q335.375 38.8262 335.552 38.8262Q336.425 38.8262 336.858 38.1914Q337.298 37.5505 337.45 36.5618Q337.603 35.573 337.676 33.9495L337.878 28.5479L349.377 28.5479ZM353.124 28.5479L357 28.5479L357 36.5496L363.549 28.5479L367.125 28.5479L367.125 42L363.25 42L363.25 33.9983L356.725 42L353.124 42L353.124 28.5479ZM381.152 34.9749Q383.526 35.7744 383.526 38.1731Q383.526 39.998 382.147 40.999Q380.774 42 378.052 42L370.874 42L370.874 28.5479L377.752 28.5479Q380.273 28.5479 381.695 29.4634Q383.124 30.3728 383.124 32.0269Q383.124 33.0278 382.611 33.7908Q382.098 34.5476 381.152 34.9749ZM374.45 34.0776L377.398 34.0776Q379.449 34.0776 379.449 32.625Q379.449 31.2029 377.398 31.2029L374.45 31.2029L374.45 34.0776ZM377.728 39.3511Q379.876 39.3511 379.876 37.874Q379.876 37.0989 379.376 36.7388Q378.875 36.3726 377.801 36.3726L374.45 36.3726L374.45 39.3511L377.728 39.3511ZM386.399 28.5479L390.299 28.5479L390.299 42L386.399 42L386.399 28.5479ZM388.346 26.6741Q387.272 26.6741 386.595 26.0515Q385.923 25.4229 385.923 24.5012Q385.923 23.5735 386.595 22.9509Q387.272 22.3223 388.346 22.3223Q389.421 22.3223 390.098 22.9265Q390.776 23.5247 390.776 24.428Q390.776 25.3984 390.098 26.0393Q389.421 26.6741 388.346 26.6741ZM400.451 42.2014Q398.303 42.2014 396.588 41.3164Q394.873 40.4253 393.908 38.8506Q392.95 37.2759 392.95 35.2739Q392.95 33.272 393.908 31.6973Q394.873 30.1226 396.588 29.2375Q398.303 28.3525 400.451 28.3525Q402.575 28.3525 404.162 29.2375Q405.749 30.1226 406.476 31.7766L403.448 33.4001Q402.398 31.5508 400.427 31.5508Q398.901 31.5508 397.9 32.5518Q396.899 33.5527 396.899 35.2739Q396.899 37.0012 397.9 38.0022Q398.901 38.9971 400.427 38.9971Q402.423 38.9971 403.448 37.1477L406.476 38.8018Q405.749 40.4009 404.162 41.3042Q402.575 42.2014 400.451 42.2014ZM420.102 31.7522L415.549 31.7522L415.549 42L411.674 42L411.674 31.7522L407.126 31.7522L407.126 28.5479L420.102 28.5479L420.102 31.7522ZM429.449 32.8508Q432.074 32.8752 433.471 34.041Q434.875 35.2007 434.875 37.3247Q434.875 39.5525 433.313 40.7915Q431.75 42.0244 428.924 42.0244L422.174 42L422.174 28.5479L426.049 28.5479L426.049 32.8508L429.449 32.8508ZM428.576 39.2473Q429.699 39.2778 430.298 38.7773Q430.902 38.2769 430.902 37.2759Q430.902 36.2993 430.31 35.8538Q429.724 35.4021 428.576 35.3777L426.049 35.3472L426.049 39.2473L428.576 39.2473ZM160.796 63.3525Q162.676 63.3525 164.208 64.2131Q165.746 65.0737 166.619 66.6362Q167.498 68.1987 167.498 70.2739Q167.498 72.3491 166.619 73.9116Q165.746 75.4741 164.208 76.3408Q162.676 77.2014 160.796 77.2014Q158.227 77.2014 156.75 75.5779L156.75 81.8523L152.849 81.8523L152.849 63.5479L156.573 63.5479L156.573 65.0981Q158.025 63.3525 160.796 63.3525ZM160.125 73.9971Q161.626 73.9971 162.584 72.99Q163.549 71.9768 163.549 70.2739Q163.549 68.5771 162.584 67.564Q161.626 66.5508 160.125 66.5508Q158.623 66.5508 157.659 67.564Q156.701 68.5771 156.701 70.2739Q156.701 71.9768 157.659 72.99Q158.623 73.9971 160.125 73.9971ZM183.298 70.3228Q183.298 70.4021 183.224 71.3726L173.05 71.3726Q173.324 72.6238 174.35 73.3501Q175.375 74.0764 176.901 74.0764Q177.951 74.0764 178.763 73.7651Q179.574 73.4478 180.276 72.7764L182.351 75.0225Q180.453 77.2014 176.803 77.2014Q174.527 77.2014 172.775 76.3164Q171.023 75.4253 170.071 73.8506Q169.125 72.2759 169.125 70.2739Q169.125 68.3025 170.059 66.7156Q170.999 65.1226 172.635 64.2375Q174.277 63.3525 176.303 63.3525Q178.274 63.3525 179.873 64.2009Q181.473 65.0493 182.382 66.6362Q183.298 68.2231 183.298 70.3228ZM176.327 66.3005Q175.003 66.3005 174.1 67.0513Q173.202 67.802 173.001 69.1021L179.623 69.1021Q179.428 67.8264 178.525 67.0635Q177.627 66.3005 176.327 66.3005ZM201.448 73.8018L201.448 79.948L197.822 79.948L197.822 77L186.299 77L186.299 63.5479L190.175 63.5479L190.175 73.8018L195.601 73.8018L195.601 63.5479L199.501 63.5479L199.501 73.8018L201.448 73.8018ZM216.973 70.3228Q216.973 70.4021 216.899 71.3726L206.725 71.3726Q206.999 72.6238 208.025 73.3501Q209.05 74.0764 210.576 74.0764Q211.626 74.0764 212.438 73.7651Q213.249 73.4478 213.951 72.7764L216.026 75.0225Q214.128 77.2014 210.478 77.2014Q208.202 77.2014 206.45 76.3164Q204.698 75.4253 203.746 73.8506Q202.8 72.2759 202.8 70.2739Q202.8 68.3025 203.734 66.7156Q204.674 65.1226 206.31 64.2375Q207.952 63.3525 209.978 63.3525Q211.949 63.3525 213.548 64.2009Q215.148 65.0493 216.057 66.6362Q216.973 68.2231 216.973 70.3228ZM210.002 66.3005Q208.678 66.3005 207.775 67.0513Q206.877 67.802 206.676 69.1021L213.298 69.1021Q213.103 67.8264 212.2 67.0635Q211.302 66.3005 210.002 66.3005ZM233.353 63.5479L233.353 77L229.453 77L229.453 66.7522L223.85 66.7522L223.85 77L219.974 77L219.974 63.5479L233.353 63.5479ZM248.402 66.7522L243.849 66.7522L243.849 77L239.974 77L239.974 66.7522L235.426 66.7522L235.426 63.5479L248.402 63.5479L248.402 66.7522ZM256.223 77.2014Q254.099 77.2014 252.408 76.3164Q250.723 75.4253 249.771 73.8506Q248.825 72.2759 248.825 70.2739Q248.825 68.272 249.771 66.6973Q250.723 65.1226 252.408 64.2375Q254.099 63.3525 256.223 63.3525Q258.353 63.3525 260.025 64.2375Q261.704 65.1226 262.65 66.6973Q263.602 68.272 263.602 70.2739Q263.602 72.2759 262.65 73.8506Q261.704 75.4253 260.025 76.3164Q258.353 77.2014 256.223 77.2014ZM256.223 73.9971Q257.724 73.9971 258.688 72.99Q259.653 71.9768 259.653 70.2739Q259.653 68.5771 258.688 67.564Q257.724 66.5508 256.223 66.5508Q254.727 66.5508 253.751 67.564Q252.774 68.5771 252.774 70.2739Q252.774 71.9768 253.751 72.99Q254.727 73.9971 256.223 73.9971ZM274.196 63.3525Q276.076 63.3525 277.608 64.2131Q279.146 65.0737 280.019 66.6362Q280.898 68.1987 280.898 70.2739Q280.898 72.3491 280.019 73.9116Q279.146 75.4741 277.608 76.3408Q276.076 77.2014 274.196 77.2014Q271.627 77.2014 270.15 75.5779L270.15 81.8523L266.249 81.8523L266.249 63.5479L269.973 63.5479L269.973 65.0981Q271.425 63.3525 274.196 63.3525ZM273.525 73.9971Q275.026 73.9971 275.984 72.99Q276.949 71.9768 276.949 70.2739Q276.949 68.5771 275.984 67.564Q275.026 66.5508 273.525 66.5508Q272.023 66.5508 271.059 67.564Q270.101 68.5771 270.101 70.2739Q270.101 71.9768 271.059 72.99Q272.023 73.9971 273.525 73.9971ZM283.599 63.5479L287.5 63.5479L287.5 77L283.599 77L283.599 63.5479ZM285.546 61.6741Q284.472 61.6741 283.795 61.0515Q283.123 60.4229 283.123 59.5012Q283.123 58.5735 283.795 57.9509Q284.472 57.3223 285.546 57.3223Q286.621 57.3223 287.298 57.9265Q287.976 58.5247 287.976 59.428Q287.976 60.3984 287.298 61.0393Q286.621 61.6741 285.546 61.6741ZM301.527 69.9749Q303.901 70.7744 303.901 73.1731Q303.901 74.998 302.522 75.999Q301.149 77 298.427 77L291.249 77L291.249 63.5479L298.127 63.5479Q300.648 63.5479 302.07 64.4634Q303.499 65.3728 303.499 67.0269Q303.499 68.0278 302.986 68.7908Q302.473 69.5476 301.527 69.9749ZM294.825 69.0776L297.773 69.0776Q299.824 69.0776 299.824 67.625Q299.824 66.2029 297.773 66.2029L294.825 66.2029L294.825 69.0776ZM298.103 74.3511Q300.251 74.3511 300.251 72.874Q300.251 72.0989 299.751 71.7388Q299.25 71.3726 298.176 71.3726L294.825 71.3726L294.825 74.3511L298.103 74.3511Z" fill="#008083" fill-opacity="1.000000" fill-rule="evenodd"/>
	<circle id="Ellipse 17" cx="66.500000" cy="66.500000" r="66.500000" fill="url(#paint_linear_67_166_0)" fill-opacity="1.000000"/>
	<path id="DNA" d="M82.2451 23.9365C80.7944 23.9365 79.6201 25.1113 79.6206 26.5615C79.6206 27.6377 79.4688 28.5957 79.2505 29.5049L55.5425 29.5049C55.3232 28.5957 55.1719 27.6377 55.1719 26.5615C55.1719 25.1113 53.9971 23.9365 52.5469 23.9365C51.0972 23.9375 49.9219 25.1113 49.9224 26.5615C49.9214 35.8193 56.0571 40.2998 62.4976 44.2852C56.0166 48.8135 49.9224 55.1748 49.9224 67.3965C49.9219 79.6162 56.0166 85.9795 62.4976 90.5078C56.0586 94.4941 49.9219 98.9727 49.9219 108.23C49.9219 109.682 51.0967 110.855 52.5469 110.855C53.272 110.855 53.9287 110.562 54.4033 110.087C54.8779 109.612 55.1719 108.956 55.1719 108.231C55.1719 107.154 55.3228 106.197 55.542 105.287L79.2495 105.287C79.4683 106.197 79.6201 107.154 79.6201 108.23C79.6201 109.682 80.7944 110.855 82.2446 110.855C82.9697 110.855 83.6265 110.562 84.1011 110.087C84.5762 109.612 84.8696 108.956 84.8696 108.231C84.8706 98.9727 78.7349 94.4922 72.2939 90.5078C78.7739 85.9795 84.8682 79.6172 84.8696 67.3965C84.8696 55.1768 78.7754 48.8135 72.2944 44.2852C78.7349 40.2988 84.8696 35.8203 84.8696 26.5615C84.8701 25.1113 83.6953 23.9365 82.2451 23.9365ZM67.397 47.3135C70.2686 49.1504 72.939 51.1162 75.0498 53.6348L59.7446 53.6348C61.856 51.1162 64.5259 49.1514 67.397 47.3135ZM79.4937 70.0205C79.2905 72.2412 78.8291 74.1836 78.1592 75.9082L56.6323 75.9082C55.9629 74.1836 55.5005 72.2412 55.2983 70.0215L79.4937 70.0205ZM55.2993 64.7715C55.502 62.5508 55.9644 60.6084 56.6338 58.8838L78.1597 58.8838C78.8296 60.6094 79.2915 62.5518 79.4937 64.7715L55.2993 64.7715ZM67.8716 93.9541C71.4111 96.1104 74.2676 97.9473 76.2871 100.038L58.5044 100.038C60.5239 97.9473 63.3804 96.1104 66.9199 93.9541C67.0762 93.8584 67.2378 93.7598 67.3955 93.6631C67.5537 93.7588 67.7153 93.8584 67.8716 93.9541ZM67.3965 87.4805C64.5254 85.6426 61.854 83.6768 59.7432 81.1572L75.0508 81.1572C72.939 83.6768 70.2681 85.6426 67.3965 87.4805ZM67.8716 40.8389C67.7153 40.9336 67.5537 41.0332 67.396 41.1289C67.2383 41.0332 67.0767 40.9336 66.9204 40.8389C63.3813 38.6816 60.5249 36.8457 58.5054 34.7549L76.2871 34.7549C74.2681 36.8447 71.4111 38.6816 67.8716 40.8389Z" fill="#FFFFFF" fill-opacity="1.000000" fill-rule="evenodd"/>
</svg>
