<svg width="613.000000" height="134.000000" viewBox="0 0 613 134" fill="none" xmlns="http://www.w3.org/2000/svg" xmlns:xlink="http://www.w3.org/1999/xlink">
	<desc>
			Created with Pixso.
	</desc>
	<defs>
		<linearGradient id="paint_linear_67_167_0" x1="77.771179" y1="-49.820518" x2="67.058815" y2="127.180656" gradientUnits="userSpaceOnUse">
			<stop stop-color="#008083"/>
			<stop offset="1.000000" stop-color="#3FBEC1"/>
		</linearGradient>
	</defs>
	<path id="У відповідь на інфекцію вибірково підвищує здатність клітин виробляти ІНФγ" d="M168.474 22.5012L160.875 36.6248Q159.875 38.4985 158.483 39.4385Q157.097 40.3723 155.474 40.3723Q154.174 40.3723 152.898 39.823L153.698 37.2778Q154.723 37.6013 155.401 37.6013Q156.975 37.6013 158.001 35.9778L158.275 35.5505L151.299 22.5012L154.772 22.5012L159.948 32.7734L165.276 22.5012L168.474 22.5012ZM187.324 33.0481Q189.802 33.7988 189.802 36.2524Q189.802 38.053 188.447 39.0295Q187.098 40 184.449 40L177.65 40L177.65 26.6516L184.174 26.6516Q186.628 26.6516 188.001 27.5549Q189.374 28.4521 189.374 30.1001Q189.374 31.1255 188.837 31.8762Q188.3 32.627 187.324 33.0481ZM180.622 32.2241L183.9 32.2241Q186.323 32.2241 186.323 30.5518Q186.323 28.9221 183.9 28.9221L180.622 28.9221L180.622 32.2241ZM184.199 37.7234Q186.774 37.7234 186.774 36.051Q186.774 35.1721 186.17 34.7388Q185.572 34.2993 184.302 34.2993L180.622 34.2993L180.622 37.7234L184.199 37.7234ZM193.125 26.6516L196.25 26.6516L196.25 40L193.125 40L193.125 26.6516ZM194.699 24.4482Q193.851 24.4482 193.277 23.9111Q192.703 23.374 192.703 22.5745Q192.703 21.7749 193.277 21.2378Q193.851 20.7007 194.699 20.7007Q195.548 20.7007 196.121 21.2134Q196.701 21.7261 196.701 22.5012Q196.701 23.3252 196.14 23.8867Q195.578 24.4482 194.699 24.4482ZM214.726 37.3511L214.726 42.9724L211.803 42.9724L211.803 40L201.5 40L201.5 42.9724L198.601 42.9724L198.601 37.3511L199.223 37.3511Q200.499 37.3022 200.963 35.7153Q201.427 34.1223 201.573 31.2231L201.75 26.6516L212.749 26.6516L212.749 37.3511L214.726 37.3511ZM204.424 31.449Q204.326 33.75 204.051 35.2026Q203.777 36.6492 203.05 37.3511L209.624 37.3511L209.624 29.3005L204.503 29.3005L204.424 31.449ZM230.324 26.6516L230.324 40L227.223 40L227.223 29.3005L220.65 29.3005L220.65 40L217.525 40L217.525 26.6516L230.324 26.6516ZM240.501 40.177Q238.474 40.177 236.851 39.3042Q235.227 38.4253 234.312 36.8628Q233.402 35.3003 233.402 33.3228Q233.402 31.3513 234.312 29.801Q235.227 28.2507 236.851 27.3779Q238.474 26.499 240.501 26.499Q242.551 26.499 244.175 27.3779Q245.798 28.2507 246.708 29.801Q247.623 31.3513 247.623 33.3228Q247.623 35.3003 246.708 36.8628Q245.798 38.4253 244.175 39.3042Q242.551 40.177 240.501 40.177ZM240.501 37.4976Q242.228 37.4976 243.351 36.3501Q244.474 35.2026 244.474 33.3228Q244.474 31.449 243.351 30.3015Q242.228 29.1479 240.501 29.1479Q238.773 29.1479 237.662 30.3015Q236.552 31.449 236.552 33.3228Q236.552 35.2026 237.662 36.3501Q238.773 37.4976 240.501 37.4976ZM260.374 33.0481Q262.852 33.7988 262.852 36.2524Q262.852 38.053 261.497 39.0295Q260.148 40 257.499 40L250.7 40L250.7 26.6516L257.224 26.6516Q259.678 26.6516 261.051 27.5549Q262.424 28.4521 262.424 30.1001Q262.424 31.1255 261.887 31.8762Q261.35 32.627 260.374 33.0481ZM253.672 32.2241L256.95 32.2241Q259.373 32.2241 259.373 30.5518Q259.373 28.9221 256.95 28.9221L253.672 28.9221L253.672 32.2241ZM257.249 37.7234Q259.824 37.7234 259.824 36.051Q259.824 35.1721 259.22 34.7388Q258.622 34.2993 257.352 34.2993L253.672 34.2993L253.672 37.7234L257.249 37.7234ZM266.175 26.6516L269.3 26.6516L269.3 40L266.175 40L266.175 26.6516ZM267.749 24.4482Q266.901 24.4482 266.327 23.9111Q265.753 23.374 265.753 22.5745Q265.753 21.7749 266.327 21.2378Q266.901 20.7007 267.749 20.7007Q268.598 20.7007 269.171 21.2134Q269.751 21.7261 269.751 22.5012Q269.751 23.3252 269.19 23.8867Q268.628 24.4482 267.749 24.4482ZM287.776 37.3511L287.776 42.9724L284.853 42.9724L284.853 40L274.55 40L274.55 42.9724L271.651 42.9724L271.651 37.3511L272.273 37.3511Q273.549 37.3022 274.013 35.7153Q274.477 34.1223 274.623 31.2231L274.8 26.6516L285.799 26.6516L285.799 37.3511L287.776 37.3511ZM277.474 31.449Q277.376 33.75 277.101 35.2026Q276.827 36.6492 276.1 37.3511L282.674 37.3511L282.674 29.3005L277.553 29.3005L277.474 31.449ZM297.276 31.0522Q299.828 31.0522 301.189 32.1997Q302.55 33.3472 302.55 35.4529Q302.55 37.6501 301.048 38.8525Q299.553 40.0488 296.825 40.0244L290.575 40L290.575 26.6516L293.7 26.6516L293.7 31.0278L297.276 31.0522ZM296.55 37.7234Q297.923 37.7478 298.65 37.1497Q299.376 36.5515 299.376 35.3979Q299.376 34.2749 298.674 33.75Q297.972 33.2251 296.55 33.2007L293.7 33.1763L293.7 37.699L296.55 37.7234ZM312.2 26.6516L315.325 26.6516L315.325 32.0776L322.051 32.0776L322.051 26.6516L325.176 26.6516L325.176 40L322.051 40L322.051 34.7266L315.325 34.7266L315.325 40L312.2 40L312.2 26.6516ZM334.349 26.499Q337.303 26.499 338.866 27.915Q340.428 29.325 340.428 32.1753L340.428 40L337.474 40L337.474 38.3765Q336.9 39.2493 335.838 39.7131Q334.776 40.177 333.275 40.177Q331.779 40.177 330.65 39.6643Q329.527 39.1516 328.911 38.2422Q328.3 37.3267 328.3 36.1731Q328.3 34.3726 329.637 33.2861Q330.974 32.1997 333.855 32.1997L337.303 32.1997L337.303 31.9983Q337.303 30.6006 336.461 29.8499Q335.625 29.0991 333.977 29.0991Q332.854 29.0991 331.761 29.4531Q330.675 29.801 329.924 30.4236L328.703 28.147Q329.753 27.3474 331.224 26.9263Q332.701 26.499 334.349 26.499ZM333.928 37.9004Q335.1 37.9004 336.009 37.3633Q336.925 36.8262 337.303 35.8252L337.303 34.2749L334.074 34.2749Q331.377 34.2749 331.377 36.051Q331.377 36.8994 332.048 37.3999Q332.725 37.9004 333.928 37.9004ZM351.2 26.6516L354.325 26.6516L354.325 40L351.2 40L351.2 26.6516ZM352.774 24.4482Q351.926 24.4482 351.352 23.9111Q350.778 23.374 350.778 22.5745Q350.778 21.7749 351.352 21.2378Q351.926 20.7007 352.774 20.7007Q353.623 20.7007 354.196 21.2134Q354.776 21.7261 354.776 22.5012Q354.776 23.3252 354.215 23.8867Q353.653 24.4482 352.774 24.4482ZM358.55 26.6516L361.675 26.6516L361.675 32.0776L368.401 32.0776L368.401 26.6516L371.526 26.6516L371.526 40L368.401 40L368.401 34.7266L361.675 34.7266L361.675 40L358.55 40L358.55 26.6516ZM393.376 33.2983Q393.376 36.3989 391.313 38.175Q389.25 39.9512 385.423 40.2014L385.423 44.8523L382.475 44.8523L382.475 40.2258Q378.648 39.9756 376.597 38.1995Q374.553 36.4233 374.553 33.2983Q374.553 30.1978 376.597 28.4644Q378.648 26.7249 382.475 26.4746L382.475 21.4514L385.423 21.4514L385.423 26.4746Q389.25 26.7249 391.313 28.4766Q393.376 30.2222 393.376 33.2983ZM377.623 33.2983Q377.623 35.2271 378.807 36.3013Q379.997 37.3755 382.475 37.6013L382.475 29.1235Q379.997 29.325 378.807 30.3748Q377.623 31.4246 377.623 33.2983ZM385.423 37.6013Q390.324 37.1497 390.324 33.2983Q390.324 31.4001 389.11 30.3625Q387.901 29.325 385.423 29.1235L385.423 37.6013ZM408.9 33.4021Q408.9 33.7256 408.851 34.3237L398.377 34.3237Q398.652 35.8008 399.811 36.6614Q400.977 37.522 402.698 37.522Q404.902 37.522 406.324 36.0754L408.002 37.998Q407.099 39.0723 405.726 39.6277Q404.353 40.177 402.625 40.177Q400.428 40.177 398.749 39.3042Q397.077 38.4253 396.162 36.8628Q395.252 35.3003 395.252 33.3228Q395.252 31.3757 396.137 29.8132Q397.022 28.2507 398.597 27.3779Q400.178 26.499 402.149 26.499Q404.102 26.499 405.634 27.3657Q407.172 28.2263 408.033 29.7888Q408.9 31.3513 408.9 33.4021ZM402.149 29.0015Q400.648 29.0015 399.61 29.8926Q398.572 30.7776 398.353 32.2485L405.927 32.2485Q405.726 30.802 404.7 29.9048Q403.675 29.0015 402.149 29.0015ZM417.873 34.6472L415.45 34.6472L415.45 40L412.325 40L412.325 26.6516L415.45 26.6516L415.45 32.0471L417.952 32.0471L421.901 26.6516L425.252 26.6516L420.4 33.0725L425.575 40L421.901 40L417.873 34.6472ZM442.423 37.3511L442.423 43.0762L439.499 43.0762L439.499 40L427.775 40L427.775 26.6516L430.9 26.6516L430.9 37.3511L437.278 37.3511L437.278 26.6516L440.403 26.6516L440.403 37.3511L442.423 37.3511ZM445.2 26.6516L448.325 26.6516L448.325 40L445.2 40L445.2 26.6516ZM446.774 24.4482Q445.926 24.4482 445.352 23.9111Q444.778 23.374 444.778 22.5745Q444.778 21.7749 445.352 21.2378Q445.926 20.7007 446.774 20.7007Q447.623 20.7007 448.196 21.2134Q448.776 21.7261 448.776 22.5012Q448.776 23.3252 448.215 23.8867Q447.653 24.4482 446.774 24.4482ZM464.751 26.499Q466.753 26.499 468.327 27.3657Q469.902 28.2263 470.799 29.7888Q471.702 31.3513 471.702 33.3228Q471.702 35.3003 470.799 36.8628Q469.902 38.4253 468.327 39.3042Q466.753 40.177 464.751 40.177Q462.999 40.177 461.546 39.4873Q460.1 38.7976 459.148 37.5403Q458.201 36.2769 457.927 34.6472L455.675 34.6472L455.675 40L452.55 40L452.55 26.6516L455.675 26.6516L455.675 31.8274L457.976 31.8274Q458.275 30.2527 459.221 29.0381Q460.173 27.8235 461.595 27.1643Q463.023 26.499 464.751 26.499ZM464.751 37.522Q465.849 37.522 466.722 37.0154Q467.601 36.5027 468.101 35.5383Q468.602 34.574 468.602 33.3228Q468.602 31.4246 467.509 30.2893Q466.423 29.1479 464.751 29.1479Q463.072 29.1479 461.998 30.2893Q460.924 31.4246 460.924 33.3228Q460.924 35.2271 462.01 36.3745Q463.103 37.522 464.751 37.522Z" fill="#000000" fill-opacity="1.000000" fill-rule="evenodd"/>
	<path id="У відповідь на інфекцію вибірково підвищує здатність клітин виробляти ІНФγ" d="M163.152 67.9749Q165.526 68.7744 165.526 71.1731Q165.526 72.998 164.147 73.999Q162.774 75 160.052 75L152.874 75L152.874 61.5479L159.752 61.5479Q162.273 61.5479 163.695 62.4634Q165.124 63.3728 165.124 65.0269Q165.124 66.0278 164.611 66.7908Q164.098 67.5476 163.152 67.9749ZM156.45 67.0776L159.398 67.0776Q161.449 67.0776 161.449 65.625Q161.449 64.2029 159.398 64.2029L156.45 64.2029L156.45 67.0776ZM159.728 72.3511Q161.876 72.3511 161.876 70.874Q161.876 70.0989 161.376 69.7388Q160.875 69.3726 159.801 69.3726L156.45 69.3726L156.45 72.3511L159.728 72.3511ZM168.424 61.5479L172.3 61.5479L172.3 69.5496L178.849 61.5479L182.425 61.5479L182.425 75L178.55 75L178.55 66.9983L172.025 75L168.424 75L168.424 61.5479ZM193.95 62.4756Q195.872 62.4756 197.325 63.2629Q198.778 64.0503 199.565 65.4785Q200.352 66.9006 200.352 68.7744Q200.352 70.697 199.412 72.1863Q198.472 73.6755 196.8 74.4873Q195.128 75.2991 192.998 75.2991Q189.476 75.2991 187.462 73.0408Q185.447 70.7764 185.447 66.4001Q185.447 62.3474 187.211 59.9365Q188.975 57.5256 192.625 56.7749L199.028 55.4993L199.553 58.8501L193.901 59.9731Q191.6 60.4248 190.483 61.4746Q189.372 62.5244 189.177 64.447Q190.05 63.501 191.27 62.9883Q192.497 62.4756 193.95 62.4756ZM193.028 72.2778Q194.523 72.2778 195.433 71.3013Q196.348 70.3247 196.348 68.8232Q196.348 67.2974 195.433 66.4001Q194.523 65.5029 193.028 65.5029Q191.502 65.5029 190.574 66.4001Q189.653 67.2974 189.653 68.8232Q189.653 70.3491 190.599 71.3135Q191.551 72.2778 193.028 72.2778ZM202.974 61.5479L206.875 61.5479L206.875 75L202.974 75L202.974 61.5479ZM204.921 59.6741Q203.847 59.6741 203.17 59.0515Q202.498 58.4229 202.498 57.5012Q202.498 56.5735 203.17 55.9509Q203.847 55.3223 204.921 55.3223Q205.996 55.3223 206.673 55.9265Q207.351 56.5247 207.351 57.428Q207.351 58.3984 206.673 59.0393Q205.996 59.6741 204.921 59.6741ZM218.546 61.3525Q220.426 61.3525 221.958 62.2131Q223.496 63.0737 224.369 64.6362Q225.248 66.1987 225.248 68.2739Q225.248 70.3491 224.369 71.9116Q223.496 73.4741 221.958 74.3408Q220.426 75.2014 218.546 75.2014Q215.977 75.2014 214.5 73.5779L214.5 79.8523L210.599 79.8523L210.599 61.5479L214.323 61.5479L214.323 63.0981Q215.775 61.3525 218.546 61.3525ZM217.875 71.9971Q219.376 71.9971 220.334 70.99Q221.299 69.9768 221.299 68.2739Q221.299 66.5771 220.334 65.564Q219.376 64.5508 217.875 64.5508Q216.373 64.5508 215.409 65.564Q214.451 66.5771 214.451 68.2739Q214.451 69.9768 215.409 70.99Q216.373 71.9971 217.875 71.9971ZM233.9 69.8975L231.874 69.8975L231.874 75L227.974 75L227.974 61.5479L231.874 61.5479L231.874 66.7725L233.974 66.7725L237.623 61.5479L241.774 61.5479L237.074 67.9993L242.097 75L237.501 75L233.9 69.8975ZM249.898 75.2014Q247.774 75.2014 246.083 74.3164Q244.398 73.4253 243.446 71.8506Q242.5 70.2759 242.5 68.2739Q242.5 66.272 243.446 64.6973Q244.398 63.1226 246.083 62.2375Q247.774 61.3525 249.898 61.3525Q252.028 61.3525 253.7 62.2375Q255.379 63.1226 256.325 64.6973Q257.277 66.272 257.277 68.2739Q257.277 70.2759 256.325 71.8506Q255.379 73.4253 253.7 74.3164Q252.028 75.2014 249.898 75.2014ZM249.898 71.9971Q251.399 71.9971 252.363 70.99Q253.328 69.9768 253.328 68.2739Q253.328 66.5771 252.363 65.564Q251.399 64.5508 249.898 64.5508Q248.402 64.5508 247.426 65.564Q246.449 66.5771 246.449 68.2739Q246.449 69.9768 247.426 70.99Q248.402 71.9971 249.898 71.9971ZM270.227 67.9749Q272.601 68.7744 272.601 71.1731Q272.601 72.998 271.222 73.999Q269.849 75 267.127 75L259.949 75L259.949 61.5479L266.827 61.5479Q269.348 61.5479 270.77 62.4634Q272.199 63.3728 272.199 65.0269Q272.199 66.0278 271.686 66.7908Q271.173 67.5476 270.227 67.9749ZM263.525 67.0776L266.473 67.0776Q268.524 67.0776 268.524 65.625Q268.524 64.2029 266.473 64.2029L263.525 64.2029L263.525 67.0776ZM266.803 72.3511Q268.951 72.3511 268.951 70.874Q268.951 70.0989 268.451 69.7388Q267.951 69.3726 266.876 69.3726L263.525 69.3726L263.525 72.3511L266.803 72.3511ZM281.798 75.2014Q279.674 75.2014 277.983 74.3164Q276.298 73.4253 275.346 71.8506Q274.4 70.2759 274.4 68.2739Q274.4 66.272 275.346 64.6973Q276.298 63.1226 277.983 62.2375Q279.674 61.3525 281.798 61.3525Q283.928 61.3525 285.6 62.2375Q287.279 63.1226 288.225 64.6973Q289.177 66.272 289.177 68.2739Q289.177 70.2759 288.225 71.8506Q287.279 73.4253 285.6 74.3164Q283.928 75.2014 281.798 75.2014ZM281.798 71.9971Q283.299 71.9971 284.263 70.99Q285.228 69.9768 285.228 68.2739Q285.228 66.5771 284.263 65.564Q283.299 64.5508 281.798 64.5508Q280.302 64.5508 279.326 65.564Q278.349 66.5771 278.349 68.2739Q278.349 69.9768 279.326 70.99Q280.302 71.9971 281.798 71.9971ZM312.303 61.5479L312.303 75L308.403 75L308.403 64.7522L302.799 64.7522L302.799 75L298.924 75L298.924 61.5479L312.303 61.5479ZM316.024 61.5479L319.924 61.5479L319.924 75L316.024 75L316.024 61.5479ZM317.971 59.6741Q316.897 59.6741 316.22 59.0515Q315.548 58.4229 315.548 57.5012Q315.548 56.5735 316.22 55.9509Q316.897 55.3223 317.971 55.3223Q319.046 55.3223 319.723 55.9265Q320.401 56.5247 320.401 57.428Q320.401 58.3984 319.723 59.0393Q319.046 59.6741 317.971 59.6741ZM338.749 71.8018L338.749 77.8992L335.124 77.8992L335.124 75L325.676 75L325.676 77.8992L322.05 77.8992L322.05 71.8018L322.6 71.8018Q323.851 71.7773 324.327 70.3247Q324.803 68.8721 324.925 66.1987L325.102 61.5479L336.827 61.5479L336.827 71.8018L338.749 71.8018ZM328.453 66.4734Q328.373 68.5242 328.135 69.8242Q327.897 71.1243 327.25 71.8018L332.927 71.8018L332.927 64.7522L328.526 64.7522L328.453 66.4734ZM351.477 67.9749Q353.851 68.7744 353.851 71.1731Q353.851 72.998 352.472 73.999Q351.099 75 348.377 75L341.199 75L341.199 61.5479L348.077 61.5479Q350.598 61.5479 352.02 62.4634Q353.449 63.3728 353.449 65.0269Q353.449 66.0278 352.936 66.7908Q352.423 67.5476 351.477 67.9749ZM344.775 67.0776L347.723 67.0776Q349.774 67.0776 349.774 65.625Q349.774 64.2029 347.723 64.2029L344.775 64.2029L344.775 67.0776ZM348.053 72.3511Q350.201 72.3511 350.201 70.874Q350.201 70.0989 349.701 69.7388Q349.201 69.3726 348.126 69.3726L344.775 69.3726L344.775 72.3511L348.053 72.3511ZM356.749 61.5479L360.625 61.5479L360.625 69.5496L367.174 61.5479L370.75 61.5479L370.75 75L366.875 75L366.875 66.9983L360.35 75L356.749 75L356.749 61.5479ZM395.025 61.5479L395.025 75L374.499 75L374.499 61.5479L378.375 61.5479L378.375 71.8018L382.848 71.8018L382.848 61.5479L386.724 61.5479L386.724 71.8018L391.149 71.8018L391.149 61.5479L395.025 61.5479ZM396.899 71.8018L396.899 77.6733L393.273 77.6733L393.273 75L391.052 75L391.052 71.8018L396.899 71.8018ZM412.25 61.5479L406.177 75.824Q405.25 78.1494 403.889 79.0955Q402.527 80.0476 400.599 80.0476Q399.549 80.0476 398.524 79.7241Q397.504 79.4006 396.851 78.8269L398.279 76.0498Q398.725 76.4526 399.311 76.6724Q399.903 76.8982 400.477 76.8982Q401.276 76.8982 401.777 76.5076Q402.277 76.123 402.674 75.2258L402.729 75.0977L396.9 61.5479L400.928 61.5479L404.7 70.6726L408.503 61.5479L412.25 61.5479ZM420.225 75.2502Q418.052 75.2502 416.337 74.3652Q414.628 73.4741 413.651 71.875Q412.675 70.2759 412.675 68.2739Q412.675 66.272 413.651 64.6729Q414.628 63.0737 416.337 62.1887Q418.052 61.2976 420.225 61.2976Q422.153 61.2976 423.716 61.9385Q425.278 62.5732 426.304 63.7756L424.076 65.8752Q422.55 64.3005 420.377 64.3005Q418.925 64.3005 417.875 65.0269Q416.825 65.7471 416.453 66.9983L422.104 66.9983L422.104 69.6716L416.501 69.6716Q416.904 70.874 417.924 71.5759Q418.949 72.2717 420.377 72.2717Q422.526 72.2717 424.076 70.6726L426.304 72.7478Q425.278 73.9746 423.716 74.6155Q422.153 75.2502 420.225 75.2502ZM444.352 67.9993Q445.548 68.3777 446.207 69.1528Q446.873 69.928 446.873 71.0022Q446.873 72.2778 446 73.2422Q445.127 74.2004 443.601 74.7253Q442.075 75.2502 440.153 75.2502Q438.578 75.2502 437.052 74.9268Q435.526 74.5972 434.226 73.9502L435.276 71.228Q437.4 72.2473 439.976 72.2473Q441.349 72.2473 442.136 71.8384Q442.924 71.4233 442.924 70.6726Q442.924 70.0256 442.374 69.6899Q441.825 69.3481 440.775 69.3481L438.022 69.3481L438.022 66.925L440.427 66.925Q441.453 66.925 442.002 66.6016Q442.551 66.272 442.551 65.6494Q442.551 65.0024 441.862 64.6545Q441.178 64.3005 439.902 64.3005Q437.949 64.3005 435.648 65.2222L434.702 62.5244Q437.498 61.2976 440.153 61.2976Q441.978 61.2976 443.412 61.7493Q444.852 62.2009 445.676 63.0615Q446.5 63.9221 446.5 65.0757Q446.5 66.0278 445.927 66.7908Q445.353 67.5476 444.352 67.9993ZM464.774 71.8018L464.774 77.8992L461.149 77.8992L461.149 75L451.701 75L451.701 77.8992L448.075 77.8992L448.075 71.8018L448.625 71.8018Q449.876 71.7773 450.352 70.3247Q450.828 68.8721 450.95 66.1987L451.127 61.5479L462.852 61.5479L462.852 71.8018L464.774 71.8018ZM454.478 66.4734Q454.398 68.5242 454.16 69.8242Q453.922 71.1243 453.275 71.8018L458.952 71.8018L458.952 64.7522L454.551 64.7522L454.478 66.4734ZM472.454 61.3525Q475.579 61.3525 477.252 62.8418Q478.93 64.325 478.93 67.3279L478.93 75L475.28 75L475.28 73.3276Q474.176 75.2014 471.179 75.2014Q469.629 75.2014 468.487 74.6765Q467.352 74.1516 466.754 73.23Q466.156 72.3022 466.156 71.1243Q466.156 69.2505 467.566 68.1763Q468.975 67.1021 471.93 67.1021L475.03 67.1021Q475.03 65.8264 474.255 65.1367Q473.48 64.447 471.93 64.447Q470.855 64.447 469.818 64.7888Q468.78 65.1245 468.054 65.6982L466.65 62.9761Q467.755 62.2009 469.293 61.7798Q470.831 61.3525 472.454 61.3525ZM472.155 72.5769Q473.15 72.5769 473.925 72.113Q474.701 71.6492 475.03 70.752L475.03 69.3726L472.351 69.3726Q469.952 69.3726 469.952 70.9473Q469.952 71.698 470.538 72.1375Q471.13 72.5769 472.155 72.5769ZM493.628 64.7522L489.074 64.7522L489.074 75L485.199 75L485.199 64.7522L480.651 64.7522L480.651 61.5479L493.628 61.5479L493.628 64.7522ZM495.699 61.5479L499.575 61.5479L499.575 66.803L505.428 66.803L505.428 61.5479L509.328 61.5479L509.328 75L505.428 75L505.428 69.9768L499.575 69.9768L499.575 75L495.699 75L495.699 61.5479ZM513.024 61.5479L516.925 61.5479L516.925 75L513.024 75L513.024 61.5479ZM514.971 59.6741Q513.897 59.6741 513.22 59.0515Q512.548 58.4229 512.548 57.5012Q512.548 56.5735 513.22 55.9509Q513.897 55.3223 514.971 55.3223Q516.046 55.3223 516.723 55.9265Q517.401 56.5247 517.401 57.428Q517.401 58.3984 516.723 59.0393Q516.046 59.6741 514.971 59.6741ZM527.076 75.2014Q524.928 75.2014 523.213 74.3164Q521.498 73.4253 520.533 71.8506Q519.575 70.2759 519.575 68.2739Q519.575 66.272 520.533 64.6973Q521.498 63.1226 523.213 62.2375Q524.928 61.3525 527.076 61.3525Q529.2 61.3525 530.787 62.2375Q532.374 63.1226 533.101 64.7766L530.073 66.4001Q529.023 64.5508 527.052 64.5508Q525.526 64.5508 524.525 65.5518Q523.524 66.5527 523.524 68.2739Q523.524 70.0012 524.525 71.0022Q525.526 71.9971 527.052 71.9971Q529.048 71.9971 530.073 70.1477L533.101 71.8018Q532.374 73.4009 530.787 74.3042Q529.2 75.2014 527.076 75.2014ZM546.728 64.7522L542.174 64.7522L542.174 75L538.299 75L538.299 64.7522L533.751 64.7522L533.751 61.5479L546.728 61.5479L546.728 64.7522ZM556.074 65.8508Q558.699 65.8752 560.096 67.041Q561.5 68.2007 561.5 70.3247Q561.5 72.5525 559.938 73.7915Q558.375 75.0244 555.549 75.0244L548.799 75L548.799 61.5479L552.675 61.5479L552.675 65.8508L556.074 65.8508ZM555.201 72.2473Q556.324 72.2778 556.923 71.7773Q557.527 71.2769 557.527 70.2759Q557.527 69.2993 556.935 68.8538Q556.349 68.4021 555.201 68.3777L552.675 68.3472L552.675 72.2473L555.201 72.2473ZM158.8 104.897L156.774 104.897L156.774 110L152.874 110L152.874 96.5479L156.774 96.5479L156.774 101.772L158.874 101.772L162.523 96.5479L166.674 96.5479L161.974 102.999L166.997 110L162.401 110L158.8 104.897ZM181.827 96.5479L181.827 110L177.926 110L177.926 99.7522L173.672 99.7522L173.55 102.126Q173.453 104.775 173.05 106.527Q172.653 108.273 171.75 109.274Q170.852 110.275 169.247 110.275Q168.399 110.275 167.227 109.976L167.422 106.777Q167.825 106.826 168.002 106.826Q168.875 106.826 169.308 106.191Q169.748 105.551 169.9 104.562Q170.053 103.573 170.126 101.949L170.328 96.5479L181.827 96.5479ZM185.549 96.5479L189.45 96.5479L189.45 110L185.549 110L185.549 96.5479ZM187.496 94.6741Q186.422 94.6741 185.745 94.0515Q185.073 93.4229 185.073 92.5012Q185.073 91.5735 185.745 90.9509Q186.422 90.3223 187.496 90.3223Q188.571 90.3223 189.248 90.9265Q189.926 91.5247 189.926 92.428Q189.926 93.3984 189.248 94.0393Q188.571 94.6741 187.496 94.6741ZM204.502 99.7522L199.949 99.7522L199.949 110L196.074 110L196.074 99.7522L191.526 99.7522L191.526 96.5479L204.502 96.5479L204.502 99.7522ZM206.574 96.5479L210.45 96.5479L210.45 104.55L216.999 96.5479L220.575 96.5479L220.575 110L216.7 110L216.7 101.998L210.175 110L206.574 110L206.574 96.5479ZM224.324 96.5479L228.2 96.5479L228.2 101.803L234.053 101.803L234.053 96.5479L237.953 96.5479L237.953 110L234.053 110L234.053 104.977L228.2 104.977L228.2 110L224.324 110L224.324 96.5479ZM259.027 102.975Q261.401 103.774 261.401 106.173Q261.401 107.998 260.022 108.999Q258.649 110 255.927 110L248.749 110L248.749 96.5479L255.627 96.5479Q258.148 96.5479 259.57 97.4634Q260.999 98.3728 260.999 100.027Q260.999 101.028 260.486 101.791Q259.973 102.548 259.027 102.975ZM252.325 102.078L255.273 102.078Q257.324 102.078 257.324 100.625Q257.324 99.2029 255.273 99.2029L252.325 99.2029L252.325 102.078ZM255.603 107.351Q257.751 107.351 257.751 105.874Q257.751 105.099 257.251 104.739Q256.75 104.373 255.676 104.373L252.325 104.373L252.325 107.351L255.603 107.351ZM264.299 96.5479L268.174 96.5479L268.174 104.55L274.724 96.5479L278.3 96.5479L278.3 110L274.424 110L274.424 101.998L267.9 110L264.299 110L264.299 96.5479ZM289.971 96.3525Q291.851 96.3525 293.383 97.2131Q294.921 98.0737 295.794 99.6362Q296.673 101.199 296.673 103.274Q296.673 105.349 295.794 106.912Q294.921 108.474 293.383 109.341Q291.851 110.201 289.971 110.201Q287.402 110.201 285.924 108.578L285.924 114.852L282.024 114.852L282.024 96.5479L285.747 96.5479L285.747 98.0981Q287.2 96.3525 289.971 96.3525ZM289.3 106.997Q290.801 106.997 291.759 105.99Q292.724 104.977 292.724 103.274Q292.724 101.577 291.759 100.564Q290.801 99.5508 289.3 99.5508Q287.798 99.5508 286.834 100.564Q285.876 101.577 285.876 103.274Q285.876 104.977 286.834 105.99Q287.798 106.997 289.3 106.997ZM305.698 110.201Q303.574 110.201 301.883 109.316Q300.198 108.425 299.246 106.851Q298.3 105.276 298.3 103.274Q298.3 101.272 299.246 99.6973Q300.198 98.1226 301.883 97.2375Q303.574 96.3525 305.698 96.3525Q307.828 96.3525 309.5 97.2375Q311.179 98.1226 312.125 99.6973Q313.077 101.272 313.077 103.274Q313.077 105.276 312.125 106.851Q311.179 108.425 309.5 109.316Q307.828 110.201 305.698 110.201ZM305.698 106.997Q307.199 106.997 308.163 105.99Q309.128 104.977 309.128 103.274Q309.128 101.577 308.163 100.564Q307.199 99.5508 305.698 99.5508Q304.202 99.5508 303.226 100.564Q302.249 101.577 302.249 103.274Q302.249 104.977 303.226 105.99Q304.202 106.997 305.698 106.997ZM323.525 97.4756Q325.447 97.4756 326.9 98.2629Q328.353 99.0503 329.14 100.479Q329.927 101.901 329.927 103.774Q329.927 105.697 328.987 107.186Q328.047 108.676 326.375 109.487Q324.703 110.299 322.573 110.299Q319.051 110.299 317.037 108.041Q315.022 105.776 315.022 101.4Q315.022 97.3474 316.786 94.9365Q318.55 92.5256 322.2 91.7749L328.603 90.4993L329.128 93.8501L323.476 94.9731Q321.175 95.4248 320.058 96.4746Q318.947 97.5244 318.752 99.447Q319.625 98.501 320.845 97.9883Q322.072 97.4756 323.525 97.4756ZM322.603 107.278Q324.098 107.278 325.008 106.301Q325.923 105.325 325.923 103.823Q325.923 102.297 325.008 101.4Q324.098 100.503 322.603 100.503Q321.077 100.503 320.149 101.4Q319.228 102.297 319.228 103.823Q319.228 105.349 320.174 106.313Q321.126 107.278 322.603 107.278ZM345.277 96.5479L345.277 110L341.376 110L341.376 99.7522L337.122 99.7522L337 102.126Q336.903 104.775 336.5 106.527Q336.103 108.273 335.2 109.274Q334.302 110.275 332.697 110.275Q331.849 110.275 330.677 109.976L330.872 106.777Q331.275 106.826 331.452 106.826Q332.325 106.826 332.758 106.191Q333.198 105.551 333.35 104.562Q333.503 103.573 333.576 101.949L333.778 96.5479L345.277 96.5479ZM360.974 96.5479L360.974 110L357.502 110L357.502 106.149L354.627 106.149L352.076 110L347.925 110L351.001 105.599Q349.598 105.05 348.859 104.012Q348.127 102.975 348.127 101.498Q348.127 99.1235 349.836 97.8357Q351.551 96.5479 354.547 96.5479L360.974 96.5479ZM354.627 99.7278Q353.376 99.7278 352.735 100.179Q352.1 100.625 352.1 101.626Q352.1 102.627 352.71 103.091Q353.327 103.549 354.578 103.549L357.502 103.549L357.502 99.7278L354.627 99.7278ZM376.027 99.7522L371.474 99.7522L371.474 110L367.599 110L367.599 99.7522L363.051 99.7522L363.051 96.5479L376.027 96.5479L376.027 99.7522ZM378.099 96.5479L381.974 96.5479L381.974 104.55L388.524 96.5479L392.1 96.5479L392.1 110L388.224 110L388.224 101.998L381.7 110L378.099 110L378.099 96.5479ZM403.223 92.5012L407.251 92.5012L407.251 110L403.223 110L403.223 92.5012ZM427.65 92.5012L427.65 110L423.597 110L423.597 102.822L415.651 102.822L415.651 110L411.598 110L411.598 92.5012L415.651 92.5012L415.651 99.3982L423.597 99.3982L423.597 92.5012L427.65 92.5012ZM452.75 101.199Q452.75 104.678 450.388 106.667Q448.026 108.651 443.601 108.877L443.601 110.775L439.872 110.775L439.872 108.853Q435.422 108.602 433.06 106.613Q430.698 104.623 430.698 101.199Q430.698 97.7502 433.06 95.791Q435.422 93.8257 439.872 93.551L439.872 91.7505L443.601 91.7505L443.601 93.5266Q448.026 93.7769 450.388 95.7788Q452.75 97.7747 452.75 101.199ZM443.601 105.697Q446.25 105.453 447.55 104.342Q448.85 103.225 448.85 101.174Q448.85 97.1765 443.601 96.7249L443.601 105.697ZM434.623 101.199Q434.623 105.148 439.872 105.697L439.872 96.7249Q437.199 96.9751 435.911 98.0615Q434.623 99.1479 434.623 101.199ZM458.349 115.249L458.349 109.677L453.6 96.3525L457.427 96.3525L459.826 103.927Q460.027 104.476 460.277 105.337Q460.527 106.198 460.674 106.698L460.778 106.698Q462.023 104.824 462.597 102.365Q463.176 99.8987 463.176 96.3525L466.924 96.3525Q466.924 99.0015 466.497 101.278Q466.076 103.549 465.014 105.612Q463.952 107.675 462.078 109.75L462.078 115.249L458.349 115.249Z" fill="#008083" fill-opacity="1.000000" fill-rule="evenodd"/>
	<ellipse id="Ellipse 18" cx="66.500000" cy="67.000000" rx="66.500000" ry="67.000000" fill="url(#paint_linear_67_167_0)" fill-opacity="1.000000"/>
	<path id="Vector" d="M66.9995 55.2803C60.5166 55.2803 55.2422 60.5547 55.2422 67.0381C55.2422 73.5205 60.5166 78.7949 66.9995 78.7949C73.4824 78.7949 78.7568 73.5205 78.7568 67.0381C78.7568 60.5547 73.4824 55.2803 66.9995 55.2803ZM74.3188 68.6982L68.6602 68.6982L68.6602 74.3574L65.3389 74.3574L65.3389 68.6982L59.6802 68.6982L59.6802 65.377L65.3389 65.377L65.3389 59.7178L68.6602 59.7178L68.6602 65.377L74.3188 65.377L74.3188 68.6982Z" fill="#FFFFFF" fill-opacity="1.000000" fill-rule="evenodd"/>
	<path id="Vector" d="M90.4023 49.9502C86.4595 49.7988 83.3325 46.5869 83.2827 42.6396L83.2622 41L50.7363 41L50.7158 42.6396C50.6665 46.5869 47.5391 49.7988 43.5967 49.9502L42 50.0117L42 63.3848C42 75.4658 48.2637 86.6738 58.3467 92.6357L66.9995 97.7529L75.6523 92.6357C85.7354 86.6738 91.999 75.4658 91.999 63.3848L91.999 50.0117L90.4023 49.9502ZM66.9995 82.1162C58.6851 82.1162 51.9209 75.3516 51.9209 67.0381C51.9209 58.7236 58.6851 51.959 66.9995 51.959C75.3135 51.959 82.0776 58.7236 82.0776 67.0371C82.0776 75.3516 75.3135 82.1162 66.9995 82.1162Z" fill="#FFFFFF" fill-opacity="1.000000" fill-rule="evenodd"/>
</svg>
