<svg width="1140.000000" height="197.000000" viewBox="0 0 1140 197" fill="none" xmlns="http://www.w3.org/2000/svg" xmlns:xlink="http://www.w3.org/1999/xlink">
	<desc>
			Created with Pixso.
	</desc>
	<defs>
		<linearGradient id="paint_linear_67_182_0" x1="893.296631" y1="49.070034" x2="890.638672" y2="59.479549" gradientUnits="userSpaceOnUse">
			<stop stop-color="#008083"/>
			<stop offset="1.000000" stop-color="#3FBEC1"/>
		</linearGradient>
		<linearGradient id="paint_linear_67_183_0" x1="893.296631" y1="64.830780" x2="890.638672" y2="75.240288" gradientUnits="userSpaceOnUse">
			<stop stop-color="#008083"/>
			<stop offset="1.000000" stop-color="#3FBEC1"/>
		</linearGradient>
		<linearGradient id="paint_linear_89_12850_0" x1="559.717590" y1="77.714890" x2="556.737488" y2="89.386162" gradientUnits="userSpaceOnUse">
			<stop stop-color="#008083"/>
			<stop offset="1.000000" stop-color="#3FBEC1"/>
		</linearGradient>
		<linearGradient id="paint_linear_89_12851_0" x1="545.635559" y1="54.796917" x2="542.655457" y2="66.468193" gradientUnits="userSpaceOnUse">
			<stop stop-color="#008083"/>
			<stop offset="1.000000" stop-color="#3FBEC1"/>
		</linearGradient>
		<linearGradient id="paint_linear_67_188_0" x1="241.717606" y1="77.714890" x2="238.737488" y2="89.386162" gradientUnits="userSpaceOnUse">
			<stop stop-color="#008083"/>
			<stop offset="1.000000" stop-color="#3FBEC1"/>
		</linearGradient>
		<linearGradient id="paint_linear_67_189_0" x1="227.635574" y1="54.796917" x2="224.655457" y2="66.468193" gradientUnits="userSpaceOnUse">
			<stop stop-color="#008083"/>
			<stop offset="1.000000" stop-color="#3FBEC1"/>
		</linearGradient>
		<linearGradient id="paint_linear_89_12833_0" x1="56.106949" y1="-9.626196" x2="48.378708" y2="117.115700" gradientUnits="userSpaceOnUse">
			<stop stop-color="#008083"/>
			<stop offset="1.000000" stop-color="#3FBEC1"/>
		</linearGradient>
		<linearGradient id="paint_linear_89_12834_0" x1="77.155869" y1="-30.674139" x2="69.427605" y2="96.068108" gradientUnits="userSpaceOnUse">
			<stop stop-color="#008083"/>
			<stop offset="1.000000" stop-color="#3FBEC1"/>
		</linearGradient>
		<linearGradient id="paint_linear_89_12848_0" x1="403.821991" y1="-40.317787" x2="390.210205" y2="117.133369" gradientUnits="userSpaceOnUse">
			<stop stop-color="#008083"/>
			<stop offset="1.000000" stop-color="#3FBEC1"/>
		</linearGradient>
		<linearGradient id="paint_linear_89_12859_0" x1="722.734985" y1="-34.882740" x2="714.093750" y2="113.917282" gradientUnits="userSpaceOnUse">
			<stop stop-color="#008083"/>
			<stop offset="1.000000" stop-color="#3FBEC1"/>
		</linearGradient>
		<linearGradient id="paint_linear_89_12863_0" x1="1056.598511" y1="-47.291866" x2="1047.975830" y2="120.725616" gradientUnits="userSpaceOnUse">
			<stop stop-color="#008083"/>
			<stop offset="1.000000" stop-color="#3FBEC1"/>
		</linearGradient>
	</defs>
	<rect id="Rectangle 41" x="874.000000" y="52.000000" rx="3.940299" width="33.000000" height="7.880597" fill="url(#paint_linear_67_182_0)" fill-opacity="1.000000"/>
	<rect id="Rectangle 42" x="874.000000" y="67.760742" rx="3.940299" width="33.000000" height="7.880597" fill="url(#paint_linear_67_183_0)" fill-opacity="1.000000"/>
	<rect id="Rectangle 43" x="538.082031" y="81.000000" rx="4.417911" width="37.000000" height="8.835821" transform="rotate(-90 538.082031 81.000000)" fill="url(#paint_linear_89_12850_0)" fill-opacity="1.000000"/>
	<rect id="Rectangle 44" x="524.000000" y="58.082031" rx="4.417911" width="37.000000" height="8.835821" fill="url(#paint_linear_89_12851_0)" fill-opacity="1.000000"/>
	<rect id="Rectangle 43" x="220.082031" y="81.000000" rx="4.417911" width="37.000000" height="8.835821" transform="rotate(-90 220.082031 81.000000)" fill="url(#paint_linear_67_188_0)" fill-opacity="1.000000"/>
	<rect id="Rectangle 44" x="206.000000" y="58.082031" rx="4.417911" width="37.000000" height="8.835821" fill="url(#paint_linear_67_189_0)" fill-opacity="1.000000"/>
	<path id="1 таблетка" d="M10.9771 159.501L10.9771 177L6.92432 177L6.92432 162.748L3.427 162.748L3.427 159.501L10.9771 159.501ZM33.3025 166.752L28.7493 166.752L28.7493 177L24.8735 177L24.8735 166.752L20.3264 166.752L20.3264 163.548L33.3025 163.548L33.3025 166.752ZM40.6045 163.353Q43.7295 163.353 45.4019 164.842Q47.0803 166.325 47.0803 169.328L47.0803 177L43.4304 177L43.4304 175.328Q42.3257 177.201 39.3289 177.201Q37.7786 177.201 36.6372 176.677Q35.502 176.152 34.9038 175.23Q34.3057 174.302 34.3057 173.124Q34.3057 171.25 35.7156 170.176Q37.1255 169.102 40.0796 169.102L43.1802 169.102Q43.1802 167.826 42.405 167.137Q41.6299 166.447 40.0796 166.447Q39.0054 166.447 37.9678 166.789Q36.9302 167.125 36.2039 167.698L34.8 164.976Q35.9048 164.201 37.4429 163.78Q38.981 163.353 40.6045 163.353ZM40.3054 174.577Q41.3003 174.577 42.0754 174.113Q42.8506 173.649 43.1802 172.752L43.1802 171.373L40.5007 171.373Q38.1021 171.373 38.1021 172.947Q38.1021 173.698 38.688 174.137Q39.28 174.577 40.3054 174.577ZM58.2497 164.476Q60.1723 164.476 61.6249 165.263Q63.0775 166.05 63.8649 167.479Q64.6522 168.901 64.6522 170.774Q64.6522 172.697 63.7123 174.186Q62.7724 175.676 61.1 176.487Q59.4276 177.299 57.2975 177.299Q53.7758 177.299 51.7616 175.041Q49.7475 172.776 49.7475 168.4Q49.7475 164.347 51.5114 161.937Q53.2753 159.526 56.9252 158.775L63.3278 157.499L63.8527 160.85L58.2008 161.973Q55.8998 162.425 54.7829 163.475Q53.672 164.524 53.4767 166.447Q54.3495 165.501 55.5702 164.988Q56.797 164.476 58.2497 164.476ZM57.328 174.278Q58.8234 174.278 59.7328 173.301Q60.6483 172.325 60.6483 170.823Q60.6483 169.297 59.7328 168.4Q58.8234 167.503 57.328 167.503Q55.8021 167.503 54.8744 168.4Q53.9528 169.297 53.9528 170.823Q53.9528 172.349 54.8988 173.313Q55.851 174.278 57.328 174.278ZM80.0016 163.548L80.0016 177L76.1015 177L76.1015 166.752L71.8473 166.752L71.7252 169.126Q71.6276 171.775 71.2248 173.527Q70.828 175.273 69.9247 176.274Q69.0275 177.275 67.4223 177.275Q66.5739 177.275 65.402 176.976L65.5973 173.777Q66.0001 173.826 66.1771 173.826Q67.0499 173.826 67.4833 173.191Q67.9228 172.551 68.0753 171.562Q68.2279 170.573 68.3012 168.949L68.5026 163.548L80.0016 163.548ZM96.8225 170.323Q96.8225 170.402 96.7493 171.373L86.5747 171.373Q86.8494 172.624 87.8748 173.35Q88.9001 174.076 90.426 174.076Q91.4758 174.076 92.2876 173.765Q93.0994 173.448 93.8013 172.776L95.8765 175.022Q93.9783 177.201 90.3284 177.201Q88.0518 177.201 86.3 176.316Q84.5483 175.425 83.5962 173.851Q82.6501 172.276 82.6501 170.274Q82.6501 168.302 83.584 166.716Q84.5239 165.123 86.1597 164.238Q87.8015 163.353 89.8279 163.353Q91.7993 163.353 93.3984 164.201Q94.9976 165.049 95.907 166.636Q96.8225 168.223 96.8225 170.323ZM89.8523 166.301Q88.5278 166.301 87.6245 167.051Q86.7273 167.802 86.5259 169.102L93.1482 169.102Q92.9529 167.826 92.0496 167.063Q91.1523 166.301 89.8523 166.301ZM110.652 166.752L106.099 166.752L106.099 177L102.224 177L102.224 166.752L97.6764 166.752L97.6764 163.548L110.652 163.548L110.652 166.752ZM118.65 171.897L116.624 171.897L116.624 177L112.724 177L112.724 163.548L116.624 163.548L116.624 168.772L118.724 168.772L122.373 163.548L126.524 163.548L121.824 169.999L126.847 177L122.251 177L118.65 171.897ZM133.754 163.353Q136.879 163.353 138.552 164.842Q140.23 166.325 140.23 169.328L140.23 177L136.58 177L136.58 175.328Q135.476 177.201 132.479 177.201Q130.929 177.201 129.787 176.677Q128.652 176.152 128.054 175.23Q127.456 174.302 127.456 173.124Q127.456 171.25 128.866 170.176Q130.275 169.102 133.23 169.102L136.33 169.102Q136.33 167.826 135.555 167.137Q134.78 166.447 133.23 166.447Q132.155 166.447 131.118 166.789Q130.08 167.125 129.354 167.698L127.95 164.976Q129.055 164.201 130.593 163.78Q132.131 163.353 133.754 163.353ZM133.455 174.577Q134.45 174.577 135.225 174.113Q136.001 173.649 136.33 172.752L136.33 171.373L133.651 171.373Q131.252 171.373 131.252 172.947Q131.252 173.698 131.838 174.137Q132.43 174.577 133.455 174.577Z" fill="#000000" fill-opacity="1.000000" fill-rule="evenodd"/>
	<path id="1 раз на день" d="M305.865 152.501L305.865 170L301.812 170L301.812 155.748L298.315 155.748L298.315 152.501L305.865 152.501ZM324.809 156.353Q326.689 156.353 328.221 157.213Q329.759 158.074 330.631 159.636Q331.51 161.199 331.51 163.274Q331.51 165.349 330.631 166.912Q329.759 168.474 328.221 169.341Q326.689 170.201 324.809 170.201Q322.239 170.201 320.762 168.578L320.762 174.852L316.862 174.852L316.862 156.548L320.585 156.548L320.585 158.098Q322.038 156.353 324.809 156.353ZM324.137 166.997Q325.639 166.997 326.597 165.99Q327.561 164.977 327.561 163.274Q327.561 161.577 326.597 160.564Q325.639 159.551 324.137 159.551Q322.636 159.551 321.671 160.564Q320.713 161.577 320.713 163.274Q320.713 164.977 321.671 165.99Q322.636 166.997 324.137 166.997ZM339.242 156.353Q342.367 156.353 344.039 157.842Q345.718 159.325 345.718 162.328L345.718 170L342.068 170L342.068 168.328Q340.963 170.201 337.966 170.201Q336.416 170.201 335.275 169.677Q334.139 169.152 333.541 168.23Q332.943 167.302 332.943 166.124Q332.943 164.25 334.353 163.176Q335.763 162.102 338.717 162.102L341.818 162.102Q341.818 160.826 341.043 160.137Q340.267 159.447 338.717 159.447Q337.643 159.447 336.605 159.789Q335.568 160.125 334.841 160.698L333.438 157.976Q334.542 157.201 336.08 156.78Q337.618 156.353 339.242 156.353ZM338.943 167.577Q339.938 167.577 340.713 167.113Q341.488 166.649 341.818 165.752L341.818 164.373L339.138 164.373Q336.74 164.373 336.74 165.947Q336.74 166.698 337.326 167.137Q337.918 167.577 338.943 167.577ZM357.714 162.999Q358.911 163.378 359.57 164.153Q360.235 164.928 360.235 166.002Q360.235 167.278 359.362 168.242Q358.489 169.2 356.964 169.725Q355.438 170.25 353.515 170.25Q351.94 170.25 350.414 169.927Q348.889 169.597 347.589 168.95L348.638 166.228Q350.762 167.247 353.338 167.247Q354.711 167.247 355.499 166.838Q356.286 166.423 356.286 165.673Q356.286 165.026 355.737 164.69Q355.187 164.348 354.138 164.348L351.385 164.348L351.385 161.925L353.79 161.925Q354.815 161.925 355.364 161.602Q355.914 161.272 355.914 160.649Q355.914 160.002 355.224 159.655Q354.54 159.301 353.265 159.301Q351.312 159.301 349.011 160.222L348.065 157.524Q350.86 156.298 353.515 156.298Q355.34 156.298 356.774 156.749Q358.215 157.201 359.039 158.062Q359.863 158.922 359.863 160.076Q359.863 161.028 359.289 161.791Q358.715 162.548 357.714 162.999ZM370.136 156.548L374.012 156.548L374.012 161.803L379.865 161.803L379.865 156.548L383.765 156.548L383.765 170L379.865 170L379.865 164.977L374.012 164.977L374.012 170L370.136 170L370.136 156.548ZM392.717 156.353Q395.842 156.353 397.514 157.842Q399.193 159.325 399.193 162.328L399.193 170L395.543 170L395.543 168.328Q394.438 170.201 391.441 170.201Q389.891 170.201 388.75 169.677Q387.614 169.152 387.016 168.23Q386.418 167.302 386.418 166.124Q386.418 164.25 387.828 163.176Q389.238 162.102 392.192 162.102L395.293 162.102Q395.293 160.826 394.518 160.137Q393.742 159.447 392.192 159.447Q391.118 159.447 390.08 159.789Q389.043 160.125 388.316 160.698L386.913 157.976Q388.017 157.201 389.555 156.78Q391.093 156.353 392.717 156.353ZM392.418 167.577Q393.413 167.577 394.188 167.113Q394.963 166.649 395.293 165.752L395.293 164.373L392.613 164.373Q390.215 164.373 390.215 165.947Q390.215 166.698 390.8 167.137Q391.393 167.577 392.418 167.577ZM424.737 166.802L424.737 172.899L421.111 172.899L421.111 170L411.663 170L411.663 172.899L408.038 172.899L408.038 166.802L408.587 166.802Q409.838 166.777 410.314 165.325Q410.79 163.872 410.912 161.199L411.089 156.548L422.814 156.548L422.814 166.802L424.737 166.802ZM414.44 161.473Q414.361 163.524 414.123 164.824Q413.885 166.124 413.238 166.802L418.914 166.802L418.914 159.752L414.514 159.752L414.44 161.473ZM440.26 163.323Q440.26 163.402 440.187 164.373L430.012 164.373Q430.287 165.624 431.312 166.35Q432.338 167.076 433.864 167.076Q434.913 167.076 435.725 166.765Q436.537 166.448 437.239 165.776L439.314 168.022Q437.416 170.201 433.766 170.201Q431.489 170.201 429.738 169.316Q427.986 168.425 427.034 166.851Q426.088 165.276 426.088 163.274Q426.088 161.302 427.021 159.716Q427.961 158.123 429.597 157.238Q431.239 156.353 433.265 156.353Q435.237 156.353 436.836 157.201Q438.435 158.049 439.344 159.636Q440.26 161.223 440.26 163.323ZM433.29 159.301Q431.965 159.301 431.062 160.051Q430.165 160.802 429.963 162.102L436.586 162.102Q436.39 160.826 435.487 160.063Q434.59 159.301 433.29 159.301ZM443.261 156.548L447.137 156.548L447.137 161.803L452.99 161.803L452.99 156.548L456.89 156.548L456.89 170L452.99 170L452.99 164.977L447.137 164.977L447.137 170L443.261 170L443.261 156.548ZM467.887 160.851Q470.511 160.875 471.909 162.041Q473.313 163.201 473.313 165.325Q473.313 167.552 471.75 168.792Q470.188 170.024 467.362 170.024L460.611 170L460.611 156.548L464.487 156.548L464.487 160.851L467.887 160.851ZM467.014 167.247Q468.137 167.278 468.735 166.777Q469.339 166.277 469.339 165.276Q469.339 164.299 468.747 163.854Q468.161 163.402 467.014 163.378L464.487 163.347L464.487 167.247L467.014 167.247Z" fill="#000000" fill-opacity="1.000000" fill-rule="evenodd"/>
	<path id="1 місяць і більше" d="M613.677 152.501L613.677 170L609.624 170L609.624 155.748L606.127 155.748L606.127 152.501L613.677 152.501ZM637.827 170L637.827 161.949L633.799 168.7L632.151 168.7L628.227 161.925L628.227 170L624.699 170L624.699 156.548L628.776 156.548L633.073 164.324L637.65 156.548L641.3 156.548L641.349 170L637.827 170ZM645.049 156.548L648.95 156.548L648.95 170L645.049 170L645.049 156.548ZM646.996 154.674Q645.922 154.674 645.245 154.052Q644.573 153.423 644.573 152.501Q644.573 151.573 645.245 150.951Q645.922 150.322 646.996 150.322Q648.071 150.322 648.748 150.927Q649.426 151.525 649.426 152.428Q649.426 153.398 648.748 154.039Q648.071 154.674 646.996 154.674ZM659.101 170.201Q656.953 170.201 655.238 169.316Q653.523 168.425 652.558 166.851Q651.6 165.276 651.6 163.274Q651.6 161.272 652.558 159.697Q653.523 158.123 655.238 157.238Q656.953 156.353 659.101 156.353Q661.225 156.353 662.812 157.238Q664.399 158.123 665.126 159.777L662.098 161.4Q661.048 159.551 659.077 159.551Q657.551 159.551 656.55 160.552Q655.549 161.553 655.549 163.274Q655.549 165.001 656.55 166.002Q657.551 166.997 659.077 166.997Q661.073 166.997 662.098 165.148L665.126 166.802Q664.399 168.401 662.812 169.304Q661.225 170.201 659.101 170.201ZM679.099 156.548L679.099 170L675.627 170L675.627 166.149L672.752 166.149L670.201 170L666.05 170L669.126 165.599Q667.723 165.05 666.984 164.012Q666.252 162.975 666.252 161.498Q666.252 159.124 667.961 157.836Q669.676 156.548 672.672 156.548L679.099 156.548ZM672.752 159.728Q671.501 159.728 670.86 160.179Q670.225 160.625 670.225 161.626Q670.225 162.627 670.835 163.091Q671.452 163.549 672.703 163.549L675.627 163.549L675.627 159.728L672.752 159.728ZM697.998 166.802L697.998 172.948L694.372 172.948L694.372 170L682.849 170L682.849 156.548L686.725 156.548L686.725 166.802L692.151 166.802L692.151 156.548L696.051 156.548L696.051 166.802L697.998 166.802ZM707.724 160.851Q710.349 160.875 711.746 162.041Q713.15 163.201 713.15 165.325Q713.15 167.552 711.588 168.792Q710.025 170.024 707.199 170.024L700.449 170L700.449 156.548L704.325 156.548L704.325 160.851L707.724 160.851ZM706.851 167.247Q707.974 167.278 708.573 166.777Q709.177 166.277 709.177 165.276Q709.177 164.299 708.585 163.854Q707.999 163.402 706.851 163.378L704.325 163.347L704.325 167.247L706.851 167.247ZM722.624 156.548L726.525 156.548L726.525 170L722.624 170L722.624 156.548ZM724.571 154.674Q723.497 154.674 722.82 154.052Q722.148 153.423 722.148 152.501Q722.148 151.573 722.82 150.951Q723.497 150.322 724.571 150.322Q725.646 150.322 726.323 150.927Q727.001 151.525 727.001 152.428Q727.001 153.398 726.323 154.039Q725.646 154.674 724.571 154.674ZM745.125 157.476Q747.047 157.476 748.5 158.263Q749.953 159.05 750.74 160.479Q751.527 161.901 751.527 163.774Q751.527 165.697 750.587 167.186Q749.647 168.676 747.975 169.487Q746.303 170.299 744.172 170.299Q740.651 170.299 738.637 168.041Q736.622 165.776 736.622 161.4Q736.622 157.347 738.386 154.937Q740.15 152.526 743.8 151.775L750.203 150.499L750.728 153.85L745.076 154.973Q742.775 155.425 741.658 156.475Q740.547 157.524 740.352 159.447Q741.224 158.501 742.445 157.988Q743.672 157.476 745.125 157.476ZM744.203 167.278Q745.698 167.278 746.608 166.301Q747.523 165.325 747.523 163.823Q747.523 162.297 746.608 161.4Q745.698 160.503 744.203 160.503Q742.677 160.503 741.749 161.4Q740.828 162.297 740.828 163.823Q740.828 165.349 741.774 166.313Q742.726 167.278 744.203 167.278ZM754.149 156.548L758.049 156.548L758.049 170L754.149 170L754.149 156.548ZM756.096 154.674Q755.022 154.674 754.345 154.052Q753.673 153.423 753.673 152.501Q753.673 151.573 754.345 150.951Q755.022 150.322 756.096 150.322Q757.171 150.322 757.848 150.927Q758.526 151.525 758.526 152.428Q758.526 153.398 757.848 154.039Q757.171 154.674 756.096 154.674ZM774.702 156.548L774.702 170L770.801 170L770.801 159.752L766.547 159.752L766.425 162.126Q766.328 164.775 765.925 166.527Q765.528 168.273 764.625 169.274Q763.727 170.275 762.122 170.275Q761.274 170.275 760.102 169.976L760.297 166.777Q760.7 166.826 760.877 166.826Q761.75 166.826 762.183 166.191Q762.623 165.551 762.775 164.562Q762.928 163.573 763.001 161.949L763.203 156.548L774.702 156.548ZM785.724 160.851Q788.349 160.875 789.746 162.041Q791.15 163.201 791.15 165.325Q791.15 167.552 789.588 168.792Q788.025 170.024 785.199 170.024L778.449 170L778.449 156.548L782.325 156.548L782.325 160.851L785.724 160.851ZM784.851 167.247Q785.974 167.278 786.573 166.777Q787.177 166.277 787.177 165.276Q787.177 164.299 786.585 163.854Q785.999 163.402 784.851 163.378L782.325 163.347L782.325 167.247L784.851 167.247ZM814.1 156.548L814.1 170L793.574 170L793.574 156.548L797.45 156.548L797.45 166.802L801.923 166.802L801.923 156.548L805.799 156.548L805.799 166.802L810.224 166.802L810.224 156.548L814.1 156.548ZM830.922 163.323Q830.922 163.402 830.849 164.373L820.675 164.373Q820.949 165.624 821.975 166.35Q823 167.076 824.526 167.076Q825.576 167.076 826.388 166.765Q827.199 166.448 827.901 165.776L829.976 168.022Q828.078 170.201 824.428 170.201Q822.152 170.201 820.4 169.316Q818.648 168.425 817.696 166.851Q816.75 165.276 816.75 163.274Q816.75 161.302 817.684 159.716Q818.624 158.123 820.26 157.238Q821.901 156.353 823.928 156.353Q825.899 156.353 827.498 157.201Q829.098 158.049 830.007 159.636Q830.922 161.223 830.922 163.323ZM823.952 159.301Q822.628 159.301 821.724 160.051Q820.827 160.802 820.626 162.102L827.248 162.102Q827.053 160.826 826.15 160.063Q825.252 159.301 823.952 159.301Z" fill="#000000" fill-opacity="1.000000" fill-rule="evenodd"/>
	<path id="Зміцнення імунітету" d="M983.678 143.875Q985.197 144.4 986.058 145.517Q986.925 146.628 986.925 148.099Q986.925 149.698 985.875 150.876Q984.825 152.048 983.037 152.677Q981.248 153.299 979.124 153.299Q977.324 153.299 975.536 152.854Q973.747 152.402 972.148 151.474L973.399 148.575Q974.553 149.277 975.938 149.637Q977.324 149.997 978.648 149.997Q980.449 149.997 981.633 149.35Q982.823 148.697 982.823 147.525Q982.823 146.549 982.011 146.048Q981.2 145.548 979.802 145.548L975.523 145.548L975.523 142.502L979.503 142.502Q980.724 142.502 981.413 142.001Q982.103 141.501 982.103 140.622Q982.103 139.603 981.114 139.029Q980.125 138.449 978.575 138.449Q977.428 138.449 976.201 138.767Q974.974 139.078 973.875 139.7L972.649 136.551Q975.426 135.123 978.648 135.123Q980.699 135.123 982.42 135.727Q984.148 136.325 985.173 137.479Q986.198 138.626 986.198 140.152Q986.198 141.397 985.521 142.374Q984.85 143.35 983.678 143.875ZM1002.95 153L1002.95 144.949L998.924 151.7L997.276 151.7L993.352 144.925L993.352 153L989.824 153L989.824 139.548L993.901 139.548L998.198 147.324L1002.78 139.548L1006.43 139.548L1006.47 153L1002.95 153ZM1010.17 139.548L1014.07 139.548L1014.07 153L1010.17 153L1010.17 139.548ZM1012.12 137.674Q1011.05 137.674 1010.37 137.052Q1009.7 136.423 1009.7 135.501Q1009.7 134.573 1010.37 133.951Q1011.05 133.322 1012.12 133.322Q1013.2 133.322 1013.87 133.927Q1014.55 134.525 1014.55 135.428Q1014.55 136.398 1013.87 137.039Q1013.2 137.674 1012.12 137.674ZM1032.97 149.802L1032.97 155.948L1029.35 155.948L1029.35 153L1017.82 153L1017.82 139.548L1021.7 139.548L1021.7 149.802L1027.13 149.802L1027.13 139.548L1031.03 139.548L1031.03 149.802L1032.97 149.802ZM1035.42 139.548L1039.3 139.548L1039.3 144.803L1045.15 144.803L1045.15 139.548L1049.05 139.548L1049.05 153L1045.15 153L1045.15 147.977L1039.3 147.977L1039.3 153L1035.42 153L1035.42 139.548ZM1065.85 146.323Q1065.85 146.402 1065.77 147.373L1055.6 147.373Q1055.87 148.624 1056.9 149.35Q1057.93 150.076 1059.45 150.076Q1060.5 150.076 1061.31 149.765Q1062.12 149.448 1062.83 148.776L1064.9 151.022Q1063 153.201 1059.35 153.201Q1057.08 153.201 1055.33 152.316Q1053.57 151.425 1052.62 149.851Q1051.68 148.276 1051.68 146.274Q1051.68 144.302 1052.61 142.716Q1053.55 141.123 1055.18 140.238Q1056.83 139.353 1058.85 139.353Q1060.82 139.353 1062.42 140.201Q1064.02 141.049 1064.93 142.636Q1065.85 144.223 1065.85 146.323ZM1058.88 142.301Q1057.55 142.301 1056.65 143.051Q1055.75 143.802 1055.55 145.102L1062.17 145.102Q1061.98 143.826 1061.07 143.063Q1060.18 142.301 1058.88 142.301ZM1068.85 139.548L1072.72 139.548L1072.72 144.803L1078.58 144.803L1078.58 139.548L1082.48 139.548L1082.48 153L1078.58 153L1078.58 147.977L1072.72 147.977L1072.72 153L1068.85 153L1068.85 139.548ZM1086.2 139.548L1090.07 139.548L1090.07 144.803L1095.93 144.803L1095.93 139.548L1099.83 139.548L1099.83 153L1095.93 153L1095.93 147.977L1090.07 147.977L1090.07 153L1086.2 153L1086.2 139.548ZM1115.5 139.548L1115.5 153L1112.03 153L1112.03 149.149L1109.15 149.149L1106.6 153L1102.45 153L1105.53 148.599Q1104.12 148.05 1103.38 147.012Q1102.65 145.975 1102.65 144.498Q1102.65 142.124 1104.36 140.836Q1106.08 139.548 1109.07 139.548L1115.5 139.548ZM1109.15 142.728Q1107.9 142.728 1107.26 143.179Q1106.62 143.625 1106.62 144.626Q1106.62 145.627 1107.24 146.091Q1107.85 146.549 1109.1 146.549L1112.03 146.549L1112.03 142.728L1109.15 142.728ZM987.049 174.548L990.95 174.548L990.95 188L987.049 188L987.049 174.548ZM988.996 172.674Q987.922 172.674 987.245 172.052Q986.573 171.423 986.573 170.501Q986.573 169.573 987.245 168.951Q987.922 168.322 988.996 168.322Q990.071 168.322 990.748 168.927Q991.426 169.525 991.426 170.428Q991.426 171.398 990.748 172.039Q990.071 172.674 988.996 172.674ZM1007.83 188L1007.83 179.949L1003.8 186.7L1002.15 186.7L998.227 179.925L998.227 188L994.699 188L994.699 174.548L998.776 174.548L1003.07 182.324L1007.65 174.548L1011.3 174.548L1011.35 188L1007.83 188ZM1028.55 174.548L1022.48 188.824Q1021.55 191.149 1020.19 192.095Q1018.83 193.048 1016.9 193.048Q1015.85 193.048 1014.82 192.724Q1013.8 192.401 1013.15 191.827L1014.58 189.05Q1015.02 189.453 1015.61 189.672Q1016.2 189.898 1016.78 189.898Q1017.58 189.898 1018.08 189.508Q1018.58 189.123 1018.97 188.226L1019.03 188.098L1013.2 174.548L1017.23 174.548L1021 183.673L1024.8 174.548L1028.55 174.548ZM1030.42 174.548L1034.3 174.548L1034.3 179.803L1040.15 179.803L1040.15 174.548L1044.05 174.548L1044.05 188L1040.15 188L1040.15 182.977L1034.3 182.977L1034.3 188L1030.42 188L1030.42 174.548ZM1047.75 174.548L1051.65 174.548L1051.65 188L1047.75 188L1047.75 174.548ZM1049.7 172.674Q1048.62 172.674 1047.94 172.052Q1047.27 171.423 1047.27 170.501Q1047.27 169.573 1047.94 168.951Q1048.62 168.322 1049.7 168.322Q1050.77 168.322 1051.45 168.927Q1052.13 169.525 1052.13 170.428Q1052.13 171.398 1051.45 172.039Q1050.77 172.674 1049.7 172.674ZM1066.7 177.752L1062.15 177.752L1062.15 188L1058.27 188L1058.27 177.752L1053.73 177.752L1053.73 174.548L1066.7 174.548L1066.7 177.752ZM1081.3 181.323Q1081.3 181.402 1081.22 182.373L1071.05 182.373Q1071.32 183.624 1072.35 184.35Q1073.38 185.076 1074.9 185.076Q1075.95 185.076 1076.76 184.765Q1077.57 184.448 1078.28 183.776L1080.35 186.022Q1078.45 188.201 1074.8 188.201Q1072.53 188.201 1070.78 187.316Q1069.02 186.425 1068.07 184.851Q1067.13 183.276 1067.13 181.274Q1067.13 179.302 1068.06 177.716Q1069 176.123 1070.63 175.238Q1072.28 174.353 1074.3 174.353Q1076.27 174.353 1077.87 175.201Q1079.47 176.049 1080.38 177.636Q1081.3 179.223 1081.3 181.323ZM1074.33 177.301Q1073 177.301 1072.1 178.051Q1071.2 178.802 1071 180.102L1077.62 180.102Q1077.43 178.826 1076.52 178.063Q1075.63 177.301 1074.33 177.301ZM1095.13 177.752L1090.57 177.752L1090.57 188L1086.7 188L1086.7 177.752L1082.15 177.752L1082.15 174.548L1095.13 174.548L1095.13 177.752ZM1110.8 174.548L1104.73 188.824Q1103.8 191.149 1102.44 192.095Q1101.08 193.048 1099.15 193.048Q1098.1 193.048 1097.07 192.724Q1096.05 192.401 1095.4 191.827L1096.83 189.05Q1097.27 189.453 1097.86 189.672Q1098.45 189.898 1099.03 189.898Q1099.83 189.898 1100.33 189.508Q1100.83 189.123 1101.22 188.226L1101.28 188.098L1095.45 174.548L1099.48 174.548L1103.25 183.673L1107.05 174.548L1110.8 174.548Z" fill="#008083" fill-opacity="1.000000" fill-rule="evenodd"/>
	<path id="Vector" d="M13.5234 26.0479C-5.63281 49.0186 -4.43896 83.334 17.1133 104.886C38.6655 126.438 72.98 127.632 95.9512 108.475L13.5234 26.0479Z" fill="url(#paint_linear_89_12833_0)" fill-opacity="1.000000" fill-rule="evenodd"/>
	<path id="Vector" d="M21.0488 18.5234L103.476 100.951C122.633 77.9795 121.439 43.665 99.8867 22.1133C78.334 0.561523 44.02 -0.632812 21.0488 18.5234Z" fill="url(#paint_linear_89_12834_0)" fill-opacity="1.000000" fill-rule="evenodd"/>
	<path id="Union" d="M382.455 29.9404C383.808 33.3389 387.272 35.1875 390.936 34.5605C394.467 33.9336 397.074 30.8975 397.172 27.2998C397.215 26.1689 397.227 25.0371 397.227 23.9053C397.227 23.1514 397.222 22.3975 397.216 21.6426C397.211 20.8887 397.206 20.1338 397.206 19.3799C397.206 18.543 397.209 17.7051 397.213 16.8691C397.217 16.0361 397.22 15.2031 397.22 14.374C397.22 13.543 397.217 12.7139 397.206 11.8887C397.172 8.91895 395.918 6.57617 393.312 5.05762C388.098 2.05469 381.926 5.78418 381.86 11.9883C381.833 14.0664 381.822 16.1504 381.822 18.2354C381.822 21.083 381.841 23.9336 381.86 26.7725C381.858 26.8408 381.857 26.9102 381.857 26.9785C381.857 27.9941 382.083 28.9814 382.455 29.9404ZM349.025 52.0498C351.932 50.8184 353.68 47.9873 353.68 45.0117C353.68 44 353.478 42.9727 353.051 41.9854C352.655 41.0938 352.127 40.2686 351.434 39.5762C347.804 35.9131 344.207 32.2832 340.511 28.6855C337.508 25.7158 332.69 25.749 329.72 28.7188L329.654 28.7852C328.189 30.2656 327.455 32.1729 327.455 34.0977C327.455 36.0342 328.198 37.9873 329.687 39.543C330.71 40.5986 331.766 41.6553 332.822 42.6777C335.396 45.252 337.904 47.8594 340.511 50.3672C342.986 52.6768 345.857 53.3369 349.025 52.0498ZM449.511 39.2139C450.887 37.7773 451.556 36.1182 451.556 34.3643C451.556 33.2578 451.289 32.1133 450.766 30.9639C448.554 26.0791 442.317 24.957 438.39 28.7852C434.76 32.3164 431.196 35.9463 427.599 39.5107C426.081 41.0283 425.289 42.8438 425.289 45.4512C425.421 48.1895 426.84 50.6318 429.777 51.9844C432.714 53.3379 435.684 52.9746 438.027 50.7305C441.921 46.9688 445.75 43.1406 449.511 39.2139ZM343.547 91.585C343.679 93.3672 345.131 94.7197 346.913 94.7197L432.186 94.7197C434.001 94.7197 435.486 93.2676 435.552 91.4531C435.575 90.7441 435.587 90.0273 435.587 89.3076C435.587 85.9746 435.33 82.5938 434.76 79.7705C429.81 54.5918 405.983 38.4541 380.771 43.1729C359.169 47.2236 343.422 66.5098 343.422 88.2412C343.422 89.3496 343.463 90.4648 343.547 91.585ZM328.399 80.7939C323.054 80.6953 317.708 80.6953 312.328 80.7939C308.168 80.8916 305 84.3184 305 88.457C305 88.5205 305.001 88.584 305.002 88.6484C305.134 92.8066 308.533 96.1064 312.691 96.0732L328.003 96.0732C332.162 96.0732 335.561 92.8389 335.693 88.7803C335.694 88.7119 335.695 88.6445 335.695 88.5771C335.695 84.3154 332.623 80.8916 328.399 80.7939ZM466.837 80.8262C461.392 80.6943 455.914 80.6943 450.469 80.8262C446.383 80.9229 443.301 84.375 443.301 88.4922C443.301 88.5986 443.303 88.7051 443.308 88.8125C443.439 92.8057 446.838 96.04 450.931 96.0732L466.375 96.0732C470.5 96.04 473.866 92.8389 473.998 88.8457Q474 88.7441 474 88.6445C474 84.4424 470.962 80.9238 466.837 80.8262ZM427.929 107.821L351.038 107.821C346.813 107.821 343.349 111.253 343.349 115.511C343.349 119.734 346.781 123.199 351.038 123.199L427.929 123.199C432.153 123.199 435.618 119.768 435.618 115.511C435.585 111.253 432.153 107.821 427.929 107.821Z" clip-rule="evenodd" fill="url(#paint_linear_89_12848_0)" fill-opacity="1.000000" fill-rule="evenodd"/>
	<path id="Union" d="M689.503 12.3643C689.503 9.40137 687.102 7 684.139 7C681.177 7 678.775 9.40137 678.775 12.3643L678.775 17.7285C678.775 20.6914 681.177 23.0928 684.139 23.0928C687.102 23.0928 689.503 20.6914 689.503 17.7285L689.503 12.3643ZM748.511 12.3643C748.511 9.40137 746.109 7 743.146 7C740.184 7 737.782 9.40137 737.782 12.3643L737.782 17.7285C737.782 20.6914 740.184 23.0928 743.146 23.0928C746.109 23.0928 748.511 20.6914 748.511 17.7285L748.511 12.3643ZM767.286 25.7744L767.286 41.8672L660 41.8672L660 25.7744C660 19.8496 664.804 15.0459 670.729 15.0459L673.411 15.0459L673.411 17.7285C673.411 23.6455 678.223 28.457 684.139 28.457C690.056 28.457 694.868 23.6455 694.868 17.7285L694.868 15.0459L732.418 15.0459L732.418 17.7285C732.418 23.6455 737.23 28.457 743.146 28.457C749.063 28.457 753.875 23.6455 753.875 17.7285L753.875 15.0459L756.557 15.0459C762.482 15.0459 767.286 19.8496 767.286 25.7744ZM660 47.2324L660 108.922C660 114.847 664.804 119.65 670.729 119.65L756.557 119.65C762.482 119.65 767.286 114.847 767.286 108.922L767.286 47.2324L660 47.2324ZM692.186 71.3711C692.186 74.335 689.785 76.7354 686.821 76.7354L681.457 76.7354C678.493 76.7354 676.093 74.335 676.093 71.3711L676.093 66.0068C676.093 63.043 678.493 60.6426 681.457 60.6426L686.821 60.6426C689.785 60.6426 692.186 63.043 692.186 66.0068L692.186 71.3711ZM721.689 71.3711C721.689 74.335 719.289 76.7354 716.325 76.7354L710.961 76.7354C707.997 76.7354 705.597 74.335 705.597 71.3711L705.597 66.0068C705.597 63.043 707.997 60.6426 710.961 60.6426L716.325 60.6426C719.289 60.6426 721.689 63.043 721.689 66.0068L721.689 71.3711ZM751.193 71.3711C751.193 74.335 748.792 76.7354 745.829 76.7354L740.464 76.7354C737.5 76.7354 735.1 74.335 735.1 71.3711L735.1 66.0068C735.1 63.043 737.5 60.6426 740.464 60.6426L745.829 60.6426C748.792 60.6426 751.193 63.043 751.193 66.0068L751.193 71.3711ZM692.186 100.875C692.186 103.839 689.785 106.239 686.821 106.239L681.457 106.239C678.493 106.239 676.093 103.839 676.093 100.875L676.093 95.5107C676.093 92.5469 678.493 90.1465 681.457 90.1465L686.821 90.1465C689.785 90.1465 692.186 92.5469 692.186 95.5107L692.186 100.875ZM721.689 100.875C721.689 103.839 719.289 106.239 716.325 106.239L710.961 106.239C707.997 106.239 705.597 103.839 705.597 100.875L705.597 95.5107C705.597 92.5469 707.997 90.1465 710.961 90.1465L716.325 90.1465C719.289 90.1465 721.689 92.5469 721.689 95.5107L721.689 100.875ZM751.193 100.875C751.193 103.839 748.792 106.239 745.829 106.239L740.464 106.239C737.5 106.239 735.1 103.839 735.1 100.875L735.1 95.5107C735.1 92.5469 737.5 90.1465 740.464 90.1465L745.829 90.1465C748.792 90.1465 751.193 92.5469 751.193 95.5107L751.193 100.875Z" clip-rule="evenodd" fill="url(#paint_linear_89_12859_0)" fill-opacity="1.000000" fill-rule="evenodd"/>
	<path id="Vector" d="M1100.92 32.7412C1100.77 29.3945 1100.77 26.2002 1100.77 23.0059C1100.77 20.4199 1098.79 18.4434 1096.2 18.4434C1077.19 18.4434 1062.74 12.9668 1050.72 1.25488C1048.9 -0.417969 1046.16 -0.417969 1044.33 1.25488C1032.32 12.9668 1017.87 18.4434 998.854 18.4434C996.269 18.4434 994.292 20.4199 994.292 23.0059C994.292 26.2002 994.292 29.3945 994.139 32.7412C993.531 64.6836 992.618 108.49 1046.01 126.895L1047.53 127.199L1049.05 126.895C1102.29 108.49 1101.53 64.835 1100.92 32.7412ZM1043.88 77.0039C1042.97 77.7646 1041.9 78.2207 1040.68 78.2207L1040.53 78.2207C1039.31 78.2207 1038.1 77.6123 1037.34 76.6992L1023.19 61.0322L1030.04 54.9482L1041.14 67.2686L1065.78 43.8447L1072.02 50.5371L1043.88 77.0039Z" fill="url(#paint_linear_89_12863_0)" fill-opacity="1.000000" fill-rule="evenodd"/>
</svg>
