<svg width="446.000000" height="407.164062" viewBox="0 0 446 407.164" fill="none" xmlns="http://www.w3.org/2000/svg" xmlns:xlink="http://www.w3.org/1999/xlink">
	<desc>
			Created with Pixso.
	</desc>
	<defs>
		<clipPath id="clip67_127">
			<rect id="regeneration 1" width="100.000000" height="100.000000" transform="translate(157.000000 0.000000)" fill="white" fill-opacity="0"/>
		</clipPath>
	</defs>
	<path id="МОЖЛИВІСТЬ ПЕРЕХОДУ З ЛІКУВАЛЬНОЇ СХЕМИ НА ПРОФІЛАКТИЧНУ" d="M24.1767 174L24.1474 158.7L16.5522 171.451L15.1752 171.451L7.58733 158.788L7.58733 174L4.70158 174L4.70158 153.001L7.16252 153.001L15.9223 167.76L24.5649 153.001L27.0258 153.001L27.0551 174L24.1767 174ZM43.0398 174.242Q39.8611 174.242 37.3123 172.85Q34.7635 171.451 33.3059 168.99Q31.8557 166.529 31.8557 163.497Q31.8557 160.472 33.3059 158.011Q34.7635 155.55 37.3123 154.159Q39.8611 152.76 43.0398 152.76Q46.1892 152.76 48.7381 154.159Q51.2942 155.55 52.7298 157.997Q54.1726 160.443 54.1726 163.497Q54.1726 166.559 52.7298 169.005Q51.2942 171.451 48.7381 172.85Q46.1892 174.242 43.0398 174.242ZM43.0398 171.568Q45.3543 171.568 47.2 170.521Q49.0457 169.474 50.1077 167.628Q51.1697 165.782 51.1697 163.497Q51.1697 161.219 50.1077 159.374Q49.0457 157.528 47.2 156.48Q45.3543 155.433 43.0398 155.433Q40.7327 155.433 38.8577 156.48Q36.9827 157.528 35.9134 159.374Q34.8513 161.219 34.8513 163.497Q34.8513 165.782 35.9134 167.628Q36.9827 169.474 38.8577 170.521Q40.7327 171.568 43.0398 171.568ZM75.9256 164.757L71.9339 164.757L71.9339 174L68.9969 174L68.9969 164.757L64.9759 164.757L59.0946 174L55.5863 174L62.515 163.08L56.0916 153.001L59.307 153.001L64.9173 162.12L68.9969 162.12L68.9969 153.001L71.9339 153.001L71.9339 162.12L75.9549 162.12L81.5946 153.001L84.8026 153.001L78.3866 163.138L85.3153 174L81.807 174L75.9256 164.757ZM106.042 153.001L106.042 174L103.105 174L103.105 155.609L93.8035 155.609L93.5984 161.761Q93.4446 166.112 92.8879 168.814Q92.3386 171.51 91.1374 172.879Q89.9363 174.242 87.8928 174.242Q86.9626 174.242 86.0032 174L86.2156 171.327Q86.6916 171.451 87.175 171.451Q88.4641 171.451 89.2405 170.418Q90.0242 169.378 90.4123 167.313Q90.8078 165.24 90.925 161.849L91.2546 153.001L106.042 153.001ZM112.582 153.001L115.555 153.001L115.555 169.203L127.977 153.001L130.738 153.001L130.738 174L127.794 174L127.794 157.828L115.343 174L112.582 174L112.582 153.001ZM150.353 163.109Q152.484 163.622 153.575 164.925Q154.674 166.229 154.674 168.272Q154.674 170.997 152.674 172.499Q150.682 174 146.874 174L137.272 174L137.272 153.001L146.302 153.001Q149.752 153.001 151.686 154.4Q153.627 155.792 153.627 158.399Q153.627 160.113 152.77 161.314Q151.913 162.508 150.353 163.109ZM140.245 162.237L146.097 162.237Q148.287 162.237 149.437 161.373Q150.594 160.501 150.594 158.817Q150.594 157.14 149.422 156.253Q148.258 155.367 146.097 155.367L140.245 155.367L140.245 162.237ZM146.815 171.627Q151.642 171.627 151.642 168.031Q151.642 166.229 150.426 165.379Q149.217 164.522 146.815 164.522L140.245 164.522L140.245 171.627L146.815 171.627ZM159.682 153.001L162.655 153.001L162.655 174L159.682 174L159.682 153.001ZM178.581 174.242Q175.432 174.242 172.898 172.85Q170.363 171.451 168.921 169.005Q167.485 166.559 167.485 163.497Q167.485 160.443 168.921 157.997Q170.363 155.55 172.912 154.159Q175.461 152.76 178.611 152.76Q181.071 152.76 183.108 153.587Q185.151 154.408 186.594 156.034L184.646 157.923Q182.273 155.433 178.735 155.433Q176.391 155.433 174.502 156.48Q172.612 157.528 171.543 159.374Q170.481 161.219 170.481 163.497Q170.481 165.782 171.543 167.628Q172.612 169.474 174.502 170.521Q176.391 171.568 178.735 171.568Q182.243 171.568 184.646 169.049L186.594 170.938Q185.151 172.557 183.093 173.399Q181.042 174.242 178.581 174.242ZM204.928 155.609L197.728 155.609L197.728 174L194.784 174L194.784 155.609L187.613 155.609L187.613 153.001L204.928 153.001L204.928 155.609ZM217.795 160.318Q221.545 160.318 223.538 162.003Q225.537 163.68 225.537 166.947Q225.537 170.396 223.391 172.198Q221.245 174 217.253 174L208.582 174L208.582 153.001L211.555 153.001L211.555 160.318L217.795 160.318ZM217.136 171.627Q219.744 171.627 221.135 170.448Q222.534 169.261 222.534 167.013Q222.534 162.691 217.136 162.691L211.555 162.691L211.555 171.627L217.136 171.627ZM256.132 153.001L256.132 174L253.195 174L253.195 155.609L241.015 155.609L241.015 174L238.042 174L238.042 153.001L256.132 153.001ZM277.913 171.393L277.913 174L262.672 174L262.672 153.001L277.488 153.001L277.488 155.609L265.674 155.609L265.674 162.062L276.199 162.062L276.199 164.61L265.674 164.61L265.674 171.393L277.913 171.393ZM290.81 153.001Q294.89 153.001 297.226 154.95Q299.57 156.898 299.57 160.318Q299.57 163.739 297.226 165.694Q294.89 167.643 290.81 167.643L285.625 167.643L285.625 174L282.622 174L282.622 153.001L290.81 153.001ZM290.722 165.028Q293.571 165.028 295.073 163.819Q296.574 162.604 296.574 160.318Q296.574 158.041 295.073 156.825Q293.571 155.609 290.722 155.609L285.625 155.609L285.625 165.028L290.722 165.028ZM318.983 171.393L318.983 174L303.742 174L303.742 153.001L318.558 153.001L318.558 155.609L306.745 155.609L306.745 162.062L317.269 162.062L317.269 164.61L306.745 164.61L306.745 171.393L318.983 171.393ZM324.653 153.001L330.146 160.677L335.632 153.001L339.147 153.001L332.036 163.08L339.711 174L336.174 174L330.146 165.628L324.147 174L320.698 174L328.344 163.197L321.203 153.001L324.653 153.001ZM352.19 174.242Q349.011 174.242 346.462 172.85Q343.913 171.451 342.456 168.99Q341.006 166.529 341.006 163.497Q341.006 160.472 342.456 158.011Q343.913 155.55 346.462 154.159Q349.011 152.76 352.19 152.76Q355.339 152.76 357.888 154.159Q360.444 155.55 361.88 157.997Q363.323 160.443 363.323 163.497Q363.323 166.559 361.88 169.005Q360.444 171.451 357.888 172.85Q355.339 174.242 352.19 174.242ZM352.19 171.568Q354.504 171.568 356.35 170.521Q358.196 169.474 359.258 167.628Q360.32 165.782 360.32 163.497Q360.32 161.219 359.258 159.374Q358.196 157.528 356.35 156.48Q354.504 155.433 352.19 155.433Q349.883 155.433 348.008 156.48Q346.133 157.528 345.063 159.374Q344.001 161.219 344.001 163.497Q344.001 165.782 345.063 167.628Q346.133 169.474 348.008 170.521Q349.883 171.568 352.19 171.568ZM387.591 171.393L387.591 178.592L384.808 178.592L384.808 174L367.523 174L367.494 178.592L364.703 178.592L364.732 171.393L365.758 171.393Q367.735 171.268 368.541 168.258Q369.354 165.24 369.537 159.747L369.742 153.001L384.508 153.001L384.508 171.393L387.591 171.393ZM372.174 160.018Q372.027 164.457 371.471 167.372Q370.914 170.279 369.684 171.393L381.534 171.393L381.534 155.609L372.328 155.609L372.174 160.018ZM408.892 153.001L399.568 170.309Q398.455 172.381 396.953 173.399Q395.452 174.417 393.686 174.417Q392.302 174.417 390.867 173.788L391.643 171.393Q392.756 171.781 393.628 171.781Q395.605 171.781 396.894 169.679L397.378 168.932L388.918 153.001L392.126 153.001L398.938 166.317L405.925 153.001L408.892 153.001ZM430.558 163.05Q432.535 163.592 433.641 164.925Q434.755 166.258 434.755 168.119Q434.755 169.979 433.568 171.378Q432.381 172.77 430.419 173.509Q428.456 174.242 426.149 174.242Q424.047 174.242 421.974 173.612Q419.908 172.982 418.194 171.722L419.242 169.503Q420.626 170.58 422.333 171.122Q424.047 171.664 425.782 171.664Q428.302 171.664 430.008 170.602Q431.722 169.532 431.722 167.672Q431.722 166.083 430.433 165.226Q429.144 164.369 426.808 164.369L422.128 164.369L422.128 161.937L426.595 161.937Q428.602 161.937 429.73 161.117Q430.858 160.289 430.858 158.817Q430.858 157.169 429.386 156.209Q427.914 155.25 425.665 155.25Q424.193 155.25 422.677 155.675Q421.168 156.092 419.813 156.927L418.854 154.474Q420.443 153.573 422.215 153.126Q423.988 152.672 425.753 152.672Q427.972 152.672 429.833 153.36Q431.693 154.049 432.784 155.375Q433.883 156.693 433.883 158.458Q433.883 160.047 432.997 161.249Q432.118 162.45 430.558 163.05ZM38.7372 195.001L38.7372 216L35.8002 216L35.8002 197.609L26.4985 197.609L26.2934 203.761Q26.1396 208.112 25.5829 210.814Q25.0336 213.51 23.8324 214.879Q22.6313 216.242 20.5878 216.242Q19.6576 216.242 18.6982 216L18.9106 213.327Q19.3866 213.451 19.87 213.451Q21.1591 213.451 21.9355 212.418Q22.7192 211.378 23.1073 209.313Q23.5029 207.24 23.62 203.849L23.9496 195.001L38.7372 195.001ZM45.2766 195.001L48.2502 195.001L48.2502 216L45.2766 216L45.2766 195.001ZM62.1108 206.757L57.7309 206.757L57.7309 216L54.7866 216L54.7866 195.001L57.7309 195.001L57.7309 204.12L62.1694 204.12L68.7685 195.001L71.9765 195.001L64.4765 205.167L72.3427 216L68.9223 216L62.1108 206.757ZM92.7365 195.001L83.4128 212.309Q82.2995 214.381 80.798 215.399Q79.2966 216.417 77.5314 216.417Q76.1472 216.417 74.7116 215.788L75.488 213.393Q76.6013 213.781 77.4729 213.781Q79.4504 213.781 80.7395 211.679L81.2229 210.932L72.7634 195.001L75.9714 195.001L82.7829 208.317L89.7702 195.001L92.7365 195.001ZM108.908 205.109Q111.039 205.622 112.13 206.925Q113.229 208.229 113.229 210.272Q113.229 212.997 111.229 214.499Q109.237 216 105.429 216L95.8266 216L95.8266 195.001L104.857 195.001Q108.307 195.001 110.241 196.4Q112.182 197.792 112.182 200.399Q112.182 202.113 111.325 203.314Q110.468 204.508 108.908 205.109ZM98.8002 204.237L104.652 204.237Q106.842 204.237 107.992 203.373Q109.149 202.501 109.149 200.817Q109.149 199.14 107.977 198.253Q106.813 197.367 104.652 197.367L98.8002 197.367L98.8002 204.237ZM105.37 213.627Q110.197 213.627 110.197 210.031Q110.197 208.229 108.981 207.379Q107.772 206.522 105.37 206.522L98.8002 206.522L98.8002 213.627L105.37 213.627ZM131.889 210.749L120.727 210.749L118.42 216L115.329 216L124.836 195.001L127.809 195.001L137.345 216L134.196 216L131.889 210.749ZM130.842 208.354L126.308 198.063L121.782 208.354L130.842 208.354ZM158.227 195.001L158.227 216L155.29 216L155.29 197.609L145.988 197.609L145.783 203.761Q145.63 208.112 145.073 210.814Q144.524 213.51 143.322 214.879Q142.121 216.242 140.078 216.242Q139.148 216.242 138.188 216L138.401 213.327Q138.877 213.451 139.36 213.451Q140.649 213.451 141.425 212.418Q142.209 211.378 142.597 209.313Q142.993 207.24 143.11 203.849L143.44 195.001L158.227 195.001ZM173.98 202.318Q177.73 202.318 179.723 204.003Q181.722 205.68 181.722 208.947Q181.722 212.396 179.576 214.198Q177.43 216 173.438 216L164.767 216L164.767 195.001L167.74 195.001L167.74 202.318L173.98 202.318ZM173.321 213.627Q175.929 213.627 177.32 212.448Q178.719 211.261 178.719 209.013Q178.719 204.691 173.321 204.691L167.74 204.691L167.74 213.627L173.321 213.627ZM204.218 195.001L204.218 216L201.215 216L201.215 206.64L189.16 206.64L189.16 216L186.157 216L186.157 195.001L189.16 195.001L189.16 204.032L201.215 204.032L201.215 195.001L204.218 195.001ZM220.205 216.242Q217.026 216.242 214.477 214.85Q211.928 213.451 210.471 210.99Q209.021 208.529 209.021 205.497Q209.021 202.472 210.471 200.011Q211.928 197.55 214.477 196.159Q217.026 194.76 220.205 194.76Q223.354 194.76 225.903 196.159Q228.459 197.55 229.895 199.997Q231.338 202.443 231.338 205.497Q231.338 208.559 229.895 211.005Q228.459 213.451 225.903 214.85Q223.354 216.242 220.205 216.242ZM220.205 213.568Q222.519 213.568 224.365 212.521Q226.211 211.474 227.273 209.628Q228.335 207.782 228.335 205.497Q228.335 203.219 227.273 201.374Q226.211 199.528 224.365 198.48Q222.519 197.433 220.205 197.433Q217.898 197.433 216.023 198.48Q214.148 199.528 213.078 201.374Q212.016 203.219 212.016 205.497Q212.016 207.782 213.078 209.628Q214.148 211.474 216.023 212.521Q217.898 213.568 220.205 213.568ZM236.079 195.001L239.082 195.001L239.082 216L236.079 216L236.079 195.001ZM234.79 192.782Q234.16 192.782 233.706 192.35Q233.26 191.911 233.26 191.251Q233.26 190.592 233.706 190.146Q234.16 189.691 234.79 189.691Q235.42 189.691 235.867 190.146Q236.321 190.592 236.321 191.251Q236.321 191.911 235.867 192.35Q235.42 192.782 234.79 192.782ZM240.371 192.782Q239.742 192.782 239.287 192.35Q238.841 191.911 238.841 191.251Q238.841 190.592 239.287 190.146Q239.742 189.691 240.371 189.691Q241.001 189.691 241.448 190.146Q241.902 190.592 241.902 191.251Q241.902 191.911 241.448 192.35Q241.001 192.782 240.371 192.782ZM262.956 216.242Q259.807 216.242 257.273 214.85Q254.738 213.451 253.296 211.005Q251.86 208.559 251.86 205.497Q251.86 202.443 253.296 199.997Q254.738 197.55 257.287 196.159Q259.836 194.76 262.986 194.76Q265.446 194.76 267.483 195.587Q269.526 196.408 270.969 198.034L269.021 199.923Q266.648 197.433 263.11 197.433Q260.766 197.433 258.877 198.48Q256.987 199.528 255.918 201.374Q254.856 203.219 254.856 205.497Q254.856 207.782 255.918 209.628Q256.987 211.474 258.877 212.521Q260.766 213.568 263.11 213.568Q266.618 213.568 269.021 211.049L270.969 212.938Q269.526 214.557 267.468 215.399Q265.417 216.242 262.956 216.242ZM275.798 195.001L281.291 202.677L286.777 195.001L290.292 195.001L283.181 205.08L290.856 216L287.319 216L281.291 207.628L275.292 216L271.843 216L279.489 205.197L272.348 195.001L275.798 195.001ZM309.188 213.393L309.188 216L293.947 216L293.947 195.001L308.763 195.001L308.763 197.609L296.95 197.609L296.95 204.062L307.474 204.062L307.474 206.61L296.95 206.61L296.95 213.393L309.188 213.393ZM333.372 216L333.342 200.7L325.747 213.451L324.37 213.451L316.782 200.788L316.782 216L313.897 216L313.897 195.001L316.358 195.001L325.117 209.76L333.76 195.001L336.221 195.001L336.25 216L333.372 216ZM342.787 195.001L345.76 195.001L345.76 211.203L358.182 195.001L360.943 195.001L360.943 216L357.999 216L357.999 199.828L345.548 216L342.787 216L342.787 195.001ZM393.608 195.001L393.608 216L390.605 216L390.605 206.64L378.55 206.64L378.55 216L375.547 216L375.547 195.001L378.55 195.001L378.55 204.032L390.605 204.032L390.605 195.001L393.608 195.001ZM413.799 210.749L402.637 210.749L400.33 216L397.239 216L406.746 195.001L409.719 195.001L419.255 216L416.106 216L413.799 210.749ZM412.752 208.354L408.218 198.063L403.692 208.354L412.752 208.354ZM101.872 237.001L101.872 258L98.9354 258L98.9354 239.609L86.7552 239.609L86.7552 258L83.7816 258L83.7816 237.001L101.872 237.001ZM116.6 237.001Q120.68 237.001 123.016 238.95Q125.36 240.898 125.36 244.318Q125.36 247.739 123.016 249.694Q120.68 251.643 116.6 251.643L111.415 251.643L111.415 258L108.412 258L108.412 237.001L116.6 237.001ZM116.512 249.028Q119.361 249.028 120.863 247.819Q122.364 246.604 122.364 244.318Q122.364 242.041 120.863 240.825Q119.361 239.609 116.512 239.609L111.415 239.609L111.415 249.028L116.512 249.028ZM139.28 258.242Q136.101 258.242 133.552 256.85Q131.003 255.451 129.546 252.99Q128.096 250.529 128.096 247.497Q128.096 244.472 129.546 242.011Q131.003 239.55 133.552 238.159Q136.101 236.76 139.28 236.76Q142.429 236.76 144.978 238.159Q147.534 239.55 148.97 241.997Q150.413 244.443 150.413 247.497Q150.413 250.559 148.97 253.005Q147.534 255.451 144.978 256.85Q142.429 258.242 139.28 258.242ZM139.28 255.568Q141.594 255.568 143.44 254.521Q145.286 253.474 146.348 251.628Q147.41 249.782 147.41 247.497Q147.41 245.219 146.348 243.374Q145.286 241.528 143.44 240.48Q141.594 239.433 139.28 239.433Q136.973 239.433 135.098 240.48Q133.223 241.528 132.153 243.374Q131.091 245.219 131.091 247.497Q131.091 249.782 132.153 251.628Q133.223 253.474 135.098 254.521Q136.973 255.568 139.28 255.568ZM178.438 247.468Q178.438 251.643 175.523 254.016Q172.615 256.381 167.305 256.557L167.305 258.776L164.515 258.776L164.515 256.557Q159.205 256.352 156.275 253.986Q153.353 251.613 153.353 247.468Q153.353 243.3 156.275 240.935Q159.205 238.562 164.515 238.349L164.515 236.218L167.305 236.218L167.305 238.349Q172.586 238.562 175.508 240.949Q178.438 243.33 178.438 247.468ZM167.305 254.221Q171.326 253.979 173.436 252.258Q175.552 250.529 175.552 247.438Q175.552 244.414 173.406 242.685Q171.268 240.957 167.305 240.722L167.305 254.221ZM156.268 247.468Q156.268 250.529 158.406 252.258Q160.552 253.979 164.515 254.221L164.515 240.722Q160.494 240.957 158.377 242.67Q156.268 244.377 156.268 247.468ZM183.052 237.001L186.025 237.001L186.025 258L183.052 258L183.052 237.001ZM209.452 237.001L209.452 258L206.515 258L206.515 239.609L197.213 239.609L197.008 245.761Q196.855 250.112 196.298 252.814Q195.749 255.51 194.547 256.879Q193.346 258.242 191.303 258.242Q190.373 258.242 189.413 258L189.626 255.327Q190.102 255.451 190.585 255.451Q191.874 255.451 192.65 254.418Q193.434 253.378 193.822 251.313Q194.218 249.24 194.335 245.849L194.665 237.001L209.452 237.001ZM229.644 252.749L218.482 252.749L216.175 258L213.084 258L222.591 237.001L225.564 237.001L235.1 258L231.951 258L229.644 252.749ZM228.597 250.354L224.063 240.063L219.537 250.354L228.597 250.354ZM246.056 248.757L241.676 248.757L241.676 258L238.732 258L238.732 237.001L241.676 237.001L241.676 246.12L246.114 246.12L252.714 237.001L255.922 237.001L248.422 247.167L256.288 258L252.867 258L246.056 248.757ZM273.598 239.609L266.398 239.609L266.398 258L263.454 258L263.454 239.609L256.283 239.609L256.283 237.001L273.598 237.001L273.598 239.609ZM277.252 237.001L280.225 237.001L280.225 253.203L292.647 237.001L295.408 237.001L295.408 258L292.464 258L292.464 241.828L280.013 258L277.252 258L277.252 237.001ZM316.884 237.001L316.884 258L313.917 258L313.917 249.687Q310.585 250.983 307.765 250.983Q303.927 250.983 301.81 249.123Q299.694 247.263 299.694 243.813L299.694 237.001L302.638 237.001L302.638 243.483Q302.638 245.82 304.059 247.08Q305.487 248.339 308.095 248.339Q311.002 248.339 313.917 247.021L313.917 237.001L316.884 237.001ZM341.483 237.001L341.483 258L338.48 258L338.48 248.64L326.425 248.64L326.425 258L323.422 258L323.422 237.001L326.425 237.001L326.425 246.032L338.48 246.032L338.48 237.001L341.483 237.001ZM365.212 237.001L355.888 254.309Q354.775 256.381 353.273 257.399Q351.772 258.417 350.006 258.417Q348.622 258.417 347.187 257.788L347.963 255.393Q349.076 255.781 349.948 255.781Q351.925 255.781 353.214 253.679L353.698 252.932L345.238 237.001L348.446 237.001L355.258 250.317L362.245 237.001L365.212 237.001Z" fill="#008083" fill-opacity="1.000000" fill-rule="evenodd"/>
	<path id="Vector" d="M243.404 373.224C240.658 380.666 236.506 387.137 231.06 392.455C224.861 398.509 216.743 403.318 206.933 406.749C206.612 406.861 206.276 406.954 205.938 407.021C205.492 407.109 205.039 407.157 204.589 407.163L204.501 407.163C204.021 407.163 203.54 407.115 203.062 407.021C202.724 406.954 202.393 406.861 202.073 406.752C192.251 403.326 184.124 398.519 177.919 392.465C172.47 387.147 168.318 380.68 165.576 373.238C160.59 359.707 160.874 344.801 161.102 332.822L161.106 332.639C161.152 331.649 161.182 330.61 161.198 329.463C161.281 323.83 165.76 319.17 171.394 318.855C183.14 318.2 192.227 314.369 199.991 306.801L200.059 306.739C201.348 305.557 202.972 304.977 204.589 305.001C206.148 305.021 207.7 305.601 208.944 306.739L209.01 306.801C216.775 314.369 225.862 318.2 237.608 318.855C243.242 319.17 247.721 323.83 247.804 329.463C247.821 330.618 247.85 331.655 247.896 332.639L247.899 332.716C248.126 344.718 248.408 359.653 243.404 373.224Z" fill="#00DD80" fill-opacity="1.000000" fill-rule="nonzero"/>
	<path id="Vector" d="M243.404 373.225C240.658 380.666 236.505 387.138 231.059 392.455C224.86 398.509 216.743 403.318 206.933 406.75C206.611 406.862 206.275 406.954 205.938 407.021C205.492 407.109 205.038 407.157 204.589 407.164L204.589 305.001C206.147 305.021 207.7 305.601 208.943 306.739L209.01 306.802C216.775 314.369 225.862 318.2 237.608 318.855C243.242 319.17 247.721 323.83 247.804 329.463C247.821 330.618 247.85 331.655 247.896 332.639L247.898 332.717C248.126 344.718 248.408 359.653 243.404 373.225Z" fill="#00AA63" fill-opacity="1.000000" fill-rule="nonzero"/>
	<path id="Vector" d="M229.96 356.082C229.96 370.092 218.586 381.495 204.589 381.545L204.499 381.545C190.461 381.545 179.037 370.122 179.037 356.082C179.037 342.044 190.461 330.621 204.499 330.621L204.589 330.621C218.586 330.671 229.96 342.074 229.96 356.082Z" fill="#FFFFFF" fill-opacity="1.000000" fill-rule="nonzero"/>
	<path id="Vector" d="M229.96 356.082C229.96 370.092 218.586 381.495 204.589 381.545L204.589 330.621C218.586 330.671 229.96 342.074 229.96 356.082Z" fill="#E1EBF0" fill-opacity="1.000000" fill-rule="nonzero"/>
	<path id="Vector" d="M216.056 352.415L204.589 363.884L202.111 366.361C201.525 366.947 200.758 367.239 199.991 367.239C199.223 367.239 198.456 366.947 197.87 366.361L192.542 361.032C191.372 359.861 191.372 357.965 192.542 356.793C193.711 355.622 195.61 355.622 196.781 356.793L199.991 360.003L211.817 348.177C212.988 347.005 214.887 347.005 216.056 348.177C217.227 349.348 217.227 351.246 216.056 352.415Z" fill="#B4D2D7" fill-opacity="1.000000" fill-rule="nonzero"/>
	<path id="Vector" d="M216.056 352.415L204.589 363.884L204.589 355.404L211.817 348.177C212.988 347.005 214.887 347.005 216.056 348.177C217.227 349.348 217.227 351.246 216.056 352.415Z" fill="#6FA5AA" fill-opacity="1.000000" fill-rule="nonzero"/>
	<rect id="regeneration 1" width="100.000000" height="100.000000" transform="translate(157.000000 0.000000)" fill="#FFFFFF" fill-opacity="0"/>
	<g clip-path="url(#clip67_127)">
		<path id="Vector" d="M214.222 5.62695L208.717 0.307617C208.551 0.148438 208.342 0.0332031 208.114 0.00683594C207.511 -0.0625 207 0.40625 207 0.995117L207 3.25195C194.513 3.25195 182.774 8.11426 173.944 16.9443C166.618 24.2705 162.026 33.6006 160.673 43.6982C160.582 44.3818 161.084 45.0029 161.771 45.0605L165.858 45.4014C166.496 45.4551 167.063 45 167.152 44.3662C169.9 24.833 186.721 9.75586 207 9.75586L207 11.9756C207 12.3926 207.239 12.7871 207.628 12.9385C208.005 13.085 208.414 12.9922 208.687 12.7285L214.222 7.38086C214.719 6.90137 214.719 6.10645 214.222 5.62695Z" fill="#B7E546" fill-opacity="1.000000" fill-rule="nonzero"/>
		<path id="Vector" d="M199.778 94.373L205.283 99.6914C205.449 99.8516 205.658 99.9668 205.886 99.9932C206.489 100.062 207 99.5928 207 99.0039L207 96.748C219.487 96.748 231.226 91.8848 240.056 83.0557C247.382 75.7295 251.975 66.3984 253.327 56.3008C253.418 55.6172 252.916 54.9961 252.229 54.9395L248.142 54.5977C247.504 54.5449 246.937 55 246.848 55.6338C244.1 75.166 227.279 90.2432 207 90.2432L207 88.0244C207 87.6074 206.761 87.2119 206.372 87.0605C205.995 86.9141 205.586 87.0068 205.313 87.2705L199.778 92.6182C199.281 93.0977 199.281 93.8936 199.778 94.373Z" fill="#ABD641" fill-opacity="1.000000" fill-rule="nonzero"/>
		<path id="Vector" d="M235.476 42.0059L216.202 42.0059C215.535 42.0059 214.995 41.4658 214.995 40.7988L214.995 21.5244C214.995 20.4131 214.094 19.5127 212.982 19.5127L201.018 19.5127C199.906 19.5127 199.006 20.4131 199.006 21.5244L199.006 40.7988C199.006 41.4658 198.465 42.0059 197.798 42.0059L178.524 42.0059C177.413 42.0059 176.512 42.9062 176.512 44.0176L176.512 55.9834C176.512 57.0947 177.413 57.9951 178.524 57.9951L197.798 57.9951C198.465 57.9951 199.006 58.5352 199.006 59.2021L199.006 78.4766C199.006 79.5879 199.906 80.4883 201.018 80.4883L212.983 80.4883C214.094 80.4883 214.995 79.5879 214.995 78.4766L214.995 59.2021C214.995 58.5352 215.535 57.9951 216.202 57.9951L235.476 57.9951C236.587 57.9951 237.488 57.0947 237.488 55.9834L237.488 44.0176C237.488 42.9062 236.587 42.0059 235.476 42.0059Z" fill="#E490D0" fill-opacity="1.000000" fill-rule="nonzero"/>
		<path id="Vector" d="M219.765 42.0049C216.898 47.2441 212.962 52.5244 208.073 57.4121C205.159 60.3262 202.106 62.9004 199.005 65.1133L199.005 78.4756C199.005 79.5869 199.906 80.4873 201.018 80.4873L212.982 80.4873C214.094 80.4873 214.995 79.5869 214.995 78.4756L214.995 59.2012C214.995 58.5342 215.535 57.9941 216.202 57.9941L235.476 57.9941C236.587 57.9941 237.488 57.0938 237.488 55.9824L237.488 44.0166C237.488 42.9053 236.587 42.0049 235.476 42.0049L219.765 42.0049Z" fill="#DF73C1" fill-opacity="1.000000" fill-rule="nonzero"/>
		<path id="Vector" d="M252.947 19.1055L248.858 19.1055C248.191 19.1055 247.65 18.5654 247.65 17.8984L247.65 13.8086C247.65 13.1416 247.11 12.6016 246.443 12.6016L242.354 12.6016C241.687 12.6016 241.146 13.1416 241.146 13.8086L241.146 17.8984C241.146 18.5654 240.606 19.1055 239.939 19.1055L235.85 19.1055C235.183 19.1055 234.642 19.6465 234.642 20.3125L234.642 24.4023C234.642 25.0693 235.183 25.6094 235.85 25.6094L239.939 25.6094C240.606 25.6094 241.146 26.1504 241.146 26.8174L241.146 30.9062C241.146 31.5732 241.687 32.1143 242.354 32.1143L246.443 32.1143C247.11 32.1143 247.651 31.5732 247.651 30.9062L247.651 26.8174C247.651 26.1504 248.191 25.6094 248.858 25.6094L252.947 25.6094C253.614 25.6094 254.155 25.0693 254.155 24.4023L254.155 20.3125C254.154 19.6465 253.614 19.1055 252.947 19.1055Z" fill="#DD4FB1" fill-opacity="1.000000" fill-rule="nonzero"/>
		<path id="Vector" d="M178.15 74.3896L174.061 74.3896C173.394 74.3896 172.854 73.8496 172.854 73.1826L172.854 69.0928C172.854 68.4258 172.313 67.8857 171.646 67.8857L167.557 67.8857C166.89 67.8857 166.35 68.4258 166.35 69.0928L166.35 73.1826C166.35 73.8496 165.809 74.3896 165.142 74.3896L161.053 74.3896C160.386 74.3896 159.845 74.9307 159.845 75.5967L159.845 79.6865C159.845 80.3535 160.386 80.8936 161.053 80.8936L165.142 80.8936C165.809 80.8936 166.35 81.4346 166.35 82.1016L166.35 86.1904C166.35 86.8574 166.89 87.3984 167.557 87.3984L171.646 87.3984C172.313 87.3984 172.854 86.8574 172.854 86.1904L172.854 82.1016C172.854 81.4346 173.394 80.8936 174.061 80.8936L178.151 80.8936C178.817 80.8936 179.358 80.3535 179.358 79.6865L179.358 75.5967C179.358 74.9307 178.817 74.3896 178.15 74.3896Z" fill="#DD4FB1" fill-opacity="1.000000" fill-rule="nonzero"/>
		<path id="Vector" d="M189.605 92.3926L187.049 92.3926L187.049 89.8369C187.049 89.0039 186.373 88.3281 185.54 88.3281C184.707 88.3281 184.031 89.0039 184.031 89.8369L184.031 92.3926L181.475 92.3926C180.641 92.3926 179.966 93.0684 179.966 93.9023C179.966 94.7354 180.641 95.4111 181.475 95.4111L184.031 95.4111L184.031 97.9668C184.031 98.8008 184.707 99.4756 185.54 99.4756C186.373 99.4756 187.049 98.8008 187.049 97.9668L187.049 95.4111L189.605 95.4111C190.438 95.4111 191.114 94.7354 191.114 93.9023C191.114 93.0684 190.438 92.3926 189.605 92.3926Z" fill="#B7E546" fill-opacity="1.000000" fill-rule="nonzero"/>
		<path id="Vector" d="M232.525 4.58887L229.969 4.58887L229.969 2.03223C229.969 1.19922 229.293 0.523438 228.46 0.523438C227.627 0.523438 226.951 1.19922 226.951 2.03223L226.951 4.58789L224.395 4.58789C223.562 4.58789 222.886 5.26367 222.886 6.09766C222.886 6.93066 223.562 7.60645 224.395 7.60645L226.951 7.60645L226.951 10.1621C226.951 10.9961 227.627 11.6709 228.46 11.6709C229.293 11.6709 229.969 10.9961 229.969 10.1621L229.969 7.60645L232.525 7.60645C233.359 7.60645 234.034 6.93066 234.034 6.09766C234.034 5.26465 233.359 4.58887 232.525 4.58887Z" fill="#ABD641" fill-opacity="1.000000" fill-rule="nonzero"/>
	</g>
	<line id="Line 25" x1="206.000000" y1="103.000000" x2="206.000000" y2="148.000000" stroke="#008083" stroke-opacity="1.000000" stroke-width="2.000000"/>
	<line id="Line 26" x1="205.000000" y1="260.000000" x2="205.000000" y2="305.000000" stroke="#008083" stroke-opacity="1.000000" stroke-width="2.000000"/>
</svg>
