<svg width="96" height="96" viewBox="0 0 96 96" fill="none" xmlns="http://www.w3.org/2000/svg">
<g id="free-icon-alarm-1143542 1" clip-path="url(#clip0_89_12715)">
<g id="Group">
<path id="Vector" d="M58.7703 81.9375V85.2715C58.7703 91.1865 53.9568 96 48.041 96C42.126 96 37.3125 91.1865 37.3125 85.2715V81.9375H58.7703Z" fill="#FF9A00"/>
<path id="Vector_2" d="M45.2285 0H50.8535V12.3545H45.2285V0Z" fill="#FF9A00"/>
<path id="Vector_3" d="M24.7832 4.15869L29.7219 1.46631L35.8816 12.7661L30.9429 15.4585L24.7832 4.15869Z" fill="#FF9A00"/>
</g>
<path id="Vector_4" d="M60.2012 12.7698L66.3608 1.46997L71.2996 4.16235L65.1399 15.4622L60.2012 12.7698Z" fill="#E67500"/>
<path id="Vector_5" d="M48.041 0H50.8535V12.3545H48.041V0Z" fill="#E67500"/>
<path id="Vector_6" d="M58.7703 81.9375V85.2715C58.7703 91.1865 53.9568 96 48.041 96V81.9375H58.7703Z" fill="#E67500"/>
<path id="Vector_7" d="M80.3328 84.75H15.75L21.0095 71.231L22.3088 67.8896V45.4966C22.3088 31.3088 33.8511 19.7644 48.041 19.7644C62.231 19.7644 73.7739 31.3088 73.7739 45.4966V67.8896L75.0732 71.231L80.3328 84.75Z" fill="#FFB64F"/>
<path id="Vector_8" d="M80.3328 84.75H48.041V19.7644C62.231 19.7644 73.7739 31.3088 73.7739 45.4966V67.8896L75.0732 71.231L80.3328 84.75Z" fill="#FF9A00"/>
<path id="Vector_9" d="M75.073 71.231H21.0093L22.3086 67.8896V65.606H73.7737V67.8896L75.073 71.231Z" fill="#FFF4CA"/>
<path id="Vector_10" d="M75.0732 71.231H48.041V65.606H73.7739V67.8896L75.0732 71.231Z" fill="#FFDAA8"/>
</g>
<defs>
<clipPath id="clip0_89_12715">
<rect width="96" height="96" fill="white"/>
</clipPath>
</defs>
</svg>
