<svg width="135.735352" height="117.378906" viewBox="0 0 135.735 117.379" fill="none" xmlns="http://www.w3.org/2000/svg" xmlns:xlink="http://www.w3.org/1999/xlink">
	<desc>
			Created with Pixso.
	</desc>
	<defs/>
	<path id="Vector" d="M3.18555 90.4395C-1.71875 73.3203 0.226562 58.2422 11.3818 44.084C15.1289 39.3301 22.0215 38.5117 26.7764 42.2578C31.5322 46.0059 32.3496 52.8984 28.6035 57.6543C22.2686 65.6934 21.0518 73.1934 24.2617 84.4023C25.9287 90.2246 22.5625 96.293 16.7422 97.9609C10.9561 99.6172 4.8623 96.2969 3.18555 90.4395Z" fill="#6EBAFF" fill-opacity="1.000000" fill-rule="nonzero"/>
	<path id="Vector" d="M7.2832 35.5273C7.2832 63.2676 33.2432 87.9883 56.3408 100.887C65.7686 106.15 77.25 106.15 86.6777 100.887C109.774 87.9883 135.735 63.2676 135.735 35.5273C135.735 15.9062 119.828 0 100.207 0C90.6699 0 82.0117 3.75977 75.6299 9.875C73.3164 12.0918 69.7012 12.0918 67.3877 9.875C61.0068 3.75977 52.3486 0 42.8115 0C23.1895 0 7.2832 15.9062 7.2832 35.5273Z" fill="#6EBAFF" fill-opacity="1.000000" fill-rule="nonzero"/>
	<path id="Vector" d="M98.8955 93.0859C25.2666 82.1133 26.3252 14.5957 36.7803 0.511719C20.0312 3.37695 7.2832 17.9629 7.2832 35.5273C7.2832 63.2676 33.2432 87.9883 56.3408 100.887C65.7686 106.15 77.25 106.15 86.6777 100.887C90.7139 98.6309 94.8379 96.0156 98.8955 93.0859Z" fill="#47A5F8" fill-opacity="1.000000" fill-rule="nonzero"/>
	<path id="Vector" d="M20.0977 70.6309C5.02832 80.7012 15.8037 120.521 64.7549 108.666C66.5342 106.605 67.877 104.156 68.6436 101.453C73.0332 85.959 73.5674 64.1445 61.626 52.2031C53.1807 43.7578 39.4863 43.7578 31.04 52.2031C26.9355 56.3086 24.8262 61.6543 24.7119 67.0332C24.6709 68.9844 23.1143 70.541 21.1641 70.582C20.8086 70.5879 20.4531 70.6055 20.0977 70.6309Z" fill="#BBF0FF" fill-opacity="1.000000" fill-rule="nonzero"/>
	<path id="Vector" d="M55.584 114.512C59.2051 113.486 62.3721 111.426 64.7549 108.666C15.5625 109.795 14.8018 80.752 20.0977 70.6309C15.083 70.9844 10.168 73.0762 6.33496 76.9082C-2.11133 85.3555 -2.11133 99.0488 6.33496 107.494C18.2754 119.436 40.0908 118.902 55.584 114.512Z" fill="#96EAFF" fill-opacity="1.000000" fill-rule="nonzero"/>
	<path id="Vector" d="M58.3926 98.4004C57.1387 92.4766 60.9238 86.6602 66.8467 85.4062C77.7402 83.0996 94.2021 79.6152 109.712 61.3262C113.628 56.707 120.545 56.1387 125.163 60.0547C129.78 63.9707 130.35 70.8887 126.434 75.5059C106.075 99.5117 83.5107 104.289 71.3877 106.855C65.4639 108.109 59.6455 104.324 58.3926 98.4004Z" fill="#47A5F8" fill-opacity="1.000000" fill-rule="nonzero"/>
	<path id="Vector" d="M30.2422 91.623C29.7334 91.623 29.2246 91.4297 28.8369 91.041L26.5186 88.7246C25.7422 87.9473 25.7422 86.6895 26.5186 85.9121C27.2949 85.1367 28.5547 85.1367 29.3311 85.9121L31.6484 88.2305C32.4248 89.0059 32.4248 90.2656 31.6484 91.041C31.2598 91.4297 30.751 91.623 30.2422 91.623Z" fill="#606042" fill-opacity="1.000000" fill-rule="nonzero"/>
	<path id="Vector" d="M54.3623 67.5039C53.8535 67.5039 53.3447 67.3105 52.9561 66.9219L50.6387 64.6055C49.8623 63.8281 49.8623 62.5703 50.6387 61.793C51.415 61.0176 52.6748 61.0176 53.4512 61.793L55.7676 64.1113C56.5449 64.8867 56.5449 66.1465 55.7676 66.9219C55.3799 67.3105 54.8711 67.5039 54.3623 67.5039Z" fill="#606042" fill-opacity="1.000000" fill-rule="nonzero"/>
	<path id="Vector" d="M39.4648 82.6895C39.2832 82.6895 39.1006 82.6836 38.917 82.6719C37.8223 82.5957 36.9951 81.6465 37.0703 80.5508C37.1455 79.4551 38.0947 78.6289 39.1904 78.7031C40.3398 78.7812 41.4639 78.3613 42.2754 77.5508C43.0879 76.7383 43.5078 75.6133 43.4297 74.4648C43.3545 73.3691 44.1807 72.4199 45.2764 72.3438C46.3711 72.2695 47.3213 73.0957 47.3965 74.1914C47.5537 76.4883 46.7129 78.7383 45.0879 80.3613C43.5918 81.8574 41.5684 82.6895 39.4648 82.6895Z" fill="#606042" fill-opacity="1.000000" fill-rule="nonzero"/>
	<path id="Vector" d="M52.1025 35.2891C51.0049 35.2891 50.1143 34.3984 50.1143 33.3008C50.1143 32.3242 49.3203 31.5293 48.3438 31.5293C47.3672 31.5293 46.5723 32.3242 46.5723 33.3008C46.5723 34.3984 45.6816 35.2891 44.584 35.2891C43.4863 35.2891 42.5957 34.3984 42.5957 33.3008C42.5957 30.1309 45.1738 27.5527 48.3438 27.5527C51.5127 27.5527 54.0908 30.1309 54.0908 33.3008C54.0908 34.3984 53.2012 35.2891 52.1025 35.2891Z" fill="#606042" fill-opacity="1.000000" fill-rule="nonzero"/>
	<path id="Vector" d="M85.707 35.2891C84.6094 35.2891 83.7188 34.3984 83.7188 33.3008C83.7188 32.3242 82.9248 31.5293 81.9482 31.5293C80.9717 31.5293 80.1768 32.3242 80.1768 33.3008C80.1768 34.3984 79.2871 35.2891 78.1885 35.2891C77.0898 35.2891 76.2002 34.3984 76.2002 33.3008C76.2002 30.1309 78.7783 27.5527 81.9482 27.5527C85.1172 27.5527 87.6953 30.1309 87.6953 33.3008C87.6953 34.3984 86.8057 35.2891 85.707 35.2891Z" fill="#606042" fill-opacity="1.000000" fill-rule="nonzero"/>
	<path id="Vector" d="M65.1455 41.5C63.042 41.5 61.042 40.5898 59.6582 39.002C58.9365 38.1738 59.0234 36.918 59.8516 36.1973C60.6797 35.4746 61.9346 35.5605 62.6562 36.3887C63.2852 37.1094 64.1914 37.5234 65.1455 37.5234C66.0977 37.5234 67.0049 37.1094 67.6338 36.3887C68.3555 35.5605 69.6113 35.4746 70.4395 36.1953C71.2666 36.918 71.3525 38.1738 70.6318 39.002C69.248 40.5898 67.248 41.5 65.1455 41.5Z" fill="#606042" fill-opacity="1.000000" fill-rule="nonzero"/>
</svg>
