<svg width="100" height="54" viewBox="0 0 54 54" fill="none" xmlns="http://www.w3.org/2000/svg">
<g clip-path="url(#clip0_57_42)">
<path d="M32.4294 32.1615C32.4294 32.1615 31.4704 33.7492 29.9287 35.0213C28.7443 35.9985 27.3255 36.425 26.0221 36.7256C26.0221 36.7256 26.5165 36.8854 26.6762 36.9289C28.2819 37.3665 29.943 37.5736 31.6101 37.5508L39.3954 37.4445C45.1015 37.3666 49.7386 32.6345 49.6999 26.9288C49.6613 21.223 44.9611 16.6185 39.255 16.6965L30.1953 16.8202C24.4892 16.8981 19.8521 21.6302 19.8908 27.3359C19.9022 29.0234 20.2749 30.5214 21.0073 31.9236C21.0073 31.9236 22.6743 32.027 24.0819 31.8763C25.5833 31.7155 26.88 31.0822 26.88 31.0822C26.2709 30.5651 25.4749 29.3492 25.4749 29.3492C25.124 28.6774 25.0028 28.0746 24.9973 27.2662C24.9788 24.5332 27.2 22.2665 29.9332 22.2292L39.5903 22.0973C42.3235 22.06 44.5749 24.2655 44.5934 26.9986C44.612 29.7317 42.3908 31.9983 39.6576 32.0356L32.4294 32.1615Z" fill="#1766A0"/>
<path d="M21.426 21.8408C21.426 21.8408 22.4321 20.1985 24.0113 18.9735C25.1773 18.069 26.3775 17.5628 27.6603 17.1708C27.6603 17.1708 27.4837 17.1144 27.324 17.0709C25.7184 16.6333 24.0572 16.4262 22.3901 16.449L14.6048 16.5553C8.89872 16.6332 4.26163 21.3653 4.30028 27.071C4.33889 32.7768 9.0391 37.3813 14.7452 37.3033L23.8049 37.1796C29.511 37.1017 34.1481 32.3696 34.1094 26.6639C34.0981 24.9764 33.7523 23.5894 33.0199 22.1871C33.0199 22.1871 32.0756 22.1872 29.9331 22.2293C28.1857 22.2636 27.2675 23.0498 27.2675 23.0498C27.8767 23.5668 28.5252 24.6506 28.5252 24.6506C28.8761 25.3224 28.9973 25.9252 29.0028 26.7336C29.0213 29.4666 26.8001 31.7333 24.0669 31.7706L14.4098 31.9025C11.6766 31.9398 9.42517 29.7343 9.40666 27.0012C9.38815 24.2681 11.6093 22.0015 14.3425 21.9642L21.426 21.8408Z" fill="#00337A"/>
<path d="M19.8915 27.3359C19.9029 29.0234 20.2756 30.5213 21.0081 31.9236C21.0081 31.9236 22.675 32.027 24.0826 31.8763C25.584 31.7155 26.8808 31.0822 26.8808 31.0822C26.2716 30.5651 25.4757 29.3491 25.4757 29.3491C25.1247 28.6774 25.0035 28.0746 24.998 27.2662C24.9977 27.216 24.9997 27.1665 25.0008 27.1167L19.8927 27.1343C19.8919 27.2013 19.891 27.2685 19.8915 27.3359Z" fill="#145481"/>
<path d="M39.3961 37.4445C45.0679 37.3671 49.6826 32.6911 49.7001 27.0315L44.5932 27.0491C44.584 29.7593 42.3745 31.9985 39.6582 32.0356L32.43 32.1615C32.43 32.1615 31.471 33.7493 29.9293 35.0213C28.7449 35.9986 27.3261 36.425 26.0228 36.7257C26.0228 36.7257 26.5171 36.8854 26.6768 36.9289C28.2825 37.3665 29.9437 37.5736 31.6107 37.5508L39.3961 37.4445Z" fill="#145481"/>
<path d="M34.1086 27.0853L28.9957 27.103C28.8224 29.6677 26.6816 31.7349 24.0727 31.7706L14.4156 31.9025C11.7392 31.939 9.52616 29.8245 9.41795 27.1704L4.3082 27.188C4.40992 32.8394 9.08388 37.3807 14.7508 37.3033L23.8105 37.1795C29.3754 37.1035 33.9228 32.6007 34.1086 27.0853Z" fill="#002659"/>
</g>
<defs>
<clipPath id="clip0_57_42">
<rect width="38.1838" height="38.1838" fill="white" transform="translate(27) rotate(45)"/>
</clipPath>
</defs>
</svg>
