<svg width="967.000000" height="650.000000" viewBox="0 0 967 650" fill="none" xmlns="http://www.w3.org/2000/svg" >
	<desc>
			Created with Pixso.
	</desc>
	<defs>
		<filter id="filter_89_14099_dd" x="33.000000" y="101.000000" width="93.000000" height="93.638672" filterUnits="userSpaceOnUse" color-interpolation-filters="sRGB">
			<feFlood flood-opacity="0" result="BackgroundImageFix"/>
			<feColorMatrix in="SourceAlpha" type="matrix" values="0 0 0 0 0 0 0 0 0 0 0 0 0 0 0 0 0 0 127 0" result="hardAlpha"/>
			<feOffset dx="0" dy="4"/>
			<feGaussianBlur stdDeviation="1.33333"/>
			<feComposite in2="hardAlpha" operator="out" k2="-1" k3="1"/>
			<feColorMatrix type="matrix" values="0 0 0 0 0 0 0 0 0 0 0 0 0 0 0 0 0 0 0.25 0"/>
			<feBlend mode="normal" in2="BackgroundImageFix" result="effect_dropShadow_1"/>
			<feBlend mode="normal" in="SourceGraphic" in2="effect_dropShadow_1" result="shape"/>
		</filter>
		<linearGradient id="paint_linear_89_14100_0" x1="79.500000" y1="101.000000" x2="79.500000" y2="186.639099" gradientUnits="userSpaceOnUse">
			<stop stop-color="#516ACF"/>
			<stop offset="1.000000" stop-color="#9FB2FF"/>
		</linearGradient>
		<filter id="filter_89_14102_dd" x="33.000000" y="278.000000" width="93.000000" height="93.638672" filterUnits="userSpaceOnUse" color-interpolation-filters="sRGB">
			<feFlood flood-opacity="0" result="BackgroundImageFix"/>
			<feColorMatrix in="SourceAlpha" type="matrix" values="0 0 0 0 0 0 0 0 0 0 0 0 0 0 0 0 0 0 127 0" result="hardAlpha"/>
			<feOffset dx="0" dy="4"/>
			<feGaussianBlur stdDeviation="1.33333"/>
			<feComposite in2="hardAlpha" operator="out" k2="-1" k3="1"/>
			<feColorMatrix type="matrix" values="0 0 0 0 0 0 0 0 0 0 0 0 0 0 0 0 0 0 0.25 0"/>
			<feBlend mode="normal" in2="BackgroundImageFix" result="effect_dropShadow_1"/>
			<feBlend mode="normal" in="SourceGraphic" in2="effect_dropShadow_1" result="shape"/>
		</filter>
		<linearGradient id="paint_linear_89_14103_0" x1="79.500000" y1="278.000000" x2="79.500000" y2="363.639099" gradientUnits="userSpaceOnUse">
			<stop stop-color="#516ACF"/>
			<stop offset="1.000000" stop-color="#9FB2FF"/>
		</linearGradient>
		<filter id="filter_89_14105_dd" x="33.000000" y="458.000000" width="93.000000" height="93.638672" filterUnits="userSpaceOnUse" color-interpolation-filters="sRGB">
			<feFlood flood-opacity="0" result="BackgroundImageFix"/>
			<feColorMatrix in="SourceAlpha" type="matrix" values="0 0 0 0 0 0 0 0 0 0 0 0 0 0 0 0 0 0 127 0" result="hardAlpha"/>
			<feOffset dx="0" dy="4"/>
			<feGaussianBlur stdDeviation="1.33333"/>
			<feComposite in2="hardAlpha" operator="out" k2="-1" k3="1"/>
			<feColorMatrix type="matrix" values="0 0 0 0 0 0 0 0 0 0 0 0 0 0 0 0 0 0 0.25 0"/>
			<feBlend mode="normal" in2="BackgroundImageFix" result="effect_dropShadow_1"/>
			<feBlend mode="normal" in="SourceGraphic" in2="effect_dropShadow_1" result="shape"/>
		</filter>
		<linearGradient id="paint_linear_89_14106_0" x1="79.500000" y1="458.000000" x2="79.500000" y2="543.639099" gradientUnits="userSpaceOnUse">
			<stop stop-color="#516ACF"/>
			<stop offset="1.000000" stop-color="#9FB2FF"/>
		</linearGradient>
	</defs>
	<path id="Rectangle 30" d="M642 650L0 650L0 0L642 0C821.492 0 967 145.508 967 325C967 504.492 821.492 650 642 650Z" fill="#F1F4FF" fill-opacity="1.000000" fill-rule="evenodd"/>
	<path id="Більше 18 років успішного застосування в Україні1" d="M163.267 113.001L179.109 113.001L179.109 115.55L166.24 115.55L166.24 121.549L172.781 121.549Q176.531 121.549 178.479 123.109Q180.427 124.669 180.427 127.613Q180.427 130.697 178.311 132.352Q176.201 134 172.268 134L163.267 134L163.267 113.001ZM172.151 131.627Q174.729 131.627 176.077 130.638Q177.432 129.649 177.432 127.73Q177.432 123.922 172.151 123.922L166.24 123.922L166.24 131.627L172.151 131.627ZM185.197 113.001L188.17 113.001L188.17 134L185.197 134L185.197 113.001ZM211.597 113.001L211.597 134L208.66 134L208.66 115.609L199.358 115.609L199.153 121.761Q199 126.112 198.443 128.814Q197.894 131.51 196.692 132.879Q195.491 134.242 193.448 134.242Q192.518 134.242 191.558 134L191.771 131.327Q192.247 131.451 192.73 131.451Q194.019 131.451 194.795 130.418Q195.579 129.378 195.967 127.313Q196.363 125.24 196.48 121.849L196.81 113.001L211.597 113.001ZM227.35 120.318Q231.1 120.318 233.093 122.003Q235.092 123.68 235.092 126.947Q235.092 130.396 232.946 132.198Q230.8 134 226.808 134L218.137 134L218.137 113.001L221.11 113.001L221.11 120.318L227.35 120.318ZM226.691 131.627Q229.299 131.627 230.69 130.448Q232.089 129.261 232.089 127.013Q232.089 122.691 226.691 122.691L221.11 122.691L221.11 131.627L226.691 131.627ZM265.843 113.001L265.843 134L239.527 134L239.527 113.001L242.5 113.001L242.5 131.393L251.231 131.393L251.231 113.001L254.168 113.001L254.168 131.393L262.898 131.393L262.898 113.001L265.843 113.001ZM287.618 131.393L287.618 134L272.377 134L272.377 113.001L287.193 113.001L287.193 115.609L275.38 115.609L275.38 122.062L285.904 122.062L285.904 124.61L275.38 124.61L275.38 131.393L287.618 131.393ZM466.897 113.001L457.573 130.309Q456.46 132.381 454.958 133.399Q453.457 134.417 451.691 134.417Q450.307 134.417 448.872 133.788L449.648 131.393Q450.761 131.781 451.633 131.781Q453.61 131.781 454.899 129.679L455.383 128.932L446.923 113.001L450.131 113.001L456.943 126.317L463.93 113.001L466.897 113.001ZM479.166 134.242Q476.017 134.242 473.483 132.85Q470.948 131.451 469.506 129.005Q468.07 126.559 468.07 123.497Q468.07 120.443 469.506 117.997Q470.948 115.55 473.497 114.159Q476.046 112.76 479.196 112.76Q481.656 112.76 483.693 113.587Q485.736 114.408 487.179 116.034L485.231 117.923Q482.858 115.433 479.32 115.433Q476.976 115.433 475.087 116.48Q473.197 117.528 472.128 119.374Q471.066 121.219 471.066 123.497Q471.066 125.782 472.128 127.628Q473.197 129.474 475.087 130.521Q476.976 131.568 479.32 131.568Q482.828 131.568 485.231 129.049L487.179 130.938Q485.736 132.557 483.678 133.399Q481.627 134.242 479.166 134.242ZM509.407 113.001L509.407 134L506.47 134L506.47 115.609L494.29 115.609L494.29 134L491.317 134L491.317 113.001L509.407 113.001ZM515.947 113.001L518.92 113.001L518.92 134L515.947 134L515.947 113.001ZM551.773 113.001L551.773 134L525.457 134L525.457 113.001L528.43 113.001L528.43 131.393L537.161 131.393L537.161 113.001L540.098 113.001L540.098 131.393L548.828 131.393L548.828 113.001L551.773 113.001ZM576.368 113.001L576.368 134L573.365 134L573.365 124.64L561.31 124.64L561.31 134L558.307 134L558.307 113.001L561.31 113.001L561.31 122.032L573.365 122.032L573.365 113.001L576.368 113.001ZM592.355 134.242Q589.176 134.242 586.627 132.85Q584.078 131.451 582.621 128.99Q581.171 126.529 581.171 123.497Q581.171 120.472 582.621 118.011Q584.078 115.55 586.627 114.159Q589.176 112.76 592.355 112.76Q595.504 112.76 598.053 114.159Q600.609 115.55 602.045 117.997Q603.488 120.443 603.488 123.497Q603.488 126.559 602.045 129.005Q600.609 131.451 598.053 132.85Q595.504 134.242 592.355 134.242ZM592.355 131.568Q594.669 131.568 596.515 130.521Q598.361 129.474 599.423 127.628Q600.485 125.782 600.485 123.497Q600.485 121.219 599.423 119.374Q598.361 117.528 596.515 116.48Q594.669 115.433 592.355 115.433Q590.048 115.433 588.173 116.48Q586.298 117.528 585.228 119.374Q584.166 121.219 584.166 123.497Q584.166 125.782 585.228 127.628Q586.298 129.474 588.173 130.521Q590.048 131.568 592.355 131.568ZM622.087 115.609L611.291 115.609L611.32 134L608.347 134L608.347 113.001L622.124 113.001L622.087 115.609ZM632.495 134.242Q629.316 134.242 626.767 132.85Q624.219 131.451 622.761 128.99Q621.311 126.529 621.311 123.497Q621.311 120.472 622.761 118.011Q624.219 115.55 626.767 114.159Q629.316 112.76 632.495 112.76Q635.644 112.76 638.193 114.159Q640.749 115.55 642.185 117.997Q643.628 120.443 643.628 123.497Q643.628 126.559 642.185 129.005Q640.749 131.451 638.193 132.85Q635.644 134.242 632.495 134.242ZM632.495 131.568Q634.809 131.568 636.655 130.521Q638.501 129.474 639.563 127.628Q640.625 125.782 640.625 123.497Q640.625 121.219 639.563 119.374Q638.501 117.528 636.655 116.48Q634.809 115.433 632.495 115.433Q630.188 115.433 628.313 116.48Q626.438 117.528 625.368 119.374Q624.306 121.219 624.306 123.497Q624.306 125.782 625.368 127.628Q626.438 129.474 628.313 130.521Q630.188 131.568 632.495 131.568ZM173.323 165.05Q175.3 165.592 176.406 166.925Q177.52 168.258 177.52 170.119Q177.52 171.979 176.333 173.378Q175.146 174.77 173.184 175.509Q171.221 176.242 168.914 176.242Q166.812 176.242 164.739 175.612Q162.673 174.982 160.959 173.722L162.007 171.503Q163.391 172.58 165.098 173.122Q166.812 173.664 168.547 173.664Q171.067 173.664 172.773 172.602Q174.487 171.532 174.487 169.672Q174.487 168.083 173.198 167.226Q171.909 166.369 169.573 166.369L164.893 166.369L164.893 163.937L169.36 163.937Q171.367 163.937 172.495 163.117Q173.623 162.289 173.623 160.817Q173.623 159.169 172.151 158.209Q170.679 157.25 168.43 157.25Q166.958 157.25 165.442 157.675Q163.933 158.092 162.578 158.927L161.619 156.474Q163.208 155.573 164.98 155.126Q166.753 154.672 168.518 154.672Q170.737 154.672 172.598 155.36Q174.458 156.049 175.549 157.375Q176.648 158.693 176.648 160.458Q176.648 162.047 175.762 163.249Q174.883 164.45 173.323 165.05ZM196.179 170.749L185.017 170.749L182.71 176L179.619 176L189.126 155.001L192.099 155.001L201.635 176L198.486 176L196.179 170.749ZM195.132 168.354L190.598 158.063L186.072 168.354L195.132 168.354ZM214.356 176.242Q211.207 176.242 208.673 174.85Q206.138 173.451 204.696 171.005Q203.26 168.559 203.26 165.497Q203.26 162.443 204.696 159.997Q206.138 157.55 208.687 156.159Q211.236 154.76 214.386 154.76Q216.846 154.76 218.883 155.587Q220.926 156.408 222.369 158.034L220.421 159.923Q218.048 157.433 214.51 157.433Q212.166 157.433 210.277 158.48Q208.387 159.528 207.318 161.374Q206.256 163.219 206.256 165.497Q206.256 167.782 207.318 169.628Q208.387 171.474 210.277 172.521Q212.166 173.568 214.51 173.568Q218.018 173.568 220.421 171.049L222.369 172.938Q220.926 174.557 218.868 175.399Q216.817 176.242 214.356 176.242ZM240.703 157.609L233.503 157.609L233.503 176L230.559 176L230.559 157.609L223.388 157.609L223.388 155.001L240.703 155.001L240.703 157.609ZM253.505 176.242Q250.326 176.242 247.777 174.85Q245.228 173.451 243.771 170.99Q242.321 168.529 242.321 165.497Q242.321 162.472 243.771 160.011Q245.228 157.55 247.777 156.159Q250.326 154.76 253.505 154.76Q256.654 154.76 259.203 156.159Q261.759 157.55 263.195 159.997Q264.638 162.443 264.638 165.497Q264.638 168.559 263.195 171.005Q261.759 173.451 259.203 174.85Q256.654 176.242 253.505 176.242ZM253.505 173.568Q255.819 173.568 257.665 172.521Q259.511 171.474 260.573 169.628Q261.635 167.782 261.635 165.497Q261.635 163.219 260.573 161.374Q259.511 159.528 257.665 158.48Q255.819 157.433 253.505 157.433Q251.198 157.433 249.323 158.48Q247.448 159.528 246.378 161.374Q245.316 163.219 245.316 165.497Q245.316 167.782 246.378 169.628Q247.448 171.474 249.323 172.521Q251.198 173.568 253.505 173.568ZM278.886 176.242Q275.737 176.242 273.203 174.85Q270.668 173.451 269.226 171.005Q267.79 168.559 267.79 165.497Q267.79 162.443 269.226 159.997Q270.668 157.55 273.217 156.159Q275.766 154.76 278.916 154.76Q281.376 154.76 283.413 155.587Q285.456 156.408 286.899 158.034L284.951 159.923Q282.578 157.433 279.04 157.433Q276.696 157.433 274.807 158.48Q272.917 159.528 271.848 161.374Q270.786 163.219 270.786 165.497Q270.786 167.782 271.848 169.628Q272.917 171.474 274.807 172.521Q276.696 173.568 279.04 173.568Q282.548 173.568 284.951 171.049L286.899 172.938Q285.456 174.557 283.398 175.399Q281.347 176.242 278.886 176.242ZM307.717 155.001L298.393 172.309Q297.28 174.381 295.778 175.399Q294.277 176.417 292.511 176.417Q291.127 176.417 289.692 175.788L290.468 173.393Q291.581 173.781 292.453 173.781Q294.43 173.781 295.719 171.679L296.203 170.932L287.743 155.001L290.951 155.001L297.763 168.317L304.75 155.001L307.717 155.001ZM323.888 165.109Q326.019 165.622 327.11 166.925Q328.209 168.229 328.209 170.272Q328.209 172.997 326.209 174.499Q324.217 176 320.409 176L310.807 176L310.807 155.001L319.837 155.001Q323.287 155.001 325.221 156.4Q327.162 157.792 327.162 160.399Q327.162 162.113 326.305 163.314Q325.448 164.508 323.888 165.109ZM313.78 164.237L319.632 164.237Q321.822 164.237 322.972 163.373Q324.129 162.501 324.129 160.817Q324.129 159.14 322.957 158.253Q321.793 157.367 319.632 157.367L313.78 157.367L313.78 164.237ZM320.35 173.627Q325.177 173.627 325.177 170.031Q325.177 168.229 323.961 167.379Q322.752 166.522 320.35 166.522L313.78 166.522L313.78 173.627L320.35 173.627ZM346.869 170.749L335.707 170.749L333.4 176L330.309 176L339.816 155.001L342.789 155.001L352.326 176L349.176 176L346.869 170.749ZM345.822 168.354L341.288 158.063L336.762 168.354L345.822 168.354ZM374.018 155.001L374.018 176L371.015 176L371.015 166.64L358.96 166.64L358.96 176L355.957 176L355.957 155.001L358.96 155.001L358.96 164.032L371.015 164.032L371.015 155.001L374.018 155.001ZM398.618 155.001L398.618 176L395.615 176L395.615 166.64L383.56 166.64L383.56 176L380.557 176L380.557 155.001L383.56 155.001L383.56 164.032L395.615 164.032L395.615 155.001L398.618 155.001ZM420.552 155.001L420.552 176L417.608 176L417.608 169.877L411.822 169.877Q411.28 169.877 411.009 169.848L406.812 176L403.633 176L408.277 169.342Q406.028 168.588 404.827 166.837Q403.633 165.08 403.633 162.56Q403.633 158.993 405.926 157.001Q408.218 155.001 412.122 155.001L420.552 155.001ZM406.658 162.531Q406.658 164.867 408.02 166.112Q409.39 167.357 412.063 167.357L417.608 167.357L417.608 157.609L412.239 157.609Q409.536 157.609 408.094 158.869Q406.658 160.128 406.658 162.531ZM448.238 165.109Q450.369 165.622 451.46 166.925Q452.559 168.229 452.559 170.272Q452.559 172.997 450.559 174.499Q448.567 176 444.759 176L435.157 176L435.157 155.001L444.187 155.001Q447.637 155.001 449.571 156.4Q451.512 157.792 451.512 160.399Q451.512 162.113 450.655 163.314Q449.798 164.508 448.238 165.109ZM438.13 164.237L443.982 164.237Q446.172 164.237 447.322 163.373Q448.479 162.501 448.479 160.817Q448.479 159.14 447.307 158.253Q446.143 157.367 443.982 157.367L438.13 157.367L438.13 164.237ZM444.7 173.627Q449.527 173.627 449.527 170.031Q449.527 168.229 448.311 167.379Q447.102 166.522 444.7 166.522L438.13 166.522L438.13 173.627L444.7 173.627ZM482.827 155.001L473.503 172.309Q472.39 174.381 470.888 175.399Q469.387 176.417 467.621 176.417Q466.237 176.417 464.802 175.788L465.578 173.393Q466.691 173.781 467.563 173.781Q469.54 173.781 470.829 171.679L471.313 170.932L462.853 155.001L466.061 155.001L472.873 168.317L479.86 155.001L482.827 155.001ZM493.241 166.757L488.861 166.757L488.861 176L485.917 176L485.917 155.001L488.861 155.001L488.861 164.12L493.299 164.12L499.899 155.001L503.107 155.001L495.607 165.167L503.473 176L500.052 176L493.241 166.757ZM514.745 155.001Q518.825 155.001 521.161 156.95Q523.505 158.898 523.505 162.318Q523.505 165.739 521.161 167.694Q518.825 169.643 514.745 169.643L509.56 169.643L509.56 176L506.557 176L506.557 155.001L514.745 155.001ZM514.657 167.028Q517.506 167.028 519.008 165.819Q520.509 164.604 520.509 162.318Q520.509 160.041 519.008 158.825Q517.506 157.609 514.657 157.609L509.56 157.609L509.56 167.028L514.657 167.028ZM540.279 170.749L529.117 170.749L526.81 176L523.719 176L533.226 155.001L536.199 155.001L545.736 176L542.586 176L540.279 170.749ZM539.232 168.354L534.698 158.063L530.172 168.354L539.232 168.354ZM549.249 155.001L552.252 155.001L552.252 176L549.249 176L549.249 155.001ZM547.96 152.782Q547.331 152.782 546.876 152.35Q546.43 151.911 546.43 151.251Q546.43 150.592 546.876 150.146Q547.331 149.691 547.96 149.691Q548.59 149.691 549.037 150.146Q549.491 150.592 549.491 151.251Q549.491 151.911 549.037 152.35Q548.59 152.782 547.96 152.782ZM553.541 152.782Q552.912 152.782 552.457 152.35Q552.011 151.911 552.011 151.251Q552.011 150.592 552.457 150.146Q552.912 149.691 553.541 149.691Q554.171 149.691 554.618 150.146Q555.072 150.592 555.072 151.251Q555.072 151.911 554.618 152.35Q554.171 152.782 553.541 152.782ZM576.728 155.001L576.728 176L573.725 176L573.725 166.64L561.67 166.64L561.67 176L558.667 176L558.667 155.001L561.67 155.001L561.67 164.032L573.725 164.032L573.725 155.001L576.728 155.001ZM583.267 155.001L586.24 155.001L586.24 176L583.267 176L583.267 155.001ZM600.848 163.703L600.848 166.193L591.7 166.193L591.7 163.703L594.791 163.703L594.791 156.232L591.971 156.232L591.971 153.742L598.153 153.742L598.153 163.703L600.848 163.703Z" fill="#000000" fill-opacity="1.000000" fill-rule="evenodd"/>
	<path id="Більше 18 років успішного застосування в Україні1" d="M306.402 113.001L306.402 134L301.539 134L301.539 116.898L297.342 116.898L297.342 113.001L306.402 113.001ZM324.432 122.962Q325.992 123.739 326.812 124.999Q327.64 126.258 327.64 127.914Q327.64 129.862 326.527 131.319Q325.421 132.77 323.407 133.568Q321.4 134.359 318.763 134.359Q316.119 134.359 314.12 133.568Q312.127 132.77 311.029 131.319Q309.937 129.862 309.937 127.914Q309.937 126.258 310.765 124.999Q311.593 123.739 313.123 122.962Q311.952 122.237 311.322 121.146Q310.692 120.047 310.692 118.641Q310.692 116.81 311.71 115.462Q312.728 114.107 314.559 113.375Q316.39 112.643 318.763 112.643Q321.158 112.643 323.004 113.375Q324.849 114.107 325.868 115.462Q326.893 116.81 326.893 118.641Q326.893 120.047 326.263 121.146Q325.633 122.237 324.432 122.962ZM318.763 116.209Q317.291 116.209 316.405 116.92Q315.518 117.623 315.518 118.854Q315.518 120.047 316.39 120.743Q317.262 121.432 318.763 121.432Q320.257 121.432 321.158 120.743Q322.059 120.047 322.059 118.854Q322.059 117.623 321.158 116.92Q320.257 116.209 318.763 116.209ZM318.763 130.792Q320.587 130.792 321.649 129.964Q322.718 129.137 322.718 127.76Q322.718 126.383 321.649 125.57Q320.587 124.757 318.763 124.757Q316.961 124.757 315.907 125.57Q314.859 126.383 314.859 127.76Q314.859 129.173 315.907 129.986Q316.961 130.792 318.763 130.792ZM348.877 113.001Q351.667 113.001 353.718 113.932Q355.776 114.862 356.882 116.576Q357.995 118.282 357.995 120.619Q357.995 122.933 356.882 124.662Q355.776 126.383 353.718 127.298Q351.667 128.207 348.877 128.207L344.651 128.207L344.651 134L339.787 134L339.787 113.001L348.877 113.001ZM348.606 124.251Q350.796 124.251 351.931 123.307Q353.074 122.362 353.074 120.619Q353.074 118.854 351.931 117.909Q350.796 116.957 348.606 116.957L344.651 116.957L344.651 124.251L348.606 124.251ZM371.534 134.359Q368.26 134.359 365.631 132.953Q363.009 131.539 361.522 129.063Q360.043 126.588 360.043 123.497Q360.043 120.414 361.522 117.938Q363.009 115.462 365.631 114.056Q368.26 112.643 371.534 112.643Q374.801 112.643 377.408 114.056Q380.023 115.462 381.517 117.938Q383.019 120.414 383.019 123.497Q383.019 126.588 381.517 129.063Q380.023 131.539 377.408 132.953Q374.801 134.359 371.534 134.359ZM371.534 130.221Q373.387 130.221 374.889 129.364Q376.39 128.507 377.247 126.983Q378.104 125.453 378.104 123.497Q378.104 121.549 377.247 120.018Q376.39 118.487 374.889 117.638Q373.387 116.781 371.534 116.781Q369.674 116.781 368.172 117.638Q366.671 118.487 365.814 120.018Q364.957 121.549 364.957 123.497Q364.957 125.453 365.814 126.983Q366.671 128.507 368.172 129.364Q369.674 130.221 371.534 130.221ZM394.897 125.541L391.543 125.541L391.543 134L386.709 134L386.709 113.001L391.543 113.001L391.543 121.49L395.022 121.49L400.537 113.001L405.671 113.001L398.801 123.138L405.876 134L400.361 134L394.897 125.541ZM408.157 113.001L412.991 113.001L412.991 134L408.157 134L408.157 113.001ZM432.761 123.05Q434.68 123.622 435.698 124.911Q436.723 126.2 436.723 128.089Q436.723 130.88 434.606 132.44Q432.49 134 428.557 134L418.207 134L418.207 113.001L427.993 113.001Q431.647 113.001 433.684 114.415Q435.727 115.821 435.727 118.429Q435.727 119.989 434.943 121.175Q434.167 122.362 432.761 123.05ZM423.041 121.703L427.568 121.703Q429.157 121.703 429.97 121.058Q430.783 120.414 430.783 119.146Q430.783 117.923 429.955 117.264Q429.128 116.598 427.568 116.598L423.041 116.598L423.041 121.703ZM428.381 130.396Q431.801 130.396 431.801 127.701Q431.801 125.086 428.381 125.086L423.041 125.086L423.041 130.396L428.381 130.396Z" fill="#516ACF" fill-opacity="1.000000" fill-rule="evenodd"/>
	<path id="Досліджений в понад 60 наукових центрах3" d="M183.276 487.393L183.276 494.592L180.493 494.592L180.493 490L163.208 490L163.179 494.592L160.388 494.592L160.417 487.393L161.443 487.393Q163.42 487.268 164.226 484.258Q165.039 481.24 165.222 475.747L165.427 469.001L180.193 469.001L180.193 487.393L183.276 487.393ZM167.859 476.018Q167.712 480.457 167.156 483.372Q166.599 486.279 165.369 487.393L177.219 487.393L177.219 471.609L168.013 471.609L167.859 476.018ZM196.835 490.242Q193.656 490.242 191.107 488.85Q188.558 487.451 187.101 484.99Q185.651 482.529 185.651 479.497Q185.651 476.472 187.101 474.011Q188.558 471.55 191.107 470.159Q193.656 468.76 196.835 468.76Q199.984 468.76 202.533 470.159Q205.089 471.55 206.525 473.997Q207.968 476.443 207.968 479.497Q207.968 482.559 206.525 485.005Q205.089 487.451 202.533 488.85Q199.984 490.242 196.835 490.242ZM196.835 487.568Q199.149 487.568 200.995 486.521Q202.841 485.474 203.903 483.628Q204.965 481.782 204.965 479.497Q204.965 477.219 203.903 475.374Q202.841 473.528 200.995 472.48Q199.149 471.433 196.835 471.433Q194.528 471.433 192.653 472.48Q190.778 473.528 189.708 475.374Q188.646 477.219 188.646 479.497Q188.646 481.782 189.708 483.628Q190.778 485.474 192.653 486.521Q194.528 487.568 196.835 487.568ZM222.216 490.242Q219.067 490.242 216.533 488.85Q213.998 487.451 212.556 485.005Q211.12 482.559 211.12 479.497Q211.12 476.443 212.556 473.997Q213.998 471.55 216.547 470.159Q219.096 468.76 222.246 468.76Q224.706 468.76 226.743 469.587Q228.786 470.408 230.229 472.034L228.281 473.923Q225.908 471.433 222.37 471.433Q220.026 471.433 218.137 472.48Q216.247 473.528 215.178 475.374Q214.116 477.219 214.116 479.497Q214.116 481.782 215.178 483.628Q216.247 485.474 218.137 486.521Q220.026 487.568 222.37 487.568Q225.878 487.568 228.281 485.049L230.229 486.938Q228.786 488.557 226.728 489.399Q224.677 490.242 222.216 490.242ZM250.987 469.001L250.987 490L248.05 490L248.05 471.609L238.748 471.609L238.543 477.761Q238.39 482.112 237.833 484.814Q237.284 487.51 236.082 488.879Q234.881 490.242 232.838 490.242Q231.908 490.242 230.948 490L231.161 487.327Q231.637 487.451 232.12 487.451Q233.409 487.451 234.185 486.418Q234.969 485.378 235.357 483.313Q235.753 481.24 235.87 477.849L236.2 469.001L250.987 469.001ZM257.527 469.001L260.5 469.001L260.5 490L257.527 490L257.527 469.001ZM286.776 487.393L286.776 494.592L283.993 494.592L283.993 490L266.708 490L266.679 494.592L263.888 494.592L263.917 487.393L264.943 487.393Q266.92 487.268 267.726 484.258Q268.539 481.24 268.722 475.747L268.927 469.001L283.693 469.001L283.693 487.393L286.776 487.393ZM271.359 476.018Q271.212 480.457 270.656 483.372Q270.099 486.279 268.869 487.393L280.719 487.393L280.719 471.609L271.513 471.609L271.359 476.018ZM308.531 480.757L304.539 480.757L304.539 490L301.602 490L301.602 480.757L297.581 480.757L291.7 490L288.191 490L295.12 479.08L288.697 469.001L291.912 469.001L297.522 478.12L301.602 478.12L301.602 469.001L304.539 469.001L304.539 478.12L308.56 478.12L314.2 469.001L317.408 469.001L310.992 479.138L317.92 490L314.412 490L308.531 480.757ZM336.308 487.393L336.308 490L321.067 490L321.067 469.001L335.883 469.001L335.883 471.609L324.07 471.609L324.07 478.062L334.594 478.062L334.594 480.61L324.07 480.61L324.07 487.393L336.308 487.393ZM359.078 469.001L359.078 490L356.075 490L356.075 480.64L344.02 480.64L344.02 490L341.017 490L341.017 469.001L344.02 469.001L344.02 478.032L356.075 478.032L356.075 469.001L359.078 469.001ZM365.617 469.001L368.59 469.001L368.59 485.203L381.012 469.001L383.773 469.001L383.773 490L380.829 490L380.829 473.828L368.378 490L365.617 490L365.617 469.001ZM390.307 469.001L393.28 469.001L393.28 485.203L405.702 469.001L408.463 469.001L408.463 490L405.519 490L405.519 473.828L393.068 490L390.307 490L390.307 469.001ZM399.337 467.529Q396.884 467.529 395.543 466.467Q394.21 465.398 394.181 463.42L396.312 463.42Q396.342 464.592 397.133 465.237Q397.931 465.881 399.337 465.881Q400.692 465.881 401.513 465.237Q402.34 464.592 402.37 463.42L404.472 463.42Q404.442 465.369 403.102 466.453Q401.769 467.529 399.337 467.529ZM436.148 479.109Q438.279 479.622 439.37 480.925Q440.469 482.229 440.469 484.272Q440.469 486.997 438.469 488.499Q436.477 490 432.669 490L423.067 490L423.067 469.001L432.097 469.001Q435.547 469.001 437.481 470.4Q439.422 471.792 439.422 474.399Q439.422 476.113 438.565 477.314Q437.708 478.508 436.148 479.109ZM426.04 478.237L431.892 478.237Q434.082 478.237 435.232 477.373Q436.389 476.501 436.389 474.817Q436.389 473.14 435.217 472.253Q434.053 471.367 431.892 471.367L426.04 471.367L426.04 478.237ZM432.61 487.627Q437.437 487.627 437.437 484.031Q437.437 482.229 436.221 481.379Q435.012 480.522 432.61 480.522L426.04 480.522L426.04 487.627L432.61 487.627ZM471.637 469.001L471.637 490L468.7 490L468.7 471.609L456.52 471.609L456.52 490L453.547 490L453.547 469.001L471.637 469.001ZM487.625 490.242Q484.446 490.242 481.897 488.85Q479.348 487.451 477.891 484.99Q476.441 482.529 476.441 479.497Q476.441 476.472 477.891 474.011Q479.348 471.55 481.897 470.159Q484.446 468.76 487.625 468.76Q490.774 468.76 493.323 470.159Q495.879 471.55 497.315 473.997Q498.758 476.443 498.758 479.497Q498.758 482.559 497.315 485.005Q495.879 487.451 493.323 488.85Q490.774 490.242 487.625 490.242ZM487.625 487.568Q489.939 487.568 491.785 486.521Q493.631 485.474 494.693 483.628Q495.755 481.782 495.755 479.497Q495.755 477.219 494.693 475.374Q493.631 473.528 491.785 472.48Q489.939 471.433 487.625 471.433Q485.318 471.433 483.443 472.48Q481.568 473.528 480.498 475.374Q479.436 477.219 479.436 479.497Q479.436 481.782 480.498 483.628Q481.568 485.474 483.443 486.521Q485.318 487.568 487.625 487.568ZM521.678 469.001L521.678 490L518.675 490L518.675 480.64L506.62 480.64L506.62 490L503.617 490L503.617 469.001L506.62 469.001L506.62 478.032L518.675 478.032L518.675 469.001L521.678 469.001ZM541.869 484.749L530.707 484.749L528.4 490L525.309 490L534.816 469.001L537.789 469.001L547.326 490L544.176 490L541.869 484.749ZM540.822 482.354L536.288 472.063L531.762 482.354L540.822 482.354ZM571.056 487.393L571.056 494.592L568.273 494.592L568.273 490L550.988 490L550.959 494.592L548.168 494.592L548.198 487.393L549.223 487.393Q551.2 487.268 552.006 484.258Q552.819 481.24 553.002 475.747L553.207 469.001L567.973 469.001L567.973 487.393L571.056 487.393ZM555.639 476.018Q555.492 480.457 554.936 483.372Q554.379 486.279 553.149 487.393L564.999 487.393L564.999 471.609L555.793 471.609L555.639 476.018ZM562.479 514.722Q564.28 514.993 565.24 515.953Q566.199 516.912 566.199 518.355Q566.199 519.432 565.555 520.362Q564.91 521.292 563.592 521.863Q562.273 522.435 560.347 522.435Q558.729 522.435 557.212 522.046Q555.704 521.651 554.832 521.021L556.033 518.626Q556.868 519.19 558.011 519.505Q559.153 519.82 560.289 519.82Q561.578 519.82 562.222 519.432Q562.867 519.043 562.867 518.355Q562.867 516.941 560.501 516.941L558.729 516.941L558.729 514.905L561.46 512.232L555.367 512.232L555.367 509.742L565.511 509.742L565.511 511.756L562.479 514.722Z" fill="#000000" fill-opacity="1.000000" fill-rule="evenodd"/>
	<path id="Досліджений в понад 60 наукових центрах3" d="M171.279 518.831Q173.293 518.831 174.941 519.644Q176.589 520.45 177.549 521.937Q178.508 523.423 178.508 525.372Q178.508 527.474 177.461 529.063Q176.414 530.652 174.597 531.509Q172.781 532.359 170.562 532.359Q166.152 532.359 163.662 529.664Q161.172 526.961 161.172 521.951Q161.172 518.377 162.52 515.828Q163.867 513.279 166.284 511.961Q168.701 510.643 171.88 510.643Q173.557 510.643 175.103 511.016Q176.648 511.39 177.732 512.078L175.93 515.652Q174.37 514.598 171.997 514.598Q169.331 514.598 167.771 516.158Q166.211 517.718 166.086 520.691Q167.947 518.831 171.279 518.831ZM170.291 528.733Q171.851 528.733 172.825 527.891Q173.799 527.049 173.799 525.613Q173.799 524.17 172.825 523.313Q171.851 522.457 170.232 522.457Q168.643 522.457 167.617 523.343Q166.599 524.229 166.599 525.613Q166.599 526.99 167.588 527.862Q168.577 528.733 170.291 528.733ZM189.283 532.359Q186.669 532.359 184.625 531.07Q182.589 529.781 181.432 527.334Q180.282 524.888 180.282 521.497Q180.282 518.113 181.432 515.667Q182.589 513.221 184.625 511.932Q186.669 510.643 189.283 510.643Q191.891 510.643 193.927 511.932Q195.97 513.221 197.12 515.667Q198.277 518.113 198.277 521.497Q198.277 524.888 197.12 527.334Q195.97 529.781 193.927 531.07Q191.891 532.359 189.283 532.359ZM189.283 528.25Q191.202 528.25 192.294 526.602Q193.392 524.947 193.392 521.497Q193.392 518.047 192.294 516.399Q191.202 514.751 189.283 514.751Q187.386 514.751 186.288 516.399Q185.196 518.047 185.196 521.497Q185.196 524.947 186.288 526.602Q187.386 528.25 189.283 528.25ZM229.84 511.001L229.84 532L224.977 532L224.977 523.387L215.441 523.387L215.441 532L210.577 532L210.577 511.001L215.441 511.001L215.441 519.278L224.977 519.278L224.977 511.001L229.84 511.001ZM249.311 527.503L239.563 527.503L237.702 532L232.722 532L242.082 511.001L246.879 511.001L256.269 532L251.171 532L249.311 527.503ZM247.78 523.812L244.455 515.77L241.123 523.812L247.78 523.812ZM276.94 511.001L267.997 527.62Q266.708 530.022 264.891 531.253Q263.082 532.483 260.951 532.483Q259.303 532.483 257.531 531.758L258.703 528.067Q259.962 528.462 260.797 528.462Q261.698 528.462 262.416 528.03Q263.141 527.591 263.742 526.661L263.917 526.419L255.641 511.001L260.827 511.001L266.408 522.281L272.172 511.001L276.94 511.001ZM287.377 523.541L284.023 523.541L284.023 532L279.189 532L279.189 511.001L284.023 511.001L284.023 519.49L287.502 519.49L293.017 511.001L298.151 511.001L291.281 521.138L298.356 532L292.841 532L287.377 523.541ZM310.574 532.359Q307.3 532.359 304.671 530.953Q302.049 529.539 300.562 527.063Q299.083 524.588 299.083 521.497Q299.083 518.414 300.562 515.938Q302.049 513.462 304.671 512.056Q307.3 510.643 310.574 510.643Q313.841 510.643 316.448 512.056Q319.063 513.462 320.557 515.938Q322.059 518.414 322.059 521.497Q322.059 524.588 320.557 527.063Q319.063 529.539 316.448 530.953Q313.841 532.359 310.574 532.359ZM310.574 528.221Q312.427 528.221 313.929 527.364Q315.43 526.507 316.287 524.983Q317.144 523.453 317.144 521.497Q317.144 519.549 316.287 518.018Q315.43 516.487 313.929 515.638Q312.427 514.781 310.574 514.781Q308.714 514.781 307.212 515.638Q305.711 516.487 304.854 518.018Q303.997 519.549 303.997 521.497Q303.997 523.453 304.854 524.983Q305.711 526.507 307.212 527.364Q308.714 528.221 310.574 528.221ZM340.361 521.05Q342.28 521.622 343.298 522.911Q344.323 524.2 344.323 526.089Q344.323 528.88 342.206 530.44Q340.09 532 336.157 532L325.807 532L325.807 511.001L335.593 511.001Q339.247 511.001 341.284 512.415Q343.327 513.821 343.327 516.429Q343.327 517.989 342.543 519.175Q341.767 520.362 340.361 521.05ZM330.641 519.703L335.168 519.703Q336.757 519.703 337.57 519.058Q338.383 518.414 338.383 517.146Q338.383 515.923 337.555 515.264Q336.728 514.598 335.168 514.598L330.641 514.598L330.641 519.703ZM335.981 528.396Q339.401 528.396 339.401 525.701Q339.401 523.086 335.981 523.086L330.641 523.086L330.641 528.396L335.981 528.396ZM348.157 511.001L352.991 511.001L352.991 524.683L363.011 511.001L367.567 511.001L367.567 532L362.769 532L362.769 518.348L352.75 532L348.157 532L348.157 511.001ZM376.567 511.001L380.917 517.359L385.268 511.001L390.973 511.001L383.979 521.05L391.537 532L385.81 532L380.917 525.042L376.091 532L370.48 532L377.98 521.263L370.956 511.001L376.567 511.001ZM424.961 528.038L424.961 536.438L420.494 536.438L420.494 532L402.937 532L402.937 511.001L407.771 511.001L407.771 528.038L417.132 528.038L417.132 511.001L421.958 511.001L421.958 528.038L424.961 528.038ZM444.427 528.104L444.427 532L428.167 532L428.167 511.001L444.039 511.001L444.039 514.898L432.994 514.898L432.994 519.461L442.75 519.461L442.75 523.24L432.994 523.24L432.994 528.104L444.427 528.104ZM467.62 511.001L467.62 532L462.757 532L462.757 523.387L453.221 523.387L453.221 532L448.357 532L448.357 511.001L453.221 511.001L453.221 519.278L462.757 519.278L462.757 511.001L467.62 511.001ZM488.922 514.957L482.199 514.957L482.199 532L477.401 532L477.401 514.957L470.707 514.957L470.707 511.001L488.922 511.001L488.922 514.957ZM501.067 511.001Q503.857 511.001 505.908 511.932Q507.966 512.862 509.072 514.576Q510.185 516.282 510.185 518.619Q510.185 520.933 509.072 522.662Q507.966 524.383 505.908 525.298Q503.857 526.207 501.067 526.207L496.841 526.207L496.841 532L491.977 532L491.977 511.001L501.067 511.001ZM500.796 522.251Q502.986 522.251 504.121 521.307Q505.264 520.362 505.264 518.619Q505.264 516.854 504.121 515.909Q502.986 514.957 500.796 514.957L496.841 514.957L496.841 522.251L500.796 522.251ZM526.571 527.503L516.823 527.503L514.962 532L509.982 532L519.342 511.001L524.139 511.001L533.529 532L528.431 532L526.571 527.503ZM525.04 523.812L521.715 515.77L518.383 523.812L525.04 523.812ZM539.017 511.001L543.367 517.359L547.718 511.001L553.423 511.001L546.429 521.05L553.987 532L548.26 532L543.367 525.042L538.541 532L532.93 532L540.43 521.263L533.406 511.001L539.017 511.001Z" fill="#516ACF" fill-opacity="1.000000" fill-rule="evenodd"/>
	<path id="ЗНИЖУЄ РИЗИК ЗАХВОРЮВАННЯ ГРВІ ТА ГРИПУ в 2 рази2" d="M173.323 301.05Q175.3 301.592 176.406 302.925Q177.52 304.258 177.52 306.119Q177.52 307.979 176.333 309.378Q175.146 310.77 173.184 311.509Q171.221 312.242 168.914 312.242Q166.812 312.242 164.739 311.612Q162.673 310.982 160.959 309.722L162.007 307.503Q163.391 308.58 165.098 309.122Q166.812 309.664 168.547 309.664Q171.067 309.664 172.773 308.602Q174.487 307.532 174.487 305.672Q174.487 304.083 173.198 303.226Q171.909 302.369 169.573 302.369L164.893 302.369L164.893 299.937L169.36 299.937Q171.367 299.937 172.495 299.117Q173.623 298.289 173.623 296.817Q173.623 295.169 172.151 294.209Q170.679 293.25 168.43 293.25Q166.958 293.25 165.442 293.675Q163.933 294.092 162.578 294.927L161.619 292.474Q163.208 291.573 164.98 291.126Q166.753 290.672 168.518 290.672Q170.737 290.672 172.598 291.36Q174.458 292.049 175.549 293.375Q176.648 294.693 176.648 296.458Q176.648 298.047 175.762 299.249Q174.883 300.45 173.323 301.05ZM200.588 291.001L200.588 312L197.585 312L197.585 302.64L185.53 302.64L185.53 312L182.527 312L182.527 291.001L185.53 291.001L185.53 300.032L197.585 300.032L197.585 291.001L200.588 291.001ZM207.127 291.001L210.1 291.001L210.1 307.203L222.522 291.001L225.283 291.001L225.283 312L222.339 312L222.339 295.828L209.888 312L207.127 312L207.127 291.001ZM249.461 302.757L245.469 302.757L245.469 312L242.532 312L242.532 302.757L238.511 302.757L232.63 312L229.121 312L236.05 301.08L229.627 291.001L232.842 291.001L238.452 300.12L242.532 300.12L242.532 291.001L245.469 291.001L245.469 300.12L249.49 300.12L255.13 291.001L258.338 291.001L251.922 301.138L258.85 312L255.342 312L249.461 302.757ZM279.307 291.001L269.983 308.309Q268.87 310.381 267.368 311.399Q265.867 312.417 264.101 312.417Q262.717 312.417 261.282 311.788L262.058 309.393Q263.171 309.781 264.043 309.781Q266.02 309.781 267.309 307.679L267.793 306.932L259.333 291.001L262.541 291.001L269.353 304.317L276.34 291.001L279.307 291.001ZM291.071 312.242Q288.068 312.242 285.666 310.85Q283.271 309.451 281.886 307.005Q280.509 304.559 280.509 301.504Q280.509 298.443 281.886 295.997Q283.271 293.55 285.666 292.159Q288.068 290.76 291.071 290.76Q293.649 290.76 295.751 291.602Q297.853 292.444 299.259 294.063L297.37 295.953Q295.004 293.462 291.217 293.462Q289.211 293.462 287.555 294.349Q285.907 295.235 284.86 296.824Q283.813 298.414 283.6 300.45L293.774 300.45L293.774 302.911L283.629 302.911Q283.93 304.859 284.977 306.36Q286.032 307.862 287.65 308.704Q289.269 309.539 291.217 309.539Q294.967 309.539 297.37 307.049L299.259 308.938Q297.853 310.564 295.736 311.407Q293.62 312.242 291.071 312.242ZM319.685 291.001Q323.765 291.001 326.101 292.95Q328.445 294.898 328.445 298.318Q328.445 301.739 326.101 303.694Q323.765 305.643 319.685 305.643L314.5 305.643L314.5 312L311.497 312L311.497 291.001L319.685 291.001ZM319.597 303.028Q322.446 303.028 323.948 301.819Q325.449 300.604 325.449 298.318Q325.449 296.041 323.948 294.825Q322.446 293.609 319.597 293.609L314.5 293.609L314.5 303.028L319.597 303.028ZM332.617 291.001L335.59 291.001L335.59 307.203L348.012 291.001L350.773 291.001L350.773 312L347.829 312L347.829 295.828L335.378 312L332.617 312L332.617 291.001ZM367.363 301.05Q369.34 301.592 370.446 302.925Q371.56 304.258 371.56 306.119Q371.56 307.979 370.373 309.378Q369.186 310.77 367.224 311.509Q365.261 312.242 362.954 312.242Q360.852 312.242 358.779 311.612Q356.713 310.982 354.999 309.722L356.047 307.503Q357.431 308.58 359.138 309.122Q360.852 309.664 362.587 309.664Q365.107 309.664 366.813 308.602Q368.527 307.532 368.527 305.672Q368.527 304.083 367.238 303.226Q365.949 302.369 363.613 302.369L358.933 302.369L358.933 299.937L363.4 299.937Q365.407 299.937 366.535 299.117Q367.663 298.289 367.663 296.817Q367.663 295.169 366.191 294.209Q364.719 293.25 362.47 293.25Q360.998 293.25 359.482 293.675Q357.973 294.092 356.618 294.927L355.659 292.474Q357.248 291.573 359.02 291.126Q360.793 290.672 362.558 290.672Q364.777 290.672 366.638 291.36Q368.498 292.049 369.589 293.375Q370.688 294.693 370.688 296.458Q370.688 298.047 369.802 299.249Q368.923 300.45 367.363 301.05ZM376.567 291.001L379.54 291.001L379.54 307.203L391.962 291.001L394.723 291.001L394.723 312L391.779 312L391.779 295.828L379.328 312L376.567 312L376.567 291.001ZM408.581 302.757L404.201 302.757L404.201 312L401.257 312L401.257 291.001L404.201 291.001L404.201 300.12L408.639 300.12L415.239 291.001L418.447 291.001L410.947 301.167L418.813 312L415.392 312L408.581 302.757ZM440.713 301.05Q442.69 301.592 443.796 302.925Q444.91 304.258 444.91 306.119Q444.91 307.979 443.723 309.378Q442.536 310.77 440.574 311.509Q438.611 312.242 436.304 312.242Q434.202 312.242 432.129 311.612Q430.063 310.982 428.349 309.722L429.397 307.503Q430.781 308.58 432.488 309.122Q434.202 309.664 435.937 309.664Q438.457 309.664 440.163 308.602Q441.877 307.532 441.877 305.672Q441.877 304.083 440.588 303.226Q439.299 302.369 436.963 302.369L432.283 302.369L432.283 299.937L436.75 299.937Q438.757 299.937 439.885 299.117Q441.013 298.289 441.013 296.817Q441.013 295.169 439.541 294.209Q438.069 293.25 435.82 293.25Q434.348 293.25 432.832 293.675Q431.323 294.092 429.968 294.927L429.009 292.474Q430.598 291.573 432.37 291.126Q434.143 290.672 435.908 290.672Q438.127 290.672 439.988 291.36Q441.848 292.049 442.939 293.375Q444.038 294.693 444.038 296.458Q444.038 298.047 443.152 299.249Q442.273 300.45 440.713 301.05ZM463.569 306.749L452.407 306.749L450.1 312L447.009 312L456.516 291.001L459.489 291.001L469.026 312L465.876 312L463.569 306.749ZM462.522 304.354L457.988 294.063L453.462 304.354L462.522 304.354ZM472.868 291.001L478.361 298.677L483.847 291.001L487.362 291.001L480.251 301.08L487.926 312L484.389 312L478.361 303.628L472.362 312L468.913 312L476.559 301.197L469.418 291.001L472.868 291.001ZM504.098 301.109Q506.229 301.622 507.32 302.925Q508.419 304.229 508.419 306.272Q508.419 308.997 506.419 310.499Q504.427 312 500.619 312L491.017 312L491.017 291.001L500.047 291.001Q503.497 291.001 505.431 292.4Q507.372 293.792 507.372 296.399Q507.372 298.113 506.515 299.314Q505.658 300.508 504.098 301.109ZM493.99 300.237L499.842 300.237Q502.032 300.237 503.182 299.373Q504.339 298.501 504.339 296.817Q504.339 295.14 503.168 294.253Q502.003 293.367 499.842 293.367L493.99 293.367L493.99 300.237ZM500.56 309.627Q505.387 309.627 505.387 306.031Q505.387 304.229 504.171 303.379Q502.962 302.522 500.56 302.522L493.99 302.522L493.99 309.627L500.56 309.627ZM522.875 312.242Q519.696 312.242 517.147 310.85Q514.599 309.451 513.141 306.99Q511.691 304.529 511.691 301.497Q511.691 298.472 513.141 296.011Q514.599 293.55 517.147 292.159Q519.696 290.76 522.875 290.76Q526.024 290.76 528.573 292.159Q531.129 293.55 532.565 295.997Q534.008 298.443 534.008 301.497Q534.008 304.559 532.565 307.005Q531.129 309.451 528.573 310.85Q526.024 312.242 522.875 312.242ZM522.875 309.568Q525.189 309.568 527.035 308.521Q528.881 307.474 529.943 305.628Q531.005 303.782 531.005 301.497Q531.005 299.219 529.943 297.374Q528.881 295.528 527.035 294.48Q525.189 293.433 522.875 293.433Q520.568 293.433 518.693 294.48Q516.818 295.528 515.748 297.374Q514.686 299.219 514.686 301.497Q514.686 303.782 515.748 305.628Q516.818 307.474 518.693 308.521Q520.568 309.568 522.875 309.568ZM547.055 291.001Q551.135 291.001 553.471 292.95Q555.815 294.898 555.815 298.318Q555.815 301.739 553.471 303.694Q551.135 305.643 547.055 305.643L541.87 305.643L541.87 312L538.867 312L538.867 291.001L547.055 291.001ZM546.967 303.028Q549.816 303.028 551.318 301.819Q552.819 300.604 552.819 298.318Q552.819 296.041 551.318 294.825Q549.816 293.609 546.967 293.609L541.87 293.609L541.87 303.028L546.967 303.028ZM577.389 290.76Q580.421 290.76 582.846 292.159Q585.277 293.55 586.669 295.997Q588.068 298.443 588.068 301.497Q588.068 304.559 586.669 307.005Q585.277 309.451 582.846 310.85Q580.421 312.242 577.389 312.242Q574.569 312.242 572.255 311.011Q569.948 309.781 568.505 307.62Q567.069 305.459 566.798 302.698L562.96 302.698L562.96 312L559.987 312L559.987 291.001L562.96 291.001L562.96 300.003L566.827 300.003Q567.157 297.33 568.615 295.235Q570.072 293.133 572.35 291.946Q574.628 290.76 577.389 290.76ZM577.389 309.539Q579.55 309.539 581.3 308.506Q583.058 307.474 584.061 305.643Q585.072 303.812 585.072 301.497Q585.072 299.19 584.061 297.359Q583.058 295.528 581.3 294.495Q579.55 293.462 577.389 293.462Q575.258 293.462 573.514 294.495Q571.779 295.528 570.775 297.359Q569.772 299.19 569.772 301.497Q569.772 303.812 570.775 305.643Q571.779 307.474 573.514 308.506Q575.258 309.539 577.389 309.539ZM606.038 301.109Q608.169 301.622 609.26 302.925Q610.359 304.229 610.359 306.272Q610.359 308.997 608.359 310.499Q606.367 312 602.559 312L592.957 312L592.957 291.001L601.987 291.001Q605.437 291.001 607.371 292.4Q609.312 293.792 609.312 296.399Q609.312 298.113 608.455 299.314Q607.598 300.508 606.038 301.109ZM595.93 300.237L601.782 300.237Q603.972 300.237 605.122 299.373Q606.279 298.501 606.279 296.817Q606.279 295.14 605.108 294.253Q603.943 293.367 601.782 293.367L595.93 293.367L595.93 300.237ZM602.5 309.627Q607.327 309.627 607.327 306.031Q607.327 304.229 606.111 303.379Q604.902 302.522 602.5 302.522L595.93 302.522L595.93 309.627L602.5 309.627ZM629.019 306.749L617.857 306.749L615.55 312L612.459 312L621.966 291.001L624.939 291.001L634.476 312L631.326 312L629.019 306.749ZM627.972 304.354L623.438 294.063L618.912 304.354L627.972 304.354ZM656.168 291.001L656.168 312L653.165 312L653.165 302.64L641.11 302.64L641.11 312L638.107 312L638.107 291.001L641.11 291.001L641.11 300.032L653.165 300.032L653.165 291.001L656.168 291.001ZM680.768 291.001L680.768 312L677.765 312L677.765 302.64L665.71 302.64L665.71 312L662.707 312L662.707 291.001L665.71 291.001L665.71 300.032L677.765 300.032L677.765 291.001L680.768 291.001ZM702.702 291.001L702.702 312L699.758 312L699.758 305.877L693.972 305.877Q693.43 305.877 693.159 305.848L688.962 312L685.783 312L690.427 305.342Q688.178 304.588 686.977 302.837Q685.783 301.08 685.783 298.56Q685.783 294.993 688.076 293.001Q690.368 291.001 694.272 291.001L702.702 291.001ZM688.808 298.531Q688.808 300.867 690.17 302.112Q691.54 303.357 694.213 303.357L699.758 303.357L699.758 293.609L694.389 293.609Q691.687 293.609 690.244 294.869Q688.808 296.128 688.808 298.531ZM731.047 293.609L720.251 293.609L720.28 312L717.307 312L717.307 291.001L731.083 291.001L731.047 293.609ZM742.835 291.001Q746.915 291.001 749.251 292.95Q751.595 294.898 751.595 298.318Q751.595 301.739 749.251 303.694Q746.915 305.643 742.835 305.643L737.65 305.643L737.65 312L734.647 312L734.647 291.001L742.835 291.001ZM742.747 303.028Q745.596 303.028 747.098 301.819Q748.599 300.604 748.599 298.318Q748.599 296.041 747.098 294.825Q745.596 293.609 742.747 293.609L737.65 293.609L737.65 303.028L742.747 303.028ZM768.848 301.109Q770.979 301.622 772.07 302.925Q773.169 304.229 773.169 306.272Q773.169 308.997 771.169 310.499Q769.177 312 765.369 312L755.767 312L755.767 291.001L764.797 291.001Q768.247 291.001 770.181 292.4Q772.122 293.792 772.122 296.399Q772.122 298.113 771.265 299.314Q770.408 300.508 768.848 301.109ZM758.74 300.237L764.592 300.237Q766.782 300.237 767.932 299.373Q769.089 298.501 769.089 296.817Q769.089 295.14 767.918 294.253Q766.753 293.367 764.592 293.367L758.74 293.367L758.74 300.237ZM765.31 309.627Q770.137 309.627 770.137 306.031Q770.137 304.229 768.921 303.379Q767.712 302.522 765.31 302.522L758.74 302.522L758.74 309.627L765.31 309.627ZM778.177 291.001L781.15 291.001L781.15 312L778.177 312L778.177 291.001ZM177.703 335.609L170.503 335.609L170.503 354L167.559 354L167.559 335.609L160.388 335.609L160.388 333.001L177.703 333.001L177.703 335.609ZM193.959 348.749L182.797 348.749L180.49 354L177.399 354L186.906 333.001L189.879 333.001L199.415 354L196.266 354L193.959 348.749ZM192.912 346.354L188.378 336.063L183.852 346.354L192.912 346.354ZM224.857 335.609L214.061 335.609L214.09 354L211.117 354L211.117 333.001L224.893 333.001L224.857 335.609ZM236.645 333.001Q240.725 333.001 243.061 334.95Q245.405 336.898 245.405 340.318Q245.405 343.739 243.061 345.694Q240.725 347.643 236.645 347.643L231.46 347.643L231.46 354L228.457 354L228.457 333.001L236.645 333.001ZM236.557 345.028Q239.406 345.028 240.908 343.819Q242.409 342.604 242.409 340.318Q242.409 338.041 240.908 336.825Q239.406 335.609 236.557 335.609L231.46 335.609L231.46 345.028L236.557 345.028ZM249.577 333.001L252.55 333.001L252.55 349.203L264.972 333.001L267.733 333.001L267.733 354L264.789 354L264.789 337.828L252.338 354L249.577 354L249.577 333.001ZM292.357 333.001L292.357 354L289.42 354L289.42 335.609L277.24 335.609L277.24 354L274.267 354L274.267 333.001L292.357 333.001ZM316.087 333.001L306.763 350.309Q305.65 352.381 304.148 353.399Q302.647 354.417 300.881 354.417Q299.497 354.417 298.062 353.788L298.838 351.393Q299.951 351.781 300.823 351.781Q302.8 351.781 304.089 349.679L304.573 348.932L296.113 333.001L299.321 333.001L306.133 346.317L313.12 333.001L316.087 333.001ZM340.778 343.109Q342.909 343.622 344 344.925Q345.099 346.229 345.099 348.272Q345.099 350.997 343.099 352.499Q341.107 354 337.299 354L327.697 354L327.697 333.001L336.727 333.001Q340.177 333.001 342.111 334.4Q344.052 335.792 344.052 338.399Q344.052 340.113 343.195 341.314Q342.338 342.508 340.778 343.109ZM330.67 342.237L336.522 342.237Q338.712 342.237 339.862 341.373Q341.019 340.501 341.019 338.817Q341.019 337.14 339.847 336.253Q338.683 335.367 336.522 335.367L330.67 335.367L330.67 342.237ZM337.24 351.627Q342.067 351.627 342.067 348.031Q342.067 346.229 340.851 345.379Q339.642 344.522 337.24 344.522L330.67 344.522L330.67 351.627L337.24 351.627ZM481.867 341.673L481.867 344.193L471.4 344.193L471.4 342.186L476.593 337.682Q477.428 336.964 477.743 336.473Q478.058 335.975 478.058 335.521Q478.058 334.891 477.516 334.503Q476.982 334.115 475.898 334.115Q474.997 334.115 474.264 334.459Q473.532 334.803 473.107 335.404L470.712 333.961Q471.459 332.826 472.836 332.167Q474.22 331.5 476.169 331.5Q478.6 331.5 479.992 332.555Q481.391 333.602 481.391 335.279Q481.391 336.246 480.893 337.103Q480.402 337.953 479.018 339.154L476.139 341.673L481.867 341.673Z" fill="#000000" fill-opacity="1.000000" fill-rule="evenodd"/>
	<path id="ЗНИЖУЄ РИЗИК ЗАХВОРЮВАННЯ ГРВІ ТА ГРИПУ в 2 рази2" d="M372.19 350.038L372.19 354L356.319 354L356.319 350.851L364.419 343.197Q365.708 341.974 366.155 341.087Q366.609 340.201 366.609 339.33Q366.609 338.07 365.752 337.396Q364.903 336.722 363.247 336.722Q361.871 336.722 360.757 337.25Q359.651 337.77 358.897 338.817L355.359 336.539Q356.59 334.708 358.75 333.675Q360.911 332.643 363.702 332.643Q366.038 332.643 367.796 333.412Q369.554 334.173 370.528 335.565Q371.502 336.957 371.502 338.854Q371.502 340.56 370.777 342.062Q370.059 343.563 367.994 345.482L363.16 350.038L372.19 350.038ZM393.217 333.001Q396.007 333.001 398.058 333.932Q400.116 334.862 401.222 336.576Q402.335 338.282 402.335 340.619Q402.335 342.933 401.222 344.662Q400.116 346.383 398.058 347.298Q396.007 348.207 393.217 348.207L388.991 348.207L388.991 354L384.127 354L384.127 333.001L393.217 333.001ZM392.946 344.251Q395.136 344.251 396.271 343.307Q397.414 342.362 397.414 340.619Q397.414 338.854 396.271 337.909Q395.136 336.957 392.946 336.957L388.991 336.957L388.991 344.251L392.946 344.251ZM418.721 349.503L408.973 349.503L407.112 354L402.132 354L411.492 333.001L416.289 333.001L425.679 354L420.581 354L418.721 349.503ZM417.19 345.812L413.865 337.77L410.533 345.812L417.19 345.812ZM440.413 343.05Q442.237 343.68 443.27 345.021Q444.31 346.354 444.31 348.119Q444.31 350.038 443.05 351.451Q441.79 352.857 439.644 353.612Q437.498 354.359 434.949 354.359Q432.789 354.359 430.643 353.824Q428.497 353.282 426.578 352.169L428.079 348.69Q429.464 349.532 431.126 349.964Q432.789 350.396 434.378 350.396Q436.539 350.396 437.96 349.62Q439.388 348.836 439.388 347.43Q439.388 346.258 438.414 345.658Q437.44 345.057 435.762 345.057L430.628 345.057L430.628 341.402L435.403 341.402Q436.868 341.402 437.696 340.802Q438.524 340.201 438.524 339.146Q438.524 337.923 437.337 337.235Q436.151 336.539 434.29 336.539Q432.913 336.539 431.441 336.92Q429.969 337.293 428.651 338.041L427.178 334.261Q430.511 332.547 434.378 332.547Q436.839 332.547 438.904 333.272Q440.977 333.99 442.208 335.375Q443.438 336.751 443.438 338.583Q443.438 340.077 442.625 341.249Q441.819 342.42 440.413 343.05ZM448.147 333.001L452.981 333.001L452.981 346.683L463.001 333.001L467.557 333.001L467.557 354L462.759 354L462.759 340.348L452.74 354L448.147 354L448.147 333.001Z" fill="#516ACF" fill-opacity="1.000000" fill-rule="evenodd"/>
	<g filter="url(#filter_89_14099_dd)">
		<ellipse id="Ellipse 16" cx="79.500000" cy="143.820312" rx="42.500000" ry="42.819550" fill="url(#paint_linear_89_14100_0)" fill-opacity="1.000000"/>
		<path id="Vector" d="M74.9614 168.82L74.5815 168.17C68.7842 158.248 53.3779 137.189 53.2222 136.979L53 136.676L58.249 131.465L74.8638 143.119C85.3247 129.482 95.0845 120.115 101.451 114.646C108.415 108.664 112.948 105.908 112.994 105.883L113.097 105.82L122 105.82L121.149 106.582C99.2769 126.152 75.5688 167.748 75.3325 168.166L74.9614 168.82Z" fill="#FFFFFF" fill-opacity="1.000000" fill-rule="evenodd"/>
	</g>
	<g filter="url(#filter_89_14102_dd)">
		<ellipse id="Ellipse 16" cx="79.500000" cy="320.820312" rx="42.500000" ry="42.819550" fill="url(#paint_linear_89_14103_0)" fill-opacity="1.000000"/>
		<path id="Vector" d="M74.9614 345.82L74.5815 345.17C68.7842 335.248 53.3779 314.189 53.2222 313.979L53 313.676L58.249 308.465L74.8638 320.119C85.3247 306.482 95.0845 297.115 101.451 291.646C108.415 285.664 112.948 282.908 112.994 282.883L113.097 282.82L122 282.82L121.149 283.582C99.2769 303.152 75.5688 344.748 75.3325 345.166L74.9614 345.82Z" fill="#FFFFFF" fill-opacity="1.000000" fill-rule="evenodd"/>
	</g>
	<g filter="url(#filter_89_14105_dd)">
		<ellipse id="Ellipse 16" cx="79.500000" cy="500.820312" rx="42.500000" ry="42.819550" fill="url(#paint_linear_89_14106_0)" fill-opacity="1.000000"/>
		<path id="Vector" d="M74.9614 525.82L74.5815 525.17C68.7842 515.248 53.3779 494.189 53.2222 493.979L53 493.676L58.249 488.465L74.8638 500.119C85.3247 486.482 95.0845 477.115 101.451 471.646C108.415 465.664 112.948 462.908 112.994 462.883L113.097 462.82L122 462.82L121.149 463.582C99.2769 483.152 75.5688 524.748 75.3325 525.166L74.9614 525.82Z" fill="#FFFFFF" fill-opacity="1.000000" fill-rule="evenodd"/>
	</g>
</svg>
