<svg width="1033.000000" height="650.000000" viewBox="0 0 1033 650" fill="none" xmlns="http://www.w3.org/2000/svg" >
	<desc>
			Created with Pixso.
	</desc>
	<defs>
		<filter id="filter_89_14058_dd" x="83.000000" y="355.000000" width="93.000000" height="93.638672" filterUnits="userSpaceOnUse" color-interpolation-filters="sRGB">
			<feFlood flood-opacity="0" result="BackgroundImageFix"/>
			<feColorMatrix in="SourceAlpha" type="matrix" values="0 0 0 0 0 0 0 0 0 0 0 0 0 0 0 0 0 0 127 0" result="hardAlpha"/>
			<feOffset dx="0" dy="4"/>
			<feGaussianBlur stdDeviation="1.33333"/>
			<feComposite in2="hardAlpha" operator="out" k2="-1" k3="1"/>
			<feColorMatrix type="matrix" values="0 0 0 0 0 0 0 0 0 0 0 0 0 0 0 0 0 0 0.25 0"/>
			<feBlend mode="normal" in2="BackgroundImageFix" result="effect_dropShadow_1"/>
			<feBlend mode="normal" in="SourceGraphic" in2="effect_dropShadow_1" result="shape"/>
		</filter>
		<linearGradient id="paint_linear_89_14059_0" x1="129.500000" y1="355.000000" x2="129.500000" y2="440.639099" gradientUnits="userSpaceOnUse">
			<stop stop-color="#1091DA"/>
			<stop offset="1.000000" stop-color="#7DC5ED"/>
		</linearGradient>
		<filter id="filter_89_14061_dd" x="83.000000" y="497.000000" width="93.000000" height="93.638672" filterUnits="userSpaceOnUse" color-interpolation-filters="sRGB">
			<feFlood flood-opacity="0" result="BackgroundImageFix"/>
			<feColorMatrix in="SourceAlpha" type="matrix" values="0 0 0 0 0 0 0 0 0 0 0 0 0 0 0 0 0 0 127 0" result="hardAlpha"/>
			<feOffset dx="0" dy="4"/>
			<feGaussianBlur stdDeviation="1.33333"/>
			<feComposite in2="hardAlpha" operator="out" k2="-1" k3="1"/>
			<feColorMatrix type="matrix" values="0 0 0 0 0 0 0 0 0 0 0 0 0 0 0 0 0 0 0.25 0"/>
			<feBlend mode="normal" in2="BackgroundImageFix" result="effect_dropShadow_1"/>
			<feBlend mode="normal" in="SourceGraphic" in2="effect_dropShadow_1" result="shape"/>
		</filter>
		<linearGradient id="paint_linear_89_14062_0" x1="129.500000" y1="497.000000" x2="129.500000" y2="582.639099" gradientUnits="userSpaceOnUse">
			<stop stop-color="#1091DA"/>
			<stop offset="1.000000" stop-color="#7DC5ED"/>
		</linearGradient>
		<filter id="filter_89_14051_dd" x="83.000000" y="217.000000" width="93.000000" height="93.638672" filterUnits="userSpaceOnUse" color-interpolation-filters="sRGB">
			<feFlood flood-opacity="0" result="BackgroundImageFix"/>
			<feColorMatrix in="SourceAlpha" type="matrix" values="0 0 0 0 0 0 0 0 0 0 0 0 0 0 0 0 0 0 127 0" result="hardAlpha"/>
			<feOffset dx="0" dy="4"/>
			<feGaussianBlur stdDeviation="1.33333"/>
			<feComposite in2="hardAlpha" operator="out" k2="-1" k3="1"/>
			<feColorMatrix type="matrix" values="0 0 0 0 0 0 0 0 0 0 0 0 0 0 0 0 0 0 0.25 0"/>
			<feBlend mode="normal" in2="BackgroundImageFix" result="effect_dropShadow_1"/>
			<feBlend mode="normal" in="SourceGraphic" in2="effect_dropShadow_1" result="shape"/>
		</filter>
		<linearGradient id="paint_linear_84_5549_0" x1="129.500000" y1="217.000000" x2="129.500000" y2="302.639099" gradientUnits="userSpaceOnUse">
			<stop stop-color="#1091DA"/>
			<stop offset="1.000000" stop-color="#7DC5ED"/>
		</linearGradient>
		<filter id="filter_93_282_dd" x="83.000000" y="79.000000" width="93.000000" height="93.638672" filterUnits="userSpaceOnUse" color-interpolation-filters="sRGB">
			<feFlood flood-opacity="0" result="BackgroundImageFix"/>
			<feColorMatrix in="SourceAlpha" type="matrix" values="0 0 0 0 0 0 0 0 0 0 0 0 0 0 0 0 0 0 127 0" result="hardAlpha"/>
			<feOffset dx="0" dy="4"/>
			<feGaussianBlur stdDeviation="1.33333"/>
			<feComposite in2="hardAlpha" operator="out" k2="-1" k3="1"/>
			<feColorMatrix type="matrix" values="0 0 0 0 0 0 0 0 0 0 0 0 0 0 0 0 0 0 0.25 0"/>
			<feBlend mode="normal" in2="BackgroundImageFix" result="effect_dropShadow_1"/>
			<feBlend mode="normal" in="SourceGraphic" in2="effect_dropShadow_1" result="shape"/>
		</filter>
		<linearGradient id="paint_linear_93_283_0" x1="129.500000" y1="79.000000" x2="129.500000" y2="164.639099" gradientUnits="userSpaceOnUse">
			<stop stop-color="#1091DA"/>
			<stop offset="1.000000" stop-color="#7DC5ED"/>
		</linearGradient>
	</defs>
	<path id="Rectangle 30" d="M708 650L0 650L0 0L708 0C887.492 0 1033 145.508 1033 325C1033 504.492 887.492 650 708 650Z" fill="#D2F5FF" fill-opacity="1.000000" fill-rule="evenodd"/>
	<path id="Більше 19 років успішного застосування в Україні1" d="M219.267 228.822L235.109 228.822L235.109 231.371L222.24 231.371L222.24 237.369L228.781 237.369Q232.531 237.369 234.479 238.929Q236.427 240.489 236.427 243.434Q236.427 246.517 234.311 248.172Q232.201 249.82 228.268 249.82L219.267 249.82L219.267 228.822ZM228.151 247.447Q230.729 247.447 232.077 246.458Q233.432 245.47 233.432 243.551Q233.432 239.742 228.151 239.742L222.24 239.742L222.24 247.447L228.151 247.447ZM241.197 228.822L244.17 228.822L244.17 249.82L241.197 249.82L241.197 228.822ZM267.597 228.822L267.597 249.82L264.66 249.82L264.66 231.429L255.358 231.429L255.153 237.582Q255 241.932 254.443 244.635Q253.894 247.33 252.692 248.7Q251.491 250.062 249.448 250.062Q248.518 250.062 247.558 249.82L247.771 247.147Q248.247 247.271 248.73 247.271Q250.019 247.271 250.795 246.239Q251.579 245.199 251.967 243.133Q252.363 241.061 252.48 237.669L252.81 228.822L267.597 228.822ZM283.35 236.139Q287.1 236.139 289.093 237.823Q291.092 239.5 291.092 242.767Q291.092 246.217 288.946 248.019Q286.8 249.82 282.808 249.82L274.137 249.82L274.137 228.822L277.11 228.822L277.11 236.139L283.35 236.139ZM282.691 247.447Q285.299 247.447 286.69 246.268Q288.089 245.082 288.089 242.833Q288.089 238.512 282.691 238.512L277.11 238.512L277.11 247.447L282.691 247.447ZM321.843 228.822L321.843 249.82L295.527 249.82L295.527 228.822L298.5 228.822L298.5 247.213L307.231 247.213L307.231 228.822L310.168 228.822L310.168 247.213L318.898 247.213L318.898 228.822L321.843 228.822ZM343.618 247.213L343.618 249.82L328.377 249.82L328.377 228.822L343.193 228.822L343.193 231.429L331.38 231.429L331.38 237.882L341.904 237.882L341.904 240.431L331.38 240.431L331.38 247.213L343.618 247.213ZM522.207 228.822L512.883 246.129Q511.77 248.202 510.268 249.22Q508.767 250.238 507.001 250.238Q505.617 250.238 504.182 249.608L504.958 247.213Q506.071 247.601 506.943 247.601Q508.92 247.601 510.209 245.499L510.693 244.752L502.233 228.822L505.441 228.822L512.253 242.137L519.24 228.822L522.207 228.822ZM534.476 250.062Q531.327 250.062 528.793 248.67Q526.258 247.271 524.816 244.825Q523.38 242.379 523.38 239.317Q523.38 236.263 524.816 233.817Q526.258 231.371 528.807 229.979Q531.356 228.58 534.506 228.58Q536.966 228.58 539.003 229.408Q541.046 230.228 542.489 231.854L540.541 233.744Q538.168 231.253 534.63 231.253Q532.286 231.253 530.397 232.301Q528.507 233.348 527.438 235.194Q526.376 237.04 526.376 239.317Q526.376 241.603 527.438 243.448Q528.507 245.294 530.397 246.341Q532.286 247.389 534.63 247.389Q538.138 247.389 540.541 244.869L542.489 246.759Q541.046 248.377 538.988 249.22Q536.937 250.062 534.476 250.062ZM564.717 228.822L564.717 249.82L561.78 249.82L561.78 231.429L549.6 231.429L549.6 249.82L546.627 249.82L546.627 228.822L564.717 228.822ZM571.257 228.822L574.23 228.822L574.23 249.82L571.257 249.82L571.257 228.822ZM607.083 228.822L607.083 249.82L580.767 249.82L580.767 228.822L583.74 228.822L583.74 247.213L592.471 247.213L592.471 228.822L595.408 228.822L595.408 247.213L604.138 247.213L604.138 228.822L607.083 228.822ZM631.678 228.822L631.678 249.82L628.675 249.82L628.675 240.46L616.62 240.46L616.62 249.82L613.617 249.82L613.617 228.822L616.62 228.822L616.62 237.853L628.675 237.853L628.675 228.822L631.678 228.822ZM647.665 250.062Q644.486 250.062 641.937 248.67Q639.389 247.271 637.931 244.811Q636.481 242.35 636.481 239.317Q636.481 236.292 637.931 233.832Q639.389 231.371 641.937 229.979Q644.486 228.58 647.665 228.58Q650.814 228.58 653.363 229.979Q655.919 231.371 657.355 233.817Q658.798 236.263 658.798 239.317Q658.798 242.379 657.355 244.825Q655.919 247.271 653.363 248.67Q650.814 250.062 647.665 250.062ZM647.665 247.389Q649.979 247.389 651.825 246.341Q653.671 245.294 654.733 243.448Q655.795 241.603 655.795 239.317Q655.795 237.04 654.733 235.194Q653.671 233.348 651.825 232.301Q649.979 231.253 647.665 231.253Q645.358 231.253 643.483 232.301Q641.608 233.348 640.538 235.194Q639.476 237.04 639.476 239.317Q639.476 241.603 640.538 243.448Q641.608 245.294 643.483 246.341Q645.358 247.389 647.665 247.389ZM677.397 231.429L666.601 231.429L666.63 249.82L663.657 249.82L663.657 228.822L677.433 228.822L677.397 231.429ZM687.805 250.062Q684.626 250.062 682.077 248.67Q679.529 247.271 678.071 244.811Q676.621 242.35 676.621 239.317Q676.621 236.292 678.071 233.832Q679.529 231.371 682.077 229.979Q684.626 228.58 687.805 228.58Q690.954 228.58 693.503 229.979Q696.059 231.371 697.495 233.817Q698.938 236.263 698.938 239.317Q698.938 242.379 697.495 244.825Q696.059 247.271 693.503 248.67Q690.954 250.062 687.805 250.062ZM687.805 247.389Q690.119 247.389 691.965 246.341Q693.811 245.294 694.873 243.448Q695.935 241.603 695.935 239.317Q695.935 237.04 694.873 235.194Q693.811 233.348 691.965 232.301Q690.119 231.253 687.805 231.253Q685.498 231.253 683.623 232.301Q681.748 233.348 680.678 235.194Q679.616 237.04 679.616 239.317Q679.616 241.603 680.678 243.448Q681.748 245.294 683.623 246.341Q685.498 247.389 687.805 247.389ZM229.323 280.871Q231.3 281.413 232.406 282.746Q233.52 284.079 233.52 285.939Q233.52 287.799 232.333 289.198Q231.146 290.59 229.184 291.33Q227.221 292.062 224.914 292.062Q222.812 292.062 220.739 291.432Q218.673 290.802 216.959 289.542L218.007 287.323Q219.391 288.4 221.098 288.942Q222.812 289.484 224.547 289.484Q227.067 289.484 228.773 288.422Q230.487 287.353 230.487 285.492Q230.487 283.903 229.198 283.046Q227.909 282.189 225.573 282.189L220.893 282.189L220.893 279.757L225.36 279.757Q227.367 279.757 228.495 278.937Q229.623 278.109 229.623 276.637Q229.623 274.989 228.151 274.03Q226.679 273.07 224.43 273.07Q222.958 273.07 221.442 273.495Q219.933 273.913 218.578 274.748L217.619 272.294Q219.208 271.393 220.98 270.946Q222.753 270.492 224.518 270.492Q226.737 270.492 228.598 271.181Q230.458 271.869 231.549 273.195Q232.648 274.513 232.648 276.278Q232.648 277.868 231.762 279.069Q230.883 280.27 229.323 280.871ZM252.179 286.569L241.017 286.569L238.71 291.82L235.619 291.82L245.126 270.822L248.099 270.822L257.635 291.82L254.486 291.82L252.179 286.569ZM251.132 284.174L246.598 273.883L242.072 284.174L251.132 284.174ZM270.356 292.062Q267.207 292.062 264.673 290.67Q262.138 289.271 260.696 286.825Q259.26 284.379 259.26 281.317Q259.26 278.263 260.696 275.817Q262.138 273.371 264.687 271.979Q267.236 270.58 270.386 270.58Q272.846 270.58 274.883 271.408Q276.926 272.228 278.369 273.854L276.421 275.744Q274.048 273.253 270.51 273.253Q268.166 273.253 266.277 274.301Q264.387 275.348 263.318 277.194Q262.256 279.04 262.256 281.317Q262.256 283.603 263.318 285.448Q264.387 287.294 266.277 288.341Q268.166 289.389 270.51 289.389Q274.018 289.389 276.421 286.869L278.369 288.759Q276.926 290.377 274.868 291.22Q272.817 292.062 270.356 292.062ZM296.703 273.429L289.503 273.429L289.503 291.82L286.559 291.82L286.559 273.429L279.388 273.429L279.388 270.822L296.703 270.822L296.703 273.429ZM309.505 292.062Q306.326 292.062 303.777 290.67Q301.228 289.271 299.771 286.811Q298.321 284.35 298.321 281.317Q298.321 278.292 299.771 275.832Q301.228 273.371 303.777 271.979Q306.326 270.58 309.505 270.58Q312.654 270.58 315.203 271.979Q317.759 273.371 319.195 275.817Q320.638 278.263 320.638 281.317Q320.638 284.379 319.195 286.825Q317.759 289.271 315.203 290.67Q312.654 292.062 309.505 292.062ZM309.505 289.389Q311.819 289.389 313.665 288.341Q315.511 287.294 316.573 285.448Q317.635 283.603 317.635 281.317Q317.635 279.04 316.573 277.194Q315.511 275.348 313.665 274.301Q311.819 273.253 309.505 273.253Q307.198 273.253 305.323 274.301Q303.448 275.348 302.378 277.194Q301.316 279.04 301.316 281.317Q301.316 283.603 302.378 285.448Q303.448 287.294 305.323 288.341Q307.198 289.389 309.505 289.389ZM334.886 292.062Q331.737 292.062 329.203 290.67Q326.668 289.271 325.226 286.825Q323.79 284.379 323.79 281.317Q323.79 278.263 325.226 275.817Q326.668 273.371 329.217 271.979Q331.766 270.58 334.916 270.58Q337.376 270.58 339.413 271.408Q341.456 272.228 342.899 273.854L340.951 275.744Q338.578 273.253 335.04 273.253Q332.696 273.253 330.807 274.301Q328.917 275.348 327.848 277.194Q326.786 279.04 326.786 281.317Q326.786 283.603 327.848 285.448Q328.917 287.294 330.807 288.341Q332.696 289.389 335.04 289.389Q338.548 289.389 340.951 286.869L342.899 288.759Q341.456 290.377 339.398 291.22Q337.347 292.062 334.886 292.062ZM363.717 270.822L354.393 288.129Q353.28 290.202 351.778 291.22Q350.277 292.238 348.511 292.238Q347.127 292.238 345.692 291.608L346.468 289.213Q347.581 289.601 348.453 289.601Q350.43 289.601 351.719 287.499L352.203 286.752L343.743 270.822L346.951 270.822L353.763 284.137L360.75 270.822L363.717 270.822ZM379.888 280.929Q382.019 281.442 383.11 282.746Q384.209 284.049 384.209 286.093Q384.209 288.817 382.209 290.319Q380.217 291.82 376.409 291.82L366.807 291.82L366.807 270.822L375.837 270.822Q379.287 270.822 381.221 272.221Q383.162 273.612 383.162 276.22Q383.162 277.934 382.305 279.135Q381.448 280.329 379.888 280.929ZM369.78 280.058L375.632 280.058Q377.822 280.058 378.972 279.193Q380.129 278.322 380.129 276.637Q380.129 274.96 378.957 274.074Q377.793 273.188 375.632 273.188L369.78 273.188L369.78 280.058ZM376.35 289.447Q381.177 289.447 381.177 285.851Q381.177 284.049 379.961 283.2Q378.752 282.343 376.35 282.343L369.78 282.343L369.78 289.447L376.35 289.447ZM402.869 286.569L391.707 286.569L389.4 291.82L386.309 291.82L395.816 270.822L398.789 270.822L408.326 291.82L405.176 291.82L402.869 286.569ZM401.822 284.174L397.288 273.883L392.762 284.174L401.822 284.174ZM430.018 270.822L430.018 291.82L427.015 291.82L427.015 282.46L414.96 282.46L414.96 291.82L411.957 291.82L411.957 270.822L414.96 270.822L414.96 279.853L427.015 279.853L427.015 270.822L430.018 270.822ZM454.618 270.822L454.618 291.82L451.615 291.82L451.615 282.46L439.56 282.46L439.56 291.82L436.557 291.82L436.557 270.822L439.56 270.822L439.56 279.853L451.615 279.853L451.615 270.822L454.618 270.822ZM476.552 270.822L476.552 291.82L473.608 291.82L473.608 285.697L467.822 285.697Q467.28 285.697 467.009 285.668L462.812 291.82L459.633 291.82L464.277 285.163Q462.028 284.408 460.827 282.658Q459.633 280.9 459.633 278.38Q459.633 274.813 461.926 272.821Q464.218 270.822 468.122 270.822L476.552 270.822ZM462.658 278.351Q462.658 280.688 464.02 281.933Q465.39 283.178 468.063 283.178L473.608 283.178L473.608 273.429L468.239 273.429Q465.536 273.429 464.094 274.689Q462.658 275.949 462.658 278.351ZM504.238 280.929Q506.369 281.442 507.46 282.746Q508.559 284.049 508.559 286.093Q508.559 288.817 506.559 290.319Q504.567 291.82 500.759 291.82L491.157 291.82L491.157 270.822L500.187 270.822Q503.637 270.822 505.571 272.221Q507.512 273.612 507.512 276.22Q507.512 277.934 506.655 279.135Q505.798 280.329 504.238 280.929ZM494.13 280.058L499.982 280.058Q502.172 280.058 503.322 279.193Q504.479 278.322 504.479 276.637Q504.479 274.96 503.307 274.074Q502.143 273.188 499.982 273.188L494.13 273.188L494.13 280.058ZM500.7 289.447Q505.527 289.447 505.527 285.851Q505.527 284.049 504.311 283.2Q503.102 282.343 500.7 282.343L494.13 282.343L494.13 289.447L500.7 289.447ZM538.827 270.822L529.503 288.129Q528.39 290.202 526.888 291.22Q525.387 292.238 523.621 292.238Q522.237 292.238 520.802 291.608L521.578 289.213Q522.691 289.601 523.563 289.601Q525.54 289.601 526.829 287.499L527.313 286.752L518.853 270.822L522.061 270.822L528.873 284.137L535.86 270.822L538.827 270.822ZM549.241 282.577L544.861 282.577L544.861 291.82L541.917 291.82L541.917 270.822L544.861 270.822L544.861 279.94L549.299 279.94L555.899 270.822L559.107 270.822L551.607 280.988L559.473 291.82L556.052 291.82L549.241 282.577ZM570.745 270.822Q574.825 270.822 577.161 272.77Q579.505 274.718 579.505 278.139Q579.505 281.559 577.161 283.515Q574.825 285.463 570.745 285.463L565.56 285.463L565.56 291.82L562.557 291.82L562.557 270.822L570.745 270.822ZM570.657 282.848Q573.506 282.848 575.008 281.64Q576.509 280.424 576.509 278.139Q576.509 275.861 575.008 274.645Q573.506 273.429 570.657 273.429L565.56 273.429L565.56 282.848L570.657 282.848ZM596.279 286.569L585.117 286.569L582.81 291.82L579.719 291.82L589.226 270.822L592.199 270.822L601.736 291.82L598.586 291.82L596.279 286.569ZM595.232 284.174L590.698 273.883L586.172 284.174L595.232 284.174ZM605.249 270.822L608.252 270.822L608.252 291.82L605.249 291.82L605.249 270.822ZM603.96 268.603Q603.331 268.603 602.876 268.17Q602.43 267.731 602.43 267.072Q602.43 266.413 602.876 265.966Q603.331 265.512 603.96 265.512Q604.59 265.512 605.037 265.966Q605.491 266.413 605.491 267.072Q605.491 267.731 605.037 268.17Q604.59 268.603 603.96 268.603ZM609.541 268.603Q608.912 268.603 608.457 268.17Q608.011 267.731 608.011 267.072Q608.011 266.413 608.457 265.966Q608.912 265.512 609.541 265.512Q610.171 265.512 610.618 265.966Q611.072 266.413 611.072 267.072Q611.072 267.731 610.618 268.17Q610.171 268.603 609.541 268.603ZM632.728 270.822L632.728 291.82L629.725 291.82L629.725 282.46L617.67 282.46L617.67 291.82L614.667 291.82L614.667 270.822L617.67 270.822L617.67 279.853L629.725 279.853L629.725 270.822L632.728 270.822ZM639.267 270.822L642.24 270.822L642.24 291.82L639.267 291.82L639.267 270.822ZM656.848 279.523L656.848 282.013L647.7 282.013L647.7 279.523L650.791 279.523L650.791 272.052L647.971 272.052L647.971 269.562L654.153 269.562L654.153 279.523L656.848 279.523Z" fill="#000000" fill-opacity="1.000000" fill-rule="evenodd"/>
	<path id="Більше 19 років успішного застосування в Україні1" d="M362.402 228.822L362.402 249.82L357.539 249.82L357.539 232.718L353.342 232.718L353.342 228.822L362.402 228.822ZM373.437 228.463Q377.847 228.463 380.337 231.151Q382.827 233.832 382.827 238.871Q382.827 242.438 381.494 244.994Q380.161 247.542 377.729 248.861Q375.298 250.179 372.119 250.179Q370.442 250.179 368.911 249.806Q367.38 249.432 366.304 248.744L368.098 245.169Q369.629 246.217 372.031 246.217Q374.697 246.217 376.257 244.642Q377.817 243.067 377.942 240.101Q376.052 241.991 372.72 241.991Q370.713 241.991 369.057 241.185Q367.41 240.372 366.45 238.885Q365.491 237.398 365.491 235.45Q365.491 233.348 366.538 231.759Q367.593 230.169 369.402 229.32Q371.218 228.463 373.437 228.463ZM373.804 238.358Q375.393 238.358 376.396 237.479Q377.4 236.593 377.4 235.208Q377.4 233.832 376.426 232.96Q375.452 232.088 373.738 232.088Q372.178 232.088 371.203 232.931Q370.229 233.773 370.229 235.208Q370.229 236.651 371.203 237.508Q372.178 238.358 373.804 238.358ZM404.187 228.822Q406.977 228.822 409.028 229.752Q411.086 230.682 412.192 232.396Q413.305 234.103 413.305 236.439Q413.305 238.753 412.192 240.482Q411.086 242.203 409.028 243.119Q406.977 244.027 404.187 244.027L399.961 244.027L399.961 249.82L395.097 249.82L395.097 228.822L404.187 228.822ZM403.916 240.072Q406.106 240.072 407.241 239.127Q408.384 238.182 408.384 236.439Q408.384 234.674 407.241 233.729Q406.106 232.777 403.916 232.777L399.961 232.777L399.961 240.072L403.916 240.072ZM426.844 250.179Q423.57 250.179 420.941 248.773Q418.319 247.359 416.832 244.884Q415.353 242.408 415.353 239.317Q415.353 236.234 416.832 233.758Q418.319 231.283 420.941 229.876Q423.57 228.463 426.844 228.463Q430.111 228.463 432.718 229.876Q435.333 231.283 436.827 233.758Q438.329 236.234 438.329 239.317Q438.329 242.408 436.827 244.884Q435.333 247.359 432.718 248.773Q430.111 250.179 426.844 250.179ZM426.844 246.041Q428.697 246.041 430.199 245.184Q431.7 244.327 432.557 242.804Q433.414 241.273 433.414 239.317Q433.414 237.369 432.557 235.838Q431.7 234.308 430.199 233.458Q428.697 232.601 426.844 232.601Q424.984 232.601 423.482 233.458Q421.981 234.308 421.124 235.838Q420.267 237.369 420.267 239.317Q420.267 241.273 421.124 242.804Q421.981 244.327 423.482 245.184Q424.984 246.041 426.844 246.041ZM450.207 241.361L446.853 241.361L446.853 249.82L442.019 249.82L442.019 228.822L446.853 228.822L446.853 237.311L450.332 237.311L455.847 228.822L460.981 228.822L454.111 238.958L461.186 249.82L455.671 249.82L450.207 241.361ZM463.467 228.822L468.301 228.822L468.301 249.82L463.467 249.82L463.467 228.822ZM488.071 238.871Q489.99 239.442 491.008 240.731Q492.033 242.02 492.033 243.91Q492.033 246.7 489.916 248.26Q487.8 249.82 483.867 249.82L473.517 249.82L473.517 228.822L483.303 228.822Q486.957 228.822 488.993 230.235Q491.037 231.642 491.037 234.249Q491.037 235.809 490.253 236.996Q489.477 238.182 488.071 238.871ZM478.351 237.523L482.878 237.523Q484.467 237.523 485.28 236.878Q486.093 236.234 486.093 234.967Q486.093 233.744 485.265 233.084Q484.438 232.418 482.878 232.418L478.351 232.418L478.351 237.523ZM483.691 246.217Q487.111 246.217 487.111 243.521Q487.111 240.907 483.691 240.907L478.351 240.907L478.351 246.217L483.691 246.217Z" fill="#0088D4" fill-opacity="1.000000" fill-rule="evenodd"/>
	<path id="Застосовується з 1-го місяця" d="M229.323 122.05Q231.3 122.592 232.406 123.925Q233.52 125.258 233.52 127.119Q233.52 128.979 232.333 130.378Q231.146 131.77 229.184 132.509Q227.221 133.242 224.914 133.242Q222.812 133.242 220.739 132.612Q218.673 131.982 216.959 130.722L218.007 128.503Q219.391 129.58 221.098 130.122Q222.812 130.664 224.547 130.664Q227.067 130.664 228.773 129.602Q230.487 128.532 230.487 126.672Q230.487 125.083 229.198 124.226Q227.909 123.369 225.573 123.369L220.893 123.369L220.893 120.937L225.36 120.937Q227.367 120.937 228.495 120.117Q229.623 119.289 229.623 117.817Q229.623 116.169 228.151 115.209Q226.679 114.25 224.43 114.25Q222.958 114.25 221.442 114.675Q219.933 115.092 218.578 115.927L217.619 113.474Q219.208 112.573 220.98 112.126Q222.753 111.672 224.518 111.672Q226.737 111.672 228.598 112.36Q230.458 113.049 231.549 114.375Q232.648 115.693 232.648 117.458Q232.648 119.047 231.762 120.249Q230.883 121.45 229.323 122.05ZM252.179 127.749L241.017 127.749L238.71 133L235.619 133L245.126 112.001L248.099 112.001L257.635 133L254.486 133L252.179 127.749ZM251.132 125.354L246.598 115.063L242.072 125.354L251.132 125.354ZM270.356 133.242Q267.207 133.242 264.673 131.85Q262.138 130.451 260.696 128.005Q259.26 125.559 259.26 122.497Q259.26 119.443 260.696 116.997Q262.138 114.55 264.687 113.159Q267.236 111.76 270.386 111.76Q272.846 111.76 274.883 112.587Q276.926 113.408 278.369 115.034L276.421 116.923Q274.048 114.433 270.51 114.433Q268.166 114.433 266.277 115.48Q264.387 116.528 263.318 118.374Q262.256 120.219 262.256 122.497Q262.256 124.782 263.318 126.628Q264.387 128.474 266.277 129.521Q268.166 130.568 270.51 130.568Q274.018 130.568 276.421 128.049L278.369 129.938Q276.926 131.557 274.868 132.399Q272.817 133.242 270.356 133.242ZM296.703 114.609L289.503 114.609L289.503 133L286.559 133L286.559 114.609L279.388 114.609L279.388 112.001L296.703 112.001L296.703 114.609ZM309.505 133.242Q306.326 133.242 303.777 131.85Q301.228 130.451 299.771 127.99Q298.321 125.529 298.321 122.497Q298.321 119.472 299.771 117.011Q301.228 114.55 303.777 113.159Q306.326 111.76 309.505 111.76Q312.654 111.76 315.203 113.159Q317.759 114.55 319.195 116.997Q320.638 119.443 320.638 122.497Q320.638 125.559 319.195 128.005Q317.759 130.451 315.203 131.85Q312.654 133.242 309.505 133.242ZM309.505 130.568Q311.819 130.568 313.665 129.521Q315.511 128.474 316.573 126.628Q317.635 124.782 317.635 122.497Q317.635 120.219 316.573 118.374Q315.511 116.528 313.665 115.48Q311.819 114.433 309.505 114.433Q307.198 114.433 305.323 115.48Q303.448 116.528 302.378 118.374Q301.316 120.219 301.316 122.497Q301.316 124.782 302.378 126.628Q303.448 128.474 305.323 129.521Q307.198 130.568 309.505 130.568ZM334.886 133.242Q331.737 133.242 329.203 131.85Q326.668 130.451 325.226 128.005Q323.79 125.559 323.79 122.497Q323.79 119.443 325.226 116.997Q326.668 114.55 329.217 113.159Q331.766 111.76 334.916 111.76Q337.376 111.76 339.413 112.587Q341.456 113.408 342.899 115.034L340.951 116.923Q338.578 114.433 335.04 114.433Q332.696 114.433 330.807 115.48Q328.917 116.528 327.848 118.374Q326.786 120.219 326.786 122.497Q326.786 124.782 327.848 126.628Q328.917 128.474 330.807 129.521Q332.696 130.568 335.04 130.568Q338.548 130.568 340.951 128.049L342.899 129.938Q341.456 131.557 339.398 132.399Q337.347 133.242 334.886 133.242ZM356.035 133.242Q352.856 133.242 350.307 131.85Q347.758 130.451 346.301 127.99Q344.851 125.529 344.851 122.497Q344.851 119.472 346.301 117.011Q347.758 114.55 350.307 113.159Q352.856 111.76 356.035 111.76Q359.184 111.76 361.733 113.159Q364.289 114.55 365.725 116.997Q367.168 119.443 367.168 122.497Q367.168 125.559 365.725 128.005Q364.289 130.451 361.733 131.85Q359.184 133.242 356.035 133.242ZM356.035 130.568Q358.349 130.568 360.195 129.521Q362.041 128.474 363.103 126.628Q364.165 124.782 364.165 122.497Q364.165 120.219 363.103 118.374Q362.041 116.528 360.195 115.48Q358.349 114.433 356.035 114.433Q353.728 114.433 351.853 115.48Q349.978 116.528 348.908 118.374Q347.846 120.219 347.846 122.497Q347.846 124.782 348.908 126.628Q349.978 128.474 351.853 129.521Q353.728 130.568 356.035 130.568ZM385.108 122.109Q387.239 122.622 388.33 123.925Q389.429 125.229 389.429 127.272Q389.429 129.997 387.429 131.499Q385.437 133 381.629 133L372.027 133L372.027 112.001L381.057 112.001Q384.507 112.001 386.441 113.4Q388.382 114.792 388.382 117.399Q388.382 119.113 387.525 120.314Q386.668 121.508 385.108 122.109ZM375 121.237L380.852 121.237Q383.042 121.237 384.192 120.373Q385.349 119.501 385.349 117.817Q385.349 116.14 384.177 115.253Q383.013 114.367 380.852 114.367L375 114.367L375 121.237ZM381.57 130.627Q386.397 130.627 386.397 127.031Q386.397 125.229 385.181 124.379Q383.972 123.522 381.57 123.522L375 123.522L375 130.627L381.57 130.627ZM411.327 112.001L402.003 129.309Q400.89 131.381 399.388 132.399Q397.887 133.417 396.121 133.417Q394.737 133.417 393.302 132.788L394.078 130.393Q395.191 130.781 396.063 130.781Q398.04 130.781 399.329 128.679L399.813 127.932L391.353 112.001L394.561 112.001L401.373 125.317L408.36 112.001L411.327 112.001ZM423.091 133.242Q420.088 133.242 417.686 131.85Q415.291 130.451 413.906 128.005Q412.529 125.559 412.529 122.504Q412.529 119.443 413.906 116.997Q415.291 114.55 417.686 113.159Q420.088 111.76 423.091 111.76Q425.669 111.76 427.771 112.602Q429.873 113.444 431.279 115.063L429.39 116.953Q427.024 114.462 423.237 114.462Q421.231 114.462 419.575 115.349Q417.927 116.235 416.88 117.824Q415.833 119.414 415.62 121.45L425.794 121.45L425.794 123.911L415.649 123.911Q415.95 125.859 416.997 127.36Q418.052 128.862 419.67 129.704Q421.289 130.539 423.237 130.539Q426.987 130.539 429.39 128.049L431.279 129.938Q429.873 131.564 427.756 132.407Q425.64 133.242 423.091 133.242ZM449.643 114.609L442.443 114.609L442.443 133L439.499 133L439.499 114.609L432.328 114.609L432.328 112.001L449.643 112.001L449.643 114.609ZM462.51 119.318Q466.26 119.318 468.253 121.003Q470.252 122.68 470.252 125.947Q470.252 129.396 468.106 131.198Q465.96 133 461.968 133L453.297 133L453.297 112.001L456.27 112.001L456.27 119.318L462.51 119.318ZM461.851 130.627Q464.459 130.627 465.85 129.448Q467.249 128.261 467.249 126.013Q467.249 121.691 461.851 121.691L456.27 121.691L456.27 130.627L461.851 130.627ZM484.076 133.242Q480.927 133.242 478.393 131.85Q475.858 130.451 474.416 128.005Q472.98 125.559 472.98 122.497Q472.98 119.443 474.416 116.997Q475.858 114.55 478.407 113.159Q480.956 111.76 484.106 111.76Q486.566 111.76 488.603 112.587Q490.646 113.408 492.089 115.034L490.141 116.923Q487.768 114.433 484.23 114.433Q481.886 114.433 479.997 115.48Q478.107 116.528 477.038 118.374Q475.976 120.219 475.976 122.497Q475.976 124.782 477.038 126.628Q478.107 128.474 479.997 129.521Q481.886 130.568 484.23 130.568Q487.738 130.568 490.141 128.049L492.089 129.938Q490.646 131.557 488.588 132.399Q486.537 133.242 484.076 133.242ZM511.112 112.001L511.112 133L508.168 133L508.168 126.877L502.382 126.877Q501.84 126.877 501.569 126.848L497.372 133L494.193 133L498.837 126.342Q496.588 125.588 495.387 123.837Q494.193 122.08 494.193 119.56Q494.193 115.993 496.486 114.001Q498.778 112.001 502.682 112.001L511.112 112.001ZM497.218 119.531Q497.218 121.867 498.58 123.112Q499.95 124.357 502.623 124.357L508.168 124.357L508.168 114.609L502.799 114.609Q500.096 114.609 498.654 115.869Q497.218 117.128 497.218 119.531ZM535.773 122.05Q537.75 122.592 538.856 123.925Q539.97 125.258 539.97 127.119Q539.97 128.979 538.783 130.378Q537.596 131.77 535.634 132.509Q533.671 133.242 531.364 133.242Q529.262 133.242 527.189 132.612Q525.123 131.982 523.409 130.722L524.457 128.503Q525.841 129.58 527.548 130.122Q529.262 130.664 530.997 130.664Q533.517 130.664 535.223 129.602Q536.937 128.532 536.937 126.672Q536.937 125.083 535.648 124.226Q534.359 123.369 532.023 123.369L527.343 123.369L527.343 120.937L531.81 120.937Q533.817 120.937 534.945 120.117Q536.073 119.289 536.073 117.817Q536.073 116.169 534.601 115.209Q533.129 114.25 530.88 114.25Q529.408 114.25 527.892 114.675Q526.383 115.092 525.028 115.927L524.069 113.474Q525.658 112.573 527.43 112.126Q529.203 111.672 530.968 111.672Q533.187 111.672 535.048 112.36Q536.908 113.049 537.999 114.375Q539.098 115.693 539.098 117.458Q539.098 119.047 538.212 120.249Q537.333 121.45 535.773 122.05Z" fill="#000000" fill-opacity="1.000000" fill-rule="evenodd"/>
	<path id="Застосовується з 1-го місяця" d="M559.052 112.001L559.052 133L554.189 133L554.189 115.898L549.992 115.898L549.992 112.001L559.052 112.001ZM562.888 121.779L571.889 121.779L571.889 126.877L562.888 126.877L562.888 121.779ZM585.139 122.658L579.119 122.658L579.119 133L574.48 133L574.48 119.001L585.139 119.001L585.139 122.658ZM592.819 133.322Q590.559 133.322 588.757 132.385Q586.96 131.442 585.94 129.772Q584.919 128.098 584.919 125.998Q584.919 123.898 585.94 122.229Q586.96 120.559 588.757 119.621Q590.559 118.679 592.819 118.679Q595.08 118.679 596.877 119.621Q598.679 120.559 599.699 122.229Q600.72 123.898 600.72 125.998Q600.72 128.098 599.699 129.772Q598.679 131.442 596.877 132.385Q595.08 133.322 592.819 133.322ZM592.819 129.499Q593.698 129.499 594.406 129.069Q595.119 128.64 595.539 127.849Q595.959 127.058 595.959 125.998Q595.959 124.938 595.539 124.152Q595.119 123.361 594.406 122.932Q593.698 122.502 592.819 122.502Q591.936 122.502 591.228 122.932Q590.52 123.361 590.1 124.152Q589.68 124.938 589.68 125.998Q589.68 127.058 590.1 127.849Q590.52 128.64 591.228 129.069Q591.936 129.499 592.819 129.499ZM628.556 133L628.527 120.432L622.353 130.781L620.192 130.781L614.01 120.673L614.01 133L609.448 133L609.448 112.001L613.469 112.001L621.327 125.053L629.069 112.001L633.09 112.001L633.119 133L628.556 133ZM638.337 112.001L643.171 112.001L643.171 133L638.337 133L638.337 112.001ZM658.319 133.359Q655.111 133.359 652.511 131.967Q649.918 130.568 648.431 128.093Q646.952 125.617 646.952 122.497Q646.952 119.377 648.431 116.909Q649.918 114.433 652.511 113.042Q655.111 111.643 658.348 111.643Q661.08 111.643 663.285 112.602Q665.49 113.562 666.991 115.363L663.871 118.242Q661.74 115.781 658.59 115.781Q656.642 115.781 655.111 116.638Q653.58 117.487 652.723 119.018Q651.866 120.549 651.866 122.497Q651.866 124.453 652.723 125.983Q653.58 127.507 655.111 128.364Q656.642 129.221 658.59 129.221Q661.74 129.221 663.871 126.73L666.991 129.609Q665.49 131.44 663.27 132.399Q661.051 133.359 658.319 133.359ZM686.52 112.001L686.52 133L681.723 133L681.723 127.419L677.277 127.419L673.563 133L668.429 133L672.809 126.672Q670.678 125.8 669.535 124.05Q668.4 122.292 668.4 119.831Q668.4 117.399 669.506 115.649Q670.619 113.891 672.655 112.946Q674.699 112.001 677.46 112.001L686.52 112.001ZM677.577 115.957Q675.512 115.957 674.413 116.923Q673.322 117.883 673.322 119.772Q673.322 121.604 674.369 122.592Q675.416 123.581 677.46 123.581L681.723 123.581L681.723 115.957L677.577 115.957ZM713.791 129.038L713.791 137.438L709.324 137.438L709.324 133L691.767 133L691.767 112.001L696.601 112.001L696.601 129.038L705.962 129.038L705.962 112.001L710.788 112.001L710.788 129.038L713.791 129.038ZM733.77 112.001L733.77 133L728.973 133L728.973 127.419L724.527 127.419L720.813 133L715.679 133L720.059 126.672Q717.928 125.8 716.785 124.05Q715.65 122.292 715.65 119.831Q715.65 117.399 716.756 115.649Q717.869 113.891 719.905 112.946Q721.949 112.001 724.71 112.001L733.77 112.001ZM724.827 115.957Q722.762 115.957 721.663 116.923Q720.572 117.883 720.572 119.772Q720.572 121.604 721.619 122.592Q722.666 123.581 724.71 123.581L728.973 123.581L728.973 115.957L724.827 115.957Z" fill="#0088D4" fill-opacity="1.000000" fill-rule="evenodd"/>
	<path id="Досліджений в понад 60 наукових центрах3" d="M239.276 527.393L239.276 534.592L236.493 534.592L236.493 530L219.208 530L219.179 534.592L216.388 534.592L216.417 527.393L217.443 527.393Q219.42 527.268 220.226 524.258Q221.039 521.24 221.222 515.747L221.427 509.001L236.193 509.001L236.193 527.393L239.276 527.393ZM223.859 516.018Q223.712 520.457 223.156 523.372Q222.599 526.279 221.369 527.393L233.219 527.393L233.219 511.609L224.013 511.609L223.859 516.018ZM252.835 530.242Q249.656 530.242 247.107 528.85Q244.558 527.451 243.101 524.99Q241.651 522.529 241.651 519.497Q241.651 516.472 243.101 514.011Q244.558 511.55 247.107 510.159Q249.656 508.76 252.835 508.76Q255.984 508.76 258.533 510.159Q261.089 511.55 262.525 513.997Q263.968 516.443 263.968 519.497Q263.968 522.559 262.525 525.005Q261.089 527.451 258.533 528.85Q255.984 530.242 252.835 530.242ZM252.835 527.568Q255.149 527.568 256.995 526.521Q258.841 525.474 259.903 523.628Q260.965 521.782 260.965 519.497Q260.965 517.219 259.903 515.374Q258.841 513.528 256.995 512.48Q255.149 511.433 252.835 511.433Q250.528 511.433 248.653 512.48Q246.778 513.528 245.708 515.374Q244.646 517.219 244.646 519.497Q244.646 521.782 245.708 523.628Q246.778 525.474 248.653 526.521Q250.528 527.568 252.835 527.568ZM278.216 530.242Q275.067 530.242 272.533 528.85Q269.998 527.451 268.556 525.005Q267.12 522.559 267.12 519.497Q267.12 516.443 268.556 513.997Q269.998 511.55 272.547 510.159Q275.096 508.76 278.246 508.76Q280.706 508.76 282.743 509.587Q284.786 510.408 286.229 512.034L284.281 513.923Q281.908 511.433 278.37 511.433Q276.026 511.433 274.137 512.48Q272.247 513.528 271.178 515.374Q270.116 517.219 270.116 519.497Q270.116 521.782 271.178 523.628Q272.247 525.474 274.137 526.521Q276.026 527.568 278.37 527.568Q281.878 527.568 284.281 525.049L286.229 526.938Q284.786 528.557 282.728 529.399Q280.677 530.242 278.216 530.242ZM306.987 509.001L306.987 530L304.05 530L304.05 511.609L294.748 511.609L294.543 517.761Q294.39 522.112 293.833 524.814Q293.284 527.51 292.082 528.879Q290.881 530.242 288.838 530.242Q287.908 530.242 286.948 530L287.161 527.327Q287.637 527.451 288.12 527.451Q289.409 527.451 290.185 526.418Q290.969 525.378 291.357 523.313Q291.753 521.24 291.87 517.849L292.2 509.001L306.987 509.001ZM313.527 509.001L316.5 509.001L316.5 530L313.527 530L313.527 509.001ZM342.776 527.393L342.776 534.592L339.993 534.592L339.993 530L322.708 530L322.679 534.592L319.888 534.592L319.917 527.393L320.943 527.393Q322.92 527.268 323.726 524.258Q324.539 521.24 324.722 515.747L324.927 509.001L339.693 509.001L339.693 527.393L342.776 527.393ZM327.359 516.018Q327.212 520.457 326.656 523.372Q326.099 526.279 324.869 527.393L336.719 527.393L336.719 511.609L327.513 511.609L327.359 516.018ZM364.531 520.757L360.539 520.757L360.539 530L357.602 530L357.602 520.757L353.581 520.757L347.7 530L344.191 530L351.12 519.08L344.697 509.001L347.912 509.001L353.522 518.12L357.602 518.12L357.602 509.001L360.539 509.001L360.539 518.12L364.56 518.12L370.2 509.001L373.408 509.001L366.992 519.138L373.92 530L370.412 530L364.531 520.757ZM392.308 527.393L392.308 530L377.067 530L377.067 509.001L391.883 509.001L391.883 511.609L380.07 511.609L380.07 518.062L390.594 518.062L390.594 520.61L380.07 520.61L380.07 527.393L392.308 527.393ZM415.078 509.001L415.078 530L412.075 530L412.075 520.64L400.02 520.64L400.02 530L397.017 530L397.017 509.001L400.02 509.001L400.02 518.032L412.075 518.032L412.075 509.001L415.078 509.001ZM421.617 509.001L424.59 509.001L424.59 525.203L437.012 509.001L439.773 509.001L439.773 530L436.829 530L436.829 513.828L424.378 530L421.617 530L421.617 509.001ZM446.307 509.001L449.28 509.001L449.28 525.203L461.702 509.001L464.463 509.001L464.463 530L461.519 530L461.519 513.828L449.068 530L446.307 530L446.307 509.001ZM455.337 507.529Q452.884 507.529 451.543 506.467Q450.21 505.398 450.181 503.42L452.312 503.42Q452.342 504.592 453.133 505.237Q453.931 505.881 455.337 505.881Q456.692 505.881 457.513 505.237Q458.34 504.592 458.37 503.42L460.472 503.42Q460.442 505.369 459.102 506.453Q457.769 507.529 455.337 507.529ZM492.148 519.109Q494.279 519.622 495.37 520.925Q496.469 522.229 496.469 524.272Q496.469 526.997 494.469 528.499Q492.477 530 488.669 530L479.067 530L479.067 509.001L488.097 509.001Q491.547 509.001 493.481 510.4Q495.422 511.792 495.422 514.399Q495.422 516.113 494.565 517.314Q493.708 518.508 492.148 519.109ZM482.04 518.237L487.892 518.237Q490.082 518.237 491.232 517.373Q492.389 516.501 492.389 514.817Q492.389 513.14 491.217 512.253Q490.053 511.367 487.892 511.367L482.04 511.367L482.04 518.237ZM488.61 527.627Q493.437 527.627 493.437 524.031Q493.437 522.229 492.221 521.379Q491.012 520.522 488.61 520.522L482.04 520.522L482.04 527.627L488.61 527.627ZM527.637 509.001L527.637 530L524.7 530L524.7 511.609L512.52 511.609L512.52 530L509.547 530L509.547 509.001L527.637 509.001ZM543.625 530.242Q540.446 530.242 537.897 528.85Q535.349 527.451 533.891 524.99Q532.441 522.529 532.441 519.497Q532.441 516.472 533.891 514.011Q535.349 511.55 537.897 510.159Q540.446 508.76 543.625 508.76Q546.774 508.76 549.323 510.159Q551.879 511.55 553.315 513.997Q554.758 516.443 554.758 519.497Q554.758 522.559 553.315 525.005Q551.879 527.451 549.323 528.85Q546.774 530.242 543.625 530.242ZM543.625 527.568Q545.939 527.568 547.785 526.521Q549.631 525.474 550.693 523.628Q551.755 521.782 551.755 519.497Q551.755 517.219 550.693 515.374Q549.631 513.528 547.785 512.48Q545.939 511.433 543.625 511.433Q541.318 511.433 539.443 512.48Q537.568 513.528 536.498 515.374Q535.436 517.219 535.436 519.497Q535.436 521.782 536.498 523.628Q537.568 525.474 539.443 526.521Q541.318 527.568 543.625 527.568ZM577.678 509.001L577.678 530L574.675 530L574.675 520.64L562.62 520.64L562.62 530L559.617 530L559.617 509.001L562.62 509.001L562.62 518.032L574.675 518.032L574.675 509.001L577.678 509.001ZM597.869 524.749L586.707 524.749L584.4 530L581.309 530L590.816 509.001L593.789 509.001L603.326 530L600.176 530L597.869 524.749ZM596.822 522.354L592.288 512.063L587.762 522.354L596.822 522.354ZM627.056 527.393L627.056 534.592L624.273 534.592L624.273 530L606.988 530L606.959 534.592L604.168 534.592L604.198 527.393L605.223 527.393Q607.2 527.268 608.006 524.258Q608.819 521.24 609.002 515.747L609.207 509.001L623.973 509.001L623.973 527.393L627.056 527.393ZM611.639 516.018Q611.492 520.457 610.936 523.372Q610.379 526.279 609.149 527.393L620.999 527.393L620.999 511.609L611.793 511.609L611.639 516.018ZM618.479 554.722Q620.28 554.993 621.24 555.953Q622.199 556.912 622.199 558.355Q622.199 559.432 621.555 560.362Q620.91 561.292 619.592 561.863Q618.273 562.435 616.347 562.435Q614.729 562.435 613.212 562.046Q611.704 561.651 610.832 561.021L612.033 558.626Q612.868 559.19 614.011 559.505Q615.153 559.82 616.289 559.82Q617.578 559.82 618.222 559.432Q618.867 559.043 618.867 558.355Q618.867 556.941 616.501 556.941L614.729 556.941L614.729 554.905L617.46 552.232L611.367 552.232L611.367 549.742L621.511 549.742L621.511 551.756L618.479 554.722Z" fill="#000000" fill-opacity="1.000000" fill-rule="evenodd"/>
	<path id="Досліджений в понад 60 наукових центрах3" d="M227.279 558.831Q229.293 558.831 230.941 559.644Q232.589 560.45 233.549 561.937Q234.508 563.423 234.508 565.372Q234.508 567.474 233.461 569.063Q232.414 570.652 230.597 571.509Q228.781 572.359 226.562 572.359Q222.152 572.359 219.662 569.664Q217.172 566.961 217.172 561.951Q217.172 558.377 218.52 555.828Q219.867 553.279 222.284 551.961Q224.701 550.643 227.88 550.643Q229.557 550.643 231.103 551.016Q232.648 551.39 233.732 552.078L231.93 555.652Q230.37 554.598 227.997 554.598Q225.331 554.598 223.771 556.158Q222.211 557.718 222.086 560.691Q223.947 558.831 227.279 558.831ZM226.291 568.733Q227.851 568.733 228.825 567.891Q229.799 567.049 229.799 565.613Q229.799 564.17 228.825 563.313Q227.851 562.457 226.232 562.457Q224.643 562.457 223.617 563.343Q222.599 564.229 222.599 565.613Q222.599 566.99 223.588 567.862Q224.577 568.733 226.291 568.733ZM245.283 572.359Q242.669 572.359 240.625 571.07Q238.589 569.781 237.432 567.334Q236.282 564.888 236.282 561.497Q236.282 558.113 237.432 555.667Q238.589 553.221 240.625 551.932Q242.669 550.643 245.283 550.643Q247.891 550.643 249.927 551.932Q251.97 553.221 253.12 555.667Q254.277 558.113 254.277 561.497Q254.277 564.888 253.12 567.334Q251.97 569.781 249.927 571.07Q247.891 572.359 245.283 572.359ZM245.283 568.25Q247.202 568.25 248.294 566.602Q249.392 564.947 249.392 561.497Q249.392 558.047 248.294 556.399Q247.202 554.751 245.283 554.751Q243.386 554.751 242.288 556.399Q241.196 558.047 241.196 561.497Q241.196 564.947 242.288 566.602Q243.386 568.25 245.283 568.25ZM285.84 551.001L285.84 572L280.977 572L280.977 563.387L271.441 563.387L271.441 572L266.577 572L266.577 551.001L271.441 551.001L271.441 559.278L280.977 559.278L280.977 551.001L285.84 551.001ZM305.311 567.503L295.562 567.503L293.702 572L288.722 572L298.082 551.001L302.879 551.001L312.269 572L307.171 572L305.311 567.503ZM303.78 563.812L300.455 555.77L297.123 563.812L303.78 563.812ZM332.94 551.001L323.997 567.62Q322.708 570.022 320.891 571.253Q319.082 572.483 316.951 572.483Q315.303 572.483 313.531 571.758L314.703 568.067Q315.962 568.462 316.797 568.462Q317.698 568.462 318.416 568.03Q319.141 567.591 319.742 566.661L319.917 566.419L311.641 551.001L316.827 551.001L322.408 562.281L328.172 551.001L332.94 551.001ZM343.377 563.541L340.023 563.541L340.023 572L335.189 572L335.189 551.001L340.023 551.001L340.023 559.49L343.502 559.49L349.017 551.001L354.151 551.001L347.281 561.138L354.356 572L348.841 572L343.377 563.541ZM366.574 572.359Q363.3 572.359 360.671 570.953Q358.049 569.539 356.562 567.063Q355.083 564.588 355.083 561.497Q355.083 558.414 356.562 555.938Q358.049 553.462 360.671 552.056Q363.3 550.643 366.574 550.643Q369.841 550.643 372.448 552.056Q375.063 553.462 376.557 555.938Q378.059 558.414 378.059 561.497Q378.059 564.588 376.557 567.063Q375.063 569.539 372.448 570.953Q369.841 572.359 366.574 572.359ZM366.574 568.221Q368.427 568.221 369.929 567.364Q371.43 566.507 372.287 564.983Q373.144 563.453 373.144 561.497Q373.144 559.549 372.287 558.018Q371.43 556.487 369.929 555.638Q368.427 554.781 366.574 554.781Q364.714 554.781 363.212 555.638Q361.711 556.487 360.854 558.018Q359.997 559.549 359.997 561.497Q359.997 563.453 360.854 564.983Q361.711 566.507 363.212 567.364Q364.714 568.221 366.574 568.221ZM396.361 561.05Q398.28 561.622 399.298 562.911Q400.323 564.2 400.323 566.089Q400.323 568.88 398.206 570.44Q396.09 572 392.157 572L381.807 572L381.807 551.001L391.593 551.001Q395.247 551.001 397.284 552.415Q399.327 553.821 399.327 556.429Q399.327 557.989 398.543 559.175Q397.767 560.362 396.361 561.05ZM386.641 559.703L391.168 559.703Q392.757 559.703 393.57 559.058Q394.383 558.414 394.383 557.146Q394.383 555.923 393.555 555.264Q392.728 554.598 391.168 554.598L386.641 554.598L386.641 559.703ZM391.981 568.396Q395.401 568.396 395.401 565.701Q395.401 563.086 391.981 563.086L386.641 563.086L386.641 568.396L391.981 568.396ZM404.157 551.001L408.991 551.001L408.991 564.683L419.011 551.001L423.567 551.001L423.567 572L418.769 572L418.769 558.348L408.75 572L404.157 572L404.157 551.001ZM432.567 551.001L436.917 557.359L441.268 551.001L446.973 551.001L439.979 561.05L447.537 572L441.81 572L436.917 565.042L432.091 572L426.48 572L433.98 561.263L426.956 551.001L432.567 551.001ZM480.961 568.038L480.961 576.438L476.494 576.438L476.494 572L458.937 572L458.937 551.001L463.771 551.001L463.771 568.038L473.132 568.038L473.132 551.001L477.958 551.001L477.958 568.038L480.961 568.038ZM500.427 568.104L500.427 572L484.167 572L484.167 551.001L500.039 551.001L500.039 554.898L488.994 554.898L488.994 559.461L498.75 559.461L498.75 563.24L488.994 563.24L488.994 568.104L500.427 568.104ZM523.62 551.001L523.62 572L518.757 572L518.757 563.387L509.221 563.387L509.221 572L504.357 572L504.357 551.001L509.221 551.001L509.221 559.278L518.757 559.278L518.757 551.001L523.62 551.001ZM544.922 554.957L538.198 554.957L538.198 572L533.401 572L533.401 554.957L526.707 554.957L526.707 551.001L544.922 551.001L544.922 554.957ZM557.067 551.001Q559.857 551.001 561.908 551.932Q563.966 552.862 565.072 554.576Q566.185 556.282 566.185 558.619Q566.185 560.933 565.072 562.662Q563.966 564.383 561.908 565.298Q559.857 566.207 557.067 566.207L552.841 566.207L552.841 572L547.977 572L547.977 551.001L557.067 551.001ZM556.796 562.251Q558.986 562.251 560.121 561.307Q561.264 560.362 561.264 558.619Q561.264 556.854 560.121 555.909Q558.986 554.957 556.796 554.957L552.841 554.957L552.841 562.251L556.796 562.251ZM582.571 567.503L572.823 567.503L570.962 572L565.982 572L575.342 551.001L580.139 551.001L589.529 572L584.431 572L582.571 567.503ZM581.04 563.812L577.715 555.77L574.383 563.812L581.04 563.812ZM595.017 551.001L599.367 557.359L603.718 551.001L609.423 551.001L602.429 561.05L609.987 572L604.26 572L599.367 565.042L594.541 572L588.93 572L596.43 561.263L589.406 551.001L595.017 551.001Z" fill="#0088D4" fill-opacity="1.000000" fill-rule="evenodd"/>
	<path id="Знижує ризик захворюваності ГРВІ та грипу більше ніж в 2,5 рази2" d="M229.323 377.05Q231.3 377.592 232.406 378.925Q233.52 380.258 233.52 382.119Q233.52 383.979 232.333 385.378Q231.146 386.77 229.184 387.509Q227.221 388.242 224.914 388.242Q222.812 388.242 220.739 387.612Q218.673 386.982 216.959 385.722L218.007 383.503Q219.391 384.58 221.098 385.122Q222.812 385.664 224.547 385.664Q227.067 385.664 228.773 384.602Q230.487 383.532 230.487 381.672Q230.487 380.083 229.198 379.226Q227.909 378.369 225.573 378.369L220.893 378.369L220.893 375.937L225.36 375.937Q227.367 375.937 228.495 375.117Q229.623 374.289 229.623 372.817Q229.623 371.169 228.151 370.209Q226.679 369.25 224.43 369.25Q222.958 369.25 221.442 369.675Q219.933 370.092 218.578 370.927L217.619 368.474Q219.208 367.573 220.98 367.126Q222.753 366.672 224.518 366.672Q226.737 366.672 228.598 367.36Q230.458 368.049 231.549 369.375Q232.648 370.693 232.648 372.458Q232.648 374.047 231.762 375.249Q230.883 376.45 229.323 377.05ZM256.588 367.001L256.588 388L253.585 388L253.585 378.64L241.53 378.64L241.53 388L238.527 388L238.527 367.001L241.53 367.001L241.53 376.032L253.585 376.032L253.585 367.001L256.588 367.001ZM263.127 367.001L266.1 367.001L266.1 383.203L278.522 367.001L281.283 367.001L281.283 388L278.339 388L278.339 371.828L265.888 388L263.127 388L263.127 367.001ZM305.461 378.757L301.469 378.757L301.469 388L298.532 388L298.532 378.757L294.511 378.757L288.63 388L285.121 388L292.05 377.08L285.627 367.001L288.842 367.001L294.452 376.12L298.532 376.12L298.532 367.001L301.469 367.001L301.469 376.12L305.49 376.12L311.13 367.001L314.338 367.001L307.922 377.138L314.85 388L311.342 388L305.461 378.757ZM335.307 367.001L325.983 384.309Q324.87 386.381 323.368 387.399Q321.867 388.417 320.101 388.417Q318.717 388.417 317.282 387.788L318.058 385.393Q319.171 385.781 320.043 385.781Q322.02 385.781 323.309 383.679L323.793 382.932L315.333 367.001L318.541 367.001L325.353 380.317L332.34 367.001L335.307 367.001ZM347.071 388.242Q344.068 388.242 341.666 386.85Q339.271 385.451 337.886 383.005Q336.509 380.559 336.509 377.504Q336.509 374.443 337.886 371.997Q339.271 369.55 341.666 368.159Q344.068 366.76 347.071 366.76Q349.649 366.76 351.751 367.602Q353.853 368.444 355.259 370.063L353.37 371.953Q351.004 369.462 347.217 369.462Q345.211 369.462 343.555 370.349Q341.907 371.235 340.86 372.824Q339.813 374.414 339.6 376.45L349.774 376.45L349.774 378.911L339.629 378.911Q339.93 380.859 340.977 382.36Q342.032 383.862 343.65 384.704Q345.269 385.539 347.217 385.539Q350.967 385.539 353.37 383.049L355.259 384.938Q353.853 386.564 351.736 387.407Q349.62 388.242 347.071 388.242ZM375.685 367.001Q379.765 367.001 382.101 368.95Q384.445 370.898 384.445 374.318Q384.445 377.739 382.101 379.694Q379.765 381.643 375.685 381.643L370.5 381.643L370.5 388L367.497 388L367.497 367.001L375.685 367.001ZM375.597 379.028Q378.446 379.028 379.948 377.819Q381.449 376.604 381.449 374.318Q381.449 372.041 379.948 370.825Q378.446 369.609 375.597 369.609L370.5 369.609L370.5 379.028L375.597 379.028ZM388.617 367.001L391.59 367.001L391.59 383.203L404.012 367.001L406.773 367.001L406.773 388L403.829 388L403.829 371.828L391.378 388L388.617 388L388.617 367.001ZM423.363 377.05Q425.34 377.592 426.446 378.925Q427.56 380.258 427.56 382.119Q427.56 383.979 426.373 385.378Q425.186 386.77 423.224 387.509Q421.261 388.242 418.954 388.242Q416.852 388.242 414.779 387.612Q412.713 386.982 410.999 385.722L412.047 383.503Q413.431 384.58 415.138 385.122Q416.852 385.664 418.587 385.664Q421.107 385.664 422.813 384.602Q424.527 383.532 424.527 381.672Q424.527 380.083 423.238 379.226Q421.949 378.369 419.613 378.369L414.933 378.369L414.933 375.937L419.4 375.937Q421.407 375.937 422.535 375.117Q423.663 374.289 423.663 372.817Q423.663 371.169 422.191 370.209Q420.719 369.25 418.47 369.25Q416.998 369.25 415.482 369.675Q413.973 370.092 412.618 370.927L411.659 368.474Q413.248 367.573 415.02 367.126Q416.793 366.672 418.558 366.672Q420.777 366.672 422.638 367.36Q424.498 368.049 425.589 369.375Q426.688 370.693 426.688 372.458Q426.688 374.047 425.802 375.249Q424.923 376.45 423.363 377.05ZM432.567 367.001L435.54 367.001L435.54 383.203L447.962 367.001L450.723 367.001L450.723 388L447.779 388L447.779 371.828L435.328 388L432.567 388L432.567 367.001ZM464.581 378.757L460.201 378.757L460.201 388L457.257 388L457.257 367.001L460.201 367.001L460.201 376.12L464.639 376.12L471.239 367.001L474.447 367.001L466.947 377.167L474.813 388L471.392 388L464.581 378.757ZM496.713 377.05Q498.69 377.592 499.796 378.925Q500.91 380.258 500.91 382.119Q500.91 383.979 499.723 385.378Q498.536 386.77 496.574 387.509Q494.611 388.242 492.304 388.242Q490.202 388.242 488.129 387.612Q486.063 386.982 484.349 385.722L485.397 383.503Q486.781 384.58 488.488 385.122Q490.202 385.664 491.937 385.664Q494.457 385.664 496.163 384.602Q497.877 383.532 497.877 381.672Q497.877 380.083 496.588 379.226Q495.299 378.369 492.963 378.369L488.283 378.369L488.283 375.937L492.75 375.937Q494.757 375.937 495.885 375.117Q497.013 374.289 497.013 372.817Q497.013 371.169 495.541 370.209Q494.069 369.25 491.82 369.25Q490.348 369.25 488.832 369.675Q487.323 370.092 485.968 370.927L485.009 368.474Q486.598 367.573 488.37 367.126Q490.143 366.672 491.908 366.672Q494.127 366.672 495.988 367.36Q497.848 368.049 498.939 369.375Q500.038 370.693 500.038 372.458Q500.038 374.047 499.152 375.249Q498.273 376.45 496.713 377.05ZM519.569 382.749L508.407 382.749L506.1 388L503.009 388L512.516 367.001L515.489 367.001L525.026 388L521.876 388L519.569 382.749ZM518.522 380.354L513.988 370.063L509.462 380.354L518.522 380.354ZM528.868 367.001L534.361 374.677L539.847 367.001L543.362 367.001L536.251 377.08L543.926 388L540.389 388L534.361 379.628L528.362 388L524.913 388L532.559 377.197L525.418 367.001L528.868 367.001ZM560.098 377.109Q562.229 377.622 563.32 378.925Q564.419 380.229 564.419 382.272Q564.419 384.997 562.419 386.499Q560.427 388 556.619 388L547.017 388L547.017 367.001L556.047 367.001Q559.497 367.001 561.431 368.4Q563.372 369.792 563.372 372.399Q563.372 374.113 562.515 375.314Q561.658 376.508 560.098 377.109ZM549.99 376.237L555.842 376.237Q558.032 376.237 559.182 375.373Q560.339 374.501 560.339 372.817Q560.339 371.14 559.167 370.253Q558.003 369.367 555.842 369.367L549.99 369.367L549.99 376.237ZM556.56 385.627Q561.387 385.627 561.387 382.031Q561.387 380.229 560.171 379.379Q558.962 378.522 556.56 378.522L549.99 378.522L549.99 385.627L556.56 385.627ZM578.875 388.242Q575.696 388.242 573.147 386.85Q570.599 385.451 569.141 382.99Q567.691 380.529 567.691 377.497Q567.691 374.472 569.141 372.011Q570.599 369.55 573.147 368.159Q575.696 366.76 578.875 366.76Q582.024 366.76 584.573 368.159Q587.129 369.55 588.565 371.997Q590.008 374.443 590.008 377.497Q590.008 380.559 588.565 383.005Q587.129 385.451 584.573 386.85Q582.024 388.242 578.875 388.242ZM578.875 385.568Q581.189 385.568 583.035 384.521Q584.881 383.474 585.943 381.628Q587.005 379.782 587.005 377.497Q587.005 375.219 585.943 373.374Q584.881 371.528 583.035 370.48Q581.189 369.433 578.875 369.433Q576.568 369.433 574.693 370.48Q572.818 371.528 571.748 373.374Q570.686 375.219 570.686 377.497Q570.686 379.782 571.748 381.628Q572.818 383.474 574.693 384.521Q576.568 385.568 578.875 385.568ZM603.055 367.001Q607.135 367.001 609.471 368.95Q611.815 370.898 611.815 374.318Q611.815 377.739 609.471 379.694Q607.135 381.643 603.055 381.643L597.87 381.643L597.87 388L594.867 388L594.867 367.001L603.055 367.001ZM602.967 379.028Q605.816 379.028 607.318 377.819Q608.819 376.604 608.819 374.318Q608.819 372.041 607.318 370.825Q605.816 369.609 602.967 369.609L597.87 369.609L597.87 379.028L602.967 379.028ZM633.389 366.76Q636.421 366.76 638.846 368.159Q641.277 369.55 642.669 371.997Q644.068 374.443 644.068 377.497Q644.068 380.559 642.669 383.005Q641.277 385.451 638.846 386.85Q636.421 388.242 633.389 388.242Q630.569 388.242 628.255 387.011Q625.948 385.781 624.505 383.62Q623.069 381.459 622.798 378.698L618.96 378.698L618.96 388L615.987 388L615.987 367.001L618.96 367.001L618.96 376.003L622.827 376.003Q623.157 373.33 624.615 371.235Q626.072 369.133 628.35 367.946Q630.628 366.76 633.389 366.76ZM633.389 385.539Q635.55 385.539 637.3 384.506Q639.058 383.474 640.061 381.643Q641.072 379.812 641.072 377.497Q641.072 375.19 640.061 373.359Q639.058 371.528 637.3 370.495Q635.55 369.462 633.389 369.462Q631.258 369.462 629.514 370.495Q627.779 371.528 626.775 373.359Q625.772 375.19 625.772 377.497Q625.772 379.812 626.775 381.643Q627.779 383.474 629.514 384.506Q631.258 385.539 633.389 385.539ZM662.038 377.109Q664.169 377.622 665.26 378.925Q666.359 380.229 666.359 382.272Q666.359 384.997 664.359 386.499Q662.367 388 658.559 388L648.957 388L648.957 367.001L657.987 367.001Q661.437 367.001 663.371 368.4Q665.312 369.792 665.312 372.399Q665.312 374.113 664.455 375.314Q663.598 376.508 662.038 377.109ZM651.93 376.237L657.782 376.237Q659.972 376.237 661.122 375.373Q662.279 374.501 662.279 372.817Q662.279 371.14 661.108 370.253Q659.943 369.367 657.782 369.367L651.93 369.367L651.93 376.237ZM658.5 385.627Q663.327 385.627 663.327 382.031Q663.327 380.229 662.111 379.379Q660.902 378.522 658.5 378.522L651.93 378.522L651.93 385.627L658.5 385.627ZM685.019 382.749L673.857 382.749L671.55 388L668.459 388L677.966 367.001L680.939 367.001L690.476 388L687.326 388L685.019 382.749ZM683.972 380.354L679.438 370.063L674.912 380.354L683.972 380.354ZM712.168 367.001L712.168 388L709.165 388L709.165 378.64L697.11 378.64L697.11 388L694.107 388L694.107 367.001L697.11 367.001L697.11 376.032L709.165 376.032L709.165 367.001L712.168 367.001ZM728.155 388.242Q724.976 388.242 722.427 386.85Q719.879 385.451 718.421 382.99Q716.971 380.529 716.971 377.497Q716.971 374.472 718.421 372.011Q719.879 369.55 722.427 368.159Q724.976 366.76 728.155 366.76Q731.304 366.76 733.853 368.159Q736.409 369.55 737.845 371.997Q739.288 374.443 739.288 377.497Q739.288 380.559 737.845 383.005Q736.409 385.451 733.853 386.85Q731.304 388.242 728.155 388.242ZM728.155 385.568Q730.469 385.568 732.315 384.521Q734.161 383.474 735.223 381.628Q736.285 379.782 736.285 377.497Q736.285 375.219 735.223 373.374Q734.161 371.528 732.315 370.48Q730.469 369.433 728.155 369.433Q725.848 369.433 723.973 370.48Q722.098 371.528 721.028 373.374Q719.966 375.219 719.966 377.497Q719.966 379.782 721.028 381.628Q722.098 383.474 723.973 384.521Q725.848 385.568 728.155 385.568ZM753.536 388.242Q750.387 388.242 747.853 386.85Q745.318 385.451 743.876 383.005Q742.44 380.559 742.44 377.497Q742.44 374.443 743.876 371.997Q745.318 369.55 747.867 368.159Q750.416 366.76 753.566 366.76Q756.026 366.76 758.063 367.587Q760.106 368.408 761.549 370.034L759.601 371.923Q757.228 369.433 753.69 369.433Q751.346 369.433 749.457 370.48Q747.567 371.528 746.498 373.374Q745.436 375.219 745.436 377.497Q745.436 379.782 746.498 381.628Q747.567 383.474 749.457 384.521Q751.346 385.568 753.69 385.568Q757.198 385.568 759.601 383.049L761.549 384.938Q760.106 386.557 758.048 387.399Q755.997 388.242 753.536 388.242ZM779.883 369.609L772.683 369.609L772.683 388L769.739 388L769.739 369.609L762.568 369.609L762.568 367.001L779.883 367.001L779.883 369.609ZM783.537 367.001L786.51 367.001L786.51 388L783.537 388L783.537 367.001ZM814.857 369.609L804.061 369.609L804.09 388L801.117 388L801.117 367.001L814.893 367.001L814.857 369.609ZM826.645 367.001Q830.725 367.001 833.061 368.95Q835.405 370.898 835.405 374.318Q835.405 377.739 833.061 379.694Q830.725 381.643 826.645 381.643L821.46 381.643L821.46 388L818.457 388L818.457 367.001L826.645 367.001ZM826.557 379.028Q829.406 379.028 830.908 377.819Q832.409 376.604 832.409 374.318Q832.409 372.041 830.908 370.825Q829.406 369.609 826.557 369.609L821.46 369.609L821.46 379.028L826.557 379.028ZM852.658 377.109Q854.789 377.622 855.88 378.925Q856.979 380.229 856.979 382.272Q856.979 384.997 854.979 386.499Q852.987 388 849.179 388L839.577 388L839.577 367.001L848.607 367.001Q852.057 367.001 853.991 368.4Q855.932 369.792 855.932 372.399Q855.932 374.113 855.075 375.314Q854.218 376.508 852.658 377.109ZM842.55 376.237L848.402 376.237Q850.592 376.237 851.742 375.373Q852.899 374.501 852.899 372.817Q852.899 371.14 851.728 370.253Q850.563 369.367 848.402 369.367L842.55 369.367L842.55 376.237ZM849.12 385.627Q853.947 385.627 853.947 382.031Q853.947 380.229 852.731 379.379Q851.522 378.522 849.12 378.522L842.55 378.522L842.55 385.627L849.12 385.627ZM861.987 367.001L864.96 367.001L864.96 388L861.987 388L861.987 367.001ZM233.703 411.609L226.503 411.609L226.503 430L223.559 430L223.559 411.609L216.388 411.609L216.388 409.001L233.703 409.001L233.703 411.609ZM249.959 424.749L238.797 424.749L236.49 430L233.399 430L242.906 409.001L245.879 409.001L255.415 430L252.266 430L249.959 424.749ZM248.912 422.354L244.378 412.063L239.852 422.354L248.912 422.354ZM280.857 411.609L270.061 411.609L270.09 430L267.117 430L267.117 409.001L280.893 409.001L280.857 411.609ZM292.645 409.001Q296.725 409.001 299.061 410.95Q301.405 412.898 301.405 416.318Q301.405 419.739 299.061 421.694Q296.725 423.643 292.645 423.643L287.46 423.643L287.46 430L284.457 430L284.457 409.001L292.645 409.001ZM292.557 421.028Q295.406 421.028 296.908 419.819Q298.409 418.604 298.409 416.318Q298.409 414.041 296.908 412.825Q295.406 411.609 292.557 411.609L287.46 411.609L287.46 421.028L292.557 421.028ZM305.577 409.001L308.55 409.001L308.55 425.203L320.972 409.001L323.733 409.001L323.733 430L320.789 430L320.789 413.828L308.338 430L305.577 430L305.577 409.001ZM348.357 409.001L348.357 430L345.42 430L345.42 411.609L333.24 411.609L333.24 430L330.267 430L330.267 409.001L348.357 409.001ZM372.087 409.001L362.763 426.309Q361.65 428.381 360.148 429.399Q358.647 430.417 356.881 430.417Q355.497 430.417 354.062 429.788L354.838 427.393Q355.951 427.781 356.823 427.781Q358.8 427.781 360.089 425.679L360.573 424.932L352.113 409.001L355.321 409.001L362.133 422.317L369.12 409.001L372.087 409.001ZM383.697 409.001L399.539 409.001L399.539 411.55L386.67 411.55L386.67 417.549L393.211 417.549Q396.961 417.549 398.909 419.109Q400.857 420.669 400.857 423.613Q400.857 426.697 398.741 428.352Q396.631 430 392.698 430L383.697 430L383.697 409.001ZM392.581 427.627Q395.159 427.627 396.507 426.638Q397.862 425.649 397.862 423.73Q397.862 419.922 392.581 419.922L386.67 419.922L386.67 427.627L392.581 427.627ZM405.627 409.001L408.6 409.001L408.6 430L405.627 430L405.627 409.001ZM432.027 409.001L432.027 430L429.09 430L429.09 411.609L419.788 411.609L419.583 417.761Q419.43 422.112 418.873 424.814Q418.324 427.51 417.122 428.879Q415.921 430.242 413.878 430.242Q412.948 430.242 411.988 430L412.201 427.327Q412.677 427.451 413.16 427.451Q414.449 427.451 415.225 426.418Q416.009 425.378 416.397 423.313Q416.793 421.24 416.91 417.849L417.24 409.001L432.027 409.001ZM447.78 416.318Q451.53 416.318 453.523 418.003Q455.522 419.68 455.522 422.947Q455.522 426.396 453.376 428.198Q451.23 430 447.238 430L438.567 430L438.567 409.001L441.54 409.001L441.54 416.318L447.78 416.318ZM447.121 427.627Q449.729 427.627 451.12 426.448Q452.519 425.261 452.519 423.013Q452.519 418.691 447.121 418.691L441.54 418.691L441.54 427.627L447.121 427.627ZM486.273 409.001L486.273 430L459.957 430L459.957 409.001L462.93 409.001L462.93 427.393L471.661 427.393L471.661 409.001L474.598 409.001L474.598 427.393L483.328 427.393L483.328 409.001L486.273 409.001ZM508.048 427.393L508.048 430L492.807 430L492.807 409.001L507.623 409.001L507.623 411.609L495.81 411.609L495.81 418.062L506.334 418.062L506.334 420.61L495.81 420.61L495.81 427.393L508.048 427.393ZM538.888 409.001L538.888 430L535.885 430L535.885 420.64L523.83 420.64L523.83 430L520.827 430L520.827 409.001L523.83 409.001L523.83 418.032L535.885 418.032L535.885 409.001L538.888 409.001ZM545.427 409.001L548.4 409.001L548.4 430L545.427 430L545.427 409.001ZM572.581 420.757L568.589 420.757L568.589 430L565.652 430L565.652 420.757L561.631 420.757L555.75 430L552.241 430L559.17 419.08L552.747 409.001L555.962 409.001L561.572 418.12L565.652 418.12L565.652 409.001L568.589 409.001L568.589 418.12L572.61 418.12L578.25 409.001L581.458 409.001L575.042 419.138L581.97 430L578.462 430L572.581 420.757ZM606.958 419.109Q609.089 419.622 610.18 420.925Q611.279 422.229 611.279 424.272Q611.279 426.997 609.279 428.499Q607.287 430 603.479 430L593.877 430L593.877 409.001L602.907 409.001Q606.357 409.001 608.291 410.4Q610.232 411.792 610.232 414.399Q610.232 416.113 609.375 417.314Q608.518 418.508 606.958 419.109ZM596.85 418.237L602.702 418.237Q604.892 418.237 606.042 417.373Q607.199 416.501 607.199 414.817Q607.199 413.14 606.027 412.253Q604.863 411.367 602.702 411.367L596.85 411.367L596.85 418.237ZM603.42 427.627Q608.247 427.627 608.247 424.031Q608.247 422.229 607.031 421.379Q605.822 420.522 603.42 420.522L596.85 420.522L596.85 427.627L603.42 427.627ZM774.057 417.673L774.057 420.193L763.59 420.193L763.59 418.186L768.783 413.682Q769.618 412.964 769.933 412.473Q770.248 411.975 770.248 411.521Q770.248 410.891 769.706 410.503Q769.172 410.115 768.088 410.115Q767.187 410.115 766.454 410.459Q765.722 410.803 765.297 411.404L762.902 409.961Q763.649 408.826 765.026 408.167Q766.41 407.5 768.359 407.5Q770.79 407.5 772.182 408.555Q773.581 409.602 773.581 411.279Q773.581 412.246 773.083 413.103Q772.592 413.953 771.208 415.154L768.329 417.673L774.057 417.673Z" fill="#000000" fill-opacity="1.000000" fill-rule="evenodd"/>
	<path id="Знижує ризик захворюваності ГРВІ та грипу більше ніж в 2,5 рази2" d="M638.37 426.038L638.37 430L622.499 430L622.499 426.851L630.599 419.197Q631.888 417.974 632.335 417.087Q632.789 416.201 632.789 415.33Q632.789 414.07 631.932 413.396Q631.083 412.722 629.427 412.722Q628.051 412.722 626.937 413.25Q625.831 413.77 625.077 414.817L621.539 412.539Q622.77 410.708 624.93 409.675Q627.091 408.643 629.882 408.643Q632.218 408.643 633.976 409.412Q635.734 410.173 636.708 411.565Q637.682 412.957 637.682 414.854Q637.682 416.56 636.957 418.062Q636.239 419.563 634.174 421.482L629.34 426.038L638.37 426.038ZM643.472 424.419Q644.732 424.419 645.538 425.217Q646.351 426.008 646.351 427.297Q646.351 427.898 646.197 428.499Q646.051 429.099 645.538 430.3L643.831 434.622L640.858 434.622L642.183 429.854Q641.429 429.553 640.99 428.879Q640.557 428.198 640.557 427.297Q640.557 426.008 641.385 425.217Q642.213 424.419 643.472 424.419ZM655.742 416.89Q660.18 416.89 662.297 418.662Q664.413 420.427 664.413 423.401Q664.413 425.32 663.447 426.895Q662.487 428.469 660.524 429.414Q658.561 430.359 655.683 430.359Q653.456 430.359 651.31 429.773Q649.172 429.187 647.67 428.11L649.589 424.39Q650.79 425.291 652.35 425.789Q653.911 426.279 655.558 426.279Q657.39 426.279 658.437 425.562Q659.492 424.836 659.492 423.547Q659.492 422.2 658.393 421.511Q657.302 420.823 654.599 420.823L649.23 420.823L650.307 409.001L663.117 409.001L663.117 412.898L654.357 412.898L654.028 416.89L655.742 416.89ZM685.407 409.001Q688.197 409.001 690.248 409.932Q692.306 410.862 693.412 412.576Q694.525 414.282 694.525 416.619Q694.525 418.933 693.412 420.662Q692.306 422.383 690.248 423.298Q688.197 424.207 685.407 424.207L681.181 424.207L681.181 430L676.317 430L676.317 409.001L685.407 409.001ZM685.136 420.251Q687.326 420.251 688.461 419.307Q689.604 418.362 689.604 416.619Q689.604 414.854 688.461 413.909Q687.326 412.957 685.136 412.957L681.181 412.957L681.181 420.251L685.136 420.251ZM710.911 425.503L701.162 425.503L699.302 430L694.322 430L703.682 409.001L708.479 409.001L717.869 430L712.771 430L710.911 425.503ZM709.38 421.812L706.055 413.77L702.723 421.812L709.38 421.812ZM732.603 419.05Q734.427 419.68 735.46 421.021Q736.5 422.354 736.5 424.119Q736.5 426.038 735.24 427.451Q733.98 428.857 731.834 429.612Q729.688 430.359 727.139 430.359Q724.979 430.359 722.833 429.824Q720.687 429.282 718.768 428.169L720.269 424.69Q721.654 425.532 723.316 425.964Q724.979 426.396 726.568 426.396Q728.729 426.396 730.15 425.62Q731.578 424.836 731.578 423.43Q731.578 422.258 730.604 421.658Q729.63 421.057 727.952 421.057L722.818 421.057L722.818 417.402L727.593 417.402Q729.058 417.402 729.886 416.802Q730.714 416.201 730.714 415.146Q730.714 413.923 729.527 413.235Q728.341 412.539 726.48 412.539Q725.103 412.539 723.631 412.92Q722.159 413.293 720.841 414.041L719.368 410.261Q722.701 408.547 726.568 408.547Q729.029 408.547 731.094 409.272Q733.167 409.99 734.398 411.375Q735.628 412.751 735.628 414.583Q735.628 416.077 734.815 417.249Q734.009 418.42 732.603 419.05ZM740.337 409.001L745.171 409.001L745.171 422.683L755.191 409.001L759.747 409.001L759.747 430L754.949 430L754.949 416.348L744.93 430L740.337 430L740.337 409.001Z" fill="#0088D4" fill-opacity="1.000000" fill-rule="evenodd"/>
	<g filter="url(#filter_89_14058_dd)">
		<ellipse id="Ellipse 16" cx="129.500000" cy="397.820312" rx="42.500000" ry="42.819550" fill="url(#paint_linear_89_14059_0)" fill-opacity="1.000000"/>
		<path id="Vector" d="M124.961 422.82L124.582 422.17C118.784 412.248 103.378 391.189 103.222 390.979L103 390.676L108.249 385.465L124.864 397.119C135.325 383.482 145.084 374.115 151.451 368.646C158.415 362.664 162.948 359.908 162.994 359.883L163.097 359.82L172 359.82L171.149 360.582C149.277 380.152 125.569 421.748 125.333 422.166L124.961 422.82Z" fill="#FFFFFF" fill-opacity="1.000000" fill-rule="evenodd"/>
	</g>
	<g filter="url(#filter_89_14061_dd)">
		<ellipse id="Ellipse 16" cx="129.500000" cy="539.820312" rx="42.500000" ry="42.819550" fill="url(#paint_linear_89_14062_0)" fill-opacity="1.000000"/>
		<path id="Vector" d="M124.961 564.82L124.582 564.17C118.784 554.248 103.378 533.189 103.222 532.979L103 532.676L108.249 527.465L124.864 539.119C135.325 525.482 145.084 516.115 151.451 510.646C158.415 504.664 162.948 501.908 162.994 501.883L163.097 501.82L172 501.82L171.149 502.582C149.277 522.152 125.569 563.748 125.333 564.166L124.961 564.82Z" fill="#FFFFFF" fill-opacity="1.000000" fill-rule="evenodd"/>
	</g>
	<g filter="url(#filter_89_14051_dd)">
		<ellipse id="Ellipse 16" cx="129.500000" cy="259.820312" rx="42.500000" ry="42.819550" fill="url(#paint_linear_84_5549_0)" fill-opacity="1.000000"/>
		<path id="Vector" d="M124.961 284.82L124.582 284.17C118.784 274.248 103.378 253.189 103.222 252.979L103 252.676L108.249 247.465L124.864 259.119C135.325 245.482 145.084 236.115 151.451 230.646C158.415 224.664 162.948 221.908 162.994 221.883L163.097 221.82L172 221.82L171.149 222.582C149.277 242.152 125.569 283.748 125.333 284.166L124.961 284.82Z" fill="#FFFFFF" fill-opacity="1.000000" fill-rule="evenodd"/>
	</g>
	<g filter="url(#filter_93_282_dd)">
		<ellipse id="Ellipse 16" cx="129.500000" cy="121.820312" rx="42.500000" ry="42.819550" fill="url(#paint_linear_93_283_0)" fill-opacity="1.000000"/>
		<path id="Vector" d="M124.961 146.82L124.582 146.17C118.784 136.248 103.378 115.189 103.222 114.979L103 114.676L108.249 109.465L124.864 121.119C135.325 107.482 145.084 98.1152 151.451 92.6465C158.415 86.6641 162.948 83.9082 162.994 83.8828L163.097 83.8203L172 83.8203L171.149 84.582C149.277 104.152 125.569 145.748 125.333 146.166L124.961 146.82Z" fill="#FFFFFF" fill-opacity="1.000000" fill-rule="evenodd"/>
	</g>
</svg>
