<svg width="967.000000" height="650.000000" viewBox="0 0 967 650" fill="none" xmlns="http://www.w3.org/2000/svg" xmlns:xlink="http://www.w3.org/1999/xlink">
	<desc>
			Created with Pixso.
	</desc>
	<defs>
		<filter id="filter_89_14099_dd" x="65.000000" y="102.000000" width="93.000000" height="93.638672" filterUnits="userSpaceOnUse" color-interpolation-filters="sRGB">
			<feFlood flood-opacity="0" result="BackgroundImageFix"/>
			<feColorMatrix in="SourceAlpha" type="matrix" values="0 0 0 0 0 0 0 0 0 0 0 0 0 0 0 0 0 0 127 0" result="hardAlpha"/>
			<feOffset dx="0" dy="4"/>
			<feGaussianBlur stdDeviation="1.33333"/>
			<feComposite in2="hardAlpha" operator="out" k2="-1" k3="1"/>
			<feColorMatrix type="matrix" values="0 0 0 0 0 0 0 0 0 0 0 0 0 0 0 0 0 0 0.25 0"/>
			<feBlend mode="normal" in2="BackgroundImageFix" result="effect_dropShadow_1"/>
			<feBlend mode="normal" in="SourceGraphic" in2="effect_dropShadow_1" result="shape"/>
		</filter>
		<linearGradient id="paint_linear_89_14100_0" x1="111.500000" y1="102.000000" x2="111.500000" y2="187.639099" gradientUnits="userSpaceOnUse">
			<stop stop-color="#516ACF"/>
			<stop offset="1.000000" stop-color="#A9BAFF"/>
		</linearGradient>
		<filter id="filter_89_14102_dd" x="65.000000" y="279.000000" width="93.000000" height="93.638672" filterUnits="userSpaceOnUse" color-interpolation-filters="sRGB">
			<feFlood flood-opacity="0" result="BackgroundImageFix"/>
			<feColorMatrix in="SourceAlpha" type="matrix" values="0 0 0 0 0 0 0 0 0 0 0 0 0 0 0 0 0 0 127 0" result="hardAlpha"/>
			<feOffset dx="0" dy="4"/>
			<feGaussianBlur stdDeviation="1.33333"/>
			<feComposite in2="hardAlpha" operator="out" k2="-1" k3="1"/>
			<feColorMatrix type="matrix" values="0 0 0 0 0 0 0 0 0 0 0 0 0 0 0 0 0 0 0.25 0"/>
			<feBlend mode="normal" in2="BackgroundImageFix" result="effect_dropShadow_1"/>
			<feBlend mode="normal" in="SourceGraphic" in2="effect_dropShadow_1" result="shape"/>
		</filter>
		<linearGradient id="paint_linear_89_14103_0" x1="111.500000" y1="279.000000" x2="111.500000" y2="364.639099" gradientUnits="userSpaceOnUse">
			<stop stop-color="#516ACF"/>
			<stop offset="1.000000" stop-color="#A9BAFF"/>
		</linearGradient>
		<filter id="filter_89_14105_dd" x="65.000000" y="459.000000" width="93.000000" height="93.638672" filterUnits="userSpaceOnUse" color-interpolation-filters="sRGB">
			<feFlood flood-opacity="0" result="BackgroundImageFix"/>
			<feColorMatrix in="SourceAlpha" type="matrix" values="0 0 0 0 0 0 0 0 0 0 0 0 0 0 0 0 0 0 127 0" result="hardAlpha"/>
			<feOffset dx="0" dy="4"/>
			<feGaussianBlur stdDeviation="1.33333"/>
			<feComposite in2="hardAlpha" operator="out" k2="-1" k3="1"/>
			<feColorMatrix type="matrix" values="0 0 0 0 0 0 0 0 0 0 0 0 0 0 0 0 0 0 0.25 0"/>
			<feBlend mode="normal" in2="BackgroundImageFix" result="effect_dropShadow_1"/>
			<feBlend mode="normal" in="SourceGraphic" in2="effect_dropShadow_1" result="shape"/>
		</filter>
		<linearGradient id="paint_linear_89_14106_0" x1="111.500000" y1="459.000000" x2="111.500000" y2="544.639099" gradientUnits="userSpaceOnUse">
			<stop stop-color="#516ACF"/>
			<stop offset="1.000000" stop-color="#A9BAFF"/>
		</linearGradient>
	</defs>
	<path id="Rectangle 30" d="M642 650L0 650L0 0L642 0C821.493 0 967 145.508 967 325C967 504.492 821.493 650 642 650Z" fill="#F1F4FF" fill-opacity="1.000000" fill-rule="evenodd"/>
	<path id="Більше 18 років успішного застосування в Україні1" d="M195.267 114.001L211.109 114.001L211.109 116.55L198.24 116.55L198.24 122.549L204.781 122.549Q208.531 122.549 210.479 124.109Q212.427 125.669 212.427 128.613Q212.427 131.697 210.311 133.352Q208.201 135 204.268 135L195.267 135L195.267 114.001ZM204.151 132.627Q206.729 132.627 208.077 131.638Q209.432 130.649 209.432 128.73Q209.432 124.922 204.151 124.922L198.24 124.922L198.24 132.627L204.151 132.627ZM217.197 114.001L220.17 114.001L220.17 135L217.197 135L217.197 114.001ZM243.597 114.001L243.597 135L240.66 135L240.66 116.609L231.358 116.609L231.153 122.761Q231 127.112 230.443 129.814Q229.894 132.51 228.692 133.879Q227.491 135.242 225.448 135.242Q224.518 135.242 223.558 135L223.771 132.327Q224.247 132.451 224.73 132.451Q226.019 132.451 226.795 131.418Q227.579 130.378 227.967 128.313Q228.363 126.24 228.48 122.849L228.81 114.001L243.597 114.001ZM259.35 121.318Q263.1 121.318 265.093 123.003Q267.092 124.68 267.092 127.947Q267.092 131.396 264.946 133.198Q262.8 135 258.808 135L250.137 135L250.137 114.001L253.11 114.001L253.11 121.318L259.35 121.318ZM258.691 132.627Q261.299 132.627 262.69 131.448Q264.089 130.261 264.089 128.013Q264.089 123.691 258.691 123.691L253.11 123.691L253.11 132.627L258.691 132.627ZM297.843 114.001L297.843 135L271.527 135L271.527 114.001L274.5 114.001L274.5 132.393L283.231 132.393L283.231 114.001L286.168 114.001L286.168 132.393L294.898 132.393L294.898 114.001L297.843 114.001ZM319.618 132.393L319.618 135L304.377 135L304.377 114.001L319.193 114.001L319.193 116.609L307.38 116.609L307.38 123.062L317.904 123.062L317.904 125.61L307.38 125.61L307.38 132.393L319.618 132.393ZM498.897 114.001L489.573 131.309Q488.46 133.381 486.958 134.399Q485.457 135.417 483.691 135.417Q482.307 135.417 480.872 134.788L481.648 132.393Q482.761 132.781 483.633 132.781Q485.61 132.781 486.899 130.679L487.383 129.932L478.923 114.001L482.131 114.001L488.943 127.317L495.93 114.001L498.897 114.001ZM511.166 135.242Q508.017 135.242 505.483 133.85Q502.948 132.451 501.506 130.005Q500.07 127.559 500.07 124.497Q500.07 121.443 501.506 118.997Q502.948 116.55 505.497 115.159Q508.046 113.76 511.196 113.76Q513.656 113.76 515.693 114.587Q517.736 115.408 519.179 117.034L517.231 118.923Q514.858 116.433 511.32 116.433Q508.976 116.433 507.087 117.48Q505.197 118.528 504.128 120.374Q503.066 122.219 503.066 124.497Q503.066 126.782 504.128 128.628Q505.197 130.474 507.087 131.521Q508.976 132.568 511.32 132.568Q514.828 132.568 517.231 130.049L519.179 131.938Q517.736 133.557 515.678 134.399Q513.627 135.242 511.166 135.242ZM541.407 114.001L541.407 135L538.47 135L538.47 116.609L526.29 116.609L526.29 135L523.317 135L523.317 114.001L541.407 114.001ZM547.947 114.001L550.92 114.001L550.92 135L547.947 135L547.947 114.001ZM583.773 114.001L583.773 135L557.457 135L557.457 114.001L560.43 114.001L560.43 132.393L569.161 132.393L569.161 114.001L572.098 114.001L572.098 132.393L580.828 132.393L580.828 114.001L583.773 114.001ZM608.368 114.001L608.368 135L605.365 135L605.365 125.64L593.31 125.64L593.31 135L590.307 135L590.307 114.001L593.31 114.001L593.31 123.032L605.365 123.032L605.365 114.001L608.368 114.001ZM624.355 135.242Q621.176 135.242 618.627 133.85Q616.078 132.451 614.621 129.99Q613.171 127.529 613.171 124.497Q613.171 121.472 614.621 119.011Q616.078 116.55 618.627 115.159Q621.176 113.76 624.355 113.76Q627.504 113.76 630.053 115.159Q632.609 116.55 634.045 118.997Q635.488 121.443 635.488 124.497Q635.488 127.559 634.045 130.005Q632.609 132.451 630.053 133.85Q627.504 135.242 624.355 135.242ZM624.355 132.568Q626.669 132.568 628.515 131.521Q630.361 130.474 631.423 128.628Q632.485 126.782 632.485 124.497Q632.485 122.219 631.423 120.374Q630.361 118.528 628.515 117.48Q626.669 116.433 624.355 116.433Q622.048 116.433 620.173 117.48Q618.298 118.528 617.228 120.374Q616.166 122.219 616.166 124.497Q616.166 126.782 617.228 128.628Q618.298 130.474 620.173 131.521Q622.048 132.568 624.355 132.568ZM654.087 116.609L643.291 116.609L643.32 135L640.347 135L640.347 114.001L654.124 114.001L654.087 116.609ZM664.495 135.242Q661.316 135.242 658.767 133.85Q656.219 132.451 654.761 129.99Q653.311 127.529 653.311 124.497Q653.311 121.472 654.761 119.011Q656.219 116.55 658.767 115.159Q661.316 113.76 664.495 113.76Q667.644 113.76 670.193 115.159Q672.749 116.55 674.185 118.997Q675.628 121.443 675.628 124.497Q675.628 127.559 674.185 130.005Q672.749 132.451 670.193 133.85Q667.644 135.242 664.495 135.242ZM664.495 132.568Q666.809 132.568 668.655 131.521Q670.501 130.474 671.563 128.628Q672.625 126.782 672.625 124.497Q672.625 122.219 671.563 120.374Q670.501 118.528 668.655 117.48Q666.809 116.433 664.495 116.433Q662.188 116.433 660.313 117.48Q658.438 118.528 657.368 120.374Q656.306 122.219 656.306 124.497Q656.306 126.782 657.368 128.628Q658.438 130.474 660.313 131.521Q662.188 132.568 664.495 132.568ZM205.323 166.05Q207.3 166.592 208.406 167.925Q209.52 169.258 209.52 171.119Q209.52 172.979 208.333 174.378Q207.146 175.77 205.184 176.509Q203.221 177.242 200.914 177.242Q198.812 177.242 196.739 176.612Q194.673 175.982 192.959 174.722L194.007 172.503Q195.391 173.58 197.098 174.122Q198.812 174.664 200.547 174.664Q203.067 174.664 204.773 173.602Q206.487 172.532 206.487 170.672Q206.487 169.083 205.198 168.226Q203.909 167.369 201.573 167.369L196.893 167.369L196.893 164.937L201.36 164.937Q203.367 164.937 204.495 164.117Q205.623 163.289 205.623 161.817Q205.623 160.169 204.151 159.209Q202.679 158.25 200.43 158.25Q198.958 158.25 197.442 158.675Q195.933 159.092 194.578 159.927L193.619 157.474Q195.208 156.573 196.98 156.126Q198.753 155.672 200.518 155.672Q202.737 155.672 204.598 156.36Q206.458 157.049 207.549 158.375Q208.648 159.693 208.648 161.458Q208.648 163.047 207.762 164.249Q206.883 165.45 205.323 166.05ZM228.179 171.749L217.017 171.749L214.71 177L211.619 177L221.126 156.001L224.099 156.001L233.635 177L230.486 177L228.179 171.749ZM227.132 169.354L222.598 159.063L218.072 169.354L227.132 169.354ZM246.356 177.242Q243.207 177.242 240.673 175.85Q238.138 174.451 236.696 172.005Q235.26 169.559 235.26 166.497Q235.26 163.443 236.696 160.997Q238.138 158.55 240.687 157.159Q243.236 155.76 246.386 155.76Q248.846 155.76 250.883 156.587Q252.926 157.408 254.369 159.034L252.421 160.923Q250.048 158.433 246.51 158.433Q244.166 158.433 242.277 159.48Q240.387 160.528 239.318 162.374Q238.256 164.219 238.256 166.497Q238.256 168.782 239.318 170.628Q240.387 172.474 242.277 173.521Q244.166 174.568 246.51 174.568Q250.018 174.568 252.421 172.049L254.369 173.938Q252.926 175.557 250.868 176.399Q248.817 177.242 246.356 177.242ZM272.703 158.609L265.503 158.609L265.503 177L262.559 177L262.559 158.609L255.388 158.609L255.388 156.001L272.703 156.001L272.703 158.609ZM285.505 177.242Q282.326 177.242 279.777 175.85Q277.228 174.451 275.771 171.99Q274.321 169.529 274.321 166.497Q274.321 163.472 275.771 161.011Q277.228 158.55 279.777 157.159Q282.326 155.76 285.505 155.76Q288.654 155.76 291.203 157.159Q293.759 158.55 295.195 160.997Q296.638 163.443 296.638 166.497Q296.638 169.559 295.195 172.005Q293.759 174.451 291.203 175.85Q288.654 177.242 285.505 177.242ZM285.505 174.568Q287.819 174.568 289.665 173.521Q291.511 172.474 292.573 170.628Q293.635 168.782 293.635 166.497Q293.635 164.219 292.573 162.374Q291.511 160.528 289.665 159.48Q287.819 158.433 285.505 158.433Q283.198 158.433 281.323 159.48Q279.448 160.528 278.378 162.374Q277.316 164.219 277.316 166.497Q277.316 168.782 278.378 170.628Q279.448 172.474 281.323 173.521Q283.198 174.568 285.505 174.568ZM310.886 177.242Q307.737 177.242 305.203 175.85Q302.668 174.451 301.226 172.005Q299.79 169.559 299.79 166.497Q299.79 163.443 301.226 160.997Q302.668 158.55 305.217 157.159Q307.766 155.76 310.916 155.76Q313.376 155.76 315.413 156.587Q317.456 157.408 318.899 159.034L316.951 160.923Q314.578 158.433 311.04 158.433Q308.696 158.433 306.807 159.48Q304.917 160.528 303.848 162.374Q302.786 164.219 302.786 166.497Q302.786 168.782 303.848 170.628Q304.917 172.474 306.807 173.521Q308.696 174.568 311.04 174.568Q314.548 174.568 316.951 172.049L318.899 173.938Q317.456 175.557 315.398 176.399Q313.347 177.242 310.886 177.242ZM339.717 156.001L330.393 173.309Q329.28 175.381 327.778 176.399Q326.277 177.417 324.511 177.417Q323.127 177.417 321.692 176.788L322.468 174.393Q323.581 174.781 324.453 174.781Q326.43 174.781 327.719 172.679L328.203 171.932L319.743 156.001L322.951 156.001L329.763 169.317L336.75 156.001L339.717 156.001ZM355.888 166.109Q358.019 166.622 359.11 167.925Q360.209 169.229 360.209 171.272Q360.209 173.997 358.209 175.499Q356.217 177 352.409 177L342.807 177L342.807 156.001L351.837 156.001Q355.287 156.001 357.221 157.4Q359.162 158.792 359.162 161.399Q359.162 163.113 358.305 164.314Q357.448 165.508 355.888 166.109ZM345.78 165.237L351.632 165.237Q353.822 165.237 354.972 164.373Q356.129 163.501 356.129 161.817Q356.129 160.14 354.957 159.253Q353.793 158.367 351.632 158.367L345.78 158.367L345.78 165.237ZM352.35 174.627Q357.177 174.627 357.177 171.031Q357.177 169.229 355.961 168.379Q354.752 167.522 352.35 167.522L345.78 167.522L345.78 174.627L352.35 174.627ZM378.869 171.749L367.707 171.749L365.4 177L362.309 177L371.816 156.001L374.789 156.001L384.326 177L381.176 177L378.869 171.749ZM377.822 169.354L373.288 159.063L368.762 169.354L377.822 169.354ZM406.018 156.001L406.018 177L403.015 177L403.015 167.64L390.96 167.64L390.96 177L387.957 177L387.957 156.001L390.96 156.001L390.96 165.032L403.015 165.032L403.015 156.001L406.018 156.001ZM430.618 156.001L430.618 177L427.615 177L427.615 167.64L415.56 167.64L415.56 177L412.557 177L412.557 156.001L415.56 156.001L415.56 165.032L427.615 165.032L427.615 156.001L430.618 156.001ZM452.552 156.001L452.552 177L449.608 177L449.608 170.877L443.822 170.877Q443.28 170.877 443.009 170.848L438.812 177L435.633 177L440.277 170.342Q438.028 169.588 436.827 167.837Q435.633 166.08 435.633 163.56Q435.633 159.993 437.926 158.001Q440.218 156.001 444.122 156.001L452.552 156.001ZM438.658 163.531Q438.658 165.867 440.02 167.112Q441.39 168.357 444.063 168.357L449.608 168.357L449.608 158.609L444.239 158.609Q441.536 158.609 440.094 159.869Q438.658 161.128 438.658 163.531ZM480.238 166.109Q482.369 166.622 483.46 167.925Q484.559 169.229 484.559 171.272Q484.559 173.997 482.559 175.499Q480.567 177 476.759 177L467.157 177L467.157 156.001L476.187 156.001Q479.637 156.001 481.571 157.4Q483.512 158.792 483.512 161.399Q483.512 163.113 482.655 164.314Q481.798 165.508 480.238 166.109ZM470.13 165.237L475.982 165.237Q478.172 165.237 479.322 164.373Q480.479 163.501 480.479 161.817Q480.479 160.14 479.307 159.253Q478.143 158.367 475.982 158.367L470.13 158.367L470.13 165.237ZM476.7 174.627Q481.527 174.627 481.527 171.031Q481.527 169.229 480.311 168.379Q479.102 167.522 476.7 167.522L470.13 167.522L470.13 174.627L476.7 174.627ZM514.827 156.001L505.503 173.309Q504.39 175.381 502.888 176.399Q501.387 177.417 499.621 177.417Q498.237 177.417 496.802 176.788L497.578 174.393Q498.691 174.781 499.563 174.781Q501.54 174.781 502.829 172.679L503.313 171.932L494.853 156.001L498.061 156.001L504.873 169.317L511.86 156.001L514.827 156.001ZM525.241 167.757L520.861 167.757L520.861 177L517.917 177L517.917 156.001L520.861 156.001L520.861 165.12L525.299 165.12L531.899 156.001L535.107 156.001L527.607 166.167L535.473 177L532.052 177L525.241 167.757ZM546.745 156.001Q550.825 156.001 553.161 157.95Q555.505 159.898 555.505 163.318Q555.505 166.739 553.161 168.694Q550.825 170.643 546.745 170.643L541.56 170.643L541.56 177L538.557 177L538.557 156.001L546.745 156.001ZM546.657 168.028Q549.506 168.028 551.008 166.819Q552.509 165.604 552.509 163.318Q552.509 161.041 551.008 159.825Q549.506 158.609 546.657 158.609L541.56 158.609L541.56 168.028L546.657 168.028ZM572.279 171.749L561.117 171.749L558.81 177L555.719 177L565.226 156.001L568.199 156.001L577.736 177L574.586 177L572.279 171.749ZM571.232 169.354L566.698 159.063L562.172 169.354L571.232 169.354ZM581.249 156.001L584.252 156.001L584.252 177L581.249 177L581.249 156.001ZM579.96 153.782Q579.331 153.782 578.876 153.35Q578.43 152.911 578.43 152.251Q578.43 151.592 578.876 151.146Q579.331 150.691 579.96 150.691Q580.59 150.691 581.037 151.146Q581.491 151.592 581.491 152.251Q581.491 152.911 581.037 153.35Q580.59 153.782 579.96 153.782ZM585.541 153.782Q584.912 153.782 584.457 153.35Q584.011 152.911 584.011 152.251Q584.011 151.592 584.457 151.146Q584.912 150.691 585.541 150.691Q586.171 150.691 586.618 151.146Q587.072 151.592 587.072 152.251Q587.072 152.911 586.618 153.35Q586.171 153.782 585.541 153.782ZM608.728 156.001L608.728 177L605.725 177L605.725 167.64L593.67 167.64L593.67 177L590.667 177L590.667 156.001L593.67 156.001L593.67 165.032L605.725 165.032L605.725 156.001L608.728 156.001ZM615.267 156.001L618.24 156.001L618.24 177L615.267 177L615.267 156.001ZM632.848 164.703L632.848 167.193L623.7 167.193L623.7 164.703L626.791 164.703L626.791 157.232L623.971 157.232L623.971 154.742L630.153 154.742L630.153 164.703L632.848 164.703Z" fill="#000000" fill-opacity="1.000000" fill-rule="evenodd"/>
	<path id="Більше 18 років успішного застосування в Україні1" d="M338.402 114.001L338.402 135L333.539 135L333.539 117.898L329.342 117.898L329.342 114.001L338.402 114.001ZM356.432 123.962Q357.992 124.739 358.812 125.999Q359.64 127.258 359.64 128.914Q359.64 130.862 358.527 132.319Q357.421 133.77 355.407 134.568Q353.4 135.359 350.763 135.359Q348.119 135.359 346.12 134.568Q344.127 133.77 343.029 132.319Q341.937 130.862 341.937 128.914Q341.937 127.258 342.765 125.999Q343.593 124.739 345.123 123.962Q343.952 123.237 343.322 122.146Q342.692 121.047 342.692 119.641Q342.692 117.81 343.71 116.462Q344.728 115.107 346.559 114.375Q348.39 113.643 350.763 113.643Q353.158 113.643 355.004 114.375Q356.849 115.107 357.868 116.462Q358.893 117.81 358.893 119.641Q358.893 121.047 358.263 122.146Q357.633 123.237 356.432 123.962ZM350.763 117.209Q349.291 117.209 348.405 117.92Q347.518 118.623 347.518 119.854Q347.518 121.047 348.39 121.743Q349.262 122.432 350.763 122.432Q352.257 122.432 353.158 121.743Q354.059 121.047 354.059 119.854Q354.059 118.623 353.158 117.92Q352.257 117.209 350.763 117.209ZM350.763 131.792Q352.587 131.792 353.649 130.964Q354.718 130.137 354.718 128.76Q354.718 127.383 353.649 126.57Q352.587 125.757 350.763 125.757Q348.961 125.757 347.907 126.57Q346.859 127.383 346.859 128.76Q346.859 130.173 347.907 130.986Q348.961 131.792 350.763 131.792ZM380.877 114.001Q383.667 114.001 385.718 114.932Q387.776 115.862 388.882 117.576Q389.995 119.282 389.995 121.619Q389.995 123.933 388.882 125.662Q387.776 127.383 385.718 128.298Q383.667 129.207 380.877 129.207L376.651 129.207L376.651 135L371.787 135L371.787 114.001L380.877 114.001ZM380.606 125.251Q382.796 125.251 383.931 124.307Q385.074 123.362 385.074 121.619Q385.074 119.854 383.931 118.909Q382.796 117.957 380.606 117.957L376.651 117.957L376.651 125.251L380.606 125.251ZM403.534 135.359Q400.26 135.359 397.631 133.953Q395.009 132.539 393.522 130.063Q392.043 127.588 392.043 124.497Q392.043 121.414 393.522 118.938Q395.009 116.462 397.631 115.056Q400.26 113.643 403.534 113.643Q406.801 113.643 409.408 115.056Q412.023 116.462 413.517 118.938Q415.019 121.414 415.019 124.497Q415.019 127.588 413.517 130.063Q412.023 132.539 409.408 133.953Q406.801 135.359 403.534 135.359ZM403.534 131.221Q405.387 131.221 406.889 130.364Q408.39 129.507 409.247 127.983Q410.104 126.453 410.104 124.497Q410.104 122.549 409.247 121.018Q408.39 119.487 406.889 118.638Q405.387 117.781 403.534 117.781Q401.674 117.781 400.172 118.638Q398.671 119.487 397.814 121.018Q396.957 122.549 396.957 124.497Q396.957 126.453 397.814 127.983Q398.671 129.507 400.172 130.364Q401.674 131.221 403.534 131.221ZM426.897 126.541L423.543 126.541L423.543 135L418.709 135L418.709 114.001L423.543 114.001L423.543 122.49L427.022 122.49L432.537 114.001L437.671 114.001L430.801 124.138L437.876 135L432.361 135L426.897 126.541ZM440.157 114.001L444.991 114.001L444.991 135L440.157 135L440.157 114.001ZM464.761 124.05Q466.68 124.622 467.698 125.911Q468.723 127.2 468.723 129.089Q468.723 131.88 466.606 133.44Q464.49 135 460.557 135L450.207 135L450.207 114.001L459.993 114.001Q463.647 114.001 465.684 115.415Q467.727 116.821 467.727 119.429Q467.727 120.989 466.943 122.175Q466.167 123.362 464.761 124.05ZM455.041 122.703L459.568 122.703Q461.157 122.703 461.97 122.058Q462.783 121.414 462.783 120.146Q462.783 118.923 461.955 118.264Q461.128 117.598 459.568 117.598L455.041 117.598L455.041 122.703ZM460.381 131.396Q463.801 131.396 463.801 128.701Q463.801 126.086 460.381 126.086L455.041 126.086L455.041 131.396L460.381 131.396Z" fill="#1E63AF" fill-opacity="1.000000" fill-rule="evenodd"/>
	<path id="Досліджений в понад 60 наукових центрах3" d="M215.276 488.393L215.276 495.592L212.493 495.592L212.493 491L195.208 491L195.179 495.592L192.388 495.592L192.417 488.393L193.443 488.393Q195.42 488.268 196.226 485.258Q197.039 482.24 197.222 476.747L197.427 470.001L212.193 470.001L212.193 488.393L215.276 488.393ZM199.859 477.018Q199.712 481.457 199.156 484.372Q198.599 487.279 197.369 488.393L209.219 488.393L209.219 472.609L200.013 472.609L199.859 477.018ZM228.835 491.242Q225.656 491.242 223.107 489.85Q220.558 488.451 219.101 485.99Q217.651 483.529 217.651 480.497Q217.651 477.472 219.101 475.011Q220.558 472.55 223.107 471.159Q225.656 469.76 228.835 469.76Q231.984 469.76 234.533 471.159Q237.089 472.55 238.525 474.997Q239.968 477.443 239.968 480.497Q239.968 483.559 238.525 486.005Q237.089 488.451 234.533 489.85Q231.984 491.242 228.835 491.242ZM228.835 488.568Q231.149 488.568 232.995 487.521Q234.841 486.474 235.903 484.628Q236.965 482.782 236.965 480.497Q236.965 478.219 235.903 476.374Q234.841 474.528 232.995 473.48Q231.149 472.433 228.835 472.433Q226.528 472.433 224.653 473.48Q222.778 474.528 221.708 476.374Q220.646 478.219 220.646 480.497Q220.646 482.782 221.708 484.628Q222.778 486.474 224.653 487.521Q226.528 488.568 228.835 488.568ZM254.216 491.242Q251.067 491.242 248.533 489.85Q245.998 488.451 244.556 486.005Q243.12 483.559 243.12 480.497Q243.12 477.443 244.556 474.997Q245.998 472.55 248.547 471.159Q251.096 469.76 254.246 469.76Q256.706 469.76 258.743 470.587Q260.786 471.408 262.229 473.034L260.281 474.923Q257.908 472.433 254.37 472.433Q252.026 472.433 250.137 473.48Q248.247 474.528 247.178 476.374Q246.116 478.219 246.116 480.497Q246.116 482.782 247.178 484.628Q248.247 486.474 250.137 487.521Q252.026 488.568 254.37 488.568Q257.878 488.568 260.281 486.049L262.229 487.938Q260.786 489.557 258.728 490.399Q256.677 491.242 254.216 491.242ZM282.987 470.001L282.987 491L280.05 491L280.05 472.609L270.748 472.609L270.543 478.761Q270.39 483.112 269.833 485.814Q269.284 488.51 268.082 489.879Q266.881 491.242 264.838 491.242Q263.908 491.242 262.948 491L263.161 488.327Q263.637 488.451 264.12 488.451Q265.409 488.451 266.185 487.418Q266.969 486.378 267.357 484.313Q267.753 482.24 267.87 478.849L268.2 470.001L282.987 470.001ZM289.527 470.001L292.5 470.001L292.5 491L289.527 491L289.527 470.001ZM318.776 488.393L318.776 495.592L315.993 495.592L315.993 491L298.708 491L298.679 495.592L295.888 495.592L295.917 488.393L296.943 488.393Q298.92 488.268 299.726 485.258Q300.539 482.24 300.722 476.747L300.927 470.001L315.693 470.001L315.693 488.393L318.776 488.393ZM303.359 477.018Q303.212 481.457 302.656 484.372Q302.099 487.279 300.869 488.393L312.719 488.393L312.719 472.609L303.513 472.609L303.359 477.018ZM340.531 481.757L336.539 481.757L336.539 491L333.602 491L333.602 481.757L329.581 481.757L323.7 491L320.191 491L327.12 480.08L320.697 470.001L323.912 470.001L329.522 479.12L333.602 479.12L333.602 470.001L336.539 470.001L336.539 479.12L340.56 479.12L346.2 470.001L349.408 470.001L342.992 480.138L349.92 491L346.412 491L340.531 481.757ZM368.308 488.393L368.308 491L353.067 491L353.067 470.001L367.883 470.001L367.883 472.609L356.07 472.609L356.07 479.062L366.594 479.062L366.594 481.61L356.07 481.61L356.07 488.393L368.308 488.393ZM391.078 470.001L391.078 491L388.075 491L388.075 481.64L376.02 481.64L376.02 491L373.017 491L373.017 470.001L376.02 470.001L376.02 479.032L388.075 479.032L388.075 470.001L391.078 470.001ZM397.617 470.001L400.59 470.001L400.59 486.203L413.012 470.001L415.773 470.001L415.773 491L412.829 491L412.829 474.828L400.378 491L397.617 491L397.617 470.001ZM422.307 470.001L425.28 470.001L425.28 486.203L437.702 470.001L440.463 470.001L440.463 491L437.519 491L437.519 474.828L425.068 491L422.307 491L422.307 470.001ZM431.337 468.529Q428.884 468.529 427.543 467.467Q426.21 466.398 426.181 464.42L428.312 464.42Q428.342 465.592 429.133 466.237Q429.931 466.881 431.337 466.881Q432.692 466.881 433.513 466.237Q434.34 465.592 434.37 464.42L436.472 464.42Q436.442 466.369 435.102 467.453Q433.769 468.529 431.337 468.529ZM468.148 480.109Q470.279 480.622 471.37 481.925Q472.469 483.229 472.469 485.272Q472.469 487.997 470.469 489.499Q468.477 491 464.669 491L455.067 491L455.067 470.001L464.097 470.001Q467.547 470.001 469.481 471.4Q471.422 472.792 471.422 475.399Q471.422 477.113 470.565 478.314Q469.708 479.508 468.148 480.109ZM458.04 479.237L463.892 479.237Q466.082 479.237 467.232 478.373Q468.389 477.501 468.389 475.817Q468.389 474.14 467.217 473.253Q466.053 472.367 463.892 472.367L458.04 472.367L458.04 479.237ZM464.61 488.627Q469.437 488.627 469.437 485.031Q469.437 483.229 468.221 482.379Q467.012 481.522 464.61 481.522L458.04 481.522L458.04 488.627L464.61 488.627ZM503.637 470.001L503.637 491L500.7 491L500.7 472.609L488.52 472.609L488.52 491L485.547 491L485.547 470.001L503.637 470.001ZM519.625 491.242Q516.446 491.242 513.897 489.85Q511.348 488.451 509.891 485.99Q508.441 483.529 508.441 480.497Q508.441 477.472 509.891 475.011Q511.348 472.55 513.897 471.159Q516.446 469.76 519.625 469.76Q522.774 469.76 525.323 471.159Q527.879 472.55 529.315 474.997Q530.758 477.443 530.758 480.497Q530.758 483.559 529.315 486.005Q527.879 488.451 525.323 489.85Q522.774 491.242 519.625 491.242ZM519.625 488.568Q521.939 488.568 523.785 487.521Q525.631 486.474 526.693 484.628Q527.755 482.782 527.755 480.497Q527.755 478.219 526.693 476.374Q525.631 474.528 523.785 473.48Q521.939 472.433 519.625 472.433Q517.318 472.433 515.443 473.48Q513.568 474.528 512.498 476.374Q511.436 478.219 511.436 480.497Q511.436 482.782 512.498 484.628Q513.568 486.474 515.443 487.521Q517.318 488.568 519.625 488.568ZM553.678 470.001L553.678 491L550.675 491L550.675 481.64L538.62 481.64L538.62 491L535.617 491L535.617 470.001L538.62 470.001L538.62 479.032L550.675 479.032L550.675 470.001L553.678 470.001ZM573.869 485.749L562.707 485.749L560.4 491L557.309 491L566.816 470.001L569.789 470.001L579.326 491L576.176 491L573.869 485.749ZM572.822 483.354L568.288 473.063L563.762 483.354L572.822 483.354ZM603.056 488.393L603.056 495.592L600.273 495.592L600.273 491L582.988 491L582.959 495.592L580.168 495.592L580.198 488.393L581.223 488.393Q583.2 488.268 584.006 485.258Q584.819 482.24 585.002 476.747L585.207 470.001L599.973 470.001L599.973 488.393L603.056 488.393ZM587.639 477.018Q587.492 481.457 586.936 484.372Q586.379 487.279 585.149 488.393L596.999 488.393L596.999 472.609L587.793 472.609L587.639 477.018ZM594.479 515.722Q596.28 515.993 597.24 516.953Q598.199 517.912 598.199 519.355Q598.199 520.432 597.555 521.362Q596.91 522.292 595.592 522.863Q594.273 523.435 592.347 523.435Q590.729 523.435 589.212 523.046Q587.704 522.651 586.832 522.021L588.033 519.626Q588.868 520.19 590.011 520.505Q591.153 520.82 592.289 520.82Q593.578 520.82 594.222 520.432Q594.867 520.043 594.867 519.355Q594.867 517.941 592.501 517.941L590.729 517.941L590.729 515.905L593.46 513.232L587.367 513.232L587.367 510.742L597.511 510.742L597.511 512.756L594.479 515.722Z" fill="#000000" fill-opacity="1.000000" fill-rule="evenodd"/>
	<path id="Досліджений в понад 60 наукових центрах3" d="M203.279 519.831Q205.293 519.831 206.941 520.644Q208.589 521.45 209.549 522.937Q210.508 524.423 210.508 526.372Q210.508 528.474 209.461 530.063Q208.414 531.652 206.597 532.509Q204.781 533.359 202.562 533.359Q198.152 533.359 195.662 530.664Q193.172 527.961 193.172 522.951Q193.172 519.377 194.52 516.828Q195.867 514.279 198.284 512.961Q200.701 511.643 203.88 511.643Q205.557 511.643 207.103 512.016Q208.648 512.39 209.732 513.078L207.93 516.652Q206.37 515.598 203.997 515.598Q201.331 515.598 199.771 517.158Q198.211 518.718 198.086 521.691Q199.947 519.831 203.279 519.831ZM202.291 529.733Q203.851 529.733 204.825 528.891Q205.799 528.049 205.799 526.613Q205.799 525.17 204.825 524.313Q203.851 523.457 202.232 523.457Q200.643 523.457 199.617 524.343Q198.599 525.229 198.599 526.613Q198.599 527.99 199.588 528.862Q200.577 529.733 202.291 529.733ZM221.283 533.359Q218.669 533.359 216.625 532.07Q214.589 530.781 213.432 528.334Q212.282 525.888 212.282 522.497Q212.282 519.113 213.432 516.667Q214.589 514.221 216.625 512.932Q218.669 511.643 221.283 511.643Q223.891 511.643 225.927 512.932Q227.97 514.221 229.12 516.667Q230.277 519.113 230.277 522.497Q230.277 525.888 229.12 528.334Q227.97 530.781 225.927 532.07Q223.891 533.359 221.283 533.359ZM221.283 529.25Q223.202 529.25 224.294 527.602Q225.392 525.947 225.392 522.497Q225.392 519.047 224.294 517.399Q223.202 515.751 221.283 515.751Q219.386 515.751 218.288 517.399Q217.196 519.047 217.196 522.497Q217.196 525.947 218.288 527.602Q219.386 529.25 221.283 529.25ZM261.84 512.001L261.84 533L256.977 533L256.977 524.387L247.441 524.387L247.441 533L242.577 533L242.577 512.001L247.441 512.001L247.441 520.278L256.977 520.278L256.977 512.001L261.84 512.001ZM281.311 528.503L271.562 528.503L269.702 533L264.722 533L274.082 512.001L278.879 512.001L288.269 533L283.171 533L281.311 528.503ZM279.78 524.812L276.455 516.77L273.123 524.812L279.78 524.812ZM308.94 512.001L299.997 528.62Q298.708 531.022 296.891 532.253Q295.082 533.483 292.951 533.483Q291.303 533.483 289.531 532.758L290.703 529.067Q291.962 529.462 292.797 529.462Q293.698 529.462 294.416 529.03Q295.141 528.591 295.742 527.661L295.917 527.419L287.641 512.001L292.827 512.001L298.408 523.281L304.172 512.001L308.94 512.001ZM319.377 524.541L316.023 524.541L316.023 533L311.189 533L311.189 512.001L316.023 512.001L316.023 520.49L319.502 520.49L325.017 512.001L330.151 512.001L323.281 522.138L330.356 533L324.841 533L319.377 524.541ZM342.574 533.359Q339.3 533.359 336.671 531.953Q334.049 530.539 332.562 528.063Q331.083 525.588 331.083 522.497Q331.083 519.414 332.562 516.938Q334.049 514.462 336.671 513.056Q339.3 511.643 342.574 511.643Q345.841 511.643 348.448 513.056Q351.063 514.462 352.557 516.938Q354.059 519.414 354.059 522.497Q354.059 525.588 352.557 528.063Q351.063 530.539 348.448 531.953Q345.841 533.359 342.574 533.359ZM342.574 529.221Q344.427 529.221 345.929 528.364Q347.43 527.507 348.287 525.983Q349.144 524.453 349.144 522.497Q349.144 520.549 348.287 519.018Q347.43 517.487 345.929 516.638Q344.427 515.781 342.574 515.781Q340.714 515.781 339.212 516.638Q337.711 517.487 336.854 519.018Q335.997 520.549 335.997 522.497Q335.997 524.453 336.854 525.983Q337.711 527.507 339.212 528.364Q340.714 529.221 342.574 529.221ZM372.361 522.05Q374.28 522.622 375.298 523.911Q376.323 525.2 376.323 527.089Q376.323 529.88 374.206 531.44Q372.09 533 368.157 533L357.807 533L357.807 512.001L367.593 512.001Q371.247 512.001 373.284 513.415Q375.327 514.821 375.327 517.429Q375.327 518.989 374.543 520.175Q373.767 521.362 372.361 522.05ZM362.641 520.703L367.168 520.703Q368.757 520.703 369.57 520.058Q370.383 519.414 370.383 518.146Q370.383 516.923 369.555 516.264Q368.728 515.598 367.168 515.598L362.641 515.598L362.641 520.703ZM367.981 529.396Q371.401 529.396 371.401 526.701Q371.401 524.086 367.981 524.086L362.641 524.086L362.641 529.396L367.981 529.396ZM380.157 512.001L384.991 512.001L384.991 525.683L395.011 512.001L399.567 512.001L399.567 533L394.769 533L394.769 519.348L384.75 533L380.157 533L380.157 512.001ZM408.567 512.001L412.917 518.359L417.268 512.001L422.973 512.001L415.979 522.05L423.537 533L417.81 533L412.917 526.042L408.091 533L402.48 533L409.98 522.263L402.956 512.001L408.567 512.001ZM456.961 529.038L456.961 537.438L452.494 537.438L452.494 533L434.937 533L434.937 512.001L439.771 512.001L439.771 529.038L449.132 529.038L449.132 512.001L453.958 512.001L453.958 529.038L456.961 529.038ZM476.427 529.104L476.427 533L460.167 533L460.167 512.001L476.039 512.001L476.039 515.898L464.994 515.898L464.994 520.461L474.75 520.461L474.75 524.24L464.994 524.24L464.994 529.104L476.427 529.104ZM499.62 512.001L499.62 533L494.757 533L494.757 524.387L485.221 524.387L485.221 533L480.357 533L480.357 512.001L485.221 512.001L485.221 520.278L494.757 520.278L494.757 512.001L499.62 512.001ZM520.922 515.957L514.198 515.957L514.198 533L509.401 533L509.401 515.957L502.707 515.957L502.707 512.001L520.922 512.001L520.922 515.957ZM533.067 512.001Q535.857 512.001 537.908 512.932Q539.966 513.862 541.072 515.576Q542.185 517.282 542.185 519.619Q542.185 521.933 541.072 523.662Q539.966 525.383 537.908 526.298Q535.857 527.207 533.067 527.207L528.841 527.207L528.841 533L523.977 533L523.977 512.001L533.067 512.001ZM532.796 523.251Q534.986 523.251 536.121 522.307Q537.264 521.362 537.264 519.619Q537.264 517.854 536.121 516.909Q534.986 515.957 532.796 515.957L528.841 515.957L528.841 523.251L532.796 523.251ZM558.571 528.503L548.823 528.503L546.962 533L541.982 533L551.342 512.001L556.139 512.001L565.529 533L560.431 533L558.571 528.503ZM557.04 524.812L553.715 516.77L550.383 524.812L557.04 524.812ZM571.017 512.001L575.367 518.359L579.718 512.001L585.423 512.001L578.429 522.05L585.987 533L580.26 533L575.367 526.042L570.541 533L564.93 533L572.43 522.263L565.406 512.001L571.017 512.001Z" fill="#1E63AF" fill-opacity="1.000000" fill-rule="evenodd"/>
	<path id="ЗНИЖУЄ РИЗИК ЗАХВОРЮВАННЯ ГРВІ ТА ГРИПУ в 2 рази2" d="M205.323 302.05Q207.3 302.592 208.406 303.925Q209.52 305.258 209.52 307.119Q209.52 308.979 208.333 310.378Q207.146 311.77 205.184 312.509Q203.221 313.242 200.914 313.242Q198.812 313.242 196.739 312.612Q194.673 311.982 192.959 310.722L194.007 308.503Q195.391 309.58 197.098 310.122Q198.812 310.664 200.547 310.664Q203.067 310.664 204.773 309.602Q206.487 308.532 206.487 306.672Q206.487 305.083 205.198 304.226Q203.909 303.369 201.573 303.369L196.893 303.369L196.893 300.937L201.36 300.937Q203.367 300.937 204.495 300.117Q205.623 299.289 205.623 297.817Q205.623 296.169 204.151 295.209Q202.679 294.25 200.43 294.25Q198.958 294.25 197.442 294.675Q195.933 295.092 194.578 295.927L193.619 293.474Q195.208 292.573 196.98 292.126Q198.753 291.672 200.518 291.672Q202.737 291.672 204.598 292.36Q206.458 293.049 207.549 294.375Q208.648 295.693 208.648 297.458Q208.648 299.047 207.762 300.249Q206.883 301.45 205.323 302.05ZM232.588 292.001L232.588 313L229.585 313L229.585 303.64L217.53 303.64L217.53 313L214.527 313L214.527 292.001L217.53 292.001L217.53 301.032L229.585 301.032L229.585 292.001L232.588 292.001ZM239.127 292.001L242.1 292.001L242.1 308.203L254.522 292.001L257.283 292.001L257.283 313L254.339 313L254.339 296.828L241.888 313L239.127 313L239.127 292.001ZM281.461 303.757L277.469 303.757L277.469 313L274.532 313L274.532 303.757L270.511 303.757L264.63 313L261.121 313L268.05 302.08L261.627 292.001L264.842 292.001L270.452 301.12L274.532 301.12L274.532 292.001L277.469 292.001L277.469 301.12L281.49 301.12L287.13 292.001L290.338 292.001L283.922 302.138L290.85 313L287.342 313L281.461 303.757ZM311.307 292.001L301.983 309.309Q300.87 311.381 299.368 312.399Q297.867 313.417 296.101 313.417Q294.717 313.417 293.282 312.788L294.058 310.393Q295.171 310.781 296.043 310.781Q298.02 310.781 299.309 308.679L299.793 307.932L291.333 292.001L294.541 292.001L301.353 305.317L308.34 292.001L311.307 292.001ZM323.071 313.242Q320.068 313.242 317.666 311.85Q315.271 310.451 313.886 308.005Q312.509 305.559 312.509 302.504Q312.509 299.443 313.886 296.997Q315.271 294.55 317.666 293.159Q320.068 291.76 323.071 291.76Q325.649 291.76 327.751 292.602Q329.853 293.444 331.259 295.063L329.37 296.953Q327.004 294.462 323.217 294.462Q321.211 294.462 319.555 295.349Q317.907 296.235 316.86 297.824Q315.813 299.414 315.6 301.45L325.774 301.45L325.774 303.911L315.629 303.911Q315.93 305.859 316.977 307.36Q318.032 308.862 319.65 309.704Q321.269 310.539 323.217 310.539Q326.967 310.539 329.37 308.049L331.259 309.938Q329.853 311.564 327.736 312.407Q325.62 313.242 323.071 313.242ZM351.685 292.001Q355.765 292.001 358.101 293.95Q360.445 295.898 360.445 299.318Q360.445 302.739 358.101 304.694Q355.765 306.643 351.685 306.643L346.5 306.643L346.5 313L343.497 313L343.497 292.001L351.685 292.001ZM351.597 304.028Q354.446 304.028 355.948 302.819Q357.449 301.604 357.449 299.318Q357.449 297.041 355.948 295.825Q354.446 294.609 351.597 294.609L346.5 294.609L346.5 304.028L351.597 304.028ZM364.617 292.001L367.59 292.001L367.59 308.203L380.012 292.001L382.773 292.001L382.773 313L379.829 313L379.829 296.828L367.378 313L364.617 313L364.617 292.001ZM399.363 302.05Q401.34 302.592 402.446 303.925Q403.56 305.258 403.56 307.119Q403.56 308.979 402.373 310.378Q401.186 311.77 399.224 312.509Q397.261 313.242 394.954 313.242Q392.852 313.242 390.779 312.612Q388.713 311.982 386.999 310.722L388.047 308.503Q389.431 309.58 391.138 310.122Q392.852 310.664 394.587 310.664Q397.107 310.664 398.813 309.602Q400.527 308.532 400.527 306.672Q400.527 305.083 399.238 304.226Q397.949 303.369 395.613 303.369L390.933 303.369L390.933 300.937L395.4 300.937Q397.407 300.937 398.535 300.117Q399.663 299.289 399.663 297.817Q399.663 296.169 398.191 295.209Q396.719 294.25 394.47 294.25Q392.998 294.25 391.482 294.675Q389.973 295.092 388.618 295.927L387.659 293.474Q389.248 292.573 391.02 292.126Q392.793 291.672 394.558 291.672Q396.777 291.672 398.638 292.36Q400.498 293.049 401.589 294.375Q402.688 295.693 402.688 297.458Q402.688 299.047 401.802 300.249Q400.923 301.45 399.363 302.05ZM408.567 292.001L411.54 292.001L411.54 308.203L423.962 292.001L426.723 292.001L426.723 313L423.779 313L423.779 296.828L411.328 313L408.567 313L408.567 292.001ZM440.581 303.757L436.201 303.757L436.201 313L433.257 313L433.257 292.001L436.201 292.001L436.201 301.12L440.639 301.12L447.239 292.001L450.447 292.001L442.947 302.167L450.813 313L447.392 313L440.581 303.757ZM472.713 302.05Q474.69 302.592 475.796 303.925Q476.91 305.258 476.91 307.119Q476.91 308.979 475.723 310.378Q474.536 311.77 472.574 312.509Q470.611 313.242 468.304 313.242Q466.202 313.242 464.129 312.612Q462.063 311.982 460.349 310.722L461.397 308.503Q462.781 309.58 464.488 310.122Q466.202 310.664 467.937 310.664Q470.457 310.664 472.163 309.602Q473.877 308.532 473.877 306.672Q473.877 305.083 472.588 304.226Q471.299 303.369 468.963 303.369L464.283 303.369L464.283 300.937L468.75 300.937Q470.757 300.937 471.885 300.117Q473.013 299.289 473.013 297.817Q473.013 296.169 471.541 295.209Q470.069 294.25 467.82 294.25Q466.348 294.25 464.832 294.675Q463.323 295.092 461.968 295.927L461.009 293.474Q462.598 292.573 464.37 292.126Q466.143 291.672 467.908 291.672Q470.127 291.672 471.988 292.36Q473.848 293.049 474.939 294.375Q476.038 295.693 476.038 297.458Q476.038 299.047 475.152 300.249Q474.273 301.45 472.713 302.05ZM495.569 307.749L484.407 307.749L482.1 313L479.009 313L488.516 292.001L491.489 292.001L501.026 313L497.876 313L495.569 307.749ZM494.522 305.354L489.988 295.063L485.462 305.354L494.522 305.354ZM504.868 292.001L510.361 299.677L515.847 292.001L519.362 292.001L512.251 302.08L519.926 313L516.389 313L510.361 304.628L504.362 313L500.913 313L508.559 302.197L501.418 292.001L504.868 292.001ZM536.098 302.109Q538.229 302.622 539.32 303.925Q540.419 305.229 540.419 307.272Q540.419 309.997 538.419 311.499Q536.427 313 532.619 313L523.017 313L523.017 292.001L532.047 292.001Q535.497 292.001 537.431 293.4Q539.372 294.792 539.372 297.399Q539.372 299.113 538.515 300.314Q537.658 301.508 536.098 302.109ZM525.99 301.237L531.842 301.237Q534.032 301.237 535.182 300.373Q536.339 299.501 536.339 297.817Q536.339 296.14 535.167 295.253Q534.003 294.367 531.842 294.367L525.99 294.367L525.99 301.237ZM532.56 310.627Q537.387 310.627 537.387 307.031Q537.387 305.229 536.171 304.379Q534.962 303.522 532.56 303.522L525.99 303.522L525.99 310.627L532.56 310.627ZM554.875 313.242Q551.696 313.242 549.147 311.85Q546.599 310.451 545.141 307.99Q543.691 305.529 543.691 302.497Q543.691 299.472 545.141 297.011Q546.599 294.55 549.147 293.159Q551.696 291.76 554.875 291.76Q558.024 291.76 560.573 293.159Q563.129 294.55 564.565 296.997Q566.008 299.443 566.008 302.497Q566.008 305.559 564.565 308.005Q563.129 310.451 560.573 311.85Q558.024 313.242 554.875 313.242ZM554.875 310.568Q557.189 310.568 559.035 309.521Q560.881 308.474 561.943 306.628Q563.005 304.782 563.005 302.497Q563.005 300.219 561.943 298.374Q560.881 296.528 559.035 295.48Q557.189 294.433 554.875 294.433Q552.568 294.433 550.693 295.48Q548.818 296.528 547.748 298.374Q546.686 300.219 546.686 302.497Q546.686 304.782 547.748 306.628Q548.818 308.474 550.693 309.521Q552.568 310.568 554.875 310.568ZM579.055 292.001Q583.135 292.001 585.471 293.95Q587.815 295.898 587.815 299.318Q587.815 302.739 585.471 304.694Q583.135 306.643 579.055 306.643L573.87 306.643L573.87 313L570.867 313L570.867 292.001L579.055 292.001ZM578.967 304.028Q581.816 304.028 583.318 302.819Q584.819 301.604 584.819 299.318Q584.819 297.041 583.318 295.825Q581.816 294.609 578.967 294.609L573.87 294.609L573.87 304.028L578.967 304.028ZM609.389 291.76Q612.421 291.76 614.846 293.159Q617.277 294.55 618.669 296.997Q620.068 299.443 620.068 302.497Q620.068 305.559 618.669 308.005Q617.277 310.451 614.846 311.85Q612.421 313.242 609.389 313.242Q606.569 313.242 604.255 312.011Q601.948 310.781 600.505 308.62Q599.069 306.459 598.798 303.698L594.96 303.698L594.96 313L591.987 313L591.987 292.001L594.96 292.001L594.96 301.003L598.827 301.003Q599.157 298.33 600.615 296.235Q602.072 294.133 604.35 292.946Q606.628 291.76 609.389 291.76ZM609.389 310.539Q611.55 310.539 613.3 309.506Q615.058 308.474 616.061 306.643Q617.072 304.812 617.072 302.497Q617.072 300.19 616.061 298.359Q615.058 296.528 613.3 295.495Q611.55 294.462 609.389 294.462Q607.258 294.462 605.514 295.495Q603.779 296.528 602.775 298.359Q601.772 300.19 601.772 302.497Q601.772 304.812 602.775 306.643Q603.779 308.474 605.514 309.506Q607.258 310.539 609.389 310.539ZM638.038 302.109Q640.169 302.622 641.26 303.925Q642.359 305.229 642.359 307.272Q642.359 309.997 640.359 311.499Q638.367 313 634.559 313L624.957 313L624.957 292.001L633.987 292.001Q637.437 292.001 639.371 293.4Q641.312 294.792 641.312 297.399Q641.312 299.113 640.455 300.314Q639.598 301.508 638.038 302.109ZM627.93 301.237L633.782 301.237Q635.972 301.237 637.122 300.373Q638.279 299.501 638.279 297.817Q638.279 296.14 637.108 295.253Q635.943 294.367 633.782 294.367L627.93 294.367L627.93 301.237ZM634.5 310.627Q639.327 310.627 639.327 307.031Q639.327 305.229 638.111 304.379Q636.902 303.522 634.5 303.522L627.93 303.522L627.93 310.627L634.5 310.627ZM661.019 307.749L649.857 307.749L647.55 313L644.459 313L653.966 292.001L656.939 292.001L666.476 313L663.326 313L661.019 307.749ZM659.972 305.354L655.438 295.063L650.912 305.354L659.972 305.354ZM688.168 292.001L688.168 313L685.165 313L685.165 303.64L673.11 303.64L673.11 313L670.107 313L670.107 292.001L673.11 292.001L673.11 301.032L685.165 301.032L685.165 292.001L688.168 292.001ZM712.768 292.001L712.768 313L709.765 313L709.765 303.64L697.71 303.64L697.71 313L694.707 313L694.707 292.001L697.71 292.001L697.71 301.032L709.765 301.032L709.765 292.001L712.768 292.001ZM734.702 292.001L734.702 313L731.758 313L731.758 306.877L725.972 306.877Q725.43 306.877 725.159 306.848L720.962 313L717.783 313L722.427 306.342Q720.178 305.588 718.977 303.837Q717.783 302.08 717.783 299.56Q717.783 295.993 720.076 294.001Q722.368 292.001 726.272 292.001L734.702 292.001ZM720.808 299.531Q720.808 301.867 722.17 303.112Q723.54 304.357 726.213 304.357L731.758 304.357L731.758 294.609L726.389 294.609Q723.687 294.609 722.244 295.869Q720.808 297.128 720.808 299.531ZM763.047 294.609L752.251 294.609L752.28 313L749.307 313L749.307 292.001L763.083 292.001L763.047 294.609ZM774.835 292.001Q778.915 292.001 781.251 293.95Q783.595 295.898 783.595 299.318Q783.595 302.739 781.251 304.694Q778.915 306.643 774.835 306.643L769.65 306.643L769.65 313L766.647 313L766.647 292.001L774.835 292.001ZM774.747 304.028Q777.596 304.028 779.098 302.819Q780.599 301.604 780.599 299.318Q780.599 297.041 779.098 295.825Q777.596 294.609 774.747 294.609L769.65 294.609L769.65 304.028L774.747 304.028ZM800.848 302.109Q802.979 302.622 804.07 303.925Q805.169 305.229 805.169 307.272Q805.169 309.997 803.169 311.499Q801.177 313 797.369 313L787.767 313L787.767 292.001L796.797 292.001Q800.247 292.001 802.181 293.4Q804.122 294.792 804.122 297.399Q804.122 299.113 803.265 300.314Q802.408 301.508 800.848 302.109ZM790.74 301.237L796.592 301.237Q798.782 301.237 799.932 300.373Q801.089 299.501 801.089 297.817Q801.089 296.14 799.918 295.253Q798.753 294.367 796.592 294.367L790.74 294.367L790.74 301.237ZM797.31 310.627Q802.137 310.627 802.137 307.031Q802.137 305.229 800.921 304.379Q799.712 303.522 797.31 303.522L790.74 303.522L790.74 310.627L797.31 310.627ZM810.177 292.001L813.15 292.001L813.15 313L810.177 313L810.177 292.001ZM209.703 336.609L202.503 336.609L202.503 355L199.559 355L199.559 336.609L192.388 336.609L192.388 334.001L209.703 334.001L209.703 336.609ZM225.959 349.749L214.797 349.749L212.49 355L209.399 355L218.906 334.001L221.879 334.001L231.415 355L228.266 355L225.959 349.749ZM224.912 347.354L220.378 337.063L215.852 347.354L224.912 347.354ZM256.857 336.609L246.061 336.609L246.09 355L243.117 355L243.117 334.001L256.893 334.001L256.857 336.609ZM268.645 334.001Q272.725 334.001 275.061 335.95Q277.405 337.898 277.405 341.318Q277.405 344.739 275.061 346.694Q272.725 348.643 268.645 348.643L263.46 348.643L263.46 355L260.457 355L260.457 334.001L268.645 334.001ZM268.557 346.028Q271.406 346.028 272.908 344.819Q274.409 343.604 274.409 341.318Q274.409 339.041 272.908 337.825Q271.406 336.609 268.557 336.609L263.46 336.609L263.46 346.028L268.557 346.028ZM281.577 334.001L284.55 334.001L284.55 350.203L296.972 334.001L299.733 334.001L299.733 355L296.789 355L296.789 338.828L284.338 355L281.577 355L281.577 334.001ZM324.357 334.001L324.357 355L321.42 355L321.42 336.609L309.24 336.609L309.24 355L306.267 355L306.267 334.001L324.357 334.001ZM348.087 334.001L338.763 351.309Q337.65 353.381 336.148 354.399Q334.647 355.417 332.881 355.417Q331.497 355.417 330.062 354.788L330.838 352.393Q331.951 352.781 332.823 352.781Q334.8 352.781 336.089 350.679L336.573 349.932L328.113 334.001L331.321 334.001L338.133 347.317L345.12 334.001L348.087 334.001ZM372.778 344.109Q374.909 344.622 376 345.925Q377.099 347.229 377.099 349.272Q377.099 351.997 375.099 353.499Q373.107 355 369.299 355L359.697 355L359.697 334.001L368.727 334.001Q372.177 334.001 374.111 335.4Q376.052 336.792 376.052 339.399Q376.052 341.113 375.195 342.314Q374.338 343.508 372.778 344.109ZM362.67 343.237L368.522 343.237Q370.712 343.237 371.862 342.373Q373.019 341.501 373.019 339.817Q373.019 338.14 371.847 337.253Q370.683 336.367 368.522 336.367L362.67 336.367L362.67 343.237ZM369.24 352.627Q374.067 352.627 374.067 349.031Q374.067 347.229 372.851 346.379Q371.642 345.522 369.24 345.522L362.67 345.522L362.67 352.627L369.24 352.627ZM513.867 342.673L513.867 345.193L503.4 345.193L503.4 343.186L508.593 338.682Q509.428 337.964 509.743 337.473Q510.058 336.975 510.058 336.521Q510.058 335.891 509.516 335.503Q508.982 335.115 507.898 335.115Q506.997 335.115 506.264 335.459Q505.532 335.803 505.107 336.404L502.712 334.961Q503.459 333.826 504.836 333.167Q506.22 332.5 508.169 332.5Q510.6 332.5 511.992 333.555Q513.391 334.602 513.391 336.279Q513.391 337.246 512.893 338.103Q512.402 338.953 511.018 340.154L508.139 342.673L513.867 342.673Z" fill="#000000" fill-opacity="1.000000" fill-rule="evenodd"/>
	<path id="ЗНИЖУЄ РИЗИК ЗАХВОРЮВАННЯ ГРВІ ТА ГРИПУ в 2 рази2" d="M404.19 351.038L404.19 355L388.319 355L388.319 351.851L396.419 344.197Q397.708 342.974 398.155 342.087Q398.609 341.201 398.609 340.33Q398.609 339.07 397.752 338.396Q396.903 337.722 395.247 337.722Q393.871 337.722 392.757 338.25Q391.651 338.77 390.897 339.817L387.359 337.539Q388.59 335.708 390.75 334.675Q392.911 333.643 395.702 333.643Q398.038 333.643 399.796 334.412Q401.554 335.173 402.528 336.565Q403.502 337.957 403.502 339.854Q403.502 341.56 402.777 343.062Q402.059 344.563 399.994 346.482L395.16 351.038L404.19 351.038ZM425.217 334.001Q428.007 334.001 430.058 334.932Q432.116 335.862 433.222 337.576Q434.335 339.282 434.335 341.619Q434.335 343.933 433.222 345.662Q432.116 347.383 430.058 348.298Q428.007 349.207 425.217 349.207L420.991 349.207L420.991 355L416.127 355L416.127 334.001L425.217 334.001ZM424.946 345.251Q427.136 345.251 428.271 344.307Q429.414 343.362 429.414 341.619Q429.414 339.854 428.271 338.909Q427.136 337.957 424.946 337.957L420.991 337.957L420.991 345.251L424.946 345.251ZM450.721 350.503L440.973 350.503L439.112 355L434.132 355L443.492 334.001L448.289 334.001L457.679 355L452.581 355L450.721 350.503ZM449.19 346.812L445.865 338.77L442.533 346.812L449.19 346.812ZM472.413 344.05Q474.237 344.68 475.27 346.021Q476.31 347.354 476.31 349.119Q476.31 351.038 475.05 352.451Q473.79 353.857 471.644 354.612Q469.498 355.359 466.949 355.359Q464.789 355.359 462.643 354.824Q460.497 354.282 458.578 353.169L460.079 349.69Q461.464 350.532 463.126 350.964Q464.789 351.396 466.378 351.396Q468.539 351.396 469.96 350.62Q471.388 349.836 471.388 348.43Q471.388 347.258 470.414 346.658Q469.44 346.057 467.762 346.057L462.628 346.057L462.628 342.402L467.403 342.402Q468.868 342.402 469.696 341.802Q470.524 341.201 470.524 340.146Q470.524 338.923 469.337 338.235Q468.151 337.539 466.29 337.539Q464.913 337.539 463.441 337.92Q461.969 338.293 460.651 339.041L459.178 335.261Q462.511 333.547 466.378 333.547Q468.839 333.547 470.904 334.272Q472.977 334.99 474.208 336.375Q475.438 337.751 475.438 339.583Q475.438 341.077 474.625 342.249Q473.819 343.42 472.413 344.05ZM480.147 334.001L484.981 334.001L484.981 347.683L495.001 334.001L499.557 334.001L499.557 355L494.759 355L494.759 341.348L484.74 355L480.147 355L480.147 334.001Z" fill="#1E63AF" fill-opacity="1.000000" fill-rule="evenodd"/>
	<g filter="url(#filter_89_14099_dd)">
		<ellipse id="Ellipse 16" cx="111.500000" cy="144.820312" rx="42.500000" ry="42.819550" fill="url(#paint_linear_89_14100_0)" fill-opacity="1.000000"/>
		<path id="Vector" d="M106.961 169.82L106.582 169.17C100.784 159.248 85.3779 138.189 85.2222 137.979L85 137.676L90.249 132.465L106.864 144.119C117.325 130.482 127.084 121.115 133.451 115.646C140.415 109.664 144.948 106.908 144.994 106.883L145.097 106.82L154 106.82L153.149 107.582C131.277 127.152 107.569 168.748 107.333 169.166L106.961 169.82Z" fill="#FFFFFF" fill-opacity="1.000000" fill-rule="evenodd"/>
	</g>
	<g filter="url(#filter_89_14102_dd)">
		<ellipse id="Ellipse 16" cx="111.500000" cy="321.820312" rx="42.500000" ry="42.819550" fill="url(#paint_linear_89_14103_0)" fill-opacity="1.000000"/>
		<path id="Vector" d="M106.961 346.82L106.582 346.17C100.784 336.248 85.3779 315.189 85.2222 314.979L85 314.676L90.249 309.465L106.864 321.119C117.325 307.482 127.084 298.115 133.451 292.646C140.415 286.664 144.948 283.908 144.994 283.883L145.097 283.82L154 283.82L153.149 284.582C131.277 304.152 107.569 345.748 107.333 346.166L106.961 346.82Z" fill="#FFFFFF" fill-opacity="1.000000" fill-rule="evenodd"/>
	</g>
	<g filter="url(#filter_89_14105_dd)">
		<ellipse id="Ellipse 16" cx="111.500000" cy="501.820312" rx="42.500000" ry="42.819550" fill="url(#paint_linear_89_14106_0)" fill-opacity="1.000000"/>
		<path id="Vector" d="M106.961 526.82L106.582 526.17C100.784 516.248 85.3779 495.189 85.2222 494.979L85 494.676L90.249 489.465L106.864 501.119C117.325 487.482 127.084 478.115 133.451 472.646C140.415 466.664 144.948 463.908 144.994 463.883L145.097 463.82L154 463.82L153.149 464.582C131.277 484.152 107.569 525.748 107.333 526.166L106.961 526.82Z" fill="#FFFFFF" fill-opacity="1.000000" fill-rule="evenodd"/>
	</g>
</svg>
