<svg width="1550.546875" height="792.019531" viewBox="0 0 1550.55 792.02" fill="none" xmlns="http://www.w3.org/2000/svg" >
	<desc>
			Created with Pixso.
	</desc>
	<defs>
		<linearGradient id="paint_linear_81_4779_0" x1="23.000000" y1="746.019531" x2="23.000000" y2="792.019531" gradientUnits="userSpaceOnUse">
			<stop stop-color="#1091DA"/>
			<stop offset="1.000000" stop-color="#7DC5ED"/>
		</linearGradient>
		<linearGradient id="paint_linear_81_4782_0" x1="1055.000000" y1="708.019531" x2="1055.000000" y2="781.442627" gradientUnits="userSpaceOnUse">
			<stop stop-color="#BBBBBB"/>
			<stop offset="1.000000" stop-color="#BBBBBB" stop-opacity="0.000000"/>
		</linearGradient>
		<linearGradient id="paint_linear_81_4797_0" x1="740.251831" y1="550.503967" x2="507.961945" y2="-108.509933" gradientUnits="userSpaceOnUse">
			<stop stop-color="#BBBBBB"/>
			<stop offset="1.000000" stop-color="#BBBBBB" stop-opacity="0.000000"/>
		</linearGradient>
		<linearGradient id="paint_linear_81_4799_0" x1="1009.869751" y1="525.265320" x2="1169.636841" y2="204.247467" gradientUnits="userSpaceOnUse">
			<stop stop-color="#1091DA"/>
			<stop offset="1.000000" stop-color="#7DC5ED"/>
		</linearGradient>
		<linearGradient id="paint_linear_81_4800_0" x1="1131.612427" y1="585.855042" x2="1475.848511" y2="-105.813904" gradientUnits="userSpaceOnUse">
			<stop stop-color="#BBBBBB"/>
			<stop offset="1.000000" stop-color="#BBBBBB" stop-opacity="0.000000"/>
		</linearGradient>
	</defs>
	<path id="Позитивний антиішемічний ефект ТЕНОТЕН" d="M87.3574 698.021L87.3574 719.02L84.4204 719.02L84.4204 700.628L72.2402 700.628L72.2402 719.02L69.2666 719.02L69.2666 698.021L87.3574 698.021ZM100.232 719.203Q97.859 719.203 95.9694 718.155Q94.0797 717.101 93.0104 715.255Q91.9484 713.409 91.9484 711.073Q91.9484 708.729 93.0104 706.883Q94.0797 705.038 95.9694 704.005Q97.859 702.972 100.232 702.972Q102.598 702.972 104.473 704.005Q106.348 705.038 107.41 706.883Q108.479 708.729 108.479 711.073Q108.479 713.409 107.41 715.255Q106.348 717.101 104.473 718.155Q102.598 719.203 100.232 719.203ZM100.232 716.683Q101.755 716.683 102.971 715.98Q104.187 715.27 104.876 713.995Q105.571 712.721 105.571 711.073Q105.571 709.417 104.876 708.143Q104.187 706.869 102.971 706.18Q101.755 705.492 100.232 705.492Q98.7013 705.492 97.4855 706.18Q96.2696 706.869 95.5592 708.143Q94.8561 709.417 94.8561 711.073Q94.8561 712.721 95.5592 713.995Q96.2696 715.27 97.4855 715.98Q98.7013 716.683 100.232 716.683ZM121.076 710.743Q122.673 711.161 123.537 712.091Q124.409 713.021 124.409 714.398Q124.409 715.812 123.45 716.91Q122.49 718.001 120.791 718.617Q119.099 719.232 116.997 719.232Q115.232 719.232 113.533 718.771Q111.841 718.302 110.522 717.43L111.387 715.24Q112.529 715.958 114.001 716.368Q115.473 716.771 116.968 716.771Q119.011 716.771 120.227 716.068Q121.443 715.357 121.443 714.156Q121.443 713.05 120.461 712.45Q119.487 711.849 117.722 711.849L114.807 711.849L114.807 709.776L117.51 709.776Q119.128 709.776 120.058 709.212Q120.989 708.641 120.989 707.652Q120.989 706.568 119.89 705.968Q118.799 705.367 116.938 705.367Q114.573 705.367 111.929 706.598L111.152 704.378Q114.06 702.906 117.239 702.906Q119.158 702.906 120.688 703.448Q122.219 703.99 123.091 704.979Q123.962 705.968 123.962 707.228Q123.962 708.399 123.179 709.33Q122.402 710.26 121.076 710.743ZM128.791 703.119L131.669 703.119L131.669 714.698L141.417 703.119L144.032 703.119L144.032 719.02L141.146 719.02L141.146 707.44L131.427 719.02L128.791 719.02L128.791 703.119ZM161.461 705.638L155.638 705.638L155.638 719.02L152.76 719.02L152.76 705.638L146.937 705.638L146.937 703.119L161.461 703.119L161.461 705.638ZM164.401 703.119L167.279 703.119L167.279 714.698L177.027 703.119L179.642 703.119L179.642 719.02L176.756 719.02L176.756 707.44L167.037 719.02L164.401 719.02L164.401 703.119ZM196.053 710.772Q199.137 711.549 199.137 714.64Q199.137 716.742 197.562 717.884Q195.987 719.02 192.867 719.02L185.221 719.02L185.221 703.119L192.603 703.119Q195.423 703.119 197.013 704.188Q198.602 705.25 198.602 707.198Q198.602 708.458 197.921 709.374Q197.247 710.289 196.053 710.772ZM188.04 709.959L192.362 709.959Q194.01 709.959 194.867 709.359Q195.723 708.758 195.723 707.623Q195.723 705.338 192.362 705.338L188.04 705.338L188.04 709.959ZM192.662 716.8Q194.456 716.8 195.357 716.229Q196.258 715.658 196.258 714.457Q196.258 713.226 195.43 712.633Q194.61 712.032 192.838 712.032L188.04 712.032L188.04 716.8L192.662 716.8ZM203.641 703.119L206.519 703.119L206.519 709.872L215.579 709.872L215.579 703.119L218.457 703.119L218.457 719.02L215.579 719.02L215.579 712.362L206.519 712.362L206.519 719.02L203.641 719.02L203.641 703.119ZM224.071 703.119L226.949 703.119L226.949 714.698L236.697 703.119L239.312 703.119L239.312 719.02L236.426 719.02L236.426 707.44L226.707 719.02L224.071 719.02L224.071 703.119ZM244.891 703.119L247.769 703.119L247.769 714.698L257.517 703.119L260.132 703.119L260.132 719.02L257.246 719.02L257.246 707.44L247.527 719.02L244.891 719.02L244.891 703.119ZM252.325 701.053Q250.105 701.053 248.875 699.991Q247.652 698.922 247.615 696.908L249.571 696.908Q249.6 698.021 250.332 698.695Q251.065 699.369 252.295 699.369Q253.526 699.369 254.273 698.695Q255.027 698.021 255.057 696.908L257.071 696.908Q257.041 698.922 255.782 699.991Q254.522 701.053 252.325 701.053ZM279.449 702.972Q282.753 702.972 284.503 704.591Q286.261 706.209 286.261 709.417L286.261 719.02L283.529 719.02L283.529 716.917Q282.811 718.031 281.471 718.617Q280.138 719.203 278.314 719.203Q275.641 719.203 274.037 717.914Q272.433 716.617 272.433 714.522Q272.433 712.42 273.964 711.146Q275.494 709.872 278.82 709.872L283.383 709.872L283.383 709.3Q283.383 707.44 282.299 706.451Q281.222 705.462 279.12 705.462Q277.714 705.462 276.359 705.931Q275.011 706.393 274.081 707.169L272.88 705.008Q274.11 704.02 275.817 703.5Q277.531 702.972 279.449 702.972ZM278.79 716.976Q280.438 716.976 281.639 716.244Q282.841 715.511 283.383 714.156L283.383 711.937L278.944 711.937Q275.282 711.937 275.282 714.398Q275.282 715.599 276.212 716.288Q277.142 716.976 278.79 716.976ZM291.451 703.119L294.329 703.119L294.329 709.872L303.389 709.872L303.389 703.119L306.267 703.119L306.267 719.02L303.389 719.02L303.389 712.362L294.329 712.362L294.329 719.02L291.451 719.02L291.451 703.119ZM323.731 705.638L317.908 705.638L317.908 719.02L315.03 719.02L315.03 705.638L309.207 705.638L309.207 703.119L323.731 703.119L323.731 705.638ZM326.671 703.119L329.549 703.119L329.549 714.698L339.298 703.119L341.912 703.119L341.912 719.02L339.027 719.02L339.027 707.44L329.307 719.02L326.671 719.02L326.671 703.119ZM347.491 703.119L350.369 703.119L350.369 719.02L347.491 719.02L347.491 703.119ZM348.926 700.057Q348.091 700.057 347.535 699.522Q346.978 698.98 346.978 698.197Q346.978 697.42 347.535 696.864Q348.091 696.307 348.926 696.307Q349.768 696.307 350.318 696.834Q350.874 697.362 350.874 698.138Q350.874 698.951 350.318 699.508Q349.768 700.057 348.926 700.057ZM378.627 703.119L378.627 719.02L355.981 719.02L355.981 703.119L358.859 703.119L358.859 716.5L365.883 716.5L365.883 703.119L368.761 703.119L368.761 716.5L375.749 716.5L375.749 703.119L378.627 703.119ZM398.581 711.161Q398.581 711.49 398.522 712.032L385.617 712.032Q385.888 714.127 387.463 715.409Q389.037 716.683 391.381 716.683Q394.23 716.683 395.966 714.757L397.555 716.617Q396.479 717.877 394.875 718.543Q393.271 719.203 391.286 719.203Q388.766 719.203 386.818 718.17Q384.87 717.13 383.8 715.27Q382.738 713.409 382.738 711.073Q382.738 708.758 383.771 706.898Q384.811 705.038 386.62 704.005Q388.437 702.972 390.722 702.972Q393 702.972 394.779 704.005Q396.567 705.038 397.57 706.898Q398.581 708.758 398.581 711.161ZM390.722 705.396Q388.649 705.396 387.25 706.656Q385.859 707.916 385.617 709.959L395.819 709.959Q395.578 707.953 394.179 706.678Q392.787 705.396 390.722 705.396ZM421.383 703.119L421.383 719.02L418.768 719.02L418.768 707.411L412.828 717.218L411.569 717.218L405.687 707.381L405.687 719.02L403.051 719.02L403.051 703.119L406.017 703.119L412.257 713.856L418.68 703.119L421.383 703.119ZM426.991 703.119L429.869 703.119L429.869 719.02L426.991 719.02L426.991 703.119ZM428.426 700.057Q427.591 700.057 427.035 699.522Q426.478 698.98 426.478 698.197Q426.478 697.42 427.035 696.864Q427.591 696.307 428.426 696.307Q429.268 696.307 429.818 696.834Q430.374 697.362 430.374 698.138Q430.374 698.951 429.818 699.508Q429.268 700.057 428.426 700.057ZM448.173 703.119L448.173 719.02L445.288 719.02L445.288 712.596Q442.71 713.797 440.161 713.797Q437.187 713.797 435.568 712.42Q433.95 711.036 433.95 708.282L433.95 703.119L436.828 703.119L436.828 708.099Q436.828 709.747 437.861 710.589Q438.901 711.432 440.761 711.432Q442.863 711.432 445.288 710.377L445.288 703.119L448.173 703.119ZM453.751 703.119L456.629 703.119L456.629 709.872L465.689 709.872L465.689 703.119L468.567 703.119L468.567 719.02L465.689 719.02L465.689 712.362L456.629 712.362L456.629 719.02L453.751 719.02L453.751 703.119ZM474.181 703.119L477.059 703.119L477.059 714.698L486.807 703.119L489.422 703.119L489.422 719.02L486.536 719.02L486.536 707.44L476.817 719.02L474.181 719.02L474.181 703.119ZM495.001 703.119L497.879 703.119L497.879 714.698L507.628 703.119L510.242 703.119L510.242 719.02L507.357 719.02L507.357 707.44L497.637 719.02L495.001 719.02L495.001 703.119ZM502.435 701.053Q500.215 701.053 498.985 699.991Q497.762 698.922 497.725 696.908L499.681 696.908Q499.71 698.021 500.442 698.695Q501.175 699.369 502.405 699.369Q503.636 699.369 504.383 698.695Q505.137 698.021 505.167 696.908L507.181 696.908Q507.151 698.922 505.892 699.991Q504.632 701.053 502.435 701.053ZM538.261 711.161Q538.261 711.49 538.202 712.032L525.297 712.032Q525.568 714.127 527.143 715.409Q528.717 716.683 531.061 716.683Q533.91 716.683 535.646 714.757L537.235 716.617Q536.159 717.877 534.555 718.543Q532.951 719.203 530.966 719.203Q528.446 719.203 526.498 718.17Q524.55 717.13 523.48 715.27Q522.418 713.409 522.418 711.073Q522.418 708.758 523.451 706.898Q524.491 705.038 526.3 704.005Q528.117 702.972 530.402 702.972Q532.68 702.972 534.459 704.005Q536.247 705.038 537.25 706.898Q538.261 708.758 538.261 711.161ZM530.402 705.396Q528.329 705.396 526.93 706.656Q525.539 707.916 525.297 709.959L535.499 709.959Q535.258 707.953 533.859 706.678Q532.467 705.396 530.402 705.396ZM562.799 711.036Q562.799 714.728 560.338 716.859Q557.877 718.99 553.409 719.232L553.409 724.842L550.589 724.842L550.589 719.232Q546.122 718.99 543.675 716.874Q541.229 714.757 541.229 711.036Q541.229 707.352 543.661 705.279Q546.092 703.207 550.589 702.972L550.589 696.761L553.409 696.761L553.409 702.972Q557.877 703.207 560.338 705.294Q562.799 707.381 562.799 711.036ZM544.078 711.036Q544.078 713.592 545.712 715.035Q547.352 716.471 550.589 716.683L550.589 705.521Q547.323 705.726 545.697 707.14Q544.078 708.546 544.078 711.036ZM553.409 716.712Q559.95 716.2 559.95 711.036Q559.95 708.517 558.295 707.125Q556.647 705.726 553.409 705.521L553.409 716.712ZM581.251 711.161Q581.251 711.49 581.192 712.032L568.287 712.032Q568.558 714.127 570.133 715.409Q571.707 716.683 574.051 716.683Q576.9 716.683 578.636 714.757L580.225 716.617Q579.149 717.877 577.545 718.543Q575.941 719.203 573.956 719.203Q571.436 719.203 569.488 718.17Q567.54 717.13 566.47 715.27Q565.408 713.409 565.408 711.073Q565.408 708.758 566.441 706.898Q567.481 705.038 569.29 704.005Q571.107 702.972 573.392 702.972Q575.67 702.972 577.449 704.005Q579.237 705.038 580.24 706.898Q581.251 708.758 581.251 711.161ZM573.392 705.396Q571.319 705.396 569.92 706.656Q568.529 707.916 568.287 709.959L578.489 709.959Q578.248 707.953 576.849 706.678Q575.457 705.396 573.392 705.396ZM591.902 712.296L588.599 712.296L588.599 719.02L585.721 719.02L585.721 703.119L588.599 703.119L588.599 709.842L591.961 709.842L597.117 703.119L600.208 703.119L594.18 710.772L600.633 719.02L597.242 719.02L591.902 712.296ZM615.241 705.638L609.418 705.638L609.418 719.02L606.54 719.02L606.54 705.638L600.717 705.638L600.717 703.119L615.241 703.119L615.241 705.638ZM641.163 700.628L633.963 700.628L633.963 719.02L631.019 719.02L631.019 700.628L623.848 700.628L623.848 698.021L641.163 698.021L641.163 700.628ZM660.058 716.412L660.058 719.02L644.817 719.02L644.817 698.021L659.634 698.021L659.634 700.628L647.82 700.628L647.82 707.081L658.344 707.081L658.344 709.63L647.82 709.63L647.82 716.412L660.058 716.412ZM682.828 698.021L682.828 719.02L679.825 719.02L679.825 709.659L667.77 709.659L667.77 719.02L664.767 719.02L664.767 698.021L667.77 698.021L667.77 707.052L679.825 707.052L679.825 698.021L682.828 698.021ZM698.815 719.261Q695.636 719.261 693.087 717.87Q690.539 716.471 689.081 714.01Q687.631 711.549 687.631 708.517Q687.631 705.492 689.081 703.031Q690.539 700.57 693.087 699.178Q695.636 697.779 698.815 697.779Q701.964 697.779 704.513 699.178Q707.069 700.57 708.505 703.016Q709.948 705.462 709.948 708.517Q709.948 711.578 708.505 714.024Q707.069 716.471 704.513 717.87Q701.964 719.261 698.815 719.261ZM698.815 716.588Q701.129 716.588 702.975 715.541Q704.821 714.493 705.883 712.647Q706.945 710.802 706.945 708.517Q706.945 706.239 705.883 704.393Q704.821 702.547 702.975 701.5Q701.129 700.453 698.815 700.453Q696.508 700.453 694.633 701.5Q692.758 702.547 691.688 704.393Q690.626 706.239 690.626 708.517Q690.626 710.802 691.688 712.647Q692.758 714.493 694.633 715.541Q696.508 716.588 698.815 716.588ZM728.943 700.628L721.743 700.628L721.743 719.02L718.799 719.02L718.799 700.628L711.628 700.628L711.628 698.021L728.943 698.021L728.943 700.628ZM747.838 716.412L747.838 719.02L732.597 719.02L732.597 698.021L747.414 698.021L747.414 700.628L735.6 700.628L735.6 707.081L746.125 707.081L746.125 709.63L735.6 709.63L735.6 716.412L747.838 716.412ZM770.608 698.021L770.608 719.02L767.605 719.02L767.605 709.659L755.55 709.659L755.55 719.02L752.547 719.02L752.547 698.021L755.55 698.021L755.55 707.052L767.605 707.052L767.605 698.021L770.608 698.021Z" fill="#000000" fill-opacity="1.000000" fill-rule="evenodd"/>
	<rect id="Rectangle 26" y="683.019531" rx="12.000000" width="46.000000" height="46.000000" fill="#19A056" fill-opacity="1.000000"/>
	<path id="Позитивний антиішемічний ефект стандартна терапія" d="M87.3574 761.021L87.3574 782.02L84.4204 782.02L84.4204 763.628L72.2402 763.628L72.2402 782.02L69.2666 782.02L69.2666 761.021L87.3574 761.021ZM100.232 782.203Q97.859 782.203 95.9694 781.155Q94.0797 780.101 93.0104 778.255Q91.9484 776.409 91.9484 774.073Q91.9484 771.729 93.0104 769.883Q94.0797 768.038 95.9694 767.005Q97.859 765.972 100.232 765.972Q102.598 765.972 104.473 767.005Q106.348 768.038 107.41 769.883Q108.479 771.729 108.479 774.073Q108.479 776.409 107.41 778.255Q106.348 780.101 104.473 781.155Q102.598 782.203 100.232 782.203ZM100.232 779.683Q101.755 779.683 102.971 778.98Q104.187 778.27 104.876 776.995Q105.571 775.721 105.571 774.073Q105.571 772.417 104.876 771.143Q104.187 769.869 102.971 769.18Q101.755 768.492 100.232 768.492Q98.7013 768.492 97.4855 769.18Q96.2696 769.869 95.5592 771.143Q94.8561 772.417 94.8561 774.073Q94.8561 775.721 95.5592 776.995Q96.2696 778.27 97.4855 778.98Q98.7013 779.683 100.232 779.683ZM121.076 773.743Q122.673 774.161 123.537 775.091Q124.409 776.021 124.409 777.398Q124.409 778.812 123.45 779.91Q122.49 781.001 120.791 781.617Q119.099 782.232 116.997 782.232Q115.232 782.232 113.533 781.771Q111.841 781.302 110.522 780.43L111.387 778.24Q112.529 778.958 114.001 779.368Q115.473 779.771 116.968 779.771Q119.011 779.771 120.227 779.068Q121.443 778.357 121.443 777.156Q121.443 776.05 120.461 775.45Q119.487 774.849 117.722 774.849L114.807 774.849L114.807 772.776L117.51 772.776Q119.128 772.776 120.058 772.212Q120.989 771.641 120.989 770.652Q120.989 769.568 119.89 768.968Q118.799 768.367 116.938 768.367Q114.573 768.367 111.929 769.598L111.152 767.378Q114.06 765.906 117.239 765.906Q119.158 765.906 120.688 766.448Q122.219 766.99 123.091 767.979Q123.962 768.968 123.962 770.228Q123.962 771.399 123.179 772.33Q122.402 773.26 121.076 773.743ZM128.791 766.119L131.669 766.119L131.669 777.698L141.417 766.119L144.032 766.119L144.032 782.02L141.146 782.02L141.146 770.44L131.427 782.02L128.791 782.02L128.791 766.119ZM161.461 768.638L155.638 768.638L155.638 782.02L152.76 782.02L152.76 768.638L146.937 768.638L146.937 766.119L161.461 766.119L161.461 768.638ZM164.401 766.119L167.279 766.119L167.279 777.698L177.027 766.119L179.642 766.119L179.642 782.02L176.756 782.02L176.756 770.44L167.037 782.02L164.401 782.02L164.401 766.119ZM196.053 773.772Q199.137 774.549 199.137 777.64Q199.137 779.742 197.562 780.884Q195.987 782.02 192.867 782.02L185.221 782.02L185.221 766.119L192.603 766.119Q195.423 766.119 197.013 767.188Q198.602 768.25 198.602 770.198Q198.602 771.458 197.921 772.374Q197.247 773.289 196.053 773.772ZM188.04 772.959L192.362 772.959Q194.01 772.959 194.867 772.359Q195.723 771.758 195.723 770.623Q195.723 768.338 192.362 768.338L188.04 768.338L188.04 772.959ZM192.662 779.8Q194.456 779.8 195.357 779.229Q196.258 778.658 196.258 777.457Q196.258 776.226 195.43 775.633Q194.61 775.032 192.838 775.032L188.04 775.032L188.04 779.8L192.662 779.8ZM203.641 766.119L206.519 766.119L206.519 772.872L215.579 772.872L215.579 766.119L218.457 766.119L218.457 782.02L215.579 782.02L215.579 775.362L206.519 775.362L206.519 782.02L203.641 782.02L203.641 766.119ZM224.071 766.119L226.949 766.119L226.949 777.698L236.697 766.119L239.312 766.119L239.312 782.02L236.426 782.02L236.426 770.44L226.707 782.02L224.071 782.02L224.071 766.119ZM244.891 766.119L247.769 766.119L247.769 777.698L257.517 766.119L260.132 766.119L260.132 782.02L257.246 782.02L257.246 770.44L247.527 782.02L244.891 782.02L244.891 766.119ZM252.325 764.053Q250.105 764.053 248.875 762.991Q247.652 761.922 247.615 759.908L249.571 759.908Q249.6 761.021 250.332 761.695Q251.065 762.369 252.295 762.369Q253.526 762.369 254.273 761.695Q255.027 761.021 255.057 759.908L257.071 759.908Q257.041 761.922 255.782 762.991Q254.522 764.053 252.325 764.053ZM279.449 765.972Q282.753 765.972 284.503 767.591Q286.261 769.209 286.261 772.417L286.261 782.02L283.529 782.02L283.529 779.917Q282.811 781.031 281.471 781.617Q280.138 782.203 278.314 782.203Q275.641 782.203 274.037 780.914Q272.433 779.617 272.433 777.522Q272.433 775.42 273.964 774.146Q275.494 772.872 278.82 772.872L283.383 772.872L283.383 772.3Q283.383 770.44 282.299 769.451Q281.222 768.462 279.12 768.462Q277.714 768.462 276.359 768.931Q275.011 769.393 274.081 770.169L272.88 768.008Q274.11 767.02 275.817 766.5Q277.531 765.972 279.449 765.972ZM278.79 779.976Q280.438 779.976 281.639 779.244Q282.841 778.511 283.383 777.156L283.383 774.937L278.944 774.937Q275.282 774.937 275.282 777.398Q275.282 778.599 276.212 779.288Q277.142 779.976 278.79 779.976ZM291.451 766.119L294.329 766.119L294.329 772.872L303.389 772.872L303.389 766.119L306.267 766.119L306.267 782.02L303.389 782.02L303.389 775.362L294.329 775.362L294.329 782.02L291.451 782.02L291.451 766.119ZM323.731 768.638L317.908 768.638L317.908 782.02L315.03 782.02L315.03 768.638L309.207 768.638L309.207 766.119L323.731 766.119L323.731 768.638ZM326.671 766.119L329.549 766.119L329.549 777.698L339.298 766.119L341.912 766.119L341.912 782.02L339.027 782.02L339.027 770.44L329.307 782.02L326.671 782.02L326.671 766.119ZM347.491 766.119L350.369 766.119L350.369 782.02L347.491 782.02L347.491 766.119ZM348.926 763.057Q348.091 763.057 347.535 762.522Q346.978 761.98 346.978 761.197Q346.978 760.42 347.535 759.864Q348.091 759.307 348.926 759.307Q349.768 759.307 350.318 759.834Q350.874 760.362 350.874 761.138Q350.874 761.951 350.318 762.508Q349.768 763.057 348.926 763.057ZM378.627 766.119L378.627 782.02L355.981 782.02L355.981 766.119L358.859 766.119L358.859 779.5L365.883 779.5L365.883 766.119L368.761 766.119L368.761 779.5L375.749 779.5L375.749 766.119L378.627 766.119ZM398.581 774.161Q398.581 774.49 398.522 775.032L385.617 775.032Q385.888 777.127 387.463 778.409Q389.037 779.683 391.381 779.683Q394.23 779.683 395.966 777.757L397.555 779.617Q396.479 780.877 394.875 781.543Q393.271 782.203 391.286 782.203Q388.766 782.203 386.818 781.17Q384.87 780.13 383.8 778.27Q382.738 776.409 382.738 774.073Q382.738 771.758 383.771 769.898Q384.811 768.038 386.62 767.005Q388.437 765.972 390.722 765.972Q393 765.972 394.779 767.005Q396.567 768.038 397.57 769.898Q398.581 771.758 398.581 774.161ZM390.722 768.396Q388.649 768.396 387.25 769.656Q385.859 770.916 385.617 772.959L395.819 772.959Q395.578 770.953 394.179 769.678Q392.787 768.396 390.722 768.396ZM421.383 766.119L421.383 782.02L418.768 782.02L418.768 770.411L412.828 780.218L411.569 780.218L405.687 770.381L405.687 782.02L403.051 782.02L403.051 766.119L406.017 766.119L412.257 776.856L418.68 766.119L421.383 766.119ZM426.991 766.119L429.869 766.119L429.869 782.02L426.991 782.02L426.991 766.119ZM428.426 763.057Q427.591 763.057 427.035 762.522Q426.478 761.98 426.478 761.197Q426.478 760.42 427.035 759.864Q427.591 759.307 428.426 759.307Q429.268 759.307 429.818 759.834Q430.374 760.362 430.374 761.138Q430.374 761.951 429.818 762.508Q429.268 763.057 428.426 763.057ZM448.173 766.119L448.173 782.02L445.288 782.02L445.288 775.596Q442.71 776.797 440.161 776.797Q437.187 776.797 435.568 775.42Q433.95 774.036 433.95 771.282L433.95 766.119L436.828 766.119L436.828 771.099Q436.828 772.747 437.861 773.589Q438.901 774.432 440.761 774.432Q442.863 774.432 445.288 773.377L445.288 766.119L448.173 766.119ZM453.751 766.119L456.629 766.119L456.629 772.872L465.689 772.872L465.689 766.119L468.567 766.119L468.567 782.02L465.689 782.02L465.689 775.362L456.629 775.362L456.629 782.02L453.751 782.02L453.751 766.119ZM474.181 766.119L477.059 766.119L477.059 777.698L486.807 766.119L489.422 766.119L489.422 782.02L486.536 782.02L486.536 770.44L476.817 782.02L474.181 782.02L474.181 766.119ZM495.001 766.119L497.879 766.119L497.879 777.698L507.628 766.119L510.242 766.119L510.242 782.02L507.357 782.02L507.357 770.44L497.637 782.02L495.001 782.02L495.001 766.119ZM502.435 764.053Q500.215 764.053 498.985 762.991Q497.762 761.922 497.725 759.908L499.681 759.908Q499.71 761.021 500.442 761.695Q501.175 762.369 502.405 762.369Q503.636 762.369 504.383 761.695Q505.137 761.021 505.167 759.908L507.181 759.908Q507.151 761.922 505.892 762.991Q504.632 764.053 502.435 764.053ZM538.261 774.161Q538.261 774.49 538.202 775.032L525.297 775.032Q525.568 777.127 527.143 778.409Q528.717 779.683 531.061 779.683Q533.91 779.683 535.646 777.757L537.235 779.617Q536.159 780.877 534.555 781.543Q532.951 782.203 530.966 782.203Q528.446 782.203 526.498 781.17Q524.55 780.13 523.48 778.27Q522.418 776.409 522.418 774.073Q522.418 771.758 523.451 769.898Q524.491 768.038 526.3 767.005Q528.117 765.972 530.402 765.972Q532.68 765.972 534.459 767.005Q536.247 768.038 537.25 769.898Q538.261 771.758 538.261 774.161ZM530.402 768.396Q528.329 768.396 526.93 769.656Q525.539 770.916 525.297 772.959L535.499 772.959Q535.258 770.953 533.859 769.678Q532.467 768.396 530.402 768.396ZM562.799 774.036Q562.799 777.728 560.338 779.859Q557.877 781.99 553.409 782.232L553.409 787.842L550.589 787.842L550.589 782.232Q546.122 781.99 543.675 779.874Q541.229 777.757 541.229 774.036Q541.229 770.352 543.661 768.279Q546.092 766.207 550.589 765.972L550.589 759.761L553.409 759.761L553.409 765.972Q557.877 766.207 560.338 768.294Q562.799 770.381 562.799 774.036ZM544.078 774.036Q544.078 776.592 545.712 778.035Q547.352 779.471 550.589 779.683L550.589 768.521Q547.323 768.726 545.697 770.14Q544.078 771.546 544.078 774.036ZM553.409 779.712Q559.95 779.2 559.95 774.036Q559.95 771.517 558.295 770.125Q556.647 768.726 553.409 768.521L553.409 779.712ZM581.251 774.161Q581.251 774.49 581.192 775.032L568.287 775.032Q568.558 777.127 570.133 778.409Q571.707 779.683 574.051 779.683Q576.9 779.683 578.636 777.757L580.225 779.617Q579.149 780.877 577.545 781.543Q575.941 782.203 573.956 782.203Q571.436 782.203 569.488 781.17Q567.54 780.13 566.47 778.27Q565.408 776.409 565.408 774.073Q565.408 771.758 566.441 769.898Q567.481 768.038 569.29 767.005Q571.107 765.972 573.392 765.972Q575.67 765.972 577.449 767.005Q579.237 768.038 580.24 769.898Q581.251 771.758 581.251 774.161ZM573.392 768.396Q571.319 768.396 569.92 769.656Q568.529 770.916 568.287 772.959L578.489 772.959Q578.248 770.953 576.849 769.678Q575.457 768.396 573.392 768.396ZM591.902 775.296L588.599 775.296L588.599 782.02L585.721 782.02L585.721 766.119L588.599 766.119L588.599 772.842L591.961 772.842L597.117 766.119L600.208 766.119L594.18 773.772L600.633 782.02L597.242 782.02L591.902 775.296ZM615.241 768.638L609.418 768.638L609.418 782.02L606.54 782.02L606.54 768.638L600.717 768.638L600.717 766.119L615.241 766.119L615.241 768.638ZM633.179 782.203Q630.748 782.203 628.843 781.155Q626.939 780.101 625.855 778.255Q624.778 776.409 624.778 774.073Q624.778 771.729 625.855 769.883Q626.939 768.038 628.843 767.005Q630.748 765.972 633.179 765.972Q635.34 765.972 637.032 766.844Q638.731 767.708 639.661 769.356L637.471 770.77Q636.717 769.627 635.604 769.063Q634.498 768.492 633.15 768.492Q631.59 768.492 630.345 769.18Q629.1 769.869 628.389 771.143Q627.686 772.417 627.686 774.073Q627.686 775.75 628.389 777.024Q629.1 778.299 630.345 778.995Q631.59 779.683 633.15 779.683Q634.498 779.683 635.604 779.112Q636.717 778.541 637.471 777.398L639.661 778.782Q638.731 780.43 637.032 781.316Q635.34 782.203 633.179 782.203ZM655.021 768.638L649.198 768.638L649.198 782.02L646.32 782.02L646.32 768.638L640.497 768.638L640.497 766.119L655.021 766.119L655.021 768.638ZM663.629 765.972Q666.933 765.972 668.683 767.591Q670.441 769.209 670.441 772.417L670.441 782.02L667.709 782.02L667.709 779.917Q666.991 781.031 665.651 781.617Q664.318 782.203 662.494 782.203Q659.821 782.203 658.217 780.914Q656.613 779.617 656.613 777.522Q656.613 775.42 658.144 774.146Q659.674 772.872 663 772.872L667.563 772.872L667.563 772.3Q667.563 770.44 666.479 769.451Q665.402 768.462 663.3 768.462Q661.894 768.462 660.539 768.931Q659.191 769.393 658.261 770.169L657.06 768.008Q658.29 767.02 659.997 766.5Q661.711 765.972 663.629 765.972ZM662.97 779.976Q664.618 779.976 665.819 779.244Q667.021 778.511 667.563 777.156L667.563 774.937L663.124 774.937Q659.462 774.937 659.462 777.398Q659.462 778.599 660.392 779.288Q661.322 779.976 662.97 779.976ZM675.63 766.119L678.509 766.119L678.509 772.872L687.569 772.872L687.569 766.119L690.447 766.119L690.447 782.02L687.569 782.02L687.569 775.362L678.509 775.362L678.509 782.02L675.63 782.02L675.63 766.119ZM712.232 779.5L712.232 785.711L709.53 785.711L709.53 782.02L696.244 782.02L696.244 785.711L693.512 785.711L693.512 779.5L694.347 779.5Q695.877 779.412 696.449 777.339Q697.02 775.267 697.232 771.487L697.467 766.119L709.801 766.119L709.801 779.5L712.232 779.5ZM699.869 771.7Q699.752 774.703 699.371 776.666Q698.997 778.628 698.009 779.5L706.922 779.5L706.922 768.638L700.023 768.638L699.869 771.7ZM721.649 765.972Q724.953 765.972 726.703 767.591Q728.461 769.209 728.461 772.417L728.461 782.02L725.729 782.02L725.729 779.917Q725.011 781.031 723.671 781.617Q722.338 782.203 720.514 782.203Q717.841 782.203 716.237 780.914Q714.633 779.617 714.633 777.522Q714.633 775.42 716.164 774.146Q717.694 772.872 721.02 772.872L725.583 772.872L725.583 772.3Q725.583 770.44 724.499 769.451Q723.422 768.462 721.32 768.462Q719.914 768.462 718.559 768.931Q717.211 769.393 716.281 770.169L715.08 768.008Q716.31 767.02 718.017 766.5Q719.73 765.972 721.649 765.972ZM720.99 779.976Q722.638 779.976 723.839 779.244Q725.041 778.511 725.583 777.156L725.583 774.937L721.144 774.937Q717.482 774.937 717.482 777.398Q717.482 778.599 718.412 779.288Q719.342 779.976 720.99 779.976ZM742.081 765.972Q744.388 765.972 746.219 766.99Q748.05 768.008 749.083 769.839Q750.115 771.67 750.115 774.073Q750.115 776.468 749.083 778.313Q748.05 780.159 746.219 781.185Q744.388 782.203 742.081 782.203Q740.367 782.203 738.939 781.543Q737.518 780.877 736.529 779.617L736.529 787.842L733.65 787.842L733.65 766.119L736.412 766.119L736.412 768.638Q737.371 767.32 738.836 766.646Q740.308 765.972 742.081 765.972ZM741.839 779.683Q743.37 779.683 744.586 778.98Q745.801 778.27 746.504 776.995Q747.208 775.721 747.208 774.073Q747.208 772.417 746.504 771.143Q745.801 769.869 744.586 769.18Q743.37 768.492 741.839 768.492Q740.337 768.492 739.122 769.195Q737.906 769.898 737.203 771.158Q736.5 772.417 736.5 774.073Q736.5 775.721 737.188 776.995Q737.877 778.27 739.107 778.98Q740.337 779.683 741.839 779.683ZM765.541 768.638L759.718 768.638L759.718 782.02L756.84 782.02L756.84 768.638L751.017 768.638L751.017 766.119L765.541 766.119L765.541 768.638ZM768.48 766.119L771.359 766.119L771.359 772.872L780.419 772.872L780.419 766.119L783.297 766.119L783.297 782.02L780.419 782.02L780.419 775.362L771.359 775.362L771.359 782.02L768.48 782.02L768.48 766.119ZM794.579 765.972Q797.883 765.972 799.633 767.591Q801.391 769.209 801.391 772.417L801.391 782.02L798.659 782.02L798.659 779.917Q797.941 781.031 796.601 781.617Q795.268 782.203 793.444 782.203Q790.771 782.203 789.167 780.914Q787.563 779.617 787.563 777.522Q787.563 775.42 789.094 774.146Q790.624 772.872 793.949 772.872L798.512 772.872L798.512 772.3Q798.512 770.44 797.428 769.451Q796.352 768.462 794.25 768.462Q792.844 768.462 791.489 768.931Q790.141 769.393 789.211 770.169L788.01 768.008Q789.24 767.02 790.947 766.5Q792.66 765.972 794.579 765.972ZM793.92 779.976Q795.568 779.976 796.769 779.244Q797.97 778.511 798.512 777.156L798.512 774.937L794.074 774.937Q790.412 774.937 790.412 777.398Q790.412 778.599 791.342 779.288Q792.272 779.976 793.92 779.976ZM826.501 768.638L820.678 768.638L820.678 782.02L817.8 782.02L817.8 768.638L811.977 768.638L811.977 766.119L826.501 766.119L826.501 768.638ZM843.12 774.161Q843.12 774.49 843.062 775.032L830.157 775.032Q830.428 777.127 832.002 778.409Q833.577 779.683 835.921 779.683Q838.77 779.683 840.506 777.757L842.095 779.617Q841.018 780.877 839.414 781.543Q837.81 782.203 835.826 782.203Q833.306 782.203 831.358 781.17Q829.41 780.13 828.34 778.27Q827.278 776.409 827.278 774.073Q827.278 771.758 828.311 769.898Q829.351 768.038 831.16 767.005Q832.976 765.972 835.262 765.972Q837.539 765.972 839.319 767.005Q841.106 768.038 842.11 769.898Q843.12 771.758 843.12 774.161ZM835.262 768.396Q833.189 768.396 831.79 769.656Q830.398 770.916 830.157 772.959L840.359 772.959Q840.118 770.953 838.719 769.678Q837.327 768.396 835.262 768.396ZM856.021 765.972Q858.328 765.972 860.159 766.99Q861.99 768.008 863.023 769.839Q864.055 771.67 864.055 774.073Q864.055 776.468 863.023 778.313Q861.99 780.159 860.159 781.185Q858.328 782.203 856.021 782.203Q854.307 782.203 852.878 781.543Q851.458 780.877 850.469 779.617L850.469 787.842L847.59 787.842L847.59 766.119L850.352 766.119L850.352 768.638Q851.311 767.32 852.776 766.646Q854.248 765.972 856.021 765.972ZM855.779 779.683Q857.31 779.683 858.525 778.98Q859.741 778.27 860.444 776.995Q861.148 775.721 861.148 774.073Q861.148 772.417 860.444 771.143Q859.741 769.869 858.525 769.18Q857.31 768.492 855.779 768.492Q854.277 768.492 853.062 769.195Q851.846 769.898 851.143 771.158Q850.44 772.417 850.44 774.073Q850.44 775.721 851.128 776.995Q851.816 778.27 853.047 778.98Q854.277 779.683 855.779 779.683ZM873.749 765.972Q877.053 765.972 878.803 767.591Q880.561 769.209 880.561 772.417L880.561 782.02L877.829 782.02L877.829 779.917Q877.111 781.031 875.771 781.617Q874.438 782.203 872.614 782.203Q869.941 782.203 868.337 780.914Q866.733 779.617 866.733 777.522Q866.733 775.42 868.263 774.146Q869.794 772.872 873.119 772.872L877.682 772.872L877.682 772.3Q877.682 770.44 876.598 769.451Q875.522 768.462 873.42 768.462Q872.013 768.462 870.659 768.931Q869.311 769.393 868.381 770.169L867.18 768.008Q868.41 767.02 870.117 766.5Q871.83 765.972 873.749 765.972ZM873.09 779.976Q874.738 779.976 875.939 779.244Q877.14 778.511 877.682 777.156L877.682 774.937L873.244 774.937Q869.582 774.937 869.582 777.398Q869.582 778.599 870.512 779.288Q871.442 779.976 873.09 779.976ZM900.479 766.119L900.479 782.02L897.601 782.02L897.601 768.638L888.629 768.638L888.629 782.02L885.75 782.02L885.75 766.119L900.479 766.119ZM906.06 766.119L908.939 766.119L908.939 782.02L906.06 782.02L906.06 766.119ZM907.496 763.057Q906.661 763.057 906.104 762.522Q905.548 761.98 905.548 761.197Q905.548 760.42 906.104 759.864Q906.661 759.307 907.496 759.307Q908.338 759.307 908.888 759.834Q909.444 760.362 909.444 761.138Q909.444 761.951 908.888 762.508Q908.338 763.057 907.496 763.057ZM927.302 766.119L927.302 782.02L924.716 782.02L924.716 776.98L920.102 776.98L919.773 776.98L916.286 782.02L913.203 782.02L917.07 776.592Q915.268 776.05 914.309 774.805Q913.349 773.56 913.349 771.7Q913.349 768.968 915.21 767.547Q917.07 766.119 920.336 766.119L927.302 766.119ZM916.286 771.788Q916.286 773.377 917.29 774.146Q918.3 774.908 920.307 774.908L924.716 774.908L924.716 768.638L920.432 768.638Q916.286 768.638 916.286 771.788Z" fill="#000000" fill-opacity="1.000000" fill-rule="evenodd"/>
	<rect id="Rectangle 26" y="746.019531" rx="12.000000" width="46.000000" height="46.000000" fill="url(#paint_linear_81_4779_0)" fill-opacity="1.000000"/>
	<path id="Відсутність ефекту" d="M1114.35 733.128Q1116.48 733.641 1117.57 734.945Q1118.67 736.249 1118.67 738.292Q1118.67 741.017 1116.67 742.518Q1114.68 744.02 1110.87 744.02L1101.27 744.02L1101.27 723.021L1110.3 723.021Q1113.75 723.021 1115.68 724.42Q1117.62 725.812 1117.62 728.419Q1117.62 730.133 1116.76 731.334Q1115.91 732.528 1114.35 733.128ZM1104.24 732.257L1110.09 732.257Q1112.28 732.257 1113.43 731.393Q1114.59 730.521 1114.59 728.836Q1114.59 727.159 1113.42 726.273Q1112.25 725.387 1110.09 725.387L1104.24 725.387L1104.24 732.257ZM1110.81 741.646Q1115.64 741.646 1115.64 738.05Q1115.64 736.249 1114.42 735.399Q1113.21 734.542 1110.81 734.542L1104.24 734.542L1104.24 741.646L1110.81 741.646ZM1123.2 728.119L1126.08 728.119L1126.08 744.02L1123.2 744.02L1123.2 728.119ZM1124.64 725.057Q1123.8 725.057 1123.24 724.522Q1122.69 723.98 1122.69 723.197Q1122.69 722.42 1123.24 721.864Q1123.8 721.307 1124.64 721.307Q1125.48 721.307 1126.03 721.834Q1126.58 722.362 1126.58 723.138Q1126.58 723.951 1126.03 724.508Q1125.48 725.057 1124.64 725.057ZM1147.86 741.5L1147.86 747.711L1145.16 747.711L1145.16 744.02L1131.87 744.02L1131.87 747.711L1129.14 747.711L1129.14 741.5L1129.98 741.5Q1131.51 741.412 1132.08 739.339Q1132.65 737.267 1132.86 733.487L1133.1 728.119L1145.43 728.119L1145.43 741.5L1147.86 741.5ZM1135.5 733.7Q1135.38 736.703 1135 738.666Q1134.63 740.628 1133.64 741.5L1142.55 741.5L1142.55 730.638L1135.65 730.638L1135.5 733.7ZM1158.54 744.203Q1156.11 744.203 1154.2 743.155Q1152.3 742.101 1151.21 740.255Q1150.14 738.409 1150.14 736.073Q1150.14 733.729 1151.21 731.883Q1152.3 730.038 1154.2 729.005Q1156.11 727.972 1158.54 727.972Q1160.7 727.972 1162.39 728.844Q1164.09 729.708 1165.02 731.356L1162.83 732.77Q1162.08 731.627 1160.96 731.063Q1159.86 730.492 1158.51 730.492Q1156.95 730.492 1155.7 731.18Q1154.46 731.869 1153.75 733.143Q1153.05 734.417 1153.05 736.073Q1153.05 737.75 1153.75 739.024Q1154.46 740.299 1155.7 740.995Q1156.95 741.683 1158.51 741.683Q1159.86 741.683 1160.96 741.112Q1162.08 740.541 1162.83 739.398L1165.02 740.782Q1164.09 742.43 1162.39 743.316Q1160.7 744.203 1158.54 744.203ZM1182.72 728.119L1175.01 745.609Q1173.99 748.041 1172.62 749.029Q1171.26 750.018 1169.34 750.018Q1168.17 750.018 1167.07 749.645Q1165.98 749.271 1165.26 748.546L1166.49 746.393Q1167.72 747.557 1169.34 747.557Q1170.39 747.557 1171.09 747Q1171.8 746.451 1172.38 745.096L1172.88 743.99L1165.86 728.119L1168.86 728.119L1174.41 740.841L1179.91 728.119L1182.72 728.119ZM1197.6 730.638L1191.78 730.638L1191.78 744.02L1188.9 744.02L1188.9 730.638L1183.08 730.638L1183.08 728.119L1197.6 728.119L1197.6 730.638ZM1200.54 728.119L1203.42 728.119L1203.42 734.872L1212.48 734.872L1212.48 728.119L1215.36 728.119L1215.36 744.02L1212.48 744.02L1212.48 737.362L1203.42 737.362L1203.42 744.02L1200.54 744.02L1200.54 728.119ZM1220.97 728.119L1223.85 728.119L1223.85 744.02L1220.97 744.02L1220.97 728.119ZM1222.41 725.057Q1221.57 725.057 1221.01 724.522Q1220.46 723.98 1220.46 723.197Q1220.46 722.42 1221.01 721.864Q1221.57 721.307 1222.41 721.307Q1223.25 721.307 1223.8 721.834Q1224.35 722.362 1224.35 723.138Q1224.35 723.951 1223.8 724.508Q1223.25 725.057 1222.41 725.057ZM1236.39 744.203Q1233.96 744.203 1232.05 743.155Q1230.15 742.101 1229.07 740.255Q1227.99 738.409 1227.99 736.073Q1227.99 733.729 1229.07 731.883Q1230.15 730.038 1232.05 729.005Q1233.96 727.972 1236.39 727.972Q1238.55 727.972 1240.24 728.844Q1241.94 729.708 1242.87 731.356L1240.68 732.77Q1239.93 731.627 1238.81 731.063Q1237.71 730.492 1236.36 730.492Q1234.8 730.492 1233.55 731.18Q1232.31 731.869 1231.6 733.143Q1230.9 734.417 1230.9 736.073Q1230.9 737.75 1231.6 739.024Q1232.31 740.299 1233.55 740.995Q1234.8 741.683 1236.36 741.683Q1237.71 741.683 1238.81 741.112Q1239.93 740.541 1240.68 739.398L1242.87 740.782Q1241.94 742.43 1240.24 743.316Q1238.55 744.203 1236.39 744.203ZM1258.23 730.638L1252.41 730.638L1252.41 744.02L1249.53 744.02L1249.53 730.638L1243.71 730.638L1243.71 728.119L1258.23 728.119L1258.23 730.638ZM1268.52 733.517Q1271.55 733.546 1273.14 734.901Q1274.73 736.249 1274.73 738.709Q1274.73 741.288 1273 742.687Q1271.28 744.078 1268.07 744.049L1261.17 744.02L1261.17 728.119L1264.05 728.119L1264.05 733.487L1268.52 733.517ZM1267.83 741.859Q1269.78 741.888 1270.78 741.083Q1271.79 740.27 1271.79 738.68Q1271.79 737.12 1270.82 736.402Q1269.84 735.677 1267.83 735.648L1264.05 735.589L1264.05 741.83L1267.83 741.859ZM1300.86 736.161Q1300.86 736.49 1300.8 737.032L1287.9 737.032Q1288.17 739.127 1289.74 740.409Q1291.32 741.683 1293.66 741.683Q1296.51 741.683 1298.25 739.757L1299.84 741.617Q1298.76 742.877 1297.15 743.543Q1295.55 744.203 1293.57 744.203Q1291.05 744.203 1289.1 743.17Q1287.15 742.13 1286.08 740.27Q1285.02 738.409 1285.02 736.073Q1285.02 733.758 1286.05 731.898Q1287.09 730.038 1288.9 729.005Q1290.72 727.972 1293 727.972Q1295.28 727.972 1297.06 729.005Q1298.85 730.038 1299.85 731.898Q1300.86 733.758 1300.86 736.161ZM1293 730.396Q1290.93 730.396 1289.53 731.656Q1288.14 732.916 1287.9 734.959L1298.1 734.959Q1297.86 732.953 1296.46 731.678Q1295.07 730.396 1293 730.396ZM1325.4 736.036Q1325.4 739.728 1322.94 741.859Q1320.48 743.99 1316.01 744.232L1316.01 749.842L1313.19 749.842L1313.19 744.232Q1308.72 743.99 1306.28 741.874Q1303.83 739.757 1303.83 736.036Q1303.83 732.352 1306.26 730.279Q1308.69 728.207 1313.19 727.972L1313.19 721.761L1316.01 721.761L1316.01 727.972Q1320.48 728.207 1322.94 730.294Q1325.4 732.381 1325.4 736.036ZM1306.68 736.036Q1306.68 738.592 1308.31 740.035Q1309.95 741.471 1313.19 741.683L1313.19 730.521Q1309.92 730.726 1308.3 732.14Q1306.68 733.546 1306.68 736.036ZM1316.01 741.712Q1322.55 741.2 1322.55 736.036Q1322.55 733.517 1320.89 732.125Q1319.25 730.726 1316.01 730.521L1316.01 741.712ZM1343.85 736.161Q1343.85 736.49 1343.79 737.032L1330.89 737.032Q1331.16 739.127 1332.73 740.409Q1334.31 741.683 1336.65 741.683Q1339.5 741.683 1341.24 739.757L1342.83 741.617Q1341.75 742.877 1340.14 743.543Q1338.54 744.203 1336.56 744.203Q1334.04 744.203 1332.09 743.17Q1330.14 742.13 1329.07 740.27Q1328.01 738.409 1328.01 736.073Q1328.01 733.758 1329.04 731.898Q1330.08 730.038 1331.89 729.005Q1333.71 727.972 1335.99 727.972Q1338.27 727.972 1340.05 729.005Q1341.84 730.038 1342.84 731.898Q1343.85 733.758 1343.85 736.161ZM1335.99 730.396Q1333.92 730.396 1332.52 731.656Q1331.13 732.916 1330.89 734.959L1341.09 734.959Q1340.85 732.953 1339.45 731.678Q1338.06 730.396 1335.99 730.396ZM1354.5 737.296L1351.2 737.296L1351.2 744.02L1348.32 744.02L1348.32 728.119L1351.2 728.119L1351.2 734.842L1354.56 734.842L1359.72 728.119L1362.81 728.119L1356.78 735.772L1363.23 744.02L1359.84 744.02L1354.5 737.296ZM1377.84 730.638L1372.02 730.638L1372.02 744.02L1369.14 744.02L1369.14 730.638L1363.32 730.638L1363.32 728.119L1377.84 728.119L1377.84 730.638ZM1395.06 728.119L1387.35 745.609Q1386.33 748.041 1384.96 749.029Q1383.6 750.018 1381.68 750.018Q1380.51 750.018 1379.41 749.645Q1378.32 749.271 1377.6 748.546L1378.83 746.393Q1380.06 747.557 1381.68 747.557Q1382.73 747.557 1383.43 747Q1384.14 746.451 1384.72 745.096L1385.22 743.99L1378.2 728.119L1381.2 728.119L1386.75 740.841L1392.24 728.119L1395.06 728.119Z" fill="#000000" fill-opacity="1.000000" fill-rule="evenodd"/>
	<rect id="Rectangle 26" x="1032.000000" y="708.019531" rx="12.000000" width="46.000000" height="46.000000" fill="url(#paint_linear_81_4782_0)" fill-opacity="1.000000"/>
	<path id="ТЕНОТЕН + стандартна терапія, % пацієнтів" d="M449.661 12.3665L441.543 12.3665L441.543 33.0195L437.032 33.0195L437.032 12.3665L428.94 12.3665L428.94 8.52124L449.661 8.52124L449.661 12.3665ZM471.951 29.2085L471.951 33.0195L453.579 33.0195L453.579 8.52124L471.464 8.52124L471.464 12.3323L458.133 12.3323L458.133 18.7068L469.96 18.7068L469.96 22.4495L458.133 22.4495L458.133 29.2085L471.951 29.2085ZM498.801 8.52124L498.801 33.0195L494.247 33.0195L494.247 22.5178L481.583 22.5178L481.583 33.0195L477.029 33.0195L477.029 8.52124L481.583 8.52124L481.583 18.6384L494.247 18.6384L494.247 8.52124L498.801 8.52124ZM516.998 33.3699Q513.255 33.3699 510.248 31.7463Q507.24 30.1143 505.522 27.2261Q503.805 24.3379 503.805 20.7661Q503.805 17.2029 505.522 14.3147Q507.24 11.4265 510.248 9.80298Q513.255 8.1709 516.998 8.1709Q520.749 8.1709 523.757 9.80298Q526.765 11.4265 528.482 14.2976Q530.2 17.1687 530.2 20.7661Q530.2 24.3721 528.482 27.2432Q526.765 30.1143 523.757 31.7463Q520.749 33.3699 516.998 33.3699ZM516.998 29.3794Q519.451 29.3794 521.407 28.2771Q523.373 27.1748 524.492 25.2009Q525.611 23.2185 525.611 20.7661Q525.611 18.3223 524.492 16.3484Q523.373 14.366 521.407 13.2637Q519.451 12.1614 516.998 12.1614Q514.554 12.1614 512.589 13.2637Q510.632 14.366 509.513 16.3484Q508.393 18.3223 508.393 20.7661Q508.393 23.2185 509.513 25.2009Q510.632 27.1748 512.589 28.2771Q514.554 29.3794 516.998 29.3794ZM552.666 12.3665L544.548 12.3665L544.548 33.0195L540.037 33.0195L540.037 12.3665L531.945 12.3665L531.945 8.52124L552.666 8.52124L552.666 12.3665ZM574.956 29.2085L574.956 33.0195L556.584 33.0195L556.584 8.52124L574.469 8.52124L574.469 12.3323L561.138 12.3323L561.138 18.7068L572.965 18.7068L572.965 22.4495L561.138 22.4495L561.138 29.2085L574.956 29.2085ZM601.806 8.52124L601.806 33.0195L597.252 33.0195L597.252 22.5178L584.588 22.5178L584.588 33.0195L580.034 33.0195L580.034 8.52124L584.588 8.52124L584.588 18.6384L597.252 18.6384L597.252 8.52124L601.806 8.52124ZM633.303 22.5178L627.117 22.5178L627.117 28.6445L623.366 28.6445L623.366 22.5178L617.17 22.5178L617.17 19.023L623.366 19.023L623.366 12.8962L627.117 12.8962L627.117 19.023L633.303 19.023L633.303 22.5178ZM245.522 82.2673Q242.616 82.2673 240.309 81.0454Q238.002 79.8149 236.703 77.6274Q235.413 75.4399 235.413 72.6714Q235.413 69.9114 236.703 67.741Q238.002 65.5706 240.292 64.3486Q242.582 63.1182 245.522 63.1182Q248.29 63.1182 250.367 64.2375Q252.452 65.3569 253.503 67.459L250.144 69.4158Q249.341 68.1255 248.128 67.4761Q246.923 66.8267 245.487 66.8267Q243.044 66.8267 241.429 68.4246Q239.822 70.0139 239.822 72.6714Q239.822 75.3374 241.412 76.9268Q243.001 78.5161 245.487 78.5161Q246.923 78.5161 248.128 77.8752Q249.341 77.2258 250.144 75.927L253.503 77.8923Q252.417 79.9858 250.332 81.1309Q248.256 82.2673 245.522 82.2673ZM271.988 67.0403L265.442 67.0403L265.442 82.0195L261.067 82.0195L261.067 67.0403L254.488 67.0403L254.488 63.3318L271.988 63.3318L271.988 67.0403ZM282.134 63.1182Q286.269 63.1182 288.457 65.1006Q290.644 67.0745 290.644 71.0649L290.644 82.0195L286.509 82.0195L286.509 79.7466Q285.705 80.9685 284.219 81.6179Q282.732 82.2673 280.63 82.2673Q278.536 82.2673 276.955 81.5496Q275.383 80.8318 274.52 79.5586Q273.666 78.2769 273.666 76.6619Q273.666 74.1411 275.537 72.6201Q277.408 71.0991 281.441 71.0991L286.269 71.0991L286.269 70.8171Q286.269 68.8604 285.09 67.8093Q283.919 66.7583 281.612 66.7583Q280.04 66.7583 278.511 67.2539Q276.99 67.741 275.939 68.6125L274.23 65.4253Q275.699 64.3059 277.759 63.7163Q279.826 63.1182 282.134 63.1182ZM281.544 79.0801Q283.185 79.0801 284.458 78.3281Q285.74 77.5762 286.269 76.1748L286.269 74.0044L281.749 74.0044Q277.972 74.0044 277.972 76.491Q277.972 77.6787 278.912 78.3794Q279.861 79.0801 281.544 79.0801ZM296.064 63.3318L300.439 63.3318L300.439 70.9282L309.856 70.9282L309.856 63.3318L314.231 63.3318L314.231 82.0195L309.856 82.0195L309.856 74.6367L300.439 74.6367L300.439 82.0195L296.064 82.0195L296.064 63.3318ZM340.062 78.311L340.062 86.1809L335.969 86.1809L335.969 82.0195L321.545 82.0195L321.545 86.1809L317.486 86.1809L317.486 78.311L318.358 78.311Q320.144 78.2427 320.793 76.021Q321.442 73.7908 321.648 69.7319L321.895 63.3318L337.293 63.3318L337.293 78.311L340.062 78.311ZM325.638 70.0481Q325.501 73.2695 325.117 75.3032Q324.732 77.3284 323.715 78.311L332.918 78.311L332.918 67.0403L325.749 67.0403L325.638 70.0481ZM350.944 63.1182Q355.079 63.1182 357.267 65.1006Q359.454 67.0745 359.454 71.0649L359.454 82.0195L355.319 82.0195L355.319 79.7466Q354.515 80.9685 353.029 81.6179Q351.542 82.2673 349.44 82.2673Q347.346 82.2673 345.765 81.5496Q344.193 80.8318 343.33 79.5586Q342.476 78.2769 342.476 76.6619Q342.476 74.1411 344.347 72.6201Q346.218 71.0991 350.251 71.0991L355.079 71.0991L355.079 70.8171Q355.079 68.8604 353.9 67.8093Q352.729 66.7583 350.422 66.7583Q348.85 66.7583 347.321 67.2539Q345.8 67.741 344.749 68.6125L343.04 65.4253Q344.509 64.3059 346.569 63.7163Q348.636 63.1182 350.944 63.1182ZM350.354 79.0801Q351.995 79.0801 353.268 78.3281Q354.55 77.5762 355.079 76.1748L355.079 74.0044L350.559 74.0044Q346.782 74.0044 346.782 76.491Q346.782 77.6787 347.722 78.3794Q348.671 79.0801 350.354 79.0801ZM375.231 63.1182Q377.965 63.1182 380.119 64.3145Q382.272 65.5022 383.494 67.6726Q384.716 69.843 384.716 72.6714Q384.716 75.5083 383.494 77.6958Q382.272 79.8833 380.119 81.0796Q377.965 82.2673 375.231 82.2673Q371.454 82.2673 369.249 79.7466L369.249 88.8127L364.874 88.8127L364.874 63.3318L369.036 63.3318L369.036 65.7756Q370.121 64.4512 371.71 63.7847Q373.308 63.1182 375.231 63.1182ZM374.744 78.5161Q377.162 78.5161 378.717 76.9097Q380.272 75.3032 380.272 72.6714Q380.272 70.0481 378.717 68.4417Q377.162 66.8267 374.744 66.8267Q373.172 66.8267 371.907 67.5444Q370.651 68.2622 369.916 69.5952Q369.181 70.9282 369.181 72.6714Q369.181 74.4231 369.916 75.7561Q370.651 77.0806 371.907 77.7983Q373.172 78.5161 374.744 78.5161ZM403.168 67.0403L396.622 67.0403L396.622 82.0195L392.247 82.0195L392.247 67.0403L385.668 67.0403L385.668 63.3318L403.168 63.3318L403.168 67.0403ZM406.349 63.3318L410.724 63.3318L410.724 70.9282L420.141 70.9282L420.141 63.3318L424.516 63.3318L424.516 82.0195L420.141 82.0195L420.141 74.6367L410.724 74.6367L410.724 82.0195L406.349 82.0195L406.349 63.3318ZM437.359 63.1182Q441.494 63.1182 443.682 65.1006Q445.869 67.0745 445.869 71.0649L445.869 82.0195L441.734 82.0195L441.734 79.7466Q440.93 80.9685 439.444 81.6179Q437.957 82.2673 435.855 82.2673Q433.761 82.2673 432.18 81.5496Q430.608 80.8318 429.745 79.5586Q428.891 78.2769 428.891 76.6619Q428.891 74.1411 430.762 72.6201Q432.633 71.0991 436.666 71.0991L441.494 71.0991L441.494 70.8171Q441.494 68.8604 440.315 67.8093Q439.144 66.7583 436.837 66.7583Q435.265 66.7583 433.736 67.2539Q432.215 67.741 431.164 68.6125L429.455 65.4253Q430.924 64.3059 432.984 63.7163Q435.051 63.1182 437.359 63.1182ZM436.769 79.0801Q438.41 79.0801 439.683 78.3281Q440.965 77.5762 441.494 76.1748L441.494 74.0044L436.974 74.0044Q433.197 74.0044 433.197 76.491Q433.197 77.6787 434.137 78.3794Q435.086 79.0801 436.769 79.0801ZM475.758 67.0403L469.212 67.0403L469.212 82.0195L464.837 82.0195L464.837 67.0403L458.258 67.0403L458.258 63.3318L475.758 63.3318L475.758 67.0403ZM495.634 72.7825Q495.634 73.2354 495.566 74.0728L480.903 74.0728Q481.288 76.1406 482.911 77.3455Q484.543 78.5503 486.953 78.5503Q490.038 78.5503 492.029 76.5251L494.378 79.2168Q493.114 80.7207 491.191 81.4983Q489.269 82.2673 486.85 82.2673Q483.774 82.2673 481.424 81.0454Q479.083 79.8149 477.801 77.6274Q476.528 75.4399 476.528 72.6714Q476.528 69.9456 477.767 67.7581Q479.006 65.5706 481.211 64.3486Q483.424 63.1182 486.184 63.1182Q488.918 63.1182 491.063 64.3315Q493.216 65.5364 494.421 67.7239Q495.634 69.9114 495.634 72.7825ZM486.184 66.6216Q484.082 66.6216 482.629 67.8691Q481.176 69.1082 480.869 71.1675L491.473 71.1675Q491.191 69.1423 489.756 67.8862Q488.32 66.6216 486.184 66.6216ZM510.786 63.1182Q513.52 63.1182 515.674 64.3145Q517.827 65.5022 519.049 67.6726Q520.271 69.843 520.271 72.6714Q520.271 75.5083 519.049 77.6958Q517.827 79.8833 515.674 81.0796Q513.52 82.2673 510.786 82.2673Q507.009 82.2673 504.805 79.7466L504.805 88.8127L500.43 88.8127L500.43 63.3318L504.591 63.3318L504.591 65.7756Q505.676 64.4512 507.265 63.7847Q508.863 63.1182 510.786 63.1182ZM510.299 78.5161Q512.717 78.5161 514.272 76.9097Q515.827 75.3032 515.827 72.6714Q515.827 70.0481 514.272 68.4417Q512.717 66.8267 510.299 66.8267Q508.727 66.8267 507.462 67.5444Q506.206 68.2622 505.471 69.5952Q504.736 70.9282 504.736 72.6714Q504.736 74.4231 505.471 75.7561Q506.206 77.0806 507.462 77.7983Q508.727 78.5161 510.299 78.5161ZM531.334 63.1182Q535.469 63.1182 537.657 65.1006Q539.844 67.0745 539.844 71.0649L539.844 82.0195L535.709 82.0195L535.709 79.7466Q534.905 80.9685 533.419 81.6179Q531.932 82.2673 529.83 82.2673Q527.736 82.2673 526.155 81.5496Q524.583 80.8318 523.72 79.5586Q522.866 78.2769 522.866 76.6619Q522.866 74.1411 524.737 72.6201Q526.608 71.0991 530.641 71.0991L535.469 71.0991L535.469 70.8171Q535.469 68.8604 534.29 67.8093Q533.12 66.7583 530.812 66.7583Q529.24 66.7583 527.711 67.2539Q526.19 67.741 525.139 68.6125L523.43 65.4253Q524.899 64.3059 526.959 63.7163Q529.026 63.1182 531.334 63.1182ZM530.744 79.0801Q532.385 79.0801 533.658 78.3281Q534.94 77.5762 535.469 76.1748L535.469 74.0044L530.949 74.0044Q527.172 74.0044 527.172 76.491Q527.172 77.6787 528.112 78.3794Q529.061 79.0801 530.744 79.0801ZM563.183 63.3318L563.183 82.0195L558.842 82.0195L558.842 67.0403L549.64 67.0403L549.64 82.0195L545.265 82.0195L545.265 63.3318L563.183 63.3318ZM569.099 63.3318L573.474 63.3318L573.474 82.0195L569.099 82.0195L569.099 63.3318ZM571.304 60.2471Q570.116 60.2471 569.313 59.4951Q568.51 58.7432 568.51 57.6238Q568.51 56.5044 569.313 55.7524Q570.116 55.0005 571.304 55.0005Q572.492 55.0005 573.295 55.7183Q574.107 56.436 574.107 57.5212Q574.107 58.6748 573.321 59.4609Q572.535 60.2471 571.304 60.2471ZM595.172 63.3318L595.172 82.0195L591.258 82.0195L591.258 76.3884L586.319 76.3884L582.508 82.0195L577.817 82.0195L582.226 75.7903Q580.193 75.0896 579.125 73.637Q578.057 72.1843 578.057 70.0481Q578.057 66.8267 580.329 65.0835Q582.611 63.3318 586.601 63.3318L595.172 63.3318ZM586.738 67.0061Q582.508 67.0061 582.508 70.1934Q582.508 73.3379 586.601 73.3379L591.258 73.3379L591.258 67.0061L586.738 67.0061ZM602.422 76.4568Q603.644 76.4568 604.447 77.26Q605.259 78.0632 605.259 79.3621Q605.259 79.9175 605.096 80.5327Q604.942 81.1479 604.447 82.3699L602.661 87.3003L599.833 87.3003L601.234 81.9512Q600.456 81.635 600.021 80.9514Q599.585 80.2678 599.585 79.3621Q599.585 78.0632 600.388 77.26Q601.191 76.4568 602.422 76.4568ZM623.313 70.7146Q620.69 70.7146 619.075 68.8604Q617.469 67.0061 617.469 63.9983Q617.469 60.9819 619.075 59.1277Q620.69 57.2734 623.313 57.2734Q625.937 57.2734 627.56 59.1106Q629.192 60.9478 629.192 63.9983Q629.192 67.0403 627.56 68.8774Q625.937 70.7146 623.313 70.7146ZM638.019 57.5212L641.446 57.5212L624.715 82.0195L621.288 82.0195L638.019 57.5212ZM623.313 68.2622Q624.749 68.2622 625.535 67.1428Q626.321 66.0234 626.321 63.9983Q626.321 61.9646 625.535 60.8452Q624.749 59.7258 623.313 59.7258Q621.946 59.7258 621.126 60.8623Q620.306 61.9988 620.306 63.9983Q620.306 65.9893 621.126 67.1257Q621.946 68.2622 623.313 68.2622ZM639.378 82.2673Q636.755 82.2673 635.14 80.4131Q633.533 78.5503 633.533 75.5425Q633.533 72.5347 635.14 70.6804Q636.755 68.8262 639.378 68.8262Q642.001 68.8262 643.625 70.6804Q645.257 72.5347 645.257 75.5425Q645.257 78.5503 643.625 80.4131Q642.001 82.2673 639.378 82.2673ZM639.378 79.8149Q640.779 79.8149 641.582 78.6785Q642.394 77.542 642.394 75.5425Q642.394 73.5515 641.582 72.415Q640.779 71.2786 639.378 71.2786Q637.976 71.2786 637.173 72.3979Q636.37 73.5173 636.37 75.5425Q636.37 77.5762 637.173 78.6956Q637.976 79.8149 639.378 79.8149ZM676.933 63.3318L676.933 82.0195L672.592 82.0195L672.592 67.0403L663.39 67.0403L663.39 82.0195L659.015 82.0195L659.015 63.3318L676.933 63.3318ZM689.814 63.1182Q693.949 63.1182 696.137 65.1006Q698.324 67.0745 698.324 71.0649L698.324 82.0195L694.189 82.0195L694.189 79.7466Q693.385 80.9685 691.899 81.6179Q690.412 82.2673 688.31 82.2673Q686.216 82.2673 684.635 81.5496Q683.063 80.8318 682.2 79.5586Q681.346 78.2769 681.346 76.6619Q681.346 74.1411 683.217 72.6201Q685.088 71.0991 689.121 71.0991L693.949 71.0991L693.949 70.8171Q693.949 68.8604 692.77 67.8093Q691.599 66.7583 689.292 66.7583Q687.72 66.7583 686.191 67.2539Q684.67 67.741 683.619 68.6125L681.91 65.4253Q683.379 64.3059 685.439 63.7163Q687.506 63.1182 689.814 63.1182ZM689.224 79.0801Q690.865 79.0801 692.138 78.3281Q693.42 77.5762 693.949 76.1748L693.949 74.0044L689.429 74.0044Q685.652 74.0044 685.652 76.491Q685.652 77.6787 686.592 78.3794Q687.541 79.0801 689.224 79.0801ZM724.252 78.311L724.252 86.3262L720.159 86.3262L720.159 82.0195L703.745 82.0195L703.745 63.3318L708.12 63.3318L708.12 78.311L717.049 78.311L717.049 63.3318L721.424 63.3318L721.424 78.311L724.252 78.311ZM728.14 63.3318L732.515 63.3318L732.515 82.0195L728.14 82.0195L728.14 63.3318ZM730.344 60.2471Q729.156 60.2471 728.353 59.4951Q727.55 58.7432 727.55 57.6238Q727.55 56.5044 728.353 55.7524Q729.156 55.0005 730.344 55.0005Q731.532 55.0005 732.335 55.7183Q733.147 56.436 733.147 57.5212Q733.147 58.6748 732.361 59.4609Q731.575 60.2471 730.344 60.2471ZM747.111 82.3015Q744.172 82.3015 741.822 81.0625Q739.481 79.8149 738.148 77.6274Q736.823 75.4399 736.823 72.6799Q736.823 69.9114 738.148 67.7068Q739.481 65.5022 741.822 64.2632Q744.172 63.0156 747.111 63.0156Q749.666 63.0156 751.725 63.8616Q753.793 64.699 755.229 66.2712L752.708 68.7236Q750.503 66.5191 747.282 66.5191Q744.907 66.5191 743.206 67.8008Q741.514 69.074 741.019 71.2102L749.666 71.2102L749.666 74.3547L741.053 74.3547Q741.583 76.4226 743.257 77.636Q744.941 78.8408 747.282 78.8408Q750.503 78.8408 752.708 76.5935L755.229 79.0459Q753.827 80.6609 751.742 81.4812Q749.666 82.3015 747.111 82.3015ZM758.87 63.3318L763.245 63.3318L763.245 70.9282L772.661 70.9282L772.661 63.3318L777.036 63.3318L777.036 82.0195L772.661 82.0195L772.661 74.6367L763.245 74.6367L763.245 82.0195L758.87 82.0195L758.87 63.3318ZM797.723 67.0403L791.177 67.0403L791.177 82.0195L786.802 82.0195L786.802 67.0403L780.223 67.0403L780.223 63.3318L797.723 63.3318L797.723 67.0403ZM800.904 63.3318L805.279 63.3318L805.279 82.0195L800.904 82.0195L800.904 63.3318ZM803.109 60.2471Q801.921 60.2471 801.118 59.4951Q800.315 58.7432 800.315 57.6238Q800.315 56.5044 801.118 55.7524Q801.921 55.0005 803.109 55.0005Q804.297 55.0005 805.1 55.7183Q805.912 56.436 805.912 57.5212Q805.912 58.6748 805.126 59.4609Q804.34 60.2471 803.109 60.2471ZM824.738 72.2869Q828.207 73.3379 828.207 76.773Q828.207 79.2937 826.31 80.6609Q824.422 82.0195 820.714 82.0195L811.194 82.0195L811.194 63.3318L820.329 63.3318Q823.764 63.3318 825.687 64.5964Q827.609 65.8525 827.609 68.1597Q827.609 69.5952 826.857 70.6462Q826.105 71.6973 824.738 72.2869ZM815.356 71.1333L819.944 71.1333Q823.337 71.1333 823.337 68.792Q823.337 66.5105 819.944 66.5105L815.356 66.5105L815.356 71.1333ZM820.363 78.8323Q823.969 78.8323 823.969 76.491Q823.969 75.2605 823.123 74.6538Q822.286 74.0386 820.508 74.0386L815.356 74.0386L815.356 78.8323L820.363 78.8323Z" fill="#000000" fill-opacity="1.000000" fill-rule="evenodd"/>
	<path id="Стандартна терапія, % пацієнтів" d="M1029.8 27.3699Q1026.1 27.3699 1023.11 25.7463Q1020.11 24.1143 1018.41 21.2432Q1016.71 18.3721 1016.71 14.7661Q1016.71 11.1687 1018.43 8.29761Q1020.15 5.42651 1023.14 3.80298Q1026.13 2.1709 1029.84 2.1709Q1032.85 2.1709 1035.33 3.22192Q1037.82 4.27295 1039.54 6.26392L1036.6 9.03247Q1033.93 6.16138 1030.05 6.16138Q1027.53 6.16138 1025.53 7.26367Q1023.54 8.36597 1022.42 10.3313Q1021.3 12.2881 1021.3 14.7661Q1021.3 17.2527 1022.42 19.218Q1023.54 21.1748 1025.53 22.2771Q1027.53 23.3794 1030.05 23.3794Q1033.93 23.3794 1036.6 20.4741L1039.54 23.2769Q1037.82 25.2678 1035.32 26.3188Q1032.81 27.3699 1029.8 27.3699ZM1057.57 12.0403L1051.02 12.0403L1051.02 27.0195L1046.64 27.0195L1046.64 12.0403L1040.07 12.0403L1040.07 8.33179L1057.57 8.33179L1057.57 12.0403ZM1067.71 8.11816Q1071.85 8.11816 1074.03 10.1006Q1076.22 12.0745 1076.22 16.0649L1076.22 27.0195L1072.09 27.0195L1072.09 24.7466Q1071.28 25.9685 1069.8 26.6179Q1068.31 27.2673 1066.21 27.2673Q1064.11 27.2673 1062.53 26.5496Q1060.96 25.8318 1060.1 24.5586Q1059.24 23.2769 1059.24 21.6619Q1059.24 19.1411 1061.11 17.6201Q1062.99 16.0991 1067.02 16.0991L1071.85 16.0991L1071.85 15.8171Q1071.85 13.8604 1070.67 12.8093Q1069.5 11.7583 1067.19 11.7583Q1065.62 11.7583 1064.09 12.2539Q1062.57 12.741 1061.52 13.6125L1059.81 10.4253Q1061.28 9.30591 1063.34 8.71631Q1065.4 8.11816 1067.71 8.11816ZM1067.12 24.0801Q1068.76 24.0801 1070.04 23.3281Q1071.32 22.5762 1071.85 21.1748L1071.85 19.0044L1067.33 19.0044Q1063.55 19.0044 1063.55 21.491Q1063.55 22.6787 1064.49 23.3794Q1065.44 24.0801 1067.12 24.0801ZM1081.64 8.33179L1086.02 8.33179L1086.02 15.9282L1095.43 15.9282L1095.43 8.33179L1099.81 8.33179L1099.81 27.0195L1095.43 27.0195L1095.43 19.6367L1086.02 19.6367L1086.02 27.0195L1081.64 27.0195L1081.64 8.33179ZM1125.64 23.311L1125.64 31.1809L1121.55 31.1809L1121.55 27.0195L1107.12 27.0195L1107.12 31.1809L1103.06 31.1809L1103.06 23.311L1103.94 23.311Q1105.72 23.2427 1106.37 21.021Q1107.02 18.7908 1107.22 14.7319L1107.47 8.33179L1122.87 8.33179L1122.87 23.311L1125.64 23.311ZM1111.22 15.0481Q1111.08 18.2695 1110.69 20.3032Q1110.31 22.3284 1109.29 23.311L1118.5 23.311L1118.5 12.0403L1111.33 12.0403L1111.22 15.0481ZM1136.52 8.11816Q1140.66 8.11816 1142.84 10.1006Q1145.03 12.0745 1145.03 16.0649L1145.03 27.0195L1140.9 27.0195L1140.9 24.7466Q1140.09 25.9685 1138.61 26.6179Q1137.12 27.2673 1135.02 27.2673Q1132.92 27.2673 1131.34 26.5496Q1129.77 25.8318 1128.91 24.5586Q1128.05 23.2769 1128.05 21.6619Q1128.05 19.1411 1129.92 17.6201Q1131.8 16.0991 1135.83 16.0991L1140.66 16.0991L1140.66 15.8171Q1140.66 13.8604 1139.48 12.8093Q1138.31 11.7583 1136 11.7583Q1134.43 11.7583 1132.9 12.2539Q1131.38 12.741 1130.33 13.6125L1128.62 10.4253Q1130.09 9.30591 1132.15 8.71631Q1134.21 8.11816 1136.52 8.11816ZM1135.93 24.0801Q1137.57 24.0801 1138.85 23.3281Q1140.13 22.5762 1140.66 21.1748L1140.66 19.0044L1136.14 19.0044Q1132.36 19.0044 1132.36 21.491Q1132.36 22.6787 1133.3 23.3794Q1134.25 24.0801 1135.93 24.0801ZM1160.81 8.11816Q1163.54 8.11816 1165.7 9.31445Q1167.85 10.5022 1169.07 12.6726Q1170.29 14.843 1170.29 17.6714Q1170.29 20.5083 1169.07 22.6958Q1167.85 24.8833 1165.7 26.0796Q1163.54 27.2673 1160.81 27.2673Q1157.03 27.2673 1154.83 24.7466L1154.83 33.8127L1150.45 33.8127L1150.45 8.33179L1154.61 8.33179L1154.61 10.7756Q1155.7 9.45117 1157.29 8.78467Q1158.89 8.11816 1160.81 8.11816ZM1160.32 23.5161Q1162.74 23.5161 1164.29 21.9097Q1165.85 20.3032 1165.85 17.6714Q1165.85 15.0481 1164.29 13.4417Q1162.74 11.8267 1160.32 11.8267Q1158.75 11.8267 1157.48 12.5444Q1156.23 13.2622 1155.49 14.5952Q1154.76 15.9282 1154.76 17.6714Q1154.76 19.4231 1155.49 20.7561Q1156.23 22.0806 1157.48 22.7983Q1158.75 23.5161 1160.32 23.5161ZM1188.75 12.0403L1182.2 12.0403L1182.2 27.0195L1177.82 27.0195L1177.82 12.0403L1171.25 12.0403L1171.25 8.33179L1188.75 8.33179L1188.75 12.0403ZM1191.93 8.33179L1196.3 8.33179L1196.3 15.9282L1205.72 15.9282L1205.72 8.33179L1210.09 8.33179L1210.09 27.0195L1205.72 27.0195L1205.72 19.6367L1196.3 19.6367L1196.3 27.0195L1191.93 27.0195L1191.93 8.33179ZM1222.94 8.11816Q1227.07 8.11816 1229.26 10.1006Q1231.45 12.0745 1231.45 16.0649L1231.45 27.0195L1227.31 27.0195L1227.31 24.7466Q1226.51 25.9685 1225.02 26.6179Q1223.53 27.2673 1221.43 27.2673Q1219.34 27.2673 1217.76 26.5496Q1216.19 25.8318 1215.32 24.5586Q1214.47 23.2769 1214.47 21.6619Q1214.47 19.1411 1216.34 17.6201Q1218.21 16.0991 1222.24 16.0991L1227.07 16.0991L1227.07 15.8171Q1227.07 13.8604 1225.89 12.8093Q1224.72 11.7583 1222.41 11.7583Q1220.84 11.7583 1219.31 12.2539Q1217.79 12.741 1216.74 13.6125L1215.03 10.4253Q1216.5 9.30591 1218.56 8.71631Q1220.63 8.11816 1222.94 8.11816ZM1222.35 24.0801Q1223.99 24.0801 1225.26 23.3281Q1226.54 22.5762 1227.07 21.1748L1227.07 19.0044L1222.55 19.0044Q1218.77 19.0044 1218.77 21.491Q1218.77 22.6787 1219.71 23.3794Q1220.66 24.0801 1222.35 24.0801ZM1261.34 12.0403L1254.79 12.0403L1254.79 27.0195L1250.41 27.0195L1250.41 12.0403L1243.84 12.0403L1243.84 8.33179L1261.34 8.33179L1261.34 12.0403ZM1281.21 17.7825Q1281.21 18.2354 1281.14 19.0728L1266.48 19.0728Q1266.86 21.1406 1268.49 22.3455Q1270.12 23.5503 1272.53 23.5503Q1275.61 23.5503 1277.61 21.5251L1279.96 24.2168Q1278.69 25.7207 1276.77 26.4983Q1274.85 27.2673 1272.43 27.2673Q1269.35 27.2673 1267 26.0454Q1264.66 24.8149 1263.38 22.6274Q1262.11 20.4399 1262.11 17.6714Q1262.11 14.9456 1263.34 12.7581Q1264.58 10.5706 1266.79 9.34863Q1269 8.11816 1271.76 8.11816Q1274.5 8.11816 1276.64 9.33154Q1278.79 10.5364 1280 12.7239Q1281.21 14.9114 1281.21 17.7825ZM1271.76 11.6216Q1269.66 11.6216 1268.21 12.8691Q1266.75 14.1082 1266.45 16.1675L1277.05 16.1675Q1276.77 14.1423 1275.33 12.8862Q1273.9 11.6216 1271.76 11.6216ZM1296.36 8.11816Q1299.1 8.11816 1301.25 9.31445Q1303.4 10.5022 1304.63 12.6726Q1305.85 14.843 1305.85 17.6714Q1305.85 20.5083 1304.63 22.6958Q1303.4 24.8833 1301.25 26.0796Q1299.1 27.2673 1296.36 27.2673Q1292.59 27.2673 1290.38 24.7466L1290.38 33.8127L1286.01 33.8127L1286.01 8.33179L1290.17 8.33179L1290.17 10.7756Q1291.25 9.45117 1292.84 8.78467Q1294.44 8.11816 1296.36 8.11816ZM1295.88 23.5161Q1298.29 23.5161 1299.85 21.9097Q1301.4 20.3032 1301.4 17.6714Q1301.4 15.0481 1299.85 13.4417Q1298.29 11.8267 1295.88 11.8267Q1294.3 11.8267 1293.04 12.5444Q1291.78 13.2622 1291.05 14.5952Q1290.31 15.9282 1290.31 17.6714Q1290.31 19.4231 1291.05 20.7561Q1291.78 22.0806 1293.04 22.7983Q1294.3 23.5161 1295.88 23.5161ZM1316.91 8.11816Q1321.05 8.11816 1323.23 10.1006Q1325.42 12.0745 1325.42 16.0649L1325.42 27.0195L1321.29 27.0195L1321.29 24.7466Q1320.48 25.9685 1319 26.6179Q1317.51 27.2673 1315.41 27.2673Q1313.31 27.2673 1311.73 26.5496Q1310.16 25.8318 1309.3 24.5586Q1308.44 23.2769 1308.44 21.6619Q1308.44 19.1411 1310.31 17.6201Q1312.19 16.0991 1316.22 16.0991L1321.05 16.0991L1321.05 15.8171Q1321.05 13.8604 1319.87 12.8093Q1318.7 11.7583 1316.39 11.7583Q1314.82 11.7583 1313.29 12.2539Q1311.77 12.741 1310.72 13.6125L1309.01 10.4253Q1310.48 9.30591 1312.54 8.71631Q1314.6 8.11816 1316.91 8.11816ZM1316.32 24.0801Q1317.96 24.0801 1319.24 23.3281Q1320.52 22.5762 1321.05 21.1748L1321.05 19.0044L1316.53 19.0044Q1312.75 19.0044 1312.75 21.491Q1312.75 22.6787 1313.69 23.3794Q1314.64 24.0801 1316.32 24.0801ZM1348.76 8.33179L1348.76 27.0195L1344.42 27.0195L1344.42 12.0403L1335.22 12.0403L1335.22 27.0195L1330.84 27.0195L1330.84 8.33179L1348.76 8.33179ZM1354.68 8.33179L1359.05 8.33179L1359.05 27.0195L1354.68 27.0195L1354.68 8.33179ZM1356.88 5.24707Q1355.69 5.24707 1354.89 4.49512Q1354.09 3.74316 1354.09 2.62378Q1354.09 1.50439 1354.89 0.752441Q1355.69 0.000488281 1356.88 0.000488281Q1358.07 0.000488281 1358.87 0.718262Q1359.68 1.43604 1359.68 2.52124Q1359.68 3.6748 1358.9 4.46094Q1358.11 5.24707 1356.88 5.24707ZM1380.75 8.33179L1380.75 27.0195L1376.84 27.0195L1376.84 21.3884L1371.9 21.3884L1368.09 27.0195L1363.39 27.0195L1367.8 20.7903Q1365.77 20.0896 1364.7 18.637Q1363.63 17.1843 1363.63 15.0481Q1363.63 11.8267 1365.91 10.0835Q1368.19 8.33179 1372.18 8.33179L1380.75 8.33179ZM1372.32 12.0061Q1368.09 12.0061 1368.09 15.1934Q1368.09 18.3379 1372.18 18.3379L1376.84 18.3379L1376.84 12.0061L1372.32 12.0061ZM1388 21.4568Q1389.22 21.4568 1390.02 22.26Q1390.84 23.0632 1390.84 24.3621Q1390.84 24.9175 1390.67 25.5327Q1390.52 26.1479 1390.02 27.3699L1388.24 32.3003L1385.41 32.3003L1386.81 26.9512Q1386.03 26.635 1385.6 25.9514Q1385.16 25.2678 1385.16 24.3621Q1385.16 23.0632 1385.97 22.26Q1386.77 21.4568 1388 21.4568ZM1108.7 64.7146Q1106.07 64.7146 1104.46 62.8604Q1102.85 61.0061 1102.85 57.9983Q1102.85 54.9819 1104.46 53.1277Q1106.07 51.2734 1108.7 51.2734Q1111.32 51.2734 1112.94 53.1106Q1114.57 54.9478 1114.57 57.9983Q1114.57 61.0403 1112.94 62.8774Q1111.32 64.7146 1108.7 64.7146ZM1123.4 51.5212L1126.83 51.5212L1110.1 76.0195L1106.67 76.0195L1123.4 51.5212ZM1108.7 62.2622Q1110.13 62.2622 1110.92 61.1428Q1111.7 60.0234 1111.7 57.9983Q1111.7 55.9646 1110.92 54.8452Q1110.13 53.7258 1108.7 53.7258Q1107.33 53.7258 1106.51 54.8623Q1105.69 55.9988 1105.69 57.9983Q1105.69 59.9893 1106.51 61.1257Q1107.33 62.2622 1108.7 62.2622ZM1124.76 76.2673Q1122.14 76.2673 1120.52 74.4131Q1118.92 72.5503 1118.92 69.5425Q1118.92 66.5347 1120.52 64.6804Q1122.14 62.8262 1124.76 62.8262Q1127.38 62.8262 1129.01 64.6804Q1130.64 66.5347 1130.64 69.5425Q1130.64 72.5503 1129.01 74.4131Q1127.38 76.2673 1124.76 76.2673ZM1124.76 73.8149Q1126.16 73.8149 1126.96 72.6785Q1127.78 71.542 1127.78 69.5425Q1127.78 67.5515 1126.96 66.415Q1126.16 65.2786 1124.76 65.2786Q1123.36 65.2786 1122.56 66.3979Q1121.75 67.5173 1121.75 69.5425Q1121.75 71.5762 1122.56 72.6956Q1123.36 73.8149 1124.76 73.8149ZM1162.32 57.3318L1162.32 76.0195L1157.97 76.0195L1157.97 61.0403L1148.77 61.0403L1148.77 76.0195L1144.4 76.0195L1144.4 57.3318L1162.32 57.3318ZM1175.2 57.1182Q1179.33 57.1182 1181.52 59.1006Q1183.71 61.0745 1183.71 65.0649L1183.71 76.0195L1179.57 76.0195L1179.57 73.7466Q1178.77 74.9685 1177.28 75.6179Q1175.79 76.2673 1173.69 76.2673Q1171.6 76.2673 1170.02 75.5496Q1168.45 74.8318 1167.58 73.5586Q1166.73 72.2769 1166.73 70.6619Q1166.73 68.1411 1168.6 66.6201Q1170.47 65.0991 1174.5 65.0991L1179.33 65.0991L1179.33 64.8171Q1179.33 62.8604 1178.15 61.8093Q1176.98 60.7583 1174.67 60.7583Q1173.1 60.7583 1171.57 61.2539Q1170.05 61.741 1169 62.6125L1167.29 59.4253Q1168.76 58.3059 1170.82 57.7163Q1172.89 57.1182 1175.2 57.1182ZM1174.61 73.0801Q1176.25 73.0801 1177.52 72.3281Q1178.8 71.5762 1179.33 70.1748L1179.33 68.0044L1174.81 68.0044Q1171.03 68.0044 1171.03 70.491Q1171.03 71.6787 1171.97 72.3794Q1172.92 73.0801 1174.61 73.0801ZM1209.63 72.311L1209.63 80.3262L1205.54 80.3262L1205.54 76.0195L1189.13 76.0195L1189.13 57.3318L1193.5 57.3318L1193.5 72.311L1202.43 72.311L1202.43 57.3318L1206.81 57.3318L1206.81 72.311L1209.63 72.311ZM1213.52 57.3318L1217.9 57.3318L1217.9 76.0195L1213.52 76.0195L1213.52 57.3318ZM1215.73 54.2471Q1214.54 54.2471 1213.74 53.4951Q1212.93 52.7432 1212.93 51.6238Q1212.93 50.5044 1213.74 49.7524Q1214.54 49.0005 1215.73 49.0005Q1216.91 49.0005 1217.72 49.7183Q1218.53 50.436 1218.53 51.5212Q1218.53 52.6748 1217.74 53.4609Q1216.96 54.2471 1215.73 54.2471ZM1232.49 76.3015Q1229.55 76.3015 1227.2 75.0625Q1224.86 73.8149 1223.53 71.6274Q1222.21 69.4399 1222.21 66.6799Q1222.21 63.9114 1223.53 61.7068Q1224.86 59.5022 1227.2 58.2632Q1229.55 57.0156 1232.49 57.0156Q1235.05 57.0156 1237.11 57.8616Q1239.18 58.699 1240.61 60.2712L1238.09 62.7236Q1235.89 60.519 1232.66 60.519Q1230.29 60.519 1228.59 61.8008Q1226.9 63.074 1226.4 65.2102L1235.05 65.2102L1235.05 68.3547L1226.44 68.3547Q1226.97 70.4226 1228.64 71.636Q1230.32 72.8408 1232.66 72.8408Q1235.89 72.8408 1238.09 70.5935L1240.61 73.0459Q1239.21 74.6609 1237.12 75.4812Q1235.05 76.3015 1232.49 76.3015ZM1244.25 57.3318L1248.63 57.3318L1248.63 64.9282L1258.04 64.9282L1258.04 57.3318L1262.42 57.3318L1262.42 76.0195L1258.04 76.0195L1258.04 68.6367L1248.63 68.6367L1248.63 76.0195L1244.25 76.0195L1244.25 57.3318ZM1283.11 61.0403L1276.56 61.0403L1276.56 76.0195L1272.18 76.0195L1272.18 61.0403L1265.61 61.0403L1265.61 57.3318L1283.11 57.3318L1283.11 61.0403ZM1286.29 57.3318L1290.66 57.3318L1290.66 76.0195L1286.29 76.0195L1286.29 57.3318ZM1288.49 54.2471Q1287.3 54.2471 1286.5 53.4951Q1285.7 52.7432 1285.7 51.6238Q1285.7 50.5044 1286.5 49.7524Q1287.3 49.0005 1288.49 49.0005Q1289.68 49.0005 1290.48 49.7183Q1291.29 50.436 1291.29 51.5212Q1291.29 52.6748 1290.51 53.4609Q1289.72 54.2471 1288.49 54.2471ZM1310.12 66.2869Q1313.59 67.3379 1313.59 70.7729Q1313.59 73.2937 1311.69 74.6609Q1309.8 76.0195 1306.1 76.0195L1296.58 76.0195L1296.58 57.3318L1305.71 57.3318Q1309.15 57.3318 1311.07 58.5964Q1312.99 59.8525 1312.99 62.1597Q1312.99 63.5952 1312.24 64.6462Q1311.49 65.6973 1310.12 66.2869ZM1300.74 65.1333L1305.33 65.1333Q1308.72 65.1333 1308.72 62.792Q1308.72 60.5105 1305.33 60.5105L1300.74 60.5105L1300.74 65.1333ZM1305.75 72.8323Q1309.35 72.8323 1309.35 70.491Q1309.35 69.2605 1308.51 68.6538Q1307.67 68.0386 1305.89 68.0386L1300.74 68.0386L1300.74 72.8323L1305.75 72.8323Z" fill="#000000" fill-opacity="1.000000" fill-rule="evenodd"/>
	<path id="Slice - 60 (60%)" d="M545.68 362.498L626.128 590.73C500.078 635.16 361.878 568.995 317.448 442.945C273.018 316.896 339.184 178.695 465.232 134.266C513.431 117.276 565.77 115.982 614.748 130.568L545.68 362.498Z" fill="#19A056" fill-opacity="1.000000" fill-rule="nonzero"/>
	<path id="Slice - 60 (60%)" d="M626.128 590.73C500.078 635.16 361.878 568.995 317.448 442.945C273.018 316.896 339.184 178.695 465.232 134.266C513.431 117.276 565.77 115.982 614.748 130.568L545.68 362.498L626.128 590.73Z" stroke="#FFFFFF" stroke-opacity="1.000000" stroke-width="1.000000"/>
	<path id="Slice - 40 (40%)" d="M545.68 362.498L614.748 130.568C742.839 168.714 815.755 303.476 777.609 431.566C755.501 505.809 699.186 564.979 626.127 590.73L545.68 362.498Z" fill="url(#paint_linear_81_4797_0)" fill-opacity="1.000000" fill-rule="nonzero"/>
	<path id="Slice - 40 (40%)" d="M614.748 130.568C742.839 168.714 815.755 303.476 777.609 431.566C755.501 505.809 699.186 564.979 626.127 590.73L545.68 362.498L614.748 130.568Z" stroke="#FFFFFF" stroke-opacity="1.000000" stroke-width="1.000000"/>
	<path id="Slice - 33 (33%)" d="M1226.02 362.529L1118.19 579.177C998.542 519.628 949.82 374.357 1009.37 254.707C1027.53 218.215 1054.62 186.901 1088.11 163.673L1226.02 362.529Z" fill="url(#paint_linear_81_4799_0)" fill-opacity="1.000000" fill-rule="nonzero"/>
	<path id="Slice - 33 (33%)" d="M1118.19 579.177C998.542 519.628 949.82 374.357 1009.37 254.707C1027.53 218.215 1054.62 186.901 1088.11 163.673L1226.02 362.529L1118.19 579.177Z" stroke="#FFFFFF" stroke-opacity="1.000000" stroke-width="1.000000"/>
	<path id="Slice - 67 (67%)" d="M1226.02 362.529L1088.11 163.673C1197.94 87.5098 1348.71 114.799 1424.87 224.624C1501.04 334.449 1473.75 485.223 1363.92 561.386C1291.39 611.688 1197.22 618.506 1118.19 579.177L1226.02 362.529Z" fill="url(#paint_linear_81_4800_0)" fill-opacity="1.000000" fill-rule="nonzero"/>
	<path id="Slice - 67 (67%)" d="M1088.11 163.673C1197.94 87.5098 1348.71 114.799 1424.87 224.624C1501.04 334.449 1473.75 485.223 1363.92 561.386C1291.39 611.688 1197.22 618.506 1118.19 579.177L1226.02 362.529L1088.11 163.673Z" stroke="#FFFFFF" stroke-opacity="1.000000" stroke-width="1.000000"/>
</svg>
