<svg width="1519.418457" height="852.000000" viewBox="0 0 1519.42 852" fill="none" xmlns="http://www.w3.org/2000/svg">
	<desc>
			Created with Pixso.
	</desc>
	<defs>
		<linearGradient id="paint_linear_69_671_0" x1="356.000000" y1="440.000000" x2="356.000000" y2="360.500000" gradientUnits="userSpaceOnUse">
			<stop stop-color="#BBBBBB"/>
			<stop offset="1.000000" stop-color="#BBBBBB" stop-opacity="0.000000"/>
		</linearGradient>
		<linearGradient id="paint_linear_69_678_0" x1="1358.000000" y1="484.000000" x2="1358.000000" y2="338.000000" gradientUnits="userSpaceOnUse">
			<stop stop-color="#FF8484"/>
			<stop offset="1.000000" stop-color="#EF9D9D" stop-opacity="0.000000"/>
		</linearGradient>
		<linearGradient id="paint_linear_69_660_0" x1="26.599463" y1="674.163025" x2="23.193279" y2="726.659058" gradientUnits="userSpaceOnUse">
			<stop stop-color="#E70E00"/>
			<stop offset="1.000000" stop-color="#FF7777"/>
		</linearGradient>
		<linearGradient id="paint_linear_69_663_0" x1="22.999992" y1="745.000000" x2="22.999992" y2="818.423096" gradientUnits="userSpaceOnUse">
			<stop stop-color="#BBBBBB"/>
			<stop offset="1.000000" stop-color="#BBBBBB" stop-opacity="0.000000"/>
		</linearGradient>
		<linearGradient id="paint_linear_69_675_0" x1="548.646423" y1="449.394440" x2="1124.775635" y2="29.601746" gradientUnits="userSpaceOnUse">
			<stop stop-color="#BBBBBB"/>
			<stop offset="1.000000" stop-color="#BBBBBB" stop-opacity="0.000000"/>
		</linearGradient>
		<linearGradient id="paint_linear_69_676_0" x1="961.985657" y1="715.162170" x2="704.622620" y2="181.049500" gradientUnits="userSpaceOnUse">
			<stop stop-color="#E10920"/>
			<stop offset="1.000000" stop-color="#FF7785"/>
		</linearGradient>
	</defs>
	<path id="Polygon 9" d="M356 440L472.047 339.5L239.953 339.5L356 440Z" fill="url(#paint_linear_69_671_0)" fill-opacity="1.000000" fill-rule="evenodd"/>
	<path id="Polygon 10" d="M1358 440L1474.05 339.5L1241.95 339.5L1358 440Z" fill="url(#paint_linear_69_678_0)" fill-opacity="1.000000" fill-rule="evenodd"/>
	<path id="34,7%" d="M271.244 269.567Q279.102 270.859 283.271 275.423Q287.46 279.988 287.46 286.72Q287.46 291.931 284.73 296.329Q281.999 300.727 276.413 303.374Q270.827 306.021 262.719 306.021Q256.383 306.021 250.276 304.354Q244.189 302.686 239.917 299.622L245.294 289.034Q248.712 291.598 253.194 293.015Q257.675 294.412 262.365 294.412Q267.576 294.412 270.556 292.411Q273.558 290.41 273.558 286.72Q273.558 279.384 262.365 279.384L256.049 279.384L256.049 270.254L268.347 256.331L242.897 256.331L242.897 245.242L284.73 245.242L284.73 254.205L271.244 269.567ZM348.59 292.452L338.856 292.452L338.856 305L325.37 305L325.37 292.452L293.188 292.452L293.188 283.135L321.368 245.242L335.875 245.242L309.759 281.176L325.808 281.176L325.808 270.004L338.856 270.004L338.856 281.176L348.59 281.176L348.59 292.452ZM362.348 289.117Q365.933 289.117 368.225 291.389Q370.539 293.64 370.539 297.309Q370.539 299.018 370.101 300.727Q369.684 302.436 368.225 305.855L363.369 318.152L354.906 318.152L358.679 304.583Q356.532 303.729 355.282 301.811Q354.052 299.873 354.052 297.309Q354.052 293.64 356.407 291.389Q358.763 289.117 362.348 289.117ZM422.18 245.242L422.18 254.205L399.982 305L384.954 305L406.402 256.498L386.58 256.498L386.58 266.232L374.283 266.232L374.283 245.242L422.18 245.242ZM442.671 277.508Q436.106 277.508 431.958 273.026Q427.831 268.545 427.831 261.042Q427.831 253.517 431.958 249.036Q436.106 244.555 442.671 244.555Q449.258 244.555 453.343 249.036Q457.449 253.517 457.449 261.042Q457.449 268.545 453.343 273.026Q449.258 277.508 442.671 277.508ZM478.272 245.242L488.443 245.242L447.632 305L437.461 305L478.272 245.242ZM442.671 270.504Q445.589 270.504 447.236 268.128Q448.903 265.731 448.903 261.042Q448.903 256.331 447.236 253.955Q445.589 251.558 442.671 251.558Q439.857 251.558 438.148 253.997Q436.439 256.414 436.439 261.042Q436.439 265.648 438.148 268.087Q439.857 270.504 442.671 270.504ZM483.232 305.688Q478.959 305.688 475.583 303.687Q472.227 301.665 470.33 297.913Q468.454 294.162 468.454 289.201Q468.454 284.261 470.33 280.509Q472.227 276.737 475.583 274.736Q478.959 272.735 483.232 272.735Q489.798 272.735 493.946 277.216Q498.093 281.697 498.093 289.201Q498.093 296.725 493.946 301.207Q489.798 305.688 483.232 305.688ZM483.232 298.685Q486.129 298.685 487.797 296.246Q489.464 293.807 489.464 289.201Q489.464 284.594 487.797 282.177Q486.129 279.738 483.232 279.738Q480.418 279.738 478.709 282.135Q477 284.511 477 289.201Q477 293.911 478.709 296.308Q480.418 298.685 483.232 298.685Z" fill="#737373" fill-opacity="1.000000" fill-rule="evenodd"/>
	<path id="64,8%" d="M1237.1 250.524Q1242.83 250.524 1247.52 252.837Q1252.21 255.13 1254.94 259.361Q1257.67 263.593 1257.67 269.137Q1257.67 275.119 1254.69 279.642Q1251.71 284.165 1246.54 286.604Q1241.37 289.021 1235.06 289.021Q1222.51 289.021 1215.42 281.351Q1208.33 273.66 1208.33 259.403Q1208.33 249.232 1212.17 241.978Q1216.01 234.725 1222.88 230.973Q1229.76 227.221 1238.81 227.221Q1243.58 227.221 1247.98 228.284Q1252.38 229.347 1255.46 231.306L1250.33 241.478Q1245.89 238.477 1239.14 238.477Q1231.55 238.477 1227.11 242.916Q1222.68 247.356 1222.32 255.818Q1227.61 250.524 1237.1 250.524ZM1234.28 278.704Q1238.72 278.704 1241.5 276.307Q1244.27 273.91 1244.27 269.825Q1244.27 265.719 1241.5 263.28Q1238.72 260.841 1234.12 260.841Q1229.59 260.841 1226.68 263.363Q1223.78 265.885 1223.78 269.825Q1223.78 273.743 1226.59 276.224Q1229.41 278.704 1234.28 278.704ZM1317.43 275.452L1307.7 275.452L1307.7 288L1294.21 288L1294.21 275.452L1262.03 275.452L1262.03 266.135L1290.21 228.242L1304.72 228.242L1278.6 264.176L1294.65 264.176L1294.65 253.004L1307.7 253.004L1307.7 264.176L1317.43 264.176L1317.43 275.452ZM1331.19 272.117Q1334.77 272.117 1337.07 274.389Q1339.38 276.64 1339.38 280.309Q1339.38 282.018 1338.94 283.727Q1338.53 285.436 1337.07 288.855L1332.21 301.152L1323.75 301.152L1327.52 287.583Q1325.37 286.729 1324.12 284.811Q1322.89 282.873 1322.89 280.309Q1322.89 276.64 1325.25 274.389Q1327.6 272.117 1331.19 272.117ZM1387.36 256.589Q1391.8 258.799 1394.14 262.384Q1396.49 265.969 1396.49 270.679Q1396.49 276.224 1393.33 280.371Q1390.18 284.498 1384.45 286.77Q1378.74 289.021 1371.23 289.021Q1363.71 289.021 1358.02 286.77Q1352.35 284.498 1349.22 280.371Q1346.12 276.224 1346.12 270.679Q1346.12 265.969 1348.47 262.384Q1350.83 258.799 1355.18 256.589Q1351.85 254.526 1350.05 251.42Q1348.26 248.294 1348.26 244.292Q1348.26 239.081 1351.16 235.246Q1354.06 231.39 1359.27 229.305Q1364.48 227.221 1371.23 227.221Q1378.05 227.221 1383.3 229.305Q1388.55 231.39 1391.45 235.246Q1394.37 239.081 1394.37 244.292Q1394.37 248.294 1392.57 251.42Q1390.78 254.526 1387.36 256.589ZM1371.23 237.372Q1367.04 237.372 1364.52 239.394Q1362 241.395 1362 244.896Q1362 248.294 1364.48 250.274Q1366.96 252.233 1371.23 252.233Q1375.48 252.233 1378.05 250.274Q1380.61 248.294 1380.61 244.896Q1380.61 241.395 1378.05 239.394Q1375.48 237.372 1371.23 237.372ZM1371.23 278.871Q1376.42 278.871 1379.44 276.515Q1382.49 274.16 1382.49 270.242Q1382.49 266.323 1379.44 264.009Q1376.42 261.696 1371.23 261.696Q1366.1 261.696 1363.1 264.009Q1360.12 266.323 1360.12 270.242Q1360.12 274.264 1363.1 276.578Q1366.1 278.871 1371.23 278.871ZM1415.78 260.508Q1409.22 260.508 1405.07 256.026Q1400.94 251.545 1400.94 244.042Q1400.94 236.517 1405.07 232.036Q1409.22 227.555 1415.78 227.555Q1422.37 227.555 1426.45 232.036Q1430.56 236.517 1430.56 244.042Q1430.56 251.545 1426.45 256.026Q1422.37 260.508 1415.78 260.508ZM1451.38 228.242L1461.55 228.242L1420.74 288L1410.57 288L1451.38 228.242ZM1415.78 253.504Q1418.7 253.504 1420.35 251.128Q1422.01 248.731 1422.01 244.042Q1422.01 239.331 1420.35 236.955Q1418.7 234.558 1415.78 234.558Q1412.97 234.558 1411.26 236.997Q1409.55 239.414 1409.55 244.042Q1409.55 248.648 1411.26 251.087Q1412.97 253.504 1415.78 253.504ZM1456.34 288.688Q1452.07 288.688 1448.69 286.687Q1445.34 284.665 1443.44 280.913Q1441.56 277.162 1441.56 272.201Q1441.56 267.261 1443.44 263.509Q1445.34 259.737 1448.69 257.736Q1452.07 255.735 1456.34 255.735Q1462.91 255.735 1467.06 260.216Q1471.2 264.697 1471.2 272.201Q1471.2 279.725 1467.06 284.207Q1462.91 288.688 1456.34 288.688ZM1456.34 281.685Q1459.24 281.685 1460.91 279.246Q1462.57 276.807 1462.57 272.201Q1462.57 267.594 1460.91 265.177Q1459.24 262.738 1456.34 262.738Q1453.53 262.738 1451.82 265.135Q1450.11 267.511 1450.11 272.201Q1450.11 276.911 1451.82 279.308Q1453.53 281.685 1456.34 281.685Z" fill="#E10920" fill-opacity="1.000000" fill-rule="evenodd"/>
	<path id="0,5%" d="M816.806 93.5929Q812.486 93.5929 809.111 91.4634Q805.747 89.3339 803.835 85.2928Q801.936 81.2516 801.936 75.6497Q801.936 70.0599 803.835 66.0187Q805.747 61.9776 809.111 59.8481Q812.486 57.7186 816.806 57.7186Q821.113 57.7186 824.477 59.8481Q827.852 61.9776 829.752 66.0187Q831.664 70.0599 831.664 75.6497Q831.664 81.2516 829.752 85.2928Q827.852 89.3339 824.477 91.4634Q821.113 93.5929 816.806 93.5929ZM816.806 86.8052Q819.976 86.8052 821.779 84.0829Q823.594 81.3484 823.594 75.6497Q823.594 69.951 821.779 67.2286Q819.976 64.5063 816.806 64.5063Q813.672 64.5063 811.857 67.2286Q810.054 69.951 810.054 75.6497Q810.054 81.3484 811.857 84.0829Q813.672 86.8052 816.806 86.8052ZM839.552 83.7804Q841.633 83.7804 842.964 85.0992Q844.307 86.4059 844.307 88.5354Q844.307 89.5275 844.053 90.5197Q843.811 91.5118 842.964 93.4961L840.144 100.635L835.232 100.635L837.422 92.758Q836.176 92.2619 835.45 91.1488Q834.736 90.0236 834.736 88.5354Q834.736 86.4059 836.103 85.0992Q837.471 83.7804 839.552 83.7804ZM859.82 71.3424Q867.152 71.3424 870.648 74.2704Q874.145 77.1863 874.145 82.0986Q874.145 85.2686 872.548 87.8699Q870.963 90.4713 867.72 92.0321Q864.478 93.5929 859.723 93.5929Q856.045 93.5929 852.5 92.6249Q848.967 91.657 846.486 89.8784L849.656 83.732Q851.641 85.2202 854.218 86.0429Q856.795 86.8536 859.517 86.8536Q862.542 86.8536 864.272 85.6679Q866.015 84.47 866.015 82.3406Q866.015 80.1143 864.2 78.977Q862.397 77.8397 857.932 77.8397L849.063 77.8397L850.842 58.3115L872.004 58.3115L872.004 64.7483L857.533 64.7483L856.988 71.3424L859.82 71.3424ZM884.94 77.0411Q881.128 77.0411 878.721 74.4398Q876.325 71.8384 876.325 67.4827Q876.325 63.1149 878.721 60.5136Q881.128 57.9122 884.94 57.9122Q888.763 57.9122 891.134 60.5136Q893.518 63.1149 893.518 67.4827Q893.518 71.8384 891.134 74.4398Q888.763 77.0411 884.94 77.0411ZM905.605 58.3115L911.51 58.3115L887.819 93L881.915 93L905.605 58.3115ZM884.94 72.9758Q886.634 72.9758 887.589 71.5965Q888.557 70.205 888.557 67.4827Q888.557 64.7483 887.589 63.369Q886.634 61.9776 884.94 61.9776Q883.306 61.9776 882.314 63.3932Q881.322 64.7967 881.322 67.4827Q881.322 70.1566 882.314 71.5723Q883.306 72.9758 884.94 72.9758ZM908.485 93.3993Q906.004 93.3993 904.044 92.2377Q902.096 91.0641 900.995 88.8863Q899.906 86.7084 899.906 83.8288Q899.906 80.9613 900.995 78.7834Q902.096 76.5934 904.044 75.4319Q906.004 74.2704 908.485 74.2704Q912.296 74.2704 914.704 76.8717Q917.112 79.4731 917.112 83.8288Q917.112 88.1966 914.704 90.7979Q912.296 93.3993 908.485 93.3993ZM908.485 89.3339Q910.167 89.3339 911.134 87.9183Q912.102 86.5027 912.102 83.8288Q912.102 81.1548 911.134 79.7513Q910.167 78.3357 908.485 78.3357Q906.851 78.3357 905.859 79.7271Q904.867 81.1065 904.867 83.8288Q904.867 86.5632 905.859 87.9546Q906.851 89.3339 908.485 89.3339Z" fill="#25B0FF" fill-opacity="1.000000" fill-rule="evenodd"/>
	<path id="СУХИЙ КАШЕЛЬ" d="M234.813 359.3Q231.634 359.3 229.07 357.909Q226.507 356.51 225.049 354.049Q223.592 351.588 223.592 348.497Q223.592 345.414 225.064 342.953Q226.536 340.492 229.1 339.1Q231.663 337.701 234.842 337.701Q237.42 337.701 239.551 338.602Q241.683 339.503 243.155 341.209L240.635 343.583Q238.35 341.122 235.025 341.122Q232.864 341.122 231.151 342.066Q229.444 343.011 228.485 344.696Q227.525 346.373 227.525 348.497Q227.525 350.628 228.485 352.313Q229.444 353.99 231.151 354.935Q232.864 355.88 235.025 355.88Q238.35 355.88 240.635 353.39L243.155 355.792Q241.683 357.499 239.537 358.399Q237.391 359.3 234.813 359.3ZM264.364 338.001L255.246 354.95Q254.044 357.198 252.374 358.326Q250.712 359.447 248.764 359.447Q247.204 359.447 245.673 358.788L246.632 355.733Q247.863 356.122 248.676 356.122Q250.565 356.122 251.796 354.173L252.125 353.661L243.754 338.001L247.921 338.001L254.132 350.328L260.526 338.001L264.364 338.001ZM269.194 338.001L274.145 345.018L279.096 338.001L283.652 338.001L276.606 348.08L284.223 359L279.601 359L274.145 351.354L268.718 359L264.213 359L271.808 348.233L264.697 338.001L269.194 338.001ZM286.869 338.001L290.707 338.001L290.707 352.914L301.986 338.001L305.611 338.001L305.611 359L301.773 359L301.773 344.117L290.494 359L286.869 359L286.869 338.001ZM311.529 338.001L315.367 338.001L315.367 352.914L326.646 338.001L330.271 338.001L330.271 359L326.433 359L326.433 344.117L315.154 359L311.529 359L311.529 338.001ZM320.852 336.588Q318.157 336.588 316.787 335.482Q315.425 334.369 315.396 332.237L318.12 332.237Q318.157 333.351 318.846 333.951Q319.534 334.552 320.852 334.552Q322.141 334.552 322.874 333.951Q323.614 333.351 323.643 332.237L326.346 332.237Q326.316 334.339 324.917 335.467Q323.526 336.588 320.852 336.588ZM352.174 350.152L348.277 350.152L348.277 359L344.432 359L344.432 338.001L348.277 338.001L348.277 346.791L352.298 346.791L358.326 338.001L362.464 338.001L355.294 348.167L362.735 359L358.326 359L352.174 350.152ZM378.965 354.137L368.462 354.137L366.39 359L362.376 359L371.824 338.001L375.662 338.001L385.14 359L381.06 359L378.965 354.137ZM377.669 351.083L373.714 341.898L369.781 351.083L377.669 351.083ZM415.356 338.001L415.356 359L388.389 359L388.389 338.001L392.227 338.001L392.227 355.697L399.968 355.697L399.968 338.001L403.806 338.001L403.806 355.697L411.518 355.697L411.518 338.001L415.356 338.001ZM437.009 355.733L437.009 359L421.262 359L421.262 338.001L436.592 338.001L436.592 341.268L425.166 341.268L425.166 346.732L435.303 346.732L435.303 349.94L425.166 349.94L425.166 355.733L437.009 355.733ZM459.306 338.001L459.306 359L455.468 359L455.468 341.297L447.185 341.297L447.002 346.549Q446.855 350.958 446.284 353.705Q445.713 356.451 444.453 357.879Q443.193 359.3 440.974 359.3Q440.197 359.3 438.842 359L439.113 355.609Q439.502 355.733 440.014 355.733Q441.845 355.733 442.607 353.558Q443.376 351.383 443.552 346.703L443.852 338.001L459.306 338.001ZM474.902 345.113Q478.689 345.113 480.71 346.805Q482.732 348.497 482.732 351.83Q482.732 355.309 480.512 357.154Q478.293 359 474.272 359L465.249 359L465.249 338.001L469.087 338.001L469.087 345.113L474.902 345.113ZM474.096 355.997Q476.374 355.997 477.605 354.95Q478.835 353.902 478.835 351.888Q478.835 348.08 474.096 348.08L469.087 348.08L469.087 355.997L474.096 355.997Z" fill="#000000" fill-opacity="1.000000" fill-rule="evenodd"/>
	<path id="СУХИЙ КАШЕЛЬ" d="M1236.81 359.3Q1233.63 359.3 1231.07 357.909Q1228.51 356.51 1227.05 354.049Q1225.59 351.588 1225.59 348.497Q1225.59 345.414 1227.06 342.953Q1228.54 340.492 1231.1 339.1Q1233.66 337.701 1236.84 337.701Q1239.42 337.701 1241.55 338.602Q1243.68 339.503 1245.15 341.209L1242.64 343.583Q1240.35 341.122 1237.03 341.122Q1234.86 341.122 1233.15 342.066Q1231.44 343.011 1230.48 344.696Q1229.53 346.373 1229.53 348.497Q1229.53 350.628 1230.48 352.313Q1231.44 353.99 1233.15 354.935Q1234.86 355.88 1237.03 355.88Q1240.35 355.88 1242.64 353.39L1245.15 355.792Q1243.68 357.499 1241.54 358.399Q1239.39 359.3 1236.81 359.3ZM1266.36 338.001L1257.25 354.95Q1256.04 357.198 1254.37 358.326Q1252.71 359.447 1250.76 359.447Q1249.2 359.447 1247.67 358.788L1248.63 355.733Q1249.86 356.122 1250.68 356.122Q1252.57 356.122 1253.8 354.173L1254.13 353.661L1245.75 338.001L1249.92 338.001L1256.13 350.328L1262.53 338.001L1266.36 338.001ZM1271.19 338.001L1276.14 345.018L1281.1 338.001L1285.65 338.001L1278.61 348.08L1286.22 359L1281.6 359L1276.14 351.354L1270.72 359L1266.21 359L1273.81 348.233L1266.7 338.001L1271.19 338.001ZM1288.87 338.001L1292.71 338.001L1292.71 352.914L1303.99 338.001L1307.61 338.001L1307.61 359L1303.77 359L1303.77 344.117L1292.49 359L1288.87 359L1288.87 338.001ZM1313.53 338.001L1317.37 338.001L1317.37 352.914L1328.65 338.001L1332.27 338.001L1332.27 359L1328.43 359L1328.43 344.117L1317.15 359L1313.53 359L1313.53 338.001ZM1322.85 336.588Q1320.16 336.588 1318.79 335.482Q1317.43 334.369 1317.4 332.237L1320.12 332.237Q1320.16 333.351 1320.85 333.951Q1321.53 334.552 1322.85 334.552Q1324.14 334.552 1324.87 333.951Q1325.61 333.351 1325.64 332.237L1328.35 332.237Q1328.32 334.339 1326.92 335.467Q1325.53 336.588 1322.85 336.588ZM1354.17 350.152L1350.28 350.152L1350.28 359L1346.43 359L1346.43 338.001L1350.28 338.001L1350.28 346.791L1354.3 346.791L1360.33 338.001L1364.46 338.001L1357.29 348.167L1364.74 359L1360.33 359L1354.17 350.152ZM1380.97 354.137L1370.46 354.137L1368.39 359L1364.38 359L1373.82 338.001L1377.66 338.001L1387.14 359L1383.06 359L1380.97 354.137ZM1379.67 351.083L1375.71 341.898L1371.78 351.083L1379.67 351.083ZM1417.36 338.001L1417.36 359L1390.39 359L1390.39 338.001L1394.23 338.001L1394.23 355.697L1401.97 355.697L1401.97 338.001L1405.81 338.001L1405.81 355.697L1413.52 355.697L1413.52 338.001L1417.36 338.001ZM1439.01 355.733L1439.01 359L1423.26 359L1423.26 338.001L1438.59 338.001L1438.59 341.268L1427.17 341.268L1427.17 346.732L1437.3 346.732L1437.3 349.94L1427.17 349.94L1427.17 355.733L1439.01 355.733ZM1461.31 338.001L1461.31 359L1457.47 359L1457.47 341.297L1449.18 341.297L1449 346.549Q1448.86 350.958 1448.28 353.705Q1447.71 356.451 1446.45 357.879Q1445.19 359.3 1442.97 359.3Q1442.2 359.3 1440.84 359L1441.11 355.609Q1441.5 355.733 1442.01 355.733Q1443.85 355.733 1444.61 353.558Q1445.38 351.383 1445.55 346.703L1445.85 338.001L1461.31 338.001ZM1476.9 345.113Q1480.69 345.113 1482.71 346.805Q1484.73 348.497 1484.73 351.83Q1484.73 355.309 1482.51 357.154Q1480.29 359 1476.27 359L1467.25 359L1467.25 338.001L1471.09 338.001L1471.09 345.113L1476.9 345.113ZM1476.1 355.997Q1478.37 355.997 1479.6 354.95Q1480.84 353.902 1480.84 351.888Q1480.84 348.08 1476.1 348.08L1471.09 348.08L1471.09 355.997L1476.1 355.997Z" fill="#000000" fill-opacity="1.000000" fill-rule="evenodd"/>
	<path id="ПРОДУКТИВНИЙ КАШЕЛЬ" d="M239.751 460.001L239.751 481L235.913 481L235.913 463.297L225.022 463.297L225.022 481L221.184 481L221.184 460.001L239.751 460.001ZM254.3 460.001Q257.024 460.001 259.046 460.902Q261.074 461.803 262.151 463.48Q263.235 465.158 263.235 467.472Q263.235 469.75 262.151 471.449Q261.074 473.141 259.046 474.042Q257.024 474.943 254.3 474.943L249.561 474.943L249.561 481L245.657 481L245.657 460.001L254.3 460.001ZM254.116 471.64Q256.665 471.64 257.984 470.563Q259.309 469.479 259.309 467.472Q259.309 465.458 257.984 464.381Q256.665 463.297 254.116 463.297L249.561 463.297L249.561 471.64L254.116 471.64ZM276.946 481.3Q273.738 481.3 271.16 479.909Q268.582 478.51 267.11 476.034Q265.638 473.559 265.638 470.497Q265.638 467.443 267.11 464.967Q268.582 462.492 271.16 461.1Q273.738 459.701 276.946 459.701Q280.162 459.701 282.74 461.1Q285.318 462.492 286.79 464.953Q288.262 467.414 288.262 470.497Q288.262 473.588 286.79 476.049Q285.318 478.51 282.74 479.909Q280.162 481.3 276.946 481.3ZM276.946 477.88Q279.048 477.88 280.726 476.935Q282.41 475.99 283.37 474.298Q284.329 472.599 284.329 470.497Q284.329 468.402 283.37 466.71Q282.41 465.011 280.726 464.066Q279.048 463.122 276.946 463.122Q274.852 463.122 273.167 464.066Q271.49 465.011 270.53 466.71Q269.571 468.402 269.571 470.497Q269.571 472.599 270.53 474.298Q271.49 475.99 273.167 476.935Q274.852 477.88 276.946 477.88ZM312.8 477.697L312.8 485.468L309.204 485.468L309.204 481L293.09 481L293.09 485.468L289.457 485.468L289.487 477.697L290.388 477.697Q292.373 477.609 293.164 474.774Q293.962 471.94 294.138 466.659L294.379 460.001L309.768 460.001L309.768 477.697L312.8 477.697ZM297.558 467.018Q297.412 471.098 296.899 473.815Q296.394 476.532 295.28 477.697L305.93 477.697L305.93 463.297L297.712 463.297L297.558 467.018ZM334.489 460.001L325.371 476.95Q324.169 479.198 322.5 480.326Q320.837 481.447 318.889 481.447Q317.329 481.447 315.798 480.788L316.757 477.733Q317.988 478.122 318.801 478.122Q320.69 478.122 321.921 476.173L322.25 475.661L313.879 460.001L318.046 460.001L324.257 472.328L330.651 460.001L334.489 460.001ZM344.929 472.152L341.032 472.152L341.032 481L337.187 481L337.187 460.001L341.032 460.001L341.032 468.791L345.053 468.791L351.081 460.001L355.219 460.001L348.049 470.167L355.49 481L351.081 481L344.929 472.152ZM373.189 463.297L366.231 463.297L366.231 481L362.364 481L362.364 463.297L355.427 463.297L355.427 460.001L373.189 460.001L373.189 463.297ZM376.584 460.001L380.422 460.001L380.422 474.914L391.701 460.001L395.326 460.001L395.326 481L391.488 481L391.488 466.117L380.209 481L376.584 481L376.584 460.001ZM415.042 470.08Q417.049 470.622 418.097 471.925Q419.151 473.229 419.151 475.177Q419.151 477.938 417.108 479.469Q415.072 481 411.197 481L401.244 481L401.244 460.001L410.633 460.001Q414.171 460.001 416.148 461.415Q418.133 462.821 418.133 465.399Q418.133 467.047 417.335 468.249Q416.537 469.45 415.042 470.08ZM405.082 468.974L410.296 468.974Q412.193 468.974 413.182 468.227Q414.171 467.472 414.171 466Q414.171 464.528 413.182 463.766Q412.193 462.997 410.296 462.997L405.082 462.997L405.082 468.974ZM411.08 477.997Q415.218 477.997 415.218 474.877Q415.218 471.823 411.08 471.823L405.082 471.823L405.082 477.997L411.08 477.997ZM442.249 460.001L442.249 481L438.345 481L438.345 471.999L427.491 471.999L427.491 481L423.587 481L423.587 460.001L427.491 460.001L427.491 468.673L438.345 468.673L438.345 460.001L442.249 460.001ZM448.164 460.001L452.002 460.001L452.002 474.914L463.281 460.001L466.906 460.001L466.906 481L463.068 481L463.068 466.117L451.789 481L448.164 481L448.164 460.001ZM472.824 460.001L476.662 460.001L476.662 474.914L487.941 460.001L491.566 460.001L491.566 481L487.728 481L487.728 466.117L476.449 481L472.824 481L472.824 460.001ZM482.147 458.588Q479.452 458.588 478.082 457.482Q476.72 456.369 476.691 454.237L479.415 454.237Q479.452 455.351 480.141 455.951Q480.829 456.552 482.147 456.552Q483.436 456.552 484.169 455.951Q484.909 455.351 484.938 454.237L487.641 454.237Q487.611 456.339 486.212 457.467Q484.821 458.588 482.147 458.588ZM300.034 514.152L296.137 514.152L296.137 523L292.292 523L292.292 502.001L296.137 502.001L296.137 510.791L300.158 510.791L306.186 502.001L310.324 502.001L303.154 512.167L310.595 523L306.186 523L300.034 514.152ZM326.825 518.137L316.322 518.137L314.25 523L310.236 523L319.684 502.001L323.522 502.001L333 523L328.92 523L326.825 518.137ZM325.529 515.083L321.574 505.898L317.641 515.083L325.529 515.083ZM363.216 502.001L363.216 523L336.249 523L336.249 502.001L340.087 502.001L340.087 519.697L347.828 519.697L347.828 502.001L351.666 502.001L351.666 519.697L359.379 519.697L359.379 502.001L363.216 502.001ZM384.869 519.733L384.869 523L369.122 523L369.122 502.001L384.452 502.001L384.452 505.268L373.026 505.268L373.026 510.732L383.163 510.732L383.163 513.94L373.026 513.94L373.026 519.733L384.869 519.733ZM407.166 502.001L407.166 523L403.328 523L403.328 505.297L395.045 505.297L394.862 510.549Q394.715 514.958 394.144 517.705Q393.573 520.451 392.313 521.879Q391.053 523.3 388.834 523.3Q388.057 523.3 386.702 523L386.973 519.609Q387.362 519.733 387.874 519.733Q389.705 519.733 390.467 517.558Q391.236 515.383 391.412 510.703L391.712 502.001L407.166 502.001ZM422.762 509.113Q426.549 509.113 428.57 510.805Q430.592 512.497 430.592 515.83Q430.592 519.309 428.372 521.154Q426.153 523 422.132 523L413.109 523L413.109 502.001L416.947 502.001L416.947 509.113L422.762 509.113ZM421.956 519.997Q424.234 519.997 425.465 518.95Q426.695 517.902 426.695 515.888Q426.695 512.08 421.956 512.08L416.947 512.08L416.947 519.997L421.956 519.997Z" fill="#000000" fill-opacity="1.000000" fill-rule="evenodd"/>
	<path id="ЗАЛИШКОВЕ ПОКАШЛЮВАННЯ/УСУНЕННЯ" d="M1265.8 470.05Q1267.69 470.651 1268.75 471.984Q1269.82 473.317 1269.82 475.119Q1269.82 477.008 1268.59 478.407Q1267.36 479.799 1265.3 480.553Q1263.25 481.3 1260.82 481.3Q1258.71 481.3 1256.6 480.714Q1254.49 480.128 1252.69 478.957L1253.95 476.107Q1255.32 477.038 1257 477.536Q1258.69 478.026 1260.33 478.026Q1262.71 478.026 1264.28 477.104Q1265.86 476.173 1265.86 474.547Q1265.86 473.17 1264.71 472.453Q1263.58 471.728 1261.56 471.728L1256.68 471.728L1256.68 468.673L1261.26 468.673Q1263.01 468.673 1264 467.956Q1264.98 467.23 1264.98 466Q1264.98 464.528 1263.65 463.722Q1262.32 462.909 1260.25 462.909Q1258.83 462.909 1257.33 463.319Q1255.84 463.722 1254.52 464.499L1253.29 461.349Q1254.91 460.478 1256.72 460.045Q1258.54 459.613 1260.33 459.613Q1262.68 459.613 1264.64 460.331Q1266.6 461.049 1267.77 462.389Q1268.95 463.722 1268.95 465.517Q1268.95 467.077 1268.1 468.249Q1267.26 469.42 1265.8 470.05ZM1288.15 476.137L1277.64 476.137L1275.57 481L1271.56 481L1281 460.001L1284.84 460.001L1294.32 481L1290.24 481L1288.15 476.137ZM1286.85 473.083L1282.89 463.898L1278.96 473.083L1286.85 473.083ZM1315.63 460.001L1315.63 481L1311.79 481L1311.79 463.297L1303.5 463.297L1303.32 468.549Q1303.18 472.958 1302.6 475.705Q1302.03 478.451 1300.77 479.879Q1299.51 481.3 1297.29 481.3Q1296.52 481.3 1295.16 481L1295.43 477.609Q1295.82 477.733 1296.33 477.733Q1298.17 477.733 1298.93 475.558Q1299.7 473.383 1299.87 468.703L1300.17 460.001L1315.63 460.001ZM1321.57 460.001L1325.41 460.001L1325.41 474.914L1336.69 460.001L1340.31 460.001L1340.31 481L1336.47 481L1336.47 466.117L1325.19 481L1321.57 481L1321.57 460.001ZM1373.2 460.001L1373.2 481L1346.23 481L1346.23 460.001L1350.07 460.001L1350.07 477.697L1357.81 477.697L1357.81 460.001L1361.65 460.001L1361.65 477.697L1369.36 477.697L1369.36 460.001L1373.2 460.001ZM1386.84 472.152L1382.95 472.152L1382.95 481L1379.1 481L1379.1 460.001L1382.95 460.001L1382.95 468.791L1386.97 468.791L1393 460.001L1397.13 460.001L1389.96 470.167L1397.41 481L1393 481L1386.84 472.152ZM1409.73 481.3Q1406.52 481.3 1403.95 479.909Q1401.37 478.51 1399.89 476.034Q1398.42 473.559 1398.42 470.497Q1398.42 467.443 1399.89 464.967Q1401.37 462.492 1403.95 461.1Q1406.52 459.701 1409.73 459.701Q1412.95 459.701 1415.52 461.1Q1418.1 462.492 1419.57 464.953Q1421.05 467.414 1421.05 470.497Q1421.05 473.588 1419.57 476.049Q1418.1 478.51 1415.52 479.909Q1412.95 481.3 1409.73 481.3ZM1409.73 477.88Q1411.83 477.88 1413.51 476.935Q1415.2 475.99 1416.15 474.298Q1417.11 472.599 1417.11 470.497Q1417.11 468.402 1416.15 466.71Q1415.2 465.011 1413.51 464.066Q1411.83 463.122 1409.73 463.122Q1407.64 463.122 1405.95 464.066Q1404.27 465.011 1403.32 466.71Q1402.36 468.402 1402.36 470.497Q1402.36 472.599 1403.32 474.298Q1404.27 475.99 1405.95 476.935Q1407.64 477.88 1409.73 477.88ZM1439.2 470.08Q1441.2 470.622 1442.25 471.925Q1443.31 473.229 1443.31 475.177Q1443.31 477.938 1441.26 479.469Q1439.23 481 1435.35 481L1425.4 481L1425.4 460.001L1434.79 460.001Q1438.33 460.001 1440.3 461.415Q1442.29 462.821 1442.29 465.399Q1442.29 467.047 1441.49 468.249Q1440.69 469.45 1439.2 470.08ZM1429.24 468.974L1434.45 468.974Q1436.35 468.974 1437.34 468.227Q1438.33 467.472 1438.33 466Q1438.33 464.528 1437.34 463.766Q1436.35 462.997 1434.45 462.997L1429.24 462.997L1429.24 468.974ZM1435.24 477.997Q1439.37 477.997 1439.37 474.877Q1439.37 471.823 1435.24 471.823L1429.24 471.823L1429.24 477.997L1435.24 477.997ZM1463.49 477.733L1463.49 481L1447.74 481L1447.74 460.001L1463.07 460.001L1463.07 463.268L1451.65 463.268L1451.65 468.732L1461.78 468.732L1461.78 471.94L1451.65 471.94L1451.65 477.733L1463.49 477.733ZM1228.36 502.001L1228.36 523L1224.52 523L1224.52 505.297L1213.63 505.297L1213.63 523L1209.79 523L1209.79 502.001L1228.36 502.001ZM1243.98 523.3Q1240.77 523.3 1238.2 521.909Q1235.62 520.51 1234.14 518.034Q1232.67 515.559 1232.67 512.497Q1232.67 509.443 1234.14 506.967Q1235.62 504.492 1238.2 503.1Q1240.77 501.701 1243.98 501.701Q1247.2 501.701 1249.77 503.1Q1252.35 504.492 1253.82 506.953Q1255.3 509.414 1255.3 512.497Q1255.3 515.588 1253.82 518.049Q1252.35 520.51 1249.77 521.909Q1247.2 523.3 1243.98 523.3ZM1243.98 519.88Q1246.08 519.88 1247.76 518.935Q1249.45 517.99 1250.4 516.298Q1251.36 514.599 1251.36 512.497Q1251.36 510.402 1250.4 508.71Q1249.45 507.011 1247.76 506.066Q1246.08 505.122 1243.98 505.122Q1241.89 505.122 1240.2 506.066Q1238.52 507.011 1237.57 508.71Q1236.61 510.402 1236.61 512.497Q1236.61 514.599 1237.57 516.298Q1238.52 517.99 1240.2 518.935Q1241.89 519.88 1243.98 519.88ZM1267.35 514.152L1263.46 514.152L1263.46 523L1259.61 523L1259.61 502.001L1263.46 502.001L1263.46 510.791L1267.48 510.791L1273.51 502.001L1277.64 502.001L1270.47 512.167L1277.92 523L1273.51 523L1267.35 514.152ZM1294.15 518.137L1283.64 518.137L1281.57 523L1277.56 523L1287 502.001L1290.84 502.001L1300.32 523L1296.24 523L1294.15 518.137ZM1292.85 515.083L1288.89 505.898L1284.96 515.083L1292.85 515.083ZM1330.54 502.001L1330.54 523L1303.57 523L1303.57 502.001L1307.41 502.001L1307.41 519.697L1315.15 519.697L1315.15 502.001L1318.99 502.001L1318.99 519.697L1326.7 519.697L1326.7 502.001L1330.54 502.001ZM1354.18 502.001L1354.18 523L1350.34 523L1350.34 505.297L1342.05 505.297L1341.87 510.549Q1341.73 514.958 1341.15 517.705Q1340.58 520.451 1339.32 521.879Q1338.06 523.3 1335.84 523.3Q1335.07 523.3 1333.71 523L1333.98 519.609Q1334.37 519.733 1334.88 519.733Q1336.72 519.733 1337.48 517.558Q1338.25 515.383 1338.42 510.703L1338.72 502.001L1354.18 502.001ZM1378.06 501.701Q1381.15 501.701 1383.62 503.1Q1386.1 504.492 1387.5 506.953Q1388.92 509.414 1388.92 512.497Q1388.92 515.588 1387.5 518.049Q1386.1 520.51 1383.62 521.909Q1381.15 523.3 1378.06 523.3Q1375.24 523.3 1372.91 522.128Q1370.58 520.957 1369.1 518.862Q1367.62 516.76 1367.25 514.086L1363.96 514.086L1363.96 523L1360.12 523L1360.12 502.001L1363.96 502.001L1363.96 510.607L1367.32 510.607Q1367.74 508 1369.22 505.979Q1370.7 503.95 1372.99 502.829Q1375.29 501.701 1378.06 501.701ZM1378.06 519.88Q1380 519.88 1381.59 518.95Q1383.18 518.02 1384.08 516.342Q1384.98 514.658 1384.98 512.497Q1384.98 510.336 1384.08 508.659Q1383.18 506.982 1381.59 506.052Q1380 505.122 1378.06 505.122Q1376.11 505.122 1374.53 506.052Q1372.96 506.982 1372.04 508.659Q1371.13 510.336 1371.13 512.497Q1371.13 514.658 1372.04 516.342Q1372.96 518.02 1374.53 518.95Q1376.11 519.88 1378.06 519.88ZM1407.1 512.08Q1409.1 512.622 1410.15 513.925Q1411.21 515.229 1411.21 517.177Q1411.21 519.938 1409.16 521.469Q1407.13 523 1403.25 523L1393.3 523L1393.3 502.001L1402.69 502.001Q1406.23 502.001 1408.2 503.415Q1410.19 504.821 1410.19 507.399Q1410.19 509.047 1409.39 510.249Q1408.59 511.45 1407.1 512.08ZM1397.14 510.974L1402.35 510.974Q1404.25 510.974 1405.24 510.227Q1406.23 509.472 1406.23 508Q1406.23 506.528 1405.24 505.766Q1404.25 504.997 1402.35 504.997L1397.14 504.997L1397.14 510.974ZM1403.14 519.997Q1407.27 519.997 1407.27 516.877Q1407.27 513.823 1403.14 513.823L1397.14 513.823L1397.14 519.997L1403.14 519.997ZM1429.57 518.137L1419.06 518.137L1416.99 523L1412.98 523L1422.42 502.001L1426.26 502.001L1435.74 523L1431.66 523L1429.57 518.137ZM1428.27 515.083L1424.31 505.898L1420.38 515.083L1428.27 515.083ZM1457.61 502.001L1457.61 523L1453.71 523L1453.71 513.999L1442.86 513.999L1442.86 523L1438.95 523L1438.95 502.001L1442.86 502.001L1442.86 510.673L1453.71 510.673L1453.71 502.001L1457.61 502.001ZM1482.15 502.001L1482.15 523L1478.25 523L1478.25 513.999L1467.4 513.999L1467.4 523L1463.49 523L1463.49 502.001L1467.4 502.001L1467.4 510.673L1478.25 510.673L1478.25 502.001L1482.15 502.001ZM1504.09 502.001L1504.09 523L1500.24 523L1500.24 517.148L1495.06 517.148L1494.64 517.148L1490.73 523L1486.63 523L1491.12 516.518Q1488.93 515.712 1487.75 513.955Q1486.57 512.197 1486.57 509.707Q1486.57 507.312 1487.64 505.576Q1488.73 503.833 1490.71 502.917Q1492.68 502.001 1495.36 502.001L1504.09 502.001ZM1495.47 505.297Q1493.08 505.297 1491.8 506.411Q1490.52 507.517 1490.52 509.648Q1490.52 511.721 1491.75 512.849Q1492.98 513.969 1495.33 513.969L1500.24 513.969L1500.24 505.297L1495.47 505.297ZM1516.06 497.739L1519.42 497.739L1509.52 526.003L1506.15 526.003L1516.06 497.739ZM1294.41 544.001L1285.3 560.95Q1284.09 563.198 1282.42 564.326Q1280.76 565.447 1278.81 565.447Q1277.25 565.447 1275.72 564.788L1276.68 561.733Q1277.91 562.122 1278.73 562.122Q1280.62 562.122 1281.85 560.173L1282.18 559.661L1273.8 544.001L1277.97 544.001L1284.18 556.328L1290.58 544.001L1294.41 544.001ZM1306.56 565.3Q1303.38 565.3 1300.82 563.909Q1298.26 562.51 1296.8 560.049Q1295.34 557.588 1295.34 554.497Q1295.34 551.414 1296.81 548.953Q1298.29 546.492 1300.85 545.1Q1303.41 543.701 1306.59 543.701Q1309.17 543.701 1311.3 544.602Q1313.43 545.503 1314.9 547.209L1312.39 549.583Q1310.1 547.122 1306.78 547.122Q1304.61 547.122 1302.9 548.066Q1301.19 549.011 1300.23 550.696Q1299.28 552.373 1299.28 554.497Q1299.28 556.628 1300.23 558.313Q1301.19 559.99 1302.9 560.935Q1304.61 561.88 1306.78 561.88Q1310.1 561.88 1312.39 559.39L1314.9 561.792Q1313.43 563.499 1311.29 564.399Q1309.14 565.3 1306.56 565.3ZM1336.11 544.001L1327 560.95Q1325.79 563.198 1324.12 564.326Q1322.46 565.447 1320.51 565.447Q1318.95 565.447 1317.42 564.788L1318.38 561.733Q1319.61 562.122 1320.43 562.122Q1322.32 562.122 1323.55 560.173L1323.88 559.661L1315.5 544.001L1319.67 544.001L1325.88 556.328L1332.28 544.001L1336.11 544.001ZM1357.47 544.001L1357.47 565L1353.57 565L1353.57 555.999L1342.72 555.999L1342.72 565L1338.81 565L1338.81 544.001L1342.72 544.001L1342.72 552.673L1353.57 552.673L1353.57 544.001L1357.47 544.001ZM1379.1 561.733L1379.1 565L1363.35 565L1363.35 544.001L1378.68 544.001L1378.68 547.268L1367.26 547.268L1367.26 552.732L1377.39 552.732L1377.39 555.94L1367.26 555.94L1367.26 561.733L1379.1 561.733ZM1402.11 544.001L1402.11 565L1398.21 565L1398.21 555.999L1387.36 555.999L1387.36 565L1383.45 565L1383.45 544.001L1387.36 544.001L1387.36 552.673L1398.21 552.673L1398.21 544.001L1402.11 544.001ZM1426.65 544.001L1426.65 565L1422.75 565L1422.75 555.999L1411.9 555.999L1411.9 565L1407.99 565L1407.99 544.001L1411.9 544.001L1411.9 552.673L1422.75 552.673L1422.75 544.001L1426.65 544.001ZM1448.59 544.001L1448.59 565L1444.74 565L1444.74 559.148L1439.56 559.148L1439.14 559.148L1435.23 565L1431.13 565L1435.62 558.518Q1433.43 557.712 1432.25 555.955Q1431.07 554.197 1431.07 551.707Q1431.07 549.312 1432.14 547.576Q1433.23 545.833 1435.21 544.917Q1437.18 544.001 1439.86 544.001L1448.59 544.001ZM1439.97 547.297Q1437.58 547.297 1436.3 548.411Q1435.02 549.517 1435.02 551.648Q1435.02 553.721 1436.25 554.849Q1437.48 555.969 1439.83 555.969L1444.74 555.969L1444.74 547.297L1439.97 547.297Z" fill="#000000" fill-opacity="1.000000" fill-rule="evenodd"/>
	<path id="Сухий - залишкове покашлювання/усунення" d="M75.5469 713.201Q72.9224 713.201 70.8105 712.042Q68.6987 710.876 67.4963 708.837Q66.3 706.799 66.3 704.248Q66.3 701.702 67.4963 699.664Q68.6987 697.625 70.8228 696.466Q72.9468 695.3 75.5713 695.3Q77.6221 695.3 79.3188 695.99Q81.0217 696.673 82.2241 698.028L80.6006 699.603Q78.623 697.528 75.675 697.528Q73.7219 697.528 72.1472 698.4Q70.5725 699.273 69.6814 700.811Q68.7964 702.349 68.7964 704.248Q68.7964 706.152 69.6814 707.69Q70.5725 709.228 72.1472 710.101Q73.7219 710.974 75.675 710.974Q78.5986 710.974 80.6006 708.874L82.2241 710.449Q81.0217 711.798 79.3066 712.5Q77.5977 713.201 75.5469 713.201ZM97.104 699.749L90.677 714.324Q89.8287 716.351 88.6873 717.175Q87.552 717.999 85.9529 717.999Q84.9764 717.999 84.0608 717.688Q83.1514 717.376 82.5533 716.772L83.5787 714.978Q84.604 715.948 85.9529 715.948Q86.8257 715.948 87.4117 715.484Q88.0037 715.026 88.4798 713.897L88.9009 712.976L83.0538 699.749L85.5501 699.749L90.1766 710.351L94.7542 699.749L97.104 699.749ZM107.077 713L103.25 707.928L99.3803 713L96.7008 713L101.925 706.225L96.9511 699.749L99.6305 699.749L103.28 704.522L106.906 699.749L109.53 699.749L104.526 706.225L109.805 713L107.077 713ZM112.325 699.749L114.724 699.749L114.724 709.399L122.848 699.749L125.027 699.749L125.027 713L122.622 713L122.622 703.35L114.523 713L112.325 713L112.325 699.749ZM129.675 699.749L132.074 699.749L132.074 709.399L140.198 699.749L142.377 699.749L142.377 713L139.972 713L139.972 703.35L131.873 713L129.675 713L129.675 699.749ZM135.871 698.028Q134.021 698.028 132.996 697.143Q131.976 696.252 131.946 694.573L133.576 694.573Q133.6 695.501 134.21 696.063Q134.821 696.624 135.846 696.624Q136.871 696.624 137.494 696.063Q138.123 695.501 138.147 694.573L139.826 694.573Q139.801 696.252 138.751 697.143Q137.702 698.028 135.871 698.028ZM152.847 705.102L159.573 705.102L159.573 707.177L152.847 707.177L152.847 705.102ZM177.222 706.103Q178.553 706.451 179.273 707.226Q179.999 708.001 179.999 709.149Q179.999 710.327 179.2 711.242Q178.4 712.152 176.984 712.664Q175.574 713.177 173.822 713.177Q172.351 713.177 170.935 712.792Q169.526 712.402 168.427 711.676L169.147 709.851Q170.099 710.449 171.326 710.791Q172.553 711.126 173.798 711.126Q175.501 711.126 176.514 710.54Q177.527 709.948 177.527 708.947Q177.527 708.026 176.709 707.525Q175.898 707.025 174.427 707.025L171.997 707.025L171.997 705.297L174.25 705.297Q175.599 705.297 176.374 704.827Q177.149 704.351 177.149 703.527Q177.149 702.624 176.233 702.124Q175.324 701.623 173.774 701.623Q171.802 701.623 169.599 702.648L168.952 700.799Q171.375 699.572 174.024 699.572Q175.623 699.572 176.899 700.024Q178.174 700.476 178.901 701.3Q179.627 702.124 179.627 703.173Q179.627 704.15 178.974 704.925Q178.327 705.7 177.222 706.103ZM188.375 699.627Q191.127 699.627 192.586 700.976Q194.051 702.325 194.051 704.998L194.051 713L191.774 713L191.774 711.248Q191.176 712.176 190.059 712.664Q188.948 713.153 187.429 713.153Q185.201 713.153 183.864 712.078Q182.527 710.998 182.527 709.252Q182.527 707.501 183.803 706.439Q185.079 705.377 187.85 705.377L191.652 705.377L191.652 704.901Q191.652 703.35 190.749 702.526Q189.852 701.702 188.1 701.702Q186.928 701.702 185.799 702.093Q184.676 702.478 183.901 703.125L182.9 701.324Q183.925 700.5 185.347 700.067Q186.775 699.627 188.375 699.627ZM187.825 711.297Q189.199 711.297 190.2 710.687Q191.2 710.076 191.652 708.947L191.652 707.098L187.953 707.098Q184.902 707.098 184.902 709.149Q184.902 710.15 185.677 710.723Q186.452 711.297 187.825 711.297ZM209.752 699.749L209.752 713L207.348 713L207.348 701.849L201.653 701.849L201.5 704.803Q201.372 707.476 201.024 709.265Q200.676 711.053 199.877 712.127Q199.077 713.201 197.649 713.201Q197.002 713.201 196.172 712.976L196.325 710.949Q196.648 711.022 196.923 711.022Q197.924 711.022 198.424 710.15Q198.925 709.277 199.071 708.074Q199.224 706.872 199.352 704.65L199.578 699.749L209.752 699.749ZM214.4 699.749L216.799 699.749L216.799 709.399L224.923 699.749L227.102 699.749L227.102 713L224.697 713L224.697 703.35L216.598 713L214.4 713L214.4 699.749ZM250.623 699.749L250.623 713L231.75 713L231.75 699.749L234.149 699.749L234.149 710.9L240.002 710.9L240.002 699.749L242.401 699.749L242.401 710.9L248.224 710.9L248.224 699.749L250.623 699.749ZM260.427 707.397L257.674 707.397L257.674 713L255.275 713L255.275 699.749L257.674 699.749L257.674 705.352L260.476 705.352L264.773 699.749L267.348 699.749L262.325 706.127L267.702 713L264.876 713L260.427 707.397ZM275.452 713.153Q273.474 713.153 271.899 712.28Q270.325 711.401 269.434 709.863Q268.549 708.325 268.549 706.378Q268.549 704.425 269.434 702.886Q270.325 701.348 271.899 700.488Q273.474 699.627 275.452 699.627Q277.423 699.627 278.986 700.488Q280.548 701.348 281.433 702.886Q282.324 704.425 282.324 706.378Q282.324 708.325 281.433 709.863Q280.548 711.401 278.986 712.28Q277.423 713.153 275.452 713.153ZM275.452 711.053Q276.721 711.053 277.734 710.467Q278.748 709.875 279.321 708.813Q279.901 707.751 279.901 706.378Q279.901 704.998 279.321 703.936Q278.748 702.874 277.734 702.301Q276.721 701.727 275.452 701.727Q274.176 701.727 273.163 702.301Q272.15 702.874 271.558 703.936Q270.972 704.998 270.972 706.378Q270.972 707.751 271.558 708.813Q272.15 709.875 273.163 710.467Q274.176 711.053 275.452 711.053ZM294.828 706.127Q297.397 706.774 297.397 709.35Q297.397 711.102 296.085 712.054Q294.773 713 292.172 713L285.8 713L285.8 699.749L291.953 699.749Q294.303 699.749 295.627 700.64Q296.952 701.525 296.952 703.149Q296.952 704.199 296.384 704.962Q295.822 705.725 294.828 706.127ZM288.15 705.45L291.751 705.45Q293.125 705.45 293.839 704.949Q294.553 704.449 294.553 703.503Q294.553 701.599 291.751 701.599L288.15 701.599L288.15 705.45ZM292.002 711.151Q293.497 711.151 294.248 710.675Q294.998 710.198 294.998 709.198Q294.998 708.172 294.309 707.678Q293.625 707.177 292.148 707.177L288.15 707.177L288.15 711.151L292.002 711.151ZM313.126 706.451Q313.126 706.726 313.077 707.177L302.322 707.177Q302.548 708.923 303.86 709.991Q305.173 711.053 307.126 711.053Q309.5 711.053 310.947 709.448L312.271 710.998Q311.374 712.048 310.037 712.603Q308.701 713.153 307.046 713.153Q304.947 713.153 303.323 712.292Q301.7 711.425 300.809 709.875Q299.924 708.325 299.924 706.378Q299.924 704.449 300.784 702.899Q301.651 701.348 303.159 700.488Q304.672 699.627 306.576 699.627Q308.475 699.627 309.958 700.488Q311.447 701.348 312.283 702.899Q313.126 704.449 313.126 706.451ZM306.576 701.647Q304.849 701.647 303.683 702.697Q302.524 703.747 302.322 705.45L310.825 705.45Q310.623 703.778 309.457 702.716Q308.298 701.647 306.576 701.647ZM335.85 699.749L335.85 713L333.451 713L333.451 701.849L325.974 701.849L325.974 713L323.575 713L323.575 699.749L335.85 699.749ZM346.177 713.153Q344.199 713.153 342.624 712.28Q341.05 711.401 340.159 709.863Q339.274 708.325 339.274 706.378Q339.274 704.425 340.159 702.886Q341.05 701.348 342.624 700.488Q344.199 699.627 346.177 699.627Q348.148 699.627 349.711 700.488Q351.273 701.348 352.158 702.886Q353.049 704.425 353.049 706.378Q353.049 708.325 352.158 709.863Q351.273 711.401 349.711 712.28Q348.148 713.153 346.177 713.153ZM346.177 711.053Q347.446 711.053 348.459 710.467Q349.473 709.875 350.046 708.813Q350.626 707.751 350.626 706.378Q350.626 704.998 350.046 703.936Q349.473 702.874 348.459 702.301Q347.446 701.727 346.177 701.727Q344.901 701.727 343.888 702.301Q342.875 702.874 342.283 703.936Q341.697 704.998 341.697 706.378Q341.697 707.751 342.283 708.813Q342.875 709.875 343.888 710.467Q344.901 711.053 346.177 711.053ZM361.677 707.397L358.924 707.397L358.924 713L356.525 713L356.525 699.749L358.924 699.749L358.924 705.352L361.726 705.352L366.022 699.749L368.598 699.749L363.575 706.127L368.952 713L366.126 713L361.677 707.397ZM375.95 699.627Q378.702 699.627 380.161 700.976Q381.626 702.325 381.626 704.998L381.626 713L379.349 713L379.349 711.248Q378.751 712.176 377.634 712.664Q376.523 713.153 375.004 713.153Q372.776 713.153 371.439 712.078Q370.102 710.998 370.102 709.252Q370.102 707.501 371.378 706.439Q372.654 705.377 375.425 705.377L379.227 705.377L379.227 704.901Q379.227 703.35 378.324 702.526Q377.427 701.702 375.675 701.702Q374.503 701.702 373.374 702.093Q372.251 702.478 371.476 703.125L370.475 701.324Q371.5 700.5 372.922 700.067Q374.35 699.627 375.95 699.627ZM375.4 711.297Q376.774 711.297 377.775 710.687Q378.775 710.076 379.227 708.947L379.227 707.098L375.528 707.098Q372.477 707.098 372.477 709.149Q372.477 710.15 373.252 710.723Q374.027 711.297 375.4 711.297ZM404.823 699.749L404.823 713L385.95 713L385.95 699.749L388.349 699.749L388.349 710.9L394.202 710.9L394.202 699.749L396.601 699.749L396.601 710.9L402.424 710.9L402.424 699.749L404.823 699.749ZM420.852 699.749L420.852 713L418.448 713L418.448 701.849L412.753 701.849L412.6 704.803Q412.472 707.476 412.124 709.265Q411.776 711.053 410.977 712.127Q410.177 713.201 408.749 713.201Q408.102 713.201 407.272 712.976L407.425 710.949Q407.748 711.022 408.023 711.022Q409.024 711.022 409.524 710.15Q410.025 709.277 410.171 708.074Q410.324 706.872 410.452 704.65L410.678 699.749L420.852 699.749ZM437.225 699.627Q439.148 699.627 440.674 700.488Q442.2 701.348 443.072 702.886Q443.951 704.425 443.951 706.378Q443.951 708.325 443.072 709.863Q442.2 711.401 440.674 712.28Q439.148 713.153 437.225 713.153Q435.474 713.153 434.045 712.426Q432.623 711.7 431.708 710.388Q430.798 709.075 430.572 707.397L427.899 707.397L427.899 713L425.5 713L425.5 699.749L427.899 699.749L427.899 705.175L430.603 705.175Q430.847 703.527 431.757 702.264Q432.672 701 434.082 700.317Q435.498 699.627 437.225 699.627ZM437.225 711.053Q438.452 711.053 439.435 710.479Q440.424 709.899 440.997 708.837Q441.577 707.775 441.577 706.378Q441.577 704.998 440.997 703.936Q440.424 702.874 439.435 702.301Q438.452 701.727 437.225 701.727Q435.998 701.727 434.997 702.301Q434.003 702.874 433.435 703.936Q432.873 704.998 432.873 706.378Q432.873 707.775 433.435 708.837Q434.003 709.899 434.997 710.479Q435.998 711.053 437.225 711.053ZM456.428 706.127Q458.997 706.774 458.997 709.35Q458.997 711.102 457.685 712.054Q456.373 713 453.772 713L447.4 713L447.4 699.749L453.553 699.749Q455.903 699.749 457.227 700.64Q458.552 701.525 458.552 703.149Q458.552 704.199 457.984 704.962Q457.422 705.725 456.428 706.127ZM449.75 705.45L453.351 705.45Q454.725 705.45 455.439 704.949Q456.153 704.449 456.153 703.503Q456.153 701.599 453.351 701.599L449.75 701.599L449.75 705.45ZM453.602 711.151Q455.097 711.151 455.848 710.675Q456.598 710.198 456.598 709.198Q456.598 708.172 455.909 707.678Q455.225 707.177 453.748 707.177L449.75 707.177L449.75 711.151L453.602 711.151ZM467.475 699.627Q470.227 699.627 471.686 700.976Q473.151 702.325 473.151 704.998L473.151 713L470.874 713L470.874 711.248Q470.276 712.176 469.159 712.664Q468.048 713.153 466.529 713.153Q464.301 713.153 462.964 712.078Q461.627 710.998 461.627 709.252Q461.627 707.501 462.903 706.439Q464.179 705.377 466.95 705.377L470.752 705.377L470.752 704.901Q470.752 703.35 469.849 702.526Q468.952 701.702 467.2 701.702Q466.028 701.702 464.899 702.093Q463.776 702.478 463.001 703.125L462 701.324Q463.025 700.5 464.447 700.067Q465.875 699.627 467.475 699.627ZM466.925 711.297Q468.299 711.297 469.299 710.687Q470.3 710.076 470.752 708.947L470.752 707.098L467.053 707.098Q464.002 707.098 464.002 709.149Q464.002 710.15 464.777 710.723Q465.552 711.297 466.925 711.297ZM477.475 699.749L479.874 699.749L479.874 705.377L487.424 705.377L487.424 699.749L489.823 699.749L489.823 713L487.424 713L487.424 707.452L479.874 707.452L479.874 713L477.475 713L477.475 699.749ZM494.5 699.749L496.899 699.749L496.899 705.377L504.449 705.377L504.449 699.749L506.848 699.749L506.848 713L504.449 713L504.449 707.452L496.899 707.452L496.899 713L494.5 713L494.5 699.749ZM522.152 699.749L522.152 713L519.997 713L519.997 708.801L516.152 708.801L515.877 708.801L512.972 713L510.402 713L513.625 708.477Q512.124 708.026 511.324 706.988Q510.524 705.95 510.524 704.4Q510.524 702.124 512.075 700.939Q513.625 699.749 516.347 699.749L522.152 699.749ZM512.972 704.473Q512.972 705.798 513.808 706.439Q514.65 707.073 516.323 707.073L519.997 707.073L519.997 701.849L516.427 701.849Q512.972 701.849 512.972 704.473ZM532.05 691.949L534.223 691.949L525.977 715.502L523.798 715.502L532.05 691.949ZM546.704 699.749L540.277 714.324Q539.429 716.351 538.287 717.175Q537.152 717.999 535.553 717.999Q534.576 717.999 533.661 717.688Q532.751 717.376 532.153 716.772L533.179 714.978Q534.204 715.948 535.553 715.948Q536.426 715.948 537.012 715.484Q537.604 715.026 538.08 713.897L538.501 712.976L532.654 699.749L535.15 699.749L539.776 710.351L544.354 699.749L546.704 699.749ZM554.549 713.153Q552.523 713.153 550.936 712.28Q549.349 711.401 548.446 709.863Q547.549 708.325 547.549 706.378Q547.549 704.425 548.446 702.886Q549.349 701.348 550.936 700.488Q552.523 699.627 554.549 699.627Q556.35 699.627 557.76 700.354Q559.176 701.074 559.951 702.447L558.126 703.625Q557.497 702.673 556.57 702.203Q555.648 701.727 554.525 701.727Q553.225 701.727 552.187 702.301Q551.15 702.874 550.558 703.936Q549.972 704.998 549.972 706.378Q549.972 707.775 550.558 708.837Q551.15 709.899 552.187 710.479Q553.225 711.053 554.525 711.053Q555.648 711.053 556.57 710.577Q557.497 710.101 558.126 709.149L559.951 710.302Q559.176 711.676 557.76 712.414Q556.35 713.153 554.549 713.153ZM574.704 699.749L568.277 714.324Q567.429 716.351 566.287 717.175Q565.152 717.999 563.553 717.999Q562.576 717.999 561.661 717.688Q560.751 717.376 560.153 716.772L561.179 714.978Q562.204 715.948 563.553 715.948Q564.426 715.948 565.012 715.484Q565.604 715.026 566.08 713.897L566.501 712.976L560.654 699.749L563.15 699.749L567.776 710.351L572.354 699.749L574.704 699.749ZM577.15 699.749L579.549 699.749L579.549 705.377L587.099 705.377L587.099 699.749L589.498 699.749L589.498 713L587.099 713L587.099 707.452L579.549 707.452L579.549 713L577.15 713L577.15 699.749ZM606.151 706.451Q606.151 706.726 606.102 707.177L595.347 707.177Q595.573 708.923 596.885 709.991Q598.198 711.053 600.151 711.053Q602.525 711.053 603.972 709.448L605.296 710.998Q604.399 712.048 603.062 712.603Q601.725 713.153 600.071 713.153Q597.972 713.153 596.348 712.292Q594.725 711.425 593.834 709.875Q592.949 708.325 592.949 706.378Q592.949 704.449 593.809 702.899Q594.676 701.348 596.183 700.488Q597.697 699.627 599.601 699.627Q601.5 699.627 602.983 700.488Q604.472 701.348 605.308 702.899Q606.151 704.449 606.151 706.451ZM599.601 701.647Q597.874 701.647 596.708 702.697Q595.549 703.747 595.347 705.45L603.849 705.45Q603.648 703.778 602.482 702.716Q601.323 701.647 599.601 701.647ZM609.875 699.749L612.274 699.749L612.274 705.377L619.824 705.377L619.824 699.749L622.223 699.749L622.223 713L619.824 713L619.824 707.452L612.274 707.452L612.274 713L609.875 713L609.875 699.749ZM626.9 699.749L629.299 699.749L629.299 705.377L636.849 705.377L636.849 699.749L639.248 699.749L639.248 713L636.849 713L636.849 707.452L629.299 707.452L629.299 713L626.9 713L626.9 699.749ZM654.552 699.749L654.552 713L652.397 713L652.397 708.801L648.552 708.801L648.277 708.801L645.372 713L642.802 713L646.025 708.477Q644.524 708.026 643.724 706.988Q642.924 705.95 642.924 704.4Q642.924 702.124 644.475 700.939Q646.025 699.749 648.747 699.749L654.552 699.749ZM645.372 704.473Q645.372 705.798 646.208 706.439Q647.05 707.073 648.723 707.073L652.397 707.073L652.397 701.849L648.827 701.849Q645.372 701.849 645.372 704.473Z" fill="#000000" fill-opacity="1.000000" fill-rule="evenodd"/>
	<rect id="Rectangle 26" y="683.000000" rx="12.000000" width="46.000000" height="46.000000" fill="url(#paint_linear_69_660_0)" fill-opacity="1.000000"/>
	<path id="Сухий - продуктивний" d="M75.5469 775.201Q72.9224 775.201 70.8105 774.042Q68.6987 772.876 67.4963 770.837Q66.3 768.799 66.3 766.248Q66.3 763.702 67.4963 761.664Q68.6987 759.625 70.8228 758.466Q72.9468 757.3 75.5713 757.3Q77.6221 757.3 79.3188 757.99Q81.0217 758.673 82.2241 760.028L80.6006 761.603Q78.623 759.528 75.675 759.528Q73.7219 759.528 72.1472 760.4Q70.5725 761.273 69.6814 762.811Q68.7964 764.349 68.7964 766.248Q68.7964 768.152 69.6814 769.69Q70.5725 771.228 72.1472 772.101Q73.7219 772.974 75.675 772.974Q78.5986 772.974 80.6006 770.874L82.2241 772.449Q81.0217 773.798 79.3066 774.5Q77.5977 775.201 75.5469 775.201ZM97.104 761.749L90.677 776.324Q89.8287 778.351 88.6873 779.175Q87.552 779.999 85.9529 779.999Q84.9764 779.999 84.0608 779.688Q83.1514 779.376 82.5533 778.772L83.5787 776.978Q84.604 777.948 85.9529 777.948Q86.8257 777.948 87.4117 777.484Q88.0037 777.026 88.4798 775.897L88.9009 774.976L83.0538 761.749L85.5501 761.749L90.1766 772.351L94.7542 761.749L97.104 761.749ZM107.077 775L103.25 769.928L99.3803 775L96.7008 775L101.925 768.225L96.9511 761.749L99.6305 761.749L103.28 766.522L106.906 761.749L109.53 761.749L104.526 768.225L109.805 775L107.077 775ZM112.325 761.749L114.724 761.749L114.724 771.399L122.848 761.749L125.027 761.749L125.027 775L122.622 775L122.622 765.35L114.523 775L112.325 775L112.325 761.749ZM129.675 761.749L132.074 761.749L132.074 771.399L140.198 761.749L142.377 761.749L142.377 775L139.972 775L139.972 765.35L131.873 775L129.675 775L129.675 761.749ZM135.871 760.028Q134.021 760.028 132.996 759.143Q131.976 758.252 131.946 756.573L133.576 756.573Q133.6 757.501 134.21 758.063Q134.821 758.624 135.846 758.624Q136.871 758.624 137.494 758.063Q138.123 757.501 138.147 756.573L139.826 756.573Q139.801 758.252 138.751 759.143Q137.702 760.028 135.871 760.028ZM152.847 767.102L159.573 767.102L159.573 769.177L152.847 769.177L152.847 767.102ZM182.325 761.749L182.325 775L179.926 775L179.926 763.849L172.449 763.849L172.449 775L170.05 775L170.05 761.749L182.325 761.749ZM194.001 761.627Q195.923 761.627 197.449 762.476Q198.975 763.324 199.836 764.85Q200.696 766.376 200.696 768.378Q200.696 770.374 199.836 771.912Q198.975 773.45 197.449 774.304Q195.923 775.153 194.001 775.153Q192.572 775.153 191.382 774.603Q190.198 774.048 189.374 772.998L189.374 779.852L186.975 779.852L186.975 761.749L189.276 761.749L189.276 763.849Q190.076 762.75 191.297 762.189Q192.524 761.627 194.001 761.627ZM193.799 773.053Q195.075 773.053 196.088 772.467Q197.101 771.875 197.687 770.813Q198.273 769.751 198.273 768.378Q198.273 766.998 197.687 765.936Q197.101 764.874 196.088 764.301Q195.075 763.727 193.799 763.727Q192.548 763.727 191.535 764.313Q190.522 764.899 189.936 765.948Q189.35 766.998 189.35 768.378Q189.35 769.751 189.923 770.813Q190.497 771.875 191.523 772.467Q192.548 773.053 193.799 773.053ZM209.852 775.153Q207.874 775.153 206.299 774.28Q204.725 773.401 203.834 771.863Q202.949 770.325 202.949 768.378Q202.949 766.425 203.834 764.886Q204.725 763.348 206.299 762.488Q207.874 761.627 209.852 761.627Q211.823 761.627 213.386 762.488Q214.948 763.348 215.833 764.886Q216.724 766.425 216.724 768.378Q216.724 770.325 215.833 771.863Q214.948 773.401 213.386 774.28Q211.823 775.153 209.852 775.153ZM209.852 773.053Q211.121 773.053 212.134 772.467Q213.148 771.875 213.721 770.813Q214.301 769.751 214.301 768.378Q214.301 766.998 213.721 765.936Q213.148 764.874 212.134 764.301Q211.121 763.727 209.852 763.727Q208.576 763.727 207.563 764.301Q206.55 764.874 205.958 765.936Q205.372 766.998 205.372 768.378Q205.372 769.751 205.958 770.813Q206.55 771.875 207.563 772.467Q208.576 773.053 209.852 773.053ZM233.577 772.9L233.577 778.076L231.325 778.076L231.325 775L220.253 775L220.253 778.076L217.976 778.076L217.976 772.9L218.672 772.9Q219.948 772.827 220.424 771.1Q220.9 769.373 221.077 766.223L221.272 761.749L231.551 761.749L231.551 772.9L233.577 772.9ZM223.274 766.4Q223.177 768.903 222.859 770.538Q222.548 772.174 221.724 772.9L229.152 772.9L229.152 763.849L223.402 763.849L223.274 766.4ZM248.529 761.749L242.102 776.324Q241.254 778.351 240.112 779.175Q238.977 779.999 237.378 779.999Q236.401 779.999 235.486 779.688Q234.576 779.376 233.978 778.772L235.004 776.978Q236.029 777.948 237.378 777.948Q238.251 777.948 238.837 777.484Q239.429 777.026 239.905 775.897L240.326 774.976L234.479 761.749L236.975 761.749L241.602 772.351L246.179 761.749L248.529 761.749ZM256.127 769.397L253.374 769.397L253.374 775L250.975 775L250.975 761.749L253.374 761.749L253.374 767.352L256.176 767.352L260.473 761.749L263.048 761.749L258.025 768.127L263.402 775L260.576 775L256.127 769.397ZM275.576 763.849L270.724 763.849L270.724 775L268.325 775L268.325 763.849L263.473 763.849L263.473 761.749L275.576 761.749L275.576 763.849ZM278.025 761.749L280.424 761.749L280.424 771.399L288.548 761.749L290.727 761.749L290.727 775L288.322 775L288.322 765.35L280.223 775L278.025 775L278.025 761.749ZM304.403 768.127Q306.972 768.774 306.972 771.35Q306.972 773.102 305.66 774.054Q304.348 775 301.748 775L295.375 775L295.375 761.749L301.528 761.749Q303.878 761.749 305.202 762.64Q306.527 763.525 306.527 765.149Q306.527 766.199 305.959 766.962Q305.397 767.725 304.403 768.127ZM297.725 767.45L301.326 767.45Q302.7 767.45 303.414 766.949Q304.128 766.449 304.128 765.503Q304.128 763.599 301.326 763.599L297.725 763.599L297.725 767.45ZM301.577 773.151Q303.072 773.151 303.823 772.675Q304.573 772.198 304.573 771.198Q304.573 770.172 303.884 769.678Q303.2 769.177 301.723 769.177L297.725 769.177L297.725 773.151L301.577 773.151ZM310.725 761.749L313.124 761.749L313.124 767.377L320.674 767.377L320.674 761.749L323.073 761.749L323.073 775L320.674 775L320.674 769.452L313.124 769.452L313.124 775L310.725 775L310.725 761.749ZM327.75 761.749L330.149 761.749L330.149 771.399L338.273 761.749L340.452 761.749L340.452 775L338.047 775L338.047 765.35L329.948 775L327.75 775L327.75 761.749ZM345.1 761.749L347.499 761.749L347.499 771.399L355.623 761.749L357.802 761.749L357.802 775L355.397 775L355.397 765.35L347.298 775L345.1 775L345.1 761.749ZM351.296 760.028Q349.446 760.028 348.421 759.143Q347.401 758.252 347.371 756.573L349.001 756.573Q349.025 757.501 349.635 758.063Q350.246 758.624 351.271 758.624Q352.297 758.624 352.919 758.063Q353.548 757.501 353.572 756.573L355.251 756.573Q355.226 758.252 354.176 759.143Q353.127 760.028 351.296 760.028Z" fill="#000000" fill-opacity="1.000000" fill-rule="evenodd"/>
	<rect id="Rectangle 26" y="745.000000" rx="12.000000" width="46.000000" height="46.000000" fill="url(#paint_linear_69_663_0)" fill-opacity="1.000000"/>
	<path id="Сухий кашель не змінив характеру" d="M75.5469 836.201Q72.9224 836.201 70.8105 835.042Q68.6987 833.876 67.4963 831.837Q66.3 829.799 66.3 827.248Q66.3 824.702 67.4963 822.664Q68.6987 820.625 70.8228 819.466Q72.9468 818.3 75.5713 818.3Q77.6221 818.3 79.3188 818.99Q81.0217 819.673 82.2241 821.028L80.6006 822.603Q78.623 820.528 75.675 820.528Q73.7219 820.528 72.1472 821.4Q70.5725 822.273 69.6814 823.811Q68.7964 825.349 68.7964 827.248Q68.7964 829.152 69.6814 830.69Q70.5725 832.228 72.1472 833.101Q73.7219 833.974 75.675 833.974Q78.5986 833.974 80.6006 831.874L82.2241 833.449Q81.0217 834.798 79.3066 835.5Q77.5977 836.201 75.5469 836.201ZM97.104 822.749L90.677 837.324Q89.8287 839.351 88.6873 840.175Q87.552 840.999 85.9529 840.999Q84.9764 840.999 84.0608 840.688Q83.1514 840.376 82.5533 839.772L83.5787 837.978Q84.604 838.948 85.9529 838.948Q86.8257 838.948 87.4117 838.484Q88.0037 838.026 88.4798 836.897L88.9009 835.976L83.0538 822.749L85.5501 822.749L90.1766 833.351L94.7542 822.749L97.104 822.749ZM107.077 836L103.25 830.928L99.3803 836L96.7008 836L101.925 829.225L96.9511 822.749L99.6305 822.749L103.28 827.522L106.906 822.749L109.53 822.749L104.526 829.225L109.805 836L107.077 836ZM112.325 822.749L114.724 822.749L114.724 832.399L122.848 822.749L125.027 822.749L125.027 836L122.622 836L122.622 826.35L114.523 836L112.325 836L112.325 822.749ZM129.675 822.749L132.074 822.749L132.074 832.399L140.198 822.749L142.377 822.749L142.377 836L139.972 836L139.972 826.35L131.873 836L129.675 836L129.675 822.749ZM135.871 821.028Q134.021 821.028 132.996 820.143Q131.976 819.252 131.946 817.573L133.576 817.573Q133.6 818.501 134.21 819.063Q134.821 819.624 135.846 819.624Q136.871 819.624 137.494 819.063Q138.123 818.501 138.147 817.573L139.826 817.573Q139.801 819.252 138.751 820.143Q137.702 821.028 135.871 821.028ZM158.902 830.397L156.149 830.397L156.149 836L153.75 836L153.75 822.749L156.149 822.749L156.149 828.352L158.951 828.352L163.248 822.749L165.823 822.749L160.8 829.127L166.177 836L163.351 836L158.902 830.397ZM173.175 822.627Q175.927 822.627 177.386 823.976Q178.851 825.325 178.851 827.998L178.851 836L176.574 836L176.574 834.248Q175.976 835.176 174.859 835.664Q173.748 836.153 172.229 836.153Q170.001 836.153 168.664 835.078Q167.327 833.998 167.327 832.252Q167.327 830.501 168.603 829.439Q169.879 828.377 172.65 828.377L176.452 828.377L176.452 827.901Q176.452 826.35 175.549 825.526Q174.652 824.702 172.9 824.702Q171.728 824.702 170.599 825.093Q169.476 825.478 168.701 826.125L167.7 824.324Q168.725 823.5 170.147 823.067Q171.575 822.627 173.175 822.627ZM172.625 834.297Q173.999 834.297 175 833.687Q176 833.076 176.452 831.947L176.452 830.098L172.753 830.098Q169.702 830.098 169.702 832.149Q169.702 833.15 170.477 833.723Q171.252 834.297 172.625 834.297ZM202.048 822.749L202.048 836L183.175 836L183.175 822.749L185.574 822.749L185.574 833.9L191.427 833.9L191.427 822.749L193.826 822.749L193.826 833.9L199.649 833.9L199.649 822.749L202.048 822.749ZM218.676 829.451Q218.676 829.726 218.627 830.177L207.872 830.177Q208.098 831.923 209.41 832.991Q210.723 834.053 212.676 834.053Q215.05 834.053 216.497 832.448L217.821 833.998Q216.924 835.048 215.587 835.603Q214.25 836.153 212.596 836.153Q210.497 836.153 208.873 835.292Q207.25 834.425 206.359 832.875Q205.474 831.325 205.474 829.378Q205.474 827.449 206.334 825.899Q207.201 824.348 208.708 823.488Q210.222 822.627 212.126 822.627Q214.025 822.627 215.508 823.488Q216.997 824.348 217.833 825.899Q218.676 827.449 218.676 829.451ZM212.126 824.647Q210.399 824.647 209.233 825.697Q208.074 826.747 207.872 828.45L216.375 828.45Q216.173 826.778 215.007 825.716Q213.848 824.647 212.126 824.647ZM233.552 822.749L233.552 836L231.148 836L231.148 824.849L225.453 824.849L225.3 827.803Q225.172 830.476 224.824 832.265Q224.476 834.053 223.677 835.127Q222.877 836.201 221.449 836.201Q220.802 836.201 219.972 835.976L220.125 833.949Q220.448 834.022 220.723 834.022Q221.724 834.022 222.224 833.15Q222.725 832.277 222.871 831.074Q223.024 829.872 223.152 827.65L223.378 822.749L233.552 822.749ZM244.322 827.248Q246.849 827.272 248.174 828.401Q249.498 829.524 249.498 831.575Q249.498 833.723 248.058 834.889Q246.623 836.049 243.95 836.024L238.2 836L238.2 822.749L240.599 822.749L240.599 827.223L244.322 827.248ZM243.749 834.199Q245.372 834.224 246.208 833.552Q247.051 832.875 247.051 831.551Q247.051 830.25 246.239 829.652Q245.427 829.048 243.749 829.024L240.599 828.975L240.599 834.175L243.749 834.199ZM259.3 822.749L261.699 822.749L261.699 828.377L269.249 828.377L269.249 822.749L271.648 822.749L271.648 836L269.249 836L269.249 830.452L261.699 830.452L261.699 836L259.3 836L259.3 822.749ZM288.301 829.451Q288.301 829.726 288.252 830.177L277.497 830.177Q277.723 831.923 279.035 832.991Q280.348 834.053 282.301 834.053Q284.675 834.053 286.122 832.448L287.446 833.998Q286.549 835.048 285.212 835.603Q283.875 836.153 282.221 836.153Q280.122 836.153 278.498 835.292Q276.875 834.425 275.984 832.875Q275.099 831.325 275.099 829.378Q275.099 827.449 275.959 825.899Q276.826 824.348 278.333 823.488Q279.847 822.627 281.751 822.627Q283.65 822.627 285.133 823.488Q286.622 824.348 287.458 825.899Q288.301 827.449 288.301 829.451ZM281.751 824.647Q280.024 824.647 278.858 825.697Q277.699 826.747 277.497 828.45L286 828.45Q285.798 826.778 284.632 825.716Q283.473 824.647 281.751 824.647ZM305.922 829.103Q307.253 829.451 307.973 830.226Q308.699 831.001 308.699 832.149Q308.699 833.327 307.9 834.242Q307.1 835.152 305.684 835.664Q304.274 836.177 302.522 836.177Q301.051 836.177 299.635 835.792Q298.226 835.402 297.127 834.676L297.847 832.851Q298.799 833.449 300.026 833.791Q301.253 834.126 302.498 834.126Q304.201 834.126 305.214 833.54Q306.227 832.948 306.227 831.947Q306.227 831.026 305.409 830.525Q304.598 830.025 303.127 830.025L300.697 830.025L300.697 828.297L302.95 828.297Q304.299 828.297 305.074 827.827Q305.849 827.351 305.849 826.527Q305.849 825.624 304.933 825.124Q304.024 824.623 302.474 824.623Q300.502 824.623 298.299 825.648L297.652 823.799Q300.075 822.572 302.724 822.572Q304.323 822.572 305.599 823.024Q306.874 823.476 307.601 824.3Q308.327 825.124 308.327 826.173Q308.327 827.15 307.674 827.925Q307.027 828.7 305.922 829.103ZM327.628 822.749L327.628 836L325.449 836L325.449 826.326L320.499 834.499L319.449 834.499L314.548 826.302L314.548 836L312.35 836L312.35 822.749L314.822 822.749L320.023 831.697L325.375 822.749L327.628 822.749ZM332.3 822.749L334.699 822.749L334.699 836L332.3 836L332.3 822.749ZM333.497 820.198Q332.801 820.198 332.337 819.752Q331.873 819.301 331.873 818.648Q331.873 818.001 332.337 817.537Q332.801 817.073 333.497 817.073Q334.199 817.073 334.656 817.512Q335.12 817.952 335.12 818.599Q335.12 819.276 334.656 819.74Q334.199 820.198 333.497 820.198ZM339.375 822.749L341.774 822.749L341.774 828.377L349.324 828.377L349.324 822.749L351.723 822.749L351.723 836L349.324 836L349.324 830.452L341.774 830.452L341.774 836L339.375 836L339.375 822.749ZM356.4 822.749L358.799 822.749L358.799 832.399L366.923 822.749L369.102 822.749L369.102 836L366.697 836L366.697 826.35L358.598 836L356.4 836L356.4 822.749ZM382.778 829.127Q385.347 829.774 385.347 832.35Q385.347 834.102 384.035 835.054Q382.723 836 380.123 836L373.75 836L373.75 822.749L379.903 822.749Q382.253 822.749 383.577 823.64Q384.902 824.525 384.902 826.149Q384.902 827.199 384.334 827.962Q383.772 828.725 382.778 829.127ZM376.1 828.45L379.701 828.45Q381.075 828.45 381.789 827.949Q382.503 827.449 382.503 826.503Q382.503 824.599 379.701 824.599L376.1 824.599L376.1 828.45ZM379.952 834.151Q381.447 834.151 382.198 833.675Q382.948 833.198 382.948 832.198Q382.948 831.172 382.259 830.678Q381.575 830.177 380.098 830.177L376.1 830.177L376.1 834.151L379.952 834.151ZM404.102 836L400.275 830.928L396.405 836L393.726 836L398.95 829.225L393.976 822.749L396.656 822.749L400.305 827.522L403.931 822.749L406.555 822.749L401.551 829.225L406.83 836L404.102 836ZM413.825 822.627Q416.577 822.627 418.036 823.976Q419.501 825.325 419.501 827.998L419.501 836L417.224 836L417.224 834.248Q416.626 835.176 415.509 835.664Q414.398 836.153 412.879 836.153Q410.651 836.153 409.314 835.078Q407.977 833.998 407.977 832.252Q407.977 830.501 409.253 829.439Q410.529 828.377 413.3 828.377L417.102 828.377L417.102 827.901Q417.102 826.35 416.199 825.526Q415.302 824.702 413.55 824.702Q412.378 824.702 411.249 825.093Q410.126 825.478 409.351 826.125L408.35 824.324Q409.375 823.5 410.797 823.067Q412.225 822.627 413.825 822.627ZM413.275 834.297Q414.649 834.297 415.65 833.687Q416.651 833.076 417.102 831.947L417.102 830.098L413.403 830.098Q410.352 830.098 410.352 832.149Q410.352 833.15 411.127 833.723Q411.902 834.297 413.275 834.297ZM430.851 822.627Q432.773 822.627 434.299 823.476Q435.825 824.324 436.686 825.85Q437.546 827.376 437.546 829.378Q437.546 831.374 436.686 832.912Q435.825 834.45 434.299 835.304Q432.773 836.153 430.851 836.153Q429.422 836.153 428.232 835.603Q427.048 835.048 426.224 833.998L426.224 840.852L423.825 840.852L423.825 822.749L426.126 822.749L426.126 824.849Q426.926 823.75 428.147 823.189Q429.374 822.627 430.851 822.627ZM430.649 834.053Q431.925 834.053 432.938 833.467Q433.951 832.875 434.537 831.813Q435.123 830.751 435.123 829.378Q435.123 827.998 434.537 826.936Q433.951 825.874 432.938 825.301Q431.925 824.727 430.649 824.727Q429.398 824.727 428.385 825.313Q427.372 825.899 426.786 826.948Q426.2 827.998 426.2 829.378Q426.2 830.751 426.773 831.813Q427.347 832.875 428.373 833.467Q429.398 834.053 430.649 834.053ZM445.625 822.627Q448.377 822.627 449.836 823.976Q451.301 825.325 451.301 827.998L451.301 836L449.024 836L449.024 834.248Q448.426 835.176 447.309 835.664Q446.198 836.153 444.679 836.153Q442.451 836.153 441.114 835.078Q439.777 833.998 439.777 832.252Q439.777 830.501 441.053 829.439Q442.329 828.377 445.1 828.377L448.902 828.377L448.902 827.901Q448.902 826.35 447.999 825.526Q447.102 824.702 445.35 824.702Q444.178 824.702 443.049 825.093Q441.926 825.478 441.151 826.125L440.15 824.324Q441.175 823.5 442.597 823.067Q444.025 822.627 445.625 822.627ZM445.075 834.297Q446.449 834.297 447.45 833.687Q448.451 833.076 448.902 831.947L448.902 830.098L445.203 830.098Q442.152 830.098 442.152 832.149Q442.152 833.15 442.927 833.723Q443.702 834.297 445.075 834.297ZM460.777 830.397L458.024 830.397L458.024 836L455.625 836L455.625 822.749L458.024 822.749L458.024 828.352L460.826 828.352L465.123 822.749L467.698 822.749L462.675 829.127L468.052 836L465.226 836L460.777 830.397ZM480.226 824.849L475.374 824.849L475.374 836L472.975 836L472.975 824.849L468.123 824.849L468.123 822.749L480.226 822.749L480.226 824.849ZM494.076 829.451Q494.076 829.726 494.027 830.177L483.272 830.177Q483.498 831.923 484.81 832.991Q486.123 834.053 488.076 834.053Q490.45 834.053 491.897 832.448L493.221 833.998Q492.324 835.048 490.987 835.603Q489.651 836.153 487.996 836.153Q485.897 836.153 484.273 835.292Q482.65 834.425 481.759 832.875Q480.874 831.325 480.874 829.378Q480.874 827.449 481.734 825.899Q482.601 824.348 484.109 823.488Q485.622 822.627 487.527 822.627Q489.425 822.627 490.908 823.488Q492.397 824.348 493.233 825.899Q494.076 827.449 494.076 829.451ZM487.527 824.647Q485.799 824.647 484.633 825.697Q483.474 826.747 483.272 828.45L491.775 828.45Q491.573 826.778 490.407 825.716Q489.248 824.647 487.527 824.647ZM504.826 822.627Q506.748 822.627 508.274 823.476Q509.8 824.324 510.661 825.85Q511.521 827.376 511.521 829.378Q511.521 831.374 510.661 832.912Q509.8 834.45 508.274 835.304Q506.748 836.153 504.826 836.153Q503.397 836.153 502.207 835.603Q501.023 835.048 500.199 833.998L500.199 840.852L497.801 840.852L497.801 822.749L500.102 822.749L500.102 824.849Q500.901 823.75 502.122 823.189Q503.349 822.627 504.826 822.627ZM504.624 834.053Q505.9 834.053 506.913 833.467Q507.926 832.875 508.512 831.813Q509.098 830.751 509.098 829.378Q509.098 827.998 508.512 826.936Q507.926 825.874 506.913 825.301Q505.9 824.727 504.624 824.727Q503.373 824.727 502.36 825.313Q501.347 825.899 500.761 826.948Q500.175 827.998 500.175 829.378Q500.175 830.751 500.749 831.813Q501.322 832.875 502.348 833.467Q503.373 834.053 504.624 834.053ZM526.454 822.749L520.027 837.324Q519.179 839.351 518.037 840.175Q516.902 840.999 515.303 840.999Q514.326 840.999 513.411 840.688Q512.501 840.376 511.903 839.772L512.929 837.978Q513.954 838.948 515.303 838.948Q516.176 838.948 516.762 838.484Q517.354 838.026 517.83 836.897L518.251 835.976L512.404 822.749L514.9 822.749L519.527 833.351L524.104 822.749L526.454 822.749Z" fill="#000000" fill-opacity="1.000000" fill-rule="evenodd"/>
	<rect id="Rectangle 26" y="806.000000" rx="12.000000" width="46.000000" height="46.000000" fill="#25B0FF" fill-opacity="1.000000"/>
	<path id="Slice - 34 (34.7%)" d="M861.886 396.898L632.292 564.191C539.899 437.391 567.793 259.699 694.594 167.305C741.572 133.076 797.919 114.08 856.033 112.883L861.886 396.898Z" fill="url(#paint_linear_69_675_0)" fill-opacity="1.000000" fill-rule="nonzero"/>
	<path id="Slice - 34 (34.7%)" d="M632.292 564.191C539.899 437.391 567.793 259.699 694.594 167.305C741.572 133.076 797.919 114.08 856.033 112.883L861.886 396.898L632.292 564.191Z" stroke="#FFFFFF" stroke-opacity="1.000000" stroke-width="1.000000"/>
	<path id="Slice - 64 (65.3%)" d="M861.886 396.9L856.032 112.883C1012.89 109.65 1142.67 234.188 1145.9 391.047C1149.14 547.904 1024.6 677.686 867.74 680.918C774.896 682.832 686.979 639.246 632.292 564.193L861.886 396.9Z" fill="url(#paint_linear_69_676_0)" fill-opacity="1.000000" fill-rule="nonzero"/>
	<path id="Slice - 64 (65.3%)" d="M856.032 112.883C1012.89 109.65 1142.67 234.188 1145.9 391.047C1149.14 547.904 1024.6 677.686 867.74 680.918C774.896 682.832 686.979 639.246 632.292 564.193L861.886 396.9L856.032 112.883Z" stroke="#FFFFFF" stroke-opacity="1.000000" stroke-width="1.000000"/>
	<path id="Vector 5" d="M863 396L856 118" stroke="#25B0FF" stroke-opacity="1.000000" stroke-width="9.000000" stroke-linecap="round"/>
</svg>
