<svg width="360.000000" height="262.123047" viewBox="0 0 360 262.123" fill="none" xmlns="http://www.w3.org/2000/svg" xmlns:xlink="http://www.w3.org/1999/xlink">
	<desc>
			Created with Pixso.
	</desc>
	<defs>
		<filter id="filter_93_130_dd" x="8.289307" y="0.000000" width="188.949463" height="188.949219" filterUnits="userSpaceOnUse" color-interpolation-filters="sRGB">
			<feFlood flood-opacity="0" result="BackgroundImageFix"/>
			<feColorMatrix in="SourceAlpha" type="matrix" values="0 0 0 0 0 0 0 0 0 0 0 0 0 0 0 0 0 0 127 0" result="hardAlpha"/>
			<feOffset dx="4.53119" dy="20.3904"/>
			<feGaussianBlur stdDeviation="8.08062"/>
			<feComposite in2="hardAlpha" operator="out" k2="-1" k3="1"/>
			<feColorMatrix type="matrix" values="0 0 0 0 0 0 0 0 0 0 0 0 0 0 0 0 0 0 0.25 0"/>
			<feBlend mode="normal" in2="BackgroundImageFix" result="effect_dropShadow_1"/>
			<feBlend mode="normal" in="SourceGraphic" in2="effect_dropShadow_1" result="shape"/>
		</filter>
	</defs>
	<path id="х 5" d="M244.975 104.905L234.473 90.7408L223.916 104.905L213.358 104.905L229.279 84.1631L214.049 64.0376L224.682 64.0376L234.716 77.4359L244.732 64.0376L255.066 64.0376L239.762 84.0136L255.758 104.905L244.975 104.905ZM297.385 72.0729Q308.709 72.0729 314.146 76.4829Q319.584 80.8743 319.584 88.4424Q319.584 93.2635 317.211 97.169Q314.838 101.075 310.091 103.373Q305.345 105.671 298.375 105.671Q292.638 105.671 287.275 104.027Q281.931 102.383 278.249 99.4675L282.473 91.7312Q285.444 94.1978 289.611 95.618Q293.797 97.0195 298.225 97.0195Q303.514 97.0195 306.541 94.8519Q309.568 92.6655 309.568 88.8348Q309.568 84.705 306.298 82.5935Q303.047 80.4819 295.161 80.4819L282.23 80.4819L284.995 51.3307L316.445 51.3307L316.445 59.665L293.404 59.665L292.264 72.0729L297.385 72.0729Z" fill="#000000" fill-opacity="1.000000" fill-rule="evenodd"/>
	<g filter="url(#filter_93_130_dd)">
		<path id="Vector" d="M147.892 24.4258L115.546 87.9971L48.5747 123.743C35.8647 111.033 28 93.4727 28 74.084C28 35.2959 59.4463 3.85156 98.2344 3.85156C117.634 3.85156 135.188 11.7168 147.892 24.4258Z" fill="#D0CFD5" fill-opacity="1.000000" fill-rule="nonzero"/>
		<path id="Vector" d="M63.5337 115.755C62.2939 114.677 61.0884 113.556 59.9282 112.389C47.2163 99.6787 39.354 82.1182 39.354 62.7295C39.354 46.2266 45.0469 31.0566 54.5732 19.0703C51.6953 21.3564 48.9985 23.8662 46.5103 26.5732C34.709 39.4277 28 56.627 28 74.0811C28 90.7256 34.1172 107.326 45.1309 120.041C46.2349 121.314 47.3823 122.55 48.5747 123.74L63.5337 115.755Z" fill="#B5B4B9" fill-opacity="1.000000" fill-rule="nonzero"/>
		<path id="Vector" d="M168.465 74.082C168.465 112.87 137.02 144.316 98.2334 144.316C78.8384 144.316 61.2837 136.458 48.5737 123.748L48.5737 123.742L147.891 24.4248C160.601 37.1348 168.465 54.6963 168.465 74.082Z" fill="#E6E6E6" fill-opacity="1.000000" fill-rule="nonzero"/>
		<path id="Vector" d="M84.604 32.624C83.5151 32.624 82.4238 32.208 81.5928 31.375C79.9312 29.7139 79.9312 27.0166 81.5928 25.3545L86.4639 20.4863C88.1255 18.8223 90.8223 18.8242 92.4839 20.4863C94.1455 22.1475 94.1455 24.8447 92.4839 26.5068L87.6133 31.377C86.7822 32.208 85.6934 32.624 84.604 32.624Z" fill="#334151" fill-opacity="1.000000" fill-rule="nonzero"/>
		<path id="Vector" d="M138.414 86.4326C137.325 86.4326 136.235 86.0176 135.405 85.1865C133.741 83.5225 133.741 80.8281 135.405 79.1641L140.273 74.2959C141.937 72.6318 144.632 72.6318 146.293 74.2959C147.957 75.957 147.957 78.6543 146.293 80.3154L141.425 85.1865C140.594 86.0176 139.503 86.4326 138.414 86.4326Z" fill="#334151" fill-opacity="1.000000" fill-rule="nonzero"/>
		<path id="Vector" d="M117.702 65.8574C113.346 65.8574 109.095 64.0771 105.898 60.8809C102.441 57.4238 100.642 52.7314 100.958 48.0078C101.116 45.6592 103.156 43.8877 105.491 44.0449C107.837 44.2021 109.611 46.2314 109.454 48.5781C109.301 50.8506 110.199 53.1406 111.918 54.8604C113.638 56.5801 115.928 57.4805 118.201 57.3252C120.549 57.168 122.577 58.9414 122.734 61.2871C122.891 63.6338 121.118 65.6631 118.771 65.8203C118.415 65.8438 118.059 65.8574 117.702 65.8574Z" fill="#334151" fill-opacity="1.000000" fill-rule="nonzero"/>
		<path id="Vector" d="M109.585 132.961C90.1924 132.961 72.6353 125.103 59.9253 112.389C59.9253 112.389 48.5737 123.74 48.5737 123.747C61.2837 136.457 78.8384 144.314 98.2334 144.314L98.2871 144.314C109.559 144.314 120.799 141.56 130.784 136.327C139.447 131.786 147.159 125.399 153.246 117.741C141.257 127.269 126.087 132.961 109.585 132.961Z" fill="#D0CFD5" fill-opacity="1.000000" fill-rule="nonzero"/>
	</g>
	<path id="ПРОТЯГОМ 2 ГОДИН, КОЖНI 30 ХВИЛИН" d="M29.1874 189.125L29.1874 210.123L26.2504 210.123L26.2504 191.732L14.0702 191.732L14.0702 210.123L11.0966 210.123L11.0966 189.125L29.1874 189.125ZM43.9151 189.125Q47.9947 189.125 50.3311 191.073Q52.6748 193.021 52.6748 196.441Q52.6748 199.862 50.3311 201.817Q47.9947 203.766 43.9151 203.766L38.7295 203.766L38.7295 210.123L35.7266 210.123L35.7266 189.125L43.9151 189.125ZM43.8272 201.151Q46.6763 201.151 48.1778 199.942Q49.6792 198.727 49.6792 196.441Q49.6792 194.164 48.1778 192.948Q46.6763 191.732 43.8272 191.732L38.7295 191.732L38.7295 201.151L43.8272 201.151ZM66.5948 210.365Q63.4161 210.365 60.8673 208.973Q58.3185 207.574 56.861 205.113Q55.4108 202.652 55.4108 199.62Q55.4108 196.595 56.861 194.134Q58.3185 191.673 60.8673 190.282Q63.4161 188.883 66.5948 188.883Q69.7443 188.883 72.2931 190.282Q74.8492 191.673 76.2848 194.12Q77.7277 196.566 77.7277 199.62Q77.7277 202.682 76.2848 205.128Q74.8492 207.574 72.2931 208.973Q69.7443 210.365 66.5948 210.365ZM66.5948 207.691Q68.9093 207.691 70.755 206.644Q72.6007 205.597 73.6627 203.751Q74.7247 201.905 74.7247 199.62Q74.7247 197.342 73.6627 195.497Q72.6007 193.651 70.755 192.604Q68.9093 191.556 66.5948 191.556Q64.2877 191.556 62.4127 192.604Q60.5377 193.651 59.4684 195.497Q58.4064 197.342 58.4064 199.62Q58.4064 201.905 59.4684 203.751Q60.5377 205.597 62.4127 206.644Q64.2877 207.691 66.5948 207.691ZM96.7226 191.732L89.5229 191.732L89.5229 210.123L86.5786 210.123L86.5786 191.732L79.4082 191.732L79.4082 189.125L96.7226 189.125L96.7226 191.732ZM114.872 189.125L114.872 210.123L111.928 210.123L111.928 204L106.142 204Q105.6 204 105.329 203.971L101.132 210.123L97.9532 210.123L102.597 203.465Q100.348 202.711 99.147 200.96Q97.9532 199.203 97.9532 196.683Q97.9532 193.116 100.246 191.124Q102.538 189.125 106.442 189.125L114.872 189.125ZM100.978 196.654Q100.978 198.99 102.34 200.235Q103.71 201.48 106.383 201.48L111.928 201.48L111.928 191.732L106.559 191.732Q103.856 191.732 102.414 192.992Q100.978 194.251 100.978 196.654ZM135.147 191.732L124.351 191.732L124.38 210.123L121.407 210.123L121.407 189.125L135.183 189.125L135.147 191.732ZM145.555 210.365Q142.376 210.365 139.827 208.973Q137.278 207.574 135.821 205.113Q134.371 202.652 134.371 199.62Q134.371 196.595 135.821 194.134Q137.278 191.673 139.827 190.282Q142.376 188.883 145.555 188.883Q148.704 188.883 151.253 190.282Q153.809 191.673 155.245 194.12Q156.688 196.566 156.688 199.62Q156.688 202.682 155.245 205.128Q153.809 207.574 151.253 208.973Q148.704 210.365 145.555 210.365ZM145.555 207.691Q147.869 207.691 149.715 206.644Q151.561 205.597 152.623 203.751Q153.685 201.905 153.685 199.62Q153.685 197.342 152.623 195.497Q151.561 193.651 149.715 192.604Q147.869 191.556 145.555 191.556Q143.248 191.556 141.373 192.604Q139.498 193.651 138.428 195.497Q137.366 197.342 137.366 199.62Q137.366 201.905 138.428 203.751Q139.498 205.597 141.373 206.644Q143.248 207.691 145.555 207.691ZM181.022 210.123L180.992 194.823L173.397 207.574L172.02 207.574L164.432 194.911L164.432 210.123L161.547 210.123L161.547 189.125L164.008 189.125L172.767 203.883L181.41 189.125L183.871 189.125L183.9 210.123L181.022 210.123ZM212.1 206.161L212.1 210.123L196.229 210.123L196.229 206.974L204.329 199.32Q205.618 198.097 206.065 197.21Q206.519 196.324 206.519 195.453Q206.519 194.193 205.662 193.519Q204.813 192.845 203.157 192.845Q201.781 192.845 200.667 193.373Q199.561 193.893 198.807 194.94L195.269 192.662Q196.5 190.831 198.66 189.798Q200.821 188.766 203.612 188.766Q205.948 188.766 207.706 189.535Q209.464 190.296 210.438 191.688Q211.412 193.08 211.412 194.977Q211.412 196.683 210.687 198.185Q209.969 199.686 207.904 201.605L203.07 206.161L212.1 206.161ZM238.832 193.08L228.842 193.08L228.871 210.123L224.037 210.123L224.037 189.125L238.862 189.125L238.832 193.08ZM249.724 210.482Q246.45 210.482 243.821 209.076Q241.199 207.662 239.712 205.187Q238.233 202.711 238.233 199.62Q238.233 196.537 239.712 194.061Q241.199 191.585 243.821 190.179Q246.45 188.766 249.724 188.766Q252.991 188.766 255.598 190.179Q258.213 191.585 259.707 194.061Q261.209 196.537 261.209 199.62Q261.209 202.711 259.707 205.187Q258.213 207.662 255.598 209.076Q252.991 210.482 249.724 210.482ZM249.724 206.344Q251.577 206.344 253.079 205.487Q254.58 204.63 255.437 203.106Q256.294 201.576 256.294 199.62Q256.294 197.672 255.437 196.141Q254.58 194.61 253.079 193.761Q251.577 192.904 249.724 192.904Q247.864 192.904 246.362 193.761Q244.861 194.61 244.004 196.141Q243.147 197.672 243.147 199.62Q243.147 201.576 244.004 203.106Q244.861 204.63 246.362 205.487Q247.864 206.344 249.724 206.344ZM286.022 206.161L286.022 214.474L281.518 214.474L281.518 210.123L266.701 210.123L266.701 214.474L262.197 214.474L262.233 206.161L263.068 206.161Q264.958 206.102 265.734 203.407Q266.518 200.704 266.701 195.694L266.943 189.125L283.078 189.125L283.078 206.161L286.022 206.161ZM270.993 196.141Q270.839 199.891 270.356 202.425Q269.88 204.959 268.891 206.161L278.281 206.161L278.281 193.08L271.081 193.08L270.993 196.141ZM289.287 189.125L294.121 189.125L294.121 202.806L304.141 189.125L308.697 189.125L308.697 210.123L303.899 210.123L303.899 196.471L293.88 210.123L289.287 210.123L289.287 189.125ZM333.18 189.125L333.18 210.123L328.317 210.123L328.317 201.51L318.781 201.51L318.781 210.123L313.917 210.123L313.917 189.125L318.781 189.125L318.781 197.401L328.317 197.401L328.317 189.125L333.18 189.125ZM339.782 204.542Q341.042 204.542 341.848 205.34Q342.661 206.131 342.661 207.42Q342.661 208.021 342.507 208.622Q342.361 209.222 341.848 210.423L340.141 214.745L337.168 214.745L338.493 209.977Q337.739 209.676 337.299 209.002Q336.867 208.321 336.867 207.42Q336.867 206.131 337.695 205.34Q338.523 204.542 339.782 204.542ZM38.1008 242.88L33.7209 242.88L33.7209 252.123L30.7766 252.123L30.7766 231.125L33.7209 231.125L33.7209 240.243L38.1594 240.243L44.7585 231.125L47.9665 231.125L40.4665 241.291L48.3327 252.123L44.9123 252.123L38.1008 242.88ZM60.8048 252.365Q57.6261 252.365 55.0773 250.973Q52.5285 249.574 51.071 247.113Q49.6208 244.652 49.6208 241.62Q49.6208 238.595 51.071 236.134Q52.5285 233.673 55.0773 232.282Q57.6261 230.883 60.8048 230.883Q63.9543 230.883 66.5031 232.282Q69.0592 233.673 70.4948 236.12Q71.9377 238.566 71.9377 241.62Q71.9377 244.682 70.4948 247.128Q69.0592 249.574 66.5031 250.973Q63.9543 252.365 60.8048 252.365ZM60.8048 249.691Q63.1193 249.691 64.965 248.644Q66.8107 247.597 67.8727 245.751Q68.9347 243.905 68.9347 241.62Q68.9347 239.342 67.8727 237.497Q66.8107 235.651 64.965 234.604Q63.1193 233.556 60.8048 233.556Q58.4977 233.556 56.6227 234.604Q54.7477 235.651 53.6784 237.497Q52.6164 239.342 52.6164 241.62Q52.6164 243.905 53.6784 245.751Q54.7477 247.597 56.6227 248.644Q58.4977 249.691 60.8048 249.691ZM93.6906 242.88L89.6989 242.88L89.6989 252.123L86.7619 252.123L86.7619 242.88L82.7409 242.88L76.8596 252.123L73.3513 252.123L80.28 241.203L73.8567 231.125L77.072 231.125L82.6823 240.243L86.7619 240.243L86.7619 231.125L89.6989 231.125L89.6989 240.243L93.7199 240.243L99.3596 231.125L102.568 231.125L96.1516 241.261L103.08 252.123L99.572 252.123L93.6906 242.88ZM124.288 231.125L124.288 252.123L121.285 252.123L121.285 242.763L109.23 242.763L109.23 252.123L106.227 252.123L106.227 231.125L109.23 231.125L109.23 240.155L121.285 240.155L121.285 231.125L124.288 231.125ZM130.709 231.125L133.712 231.125L133.712 252.123L130.709 252.123L130.709 231.125ZM155.909 239.672Q158.67 240.126 160.135 241.73Q161.607 243.334 161.607 245.7Q161.607 247.531 160.648 249.076Q159.688 250.622 157.725 251.552Q155.763 252.482 152.913 252.482Q150.687 252.482 148.541 251.896Q146.402 251.31 144.901 250.233L146.79 246.513Q147.992 247.414 149.566 247.912Q151.141 248.402 152.789 248.402Q154.62 248.402 155.667 247.699Q156.722 246.996 156.722 245.7Q156.722 243.122 152.789 243.122L150.57 243.122L150.57 239.914L154.891 235.021L145.948 235.021L145.948 231.125L160.648 231.125L160.648 234.274L155.909 239.672ZM172.863 252.482Q170.249 252.482 168.205 251.193Q166.169 249.904 165.012 247.458Q163.862 245.011 163.862 241.62Q163.862 238.236 165.012 235.79Q166.169 233.344 168.205 232.055Q170.249 230.766 172.863 230.766Q175.471 230.766 177.507 232.055Q179.55 233.344 180.7 235.79Q181.857 238.236 181.857 241.62Q181.857 245.011 180.7 247.458Q179.55 249.904 177.507 251.193Q175.471 252.482 172.863 252.482ZM172.863 248.373Q174.782 248.373 175.874 246.725Q176.972 245.07 176.972 241.62Q176.972 238.17 175.874 236.522Q174.782 234.875 172.863 234.875Q170.966 234.875 169.868 236.522Q168.776 238.17 168.776 241.62Q168.776 245.07 169.868 246.725Q170.966 248.373 172.863 248.373ZM197.937 231.125L202.287 237.482L206.638 231.125L212.343 231.125L205.349 241.173L212.907 252.123L207.18 252.123L202.287 245.165L197.461 252.123L191.85 252.123L199.35 241.386L192.326 231.125L197.937 231.125ZM229.711 241.173Q231.63 241.745 232.648 243.034Q233.673 244.323 233.673 246.212Q233.673 249.003 231.556 250.563Q229.44 252.123 225.507 252.123L215.157 252.123L215.157 231.125L224.943 231.125Q228.597 231.125 230.633 232.538Q232.677 233.944 232.677 236.552Q232.677 238.112 231.893 239.298Q231.117 240.485 229.711 241.173ZM219.991 239.826L224.518 239.826Q226.107 239.826 226.92 239.181Q227.733 238.537 227.733 237.27Q227.733 236.046 226.905 235.387Q226.078 234.721 224.518 234.721L219.991 234.721L219.991 239.826ZM225.331 248.52Q228.751 248.52 228.751 245.824Q228.751 243.209 225.331 243.209L219.991 243.209L219.991 248.52L225.331 248.52ZM237.507 231.125L242.341 231.125L242.341 244.806L252.361 231.125L256.917 231.125L256.917 252.123L252.119 252.123L252.119 238.471L242.1 252.123L237.507 252.123L237.507 231.125ZM280.708 231.125L280.708 252.123L275.911 252.123L275.911 235.08L268.711 235.08L268.557 239.459Q268.411 243.935 267.839 246.71Q267.268 249.486 265.935 250.973Q264.602 252.453 262.2 252.453Q261.211 252.453 259.797 252.123L260.098 248.014Q260.493 248.131 260.969 248.131Q262.713 248.131 263.401 246.081Q264.089 244.022 264.273 239.643L264.573 231.125L280.708 231.125ZM285.957 231.125L290.791 231.125L290.791 244.806L300.811 231.125L305.367 231.125L305.367 252.123L300.569 252.123L300.569 238.471L290.55 252.123L285.957 252.123L285.957 231.125ZM329.85 231.125L329.85 252.123L324.987 252.123L324.987 243.51L315.451 243.51L315.451 252.123L310.587 252.123L310.587 231.125L315.451 231.125L315.451 239.401L324.987 239.401L324.987 231.125L329.85 231.125Z" fill="#000000" fill-opacity="1.000000" fill-rule="evenodd"/>
</svg>
