<svg width="1332.187500" height="741.000000" viewBox="0 0 1332.19 741" fill="none" xmlns="http://www.w3.org/2000/svg" xmlns:xlink="http://www.w3.org/1999/xlink">
	<desc>
			Created with Pixso.
	</desc>
	<defs>
		<linearGradient id="paint_linear_76_3368_0" x1="206.499985" y1="403.000000" x2="206.499985" y2="642.423096" gradientUnits="userSpaceOnUse">
			<stop stop-color="#BBBBBB"/>
			<stop offset="1.000000" stop-color="#BBBBBB" stop-opacity="0.000000"/>
		</linearGradient>
		<linearGradient id="paint_linear_76_3369_0" x1="345.584686" y1="499.500000" x2="336.000000" y2="551.015259" gradientUnits="userSpaceOnUse">
			<stop stop-color="#009C4F"/>
			<stop offset="1.000000" stop-color="#C6F579"/>
		</linearGradient>
		<linearGradient id="paint_linear_76_3373_0" x1="513.500000" y1="58.000000" x2="513.500000" y2="848.096130" gradientUnits="userSpaceOnUse">
			<stop stop-color="#BBBBBB"/>
			<stop offset="1.000000" stop-color="#BBBBBB" stop-opacity="0.000000"/>
		</linearGradient>
		<linearGradient id="paint_linear_76_3374_0" x1="652.584717" y1="536.538452" x2="643.000000" y2="552.389282" gradientUnits="userSpaceOnUse">
			<stop stop-color="#009C4F"/>
			<stop offset="1.000000" stop-color="#C6F579"/>
		</linearGradient>
		<linearGradient id="paint_linear_76_3378_0" x1="820.500000" y1="264.000000" x2="820.500000" y2="725.288452" gradientUnits="userSpaceOnUse">
			<stop stop-color="#BBBBBB"/>
			<stop offset="1.000000" stop-color="#BBBBBB" stop-opacity="0.000000"/>
		</linearGradient>
		<linearGradient id="paint_linear_76_3379_0" x1="959.584717" y1="430.910248" x2="950.000000" y2="548.470703" gradientUnits="userSpaceOnUse">
			<stop stop-color="#009C4F"/>
			<stop offset="1.000000" stop-color="#C6F579"/>
		</linearGradient>
		<linearGradient id="paint_linear_76_3383_0" x1="1127.500000" y1="288.000000" x2="1127.500000" y2="710.980774" gradientUnits="userSpaceOnUse">
			<stop stop-color="#BBBBBB"/>
			<stop offset="1.000000" stop-color="#BBBBBB" stop-opacity="0.000000"/>
		</linearGradient>
		<linearGradient id="paint_linear_76_3384_0" x1="1266.584717" y1="484.410248" x2="1257.000000" y2="550.455444" gradientUnits="userSpaceOnUse">
			<stop stop-color="#009C4F"/>
			<stop offset="1.000000" stop-color="#C6F579"/>
		</linearGradient>
		<linearGradient id="paint_linear_76_3411_0" x1="425.033875" y1="582.076904" x2="423.100830" y2="613.778625" gradientUnits="userSpaceOnUse">
			<stop stop-color="#009C4F"/>
			<stop offset="1.000000" stop-color="#C6F579"/>
		</linearGradient>
		<linearGradient id="paint_linear_76_3412_0" x1="728.033936" y1="582.076904" x2="726.100891" y2="613.778625" gradientUnits="userSpaceOnUse">
			<stop stop-color="#009C4F"/>
			<stop offset="1.000000" stop-color="#C6F579"/>
		</linearGradient>
		<linearGradient id="paint_linear_76_3413_0" x1="1053.033936" y1="582.076904" x2="1051.100830" y2="613.778625" gradientUnits="userSpaceOnUse">
			<stop stop-color="#009C4F"/>
			<stop offset="1.000000" stop-color="#C6F579"/>
		</linearGradient>
		<linearGradient id="paint_linear_76_3417_0" x1="344.000000" y1="695.000000" x2="344.000000" y2="768.423096" gradientUnits="userSpaceOnUse">
			<stop stop-color="#BBBBBB"/>
			<stop offset="1.000000" stop-color="#BBBBBB" stop-opacity="0.000000"/>
		</linearGradient>
		<linearGradient id="paint_linear_76_3420_0" x1="716.898254" y1="677.897400" x2="713.193298" y2="738.659058" gradientUnits="userSpaceOnUse">
			<stop stop-color="#009C4F"/>
			<stop offset="1.000000" stop-color="#C6F579"/>
		</linearGradient>
	</defs>
	<path id="% дітей з клін. проявами" d="M17.9006 517.001Q17.9006 518.826 16.5762 519.949Q15.2517 521.072 13.1277 521.072Q10.9976 521.072 9.6731 519.949Q8.34863 518.826 8.34863 517.001Q8.34863 515.176 9.66089 514.065Q10.9731 512.948 13.1277 512.948Q15.2761 512.948 16.5884 514.065Q17.9006 515.176 17.9006 517.001ZM8.50122 506.448L8.50122 504.526L26 516.476L26 518.399L8.50122 506.448ZM16.4724 517.001Q16.4724 515.848 15.5874 515.201Q14.7024 514.548 13.1277 514.548Q11.553 514.548 10.668 515.201Q9.77686 515.848 9.77686 517.001Q9.77686 518.124 10.6802 518.79Q11.5774 519.449 13.1277 519.449Q14.678 519.449 15.5752 518.79Q16.4724 518.124 16.4724 517.001ZM26.1526 505.923Q26.1526 507.748 24.8403 508.865Q23.522 509.976 21.3735 509.976Q19.2251 509.976 17.9128 508.865Q16.6006 507.748 16.6006 505.923Q16.6006 504.098 17.925 502.975Q19.2495 501.852 21.3735 501.852Q23.4976 501.852 24.8281 502.975Q26.1526 504.098 26.1526 505.923ZM24.7244 505.923Q24.7244 504.8 23.8271 504.141Q22.9238 503.476 21.3735 503.476Q19.8232 503.476 18.926 504.141Q18.0227 504.8 18.0227 505.923Q18.0227 507.077 18.9138 507.73Q19.7988 508.377 21.3735 508.377Q22.9482 508.377 23.8394 507.73Q24.7244 507.077 24.7244 505.923ZM23.9004 478.398L29.0762 478.398L29.0762 480.65L26 480.65L26 491.722L29.0762 491.722L29.0762 493.999L23.9004 493.999L23.9004 493.303Q23.8271 492.027 22.0999 491.551Q20.3726 491.075 17.2231 490.898L12.7493 490.703L12.7493 480.424L23.9004 480.424L23.9004 478.398ZM17.4001 488.701Q19.9026 488.798 21.5383 489.116Q23.1741 489.427 23.9004 490.251L23.9004 482.823L14.8489 482.823L14.8489 488.573L17.4001 488.701ZM12.7493 475.275L12.7493 472.876L26 472.876L26 475.275L12.7493 475.275ZM10.198 474.078Q10.198 474.774 9.75244 475.238Q9.30078 475.702 8.6477 475.702Q8.00073 475.702 7.53686 475.238Q7.073 474.774 7.073 474.078Q7.073 473.376 7.51245 472.919Q7.9519 472.455 8.59888 472.455Q9.27637 472.455 9.74023 472.919Q10.198 473.376 10.198 474.078ZM14.8489 458.324L14.8489 463.176L26 463.176L26 465.575L14.8489 465.575L14.8489 470.427L12.7493 470.427L12.7493 458.324L14.8489 458.324ZM19.4509 444.474Q19.7256 444.474 20.1772 444.523L20.1772 455.278Q21.9228 455.052 22.991 453.74Q24.053 452.427 24.053 450.474Q24.053 448.1 22.4478 446.653L23.998 445.329Q25.0478 446.226 25.6033 447.563Q26.1526 448.9 26.1526 450.554Q26.1526 452.653 25.292 454.277Q24.4253 455.9 22.875 456.791Q21.3247 457.676 19.3777 457.676Q17.449 457.676 15.8987 456.816Q14.3484 455.949 13.4878 454.441Q12.6272 452.928 12.6272 451.024Q12.6272 449.125 13.4878 447.642Q14.3484 446.153 15.8987 445.317Q17.449 444.474 19.4509 444.474ZM14.6475 451.024Q14.6475 452.751 15.6973 453.917Q16.7471 455.076 18.4499 455.278L18.4499 446.775Q16.7776 446.977 15.7156 448.143Q14.6475 449.302 14.6475 451.024ZM12.7493 440.75L12.7493 438.351L22.3989 438.351L12.7493 430.227L12.7493 428.048L26 428.048L26 430.453L16.3503 430.453L26 438.552L26 440.75L12.7493 440.75ZM11.0281 434.555Q11.0281 436.404 10.1431 437.429Q9.25195 438.449 7.57348 438.479L7.57348 436.849Q8.50122 436.825 9.06274 436.215Q9.62426 435.604 9.62426 434.579Q9.62426 433.554 9.06274 432.931Q8.50122 432.302 7.57348 432.278L7.57348 430.599Q9.25195 430.624 10.1431 431.674Q11.0281 432.723 11.0281 434.555ZM19.103 409.503Q19.4509 408.172 20.2261 407.452Q21.0012 406.726 22.1487 406.726Q23.3267 406.726 24.2422 407.525Q25.1516 408.325 25.6643 409.741Q26.177 411.151 26.177 412.903Q26.177 414.374 25.7925 415.79Q25.4019 417.199 24.6755 418.298L22.8506 417.578Q23.4487 416.626 23.7905 415.399Q24.1262 414.172 24.1262 412.927Q24.1262 411.224 23.5403 410.211Q22.9482 409.198 21.9473 409.198Q21.0256 409.198 20.5251 410.016Q20.0247 410.827 20.0247 412.298L20.0247 414.728L18.2974 414.728L18.2974 412.475Q18.2974 411.126 17.8274 410.351Q17.3513 409.576 16.5273 409.576Q15.624 409.576 15.1235 410.492Q14.623 411.401 14.623 412.951Q14.623 414.923 15.6484 417.126L13.7991 417.773Q12.5723 415.35 12.5723 412.701Q12.5723 411.102 13.0239 409.826Q13.4756 408.551 14.2996 407.824Q15.1235 407.098 16.1733 407.098Q17.1499 407.098 17.925 407.751Q18.7002 408.398 19.103 409.503ZM20.397 391.198L20.397 393.951L26 393.951L26 396.35L12.7493 396.35L12.7493 393.951L18.3523 393.951L18.3523 391.149L12.7493 386.852L12.7493 384.277L19.1274 389.3L26 383.923L26 386.749L20.397 391.198ZM12.7493 370.023L26 370.023L26 372.427L14.8489 372.427L14.8489 378.122L17.803 378.275Q20.4763 378.403 22.2646 378.751Q24.053 379.099 25.1272 379.898Q26.2014 380.698 26.2014 382.126Q26.2014 382.773 25.9756 383.603L23.9492 383.45Q24.0225 383.127 24.0225 382.852Q24.0225 381.851 23.1497 381.351Q22.2768 380.85 21.0745 380.704Q19.8721 380.551 17.6504 380.423L12.7493 380.197L12.7493 370.023ZM12.7493 365.375L12.7493 362.976L26 362.976L26 365.375L12.7493 365.375ZM10.198 364.178Q10.198 364.874 9.75243 365.338Q9.30077 365.802 8.6477 365.802Q8.00073 365.802 7.53686 365.338Q7.07299 364.874 7.07299 364.178Q7.07299 363.476 7.51244 363.019Q7.9519 362.555 8.59887 362.555Q9.27636 362.555 9.74023 363.019Q10.198 363.476 10.198 364.178ZM12.7493 358.3L12.7493 355.901L18.3767 355.901L18.3767 348.351L12.7493 348.351L12.7493 345.952L26 345.952L26 348.351L20.4519 348.351L20.4519 355.901L26 355.901L26 358.3L12.7493 358.3ZM26.1526 340.75Q26.1526 341.452 25.6643 341.952Q25.176 342.453 24.4253 342.453Q23.699 342.453 23.2107 341.952Q22.7224 341.452 22.7224 340.75Q22.7224 340.048 23.1985 339.578Q23.6746 339.102 24.4253 339.102Q25.176 339.102 25.6643 339.59Q26.1526 340.072 26.1526 340.75ZM12.7493 316.6L26 316.6L26 318.999L14.8489 318.999L14.8489 326.476L26 326.476L26 328.875L12.7493 328.875L12.7493 316.6ZM12.6272 304.924Q12.6272 303.002 13.4756 301.476Q14.324 299.95 15.8498 299.089Q17.3757 298.229 19.3777 298.229Q21.3735 298.229 22.9116 299.089Q24.4497 299.95 25.3042 301.476Q26.1526 303.002 26.1526 304.924Q26.1526 306.353 25.6033 307.543Q25.0478 308.727 23.998 309.551L30.8523 309.551L30.8523 311.95L12.7493 311.95L12.7493 309.649L14.8489 309.649Q13.7502 308.849 13.1887 307.628Q12.6272 306.401 12.6272 304.924ZM24.053 305.126Q24.053 303.85 23.467 302.837Q22.875 301.824 21.813 301.238Q20.751 300.652 19.3777 300.652Q17.9983 300.652 16.9363 301.238Q15.8743 301.824 15.3005 302.837Q14.7268 303.85 14.7268 305.126Q14.7268 306.377 15.3127 307.39Q15.8987 308.403 16.9485 308.989Q17.9983 309.575 19.3777 309.575Q20.751 309.575 21.813 309.002Q22.875 308.428 23.467 307.402Q24.053 306.377 24.053 305.126ZM26.1526 289.073Q26.1526 291.051 25.2798 292.626Q24.4009 294.2 22.8628 295.091Q21.3247 295.976 19.3777 295.976Q17.4246 295.976 15.8865 295.091Q14.3484 294.2 13.4878 292.626Q12.6272 291.051 12.6272 289.073Q12.6272 287.102 13.4878 285.539Q14.3484 283.977 15.8865 283.092Q17.4246 282.201 19.3777 282.201Q21.3247 282.201 22.8628 283.092Q24.4009 283.977 25.2798 285.539Q26.1526 287.102 26.1526 289.073ZM24.053 289.073Q24.053 287.804 23.467 286.791Q22.875 285.777 21.813 285.204Q20.751 284.624 19.3777 284.624Q17.9983 284.624 16.9363 285.204Q15.8743 285.777 15.3005 286.791Q14.7268 287.804 14.7268 289.073Q14.7268 290.349 15.3005 291.362Q15.8743 292.375 16.9363 292.967Q17.9983 293.553 19.3777 293.553Q20.751 293.553 21.813 292.967Q22.875 292.375 23.467 291.362Q24.053 290.349 24.053 289.073ZM12.7493 268.548L26 268.548L26 270.703L21.8008 270.703L21.8008 274.548L21.8008 274.823L26 277.728L26 280.298L21.4773 277.075Q21.0256 278.576 19.988 279.376Q18.9504 280.176 17.4001 280.176Q15.1235 280.176 13.9394 278.625Q12.7493 277.075 12.7493 274.353L12.7493 268.548ZM17.4734 277.728Q18.7978 277.728 19.4387 276.892Q20.0735 276.05 20.0735 274.377L20.0735 270.703L14.8489 270.703L14.8489 274.273Q14.8489 277.728 17.4734 277.728ZM19.1274 254.847Q19.7744 252.278 22.3501 252.278Q24.1018 252.278 25.0539 253.59Q26 254.902 26 257.503L26 263.875L12.7493 263.875L12.7493 257.722Q12.7493 255.372 13.6404 254.048Q14.5254 252.723 16.1489 252.723Q17.1987 252.723 17.9617 253.291Q18.7246 253.853 19.1274 254.847ZM18.4499 261.525L18.4499 257.924Q18.4499 256.55 17.9495 255.836Q17.449 255.122 16.5029 255.122Q14.5986 255.122 14.5986 257.924L14.5986 261.525L18.4499 261.525ZM24.1506 257.673Q24.1506 256.178 23.6745 255.427Q23.1985 254.677 22.1975 254.677Q21.1721 254.677 20.6777 255.366Q20.1772 256.05 20.1772 257.527L20.1772 261.525L24.1506 261.525L24.1506 257.673ZM12.6272 243.8Q12.6272 241.048 13.9761 239.589Q15.3249 238.124 17.9983 238.124L26 238.124L26 240.401L24.2483 240.401Q25.176 240.999 25.6643 242.116Q26.1526 243.227 26.1526 244.746Q26.1526 246.974 25.0784 248.311Q23.998 249.648 22.2524 249.648Q20.5007 249.648 19.4387 248.372Q18.3767 247.096 18.3767 244.325L18.3767 240.523L17.9006 240.523Q16.3503 240.523 15.5264 241.426Q14.7024 242.323 14.7024 244.075Q14.7024 245.247 15.093 246.376Q15.4775 247.499 16.1245 248.274L14.324 249.275Q13.5 248.25 13.0666 246.828Q12.6272 245.4 12.6272 243.8ZM24.2971 244.35Q24.2971 242.976 23.6868 241.975Q23.0764 240.975 21.9473 240.523L20.0979 240.523L20.0979 244.222Q20.0979 247.273 22.1487 247.273Q23.1496 247.273 23.7234 246.498Q24.2971 245.723 24.2971 244.35ZM12.7493 218.522L26 218.522L26 220.701L16.3259 220.701L24.4985 225.651L24.4985 226.701L16.3015 231.602L26 231.602L26 233.8L12.7493 233.8L12.7493 231.328L21.697 226.127L12.7493 220.775L12.7493 218.522ZM12.7493 213.85L12.7493 211.451L22.3989 211.451L12.7493 203.327L12.7493 201.148L26 201.148L26 203.553L16.3503 203.553L26 211.652L26 213.85L12.7493 213.85Z" fill="#000000" fill-opacity="1.000000" fill-rule="evenodd"/>
	<path id="Line 2" d="M96.1821 53L96.1821 555L93.8179 555L93.8179 53L96.1821 53ZM95 54.6719L89.1484 60.5234C88.6802 60.9917 87.9448 60.9917 87.4766 60.5234C87.0083 60.0552 87.0083 59.3198 87.4766 58.8516L94.1641 52.1641C94.6323 51.6958 95.3677 51.6958 95.8359 52.1641L102.523 58.8516C102.992 59.3198 102.992 60.0552 102.523 60.5234C102.055 60.9917 101.32 60.9917 100.852 60.5234L95 54.6719Z" fill="#000000" fill-opacity="1.000000" fill-rule="evenodd"/>
	<path id="Line 3" d="M1331 554.182L95.002 556.182L94.998 553.818L1331 551.818L1331 554.182ZM1329.33 553.003L1323.47 547.161C1323 546.693 1323 545.958 1323.46 545.489C1323.93 545.02 1324.67 545.019 1325.14 545.486L1331.83 552.163C1332.3 552.63 1332.3 553.366 1331.84 553.834L1325.16 560.533C1324.69 561.002 1323.96 561.003 1323.49 560.536C1323.02 560.068 1323.02 559.333 1323.49 558.864L1329.33 553.003Z" fill="#000000" fill-opacity="1.000000" fill-rule="evenodd"/>
	<path id="Rectangle 23" d="M168.279 403L244.721 403C256.473 403 266 412.527 266 424.279L266 553L147 553L147 424.279C147 412.527 156.527 403 168.279 403Z" fill="url(#paint_linear_76_3368_0)" fill-opacity="1.000000" fill-rule="evenodd"/>
	<path id="Rectangle 24" d="M297.279 514L373.721 514C385.473 514 395 523.527 395 535.279L395 553L276 553L276 535.279C276 523.527 285.527 514 297.279 514Z" fill="url(#paint_linear_76_3369_0)" fill-opacity="1.000000" fill-rule="evenodd"/>
	<path id="30%" d="M177.204 369.827Q181.012 370.453 183.033 372.666Q185.063 374.878 185.063 378.141Q185.063 380.666 183.74 382.798Q182.417 384.929 179.709 386.212Q177.002 387.495 173.072 387.495Q170.002 387.495 167.042 386.687Q164.092 385.879 162.021 384.394L164.627 379.262Q166.284 380.505 168.456 381.192Q170.628 381.868 172.901 381.868Q175.426 381.868 176.871 380.899Q178.325 379.929 178.325 378.141Q178.325 374.585 172.901 374.585L169.84 374.585L169.84 370.16L175.8 363.413L163.466 363.413L163.466 358.038L183.74 358.038L183.74 362.382L177.204 369.827ZM200.588 387.495Q196.981 387.495 194.163 385.717Q191.355 383.939 189.759 380.565Q188.173 377.191 188.173 372.514Q188.173 367.847 189.759 364.473Q191.355 361.099 194.163 359.321Q196.981 357.543 200.588 357.543Q204.184 357.543 206.992 359.321Q209.811 361.099 211.397 364.473Q212.993 367.847 212.993 372.514Q212.993 377.191 211.397 380.565Q209.811 383.939 206.992 385.717Q204.184 387.495 200.588 387.495ZM200.588 381.828Q203.234 381.828 204.74 379.555Q206.255 377.272 206.255 372.514Q206.255 367.756 204.74 365.483Q203.234 363.211 200.588 363.211Q197.971 363.211 196.456 365.483Q194.951 367.756 194.951 372.514Q194.951 377.272 196.456 379.555Q197.971 381.828 200.588 381.828ZM222.965 373.676Q219.783 373.676 217.773 371.504Q215.772 369.332 215.772 365.696Q215.772 362.049 217.773 359.877Q219.783 357.705 222.965 357.705Q226.157 357.705 228.137 359.877Q230.127 362.049 230.127 365.696Q230.127 369.332 228.137 371.504Q226.157 373.676 222.965 373.676ZM240.219 358.038L245.148 358.038L225.369 387L220.439 387L240.219 358.038ZM222.965 370.282Q224.379 370.282 225.177 369.13Q225.985 367.968 225.985 365.696Q225.985 363.413 225.177 362.261Q224.379 361.099 222.965 361.099Q221.601 361.099 220.773 362.281Q219.944 363.453 219.944 365.696Q219.944 367.928 220.773 369.11Q221.601 370.282 222.965 370.282ZM242.623 387.333Q240.552 387.333 238.915 386.364Q237.289 385.384 236.37 383.565Q235.461 381.747 235.461 379.343Q235.461 376.949 236.37 375.131Q237.289 373.302 238.915 372.332Q240.552 371.363 242.623 371.363Q245.805 371.363 247.815 373.534Q249.825 375.706 249.825 379.343Q249.825 382.99 247.815 385.161Q245.805 387.333 242.623 387.333ZM242.623 383.939Q244.027 383.939 244.835 382.757Q245.643 381.575 245.643 379.343Q245.643 377.11 244.835 375.939Q244.027 374.757 242.623 374.757Q241.259 374.757 240.431 375.918Q239.602 377.07 239.602 379.343Q239.602 381.626 240.431 382.788Q241.259 383.939 242.623 383.939Z" fill="#737373" fill-opacity="1.000000" fill-rule="evenodd"/>
	<path id="7%" d="M329.69 471.038L329.69 475.382L318.932 500L311.648 500L322.043 476.493L312.436 476.493L312.436 481.211L306.476 481.211L306.476 471.038L329.69 471.038ZM339.621 486.676Q336.439 486.676 334.429 484.504Q332.429 482.332 332.429 478.696Q332.429 475.049 334.429 472.877Q336.439 470.705 339.621 470.705Q342.813 470.705 344.793 472.877Q346.783 475.049 346.783 478.696Q346.783 482.332 344.793 484.504Q342.813 486.676 339.621 486.676ZM356.875 471.038L361.804 471.038L342.025 500L337.096 500L356.875 471.038ZM339.621 483.282Q341.035 483.282 341.833 482.13Q342.641 480.968 342.641 478.696Q342.641 476.413 341.833 475.261Q341.035 474.099 339.621 474.099Q338.257 474.099 337.429 475.281Q336.601 476.453 336.601 478.696Q336.601 480.928 337.429 482.11Q338.257 483.282 339.621 483.282ZM359.279 500.333Q357.208 500.333 355.572 499.364Q353.945 498.384 353.026 496.565Q352.117 494.747 352.117 492.343Q352.117 489.949 353.026 488.131Q353.945 486.302 355.572 485.332Q357.208 484.363 359.279 484.363Q362.461 484.363 364.471 486.534Q366.481 488.706 366.481 492.343Q366.481 495.99 364.471 498.161Q362.461 500.333 359.279 500.333ZM359.279 496.939Q360.683 496.939 361.491 495.757Q362.299 494.575 362.299 492.343Q362.299 490.11 361.491 488.939Q360.683 487.757 359.279 487.757Q357.915 487.757 357.087 488.918Q356.258 490.07 356.258 492.343Q356.258 494.626 357.087 495.788Q357.915 496.939 359.279 496.939Z" fill="#009C4F" fill-opacity="1.000000" fill-rule="evenodd"/>
	<path id="Rectangle 23" d="M475.279 58L551.721 58C563.473 58 573 67.5269 573 79.2793L573 553L454 553L454 79.2793C454 67.5269 463.527 58 475.279 58Z" fill="url(#paint_linear_76_3373_0)" fill-opacity="1.000000" fill-rule="evenodd"/>
	<path id="Rectangle 24" d="M595 541L690 541C696.627 541 702 546.373 702 553L583 553C583 546.373 588.373 541 595 541Z" fill="url(#paint_linear_76_3374_0)" fill-opacity="1.000000" fill-rule="evenodd"/>
	<path id="100%" d="M471.941 15.0385L471.941 44L465.233 44L465.233 20.4126L459.445 20.4126L459.445 15.0385L471.941 15.0385ZM489.403 44.495Q485.796 44.495 482.978 42.7171Q480.17 40.9392 478.574 37.5652Q476.988 34.1913 476.988 29.5142Q476.988 24.8472 478.574 21.4732Q480.17 18.0993 482.978 16.3214Q485.796 14.5435 489.403 14.5435Q492.999 14.5435 495.807 16.3214Q498.626 18.0993 500.212 21.4732Q501.808 24.8472 501.808 29.5142Q501.808 34.1913 500.212 37.5652Q498.626 40.9392 495.807 42.7171Q492.999 44.495 489.403 44.495ZM489.403 38.8279Q492.049 38.8279 493.555 36.5551Q495.07 34.2721 495.07 29.5142Q495.07 24.7563 493.555 22.4834Q492.049 20.2105 489.403 20.2105Q486.786 20.2105 485.271 22.4834Q483.766 24.7563 483.766 29.5142Q483.766 34.2721 485.271 36.5551Q486.786 38.8279 489.403 38.8279ZM517.497 44.495Q513.891 44.495 511.073 42.7171Q508.264 40.9392 506.668 37.5652Q505.082 34.1913 505.082 29.5142Q505.082 24.8472 506.668 21.4732Q508.264 18.0993 511.073 16.3214Q513.891 14.5435 517.497 14.5435Q521.094 14.5435 523.902 16.3214Q526.72 18.0993 528.306 21.4732Q529.902 24.8472 529.902 29.5142Q529.902 34.1913 528.306 37.5652Q526.72 40.9392 523.902 42.7171Q521.094 44.495 517.497 44.495ZM517.497 38.8279Q520.144 38.8279 521.649 36.5551Q523.164 34.2721 523.164 29.5142Q523.164 24.7563 521.649 22.4834Q520.144 20.2105 517.497 20.2105Q514.881 20.2105 513.366 22.4834Q511.861 24.7563 511.861 29.5142Q511.861 34.2721 513.366 36.5551Q514.881 38.8279 517.497 38.8279ZM539.875 30.6759Q536.693 30.6759 534.682 28.504Q532.682 26.3321 532.682 22.6955Q532.682 19.0488 534.682 16.877Q536.693 14.7051 539.875 14.7051Q543.067 14.7051 545.047 16.877Q547.037 19.0488 547.037 22.6955Q547.037 26.3321 545.047 28.504Q543.067 30.6759 539.875 30.6759ZM557.128 15.0385L562.058 15.0385L542.279 44L537.349 44L557.128 15.0385ZM539.875 27.2817Q541.289 27.2817 542.087 26.1301Q542.895 24.9684 542.895 22.6955Q542.895 20.4126 542.087 19.261Q541.289 18.0993 539.875 18.0993Q538.511 18.0993 537.682 19.2812Q536.854 20.453 536.854 22.6955Q536.854 24.928 537.682 26.1099Q538.511 27.2817 539.875 27.2817ZM559.532 44.3334Q557.462 44.3334 555.825 43.3636Q554.199 42.3837 553.279 40.5654Q552.37 38.7471 552.37 36.3429Q552.37 33.9488 553.279 32.1305Q554.199 30.3021 555.825 29.3323Q557.462 28.3626 559.532 28.3626Q562.714 28.3626 564.725 30.5344Q566.735 32.7063 566.735 36.3429Q566.735 39.9896 564.725 42.1615Q562.714 44.3334 559.532 44.3334ZM559.532 40.9392Q560.937 40.9392 561.745 39.7573Q562.553 38.5754 562.553 36.3429Q562.553 34.1104 561.745 32.9387Q560.937 31.7568 559.532 31.7568Q558.169 31.7568 557.34 32.9184Q556.512 34.07 556.512 36.3429Q556.512 38.6259 557.34 39.7876Q558.169 40.9392 559.532 40.9392Z" fill="#737373" fill-opacity="1.000000" fill-rule="evenodd"/>
	<path id="3%" d="M627.458 504.827Q631.267 505.453 633.287 507.666Q635.317 509.878 635.317 513.141Q635.317 515.666 633.994 517.798Q632.671 519.929 629.964 521.212Q627.256 522.495 623.327 522.495Q620.256 522.495 617.296 521.687Q614.346 520.879 612.275 519.394L614.882 514.262Q616.538 515.505 618.71 516.192Q620.882 516.868 623.155 516.868Q625.68 516.868 627.125 515.899Q628.58 514.929 628.58 513.141Q628.58 509.585 623.155 509.585L620.094 509.585L620.094 505.16L626.054 498.413L613.72 498.413L613.72 493.038L633.994 493.038L633.994 497.382L627.458 504.827ZM644.711 508.676Q641.529 508.676 639.518 506.504Q637.518 504.332 637.518 500.696Q637.518 497.049 639.518 494.877Q641.529 492.705 644.711 492.705Q647.903 492.705 649.883 494.877Q651.873 497.049 651.873 500.696Q651.873 504.332 649.883 506.504Q647.903 508.676 644.711 508.676ZM661.964 493.038L666.894 493.038L647.115 522L642.185 522L661.964 493.038ZM644.711 505.282Q646.125 505.282 646.923 504.13Q647.731 502.968 647.731 500.696Q647.731 498.413 646.923 497.261Q646.125 496.099 644.711 496.099Q643.347 496.099 642.519 497.281Q641.69 498.453 641.69 500.696Q641.69 502.928 642.519 504.11Q643.347 505.282 644.711 505.282ZM664.369 522.333Q662.298 522.333 660.661 521.364Q659.035 520.384 658.116 518.565Q657.206 516.747 657.206 514.343Q657.206 511.949 658.116 510.131Q659.035 508.302 660.661 507.332Q662.298 506.363 664.369 506.363Q667.551 506.363 669.561 508.534Q671.571 510.706 671.571 514.343Q671.571 517.99 669.561 520.161Q667.551 522.333 664.369 522.333ZM664.369 518.939Q665.773 518.939 666.581 517.757Q667.389 516.575 667.389 514.343Q667.389 512.11 666.581 510.939Q665.773 509.757 664.369 509.757Q663.005 509.757 662.176 510.918Q661.348 512.07 661.348 514.343Q661.348 516.626 662.176 517.788Q663.005 518.939 664.369 518.939Z" fill="#009C4F" fill-opacity="1.000000" fill-rule="evenodd"/>
	<path id="Rectangle 23" d="M782.279 264L858.721 264C870.473 264 880 273.527 880 285.279L880 553L761 553L761 285.279C761 273.527 770.527 264 782.279 264Z" fill="url(#paint_linear_76_3378_0)" fill-opacity="1.000000" fill-rule="evenodd"/>
	<path id="Rectangle 24" d="M911.279 464L987.721 464C999.473 464 1009 473.527 1009 485.279L1009 553L890 553L890 485.279C890 473.527 899.527 464 911.279 464Z" fill="url(#paint_linear_76_3379_0)" fill-opacity="1.000000" fill-rule="evenodd"/>
	<path id="57%" d="M788.891 234.918Q795.012 234.918 797.932 237.363Q800.851 239.797 800.851 243.898Q800.851 246.545 799.518 248.717Q798.194 250.889 795.487 252.192Q792.78 253.495 788.81 253.495Q785.739 253.495 782.779 252.687Q779.829 251.879 777.758 250.394L780.405 245.262Q782.062 246.505 784.213 247.192Q786.365 247.868 788.638 247.868Q791.163 247.868 792.608 246.878Q794.063 245.878 794.063 244.1Q794.063 242.242 792.547 241.292Q791.042 240.343 787.315 240.343L779.91 240.343L781.395 224.038L799.063 224.038L799.063 229.413L786.981 229.413L786.527 234.918L788.891 234.918ZM825.751 224.038L825.751 228.382L814.993 253L807.71 253L818.104 229.493L808.498 229.493L808.498 234.211L802.538 234.211L802.538 224.038L825.751 224.038ZM835.682 239.676Q832.5 239.676 830.49 237.504Q828.49 235.332 828.49 231.696Q828.49 228.049 830.49 225.877Q832.5 223.705 835.682 223.705Q838.874 223.705 840.854 225.877Q842.844 228.049 842.844 231.696Q842.844 235.332 840.854 237.504Q838.874 239.676 835.682 239.676ZM852.936 224.038L857.865 224.038L838.086 253L833.157 253L852.936 224.038ZM835.682 236.282Q837.096 236.282 837.894 235.13Q838.703 233.968 838.703 231.696Q838.703 229.413 837.894 228.261Q837.096 227.099 835.682 227.099Q834.318 227.099 833.49 228.281Q832.662 229.453 832.662 231.696Q832.662 233.928 833.49 235.11Q834.318 236.282 835.682 236.282ZM855.34 253.333Q853.269 253.333 851.633 252.364Q850.006 251.384 849.087 249.565Q848.178 247.747 848.178 245.343Q848.178 242.949 849.087 241.131Q850.006 239.302 851.633 238.332Q853.269 237.363 855.34 237.363Q858.522 237.363 860.532 239.534Q862.543 241.706 862.543 245.343Q862.543 248.99 860.532 251.161Q858.522 253.333 855.34 253.333ZM855.34 249.939Q856.744 249.939 857.552 248.757Q858.36 247.575 858.36 245.343Q858.36 243.11 857.552 241.939Q856.744 240.757 855.34 240.757Q853.976 240.757 853.148 241.918Q852.32 243.07 852.32 245.343Q852.32 247.626 853.148 248.788Q853.976 249.939 855.34 249.939Z" fill="#737373" fill-opacity="1.000000" fill-rule="evenodd"/>
	<path id="17%" d="M924.084 416.038L924.084 445L917.377 445L917.377 421.413L911.589 421.413L911.589 416.038L924.084 416.038ZM951.8 416.038L951.8 420.382L941.042 445L933.758 445L944.153 421.493L934.546 421.493L934.546 426.211L928.586 426.211L928.586 416.038L951.8 416.038ZM961.731 431.676Q958.549 431.676 956.538 429.504Q954.538 427.332 954.538 423.696Q954.538 420.049 956.538 417.877Q958.549 415.705 961.731 415.705Q964.923 415.705 966.903 417.877Q968.893 420.049 968.893 423.696Q968.893 427.332 966.903 429.504Q964.923 431.676 961.731 431.676ZM978.984 416.038L983.914 416.038L964.135 445L959.205 445L978.984 416.038ZM961.731 428.282Q963.145 428.282 963.943 427.13Q964.751 425.968 964.751 423.696Q964.751 421.413 963.943 420.261Q963.145 419.099 961.731 419.099Q960.367 419.099 959.539 420.281Q958.71 421.453 958.71 423.696Q958.71 425.928 959.539 427.11Q960.367 428.282 961.731 428.282ZM981.389 445.333Q979.318 445.333 977.681 444.364Q976.055 443.384 975.136 441.565Q974.227 439.747 974.227 437.343Q974.227 434.949 975.136 433.131Q976.055 431.302 977.681 430.332Q979.318 429.363 981.389 429.363Q984.571 429.363 986.581 431.534Q988.591 433.706 988.591 437.343Q988.591 440.99 986.581 443.161Q984.571 445.333 981.389 445.333ZM981.389 441.939Q982.793 441.939 983.601 440.757Q984.409 439.575 984.409 437.343Q984.409 435.11 983.601 433.939Q982.793 432.757 981.389 432.757Q980.025 432.757 979.197 433.918Q978.368 435.07 978.368 437.343Q978.368 439.626 979.197 440.788Q980.025 441.939 981.389 441.939Z" fill="#009C4F" fill-opacity="1.000000" fill-rule="evenodd"/>
	<path id="Rectangle 23" d="M1089.28 288L1165.72 288C1177.47 288 1187 297.527 1187 309.279L1187 553L1068 553L1068 309.279C1068 297.527 1077.53 288 1089.28 288Z" fill="url(#paint_linear_76_3383_0)" fill-opacity="1.000000" fill-rule="evenodd"/>
	<path id="Rectangle 24" d="M1218.28 503L1294.72 503C1306.47 503 1316 512.527 1316 524.279L1316 553L1197 553L1197 524.279C1197 512.527 1206.53 503 1218.28 503Z" fill="url(#paint_linear_76_3384_0)" fill-opacity="1.000000" fill-rule="evenodd"/>
	<path id="53%" d="M1096.66 254.918Q1102.78 254.918 1105.7 257.363Q1108.62 259.797 1108.62 263.898Q1108.62 266.545 1107.28 268.717Q1105.96 270.889 1103.25 272.192Q1100.55 273.495 1096.58 273.495Q1093.5 273.495 1090.54 272.687Q1087.59 271.879 1085.52 270.394L1088.17 265.262Q1089.83 266.505 1091.98 267.192Q1094.13 267.868 1096.4 267.868Q1098.93 267.868 1100.37 266.878Q1101.83 265.878 1101.83 264.1Q1101.83 262.242 1100.31 261.292Q1098.81 260.343 1095.08 260.343L1087.68 260.343L1089.16 244.038L1106.83 244.038L1106.83 249.413L1094.75 249.413L1094.29 254.918L1096.66 254.918ZM1124.66 255.827Q1128.47 256.453 1130.49 258.666Q1132.52 260.878 1132.52 264.141Q1132.52 266.666 1131.2 268.798Q1129.88 270.929 1127.17 272.212Q1124.46 273.495 1120.53 273.495Q1117.46 273.495 1114.5 272.687Q1111.55 271.879 1109.48 270.394L1112.09 265.262Q1113.74 266.505 1115.92 267.192Q1118.09 267.868 1120.36 267.868Q1122.89 267.868 1124.33 266.899Q1125.79 265.929 1125.79 264.141Q1125.79 260.585 1120.36 260.585L1117.3 260.585L1117.3 256.16L1123.26 249.413L1110.93 249.413L1110.93 244.038L1131.2 244.038L1131.2 248.382L1124.66 255.827ZM1141.92 259.676Q1138.73 259.676 1136.72 257.504Q1134.72 255.332 1134.72 251.696Q1134.72 248.049 1136.72 245.877Q1138.73 243.705 1141.92 243.705Q1145.11 243.705 1147.09 245.877Q1149.08 248.049 1149.08 251.696Q1149.08 255.332 1147.09 257.504Q1145.11 259.676 1141.92 259.676ZM1159.17 244.038L1164.1 244.038L1144.32 273L1139.39 273L1159.17 244.038ZM1141.92 256.282Q1143.33 256.282 1144.13 255.13Q1144.94 253.968 1144.94 251.696Q1144.94 249.413 1144.13 248.261Q1143.33 247.099 1141.92 247.099Q1140.55 247.099 1139.72 248.281Q1138.9 249.453 1138.9 251.696Q1138.9 253.928 1139.72 255.11Q1140.55 256.282 1141.92 256.282ZM1161.57 273.333Q1159.5 273.333 1157.87 272.364Q1156.24 271.384 1155.32 269.565Q1154.41 267.747 1154.41 265.343Q1154.41 262.949 1155.32 261.131Q1156.24 259.302 1157.87 258.332Q1159.5 257.363 1161.57 257.363Q1164.76 257.363 1166.77 259.534Q1168.78 261.706 1168.78 265.343Q1168.78 268.99 1166.77 271.161Q1164.76 273.333 1161.57 273.333ZM1161.57 269.939Q1162.98 269.939 1163.79 268.757Q1164.59 267.575 1164.59 265.343Q1164.59 263.11 1163.79 261.939Q1162.98 260.757 1161.57 260.757Q1160.21 260.757 1159.38 261.918Q1158.55 263.07 1158.55 265.343Q1158.55 267.626 1159.38 268.788Q1160.21 269.939 1161.57 269.939Z" fill="#737373" fill-opacity="1.000000" fill-rule="evenodd"/>
	<path id="10%" d="M1229.99 460.038L1229.99 489L1223.28 489L1223.28 465.413L1217.49 465.413L1217.49 460.038L1229.99 460.038ZM1247.45 489.495Q1243.84 489.495 1241.03 487.717Q1238.22 485.939 1236.62 482.565Q1235.04 479.191 1235.04 474.514Q1235.04 469.847 1236.62 466.473Q1238.22 463.099 1241.03 461.321Q1243.84 459.543 1247.45 459.543Q1251.05 459.543 1253.85 461.321Q1256.67 463.099 1258.26 466.473Q1259.85 469.847 1259.85 474.514Q1259.85 479.191 1258.26 482.565Q1256.67 485.939 1253.85 487.717Q1251.05 489.495 1247.45 489.495ZM1247.45 483.828Q1250.1 483.828 1251.6 481.555Q1253.12 479.272 1253.12 474.514Q1253.12 469.756 1251.6 467.483Q1250.1 465.211 1247.45 465.211Q1244.83 465.211 1243.32 467.483Q1241.81 469.756 1241.81 474.514Q1241.81 479.272 1243.32 481.555Q1244.83 483.828 1247.45 483.828ZM1269.83 475.676Q1266.65 475.676 1264.63 473.504Q1262.63 471.332 1262.63 467.696Q1262.63 464.049 1264.63 461.877Q1266.65 459.705 1269.83 459.705Q1273.02 459.705 1275 461.877Q1276.99 464.049 1276.99 467.696Q1276.99 471.332 1275 473.504Q1273.02 475.676 1269.83 475.676ZM1287.08 460.038L1292.01 460.038L1272.23 489L1267.3 489L1287.08 460.038ZM1269.83 472.282Q1271.24 472.282 1272.04 471.13Q1272.85 469.968 1272.85 467.696Q1272.85 465.413 1272.04 464.261Q1271.24 463.099 1269.83 463.099Q1268.46 463.099 1267.64 464.281Q1266.81 465.453 1266.81 467.696Q1266.81 469.928 1267.64 471.11Q1268.46 472.282 1269.83 472.282ZM1289.49 489.333Q1287.41 489.333 1285.78 488.364Q1284.15 487.384 1283.23 485.565Q1282.32 483.747 1282.32 481.343Q1282.32 478.949 1283.23 477.131Q1284.15 475.302 1285.78 474.332Q1287.41 473.363 1289.49 473.363Q1292.67 473.363 1294.68 475.534Q1296.69 477.706 1296.69 481.343Q1296.69 484.99 1294.68 487.161Q1292.67 489.333 1289.49 489.333ZM1289.49 485.939Q1290.89 485.939 1291.7 484.757Q1292.51 483.575 1292.51 481.343Q1292.51 479.11 1291.7 477.939Q1290.89 476.757 1289.49 476.757Q1288.12 476.757 1287.29 477.918Q1286.46 479.07 1286.46 481.343Q1286.46 483.626 1287.29 484.788Q1288.12 485.939 1289.49 485.939Z" fill="#009C4F" fill-opacity="1.000000" fill-rule="evenodd"/>
	<path id="Line 8" d="M94.6523 503L82.8306 503" stroke="#000000" stroke-opacity="1.000000" stroke-width="1.182186" stroke-linecap="round"/>
	<path id="Line 9" d="M94.6523 453L82.8306 453" stroke="#000000" stroke-opacity="1.000000" stroke-width="1.182186" stroke-linecap="round"/>
	<path id="Line 10" d="M94.6523 403L82.8306 403" stroke="#000000" stroke-opacity="1.000000" stroke-width="1.182186" stroke-linecap="round"/>
	<path id="Line 11" d="M94.6523 353L82.8306 353" stroke="#000000" stroke-opacity="1.000000" stroke-width="1.182186" stroke-linecap="round"/>
	<path id="Line 12" d="M94.6523 303L82.8306 303" stroke="#000000" stroke-opacity="1.000000" stroke-width="1.182186" stroke-linecap="round"/>
	<path id="Line 13" d="M94.6523 253L82.8306 253" stroke="#000000" stroke-opacity="1.000000" stroke-width="1.182186" stroke-linecap="round"/>
	<path id="Line 14" d="M94.6523 203L82.8306 203" stroke="#000000" stroke-opacity="1.000000" stroke-width="1.182186" stroke-linecap="round"/>
	<path id="Line 15" d="M94.6523 153L82.8306 153" stroke="#000000" stroke-opacity="1.000000" stroke-width="1.182186" stroke-linecap="round"/>
	<path id="Line 16" d="M94.6523 103L82.8306 103" stroke="#000000" stroke-opacity="1.000000" stroke-width="1.182186" stroke-linecap="round"/>
	<path id="головний біль" d="M180.634 597.378L174.389 597.378L174.407 608L172.104 608L172.104 595.401L180.652 595.401L180.634 597.378ZM187.004 608.18Q185.079 608.18 183.532 607.345Q181.985 606.506 181.102 605.021Q180.219 603.535 180.219 601.698Q180.219 599.866 181.102 598.38Q181.985 596.895 183.532 596.06Q185.079 595.221 187.004 595.221Q188.933 595.221 190.48 596.06Q192.027 596.895 192.91 598.372Q193.793 599.848 193.793 601.698Q193.793 603.553 192.91 605.029Q192.027 606.506 190.48 607.345Q188.933 608.18 187.004 608.18ZM187.004 606.128Q188.265 606.128 189.271 605.561Q190.282 604.994 190.858 603.979Q191.433 602.959 191.433 601.698Q191.433 600.441 190.858 599.426Q190.282 598.407 189.271 597.84Q188.265 597.273 187.004 597.273Q185.747 597.273 184.736 597.84Q183.73 598.407 183.154 599.426Q182.578 600.441 182.578 601.698Q182.578 602.959 183.154 603.979Q183.73 604.994 184.736 605.561Q185.747 606.128 187.004 606.128ZM206.789 595.401L206.789 608L204.486 608L204.486 597.378L199.516 597.378L199.406 600.529Q199.318 603.175 198.975 604.823Q198.633 606.471 197.877 607.328Q197.121 608.18 195.789 608.18Q195.323 608.18 194.51 608L194.673 605.965Q194.906 606.04 195.214 606.04Q196.312 606.04 196.769 604.735Q197.231 603.43 197.336 600.622L197.516 595.401L206.789 595.401ZM216.164 608.18Q214.239 608.18 212.692 607.345Q211.145 606.506 210.262 605.021Q209.379 603.535 209.379 601.698Q209.379 599.866 210.262 598.38Q211.145 596.895 212.692 596.06Q214.239 595.221 216.164 595.221Q218.093 595.221 219.64 596.06Q221.187 596.895 222.07 598.372Q222.953 599.848 222.953 601.698Q222.953 603.553 222.07 605.029Q221.187 606.506 219.64 607.345Q218.093 608.18 216.164 608.18ZM216.164 606.128Q217.425 606.128 218.431 605.561Q219.442 604.994 220.018 603.979Q220.593 602.959 220.593 601.698Q220.593 600.441 220.018 599.426Q219.442 598.407 218.431 597.84Q217.425 597.273 216.164 597.273Q214.907 597.273 213.896 597.84Q212.89 598.407 212.314 599.426Q211.738 600.441 211.738 601.698Q211.738 602.959 212.314 603.979Q212.89 604.994 213.896 605.561Q214.907 606.128 216.164 606.128ZM233.843 601.448Q235.048 601.773 235.676 602.555Q236.309 603.337 236.309 604.506Q236.309 606.163 235.083 607.082Q233.861 608 231.536 608L225.564 608L225.564 595.401L231.198 595.401Q233.321 595.401 234.507 596.249Q235.698 597.093 235.698 598.64Q235.698 599.628 235.219 600.349Q234.74 601.07 233.843 601.448ZM227.867 600.784L230.996 600.784Q232.134 600.784 232.727 600.336Q233.321 599.883 233.321 599Q233.321 598.117 232.727 597.66Q232.134 597.198 230.996 597.198L227.867 597.198L227.867 600.784ZM231.466 606.198Q233.949 606.198 233.949 604.326Q233.949 602.494 231.466 602.494L227.867 602.494L227.867 606.198L231.466 606.198ZM250.167 595.401L250.167 608L247.825 608L247.825 602.599L241.312 602.599L241.312 608L238.97 608L238.97 595.401L241.312 595.401L241.312 600.604L247.825 600.604L247.825 595.401L250.167 595.401ZM253.716 595.401L256.019 595.401L256.019 604.348L262.786 595.401L264.962 595.401L264.962 608L262.659 608L262.659 599.07L255.891 608L253.716 608L253.716 595.401ZM268.512 595.401L270.815 595.401L270.815 604.348L277.582 595.401L279.758 595.401L279.758 608L277.455 608L277.455 599.07L270.687 608L268.512 608L268.512 595.401ZM274.106 594.553Q272.489 594.553 271.667 593.889Q270.85 593.221 270.832 591.942L272.467 591.942Q272.489 592.61 272.902 592.971Q273.315 593.331 274.106 593.331Q274.88 593.331 275.319 592.971Q275.763 592.61 275.781 591.942L277.402 591.942Q277.385 593.204 276.545 593.88Q275.71 594.553 274.106 594.553ZM288.276 595.401L298.085 595.401L298.085 597.326L290.579 597.326L290.579 600.424L294.305 600.424Q296.573 600.424 297.751 601.369Q298.929 602.313 298.929 604.093Q298.929 605.965 297.632 606.985Q296.34 608 293.945 608L288.276 608L288.276 595.401ZM293.818 606.198Q295.167 606.198 295.87 605.68Q296.573 605.157 296.573 604.168Q296.573 602.221 293.818 602.221L290.579 602.221L290.579 606.198L293.818 606.198ZM301.506 595.401L303.809 595.401L303.809 608L301.506 608L301.506 595.401ZM317.993 595.401L317.993 608L315.69 608L315.69 597.378L310.72 597.378L310.61 600.529Q310.522 603.175 310.179 604.823Q309.837 606.471 309.081 607.328Q308.325 608.18 306.993 608.18Q306.527 608.18 305.714 608L305.877 605.965Q306.11 606.04 306.418 606.04Q307.516 606.04 307.973 604.735Q308.435 603.43 308.54 600.622L308.72 595.401L317.993 595.401ZM327.35 599.668Q329.622 599.668 330.835 600.683Q332.048 601.698 332.048 603.698Q332.048 605.785 330.716 606.893Q329.385 608 326.972 608L321.558 608L321.558 595.401L323.861 595.401L323.861 599.668L327.35 599.668ZM326.867 606.198Q328.233 606.198 328.972 605.57Q329.71 604.941 329.71 603.733Q329.71 601.448 326.867 601.448L323.861 601.448L323.861 606.198L326.867 606.198Z" fill="#000000" fill-opacity="1.000000" fill-rule="evenodd"/>
	<path id="перебої в роботі серця" d="M534.357 582.401L534.357 595L532.055 595L532.055 584.378L525.52 584.378L525.52 595L523.217 595L523.217 582.401L534.357 582.401ZM547.349 593.04L547.349 595L537.901 595L537.901 582.401L547.099 582.401L547.099 584.361L540.243 584.361L540.243 587.639L546.326 587.639L546.326 589.564L540.243 589.564L540.243 593.04L547.349 593.04ZM555.147 582.401Q556.781 582.401 557.994 582.941Q559.212 583.482 559.858 584.488Q560.508 585.495 560.508 586.883Q560.508 588.25 559.858 589.27Q559.212 590.285 557.994 590.825Q556.781 591.366 555.147 591.366L552.303 591.366L552.303 595L549.961 595L549.961 582.401L555.147 582.401ZM555.037 589.384Q556.566 589.384 557.357 588.738Q558.153 588.087 558.153 586.883Q558.153 585.675 557.357 585.029Q556.566 584.378 555.037 584.378L552.303 584.378L552.303 589.384L555.037 589.384ZM572.171 593.04L572.171 595L562.723 595L562.723 582.401L571.921 582.401L571.921 584.361L565.065 584.361L565.065 587.639L571.148 587.639L571.148 589.564L565.065 589.564L565.065 593.04L572.171 593.04ZM574.805 582.401L584.614 582.401L584.614 584.326L577.108 584.326L577.108 587.424L580.834 587.424Q583.102 587.424 584.28 588.369Q585.458 589.313 585.458 591.093Q585.458 592.965 584.161 593.985Q582.869 595 580.474 595L574.805 595L574.805 582.401ZM580.347 593.198Q581.696 593.198 582.399 592.68Q583.102 592.157 583.102 591.168Q583.102 589.221 580.347 589.221L577.108 589.221L577.108 593.198L580.347 593.198ZM593.845 595.18Q591.92 595.18 590.373 594.345Q588.826 593.506 587.943 592.021Q587.06 590.535 587.06 588.698Q587.06 586.866 587.943 585.38Q588.826 583.895 590.373 583.06Q591.92 582.221 593.845 582.221Q595.774 582.221 597.321 583.06Q598.868 583.895 599.751 585.372Q600.634 586.848 600.634 588.698Q600.634 590.553 599.751 592.029Q598.868 593.506 597.321 594.345Q595.774 595.18 593.845 595.18ZM593.845 593.128Q595.106 593.128 596.112 592.561Q597.123 591.994 597.699 590.979Q598.274 589.959 598.274 588.698Q598.274 587.441 597.699 586.426Q597.123 585.407 596.112 584.84Q595.106 584.273 593.845 584.273Q592.588 584.273 591.577 584.84Q590.571 585.407 589.995 586.426Q589.419 587.441 589.419 588.698Q589.419 589.959 589.995 590.979Q590.571 591.994 591.577 592.561Q592.588 593.128 593.845 593.128ZM603.153 582.401L605.495 582.401L605.495 595L603.153 595L603.153 582.401ZM602.577 581.175Q602.107 581.175 601.799 580.872Q601.496 580.564 601.496 580.098Q601.496 579.61 601.799 579.307Q602.107 579 602.577 579Q603.043 579 603.351 579.307Q603.658 579.61 603.658 580.098Q603.658 580.564 603.351 580.872Q603.043 581.175 602.577 581.175ZM606.071 581.175Q605.601 581.175 605.293 580.872Q604.99 580.564 604.99 580.098Q604.99 579.61 605.293 579.307Q605.601 579 606.071 579Q606.537 579 606.84 579.307Q607.148 579.61 607.148 580.098Q607.148 580.564 606.84 580.872Q606.537 581.175 606.071 581.175ZM622.234 588.448Q623.439 588.773 624.067 589.555Q624.7 590.337 624.7 591.506Q624.7 593.163 623.474 594.082Q622.252 595 619.927 595L613.955 595L613.955 582.401L619.589 582.401Q621.712 582.401 622.898 583.249Q624.089 584.093 624.089 585.64Q624.089 586.628 623.61 587.349Q623.131 588.07 622.234 588.448ZM616.258 587.784L619.387 587.784Q620.525 587.784 621.118 587.336Q621.712 586.883 621.712 586Q621.712 585.117 621.118 584.66Q620.525 584.198 619.387 584.198L616.258 584.198L616.258 587.784ZM619.857 593.198Q622.34 593.198 622.34 591.326Q622.34 589.494 619.857 589.494L616.258 589.494L616.258 593.198L619.857 593.198ZM510.75 607.401Q512.385 607.401 513.597 607.941Q514.815 608.482 515.461 609.488Q516.111 610.495 516.111 611.883Q516.111 613.25 515.461 614.27Q514.815 615.285 513.597 615.825Q512.385 616.366 510.75 616.366L507.906 616.366L507.906 620L505.564 620L505.564 607.401L510.75 607.401ZM510.64 614.384Q512.169 614.384 512.96 613.738Q513.756 613.087 513.756 611.883Q513.756 610.675 512.96 610.029Q512.169 609.378 510.64 609.378L507.906 609.378L507.906 614.384L510.64 614.384ZM524.338 620.18Q522.413 620.18 520.866 619.345Q519.319 618.506 518.436 617.021Q517.553 615.535 517.553 613.698Q517.553 611.866 518.436 610.38Q519.319 608.895 520.866 608.06Q522.413 607.221 524.338 607.221Q526.267 607.221 527.814 608.06Q529.361 608.895 530.244 610.372Q531.127 611.848 531.127 613.698Q531.127 615.553 530.244 617.029Q529.361 618.506 527.814 619.345Q526.267 620.18 524.338 620.18ZM524.338 618.128Q525.599 618.128 526.605 617.561Q527.616 616.994 528.192 615.979Q528.767 614.959 528.767 613.698Q528.767 612.441 528.192 611.426Q527.616 610.407 526.605 609.84Q525.599 609.273 524.338 609.273Q523.081 609.273 522.07 609.84Q521.064 610.407 520.488 611.426Q519.912 612.441 519.912 613.698Q519.912 614.959 520.488 615.979Q521.064 616.994 522.07 617.561Q523.081 618.128 524.338 618.128ZM533.738 607.401L543.547 607.401L543.547 609.326L536.041 609.326L536.041 612.424L539.767 612.424Q542.035 612.424 543.213 613.369Q544.391 614.313 544.391 616.093Q544.391 617.965 543.094 618.985Q541.802 620 539.407 620L533.738 620L533.738 607.401ZM539.28 618.198Q540.629 618.198 541.332 617.68Q542.035 617.157 542.035 616.168Q542.035 614.221 539.28 614.221L536.041 614.221L536.041 618.198L539.28 618.198ZM552.778 620.18Q550.853 620.18 549.306 619.345Q547.759 618.506 546.876 617.021Q545.993 615.535 545.993 613.698Q545.993 611.866 546.876 610.38Q547.759 608.895 549.306 608.06Q550.853 607.221 552.778 607.221Q554.707 607.221 556.254 608.06Q557.801 608.895 558.684 610.372Q559.567 611.848 559.567 613.698Q559.567 615.553 558.684 617.029Q557.801 618.506 556.254 619.345Q554.707 620.18 552.778 620.18ZM552.778 618.128Q554.039 618.128 555.045 617.561Q556.056 616.994 556.632 615.979Q557.207 614.959 557.207 613.698Q557.207 612.441 556.632 611.426Q556.056 610.407 555.045 609.84Q554.039 609.273 552.778 609.273Q551.521 609.273 550.51 609.84Q549.504 610.407 548.928 611.426Q548.352 612.441 548.352 613.698Q548.352 614.959 548.928 615.979Q549.504 616.994 550.51 617.561Q551.521 618.128 552.778 618.128ZM571.121 609.378L566.946 609.378L566.946 620L564.626 620L564.626 609.378L560.464 609.378L560.464 607.401L571.121 607.401L571.121 609.378ZM573.158 607.401L575.461 607.401L575.461 620L573.158 620L573.158 607.401ZM589.769 620.18Q587.861 620.18 586.323 619.345Q584.785 618.506 583.911 617.029Q583.036 615.553 583.036 613.698Q583.036 611.848 583.919 610.372Q584.803 608.895 586.341 608.06Q587.879 607.221 589.786 607.221Q591.333 607.221 592.612 607.761Q593.891 608.302 594.774 609.326L593.262 610.75Q591.891 609.273 589.896 609.273Q588.6 609.273 587.571 609.84Q586.547 610.407 585.972 611.417Q585.396 612.424 585.396 613.698Q585.396 614.977 585.972 615.988Q586.547 616.994 587.571 617.561Q588.6 618.128 589.896 618.128Q591.891 618.128 593.262 616.634L594.774 618.075Q593.891 619.099 592.603 619.64Q591.315 620.18 589.769 620.18ZM606.398 618.04L606.398 620L596.95 620L596.95 607.401L606.148 607.401L606.148 609.361L599.292 609.361L599.292 612.639L605.375 612.639L605.375 614.564L599.292 614.564L599.292 618.04L606.398 618.04ZM614.196 607.401Q615.831 607.401 617.043 607.941Q618.261 608.482 618.907 609.488Q619.557 610.495 619.557 611.883Q619.557 613.25 618.907 614.27Q618.261 615.285 617.043 615.825Q615.831 616.366 614.196 616.366L611.352 616.366L611.352 620L609.01 620L609.01 607.401L614.196 607.401ZM614.086 614.384Q615.615 614.384 616.406 613.738Q617.202 613.087 617.202 611.883Q617.202 610.675 616.406 610.029Q615.615 609.378 614.086 609.378L611.352 609.378L611.352 614.384L614.086 614.384ZM634.644 618.018L634.644 622.773L632.486 622.773L632.486 620L621.794 620L621.794 607.401L624.097 607.401L624.097 618.018L630.451 618.018L630.451 607.401L632.772 607.401L632.772 618.018L634.644 618.018ZM646.417 607.401L646.417 620L644.11 620L644.11 616.489L640.999 616.489L640.748 616.489L638.406 620L635.94 620L638.639 616.111Q637.325 615.627 636.613 614.573Q635.905 613.518 635.905 612.024Q635.905 610.587 636.551 609.545Q637.202 608.5 638.388 607.95Q639.575 607.401 641.179 607.401L646.417 607.401ZM641.249 609.378Q639.812 609.378 639.043 610.046Q638.278 610.71 638.278 611.989Q638.278 613.232 639.017 613.909Q639.755 614.582 641.161 614.582L644.11 614.582L644.11 609.378L641.249 609.378Z" fill="#000000" fill-opacity="1.000000" fill-rule="evenodd"/>
	<path id="підвищена ВТОМЛЮВАНІСТЬ" d="M827.241 582.401L827.241 595L824.939 595L824.939 584.378L818.404 584.378L818.404 595L816.101 595L816.101 582.401L827.241 582.401ZM830.807 582.401L833.11 582.401L833.11 595L830.807 595L830.807 582.401ZM849.021 593.018L849.021 597.681L846.863 597.681L846.863 595L837.195 595L837.195 597.681L835.016 597.681L835.033 593.018L835.574 593.018Q836.765 592.965 837.239 591.265Q837.718 589.564 837.824 586.396L837.969 582.401L847.202 582.401L847.202 593.018L849.021 593.018ZM839.876 586.611Q839.788 589.059 839.48 590.689Q839.177 592.319 838.509 593.018L844.899 593.018L844.899 584.378L839.968 584.378L839.876 586.611ZM859.516 588.448Q860.721 588.773 861.349 589.555Q861.982 590.337 861.982 591.506Q861.982 593.163 860.756 594.082Q859.534 595 857.209 595L851.237 595L851.237 582.401L856.871 582.401Q858.994 582.401 860.18 583.249Q861.371 584.093 861.371 585.64Q861.371 586.628 860.892 587.349Q860.413 588.07 859.516 588.448ZM853.54 587.784L856.669 587.784Q857.807 587.784 858.4 587.336Q858.994 586.883 858.994 586Q858.994 585.117 858.4 584.66Q857.807 584.198 856.669 584.198L853.54 584.198L853.54 587.784ZM857.139 593.198Q859.622 593.198 859.622 591.326Q859.622 589.494 857.139 589.494L853.54 589.494L853.54 593.198L857.139 593.198ZM864.665 582.401L866.968 582.401L866.968 591.348L873.735 582.401L875.911 582.401L875.911 595L873.608 595L873.608 586.07L866.84 595L864.665 595L864.665 582.401ZM895.642 582.401L895.642 595L879.461 595L879.461 582.401L881.764 582.401L881.764 593.018L886.409 593.018L886.409 582.401L888.712 582.401L888.712 593.018L893.339 593.018L893.339 582.401L895.642 582.401ZM897.457 593.018L897.457 597.681L895.299 597.681L895.299 595L893.282 595L893.282 593.018L897.457 593.018ZM909.155 593.04L909.155 595L899.707 595L899.707 582.401L908.905 582.401L908.905 584.361L902.049 584.361L902.049 587.639L908.132 587.639L908.132 589.564L902.049 589.564L902.049 593.04L909.155 593.04ZM922.964 582.401L922.964 595L920.622 595L920.622 589.599L914.109 589.599L914.109 595L911.767 595L911.767 582.401L914.109 582.401L914.109 587.604L920.622 587.604L920.622 582.401L922.964 582.401ZM934.845 592.082L928.543 592.082L927.3 595L924.892 595L930.561 582.401L932.863 582.401L938.55 595L936.102 595L934.845 592.082ZM934.067 590.25L931.694 584.739L929.334 590.25L934.067 590.25ZM801.178 613.448Q802.383 613.773 803.011 614.555Q803.644 615.337 803.644 616.506Q803.644 618.163 802.418 619.082Q801.196 620 798.871 620L792.899 620L792.899 607.401L798.533 607.401Q800.656 607.401 801.842 608.249Q803.033 609.093 803.033 610.64Q803.033 611.628 802.554 612.349Q802.075 613.07 801.178 613.448ZM795.202 612.784L798.331 612.784Q799.469 612.784 800.062 612.336Q800.656 611.883 800.656 611Q800.656 610.117 800.062 609.66Q799.469 609.198 798.331 609.198L795.202 609.198L795.202 612.784ZM798.801 618.198Q801.284 618.198 801.284 616.326Q801.284 614.494 798.801 614.494L795.202 614.494L795.202 618.198L798.801 618.198ZM815.27 609.378L811.095 609.378L811.095 620L808.775 620L808.775 609.378L804.614 609.378L804.614 607.401L815.27 607.401L815.27 609.378ZM822.937 620.18Q821.012 620.18 819.465 619.345Q817.918 618.506 817.035 617.021Q816.152 615.535 816.152 613.698Q816.152 611.866 817.035 610.38Q817.918 608.895 819.465 608.06Q821.012 607.221 822.937 607.221Q824.866 607.221 826.413 608.06Q827.96 608.895 828.843 610.372Q829.726 611.848 829.726 613.698Q829.726 615.553 828.843 617.029Q827.96 618.506 826.413 619.345Q824.866 620.18 822.937 620.18ZM822.937 618.128Q824.198 618.128 825.204 617.561Q826.215 616.994 826.791 615.979Q827.366 614.959 827.366 613.698Q827.366 612.441 826.791 611.426Q826.215 610.407 825.204 609.84Q824.198 609.273 822.937 609.273Q821.68 609.273 820.669 609.84Q819.663 610.407 819.087 611.426Q818.511 612.441 818.511 613.698Q818.511 614.959 819.087 615.979Q819.663 616.994 820.669 617.561Q821.68 618.128 822.937 618.128ZM843.89 620L843.873 611.646L839.733 618.559L838.687 618.559L834.548 611.756L834.548 620L832.337 620L832.337 607.401L834.262 607.401L839.245 615.733L844.18 607.401L846.088 607.401L846.123 620L843.89 620ZM860.29 607.401L860.29 620L857.987 620L857.987 609.378L853.017 609.378L852.907 612.529Q852.819 615.175 852.476 616.823Q852.134 618.471 851.378 619.328Q850.622 620.18 849.29 620.18Q848.824 620.18 848.011 620L848.174 617.965Q848.407 618.04 848.715 618.04Q849.813 618.04 850.27 616.735Q850.732 615.43 850.837 612.622L851.017 607.401L860.29 607.401ZM874.617 607.221Q876.472 607.221 877.957 608.06Q879.443 608.895 880.286 610.372Q881.134 611.848 881.134 613.698Q881.134 615.553 880.286 617.029Q879.443 618.506 877.957 619.345Q876.472 620.18 874.617 620.18Q872.925 620.18 871.528 619.477Q870.135 618.774 869.243 617.517Q868.355 616.256 868.135 614.652L866.158 614.652L866.158 620L863.855 620L863.855 607.401L866.158 607.401L866.158 612.564L868.175 612.564Q868.425 611 869.313 609.787Q870.205 608.57 871.581 607.897Q872.961 607.221 874.617 607.221ZM874.617 618.128Q875.786 618.128 876.74 617.57Q877.694 617.012 878.234 616.005Q878.775 614.995 878.775 613.698Q878.775 612.402 878.234 611.396Q877.694 610.389 876.74 609.831Q875.786 609.273 874.617 609.273Q873.448 609.273 872.504 609.831Q871.559 610.389 871.009 611.396Q870.46 612.402 870.46 613.698Q870.46 614.995 871.009 616.005Q871.559 617.012 872.504 617.57Q873.448 618.128 874.617 618.128ZM892.042 613.448Q893.247 613.773 893.875 614.555Q894.508 615.337 894.508 616.506Q894.508 618.163 893.282 619.082Q892.06 620 889.735 620L883.763 620L883.763 607.401L889.397 607.401Q891.52 607.401 892.706 608.249Q893.897 609.093 893.897 610.64Q893.897 611.628 893.418 612.349Q892.939 613.07 892.042 613.448ZM886.066 612.784L889.195 612.784Q890.333 612.784 890.926 612.336Q891.52 611.883 891.52 611Q891.52 610.117 890.926 609.66Q890.333 609.198 889.195 609.198L886.066 609.198L886.066 612.784ZM889.665 618.198Q892.148 618.198 892.148 616.326Q892.148 614.494 889.665 614.494L886.066 614.494L886.066 618.198L889.665 618.198ZM905.523 617.082L899.221 617.082L897.978 620L895.57 620L901.239 607.401L903.541 607.401L909.228 620L906.78 620L905.523 617.082ZM904.745 615.25L902.372 609.739L900.012 615.25L904.745 615.25ZM922.352 607.401L922.352 620L920.01 620L920.01 614.599L913.497 614.599L913.497 620L911.155 620L911.155 607.401L913.497 607.401L913.497 612.604L920.01 612.604L920.01 607.401L922.352 607.401ZM925.901 607.401L928.204 607.401L928.204 620L925.901 620L925.901 607.401ZM937.544 620.18Q935.636 620.18 934.098 619.345Q932.56 618.506 931.686 617.029Q930.811 615.553 930.811 613.698Q930.811 611.848 931.694 610.372Q932.578 608.895 934.116 608.06Q935.654 607.221 937.561 607.221Q939.108 607.221 940.387 607.761Q941.666 608.302 942.549 609.326L941.037 610.75Q939.666 609.273 937.671 609.273Q936.375 609.273 935.346 609.84Q934.322 610.407 933.747 611.417Q933.171 612.424 933.171 613.698Q933.171 614.977 933.747 615.988Q934.322 616.994 935.346 617.561Q936.375 618.128 937.671 618.128Q939.666 618.128 941.037 616.634L942.549 618.075Q941.666 619.099 940.378 619.64Q939.09 620.18 937.544 620.18ZM953.726 609.378L949.551 609.378L949.551 620L947.231 620L947.231 609.378L943.069 609.378L943.069 607.401L953.726 607.401L953.726 609.378ZM961.555 611.668Q963.827 611.668 965.04 612.683Q966.253 613.698 966.253 615.698Q966.253 617.785 964.921 618.893Q963.59 620 961.177 620L955.763 620L955.763 607.401L958.066 607.401L958.066 611.668L961.555 611.668ZM961.072 618.198Q962.438 618.198 963.177 617.57Q963.915 616.941 963.915 615.733Q963.915 613.448 961.072 613.448L958.066 613.448L958.066 618.198L961.072 618.198Z" fill="#000000" fill-opacity="1.000000" fill-rule="evenodd"/>
	<path id="емоційна лабільність" d="M1134.23 593.04L1134.23 595L1124.78 595L1124.78 582.401L1133.98 582.401L1133.98 584.361L1127.13 584.361L1127.13 587.639L1133.21 587.639L1133.21 589.564L1127.13 589.564L1127.13 593.04L1134.23 593.04ZM1148.42 595L1148.4 586.646L1144.26 593.559L1143.22 593.559L1139.08 586.756L1139.08 595L1136.87 595L1136.87 582.401L1138.79 582.401L1143.77 590.733L1148.71 582.401L1150.62 582.401L1150.65 595L1148.42 595ZM1160.01 595.18Q1158.08 595.18 1156.54 594.345Q1154.99 593.506 1154.11 592.021Q1153.22 590.535 1153.22 588.698Q1153.22 586.866 1154.11 585.38Q1154.99 583.895 1156.54 583.06Q1158.08 582.221 1160.01 582.221Q1161.94 582.221 1163.48 583.06Q1165.03 583.895 1165.92 585.372Q1166.8 586.848 1166.8 588.698Q1166.8 590.553 1165.92 592.029Q1165.03 593.506 1163.48 594.345Q1161.94 595.18 1160.01 595.18ZM1160.01 593.128Q1161.27 593.128 1162.28 592.561Q1163.29 591.994 1163.86 590.979Q1164.44 589.959 1164.44 588.698Q1164.44 587.441 1163.86 586.426Q1163.29 585.407 1162.28 584.84Q1161.27 584.273 1160.01 584.273Q1158.75 584.273 1157.74 584.84Q1156.73 585.407 1156.16 586.426Q1155.58 587.441 1155.58 588.698Q1155.58 589.959 1156.16 590.979Q1156.73 591.994 1157.74 592.561Q1158.75 593.128 1160.01 593.128ZM1182.26 593.018L1182.26 597.773L1180.1 597.773L1180.1 595L1169.41 595L1169.41 582.401L1171.71 582.401L1171.71 593.018L1178.07 593.018L1178.07 582.401L1180.39 582.401L1180.39 593.018L1182.26 593.018ZM1184.42 582.401L1186.72 582.401L1186.72 595L1184.42 595L1184.42 582.401ZM1190.29 582.401L1192.59 582.401L1192.59 591.348L1199.36 582.401L1201.53 582.401L1201.53 595L1199.23 595L1199.23 586.07L1192.46 595L1190.29 595L1190.29 582.401ZM1195.88 581.553Q1194.27 581.553 1193.44 580.889Q1192.63 580.221 1192.61 578.942L1194.24 578.942Q1194.27 579.61 1194.68 579.971Q1195.09 580.331 1195.88 580.331Q1196.66 580.331 1197.1 579.971Q1197.54 579.61 1197.56 578.942L1199.18 578.942Q1199.16 580.204 1198.32 580.88Q1197.49 581.553 1195.88 581.553ZM1216.26 582.401L1216.26 595L1213.92 595L1213.92 589.599L1207.41 589.599L1207.41 595L1205.06 595L1205.06 582.401L1207.41 582.401L1207.41 587.604L1213.92 587.604L1213.92 582.401L1216.26 582.401ZM1228.14 592.082L1221.84 592.082L1220.6 595L1218.19 595L1223.86 582.401L1226.16 582.401L1231.85 595L1229.4 595L1228.14 592.082ZM1227.36 590.25L1224.99 584.739L1222.63 590.25L1227.36 590.25ZM1126.54 607.401L1126.54 620L1124.24 620L1124.24 609.378L1119.27 609.378L1119.16 612.529Q1119.07 615.175 1118.73 616.823Q1118.38 618.471 1117.63 619.328Q1116.87 620.18 1115.54 620.18Q1115.08 620.18 1114.26 620L1114.43 617.965Q1114.66 618.04 1114.97 618.04Q1116.06 618.04 1116.52 616.735Q1116.98 615.43 1117.09 612.622L1117.27 607.401L1126.54 607.401ZM1138.44 617.082L1132.14 617.082L1130.89 620L1128.48 620L1134.15 607.401L1136.46 607.401L1142.14 620L1139.7 620L1138.44 617.082ZM1137.66 615.25L1135.29 609.739L1132.93 615.25L1137.66 615.25ZM1144.09 607.401L1153.9 607.401L1153.9 609.326L1146.39 609.326L1146.39 612.424L1150.12 612.424Q1152.39 612.424 1153.57 613.369Q1154.74 614.313 1154.74 616.093Q1154.74 617.965 1153.45 618.985Q1152.16 620 1149.76 620L1144.09 620L1144.09 607.401ZM1149.63 618.198Q1150.98 618.198 1151.69 617.68Q1152.39 617.157 1152.39 616.168Q1152.39 614.221 1149.63 614.221L1146.39 614.221L1146.39 618.198L1149.63 618.198ZM1157.32 607.401L1159.62 607.401L1159.62 620L1157.32 620L1157.32 607.401ZM1173.81 607.401L1173.81 620L1171.51 620L1171.51 609.378L1166.54 609.378L1166.43 612.529Q1166.34 615.175 1166 616.823Q1165.65 618.471 1164.9 619.328Q1164.14 620.18 1162.81 620.18Q1162.34 620.18 1161.53 620L1161.69 617.965Q1161.93 618.04 1162.23 618.04Q1163.33 618.04 1163.79 616.735Q1164.25 615.43 1164.36 612.622L1164.54 607.401L1173.81 607.401ZM1183.17 611.668Q1185.44 611.668 1186.65 612.683Q1187.86 613.698 1187.86 615.698Q1187.86 617.785 1186.53 618.893Q1185.2 620 1182.79 620L1177.37 620L1177.37 607.401L1179.68 607.401L1179.68 611.668L1183.17 611.668ZM1182.68 618.198Q1184.05 618.198 1184.79 617.57Q1185.53 616.941 1185.53 615.733Q1185.53 613.448 1182.68 613.448L1179.68 613.448L1179.68 618.198L1182.68 618.198ZM1201.46 607.401L1201.46 620L1199.11 620L1199.11 614.599L1192.6 614.599L1192.6 620L1190.26 620L1190.26 607.401L1192.6 607.401L1192.6 612.604L1199.11 612.604L1199.11 607.401L1201.46 607.401ZM1205 607.401L1207.31 607.401L1207.31 620L1205 620L1205 607.401ZM1216.65 620.18Q1214.74 620.18 1213.2 619.345Q1211.66 618.506 1210.79 617.029Q1209.91 615.553 1209.91 613.698Q1209.91 611.848 1210.8 610.372Q1211.68 608.895 1213.22 608.06Q1214.76 607.221 1216.66 607.221Q1218.21 607.221 1219.49 607.761Q1220.77 608.302 1221.65 609.326L1220.14 610.75Q1218.77 609.273 1216.77 609.273Q1215.48 609.273 1214.45 609.84Q1213.43 610.407 1212.85 611.417Q1212.27 612.424 1212.27 613.698Q1212.27 614.977 1212.85 615.988Q1213.43 616.994 1214.45 617.561Q1215.48 618.128 1216.77 618.128Q1218.77 618.128 1220.14 616.634L1221.65 618.075Q1220.77 619.099 1219.48 619.64Q1218.19 620.18 1216.65 620.18ZM1232.83 609.378L1228.65 609.378L1228.65 620L1226.33 620L1226.33 609.378L1222.17 609.378L1222.17 607.401L1232.83 607.401L1232.83 609.378ZM1240.66 611.668Q1242.93 611.668 1244.14 612.683Q1245.36 613.698 1245.36 615.698Q1245.36 617.785 1244.02 618.893Q1242.69 620 1240.28 620L1234.87 620L1234.87 607.401L1237.17 607.401L1237.17 611.668L1240.66 611.668ZM1240.17 618.198Q1241.54 618.198 1242.28 617.57Q1243.02 616.941 1243.02 615.733Q1243.02 613.448 1240.17 613.448L1237.17 613.448L1237.17 618.198L1240.17 618.198Z" fill="#000000" fill-opacity="1.000000" fill-rule="evenodd"/>
	<path id="0" d="M66.287 561.115Q64.7539 561.115 63.5532 560.303Q62.3526 559.485 61.6784 557.966Q61.0088 556.442 61.0088 554.378Q61.0088 552.318 61.6784 550.794Q62.3526 549.271 63.5532 548.458Q64.7539 547.645 66.287 547.645Q67.8202 547.645 69.0209 548.458Q70.2215 549.271 70.9003 550.794Q71.5838 552.318 71.5838 554.378Q71.5838 556.442 70.9003 557.966Q70.2215 559.485 69.0209 560.303Q67.8202 561.115 66.287 561.115ZM66.287 559.864Q67.4415 559.864 68.3189 559.222Q69.201 558.58 69.6905 557.352Q70.1846 556.119 70.1846 554.378Q70.1846 552.642 69.6905 551.413Q69.201 550.18 68.3189 549.538Q67.4415 548.896 66.287 548.896Q65.1326 548.896 64.2505 549.538Q63.3731 550.18 62.879 551.413Q62.3895 552.642 62.3895 554.378Q62.3895 556.119 62.879 557.352Q63.3731 558.58 64.2505 559.222Q65.1326 559.864 66.287 559.864Z" fill="#000000" fill-opacity="1.000000" fill-rule="evenodd"/>
	<path id="10%" d="M52.6243 494.76L52.6243 508L51.262 508L51.262 495.97L48.1403 495.97L48.1403 494.76L52.6243 494.76ZM61.0597 508.115Q59.5265 508.115 58.3259 507.303Q57.1252 506.485 56.451 504.966Q55.7814 503.442 55.7814 501.378Q55.7814 499.318 56.451 497.794Q57.1252 496.271 58.3259 495.458Q59.5265 494.645 61.0597 494.645Q62.5928 494.645 63.7935 495.458Q64.9941 496.271 65.673 497.794Q66.3564 499.318 66.3564 501.378Q66.3564 503.442 65.673 504.966Q64.9941 506.485 63.7935 507.303Q62.5928 508.115 61.0597 508.115ZM61.0597 506.864Q62.2141 506.864 63.0915 506.222Q63.9736 505.58 64.4631 504.352Q64.9572 503.119 64.9572 501.378Q64.9572 499.642 64.4631 498.413Q63.9736 497.18 63.0915 496.538Q62.2141 495.896 61.0597 495.896Q59.9052 495.896 59.0232 496.538Q58.1458 497.18 57.6516 498.413Q57.1621 499.642 57.1621 501.378Q57.1621 503.119 57.6516 504.352Q58.1458 505.58 59.0232 506.222Q59.9052 506.864 61.0597 506.864ZM71.1016 501.854Q69.7577 501.854 68.9358 500.861Q68.1138 499.868 68.1138 498.261Q68.1138 496.649 68.9358 495.656Q69.7577 494.663 71.1016 494.663Q72.4269 494.663 73.2581 495.647Q74.0893 496.631 74.0893 498.261Q74.0893 499.886 73.2581 500.87Q72.4269 501.854 71.1016 501.854ZM79.1229 494.76L80.2404 494.76L71.1985 508L70.081 508L79.1229 494.76ZM71.1016 500.999Q72.0298 500.999 72.5885 500.274Q73.1473 499.545 73.1473 498.261Q73.1473 496.972 72.5885 496.247Q72.0298 495.518 71.1016 495.518Q70.1549 495.518 69.6053 496.257Q69.0604 496.991 69.0604 498.261Q69.0604 499.526 69.6053 500.265Q70.1549 500.999 71.1016 500.999ZM79.2152 508.092Q77.8945 508.092 77.0587 507.1Q76.2274 506.107 76.2274 504.5Q76.2274 502.893 77.0587 501.9Q77.8945 500.907 79.2152 500.907Q80.559 500.907 81.381 501.9Q82.2076 502.893 82.2076 504.5Q82.2076 506.107 81.381 507.1Q80.559 508.092 79.2152 508.092ZM79.2152 507.243Q80.1619 507.243 80.7114 506.508Q81.261 505.77 81.261 504.5Q81.261 503.234 80.7114 502.495Q80.1619 501.757 79.2152 501.757Q78.2916 501.757 77.7329 502.486Q77.1741 503.216 77.1741 504.5Q77.1741 505.788 77.7329 506.518Q78.2916 507.243 79.2152 507.243Z" fill="#000000" fill-opacity="1.000000" fill-rule="evenodd"/>
	<path id="20%" d="M54.1552 456.79L54.1552 458L44.8686 458L44.8686 457.035L50.3731 451.646Q51.4122 450.625 51.7816 449.877Q52.151 449.129 52.151 448.372Q52.151 447.199 51.3475 446.548Q50.544 445.896 49.0478 445.896Q46.7204 445.896 45.4366 447.37L44.4714 446.538Q45.2472 445.629 46.4479 445.139Q47.6486 444.645 49.1632 444.645Q51.1859 444.645 52.3681 445.601Q53.5503 446.557 53.5503 448.219Q53.5503 449.244 53.0931 450.191Q52.6405 451.133 51.3752 452.362L46.8728 456.79L54.1552 456.79ZM61.0597 458.115Q59.5265 458.115 58.3259 457.303Q57.1252 456.485 56.451 454.966Q55.7814 453.442 55.7814 451.378Q55.7814 449.318 56.451 447.794Q57.1252 446.271 58.3259 445.458Q59.5265 444.645 61.0597 444.645Q62.5928 444.645 63.7935 445.458Q64.9941 446.271 65.673 447.794Q66.3564 449.318 66.3564 451.378Q66.3564 453.442 65.673 454.966Q64.9941 456.485 63.7935 457.303Q62.5928 458.115 61.0597 458.115ZM61.0597 456.864Q62.2141 456.864 63.0915 456.222Q63.9736 455.58 64.4631 454.352Q64.9572 453.119 64.9572 451.378Q64.9572 449.642 64.4631 448.413Q63.9736 447.18 63.0915 446.538Q62.2141 445.896 61.0597 445.896Q59.9052 445.896 59.0232 446.538Q58.1458 447.18 57.6516 448.413Q57.1621 449.642 57.1621 451.378Q57.1621 453.119 57.6516 454.352Q58.1458 455.58 59.0232 456.222Q59.9052 456.864 61.0597 456.864ZM71.1016 451.854Q69.7577 451.854 68.9358 450.861Q68.1138 449.868 68.1138 448.261Q68.1138 446.649 68.9358 445.656Q69.7577 444.663 71.1016 444.663Q72.4269 444.663 73.2581 445.647Q74.0893 446.631 74.0893 448.261Q74.0893 449.886 73.2581 450.87Q72.4269 451.854 71.1016 451.854ZM79.1229 444.76L80.2404 444.76L71.1985 458L70.081 458L79.1229 444.76ZM71.1016 450.999Q72.0298 450.999 72.5885 450.274Q73.1473 449.545 73.1473 448.261Q73.1473 446.972 72.5885 446.247Q72.0298 445.518 71.1016 445.518Q70.1549 445.518 69.6053 446.257Q69.0604 446.991 69.0604 448.261Q69.0604 449.526 69.6053 450.265Q70.1549 450.999 71.1016 450.999ZM79.2152 458.092Q77.8945 458.092 77.0587 457.1Q76.2274 456.107 76.2274 454.5Q76.2274 452.893 77.0587 451.9Q77.8945 450.907 79.2152 450.907Q80.559 450.907 81.381 451.9Q82.2076 452.893 82.2076 454.5Q82.2076 456.107 81.381 457.1Q80.559 458.092 79.2152 458.092ZM79.2152 457.243Q80.1619 457.243 80.7114 456.508Q81.261 455.77 81.261 454.5Q81.261 453.234 80.7114 452.495Q80.1619 451.757 79.2152 451.757Q78.2916 451.757 77.7329 452.486Q77.1741 453.216 77.1741 454.5Q77.1741 455.788 77.7329 456.518Q78.2916 457.243 79.2152 457.243Z" fill="#000000" fill-opacity="1.000000" fill-rule="evenodd"/>
	<path id="30%" d="M49.6158 400.436Q51.6939 400.547 52.7791 401.558Q53.8689 402.569 53.8689 404.199Q53.8689 405.331 53.3194 406.213Q52.7745 407.09 51.6939 407.603Q50.6179 408.115 49.0663 408.115Q47.6301 408.115 46.3509 407.654Q45.0764 407.187 44.3006 406.411L44.9609 405.331Q45.6259 406.014 46.7204 406.439Q47.8194 406.864 49.0663 406.864Q50.6918 406.864 51.5784 406.157Q52.4697 405.446 52.4697 404.199Q52.4697 402.966 51.5784 402.269Q50.6918 401.567 48.8954 401.567L47.9487 401.567L47.9487 400.565L51.62 395.97L44.8501 395.97L44.8501 394.76L53.3609 394.76L53.3609 395.726L49.6158 400.436ZM61.0597 408.115Q59.5265 408.115 58.3259 407.303Q57.1252 406.485 56.451 404.966Q55.7814 403.442 55.7814 401.378Q55.7814 399.318 56.451 397.794Q57.1252 396.271 58.3259 395.458Q59.5265 394.645 61.0597 394.645Q62.5928 394.645 63.7935 395.458Q64.9941 396.271 65.673 397.794Q66.3564 399.318 66.3564 401.378Q66.3564 403.442 65.673 404.966Q64.9941 406.485 63.7935 407.303Q62.5928 408.115 61.0597 408.115ZM61.0597 406.864Q62.2141 406.864 63.0915 406.222Q63.9736 405.58 64.4631 404.352Q64.9572 403.119 64.9572 401.378Q64.9572 399.642 64.4631 398.413Q63.9736 397.18 63.0915 396.538Q62.2141 395.896 61.0597 395.896Q59.9052 395.896 59.0232 396.538Q58.1458 397.18 57.6516 398.413Q57.1621 399.642 57.1621 401.378Q57.1621 403.119 57.6516 404.352Q58.1458 405.58 59.0232 406.222Q59.9052 406.864 61.0597 406.864ZM71.1016 401.854Q69.7577 401.854 68.9358 400.861Q68.1138 399.868 68.1138 398.261Q68.1138 396.649 68.9358 395.656Q69.7577 394.663 71.1016 394.663Q72.4269 394.663 73.2581 395.647Q74.0893 396.631 74.0893 398.261Q74.0893 399.886 73.2581 400.87Q72.4269 401.854 71.1016 401.854ZM79.1229 394.76L80.2404 394.76L71.1985 408L70.081 408L79.1229 394.76ZM71.1016 400.999Q72.0298 400.999 72.5885 400.274Q73.1473 399.545 73.1473 398.261Q73.1473 396.972 72.5885 396.247Q72.0298 395.518 71.1016 395.518Q70.1549 395.518 69.6053 396.257Q69.0604 396.991 69.0604 398.261Q69.0604 399.526 69.6053 400.265Q70.1549 400.999 71.1016 400.999ZM79.2152 408.092Q77.8945 408.092 77.0587 407.1Q76.2274 406.107 76.2274 404.5Q76.2274 402.893 77.0587 401.9Q77.8945 400.907 79.2152 400.907Q80.559 400.907 81.381 401.9Q82.2076 402.893 82.2076 404.5Q82.2076 406.107 81.381 407.1Q80.559 408.092 79.2152 408.092ZM79.2152 407.243Q80.1619 407.243 80.7114 406.508Q81.261 405.77 81.261 404.5Q81.261 403.234 80.7114 402.495Q80.1619 401.757 79.2152 401.757Q78.2916 401.757 77.7329 402.486Q77.1741 403.216 77.1741 404.5Q77.1741 405.788 77.7329 406.518Q78.2916 407.243 79.2152 407.243Z" fill="#000000" fill-opacity="1.000000" fill-rule="evenodd"/>
	<path id="40%" d="M54.5324 354.518L51.8864 354.518L51.8864 358L50.5241 358L50.5241 354.518L43.0523 354.518L43.0523 353.534L50.0669 344.76L51.5816 344.76L44.8117 353.308L50.561 353.308L50.561 350.247L51.8864 350.247L51.8864 353.308L54.5324 353.308L54.5324 354.518ZM61.0597 358.115Q59.5265 358.115 58.3259 357.303Q57.1252 356.485 56.451 354.966Q55.7814 353.442 55.7814 351.378Q55.7814 349.318 56.451 347.794Q57.1252 346.271 58.3259 345.458Q59.5265 344.645 61.0597 344.645Q62.5928 344.645 63.7935 345.458Q64.9941 346.271 65.673 347.794Q66.3564 349.318 66.3564 351.378Q66.3564 353.442 65.673 354.966Q64.9941 356.485 63.7935 357.303Q62.5928 358.115 61.0597 358.115ZM61.0597 356.864Q62.2141 356.864 63.0915 356.222Q63.9736 355.58 64.4631 354.352Q64.9572 353.119 64.9572 351.378Q64.9572 349.642 64.4631 348.413Q63.9736 347.18 63.0915 346.538Q62.2141 345.896 61.0597 345.896Q59.9052 345.896 59.0232 346.538Q58.1458 347.18 57.6516 348.413Q57.1621 349.642 57.1621 351.378Q57.1621 353.119 57.6516 354.352Q58.1458 355.58 59.0232 356.222Q59.9052 356.864 61.0597 356.864ZM71.1015 351.854Q69.7577 351.854 68.9357 350.861Q68.1138 349.868 68.1138 348.261Q68.1138 346.649 68.9357 345.656Q69.7577 344.663 71.1015 344.663Q72.4269 344.663 73.2581 345.647Q74.0893 346.631 74.0893 348.261Q74.0893 349.886 73.2581 350.87Q72.4269 351.854 71.1015 351.854ZM79.1229 344.76L80.2404 344.76L71.1985 358L70.081 358L79.1229 344.76ZM71.1015 350.999Q72.0298 350.999 72.5885 350.274Q73.1473 349.545 73.1473 348.261Q73.1473 346.972 72.5885 346.247Q72.0298 345.518 71.1015 345.518Q70.1549 345.518 69.6053 346.257Q69.0604 346.991 69.0604 348.261Q69.0604 349.526 69.6053 350.265Q70.1549 350.999 71.1015 350.999ZM79.2152 358.092Q77.8945 358.092 77.0587 357.1Q76.2274 356.107 76.2274 354.5Q76.2274 352.893 77.0587 351.9Q77.8945 350.907 79.2152 350.907Q80.559 350.907 81.381 351.9Q82.2076 352.893 82.2076 354.5Q82.2076 356.107 81.381 357.1Q80.559 358.092 79.2152 358.092ZM79.2152 357.243Q80.1619 357.243 80.7114 356.508Q81.261 355.77 81.261 354.5Q81.261 353.234 80.7114 352.495Q80.1619 351.757 79.2152 351.757Q78.2916 351.757 77.7329 352.486Q77.1741 353.216 77.1741 354.5Q77.1741 355.788 77.7329 356.518Q78.2916 357.243 79.2152 357.243Z" fill="#000000" fill-opacity="1.000000" fill-rule="evenodd"/>
	<path id="50%" d="M48.5574 300.186Q51.4298 300.186 52.7459 301.221Q54.062 302.251 54.062 304.102Q54.062 305.257 53.5217 306.167Q52.9814 307.072 51.9008 307.594Q50.8248 308.115 49.2547 308.115Q47.837 308.115 46.5578 307.654Q45.2833 307.187 44.5075 306.411L45.1679 305.331Q45.8328 306.014 46.9088 306.439Q47.9894 306.864 49.2362 306.864Q50.8802 306.864 51.7807 306.13Q52.6812 305.391 52.6812 304.163Q52.6812 302.8 51.6653 302.098Q50.6539 301.396 48.2526 301.396L45.4357 301.396L46.1145 294.76L53.36 294.76L53.36 295.97L47.306 295.97L46.8534 300.186L48.5574 300.186ZM61.0597 308.115Q59.5265 308.115 58.3259 307.303Q57.1252 306.485 56.451 304.966Q55.7814 303.442 55.7814 301.378Q55.7814 299.318 56.451 297.794Q57.1252 296.271 58.3259 295.458Q59.5265 294.645 61.0597 294.645Q62.5928 294.645 63.7935 295.458Q64.9941 296.271 65.673 297.794Q66.3564 299.318 66.3564 301.378Q66.3564 303.442 65.673 304.966Q64.9941 306.485 63.7935 307.303Q62.5928 308.115 61.0597 308.115ZM61.0597 306.864Q62.2141 306.864 63.0915 306.222Q63.9736 305.58 64.4631 304.352Q64.9572 303.119 64.9572 301.378Q64.9572 299.642 64.4631 298.413Q63.9736 297.18 63.0915 296.538Q62.2141 295.896 61.0597 295.896Q59.9052 295.896 59.0232 296.538Q58.1458 297.18 57.6516 298.413Q57.1621 299.642 57.1621 301.378Q57.1621 303.119 57.6516 304.352Q58.1458 305.58 59.0232 306.222Q59.9052 306.864 61.0597 306.864ZM71.1016 301.854Q69.7577 301.854 68.9358 300.861Q68.1138 299.868 68.1138 298.261Q68.1138 296.649 68.9358 295.656Q69.7577 294.663 71.1016 294.663Q72.4269 294.663 73.2581 295.647Q74.0893 296.631 74.0893 298.261Q74.0893 299.886 73.2581 300.87Q72.4269 301.854 71.1016 301.854ZM79.1229 294.76L80.2404 294.76L71.1985 308L70.081 308L79.1229 294.76ZM71.1016 300.999Q72.0298 300.999 72.5885 300.274Q73.1473 299.545 73.1473 298.261Q73.1473 296.972 72.5885 296.247Q72.0298 295.518 71.1016 295.518Q70.1549 295.518 69.6053 296.257Q69.0604 296.991 69.0604 298.261Q69.0604 299.526 69.6053 300.265Q70.1549 300.999 71.1016 300.999ZM79.2152 308.092Q77.8945 308.092 77.0587 307.1Q76.2274 306.107 76.2274 304.5Q76.2274 302.893 77.0587 301.9Q77.8945 300.907 79.2152 300.907Q80.559 300.907 81.381 301.9Q82.2076 302.893 82.2076 304.5Q82.2076 306.107 81.381 307.1Q80.559 308.092 79.2152 308.092ZM79.2152 307.243Q80.1619 307.243 80.7114 306.508Q81.261 305.77 81.261 304.5Q81.261 303.234 80.7114 302.495Q80.1619 301.757 79.2152 301.757Q78.2916 301.757 77.7329 302.486Q77.1741 303.216 77.1741 304.5Q77.1741 305.788 77.7329 306.518Q78.2916 307.243 79.2152 307.243Z" fill="#000000" fill-opacity="1.000000" fill-rule="evenodd"/>
	<path id="60%" d="M49.7482 250.076Q51.0505 250.076 52.0618 250.57Q53.0778 251.059 53.6411 251.96Q54.2091 252.856 54.2091 254.047Q54.2091 255.257 53.6227 256.185Q53.0408 257.109 52.0064 257.612Q50.9766 258.115 49.6928 258.115Q47.0606 258.115 45.6614 256.384Q44.2622 254.652 44.2622 251.493Q44.2622 249.281 45.0195 247.748Q45.7768 246.215 47.1345 245.43Q48.4968 244.645 50.3162 244.645Q52.2835 244.645 53.4564 245.365L52.9069 246.46Q51.9602 245.836 50.3347 245.836Q48.1412 245.836 46.8898 247.226Q45.6429 248.616 45.6429 251.267Q45.6429 251.738 45.6983 252.343Q46.1924 251.267 47.2684 250.671Q48.349 250.076 49.7482 250.076ZM49.6328 256.961Q51.0736 256.961 51.9695 256.176Q52.8699 255.391 52.8699 254.084Q52.8699 252.782 51.9695 252.006Q51.0736 251.23 49.5404 251.23Q48.5383 251.23 47.7718 251.609Q47.0052 251.983 46.5665 252.648Q46.1324 253.308 46.1324 254.121Q46.1324 254.878 46.5388 255.525Q46.9498 256.167 47.7441 256.564Q48.5383 256.961 49.6328 256.961ZM61.0597 258.115Q59.5265 258.115 58.3259 257.303Q57.1252 256.485 56.451 254.966Q55.7814 253.442 55.7814 251.378Q55.7814 249.318 56.451 247.794Q57.1252 246.27 58.3259 245.458Q59.5265 244.645 61.0597 244.645Q62.5928 244.645 63.7935 245.458Q64.9941 246.27 65.673 247.794Q66.3564 249.318 66.3564 251.378Q66.3564 253.442 65.673 254.966Q64.9941 256.485 63.7935 257.303Q62.5928 258.115 61.0597 258.115ZM61.0597 256.864Q62.2141 256.864 63.0915 256.222Q63.9736 255.58 64.4631 254.352Q64.9572 253.119 64.9572 251.378Q64.9572 249.642 64.4631 248.413Q63.9736 247.18 63.0915 246.538Q62.2141 245.896 61.0597 245.896Q59.9052 245.896 59.0232 246.538Q58.1458 247.18 57.6516 248.413Q57.1621 249.642 57.1621 251.378Q57.1621 253.119 57.6516 254.352Q58.1458 255.58 59.0232 256.222Q59.9052 256.864 61.0597 256.864ZM71.1016 251.854Q69.7577 251.854 68.9358 250.861Q68.1138 249.868 68.1138 248.261Q68.1138 246.649 68.9358 245.656Q69.7577 244.663 71.1016 244.663Q72.4269 244.663 73.2581 245.647Q74.0893 246.631 74.0893 248.261Q74.0893 249.886 73.2581 250.87Q72.4269 251.854 71.1016 251.854ZM79.1229 244.76L80.2404 244.76L71.1985 258L70.081 258L79.1229 244.76ZM71.1016 250.999Q72.0298 250.999 72.5885 250.274Q73.1473 249.545 73.1473 248.261Q73.1473 246.972 72.5885 246.247Q72.0298 245.518 71.1016 245.518Q70.1549 245.518 69.6053 246.257Q69.0604 246.991 69.0604 248.261Q69.0604 249.526 69.6053 250.265Q70.1549 250.999 71.1016 250.999ZM79.2152 258.092Q77.8945 258.092 77.0587 257.1Q76.2274 256.107 76.2274 254.5Q76.2274 252.893 77.0587 251.9Q77.8945 250.907 79.2152 250.907Q80.559 250.907 81.381 251.9Q82.2076 252.893 82.2076 254.5Q82.2076 256.107 81.381 257.1Q80.559 258.092 79.2152 258.092ZM79.2152 257.243Q80.1619 257.243 80.7114 256.508Q81.261 255.77 81.261 254.5Q81.261 253.234 80.7114 252.495Q80.1619 251.757 79.2152 251.757Q78.2916 251.757 77.7329 252.486Q77.1741 253.216 77.1741 254.5Q77.1741 255.788 77.7329 256.518Q78.2916 257.243 79.2152 257.243Z" fill="#000000" fill-opacity="1.000000" fill-rule="evenodd"/>
	<path id="70%" d="M54.3608 194.76L54.3608 195.726L48.8193 208L47.3462 208L52.7907 195.97L45.9839 195.97L45.9839 198.45L44.6401 198.45L44.6401 194.76L54.3608 194.76ZM61.0597 208.115Q59.5265 208.115 58.3259 207.303Q57.1252 206.485 56.451 204.966Q55.7814 203.442 55.7814 201.378Q55.7814 199.318 56.451 197.794Q57.1252 196.27 58.3259 195.458Q59.5265 194.645 61.0597 194.645Q62.5928 194.645 63.7935 195.458Q64.9941 196.27 65.673 197.794Q66.3564 199.318 66.3564 201.378Q66.3564 203.442 65.673 204.966Q64.9941 206.485 63.7935 207.303Q62.5928 208.115 61.0597 208.115ZM61.0597 206.864Q62.2141 206.864 63.0915 206.222Q63.9736 205.58 64.4631 204.352Q64.9572 203.119 64.9572 201.378Q64.9572 199.642 64.4631 198.413Q63.9736 197.18 63.0915 196.538Q62.2141 195.896 61.0597 195.896Q59.9052 195.896 59.0232 196.538Q58.1458 197.18 57.6516 198.413Q57.1621 199.642 57.1621 201.378Q57.1621 203.119 57.6516 204.352Q58.1458 205.58 59.0232 206.222Q59.9052 206.864 61.0597 206.864ZM71.1016 201.854Q69.7577 201.854 68.9358 200.861Q68.1138 199.868 68.1138 198.261Q68.1138 196.649 68.9358 195.656Q69.7577 194.663 71.1016 194.663Q72.4269 194.663 73.2581 195.647Q74.0893 196.631 74.0893 198.261Q74.0893 199.886 73.2581 200.87Q72.4269 201.854 71.1016 201.854ZM79.1229 194.76L80.2404 194.76L71.1985 208L70.081 208L79.1229 194.76ZM71.1016 200.999Q72.0298 200.999 72.5885 200.274Q73.1473 199.545 73.1473 198.261Q73.1473 196.972 72.5885 196.247Q72.0298 195.518 71.1016 195.518Q70.1549 195.518 69.6053 196.257Q69.0604 196.991 69.0604 198.261Q69.0604 199.526 69.6053 200.265Q70.1549 200.999 71.1016 200.999ZM79.2152 208.092Q77.8945 208.092 77.0587 207.1Q76.2274 206.107 76.2274 204.5Q76.2274 202.893 77.0587 201.9Q77.8945 200.907 79.2152 200.907Q80.559 200.907 81.381 201.9Q82.2076 202.893 82.2076 204.5Q82.2076 206.107 81.381 207.1Q80.559 208.092 79.2152 208.092ZM79.2152 207.243Q80.1619 207.243 80.7114 206.508Q81.261 205.77 81.261 204.5Q81.261 203.234 80.7114 202.495Q80.1619 201.757 79.2152 201.757Q78.2916 201.757 77.7329 202.486Q77.1741 203.216 77.1741 204.5Q77.1741 205.788 77.7329 206.518Q78.2916 207.243 79.2152 207.243Z" fill="#000000" fill-opacity="1.000000" fill-rule="evenodd"/>
	<path id="80%" d="M51.2962 151.059Q52.5477 151.475 53.2173 152.306Q53.8915 153.137 53.8915 154.31Q53.8915 155.465 53.2635 156.328Q52.6401 157.187 51.4763 157.654Q50.3126 158.115 48.7472 158.115Q46.3597 158.115 44.9974 157.095Q43.6397 156.07 43.6397 154.31Q43.6397 153.119 44.2909 152.297Q44.942 151.475 46.1934 151.059Q45.1683 150.662 44.6372 149.914Q44.1108 149.166 44.1108 148.145Q44.1108 146.538 45.3668 145.592Q46.6275 144.645 48.7472 144.645Q50.1464 144.645 51.1946 145.074Q52.2429 145.499 52.8294 146.294Q53.4159 147.088 53.4159 148.145Q53.4159 149.166 52.8663 149.914Q52.3214 150.662 51.2962 151.059ZM45.473 148.182Q45.473 149.281 46.3412 149.923Q47.214 150.565 48.7472 150.565Q50.2757 150.565 51.1531 149.923Q52.0351 149.281 52.0351 148.201Q52.0351 147.088 51.1346 146.446Q50.2387 145.799 48.7472 145.799Q47.2325 145.799 46.3505 146.446Q45.473 147.088 45.473 148.182ZM48.7472 156.961Q50.502 156.961 51.4948 156.241Q52.4923 155.52 52.4923 154.292Q52.4923 153.063 51.4948 152.357Q50.502 151.646 48.7472 151.646Q47.0062 151.646 46.0133 152.357Q45.0205 153.063 45.0205 154.292Q45.0205 155.543 46.0041 156.254Q46.9877 156.961 48.7472 156.961ZM61.0597 158.115Q59.5265 158.115 58.3259 157.303Q57.1252 156.485 56.451 154.966Q55.7814 153.442 55.7814 151.378Q55.7814 149.318 56.451 147.794Q57.1252 146.27 58.3259 145.458Q59.5265 144.645 61.0597 144.645Q62.5928 144.645 63.7935 145.458Q64.9941 146.27 65.673 147.794Q66.3564 149.318 66.3564 151.378Q66.3564 153.442 65.673 154.966Q64.9941 156.485 63.7935 157.303Q62.5928 158.115 61.0597 158.115ZM61.0597 156.864Q62.2141 156.864 63.0915 156.222Q63.9736 155.58 64.4631 154.352Q64.9572 153.119 64.9572 151.378Q64.9572 149.642 64.4631 148.413Q63.9736 147.18 63.0915 146.538Q62.2141 145.896 61.0597 145.896Q59.9052 145.896 59.0232 146.538Q58.1458 147.18 57.6516 148.413Q57.1621 149.642 57.1621 151.378Q57.1621 153.119 57.6516 154.352Q58.1458 155.58 59.0232 156.222Q59.9052 156.864 61.0597 156.864ZM71.1016 151.854Q69.7577 151.854 68.9358 150.861Q68.1138 149.868 68.1138 148.261Q68.1138 146.649 68.9358 145.656Q69.7577 144.663 71.1016 144.663Q72.4269 144.663 73.2581 145.647Q74.0893 146.631 74.0893 148.261Q74.0893 149.886 73.2581 150.87Q72.4269 151.854 71.1016 151.854ZM79.1229 144.76L80.2404 144.76L71.1985 158L70.081 158L79.1229 144.76ZM71.1016 150.999Q72.0298 150.999 72.5885 150.274Q73.1473 149.545 73.1473 148.261Q73.1473 146.972 72.5885 146.247Q72.0298 145.518 71.1016 145.518Q70.1549 145.518 69.6053 146.257Q69.0604 146.991 69.0604 148.261Q69.0604 149.526 69.6053 150.265Q70.1549 150.999 71.1016 150.999ZM79.2152 158.092Q77.8945 158.092 77.0587 157.1Q76.2274 156.107 76.2274 154.5Q76.2274 152.893 77.0587 151.9Q77.8945 150.907 79.2152 150.907Q80.559 150.907 81.381 151.9Q82.2076 152.893 82.2076 154.5Q82.2076 156.107 81.381 157.1Q80.559 158.092 79.2152 158.092ZM79.2152 157.243Q80.1619 157.243 80.7114 156.508Q81.261 155.77 81.261 154.5Q81.261 153.234 80.7114 152.495Q80.1619 151.757 79.2152 151.757Q78.2916 151.757 77.7329 152.486Q77.1741 153.216 77.1741 154.5Q77.1741 155.788 77.7329 156.518Q78.2916 157.243 79.2152 157.243Z" fill="#000000" fill-opacity="1.000000" fill-rule="evenodd"/>
	<path id="90%" d="M48.386 94.645Q51.0135 94.645 52.4128 96.3767Q53.812 98.1084 53.812 101.267Q53.812 103.479 53.0547 105.012Q52.3019 106.545 50.9397 107.33Q49.5774 108.115 47.7625 108.115Q45.7953 108.115 44.6224 107.395L45.1719 106.296Q46.1139 106.924 47.7441 106.924Q49.9376 106.924 51.1844 105.534Q52.4312 104.139 52.4312 101.493Q52.4312 100.999 52.3758 100.417Q51.8863 101.493 50.8057 102.089Q49.7298 102.685 48.3305 102.685Q47.0237 102.685 46.0123 102.195Q45.001 101.701 44.433 100.805Q43.865 99.9048 43.865 98.7134Q43.865 97.5035 44.4515 96.5753Q45.038 95.6471 46.0678 95.1483Q47.0976 94.645 48.386 94.645ZM48.5383 101.53Q49.5404 101.53 50.307 101.152Q51.0736 100.773 51.5077 100.113Q51.9417 99.4522 51.9417 98.6349Q51.9417 97.8821 51.5354 97.2403Q51.129 96.5938 50.3347 96.1966Q49.5404 95.7995 48.4414 95.7995Q47.0052 95.7995 46.1047 96.5845Q45.2088 97.3696 45.2088 98.6764Q45.2088 99.9787 46.1047 100.754Q47.0052 101.53 48.5383 101.53ZM61.0597 108.115Q59.5265 108.115 58.3259 107.303Q57.1252 106.485 56.451 104.966Q55.7814 103.442 55.7814 101.378Q55.7814 99.3183 56.451 97.7944Q57.1252 96.2705 58.3259 95.4577Q59.5265 94.645 61.0597 94.645Q62.5928 94.645 63.7935 95.4577Q64.9941 96.2705 65.673 97.7944Q66.3564 99.3183 66.3564 101.378Q66.3564 103.442 65.673 104.966Q64.9941 106.485 63.7935 107.303Q62.5928 108.115 61.0597 108.115ZM61.0597 106.864Q62.2141 106.864 63.0915 106.222Q63.9736 105.58 64.4631 104.352Q64.9572 103.119 64.9572 101.378Q64.9572 99.6416 64.4631 98.4132Q63.9736 97.1802 63.0915 96.5383Q62.2141 95.8964 61.0597 95.8964Q59.9052 95.8964 59.0232 96.5383Q58.1458 97.1802 57.6516 98.4132Q57.1621 99.6416 57.1621 101.378Q57.1621 103.119 57.6516 104.352Q58.1458 105.58 59.0232 106.222Q59.9052 106.864 61.0597 106.864ZM71.1016 101.854Q69.7577 101.854 68.9358 100.861Q68.1138 99.8679 68.1138 98.2608Q68.1138 96.6492 68.9358 95.6563Q69.7577 94.6635 71.1016 94.6635Q72.4269 94.6635 73.2581 95.6471Q74.0893 96.6307 74.0893 98.2608Q74.0893 99.8863 73.2581 100.87Q72.4269 101.854 71.1016 101.854ZM79.1229 94.7604L80.2404 94.7604L71.1985 108L70.081 108L79.1229 94.7604ZM71.1016 100.999Q72.0298 100.999 72.5885 100.274Q73.1473 99.5446 73.1473 98.2608Q73.1473 96.9724 72.5885 96.2474Q72.0298 95.5178 71.1016 95.5178Q70.1549 95.5178 69.6053 96.2566Q69.0604 96.9909 69.0604 98.2608Q69.0604 99.5261 69.6053 100.265Q70.1549 100.999 71.1016 100.999ZM79.2152 108.092Q77.8945 108.092 77.0587 107.1Q76.2274 106.107 76.2274 104.5Q76.2274 102.893 77.0587 101.9Q77.8945 100.907 79.2152 100.907Q80.559 100.907 81.381 101.9Q82.2076 102.893 82.2076 104.5Q82.2076 106.107 81.381 107.1Q80.559 108.092 79.2152 108.092ZM79.2152 107.243Q80.1619 107.243 80.7114 106.508Q81.261 105.77 81.261 104.5Q81.261 103.234 80.7114 102.495Q80.1619 101.757 79.2152 101.757Q78.2916 101.757 77.7329 102.486Q77.1741 103.216 77.1741 104.5Q77.1741 105.788 77.7329 106.518Q78.2916 107.243 79.2152 107.243Z" fill="#000000" fill-opacity="1.000000" fill-rule="evenodd"/>
	<path id="100%" d="M40.1026 44.7604L40.1026 58L38.7403 58L38.7403 45.9703L35.6186 45.9703L35.6186 44.7604L40.1026 44.7604ZM48.5379 58.1154Q47.0048 58.1154 45.8041 57.3027Q44.6035 56.4853 43.9293 54.966Q43.2597 53.4421 43.2597 51.3779Q43.2597 49.3183 43.9293 47.7944Q44.6035 46.2705 45.8041 45.4577Q47.0048 44.645 48.5379 44.645Q50.0711 44.645 51.2717 45.4577Q52.4724 46.2705 53.1512 47.7944Q53.8347 49.3183 53.8347 51.3779Q53.8347 53.4421 53.1512 54.966Q52.4724 56.4853 51.2717 57.3027Q50.0711 58.1154 48.5379 58.1154ZM48.5379 56.864Q49.6924 56.864 50.5698 56.2221Q51.4518 55.5802 51.9413 54.3518Q52.4355 53.1189 52.4355 51.3779Q52.4355 49.6416 51.9413 48.4132Q51.4518 47.1802 50.5698 46.5383Q49.6924 45.8964 48.5379 45.8964Q47.3835 45.8964 46.5014 46.5383Q45.624 47.1802 45.1299 48.4132Q44.6404 49.6416 44.6404 51.3779Q44.6404 53.1189 45.1299 54.3518Q45.624 55.5802 46.5014 56.2221Q47.3835 56.864 48.5379 56.864ZM61.0597 58.1154Q59.5265 58.1154 58.3259 57.3027Q57.1252 56.4853 56.451 54.966Q55.7814 53.4421 55.7814 51.3779Q55.7814 49.3183 56.451 47.7944Q57.1252 46.2705 58.3259 45.4577Q59.5265 44.645 61.0597 44.645Q62.5928 44.645 63.7935 45.4577Q64.9941 46.2705 65.673 47.7944Q66.3564 49.3183 66.3564 51.3779Q66.3564 53.4421 65.673 54.966Q64.9941 56.4853 63.7935 57.3027Q62.5928 58.1154 61.0597 58.1154ZM61.0597 56.864Q62.2141 56.864 63.0915 56.2221Q63.9736 55.5802 64.4631 54.3518Q64.9572 53.1189 64.9572 51.3779Q64.9572 49.6416 64.4631 48.4132Q63.9736 47.1802 63.0915 46.5383Q62.2141 45.8964 61.0597 45.8964Q59.9052 45.8964 59.0232 46.5383Q58.1458 47.1802 57.6516 48.4132Q57.1621 49.6416 57.1621 51.3779Q57.1621 53.1189 57.6516 54.3518Q58.1458 55.5802 59.0232 56.2221Q59.9052 56.864 61.0597 56.864ZM71.1016 51.8536Q69.7577 51.8536 68.9358 50.8607Q68.1138 49.8679 68.1138 48.2608Q68.1138 46.6492 68.9358 45.6563Q69.7577 44.6635 71.1016 44.6635Q72.4269 44.6635 73.2581 45.6471Q74.0893 46.6307 74.0893 48.2608Q74.0893 49.8863 73.2581 50.8699Q72.4269 51.8536 71.1016 51.8536ZM79.1229 44.7604L80.2404 44.7604L71.1985 58L70.081 58L79.1229 44.7604ZM71.1016 50.9992Q72.0298 50.9992 72.5885 50.2742Q73.1473 49.5446 73.1473 48.2608Q73.1473 46.9724 72.5885 46.2474Q72.0298 45.5178 71.1016 45.5178Q70.1549 45.5178 69.6053 46.2566Q69.0604 46.9909 69.0604 48.2608Q69.0604 49.5261 69.6053 50.265Q70.1549 50.9992 71.1016 50.9992ZM79.2152 58.0924Q77.8945 58.0924 77.0587 57.0995Q76.2274 56.1067 76.2274 54.4996Q76.2274 52.8926 77.0587 51.8997Q77.8945 50.9069 79.2152 50.9069Q80.559 50.9069 81.381 51.8997Q82.2076 52.8926 82.2076 54.4996Q82.2076 56.1067 81.381 57.0995Q80.559 58.0924 79.2152 58.0924ZM79.2152 57.2427Q80.1619 57.2427 80.7114 56.5084Q81.261 55.7695 81.261 54.4996Q81.261 53.2343 80.7114 52.4954Q80.1619 51.7566 79.2152 51.7566Q78.2916 51.7566 77.7329 52.4862Q77.1741 53.2158 77.1741 54.4996Q77.1741 55.788 77.7329 56.5176Q78.2916 57.2427 79.2152 57.2427Z" fill="#000000" fill-opacity="1.000000" fill-rule="evenodd"/>
	<path id="image 9 (Traced)" d="M412.08 591.151C411.416 591.396 410.907 592.222 411.014 592.884C411.13 593.601 411.317 593.814 415.566 598.095C421.156 603.724 421.156 602.367 415.566 607.996C412.454 611.131 411.372 612.27 411.238 612.554C410.461 614.197 411.896 615.574 413.534 614.758C414.134 614.459 424.076 604.485 424.359 603.897C424.995 602.581 425.077 602.691 419.018 596.625C413.119 590.717 413.164 590.753 412.08 591.151ZM422.272 591.404C421.541 591.843 421.292 592.771 421.685 593.602C421.829 593.906 422.813 594.945 425.981 598.135C431.522 603.717 431.528 602.368 425.94 607.996C422.828 611.131 421.746 612.27 421.612 612.554C420.835 614.197 422.271 615.574 423.908 614.758C424.527 614.449 434.382 604.568 434.692 603.945C435.37 602.583 435.426 602.661 429.477 596.703C423.523 590.742 423.457 590.693 422.272 591.404Z" fill="url(#paint_linear_76_3411_0)" fill-opacity="1.000000" fill-rule="evenodd"/>
	<path id="image 9 (Traced)" d="M715.08 591.151C714.416 591.396 713.907 592.222 714.014 592.884C714.13 593.601 714.317 593.814 718.566 598.095C724.156 603.724 724.156 602.367 718.566 607.996C715.454 611.131 714.372 612.27 714.238 612.554C713.461 614.197 714.896 615.574 716.534 614.758C717.134 614.459 727.076 604.485 727.359 603.897C727.995 602.581 728.077 602.691 722.018 596.625C716.119 590.717 716.164 590.753 715.08 591.151ZM725.272 591.404C724.541 591.843 724.292 592.771 724.685 593.602C724.829 593.906 725.813 594.945 728.981 598.135C734.522 603.717 734.528 602.368 728.94 607.996C725.828 611.131 724.746 612.27 724.612 612.554C723.835 614.197 725.271 615.574 726.908 614.758C727.527 614.449 737.382 604.568 737.692 603.945C738.37 602.583 738.426 602.661 732.477 596.703C726.523 590.742 726.457 590.693 725.272 591.404Z" fill="url(#paint_linear_76_3412_0)" fill-opacity="1.000000" fill-rule="evenodd"/>
	<path id="image 9 (Traced)" d="M1040.08 591.151C1039.42 591.396 1038.91 592.222 1039.01 592.884C1039.13 593.601 1039.32 593.814 1043.57 598.095C1049.16 603.724 1049.16 602.367 1043.57 607.996C1040.45 611.131 1039.37 612.27 1039.24 612.554C1038.46 614.197 1039.9 615.574 1041.53 614.758C1042.13 614.459 1052.08 604.485 1052.36 603.897C1053 602.581 1053.08 602.691 1047.02 596.625C1041.12 590.717 1041.16 590.753 1040.08 591.151ZM1050.27 591.404C1049.54 591.843 1049.29 592.771 1049.69 593.602C1049.83 593.906 1050.81 594.945 1053.98 598.135C1059.52 603.717 1059.53 602.368 1053.94 607.996C1050.83 611.131 1049.75 612.27 1049.61 612.554C1048.84 614.197 1050.27 615.574 1051.91 614.758C1052.53 614.449 1062.38 604.568 1062.69 603.945C1063.37 602.583 1063.43 602.661 1057.48 596.703C1051.52 590.742 1051.46 590.693 1050.27 591.404Z" fill="url(#paint_linear_76_3413_0)" fill-opacity="1.000000" fill-rule="evenodd"/>
	<path id="До лікування" d="M410.276 728.393L410.276 735.592L407.493 735.592L407.493 731L390.208 731L390.179 735.592L387.388 735.592L387.417 728.393L388.443 728.393Q390.42 728.268 391.226 725.258Q392.039 722.24 392.222 716.747L392.427 710.001L407.193 710.001L407.193 728.393L410.276 728.393ZM394.859 717.018Q394.712 721.457 394.156 724.372Q393.599 727.279 392.369 728.393L404.219 728.393L404.219 712.609L395.013 712.609L394.859 717.018ZM420.362 731.183Q417.989 731.183 416.099 730.136Q414.21 729.081 413.14 727.235Q412.078 725.39 412.078 723.053Q412.078 720.709 413.14 718.864Q414.21 717.018 416.099 715.985Q417.989 714.953 420.362 714.953Q422.728 714.953 424.603 715.985Q426.478 717.018 427.54 718.864Q428.609 720.709 428.609 723.053Q428.609 725.39 427.54 727.235Q426.478 729.081 424.603 730.136Q422.728 731.183 420.362 731.183ZM420.362 728.664Q421.885 728.664 423.101 727.96Q424.317 727.25 425.006 725.976Q425.701 724.701 425.701 723.053Q425.701 721.398 425.006 720.124Q424.317 718.849 423.101 718.161Q421.885 717.472 420.362 717.472Q418.831 717.472 417.615 718.161Q416.4 718.849 415.689 720.124Q414.986 721.398 414.986 723.053Q414.986 724.701 415.689 725.976Q416.4 727.25 417.615 727.96Q418.831 728.664 420.362 728.664ZM454.503 715.099L454.503 731L451.617 731L451.617 717.619L444.784 717.619L444.601 721.164Q444.447 724.372 444.029 726.518Q443.612 728.664 442.652 729.953Q441.693 731.242 439.979 731.242Q439.203 731.242 438.206 730.971L438.39 728.539Q438.778 728.627 439.107 728.627Q440.309 728.627 440.909 727.58Q441.51 726.532 441.685 725.089Q441.869 723.646 442.022 720.98L442.293 715.099L454.503 715.099ZM460.081 715.099L462.959 715.099L462.959 731L460.081 731L460.081 715.099ZM461.516 712.038Q460.681 712.038 460.124 711.503Q459.568 710.961 459.568 710.177Q459.568 709.401 460.124 708.844Q460.681 708.288 461.516 708.288Q462.358 708.288 462.908 708.815Q463.464 709.342 463.464 710.119Q463.464 710.932 462.908 711.488Q462.358 712.038 461.516 712.038ZM474.752 724.276L471.449 724.276L471.449 731L468.571 731L468.571 715.099L471.449 715.099L471.449 721.823L474.811 721.823L479.967 715.099L483.058 715.099L477.03 722.753L483.483 731L480.092 731L474.752 724.276ZM499.805 715.099L492.092 732.589Q491.074 735.021 489.705 736.01Q488.342 736.999 486.424 736.999Q485.252 736.999 484.153 736.625Q483.062 736.251 482.344 735.526L483.574 733.373Q484.805 734.538 486.424 734.538Q487.471 734.538 488.174 733.981Q488.884 733.432 489.456 732.077L489.961 730.971L482.945 715.099L485.94 715.099L491.492 727.821L496.985 715.099L499.805 715.099ZM513.573 722.753Q516.656 723.529 516.656 726.62Q516.656 728.722 515.082 729.865Q513.507 731 510.387 731L502.741 731L502.741 715.099L510.123 715.099Q512.943 715.099 514.533 716.168Q516.122 717.23 516.122 719.179Q516.122 720.438 515.441 721.354Q514.767 722.27 513.573 722.753ZM505.56 721.94L509.882 721.94Q511.53 721.94 512.387 721.339Q513.243 720.739 513.243 719.604Q513.243 717.318 509.882 717.318L505.56 717.318L505.56 721.94ZM510.182 728.781Q511.976 728.781 512.877 728.209Q513.778 727.638 513.778 726.437Q513.778 725.207 512.951 724.613Q512.13 724.013 510.358 724.013L505.56 724.013L505.56 728.781L510.182 728.781ZM526.829 714.953Q530.133 714.953 531.883 716.571Q533.641 718.19 533.641 721.398L533.641 731L530.909 731L530.909 728.898Q530.191 730.011 528.851 730.597Q527.518 731.183 525.694 731.183Q523.021 731.183 521.417 729.894Q519.813 728.598 519.813 726.503Q519.813 724.401 521.344 723.126Q522.874 721.852 526.2 721.852L530.763 721.852L530.763 721.281Q530.763 719.42 529.679 718.432Q528.602 717.443 526.5 717.443Q525.094 717.443 523.739 717.912Q522.391 718.373 521.461 719.149L520.26 716.989Q521.49 716 523.197 715.48Q524.911 714.953 526.829 714.953ZM526.17 728.957Q527.818 728.957 529.019 728.224Q530.221 727.492 530.763 726.137L530.763 723.917L526.324 723.917Q522.662 723.917 522.662 726.378Q522.662 727.58 523.592 728.268Q524.522 728.957 526.17 728.957ZM538.831 715.099L541.709 715.099L541.709 721.852L550.769 721.852L550.769 715.099L553.647 715.099L553.647 731L550.769 731L550.769 724.342L541.709 724.342L541.709 731L538.831 731L538.831 715.099ZM559.26 715.099L562.139 715.099L562.139 721.852L571.199 721.852L571.199 715.099L574.077 715.099L574.077 731L571.199 731L571.199 724.342L562.139 724.342L562.139 731L559.26 731L559.26 715.099ZM592.442 715.099L592.442 731L589.857 731L589.857 725.961L585.242 725.961L584.913 725.961L581.426 731L578.343 731L582.21 725.573Q580.408 725.031 579.449 723.786Q578.489 722.541 578.489 720.68Q578.489 717.948 580.35 716.527Q582.21 715.099 585.477 715.099L592.442 715.099ZM581.426 720.768Q581.426 722.357 582.43 723.126Q583.441 723.888 585.447 723.888L589.857 723.888L589.857 717.619L585.572 717.619Q581.426 717.619 581.426 720.768Z" fill="#000000" fill-opacity="1.000000" fill-rule="evenodd"/>
	<rect id="Rectangle 26" x="321.000000" y="695.000000" rx="12.000000" width="46.000000" height="46.000000" fill="url(#paint_linear_76_3417_0)" fill-opacity="1.000000"/>
	<path id="Після лікування" d="M777.357 710.001L777.357 731L774.42 731L774.42 712.609L762.24 712.609L762.24 731L759.267 731L759.267 710.001L777.357 710.001ZM783.421 715.099L786.299 715.099L786.299 731L783.421 731L783.421 715.099ZM784.856 712.038Q784.021 712.038 783.464 711.503Q782.908 710.961 782.908 710.177Q782.908 709.401 783.464 708.844Q784.021 708.288 784.856 708.288Q785.698 708.288 786.248 708.815Q786.804 709.342 786.804 710.119Q786.804 710.932 786.248 711.488Q785.698 712.038 784.856 712.038ZM798.839 731.183Q796.408 731.183 794.503 730.136Q792.599 729.081 791.515 727.235Q790.438 725.39 790.438 723.053Q790.438 720.709 791.515 718.864Q792.599 717.018 794.503 715.985Q796.408 714.953 798.839 714.953Q801 714.953 802.692 715.824Q804.391 716.688 805.321 718.336L803.131 719.75Q802.377 718.607 801.264 718.043Q800.158 717.472 798.81 717.472Q797.25 717.472 796.005 718.161Q794.76 718.849 794.049 720.124Q793.346 721.398 793.346 723.053Q793.346 724.73 794.049 726.005Q794.76 727.279 796.005 727.975Q797.25 728.664 798.81 728.664Q800.158 728.664 801.264 728.092Q802.377 727.521 803.131 726.378L805.321 727.763Q804.391 729.411 802.692 730.297Q801 731.183 798.839 731.183ZM822.213 715.099L822.213 731L819.327 731L819.327 717.619L812.494 717.619L812.311 721.164Q812.157 724.372 811.739 726.518Q811.322 728.664 810.362 729.953Q809.403 731.242 807.689 731.242Q806.913 731.242 805.917 730.971L806.1 728.539Q806.488 728.627 806.817 728.627Q808.019 728.627 808.619 727.58Q809.22 726.532 809.396 725.089Q809.579 723.646 809.732 720.98L810.003 715.099L822.213 715.099ZM840.542 715.099L840.542 731L837.957 731L837.957 725.961L833.342 725.961L833.013 725.961L829.526 731L826.443 731L830.31 725.573Q828.508 725.031 827.549 723.786Q826.589 722.541 826.589 720.68Q826.589 717.948 828.45 716.527Q830.31 715.099 833.577 715.099L840.542 715.099ZM829.526 720.768Q829.526 722.357 830.53 723.126Q831.541 723.888 833.547 723.888L837.957 723.888L837.957 717.619L833.672 717.619Q829.526 717.619 829.526 720.768ZM867.873 715.099L867.873 731L864.987 731L864.987 717.619L858.154 717.619L857.971 721.164Q857.817 724.372 857.399 726.518Q856.982 728.664 856.022 729.953Q855.063 731.242 853.349 731.242Q852.573 731.242 851.576 730.971L851.76 728.539Q852.148 728.627 852.477 728.627Q853.679 728.627 854.279 727.58Q854.88 726.532 855.055 725.089Q855.239 723.646 855.392 720.98L855.663 715.099L867.873 715.099ZM873.451 715.099L876.329 715.099L876.329 731L873.451 731L873.451 715.099ZM874.886 712.038Q874.051 712.038 873.495 711.503Q872.938 710.961 872.938 710.177Q872.938 709.401 873.495 708.844Q874.051 708.288 874.886 708.288Q875.728 708.288 876.278 708.815Q876.834 709.342 876.834 710.119Q876.834 710.932 876.278 711.488Q875.728 712.038 874.886 712.038ZM888.122 724.276L884.819 724.276L884.819 731L881.941 731L881.941 715.099L884.819 715.099L884.819 721.823L888.181 721.823L893.337 715.099L896.428 715.099L890.4 722.753L896.853 731L893.462 731L888.122 724.276ZM913.175 715.099L905.462 732.589Q904.444 735.021 903.075 736.01Q901.712 736.999 899.794 736.999Q898.622 736.999 897.523 736.625Q896.432 736.251 895.714 735.526L896.944 733.373Q898.175 734.538 899.794 734.538Q900.841 734.538 901.544 733.981Q902.254 733.432 902.826 732.077L903.331 730.971L896.315 715.099L899.31 715.099L904.862 727.821L910.355 715.099L913.175 715.099ZM926.943 722.753Q930.027 723.529 930.027 726.62Q930.027 728.722 928.452 729.865Q926.877 731 923.757 731L916.111 731L916.111 715.099L923.493 715.099Q926.313 715.099 927.903 716.168Q929.492 717.23 929.492 719.179Q929.492 720.438 928.811 721.354Q928.137 722.27 926.943 722.753ZM918.93 721.94L923.252 721.94Q924.9 721.94 925.757 721.339Q926.613 720.739 926.613 719.604Q926.613 717.318 923.252 717.318L918.93 717.318L918.93 721.94ZM923.552 728.781Q925.346 728.781 926.247 728.209Q927.148 727.638 927.148 726.437Q927.148 725.207 926.32 724.613Q925.5 724.013 923.728 724.013L918.93 724.013L918.93 728.781L923.552 728.781ZM940.199 714.953Q943.503 714.953 945.253 716.571Q947.011 718.19 947.011 721.398L947.011 731L944.279 731L944.279 728.898Q943.561 730.011 942.221 730.597Q940.888 731.183 939.064 731.183Q936.391 731.183 934.787 729.894Q933.183 728.598 933.183 726.503Q933.183 724.401 934.714 723.126Q936.244 721.852 939.57 721.852L944.133 721.852L944.133 721.281Q944.133 719.42 943.049 718.432Q941.972 717.443 939.87 717.443Q938.464 717.443 937.109 717.912Q935.761 718.373 934.831 719.149L933.63 716.989Q934.86 716 936.567 715.48Q938.281 714.953 940.199 714.953ZM939.54 728.957Q941.188 728.957 942.389 728.224Q943.591 727.492 944.133 726.137L944.133 723.917L939.694 723.917Q936.032 723.917 936.032 726.378Q936.032 727.58 936.962 728.268Q937.892 728.957 939.54 728.957ZM952.201 715.099L955.079 715.099L955.079 721.852L964.139 721.852L964.139 715.099L967.017 715.099L967.017 731L964.139 731L964.139 724.342L955.079 724.342L955.079 731L952.201 731L952.201 715.099ZM972.63 715.099L975.509 715.099L975.509 721.852L984.569 721.852L984.569 715.099L987.447 715.099L987.447 731L984.569 731L984.569 724.342L975.509 724.342L975.509 731L972.63 731L972.63 715.099ZM1005.81 715.099L1005.81 731L1003.23 731L1003.23 725.961L998.612 725.961L998.283 725.961L994.796 731L991.713 731L995.58 725.573Q993.778 725.031 992.819 723.786Q991.859 722.541 991.859 720.68Q991.859 717.948 993.72 716.527Q995.58 715.099 998.847 715.099L1005.81 715.099ZM994.796 720.768Q994.796 722.357 995.8 723.126Q996.811 723.888 998.817 723.888L1003.23 723.888L1003.23 717.619L998.942 717.619Q994.796 717.619 994.796 720.768Z" fill="#000000" fill-opacity="1.000000" fill-rule="evenodd"/>
	<rect id="Rectangle 26" x="690.000000" y="695.000000" rx="12.000000" width="46.000000" height="46.000000" fill="url(#paint_linear_76_3420_0)" fill-opacity="1.000000"/>
</svg>
