<svg width="753.454102" height="714.998047" viewBox="0 0 753.454 714.998" fill="none" xmlns="http://www.w3.org/2000/svg">
	<desc>
			Created with Pixso.
	</desc>
	<defs>
		<linearGradient id="paint_linear_69_464_0" x1="220.080353" y1="184.507202" x2="211.267181" y2="591.921875" gradientUnits="userSpaceOnUse">
			<stop stop-color="#E70E00"/>
			<stop offset="1.000000" stop-color="#FF7777"/>
		</linearGradient>
		<linearGradient id="paint_linear_69_468_0" x1="570.767090" y1="140.339844" x2="570.767090" y2="890.532166" gradientUnits="userSpaceOnUse">
			<stop stop-color="#BBBBBB"/>
			<stop offset="1.000000" stop-color="#BBBBBB" stop-opacity="0.000000"/>
		</linearGradient>
		<linearGradient id="paint_linear_69_539_0" x1="211.267090" y1="264.589844" x2="211.267090" y2="155.089828" gradientUnits="userSpaceOnUse">
			<stop stop-color="#F11F1F"/>
			<stop offset="1.000000" stop-color="#D9D9D9" stop-opacity="0.000000"/>
		</linearGradient>
	</defs>
	<path id="Line 2" d="M47.9028 57.3398L47.9028 611.34L45.5386 611.34L45.5386 57.3398L47.9028 57.3398ZM46.7207 59.0117L40.8691 64.8633C40.4009 65.332 39.6655 65.332 39.1973 64.8633C38.729 64.3945 38.729 63.6602 39.1973 63.1914L45.8848 56.5039C46.353 56.0352 47.0884 56.0352 47.5566 56.5039L54.2441 63.1914C54.7124 63.6602 54.7124 64.3945 54.2441 64.8633C53.7759 65.332 53.0405 65.332 52.5723 64.8633L46.7207 59.0117Z" fill="#000000" fill-opacity="1.000000" fill-rule="evenodd"/>
	<path id="Line 3" d="M752.267 612.521L46.2671 612.521L46.2671 610.158L752.267 610.158L752.267 612.521ZM750.595 611.34L744.744 605.488C744.275 605.02 744.275 604.285 744.744 603.816C745.212 603.348 745.947 603.348 746.416 603.816L753.103 610.504C753.571 610.973 753.571 611.707 753.103 612.176L746.416 618.863C745.947 619.332 745.212 619.332 744.744 618.863C744.275 618.395 744.275 617.66 744.744 617.191L750.595 611.34Z" fill="#000000" fill-opacity="1.000000" fill-rule="evenodd"/>
	<path id="Rectangle 24" d="M172.546 253.09L248.988 253.09C260.74 253.09 270.267 262.617 270.267 274.369L270.267 610.09L151.267 610.09L151.267 274.369C151.267 262.617 160.794 253.09 172.546 253.09Z" fill="url(#paint_linear_69_464_0)" fill-opacity="1.000000" fill-rule="evenodd"/>
	<path id="Rectangle 27" d="M532.546 140.34L608.988 140.34C620.74 140.34 630.267 149.867 630.267 161.619L630.267 610.34L511.267 610.34L511.267 161.619C511.267 149.867 520.794 140.34 532.546 140.34Z" fill="url(#paint_linear_69_468_0)" fill-opacity="1.000000" fill-rule="evenodd"/>
	<path id="Line 9" d="M398.664 611.215L398.664 599.393" stroke="#000000" stroke-opacity="1.000000" stroke-width="1.182186" stroke-linecap="round"/>
	<path id="Line 8" d="M46.3726 500.34L34.5508 500.34" stroke="#000000" stroke-opacity="1.000000" stroke-width="1.182186" stroke-linecap="round"/>
	<path id="Line 11" d="M46.3726 390.34L34.5508 390.34" stroke="#000000" stroke-opacity="1.000000" stroke-width="1.182186" stroke-linecap="round"/>
	<path id="Line 12" d="M46.3726 280.34L34.5508 280.34" stroke="#000000" stroke-opacity="1.000000" stroke-width="1.182186" stroke-linecap="round"/>
	<path id="Line 13" d="M46.3726 170.34L34.5508 170.34" stroke="#000000" stroke-opacity="1.000000" stroke-width="1.182186" stroke-linecap="round"/>
	<path id="Ренгалін" d="M152.699 639.169Q154.848 639.169 156.428 639.885Q158.013 640.601 158.864 641.921Q159.722 643.235 159.722 645.035Q159.722 646.817 158.864 648.148Q158.013 649.474 156.428 650.179Q154.848 650.878 152.699 650.878L149.445 650.878L149.445 655.34L145.699 655.34L145.699 639.169L152.699 639.169ZM152.491 647.832Q154.177 647.832 155.051 647.105Q155.931 646.377 155.931 645.035Q155.931 643.675 155.051 642.948Q154.177 642.214 152.491 642.214L149.445 642.214L149.445 647.832L152.491 647.832ZM174.717 652.339L174.717 655.34L162.195 655.34L162.195 639.169L174.418 639.169L174.418 642.169L165.912 642.169L165.912 645.683L173.425 645.683L173.425 648.594L165.912 648.594L165.912 652.339L174.717 652.339ZM192.578 639.169L192.578 655.34L188.833 655.34L188.833 648.707L181.489 648.707L181.489 655.34L177.744 655.34L177.744 639.169L181.489 639.169L181.489 645.542L188.833 645.542L188.833 639.169L192.578 639.169ZM208.013 642.214L200.32 642.214L200.342 655.34L196.619 655.34L196.619 639.169L208.036 639.169L208.013 642.214ZM218.132 651.877L210.624 651.877L209.191 655.34L205.356 655.34L212.564 639.169L216.259 639.169L223.49 655.34L219.564 655.34L218.132 651.877ZM216.953 649.034L214.392 642.841L211.825 649.034L216.953 649.034ZM240.193 639.169L240.193 655.34L236.499 655.34L236.499 642.214L230.954 642.214L230.835 645.587Q230.723 649.034 230.283 651.172Q229.843 653.309 228.816 654.454Q227.79 655.594 225.94 655.594Q225.178 655.594 224.089 655.34L224.321 652.176Q224.625 652.266 224.992 652.266Q226.334 652.266 226.865 650.686Q227.395 649.101 227.536 645.728L227.767 639.169L240.193 639.169ZM244.236 639.169L247.958 639.169L247.958 655.34L244.236 655.34L244.236 639.169ZM266.81 639.169L266.81 655.34L263.064 655.34L263.064 648.707L255.721 648.707L255.721 655.34L251.975 655.34L251.975 639.169L255.721 639.169L255.721 645.542L263.064 645.542L263.064 639.169L266.81 639.169Z" fill="#E10920" fill-opacity="1.000000" fill-rule="evenodd"/>
	<path id="Плацебо" d="M524.95 639.169L524.95 655.34L521.227 655.34L521.227 642.214L513.929 642.214L513.929 655.34L510.206 655.34L510.206 639.169L524.95 639.169ZM543.267 639.169L543.267 655.34L539.573 655.34L539.573 642.214L534.028 642.214L533.91 645.587Q533.797 649.034 533.357 651.172Q532.917 653.309 531.891 654.454Q530.864 655.594 529.014 655.594Q528.252 655.594 527.164 655.34L527.395 652.176Q527.7 652.266 528.066 652.266Q529.409 652.266 529.939 650.686Q530.469 649.101 530.61 645.728L530.841 639.169L543.267 639.169ZM558.264 651.877L550.756 651.877L549.324 655.34L545.488 655.34L552.697 639.169L556.391 639.169L563.622 655.34L559.696 655.34L558.264 651.877ZM557.085 649.034L554.524 642.841L551.958 649.034L557.085 649.034ZM582.731 652.288L582.731 658.758L579.29 658.758L579.29 655.34L565.77 655.34L565.77 639.169L569.492 639.169L569.492 652.288L576.701 652.288L576.701 639.169L580.418 639.169L580.418 652.288L582.731 652.288ZM597.721 652.339L597.721 655.34L585.2 655.34L585.2 639.169L597.423 639.169L597.423 642.169L588.917 642.169L588.917 645.683L596.43 645.683L596.43 648.594L588.917 648.594L588.917 652.339L597.721 652.339ZM600.748 639.169L613.806 639.169L613.806 642.147L604.471 642.147L604.471 645.475L608.949 645.475Q611.888 645.475 613.422 646.699Q614.957 647.923 614.957 650.235Q614.957 652.661 613.248 654.003Q611.538 655.34 608.419 655.34L600.748 655.34L600.748 639.169ZM608.211 652.565Q609.643 652.565 610.405 652.001Q611.172 651.437 611.172 650.348Q611.172 648.222 608.211 648.222L604.471 648.222L604.471 652.565L608.211 652.565ZM625.52 655.616Q622.999 655.616 620.974 654.533Q618.955 653.445 617.81 651.538Q616.67 649.632 616.67 647.251Q616.67 644.877 617.81 642.97Q618.955 641.064 620.974 639.981Q622.999 638.892 625.52 638.892Q628.036 638.892 630.044 639.981Q632.058 641.064 633.208 642.97Q634.365 644.877 634.365 647.251Q634.365 649.632 633.208 651.538Q632.058 653.445 630.044 654.533Q628.036 655.616 625.52 655.616ZM625.52 652.429Q626.947 652.429 628.104 651.769Q629.26 651.109 629.92 649.936Q630.58 648.757 630.58 647.251Q630.58 645.751 629.92 644.572Q629.26 643.393 628.104 642.739Q626.947 642.079 625.52 642.079Q624.088 642.079 622.931 642.739Q621.775 643.393 621.115 644.572Q620.455 645.751 620.455 647.251Q620.455 648.757 621.115 649.936Q621.775 651.109 622.931 651.769Q624.088 652.429 625.52 652.429Z" fill="#737373" fill-opacity="1.000000" fill-rule="evenodd"/>
	<path id="0" d="M18.0073 617.455Q16.4741 617.455 15.2735 616.643Q14.0728 615.825 13.3986 614.306Q12.729 612.782 12.729 610.718Q12.729 608.658 13.3986 607.134Q14.0728 605.61 15.2735 604.798Q16.4741 603.985 18.0073 603.985Q19.5404 603.985 20.7411 604.798Q21.9417 605.61 22.6206 607.134Q23.304 608.658 23.304 610.718Q23.304 612.782 22.6206 614.306Q21.9417 615.825 20.7411 616.643Q19.5404 617.455 18.0073 617.455ZM18.0073 616.204Q19.1617 616.204 20.0391 615.562Q20.9212 614.92 21.4107 613.692Q21.9048 612.459 21.9048 610.718Q21.9048 608.981 21.4107 607.753Q20.9212 606.52 20.0391 605.878Q19.1617 605.236 18.0073 605.236Q16.8528 605.236 15.9708 605.878Q15.0934 606.52 14.5992 607.753Q14.1097 608.981 14.1097 610.718Q14.1097 612.459 14.5992 613.692Q15.0934 614.92 15.9708 615.562Q16.8528 616.204 18.0073 616.204Z" fill="#000000" fill-opacity="1.000000" fill-rule="evenodd"/>
	<path id="10" d="M9.57192 494.1L9.57192 507.34L8.20964 507.34L8.20964 495.31L5.08793 495.31L5.08793 494.1L9.57192 494.1ZM18.0073 507.455Q16.4741 507.455 15.2735 506.643Q14.0728 505.825 13.3986 504.306Q12.729 502.782 12.729 500.718Q12.729 498.658 13.3986 497.134Q14.0728 495.61 15.2735 494.798Q16.4741 493.985 18.0073 493.985Q19.5404 493.985 20.7411 494.798Q21.9417 495.61 22.6206 497.134Q23.304 498.658 23.304 500.718Q23.304 502.782 22.6206 504.306Q21.9417 505.825 20.7411 506.643Q19.5404 507.455 18.0073 507.455ZM18.0073 506.204Q19.1617 506.204 20.0391 505.562Q20.9212 504.92 21.4107 503.692Q21.9048 502.459 21.9048 500.718Q21.9048 498.981 21.4107 497.753Q20.9212 496.52 20.0391 495.878Q19.1617 495.236 18.0073 495.236Q16.8528 495.236 15.9708 495.878Q15.0934 496.52 14.5992 497.753Q14.1097 498.981 14.1097 500.718Q14.1097 502.459 14.5992 503.692Q15.0934 504.92 15.9708 505.562Q16.8528 506.204 18.0073 506.204Z" fill="#000000" fill-opacity="1.000000" fill-rule="evenodd"/>
	<path id="20" d="M11.1028 396.13L11.1028 397.34L1.81619 397.34L1.81619 396.375L7.32074 390.986Q8.35978 389.965 8.72921 389.217Q9.09864 388.469 9.09864 387.711Q9.09864 386.539 8.29513 385.887Q7.49161 385.236 5.9954 385.236Q3.66797 385.236 2.38419 386.709L1.41905 385.878Q2.19486 384.968 3.39552 384.479Q4.59618 383.985 6.11085 383.985Q8.1335 383.985 9.31568 384.941Q10.4979 385.897 10.4979 387.559Q10.4979 388.584 10.0407 389.531Q9.58814 390.473 8.32283 391.701L3.82037 396.13L11.1028 396.13ZM18.0073 397.455Q16.4741 397.455 15.2735 396.643Q14.0728 395.825 13.3986 394.306Q12.729 392.782 12.729 390.718Q12.729 388.658 13.3986 387.134Q14.0728 385.61 15.2735 384.798Q16.4741 383.985 18.0073 383.985Q19.5404 383.985 20.7411 384.798Q21.9417 385.61 22.6206 387.134Q23.304 388.658 23.304 390.718Q23.304 392.782 22.6206 394.306Q21.9417 395.825 20.7411 396.643Q19.5404 397.455 18.0073 397.455ZM18.0073 396.204Q19.1617 396.204 20.0391 395.562Q20.9212 394.92 21.4107 393.692Q21.9048 392.459 21.9048 390.718Q21.9048 388.981 21.4107 387.753Q20.9212 386.52 20.0391 385.878Q19.1617 385.236 18.0073 385.236Q16.8528 385.236 15.9708 385.878Q15.0934 386.52 14.5992 387.753Q14.1097 388.981 14.1097 390.718Q14.1097 392.459 14.5992 393.692Q15.0934 394.92 15.9708 395.562Q16.8528 396.204 18.0073 396.204Z" fill="#000000" fill-opacity="1.000000" fill-rule="evenodd"/>
	<path id="30" d="M6.56341 279.776Q8.64147 279.887 9.72668 280.898Q10.8165 281.909 10.8165 283.539Q10.8165 284.671 10.267 285.553Q9.72206 286.43 8.64147 286.943Q7.56549 287.455 6.01388 287.455Q4.5777 287.455 3.29854 286.993Q2.024 286.527 1.24819 285.751L1.90855 284.671Q2.57353 285.354 3.66797 285.779Q4.76704 286.204 6.01388 286.204Q7.63938 286.204 8.52602 285.497Q9.41728 284.786 9.41728 283.539Q9.41728 282.306 8.52602 281.609Q7.63938 280.907 5.84301 280.907L4.89634 280.907L4.89634 279.905L8.56758 275.31L1.79772 275.31L1.79772 274.1L10.3085 274.1L10.3085 275.065L6.56341 279.776ZM18.0073 287.455Q16.4741 287.455 15.2735 286.643Q14.0728 285.825 13.3986 284.306Q12.729 282.782 12.729 280.718Q12.729 278.658 13.3986 277.134Q14.0728 275.61 15.2735 274.798Q16.4741 273.985 18.0073 273.985Q19.5404 273.985 20.7411 274.798Q21.9417 275.61 22.6206 277.134Q23.304 278.658 23.304 280.718Q23.304 282.782 22.6206 284.306Q21.9417 285.825 20.7411 286.643Q19.5404 287.455 18.0073 287.455ZM18.0073 286.204Q19.1617 286.204 20.0391 285.562Q20.9212 284.92 21.4107 283.692Q21.9048 282.459 21.9048 280.718Q21.9048 278.981 21.4107 277.753Q20.9212 276.52 20.0391 275.878Q19.1617 275.236 18.0073 275.236Q16.8528 275.236 15.9708 275.878Q15.0934 276.52 14.5992 277.753Q14.1097 278.981 14.1097 280.718Q14.1097 282.459 14.5992 283.692Q15.0934 284.92 15.9708 285.562Q16.8528 286.204 18.0073 286.204Z" fill="#000000" fill-opacity="1.000000" fill-rule="evenodd"/>
	<path id="40" d="M11.48 173.858L8.83398 173.858L8.83398 177.34L7.4717 177.34L7.4717 173.858L-9.10759e-05 173.858L-9.10759e-05 172.874L7.01452 164.1L8.5292 164.1L1.75933 172.648L7.50864 172.648L7.50864 169.586L8.83398 169.586L8.83398 172.648L11.48 172.648L11.48 173.858ZM18.0073 177.455Q16.4741 177.455 15.2735 176.643Q14.0728 175.825 13.3986 174.306Q12.729 172.782 12.729 170.718Q12.729 168.658 13.3986 167.134Q14.0728 165.61 15.2735 164.798Q16.4741 163.985 18.0073 163.985Q19.5404 163.985 20.7411 164.798Q21.9417 165.61 22.6206 167.134Q23.304 168.658 23.304 170.718Q23.304 172.782 22.6206 174.306Q21.9417 175.825 20.7411 176.643Q19.5404 177.455 18.0073 177.455ZM18.0073 176.204Q19.1617 176.204 20.0391 175.562Q20.9212 174.92 21.4107 173.692Q21.9048 172.459 21.9048 170.718Q21.9048 168.981 21.4107 167.753Q20.9212 166.52 20.0391 165.878Q19.1617 165.236 18.0073 165.236Q16.8528 165.236 15.9708 165.878Q15.0934 166.52 14.5992 167.753Q14.1097 168.981 14.1097 170.718Q14.1097 172.459 14.5992 173.692Q15.0934 174.92 15.9708 175.562Q16.8528 176.204 18.0073 176.204Z" fill="#000000" fill-opacity="1.000000" fill-rule="evenodd"/>
	<path id="50" d="M5.50502 59.5263Q8.37736 59.5263 9.69347 60.5607Q11.0096 61.5905 11.0096 63.4423Q11.0096 64.5968 10.4693 65.5065Q9.92898 66.4116 8.84839 66.9335Q7.77241 67.4553 6.20232 67.4553Q4.78462 67.4553 3.50546 66.9935Q2.23092 66.5271 1.45511 65.7513L2.11547 64.6707Q2.78045 65.3541 3.85642 65.779Q4.93701 66.2038 6.18385 66.2038Q7.82783 66.2038 8.72832 65.4696Q9.62882 64.7307 9.62882 63.5024Q9.62882 62.1401 8.61287 61.4381Q7.60155 60.7362 5.20023 60.7362L2.38331 60.7362L3.06214 54.1003L10.3076 54.1003L10.3076 55.3102L4.25356 55.3102L3.80101 59.5263L5.50502 59.5263ZM18.0073 67.4553Q16.4741 67.4553 15.2735 66.6425Q14.0728 65.8252 13.3986 64.3059Q12.729 62.782 12.729 60.7178Q12.729 58.6582 13.3986 57.1343Q14.0728 55.6103 15.2735 54.7976Q16.4741 53.9848 18.0073 53.9848Q19.5404 53.9848 20.7411 54.7976Q21.9417 55.6103 22.6206 57.1343Q23.304 58.6582 23.304 60.7178Q23.304 62.782 22.6206 64.3059Q21.9417 65.8252 20.7411 66.6425Q19.5404 67.4553 18.0073 67.4553ZM18.0073 66.2038Q19.1617 66.2038 20.0391 65.562Q20.9212 64.9201 21.4107 63.6917Q21.9048 62.4587 21.9048 60.7178Q21.9048 58.9814 21.4107 57.7531Q20.9212 56.5201 20.0391 55.8782Q19.1617 55.2363 18.0073 55.2363Q16.8528 55.2363 15.9708 55.8782Q15.0934 56.5201 14.5992 57.7531Q14.1097 58.9814 14.1097 60.7178Q14.1097 62.4587 14.5992 63.6917Q15.0934 64.9201 15.9708 65.562Q16.8528 66.2038 18.0073 66.2038Z" fill="#000000" fill-opacity="1.000000" fill-rule="evenodd"/>
	<path id="%" d="M26.1763 16.3435Q22.9864 16.3435 21.0227 14.0888Q19.0693 11.8341 19.0693 8.17668Q19.0693 4.5089 21.0227 2.25421Q22.9864 -0.000490189 26.1763 -0.000490189Q29.3661 -0.000490189 31.3402 2.23343Q33.3248 4.46734 33.3248 8.17668Q33.3248 11.8756 31.3402 14.1095Q29.3661 16.3435 26.1763 16.3435ZM44.058 0.300829L48.2245 0.300829L27.8803 30.0898L23.7138 30.0898L44.058 0.300829ZM26.1763 13.3614Q27.9218 13.3614 28.8777 12.0003Q29.8337 10.6392 29.8337 8.17668Q29.8337 5.70379 28.8777 4.34266Q27.9218 2.98153 26.1763 2.98153Q24.5138 2.98153 23.5163 4.36344Q22.5189 5.74535 22.5189 8.17668Q22.5189 10.5976 23.5163 11.9795Q24.5138 13.3614 26.1763 13.3614ZM45.71 30.3912Q42.5202 30.3912 40.5565 28.1365Q38.6031 25.8714 38.6031 22.214Q38.6031 18.5566 40.5565 16.3019Q42.5202 14.0472 45.71 14.0472Q48.8999 14.0472 50.874 16.3019Q52.8586 18.5566 52.8586 22.214Q52.8586 25.8714 50.874 28.1365Q48.8999 30.3912 45.71 30.3912ZM45.71 27.4091Q47.4141 27.4091 48.3907 26.0272Q49.3778 24.6453 49.3778 22.214Q49.3778 19.793 48.3907 18.4111Q47.4141 17.0292 45.71 17.0292Q44.006 17.0292 43.0293 18.3904Q42.0527 19.7515 42.0527 22.214Q42.0527 24.6869 43.0293 26.048Q44.006 27.4091 45.71 27.4091Z" fill="#000000" fill-opacity="1.000000" fill-rule="evenodd"/>
	<path id="p=0.04" d="M366.197 697.502Q368.042 697.502 369.507 698.316Q370.972 699.131 371.798 700.596Q372.625 702.061 372.625 703.982Q372.625 705.898 371.798 707.375Q370.972 708.852 369.507 709.672Q368.042 710.486 366.197 710.486Q364.826 710.486 363.683 709.959Q362.546 709.426 361.755 708.418L361.755 714.998L359.453 714.998L359.453 697.619L361.662 697.619L361.662 699.635Q362.429 698.58 363.601 698.041Q364.779 697.502 366.197 697.502ZM366.003 708.471Q367.228 708.471 368.201 707.908Q369.173 707.34 369.736 706.32Q370.298 705.301 370.298 703.982Q370.298 702.658 369.736 701.639Q369.173 700.619 368.201 700.068Q367.228 699.518 366.003 699.518Q364.802 699.518 363.83 700.08Q362.857 700.643 362.294 701.65Q361.732 702.658 361.732 703.982Q361.732 705.301 362.283 706.32Q362.833 707.34 363.818 707.908Q364.802 708.471 366.003 708.471ZM375.241 698.146L385.993 698.146L385.993 700.045L375.241 700.045L375.241 698.146ZM375.241 703.836L385.993 703.836L385.993 705.734L375.241 705.734L375.241 703.836ZM395.619 710.533Q393.627 710.533 392.08 709.514Q390.533 708.494 389.642 706.549Q388.757 704.604 388.757 701.938Q388.757 699.277 389.642 697.332Q390.533 695.387 392.08 694.367Q393.627 693.348 395.619 693.348Q397.587 693.348 399.134 694.367Q400.681 695.387 401.566 697.332Q402.457 699.277 402.457 701.938Q402.457 704.604 401.566 706.549Q400.681 708.494 399.134 709.514Q397.587 710.533 395.619 710.533ZM395.619 708.395Q397.634 708.395 398.847 706.742Q400.06 705.084 400.06 701.938Q400.06 698.797 398.847 697.145Q397.634 695.486 395.619 695.486Q393.58 695.486 392.367 697.145Q391.154 698.797 391.154 701.938Q391.154 705.084 392.367 706.742Q393.58 708.395 395.619 708.395ZM406.059 710.486Q405.386 710.486 404.905 710.018Q404.425 709.549 404.425 708.828Q404.425 708.131 404.905 707.662Q405.386 707.193 406.059 707.193Q406.733 707.193 407.184 707.65Q407.641 708.107 407.641 708.828Q407.641 709.549 407.173 710.018Q406.71 710.486 406.059 710.486ZM416.499 710.533Q414.507 710.533 412.96 709.514Q411.413 708.494 410.522 706.549Q409.637 704.604 409.637 701.938Q409.637 699.277 410.522 697.332Q411.413 695.387 412.96 694.367Q414.507 693.348 416.499 693.348Q418.467 693.348 420.014 694.367Q421.561 695.387 422.446 697.332Q423.337 699.277 423.337 701.938Q423.337 704.604 422.446 706.549Q421.561 708.494 420.014 709.514Q418.467 710.533 416.499 710.533ZM416.499 708.395Q418.514 708.395 419.727 706.742Q420.94 705.084 420.94 701.938Q420.94 698.797 419.727 697.145Q418.514 695.486 416.499 695.486Q414.46 695.486 413.247 697.145Q412.034 698.797 412.034 701.938Q412.034 705.084 413.247 706.742Q414.46 708.395 416.499 708.395ZM440.259 706.209L437.065 706.209L437.065 710.34L434.739 710.34L434.739 706.209L425.405 706.209L425.405 704.533L433.995 693.541L436.585 693.541L428.352 704.146L434.809 704.146L434.809 700.502L437.065 700.502L437.065 704.146L440.259 704.146L440.259 706.209Z" fill="#000000" fill-opacity="1.000000" fill-rule="evenodd"/>
	<path id="Polygon 8" d="M211.267 250.09L318.654 157.09L103.88 157.09L211.267 250.09Z" fill="url(#paint_linear_69_539_0)" fill-opacity="1.000000" fill-rule="evenodd"/>
	<path id="20%" d="M194.666 192.625L194.666 198.09L172.775 198.09L172.775 193.746L183.948 183.19Q185.726 181.503 186.342 180.281Q186.968 179.058 186.968 177.856Q186.968 176.119 185.786 175.189Q184.614 174.26 182.331 174.26Q180.432 174.26 178.897 174.987Q177.371 175.704 176.331 177.149L171.452 174.007Q173.149 171.482 176.129 170.058Q179.109 168.633 182.958 168.633Q186.18 168.633 188.605 169.694Q191.029 170.745 192.372 172.664Q193.716 174.583 193.716 177.2Q193.716 179.553 192.716 181.624Q191.726 183.695 188.877 186.342L182.21 192.625L194.666 192.625ZM209.772 198.585Q206.166 198.585 203.347 196.807Q200.539 195.029 198.943 191.655Q197.357 188.281 197.357 183.604Q197.357 178.937 198.943 175.563Q200.539 172.189 203.347 170.411Q206.166 168.633 209.772 168.633Q213.368 168.633 216.177 170.411Q218.995 172.189 220.581 175.563Q222.177 178.937 222.177 183.604Q222.177 188.281 220.581 191.655Q218.995 195.029 216.177 196.807Q213.368 198.585 209.772 198.585ZM209.772 192.918Q212.419 192.918 213.924 190.645Q215.439 188.362 215.439 183.604Q215.439 178.846 213.924 176.573Q212.419 174.3 209.772 174.3Q207.156 174.3 205.641 176.573Q204.135 178.846 204.135 183.604Q204.135 188.362 205.641 190.645Q207.156 192.918 209.772 192.918ZM232.149 184.766Q228.967 184.766 226.957 182.594Q224.957 180.422 224.957 176.785Q224.957 173.139 226.957 170.967Q228.967 168.795 232.149 168.795Q235.341 168.795 237.321 170.967Q239.311 173.139 239.311 176.785Q239.311 180.422 237.321 182.594Q235.341 184.766 232.149 184.766ZM249.403 169.128L254.333 169.128L234.553 198.09L229.624 198.09L249.403 169.128ZM232.149 181.372Q233.563 181.372 234.361 180.22Q235.17 179.058 235.17 176.785Q235.17 174.502 234.361 173.351Q233.563 172.189 232.149 172.189Q230.785 172.189 229.957 173.371Q229.129 174.543 229.129 176.785Q229.129 179.018 229.957 180.2Q230.785 181.372 232.149 181.372ZM251.807 198.423Q249.736 198.423 248.1 197.453Q246.473 196.474 245.554 194.655Q244.645 192.837 244.645 190.433Q244.645 188.039 245.554 186.22Q246.473 184.392 248.1 183.422Q249.736 182.452 251.807 182.452Q254.989 182.452 256.999 184.624Q259.01 186.796 259.01 190.433Q259.01 194.079 256.999 196.251Q254.989 198.423 251.807 198.423ZM251.807 195.029Q253.211 195.029 254.019 193.847Q254.827 192.665 254.827 190.433Q254.827 188.2 254.019 187.029Q253.211 185.847 251.807 185.847Q250.443 185.847 249.615 187.008Q248.787 188.16 248.787 190.433Q248.787 192.716 249.615 193.877Q250.443 195.029 251.807 195.029Z" fill="#E10920" fill-opacity="1.000000" fill-rule="evenodd"/>
	<line id="Line 27" x1="617.267090" y1="141.589844" x2="46.267090" y2="141.589844" stroke="#CE3A3A" stroke-opacity="1.000000" stroke-width="1.000000"/>
</svg>
