<svg width="1129.186523" height="690.000000" viewBox="0 0 1129.19 690" fill="none" xmlns="http://www.w3.org/2000/svg">
	<desc>
			Created with Pixso.
	</desc>
	<defs>
		<linearGradient id="paint_linear_81_4887_0" x1="622.000000" y1="644.000000" x2="622.000000" y2="717.423096" gradientUnits="userSpaceOnUse">
			<stop stop-color="#BBBBBB"/>
			<stop offset="1.000000" stop-color="#BBBBBB" stop-opacity="0.000000"/>
		</linearGradient>
		<linearGradient id="paint_linear_81_4890_0" x1="348.898224" y1="626.897400" x2="345.193268" y2="687.659058" gradientUnits="userSpaceOnUse">
			<stop stop-color="#039E00"/>
			<stop offset="1.000000" stop-color="#9FFFA8"/>
		</linearGradient>
		<linearGradient id="paint_linear_81_4906_0" x1="343.500000" y1="82.000000" x2="343.500000" y2="781.115417" gradientUnits="userSpaceOnUse">
			<stop stop-color="#BBBBBB"/>
			<stop offset="1.000000" stop-color="#BBBBBB" stop-opacity="0.000000"/>
		</linearGradient>
		<linearGradient id="paint_linear_81_4957_0" x1="673.500000" y1="159.000000" x2="673.500000" y2="735.211548" gradientUnits="userSpaceOnUse">
			<stop stop-color="#BBBBBB"/>
			<stop offset="1.000000" stop-color="#BBBBBB" stop-opacity="0.000000"/>
		</linearGradient>
		<linearGradient id="paint_linear_81_4961_0" x1="998.500000" y1="129.000000" x2="998.500000" y2="753.096130" gradientUnits="userSpaceOnUse">
			<stop stop-color="#BBBBBB"/>
			<stop offset="1.000000" stop-color="#BBBBBB" stop-opacity="0.000000"/>
		</linearGradient>
		<linearGradient id="paint_linear_81_4907_0" x1="224.585709" y1="-126.115387" x2="215.000061" y2="496.030487" gradientUnits="userSpaceOnUse">
			<stop stop-color="#039E00"/>
			<stop offset="1.000000" stop-color="#9FFFA8"/>
		</linearGradient>
		<linearGradient id="paint_linear_81_4958_0" x1="554.585510" y1="212.717957" x2="545.000061" y2="508.600525" gradientUnits="userSpaceOnUse">
			<stop stop-color="#039E00"/>
			<stop offset="1.000000" stop-color="#9FFFA8"/>
		</linearGradient>
		<linearGradient id="paint_linear_81_4962_0" x1="879.584778" y1="230.551270" x2="870.000000" y2="509.262085" gradientUnits="userSpaceOnUse">
			<stop stop-color="#039E00"/>
			<stop offset="1.000000" stop-color="#9FFFA8"/>
		</linearGradient>
		<linearGradient id="paint_linear_81_4938_0" x1="467.033875" y1="552.076904" x2="465.100830" y2="583.778625" gradientUnits="userSpaceOnUse">
			<stop stop-color="#039E00"/>
			<stop offset="1.000000" stop-color="#9FFFA8"/>
		</linearGradient>
		<linearGradient id="paint_linear_81_4956_0" x1="776.033936" y1="552.076904" x2="774.100891" y2="583.778625" gradientUnits="userSpaceOnUse">
			<stop stop-color="#039E00"/>
			<stop offset="1.000000" stop-color="#9FFFA8"/>
		</linearGradient>
	</defs>
	<path id="Плацебо" d="M686.357 659.001L686.357 680L683.42 680L683.42 661.609L671.24 661.609L671.24 680L668.267 680L668.267 659.001L686.357 659.001ZM706.073 664.099L706.073 680L703.187 680L703.187 666.619L696.354 666.619L696.171 670.164Q696.017 673.372 695.599 675.518Q695.182 677.664 694.222 678.953Q693.263 680.242 691.549 680.242Q690.773 680.242 689.776 679.971L689.96 677.539Q690.348 677.627 690.677 677.627Q691.879 677.627 692.479 676.58Q693.08 675.532 693.255 674.089Q693.439 672.646 693.592 669.98L693.863 664.099L706.073 664.099ZM717.319 663.953Q720.623 663.953 722.373 665.571Q724.131 667.19 724.131 670.398L724.131 680L721.399 680L721.399 677.898Q720.681 679.011 719.341 679.597Q718.008 680.183 716.184 680.183Q713.511 680.183 711.907 678.894Q710.303 677.598 710.303 675.503Q710.303 673.401 711.834 672.126Q713.364 670.852 716.69 670.852L721.253 670.852L721.253 670.281Q721.253 668.42 720.169 667.432Q719.092 666.443 716.99 666.443Q715.584 666.443 714.229 666.912Q712.881 667.373 711.951 668.149L710.75 665.989Q711.98 665 713.687 664.48Q715.401 663.953 717.319 663.953ZM716.66 677.957Q718.308 677.957 719.509 677.224Q720.711 676.492 721.253 675.137L721.253 672.917L716.814 672.917Q713.152 672.917 713.152 675.378Q713.152 676.58 714.082 677.268Q715.012 677.957 716.66 677.957ZM746.298 677.48L746.298 683.809L743.573 683.809L743.573 680L729.321 680L729.321 664.099L732.199 664.099L732.199 677.48L740.9 677.48L740.9 664.099L743.779 664.099L743.779 677.48L746.298 677.48ZM764.391 672.141Q764.391 672.471 764.332 673.013L751.427 673.013Q751.698 675.107 753.272 676.389Q754.847 677.664 757.191 677.664Q760.04 677.664 761.776 675.737L763.365 677.598Q762.289 678.857 760.685 679.524Q759.081 680.183 757.096 680.183Q754.576 680.183 752.628 679.15Q750.68 678.11 749.61 676.25Q748.548 674.39 748.548 672.053Q748.548 669.739 749.581 667.878Q750.621 666.018 752.43 664.985Q754.247 663.953 756.532 663.953Q758.81 663.953 760.589 664.985Q762.376 666.018 763.38 667.878Q764.391 669.739 764.391 672.141ZM756.532 666.377Q754.459 666.377 753.06 667.637Q751.668 668.896 751.427 670.94L761.629 670.94Q761.388 668.933 759.989 667.659Q758.597 666.377 756.532 666.377ZM776.961 664.641Q779.18 664.641 780.916 665.63Q782.659 666.619 783.633 668.376Q784.608 670.127 784.608 672.383Q784.608 674.69 783.575 676.477Q782.542 678.257 780.667 679.253Q778.792 680.242 776.39 680.242Q772.34 680.242 770.135 677.466Q767.93 674.69 767.93 669.651Q767.93 664.758 769.937 661.982Q771.951 659.207 776.09 658.313L783.348 656.687L783.773 659.331L777.078 660.767Q773.958 661.462 772.427 663.11Q770.897 664.758 770.692 667.849Q771.71 666.318 773.328 665.483Q774.947 664.641 776.961 664.641ZM776.448 677.839Q777.979 677.839 779.166 677.151Q780.352 676.462 781.011 675.247Q781.671 674.031 781.671 672.471Q781.671 670.098 780.228 668.662Q778.792 667.219 776.448 667.219Q774.112 667.219 772.654 668.662Q771.197 670.098 771.197 672.471Q771.197 674.031 771.871 675.247Q772.552 676.462 773.746 677.151Q774.947 677.839 776.448 677.839ZM795.532 680.183Q793.159 680.183 791.269 679.136Q789.38 678.081 788.31 676.235Q787.248 674.39 787.248 672.053Q787.248 669.709 788.31 667.864Q789.38 666.018 791.269 664.985Q793.159 663.953 795.532 663.953Q797.898 663.953 799.773 664.985Q801.648 666.018 802.71 667.864Q803.779 669.709 803.779 672.053Q803.779 674.39 802.71 676.235Q801.648 678.081 799.773 679.136Q797.898 680.183 795.532 680.183ZM795.532 677.664Q797.055 677.664 798.271 676.96Q799.487 676.25 800.176 674.976Q800.871 673.701 800.871 672.053Q800.871 670.398 800.176 669.124Q799.487 667.849 798.271 667.161Q797.055 666.472 795.532 666.472Q794.001 666.472 792.785 667.161Q791.57 667.849 790.859 669.124Q790.156 670.398 790.156 672.053Q790.156 673.701 790.859 674.976Q791.57 676.25 792.785 676.96Q794.001 677.664 795.532 677.664Z" fill="#000000" fill-opacity="1.000000" fill-rule="evenodd"/>
	<rect id="Rectangle 26" x="599.000000" y="644.000000" rx="12.000000" width="46.000000" height="46.000000" fill="url(#paint_linear_81_4887_0)" fill-opacity="1.000000"/>
	<path id="ТЕНОТЕН" d="M405.703 661.609L398.503 661.609L398.503 680L395.559 680L395.559 661.609L388.388 661.609L388.388 659.001L405.703 659.001L405.703 661.609ZM424.598 677.393L424.598 680L409.357 680L409.357 659.001L424.173 659.001L424.173 661.609L412.36 661.609L412.36 668.062L422.884 668.062L422.884 670.61L412.36 670.61L412.36 677.393L424.598 677.393ZM447.368 659.001L447.368 680L444.365 680L444.365 670.64L432.31 670.64L432.31 680L429.307 680L429.307 659.001L432.31 659.001L432.31 668.032L444.365 668.032L444.365 659.001L447.368 659.001ZM463.355 680.242Q460.176 680.242 457.627 678.85Q455.078 677.451 453.621 674.99Q452.171 672.529 452.171 669.497Q452.171 666.472 453.621 664.011Q455.078 661.55 457.627 660.159Q460.176 658.76 463.355 658.76Q466.504 658.76 469.053 660.159Q471.609 661.55 473.045 663.997Q474.488 666.443 474.488 669.497Q474.488 672.559 473.045 675.005Q471.609 677.451 469.053 678.85Q466.504 680.242 463.355 680.242ZM463.355 677.568Q465.669 677.568 467.515 676.521Q469.361 675.474 470.423 673.628Q471.485 671.782 471.485 669.497Q471.485 667.219 470.423 665.374Q469.361 663.528 467.515 662.48Q465.669 661.433 463.355 661.433Q461.048 661.433 459.173 662.48Q457.298 663.528 456.228 665.374Q455.166 667.219 455.166 669.497Q455.166 671.782 456.228 673.628Q457.298 675.474 459.173 676.521Q461.048 677.568 463.355 677.568ZM493.483 661.609L486.283 661.609L486.283 680L483.339 680L483.339 661.609L476.168 661.609L476.168 659.001L493.483 659.001L493.483 661.609ZM512.378 677.393L512.378 680L497.137 680L497.137 659.001L511.953 659.001L511.953 661.609L500.14 661.609L500.14 668.062L510.664 668.062L510.664 670.61L500.14 670.61L500.14 677.393L512.378 677.393ZM535.148 659.001L535.148 680L532.145 680L532.145 670.64L520.09 670.64L520.09 680L517.087 680L517.087 659.001L520.09 659.001L520.09 668.032L532.145 668.032L532.145 659.001L535.148 659.001Z" fill="#000000" fill-opacity="1.000000" fill-rule="evenodd"/>
	<rect id="Rectangle 26" x="322.000000" y="644.000000" rx="12.000000" width="46.000000" height="46.000000" fill="url(#paint_linear_81_4890_0)" fill-opacity="1.000000"/>
	<path id="БАЛИ" d="M8.50122 256.278L8.50122 243.076L10.6252 243.076L10.6252 253.8L15.624 253.8L15.624 248.349Q15.624 245.224 16.9241 243.601Q18.2241 241.977 20.6777 241.977Q23.2473 241.977 24.6267 243.741Q26 245.499 26 248.777L26 256.278L8.50122 256.278ZM24.0225 248.874Q24.0225 246.726 23.1985 245.603Q22.3745 244.474 20.7754 244.474Q17.6016 244.474 17.6016 248.874L17.6016 253.8L24.0225 253.8L24.0225 248.874ZM21.6238 226.701L21.6238 236.003L26 237.925L26 240.501L8.50122 232.579L8.50122 230.101L26 222.154L26 224.778L21.6238 226.701ZM19.6279 227.574L11.0525 231.352L19.6279 235.124L19.6279 227.574ZM8.50122 204.752L26 204.752L26 207.2L10.6741 207.2L10.6741 214.951L15.801 215.122Q19.4265 215.25 21.6787 215.714Q23.9248 216.172 25.0662 217.173Q26.2014 218.174 26.2014 219.877Q26.2014 220.652 26 221.452L23.7722 221.275Q23.876 220.878 23.876 220.475Q23.876 219.401 23.0154 218.754Q22.1487 218.101 20.4275 217.777Q18.7002 217.448 15.8743 217.35L8.50122 217.075L8.50122 204.752ZM8.50122 199.303L8.50122 196.825L22.0022 196.825L8.50122 186.473L8.50122 184.172L26 184.172L26 186.626L12.5234 186.626L26 197.002L26 199.303L8.50122 199.303Z" fill="#000000" fill-opacity="1.000000" fill-rule="evenodd"/>
	<path id="Line 2" d="M96.1826 20L96.1826 522L93.8174 522L93.8174 20L96.1826 20ZM95 21.6719L89.1484 27.5234C88.6807 27.9922 87.9443 27.9922 87.4766 27.5234C87.0088 27.0547 87.0088 26.3203 87.4766 25.8516L94.1641 19.1641C94.6318 18.6953 95.3682 18.6953 95.8359 19.1641L102.523 25.8516C102.991 26.3203 102.991 27.0547 102.523 27.5234C102.056 27.9922 101.319 27.9922 100.852 27.5234L95 21.6719Z" fill="#000000" fill-opacity="1.000000" fill-rule="evenodd"/>
	<path id="Line 3" d="M1128 523.182L95 523.182L95 520.818L1128 520.818L1128 523.182ZM1126.33 522L1120.48 516.148C1120.01 515.68 1120.01 514.945 1120.48 514.477C1120.94 514.008 1121.68 514.008 1122.15 514.477L1128.84 521.164C1129.3 521.633 1129.3 522.367 1128.84 522.836L1122.15 529.523C1121.68 529.992 1120.94 529.992 1120.48 529.523C1120.01 529.055 1120.01 528.32 1120.48 527.852L1126.33 522Z" fill="#000000" fill-opacity="1.000000" fill-rule="evenodd"/>
	<path id="Rectangle 25" d="M305.279 82L381.721 82C393.473 82 403 91.5273 403 103.279L403 520L284 520L284 103.279C284 91.5273 293.527 82 305.279 82Z" fill="url(#paint_linear_81_4906_0)" fill-opacity="1.000000" fill-rule="evenodd"/>
	<path id="Rectangle 27" d="M635.279 159L711.721 159C723.473 159 733 168.527 733 180.279L733 520L614 520L614 180.279C614 168.527 623.527 159 635.279 159Z" fill="url(#paint_linear_81_4957_0)" fill-opacity="1.000000" fill-rule="evenodd"/>
	<path id="Rectangle 29" d="M960.279 129L1036.72 129C1048.47 129 1058 138.527 1058 150.279L1058 520L939 520L939 150.279C939 138.527 948.527 129 960.279 129Z" fill="url(#paint_linear_81_4961_0)" fill-opacity="1.000000" fill-rule="evenodd"/>
	<path id="Rectangle 26" d="M176.279 49L252.721 49C264.473 49 274 58.5273 274 70.2793L274 520L155 520L155 70.2793C155 58.5273 164.527 49 176.279 49Z" fill="url(#paint_linear_81_4907_0)" fill-opacity="1.000000" fill-rule="evenodd"/>
	<path id="Rectangle 28" d="M506.279 296L582.721 296C594.473 296 604 305.527 604 317.279L604 520L485 520L485 317.279C485 305.527 494.527 296 506.279 296Z" fill="url(#paint_linear_81_4958_0)" fill-opacity="1.000000" fill-rule="evenodd"/>
	<path id="Rectangle 30" d="M831.279 309L907.721 309C919.473 309 929 318.527 929 330.279L929 520L810 520L810 330.279C810 318.527 819.527 309 831.279 309Z" fill="url(#paint_linear_81_4962_0)" fill-opacity="1.000000" fill-rule="evenodd"/>
	<path id="27,28" d="M186.753 32.3772L186.753 37L168.236 37L168.236 33.3257L177.687 24.3962Q179.191 22.9692 179.712 21.9353Q180.242 20.9014 180.242 19.8845Q180.242 18.4148 179.242 17.6287Q178.251 16.8425 176.32 16.8425Q174.713 16.8425 173.414 17.4578Q172.124 18.0645 171.244 19.2864L167.117 16.6289Q168.552 14.4927 171.073 13.2878Q173.594 12.083 176.849 12.083Q179.575 12.083 181.626 12.9802Q183.677 13.8689 184.813 15.4924Q185.95 17.116 185.95 19.3291Q185.95 21.3201 185.104 23.0718Q184.266 24.8235 181.857 27.0623L176.217 32.3772L186.753 32.3772ZM208.204 12.5017L208.204 16.176L199.104 37L192.943 37L201.736 17.116L193.61 17.116L193.61 21.1064L188.568 21.1064L188.568 12.5017L208.204 12.5017ZM212.27 30.4888Q213.74 30.4888 214.68 31.4202Q215.628 32.343 215.628 33.8469Q215.628 34.5476 215.449 35.2483Q215.278 35.949 214.68 37.3503L212.689 42.3918L209.22 42.3918L210.766 36.8291Q209.886 36.4788 209.374 35.6926Q208.869 34.8979 208.869 33.8469Q208.869 32.343 209.835 31.4202Q210.801 30.4888 212.27 30.4888ZM236.838 32.3772L236.838 37L218.321 37L218.321 33.3257L227.772 24.3962Q229.276 22.9692 229.797 21.9353Q230.327 20.9014 230.327 19.8845Q230.327 18.4148 229.327 17.6287Q228.336 16.8425 226.405 16.8425Q224.798 16.8425 223.499 17.4578Q222.209 18.0645 221.329 19.2864L217.202 16.6289Q218.637 14.4927 221.158 13.2878Q223.679 12.083 226.934 12.083Q229.66 12.083 231.711 12.9802Q233.762 13.8689 234.898 15.4924Q236.035 17.116 236.035 19.3291Q236.035 21.3201 235.189 23.0718Q234.351 24.8235 231.942 27.0623L226.302 32.3772L236.838 32.3772ZM255.95 24.1228Q257.77 25.0286 258.727 26.4983Q259.693 27.968 259.693 29.8992Q259.693 32.1721 258.394 33.8726Q257.103 35.5645 254.754 36.4958Q252.412 37.4187 249.336 37.4187Q246.251 37.4187 243.919 36.4958Q241.594 35.5645 240.313 33.8726Q239.039 32.1721 239.039 29.8992Q239.039 27.968 240.005 26.4983Q240.971 25.0286 242.756 24.1228Q241.389 23.2769 240.654 22.0037Q239.92 20.7219 239.92 19.0813Q239.92 16.9451 241.107 15.3728Q242.295 13.792 244.431 12.9375Q246.568 12.083 249.336 12.083Q252.13 12.083 254.284 12.9375Q256.437 13.792 257.625 15.3728Q258.821 16.9451 258.821 19.0813Q258.821 20.7219 258.086 22.0037Q257.351 23.2769 255.95 24.1228ZM249.336 16.2444Q247.619 16.2444 246.585 17.0732Q245.551 17.8936 245.551 19.3291Q245.551 20.7219 246.568 21.5337Q247.584 22.3369 249.336 22.3369Q251.079 22.3369 252.13 21.5337Q253.181 20.7219 253.181 19.3291Q253.181 17.8936 252.13 17.0732Q251.079 16.2444 249.336 16.2444ZM249.336 33.2573Q251.464 33.2573 252.703 32.2917Q253.95 31.3262 253.95 29.7197Q253.95 28.1133 252.703 27.1648Q251.464 26.2163 249.336 26.2163Q247.234 26.2163 246.004 27.1648Q244.782 28.1133 244.782 29.7197Q244.782 31.3689 246.004 32.3174Q247.234 33.2573 249.336 33.2573Z" fill="#19A056" fill-opacity="1.000000" fill-rule="evenodd"/>
	<path id="14,73" d="M510.158 258.502L510.158 283L504.484 283L504.484 263.048L499.588 263.048L499.588 258.502L510.158 258.502ZM536.858 277.856L532.867 277.856L532.867 283L527.339 283L527.339 277.856L514.145 277.856L514.145 274.036L525.698 258.502L531.645 258.502L520.938 273.233L527.518 273.233L527.518 268.653L532.867 268.653L532.867 273.233L536.858 273.233L536.858 277.856ZM542.498 276.489Q543.968 276.489 544.907 277.42Q545.856 278.343 545.856 279.847Q545.856 280.548 545.677 281.248Q545.506 281.949 544.907 283.35L542.917 288.392L539.447 288.392L540.994 282.829Q540.114 282.479 539.601 281.693Q539.097 280.898 539.097 279.847Q539.097 278.343 540.062 277.42Q541.028 276.489 542.498 276.489ZM567.027 258.502L567.027 262.176L557.927 283L551.766 283L560.558 263.116L552.432 263.116L552.432 267.106L547.391 267.106L547.391 258.502L567.027 258.502ZM580.749 268.474Q583.97 269.003 585.679 270.875Q587.397 272.746 587.397 275.506Q587.397 277.642 586.277 279.445Q585.158 281.248 582.868 282.333Q580.578 283.419 577.254 283.419Q574.656 283.419 572.153 282.735Q569.658 282.052 567.906 280.795L570.11 276.455Q571.512 277.506 573.349 278.087Q575.186 278.659 577.109 278.659Q579.245 278.659 580.467 277.839Q581.697 277.019 581.697 275.506Q581.697 272.498 577.109 272.498L574.52 272.498L574.52 268.756L579.561 263.048L569.128 263.048L569.128 258.502L586.277 258.502L586.277 262.176L580.749 268.474Z" fill="#19A056" fill-opacity="1.000000" fill-rule="evenodd"/>
	<path id="14,13" d="M839.025 270.502L839.025 295L833.352 295L833.352 275.048L828.455 275.048L828.455 270.502L839.025 270.502ZM865.725 289.856L861.735 289.856L861.735 295L856.206 295L856.206 289.856L843.013 289.856L843.013 286.036L854.565 270.502L860.513 270.502L849.806 285.233L856.385 285.233L856.385 280.653L861.735 280.653L861.735 285.233L865.725 285.233L865.725 289.856ZM871.365 288.489Q872.835 288.489 873.775 289.42Q874.723 290.343 874.723 291.847Q874.723 292.548 874.544 293.248Q874.373 293.949 873.775 295.35L871.784 300.392L868.315 300.392L869.861 294.829Q868.981 294.479 868.469 293.693Q867.964 292.898 867.964 291.847Q867.964 290.343 868.93 289.42Q869.896 288.489 871.365 288.489ZM886.17 270.502L886.17 295L880.497 295L880.497 275.048L875.6 275.048L875.6 270.502L886.17 270.502ZM901.881 280.474Q905.103 281.003 906.812 282.875Q908.529 284.746 908.529 287.506Q908.529 289.642 907.41 291.445Q906.291 293.248 904 294.333Q901.71 295.419 898.386 295.419Q895.789 295.419 893.285 294.735Q890.79 294.052 889.038 292.795L891.243 288.455Q892.644 289.506 894.481 290.087Q896.319 290.659 898.241 290.659Q900.377 290.659 901.599 289.839Q902.83 289.019 902.83 287.506Q902.83 284.498 898.241 284.498L895.652 284.498L895.652 280.756L900.694 275.048L890.26 275.048L890.26 270.502L907.41 270.502L907.41 274.176L901.881 280.474Z" fill="#19A056" fill-opacity="1.000000" fill-rule="evenodd"/>
	<path id="26,38" d="M315.888 61.3772L315.888 66L297.371 66L297.371 62.3257L306.822 53.3962Q308.326 51.9692 308.847 50.9353Q309.377 49.9014 309.377 48.8845Q309.377 47.4148 308.377 46.6287Q307.386 45.8425 305.455 45.8425Q303.848 45.8425 302.549 46.4578Q301.259 47.0645 300.379 48.2864L296.252 45.6289Q297.687 43.4927 300.208 42.2878Q302.729 41.083 305.984 41.083Q308.71 41.083 310.761 41.9802Q312.812 42.8689 313.948 44.4924Q315.085 46.116 315.085 48.3291Q315.085 50.3201 314.239 52.0718Q313.401 53.8235 310.992 56.0623L305.352 61.3772L315.888 61.3772ZM329.957 50.6362Q332.307 50.6362 334.229 51.5847Q336.152 52.5247 337.271 54.2593Q338.391 55.9939 338.391 58.2668Q338.391 60.7192 337.169 62.5735Q335.947 64.4277 333.828 65.4275Q331.708 66.4187 329.119 66.4187Q323.975 66.4187 321.07 63.2742Q318.165 60.1211 318.165 54.2764Q318.165 50.1064 319.737 47.1328Q321.309 44.1592 324.129 42.6211Q326.949 41.083 330.657 41.083Q332.614 41.083 334.417 41.5188Q336.22 41.9546 337.485 42.7578L335.383 46.9277Q333.563 45.6973 330.794 45.6973Q327.684 45.6973 325.864 47.5173Q324.044 49.3374 323.898 52.8066Q326.069 50.6362 329.957 50.6362ZM328.803 62.189Q330.623 62.189 331.76 61.2063Q332.896 60.2236 332.896 58.5488Q332.896 56.8655 331.76 55.8657Q330.623 54.866 328.735 54.866Q326.881 54.866 325.684 55.8999Q324.496 56.9338 324.496 58.5488Q324.496 60.1553 325.65 61.1721Q326.804 62.189 328.803 62.189ZM344.065 59.4888Q345.535 59.4888 346.475 60.4202Q347.423 61.343 347.423 62.8469Q347.423 63.5476 347.244 64.2483Q347.073 64.949 346.475 66.3503L344.484 71.3918L341.015 71.3918L342.561 65.8291Q341.681 65.4788 341.169 64.6926Q340.664 63.8979 340.664 62.8469Q340.664 61.343 341.63 60.4202Q342.596 59.4888 344.065 59.4888ZM361.771 51.4736Q364.993 52.0034 366.702 53.8748Q368.419 55.7461 368.419 58.5061Q368.419 60.6423 367.3 62.4453Q366.181 64.2483 363.89 65.3335Q361.6 66.4187 358.276 66.4187Q355.679 66.4187 353.175 65.7351Q350.68 65.0515 348.928 63.7954L351.133 59.4546Q352.534 60.5056 354.371 61.0867Q356.209 61.6592 358.131 61.6592Q360.267 61.6592 361.489 60.8389Q362.72 60.0186 362.72 58.5061Q362.72 55.4983 358.131 55.4983L355.542 55.4983L355.542 51.7556L360.584 46.0476L350.15 46.0476L350.15 41.5017L367.3 41.5017L367.3 45.176L361.771 51.4736ZM387.815 53.1228Q389.635 54.0286 390.592 55.4983Q391.557 56.968 391.557 58.8992Q391.557 61.1721 390.259 62.8726Q388.968 64.5645 386.619 65.4958Q384.277 66.4187 381.201 66.4187Q378.116 66.4187 375.784 65.4958Q373.459 64.5645 372.178 62.8726Q370.904 61.1721 370.904 58.8992Q370.904 56.968 371.87 55.4983Q372.836 54.0286 374.621 53.1228Q373.254 52.2769 372.519 51.0037Q371.785 49.7219 371.785 48.0813Q371.785 45.9451 372.972 44.3728Q374.16 42.792 376.296 41.9375Q378.432 41.083 381.201 41.083Q383.995 41.083 386.149 41.9375Q388.302 42.792 389.49 44.3728Q390.686 45.9451 390.686 48.0813Q390.686 49.7219 389.951 51.0037Q389.216 52.2769 387.815 53.1228ZM381.201 45.2444Q379.484 45.2444 378.45 46.0732Q377.416 46.8936 377.416 48.3291Q377.416 49.7219 378.432 50.5337Q379.449 51.3369 381.201 51.3369Q382.944 51.3369 383.995 50.5337Q385.046 49.7219 385.046 48.3291Q385.046 46.8936 383.995 46.0732Q382.944 45.2444 381.201 45.2444ZM381.201 62.2573Q383.329 62.2573 384.568 61.2917Q385.815 60.3262 385.815 58.7197Q385.815 57.1133 384.568 56.1648Q383.329 55.2163 381.201 55.2163Q379.099 55.2163 377.869 56.1648Q376.647 57.1133 376.647 58.7197Q376.647 60.3689 377.869 61.3174Q379.099 62.2573 381.201 62.2573Z" fill="#737373" fill-opacity="1.000000" fill-rule="evenodd"/>
	<path id="22,83" d="M646.675 143.377L646.675 148L628.159 148L628.159 144.326L637.609 135.396Q639.113 133.969 639.634 132.935Q640.164 131.901 640.164 130.885Q640.164 129.415 639.164 128.629Q638.173 127.843 636.242 127.843Q634.636 127.843 633.337 128.458Q632.047 129.064 631.166 130.286L627.039 127.629Q628.475 125.493 630.995 124.288Q633.516 123.083 636.772 123.083Q639.498 123.083 641.548 123.98Q643.599 124.869 644.736 126.492Q645.872 128.116 645.872 130.329Q645.872 132.32 645.026 134.072Q644.189 135.823 641.779 138.062L636.14 143.377L646.675 143.377ZM667.325 143.377L667.325 148L648.809 148L648.809 144.326L658.259 135.396Q659.763 133.969 660.284 132.935Q660.814 131.901 660.814 130.885Q660.814 129.415 659.814 128.629Q658.823 127.843 656.892 127.843Q655.286 127.843 653.987 128.458Q652.696 129.064 651.816 130.286L647.689 127.629Q649.125 125.493 651.645 124.288Q654.166 123.083 657.422 123.083Q660.148 123.083 662.198 123.98Q664.249 124.869 665.386 126.492Q666.522 128.116 666.522 130.329Q666.522 132.32 665.676 134.072Q664.839 135.823 662.429 138.062L656.789 143.377L667.325 143.377ZM673.278 141.489Q674.748 141.489 675.688 142.42Q676.636 143.343 676.636 144.847Q676.636 145.548 676.457 146.248Q676.286 146.949 675.688 148.35L673.697 153.392L670.227 153.392L671.774 147.829Q670.894 147.479 670.381 146.693Q669.877 145.898 669.877 144.847Q669.877 143.343 670.843 142.42Q671.808 141.489 673.278 141.489ZM696.307 135.123Q698.127 136.029 699.084 137.498Q700.05 138.968 700.05 140.899Q700.05 143.172 698.751 144.873Q697.461 146.564 695.111 147.496Q692.77 148.419 689.694 148.419Q686.609 148.419 684.276 147.496Q681.952 146.564 680.67 144.873Q679.397 143.172 679.397 140.899Q679.397 138.968 680.362 137.498Q681.328 136.029 683.114 135.123Q681.747 134.277 681.012 133.004Q680.277 131.722 680.277 130.081Q680.277 127.945 681.465 126.373Q682.653 124.792 684.789 123.938Q686.925 123.083 689.694 123.083Q692.488 123.083 694.641 123.938Q696.794 124.792 697.982 126.373Q699.178 127.945 699.178 130.081Q699.178 131.722 698.444 133.004Q697.709 134.277 696.307 135.123ZM689.694 127.244Q687.976 127.244 686.942 128.073Q685.908 128.894 685.908 130.329Q685.908 131.722 686.925 132.534Q687.942 133.337 689.694 133.337Q691.437 133.337 692.488 132.534Q693.539 131.722 693.539 130.329Q693.539 128.894 692.488 128.073Q691.437 127.244 689.694 127.244ZM689.694 144.257Q691.821 144.257 693.06 143.292Q694.308 142.326 694.308 140.72Q694.308 139.113 693.06 138.165Q691.821 137.216 689.694 137.216Q687.591 137.216 686.361 138.165Q685.139 139.113 685.139 140.72Q685.139 142.369 686.361 143.317Q687.591 144.257 689.694 144.257ZM714.084 133.474Q717.305 134.003 719.014 135.875Q720.732 137.746 720.732 140.506Q720.732 142.642 719.612 144.445Q718.493 146.248 716.203 147.333Q713.913 148.419 710.589 148.419Q707.991 148.419 705.488 147.735Q702.993 147.052 701.241 145.795L703.445 141.455Q704.847 142.506 706.684 143.087Q708.521 143.659 710.444 143.659Q712.58 143.659 713.802 142.839Q715.032 142.019 715.032 140.506Q715.032 137.498 710.444 137.498L707.855 137.498L707.855 133.756L712.896 128.048L702.463 128.048L702.463 123.502L719.612 123.502L719.612 127.176L714.084 133.474Z" fill="#737373" fill-opacity="1.000000" fill-rule="evenodd"/>
	<path id="24,03" d="M969.688 113.377L969.688 118L951.171 118L951.171 114.326L960.622 105.396Q962.126 103.969 962.647 102.935Q963.177 101.901 963.177 100.885Q963.177 99.4148 962.177 98.6287Q961.186 97.8425 959.255 97.8425Q957.648 97.8425 956.349 98.4578Q955.059 99.0645 954.179 100.286L950.052 97.6289Q951.487 95.4927 954.008 94.2878Q956.529 93.083 959.784 93.083Q962.51 93.083 964.561 93.9802Q966.612 94.8689 967.748 96.4924Q968.885 98.116 968.885 100.329Q968.885 102.32 968.039 104.072Q967.201 105.823 964.792 108.062L959.152 113.377L969.688 113.377ZM994.115 112.856L990.125 112.856L990.125 118L984.596 118L984.596 112.856L971.403 112.856L971.403 109.036L982.955 93.5017L988.903 93.5017L978.196 108.233L984.776 108.233L984.776 103.653L990.125 103.653L990.125 108.233L994.115 108.233L994.115 112.856ZM999.755 111.489Q1001.23 111.489 1002.16 112.42Q1003.11 113.343 1003.11 114.847Q1003.11 115.548 1002.93 116.248Q1002.76 116.949 1002.16 118.35L1000.17 123.392L996.705 123.392L998.251 117.829Q997.371 117.479 996.859 116.693Q996.354 115.898 996.354 114.847Q996.354 113.343 997.32 112.42Q998.286 111.489 999.755 111.489ZM1015.72 118.419Q1012.67 118.419 1010.28 116.915Q1007.91 115.411 1006.56 112.557Q1005.21 109.703 1005.21 105.747Q1005.21 101.799 1006.56 98.9448Q1007.91 96.0908 1010.28 94.5869Q1012.67 93.083 1015.72 93.083Q1018.76 93.083 1021.13 94.5869Q1023.52 96.0908 1024.86 98.9448Q1026.21 101.799 1026.21 105.747Q1026.21 109.703 1024.86 112.557Q1023.52 115.411 1021.13 116.915Q1018.76 118.419 1015.72 118.419ZM1015.72 113.625Q1017.96 113.625 1019.23 111.702Q1020.51 109.771 1020.51 105.747Q1020.51 101.722 1019.23 99.7993Q1017.96 97.8767 1015.72 97.8767Q1013.5 97.8767 1012.22 99.7993Q1010.95 101.722 1010.95 105.747Q1010.95 109.771 1012.22 111.702Q1013.5 113.625 1015.72 113.625ZM1040.07 103.474Q1043.29 104.003 1045 105.875Q1046.72 107.746 1046.72 110.506Q1046.72 112.642 1045.6 114.445Q1044.48 116.248 1042.19 117.333Q1039.9 118.419 1036.58 118.419Q1033.98 118.419 1031.48 117.735Q1028.98 117.052 1027.23 115.795L1029.43 111.455Q1030.83 112.506 1032.67 113.087Q1034.51 113.659 1036.43 113.659Q1038.57 113.659 1039.79 112.839Q1041.02 112.019 1041.02 110.506Q1041.02 107.498 1036.43 107.498L1033.84 107.498L1033.84 103.756L1038.88 98.0476L1028.45 98.0476L1028.45 93.5017L1045.6 93.5017L1045.6 97.176L1040.07 103.474Z" fill="#737373" fill-opacity="1.000000" fill-rule="evenodd"/>
	<path id="Line 8" d="M94.6523 438L82.8301 438" stroke="#000000" stroke-opacity="1.000000" stroke-width="1.182186" stroke-linecap="round"/>
	<path id="Line 9" d="M94.6523 355L82.8301 355" stroke="#000000" stroke-opacity="1.000000" stroke-width="1.182186" stroke-linecap="round"/>
	<path id="Line 10" d="M94.6523 272L82.8301 272" stroke="#000000" stroke-opacity="1.000000" stroke-width="1.182186" stroke-linecap="round"/>
	<path id="Line 11" d="M94.6523 189L82.8301 189" stroke="#000000" stroke-opacity="1.000000" stroke-width="1.182186" stroke-linecap="round"/>
	<path id="Line 12" d="M94.6523 106L82.8301 106" stroke="#000000" stroke-opacity="1.000000" stroke-width="1.182186" stroke-linecap="round"/>
	<path id="початковий рівень" d="M177.419 567.401L177.419 580L175.117 580L175.117 569.378L168.582 569.378L168.582 580L166.279 580L166.279 567.401L177.419 567.401ZM186.795 580.18Q184.87 580.18 183.323 579.345Q181.776 578.506 180.893 577.021Q180.01 575.535 180.01 573.698Q180.01 571.866 180.893 570.38Q181.776 568.895 183.323 568.06Q184.87 567.221 186.795 567.221Q188.724 567.221 190.271 568.06Q191.818 568.895 192.701 570.372Q193.584 571.848 193.584 573.698Q193.584 575.553 192.701 577.029Q191.818 578.506 190.271 579.345Q188.724 580.18 186.795 580.18ZM186.795 578.128Q188.056 578.128 189.062 577.561Q190.073 576.994 190.649 575.979Q191.224 574.959 191.224 573.698Q191.224 572.441 190.649 571.426Q190.073 570.407 189.062 569.84Q188.056 569.273 186.795 569.273Q185.538 569.273 184.527 569.84Q183.521 570.407 182.945 571.426Q182.369 572.441 182.369 573.698Q182.369 574.959 182.945 575.979Q183.521 576.994 184.527 577.561Q185.538 578.128 186.795 578.128ZM205.734 567.401L205.734 580L203.409 580L203.409 575.25Q201.629 575.913 200.025 575.913Q197.617 575.913 196.312 574.753Q195.007 573.593 195.007 571.413L195.007 567.401L197.327 567.401L197.327 571.163Q197.327 572.494 198.1 573.197Q198.874 573.896 200.315 573.896Q201.954 573.896 203.409 573.232L203.409 567.401L205.734 567.401ZM217.613 577.082L211.311 577.082L210.068 580L207.66 580L213.329 567.401L215.631 567.401L221.318 580L218.87 580L217.613 577.082ZM216.835 575.25L214.462 569.739L212.102 575.25L216.835 575.25ZM231.76 569.378L227.585 569.378L227.585 580L225.265 580L225.265 569.378L221.104 569.378L221.104 567.401L231.76 567.401L231.76 569.378ZM238.42 574.691L236.082 574.691L236.082 580L233.775 580L233.775 567.401L236.082 567.401L236.082 572.674L238.495 572.674L242.112 567.401L244.595 567.401L240.292 573.5L244.757 580L242.112 580L238.42 574.691ZM252.153 580.18Q250.228 580.18 248.681 579.345Q247.134 578.506 246.251 577.021Q245.368 575.535 245.368 573.698Q245.368 571.866 246.251 570.38Q247.134 568.895 248.681 568.06Q250.228 567.221 252.153 567.221Q254.082 567.221 255.629 568.06Q257.176 568.895 258.059 570.372Q258.942 571.848 258.942 573.698Q258.942 575.553 258.059 577.029Q257.176 578.506 255.629 579.345Q254.082 580.18 252.153 580.18ZM252.153 578.128Q253.414 578.128 254.42 577.561Q255.431 576.994 256.007 575.979Q256.582 574.959 256.582 573.698Q256.582 572.441 256.007 571.426Q255.431 570.407 254.42 569.84Q253.414 569.273 252.153 569.273Q250.896 569.273 249.885 569.84Q248.879 570.407 248.303 571.426Q247.727 572.441 247.727 573.698Q247.727 574.959 248.303 575.979Q248.879 576.994 249.885 577.561Q250.896 578.128 252.153 578.128ZM269.832 573.448Q271.037 573.773 271.665 574.555Q272.298 575.337 272.298 576.506Q272.298 578.163 271.072 579.082Q269.85 580 267.525 580L261.553 580L261.553 567.401L267.187 567.401Q269.31 567.401 270.496 568.249Q271.687 569.093 271.687 570.64Q271.687 571.628 271.208 572.349Q270.729 573.07 269.832 573.448ZM263.856 572.784L266.985 572.784Q268.123 572.784 268.716 572.336Q269.31 571.883 269.31 571Q269.31 570.117 268.716 569.66Q268.123 569.198 266.985 569.198L263.856 569.198L263.856 572.784ZM267.455 578.198Q269.938 578.198 269.938 576.326Q269.938 574.494 267.455 574.494L263.856 574.494L263.856 578.198L267.455 578.198ZM274.981 567.401L277.284 567.401L277.284 576.348L284.052 567.401L286.227 567.401L286.227 580L283.924 580L283.924 571.07L277.156 580L274.981 580L274.981 567.401ZM289.777 567.401L292.08 567.401L292.08 576.348L298.848 567.401L301.023 567.401L301.023 580L298.72 580L298.72 571.07L291.952 580L289.777 580L289.777 567.401ZM295.371 566.553Q293.754 566.553 292.932 565.889Q292.115 565.221 292.098 563.942L293.732 563.942Q293.754 564.61 294.167 564.971Q294.58 565.331 295.371 565.331Q296.145 565.331 296.584 564.971Q297.028 564.61 297.046 563.942L298.667 563.942Q298.65 565.204 297.81 565.88Q296.975 566.553 295.371 566.553ZM314.705 567.401Q316.34 567.401 317.552 567.941Q318.77 568.482 319.416 569.488Q320.066 570.495 320.066 571.883Q320.066 573.25 319.416 574.27Q318.77 575.285 317.552 575.825Q316.34 576.366 314.705 576.366L311.862 576.366L311.862 580L309.519 580L309.519 567.401L314.705 567.401ZM314.595 574.384Q316.124 574.384 316.915 573.738Q317.711 573.087 317.711 571.883Q317.711 570.675 316.915 570.029Q316.124 569.378 314.595 569.378L311.862 569.378L311.862 574.384L314.595 574.384ZM322.303 567.401L324.606 567.401L324.606 580L322.303 580L322.303 567.401ZM336.45 573.448Q337.655 573.773 338.283 574.555Q338.916 575.337 338.916 576.506Q338.916 578.163 337.69 579.082Q336.468 580 334.143 580L328.171 580L328.171 567.401L333.805 567.401Q335.928 567.401 337.114 568.249Q338.305 569.093 338.305 570.64Q338.305 571.628 337.826 572.349Q337.347 573.07 336.45 573.448ZM330.474 572.784L333.603 572.784Q334.741 572.784 335.334 572.336Q335.928 571.883 335.928 571Q335.928 570.117 335.334 569.66Q334.741 569.198 333.603 569.198L330.474 569.198L330.474 572.784ZM334.073 578.198Q336.556 578.198 336.556 576.326Q336.556 574.494 334.073 574.494L330.474 574.494L330.474 578.198L334.073 578.198ZM351.025 578.04L351.025 580L341.577 580L341.577 567.401L350.775 567.401L350.775 569.361L343.919 569.361L343.919 572.639L350.002 572.639L350.002 574.564L343.919 574.564L343.919 578.04L351.025 578.04ZM364.834 567.401L364.834 580L362.492 580L362.492 574.599L355.979 574.599L355.979 580L353.637 580L353.637 567.401L355.979 567.401L355.979 572.604L362.492 572.604L362.492 567.401L364.834 567.401ZM374.175 571.668Q376.447 571.668 377.66 572.683Q378.873 573.698 378.873 575.698Q378.873 577.785 377.541 578.893Q376.21 580 373.797 580L368.383 580L368.383 567.401L370.686 567.401L370.686 571.668L374.175 571.668ZM373.692 578.198Q375.058 578.198 375.797 577.57Q376.535 576.941 376.535 575.733Q376.535 573.448 373.692 573.448L370.686 573.448L370.686 578.198L373.692 578.198Z" fill="#000000" fill-opacity="1.000000" fill-rule="evenodd"/>
	<path id="через 4 тижні терапії" d="M550.035 554.401L550.035 567L547.71 567L547.71 562.25Q545.93 562.913 544.326 562.913Q541.918 562.913 540.613 561.753Q539.308 560.593 539.308 558.413L539.308 554.401L541.628 554.401L541.628 558.163Q541.628 559.494 542.401 560.197Q543.175 560.896 544.616 560.896Q546.255 560.896 547.71 560.232L547.71 554.401L550.035 554.401ZM563.008 565.04L563.008 567L553.56 567L553.56 554.401L562.758 554.401L562.758 556.361L555.902 556.361L555.902 559.639L561.984 559.639L561.984 561.564L555.902 561.564L555.902 565.04L563.008 565.04ZM570.806 554.401Q572.441 554.401 573.653 554.941Q574.871 555.482 575.517 556.488Q576.167 557.495 576.167 558.883Q576.167 560.25 575.517 561.27Q574.871 562.285 573.653 562.825Q572.441 563.366 570.806 563.366L567.963 563.366L567.963 567L565.62 567L565.62 554.401L570.806 554.401ZM570.696 561.384Q572.225 561.384 573.016 560.738Q573.812 560.087 573.812 558.883Q573.812 557.675 573.016 557.029Q572.225 556.378 570.696 556.378L567.963 556.378L567.963 561.384L570.696 561.384ZM587.83 565.04L587.83 567L578.382 567L578.382 554.401L587.58 554.401L587.58 556.361L580.724 556.361L580.724 559.639L586.807 559.639L586.807 561.564L580.724 561.564L580.724 565.04L587.83 565.04ZM597.069 560.43Q598.203 560.791 598.84 561.59Q599.482 562.39 599.482 563.471Q599.482 564.605 598.743 565.444Q598.005 566.279 596.77 566.732Q595.54 567.18 594.081 567.18Q592.82 567.18 591.55 566.829Q590.284 566.477 589.203 565.774L589.959 564.064Q590.785 564.623 591.791 564.921Q592.802 565.216 593.791 565.216Q595.215 565.216 596.159 564.662Q597.104 564.104 597.104 563.128Q597.104 562.302 596.419 561.872Q595.738 561.437 594.529 561.437L591.598 561.437L591.598 559.604L594.349 559.604Q595.395 559.604 595.988 559.173Q596.581 558.738 596.581 558Q596.581 557.117 595.782 556.633Q594.982 556.146 593.738 556.146Q592.89 556.146 591.989 556.392Q591.093 556.633 590.302 557.099L589.563 555.209Q590.534 554.687 591.624 554.427Q592.714 554.168 593.791 554.168Q595.197 554.168 596.375 554.599Q597.553 555.029 598.256 555.833Q598.959 556.633 598.959 557.71Q598.959 558.646 598.453 559.349Q597.948 560.052 597.069 560.43ZM617.353 564.139L615.121 564.139L615.121 567L612.853 567L612.853 564.139L605.941 564.139L605.941 562.518L612.15 554.401L614.655 554.401L608.806 562.157L612.928 562.157L612.928 559.622L615.121 559.622L615.121 562.157L617.353 562.157L617.353 564.139ZM633.427 556.378L629.252 556.378L629.252 567L626.932 567L626.932 556.378L622.771 556.378L622.771 554.401L633.427 554.401L633.427 556.378ZM635.464 554.401L637.767 554.401L637.767 563.348L644.534 554.401L646.71 554.401L646.71 567L644.407 567L644.407 558.07L637.639 567L635.464 567L635.464 554.401ZM661.255 561.691L659.098 561.691L659.098 567L656.808 567L656.808 561.691L654.65 561.691L651.464 567L648.766 567L652.726 560.43L649.034 554.401L651.517 554.401L654.598 559.674L656.808 559.674L656.808 554.401L659.098 554.401L659.098 559.674L661.273 559.674L664.371 554.401L666.854 554.401L663.18 560.448L667.122 567L664.424 567L661.255 561.691ZM679.957 554.401L679.957 567L677.615 567L677.615 561.599L671.102 561.599L671.102 567L668.76 567L668.76 554.401L671.102 554.401L671.102 559.604L677.615 559.604L677.615 554.401L679.957 554.401ZM683.506 554.401L685.809 554.401L685.809 567L683.506 567L683.506 554.401ZM588.58 581.378L584.405 581.378L584.405 592L582.085 592L582.085 581.378L577.923 581.378L577.923 579.401L588.58 579.401L588.58 581.378ZM600.043 590.04L600.043 592L590.595 592L590.595 579.401L599.793 579.401L599.793 581.361L592.938 581.361L592.938 584.639L599.02 584.639L599.02 586.564L592.938 586.564L592.938 590.04L600.043 590.04ZM607.841 579.401Q609.476 579.401 610.688 579.941Q611.906 580.482 612.552 581.488Q613.202 582.495 613.202 583.883Q613.202 585.25 612.552 586.27Q611.906 587.285 610.688 587.825Q609.476 588.366 607.841 588.366L604.997 588.366L604.997 592L602.655 592L602.655 579.401L607.841 579.401ZM607.731 586.384Q609.26 586.384 610.051 585.738Q610.847 585.087 610.847 583.883Q610.847 582.675 610.051 582.029Q609.26 581.378 607.731 581.378L604.997 581.378L604.997 586.384L607.731 586.384ZM623.141 589.082L616.839 589.082L615.596 592L613.188 592L618.857 579.401L621.159 579.401L626.846 592L624.398 592L623.141 589.082ZM622.363 587.25L619.99 581.739L617.63 587.25L622.363 587.25ZM639.935 579.401L639.935 592L637.633 592L637.633 581.378L631.098 581.378L631.098 592L628.795 592L628.795 579.401L639.935 579.401ZM643.501 579.401L645.804 579.401L645.804 592L643.501 592L643.501 579.401ZM649.277 579.401L651.619 579.401L651.619 592L649.277 592L649.277 579.401ZM648.701 578.175Q648.231 578.175 647.923 577.872Q647.62 577.564 647.62 577.098Q647.62 576.61 647.923 576.307Q648.231 576 648.701 576Q649.167 576 649.475 576.307Q649.782 576.61 649.782 577.098Q649.782 577.564 649.475 577.872Q649.167 578.175 648.701 578.175ZM652.195 578.175Q651.725 578.175 651.417 577.872Q651.114 577.564 651.114 577.098Q651.114 576.61 651.417 576.307Q651.725 576 652.195 576Q652.661 576 652.964 576.307Q653.272 576.61 653.272 577.098Q653.272 577.564 652.964 577.872Q652.661 578.175 652.195 578.175Z" fill="#000000" fill-opacity="1.000000" fill-rule="evenodd"/>
	<path id="через 4 тижні спостереження" d="M882.035 554.401L882.035 567L879.71 567L879.71 562.25Q877.93 562.913 876.326 562.913Q873.918 562.913 872.613 561.753Q871.308 560.593 871.308 558.413L871.308 554.401L873.628 554.401L873.628 558.163Q873.628 559.494 874.401 560.197Q875.175 560.896 876.616 560.896Q878.255 560.896 879.71 560.232L879.71 554.401L882.035 554.401ZM895.008 565.04L895.008 567L885.56 567L885.56 554.401L894.758 554.401L894.758 556.361L887.902 556.361L887.902 559.639L893.984 559.639L893.984 561.564L887.902 561.564L887.902 565.04L895.008 565.04ZM902.806 554.401Q904.441 554.401 905.653 554.941Q906.871 555.482 907.517 556.488Q908.167 557.495 908.167 558.883Q908.167 560.25 907.517 561.27Q906.871 562.285 905.653 562.825Q904.441 563.366 902.806 563.366L899.963 563.366L899.963 567L897.62 567L897.62 554.401L902.806 554.401ZM902.696 561.384Q904.225 561.384 905.016 560.738Q905.812 560.087 905.812 558.883Q905.812 557.675 905.016 557.029Q904.225 556.378 902.696 556.378L899.963 556.378L899.963 561.384L902.696 561.384ZM919.83 565.04L919.83 567L910.382 567L910.382 554.401L919.58 554.401L919.58 556.361L912.724 556.361L912.724 559.639L918.807 559.639L918.807 561.564L912.724 561.564L912.724 565.04L919.83 565.04ZM929.069 560.43Q930.203 560.791 930.84 561.59Q931.482 562.39 931.482 563.471Q931.482 564.605 930.743 565.444Q930.005 566.279 928.77 566.732Q927.54 567.18 926.081 567.18Q924.82 567.18 923.55 566.829Q922.284 566.477 921.203 565.774L921.959 564.064Q922.785 564.623 923.791 564.921Q924.802 565.216 925.791 565.216Q927.215 565.216 928.159 564.662Q929.104 564.104 929.104 563.128Q929.104 562.302 928.419 561.872Q927.738 561.437 926.529 561.437L923.598 561.437L923.598 559.604L926.349 559.604Q927.395 559.604 927.988 559.173Q928.581 558.738 928.581 558Q928.581 557.117 927.782 556.633Q926.982 556.146 925.738 556.146Q924.89 556.146 923.989 556.392Q923.093 556.633 922.302 557.099L921.563 555.209Q922.534 554.687 923.624 554.427Q924.714 554.168 925.791 554.168Q927.197 554.168 928.375 554.599Q929.553 555.029 930.256 555.833Q930.959 556.633 930.959 557.71Q930.959 558.646 930.453 559.349Q929.948 560.052 929.069 560.43ZM949.353 564.139L947.121 564.139L947.121 567L944.853 567L944.853 564.139L937.941 564.139L937.941 562.518L944.15 554.401L946.655 554.401L940.806 562.157L944.928 562.157L944.928 559.622L947.121 559.622L947.121 562.157L949.353 562.157L949.353 564.139ZM965.427 556.378L961.252 556.378L961.252 567L958.932 567L958.932 556.378L954.771 556.378L954.771 554.401L965.427 554.401L965.427 556.378ZM967.464 554.401L969.767 554.401L969.767 563.348L976.534 554.401L978.71 554.401L978.71 567L976.407 567L976.407 558.07L969.639 567L967.464 567L967.464 554.401ZM993.255 561.691L991.098 561.691L991.098 567L988.808 567L988.808 561.691L986.65 561.691L983.464 567L980.766 567L984.726 560.43L981.034 554.401L983.517 554.401L986.598 559.674L988.808 559.674L988.808 554.401L991.098 554.401L991.098 559.674L993.273 559.674L996.371 554.401L998.854 554.401L995.18 560.448L999.122 567L996.424 567L993.255 561.691ZM1011.96 554.401L1011.96 567L1009.62 567L1009.62 561.599L1003.1 561.599L1003.1 567L1000.76 567L1000.76 554.401L1003.1 554.401L1003.1 559.604L1009.62 559.604L1009.62 554.401L1011.96 554.401ZM1015.51 554.401L1017.81 554.401L1017.81 567L1015.51 567L1015.51 554.401ZM866.643 592.18Q864.735 592.18 863.197 591.345Q861.659 590.506 860.785 589.029Q859.91 587.553 859.91 585.698Q859.91 583.848 860.793 582.372Q861.677 580.895 863.215 580.06Q864.753 579.221 866.66 579.221Q868.207 579.221 869.486 579.761Q870.765 580.302 871.648 581.326L870.136 582.75Q868.765 581.273 866.77 581.273Q865.474 581.273 864.445 581.84Q863.421 582.407 862.846 583.417Q862.27 584.424 862.27 585.698Q862.27 586.977 862.846 587.988Q863.421 588.994 864.445 589.561Q865.474 590.128 866.77 590.128Q868.765 590.128 870.136 588.634L871.648 590.075Q870.765 591.099 869.477 591.64Q868.189 592.18 866.643 592.18ZM884.986 579.401L884.986 592L882.684 592L882.684 581.378L876.149 581.378L876.149 592L873.846 592L873.846 579.401L884.986 579.401ZM894.362 592.18Q892.437 592.18 890.89 591.345Q889.343 590.506 888.46 589.021Q887.577 587.535 887.577 585.698Q887.577 583.866 888.46 582.38Q889.343 580.895 890.89 580.06Q892.437 579.221 894.362 579.221Q896.291 579.221 897.838 580.06Q899.385 580.895 900.268 582.372Q901.151 583.848 901.151 585.698Q901.151 587.553 900.268 589.029Q899.385 590.506 897.838 591.345Q896.291 592.18 894.362 592.18ZM894.362 590.128Q895.623 590.128 896.629 589.561Q897.64 588.994 898.216 587.979Q898.791 586.959 898.791 585.698Q898.791 584.441 898.216 583.426Q897.64 582.407 896.629 581.84Q895.623 581.273 894.362 581.273Q893.105 581.273 892.094 581.84Q891.088 582.407 890.512 583.426Q889.936 584.441 889.936 585.698Q889.936 586.959 890.512 587.979Q891.088 588.994 892.094 589.561Q893.105 590.128 894.362 590.128ZM909.537 592.18Q907.629 592.18 906.091 591.345Q904.553 590.506 903.679 589.029Q902.804 587.553 902.804 585.698Q902.804 583.848 903.688 582.372Q904.571 580.895 906.109 580.06Q907.647 579.221 909.554 579.221Q911.101 579.221 912.38 579.761Q913.659 580.302 914.542 581.326L913.03 582.75Q911.659 581.273 909.664 581.273Q908.368 581.273 907.339 581.84Q906.315 582.407 905.74 583.417Q905.164 584.424 905.164 585.698Q905.164 586.977 905.74 587.988Q906.315 588.994 907.339 589.561Q908.368 590.128 909.664 590.128Q911.659 590.128 913.03 588.634L914.542 590.075Q913.659 591.099 912.371 591.64Q911.083 592.18 909.537 592.18ZM925.719 581.378L921.544 581.378L921.544 592L919.224 592L919.224 581.378L915.062 581.378L915.062 579.401L925.719 579.401L925.719 581.378ZM937.182 590.04L937.182 592L927.734 592L927.734 579.401L936.932 579.401L936.932 581.361L930.076 581.361L930.076 584.639L936.159 584.639L936.159 586.564L930.076 586.564L930.076 590.04L937.182 590.04ZM944.98 579.401Q946.615 579.401 947.827 579.941Q949.045 580.482 949.691 581.488Q950.341 582.495 950.341 583.883Q950.341 585.25 949.691 586.27Q949.045 587.285 947.827 587.825Q946.615 588.366 944.98 588.366L942.136 588.366L942.136 592L939.794 592L939.794 579.401L944.98 579.401ZM944.87 586.384Q946.399 586.384 947.19 585.738Q947.986 585.087 947.986 583.883Q947.986 582.675 947.19 582.029Q946.399 581.378 944.87 581.378L942.136 581.378L942.136 586.384L944.87 586.384ZM962.004 590.04L962.004 592L952.556 592L952.556 579.401L961.754 579.401L961.754 581.361L954.898 581.361L954.898 584.639L960.981 584.639L960.981 586.564L954.898 586.564L954.898 590.04L962.004 590.04ZM975.489 586.691L973.332 586.691L973.332 592L971.042 592L971.042 586.691L968.884 586.691L965.698 592L963 592L966.96 585.43L963.268 579.401L965.751 579.401L968.832 584.674L971.042 584.674L971.042 579.401L973.332 579.401L973.332 584.674L975.507 584.674L978.605 579.401L981.088 579.401L977.414 585.448L981.356 592L978.658 592L975.489 586.691ZM992.442 590.04L992.442 592L982.994 592L982.994 579.401L992.192 579.401L992.192 581.361L985.336 581.361L985.336 584.639L991.419 584.639L991.419 586.564L985.336 586.564L985.336 590.04L992.442 590.04ZM1006.25 579.401L1006.25 592L1003.91 592L1003.91 586.599L997.396 586.599L997.396 592L995.054 592L995.054 579.401L997.396 579.401L997.396 584.604L1003.91 584.604L1003.91 579.401L1006.25 579.401ZM1020.98 579.401L1020.98 592L1018.63 592L1018.63 586.599L1012.12 586.599L1012.12 592L1009.78 592L1009.78 579.401L1012.12 579.401L1012.12 584.604L1018.63 584.604L1018.63 579.401L1020.98 579.401ZM1034.14 579.401L1034.14 592L1031.83 592L1031.83 588.489L1028.72 588.489L1028.47 588.489L1026.12 592L1023.66 592L1026.36 588.111Q1025.04 587.627 1024.33 586.573Q1023.62 585.518 1023.62 584.024Q1023.62 582.587 1024.27 581.545Q1024.92 580.5 1026.11 579.95Q1027.29 579.401 1028.9 579.401L1034.14 579.401ZM1028.97 581.378Q1027.53 581.378 1026.76 582.046Q1026 582.71 1026 583.989Q1026 585.232 1026.73 585.909Q1027.47 586.582 1028.88 586.582L1031.83 586.582L1031.83 581.378L1028.97 581.378Z" fill="#000000" fill-opacity="1.000000" fill-rule="evenodd"/>
	<path id="5" d="M76.7596 436.186Q79.632 436.186 80.9481 437.221Q82.2642 438.251 82.2642 440.102Q82.2642 441.257 81.7239 442.167Q81.1836 443.072 80.103 443.594Q79.027 444.115 77.4569 444.115Q76.0393 444.115 74.7601 443.654Q73.4855 443.187 72.7097 442.411L73.3701 441.331Q74.0351 442.014 75.111 442.439Q76.1916 442.864 77.4385 442.864Q79.0825 442.864 79.9829 442.13Q80.8834 441.391 80.8834 440.163Q80.8834 438.8 79.8675 438.098Q78.8562 437.396 76.4549 437.396L73.6379 437.396L74.3168 430.76L81.5623 430.76L81.5623 431.97L75.5082 431.97L75.0556 436.186L76.7596 436.186Z" fill="#000000" fill-opacity="1.000000" fill-rule="evenodd"/>
	<path id="0" d="M66.287 528.115Q64.7539 528.115 63.5532 527.303Q62.3526 526.485 61.6784 524.966Q61.0088 523.442 61.0088 521.378Q61.0088 519.318 61.6784 517.794Q62.3526 516.271 63.5532 515.458Q64.7539 514.645 66.287 514.645Q67.8202 514.645 69.0209 515.458Q70.2215 516.271 70.9003 517.794Q71.5838 519.318 71.5838 521.378Q71.5838 523.442 70.9003 524.966Q70.2215 526.485 69.0209 527.303Q67.8202 528.115 66.287 528.115ZM66.287 526.864Q67.4415 526.864 68.3189 526.222Q69.201 525.58 69.6905 524.352Q70.1846 523.119 70.1846 521.378Q70.1846 519.642 69.6905 518.413Q69.201 517.18 68.3189 516.538Q67.4415 515.896 66.287 515.896Q65.1326 515.896 64.2505 516.538Q63.3731 517.18 62.879 518.413Q62.3895 519.642 62.3895 521.378Q62.3895 523.119 62.879 524.352Q63.3731 525.58 64.2505 526.222Q65.1326 526.864 66.287 526.864Z" fill="#000000" fill-opacity="1.000000" fill-rule="evenodd"/>
	<path id="10" d="M68.3048 347.76L68.3048 361L66.9426 361L66.9426 348.97L63.8208 348.97L63.8208 347.76L68.3048 347.76ZM76.7402 361.115Q75.207 361.115 74.0064 360.303Q72.8057 359.485 72.1315 357.966Q71.4619 356.442 71.4619 354.378Q71.4619 352.318 72.1315 350.794Q72.8057 349.271 74.0064 348.458Q75.207 347.645 76.7402 347.645Q78.2733 347.645 79.474 348.458Q80.6746 349.271 81.3535 350.794Q82.0369 352.318 82.0369 354.378Q82.0369 356.442 81.3535 357.966Q80.6746 359.485 79.474 360.303Q78.2733 361.115 76.7402 361.115ZM76.7402 359.864Q77.8947 359.864 78.7721 359.222Q79.6541 358.58 80.1436 357.352Q80.6377 356.119 80.6377 354.378Q80.6377 352.642 80.1436 351.413Q79.6541 350.18 78.7721 349.538Q77.8947 348.896 76.7402 348.896Q75.5857 348.896 74.7037 349.538Q73.8263 350.18 73.3322 351.413Q72.8427 352.642 72.8427 354.378Q72.8427 356.119 73.3322 357.352Q73.8263 358.58 74.7037 359.222Q75.5857 359.864 76.7402 359.864Z" fill="#000000" fill-opacity="1.000000" fill-rule="evenodd"/>
	<path id="15" d="M70.1207 264.76L70.1207 278L68.7584 278L68.7584 265.97L65.6367 265.97L65.6367 264.76L70.1207 264.76ZM76.7596 270.186Q79.632 270.186 80.9481 271.221Q82.2642 272.251 82.2642 274.102Q82.2642 275.257 81.7239 276.167Q81.1836 277.072 80.103 277.594Q79.027 278.115 77.4569 278.115Q76.0392 278.115 74.7601 277.654Q73.4855 277.187 72.7097 276.411L73.3701 275.331Q74.0351 276.014 75.111 276.439Q76.1916 276.864 77.4385 276.864Q79.0825 276.864 79.9829 276.13Q80.8834 275.391 80.8834 274.163Q80.8834 272.8 79.8675 272.098Q78.8562 271.396 76.4549 271.396L73.6379 271.396L74.3168 264.76L81.5623 264.76L81.5623 265.97L75.5082 265.97L75.0556 270.186L76.7596 270.186Z" fill="#000000" fill-opacity="1.000000" fill-rule="evenodd"/>
	<path id="20" d="M69.8357 193.79L69.8357 195L60.5491 195L60.5491 194.035L66.0537 188.646Q67.0927 187.625 67.4621 186.877Q67.8316 186.129 67.8316 185.372Q67.8316 184.199 67.028 183.548Q66.2245 182.896 64.7283 182.896Q62.4009 182.896 61.1171 184.37L60.152 183.538Q60.9278 182.629 62.1284 182.139Q63.3291 181.645 64.8438 181.645Q66.8664 181.645 68.0486 182.601Q69.2308 183.557 69.2308 185.219Q69.2308 186.244 68.7736 187.191Q68.3211 188.133 67.0557 189.362L62.5533 193.79L69.8357 193.79ZM76.7402 195.115Q75.207 195.115 74.0064 194.303Q72.8057 193.485 72.1315 191.966Q71.4619 190.442 71.4619 188.378Q71.4619 186.318 72.1315 184.794Q72.8057 183.27 74.0064 182.458Q75.207 181.645 76.7402 181.645Q78.2733 181.645 79.474 182.458Q80.6746 183.27 81.3535 184.794Q82.0369 186.318 82.0369 188.378Q82.0369 190.442 81.3535 191.966Q80.6746 193.485 79.474 194.303Q78.2733 195.115 76.7402 195.115ZM76.7402 193.864Q77.8947 193.864 78.7721 193.222Q79.6541 192.58 80.1436 191.352Q80.6377 190.119 80.6377 188.378Q80.6377 186.642 80.1436 185.413Q79.6541 184.18 78.7721 183.538Q77.8947 182.896 76.7402 182.896Q75.5857 182.896 74.7037 183.538Q73.8263 184.18 73.3322 185.413Q72.8427 186.642 72.8427 188.378Q72.8427 190.119 73.3322 191.352Q73.8263 192.58 74.7037 193.222Q75.5857 193.864 76.7402 193.864Z" fill="#000000" fill-opacity="1.000000" fill-rule="evenodd"/>
	<path id="25" d="M71.5759 110.79L71.5759 112L62.2893 112L62.2893 111.035L67.7938 105.646Q68.8329 104.625 69.2023 103.877Q69.5717 103.129 69.5717 102.372Q69.5717 101.199 68.7682 100.548Q67.9647 99.8964 66.4685 99.8964Q64.1411 99.8964 62.8573 101.37L61.8921 100.538Q62.6679 99.6286 63.8686 99.1391Q65.0693 98.645 66.5839 98.645Q68.6066 98.645 69.7888 99.6009Q70.971 100.557 70.971 102.219Q70.971 103.244 70.5138 104.191Q70.0612 105.133 68.7959 106.362L64.2934 110.79L71.5759 110.79ZM76.7596 104.186Q79.632 104.186 80.9481 105.221Q82.2642 106.251 82.2642 108.102Q82.2642 109.257 81.7239 110.167Q81.1836 111.072 80.103 111.594Q79.027 112.115 77.4569 112.115Q76.0392 112.115 74.7601 111.654Q73.4855 111.187 72.7097 110.411L73.3701 109.331Q74.0351 110.014 75.111 110.439Q76.1916 110.864 77.4385 110.864Q79.0825 110.864 79.9829 110.13Q80.8834 109.391 80.8834 108.163Q80.8834 106.8 79.8675 106.098Q78.8562 105.396 76.4549 105.396L73.6379 105.396L74.3168 98.7604L81.5623 98.7604L81.5623 99.9703L75.5082 99.9703L75.0556 104.186L76.7596 104.186Z" fill="#000000" fill-opacity="1.000000" fill-rule="evenodd"/>
	<path id="30" d="M65.2963 21.4359Q67.3744 21.5467 68.4596 22.558Q69.5494 23.5693 69.5494 25.1995Q69.5494 26.3308 68.9999 27.2129Q68.455 28.0903 67.3744 28.6029Q66.2984 29.1154 64.7468 29.1154Q63.3106 29.1154 62.0315 28.6537Q60.7569 28.1872 59.9811 27.4114L60.6415 26.3308Q61.3064 27.0143 62.4009 27.4391Q63.4999 27.864 64.7468 27.864Q66.3723 27.864 67.2589 27.1575Q68.1502 26.4463 68.1502 25.1995Q68.1502 23.9665 67.2589 23.2692Q66.3723 22.5672 64.5759 22.5672L63.6292 22.5672L63.6292 21.5652L67.3005 16.9703L60.5306 16.9703L60.5306 15.7604L69.0414 15.7604L69.0414 16.7256L65.2963 21.4359ZM76.7402 29.1154Q75.207 29.1154 74.0064 28.3027Q72.8057 27.4853 72.1315 25.966Q71.4619 24.4421 71.4619 22.3779Q71.4619 20.3183 72.1315 18.7944Q72.8057 17.2705 74.0064 16.4577Q75.207 15.645 76.7402 15.645Q78.2733 15.645 79.474 16.4577Q80.6746 17.2705 81.3535 18.7944Q82.0369 20.3183 82.0369 22.3779Q82.0369 24.4421 81.3535 25.966Q80.6746 27.4853 79.474 28.3027Q78.2733 29.1154 76.7402 29.1154ZM76.7402 27.864Q77.8947 27.864 78.7721 27.2221Q79.6541 26.5802 80.1436 25.3518Q80.6377 24.1189 80.6377 22.3779Q80.6377 20.6416 80.1436 19.4132Q79.6541 18.1802 78.7721 17.5383Q77.8947 16.8964 76.7402 16.8964Q75.5857 16.8964 74.7037 17.5383Q73.8263 18.1802 73.3322 19.4132Q72.8427 20.6416 72.8427 22.3779Q72.8427 24.1189 73.3322 25.3518Q73.8263 26.5802 74.7037 27.2221Q75.5857 27.864 76.7402 27.864Z" fill="#000000" fill-opacity="1.000000" fill-rule="evenodd"/>
	<path id="image 9 (Traced)" d="M454.08 561.152C453.415 561.396 452.907 562.223 453.015 562.885C453.131 563.602 453.317 563.814 457.566 568.094C463.155 573.725 463.155 572.367 457.566 577.996C454.454 581.131 453.372 582.27 453.237 582.555C452.462 584.197 453.896 585.574 455.534 584.758C456.134 584.459 466.075 574.486 466.359 573.896C466.995 572.58 467.077 572.691 461.019 566.625C455.119 560.717 455.164 560.752 454.08 561.152ZM464.272 561.404C463.541 561.844 463.293 562.771 463.686 563.602C463.829 563.906 464.813 564.945 467.981 568.135C473.522 573.717 473.528 572.369 467.94 577.996C464.828 581.131 463.746 582.27 463.611 582.555C462.835 584.197 464.271 585.574 465.908 584.758C466.527 584.449 476.382 574.568 476.692 573.945C477.37 572.582 477.426 572.66 471.477 566.703C465.523 560.742 465.457 560.693 464.272 561.404Z" fill="url(#paint_linear_81_4938_0)" fill-opacity="1.000000" fill-rule="evenodd"/>
	<path id="image 9 (Traced)" d="M763.08 561.152C762.415 561.396 761.907 562.223 762.015 562.885C762.131 563.602 762.317 563.814 766.566 568.094C772.155 573.725 772.155 572.367 766.566 577.996C763.454 581.131 762.372 582.27 762.237 582.555C761.462 584.197 762.896 585.574 764.534 584.758C765.134 584.459 775.075 574.486 775.359 573.896C775.995 572.58 776.077 572.691 770.019 566.625C764.119 560.717 764.164 560.752 763.08 561.152ZM773.272 561.404C772.541 561.844 772.293 562.771 772.686 563.602C772.829 563.906 773.813 564.945 776.981 568.135C782.522 573.717 782.528 572.369 776.94 577.996C773.828 581.131 772.746 582.27 772.611 582.555C771.835 584.197 773.271 585.574 774.908 584.758C775.527 584.449 785.382 574.568 785.692 573.945C786.37 572.582 786.426 572.66 780.477 566.703C774.523 560.742 774.457 560.693 773.272 561.404Z" fill="url(#paint_linear_81_4956_0)" fill-opacity="1.000000" fill-rule="evenodd"/>
</svg>
