<svg width="1804.556152" height="747.019531" viewBox="0 0 1804.56 747.02" fill="none" xmlns="http://www.w3.org/2000/svg" >
	<desc>
			Created with Pixso.
	</desc>
	<defs>
		<linearGradient id="paint_linear_80_4453_0" x1="138.869614" y1="150.019531" x2="138.869614" y2="825.192627" gradientUnits="userSpaceOnUse">
			<stop stop-color="#BBBBBB"/>
			<stop offset="1.000000" stop-color="#BBBBBB" stop-opacity="0.000000"/>
		</linearGradient>
		<linearGradient id="paint_linear_80_4454_0" x1="253.089249" y1="-19.595886" x2="245.277161" y2="551.034729" gradientUnits="userSpaceOnUse">
			<stop stop-color="#039E00"/>
			<stop offset="1.000000" stop-color="#9FFFA8"/>
		</linearGradient>
		<linearGradient id="paint_linear_81_4631_0" x1="1097.869629" y1="180.019531" x2="1097.869629" y2="807.307983" gradientUnits="userSpaceOnUse">
			<stop stop-color="#BBBBBB"/>
			<stop offset="1.000000" stop-color="#BBBBBB" stop-opacity="0.000000"/>
		</linearGradient>
		<linearGradient id="paint_linear_81_4632_0" x1="1212.091431" y1="50.365677" x2="1204.277222" y2="553.630127" gradientUnits="userSpaceOnUse">
			<stop stop-color="#039E00"/>
			<stop offset="1.000000" stop-color="#9FFFA8"/>
		</linearGradient>
		<linearGradient id="paint_linear_81_4617_0" x1="403.869629" y1="223.019531" x2="403.869629" y2="781.673401" gradientUnits="userSpaceOnUse">
			<stop stop-color="#BBBBBB"/>
			<stop offset="1.000000" stop-color="#BBBBBB" stop-opacity="0.000000"/>
		</linearGradient>
		<linearGradient id="paint_linear_81_4618_0" x1="518.088623" y1="64.083588" x2="510.277130" y2="554.139038" gradientUnits="userSpaceOnUse">
			<stop stop-color="#039E00"/>
			<stop offset="1.000000" stop-color="#9FFFA8"/>
		</linearGradient>
		<linearGradient id="paint_linear_81_4636_0" x1="1362.869629" y1="373.019531" x2="1362.869629" y2="692.250305" gradientUnits="userSpaceOnUse">
			<stop stop-color="#BBBBBB"/>
			<stop offset="1.000000" stop-color="#BBBBBB" stop-opacity="0.000000"/>
		</linearGradient>
		<linearGradient id="paint_linear_81_4637_0" x1="1477.087646" y1="143.647675" x2="1469.277100" y2="557.090698" gradientUnits="userSpaceOnUse">
			<stop stop-color="#039E00"/>
			<stop offset="1.000000" stop-color="#9FFFA8"/>
		</linearGradient>
		<linearGradient id="paint_linear_81_4622_0" x1="668.869629" y1="270.019531" x2="668.869629" y2="753.654175" gradientUnits="userSpaceOnUse">
			<stop stop-color="#BBBBBB"/>
			<stop offset="1.000000" stop-color="#BBBBBB" stop-opacity="0.000000"/>
		</linearGradient>
		<linearGradient id="paint_linear_81_4623_0" x1="783.089722" y1="92.891296" x2="775.277161" y2="555.207764" gradientUnits="userSpaceOnUse">
			<stop stop-color="#039E00"/>
			<stop offset="1.000000" stop-color="#9FFFA8"/>
		</linearGradient>
		<linearGradient id="paint_linear_81_4641_0" x1="1627.869629" y1="309.019531" x2="1627.869629" y2="730.404175" gradientUnits="userSpaceOnUse">
			<stop stop-color="#BBBBBB"/>
			<stop offset="1.000000" stop-color="#BBBBBB" stop-opacity="0.000000"/>
		</linearGradient>
		<linearGradient id="paint_linear_81_4642_0" x1="1742.089111" y1="164.224609" x2="1734.277100" y2="557.854065" gradientUnits="userSpaceOnUse">
			<stop stop-color="#039E00"/>
			<stop offset="1.000000" stop-color="#9FFFA8"/>
		</linearGradient>
		<linearGradient id="paint_linear_80_4485_0" x1="325.403503" y1="602.096436" x2="323.470459" y2="633.798157" gradientUnits="userSpaceOnUse">
			<stop stop-color="#039E00"/>
			<stop offset="1.000000" stop-color="#9FFFA8"/>
		</linearGradient>
		<linearGradient id="paint_linear_81_4656_0" x1="1284.403442" y1="602.096436" x2="1282.470337" y2="633.798157" gradientUnits="userSpaceOnUse">
			<stop stop-color="#039E00"/>
			<stop offset="1.000000" stop-color="#9FFFA8"/>
		</linearGradient>
		<linearGradient id="paint_linear_81_4626_0" x1="603.403564" y1="602.096436" x2="601.470520" y2="633.798157" gradientUnits="userSpaceOnUse">
			<stop stop-color="#039E00"/>
			<stop offset="1.000000" stop-color="#9FFFA8"/>
		</linearGradient>
		<linearGradient id="paint_linear_81_4657_0" x1="1562.403442" y1="602.096436" x2="1560.470337" y2="633.798157" gradientUnits="userSpaceOnUse">
			<stop stop-color="#039E00"/>
			<stop offset="1.000000" stop-color="#9FFFA8"/>
		</linearGradient>
		<linearGradient id="paint_linear_80_4489_0" x1="654.369629" y1="701.019531" x2="654.369629" y2="774.442627" gradientUnits="userSpaceOnUse">
			<stop stop-color="#BBBBBB"/>
			<stop offset="1.000000" stop-color="#BBBBBB" stop-opacity="0.000000"/>
		</linearGradient>
		<linearGradient id="paint_linear_80_4492_0" x1="1027.267822" y1="683.916931" x2="1023.562927" y2="744.678589" gradientUnits="userSpaceOnUse">
			<stop stop-color="#039E00"/>
			<stop offset="1.000000" stop-color="#9FFFA8"/>
		</linearGradient>
	</defs>
	<path id="Line 2" d="M48.5518 124.02L48.5518 575.02L46.1875 575.02L46.1875 124.02L48.5518 124.02ZM47.3696 125.691L41.5181 131.543C41.0498 132.011 40.3145 132.011 39.8462 131.543C39.3779 131.075 39.3779 130.339 39.8462 129.871L46.5337 123.184C47.002 122.716 47.7373 122.716 48.2056 123.184L54.8931 129.871C55.3613 130.339 55.3613 131.075 54.8931 131.543C54.4248 132.011 53.6895 132.011 53.2212 131.543L47.3696 125.691Z" fill="#000000" fill-opacity="1.000000" fill-rule="evenodd"/>
	<path id="Line 11" d="M1007.55 124.02L1007.55 575.02L1005.19 575.02L1005.19 124.02L1007.55 124.02ZM1006.37 125.691L1000.52 131.543C1000.05 132.011 999.314 132.011 998.846 131.543C998.378 131.075 998.378 130.339 998.846 129.871L1005.53 123.184C1006 122.716 1006.74 122.716 1007.21 123.184L1013.89 129.871C1014.36 130.339 1014.36 131.075 1013.89 131.543C1013.43 132.011 1012.69 132.011 1012.22 131.543L1006.37 125.691Z" fill="#000000" fill-opacity="1.000000" fill-rule="evenodd"/>
	<path id="Line 3" d="M867.37 576.202L47.3696 576.202L47.3696 573.837L867.37 573.837L867.37 576.202ZM865.698 575.02L859.846 569.168C859.378 568.7 859.378 567.964 859.846 567.496C860.314 567.028 861.05 567.028 861.518 567.496L868.206 574.184C868.673 574.651 868.673 575.388 868.206 575.855L861.518 582.543C861.05 583.011 860.314 583.011 859.846 582.543C859.378 582.075 859.378 581.339 859.846 580.871L865.698 575.02Z" fill="#000000" fill-opacity="1.000000" fill-rule="evenodd"/>
	<path id="Line 12" d="M1803.37 576.202L1006.37 576.202L1006.37 573.837L1803.37 573.837L1803.37 576.202ZM1801.7 575.02L1795.85 569.168C1795.38 568.7 1795.38 567.964 1795.85 567.496C1796.31 567.028 1797.05 567.028 1797.52 567.496L1804.21 574.184C1804.67 574.651 1804.67 575.388 1804.21 575.855L1797.52 582.543C1797.05 583.011 1796.31 583.011 1795.85 582.543C1795.38 582.075 1795.38 581.339 1795.85 580.871L1801.7 575.02Z" fill="#000000" fill-opacity="1.000000" fill-rule="evenodd"/>
	<path id="Rectangle 23" d="M111.649 150.02L166.09 150.02C177.843 150.02 187.37 159.547 187.37 171.299L187.37 573.02L90.3696 573.02L90.3696 171.299C90.3696 159.547 99.8965 150.02 111.649 150.02Z" fill="url(#paint_linear_80_4453_0)" fill-opacity="1.000000" fill-rule="evenodd"/>
	<path id="Rectangle 24" d="M217.649 141.02L272.09 141.02C283.843 141.02 293.37 150.547 293.37 162.299L293.37 573.02L196.37 573.02L196.37 162.299C196.37 150.547 205.896 141.02 217.649 141.02Z" fill="url(#paint_linear_80_4454_0)" fill-opacity="1.000000" fill-rule="evenodd"/>
	<path id="181" d="M124.702 116.521L124.702 141.02L119.028 141.02L119.028 121.067L114.132 121.067L114.132 116.521L124.702 116.521ZM145.736 128.142Q147.556 129.048 148.513 130.518Q149.479 131.988 149.479 133.919Q149.479 136.192 148.18 137.892Q146.89 139.584 144.54 140.515Q142.199 141.438 139.122 141.438Q136.038 141.438 133.705 140.515Q131.381 139.584 130.099 137.892Q128.826 136.192 128.826 133.919Q128.826 131.988 129.791 130.518Q130.757 129.048 132.543 128.142Q131.176 127.296 130.441 126.023Q129.706 124.741 129.706 123.101Q129.706 120.965 130.894 119.392Q132.081 117.812 134.218 116.957Q136.354 116.103 139.122 116.103Q141.917 116.103 144.07 116.957Q146.223 117.812 147.411 119.392Q148.607 120.965 148.607 123.101Q148.607 124.741 147.872 126.023Q147.137 127.296 145.736 128.142ZM139.122 120.264Q137.405 120.264 136.371 121.093Q135.337 121.913 135.337 123.349Q135.337 124.741 136.354 125.553Q137.371 126.356 139.122 126.356Q140.866 126.356 141.917 125.553Q142.968 124.741 142.968 123.349Q142.968 121.913 141.917 121.093Q140.866 120.264 139.122 120.264ZM139.122 137.277Q141.25 137.277 142.489 136.311Q143.737 135.346 143.737 133.739Q143.737 132.133 142.489 131.184Q141.25 130.236 139.122 130.236Q137.02 130.236 135.79 131.184Q134.568 132.133 134.568 133.739Q134.568 135.388 135.79 136.337Q137.02 137.277 139.122 137.277ZM161.522 116.521L161.522 141.02L155.848 141.02L155.848 121.067L150.952 121.067L150.952 116.521L161.522 116.521Z" fill="#737373" fill-opacity="1.000000" fill-rule="evenodd"/>
	<path id="182" d="M227.022 103.521L227.022 128.02L221.348 128.02L221.348 108.067L216.452 108.067L216.452 103.521L227.022 103.521ZM248.056 115.142Q249.876 116.048 250.833 117.518Q251.799 118.988 251.799 120.919Q251.799 123.192 250.5 124.892Q249.21 126.584 246.86 127.515Q244.519 128.438 241.443 128.438Q238.358 128.438 236.025 127.515Q233.701 126.584 232.419 124.892Q231.146 123.192 231.146 120.919Q231.146 118.988 232.111 117.518Q233.077 116.048 234.863 115.142Q233.496 114.296 232.761 113.023Q232.026 111.741 232.026 110.101Q232.026 107.965 233.214 106.392Q234.402 104.812 236.538 103.957Q238.674 103.103 241.443 103.103Q244.237 103.103 246.39 103.957Q248.543 104.812 249.731 106.392Q250.927 107.965 250.927 110.101Q250.927 111.741 250.193 113.023Q249.458 114.296 248.056 115.142ZM241.443 107.264Q239.725 107.264 238.691 108.093Q237.657 108.913 237.657 110.349Q237.657 111.741 238.674 112.553Q239.691 113.356 241.443 113.356Q243.186 113.356 244.237 112.553Q245.288 111.741 245.288 110.349Q245.288 108.913 244.237 108.093Q243.186 107.264 241.443 107.264ZM241.443 124.277Q243.57 124.277 244.809 123.311Q246.057 122.346 246.057 120.739Q246.057 119.133 244.809 118.184Q243.57 117.236 241.443 117.236Q239.34 117.236 238.11 118.184Q236.888 119.133 236.888 120.739Q236.888 122.388 238.11 123.337Q239.34 124.277 241.443 124.277ZM272.694 123.397L272.694 128.02L254.178 128.02L254.178 124.345L263.628 115.416Q265.132 113.989 265.653 112.955Q266.183 111.921 266.183 110.904Q266.183 109.434 265.183 108.648Q264.192 107.862 262.261 107.862Q260.655 107.862 259.356 108.477Q258.065 109.084 257.185 110.306L253.058 107.648Q254.494 105.512 257.014 104.307Q259.535 103.103 262.791 103.103Q265.517 103.103 267.567 104Q269.618 104.888 270.755 106.512Q271.891 108.135 271.891 110.349Q271.891 112.34 271.045 114.091Q270.208 115.843 267.798 118.082L262.158 123.397L272.694 123.397Z" fill="#19A056" fill-opacity="1.000000" fill-rule="evenodd"/>
	<path id="Rectangle 23" d="M1070.65 180.02L1125.09 180.02C1136.84 180.02 1146.37 189.547 1146.37 201.299L1146.37 573.02L1049.37 573.02L1049.37 201.299C1049.37 189.547 1058.9 180.02 1070.65 180.02Z" fill="url(#paint_linear_81_4631_0)" fill-opacity="1.000000" fill-rule="evenodd"/>
	<path id="Rectangle 24" d="M1176.65 192.02L1231.09 192.02C1242.84 192.02 1252.37 201.547 1252.37 213.299L1252.37 573.02L1155.37 573.02L1155.37 213.299C1155.37 201.547 1164.9 192.02 1176.65 192.02Z" fill="url(#paint_linear_81_4632_0)" fill-opacity="1.000000" fill-rule="evenodd"/>
	<path id="102" d="M1080.22 148.521L1080.22 173.02L1074.55 173.02L1074.55 153.067L1069.65 153.067L1069.65 148.521L1080.22 148.521ZM1095 173.438Q1091.95 173.438 1089.56 171.934Q1087.19 170.43 1085.84 167.576Q1084.49 164.722 1084.49 160.766Q1084.49 156.818 1085.84 153.964Q1087.19 151.11 1089.56 149.606Q1091.95 148.103 1095 148.103Q1098.04 148.103 1100.41 149.606Q1102.8 151.11 1104.14 153.964Q1105.49 156.818 1105.49 160.766Q1105.49 164.722 1104.14 167.576Q1102.8 170.43 1100.41 171.934Q1098.04 173.438 1095 173.438ZM1095 168.645Q1097.23 168.645 1098.51 166.722Q1099.79 164.791 1099.79 160.766Q1099.79 156.741 1098.51 154.819Q1097.23 152.896 1095 152.896Q1092.78 152.896 1091.5 154.819Q1090.23 156.741 1090.23 160.766Q1090.23 164.791 1091.5 166.722Q1092.78 168.645 1095 168.645ZM1126.35 168.397L1126.35 173.02L1107.84 173.02L1107.84 169.345L1117.29 160.416Q1118.79 158.989 1119.31 157.955Q1119.84 156.921 1119.84 155.904Q1119.84 154.434 1118.84 153.648Q1117.85 152.862 1115.92 152.862Q1114.31 152.862 1113.01 153.477Q1111.72 154.084 1110.84 155.306L1106.72 152.648Q1108.15 150.512 1110.67 149.307Q1113.19 148.103 1116.45 148.103Q1119.17 148.103 1121.23 149Q1123.28 149.888 1124.41 151.512Q1125.55 153.135 1125.55 155.349Q1125.55 157.34 1124.7 159.091Q1123.87 160.843 1121.46 163.082L1115.82 168.397L1126.35 168.397Z" fill="#737373" fill-opacity="1.000000" fill-rule="evenodd"/>
	<path id="101" d="M1189.19 155.521L1189.19 180.02L1183.52 180.02L1183.52 160.067L1178.62 160.067L1178.62 155.521L1189.19 155.521ZM1203.96 180.438Q1200.91 180.438 1198.53 178.934Q1196.15 177.43 1194.8 174.576Q1193.46 171.722 1193.46 167.766Q1193.46 163.818 1194.8 160.964Q1196.15 158.11 1198.53 156.606Q1200.91 155.103 1203.96 155.103Q1207 155.103 1209.38 156.606Q1211.76 158.11 1213.1 160.964Q1214.45 163.818 1214.45 167.766Q1214.45 171.722 1213.1 174.576Q1211.76 177.43 1209.38 178.934Q1207 180.438 1203.96 180.438ZM1203.96 175.645Q1206.2 175.645 1207.47 173.722Q1208.75 171.791 1208.75 167.766Q1208.75 163.741 1207.47 161.819Q1206.2 159.896 1203.96 159.896Q1201.75 159.896 1200.47 161.819Q1199.19 163.741 1199.19 167.766Q1199.19 171.791 1200.47 173.722Q1201.75 175.645 1203.96 175.645ZM1226.46 155.521L1226.46 180.02L1220.79 180.02L1220.79 160.067L1215.89 160.067L1215.89 155.521L1226.46 155.521Z" fill="#19A056" fill-opacity="1.000000" fill-rule="evenodd"/>
	<path id="Rectangle 23" d="M376.649 223.02L431.09 223.02C442.842 223.02 452.37 232.547 452.37 244.299L452.37 573.02L355.37 573.02L355.37 244.299C355.37 232.547 364.897 223.02 376.649 223.02Z" fill="url(#paint_linear_81_4617_0)" fill-opacity="1.000000" fill-rule="evenodd"/>
	<path id="Rectangle 24" d="M482.649 202.02L537.09 202.02C548.842 202.02 558.37 211.547 558.37 223.299L558.37 573.02L461.37 573.02L461.37 223.299C461.37 211.547 470.897 202.02 482.649 202.02Z" fill="url(#paint_linear_81_4618_0)" fill-opacity="1.000000" fill-rule="evenodd"/>
	<path id="153" d="M386.927 186.521L386.927 211.02L381.253 211.02L381.253 191.067L376.357 191.067L376.357 186.521L386.927 186.521ZM399.596 195.724Q404.774 195.724 407.243 197.792Q409.713 199.851 409.713 203.321Q409.713 205.559 408.585 207.396Q407.466 209.234 405.175 210.336Q402.885 211.438 399.527 211.438Q396.93 211.438 394.426 210.755Q391.931 210.071 390.179 208.815L392.418 204.474Q393.819 205.525 395.639 206.106Q397.459 206.679 399.382 206.679Q401.518 206.679 402.74 205.841Q403.971 204.995 403.971 203.491Q403.971 201.919 402.689 201.116Q401.416 200.313 398.263 200.313L391.999 200.313L393.255 186.521L408.2 186.521L408.2 191.067L397.981 191.067L397.596 195.724L399.596 195.724ZM423.288 196.493Q426.509 197.023 428.218 198.894Q429.936 200.766 429.936 203.526Q429.936 205.662 428.816 207.465Q427.697 209.268 425.407 210.353Q423.117 211.438 419.793 211.438Q417.195 211.438 414.691 210.755Q412.196 210.071 410.445 208.815L412.649 204.474Q414.051 205.525 415.888 206.106Q417.725 206.679 419.648 206.679Q421.784 206.679 423.006 205.858Q424.236 205.038 424.236 203.526Q424.236 200.518 419.648 200.518L417.058 200.518L417.058 196.775L422.1 191.067L411.667 191.067L411.667 186.521L428.816 186.521L428.816 190.196L423.288 196.493Z" fill="#737373" fill-opacity="1.000000" fill-rule="evenodd"/>
	<path id="162" d="M492.355 162.521L492.355 187.02L486.681 187.02L486.681 167.067L481.785 167.067L481.785 162.521L492.355 162.521ZM508.416 171.656Q510.766 171.656 512.689 172.604Q514.611 173.544 515.731 175.279Q516.85 177.013 516.85 179.286Q516.85 181.739 515.628 183.593Q514.406 185.447 512.287 186.447Q510.168 187.438 507.579 187.438Q502.435 187.438 499.53 184.294Q496.624 181.141 496.624 175.296Q496.624 171.126 498.197 168.152Q499.769 165.179 502.589 163.641Q505.409 162.103 509.117 162.103Q511.074 162.103 512.877 162.538Q514.68 162.974 515.944 163.777L513.842 167.947Q512.022 166.717 509.254 166.717Q506.143 166.717 504.323 168.537Q502.503 170.357 502.358 173.826Q504.528 171.656 508.416 171.656ZM507.263 183.208Q509.083 183.208 510.219 182.226Q511.356 181.243 511.356 179.568Q511.356 177.885 510.219 176.885Q509.083 175.885 507.194 175.885Q505.34 175.885 504.144 176.919Q502.956 177.953 502.956 179.568Q502.956 181.175 504.11 182.192Q505.263 183.208 507.263 183.208ZM537.223 182.397L537.223 187.02L518.706 187.02L518.706 183.345L528.156 174.416Q529.66 172.989 530.182 171.955Q530.711 170.921 530.711 169.904Q530.711 168.434 529.712 167.648Q528.72 166.862 526.789 166.862Q525.183 166.862 523.884 167.477Q522.594 168.084 521.714 169.306L517.586 166.648Q519.022 164.512 521.543 163.307Q524.063 162.103 527.319 162.103Q530.045 162.103 532.096 163Q534.146 163.888 535.283 165.512Q536.419 167.135 536.419 169.349Q536.419 171.34 535.573 173.091Q534.736 174.843 532.326 177.082L526.687 182.397L537.223 182.397Z" fill="#19A056" fill-opacity="1.000000" fill-rule="evenodd"/>
	<path id="Rectangle 23" d="M1335.65 373.02L1390.09 373.02C1401.84 373.02 1411.37 382.547 1411.37 394.299L1411.37 573.02L1314.37 573.02L1314.37 394.299C1314.37 382.547 1323.9 373.02 1335.65 373.02Z" fill="url(#paint_linear_81_4636_0)" fill-opacity="1.000000" fill-rule="evenodd"/>
	<path id="Rectangle 24" d="M1441.65 260.02L1496.09 260.02C1507.84 260.02 1517.37 269.547 1517.37 281.299L1517.37 573.02L1420.37 573.02L1420.37 281.299C1420.37 269.547 1429.9 260.02 1441.65 260.02Z" fill="url(#paint_linear_81_4637_0)" fill-opacity="1.000000" fill-rule="evenodd"/>
	<path id="88" d="M1358.19 352.142Q1360.01 353.048 1360.96 354.518Q1361.93 355.988 1361.93 357.919Q1361.93 360.192 1360.63 361.892Q1359.34 363.584 1356.99 364.515Q1354.65 365.438 1351.57 365.438Q1348.49 365.438 1346.15 364.515Q1343.83 363.584 1342.55 361.892Q1341.28 360.192 1341.28 357.919Q1341.28 355.988 1342.24 354.518Q1343.21 353.048 1344.99 352.142Q1343.63 351.296 1342.89 350.023Q1342.16 348.741 1342.16 347.101Q1342.16 344.965 1343.34 343.392Q1344.53 341.812 1346.67 340.957Q1348.8 340.103 1351.57 340.103Q1354.37 340.103 1356.52 340.957Q1358.67 341.812 1359.86 343.392Q1361.06 344.965 1361.06 347.101Q1361.06 348.741 1360.32 350.023Q1359.59 351.296 1358.19 352.142ZM1351.57 344.264Q1349.85 344.264 1348.82 345.093Q1347.79 345.913 1347.79 347.349Q1347.79 348.741 1348.8 349.553Q1349.82 350.356 1351.57 350.356Q1353.32 350.356 1354.37 349.553Q1355.42 348.741 1355.42 347.349Q1355.42 345.913 1354.37 345.093Q1353.32 344.264 1351.57 344.264ZM1351.57 361.277Q1353.7 361.277 1354.94 360.311Q1356.19 359.346 1356.19 357.739Q1356.19 356.133 1354.94 355.184Q1353.7 354.236 1351.57 354.236Q1349.47 354.236 1348.24 355.184Q1347.02 356.133 1347.02 357.739Q1347.02 359.388 1348.24 360.337Q1349.47 361.277 1351.57 361.277ZM1381.29 352.142Q1383.11 353.048 1384.06 354.518Q1385.03 355.988 1385.03 357.919Q1385.03 360.192 1383.73 361.892Q1382.44 363.584 1380.09 364.515Q1377.75 365.438 1374.67 365.438Q1371.59 365.438 1369.25 364.515Q1366.93 363.584 1365.65 361.892Q1364.38 360.192 1364.38 357.919Q1364.38 355.988 1365.34 354.518Q1366.31 353.048 1368.09 352.142Q1366.73 351.296 1365.99 350.023Q1365.26 348.741 1365.26 347.101Q1365.26 344.965 1366.44 343.392Q1367.63 341.812 1369.77 340.957Q1371.9 340.103 1374.67 340.103Q1377.47 340.103 1379.62 340.957Q1381.77 341.812 1382.96 343.392Q1384.16 344.965 1384.16 347.101Q1384.16 348.741 1383.42 350.023Q1382.69 351.296 1381.29 352.142ZM1374.67 344.264Q1372.95 344.264 1371.92 345.093Q1370.89 345.913 1370.89 347.349Q1370.89 348.741 1371.9 349.553Q1372.92 350.356 1374.67 350.356Q1376.42 350.356 1377.47 349.553Q1378.52 348.741 1378.52 347.349Q1378.52 345.913 1377.47 345.093Q1376.42 344.264 1374.67 344.264ZM1374.67 361.277Q1376.8 361.277 1378.04 360.311Q1379.29 359.346 1379.29 357.739Q1379.29 356.133 1378.04 355.184Q1376.8 354.236 1374.67 354.236Q1372.57 354.236 1371.34 355.184Q1370.12 356.133 1370.12 357.739Q1370.12 359.388 1371.34 360.337Q1372.57 361.277 1374.67 361.277Z" fill="#737373" fill-opacity="1.000000" fill-rule="evenodd"/>
	<path id="96" d="M1456.55 223.103Q1461.69 223.103 1464.6 226.239Q1467.5 229.366 1467.5 235.245Q1467.5 239.406 1465.95 242.388Q1464.39 245.362 1461.55 246.9Q1458.72 248.438 1455.01 248.438Q1453.05 248.438 1451.27 248.002Q1449.48 247.567 1448.22 246.763L1450.32 242.594Q1452.1 243.815 1454.91 243.815Q1458.02 243.815 1459.84 241.978Q1461.66 240.141 1461.8 236.68Q1459.6 238.885 1455.71 238.885Q1453.37 238.885 1451.44 237.945Q1449.51 236.997 1448.39 235.262Q1447.28 233.527 1447.28 231.254Q1447.28 228.802 1448.5 226.948Q1449.73 225.094 1451.84 224.102Q1453.96 223.103 1456.55 223.103ZM1456.97 234.647Q1458.83 234.647 1460 233.621Q1461.17 232.587 1461.17 230.972Q1461.17 229.366 1460.03 228.349Q1458.9 227.332 1456.9 227.332Q1455.08 227.332 1453.94 228.315Q1452.8 229.298 1452.8 230.972Q1452.8 232.656 1453.94 233.656Q1455.08 234.647 1456.97 234.647ZM1482.03 232.656Q1484.38 232.656 1486.3 233.604Q1488.22 234.544 1489.34 236.279Q1490.46 238.013 1490.46 240.286Q1490.46 242.739 1489.24 244.593Q1488.02 246.447 1485.9 247.447Q1483.78 248.438 1481.19 248.438Q1476.05 248.438 1473.14 245.294Q1470.24 242.141 1470.24 236.296Q1470.24 232.126 1471.81 229.152Q1473.38 226.179 1476.2 224.641Q1479.02 223.103 1482.73 223.103Q1484.69 223.103 1486.49 223.538Q1488.29 223.974 1489.56 224.777L1487.45 228.947Q1485.63 227.717 1482.87 227.717Q1479.76 227.717 1477.94 229.537Q1476.12 231.357 1475.97 234.826Q1478.14 232.656 1482.03 232.656ZM1480.88 244.208Q1482.7 244.208 1483.83 243.226Q1484.97 242.243 1484.97 240.568Q1484.97 238.885 1483.83 237.885Q1482.7 236.885 1480.81 236.885Q1478.95 236.885 1477.76 237.919Q1476.57 238.953 1476.57 240.568Q1476.57 242.175 1477.72 243.192Q1478.88 244.208 1480.88 244.208Z" fill="#19A056" fill-opacity="1.000000" fill-rule="evenodd"/>
	<path id="Rectangle 23" d="M641.649 270.02L696.09 270.02C707.842 270.02 717.37 279.547 717.37 291.299L717.37 573.02L620.37 573.02L620.37 291.299C620.37 279.547 629.897 270.02 641.649 270.02Z" fill="url(#paint_linear_81_4622_0)" fill-opacity="1.000000" fill-rule="evenodd"/>
	<path id="Rectangle 24" d="M747.649 223.02L802.09 223.02C813.842 223.02 823.37 232.547 823.37 244.299L823.37 573.02L726.37 573.02L726.37 244.299C726.37 232.547 735.897 223.02 747.649 223.02Z" fill="url(#paint_linear_81_4623_0)" fill-opacity="1.000000" fill-rule="evenodd"/>
	<path id="140" d="M648.672 235.521L648.672 260.02L642.998 260.02L642.998 240.067L638.102 240.067L638.102 235.521L648.672 235.521ZM675.371 254.875L671.381 254.875L671.381 260.02L665.852 260.02L665.852 254.875L652.659 254.875L652.659 251.056L664.212 235.521L670.159 235.521L659.452 250.253L666.032 250.253L666.032 245.673L671.381 245.673L671.381 250.253L675.371 250.253L675.371 254.875ZM687.558 260.438Q684.507 260.438 682.123 258.934Q679.748 257.43 678.398 254.576Q677.056 251.722 677.056 247.766Q677.056 243.818 678.398 240.964Q679.748 238.11 682.123 236.606Q684.507 235.103 687.558 235.103Q690.6 235.103 692.975 236.606Q695.359 238.11 696.701 240.964Q698.051 243.818 698.051 247.766Q698.051 251.722 696.701 254.576Q695.359 257.43 692.975 258.934Q690.6 260.438 687.558 260.438ZM687.558 255.645Q689.796 255.645 691.07 253.722Q692.351 251.791 692.351 247.766Q692.351 243.741 691.07 241.819Q689.796 239.896 687.558 239.896Q685.345 239.896 684.063 241.819Q682.79 243.741 682.79 247.766Q682.79 251.791 684.063 253.722Q685.345 255.645 687.558 255.645Z" fill="#737373" fill-opacity="1.000000" fill-rule="evenodd"/>
	<path id="152" d="M759.247 189.521L759.247 214.02L753.573 214.02L753.573 194.067L748.677 194.067L748.677 189.521L759.247 189.521ZM771.916 198.724Q777.094 198.724 779.564 200.792Q782.033 202.851 782.033 206.321Q782.033 208.559 780.905 210.396Q779.786 212.234 777.496 213.336Q775.206 214.438 771.847 214.438Q769.25 214.438 766.746 213.755Q764.251 213.071 762.499 211.815L764.738 207.474Q766.139 208.525 767.96 209.106Q769.78 209.679 771.702 209.679Q773.838 209.679 775.06 208.841Q776.291 207.995 776.291 206.491Q776.291 204.919 775.009 204.116Q773.736 203.313 770.583 203.313L764.319 203.313L765.576 189.521L780.521 189.521L780.521 194.067L770.301 194.067L769.916 198.724L771.916 198.724ZM802.469 209.397L802.469 214.02L783.953 214.02L783.953 210.345L793.403 201.416Q794.907 199.989 795.428 198.955Q795.958 197.921 795.958 196.904Q795.958 195.434 794.958 194.648Q793.967 193.862 792.036 193.862Q790.43 193.862 789.131 194.477Q787.84 195.084 786.96 196.306L782.833 193.648Q784.269 191.512 786.789 190.307Q789.31 189.103 792.566 189.103Q795.292 189.103 797.342 190Q799.393 190.888 800.53 192.512Q801.666 194.135 801.666 196.349Q801.666 198.34 800.82 200.091Q799.983 201.843 797.573 204.082L791.933 209.397L802.469 209.397Z" fill="#19A056" fill-opacity="1.000000" fill-rule="evenodd"/>
	<path id="Rectangle 23" d="M1600.65 309.02L1655.09 309.02C1666.84 309.02 1676.37 318.547 1676.37 330.299L1676.37 573.02L1579.37 573.02L1579.37 330.299C1579.37 318.547 1588.9 309.02 1600.65 309.02Z" fill="url(#paint_linear_81_4641_0)" fill-opacity="1.000000" fill-rule="evenodd"/>
	<path id="Rectangle 24" d="M1706.65 275.02L1761.09 275.02C1772.84 275.02 1782.37 284.547 1782.37 296.299L1782.37 573.02L1685.37 573.02L1685.37 296.299C1685.37 284.547 1694.9 275.02 1706.65 275.02Z" fill="url(#paint_linear_81_4642_0)" fill-opacity="1.000000" fill-rule="evenodd"/>
	<path id="85" d="M1623.82 284.142Q1625.64 285.048 1626.6 286.518Q1627.57 287.988 1627.57 289.919Q1627.57 292.192 1626.27 293.892Q1624.98 295.584 1622.63 296.515Q1620.29 297.438 1617.21 297.438Q1614.13 297.438 1611.79 296.515Q1609.47 295.584 1608.19 293.892Q1606.91 292.192 1606.91 289.919Q1606.91 287.988 1607.88 286.518Q1608.84 285.048 1610.63 284.142Q1609.26 283.296 1608.53 282.023Q1607.79 280.741 1607.79 279.101Q1607.79 276.965 1608.98 275.392Q1610.17 273.812 1612.31 272.957Q1614.44 272.103 1617.21 272.103Q1620 272.103 1622.16 272.957Q1624.31 273.812 1625.5 275.392Q1626.69 276.965 1626.69 279.101Q1626.69 280.741 1625.96 282.023Q1625.22 283.296 1623.82 284.142ZM1617.21 276.264Q1615.49 276.264 1614.46 277.093Q1613.42 277.913 1613.42 279.349Q1613.42 280.741 1614.44 281.553Q1615.46 282.356 1617.21 282.356Q1618.95 282.356 1620 281.553Q1621.06 280.741 1621.06 279.349Q1621.06 277.913 1620 277.093Q1618.95 276.264 1617.21 276.264ZM1617.21 293.277Q1619.34 293.277 1620.58 292.311Q1621.82 291.346 1621.82 289.739Q1621.82 288.133 1620.58 287.184Q1619.34 286.236 1617.21 286.236Q1615.11 286.236 1613.88 287.184Q1612.66 288.133 1612.66 289.739Q1612.66 291.388 1613.88 292.337Q1615.11 293.277 1617.21 293.277ZM1638.56 281.724Q1643.74 281.724 1646.21 283.792Q1648.68 285.851 1648.68 289.321Q1648.68 291.559 1647.55 293.396Q1646.43 295.234 1644.14 296.336Q1641.85 297.438 1638.49 297.438Q1635.89 297.438 1633.39 296.755Q1630.89 296.071 1629.14 294.815L1631.38 290.474Q1632.78 291.525 1634.6 292.106Q1636.42 292.679 1638.34 292.679Q1640.48 292.679 1641.7 291.841Q1642.93 290.995 1642.93 289.491Q1642.93 287.919 1641.65 287.116Q1640.38 286.313 1637.23 286.313L1630.96 286.313L1632.22 272.521L1647.16 272.521L1647.16 277.067L1636.94 277.067L1636.56 281.724L1638.56 281.724Z" fill="#737373" fill-opacity="1.000000" fill-rule="evenodd"/>
	<path id="95" d="M1722.35 238.103Q1727.49 238.103 1730.4 241.239Q1733.31 244.366 1733.31 250.245Q1733.31 254.406 1731.75 257.388Q1730.2 260.362 1727.36 261.9Q1724.52 263.438 1720.81 263.438Q1718.86 263.438 1717.07 263.002Q1715.28 262.567 1714.03 261.763L1716.12 257.594Q1717.91 258.815 1720.71 258.815Q1723.82 258.815 1725.64 256.978Q1727.46 255.141 1727.61 251.68Q1725.4 253.885 1721.51 253.885Q1719.17 253.885 1717.24 252.945Q1715.32 251.997 1714.2 250.262Q1713.08 248.527 1713.08 246.254Q1713.08 243.802 1714.3 241.948Q1715.53 240.094 1717.64 239.102Q1719.76 238.103 1722.35 238.103ZM1722.78 249.647Q1724.63 249.647 1725.8 248.621Q1726.97 247.587 1726.97 245.972Q1726.97 244.366 1725.84 243.349Q1724.7 242.332 1722.7 242.332Q1720.88 242.332 1719.74 243.315Q1718.61 244.298 1718.61 245.972Q1718.61 247.656 1719.74 248.656Q1720.88 249.647 1722.78 249.647ZM1744.44 247.724Q1749.62 247.724 1752.09 249.792Q1754.56 251.851 1754.56 255.321Q1754.56 257.559 1753.43 259.396Q1752.31 261.234 1750.02 262.336Q1747.73 263.438 1744.37 263.438Q1741.77 263.438 1739.27 262.755Q1736.78 262.071 1735.02 260.815L1737.26 256.474Q1738.66 257.525 1740.48 258.106Q1742.3 258.679 1744.23 258.679Q1746.36 258.679 1747.59 257.841Q1748.82 256.995 1748.82 255.491Q1748.82 253.919 1747.53 253.116Q1746.26 252.313 1743.11 252.313L1736.84 252.313L1738.1 238.521L1753.05 238.521L1753.05 243.067L1742.83 243.067L1742.44 247.724L1744.44 247.724Z" fill="#19A056" fill-opacity="1.000000" fill-rule="evenodd"/>
	<path id="Line 8" d="M47.022 462.02L35.2002 462.02" stroke="#000000" stroke-opacity="1.000000" stroke-width="1.182186" stroke-linecap="round"/>
	<path id="Line 13" d="M1006.02 500.02L994.2 500.02" stroke="#000000" stroke-opacity="1.000000" stroke-width="1.182186" stroke-linecap="round"/>
	<path id="Line 14" d="M1006.02 425.02L994.2 425.02" stroke="#000000" stroke-opacity="1.000000" stroke-width="1.182186" stroke-linecap="round"/>
	<path id="Line 15" d="M1006.02 350.02L994.2 350.02" stroke="#000000" stroke-opacity="1.000000" stroke-width="1.182186" stroke-linecap="round"/>
	<path id="Line 16" d="M1006.02 275.02L994.2 275.02" stroke="#000000" stroke-opacity="1.000000" stroke-width="1.182186" stroke-linecap="round"/>
	<path id="Line 17" d="M1006.02 200.02L994.2 200.02" stroke="#000000" stroke-opacity="1.000000" stroke-width="1.182186" stroke-linecap="round"/>
	<path id="Line 9" d="M47.022 350.02L35.2002 350.02" stroke="#000000" stroke-opacity="1.000000" stroke-width="1.182186" stroke-linecap="round"/>
	<path id="Line 10" d="M47.022 238.02L35.2002 238.02" stroke="#000000" stroke-opacity="1.000000" stroke-width="1.182186" stroke-linecap="round"/>
	<path id="початок" d="M161.522 617.42L161.522 630.02L159.219 630.02L159.219 619.398L152.685 619.398L152.685 630.02L150.382 630.02L150.382 617.42L161.522 617.42ZM170.897 630.2Q168.973 630.2 167.426 629.365Q165.879 628.525 164.996 627.04Q164.112 625.555 164.112 623.718Q164.112 621.885 164.996 620.4Q165.879 618.915 167.426 618.08Q168.973 617.24 170.897 617.24Q172.827 617.24 174.373 618.08Q175.92 618.915 176.804 620.391Q177.687 621.868 177.687 623.718Q177.687 625.572 176.804 627.049Q175.92 628.525 174.373 629.365Q172.827 630.2 170.897 630.2ZM170.897 628.147Q172.159 628.147 173.165 627.581Q174.176 627.014 174.751 625.999Q175.327 624.979 175.327 623.718Q175.327 622.461 174.751 621.446Q174.176 620.426 173.165 619.859Q172.159 619.292 170.897 619.292Q169.641 619.292 168.63 619.859Q167.623 620.426 167.048 621.446Q166.472 622.461 166.472 623.718Q166.472 624.979 167.048 625.999Q167.623 627.014 168.63 627.581Q169.641 628.147 170.897 628.147ZM189.836 617.42L189.836 630.02L187.512 630.02L187.512 625.269Q185.732 625.933 184.128 625.933Q181.72 625.933 180.415 624.772Q179.109 623.612 179.109 621.433L179.109 617.42L181.43 617.42L181.43 621.182Q181.43 622.514 182.203 623.217Q182.977 623.916 184.418 623.916Q186.057 623.916 187.512 623.252L187.512 617.42L189.836 617.42ZM201.716 627.102L195.414 627.102L194.17 630.02L191.762 630.02L197.431 617.42L199.734 617.42L205.42 630.02L202.973 630.02L201.716 627.102ZM200.938 625.269L198.565 619.758L196.205 625.269L200.938 625.269ZM215.863 619.398L211.688 619.398L211.688 630.02L209.368 630.02L209.368 619.398L205.206 619.398L205.206 617.42L215.863 617.42L215.863 619.398ZM223.529 630.2Q221.605 630.2 220.058 629.365Q218.511 628.525 217.628 627.04Q216.744 625.555 216.744 623.718Q216.744 621.885 217.628 620.4Q218.511 618.915 220.058 618.08Q221.605 617.24 223.529 617.24Q225.459 617.24 227.005 618.08Q228.552 618.915 229.436 620.391Q230.319 621.868 230.319 623.718Q230.319 625.572 229.436 627.049Q228.552 628.525 227.005 629.365Q225.459 630.2 223.529 630.2ZM223.529 628.147Q224.791 628.147 225.797 627.581Q226.808 627.014 227.383 625.999Q227.959 624.979 227.959 623.718Q227.959 622.461 227.383 621.446Q226.808 620.426 225.797 619.859Q224.791 619.292 223.529 619.292Q222.273 619.292 221.262 619.859Q220.255 620.426 219.68 621.446Q219.104 622.461 219.104 623.718Q219.104 624.979 219.68 625.999Q220.255 627.014 221.262 627.581Q222.273 628.147 223.529 628.147ZM237.553 624.711L235.215 624.711L235.215 630.02L232.908 630.02L232.908 617.42L235.215 617.42L235.215 622.694L237.628 622.694L241.244 617.42L243.727 617.42L239.425 623.52L243.89 630.02L241.244 630.02L237.553 624.711Z" fill="#000000" fill-opacity="1.000000" fill-rule="evenodd"/>
	<path id="початок" d="M1120.52 617.42L1120.52 630.02L1118.22 630.02L1118.22 619.398L1111.68 619.398L1111.68 630.02L1109.38 630.02L1109.38 617.42L1120.52 617.42ZM1129.9 630.2Q1127.97 630.2 1126.43 629.365Q1124.88 628.525 1124 627.04Q1123.11 625.555 1123.11 623.718Q1123.11 621.885 1124 620.4Q1124.88 618.915 1126.43 618.08Q1127.97 617.24 1129.9 617.24Q1131.83 617.24 1133.37 618.08Q1134.92 618.915 1135.8 620.391Q1136.69 621.868 1136.69 623.718Q1136.69 625.572 1135.8 627.049Q1134.92 628.525 1133.37 629.365Q1131.83 630.2 1129.9 630.2ZM1129.9 628.147Q1131.16 628.147 1132.16 627.581Q1133.18 627.014 1133.75 625.999Q1134.33 624.979 1134.33 623.718Q1134.33 622.461 1133.75 621.446Q1133.18 620.426 1132.16 619.859Q1131.16 619.292 1129.9 619.292Q1128.64 619.292 1127.63 619.859Q1126.62 620.426 1126.05 621.446Q1125.47 622.461 1125.47 623.718Q1125.47 624.979 1126.05 625.999Q1126.62 627.014 1127.63 627.581Q1128.64 628.147 1129.9 628.147ZM1148.84 617.42L1148.84 630.02L1146.51 630.02L1146.51 625.269Q1144.73 625.933 1143.13 625.933Q1140.72 625.933 1139.41 624.772Q1138.11 623.612 1138.11 621.433L1138.11 617.42L1140.43 617.42L1140.43 621.182Q1140.43 622.514 1141.2 623.217Q1141.98 623.916 1143.42 623.916Q1145.06 623.916 1146.51 623.252L1146.51 617.42L1148.84 617.42ZM1160.72 627.102L1154.41 627.102L1153.17 630.02L1150.76 630.02L1156.43 617.42L1158.73 617.42L1164.42 630.02L1161.97 630.02L1160.72 627.102ZM1159.94 625.269L1157.56 619.758L1155.21 625.269L1159.94 625.269ZM1174.86 619.398L1170.69 619.398L1170.69 630.02L1168.37 630.02L1168.37 619.398L1164.21 619.398L1164.21 617.42L1174.86 617.42L1174.86 619.398ZM1182.53 630.2Q1180.6 630.2 1179.06 629.365Q1177.51 628.525 1176.63 627.04Q1175.74 625.555 1175.74 623.718Q1175.74 621.885 1176.63 620.4Q1177.51 618.915 1179.06 618.08Q1180.6 617.24 1182.53 617.24Q1184.46 617.24 1186.01 618.08Q1187.55 618.915 1188.44 620.391Q1189.32 621.868 1189.32 623.718Q1189.32 625.572 1188.44 627.049Q1187.55 628.525 1186.01 629.365Q1184.46 630.2 1182.53 630.2ZM1182.53 628.147Q1183.79 628.147 1184.8 627.581Q1185.81 627.014 1186.38 625.999Q1186.96 624.979 1186.96 623.718Q1186.96 622.461 1186.38 621.446Q1185.81 620.426 1184.8 619.859Q1183.79 619.292 1182.53 619.292Q1181.27 619.292 1180.26 619.859Q1179.26 620.426 1178.68 621.446Q1178.1 622.461 1178.1 623.718Q1178.1 624.979 1178.68 625.999Q1179.26 627.014 1180.26 627.581Q1181.27 628.147 1182.53 628.147ZM1196.55 624.711L1194.21 624.711L1194.21 630.02L1191.91 630.02L1191.91 617.42L1194.21 617.42L1194.21 622.694L1196.63 622.694L1200.24 617.42L1202.73 617.42L1198.42 623.52L1202.89 630.02L1200.24 630.02L1196.55 624.711Z" fill="#000000" fill-opacity="1.000000" fill-rule="evenodd"/>
	<path id="2 тиждень" d="M403.494 628.038L403.494 630.02L394.204 630.02L394.204 628.455L399.209 623.7Q400.058 622.892 400.352 622.29Q400.651 621.688 400.651 621.09Q400.651 620.211 400.053 619.745Q399.46 619.275 398.309 619.275Q396.384 619.275 395.36 620.589L393.721 619.328Q394.459 618.339 395.707 617.79Q396.959 617.24 398.506 617.24Q400.559 617.24 401.78 618.211Q403.006 619.183 403.006 620.857Q403.006 621.885 402.576 622.786Q402.145 623.683 400.919 624.834L397.553 628.038L403.494 628.038ZM419.927 619.398L415.752 619.398L415.752 630.02L413.432 630.02L413.432 619.398L409.27 619.398L409.27 617.42L419.927 617.42L419.927 619.398ZM421.964 617.42L424.267 617.42L424.267 626.368L431.034 617.42L433.209 617.42L433.209 630.02L430.907 630.02L430.907 621.09L424.139 630.02L421.964 630.02L421.964 617.42ZM447.755 624.711L445.597 624.711L445.597 630.02L443.308 630.02L443.308 624.711L441.15 624.711L437.964 630.02L435.266 630.02L439.225 623.45L435.534 617.42L438.017 617.42L441.097 622.694L443.308 622.694L443.308 617.42L445.597 617.42L445.597 622.694L447.773 622.694L450.871 617.42L453.354 617.42L449.68 623.467L453.622 630.02L450.923 630.02L447.755 624.711ZM468.042 628.038L468.042 632.7L465.884 632.7L465.884 630.02L456.216 630.02L456.216 632.7L454.036 632.7L454.054 628.038L454.594 628.038Q455.785 627.985 456.26 626.284Q456.739 624.583 456.844 621.415L456.989 617.42L466.222 617.42L466.222 628.038L468.042 628.038ZM458.896 621.63Q458.809 624.078 458.501 625.708Q458.198 627.339 457.53 628.038L463.919 628.038L463.919 619.398L458.989 619.398L458.896 621.63ZM479.684 628.06L479.684 630.02L470.236 630.02L470.236 617.42L479.434 617.42L479.434 619.38L472.578 619.38L472.578 622.659L478.66 622.659L478.66 624.583L472.578 624.583L472.578 628.06L479.684 628.06ZM493.493 617.42L493.493 630.02L491.151 630.02L491.151 624.619L484.638 624.619L484.638 630.02L482.296 630.02L482.296 617.42L484.638 617.42L484.638 622.624L491.151 622.624L491.151 617.42L493.493 617.42ZM502.834 621.688Q505.106 621.688 506.319 622.703Q507.532 623.718 507.532 625.717Q507.532 627.805 506.2 628.912Q504.868 630.02 502.456 630.02L497.042 630.02L497.042 617.42L499.345 617.42L499.345 621.688L502.834 621.688ZM502.35 628.218Q503.717 628.218 504.455 627.589Q505.194 626.961 505.194 625.752Q505.194 623.467 502.35 623.467L499.345 623.467L499.345 628.218L502.35 628.218Z" fill="#000000" fill-opacity="1.000000" fill-rule="evenodd"/>
	<path id="2 тиждень" d="M1362.49 628.038L1362.49 630.02L1353.2 630.02L1353.2 628.455L1358.21 623.7Q1359.06 622.892 1359.35 622.29Q1359.65 621.688 1359.65 621.09Q1359.65 620.211 1359.05 619.745Q1358.46 619.275 1357.31 619.275Q1355.38 619.275 1354.36 620.589L1352.72 619.328Q1353.46 618.339 1354.71 617.79Q1355.96 617.24 1357.51 617.24Q1359.56 617.24 1360.78 618.211Q1362.01 619.183 1362.01 620.857Q1362.01 621.885 1361.58 622.786Q1361.15 623.683 1359.92 624.834L1356.55 628.038L1362.49 628.038ZM1378.93 619.398L1374.75 619.398L1374.75 630.02L1372.43 630.02L1372.43 619.398L1368.27 619.398L1368.27 617.42L1378.93 617.42L1378.93 619.398ZM1380.96 617.42L1383.27 617.42L1383.27 626.368L1390.03 617.42L1392.21 617.42L1392.21 630.02L1389.91 630.02L1389.91 621.09L1383.14 630.02L1380.96 630.02L1380.96 617.42ZM1406.75 624.711L1404.6 624.711L1404.6 630.02L1402.31 630.02L1402.31 624.711L1400.15 624.711L1396.96 630.02L1394.27 630.02L1398.23 623.45L1394.53 617.42L1397.02 617.42L1400.1 622.694L1402.31 622.694L1402.31 617.42L1404.6 617.42L1404.6 622.694L1406.77 622.694L1409.87 617.42L1412.35 617.42L1408.68 623.467L1412.62 630.02L1409.92 630.02L1406.75 624.711ZM1427.04 628.038L1427.04 632.7L1424.88 632.7L1424.88 630.02L1415.22 630.02L1415.22 632.7L1413.04 632.7L1413.05 628.038L1413.59 628.038Q1414.79 627.985 1415.26 626.284Q1415.74 624.583 1415.84 621.415L1415.99 617.42L1425.22 617.42L1425.22 628.038L1427.04 628.038ZM1417.9 621.63Q1417.81 624.078 1417.5 625.708Q1417.2 627.339 1416.53 628.038L1422.92 628.038L1422.92 619.398L1417.99 619.398L1417.9 621.63ZM1438.68 628.06L1438.68 630.02L1429.24 630.02L1429.24 617.42L1438.43 617.42L1438.43 619.38L1431.58 619.38L1431.58 622.659L1437.66 622.659L1437.66 624.583L1431.58 624.583L1431.58 628.06L1438.68 628.06ZM1452.49 617.42L1452.49 630.02L1450.15 630.02L1450.15 624.619L1443.64 624.619L1443.64 630.02L1441.3 630.02L1441.3 617.42L1443.64 617.42L1443.64 622.624L1450.15 622.624L1450.15 617.42L1452.49 617.42ZM1461.83 621.688Q1464.11 621.688 1465.32 622.703Q1466.53 623.718 1466.53 625.717Q1466.53 627.805 1465.2 628.912Q1463.87 630.02 1461.46 630.02L1456.04 630.02L1456.04 617.42L1458.34 617.42L1458.34 621.688L1461.83 621.688ZM1461.35 628.218Q1462.72 628.218 1463.46 627.589Q1464.19 626.961 1464.19 625.752Q1464.19 623.467 1461.35 623.467L1458.34 623.467L1458.34 628.218L1461.35 628.218Z" fill="#000000" fill-opacity="1.000000" fill-rule="evenodd"/>
	<path id="Динаміка систолічного АТ" d="M233.477 23.1658L233.477 32.2319L229.281 32.2319L229.281 27.0195L210.482 27.0195L210.482 32.2319L206.244 32.2319L206.278 23.1658L207.329 23.1658Q209.645 23.0632 210.568 19.7563Q211.499 16.4495 211.704 10.2886L211.986 2.52124L229.939 2.52124L229.939 23.1658L233.477 23.1658ZM215.695 10.7073Q215.524 15.4668 214.926 18.637Q214.336 21.8071 213.037 23.1658L225.462 23.1658L225.462 6.36646L215.874 6.36646L215.695 10.7073ZM237.257 8.33179L241.632 8.33179L241.632 20.6536L251.954 8.33179L255.944 8.33179L255.944 27.0195L251.569 27.0195L251.569 14.6978L241.281 27.0195L237.257 27.0195L237.257 8.33179ZM261.827 8.33179L266.202 8.33179L266.202 15.9282L275.618 15.9282L275.618 8.33179L279.993 8.33179L279.993 27.0195L275.618 27.0195L275.618 19.6367L266.202 19.6367L266.202 27.0195L261.827 27.0195L261.827 8.33179ZM292.836 8.11816Q296.971 8.11816 299.159 10.1006Q301.346 12.0745 301.346 16.0649L301.346 27.0195L297.211 27.0195L297.211 24.7466Q296.407 25.9685 294.921 26.6179Q293.434 27.2673 291.332 27.2673Q289.238 27.2673 287.657 26.5496Q286.085 25.8318 285.222 24.5586Q284.368 23.2769 284.368 21.6619Q284.368 19.1411 286.239 17.6201Q288.11 16.0991 292.143 16.0991L296.971 16.0991L296.971 15.8171Q296.971 13.8604 295.792 12.8093Q294.622 11.7583 292.314 11.7583Q290.742 11.7583 289.213 12.2539Q287.692 12.741 286.641 13.6125L284.932 10.4253Q286.401 9.30591 288.461 8.71631Q290.529 8.11816 292.836 8.11816ZM292.246 24.0801Q293.887 24.0801 295.16 23.3281Q296.442 22.5762 296.971 21.1748L296.971 19.0044L292.451 19.0044Q288.674 19.0044 288.674 21.491Q288.674 22.6787 289.614 23.3794Q290.563 24.0801 292.246 24.0801ZM325.138 27.0195L325.138 14.6294L318.841 25.0627L316.952 25.0627L310.757 14.5952L310.757 27.0195L306.767 27.0195L306.767 8.33179L311.355 8.33179L318.003 20.0212L324.967 8.33179L329.06 8.33179L329.094 27.0195L325.138 27.0195ZM334.977 8.33179L339.352 8.33179L339.352 27.0195L334.977 27.0195L334.977 8.33179ZM337.181 5.24707Q335.993 5.24707 335.19 4.49512Q334.387 3.74316 334.387 2.62378Q334.387 1.50439 335.19 0.752441Q335.993 0.000488281 337.181 0.000488281Q338.369 0.000488281 339.172 0.718262Q339.984 1.43604 339.984 2.52124Q339.984 3.6748 339.198 4.46094Q338.412 5.24707 337.181 5.24707ZM353.034 19.5256L349.642 19.5256L349.642 27.0195L345.267 27.0195L345.267 8.33179L349.642 8.33179L349.642 15.8855L353.145 15.8855L358.674 8.33179L363.365 8.33179L356.571 17.321L363.818 27.0195L358.674 27.0195L353.034 19.5256ZM373.511 8.11816Q377.646 8.11816 379.834 10.1006Q382.021 12.0745 382.021 16.0649L382.021 27.0195L377.886 27.0195L377.886 24.7466Q377.082 25.9685 375.596 26.6179Q374.109 27.2673 372.007 27.2673Q369.913 27.2673 368.332 26.5496Q366.76 25.8318 365.897 24.5586Q365.043 23.2769 365.043 21.6619Q365.043 19.1411 366.914 17.6201Q368.785 16.0991 372.818 16.0991L377.646 16.0991L377.646 15.8171Q377.646 13.8604 376.467 12.8093Q375.297 11.7583 372.989 11.7583Q371.417 11.7583 369.888 12.2539Q368.367 12.741 367.316 13.6125L365.607 10.4253Q367.076 9.30591 369.136 8.71631Q371.203 8.11816 373.511 8.11816ZM372.921 24.0801Q374.562 24.0801 375.835 23.3281Q377.117 22.5762 377.646 21.1748L377.646 19.0044L373.126 19.0044Q369.349 19.0044 369.349 21.491Q369.349 22.6787 370.289 23.3794Q371.238 24.0801 372.921 24.0801ZM405.604 27.2673Q402.698 27.2673 400.391 26.0454Q398.084 24.8149 396.785 22.6274Q395.495 20.4399 395.495 17.6714Q395.495 14.9114 396.785 12.741Q398.084 10.5706 400.374 9.34863Q402.664 8.11816 405.604 8.11816Q408.372 8.11816 410.449 9.23755Q412.534 10.3569 413.585 12.459L410.227 14.4158Q409.423 13.1255 408.21 12.4761Q407.005 11.8267 405.57 11.8267Q403.126 11.8267 401.511 13.4246Q399.904 15.0139 399.904 17.6714Q399.904 20.3374 401.494 21.9268Q403.083 23.5161 405.57 23.5161Q407.005 23.5161 408.21 22.8752Q409.423 22.2258 410.227 20.927L413.585 22.8923Q412.499 24.9858 410.415 26.1309Q408.338 27.2673 405.604 27.2673ZM417.437 8.33179L421.812 8.33179L421.812 20.6536L432.134 8.33179L436.124 8.33179L436.124 27.0195L431.749 27.0195L431.749 14.6978L421.461 27.0195L417.437 27.0195L417.437 8.33179ZM450.509 27.2673Q447.603 27.2673 445.296 26.0454Q442.989 24.8149 441.69 22.6274Q440.4 20.4399 440.4 17.6714Q440.4 14.9114 441.69 12.741Q442.989 10.5706 445.279 9.34863Q447.569 8.11816 450.509 8.11816Q453.277 8.11816 455.354 9.23755Q457.439 10.3569 458.49 12.459L455.132 14.4158Q454.328 13.1255 453.115 12.4761Q451.91 11.8267 450.475 11.8267Q448.031 11.8267 446.416 13.4246Q444.809 15.0139 444.809 17.6714Q444.809 20.3374 446.399 21.9268Q447.988 23.5161 450.475 23.5161Q451.91 23.5161 453.115 22.8752Q454.328 22.2258 455.132 20.927L458.49 22.8923Q457.404 24.9858 455.32 26.1309Q453.243 27.2673 450.509 27.2673ZM476.975 12.0403L470.429 12.0403L470.429 27.0195L466.054 27.0195L466.054 12.0403L459.475 12.0403L459.475 8.33179L476.975 8.33179L476.975 12.0403ZM487.683 27.2673Q484.846 27.2673 482.573 26.0454Q480.3 24.8149 479.018 22.6274Q477.745 20.4399 477.745 17.6714Q477.745 14.9114 479.018 12.741Q480.3 10.5706 482.573 9.34863Q484.846 8.11816 487.683 8.11816Q490.554 8.11816 492.827 9.34863Q495.1 10.5706 496.373 12.741Q497.655 14.9114 497.655 17.6714Q497.655 20.4399 496.373 22.6274Q495.1 24.8149 492.827 26.0454Q490.554 27.2673 487.683 27.2673ZM487.683 23.5161Q490.101 23.5161 491.673 21.9097Q493.246 20.3032 493.246 17.6714Q493.246 15.0481 491.673 13.4417Q490.101 11.8267 487.683 11.8267Q485.265 11.8267 483.709 13.4417Q482.154 15.0481 482.154 17.6714Q482.154 20.3032 483.709 21.9097Q485.265 23.5161 487.683 23.5161ZM518.696 8.33179L518.696 27.0195L514.321 27.0195L514.321 12.0403L507.314 12.0403L507.143 15.7488Q506.964 19.4573 506.46 21.9609Q505.956 24.4646 504.742 25.9172Q503.537 27.3699 501.435 27.3699Q500.461 27.3699 499.026 26.9854L499.231 23.311Q499.718 23.4136 500.068 23.4136Q501.401 23.4136 502.068 22.3455Q502.734 21.2773 502.922 19.7905Q503.119 18.3037 503.255 15.5437L503.572 8.33179L518.696 8.33179ZM524.572 8.33179L528.947 8.33179L528.947 27.0195L524.572 27.0195L524.572 8.33179ZM526.776 5.24707Q525.588 5.24707 524.785 4.49512Q523.982 3.74316 523.982 2.62378Q523.982 1.50439 524.785 0.752441Q525.588 0.000488281 526.776 0.000488281Q527.964 0.000488281 528.767 0.718262Q529.579 1.43604 529.579 2.52124Q529.579 3.6748 528.793 4.46094Q528.007 5.24707 526.776 5.24707ZM550.721 8.33179L550.721 27.0195L546.346 27.0195L546.346 19.7734Q543.646 21.0723 540.706 21.0723Q537.1 21.0723 535.178 19.4146Q533.255 17.7483 533.255 14.3132L533.255 8.33179L537.63 8.33179L537.63 14.0312Q537.63 15.8171 538.673 16.6973Q539.724 17.5688 541.655 17.5688Q544.099 17.5688 546.346 16.5178L546.346 8.33179L550.721 8.33179ZM556.597 8.33179L560.972 8.33179L560.972 15.9282L570.388 15.9282L570.388 8.33179L574.763 8.33179L574.763 27.0195L570.388 27.0195L570.388 19.6367L560.972 19.6367L560.972 27.0195L556.597 27.0195L556.597 8.33179ZM588.973 27.2673Q586.136 27.2673 583.863 26.0454Q581.59 24.8149 580.308 22.6274Q579.035 20.4399 579.035 17.6714Q579.035 14.9114 580.308 12.741Q581.59 10.5706 583.863 9.34863Q586.136 8.11816 588.973 8.11816Q591.844 8.11816 594.117 9.34863Q596.39 10.5706 597.663 12.741Q598.945 14.9114 598.945 17.6714Q598.945 20.4399 597.663 22.6274Q596.39 24.8149 594.117 26.0454Q591.844 27.2673 588.973 27.2673ZM588.973 23.5161Q591.391 23.5161 592.963 21.9097Q594.536 20.3032 594.536 17.6714Q594.536 15.0481 592.963 13.4417Q591.391 11.8267 588.973 11.8267Q586.555 11.8267 585 13.4417Q583.444 15.0481 583.444 17.6714Q583.444 20.3032 585 21.9097Q586.555 23.5161 588.973 23.5161ZM617.599 12.0403L607.627 12.0403L607.627 27.0195L603.252 27.0195L603.252 8.33179L617.599 8.33179L617.599 12.0403ZM628.313 27.2673Q625.476 27.2673 623.203 26.0454Q620.93 24.8149 619.648 22.6274Q618.375 20.4399 618.375 17.6714Q618.375 14.9114 619.648 12.741Q620.93 10.5706 623.203 9.34863Q625.476 8.11816 628.313 8.11816Q631.184 8.11816 633.457 9.34863Q635.73 10.5706 637.003 12.741Q638.285 14.9114 638.285 17.6714Q638.285 20.4399 637.003 22.6274Q635.73 24.8149 633.457 26.0454Q631.184 27.2673 628.313 27.2673ZM628.313 23.5161Q630.731 23.5161 632.303 21.9097Q633.876 20.3032 633.876 17.6714Q633.876 15.0481 632.303 13.4417Q630.731 11.8267 628.313 11.8267Q625.895 11.8267 624.339 13.4417Q622.784 15.0481 622.784 17.6714Q622.784 20.3032 624.339 21.9097Q625.895 23.5161 628.313 23.5161ZM668.983 21.3457L656.729 21.3457L654.311 27.0195L649.628 27.0195L660.651 2.52124L665.129 2.52124L676.186 27.0195L671.426 27.0195L668.983 21.3457ZM667.47 17.7825L662.856 7.06714L658.267 17.7825L667.47 17.7825ZM696.491 6.36646L688.373 6.36646L688.373 27.0195L683.861 27.0195L683.861 6.36646L675.769 6.36646L675.769 2.52124L696.491 2.52124L696.491 6.36646Z" fill="#000000" fill-opacity="1.000000" fill-rule="evenodd"/>
	<path id="Динаміка диастолічного АТ" d="M1217.26 23.1658L1217.26 32.2319L1213.07 32.2319L1213.07 27.0195L1194.27 27.0195L1194.27 32.2319L1190.03 32.2319L1190.06 23.1658L1191.11 23.1658Q1193.43 23.0632 1194.35 19.7563Q1195.28 16.4495 1195.49 10.2886L1195.77 2.52124L1213.72 2.52124L1213.72 23.1658L1217.26 23.1658ZM1199.48 10.7073Q1199.31 15.4668 1198.71 18.637Q1198.12 21.8071 1196.82 23.1658L1209.25 23.1658L1209.25 6.36646L1199.66 6.36646L1199.48 10.7073ZM1221.04 8.33179L1225.42 8.33179L1225.42 20.6536L1235.74 8.33179L1239.73 8.33179L1239.73 27.0195L1235.35 27.0195L1235.35 14.6978L1225.07 27.0195L1221.04 27.0195L1221.04 8.33179ZM1245.61 8.33179L1249.99 8.33179L1249.99 15.9282L1259.4 15.9282L1259.4 8.33179L1263.78 8.33179L1263.78 27.0195L1259.4 27.0195L1259.4 19.6367L1249.99 19.6367L1249.99 27.0195L1245.61 27.0195L1245.61 8.33179ZM1276.62 8.11816Q1280.76 8.11816 1282.94 10.1006Q1285.13 12.0745 1285.13 16.0649L1285.13 27.0195L1281 27.0195L1281 24.7466Q1280.19 25.9685 1278.71 26.6179Q1277.22 27.2673 1275.12 27.2673Q1273.02 27.2673 1271.44 26.5496Q1269.87 25.8318 1269.01 24.5586Q1268.15 23.2769 1268.15 21.6619Q1268.15 19.1411 1270.02 17.6201Q1271.9 16.0991 1275.93 16.0991L1280.76 16.0991L1280.76 15.8171Q1280.76 13.8604 1279.58 12.8093Q1278.41 11.7583 1276.1 11.7583Q1274.53 11.7583 1273 12.2539Q1271.48 12.741 1270.43 13.6125L1268.72 10.4253Q1270.19 9.30591 1272.25 8.71631Q1274.31 8.11816 1276.62 8.11816ZM1276.03 24.0801Q1277.67 24.0801 1278.94 23.3281Q1280.23 22.5762 1280.76 21.1748L1280.76 19.0044L1276.24 19.0044Q1272.46 19.0044 1272.46 21.491Q1272.46 22.6787 1273.4 23.3794Q1274.35 24.0801 1276.03 24.0801ZM1308.92 27.0195L1308.92 14.6294L1302.63 25.0627L1300.74 25.0627L1294.54 14.5952L1294.54 27.0195L1290.55 27.0195L1290.55 8.33179L1295.14 8.33179L1301.79 20.0212L1308.75 8.33179L1312.85 8.33179L1312.88 27.0195L1308.92 27.0195ZM1318.76 8.33179L1323.14 8.33179L1323.14 27.0195L1318.76 27.0195L1318.76 8.33179ZM1320.97 5.24707Q1319.78 5.24707 1318.98 4.49512Q1318.17 3.74316 1318.17 2.62378Q1318.17 1.50439 1318.98 0.752441Q1319.78 0.000488281 1320.97 0.000488281Q1322.15 0.000488281 1322.96 0.718262Q1323.77 1.43604 1323.77 2.52124Q1323.77 3.6748 1322.98 4.46094Q1322.2 5.24707 1320.97 5.24707ZM1336.82 19.5256L1333.43 19.5256L1333.43 27.0195L1329.05 27.0195L1329.05 8.33179L1333.43 8.33179L1333.43 15.8855L1336.93 15.8855L1342.46 8.33179L1347.15 8.33179L1340.36 17.321L1347.6 27.0195L1342.46 27.0195L1336.82 19.5256ZM1357.3 8.11816Q1361.43 8.11816 1363.62 10.1006Q1365.81 12.0745 1365.81 16.0649L1365.81 27.0195L1361.67 27.0195L1361.67 24.7466Q1360.87 25.9685 1359.38 26.6179Q1357.89 27.2673 1355.79 27.2673Q1353.7 27.2673 1352.12 26.5496Q1350.55 25.8318 1349.68 24.5586Q1348.83 23.2769 1348.83 21.6619Q1348.83 19.1411 1350.7 17.6201Q1352.57 16.0991 1356.6 16.0991L1361.43 16.0991L1361.43 15.8171Q1361.43 13.8604 1360.25 12.8093Q1359.08 11.7583 1356.77 11.7583Q1355.2 11.7583 1353.67 12.2539Q1352.15 12.741 1351.1 13.6125L1349.39 10.4253Q1350.86 9.30591 1352.92 8.71631Q1354.99 8.11816 1357.3 8.11816ZM1356.71 24.0801Q1358.35 24.0801 1359.62 23.3281Q1360.9 22.5762 1361.43 21.1748L1361.43 19.0044L1356.91 19.0044Q1353.13 19.0044 1353.13 21.491Q1353.13 22.6787 1354.07 23.3794Q1355.02 24.0801 1356.71 24.0801ZM1400.84 23.311L1400.84 31.1809L1396.75 31.1809L1396.75 27.0195L1382.32 27.0195L1382.32 31.1809L1378.26 31.1809L1378.26 23.311L1379.13 23.311Q1380.92 23.2427 1381.57 21.021Q1382.22 18.7908 1382.42 14.7319L1382.67 8.33179L1398.07 8.33179L1398.07 23.311L1400.84 23.311ZM1386.42 15.0481Q1386.28 18.2695 1385.89 20.3032Q1385.51 22.3284 1384.49 23.311L1393.7 23.311L1393.7 12.0403L1386.53 12.0403L1386.42 15.0481ZM1404.76 8.33179L1409.13 8.33179L1409.13 20.6536L1419.45 8.33179L1423.44 8.33179L1423.44 27.0195L1419.07 27.0195L1419.07 14.6978L1408.78 27.0195L1404.76 27.0195L1404.76 8.33179ZM1436.29 8.11816Q1440.43 8.11816 1442.61 10.1006Q1444.8 12.0745 1444.8 16.0649L1444.8 27.0195L1440.67 27.0195L1440.67 24.7466Q1439.86 25.9685 1438.38 26.6179Q1436.89 27.2673 1434.79 27.2673Q1432.69 27.2673 1431.11 26.5496Q1429.54 25.8318 1428.68 24.5586Q1427.82 23.2769 1427.82 21.6619Q1427.82 19.1411 1429.69 17.6201Q1431.57 16.0991 1435.6 16.0991L1440.43 16.0991L1440.43 15.8171Q1440.43 13.8604 1439.25 12.8093Q1438.08 11.7583 1435.77 11.7583Q1434.2 11.7583 1432.67 12.2539Q1431.15 12.741 1430.1 13.6125L1428.39 10.4253Q1429.86 9.30591 1431.92 8.71631Q1433.98 8.11816 1436.29 8.11816ZM1435.7 24.0801Q1437.34 24.0801 1438.61 23.3281Q1439.9 22.5762 1440.43 21.1748L1440.43 19.0044L1435.91 19.0044Q1432.13 19.0044 1432.13 21.491Q1432.13 22.6787 1433.07 23.3794Q1434.02 24.0801 1435.7 24.0801ZM1458.72 27.2673Q1455.82 27.2673 1453.51 26.0454Q1451.2 24.8149 1449.91 22.6274Q1448.62 20.4399 1448.62 17.6714Q1448.62 14.9114 1449.91 12.741Q1451.2 10.5706 1453.49 9.34863Q1455.78 8.11816 1458.72 8.11816Q1461.49 8.11816 1463.57 9.23755Q1465.65 10.3569 1466.7 12.459L1463.35 14.4158Q1462.54 13.1255 1461.33 12.4761Q1460.13 11.8267 1458.69 11.8267Q1456.25 11.8267 1454.63 13.4246Q1453.02 15.0139 1453.02 17.6714Q1453.02 20.3374 1454.61 21.9268Q1456.2 23.5161 1458.69 23.5161Q1460.13 23.5161 1461.33 22.8752Q1462.54 22.2258 1463.35 20.927L1466.7 22.8923Q1465.62 24.9858 1463.53 26.1309Q1461.46 27.2673 1458.72 27.2673ZM1485.19 12.0403L1478.64 12.0403L1478.64 27.0195L1474.27 27.0195L1474.27 12.0403L1467.69 12.0403L1467.69 8.33179L1485.19 8.33179L1485.19 12.0403ZM1495.9 27.2673Q1493.06 27.2673 1490.79 26.0454Q1488.52 24.8149 1487.23 22.6274Q1485.96 20.4399 1485.96 17.6714Q1485.96 14.9114 1487.23 12.741Q1488.52 10.5706 1490.79 9.34863Q1493.06 8.11816 1495.9 8.11816Q1498.77 8.11816 1501.04 9.34863Q1503.31 10.5706 1504.59 12.741Q1505.87 14.9114 1505.87 17.6714Q1505.87 20.4399 1504.59 22.6274Q1503.31 24.8149 1501.04 26.0454Q1498.77 27.2673 1495.9 27.2673ZM1495.9 23.5161Q1498.32 23.5161 1499.89 21.9097Q1501.46 20.3032 1501.46 17.6714Q1501.46 15.0481 1499.89 13.4417Q1498.32 11.8267 1495.9 11.8267Q1493.48 11.8267 1491.92 13.4417Q1490.37 15.0481 1490.37 17.6714Q1490.37 20.3032 1491.92 21.9097Q1493.48 23.5161 1495.9 23.5161ZM1526.91 8.33179L1526.91 27.0195L1522.54 27.0195L1522.54 12.0403L1515.53 12.0403L1515.36 15.7488Q1515.18 19.4573 1514.67 21.9609Q1514.17 24.4646 1512.96 25.9172Q1511.75 27.3699 1509.65 27.3699Q1508.68 27.3699 1507.24 26.9854L1507.45 23.311Q1507.93 23.4136 1508.28 23.4136Q1509.62 23.4136 1510.28 22.3455Q1510.95 21.2773 1511.14 19.7905Q1511.33 18.3037 1511.47 15.5437L1511.79 8.33179L1526.91 8.33179ZM1532.79 8.33179L1537.16 8.33179L1537.16 27.0195L1532.79 27.0195L1532.79 8.33179ZM1534.99 5.24707Q1533.8 5.24707 1533 4.49512Q1532.2 3.74316 1532.2 2.62378Q1532.2 1.50439 1533 0.752441Q1533.8 0.000488281 1534.99 0.000488281Q1536.18 0.000488281 1536.98 0.718262Q1537.79 1.43604 1537.79 2.52124Q1537.79 3.6748 1537.01 4.46094Q1536.22 5.24707 1534.99 5.24707ZM1558.94 8.33179L1558.94 27.0195L1554.56 27.0195L1554.56 19.7734Q1551.86 21.0723 1548.92 21.0723Q1545.32 21.0723 1543.39 19.4146Q1541.47 17.7483 1541.47 14.3132L1541.47 8.33179L1545.85 8.33179L1545.85 14.0312Q1545.85 15.8171 1546.89 16.6973Q1547.94 17.5688 1549.87 17.5688Q1552.31 17.5688 1554.56 16.5178L1554.56 8.33179L1558.94 8.33179ZM1564.81 8.33179L1569.19 8.33179L1569.19 15.9282L1578.6 15.9282L1578.6 8.33179L1582.98 8.33179L1582.98 27.0195L1578.6 27.0195L1578.6 19.6367L1569.19 19.6367L1569.19 27.0195L1564.81 27.0195L1564.81 8.33179ZM1597.19 27.2673Q1594.35 27.2673 1592.08 26.0454Q1589.81 24.8149 1588.52 22.6274Q1587.25 20.4399 1587.25 17.6714Q1587.25 14.9114 1588.52 12.741Q1589.81 10.5706 1592.08 9.34863Q1594.35 8.11816 1597.19 8.11816Q1600.06 8.11816 1602.33 9.34863Q1604.6 10.5706 1605.88 12.741Q1607.16 14.9114 1607.16 17.6714Q1607.16 20.4399 1605.88 22.6274Q1604.6 24.8149 1602.33 26.0454Q1600.06 27.2673 1597.19 27.2673ZM1597.19 23.5161Q1599.61 23.5161 1601.18 21.9097Q1602.75 20.3032 1602.75 17.6714Q1602.75 15.0481 1601.18 13.4417Q1599.61 11.8267 1597.19 11.8267Q1594.77 11.8267 1593.21 13.4417Q1591.66 15.0481 1591.66 17.6714Q1591.66 20.3032 1593.21 21.9097Q1594.77 23.5161 1597.19 23.5161ZM1625.81 12.0403L1615.84 12.0403L1615.84 27.0195L1611.47 27.0195L1611.47 8.33179L1625.81 8.33179L1625.81 12.0403ZM1636.53 27.2673Q1633.69 27.2673 1631.42 26.0454Q1629.15 24.8149 1627.86 22.6274Q1626.59 20.4399 1626.59 17.6714Q1626.59 14.9114 1627.86 12.741Q1629.15 10.5706 1631.42 9.34863Q1633.69 8.11816 1636.53 8.11816Q1639.4 8.11816 1641.67 9.34863Q1643.94 10.5706 1645.22 12.741Q1646.5 14.9114 1646.5 17.6714Q1646.5 20.4399 1645.22 22.6274Q1643.94 24.8149 1641.67 26.0454Q1639.4 27.2673 1636.53 27.2673ZM1636.53 23.5161Q1638.95 23.5161 1640.52 21.9097Q1642.09 20.3032 1642.09 17.6714Q1642.09 15.0481 1640.52 13.4417Q1638.95 11.8267 1636.53 11.8267Q1634.11 11.8267 1632.55 13.4417Q1631 15.0481 1631 17.6714Q1631 20.3032 1632.55 21.9097Q1634.11 23.5161 1636.53 23.5161ZM1677.2 21.3457L1664.94 21.3457L1662.53 27.0195L1657.84 27.0195L1668.87 2.52124L1673.34 2.52124L1684.4 27.0195L1679.64 27.0195L1677.2 21.3457ZM1675.69 17.7825L1671.07 7.06714L1666.48 17.7825L1675.69 17.7825ZM1704.71 6.36646L1696.59 6.36646L1696.59 27.0195L1692.08 27.0195L1692.08 6.36646L1683.98 6.36646L1683.98 2.52124L1704.71 2.52124L1704.71 6.36646Z" fill="#000000" fill-opacity="1.000000" fill-rule="evenodd"/>
	<path id="4 тиждень" d="M683.726 627.159L681.494 627.159L681.494 630.02L679.226 630.02L679.226 627.159L672.313 627.159L672.313 625.537L678.523 617.42L681.028 617.42L675.179 625.177L679.301 625.177L679.301 622.641L681.494 622.641L681.494 625.177L683.726 625.177L683.726 627.159ZM699.8 619.398L695.625 619.398L695.625 630.02L693.305 630.02L693.305 619.398L689.143 619.398L689.143 617.42L699.8 617.42L699.8 619.398ZM701.837 617.42L704.14 617.42L704.14 626.368L710.907 617.42L713.082 617.42L713.082 630.02L710.78 630.02L710.78 621.09L704.012 630.02L701.837 630.02L701.837 617.42ZM727.628 624.711L725.47 624.711L725.47 630.02L723.181 630.02L723.181 624.711L721.023 624.711L717.837 630.02L715.139 630.02L719.098 623.45L715.407 617.42L717.89 617.42L720.97 622.694L723.181 622.694L723.181 617.42L725.47 617.42L725.47 622.694L727.646 622.694L730.744 617.42L733.227 617.42L729.553 623.467L733.495 630.02L730.796 630.02L727.628 624.711ZM747.914 628.038L747.914 632.7L745.757 632.7L745.757 630.02L736.089 630.02L736.089 632.7L733.909 632.7L733.927 628.038L734.467 628.038Q735.658 627.985 736.133 626.284Q736.612 624.583 736.717 621.415L736.862 617.42L746.095 617.42L746.095 628.038L747.914 628.038ZM738.769 621.63Q738.682 624.078 738.374 625.708Q738.071 627.339 737.403 628.038L743.792 628.038L743.792 619.398L738.862 619.398L738.769 621.63ZM759.557 628.06L759.557 630.02L750.109 630.02L750.109 617.42L759.307 617.42L759.307 619.38L752.451 619.38L752.451 622.659L758.533 622.659L758.533 624.583L752.451 624.583L752.451 628.06L759.557 628.06ZM773.366 617.42L773.366 630.02L771.024 630.02L771.024 624.619L764.511 624.619L764.511 630.02L762.169 630.02L762.169 617.42L764.511 617.42L764.511 622.624L771.024 622.624L771.024 617.42L773.366 617.42ZM782.707 621.688Q784.979 621.688 786.192 622.703Q787.405 623.718 787.405 625.717Q787.405 627.805 786.073 628.912Q784.741 630.02 782.329 630.02L776.915 630.02L776.915 617.42L779.218 617.42L779.218 621.688L782.707 621.688ZM782.223 628.218Q783.59 628.218 784.328 627.589Q785.067 626.961 785.067 625.752Q785.067 623.467 782.223 623.467L779.218 623.467L779.218 628.218L782.223 628.218Z" fill="#000000" fill-opacity="1.000000" fill-rule="evenodd"/>
	<path id="4 тиждень" d="M1642.73 627.159L1640.49 627.159L1640.49 630.02L1638.23 630.02L1638.23 627.159L1631.31 627.159L1631.31 625.537L1637.52 617.42L1640.03 617.42L1634.18 625.177L1638.3 625.177L1638.3 622.641L1640.49 622.641L1640.49 625.177L1642.73 625.177L1642.73 627.159ZM1658.8 619.398L1654.62 619.398L1654.62 630.02L1652.3 630.02L1652.3 619.398L1648.14 619.398L1648.14 617.42L1658.8 617.42L1658.8 619.398ZM1660.84 617.42L1663.14 617.42L1663.14 626.368L1669.91 617.42L1672.08 617.42L1672.08 630.02L1669.78 630.02L1669.78 621.09L1663.01 630.02L1660.84 630.02L1660.84 617.42ZM1686.63 624.711L1684.47 624.711L1684.47 630.02L1682.18 630.02L1682.18 624.711L1680.02 624.711L1676.84 630.02L1674.14 630.02L1678.1 623.45L1674.41 617.42L1676.89 617.42L1679.97 622.694L1682.18 622.694L1682.18 617.42L1684.47 617.42L1684.47 622.694L1686.65 622.694L1689.74 617.42L1692.23 617.42L1688.55 623.467L1692.49 630.02L1689.8 630.02L1686.63 624.711ZM1706.91 628.038L1706.91 632.7L1704.76 632.7L1704.76 630.02L1695.09 630.02L1695.09 632.7L1692.91 632.7L1692.93 628.038L1693.47 628.038Q1694.66 627.985 1695.13 626.284Q1695.61 624.583 1695.72 621.415L1695.86 617.42L1705.1 617.42L1705.1 628.038L1706.91 628.038ZM1697.77 621.63Q1697.68 624.078 1697.37 625.708Q1697.07 627.339 1696.4 628.038L1702.79 628.038L1702.79 619.398L1697.86 619.398L1697.77 621.63ZM1718.56 628.06L1718.56 630.02L1709.11 630.02L1709.11 617.42L1718.31 617.42L1718.31 619.38L1711.45 619.38L1711.45 622.659L1717.53 622.659L1717.53 624.583L1711.45 624.583L1711.45 628.06L1718.56 628.06ZM1732.37 617.42L1732.37 630.02L1730.02 630.02L1730.02 624.619L1723.51 624.619L1723.51 630.02L1721.17 630.02L1721.17 617.42L1723.51 617.42L1723.51 622.624L1730.02 622.624L1730.02 617.42L1732.37 617.42ZM1741.71 621.688Q1743.98 621.688 1745.19 622.703Q1746.4 623.718 1746.4 625.717Q1746.4 627.805 1745.07 628.912Q1743.74 630.02 1741.33 630.02L1735.91 630.02L1735.91 617.42L1738.22 617.42L1738.22 621.688L1741.71 621.688ZM1741.22 628.218Q1742.59 628.218 1743.33 627.589Q1744.07 626.961 1744.07 625.752Q1744.07 623.467 1741.22 623.467L1738.22 623.467L1738.22 628.218L1741.22 628.218Z" fill="#000000" fill-opacity="1.000000" fill-rule="evenodd"/>
	<path id="50" d="M16.6076 459.206Q19.4799 459.206 20.796 460.24Q22.1121 461.27 22.1121 463.122Q22.1121 464.276 21.5718 465.186Q21.0315 466.091 19.9509 466.613Q18.875 467.135 17.3049 467.135Q15.8872 467.135 14.608 466.673Q13.3335 466.207 12.5576 465.431L13.218 464.35Q13.883 465.034 14.959 465.459Q16.0396 465.884 17.2864 465.884Q18.9304 465.884 19.8309 465.149Q20.7314 464.41 20.7314 463.182Q20.7314 461.82 19.7154 461.118Q18.7041 460.416 16.3028 460.416L13.4858 460.416L14.1647 453.78L21.4102 453.78L21.4102 454.99L15.3561 454.99L14.9035 459.206L16.6076 459.206ZM29.1098 467.135Q27.5767 467.135 26.376 466.322Q25.1753 465.505 24.5011 463.986Q23.8315 462.462 23.8315 460.397Q23.8315 458.338 24.5011 456.814Q25.1753 455.29 26.376 454.477Q27.5767 453.665 29.1098 453.665Q30.643 453.665 31.8436 454.477Q33.0443 455.29 33.7231 456.814Q34.4066 458.338 34.4066 460.397Q34.4066 462.462 33.7231 463.986Q33.0443 465.505 31.8436 466.322Q30.643 467.135 29.1098 467.135ZM29.1098 465.884Q30.2643 465.884 31.1417 465.242Q32.0237 464.6 32.5132 463.371Q33.0073 462.138 33.0073 460.397Q33.0073 458.661 32.5132 457.433Q32.0237 456.2 31.1417 455.558Q30.2643 454.916 29.1098 454.916Q27.9553 454.916 27.0733 455.558Q26.1959 456.2 25.7018 457.433Q25.2123 458.661 25.2123 460.397Q25.2123 462.138 25.7018 463.371Q26.1959 464.6 27.0733 465.242Q27.9553 465.884 29.1098 465.884Z" fill="#000000" fill-opacity="1.000000" fill-rule="evenodd"/>
	<path id="80" d="M978.346 498.079Q979.598 498.494 980.267 499.326Q980.942 500.157 980.942 501.33Q980.942 502.484 980.314 503.348Q979.69 504.207 978.526 504.673Q977.363 505.135 975.797 505.135Q973.41 505.135 972.048 504.114Q970.69 503.089 970.69 501.33Q970.69 500.138 971.341 499.316Q971.992 498.494 973.244 498.079Q972.218 497.682 971.687 496.934Q971.161 496.185 971.161 495.165Q971.161 493.558 972.417 492.611Q973.678 491.665 975.797 491.665Q977.197 491.665 978.245 492.094Q979.293 492.519 979.88 493.313Q980.466 494.107 980.466 495.165Q980.466 496.185 979.917 496.934Q979.372 497.682 978.346 498.079ZM972.523 495.202Q972.523 496.301 973.391 496.943Q974.264 497.585 975.797 497.585Q977.326 497.585 978.203 496.943Q979.085 496.301 979.085 495.22Q979.085 494.107 978.185 493.466Q977.289 492.819 975.797 492.819Q974.283 492.819 973.401 493.466Q972.523 494.107 972.523 495.202ZM975.797 503.98Q977.552 503.98 978.545 503.26Q979.542 502.54 979.542 501.311Q979.542 500.083 978.545 499.376Q977.552 498.665 975.797 498.665Q974.056 498.665 973.063 499.376Q972.071 500.083 972.071 501.311Q972.071 502.563 973.054 503.274Q974.038 503.98 975.797 503.98ZM988.11 505.135Q986.577 505.135 985.376 504.322Q984.175 503.505 983.501 501.986Q982.832 500.462 982.832 498.397Q982.832 496.338 983.501 494.814Q984.175 493.29 985.376 492.477Q986.577 491.665 988.11 491.665Q989.643 491.665 990.844 492.477Q992.044 493.29 992.723 494.814Q993.407 496.338 993.407 498.397Q993.407 500.462 992.723 501.986Q992.044 503.505 990.844 504.322Q989.643 505.135 988.11 505.135ZM988.11 503.884Q989.264 503.884 990.142 503.242Q991.024 502.6 991.513 501.371Q992.007 500.138 992.007 498.397Q992.007 496.661 991.513 495.433Q991.024 494.2 990.142 493.558Q989.264 492.916 988.11 492.916Q986.955 492.916 986.073 493.558Q985.196 494.2 984.702 495.433Q984.212 496.661 984.212 498.397Q984.212 500.138 984.702 501.371Q985.196 502.6 986.073 503.242Q986.955 503.884 988.11 503.884Z" fill="#000000" fill-opacity="1.000000" fill-rule="evenodd"/>
	<path id="85" d="M980.162 423.079Q981.414 423.494 982.083 424.326Q982.758 425.157 982.758 426.33Q982.758 427.484 982.129 428.348Q981.506 429.207 980.342 429.673Q979.179 430.135 977.613 430.135Q975.226 430.135 973.863 429.114Q972.506 428.089 972.506 426.33Q972.506 425.138 973.157 424.316Q973.808 423.494 975.059 423.079Q974.034 422.682 973.503 421.934Q972.977 421.185 972.977 420.165Q972.977 418.558 974.233 417.611Q975.494 416.665 977.613 416.665Q979.012 416.665 980.061 417.094Q981.109 417.519 981.695 418.313Q982.282 419.107 982.282 420.165Q982.282 421.185 981.732 421.934Q981.187 422.682 980.162 423.079ZM974.339 420.202Q974.339 421.301 975.207 421.943Q976.08 422.585 977.613 422.585Q979.142 422.585 980.019 421.943Q980.901 421.301 980.901 420.22Q980.901 419.107 980.001 418.466Q979.105 417.819 977.613 417.819Q976.098 417.819 975.216 418.466Q974.339 419.107 974.339 420.202ZM977.613 428.98Q979.368 428.98 980.361 428.26Q981.358 427.54 981.358 426.311Q981.358 425.083 980.361 424.376Q979.368 423.665 977.613 423.665Q975.872 423.665 974.879 424.376Q973.886 425.083 973.886 426.311Q973.886 427.563 974.87 428.274Q975.854 428.98 977.613 428.98ZM988.129 422.206Q991.002 422.206 992.318 423.24Q993.634 424.27 993.634 426.122Q993.634 427.276 993.094 428.186Q992.553 429.091 991.473 429.613Q990.397 430.135 988.827 430.135Q987.409 430.135 986.13 429.673Q984.855 429.207 984.079 428.431L984.74 427.35Q985.405 428.034 986.481 428.459Q987.561 428.884 988.808 428.884Q990.452 428.884 991.353 428.149Q992.253 427.41 992.253 426.182Q992.253 424.82 991.237 424.118Q990.226 423.416 987.824 423.416L985.008 423.416L985.686 416.78L992.932 416.78L992.932 417.99L986.878 417.99L986.425 422.206L988.129 422.206Z" fill="#000000" fill-opacity="1.000000" fill-rule="evenodd"/>
	<path id="90" d="M975.436 341.665Q978.064 341.665 979.463 343.396Q980.862 345.128 980.862 348.287Q980.862 350.499 980.105 352.032Q979.352 353.565 977.99 354.35Q976.628 355.135 974.813 355.135Q972.845 355.135 971.672 354.415L972.222 353.316Q973.164 353.944 974.794 353.944Q976.988 353.944 978.235 352.554Q979.481 351.159 979.481 348.513Q979.481 348.019 979.426 347.437Q978.936 348.513 977.856 349.109Q976.78 349.704 975.381 349.704Q974.074 349.704 973.062 349.215Q972.051 348.721 971.483 347.825Q970.915 346.924 970.915 345.733Q970.915 344.523 971.502 343.595Q972.088 342.667 973.118 342.168Q974.148 341.665 975.436 341.665ZM975.589 348.55Q976.591 348.55 977.357 348.171Q978.124 347.792 978.558 347.132Q978.992 346.472 978.992 345.654Q978.992 344.902 978.586 344.26Q978.179 343.613 977.385 343.216Q976.591 342.819 975.492 342.819Q974.055 342.819 973.155 343.604Q972.259 344.389 972.259 345.696Q972.259 346.998 973.155 347.774Q974.055 348.55 975.589 348.55ZM988.11 355.135Q986.577 355.135 985.376 354.322Q984.175 353.505 983.501 351.986Q982.832 350.462 982.832 348.397Q982.832 346.338 983.501 344.814Q984.175 343.29 985.376 342.477Q986.577 341.665 988.11 341.665Q989.643 341.665 990.844 342.477Q992.044 343.29 992.723 344.814Q993.407 346.338 993.407 348.397Q993.407 350.462 992.723 351.986Q992.044 353.505 990.844 354.322Q989.643 355.135 988.11 355.135ZM988.11 353.884Q989.264 353.884 990.142 353.242Q991.024 352.6 991.513 351.371Q992.007 350.138 992.007 348.397Q992.007 346.661 991.513 345.433Q991.024 344.2 990.142 343.558Q989.264 342.916 988.11 342.916Q986.955 342.916 986.073 343.558Q985.196 344.2 984.702 345.433Q984.212 346.661 984.212 348.397Q984.212 350.138 984.702 351.371Q985.196 352.6 986.073 353.242Q986.955 353.884 988.11 353.884Z" fill="#000000" fill-opacity="1.000000" fill-rule="evenodd"/>
	<path id="95" d="M977.252 266.665Q979.88 266.665 981.279 268.396Q982.678 270.128 982.678 273.287Q982.678 275.499 981.921 277.032Q981.168 278.565 979.806 279.35Q978.443 280.135 976.629 280.135Q974.661 280.135 973.488 279.415L974.038 278.316Q974.98 278.944 976.61 278.944Q978.804 278.944 980.05 277.554Q981.297 276.159 981.297 273.513Q981.297 273.019 981.242 272.437Q980.752 273.513 979.672 274.109Q978.596 274.704 977.197 274.704Q975.89 274.704 974.878 274.215Q973.867 273.721 973.299 272.825Q972.731 271.924 972.731 270.733Q972.731 269.523 973.318 268.595Q973.904 267.667 974.934 267.168Q975.964 266.665 977.252 266.665ZM977.404 273.55Q978.406 273.55 979.173 273.171Q979.94 272.792 980.374 272.132Q980.808 271.472 980.808 270.654Q980.808 269.902 980.401 269.26Q979.995 268.613 979.201 268.216Q978.406 267.819 977.307 267.819Q975.871 267.819 974.971 268.604Q974.075 269.389 974.075 270.696Q974.075 271.998 974.971 272.774Q975.871 273.55 977.404 273.55ZM988.129 272.206Q991.002 272.206 992.318 273.24Q993.634 274.27 993.634 276.122Q993.634 277.276 993.094 278.186Q992.553 279.091 991.473 279.613Q990.397 280.135 988.827 280.135Q987.409 280.135 986.13 279.673Q984.855 279.207 984.079 278.431L984.74 277.35Q985.405 278.034 986.481 278.459Q987.561 278.884 988.808 278.884Q990.452 278.884 991.353 278.149Q992.253 277.41 992.253 276.182Q992.253 274.82 991.237 274.118Q990.226 273.416 987.824 273.416L985.008 273.416L985.686 266.78L992.932 266.78L992.932 267.99L986.878 267.99L986.425 272.206L988.129 272.206Z" fill="#000000" fill-opacity="1.000000" fill-rule="evenodd"/>
	<path id="100" d="M967.153 191.78L967.153 205.02L965.79 205.02L965.79 192.99L962.669 192.99L962.669 191.78L967.153 191.78ZM975.588 205.135Q974.055 205.135 972.854 204.322Q971.654 203.505 970.979 201.986Q970.31 200.462 970.31 198.397Q970.31 196.338 970.979 194.814Q971.654 193.29 972.854 192.477Q974.055 191.665 975.588 191.665Q977.121 191.665 978.322 192.477Q979.523 193.29 980.201 194.814Q980.885 196.338 980.885 198.397Q980.885 200.462 980.201 201.986Q979.523 203.505 978.322 204.322Q977.121 205.135 975.588 205.135ZM975.588 203.884Q976.743 203.884 977.62 203.242Q978.502 202.6 978.992 201.371Q979.486 200.138 979.486 198.397Q979.486 196.661 978.992 195.433Q978.502 194.2 977.62 193.558Q976.743 192.916 975.588 192.916Q974.434 192.916 973.552 193.558Q972.674 194.2 972.18 195.433Q971.691 196.661 971.691 198.397Q971.691 200.138 972.18 201.371Q972.674 202.6 973.552 203.242Q974.434 203.884 975.588 203.884ZM988.11 205.135Q986.577 205.135 985.376 204.322Q984.175 203.505 983.501 201.986Q982.832 200.462 982.832 198.397Q982.832 196.338 983.501 194.814Q984.175 193.29 985.376 192.477Q986.577 191.665 988.11 191.665Q989.643 191.665 990.844 192.477Q992.044 193.29 992.723 194.814Q993.407 196.338 993.407 198.397Q993.407 200.462 992.723 201.986Q992.044 203.505 990.844 204.322Q989.643 205.135 988.11 205.135ZM988.11 203.884Q989.264 203.884 990.142 203.242Q991.024 202.6 991.513 201.371Q992.007 200.138 992.007 198.397Q992.007 196.661 991.513 195.433Q991.024 194.2 990.142 193.558Q989.264 192.916 988.11 192.916Q986.955 192.916 986.073 193.558Q985.196 194.2 984.702 195.433Q984.212 196.661 984.212 198.397Q984.212 200.138 984.702 201.371Q985.196 202.6 986.073 203.242Q986.955 203.884 988.11 203.884Z" fill="#000000" fill-opacity="1.000000" fill-rule="evenodd"/>
	<path id="105" d="M968.969 116.78L968.969 130.02L967.606 130.02L967.606 117.99L964.485 117.99L964.485 116.78L968.969 116.78ZM977.404 130.135Q975.871 130.135 974.67 129.322Q973.469 128.505 972.795 126.986Q972.126 125.462 972.126 123.397Q972.126 121.338 972.795 119.814Q973.469 118.29 974.67 117.477Q975.871 116.665 977.404 116.665Q978.937 116.665 980.138 117.477Q981.338 118.29 982.017 119.814Q982.701 121.338 982.701 123.397Q982.701 125.462 982.017 126.986Q981.338 128.505 980.138 129.322Q978.937 130.135 977.404 130.135ZM977.404 128.884Q978.558 128.884 979.436 128.242Q980.318 127.6 980.807 126.371Q981.301 125.138 981.301 123.397Q981.301 121.661 980.807 120.433Q980.318 119.2 979.436 118.558Q978.558 117.916 977.404 117.916Q976.249 117.916 975.367 118.558Q974.49 119.2 973.996 120.433Q973.506 121.661 973.506 123.397Q973.506 125.138 973.996 126.371Q974.49 127.6 975.367 128.242Q976.249 128.884 977.404 128.884ZM988.129 122.206Q991.002 122.206 992.318 123.24Q993.634 124.27 993.634 126.122Q993.634 127.276 993.094 128.186Q992.553 129.091 991.473 129.613Q990.397 130.135 988.827 130.135Q987.409 130.135 986.13 129.673Q984.855 129.207 984.079 128.431L984.74 127.35Q985.405 128.034 986.481 128.459Q987.561 128.884 988.808 128.884Q990.452 128.884 991.353 128.149Q992.253 127.41 992.253 126.182Q992.253 124.82 991.237 124.118Q990.226 123.416 987.824 123.416L985.008 123.416L985.686 116.78L992.932 116.78L992.932 117.99L986.878 117.99L986.425 122.206L988.129 122.206Z" fill="#000000" fill-opacity="1.000000" fill-rule="evenodd"/>
	<path id="0" d="M27.1098 582.135Q25.5767 582.135 24.376 581.322Q23.1753 580.505 22.5011 578.986Q21.8315 577.462 21.8315 575.397Q21.8315 573.338 22.5011 571.814Q23.1753 570.29 24.376 569.477Q25.5767 568.665 27.1098 568.665Q28.643 568.665 29.8436 569.477Q31.0443 570.29 31.7231 571.814Q32.4066 573.338 32.4066 575.397Q32.4066 577.462 31.7231 578.986Q31.0443 580.505 29.8436 581.322Q28.643 582.135 27.1098 582.135ZM27.1098 580.884Q28.2643 580.884 29.1417 580.242Q30.0237 579.6 30.5132 578.371Q31.0073 577.138 31.0073 575.397Q31.0073 573.661 30.5132 572.433Q30.0237 571.2 29.1417 570.558Q28.2643 569.916 27.1098 569.916Q25.9553 569.916 25.0733 570.558Q24.1959 571.2 23.7018 572.433Q23.2123 573.661 23.2123 575.397Q23.2123 577.138 23.7018 578.371Q24.1959 579.6 25.0733 580.242Q25.9553 580.884 27.1098 580.884Z" fill="#000000" fill-opacity="1.000000" fill-rule="evenodd"/>
	<path id="75" d="M983.208 566.78L983.208 567.745L977.666 580.02L976.193 580.02L981.638 567.99L974.831 567.99L974.831 570.47L973.487 570.47L973.487 566.78L983.208 566.78ZM988.129 572.206Q991.002 572.206 992.318 573.24Q993.634 574.27 993.634 576.122Q993.634 577.276 993.094 578.186Q992.553 579.091 991.473 579.613Q990.397 580.135 988.827 580.135Q987.409 580.135 986.13 579.673Q984.855 579.207 984.079 578.431L984.74 577.35Q985.405 578.034 986.481 578.459Q987.561 578.884 988.808 578.884Q990.452 578.884 991.353 578.149Q992.253 577.41 992.253 576.182Q992.253 574.82 991.237 574.118Q990.226 573.416 987.824 573.416L985.008 573.416L985.686 566.78L992.932 566.78L992.932 567.99L986.878 567.99L986.425 572.206L988.129 572.206Z" fill="#000000" fill-opacity="1.000000" fill-rule="evenodd"/>
	<path id="100" d="M8.15274 341.78L8.15274 355.02L6.79046 355.02L6.79046 342.99L3.66875 342.99L3.66875 341.78L8.15274 341.78ZM16.5881 355.135Q15.0549 355.135 13.8543 354.322Q12.6536 353.505 11.9794 351.986Q11.3098 350.462 11.3098 348.397Q11.3098 346.338 11.9794 344.814Q12.6536 343.29 13.8543 342.477Q15.0549 341.665 16.5881 341.665Q18.1212 341.665 19.3219 342.477Q20.5226 343.29 21.2014 344.814Q21.8848 346.338 21.8848 348.397Q21.8848 350.462 21.2014 351.986Q20.5226 353.505 19.3219 354.322Q18.1212 355.135 16.5881 355.135ZM16.5881 353.884Q17.7426 353.884 18.62 353.242Q19.502 352.6 19.9915 351.371Q20.4856 350.138 20.4856 348.397Q20.4856 346.661 19.9915 345.433Q19.502 344.2 18.62 343.558Q17.7426 342.916 16.5881 342.916Q15.4336 342.916 14.5516 343.558Q13.6742 344.2 13.1801 345.433Q12.6906 346.661 12.6906 348.397Q12.6906 350.138 13.1801 351.371Q13.6742 352.6 14.5516 353.242Q15.4336 353.884 16.5881 353.884ZM29.1098 355.135Q27.5767 355.135 26.376 354.322Q25.1753 353.505 24.5011 351.986Q23.8315 350.462 23.8315 348.397Q23.8315 346.338 24.5011 344.814Q25.1753 343.29 26.376 342.477Q27.5767 341.665 29.1098 341.665Q30.643 341.665 31.8436 342.477Q33.0443 343.29 33.7231 344.814Q34.4066 346.338 34.4066 348.397Q34.4066 350.462 33.7231 351.986Q33.0443 353.505 31.8436 354.322Q30.643 355.135 29.1098 355.135ZM29.1098 353.884Q30.2643 353.884 31.1417 353.242Q32.0237 352.6 32.5132 351.371Q33.0073 350.138 33.0073 348.397Q33.0073 346.661 32.5132 345.433Q32.0237 344.2 31.1417 343.558Q30.2643 342.916 29.1098 342.916Q27.9553 342.916 27.0733 343.558Q26.1959 344.2 25.7018 345.433Q25.2123 346.661 25.2123 348.397Q25.2123 350.138 25.7018 351.371Q26.1959 352.6 27.0733 353.242Q27.9553 353.884 29.1098 353.884Z" fill="#000000" fill-opacity="1.000000" fill-rule="evenodd"/>
	<path id="150" d="M9.96858 229.78L9.96858 243.02L8.6063 243.02L8.6063 230.99L5.48459 230.99L5.48459 229.78L9.96858 229.78ZM16.6076 235.206Q19.4799 235.206 20.796 236.24Q22.1121 237.27 22.1121 239.122Q22.1121 240.276 21.5718 241.186Q21.0315 242.091 19.9509 242.613Q18.875 243.135 17.3049 243.135Q15.8872 243.135 14.608 242.673Q13.3335 242.207 12.5576 241.431L13.218 240.35Q13.883 241.034 14.959 241.459Q16.0396 241.884 17.2864 241.884Q18.9304 241.884 19.8309 241.149Q20.7314 240.41 20.7314 239.182Q20.7314 237.82 19.7154 237.118Q18.7041 236.416 16.3028 236.416L13.4858 236.416L14.1647 229.78L21.4102 229.78L21.4102 230.99L15.3561 230.99L14.9035 235.206L16.6076 235.206ZM29.1098 243.135Q27.5767 243.135 26.376 242.322Q25.1753 241.505 24.5011 239.986Q23.8315 238.462 23.8315 236.397Q23.8315 234.338 24.5011 232.814Q25.1753 231.29 26.376 230.477Q27.5767 229.665 29.1098 229.665Q30.643 229.665 31.8436 230.477Q33.0443 231.29 33.7231 232.814Q34.4066 234.338 34.4066 236.397Q34.4066 238.462 33.7231 239.986Q33.0443 241.505 31.8436 242.322Q30.643 243.135 29.1098 243.135ZM29.1098 241.884Q30.2643 241.884 31.1417 241.242Q32.0237 240.6 32.5132 239.371Q33.0073 238.138 33.0073 236.397Q33.0073 234.661 32.5132 233.433Q32.0237 232.2 31.1417 231.558Q30.2643 230.916 29.1098 230.916Q27.9553 230.916 27.0733 231.558Q26.1959 232.2 25.7018 233.433Q25.2123 234.661 25.2123 236.397Q25.2123 238.138 25.7018 239.371Q26.1959 240.6 27.0733 241.242Q27.9553 241.884 29.1098 241.884Z" fill="#000000" fill-opacity="1.000000" fill-rule="evenodd"/>
	<path id="200" d="M9.68364 133.81L9.68364 135.02L0.397012 135.02L0.397012 134.054L5.90157 128.665Q6.9406 127.645 7.31003 126.897Q7.67946 126.149 7.67946 125.391Q7.67946 124.218 6.87595 123.567Q6.07243 122.916 4.57623 122.916Q2.2488 122.916 0.965016 124.389L-0.000128388 123.558Q0.775681 122.648 1.97634 122.159Q3.177 121.665 4.69167 121.665Q6.71432 121.665 7.89651 122.62Q9.07869 123.576 9.07869 125.239Q9.07869 126.264 8.62152 127.211Q8.16896 128.153 6.90365 129.381L2.40119 133.81L9.68364 133.81ZM16.5881 135.135Q15.0549 135.135 13.8543 134.322Q12.6536 133.505 11.9794 131.986Q11.3098 130.462 11.3098 128.397Q11.3098 126.338 11.9794 124.814Q12.6536 123.29 13.8543 122.477Q15.0549 121.665 16.5881 121.665Q18.1212 121.665 19.3219 122.477Q20.5226 123.29 21.2014 124.814Q21.8848 126.338 21.8848 128.397Q21.8848 130.462 21.2014 131.986Q20.5226 133.505 19.3219 134.322Q18.1212 135.135 16.5881 135.135ZM16.5881 133.884Q17.7426 133.884 18.62 133.242Q19.502 132.6 19.9915 131.371Q20.4856 130.138 20.4856 128.397Q20.4856 126.661 19.9915 125.433Q19.502 124.2 18.62 123.558Q17.7426 122.916 16.5881 122.916Q15.4336 122.916 14.5516 123.558Q13.6742 124.2 13.1801 125.433Q12.6906 126.661 12.6906 128.397Q12.6906 130.138 13.1801 131.371Q13.6742 132.6 14.5516 133.242Q15.4336 133.884 16.5881 133.884ZM29.1098 135.135Q27.5767 135.135 26.376 134.322Q25.1753 133.505 24.5011 131.986Q23.8315 130.462 23.8315 128.397Q23.8315 126.338 24.5011 124.814Q25.1753 123.29 26.376 122.477Q27.5767 121.665 29.1098 121.665Q30.643 121.665 31.8436 122.477Q33.0443 123.29 33.7231 124.814Q34.4066 126.338 34.4066 128.397Q34.4066 130.462 33.7231 131.986Q33.0443 133.505 31.8436 134.322Q30.643 135.135 29.1098 135.135ZM29.1098 133.884Q30.2643 133.884 31.1417 133.242Q32.0237 132.6 32.5132 131.371Q33.0073 130.138 33.0073 128.397Q33.0073 126.661 32.5132 125.433Q32.0237 124.2 31.1417 123.558Q30.2643 122.916 29.1098 122.916Q27.9553 122.916 27.0733 123.558Q26.1959 124.2 25.7018 125.433Q25.2123 126.661 25.2123 128.397Q25.2123 130.138 25.7018 131.371Q26.1959 132.6 27.0733 133.242Q27.9553 133.884 29.1098 133.884Z" fill="#000000" fill-opacity="1.000000" fill-rule="evenodd"/>
	<path id="image 9 (Traced)" d="M312.449 611.171C311.785 611.415 311.277 612.242 311.384 612.903C311.5 613.62 311.687 613.834 315.936 618.114C321.525 623.743 321.525 622.386 315.936 628.016C312.823 631.15 311.742 632.29 311.607 632.574C310.831 634.217 312.266 635.593 313.904 634.777C314.504 634.479 324.445 624.505 324.729 623.917C325.365 622.601 325.446 622.711 319.388 616.645C313.489 610.737 313.534 610.772 312.449 611.171ZM322.642 611.423C321.91 611.862 321.662 612.791 322.055 613.621C322.199 613.925 323.183 614.964 326.351 618.154C331.892 623.736 331.897 622.388 326.31 628.016C323.197 631.15 322.116 632.29 321.981 632.574C321.205 634.217 322.64 635.594 324.278 634.777C324.897 634.469 334.751 624.588 335.062 623.965C335.739 622.603 335.795 622.68 329.846 616.723C323.893 610.762 323.827 610.712 322.642 611.423Z" fill="url(#paint_linear_80_4485_0)" fill-opacity="1.000000" fill-rule="evenodd"/>
	<path id="image 9 (Traced)" d="M1271.45 611.171C1270.78 611.415 1270.28 612.242 1270.38 612.903C1270.5 613.62 1270.69 613.834 1274.94 618.114C1280.52 623.743 1280.52 622.386 1274.94 628.016C1271.82 631.15 1270.74 632.29 1270.61 632.574C1269.83 634.217 1271.27 635.593 1272.9 634.777C1273.5 634.479 1283.44 624.505 1283.73 623.917C1284.36 622.601 1284.45 622.711 1278.39 616.645C1272.49 610.737 1272.53 610.772 1271.45 611.171ZM1281.64 611.423C1280.91 611.862 1280.66 612.791 1281.06 613.621C1281.2 613.925 1282.18 614.964 1285.35 618.154C1290.89 623.736 1290.9 622.388 1285.31 628.016C1282.2 631.15 1281.12 632.29 1280.98 632.574C1280.2 634.217 1281.64 635.594 1283.28 634.777C1283.9 634.469 1293.75 624.588 1294.06 623.965C1294.74 622.603 1294.8 622.68 1288.85 616.723C1282.89 610.762 1282.83 610.712 1281.64 611.423Z" fill="url(#paint_linear_81_4656_0)" fill-opacity="1.000000" fill-rule="evenodd"/>
	<path id="image 9 (Traced)" d="M590.45 611.171C589.785 611.415 589.277 612.242 589.384 612.903C589.5 613.62 589.687 613.834 593.936 618.114C599.525 623.743 599.525 622.386 593.936 628.016C590.824 631.15 589.742 632.29 589.607 632.574C588.832 634.217 590.266 635.593 591.904 634.777C592.503 634.479 602.445 624.505 602.729 623.917C603.365 622.601 603.447 622.711 597.388 616.645C591.489 610.737 591.534 610.772 590.45 611.171ZM600.642 611.423C599.911 611.862 599.663 612.791 600.055 613.621C600.199 613.925 601.183 614.964 604.351 618.154C609.892 623.736 609.898 622.388 604.31 628.016C601.198 631.15 600.116 632.29 599.981 632.574C599.205 634.217 600.64 635.594 602.278 634.777C602.897 634.469 612.751 624.588 613.062 623.965C613.74 622.603 613.795 622.68 607.846 616.723C601.893 610.762 601.827 610.712 600.642 611.423Z" fill="url(#paint_linear_81_4626_0)" fill-opacity="1.000000" fill-rule="evenodd"/>
	<path id="image 9 (Traced)" d="M1549.45 611.171C1548.78 611.415 1548.28 612.242 1548.38 612.903C1548.5 613.62 1548.69 613.834 1552.94 618.114C1558.52 623.743 1558.52 622.386 1552.94 628.016C1549.82 631.15 1548.74 632.29 1548.61 632.574C1547.83 634.217 1549.27 635.593 1550.9 634.777C1551.5 634.479 1561.44 624.505 1561.73 623.917C1562.36 622.601 1562.45 622.711 1556.39 616.645C1550.49 610.737 1550.53 610.772 1549.45 611.171ZM1559.64 611.423C1558.91 611.862 1558.66 612.791 1559.06 613.621C1559.2 613.925 1560.18 614.964 1563.35 618.154C1568.89 623.736 1568.9 622.388 1563.31 628.016C1560.2 631.15 1559.12 632.29 1558.98 632.574C1558.2 634.217 1559.64 635.594 1561.28 634.777C1561.9 634.469 1571.75 624.588 1572.06 623.965C1572.74 622.603 1572.8 622.68 1566.85 616.723C1560.89 610.762 1560.83 610.712 1559.64 611.423Z" fill="url(#paint_linear_81_4657_0)" fill-opacity="1.000000" fill-rule="evenodd"/>
	<path id="Основна група" d="M710.084 737.261Q706.906 737.261 704.357 735.87Q701.808 734.471 700.351 732.01Q698.9 729.549 698.9 726.517Q698.9 723.492 700.351 721.031Q701.808 718.57 704.357 717.178Q706.906 715.779 710.084 715.779Q713.234 715.779 715.783 717.178Q718.339 718.57 719.774 721.016Q721.217 723.462 721.217 726.517Q721.217 729.578 719.774 732.024Q718.339 734.471 715.783 735.87Q713.234 737.261 710.084 737.261ZM710.084 734.588Q712.399 734.588 714.245 733.541Q716.09 732.493 717.152 730.647Q718.214 728.802 718.214 726.517Q718.214 724.239 717.152 722.393Q716.09 720.547 714.245 719.5Q712.399 718.453 710.084 718.453Q707.777 718.453 705.902 719.5Q704.027 720.547 702.958 722.393Q701.896 724.239 701.896 726.517Q701.896 728.802 702.958 730.647Q704.027 732.493 705.902 733.541Q707.777 734.588 710.084 734.588ZM732.529 737.203Q730.097 737.203 728.193 736.155Q726.289 735.101 725.205 733.255Q724.128 731.409 724.128 729.073Q724.128 726.729 725.205 724.883Q726.289 723.038 728.193 722.005Q730.097 720.972 732.529 720.972Q734.69 720.972 736.381 721.844Q738.081 722.708 739.011 724.356L736.821 725.77Q736.066 724.627 734.953 724.063Q733.847 723.492 732.5 723.492Q730.94 723.492 729.694 724.18Q728.449 724.869 727.739 726.143Q727.036 727.417 727.036 729.073Q727.036 730.75 727.739 732.024Q728.449 733.299 729.694 733.995Q730.94 734.683 732.5 734.683Q733.847 734.683 734.953 734.112Q736.066 733.541 736.821 732.398L739.011 733.782Q738.081 735.43 736.381 736.316Q734.69 737.203 732.529 737.203ZM742.73 721.119L745.609 721.119L745.609 727.872L754.669 727.872L754.669 721.119L757.547 721.119L757.547 737.02L754.669 737.02L754.669 730.362L745.609 730.362L745.609 737.02L742.73 737.02L742.73 721.119ZM769.972 737.203Q767.599 737.203 765.709 736.155Q763.819 735.101 762.75 733.255Q761.688 731.409 761.688 729.073Q761.688 726.729 762.75 724.883Q763.819 723.038 765.709 722.005Q767.599 720.972 769.972 720.972Q772.337 720.972 774.212 722.005Q776.087 723.038 777.149 724.883Q778.219 726.729 778.219 729.073Q778.219 731.409 777.149 733.255Q776.087 735.101 774.212 736.155Q772.337 737.203 769.972 737.203ZM769.972 734.683Q771.495 734.683 772.711 733.98Q773.927 733.27 774.615 731.995Q775.311 730.721 775.311 729.073Q775.311 727.417 774.615 726.143Q773.927 724.869 772.711 724.18Q771.495 723.492 769.972 723.492Q768.441 723.492 767.225 724.18Q766.009 724.869 765.299 726.143Q764.596 727.417 764.596 729.073Q764.596 730.721 765.299 731.995Q766.009 733.27 767.225 733.98Q768.441 734.683 769.972 734.683ZM793.223 728.772Q796.306 729.549 796.306 732.64Q796.306 734.742 794.731 735.884Q793.157 737.02 790.037 737.02L782.39 737.02L782.39 721.119L789.773 721.119Q792.593 721.119 794.182 722.188Q795.771 723.25 795.771 725.198Q795.771 726.458 795.09 727.374Q794.417 728.289 793.223 728.772ZM785.21 727.959L789.531 727.959Q791.179 727.959 792.036 727.359Q792.893 726.758 792.893 725.623Q792.893 723.338 789.531 723.338L785.21 723.338L785.21 727.959ZM789.832 734.8Q791.626 734.8 792.527 734.229Q793.428 733.658 793.428 732.457Q793.428 731.226 792.6 730.633Q791.78 730.032 790.007 730.032L785.21 730.032L785.21 734.8L789.832 734.8ZM800.81 721.119L803.689 721.119L803.689 727.872L812.749 727.872L812.749 721.119L815.627 721.119L815.627 737.02L812.749 737.02L812.749 730.362L803.689 730.362L803.689 737.02L800.81 737.02L800.81 721.119ZM826.909 720.972Q830.212 720.972 831.963 722.591Q833.721 724.209 833.721 727.417L833.721 737.02L830.989 737.02L830.989 734.917Q830.271 736.031 828.931 736.617Q827.598 737.203 825.774 737.203Q823.101 737.203 821.497 735.914Q819.893 734.617 819.893 732.522Q819.893 730.42 821.423 729.146Q822.954 727.872 826.279 727.872L830.842 727.872L830.842 727.3Q830.842 725.44 829.758 724.451Q828.682 723.462 826.579 723.462Q825.173 723.462 823.818 723.931Q822.471 724.393 821.54 725.169L820.339 723.008Q821.57 722.02 823.276 721.5Q824.99 720.972 826.909 720.972ZM826.25 734.976Q827.898 734.976 829.099 734.244Q830.3 733.511 830.842 732.156L830.842 729.937L826.404 729.937Q822.742 729.937 822.742 732.398Q822.742 733.599 823.672 734.288Q824.602 734.976 826.25 734.976ZM858.677 723.638L849.859 723.638L849.859 737.02L846.98 737.02L846.98 721.119L858.677 721.119L858.677 723.638ZM870.05 720.972Q872.357 720.972 874.189 721.99Q876.02 723.008 877.052 724.839Q878.085 726.67 878.085 729.073Q878.085 731.468 877.052 733.313Q876.02 735.159 874.189 736.185Q872.357 737.203 870.05 737.203Q868.336 737.203 866.908 736.543Q865.487 735.877 864.499 734.617L864.499 742.842L861.62 742.842L861.62 721.119L864.381 721.119L864.381 723.638Q865.341 722.32 866.806 721.646Q868.278 720.972 870.05 720.972ZM869.809 734.683Q871.339 734.683 872.555 733.98Q873.771 733.27 874.474 731.995Q875.177 730.721 875.177 729.073Q875.177 727.417 874.474 726.143Q873.771 724.869 872.555 724.18Q871.339 723.492 869.809 723.492Q868.307 723.492 867.091 724.195Q865.876 724.898 865.172 726.158Q864.469 727.417 864.469 729.073Q864.469 730.721 865.158 731.995Q865.846 733.27 867.077 733.98Q868.307 734.683 869.809 734.683ZM896.005 721.119L888.292 738.609Q887.274 741.041 885.904 742.029Q884.542 743.018 882.623 743.018Q881.451 743.018 880.353 742.645Q879.261 742.271 878.544 741.546L879.774 739.393Q881.005 740.557 882.623 740.557Q883.671 740.557 884.374 740Q885.084 739.451 885.655 738.096L886.161 736.99L879.144 721.119L882.14 721.119L887.692 733.841L893.185 721.119L896.005 721.119ZM913.669 721.119L913.669 737.02L910.791 737.02L910.791 723.638L901.819 723.638L901.819 737.02L898.94 737.02L898.94 721.119L913.669 721.119ZM924.919 720.972Q928.222 720.972 929.973 722.591Q931.731 724.209 931.731 727.417L931.731 737.02L928.999 737.02L928.999 734.917Q928.281 736.031 926.941 736.617Q925.608 737.203 923.784 737.203Q921.111 737.203 919.507 735.914Q917.903 734.617 917.903 732.522Q917.903 730.42 919.433 729.146Q920.964 727.872 924.289 727.872L928.852 727.872L928.852 727.3Q928.852 725.44 927.768 724.451Q926.692 723.462 924.59 723.462Q923.183 723.462 921.828 723.931Q920.481 724.393 919.55 725.169L918.349 723.008Q919.58 722.02 921.286 721.5Q923 720.972 924.919 720.972ZM924.26 734.976Q925.908 734.976 927.109 734.244Q928.31 733.511 928.852 732.156L928.852 729.937L924.414 729.937Q920.752 729.937 920.752 732.398Q920.752 733.599 921.682 734.288Q922.612 734.976 924.26 734.976Z" fill="#000000" fill-opacity="1.000000" fill-rule="evenodd"/>
	<rect id="Rectangle 26" x="631.369629" y="701.019531" rx="12.000000" width="46.000000" height="46.000000" fill="url(#paint_linear_80_4489_0)" fill-opacity="1.000000"/>
	<path id="Група порівняння" d="M1083.38 718.628L1072.58 718.628L1072.61 737.02L1069.64 737.02L1069.64 716.021L1083.41 716.021L1083.38 718.628ZM1091.9 720.972Q1094.21 720.972 1096.04 721.99Q1097.87 723.008 1098.9 724.839Q1099.94 726.67 1099.94 729.073Q1099.94 731.468 1098.9 733.313Q1097.87 735.159 1096.04 736.185Q1094.21 737.203 1091.9 737.203Q1090.19 737.203 1088.76 736.543Q1087.34 735.877 1086.35 734.617L1086.35 742.842L1083.47 742.842L1083.47 721.119L1086.23 721.119L1086.23 723.638Q1087.19 722.32 1088.66 721.646Q1090.13 720.972 1091.9 720.972ZM1091.66 734.683Q1093.19 734.683 1094.41 733.98Q1095.62 733.27 1096.32 731.995Q1097.03 730.721 1097.03 729.073Q1097.03 727.417 1096.32 726.143Q1095.62 724.869 1094.41 724.18Q1093.19 723.492 1091.66 723.492Q1090.16 723.492 1088.94 724.195Q1087.73 724.898 1087.02 726.158Q1086.32 727.417 1086.32 729.073Q1086.32 730.721 1087.01 731.995Q1087.7 733.27 1088.93 733.98Q1090.16 734.683 1091.66 734.683ZM1117.85 721.119L1110.14 738.609Q1109.12 741.041 1107.75 742.029Q1106.39 743.018 1104.47 743.018Q1103.3 743.018 1102.2 742.645Q1101.11 742.271 1100.39 741.546L1101.62 739.393Q1102.85 740.557 1104.47 740.557Q1105.52 740.557 1106.22 740Q1106.93 739.451 1107.51 738.096L1108.01 736.99L1100.99 721.119L1103.99 721.119L1109.54 733.841L1115.03 721.119L1117.85 721.119ZM1135.52 721.119L1135.52 737.02L1132.64 737.02L1132.64 723.638L1123.67 723.638L1123.67 737.02L1120.79 737.02L1120.79 721.119L1135.52 721.119ZM1146.77 720.972Q1150.07 720.972 1151.82 722.591Q1153.58 724.209 1153.58 727.417L1153.58 737.02L1150.85 737.02L1150.85 734.917Q1150.13 736.031 1148.79 736.617Q1147.46 737.203 1145.63 737.203Q1142.96 737.203 1141.36 735.914Q1139.75 734.617 1139.75 732.522Q1139.75 730.42 1141.28 729.146Q1142.81 727.872 1146.14 727.872L1150.7 727.872L1150.7 727.3Q1150.7 725.44 1149.62 724.451Q1148.54 723.462 1146.44 723.462Q1145.03 723.462 1143.68 723.931Q1142.33 724.393 1141.4 725.169L1140.2 723.008Q1141.43 722.02 1143.14 721.5Q1144.85 720.972 1146.77 720.972ZM1146.11 734.976Q1147.76 734.976 1148.96 734.244Q1150.16 733.511 1150.7 732.156L1150.7 729.937L1146.26 729.937Q1142.6 729.937 1142.6 732.398Q1142.6 733.599 1143.53 734.288Q1144.46 734.976 1146.11 734.976ZM1181.57 721.119L1181.57 737.02L1178.69 737.02L1178.69 723.638L1169.72 723.638L1169.72 737.02L1166.84 737.02L1166.84 721.119L1181.57 721.119ZM1193.96 737.203Q1191.59 737.203 1189.7 736.155Q1187.81 735.101 1186.74 733.255Q1185.68 731.409 1185.68 729.073Q1185.68 726.729 1186.74 724.883Q1187.81 723.038 1189.7 722.005Q1191.59 720.972 1193.96 720.972Q1196.33 720.972 1198.2 722.005Q1200.08 723.038 1201.14 724.883Q1202.21 726.729 1202.21 729.073Q1202.21 731.409 1201.14 733.255Q1200.08 735.101 1198.2 736.155Q1196.33 737.203 1193.96 737.203ZM1193.96 734.683Q1195.49 734.683 1196.7 733.98Q1197.92 733.27 1198.61 731.995Q1199.3 730.721 1199.3 729.073Q1199.3 727.417 1198.61 726.143Q1197.92 724.869 1196.7 724.18Q1195.49 723.492 1193.96 723.492Q1192.43 723.492 1191.22 724.18Q1190 724.869 1189.29 726.143Q1188.59 727.417 1188.59 729.073Q1188.59 730.721 1189.29 731.995Q1190 733.27 1191.22 733.98Q1192.43 734.683 1193.96 734.683ZM1214.81 720.972Q1217.12 720.972 1218.95 721.99Q1220.78 723.008 1221.81 724.839Q1222.84 726.67 1222.84 729.073Q1222.84 731.468 1221.81 733.313Q1220.78 735.159 1218.95 736.185Q1217.12 737.203 1214.81 737.203Q1213.1 737.203 1211.67 736.543Q1210.25 735.877 1209.26 734.617L1209.26 742.842L1206.38 742.842L1206.38 721.119L1209.14 721.119L1209.14 723.638Q1210.1 722.32 1211.57 721.646Q1213.04 720.972 1214.81 720.972ZM1214.57 734.683Q1216.1 734.683 1217.32 733.98Q1218.53 733.27 1219.23 731.995Q1219.94 730.721 1219.94 729.073Q1219.94 727.417 1219.23 726.143Q1218.53 724.869 1217.32 724.18Q1216.1 723.492 1214.57 723.492Q1213.07 723.492 1211.85 724.195Q1210.64 724.898 1209.93 726.158Q1209.23 727.417 1209.23 729.073Q1209.23 730.721 1209.92 731.995Q1210.61 733.27 1211.84 733.98Q1213.07 734.683 1214.57 734.683ZM1227.02 721.119L1229.9 721.119L1229.9 737.02L1227.02 737.02L1227.02 721.119ZM1228.46 718.057Q1227.62 718.057 1227.06 717.522Q1226.51 716.98 1226.51 716.197Q1226.51 715.42 1227.06 714.864Q1227.62 714.307 1228.46 714.307Q1229.3 714.307 1229.85 714.834Q1230.4 715.362 1230.4 716.138Q1230.4 716.951 1229.85 717.508Q1229.3 718.057 1228.46 718.057ZM1246.34 728.772Q1249.43 729.549 1249.43 732.64Q1249.43 734.742 1247.85 735.884Q1246.28 737.02 1243.16 737.02L1235.51 737.02L1235.51 721.119L1242.89 721.119Q1245.71 721.119 1247.3 722.188Q1248.89 723.25 1248.89 725.198Q1248.89 726.458 1248.21 727.374Q1247.54 728.289 1246.34 728.772ZM1238.33 727.959L1242.65 727.959Q1244.3 727.959 1245.16 727.359Q1246.01 726.758 1246.01 725.623Q1246.01 723.338 1242.65 723.338L1238.33 723.338L1238.33 727.959ZM1242.95 734.8Q1244.75 734.8 1245.65 734.229Q1246.55 733.658 1246.55 732.457Q1246.55 731.226 1245.72 730.633Q1244.9 730.032 1243.13 730.032L1238.33 730.032L1238.33 734.8L1242.95 734.8ZM1253.93 721.119L1256.81 721.119L1256.81 727.872L1265.87 727.872L1265.87 721.119L1268.75 721.119L1268.75 737.02L1265.87 737.02L1265.87 730.362L1256.81 730.362L1256.81 737.02L1253.93 737.02L1253.93 721.119ZM1287.11 721.119L1287.11 737.02L1284.53 737.02L1284.53 731.98L1279.91 731.98L1279.58 731.98L1276.1 737.02L1273.01 737.02L1276.88 731.592Q1275.08 731.05 1274.12 729.805Q1273.16 728.56 1273.16 726.7Q1273.16 723.968 1275.02 722.547Q1276.88 721.119 1280.15 721.119L1287.11 721.119ZM1276.1 726.788Q1276.1 728.377 1277.1 729.146Q1278.11 729.908 1280.12 729.908L1284.53 729.908L1284.53 723.638L1280.24 723.638Q1276.1 723.638 1276.1 726.788ZM1292.72 721.119L1295.6 721.119L1295.6 727.872L1304.66 727.872L1304.66 721.119L1307.54 721.119L1307.54 737.02L1304.66 737.02L1304.66 730.362L1295.6 730.362L1295.6 737.02L1292.72 737.02L1292.72 721.119ZM1313.15 721.119L1316.03 721.119L1316.03 727.872L1325.09 727.872L1325.09 721.119L1327.97 721.119L1327.97 737.02L1325.09 737.02L1325.09 730.362L1316.03 730.362L1316.03 737.02L1313.15 737.02L1313.15 721.119ZM1346.33 721.119L1346.33 737.02L1343.75 737.02L1343.75 731.98L1339.13 731.98L1338.8 731.98L1335.32 737.02L1332.23 737.02L1336.1 731.592Q1334.3 731.05 1333.34 729.805Q1332.38 728.56 1332.38 726.7Q1332.38 723.968 1334.24 722.547Q1336.1 721.119 1339.37 721.119L1346.33 721.119ZM1335.32 726.788Q1335.32 728.377 1336.32 729.146Q1337.33 729.908 1339.34 729.908L1343.75 729.908L1343.75 723.638L1339.46 723.638Q1335.32 723.638 1335.32 726.788Z" fill="#000000" fill-opacity="1.000000" fill-rule="evenodd"/>
	<rect id="Rectangle 26" x="1000.369629" y="701.019531" rx="12.000000" width="46.000000" height="46.000000" fill="url(#paint_linear_80_4492_0)" fill-opacity="1.000000"/>
</svg>
