<svg width="1337.113770" height="567.355469" viewBox="0 0 1337.11 567.355" fill="none" xmlns="http://www.w3.org/2000/svg" xmlns:xlink="http://www.w3.org/1999/xlink">
	<desc>
			Created with Pixso.
	</desc>
	<defs>
		<linearGradient id="paint_linear_85_5872_0" x1="392.427246" y1="117.355469" x2="392.427246" y2="731.874695" gradientUnits="userSpaceOnUse">
			<stop stop-color="#BBBBBB"/>
			<stop offset="1.000000" stop-color="#BBBBBB" stop-opacity="0.000000"/>
		</linearGradient>
		<linearGradient id="paint_linear_85_5873_0" x1="783.427246" y1="91.355469" x2="783.427246" y2="747.374695" gradientUnits="userSpaceOnUse">
			<stop stop-color="#BBBBBB"/>
			<stop offset="1.000000" stop-color="#BBBBBB" stop-opacity="0.000000"/>
		</linearGradient>
		<linearGradient id="paint_linear_85_5874_0" x1="1174.427246" y1="55.355469" x2="1174.427246" y2="768.836243" gradientUnits="userSpaceOnUse">
			<stop stop-color="#BBBBBB"/>
			<stop offset="1.000000" stop-color="#BBBBBB" stop-opacity="0.000000"/>
		</linearGradient>
		<linearGradient id="paint_linear_85_5875_0" x1="263.427246" y1="228.355469" x2="263.427246" y2="502.355469" gradientUnits="userSpaceOnUse">
			<stop stop-color="#516ACF"/>
			<stop offset="1.000000" stop-color="#A9BAFF"/>
		</linearGradient>
		<linearGradient id="paint_linear_85_5876_0" x1="654.427246" y1="279.355469" x2="654.427246" y2="502.355469" gradientUnits="userSpaceOnUse">
			<stop stop-color="#516ACF"/>
			<stop offset="1.000000" stop-color="#A9BAFF"/>
		</linearGradient>
		<linearGradient id="paint_linear_85_5877_0" x1="1045.427246" y1="228.355469" x2="1045.427246" y2="502.355469" gradientUnits="userSpaceOnUse">
			<stop stop-color="#516ACF"/>
			<stop offset="1.000000" stop-color="#A9BAFF"/>
		</linearGradient>
		<linearGradient id="paint_linear_85_5896_0" x1="518.927246" y1="543.355469" x2="518.927246" y2="567.355469" gradientUnits="userSpaceOnUse">
			<stop stop-color="#516ACF"/>
			<stop offset="1.000000" stop-color="#A9BAFF"/>
		</linearGradient>
		<linearGradient id="paint_linear_85_5897_0" x1="908.927246" y1="543.355469" x2="908.927246" y2="567.355469" gradientUnits="userSpaceOnUse">
			<stop stop-color="#516ACF"/>
			<stop offset="1.000000" stop-color="#A9BAFF"/>
		</linearGradient>
	</defs>
	<path id="Тривалість (дні)" d="M3.60132 375.603L3.60132 381.603L18.9272 381.603L18.9272 384.057L3.60132 384.057L3.60132 390.032L1.42847 390.032L1.42847 375.603L3.60132 375.603ZM5.55444 366.255Q5.55444 364.332 6.40283 362.806Q7.25122 361.281 8.7771 360.42Q10.303 359.559 12.3049 359.559Q14.3008 359.559 15.8389 360.42Q17.377 361.281 18.2314 362.806Q19.0798 364.332 19.0798 366.255Q19.0798 367.683 18.5305 368.873Q17.9751 370.057 16.9253 370.881L23.7795 370.881L23.7795 373.28L5.67651 373.28L5.67651 370.979L7.77612 370.979Q6.67749 370.179 6.11597 368.959Q5.55444 367.732 5.55444 366.255ZM16.9802 366.456Q16.9802 365.181 16.3943 364.167Q15.8022 363.154 14.7402 362.568Q13.6782 361.982 12.3049 361.982Q10.9255 361.982 9.86352 362.568Q8.80151 363.154 8.22778 364.167Q7.65405 365.181 7.65405 366.456Q7.65405 367.708 8.23999 368.721Q8.82593 369.734 9.87573 370.32Q10.9255 370.906 12.3049 370.906Q13.6782 370.906 14.7402 370.332Q15.8022 369.758 16.3943 368.733Q16.9802 367.708 16.9802 366.456ZM5.67651 356.08L5.67651 353.681L15.3262 353.681L5.67651 345.558L5.67651 343.379L18.9272 343.379L18.9272 345.783L9.27759 345.783L18.9272 353.883L18.9272 356.08L5.67651 356.08ZM12.0547 329.703Q12.7017 327.133 15.2773 327.133Q17.0291 327.133 17.9812 328.446Q18.9272 329.758 18.9272 332.358L18.9272 338.73L5.67651 338.73L5.67651 332.578Q5.67651 330.228 6.56762 328.903Q7.45263 327.579 9.07617 327.579Q10.126 327.579 10.8889 328.147Q11.6519 328.708 12.0547 329.703ZM11.3772 336.38L11.3772 332.779Q11.3772 331.406 10.8767 330.692Q10.3762 329.978 9.43017 329.978Q7.52588 329.978 7.52588 332.779L7.52588 336.38L11.3772 336.38ZM17.0779 332.529Q17.0779 331.034 16.6018 330.283Q16.1257 329.532 15.1248 329.532Q14.0994 329.532 13.605 330.222Q13.1045 330.905 13.1045 332.382L13.1045 336.38L17.0779 336.38L17.0779 332.529ZM5.55444 318.656Q5.55444 315.903 6.90332 314.444Q8.25219 312.98 10.9255 312.98L18.9272 312.98L18.9272 315.256L17.1755 315.256Q18.1033 315.854 18.5915 316.971Q19.0798 318.082 19.0798 319.602Q19.0798 321.83 18.0056 323.166Q16.9253 324.503 15.1797 324.503Q13.428 324.503 12.366 323.227Q11.304 321.952 11.304 319.181L11.304 315.378L10.8279 315.378Q9.27758 315.378 8.45361 316.282Q7.62964 317.179 7.62964 318.931Q7.62964 320.102 8.02026 321.232Q8.40478 322.355 9.05175 323.13L7.25122 324.131Q6.42724 323.105 5.99389 321.683Q5.55444 320.255 5.55444 318.656ZM17.2244 319.205Q17.2244 317.832 16.614 316.831Q16.0037 315.83 14.8745 315.378L13.0251 315.378L13.0251 319.077Q13.0251 322.129 15.0759 322.129Q16.0769 322.129 16.6506 321.354Q17.2244 320.579 17.2244 319.205ZM5.67651 297.278L18.9272 297.278L18.9272 299.683L7.77612 299.683L7.77612 305.377L10.7302 305.53Q13.4036 305.658 15.1919 306.006Q16.9802 306.354 18.0544 307.154Q19.1287 307.953 19.1287 309.381Q19.1287 310.028 18.9028 310.858L16.8765 310.706Q16.9497 310.382 16.9497 310.108Q16.9497 309.107 16.0769 308.606Q15.2041 308.106 14.0017 307.959Q12.7993 307.807 10.5776 307.678L5.67651 307.453L5.67651 297.278ZM5.67651 292.63L5.67651 290.231L18.9272 290.231L18.9272 292.63L5.67651 292.63ZM3.12524 291.434Q3.12524 292.13 2.67968 292.593Q2.22802 293.057 1.57495 293.057Q0.927975 293.057 0.464107 292.593Q0.000239849 292.13 0.000239849 291.434Q0.000239849 290.732 0.439693 290.274Q0.879146 289.81 1.52612 289.81Q2.20361 289.81 2.66748 290.274Q3.12524 290.732 3.12524 291.434ZM19.0798 279.781Q19.0798 281.807 18.207 283.394Q17.3281 284.981 15.79 285.885Q14.2519 286.782 12.3049 286.782Q10.3518 286.782 8.81372 285.885Q7.27563 284.981 6.41503 283.394Q5.55444 281.807 5.55444 279.781Q5.55444 277.981 6.28076 276.571Q7.00097 275.155 8.37426 274.379L9.55224 276.204Q8.60009 276.833 8.13012 277.761Q7.65405 278.682 7.65405 279.806Q7.65405 281.106 8.22778 282.143Q8.80151 283.181 9.86352 283.773Q10.9255 284.359 12.3049 284.359Q13.7026 284.359 14.7646 283.773Q15.8267 283.181 16.4065 282.143Q16.9802 281.106 16.9802 279.806Q16.9802 278.682 16.5041 277.761Q16.0281 276.833 15.0759 276.204L16.2295 274.379Q17.6028 275.155 18.3413 276.571Q19.0798 277.981 19.0798 279.781ZM7.77612 261.58L7.77612 266.432L18.9272 266.432L18.9272 268.831L7.77612 268.831L7.77612 273.683L5.67651 273.683L5.67651 261.58L7.77612 261.58ZM10.1748 253.008Q10.1992 250.481 11.3284 249.157Q12.4514 247.832 14.5022 247.832Q16.6506 247.832 17.8164 249.273Q18.9761 250.707 18.9517 253.381L18.9272 259.13L5.67651 259.13L5.67651 256.731L10.1504 256.731L10.1748 253.008ZM17.1267 253.582Q17.1511 251.958 16.4797 251.122Q15.8022 250.28 14.4778 250.28Q13.1777 250.28 12.5796 251.092Q11.9753 251.903 11.9509 253.582L11.9021 256.731L17.1023 256.731L17.1267 253.582ZM23.7795 235.003Q21.4785 236.431 18.4939 237.206Q15.5032 237.981 12.0791 237.981Q8.65502 237.981 5.63989 237.206Q2.62475 236.431 0.378655 235.003L0.378655 232.732Q3.00317 234.228 5.87792 234.929Q8.75268 235.631 12.0791 235.631Q15.3994 235.631 18.2803 234.929Q21.155 234.228 23.7795 232.732L23.7795 235.003ZM16.8276 216.453L22.0034 216.453L22.0034 218.706L18.9272 218.706L18.9272 229.777L22.0034 229.777L22.0034 232.054L16.8276 232.054L16.8276 231.358Q16.7544 230.083 15.0271 229.607Q13.2998 229.13 10.1504 228.953L5.67651 228.758L5.67651 218.48L16.8276 218.48L16.8276 216.453ZM10.3274 226.756Q12.8298 226.854 14.4656 227.171Q16.1013 227.483 16.8276 228.306L16.8276 220.879L7.77612 220.879L7.77612 226.628L10.3274 226.756ZM5.67651 213.33L5.67651 210.931L11.3039 210.931L11.3039 203.381L5.67651 203.381L5.67651 200.983L18.9272 200.983L18.9272 203.381L13.3791 203.381L13.3791 210.931L18.9272 210.931L18.9272 213.33L5.67651 213.33ZM5.67651 196.305L5.67651 193.906L18.9272 193.906L18.9272 196.305L5.67651 196.305ZM3.12524 195.109Q3.12524 195.805 2.67968 196.268Q2.22802 196.732 1.57494 196.732Q0.92797 196.732 0.464103 196.268Q0.000235558 195.805 0.000235558 195.109Q0.000235558 194.407 0.439689 193.949Q0.879142 193.485 1.52611 193.485Q2.2036 193.485 2.66747 193.949Q3.12524 194.407 3.12524 195.109ZM23.7795 190.756Q21.155 189.254 18.2803 188.546Q15.3994 187.832 12.0791 187.832Q8.75268 187.832 5.87792 188.546Q3.00317 189.254 0.378654 190.756L0.378653 188.479Q2.62475 187.033 5.62768 186.258Q8.6245 185.482 12.0791 185.482Q15.5032 185.482 18.5061 186.258Q21.5029 187.033 23.7795 188.479L23.7795 190.756Z" fill="#000000" fill-opacity="1.000000" fill-rule="evenodd"/>
	<path id="Line 2" d="M102.109 2.35547L102.109 504.355L99.7451 504.355L99.7451 2.35547L102.109 2.35547ZM100.927 4.02734L95.0757 9.87891C94.6074 10.3477 93.8721 10.3477 93.4038 9.87891C92.9355 9.41016 92.9355 8.67578 93.4038 8.20703L100.091 1.51953C100.56 1.05078 101.295 1.05078 101.763 1.51953L108.451 8.20703C108.919 8.67578 108.919 9.41016 108.451 9.87891C107.982 10.3477 107.247 10.3477 106.779 9.87891L100.927 4.02734Z" fill="#000000" fill-opacity="1.000000" fill-rule="evenodd"/>
	<path id="Rectangle 25" d="M354.207 117.355L430.648 117.355C442.4 117.355 451.927 126.883 451.927 138.635L451.927 502.355L332.927 502.355L332.927 138.635C332.927 126.883 342.454 117.355 354.207 117.355Z" fill="url(#paint_linear_85_5872_0)" fill-opacity="1.000000" fill-rule="evenodd"/>
	<path id="Rectangle 27" d="M745.207 91.3555L821.648 91.3555C833.4 91.3555 842.927 100.883 842.927 112.635L842.927 502.355L723.927 502.355L723.927 112.635C723.927 100.883 733.454 91.3555 745.207 91.3555Z" fill="url(#paint_linear_85_5873_0)" fill-opacity="1.000000" fill-rule="evenodd"/>
	<path id="Rectangle 29" d="M1136.21 55.3555L1212.65 55.3555C1224.4 55.3555 1233.93 64.8828 1233.93 76.6348L1233.93 502.355L1114.93 502.355L1114.93 76.6348C1114.93 64.8828 1124.45 55.3555 1136.21 55.3555Z" fill="url(#paint_linear_85_5874_0)" fill-opacity="1.000000" fill-rule="evenodd"/>
	<path id="Rectangle 26" d="M225.207 228.355L301.648 228.355C313.4 228.355 322.927 237.883 322.927 249.635L322.927 502.355L203.927 502.355L203.927 249.635C203.927 237.883 213.454 228.355 225.207 228.355Z" fill="url(#paint_linear_85_5875_0)" fill-opacity="1.000000" fill-rule="evenodd"/>
	<path id="Rectangle 28" d="M616.207 279.355L692.648 279.355C704.4 279.355 713.927 288.883 713.927 300.635L713.927 502.355L594.927 502.355L594.927 300.635C594.927 288.883 604.454 279.355 616.207 279.355Z" fill="url(#paint_linear_85_5876_0)" fill-opacity="1.000000" fill-rule="evenodd"/>
	<path id="Rectangle 30" d="M1007.21 228.355L1083.65 228.355C1095.4 228.355 1104.93 237.883 1104.93 249.635L1104.93 502.355L985.927 502.355L985.927 249.635C985.927 237.883 995.454 228.355 1007.21 228.355Z" fill="url(#paint_linear_85_5877_0)" fill-opacity="1.000000" fill-rule="evenodd"/>
	<path id="4,5" d="M259.82 200.211L255.829 200.211L255.829 205.355L250.301 205.355L250.301 200.211L237.107 200.211L237.107 196.392L248.66 180.857L254.607 180.857L243.901 195.589L250.48 195.589L250.48 191.009L255.829 191.009L255.829 195.589L259.82 195.589L259.82 200.211ZM265.46 198.844Q266.93 198.844 267.87 199.776Q268.818 200.698 268.818 202.202Q268.818 202.903 268.639 203.604Q268.468 204.304 267.87 205.706L265.879 210.747L262.41 210.747L263.956 205.185Q263.076 204.834 262.563 204.048Q262.059 203.253 262.059 202.202Q262.059 200.698 263.025 199.776Q263.99 198.844 265.46 198.844ZM279.774 190.06Q284.952 190.06 287.422 192.128Q289.891 194.187 289.891 197.656Q289.891 199.895 288.763 201.732Q287.644 203.57 285.354 204.672Q283.064 205.774 279.706 205.774Q277.108 205.774 274.604 205.091Q272.109 204.407 270.358 203.151L272.596 198.81Q273.998 199.861 275.818 200.442Q277.638 201.015 279.56 201.015Q281.697 201.015 282.919 200.177Q284.149 199.331 284.149 197.827Q284.149 196.255 282.867 195.452Q281.594 194.649 278.441 194.649L272.178 194.649L273.434 180.857L288.379 180.857L288.379 185.403L278.159 185.403L277.775 190.06L279.774 190.06Z" fill="#1E63AF" fill-opacity="1.000000" fill-rule="evenodd"/>
	<path id="3,7" d="M642.221 252.829Q645.443 253.359 647.151 255.23Q648.869 257.102 648.869 259.862Q648.869 261.998 647.75 263.801Q646.63 265.604 644.34 266.689Q642.05 267.774 638.726 267.774Q636.129 267.774 633.625 267.091Q631.13 266.407 629.378 265.151L631.583 260.81Q632.984 261.861 634.821 262.442Q636.658 263.015 638.581 263.015Q640.717 263.015 641.939 262.194Q643.17 261.374 643.17 259.862Q643.17 256.854 638.581 256.854L635.992 256.854L635.992 253.111L641.033 247.403L630.6 247.403L630.6 242.857L647.75 242.857L647.75 246.531L642.221 252.829ZM654.755 260.844Q656.225 260.844 657.165 261.776Q658.113 262.698 658.113 264.202Q658.113 264.903 657.934 265.604Q657.763 266.304 657.165 267.706L655.174 272.747L651.705 272.747L653.251 267.185Q652.371 266.834 651.858 266.048Q651.354 265.253 651.354 264.202Q651.354 262.698 652.32 261.776Q653.285 260.844 654.755 260.844ZM679.284 242.857L679.284 246.531L670.184 267.355L664.023 267.355L672.816 247.471L664.69 247.471L664.69 251.462L659.648 251.462L659.648 242.857L679.284 242.857Z" fill="#1E63AF" fill-opacity="1.000000" fill-rule="evenodd"/>
	<path id="4,4" d="M1040.17 213.211L1036.18 213.211L1036.18 218.355L1030.66 218.355L1030.66 213.211L1017.46 213.211L1017.46 209.392L1029.02 193.857L1034.96 193.857L1024.26 208.589L1030.84 208.589L1030.84 204.009L1036.18 204.009L1036.18 208.589L1040.17 208.589L1040.17 213.211ZM1045.82 211.844Q1047.28 211.844 1048.22 212.776Q1049.17 213.698 1049.17 215.202Q1049.17 215.903 1048.99 216.604Q1048.82 217.304 1048.22 218.706L1046.23 223.747L1042.76 223.747L1044.31 218.185Q1043.43 217.834 1042.92 217.048Q1042.41 216.253 1042.41 215.202Q1042.41 213.698 1043.38 212.776Q1044.35 211.844 1045.82 211.844ZM1074.16 213.211L1070.17 213.211L1070.17 218.355L1064.64 218.355L1064.64 213.211L1051.45 213.211L1051.45 209.392L1063 193.857L1068.95 193.857L1058.24 208.589L1064.82 208.589L1064.82 204.009L1070.17 204.009L1070.17 208.589L1074.16 208.589L1074.16 213.211Z" fill="#1E63AF" fill-opacity="1.000000" fill-rule="evenodd"/>
	<path id="6,2" d="M380.179 87.9917Q382.529 87.9917 384.451 88.9402Q386.374 89.8801 387.493 91.6147Q388.613 93.3494 388.613 95.6223Q388.613 98.0747 387.391 99.929Q386.169 101.783 384.05 102.783Q381.931 103.774 379.342 103.774Q374.197 103.774 371.292 100.63Q368.387 97.4766 368.387 91.6318Q368.387 87.4619 369.959 84.4883Q371.531 81.5146 374.351 79.9766Q377.171 78.4385 380.88 78.4385Q382.836 78.4385 384.639 78.8743Q386.442 79.3101 387.707 80.1133L385.605 84.2832Q383.785 83.0527 381.016 83.0527Q377.906 83.0527 376.086 84.8728Q374.266 86.6929 374.121 90.1621Q376.291 87.9917 380.179 87.9917ZM379.025 99.5444Q380.845 99.5444 381.982 98.5618Q383.118 97.5791 383.118 95.9043Q383.118 94.2209 381.982 93.2212Q380.845 92.2214 378.957 92.2214Q377.103 92.2214 375.906 93.2554Q374.719 94.2893 374.719 95.9043Q374.719 97.5107 375.872 98.5276Q377.026 99.5444 379.025 99.5444ZM394.288 96.8442Q395.757 96.8442 396.697 97.7756Q397.646 98.6985 397.646 100.202Q397.646 100.903 397.466 101.604Q397.295 102.304 396.697 103.706L394.706 108.747L391.237 108.747L392.784 103.185Q391.904 102.834 391.391 102.048Q390.887 101.253 390.887 100.202Q390.887 98.6985 391.852 97.7756Q392.818 96.8442 394.288 96.8442ZM418.855 98.7327L418.855 103.355L400.338 103.355L400.338 99.6812L409.789 90.7517Q411.293 89.3247 411.814 88.2908Q412.344 87.2568 412.344 86.24Q412.344 84.7703 411.344 83.9841Q410.353 83.198 408.422 83.198Q406.815 83.198 405.517 83.8132Q404.226 84.4199 403.346 85.6418L399.219 82.9844Q400.654 80.8481 403.175 79.6433Q405.696 78.4385 408.952 78.4385Q411.677 78.4385 413.728 79.3357Q415.779 80.2244 416.915 81.8479Q418.052 83.4714 418.052 85.6846Q418.052 87.6755 417.206 89.4272Q416.369 91.179 413.959 93.4177L408.319 98.7327L418.855 98.7327Z" fill="#737373" fill-opacity="1.000000" fill-rule="evenodd"/>
	<path id="6,7" d="M771.109 63.9917Q773.459 63.9917 775.381 64.9402Q777.304 65.8801 778.423 67.6147Q779.543 69.3494 779.543 71.6223Q779.543 74.0747 778.321 75.929Q777.099 77.7832 774.98 78.783Q772.861 79.7742 770.272 79.7742Q765.128 79.7742 762.222 76.6296Q759.317 73.4766 759.317 67.6318Q759.317 63.4619 760.889 60.4883Q762.461 57.5146 765.281 55.9766Q768.101 54.4385 771.81 54.4385Q773.766 54.4385 775.569 54.8743Q777.372 55.3101 778.637 56.1133L776.535 60.2832Q774.715 59.0527 771.946 59.0527Q768.836 59.0527 767.016 60.8728Q765.196 62.6929 765.051 66.1621Q767.221 63.9917 771.109 63.9917ZM769.955 75.5444Q771.775 75.5444 772.912 74.5618Q774.048 73.5791 774.048 71.9043Q774.048 70.2209 772.912 69.2212Q771.775 68.2214 769.887 68.2214Q768.033 68.2214 766.836 69.2554Q765.649 70.2893 765.649 71.9043Q765.649 73.5107 766.802 74.5276Q767.956 75.5444 769.955 75.5444ZM785.218 72.8442Q786.687 72.8442 787.627 73.7756Q788.576 74.6985 788.576 76.2024Q788.576 76.9031 788.396 77.6038Q788.225 78.3044 787.627 79.7058L785.636 84.7473L782.167 84.7473L783.714 79.1846Q782.833 78.8342 782.321 78.0481Q781.817 77.2534 781.817 76.2024Q781.817 74.6985 782.782 73.7756Q783.748 72.8442 785.218 72.8442ZM809.747 54.8572L809.747 58.5315L800.646 79.3555L794.486 79.3555L803.278 59.4714L795.152 59.4714L795.152 63.4619L790.111 63.4619L790.111 54.8572L809.747 54.8572Z" fill="#737373" fill-opacity="1.000000" fill-rule="evenodd"/>
	<path id="7,1" d="M1179.81 17.8572L1179.81 21.5315L1170.71 42.3555L1164.55 42.3555L1173.34 22.4714L1165.22 22.4714L1165.22 26.4619L1160.18 26.4619L1160.18 17.8572L1179.81 17.8572ZM1183.88 35.8442Q1185.35 35.8442 1186.29 36.7756Q1187.24 37.6985 1187.24 39.2024Q1187.24 39.9031 1187.06 40.6038Q1186.89 41.3044 1186.29 42.7058L1184.3 47.7473L1180.83 47.7473L1182.37 42.1846Q1181.49 41.8342 1180.98 41.0481Q1180.48 40.2534 1180.48 39.2024Q1180.48 37.6985 1181.44 36.7756Q1182.41 35.8442 1183.88 35.8442ZM1198.68 17.8572L1198.68 42.3555L1193.01 42.3555L1193.01 22.4031L1188.11 22.4031L1188.11 17.8572L1198.68 17.8572Z" fill="#737373" fill-opacity="1.000000" fill-rule="evenodd"/>
	<path id="Line 3" d="M1335.93 505.537L100.927 505.537L100.927 503.174L1335.93 503.174L1335.93 505.537ZM1334.26 504.355L1328.4 498.504C1327.94 498.035 1327.94 497.301 1328.4 496.832C1328.87 496.363 1329.61 496.363 1330.08 496.832L1336.76 503.52C1337.23 503.988 1337.23 504.723 1336.76 505.191L1330.08 511.879C1329.61 512.348 1328.87 512.348 1328.4 511.879C1327.94 511.41 1327.94 510.676 1328.4 510.207L1334.26 504.355Z" fill="#000000" fill-opacity="1.000000" fill-rule="evenodd"/>
	<path id="Line 8" d="M100.58 441.355L88.7578 441.355" stroke="#000000" stroke-opacity="1.000000" stroke-width="1.182186" stroke-linecap="round"/>
	<path id="Line 9" d="M100.58 379.355L88.7578 379.355" stroke="#000000" stroke-opacity="1.000000" stroke-width="1.182186" stroke-linecap="round"/>
	<path id="Line 10" d="M100.58 317.355L88.7578 317.355" stroke="#000000" stroke-opacity="1.000000" stroke-width="1.182186" stroke-linecap="round"/>
	<path id="Line 11" d="M100.58 255.355L88.7578 255.355" stroke="#000000" stroke-opacity="1.000000" stroke-width="1.182186" stroke-linecap="round"/>
	<path id="Line 12" d="M100.58 193.355L88.7578 193.355" stroke="#000000" stroke-opacity="1.000000" stroke-width="1.182186" stroke-linecap="round"/>
	<path id="Line 13" d="M100.58 131.355L88.7578 131.355" stroke="#000000" stroke-opacity="1.000000" stroke-width="1.182186" stroke-linecap="round"/>
	<path id="Line 14" d="M100.58 69.3555L88.7578 69.3555" stroke="#000000" stroke-opacity="1.000000" stroke-width="1.182186" stroke-linecap="round"/>
	<path id="лихоманка" d="M258.597 549.756L258.597 562.355L256.294 562.355L256.294 551.734L251.324 551.734L251.214 554.885Q251.126 557.53 250.784 559.178Q250.441 560.826 249.685 561.683Q248.929 562.536 247.598 562.536Q247.132 562.536 246.319 562.355L246.481 560.321Q246.714 560.396 247.022 560.396Q248.12 560.396 248.578 559.09Q249.039 557.785 249.144 554.977L249.325 549.756L258.597 549.756ZM262.162 549.756L264.465 549.756L264.465 558.704L271.233 549.756L273.408 549.756L273.408 562.355L271.105 562.355L271.105 553.426L264.338 562.355L262.162 562.355L262.162 549.756ZM278.395 549.756L281.366 553.966L284.337 549.756L287.07 549.756L282.843 555.803L287.413 562.355L284.64 562.355L281.366 557.768L278.11 562.355L275.407 562.355L279.964 555.896L275.697 549.756L278.395 549.756ZM294.774 562.536Q292.849 562.536 291.302 561.701Q289.755 560.861 288.872 559.376Q287.989 557.891 287.989 556.054Q287.989 554.221 288.872 552.736Q289.755 551.25 291.302 550.416Q292.849 549.576 294.774 549.576Q296.703 549.576 298.25 550.416Q299.797 551.25 300.68 552.727Q301.564 554.204 301.564 556.054Q301.564 557.908 300.68 559.385Q299.797 560.861 298.25 561.701Q296.703 562.536 294.774 562.536ZM294.774 560.483Q296.035 560.483 297.042 559.917Q298.052 559.35 298.628 558.334Q299.204 557.315 299.204 556.054Q299.204 554.797 298.628 553.782Q298.052 552.762 297.042 552.195Q296.035 551.628 294.774 551.628Q293.517 551.628 292.506 552.195Q291.5 552.762 290.924 553.782Q290.349 554.797 290.349 556.054Q290.349 557.315 290.924 558.334Q291.5 559.35 292.506 559.917Q293.517 560.483 294.774 560.483ZM315.728 562.355L315.71 554.001L311.57 560.914L310.525 560.914L306.385 554.111L306.385 562.355L304.174 562.355L304.174 549.756L306.099 549.756L311.083 558.088L316.018 549.756L317.925 549.756L317.96 562.355L315.728 562.355ZM329.84 559.438L323.539 559.438L322.295 562.355L319.887 562.355L325.556 549.756L327.859 549.756L333.545 562.355L331.097 562.355L329.84 559.438ZM329.063 557.605L326.69 552.094L324.33 557.605L329.063 557.605ZM346.67 549.756L346.67 562.355L344.327 562.355L344.327 556.955L337.815 556.955L337.815 562.355L335.472 562.355L335.472 549.756L337.815 549.756L337.815 554.959L344.327 554.959L344.327 549.756L346.67 549.756ZM354.841 557.047L352.504 557.047L352.504 562.355L350.196 562.355L350.196 549.756L352.504 549.756L352.504 555.03L354.916 555.03L358.533 549.756L361.016 549.756L356.714 555.856L361.178 562.355L358.533 562.355L354.841 557.047ZM370.916 559.438L364.615 559.438L363.371 562.355L360.963 562.355L366.632 549.756L368.935 549.756L374.621 562.355L372.173 562.355L370.916 559.438ZM370.139 557.605L367.766 552.094L365.406 557.605L370.139 557.605Z" fill="#000000" fill-opacity="1.000000" fill-rule="evenodd"/>
	<path id="риніт" d="M702.22 549.756Q703.855 549.756 705.068 550.297Q706.285 550.837 706.931 551.844Q707.581 552.85 707.581 554.239Q707.581 555.605 706.931 556.625Q706.285 557.64 705.068 558.181Q703.855 558.721 702.22 558.721L699.377 558.721L699.377 562.355L697.034 562.355L697.034 549.756L702.22 549.756ZM702.11 556.739Q703.639 556.739 704.43 556.093Q705.226 555.443 705.226 554.239Q705.226 553.03 704.43 552.384Q703.639 551.734 702.11 551.734L699.377 551.734L699.377 556.739L702.11 556.739ZM709.818 549.756L712.121 549.756L712.121 558.704L718.889 549.756L721.064 549.756L721.064 562.355L718.761 562.355L718.761 553.426L711.994 562.355L709.818 562.355L709.818 549.756ZM735.79 549.756L735.79 562.355L733.447 562.355L733.447 556.955L726.935 556.955L726.935 562.355L724.592 562.355L724.592 549.756L726.935 549.756L726.935 554.959L733.447 554.959L733.447 549.756L735.79 549.756ZM739.338 549.756L741.641 549.756L741.641 562.355L739.338 562.355L739.338 549.756ZM754.329 551.734L750.155 551.734L750.155 562.355L747.834 562.355L747.834 551.734L743.673 551.734L743.673 549.756L754.329 549.756L754.329 551.734Z" fill="#000000" fill-opacity="1.000000" fill-rule="evenodd"/>
	<path id="кашель" d="M1068.65 557.047L1066.31 557.047L1066.31 562.355L1064 562.355L1064 549.756L1066.31 549.756L1066.31 555.03L1068.72 555.03L1072.34 549.756L1074.82 549.756L1070.52 555.856L1074.98 562.355L1072.34 562.355L1068.65 557.047ZM1084.72 559.438L1078.42 559.438L1077.18 562.355L1074.77 562.355L1080.44 549.756L1082.74 549.756L1088.43 562.355L1085.98 562.355L1084.72 559.438ZM1083.94 557.605L1081.57 552.094L1079.21 557.605L1083.94 557.605ZM1106.56 549.756L1106.56 562.355L1090.38 562.355L1090.38 549.756L1092.68 549.756L1092.68 560.374L1097.32 560.374L1097.32 549.756L1099.63 549.756L1099.63 560.374L1104.25 560.374L1104.25 549.756L1106.56 549.756ZM1119.55 560.396L1119.55 562.355L1110.1 562.355L1110.1 549.756L1119.3 549.756L1119.3 551.716L1112.44 551.716L1112.44 554.995L1118.52 554.995L1118.52 556.919L1112.44 556.919L1112.44 560.396L1119.55 560.396ZM1132.93 549.756L1132.93 562.355L1130.62 562.355L1130.62 551.734L1125.65 551.734L1125.54 554.885Q1125.46 557.53 1125.11 559.178Q1124.77 560.826 1124.01 561.683Q1123.26 562.536 1121.93 562.536Q1121.46 562.536 1120.65 562.355L1120.81 560.321Q1121.04 560.396 1121.35 560.396Q1122.45 560.396 1122.91 559.09Q1123.37 557.785 1123.47 554.977L1123.65 549.756L1132.93 549.756ZM1142.28 554.023Q1144.56 554.023 1145.77 555.039Q1146.98 556.054 1146.98 558.053Q1146.98 560.141 1145.65 561.248Q1144.32 562.355 1141.91 562.355L1136.49 562.355L1136.49 549.756L1138.8 549.756L1138.8 554.023L1142.28 554.023ZM1141.8 560.554Q1143.17 560.554 1143.91 559.925Q1144.64 559.297 1144.64 558.088Q1144.64 555.803 1141.8 555.803L1138.8 555.803L1138.8 560.554L1141.8 560.554Z" fill="#000000" fill-opacity="1.000000" fill-rule="evenodd"/>
	<path id="1" d="M68.7538 434.116L68.7538 447.355L67.3915 447.355L67.3915 435.326L64.2698 435.326L64.2698 434.116L68.7538 434.116Z" fill="#000000" fill-opacity="1.000000" fill-rule="evenodd"/>
	<path id="2" d="M70.209 384.146L70.209 385.355L60.9224 385.355L60.9224 384.39L66.427 379.001Q67.466 377.981 67.8354 377.233Q68.2049 376.484 68.2049 375.727Q68.2049 374.554 67.4013 373.903Q66.5978 373.252 65.1016 373.252Q62.7742 373.252 61.4904 374.725L60.5253 373.894Q61.3011 372.984 62.5017 372.495Q63.7024 372 65.2171 372Q67.2397 372 68.4219 372.956Q69.6041 373.912 69.6041 375.575Q69.6041 376.6 69.1469 377.547Q68.6944 378.489 67.429 379.717L62.9266 384.146L70.209 384.146Z" fill="#000000" fill-opacity="1.000000" fill-rule="evenodd"/>
	<path id="3" d="M65.7453 315.791Q67.8233 315.902 68.9086 316.913Q69.9984 317.925 69.9984 319.555Q69.9984 320.686 69.4488 321.568Q68.9039 322.446 67.8233 322.958Q66.7474 323.471 65.1957 323.471Q63.7596 323.471 62.4804 323.009Q61.2059 322.543 60.4301 321.767L61.0904 320.686Q61.7554 321.37 62.8498 321.795Q63.9489 322.219 65.1957 322.219Q66.8213 322.219 67.7079 321.513Q68.5992 320.802 68.5992 319.555Q68.5992 318.322 67.7079 317.625Q66.8213 316.923 65.0249 316.923L64.0782 316.923L64.0782 315.921L67.7495 311.326L60.9796 311.326L60.9796 310.116L69.4904 310.116L69.4904 311.081L65.7453 315.791Z" fill="#000000" fill-opacity="1.000000" fill-rule="evenodd"/>
	<path id="4" d="M70.6619 257.874L68.0159 257.874L68.0159 261.355L66.6536 261.355L66.6536 257.874L59.1818 257.874L59.1818 256.89L66.1964 248.116L67.7111 248.116L60.9412 256.664L66.6905 256.664L66.6905 253.602L68.0159 253.602L68.0159 256.664L70.6619 256.664L70.6619 257.874Z" fill="#000000" fill-opacity="1.000000" fill-rule="evenodd"/>
	<path id="5" d="M64.6869 191.542Q67.5592 191.542 68.8753 192.576Q70.1914 193.606 70.1914 195.458Q70.1914 196.612 69.6512 197.522Q69.1109 198.427 68.0303 198.949Q66.9543 199.471 65.3842 199.471Q63.9665 199.471 62.6873 199.009Q61.4128 198.543 60.637 197.767L61.2973 196.686Q61.9623 197.37 63.0383 197.795Q64.1189 198.219 65.3657 198.219Q67.0097 198.219 67.9102 197.485Q68.8107 196.746 68.8107 195.518Q68.8107 194.156 67.7947 193.454Q66.7834 192.752 64.3821 192.752L61.5652 192.752L62.244 186.116L69.4895 186.116L69.4895 187.326L63.4354 187.326L62.9829 191.542L64.6869 191.542Z" fill="#000000" fill-opacity="1.000000" fill-rule="evenodd"/>
	<path id="6" d="M65.8777 129.431Q67.18 129.431 68.1913 129.925Q69.2072 130.415 69.7706 131.315Q70.3386 132.211 70.3386 133.403Q70.3386 134.612 69.7522 135.541Q69.1703 136.464 68.1359 136.968Q67.1061 137.471 65.8223 137.471Q63.1901 137.471 61.7909 135.739Q60.3916 134.007 60.3916 130.849Q60.3916 128.637 61.149 127.104Q61.9063 125.571 63.264 124.786Q64.6263 124 66.4457 124Q68.413 124 69.5859 124.721L69.0364 125.815Q68.0897 125.192 66.4642 125.192Q64.2707 125.192 63.0192 126.582Q61.7724 127.972 61.7724 130.623Q61.7724 131.094 61.8278 131.699Q62.3219 130.623 63.3979 130.027Q64.4785 129.431 65.8777 129.431ZM65.7623 136.316Q67.2031 136.316 68.0989 135.531Q68.9994 134.746 68.9994 133.439Q68.9994 132.137 68.0989 131.361Q67.2031 130.586 65.6699 130.586Q64.6678 130.586 63.9013 130.964Q63.1347 131.338 62.696 132.003Q62.2619 132.664 62.2619 133.476Q62.2619 134.234 62.6683 134.88Q63.0793 135.522 63.8735 135.919Q64.6678 136.316 65.7623 136.316Z" fill="#000000" fill-opacity="1.000000" fill-rule="evenodd"/>
	<path id="7" d="M70.112 62.1159L70.112 63.0811L64.5705 75.3555L63.0974 75.3555L68.5419 63.3258L61.7351 63.3258L61.7351 65.8056L60.3913 65.8056L60.3913 62.1159L70.112 62.1159Z" fill="#000000" fill-opacity="1.000000" fill-rule="evenodd"/>
	<path id="8" d="M67.4257 6.41474Q68.6772 6.83035 69.3468 7.66158Q70.021 8.4928 70.021 9.66575Q70.021 10.8202 69.393 11.6838Q68.7695 12.5427 67.6058 13.0091Q66.4421 13.4709 64.8766 13.4709Q62.4892 13.4709 61.1269 12.4504Q59.7692 11.4252 59.7692 9.66575Q59.7692 8.47433 60.4203 7.65234Q61.0715 6.83035 62.3229 6.41474Q61.2977 6.0176 60.7667 5.2695Q60.2402 4.5214 60.2402 3.50084Q60.2402 1.8938 61.4963 0.947131Q62.757 0.000458717 64.8766 0.000458717Q66.2759 0.000458717 67.3241 0.429925Q68.3724 0.854773 68.9589 1.64905Q69.5453 2.44334 69.5453 3.50084Q69.5453 4.5214 68.9958 5.2695Q68.4509 6.0176 67.4257 6.41474ZM61.6025 3.53778Q61.6025 4.63685 62.4707 5.27874Q63.3435 5.92063 64.8766 5.92063Q66.4052 5.92063 67.2826 5.27874Q68.1646 4.63685 68.1646 3.55625Q68.1646 2.44334 67.2641 1.80145Q66.3682 1.15494 64.8766 1.15494Q63.362 1.15494 62.4799 1.80145Q61.6025 2.44334 61.6025 3.53778ZM64.8766 12.3164Q66.6314 12.3164 67.6243 11.596Q68.6218 10.8756 68.6218 9.64728Q68.6218 8.41892 67.6243 7.71238Q66.6314 7.00122 64.8766 7.00122Q63.1357 7.00122 62.1428 7.71238Q61.15 8.41892 61.15 9.64728Q61.15 10.8987 62.1336 11.6099Q63.1172 12.3164 64.8766 12.3164Z" fill="#000000" fill-opacity="1.000000" fill-rule="evenodd"/>
	<path id="0" d="M67.6674 509.471Q66.1343 509.471 64.9336 508.658Q63.733 507.841 63.0587 506.322Q62.3891 504.798 62.3891 502.733Q62.3891 500.674 63.0587 499.15Q63.733 497.626 64.9336 496.813Q66.1343 496 67.6674 496Q69.2006 496 70.4012 496.813Q71.6019 497.626 72.2807 499.15Q72.9642 500.674 72.9642 502.733Q72.9642 504.798 72.2807 506.322Q71.6019 507.841 70.4012 508.658Q69.2006 509.471 67.6674 509.471ZM67.6674 508.219Q68.8219 508.219 69.6993 507.578Q70.5813 506.936 71.0708 505.707Q71.5649 504.474 71.5649 502.733Q71.5649 500.997 71.0708 499.769Q70.5813 498.536 69.6993 497.894Q68.8219 497.252 67.6674 497.252Q66.5129 497.252 65.6309 497.894Q64.7535 498.536 64.2594 499.769Q63.7699 500.997 63.7699 502.733Q63.7699 504.474 64.2594 505.707Q64.7535 506.936 65.6309 507.578Q66.5129 508.219 67.6674 508.219Z" fill="#000000" fill-opacity="1.000000" fill-rule="evenodd"/>
	<path id="image 9 (Traced)" d="M508.007 543.508C507.343 543.752 506.834 544.578 506.941 545.24C507.058 545.957 507.244 546.17 511.494 550.449C517.083 556.08 517.083 554.723 511.494 560.352C508.381 563.486 507.299 564.625 507.165 564.91C506.389 566.553 507.823 567.93 509.461 567.113C510.062 566.814 520.003 556.842 520.287 556.252C520.922 554.936 521.004 555.047 514.945 548.98C509.046 543.072 509.091 543.107 508.007 543.508ZM518.2 543.76C517.468 544.199 517.22 545.127 517.612 545.957C517.756 546.262 518.741 547.301 521.908 550.49C527.45 556.072 527.455 554.725 521.868 560.352C518.755 563.486 517.673 564.625 517.539 564.91C516.763 566.553 518.198 567.93 519.835 567.113C520.455 566.805 530.309 556.924 530.619 556.301C531.297 554.938 531.353 555.016 525.404 549.059C519.451 543.098 519.384 543.049 518.2 543.76Z" fill="url(#paint_linear_85_5896_0)" fill-opacity="1.000000" fill-rule="evenodd"/>
	<path id="image 9 (Traced)" d="M898.007 543.508C897.343 543.752 896.834 544.578 896.941 545.24C897.058 545.957 897.244 546.17 901.494 550.449C907.083 556.08 907.083 554.723 901.494 560.352C898.381 563.486 897.299 564.625 897.165 564.91C896.389 566.553 897.823 567.93 899.461 567.113C900.062 566.814 910.003 556.842 910.287 556.252C910.922 554.936 911.004 555.047 904.945 548.98C899.046 543.072 899.091 543.107 898.007 543.508ZM908.2 543.76C907.468 544.199 907.22 545.127 907.612 545.957C907.756 546.262 908.741 547.301 911.908 550.49C917.45 556.072 917.455 554.725 911.868 560.352C908.755 563.486 907.673 564.625 907.539 564.91C906.763 566.553 908.198 567.93 909.835 567.113C910.455 566.805 920.309 556.924 920.619 556.301C921.297 554.938 921.353 555.016 915.404 549.059C909.451 543.098 909.384 543.049 908.2 543.76Z" fill="url(#paint_linear_85_5897_0)" fill-opacity="1.000000" fill-rule="evenodd"/>
</svg>
