<svg width="1346.186523" height="724.000000" viewBox="0 0 1346.19 724" fill="none" xmlns="http://www.w3.org/2000/svg" >
	<desc>
			Created with Pixso.
	</desc>
	<defs>
		<linearGradient id="paint_linear_76_3271_0" x1="206.499985" y1="58.000000" x2="206.499985" y2="848.096130" gradientUnits="userSpaceOnUse">
			<stop stop-color="#BBBBBB"/>
			<stop offset="1.000000" stop-color="#BBBBBB" stop-opacity="0.000000"/>
		</linearGradient>
		<linearGradient id="paint_linear_76_3272_0" x1="345.585144" y1="210.051270" x2="336.000000" y2="540.277344" gradientUnits="userSpaceOnUse">
			<stop stop-color="#7CC700"/>
			<stop offset="1.000000" stop-color="#C6F579"/>
		</linearGradient>
		<linearGradient id="paint_linear_76_3276_0" x1="513.500000" y1="353.000000" x2="513.500000" y2="672.230774" gradientUnits="userSpaceOnUse">
			<stop stop-color="#BBBBBB"/>
			<stop offset="1.000000" stop-color="#BBBBBB" stop-opacity="0.000000"/>
		</linearGradient>
		<linearGradient id="paint_linear_76_3277_0" x1="652.584656" y1="422.679474" x2="643.000000" y2="548.165405" gradientUnits="userSpaceOnUse">
			<stop stop-color="#7CC700"/>
			<stop offset="1.000000" stop-color="#C6F579"/>
		</linearGradient>
		<linearGradient id="paint_linear_76_3281_0" x1="820.500000" y1="288.000000" x2="820.500000" y2="710.980774" gradientUnits="userSpaceOnUse">
			<stop stop-color="#BBBBBB"/>
			<stop offset="1.000000" stop-color="#BBBBBB" stop-opacity="0.000000"/>
		</linearGradient>
		<linearGradient id="paint_linear_76_3282_0" x1="959.585083" y1="362.320526" x2="950.000000" y2="545.926147" gradientUnits="userSpaceOnUse">
			<stop stop-color="#7CC700"/>
			<stop offset="1.000000" stop-color="#C6F579"/>
		</linearGradient>
		<linearGradient id="paint_linear_76_3286_0" x1="1127.500000" y1="314.000000" x2="1127.500000" y2="695.480774" gradientUnits="userSpaceOnUse">
			<stop stop-color="#BBBBBB"/>
			<stop offset="1.000000" stop-color="#BBBBBB" stop-opacity="0.000000"/>
		</linearGradient>
		<linearGradient id="paint_linear_76_3287_0" x1="1266.584717" y1="415.820496" x2="1257.000000" y2="547.910950" gradientUnits="userSpaceOnUse">
			<stop stop-color="#7CC700"/>
			<stop offset="1.000000" stop-color="#C6F579"/>
		</linearGradient>
		<linearGradient id="paint_linear_76_3302_0" x1="425.033875" y1="582.076904" x2="423.100830" y2="613.778625" gradientUnits="userSpaceOnUse">
			<stop stop-color="#7CC700"/>
			<stop offset="1.000000" stop-color="#C6F579"/>
		</linearGradient>
		<linearGradient id="paint_linear_76_3303_0" x1="728.033936" y1="582.076904" x2="726.100891" y2="613.778625" gradientUnits="userSpaceOnUse">
			<stop stop-color="#7CC700"/>
			<stop offset="1.000000" stop-color="#C6F579"/>
		</linearGradient>
		<linearGradient id="paint_linear_76_3304_0" x1="1037.033936" y1="582.076904" x2="1035.100830" y2="613.778625" gradientUnits="userSpaceOnUse">
			<stop stop-color="#7CC700"/>
			<stop offset="1.000000" stop-color="#C6F579"/>
		</linearGradient>
		<linearGradient id="paint_linear_76_3308_0" x1="175.000000" y1="678.000000" x2="175.000000" y2="751.423096" gradientUnits="userSpaceOnUse">
			<stop stop-color="#BBBBBB"/>
			<stop offset="1.000000" stop-color="#BBBBBB" stop-opacity="0.000000"/>
		</linearGradient>
		<linearGradient id="paint_linear_76_3311_0" x1="547.898254" y1="660.897400" x2="544.193298" y2="721.659058" gradientUnits="userSpaceOnUse">
			<stop stop-color="#7CC700"/>
			<stop offset="1.000000" stop-color="#C6F579"/>
		</linearGradient>
	</defs>
	<path id="відсоток пацієнтів" d="M19.1274 510.647Q19.7744 508.078 22.3501 508.078Q24.1018 508.078 25.054 509.39Q26 510.702 26 513.302L26 519.675L12.7493 519.675L12.7493 513.522Q12.7493 511.172 13.6404 509.848Q14.5254 508.523 16.1489 508.523Q17.1987 508.523 17.9617 509.091Q18.7246 509.653 19.1274 510.647ZM18.45 517.325L18.45 513.724Q18.45 512.35 17.9495 511.636Q17.449 510.922 16.5029 510.922Q14.5986 510.922 14.5986 513.724L14.5986 517.325L18.45 517.325ZM24.1506 513.473Q24.1506 511.978 23.6746 511.227Q23.1985 510.477 22.1975 510.477Q21.1721 510.477 20.6777 511.166Q20.1772 511.85 20.1772 513.327L20.1772 517.325L24.1506 517.325L24.1506 513.473ZM12.7493 504.325L12.7493 501.926L26 501.926L26 504.325L12.7493 504.325ZM10.198 503.128Q10.198 503.824 9.75244 504.288Q9.30078 504.752 8.6477 504.752Q8.00073 504.752 7.53686 504.288Q7.073 503.824 7.073 503.128Q7.073 502.426 7.51245 501.969Q7.9519 501.505 8.59888 501.505Q9.27637 501.505 9.74023 501.969Q10.198 502.426 10.198 503.128ZM23.9004 483.773L29.0762 483.773L29.0762 486.025L26 486.025L26 497.097L29.0762 497.097L29.0762 499.374L23.9004 499.374L23.9004 498.678Q23.8271 497.402 22.0999 496.926Q20.3726 496.45 17.2231 496.273L12.7493 496.078L12.7493 485.799L23.9004 485.799L23.9004 483.773ZM17.4001 494.076Q19.9026 494.173 21.5383 494.491Q23.1741 494.802 23.9004 495.626L23.9004 488.198L14.8489 488.198L14.8489 493.948L17.4001 494.076ZM26.1526 474.876Q26.1526 476.902 25.2798 478.489Q24.4009 480.076 22.8628 480.979Q21.3247 481.876 19.3777 481.876Q17.4246 481.876 15.8865 480.979Q14.3484 480.076 13.4878 478.489Q12.6272 476.902 12.6272 474.876Q12.6272 473.075 13.3535 471.665Q14.0737 470.249 15.447 469.474L16.625 471.299Q15.6728 471.928 15.2029 472.855Q14.7268 473.777 14.7268 474.9Q14.7268 476.2 15.3005 477.238Q15.8743 478.275 16.9363 478.867Q17.9983 479.453 19.3777 479.453Q20.7754 479.453 21.8374 478.867Q22.8994 478.275 23.4792 477.238Q24.053 476.2 24.053 474.9Q24.053 473.777 23.5769 472.855Q23.1008 471.928 22.1487 471.299L23.3022 469.474Q24.6755 470.249 25.4141 471.665Q26.1526 473.075 26.1526 474.876ZM26.1526 460.898Q26.1526 462.876 25.2798 464.451Q24.4009 466.025 22.8628 466.916Q21.3247 467.801 19.3777 467.801Q17.4246 467.801 15.8865 466.916Q14.3484 466.025 13.4878 464.451Q12.6272 462.876 12.6272 460.898Q12.6272 458.927 13.4878 457.364Q14.3484 455.802 15.8865 454.917Q17.4246 454.026 19.3777 454.026Q21.3247 454.026 22.8628 454.917Q24.4009 455.802 25.2798 457.364Q26.1526 458.927 26.1526 460.898ZM24.053 460.898Q24.053 459.629 23.467 458.616Q22.875 457.602 21.813 457.029Q20.751 456.449 19.3777 456.449Q17.9983 456.449 16.9363 457.029Q15.8743 457.602 15.3005 458.616Q14.7268 459.629 14.7268 460.898Q14.7268 462.174 15.3005 463.187Q15.8743 464.2 16.9363 464.792Q17.9983 465.378 19.3777 465.378Q20.751 465.378 21.813 464.792Q22.875 464.2 23.467 463.187Q24.053 462.174 24.053 460.898ZM14.8489 441.174L14.8489 446.026L26 446.026L26 448.425L14.8489 448.425L14.8489 453.277L12.7493 453.277L12.7493 441.174L14.8489 441.174ZM26.1526 433.623Q26.1526 435.601 25.2798 437.176Q24.4009 438.75 22.8628 439.641Q21.3247 440.526 19.3777 440.526Q17.4246 440.526 15.8865 439.641Q14.3484 438.75 13.4878 437.176Q12.6272 435.601 12.6272 433.623Q12.6272 431.652 13.4878 430.089Q14.3484 428.527 15.8865 427.642Q17.4246 426.751 19.3777 426.751Q21.3247 426.751 22.8628 427.642Q24.4009 428.527 25.2798 430.089Q26.1526 431.652 26.1526 433.623ZM24.053 433.623Q24.053 432.354 23.467 431.341Q22.875 430.327 21.813 429.754Q20.751 429.174 19.3777 429.174Q17.9983 429.174 16.9363 429.754Q15.8743 430.327 15.3005 431.341Q14.7268 432.354 14.7268 433.623Q14.7268 434.899 15.3005 435.912Q15.8743 436.925 16.9363 437.517Q17.9983 438.103 19.3777 438.103Q20.751 438.103 21.813 437.517Q22.875 436.925 23.467 435.912Q24.053 434.899 24.053 433.623ZM20.397 418.123L20.397 420.876L26 420.876L26 423.275L12.7493 423.275L12.7493 420.876L18.3523 420.876L18.3523 418.074L12.7493 413.777L12.7493 411.202L19.1274 416.225L26 410.848L26 413.674L20.397 418.123ZM12.7493 389.325L26 389.325L26 391.724L14.8489 391.724L14.8489 399.201L26 399.201L26 401.6L12.7493 401.6L12.7493 389.325ZM12.6272 379.95Q12.6272 377.198 13.9761 375.739Q15.3249 374.274 17.9983 374.274L26 374.274L26 376.551L24.2483 376.551Q25.176 377.149 25.6643 378.266Q26.1526 379.377 26.1526 380.896Q26.1526 383.124 25.0784 384.461Q23.998 385.798 22.2524 385.798Q20.5007 385.798 19.4387 384.522Q18.3767 383.246 18.3767 380.475L18.3767 376.673L17.9006 376.673Q16.3503 376.673 15.5264 377.576Q14.7024 378.473 14.7024 380.225Q14.7024 381.397 15.093 382.526Q15.4775 383.649 16.1245 384.424L14.324 385.425Q13.5 384.4 13.0666 382.978Q12.6272 381.55 12.6272 379.95ZM24.2971 380.5Q24.2971 379.126 23.6868 378.125Q23.0764 377.125 21.9473 376.673L20.0979 376.673L20.0979 380.372Q20.0979 383.423 22.1487 383.423Q23.1497 383.423 23.7234 382.648Q24.2971 381.873 24.2971 380.5ZM23.9004 355.802L29.1738 355.802L29.1738 358.072L26 358.072L26 369.95L12.7493 369.95L12.7493 367.551L23.9004 367.551L23.9004 360.3L12.7493 360.3L12.7493 357.901L23.9004 357.901L23.9004 355.802ZM12.7493 352.7L12.7493 350.301L26 350.301L26 352.7L12.7493 352.7ZM10.198 351.503Q10.198 352.199 9.75243 352.663Q9.30077 353.127 8.6477 353.127Q8.00072 353.127 7.53686 352.663Q7.07299 352.199 7.07299 351.503Q7.07299 350.801 7.51244 350.344Q7.9519 349.88 8.59887 349.88Q9.27636 349.88 9.74023 350.344Q10.198 350.801 10.198 351.503ZM26.1465 339.704Q26.1465 341.724 25.2737 343.366Q24.4009 345.002 22.8506 345.93Q21.3003 346.851 19.3716 346.851Q17.4246 346.851 15.8743 345.93Q14.324 345.002 13.4512 343.366Q12.5723 341.724 12.5723 339.704Q12.5723 337.952 13.1277 336.543Q13.677 335.127 14.7268 334.15L16.1245 335.554Q14.5498 337.153 14.5498 339.6Q14.5498 341.554 15.6606 342.927Q16.7715 344.3 18.572 344.575L18.572 337.928L20.3481 337.928L20.3481 344.526Q22.0754 344.202 23.1374 342.854Q24.1995 341.505 24.1995 339.6Q24.1995 337.177 22.6003 335.554L23.9736 334.15Q25.0478 335.127 25.5972 336.555Q26.1465 337.977 26.1465 339.704ZM12.7493 331.2L12.7493 328.801L18.3767 328.801L18.3767 321.251L12.7493 321.251L12.7493 318.852L26 318.852L26 321.251L20.4519 321.251L20.4519 328.801L26 328.801L26 331.2L12.7493 331.2ZM14.8489 304.299L14.8489 309.151L26 309.151L26 311.55L14.8489 311.55L14.8489 316.402L12.7493 316.402L12.7493 304.299L14.8489 304.299ZM12.7493 301.85L12.7493 299.451L26 299.451L26 301.85L12.7493 301.85ZM10.198 300.653Q10.198 301.349 9.75243 301.813Q9.30077 302.277 8.6477 302.277Q8.00072 302.277 7.53686 301.813Q7.07299 301.349 7.07299 300.653Q7.07299 299.951 7.51244 299.494Q7.95189 299.03 8.59887 299.03Q9.27636 299.03 9.74022 299.494Q10.198 299.951 10.198 300.653ZM19.1274 285.747Q19.7744 283.178 22.3501 283.178Q24.1018 283.178 25.0539 284.49Q26 285.802 26 288.402L26 294.775L12.7493 294.775L12.7493 288.622Q12.7493 286.272 13.6404 284.948Q14.5254 283.623 16.1489 283.623Q17.1987 283.623 17.9617 284.191Q18.7246 284.753 19.1274 285.747ZM18.4499 292.425L18.4499 288.824Q18.4499 287.45 17.9495 286.736Q17.449 286.022 16.5029 286.022Q14.5986 286.022 14.5986 288.824L14.5986 292.425L18.4499 292.425ZM24.1506 288.573Q24.1506 287.078 23.6746 286.327Q23.1985 285.577 22.1975 285.577Q21.1721 285.577 20.6777 286.266Q20.1772 286.95 20.1772 288.427L20.1772 292.425L24.1506 292.425L24.1506 288.573Z" fill="#000000" fill-opacity="1.000000" fill-rule="evenodd"/>
	<path id="Line 2" d="M96.1821 53L96.1821 555L93.8179 555L93.8179 53L96.1821 53ZM95 54.6719L89.1484 60.5234C88.6802 60.9917 87.9448 60.9917 87.4766 60.5234C87.0083 60.0552 87.0083 59.3198 87.4766 58.8516L94.1641 52.1641C94.6323 51.6958 95.3677 51.6958 95.8359 52.1641L102.523 58.8516C102.991 59.3198 102.991 60.0552 102.523 60.5234C102.056 60.9917 101.319 60.9917 100.852 60.5234L95 54.6719Z" fill="#000000" fill-opacity="1.000000" fill-rule="evenodd"/>
	<path id="Line 3" d="M1345 556.182L95 556.182L95 553.818L1345 553.818L1345 556.182ZM1343.33 555L1337.48 549.148C1337.01 548.68 1337.01 547.945 1337.48 547.477C1337.94 547.008 1338.68 547.008 1339.15 547.477L1345.84 554.164C1346.3 554.632 1346.3 555.368 1345.84 555.836L1339.15 562.523C1338.68 562.992 1337.94 562.992 1337.48 562.523C1337.01 562.055 1337.01 561.32 1337.48 560.852L1343.33 555Z" fill="#000000" fill-opacity="1.000000" fill-rule="evenodd"/>
	<path id="Rectangle 23" d="M168.279 58L244.721 58C256.473 58 266 67.5269 266 79.2793L266 553L147 553L147 79.2793C147 67.5269 156.527 58 168.279 58Z" fill="url(#paint_linear_76_3271_0)" fill-opacity="1.000000" fill-rule="evenodd"/>
	<path id="Rectangle 24" d="M297.279 303L373.721 303C385.473 303 395 312.527 395 324.279L395 553L276 553L276 324.279C276 312.527 285.527 303 297.279 303Z" fill="url(#paint_linear_76_3272_0)" fill-opacity="1.000000" fill-rule="evenodd"/>
	<path id="99%" d="M174.288 14.5435Q180.369 14.5435 183.804 18.2508Q187.239 21.948 187.239 28.898Q187.239 33.8175 185.4 37.343Q183.562 40.8584 180.208 42.6767Q176.854 44.495 172.47 44.495Q170.157 44.495 168.045 43.9798Q165.934 43.4646 164.449 42.5151L166.924 37.5854Q169.035 39.03 172.349 39.03Q176.026 39.03 178.177 36.8581Q180.329 34.6862 180.501 30.5951Q177.895 33.2013 173.298 33.2013Q170.53 33.2013 168.247 32.0901Q165.975 30.9688 164.651 28.9182Q163.328 26.8675 163.328 24.1805Q163.328 21.2813 164.772 19.0892Q166.227 16.8972 168.722 15.7254Q171.227 14.5435 174.288 14.5435ZM174.793 28.1909Q176.985 28.1909 178.369 26.9787Q179.753 25.7563 179.753 23.8471Q179.753 21.948 178.41 20.7459Q177.066 19.5438 174.702 19.5438Q172.551 19.5438 171.207 20.7055Q169.864 21.8672 169.864 23.8471Q169.864 25.8372 171.207 27.0191Q172.551 28.1909 174.793 28.1909ZM200.645 14.5435Q206.726 14.5435 210.161 18.2508Q213.595 21.948 213.595 28.898Q213.595 33.8175 211.757 37.343Q209.918 40.8584 206.565 42.6767Q203.211 44.495 198.827 44.495Q196.513 44.495 194.402 43.9798Q192.291 43.4646 190.806 42.5151L193.281 37.5854Q195.392 39.03 198.706 39.03Q202.383 39.03 204.534 36.8581Q206.686 34.6862 206.858 30.5951Q204.251 33.2013 199.655 33.2013Q196.887 33.2013 194.604 32.0901Q192.331 30.9688 191.008 28.9182Q189.685 26.8675 189.685 24.1805Q189.685 21.2813 191.129 19.0892Q192.584 16.8972 195.079 15.7254Q197.584 14.5435 200.645 14.5435ZM201.15 28.1909Q203.342 28.1909 204.726 26.9787Q206.11 25.7563 206.11 23.8471Q206.11 21.948 204.767 20.7459Q203.423 19.5438 201.059 19.5438Q198.908 19.5438 197.564 20.7055Q196.221 21.8672 196.221 23.8471Q196.221 25.8372 197.564 27.0191Q198.908 28.1909 201.15 28.1909ZM223.527 30.6759Q220.345 30.6759 218.335 28.504Q216.335 26.3321 216.335 22.6955Q216.335 19.0488 218.335 16.877Q220.345 14.7051 223.527 14.7051Q226.719 14.7051 228.699 16.877Q230.689 19.0488 230.689 22.6955Q230.689 26.3321 228.699 28.504Q226.719 30.6759 223.527 30.6759ZM240.781 15.0385L245.71 15.0385L225.931 44L221.002 44L240.781 15.0385ZM223.527 27.2817Q224.941 27.2817 225.739 26.1301Q226.547 24.9684 226.547 22.6955Q226.547 20.4126 225.739 19.261Q224.941 18.0993 223.527 18.0993Q222.163 18.0993 221.335 19.2812Q220.507 20.453 220.507 22.6955Q220.507 24.928 221.335 26.1099Q222.163 27.2817 223.527 27.2817ZM243.185 44.3334Q241.114 44.3334 239.477 43.3636Q237.851 42.3837 236.932 40.5654Q236.023 38.7471 236.023 36.3429Q236.023 33.9488 236.932 32.1305Q237.851 30.3021 239.477 29.3323Q241.114 28.3626 243.185 28.3626Q246.367 28.3626 248.377 30.5344Q250.387 32.7063 250.387 36.3429Q250.387 39.9896 248.377 42.1615Q246.367 44.3334 243.185 44.3334ZM243.185 40.9392Q244.589 40.9392 245.397 39.7573Q246.205 38.5754 246.205 36.3429Q246.205 34.1104 245.397 32.9387Q244.589 31.7568 243.185 31.7568Q241.821 31.7568 240.993 32.9184Q240.164 34.07 240.164 36.3429Q240.164 38.6259 240.993 39.7876Q241.821 40.9392 243.185 40.9392Z" fill="#737373" fill-opacity="1.000000" fill-rule="evenodd"/>
	<path id="50%" d="M304.046 271.918Q310.167 271.918 313.087 274.363Q316.006 276.797 316.006 280.898Q316.006 283.545 314.673 285.717Q313.349 287.889 310.642 289.192Q307.935 290.495 303.965 290.495Q300.894 290.495 297.934 289.687Q294.985 288.879 292.914 287.394L295.56 282.262Q297.217 283.505 299.369 284.192Q301.52 284.868 303.793 284.868Q306.319 284.868 307.763 283.878Q309.218 282.878 309.218 281.1Q309.218 279.242 307.703 278.292Q306.197 277.343 302.47 277.343L295.065 277.343L296.55 261.038L314.218 261.038L314.218 266.413L302.137 266.413L301.682 271.918L304.046 271.918ZM331.15 290.495Q327.544 290.495 324.725 288.717Q321.917 286.939 320.321 283.565Q318.735 280.191 318.735 275.514Q318.735 270.847 320.321 267.473Q321.917 264.099 324.725 262.321Q327.544 260.543 331.15 260.543Q334.746 260.543 337.554 262.321Q340.373 264.099 341.959 267.473Q343.555 270.847 343.555 275.514Q343.555 280.191 341.959 283.565Q340.373 286.939 337.554 288.717Q334.746 290.495 331.15 290.495ZM331.15 284.828Q333.796 284.828 335.302 282.555Q336.817 280.272 336.817 275.514Q336.817 270.756 335.302 268.483Q333.796 266.211 331.15 266.211Q328.533 266.211 327.018 268.483Q325.513 270.756 325.513 275.514Q325.513 280.272 327.018 282.555Q328.533 284.828 331.15 284.828ZM353.527 276.676Q350.345 276.676 348.335 274.504Q346.335 272.332 346.335 268.696Q346.335 265.049 348.335 262.877Q350.345 260.705 353.527 260.705Q356.719 260.705 358.699 262.877Q360.689 265.049 360.689 268.696Q360.689 272.332 358.699 274.504Q356.719 276.676 353.527 276.676ZM370.781 261.038L375.71 261.038L355.931 290L351.001 290L370.781 261.038ZM353.527 273.282Q354.941 273.282 355.739 272.13Q356.547 270.968 356.547 268.696Q356.547 266.413 355.739 265.261Q354.941 264.099 353.527 264.099Q352.163 264.099 351.335 265.281Q350.507 266.453 350.507 268.696Q350.507 270.928 351.335 272.11Q352.163 273.282 353.527 273.282ZM373.185 290.333Q371.114 290.333 369.477 289.364Q367.851 288.384 366.932 286.565Q366.023 284.747 366.023 282.343Q366.023 279.949 366.932 278.131Q367.851 276.302 369.477 275.332Q371.114 274.363 373.185 274.363Q376.367 274.363 378.377 276.534Q380.387 278.706 380.387 282.343Q380.387 285.99 378.377 288.161Q376.367 290.333 373.185 290.333ZM373.185 286.939Q374.589 286.939 375.397 285.757Q376.205 284.575 376.205 282.343Q376.205 280.11 375.397 278.939Q374.589 277.757 373.185 277.757Q371.821 277.757 370.993 278.918Q370.164 280.07 370.164 282.343Q370.164 284.626 370.993 285.788Q371.821 286.939 373.185 286.939Z" fill="#7CC700" fill-opacity="1.000000" fill-rule="evenodd"/>
	<path id="Rectangle 23" d="M475.279 353L551.721 353C563.473 353 573 362.527 573 374.279L573 553L454 553L454 374.279C454 362.527 463.527 353 475.279 353Z" fill="url(#paint_linear_76_3276_0)" fill-opacity="1.000000" fill-rule="evenodd"/>
	<path id="Rectangle 24" d="M604.279 458L680.721 458C692.473 458 702 467.527 702 479.279L702 553L583 553L583 479.279C583 467.527 592.527 458 604.279 458Z" fill="url(#paint_linear_76_3277_0)" fill-opacity="1.000000" fill-rule="evenodd"/>
	<path id="40%" d="M495.188 338.919L490.471 338.919L490.471 345L483.935 345L483.935 338.919L468.338 338.919L468.338 334.403L481.995 316.038L489.026 316.038L476.369 333.454L484.147 333.454L484.147 328.039L490.471 328.039L490.471 333.454L495.188 333.454L495.188 338.919ZM509.595 345.495Q505.988 345.495 503.17 343.717Q500.362 341.939 498.766 338.565Q497.18 335.191 497.18 330.514Q497.18 325.847 498.766 322.473Q500.362 319.099 503.17 317.321Q505.988 315.543 509.595 315.543Q513.191 315.543 515.999 317.321Q518.817 319.099 520.403 322.473Q521.999 325.847 521.999 330.514Q521.999 335.191 520.403 338.565Q518.817 341.939 515.999 343.717Q513.191 345.495 509.595 345.495ZM509.595 339.828Q512.241 339.828 513.746 337.555Q515.262 335.272 515.262 330.514Q515.262 325.756 513.746 323.483Q512.241 321.211 509.595 321.211Q506.978 321.211 505.463 323.483Q503.958 325.756 503.958 330.514Q503.958 335.272 505.463 337.555Q506.978 339.828 509.595 339.828ZM531.972 331.676Q528.79 331.676 526.779 329.504Q524.779 327.332 524.779 323.696Q524.779 320.049 526.779 317.877Q528.79 315.705 531.972 315.705Q535.164 315.705 537.144 317.877Q539.134 320.049 539.134 323.696Q539.134 327.332 537.144 329.504Q535.164 331.676 531.972 331.676ZM549.225 316.038L554.155 316.038L534.376 345L529.446 345L549.225 316.038ZM531.972 328.282Q533.386 328.282 534.184 327.13Q534.992 325.968 534.992 323.696Q534.992 321.413 534.184 320.261Q533.386 319.099 531.972 319.099Q530.608 319.099 529.78 320.281Q528.951 321.453 528.951 323.696Q528.951 325.928 529.78 327.11Q530.608 328.282 531.972 328.282ZM551.63 345.333Q549.559 345.333 547.922 344.364Q546.296 343.384 545.377 341.565Q544.467 339.747 544.467 337.343Q544.467 334.949 545.377 333.131Q546.296 331.302 547.922 330.332Q549.559 329.363 551.63 329.363Q554.812 329.363 556.822 331.534Q558.832 333.706 558.832 337.343Q558.832 340.99 556.822 343.161Q554.812 345.333 551.63 345.333ZM551.63 341.939Q553.034 341.939 553.842 340.757Q554.65 339.575 554.65 337.343Q554.65 335.11 553.842 333.939Q553.034 332.757 551.63 332.757Q550.266 332.757 549.437 333.918Q548.609 335.07 548.609 337.343Q548.609 339.626 549.437 340.788Q550.266 341.939 551.63 341.939Z" fill="#737373" fill-opacity="1.000000" fill-rule="evenodd"/>
	<path id="19%" d="M616.857 410.038L616.857 439L610.149 439L610.149 415.413L604.361 415.413L604.361 410.038L616.857 410.038ZM632.076 409.543Q638.158 409.543 641.592 413.251Q645.027 416.948 645.027 423.898Q645.027 428.818 643.188 432.343Q641.35 435.858 637.996 437.677Q634.642 439.495 630.258 439.495Q627.945 439.495 625.834 438.98Q623.722 438.465 622.237 437.515L624.712 432.585Q626.824 434.03 630.137 434.03Q633.814 434.03 635.966 431.858Q638.117 429.686 638.289 425.595Q635.683 428.201 631.086 428.201Q628.319 428.201 626.036 427.09Q623.763 425.969 622.439 423.918Q621.116 421.868 621.116 419.18Q621.116 416.281 622.561 414.089Q624.015 411.897 626.51 410.725Q629.016 409.543 632.076 409.543ZM632.582 423.191Q634.774 423.191 636.158 421.979Q637.541 420.756 637.541 418.847Q637.541 416.948 636.198 415.746Q634.854 414.544 632.491 414.544Q630.339 414.544 628.995 415.706Q627.652 416.867 627.652 418.847Q627.652 420.837 628.995 422.019Q630.339 423.191 632.582 423.191ZM654.958 425.676Q651.776 425.676 649.766 423.504Q647.766 421.332 647.766 417.696Q647.766 414.049 649.766 411.877Q651.776 409.705 654.958 409.705Q658.15 409.705 660.13 411.877Q662.12 414.049 662.12 417.696Q662.12 421.332 660.13 423.504Q658.15 425.676 654.958 425.676ZM672.212 410.038L677.142 410.038L657.362 439L652.433 439L672.212 410.038ZM654.958 422.282Q656.373 422.282 657.171 421.13Q657.979 419.968 657.979 417.696Q657.979 415.413 657.171 414.261Q656.373 413.099 654.958 413.099Q653.595 413.099 652.766 414.281Q651.938 415.453 651.938 417.696Q651.938 419.928 652.766 421.11Q653.595 422.282 654.958 422.282ZM674.616 439.333Q672.545 439.333 670.909 438.364Q669.282 437.384 668.363 435.565Q667.454 433.747 667.454 431.343Q667.454 428.949 668.363 427.131Q669.282 425.302 670.909 424.332Q672.545 423.363 674.616 423.363Q677.798 423.363 679.808 425.534Q681.819 427.706 681.819 431.343Q681.819 434.99 679.808 437.161Q677.798 439.333 674.616 439.333ZM674.616 435.939Q676.02 435.939 676.828 434.757Q677.637 433.575 677.637 431.343Q677.637 429.11 676.828 427.939Q676.02 426.757 674.616 426.757Q673.252 426.757 672.424 427.918Q671.596 429.07 671.596 431.343Q671.596 433.626 672.424 434.788Q673.252 435.939 674.616 435.939Z" fill="#7CC700" fill-opacity="1.000000" fill-rule="evenodd"/>
	<path id="Rectangle 23" d="M782.279 288L858.721 288C870.473 288 880 297.527 880 309.279L880 553L761 553L761 309.279C761 297.527 770.527 288 782.279 288Z" fill="url(#paint_linear_76_3281_0)" fill-opacity="1.000000" fill-rule="evenodd"/>
	<path id="Rectangle 24" d="M911.279 414L987.721 414C999.473 414 1009 423.527 1009 435.279L1009 553L890 553L890 435.279C890 423.527 899.527 414 911.279 414Z" fill="url(#paint_linear_76_3282_0)" fill-opacity="1.000000" fill-rule="evenodd"/>
	<path id="53%" d="M789.656 254.918Q795.778 254.918 798.697 257.363Q801.616 259.797 801.616 263.898Q801.616 266.545 800.283 268.717Q798.96 270.889 796.252 272.192Q793.545 273.495 789.575 273.495Q786.504 273.495 783.544 272.687Q780.595 271.879 778.524 270.394L781.171 265.262Q782.827 266.505 784.979 267.192Q787.131 267.868 789.403 267.868Q791.929 267.868 793.373 266.878Q794.828 265.878 794.828 264.1Q794.828 262.242 793.313 261.292Q791.808 260.343 788.08 260.343L780.676 260.343L782.161 244.038L799.828 244.038L799.828 249.413L787.747 249.413L787.292 254.918L789.656 254.918ZM817.664 255.827Q821.473 256.453 823.493 258.666Q825.523 260.878 825.523 264.141Q825.523 266.666 824.2 268.798Q822.877 270.929 820.17 272.212Q817.462 273.495 813.533 273.495Q810.462 273.495 807.502 272.687Q804.552 271.879 802.482 270.394L805.088 265.262Q806.744 266.505 808.916 267.192Q811.088 267.868 813.361 267.868Q815.886 267.868 817.331 266.899Q818.786 265.929 818.786 264.141Q818.786 260.585 813.361 260.585L810.3 260.585L810.3 256.16L816.26 249.413L803.926 249.413L803.926 244.038L824.2 244.038L824.2 248.382L817.664 255.827ZM834.917 259.676Q831.735 259.676 829.724 257.504Q827.724 255.332 827.724 251.696Q827.724 248.049 829.724 245.877Q831.735 243.705 834.917 243.705Q838.109 243.705 840.089 245.877Q842.079 248.049 842.079 251.696Q842.079 255.332 840.089 257.504Q838.109 259.676 834.917 259.676ZM852.17 244.038L857.1 244.038L837.321 273L832.391 273L852.17 244.038ZM834.917 256.282Q836.331 256.282 837.129 255.13Q837.937 253.968 837.937 251.696Q837.937 249.413 837.129 248.261Q836.331 247.099 834.917 247.099Q833.553 247.099 832.725 248.281Q831.896 249.453 831.896 251.696Q831.896 253.928 832.725 255.11Q833.553 256.282 834.917 256.282ZM854.575 273.333Q852.504 273.333 850.867 272.364Q849.241 271.384 848.322 269.565Q847.413 267.747 847.413 265.343Q847.413 262.949 848.322 261.131Q849.241 259.302 850.867 258.332Q852.504 257.363 854.575 257.363Q857.757 257.363 859.767 259.534Q861.777 261.706 861.777 265.343Q861.777 268.99 859.767 271.161Q857.757 273.333 854.575 273.333ZM854.575 269.939Q855.979 269.939 856.787 268.757Q857.595 267.575 857.595 265.343Q857.595 263.11 856.787 261.939Q855.979 260.757 854.575 260.757Q853.211 260.757 852.383 261.918Q851.554 263.07 851.554 265.343Q851.554 267.626 852.383 268.788Q853.211 269.939 854.575 269.939Z" fill="#737373" fill-opacity="1.000000" fill-rule="evenodd"/>
	<path id="27%" d="M930.495 389.535L930.495 395L908.605 395L908.605 390.656L919.777 380.1Q921.555 378.413 922.171 377.191Q922.797 375.968 922.797 374.766Q922.797 373.029 921.616 372.099Q920.444 371.17 918.161 371.17Q916.262 371.17 914.726 371.897Q913.201 372.615 912.16 374.059L907.281 370.918Q908.978 368.392 911.958 366.968Q914.938 365.543 918.787 365.543Q922.01 365.543 924.434 366.604Q926.858 367.655 928.202 369.574Q929.545 371.493 929.545 374.11Q929.545 376.463 928.545 378.534Q927.555 380.605 924.707 383.252L918.04 389.535L930.495 389.535ZM955.855 366.038L955.855 370.382L945.096 395L937.813 395L948.208 371.493L938.601 371.493L938.601 376.211L932.641 376.211L932.641 366.038L955.855 366.038ZM965.786 381.676Q962.604 381.676 960.593 379.504Q958.593 377.332 958.593 373.696Q958.593 370.049 960.593 367.877Q962.604 365.705 965.786 365.705Q968.978 365.705 970.958 367.877Q972.948 370.049 972.948 373.696Q972.948 377.332 970.958 379.504Q968.978 381.676 965.786 381.676ZM983.039 366.038L987.969 366.038L968.19 395L963.26 395L983.039 366.038ZM965.786 378.282Q967.2 378.282 967.998 377.13Q968.806 375.968 968.806 373.696Q968.806 371.413 967.998 370.261Q967.2 369.099 965.786 369.099Q964.422 369.099 963.594 370.281Q962.765 371.453 962.765 373.696Q962.765 375.928 963.594 377.11Q964.422 378.282 965.786 378.282ZM985.444 395.333Q983.373 395.333 981.736 394.364Q980.11 393.384 979.191 391.565Q978.281 389.747 978.281 387.343Q978.281 384.949 979.191 383.131Q980.11 381.302 981.736 380.332Q983.373 379.363 985.444 379.363Q988.626 379.363 990.636 381.534Q992.646 383.706 992.646 387.343Q992.646 390.99 990.636 393.161Q988.626 395.333 985.444 395.333ZM985.444 391.939Q986.848 391.939 987.656 390.757Q988.464 389.575 988.464 387.343Q988.464 385.11 987.656 383.939Q986.848 382.757 985.444 382.757Q984.08 382.757 983.251 383.918Q982.423 385.07 982.423 387.343Q982.423 389.626 983.251 390.788Q984.08 391.939 985.444 391.939Z" fill="#7CC700" fill-opacity="1.000000" fill-rule="evenodd"/>
	<path id="Rectangle 23" d="M1089.28 314L1165.72 314C1177.47 314 1187 323.527 1187 335.279L1187 553L1068 553L1068 335.279C1068 323.527 1077.53 314 1089.28 314Z" fill="url(#paint_linear_76_3286_0)" fill-opacity="1.000000" fill-rule="evenodd"/>
	<path id="Rectangle 24" d="M1218.28 453L1294.72 453C1306.47 453 1316 462.527 1316 474.279L1316 553L1197 553L1197 474.279C1197 462.527 1206.53 453 1218.28 453Z" fill="url(#paint_linear_76_3287_0)" fill-opacity="1.000000" fill-rule="evenodd"/>
	<path id="49%" d="M1110.14 296.919L1105.42 296.919L1105.42 303L1098.89 303L1098.89 296.919L1083.29 296.919L1083.29 292.403L1096.95 274.038L1103.98 274.038L1091.32 291.454L1099.1 291.454L1099.1 286.039L1105.42 286.039L1105.42 291.454L1110.14 291.454L1110.14 296.919ZM1122.14 273.543Q1128.22 273.543 1131.65 277.251Q1135.09 280.948 1135.09 287.898Q1135.09 292.818 1133.25 296.343Q1131.41 299.858 1128.06 301.677Q1124.7 303.495 1120.32 303.495Q1118.01 303.495 1115.9 302.98Q1113.78 302.465 1112.3 301.515L1114.77 296.585Q1116.89 298.03 1120.2 298.03Q1123.88 298.03 1126.03 295.858Q1128.18 293.686 1128.35 289.595Q1125.74 292.201 1121.15 292.201Q1118.38 292.201 1116.1 291.09Q1113.82 289.969 1112.5 287.918Q1111.18 285.868 1111.18 283.18Q1111.18 280.281 1112.62 278.089Q1114.08 275.897 1116.57 274.725Q1119.08 273.543 1122.14 273.543ZM1122.64 287.191Q1124.84 287.191 1126.22 285.979Q1127.6 284.756 1127.6 282.847Q1127.6 280.948 1126.26 279.746Q1124.92 278.544 1122.55 278.544Q1120.4 278.544 1119.06 279.706Q1117.71 280.867 1117.71 282.847Q1117.71 284.837 1119.06 286.019Q1120.4 287.191 1122.64 287.191ZM1145.02 289.676Q1141.84 289.676 1139.83 287.504Q1137.83 285.332 1137.83 281.696Q1137.83 278.049 1139.83 275.877Q1141.84 273.705 1145.02 273.705Q1148.21 273.705 1150.19 275.877Q1152.18 278.049 1152.18 281.696Q1152.18 285.332 1150.19 287.504Q1148.21 289.676 1145.02 289.676ZM1162.27 274.038L1167.2 274.038L1147.42 303L1142.49 303L1162.27 274.038ZM1145.02 286.282Q1146.43 286.282 1147.23 285.13Q1148.04 283.968 1148.04 281.696Q1148.04 279.413 1147.23 278.261Q1146.43 277.099 1145.02 277.099Q1143.66 277.099 1142.83 278.281Q1142 279.453 1142 281.696Q1142 283.928 1142.83 285.11Q1143.66 286.282 1145.02 286.282ZM1164.68 303.333Q1162.61 303.333 1160.97 302.364Q1159.34 301.384 1158.42 299.565Q1157.52 297.747 1157.52 295.343Q1157.52 292.949 1158.42 291.131Q1159.34 289.302 1160.97 288.332Q1162.61 287.363 1164.68 287.363Q1167.86 287.363 1169.87 289.534Q1171.88 291.706 1171.88 295.343Q1171.88 298.99 1169.87 301.161Q1167.86 303.333 1164.68 303.333ZM1164.68 299.939Q1166.08 299.939 1166.89 298.757Q1167.7 297.575 1167.7 295.343Q1167.7 293.11 1166.89 291.939Q1166.08 290.757 1164.68 290.757Q1163.31 290.757 1162.49 291.918Q1161.66 293.07 1161.66 295.343Q1161.66 297.626 1162.49 298.788Q1163.31 299.939 1164.68 299.939Z" fill="#737373" fill-opacity="1.000000" fill-rule="evenodd"/>
	<path id="20%" d="M1236.4 430.535L1236.4 436L1214.51 436L1214.51 431.656L1225.68 421.1Q1227.46 419.413 1228.07 418.191Q1228.7 416.968 1228.7 415.766Q1228.7 414.029 1227.52 413.099Q1226.35 412.17 1224.06 412.17Q1222.17 412.17 1220.63 412.897Q1219.1 413.615 1218.06 415.059L1213.18 411.918Q1214.88 409.392 1217.86 407.968Q1220.84 406.543 1224.69 406.543Q1227.91 406.543 1230.34 407.604Q1232.76 408.655 1234.11 410.574Q1235.45 412.493 1235.45 415.11Q1235.45 417.463 1234.45 419.534Q1233.46 421.605 1230.61 424.252L1223.94 430.535L1236.4 430.535ZM1251.51 436.495Q1247.9 436.495 1245.08 434.717Q1242.27 432.939 1240.68 429.565Q1239.09 426.191 1239.09 421.514Q1239.09 416.847 1240.68 413.473Q1242.27 410.099 1245.08 408.321Q1247.9 406.543 1251.51 406.543Q1255.1 406.543 1257.91 408.321Q1260.73 410.099 1262.31 413.473Q1263.91 416.847 1263.91 421.514Q1263.91 426.191 1262.31 429.565Q1260.73 432.939 1257.91 434.717Q1255.1 436.495 1251.51 436.495ZM1251.51 430.828Q1254.15 430.828 1255.66 428.555Q1257.17 426.272 1257.17 421.514Q1257.17 416.756 1255.66 414.483Q1254.15 412.211 1251.51 412.211Q1248.89 412.211 1247.37 414.483Q1245.87 416.756 1245.87 421.514Q1245.87 426.272 1247.37 428.555Q1248.89 430.828 1251.51 430.828ZM1273.88 422.676Q1270.7 422.676 1268.69 420.504Q1266.69 418.332 1266.69 414.696Q1266.69 411.049 1268.69 408.877Q1270.7 406.705 1273.88 406.705Q1277.07 406.705 1279.05 408.877Q1281.04 411.049 1281.04 414.696Q1281.04 418.332 1279.05 420.504Q1277.07 422.676 1273.88 422.676ZM1291.14 407.038L1296.07 407.038L1276.29 436L1271.36 436L1291.14 407.038ZM1273.88 419.282Q1275.3 419.282 1276.09 418.13Q1276.9 416.968 1276.9 414.696Q1276.9 412.413 1276.09 411.261Q1275.3 410.099 1273.88 410.099Q1272.52 410.099 1271.69 411.281Q1270.86 412.453 1270.86 414.696Q1270.86 416.928 1271.69 418.11Q1272.52 419.282 1273.88 419.282ZM1293.54 436.333Q1291.47 436.333 1289.83 435.364Q1288.21 434.384 1287.29 432.565Q1286.38 430.747 1286.38 428.343Q1286.38 425.949 1287.29 424.131Q1288.21 422.302 1289.83 421.332Q1291.47 420.363 1293.54 420.363Q1296.72 420.363 1298.73 422.534Q1300.74 424.706 1300.74 428.343Q1300.74 431.99 1298.73 434.161Q1296.72 436.333 1293.54 436.333ZM1293.54 432.939Q1294.94 432.939 1295.75 431.757Q1296.56 430.575 1296.56 428.343Q1296.56 426.11 1295.75 424.939Q1294.94 423.757 1293.54 423.757Q1292.18 423.757 1291.35 424.918Q1290.52 426.07 1290.52 428.343Q1290.52 430.626 1291.35 431.788Q1292.18 432.939 1293.54 432.939Z" fill="#7CC700" fill-opacity="1.000000" fill-rule="evenodd"/>
	<path id="Line 8" d="M94.6523 503L82.8306 503" stroke="#000000" stroke-opacity="1.000000" stroke-width="1.182186" stroke-linecap="round"/>
	<path id="Line 9" d="M94.6523 453L82.8306 453" stroke="#000000" stroke-opacity="1.000000" stroke-width="1.182186" stroke-linecap="round"/>
	<path id="Line 10" d="M94.6523 403L82.8306 403" stroke="#000000" stroke-opacity="1.000000" stroke-width="1.182186" stroke-linecap="round"/>
	<path id="Line 11" d="M94.6523 353L82.8306 353" stroke="#000000" stroke-opacity="1.000000" stroke-width="1.182186" stroke-linecap="round"/>
	<path id="Line 12" d="M94.6523 303L82.8306 303" stroke="#000000" stroke-opacity="1.000000" stroke-width="1.182186" stroke-linecap="round"/>
	<path id="Line 13" d="M94.6523 253L82.8306 253" stroke="#000000" stroke-opacity="1.000000" stroke-width="1.182186" stroke-linecap="round"/>
	<path id="Line 14" d="M94.6523 203L82.8306 203" stroke="#000000" stroke-opacity="1.000000" stroke-width="1.182186" stroke-linecap="round"/>
	<path id="Line 15" d="M94.6523 153L82.8306 153" stroke="#000000" stroke-opacity="1.000000" stroke-width="1.182186" stroke-linecap="round"/>
	<path id="Line 16" d="M94.6523 103L82.8306 103" stroke="#000000" stroke-opacity="1.000000" stroke-width="1.182186" stroke-linecap="round"/>
	<path id="брадікардія" d="M194.134 594.401L203.943 594.401L203.943 596.326L196.437 596.326L196.437 599.424L200.163 599.424Q202.431 599.424 203.609 600.369Q204.787 601.313 204.787 603.093Q204.787 604.965 203.49 605.985Q202.198 607 199.803 607L194.134 607L194.134 594.401ZM199.676 605.198Q201.025 605.198 201.728 604.68Q202.431 604.157 202.431 603.168Q202.431 601.221 199.676 601.221L196.437 601.221L196.437 605.198L199.676 605.198ZM212.528 594.401Q214.163 594.401 215.375 594.941Q216.593 595.482 217.239 596.488Q217.889 597.495 217.889 598.883Q217.889 600.25 217.239 601.27Q216.593 602.285 215.375 602.825Q214.163 603.366 212.528 603.366L209.684 603.366L209.684 607L207.342 607L207.342 594.401L212.528 594.401ZM212.418 601.384Q213.947 601.384 214.738 600.738Q215.534 600.087 215.534 598.883Q215.534 597.675 214.738 597.029Q213.947 596.378 212.418 596.378L209.684 596.378L209.684 601.384L212.418 601.384ZM227.828 604.082L221.526 604.082L220.283 607L217.875 607L223.544 594.401L225.846 594.401L231.533 607L229.085 607L227.828 604.082ZM227.05 602.25L224.677 596.739L222.317 602.25L227.05 602.25ZM246.044 605.018L246.044 609.681L243.886 609.681L243.886 607L234.218 607L234.218 609.681L232.038 609.681L232.056 605.018L232.597 605.018Q233.788 604.965 234.262 603.265Q234.741 601.564 234.847 598.396L234.992 594.401L244.225 594.401L244.225 605.018L246.044 605.018ZM236.899 598.611Q236.811 601.059 236.503 602.689Q236.2 604.319 235.532 605.018L241.922 605.018L241.922 596.378L236.991 596.378L236.899 598.611ZM248.26 594.401L250.563 594.401L250.563 607L248.26 607L248.26 594.401ZM258.751 601.691L256.413 601.691L256.413 607L254.106 607L254.106 594.401L256.413 594.401L256.413 599.674L258.826 599.674L262.443 594.401L264.926 594.401L260.623 600.5L265.088 607L262.443 607L258.751 601.691ZM274.826 604.082L268.524 604.082L267.281 607L264.873 607L270.542 594.401L272.844 594.401L278.531 607L276.083 607L274.826 604.082ZM274.048 602.25L271.675 596.739L269.315 602.25L274.048 602.25ZM285.644 594.401Q287.279 594.401 288.491 594.941Q289.709 595.482 290.355 596.488Q291.005 597.495 291.005 598.883Q291.005 600.25 290.355 601.27Q289.709 602.285 288.491 602.825Q287.279 603.366 285.644 603.366L282.801 603.366L282.801 607L280.458 607L280.458 594.401L285.644 594.401ZM285.534 601.384Q287.063 601.384 287.854 600.738Q288.65 600.087 288.65 598.883Q288.65 597.675 287.854 597.029Q287.063 596.378 285.534 596.378L282.801 596.378L282.801 601.384L285.534 601.384ZM305.174 605.018L305.174 609.681L303.016 609.681L303.016 607L293.348 607L293.348 609.681L291.168 609.681L291.186 605.018L291.727 605.018Q292.918 604.965 293.392 603.265Q293.871 601.564 293.977 598.396L294.122 594.401L303.355 594.401L303.355 605.018L305.174 605.018ZM296.029 598.611Q295.941 601.059 295.633 602.689Q295.33 604.319 294.662 605.018L301.052 605.018L301.052 596.378L296.121 596.378L296.029 598.611ZM307.39 594.401L309.693 594.401L309.693 607L307.39 607L307.39 594.401ZM322.869 594.401L322.869 607L320.562 607L320.562 603.489L317.451 603.489L317.2 603.489L314.858 607L312.392 607L315.091 603.111Q313.777 602.627 313.065 601.573Q312.357 600.518 312.357 599.024Q312.357 597.587 313.003 596.545Q313.654 595.5 314.84 594.95Q316.027 594.401 317.631 594.401L322.869 594.401ZM317.701 596.378Q316.264 596.378 315.495 597.046Q314.73 597.71 314.73 598.989Q314.73 600.232 315.469 600.909Q316.207 601.582 317.613 601.582L320.562 601.582L320.562 596.378L317.701 596.378Z" fill="#000000" fill-opacity="1.000000" fill-rule="evenodd"/>
	<path id="міграція водія ритму" d="M479.531 607L479.514 598.646L475.374 605.559L474.328 605.559L470.189 598.756L470.189 607L467.978 607L467.978 594.401L469.903 594.401L474.886 602.733L479.821 594.401L481.729 594.401L481.764 607L479.531 607ZM485.312 594.401L487.615 594.401L487.615 607L485.312 607L485.312 594.401ZM499.71 596.378L493.465 596.378L493.483 607L491.18 607L491.18 594.401L499.728 594.401L499.71 596.378ZM506.874 594.401Q508.509 594.401 509.721 594.941Q510.939 595.482 511.585 596.488Q512.235 597.495 512.235 598.883Q512.235 600.25 511.585 601.27Q510.939 602.285 509.721 602.825Q508.509 603.366 506.874 603.366L504.03 603.366L504.03 607L501.688 607L501.688 594.401L506.874 594.401ZM506.764 601.384Q508.293 601.384 509.084 600.738Q509.88 600.087 509.88 598.883Q509.88 597.675 509.084 597.029Q508.293 596.378 506.764 596.378L504.03 596.378L504.03 601.384L506.764 601.384ZM522.174 604.082L515.872 604.082L514.629 607L512.221 607L517.89 594.401L520.192 594.401L525.879 607L523.431 607L522.174 604.082ZM521.396 602.25L519.023 596.739L516.663 602.25L521.396 602.25ZM540.678 605.018L540.678 609.773L538.52 609.773L538.52 607L527.828 607L527.828 594.401L530.131 594.401L530.131 605.018L536.485 605.018L536.485 594.401L538.806 594.401L538.806 605.018L540.678 605.018ZM542.84 594.401L545.143 594.401L545.143 607L542.84 607L542.84 594.401ZM558.319 594.401L558.319 607L556.012 607L556.012 603.489L552.901 603.489L552.65 603.489L550.308 607L547.842 607L550.541 603.111Q549.227 602.627 548.515 601.573Q547.807 600.518 547.807 599.024Q547.807 597.587 548.453 596.545Q549.104 595.5 550.29 594.95Q551.477 594.401 553.081 594.401L558.319 594.401ZM553.151 596.378Q551.714 596.378 550.945 597.046Q550.18 597.71 550.18 598.989Q550.18 600.232 550.919 600.909Q551.657 601.582 553.063 601.582L556.012 601.582L556.012 596.378L553.151 596.378ZM575.131 600.448Q576.336 600.773 576.964 601.555Q577.597 602.337 577.597 603.506Q577.597 605.163 576.371 606.082Q575.149 607 572.824 607L566.852 607L566.852 594.401L572.486 594.401Q574.609 594.401 575.795 595.249Q576.986 596.093 576.986 597.64Q576.986 598.628 576.507 599.349Q576.028 600.07 575.131 600.448ZM569.155 599.784L572.284 599.784Q573.422 599.784 574.015 599.336Q574.609 598.883 574.609 598Q574.609 597.117 574.015 596.66Q573.422 596.198 572.284 596.198L569.155 596.198L569.155 599.784ZM572.754 605.198Q575.237 605.198 575.237 603.326Q575.237 601.494 572.754 601.494L569.155 601.494L569.155 605.198L572.754 605.198ZM586.09 607.18Q584.165 607.18 582.618 606.345Q581.071 605.506 580.188 604.021Q579.305 602.535 579.305 600.698Q579.305 598.866 580.188 597.38Q581.071 595.895 582.618 595.06Q584.165 594.221 586.09 594.221Q588.019 594.221 589.566 595.06Q591.113 595.895 591.996 597.372Q592.879 598.848 592.879 600.698Q592.879 602.553 591.996 604.029Q591.113 605.506 589.566 606.345Q588.019 607.18 586.09 607.18ZM586.09 605.128Q587.351 605.128 588.357 604.561Q589.368 603.994 589.944 602.979Q590.519 601.959 590.519 600.698Q590.519 599.441 589.944 598.426Q589.368 597.407 588.357 596.84Q587.351 596.273 586.09 596.273Q584.833 596.273 583.822 596.84Q582.816 597.407 582.24 598.426Q581.664 599.441 581.664 600.698Q581.664 601.959 582.24 602.979Q582.816 603.994 583.822 604.561Q584.833 605.128 586.09 605.128ZM607.602 605.018L607.602 609.681L605.444 609.681L605.444 607L595.776 607L595.776 609.681L593.596 609.681L593.614 605.018L594.155 605.018Q595.346 604.965 595.82 603.265Q596.299 601.564 596.405 598.396L596.55 594.401L605.783 594.401L605.783 605.018L607.602 605.018ZM598.457 598.611Q598.369 601.059 598.061 602.689Q597.758 604.319 597.09 605.018L603.48 605.018L603.48 596.378L598.549 596.378L598.457 598.611ZM609.818 594.401L612.121 594.401L612.121 607L609.818 607L609.818 594.401ZM625.297 594.401L625.297 607L622.99 607L622.99 603.489L619.879 603.489L619.628 603.489L617.286 607L614.82 607L617.519 603.111Q616.205 602.627 615.493 601.573Q614.785 600.518 614.785 599.024Q614.785 597.587 615.431 596.545Q616.082 595.5 617.268 594.95Q618.455 594.401 620.059 594.401L625.297 594.401ZM620.129 596.378Q618.692 596.378 617.923 597.046Q617.158 597.71 617.158 598.989Q617.158 600.232 617.897 600.909Q618.635 601.582 620.041 601.582L622.99 601.582L622.99 596.378L620.129 596.378ZM638.994 594.401Q640.629 594.401 641.841 594.941Q643.059 595.482 643.705 596.488Q644.355 597.495 644.355 598.883Q644.355 600.25 643.705 601.27Q643.059 602.285 641.841 602.825Q640.629 603.366 638.994 603.366L636.151 603.366L636.151 607L633.808 607L633.808 594.401L638.994 594.401ZM638.884 601.384Q640.413 601.384 641.204 600.738Q642 600.087 642 598.883Q642 597.675 641.204 597.029Q640.413 596.378 638.884 596.378L636.151 596.378L636.151 601.384L638.884 601.384ZM646.592 594.401L648.895 594.401L648.895 603.348L655.662 594.401L657.838 594.401L657.838 607L655.535 607L655.535 598.07L648.767 607L646.592 607L646.592 594.401ZM670.511 596.378L666.336 596.378L666.336 607L664.016 607L664.016 596.378L659.854 596.378L659.854 594.401L670.511 594.401L670.511 596.378ZM684.101 607L684.084 598.646L679.944 605.559L678.898 605.559L674.759 598.756L674.759 607L672.548 607L672.548 594.401L674.473 594.401L679.456 602.733L684.391 594.401L686.299 594.401L686.334 607L684.101 607ZM700.68 594.401L695.208 604.57Q694.488 605.919 693.486 606.596Q692.488 607.268 691.319 607.268Q690.383 607.268 689.465 606.873L690.04 605.04Q690.779 605.273 691.266 605.273Q692.4 605.273 693.139 604.104L693.336 603.796L688.313 594.401L690.814 594.401L694.54 601.797L698.377 594.401L700.68 594.401Z" fill="#000000" fill-opacity="1.000000" fill-rule="evenodd"/>
	<path id="предсерцевий ритм+мвр" d="M813.386 584.401L813.386 597L811.084 597L811.084 586.378L804.549 586.378L804.549 597L802.246 597L802.246 584.401L813.386 584.401ZM822.116 584.401Q823.75 584.401 824.963 584.941Q826.181 585.482 826.827 586.488Q827.477 587.495 827.477 588.883Q827.477 590.25 826.827 591.27Q826.181 592.285 824.963 592.825Q823.75 593.366 822.116 593.366L819.272 593.366L819.272 597L816.93 597L816.93 584.401L822.116 584.401ZM822.006 591.384Q823.535 591.384 824.326 590.738Q825.122 590.087 825.122 588.883Q825.122 587.675 824.326 587.029Q823.535 586.378 822.006 586.378L819.272 586.378L819.272 591.384L822.006 591.384ZM839.14 595.04L839.14 597L829.692 597L829.692 584.401L838.89 584.401L838.89 586.361L832.034 586.361L832.034 589.639L838.117 589.639L838.117 591.564L832.034 591.564L832.034 595.04L839.14 595.04ZM854.246 595.018L854.246 599.681L852.088 599.681L852.088 597L842.42 597L842.42 599.681L840.24 599.681L840.258 595.018L840.799 595.018Q841.99 594.965 842.464 593.265Q842.943 591.564 843.049 588.396L843.194 584.401L852.427 584.401L852.427 595.018L854.246 595.018ZM845.101 588.611Q845.013 591.059 844.705 592.689Q844.402 594.319 843.734 595.018L850.124 595.018L850.124 586.378L845.193 586.378L845.101 588.611ZM862.237 597.18Q860.329 597.18 858.791 596.345Q857.253 595.506 856.379 594.029Q855.504 592.553 855.504 590.698Q855.504 588.848 856.387 587.372Q857.271 585.895 858.809 585.06Q860.347 584.221 862.254 584.221Q863.801 584.221 865.08 584.761Q866.359 585.302 867.242 586.326L865.73 587.75Q864.359 586.273 862.364 586.273Q861.068 586.273 860.039 586.84Q859.015 587.407 858.44 588.417Q857.864 589.424 857.864 590.698Q857.864 591.977 858.44 592.988Q859.015 593.994 860.039 594.561Q861.068 595.128 862.364 595.128Q864.359 595.128 865.73 593.634L867.242 595.075Q866.359 596.099 865.071 596.64Q863.783 597.18 862.237 597.18ZM878.866 595.04L878.866 597L869.418 597L869.418 584.401L878.616 584.401L878.616 586.361L871.76 586.361L871.76 589.639L877.843 589.639L877.843 591.564L871.76 591.564L871.76 595.04L878.866 595.04ZM886.664 584.401Q888.299 584.401 889.511 584.941Q890.729 585.482 891.375 586.488Q892.025 587.495 892.025 588.883Q892.025 590.25 891.375 591.27Q890.729 592.285 889.511 592.825Q888.299 593.366 886.664 593.366L883.82 593.366L883.82 597L881.478 597L881.478 584.401L886.664 584.401ZM886.554 591.384Q888.083 591.384 888.874 590.738Q889.67 590.087 889.67 588.883Q889.67 587.675 888.874 587.029Q888.083 586.378 886.554 586.378L883.82 586.378L883.82 591.384L886.554 591.384ZM907.112 595.018L907.112 599.773L904.954 599.773L904.954 597L894.262 597L894.262 584.401L896.565 584.401L896.565 595.018L902.919 595.018L902.919 584.401L905.24 584.401L905.24 595.018L907.112 595.018ZM918.7 595.04L918.7 597L909.252 597L909.252 584.401L918.45 584.401L918.45 586.361L911.594 586.361L911.594 589.639L917.677 589.639L917.677 591.564L911.594 591.564L911.594 595.04L918.7 595.04ZM929.613 590.448Q930.818 590.773 931.446 591.555Q932.079 592.337 932.079 593.506Q932.079 595.163 930.853 596.082Q929.631 597 927.306 597L921.334 597L921.334 584.401L926.968 584.401Q929.091 584.401 930.277 585.249Q931.468 586.093 931.468 587.64Q931.468 588.628 930.989 589.349Q930.51 590.07 929.613 590.448ZM923.637 589.784L926.766 589.784Q927.904 589.784 928.497 589.336Q929.091 588.883 929.091 588Q929.091 587.117 928.497 586.66Q927.904 586.198 926.766 586.198L923.637 586.198L923.637 589.784ZM927.236 595.198Q929.719 595.198 929.719 593.326Q929.719 591.494 927.236 591.494L923.637 591.494L923.637 595.198L927.236 595.198ZM934.762 584.401L937.065 584.401L937.065 593.348L943.833 584.401L946.008 584.401L946.008 597L943.705 597L943.705 588.07L936.938 597L934.762 597L934.762 584.401ZM949.558 584.401L951.861 584.401L951.861 593.348L958.628 584.401L960.804 584.401L960.804 597L958.501 597L958.501 588.07L951.733 597L949.558 597L949.558 584.401ZM955.152 583.553Q953.535 583.553 952.713 582.889Q951.896 582.221 951.878 580.942L953.513 580.942Q953.535 581.61 953.948 581.971Q954.361 582.331 955.152 582.331Q955.926 582.331 956.365 581.971Q956.809 581.61 956.827 580.942L958.448 580.942Q958.431 582.204 957.591 582.88Q956.756 583.553 955.152 583.553ZM835.76 609.401Q837.395 609.401 838.607 609.941Q839.825 610.482 840.471 611.488Q841.121 612.495 841.121 613.883Q841.121 615.25 840.471 616.27Q839.825 617.285 838.607 617.825Q837.395 618.366 835.76 618.366L832.917 618.366L832.917 622L830.574 622L830.574 609.401L835.76 609.401ZM835.65 616.384Q837.179 616.384 837.97 615.738Q838.766 615.087 838.766 613.883Q838.766 612.675 837.97 612.029Q837.179 611.378 835.65 611.378L832.917 611.378L832.917 616.384L835.65 616.384ZM843.358 609.401L845.661 609.401L845.661 618.348L852.428 609.401L854.604 609.401L854.604 622L852.301 622L852.301 613.07L845.533 622L843.358 622L843.358 609.401ZM867.277 611.378L863.102 611.378L863.102 622L860.782 622L860.782 611.378L856.62 611.378L856.62 609.401L867.277 609.401L867.277 611.378ZM880.867 622L880.85 613.646L876.71 620.559L875.664 620.559L871.525 613.756L871.525 622L869.314 622L869.314 609.401L871.239 609.401L876.222 617.733L881.157 609.401L883.065 609.401L883.1 622L880.867 622ZM894.33 616.599L891.148 616.599L891.148 619.75L889.219 619.75L889.219 616.599L886.033 616.599L886.033 614.802L889.219 614.802L889.219 611.651L891.148 611.651L891.148 614.802L894.33 614.802L894.33 616.599ZM908.821 622L908.804 613.646L904.664 620.559L903.618 620.559L899.479 613.756L899.479 622L897.268 622L897.268 609.401L899.193 609.401L904.176 617.733L909.111 609.401L911.019 609.401L911.054 622L908.821 622ZM922.881 615.448Q924.086 615.773 924.714 616.555Q925.347 617.337 925.347 618.506Q925.347 620.163 924.121 621.082Q922.899 622 920.574 622L914.602 622L914.602 609.401L920.236 609.401Q922.359 609.401 923.545 610.249Q924.736 611.093 924.736 612.64Q924.736 613.628 924.257 614.349Q923.778 615.07 922.881 615.448ZM916.905 614.784L920.034 614.784Q921.172 614.784 921.765 614.336Q922.359 613.883 922.359 613Q922.359 612.117 921.765 611.66Q921.172 611.198 920.034 611.198L916.905 611.198L916.905 614.784ZM920.504 620.198Q922.987 620.198 922.987 618.326Q922.987 616.494 920.504 616.494L916.905 616.494L916.905 620.198L920.504 620.198ZM933.194 609.401Q934.828 609.401 936.041 609.941Q937.259 610.482 937.905 611.488Q938.555 612.495 938.555 613.883Q938.555 615.25 937.905 616.27Q937.259 617.285 936.041 617.825Q934.828 618.366 933.194 618.366L930.35 618.366L930.35 622L928.008 622L928.008 609.401L933.194 609.401ZM933.084 616.384Q934.613 616.384 935.404 615.738Q936.2 615.087 936.2 613.883Q936.2 612.675 935.404 612.029Q934.613 611.378 933.084 611.378L930.35 611.378L930.35 616.384L933.084 616.384Z" fill="#000000" fill-opacity="1.000000" fill-rule="evenodd"/>
	<path id="са-блокада іі ступеню" d="M1127.11 597.18Q1125.2 597.18 1123.67 596.345Q1122.13 595.506 1121.25 594.029Q1120.38 592.553 1120.38 590.698Q1120.38 588.848 1121.26 587.372Q1122.14 585.895 1123.68 585.06Q1125.22 584.221 1127.13 584.221Q1128.68 584.221 1129.95 584.761Q1131.23 585.302 1132.12 586.326L1130.6 587.75Q1129.23 586.273 1127.24 586.273Q1125.94 586.273 1124.91 586.84Q1123.89 587.407 1123.31 588.417Q1122.74 589.424 1122.74 590.698Q1122.74 591.977 1123.31 592.988Q1123.89 593.994 1124.91 594.561Q1125.94 595.128 1127.24 595.128Q1129.23 595.128 1130.6 593.634L1132.12 595.075Q1131.23 596.099 1129.95 596.64Q1128.66 597.18 1127.11 597.18ZM1142.38 594.082L1136.07 594.082L1134.83 597L1132.42 597L1138.09 584.401L1140.39 584.401L1146.08 597L1143.63 597L1142.38 594.082ZM1141.6 592.25L1139.23 586.739L1136.87 592.25L1141.6 592.25ZM1146.87 591.059L1151.83 591.059L1151.83 592.931L1146.87 592.931L1146.87 591.059ZM1154.6 584.401L1164.41 584.401L1164.41 586.326L1156.9 586.326L1156.9 589.424L1160.63 589.424Q1162.9 589.424 1164.07 590.369Q1165.25 591.313 1165.25 593.093Q1165.25 594.965 1163.96 595.985Q1162.66 597 1160.27 597L1154.6 597L1154.6 584.401ZM1160.14 595.198Q1161.49 595.198 1162.19 594.68Q1162.9 594.157 1162.9 593.168Q1162.9 591.221 1160.14 591.221L1156.9 591.221L1156.9 595.198L1160.14 595.198ZM1178.25 584.401L1178.25 597L1175.95 597L1175.95 586.378L1170.98 586.378L1170.87 589.529Q1170.78 592.175 1170.44 593.823Q1170.09 595.471 1169.34 596.328Q1168.58 597.18 1167.25 597.18Q1166.79 597.18 1165.97 597L1166.14 594.965Q1166.37 595.04 1166.68 595.04Q1167.77 595.04 1168.23 593.735Q1168.69 592.43 1168.8 589.622L1168.98 584.401L1178.25 584.401ZM1187.63 597.18Q1185.7 597.18 1184.15 596.345Q1182.61 595.506 1181.72 594.021Q1180.84 592.535 1180.84 590.698Q1180.84 588.866 1181.72 587.38Q1182.61 585.895 1184.15 585.06Q1185.7 584.221 1187.63 584.221Q1189.55 584.221 1191.1 585.06Q1192.65 585.895 1193.53 587.372Q1194.42 588.848 1194.42 590.698Q1194.42 592.553 1193.53 594.029Q1192.65 595.506 1191.1 596.345Q1189.55 597.18 1187.63 597.18ZM1187.63 595.128Q1188.89 595.128 1189.89 594.561Q1190.9 593.994 1191.48 592.979Q1192.06 591.959 1192.06 590.698Q1192.06 589.441 1191.48 588.426Q1190.9 587.407 1189.89 586.84Q1188.89 586.273 1187.63 586.273Q1186.37 586.273 1185.36 586.84Q1184.35 587.407 1183.78 588.426Q1183.2 589.441 1183.2 590.698Q1183.2 591.959 1183.78 592.979Q1184.35 593.994 1185.36 594.561Q1186.37 595.128 1187.63 595.128ZM1201.65 591.691L1199.31 591.691L1199.31 597L1197 597L1197 584.401L1199.31 584.401L1199.31 589.674L1201.72 589.674L1205.34 584.401L1207.82 584.401L1203.52 590.5L1207.99 597L1205.34 597L1201.65 591.691ZM1217.72 594.082L1211.42 594.082L1210.18 597L1207.77 597L1213.44 584.401L1215.74 584.401L1221.43 597L1218.98 597L1217.72 594.082ZM1216.95 592.25L1214.57 586.739L1212.21 592.25L1216.95 592.25ZM1235.94 595.018L1235.94 599.681L1233.78 599.681L1233.78 597L1224.11 597L1224.11 599.681L1221.93 599.681L1221.95 595.018L1222.49 595.018Q1223.68 594.965 1224.16 593.265Q1224.64 591.564 1224.74 588.396L1224.89 584.401L1234.12 584.401L1234.12 595.018L1235.94 595.018ZM1226.79 588.611Q1226.71 591.059 1226.4 592.689Q1226.1 594.319 1225.43 595.018L1231.82 595.018L1231.82 586.378L1226.89 586.378L1226.79 588.611ZM1246.58 594.082L1240.28 594.082L1239.03 597L1236.62 597L1242.29 584.401L1244.6 584.401L1250.28 597L1247.84 597L1246.58 594.082ZM1245.8 592.25L1243.43 586.739L1241.07 592.25L1245.8 592.25ZM1132.27 609.401L1134.57 609.401L1134.57 622L1132.27 622L1132.27 609.401ZM1138.14 609.401L1140.44 609.401L1140.44 622L1138.14 622L1138.14 609.401ZM1154.75 622.18Q1152.84 622.18 1151.3 621.345Q1149.77 620.506 1148.89 619.029Q1148.02 617.553 1148.02 615.698Q1148.02 613.848 1148.9 612.372Q1149.78 610.895 1151.32 610.06Q1152.86 609.221 1154.77 609.221Q1156.31 609.221 1157.59 609.761Q1158.87 610.302 1159.76 611.326L1158.24 612.75Q1156.87 611.273 1154.88 611.273Q1153.58 611.273 1152.55 611.84Q1151.53 612.407 1150.95 613.417Q1150.38 614.424 1150.38 615.698Q1150.38 616.977 1150.95 617.988Q1151.53 618.994 1152.55 619.561Q1153.58 620.128 1154.88 620.128Q1156.87 620.128 1158.24 618.634L1159.76 620.075Q1158.87 621.099 1157.58 621.64Q1156.3 622.18 1154.75 622.18ZM1170.93 611.378L1166.76 611.378L1166.76 622L1164.44 622L1164.44 611.378L1160.28 611.378L1160.28 609.401L1170.93 609.401L1170.93 611.378ZM1183.23 609.401L1177.76 619.57Q1177.03 620.919 1176.03 621.596Q1175.04 622.268 1173.87 622.268Q1172.93 622.268 1172.01 621.873L1172.59 620.04Q1173.33 620.273 1173.81 620.273Q1174.95 620.273 1175.69 619.104L1175.88 618.796L1170.86 609.401L1173.36 609.401L1177.09 616.797L1180.92 609.401L1183.23 609.401ZM1196.01 609.401L1196.01 622L1193.7 622L1193.7 611.378L1187.17 611.378L1187.17 622L1184.87 622L1184.87 609.401L1196.01 609.401ZM1209 620.04L1209 622L1199.55 622L1199.55 609.401L1208.75 609.401L1208.75 611.361L1201.89 611.361L1201.89 614.639L1207.98 614.639L1207.98 616.564L1201.89 616.564L1201.89 620.04L1209 620.04ZM1222.81 609.401L1222.81 622L1220.47 622L1220.47 616.599L1213.95 616.599L1213.95 622L1211.61 622L1211.61 609.401L1213.95 609.401L1213.95 614.604L1220.47 614.604L1220.47 609.401L1222.81 609.401ZM1237.12 609.221Q1238.97 609.221 1240.46 610.06Q1241.94 610.895 1242.79 612.372Q1243.64 613.848 1243.64 615.698Q1243.64 617.553 1242.79 619.029Q1241.94 620.506 1240.46 621.345Q1238.97 622.18 1237.12 622.18Q1235.43 622.18 1234.03 621.477Q1232.64 620.774 1231.74 619.517Q1230.86 618.256 1230.64 616.652L1228.66 616.652L1228.66 622L1226.36 622L1226.36 609.401L1228.66 609.401L1228.66 614.564L1230.68 614.564Q1230.93 613 1231.82 611.787Q1232.71 610.57 1234.08 609.897Q1235.46 609.221 1237.12 609.221ZM1237.12 620.128Q1238.29 620.128 1239.24 619.57Q1240.2 619.012 1240.74 618.005Q1241.28 616.995 1241.28 615.698Q1241.28 614.402 1240.74 613.396Q1240.2 612.389 1239.24 611.831Q1238.29 611.273 1237.12 611.273Q1235.95 611.273 1235.01 611.831Q1234.06 612.389 1233.51 613.396Q1232.96 614.402 1232.96 615.698Q1232.96 616.995 1233.51 618.005Q1234.06 619.012 1235.01 619.57Q1235.95 620.128 1237.12 620.128Z" fill="#000000" fill-opacity="1.000000" fill-rule="evenodd"/>
	<path id="0" d="M66.287 561.115Q64.7539 561.115 63.5532 560.303Q62.3526 559.485 61.6784 557.966Q61.0088 556.442 61.0088 554.378Q61.0088 552.318 61.6784 550.794Q62.3526 549.271 63.5532 548.458Q64.7539 547.645 66.287 547.645Q67.8202 547.645 69.0209 548.458Q70.2215 549.271 70.9003 550.794Q71.5838 552.318 71.5838 554.378Q71.5838 556.442 70.9003 557.966Q70.2215 559.485 69.0209 560.303Q67.8202 561.115 66.287 561.115ZM66.287 559.864Q67.4415 559.864 68.3189 559.222Q69.201 558.58 69.6905 557.352Q70.1846 556.119 70.1846 554.378Q70.1846 552.642 69.6905 551.413Q69.201 550.18 68.3189 549.538Q67.4415 548.896 66.287 548.896Q65.1326 548.896 64.2505 549.538Q63.3731 550.18 62.879 551.413Q62.3895 552.642 62.3895 554.378Q62.3895 556.119 62.879 557.352Q63.3731 558.58 64.2505 559.222Q65.1326 559.864 66.287 559.864Z" fill="#000000" fill-opacity="1.000000" fill-rule="evenodd"/>
	<path id="10%" d="M52.6243 494.76L52.6243 508L51.262 508L51.262 495.97L48.1403 495.97L48.1403 494.76L52.6243 494.76ZM61.0597 508.115Q59.5265 508.115 58.3259 507.303Q57.1252 506.485 56.451 504.966Q55.7814 503.442 55.7814 501.378Q55.7814 499.318 56.451 497.794Q57.1252 496.271 58.3259 495.458Q59.5265 494.645 61.0597 494.645Q62.5928 494.645 63.7935 495.458Q64.9941 496.271 65.673 497.794Q66.3564 499.318 66.3564 501.378Q66.3564 503.442 65.673 504.966Q64.9941 506.485 63.7935 507.303Q62.5928 508.115 61.0597 508.115ZM61.0597 506.864Q62.2141 506.864 63.0915 506.222Q63.9736 505.58 64.4631 504.352Q64.9572 503.119 64.9572 501.378Q64.9572 499.642 64.4631 498.413Q63.9736 497.18 63.0915 496.538Q62.2141 495.896 61.0597 495.896Q59.9052 495.896 59.0232 496.538Q58.1458 497.18 57.6516 498.413Q57.1621 499.642 57.1621 501.378Q57.1621 503.119 57.6516 504.352Q58.1458 505.58 59.0232 506.222Q59.9052 506.864 61.0597 506.864ZM71.1016 501.854Q69.7577 501.854 68.9358 500.861Q68.1138 499.868 68.1138 498.261Q68.1138 496.649 68.9358 495.656Q69.7577 494.663 71.1016 494.663Q72.4269 494.663 73.2581 495.647Q74.0893 496.631 74.0893 498.261Q74.0893 499.886 73.2581 500.87Q72.4269 501.854 71.1016 501.854ZM79.1229 494.76L80.2404 494.76L71.1985 508L70.081 508L79.1229 494.76ZM71.1016 500.999Q72.0298 500.999 72.5885 500.274Q73.1473 499.545 73.1473 498.261Q73.1473 496.972 72.5885 496.247Q72.0298 495.518 71.1016 495.518Q70.1549 495.518 69.6053 496.257Q69.0604 496.991 69.0604 498.261Q69.0604 499.526 69.6053 500.265Q70.1549 500.999 71.1016 500.999ZM79.2152 508.092Q77.8945 508.092 77.0587 507.1Q76.2274 506.107 76.2274 504.5Q76.2274 502.893 77.0587 501.9Q77.8945 500.907 79.2152 500.907Q80.559 500.907 81.381 501.9Q82.2076 502.893 82.2076 504.5Q82.2076 506.107 81.381 507.1Q80.559 508.092 79.2152 508.092ZM79.2152 507.243Q80.1619 507.243 80.7114 506.508Q81.261 505.77 81.261 504.5Q81.261 503.234 80.7114 502.495Q80.1619 501.757 79.2152 501.757Q78.2916 501.757 77.7329 502.486Q77.1741 503.216 77.1741 504.5Q77.1741 505.788 77.7329 506.518Q78.2916 507.243 79.2152 507.243Z" fill="#000000" fill-opacity="1.000000" fill-rule="evenodd"/>
	<path id="20%" d="M54.1552 456.79L54.1552 458L44.8686 458L44.8686 457.035L50.3731 451.646Q51.4122 450.625 51.7816 449.877Q52.151 449.129 52.151 448.372Q52.151 447.199 51.3475 446.548Q50.544 445.896 49.0478 445.896Q46.7204 445.896 45.4366 447.37L44.4714 446.538Q45.2472 445.629 46.4479 445.139Q47.6486 444.645 49.1632 444.645Q51.1859 444.645 52.3681 445.601Q53.5503 446.557 53.5503 448.219Q53.5503 449.244 53.0931 450.191Q52.6405 451.133 51.3752 452.362L46.8728 456.79L54.1552 456.79ZM61.0597 458.115Q59.5265 458.115 58.3259 457.303Q57.1252 456.485 56.451 454.966Q55.7814 453.442 55.7814 451.378Q55.7814 449.318 56.451 447.794Q57.1252 446.271 58.3259 445.458Q59.5265 444.645 61.0597 444.645Q62.5928 444.645 63.7935 445.458Q64.9941 446.271 65.673 447.794Q66.3564 449.318 66.3564 451.378Q66.3564 453.442 65.673 454.966Q64.9941 456.485 63.7935 457.303Q62.5928 458.115 61.0597 458.115ZM61.0597 456.864Q62.2141 456.864 63.0915 456.222Q63.9736 455.58 64.4631 454.352Q64.9572 453.119 64.9572 451.378Q64.9572 449.642 64.4631 448.413Q63.9736 447.18 63.0915 446.538Q62.2141 445.896 61.0597 445.896Q59.9052 445.896 59.0232 446.538Q58.1458 447.18 57.6516 448.413Q57.1621 449.642 57.1621 451.378Q57.1621 453.119 57.6516 454.352Q58.1458 455.58 59.0232 456.222Q59.9052 456.864 61.0597 456.864ZM71.1016 451.854Q69.7577 451.854 68.9358 450.861Q68.1138 449.868 68.1138 448.261Q68.1138 446.649 68.9358 445.656Q69.7577 444.663 71.1016 444.663Q72.4269 444.663 73.2581 445.647Q74.0893 446.631 74.0893 448.261Q74.0893 449.886 73.2581 450.87Q72.4269 451.854 71.1016 451.854ZM79.1229 444.76L80.2404 444.76L71.1985 458L70.081 458L79.1229 444.76ZM71.1016 450.999Q72.0298 450.999 72.5885 450.274Q73.1473 449.545 73.1473 448.261Q73.1473 446.972 72.5885 446.247Q72.0298 445.518 71.1016 445.518Q70.1549 445.518 69.6053 446.257Q69.0604 446.991 69.0604 448.261Q69.0604 449.526 69.6053 450.265Q70.1549 450.999 71.1016 450.999ZM79.2152 458.092Q77.8945 458.092 77.0587 457.1Q76.2274 456.107 76.2274 454.5Q76.2274 452.893 77.0587 451.9Q77.8945 450.907 79.2152 450.907Q80.559 450.907 81.381 451.9Q82.2076 452.893 82.2076 454.5Q82.2076 456.107 81.381 457.1Q80.559 458.092 79.2152 458.092ZM79.2152 457.243Q80.1619 457.243 80.7114 456.508Q81.261 455.77 81.261 454.5Q81.261 453.234 80.7114 452.495Q80.1619 451.757 79.2152 451.757Q78.2916 451.757 77.7329 452.486Q77.1741 453.216 77.1741 454.5Q77.1741 455.788 77.7329 456.518Q78.2916 457.243 79.2152 457.243Z" fill="#000000" fill-opacity="1.000000" fill-rule="evenodd"/>
	<path id="30%" d="M49.6158 400.436Q51.6939 400.547 52.7791 401.558Q53.8689 402.569 53.8689 404.199Q53.8689 405.331 53.3194 406.213Q52.7745 407.09 51.6939 407.603Q50.6179 408.115 49.0663 408.115Q47.6301 408.115 46.3509 407.654Q45.0764 407.187 44.3006 406.411L44.9609 405.331Q45.6259 406.014 46.7204 406.439Q47.8194 406.864 49.0663 406.864Q50.6918 406.864 51.5784 406.157Q52.4697 405.446 52.4697 404.199Q52.4697 402.966 51.5784 402.269Q50.6918 401.567 48.8954 401.567L47.9487 401.567L47.9487 400.565L51.62 395.97L44.8501 395.97L44.8501 394.76L53.3609 394.76L53.3609 395.726L49.6158 400.436ZM61.0597 408.115Q59.5265 408.115 58.3259 407.303Q57.1252 406.485 56.451 404.966Q55.7814 403.442 55.7814 401.378Q55.7814 399.318 56.451 397.794Q57.1252 396.271 58.3259 395.458Q59.5265 394.645 61.0597 394.645Q62.5928 394.645 63.7935 395.458Q64.9941 396.271 65.673 397.794Q66.3564 399.318 66.3564 401.378Q66.3564 403.442 65.673 404.966Q64.9941 406.485 63.7935 407.303Q62.5928 408.115 61.0597 408.115ZM61.0597 406.864Q62.2141 406.864 63.0915 406.222Q63.9736 405.58 64.4631 404.352Q64.9572 403.119 64.9572 401.378Q64.9572 399.642 64.4631 398.413Q63.9736 397.18 63.0915 396.538Q62.2141 395.896 61.0597 395.896Q59.9052 395.896 59.0232 396.538Q58.1458 397.18 57.6516 398.413Q57.1621 399.642 57.1621 401.378Q57.1621 403.119 57.6516 404.352Q58.1458 405.58 59.0232 406.222Q59.9052 406.864 61.0597 406.864ZM71.1016 401.854Q69.7577 401.854 68.9358 400.861Q68.1138 399.868 68.1138 398.261Q68.1138 396.649 68.9358 395.656Q69.7577 394.663 71.1016 394.663Q72.4269 394.663 73.2581 395.647Q74.0893 396.631 74.0893 398.261Q74.0893 399.886 73.2581 400.87Q72.4269 401.854 71.1016 401.854ZM79.1229 394.76L80.2404 394.76L71.1985 408L70.081 408L79.1229 394.76ZM71.1016 400.999Q72.0298 400.999 72.5885 400.274Q73.1473 399.545 73.1473 398.261Q73.1473 396.972 72.5885 396.247Q72.0298 395.518 71.1016 395.518Q70.1549 395.518 69.6053 396.257Q69.0604 396.991 69.0604 398.261Q69.0604 399.526 69.6053 400.265Q70.1549 400.999 71.1016 400.999ZM79.2152 408.092Q77.8945 408.092 77.0587 407.1Q76.2274 406.107 76.2274 404.5Q76.2274 402.893 77.0587 401.9Q77.8945 400.907 79.2152 400.907Q80.559 400.907 81.381 401.9Q82.2076 402.893 82.2076 404.5Q82.2076 406.107 81.381 407.1Q80.559 408.092 79.2152 408.092ZM79.2152 407.243Q80.1619 407.243 80.7114 406.508Q81.261 405.77 81.261 404.5Q81.261 403.234 80.7114 402.495Q80.1619 401.757 79.2152 401.757Q78.2916 401.757 77.7329 402.486Q77.1741 403.216 77.1741 404.5Q77.1741 405.788 77.7329 406.518Q78.2916 407.243 79.2152 407.243Z" fill="#000000" fill-opacity="1.000000" fill-rule="evenodd"/>
	<path id="40%" d="M54.5324 354.518L51.8864 354.518L51.8864 358L50.5241 358L50.5241 354.518L43.0523 354.518L43.0523 353.534L50.0669 344.76L51.5816 344.76L44.8117 353.308L50.561 353.308L50.561 350.247L51.8864 350.247L51.8864 353.308L54.5324 353.308L54.5324 354.518ZM61.0597 358.115Q59.5265 358.115 58.3259 357.303Q57.1252 356.485 56.451 354.966Q55.7814 353.442 55.7814 351.378Q55.7814 349.318 56.451 347.794Q57.1252 346.271 58.3259 345.458Q59.5265 344.645 61.0597 344.645Q62.5928 344.645 63.7935 345.458Q64.9941 346.271 65.673 347.794Q66.3564 349.318 66.3564 351.378Q66.3564 353.442 65.673 354.966Q64.9941 356.485 63.7935 357.303Q62.5928 358.115 61.0597 358.115ZM61.0597 356.864Q62.2141 356.864 63.0915 356.222Q63.9736 355.58 64.4631 354.352Q64.9572 353.119 64.9572 351.378Q64.9572 349.642 64.4631 348.413Q63.9736 347.18 63.0915 346.538Q62.2141 345.896 61.0597 345.896Q59.9052 345.896 59.0232 346.538Q58.1458 347.18 57.6516 348.413Q57.1621 349.642 57.1621 351.378Q57.1621 353.119 57.6516 354.352Q58.1458 355.58 59.0232 356.222Q59.9052 356.864 61.0597 356.864ZM71.1015 351.854Q69.7577 351.854 68.9357 350.861Q68.1138 349.868 68.1138 348.261Q68.1138 346.649 68.9357 345.656Q69.7577 344.663 71.1015 344.663Q72.4269 344.663 73.2581 345.647Q74.0893 346.631 74.0893 348.261Q74.0893 349.886 73.2581 350.87Q72.4269 351.854 71.1015 351.854ZM79.1229 344.76L80.2404 344.76L71.1985 358L70.081 358L79.1229 344.76ZM71.1015 350.999Q72.0298 350.999 72.5885 350.274Q73.1473 349.545 73.1473 348.261Q73.1473 346.972 72.5885 346.247Q72.0298 345.518 71.1015 345.518Q70.1549 345.518 69.6053 346.257Q69.0604 346.991 69.0604 348.261Q69.0604 349.526 69.6053 350.265Q70.1549 350.999 71.1015 350.999ZM79.2152 358.092Q77.8945 358.092 77.0587 357.1Q76.2274 356.107 76.2274 354.5Q76.2274 352.893 77.0587 351.9Q77.8945 350.907 79.2152 350.907Q80.559 350.907 81.381 351.9Q82.2076 352.893 82.2076 354.5Q82.2076 356.107 81.381 357.1Q80.559 358.092 79.2152 358.092ZM79.2152 357.243Q80.1619 357.243 80.7114 356.508Q81.261 355.77 81.261 354.5Q81.261 353.234 80.7114 352.495Q80.1619 351.757 79.2152 351.757Q78.2916 351.757 77.7329 352.486Q77.1741 353.216 77.1741 354.5Q77.1741 355.788 77.7329 356.518Q78.2916 357.243 79.2152 357.243Z" fill="#000000" fill-opacity="1.000000" fill-rule="evenodd"/>
	<path id="50%" d="M48.5574 300.186Q51.4298 300.186 52.7459 301.221Q54.062 302.251 54.062 304.102Q54.062 305.257 53.5217 306.167Q52.9814 307.072 51.9008 307.594Q50.8248 308.115 49.2547 308.115Q47.837 308.115 46.5578 307.654Q45.2833 307.187 44.5075 306.411L45.1679 305.331Q45.8328 306.014 46.9088 306.439Q47.9894 306.864 49.2362 306.864Q50.8802 306.864 51.7807 306.13Q52.6812 305.391 52.6812 304.163Q52.6812 302.8 51.6653 302.098Q50.6539 301.396 48.2526 301.396L45.4357 301.396L46.1145 294.76L53.36 294.76L53.36 295.97L47.306 295.97L46.8534 300.186L48.5574 300.186ZM61.0597 308.115Q59.5265 308.115 58.3259 307.303Q57.1252 306.485 56.451 304.966Q55.7814 303.442 55.7814 301.378Q55.7814 299.318 56.451 297.794Q57.1252 296.271 58.3259 295.458Q59.5265 294.645 61.0597 294.645Q62.5928 294.645 63.7935 295.458Q64.9941 296.271 65.673 297.794Q66.3564 299.318 66.3564 301.378Q66.3564 303.442 65.673 304.966Q64.9941 306.485 63.7935 307.303Q62.5928 308.115 61.0597 308.115ZM61.0597 306.864Q62.2141 306.864 63.0915 306.222Q63.9736 305.58 64.4631 304.352Q64.9572 303.119 64.9572 301.378Q64.9572 299.642 64.4631 298.413Q63.9736 297.18 63.0915 296.538Q62.2141 295.896 61.0597 295.896Q59.9052 295.896 59.0232 296.538Q58.1458 297.18 57.6516 298.413Q57.1621 299.642 57.1621 301.378Q57.1621 303.119 57.6516 304.352Q58.1458 305.58 59.0232 306.222Q59.9052 306.864 61.0597 306.864ZM71.1016 301.854Q69.7577 301.854 68.9358 300.861Q68.1138 299.868 68.1138 298.261Q68.1138 296.649 68.9358 295.656Q69.7577 294.663 71.1016 294.663Q72.4269 294.663 73.2581 295.647Q74.0893 296.631 74.0893 298.261Q74.0893 299.886 73.2581 300.87Q72.4269 301.854 71.1016 301.854ZM79.1229 294.76L80.2404 294.76L71.1985 308L70.081 308L79.1229 294.76ZM71.1016 300.999Q72.0298 300.999 72.5885 300.274Q73.1473 299.545 73.1473 298.261Q73.1473 296.972 72.5885 296.247Q72.0298 295.518 71.1016 295.518Q70.1549 295.518 69.6053 296.257Q69.0604 296.991 69.0604 298.261Q69.0604 299.526 69.6053 300.265Q70.1549 300.999 71.1016 300.999ZM79.2152 308.092Q77.8945 308.092 77.0587 307.1Q76.2274 306.107 76.2274 304.5Q76.2274 302.893 77.0587 301.9Q77.8945 300.907 79.2152 300.907Q80.559 300.907 81.381 301.9Q82.2076 302.893 82.2076 304.5Q82.2076 306.107 81.381 307.1Q80.559 308.092 79.2152 308.092ZM79.2152 307.243Q80.1619 307.243 80.7114 306.508Q81.261 305.77 81.261 304.5Q81.261 303.234 80.7114 302.495Q80.1619 301.757 79.2152 301.757Q78.2916 301.757 77.7329 302.486Q77.1741 303.216 77.1741 304.5Q77.1741 305.788 77.7329 306.518Q78.2916 307.243 79.2152 307.243Z" fill="#000000" fill-opacity="1.000000" fill-rule="evenodd"/>
	<path id="60%" d="M49.7482 250.076Q51.0505 250.076 52.0618 250.57Q53.0778 251.059 53.6411 251.96Q54.2091 252.856 54.2091 254.047Q54.2091 255.257 53.6227 256.185Q53.0408 257.109 52.0064 257.612Q50.9766 258.115 49.6928 258.115Q47.0606 258.115 45.6614 256.384Q44.2622 254.652 44.2622 251.493Q44.2622 249.281 45.0195 247.748Q45.7768 246.215 47.1345 245.43Q48.4968 244.645 50.3162 244.645Q52.2835 244.645 53.4564 245.365L52.9069 246.46Q51.9602 245.836 50.3347 245.836Q48.1412 245.836 46.8898 247.226Q45.6429 248.616 45.6429 251.267Q45.6429 251.738 45.6983 252.343Q46.1924 251.267 47.2684 250.671Q48.349 250.076 49.7482 250.076ZM49.6328 256.961Q51.0736 256.961 51.9695 256.176Q52.8699 255.391 52.8699 254.084Q52.8699 252.782 51.9695 252.006Q51.0736 251.23 49.5404 251.23Q48.5383 251.23 47.7718 251.609Q47.0052 251.983 46.5665 252.648Q46.1324 253.308 46.1324 254.121Q46.1324 254.878 46.5388 255.525Q46.9498 256.167 47.7441 256.564Q48.5383 256.961 49.6328 256.961ZM61.0597 258.115Q59.5265 258.115 58.3259 257.303Q57.1252 256.485 56.451 254.966Q55.7814 253.442 55.7814 251.378Q55.7814 249.318 56.451 247.794Q57.1252 246.27 58.3259 245.458Q59.5265 244.645 61.0597 244.645Q62.5928 244.645 63.7935 245.458Q64.9941 246.27 65.673 247.794Q66.3564 249.318 66.3564 251.378Q66.3564 253.442 65.673 254.966Q64.9941 256.485 63.7935 257.303Q62.5928 258.115 61.0597 258.115ZM61.0597 256.864Q62.2141 256.864 63.0915 256.222Q63.9736 255.58 64.4631 254.352Q64.9572 253.119 64.9572 251.378Q64.9572 249.642 64.4631 248.413Q63.9736 247.18 63.0915 246.538Q62.2141 245.896 61.0597 245.896Q59.9052 245.896 59.0232 246.538Q58.1458 247.18 57.6516 248.413Q57.1621 249.642 57.1621 251.378Q57.1621 253.119 57.6516 254.352Q58.1458 255.58 59.0232 256.222Q59.9052 256.864 61.0597 256.864ZM71.1016 251.854Q69.7577 251.854 68.9358 250.861Q68.1138 249.868 68.1138 248.261Q68.1138 246.649 68.9358 245.656Q69.7577 244.663 71.1016 244.663Q72.4269 244.663 73.2581 245.647Q74.0893 246.631 74.0893 248.261Q74.0893 249.886 73.2581 250.87Q72.4269 251.854 71.1016 251.854ZM79.1229 244.76L80.2404 244.76L71.1985 258L70.081 258L79.1229 244.76ZM71.1016 250.999Q72.0298 250.999 72.5885 250.274Q73.1473 249.545 73.1473 248.261Q73.1473 246.972 72.5885 246.247Q72.0298 245.518 71.1016 245.518Q70.1549 245.518 69.6053 246.257Q69.0604 246.991 69.0604 248.261Q69.0604 249.526 69.6053 250.265Q70.1549 250.999 71.1016 250.999ZM79.2152 258.092Q77.8945 258.092 77.0587 257.1Q76.2274 256.107 76.2274 254.5Q76.2274 252.893 77.0587 251.9Q77.8945 250.907 79.2152 250.907Q80.559 250.907 81.381 251.9Q82.2076 252.893 82.2076 254.5Q82.2076 256.107 81.381 257.1Q80.559 258.092 79.2152 258.092ZM79.2152 257.243Q80.1619 257.243 80.7114 256.508Q81.261 255.77 81.261 254.5Q81.261 253.234 80.7114 252.495Q80.1619 251.757 79.2152 251.757Q78.2916 251.757 77.7329 252.486Q77.1741 253.216 77.1741 254.5Q77.1741 255.788 77.7329 256.518Q78.2916 257.243 79.2152 257.243Z" fill="#000000" fill-opacity="1.000000" fill-rule="evenodd"/>
	<path id="70%" d="M54.3608 194.76L54.3608 195.726L48.8193 208L47.3462 208L52.7907 195.97L45.9839 195.97L45.9839 198.45L44.6401 198.45L44.6401 194.76L54.3608 194.76ZM61.0597 208.115Q59.5265 208.115 58.3259 207.303Q57.1252 206.485 56.451 204.966Q55.7814 203.442 55.7814 201.378Q55.7814 199.318 56.451 197.794Q57.1252 196.27 58.3259 195.458Q59.5265 194.645 61.0597 194.645Q62.5928 194.645 63.7935 195.458Q64.9941 196.27 65.673 197.794Q66.3564 199.318 66.3564 201.378Q66.3564 203.442 65.673 204.966Q64.9941 206.485 63.7935 207.303Q62.5928 208.115 61.0597 208.115ZM61.0597 206.864Q62.2141 206.864 63.0915 206.222Q63.9736 205.58 64.4631 204.352Q64.9572 203.119 64.9572 201.378Q64.9572 199.642 64.4631 198.413Q63.9736 197.18 63.0915 196.538Q62.2141 195.896 61.0597 195.896Q59.9052 195.896 59.0232 196.538Q58.1458 197.18 57.6516 198.413Q57.1621 199.642 57.1621 201.378Q57.1621 203.119 57.6516 204.352Q58.1458 205.58 59.0232 206.222Q59.9052 206.864 61.0597 206.864ZM71.1016 201.854Q69.7577 201.854 68.9358 200.861Q68.1138 199.868 68.1138 198.261Q68.1138 196.649 68.9358 195.656Q69.7577 194.663 71.1016 194.663Q72.4269 194.663 73.2581 195.647Q74.0893 196.631 74.0893 198.261Q74.0893 199.886 73.2581 200.87Q72.4269 201.854 71.1016 201.854ZM79.1229 194.76L80.2404 194.76L71.1985 208L70.081 208L79.1229 194.76ZM71.1016 200.999Q72.0298 200.999 72.5885 200.274Q73.1473 199.545 73.1473 198.261Q73.1473 196.972 72.5885 196.247Q72.0298 195.518 71.1016 195.518Q70.1549 195.518 69.6053 196.257Q69.0604 196.991 69.0604 198.261Q69.0604 199.526 69.6053 200.265Q70.1549 200.999 71.1016 200.999ZM79.2152 208.092Q77.8945 208.092 77.0587 207.1Q76.2274 206.107 76.2274 204.5Q76.2274 202.893 77.0587 201.9Q77.8945 200.907 79.2152 200.907Q80.559 200.907 81.381 201.9Q82.2076 202.893 82.2076 204.5Q82.2076 206.107 81.381 207.1Q80.559 208.092 79.2152 208.092ZM79.2152 207.243Q80.1619 207.243 80.7114 206.508Q81.261 205.77 81.261 204.5Q81.261 203.234 80.7114 202.495Q80.1619 201.757 79.2152 201.757Q78.2916 201.757 77.7329 202.486Q77.1741 203.216 77.1741 204.5Q77.1741 205.788 77.7329 206.518Q78.2916 207.243 79.2152 207.243Z" fill="#000000" fill-opacity="1.000000" fill-rule="evenodd"/>
	<path id="80%" d="M51.2962 151.059Q52.5477 151.475 53.2173 152.306Q53.8915 153.137 53.8915 154.31Q53.8915 155.465 53.2635 156.328Q52.6401 157.187 51.4763 157.654Q50.3126 158.115 48.7472 158.115Q46.3597 158.115 44.9974 157.095Q43.6397 156.07 43.6397 154.31Q43.6397 153.119 44.2909 152.297Q44.942 151.475 46.1934 151.059Q45.1683 150.662 44.6372 149.914Q44.1108 149.166 44.1108 148.145Q44.1108 146.538 45.3668 145.592Q46.6275 144.645 48.7472 144.645Q50.1464 144.645 51.1946 145.074Q52.2429 145.499 52.8294 146.294Q53.4159 147.088 53.4159 148.145Q53.4159 149.166 52.8663 149.914Q52.3214 150.662 51.2962 151.059ZM45.473 148.182Q45.473 149.281 46.3412 149.923Q47.214 150.565 48.7472 150.565Q50.2757 150.565 51.1531 149.923Q52.0351 149.281 52.0351 148.201Q52.0351 147.088 51.1346 146.446Q50.2387 145.799 48.7472 145.799Q47.2325 145.799 46.3505 146.446Q45.473 147.088 45.473 148.182ZM48.7472 156.961Q50.502 156.961 51.4948 156.241Q52.4923 155.52 52.4923 154.292Q52.4923 153.063 51.4948 152.357Q50.502 151.646 48.7472 151.646Q47.0062 151.646 46.0133 152.357Q45.0205 153.063 45.0205 154.292Q45.0205 155.543 46.0041 156.254Q46.9877 156.961 48.7472 156.961ZM61.0597 158.115Q59.5265 158.115 58.3259 157.303Q57.1252 156.485 56.451 154.966Q55.7814 153.442 55.7814 151.378Q55.7814 149.318 56.451 147.794Q57.1252 146.27 58.3259 145.458Q59.5265 144.645 61.0597 144.645Q62.5928 144.645 63.7935 145.458Q64.9941 146.27 65.673 147.794Q66.3564 149.318 66.3564 151.378Q66.3564 153.442 65.673 154.966Q64.9941 156.485 63.7935 157.303Q62.5928 158.115 61.0597 158.115ZM61.0597 156.864Q62.2141 156.864 63.0915 156.222Q63.9736 155.58 64.4631 154.352Q64.9572 153.119 64.9572 151.378Q64.9572 149.642 64.4631 148.413Q63.9736 147.18 63.0915 146.538Q62.2141 145.896 61.0597 145.896Q59.9052 145.896 59.0232 146.538Q58.1458 147.18 57.6516 148.413Q57.1621 149.642 57.1621 151.378Q57.1621 153.119 57.6516 154.352Q58.1458 155.58 59.0232 156.222Q59.9052 156.864 61.0597 156.864ZM71.1016 151.854Q69.7577 151.854 68.9358 150.861Q68.1138 149.868 68.1138 148.261Q68.1138 146.649 68.9358 145.656Q69.7577 144.663 71.1016 144.663Q72.4269 144.663 73.2581 145.647Q74.0893 146.631 74.0893 148.261Q74.0893 149.886 73.2581 150.87Q72.4269 151.854 71.1016 151.854ZM79.1229 144.76L80.2404 144.76L71.1985 158L70.081 158L79.1229 144.76ZM71.1016 150.999Q72.0298 150.999 72.5885 150.274Q73.1473 149.545 73.1473 148.261Q73.1473 146.972 72.5885 146.247Q72.0298 145.518 71.1016 145.518Q70.1549 145.518 69.6053 146.257Q69.0604 146.991 69.0604 148.261Q69.0604 149.526 69.6053 150.265Q70.1549 150.999 71.1016 150.999ZM79.2152 158.092Q77.8945 158.092 77.0587 157.1Q76.2274 156.107 76.2274 154.5Q76.2274 152.893 77.0587 151.9Q77.8945 150.907 79.2152 150.907Q80.559 150.907 81.381 151.9Q82.2076 152.893 82.2076 154.5Q82.2076 156.107 81.381 157.1Q80.559 158.092 79.2152 158.092ZM79.2152 157.243Q80.1619 157.243 80.7114 156.508Q81.261 155.77 81.261 154.5Q81.261 153.234 80.7114 152.495Q80.1619 151.757 79.2152 151.757Q78.2916 151.757 77.7329 152.486Q77.1741 153.216 77.1741 154.5Q77.1741 155.788 77.7329 156.518Q78.2916 157.243 79.2152 157.243Z" fill="#000000" fill-opacity="1.000000" fill-rule="evenodd"/>
	<path id="90%" d="M48.386 94.645Q51.0135 94.645 52.4128 96.3767Q53.812 98.1084 53.812 101.267Q53.812 103.479 53.0547 105.012Q52.3019 106.545 50.9397 107.33Q49.5774 108.115 47.7625 108.115Q45.7953 108.115 44.6224 107.395L45.1719 106.296Q46.1139 106.924 47.7441 106.924Q49.9376 106.924 51.1844 105.534Q52.4312 104.139 52.4312 101.493Q52.4312 100.999 52.3758 100.417Q51.8863 101.493 50.8057 102.089Q49.7298 102.685 48.3305 102.685Q47.0237 102.685 46.0123 102.195Q45.001 101.701 44.433 100.805Q43.865 99.9048 43.865 98.7134Q43.865 97.5035 44.4515 96.5753Q45.038 95.6471 46.0678 95.1483Q47.0976 94.645 48.386 94.645ZM48.5383 101.53Q49.5404 101.53 50.307 101.152Q51.0736 100.773 51.5077 100.113Q51.9417 99.4522 51.9417 98.6349Q51.9417 97.8821 51.5354 97.2403Q51.129 96.5938 50.3347 96.1966Q49.5404 95.7995 48.4414 95.7995Q47.0052 95.7995 46.1047 96.5845Q45.2088 97.3696 45.2088 98.6764Q45.2088 99.9787 46.1047 100.754Q47.0052 101.53 48.5383 101.53ZM61.0597 108.115Q59.5265 108.115 58.3259 107.303Q57.1252 106.485 56.451 104.966Q55.7814 103.442 55.7814 101.378Q55.7814 99.3183 56.451 97.7944Q57.1252 96.2705 58.3259 95.4577Q59.5265 94.645 61.0597 94.645Q62.5928 94.645 63.7935 95.4577Q64.9941 96.2705 65.673 97.7944Q66.3564 99.3183 66.3564 101.378Q66.3564 103.442 65.673 104.966Q64.9941 106.485 63.7935 107.303Q62.5928 108.115 61.0597 108.115ZM61.0597 106.864Q62.2141 106.864 63.0915 106.222Q63.9736 105.58 64.4631 104.352Q64.9572 103.119 64.9572 101.378Q64.9572 99.6416 64.4631 98.4132Q63.9736 97.1802 63.0915 96.5383Q62.2141 95.8964 61.0597 95.8964Q59.9052 95.8964 59.0232 96.5383Q58.1458 97.1802 57.6516 98.4132Q57.1621 99.6416 57.1621 101.378Q57.1621 103.119 57.6516 104.352Q58.1458 105.58 59.0232 106.222Q59.9052 106.864 61.0597 106.864ZM71.1016 101.854Q69.7577 101.854 68.9358 100.861Q68.1138 99.8679 68.1138 98.2608Q68.1138 96.6492 68.9358 95.6563Q69.7577 94.6635 71.1016 94.6635Q72.4269 94.6635 73.2581 95.6471Q74.0893 96.6307 74.0893 98.2608Q74.0893 99.8863 73.2581 100.87Q72.4269 101.854 71.1016 101.854ZM79.1229 94.7604L80.2404 94.7604L71.1985 108L70.081 108L79.1229 94.7604ZM71.1016 100.999Q72.0298 100.999 72.5885 100.274Q73.1473 99.5446 73.1473 98.2608Q73.1473 96.9724 72.5885 96.2474Q72.0298 95.5178 71.1016 95.5178Q70.1549 95.5178 69.6053 96.2566Q69.0604 96.9909 69.0604 98.2608Q69.0604 99.5261 69.6053 100.265Q70.1549 100.999 71.1016 100.999ZM79.2152 108.092Q77.8945 108.092 77.0587 107.1Q76.2274 106.107 76.2274 104.5Q76.2274 102.893 77.0587 101.9Q77.8945 100.907 79.2152 100.907Q80.559 100.907 81.381 101.9Q82.2076 102.893 82.2076 104.5Q82.2076 106.107 81.381 107.1Q80.559 108.092 79.2152 108.092ZM79.2152 107.243Q80.1619 107.243 80.7114 106.508Q81.261 105.77 81.261 104.5Q81.261 103.234 80.7114 102.495Q80.1619 101.757 79.2152 101.757Q78.2916 101.757 77.7329 102.486Q77.1741 103.216 77.1741 104.5Q77.1741 105.788 77.7329 106.518Q78.2916 107.243 79.2152 107.243Z" fill="#000000" fill-opacity="1.000000" fill-rule="evenodd"/>
	<path id="100%" d="M40.1026 44.7604L40.1026 58L38.7403 58L38.7403 45.9703L35.6186 45.9703L35.6186 44.7604L40.1026 44.7604ZM48.5379 58.1154Q47.0048 58.1154 45.8041 57.3027Q44.6035 56.4853 43.9293 54.966Q43.2597 53.4421 43.2597 51.3779Q43.2597 49.3183 43.9293 47.7944Q44.6035 46.2705 45.8041 45.4577Q47.0048 44.645 48.5379 44.645Q50.0711 44.645 51.2717 45.4577Q52.4724 46.2705 53.1512 47.7944Q53.8347 49.3183 53.8347 51.3779Q53.8347 53.4421 53.1512 54.966Q52.4724 56.4853 51.2717 57.3027Q50.0711 58.1154 48.5379 58.1154ZM48.5379 56.864Q49.6924 56.864 50.5698 56.2221Q51.4518 55.5802 51.9413 54.3518Q52.4355 53.1189 52.4355 51.3779Q52.4355 49.6416 51.9413 48.4132Q51.4518 47.1802 50.5698 46.5383Q49.6924 45.8964 48.5379 45.8964Q47.3835 45.8964 46.5014 46.5383Q45.624 47.1802 45.1299 48.4132Q44.6404 49.6416 44.6404 51.3779Q44.6404 53.1189 45.1299 54.3518Q45.624 55.5802 46.5014 56.2221Q47.3835 56.864 48.5379 56.864ZM61.0597 58.1154Q59.5265 58.1154 58.3259 57.3027Q57.1252 56.4853 56.451 54.966Q55.7814 53.4421 55.7814 51.3779Q55.7814 49.3183 56.451 47.7944Q57.1252 46.2705 58.3259 45.4577Q59.5265 44.645 61.0597 44.645Q62.5928 44.645 63.7935 45.4577Q64.9941 46.2705 65.673 47.7944Q66.3564 49.3183 66.3564 51.3779Q66.3564 53.4421 65.673 54.966Q64.9941 56.4853 63.7935 57.3027Q62.5928 58.1154 61.0597 58.1154ZM61.0597 56.864Q62.2141 56.864 63.0915 56.2221Q63.9736 55.5802 64.4631 54.3518Q64.9572 53.1189 64.9572 51.3779Q64.9572 49.6416 64.4631 48.4132Q63.9736 47.1802 63.0915 46.5383Q62.2141 45.8964 61.0597 45.8964Q59.9052 45.8964 59.0232 46.5383Q58.1458 47.1802 57.6516 48.4132Q57.1621 49.6416 57.1621 51.3779Q57.1621 53.1189 57.6516 54.3518Q58.1458 55.5802 59.0232 56.2221Q59.9052 56.864 61.0597 56.864ZM71.1016 51.8536Q69.7577 51.8536 68.9358 50.8607Q68.1138 49.8679 68.1138 48.2608Q68.1138 46.6492 68.9358 45.6563Q69.7577 44.6635 71.1016 44.6635Q72.4269 44.6635 73.2581 45.6471Q74.0893 46.6307 74.0893 48.2608Q74.0893 49.8863 73.2581 50.8699Q72.4269 51.8536 71.1016 51.8536ZM79.1229 44.7604L80.2404 44.7604L71.1985 58L70.081 58L79.1229 44.7604ZM71.1016 50.9992Q72.0298 50.9992 72.5885 50.2742Q73.1473 49.5446 73.1473 48.2608Q73.1473 46.9724 72.5885 46.2474Q72.0298 45.5178 71.1016 45.5178Q70.1549 45.5178 69.6053 46.2566Q69.0604 46.9909 69.0604 48.2608Q69.0604 49.5261 69.6053 50.265Q70.1549 50.9992 71.1016 50.9992ZM79.2152 58.0924Q77.8945 58.0924 77.0587 57.0995Q76.2274 56.1067 76.2274 54.4996Q76.2274 52.8926 77.0587 51.8997Q77.8945 50.9069 79.2152 50.9069Q80.559 50.9069 81.381 51.8997Q82.2076 52.8926 82.2076 54.4996Q82.2076 56.1067 81.381 57.0995Q80.559 58.0924 79.2152 58.0924ZM79.2152 57.2427Q80.1619 57.2427 80.7114 56.5084Q81.261 55.7695 81.261 54.4996Q81.261 53.2343 80.7114 52.4954Q80.1619 51.7566 79.2152 51.7566Q78.2916 51.7566 77.7329 52.4862Q77.1741 53.2158 77.1741 54.4996Q77.1741 55.788 77.7329 56.5176Q78.2916 57.2427 79.2152 57.2427Z" fill="#000000" fill-opacity="1.000000" fill-rule="evenodd"/>
	<path id="image 9 (Traced)" d="M412.08 591.151C411.415 591.396 410.907 592.222 411.015 592.884C411.131 593.601 411.317 593.814 415.566 598.095C421.155 603.724 421.155 602.367 415.566 607.996C412.454 611.131 411.372 612.27 411.237 612.554C410.462 614.197 411.896 615.574 413.534 614.758C414.134 614.459 424.075 604.485 424.359 603.897C424.995 602.581 425.077 602.691 419.019 596.625C413.119 590.717 413.164 590.753 412.08 591.151ZM422.272 591.404C421.541 591.843 421.293 592.771 421.686 593.602C421.829 593.906 422.813 594.945 425.981 598.135C431.522 603.717 431.528 602.368 425.94 607.996C422.828 611.131 421.746 612.27 421.611 612.554C420.835 614.197 422.271 615.574 423.908 614.758C424.527 614.449 434.382 604.568 434.692 603.945C435.37 602.583 435.426 602.661 429.477 596.703C423.523 590.742 423.457 590.693 422.272 591.404Z" fill="url(#paint_linear_76_3302_0)" fill-opacity="1.000000" fill-rule="evenodd"/>
	<path id="image 9 (Traced)" d="M715.08 591.151C714.415 591.396 713.907 592.222 714.015 592.884C714.131 593.601 714.317 593.814 718.566 598.095C724.155 603.724 724.155 602.367 718.566 607.996C715.454 611.131 714.372 612.27 714.237 612.554C713.462 614.197 714.896 615.574 716.534 614.758C717.134 614.459 727.075 604.485 727.359 603.897C727.995 602.581 728.077 602.691 722.019 596.625C716.119 590.717 716.164 590.753 715.08 591.151ZM725.272 591.404C724.541 591.843 724.293 592.771 724.686 593.602C724.829 593.906 725.813 594.945 728.981 598.135C734.522 603.717 734.528 602.368 728.94 607.996C725.828 611.131 724.746 612.27 724.611 612.554C723.835 614.197 725.271 615.574 726.908 614.758C727.527 614.449 737.382 604.568 737.692 603.945C738.37 602.583 738.426 602.661 732.477 596.703C726.523 590.742 726.457 590.693 725.272 591.404Z" fill="url(#paint_linear_76_3303_0)" fill-opacity="1.000000" fill-rule="evenodd"/>
	<path id="image 9 (Traced)" d="M1024.08 591.151C1023.42 591.396 1022.91 592.222 1023.01 592.884C1023.13 593.601 1023.32 593.814 1027.57 598.095C1033.16 603.724 1033.16 602.367 1027.57 607.996C1024.45 611.131 1023.37 612.27 1023.24 612.554C1022.46 614.197 1023.9 615.574 1025.53 614.758C1026.13 614.459 1036.08 604.485 1036.36 603.897C1037 602.581 1037.08 602.691 1031.02 596.625C1025.12 590.717 1025.16 590.753 1024.08 591.151ZM1034.27 591.404C1033.54 591.843 1033.29 592.771 1033.69 593.602C1033.83 593.906 1034.81 594.945 1037.98 598.135C1043.52 603.717 1043.53 602.368 1037.94 607.996C1034.83 611.131 1033.75 612.27 1033.61 612.554C1032.83 614.197 1034.27 615.574 1035.91 614.758C1036.53 614.449 1046.38 604.568 1046.69 603.945C1047.37 602.583 1047.43 602.661 1041.48 596.703C1035.52 590.742 1035.46 590.693 1034.27 591.404Z" fill="url(#paint_linear_76_3304_0)" fill-opacity="1.000000" fill-rule="evenodd"/>
	<path id="До лікування" d="M241.276 711.393L241.276 718.592L238.493 718.592L238.493 714L221.208 714L221.179 718.592L218.388 718.592L218.417 711.393L219.443 711.393Q221.42 711.268 222.226 708.258Q223.039 705.24 223.222 699.747L223.427 693.001L238.193 693.001L238.193 711.393L241.276 711.393ZM225.859 700.018Q225.712 704.457 225.156 707.372Q224.599 710.279 223.369 711.393L235.219 711.393L235.219 695.609L226.013 695.609L225.859 700.018ZM251.362 714.183Q248.989 714.183 247.099 713.136Q245.21 712.081 244.14 710.235Q243.078 708.39 243.078 706.053Q243.078 703.709 244.14 701.864Q245.21 700.018 247.099 698.985Q248.989 697.953 251.362 697.953Q253.728 697.953 255.603 698.985Q257.478 700.018 258.54 701.864Q259.609 703.709 259.609 706.053Q259.609 708.39 258.54 710.235Q257.478 712.081 255.603 713.136Q253.728 714.183 251.362 714.183ZM251.362 711.664Q252.885 711.664 254.101 710.96Q255.317 710.25 256.006 708.976Q256.701 707.701 256.701 706.053Q256.701 704.398 256.006 703.124Q255.317 701.849 254.101 701.161Q252.885 700.472 251.362 700.472Q249.831 700.472 248.615 701.161Q247.4 701.849 246.689 703.124Q245.986 704.398 245.986 706.053Q245.986 707.701 246.689 708.976Q247.4 710.25 248.615 710.96Q249.831 711.664 251.362 711.664ZM285.503 698.099L285.503 714L282.617 714L282.617 700.619L275.784 700.619L275.601 704.164Q275.447 707.372 275.029 709.518Q274.612 711.664 273.652 712.953Q272.693 714.242 270.979 714.242Q270.203 714.242 269.206 713.971L269.39 711.539Q269.778 711.627 270.107 711.627Q271.309 711.627 271.909 710.58Q272.51 709.532 272.685 708.089Q272.869 706.646 273.022 703.98L273.293 698.099L285.503 698.099ZM291.081 698.099L293.959 698.099L293.959 714L291.081 714L291.081 698.099ZM292.516 695.038Q291.681 695.038 291.124 694.503Q290.568 693.961 290.568 693.177Q290.568 692.401 291.124 691.844Q291.681 691.288 292.516 691.288Q293.358 691.288 293.908 691.815Q294.464 692.342 294.464 693.119Q294.464 693.932 293.908 694.488Q293.358 695.038 292.516 695.038ZM305.752 707.276L302.449 707.276L302.449 714L299.571 714L299.571 698.099L302.449 698.099L302.449 704.823L305.811 704.823L310.967 698.099L314.058 698.099L308.03 705.753L314.483 714L311.092 714L305.752 707.276ZM330.805 698.099L323.092 715.589Q322.074 718.021 320.705 719.01Q319.342 719.999 317.424 719.999Q316.252 719.999 315.153 719.625Q314.062 719.251 313.344 718.526L314.574 716.373Q315.805 717.538 317.424 717.538Q318.471 717.538 319.174 716.981Q319.884 716.432 320.456 715.077L320.961 713.971L313.945 698.099L316.94 698.099L322.492 710.821L327.985 698.099L330.805 698.099ZM344.573 705.753Q347.657 706.529 347.657 709.62Q347.657 711.722 346.082 712.865Q344.507 714 341.387 714L333.741 714L333.741 698.099L341.123 698.099Q343.943 698.099 345.533 699.168Q347.122 700.23 347.122 702.179Q347.122 703.438 346.441 704.354Q345.767 705.27 344.573 705.753ZM336.56 704.94L340.882 704.94Q342.53 704.94 343.387 704.339Q344.243 703.739 344.243 702.604Q344.243 700.318 340.882 700.318L336.56 700.318L336.56 704.94ZM341.182 711.781Q342.976 711.781 343.877 711.209Q344.778 710.638 344.778 709.437Q344.778 708.207 343.95 707.613Q343.13 707.013 341.358 707.013L336.56 707.013L336.56 711.781L341.182 711.781ZM357.829 697.953Q361.133 697.953 362.883 699.571Q364.641 701.19 364.641 704.398L364.641 714L361.909 714L361.909 711.898Q361.191 713.011 359.851 713.597Q358.518 714.183 356.694 714.183Q354.021 714.183 352.417 712.894Q350.813 711.598 350.813 709.503Q350.813 707.401 352.344 706.126Q353.874 704.852 357.2 704.852L361.763 704.852L361.763 704.281Q361.763 702.42 360.679 701.432Q359.602 700.443 357.5 700.443Q356.094 700.443 354.739 700.912Q353.391 701.373 352.461 702.149L351.26 699.989Q352.49 699 354.197 698.48Q355.911 697.953 357.829 697.953ZM357.17 711.957Q358.818 711.957 360.019 711.224Q361.221 710.492 361.763 709.137L361.763 706.917L357.324 706.917Q353.662 706.917 353.662 709.378Q353.662 710.58 354.592 711.268Q355.522 711.957 357.17 711.957ZM369.831 698.099L372.709 698.099L372.709 704.852L381.769 704.852L381.769 698.099L384.647 698.099L384.647 714L381.769 714L381.769 707.342L372.709 707.342L372.709 714L369.831 714L369.831 698.099ZM390.261 698.099L393.139 698.099L393.139 704.852L402.199 704.852L402.199 698.099L405.077 698.099L405.077 714L402.199 714L402.199 707.342L393.139 707.342L393.139 714L390.261 714L390.261 698.099ZM423.442 698.099L423.442 714L420.857 714L420.857 708.961L416.242 708.961L415.913 708.961L412.426 714L409.343 714L413.21 708.573Q411.408 708.031 410.449 706.786Q409.489 705.541 409.489 703.68Q409.489 700.948 411.35 699.527Q413.21 698.099 416.477 698.099L423.442 698.099ZM412.426 703.768Q412.426 705.357 413.43 706.126Q414.441 706.888 416.447 706.888L420.857 706.888L420.857 700.619L416.572 700.619Q412.426 700.619 412.426 703.768Z" fill="#000000" fill-opacity="1.000000" fill-rule="evenodd"/>
	<rect id="Rectangle 26" x="152.000000" y="678.000000" rx="12.000000" width="46.000000" height="46.000000" fill="url(#paint_linear_76_3308_0)" fill-opacity="1.000000"/>
	<path id="Після лікування" d="M608.357 693.001L608.357 714L605.42 714L605.42 695.609L593.24 695.609L593.24 714L590.267 714L590.267 693.001L608.357 693.001ZM614.421 698.099L617.299 698.099L617.299 714L614.421 714L614.421 698.099ZM615.856 695.038Q615.021 695.038 614.464 694.503Q613.908 693.961 613.908 693.177Q613.908 692.401 614.464 691.844Q615.021 691.288 615.856 691.288Q616.698 691.288 617.248 691.815Q617.804 692.342 617.804 693.119Q617.804 693.932 617.248 694.488Q616.698 695.038 615.856 695.038ZM629.839 714.183Q627.408 714.183 625.503 713.136Q623.599 712.081 622.515 710.235Q621.438 708.39 621.438 706.053Q621.438 703.709 622.515 701.864Q623.599 700.018 625.503 698.985Q627.408 697.953 629.839 697.953Q632 697.953 633.692 698.824Q635.391 699.688 636.321 701.336L634.131 702.75Q633.377 701.607 632.264 701.043Q631.158 700.472 629.81 700.472Q628.25 700.472 627.005 701.161Q625.76 701.849 625.049 703.124Q624.346 704.398 624.346 706.053Q624.346 707.73 625.049 709.005Q625.76 710.279 627.005 710.975Q628.25 711.664 629.81 711.664Q631.158 711.664 632.264 711.092Q633.377 710.521 634.131 709.378L636.321 710.763Q635.391 712.411 633.692 713.297Q632 714.183 629.839 714.183ZM653.213 698.099L653.213 714L650.327 714L650.327 700.619L643.494 700.619L643.311 704.164Q643.157 707.372 642.739 709.518Q642.322 711.664 641.362 712.953Q640.403 714.242 638.689 714.242Q637.913 714.242 636.917 713.971L637.1 711.539Q637.488 711.627 637.817 711.627Q639.019 711.627 639.619 710.58Q640.22 709.532 640.396 708.089Q640.579 706.646 640.732 703.98L641.003 698.099L653.213 698.099ZM671.542 698.099L671.542 714L668.957 714L668.957 708.961L664.342 708.961L664.013 708.961L660.526 714L657.443 714L661.31 708.573Q659.508 708.031 658.549 706.786Q657.589 705.541 657.589 703.68Q657.589 700.948 659.45 699.527Q661.31 698.099 664.577 698.099L671.542 698.099ZM660.526 703.768Q660.526 705.357 661.53 706.126Q662.541 706.888 664.547 706.888L668.957 706.888L668.957 700.619L664.672 700.619Q660.526 700.619 660.526 703.768ZM698.873 698.099L698.873 714L695.987 714L695.987 700.619L689.154 700.619L688.971 704.164Q688.817 707.372 688.399 709.518Q687.982 711.664 687.022 712.953Q686.063 714.242 684.349 714.242Q683.573 714.242 682.576 713.971L682.76 711.539Q683.148 711.627 683.477 711.627Q684.679 711.627 685.279 710.58Q685.88 709.532 686.055 708.089Q686.239 706.646 686.392 703.98L686.663 698.099L698.873 698.099ZM704.451 698.099L707.329 698.099L707.329 714L704.451 714L704.451 698.099ZM705.886 695.038Q705.051 695.038 704.495 694.503Q703.938 693.961 703.938 693.177Q703.938 692.401 704.495 691.844Q705.051 691.288 705.886 691.288Q706.728 691.288 707.278 691.815Q707.834 692.342 707.834 693.119Q707.834 693.932 707.278 694.488Q706.728 695.038 705.886 695.038ZM719.122 707.276L715.819 707.276L715.819 714L712.941 714L712.941 698.099L715.819 698.099L715.819 704.823L719.181 704.823L724.337 698.099L727.428 698.099L721.4 705.753L727.853 714L724.462 714L719.122 707.276ZM744.175 698.099L736.462 715.589Q735.444 718.021 734.075 719.01Q732.712 719.999 730.794 719.999Q729.622 719.999 728.523 719.625Q727.432 719.251 726.714 718.526L727.944 716.373Q729.175 717.538 730.794 717.538Q731.841 717.538 732.544 716.981Q733.254 716.432 733.826 715.077L734.331 713.971L727.315 698.099L730.31 698.099L735.862 710.821L741.355 698.099L744.175 698.099ZM757.943 705.753Q761.027 706.529 761.027 709.62Q761.027 711.722 759.452 712.865Q757.877 714 754.757 714L747.111 714L747.111 698.099L754.493 698.099Q757.313 698.099 758.903 699.168Q760.492 700.23 760.492 702.179Q760.492 703.438 759.811 704.354Q759.137 705.27 757.943 705.753ZM749.93 704.94L754.252 704.94Q755.9 704.94 756.757 704.339Q757.613 703.739 757.613 702.604Q757.613 700.318 754.252 700.318L749.93 700.318L749.93 704.94ZM754.552 711.781Q756.346 711.781 757.247 711.209Q758.148 710.638 758.148 709.437Q758.148 708.207 757.32 707.613Q756.5 707.013 754.728 707.013L749.93 707.013L749.93 711.781L754.552 711.781ZM771.199 697.953Q774.503 697.953 776.253 699.571Q778.011 701.19 778.011 704.398L778.011 714L775.279 714L775.279 711.898Q774.561 713.011 773.221 713.597Q771.888 714.183 770.064 714.183Q767.391 714.183 765.787 712.894Q764.183 711.598 764.183 709.503Q764.183 707.401 765.714 706.126Q767.244 704.852 770.57 704.852L775.133 704.852L775.133 704.281Q775.133 702.42 774.049 701.432Q772.972 700.443 770.87 700.443Q769.464 700.443 768.109 700.912Q766.761 701.373 765.831 702.149L764.63 699.989Q765.86 699 767.567 698.48Q769.281 697.953 771.199 697.953ZM770.54 711.957Q772.188 711.957 773.389 711.224Q774.591 710.492 775.133 709.137L775.133 706.917L770.694 706.917Q767.032 706.917 767.032 709.378Q767.032 710.58 767.962 711.268Q768.892 711.957 770.54 711.957ZM783.201 698.099L786.079 698.099L786.079 704.852L795.139 704.852L795.139 698.099L798.017 698.099L798.017 714L795.139 714L795.139 707.342L786.079 707.342L786.079 714L783.201 714L783.201 698.099ZM803.63 698.099L806.509 698.099L806.509 704.852L815.569 704.852L815.569 698.099L818.447 698.099L818.447 714L815.569 714L815.569 707.342L806.509 707.342L806.509 714L803.63 714L803.63 698.099ZM836.812 698.099L836.812 714L834.227 714L834.227 708.961L829.612 708.961L829.283 708.961L825.796 714L822.713 714L826.58 708.573Q824.778 708.031 823.819 706.786Q822.859 705.541 822.859 703.68Q822.859 700.948 824.72 699.527Q826.58 698.099 829.847 698.099L836.812 698.099ZM825.796 703.768Q825.796 705.357 826.8 706.126Q827.811 706.888 829.817 706.888L834.227 706.888L834.227 700.619L829.942 700.619Q825.796 700.619 825.796 703.768Z" fill="#000000" fill-opacity="1.000000" fill-rule="evenodd"/>
	<rect id="Rectangle 26" x="521.000000" y="678.000000" rx="12.000000" width="46.000000" height="46.000000" fill="url(#paint_linear_76_3311_0)" fill-opacity="1.000000"/>
</svg>
