<svg width="1337.113770" height="569.240234" viewBox="0 0 1337.11 569.24" fill="none" xmlns="http://www.w3.org/2000/svg" xmlns:xlink="http://www.w3.org/1999/xlink">
	<desc>
			Created with Pixso.
	</desc>
	<defs>
		<linearGradient id="paint_linear_84_5347_0" x1="392.427246" y1="211.240234" x2="392.427246" y2="678.913330" gradientUnits="userSpaceOnUse">
			<stop stop-color="#BBBBBB"/>
			<stop offset="1.000000" stop-color="#BBBBBB" stop-opacity="0.000000"/>
		</linearGradient>
		<linearGradient id="paint_linear_84_5416_0" x1="783.427246" y1="98.240234" x2="783.427246" y2="746.278687" gradientUnits="userSpaceOnUse">
			<stop stop-color="#BBBBBB"/>
			<stop offset="1.000000" stop-color="#BBBBBB" stop-opacity="0.000000"/>
		</linearGradient>
		<linearGradient id="paint_linear_84_5420_0" x1="1174.427246" y1="118.240234" x2="1174.427246" y2="734.355652" gradientUnits="userSpaceOnUse">
			<stop stop-color="#BBBBBB"/>
			<stop offset="1.000000" stop-color="#BBBBBB" stop-opacity="0.000000"/>
		</linearGradient>
		<linearGradient id="paint_linear_84_5348_0" x1="263.427246" y1="349.240234" x2="263.427246" y2="504.240234" gradientUnits="userSpaceOnUse">
			<stop stop-color="#1091DA"/>
			<stop offset="1.000000" stop-color="#7DC5ED"/>
		</linearGradient>
		<linearGradient id="paint_linear_84_5417_0" x1="654.427246" y1="298.240234" x2="654.427246" y2="504.240234" gradientUnits="userSpaceOnUse">
			<stop stop-color="#1091DA"/>
			<stop offset="1.000000" stop-color="#7DC5ED"/>
		</linearGradient>
		<linearGradient id="paint_linear_84_5421_0" x1="1045.427246" y1="230.240234" x2="1045.427246" y2="504.240234" gradientUnits="userSpaceOnUse">
			<stop stop-color="#1091DA"/>
			<stop offset="1.000000" stop-color="#7DC5ED"/>
		</linearGradient>
		<linearGradient id="paint_linear_84_5372_0" x1="518.927246" y1="545.240234" x2="518.927246" y2="569.240234" gradientUnits="userSpaceOnUse">
			<stop stop-color="#1091DA"/>
			<stop offset="1.000000" stop-color="#7DC5ED"/>
		</linearGradient>
		<linearGradient id="paint_linear_84_5442_0" x1="908.927246" y1="545.240234" x2="908.927246" y2="569.240234" gradientUnits="userSpaceOnUse">
			<stop stop-color="#1091DA"/>
			<stop offset="1.000000" stop-color="#7DC5ED"/>
		</linearGradient>
	</defs>
	<path id="Тривалість (дні)" d="M3.60132 377.488L3.60132 383.488L18.9272 383.488L18.9272 385.941L3.60132 385.941L3.60132 391.917L1.42847 391.917L1.42847 377.488L3.60132 377.488ZM5.55444 368.14Q5.55444 366.217 6.40283 364.691Q7.25122 363.165 8.7771 362.305Q10.303 361.444 12.3049 361.444Q14.3008 361.444 15.8389 362.305Q17.377 363.165 18.2314 364.691Q19.0798 366.217 19.0798 368.14Q19.0798 369.568 18.5305 370.758Q17.9751 371.942 16.9253 372.766L23.7795 372.766L23.7795 375.165L5.67651 375.165L5.67651 372.864L7.77612 372.864Q6.67749 372.064 6.11597 370.844Q5.55444 369.617 5.55444 368.14ZM16.9802 368.341Q16.9802 367.065 16.3943 366.052Q15.8022 365.039 14.7402 364.453Q13.6782 363.867 12.3049 363.867Q10.9255 363.867 9.86352 364.453Q8.80151 365.039 8.22778 366.052Q7.65405 367.065 7.65405 368.341Q7.65405 369.592 8.23999 370.605Q8.82593 371.619 9.87573 372.205Q10.9255 372.791 12.3049 372.791Q13.6782 372.791 14.7402 372.217Q15.8022 371.643 16.3943 370.618Q16.9802 369.592 16.9802 368.341ZM5.67651 357.965L5.67651 355.566L15.3262 355.566L5.67651 347.442L5.67651 345.263L18.9272 345.263L18.9272 347.668L9.27759 347.668L18.9272 355.768L18.9272 357.965L5.67651 357.965ZM12.0547 331.588Q12.7017 329.018 15.2773 329.018Q17.0291 329.018 17.9812 330.33Q18.9272 331.643 18.9272 334.243L18.9272 340.615L5.67651 340.615L5.67651 334.462Q5.67651 332.113 6.56762 330.788Q7.45263 329.464 9.07617 329.464Q10.126 329.464 10.8889 330.031Q11.6519 330.593 12.0547 331.588ZM11.3772 338.265L11.3772 334.664Q11.3772 333.291 10.8767 332.576Q10.3762 331.862 9.43017 331.862Q7.52588 331.862 7.52588 334.664L7.52588 338.265L11.3772 338.265ZM17.0779 334.414Q17.0779 332.918 16.6018 332.168Q16.1257 331.417 15.1248 331.417Q14.0994 331.417 13.605 332.107Q13.1045 332.79 13.1045 334.267L13.1045 338.265L17.0779 338.265L17.0779 334.414ZM5.55444 320.541Q5.55444 317.788 6.90332 316.329Q8.25219 314.864 10.9255 314.864L18.9272 314.864L18.9272 317.141L17.1755 317.141Q18.1033 317.739 18.5915 318.856Q19.0798 319.967 19.0798 321.487Q19.0798 323.715 18.0056 325.051Q16.9253 326.388 15.1797 326.388Q13.428 326.388 12.366 325.112Q11.304 323.837 11.304 321.066L11.304 317.263L10.8279 317.263Q9.27758 317.263 8.45361 318.166Q7.62964 319.064 7.62964 320.815Q7.62964 321.987 8.02026 323.116Q8.40478 324.239 9.05175 325.015L7.25122 326.016Q6.42724 324.99 5.99389 323.568Q5.55444 322.14 5.55444 320.541ZM17.2244 321.09Q17.2244 319.717 16.614 318.716Q16.0037 317.715 14.8745 317.263L13.0251 317.263L13.0251 320.962Q13.0251 324.014 15.0759 324.014Q16.0769 324.014 16.6506 323.238Q17.2244 322.463 17.2244 321.09ZM5.67651 299.163L18.9272 299.163L18.9272 301.568L7.77612 301.568L7.77612 307.262L10.7302 307.415Q13.4036 307.543 15.1919 307.891Q16.9802 308.239 18.0544 309.038Q19.1287 309.838 19.1287 311.266Q19.1287 311.913 18.9028 312.743L16.8765 312.591Q16.9497 312.267 16.9497 311.992Q16.9497 310.991 16.0769 310.491Q15.2041 309.99 14.0017 309.844Q12.7993 309.691 10.5776 309.563L5.67651 309.337L5.67651 299.163ZM5.67651 294.515L5.67651 292.116L18.9272 292.116L18.9272 294.515L5.67651 294.515ZM3.12524 293.319Q3.12524 294.014 2.67968 294.478Q2.22802 294.942 1.57495 294.942Q0.927975 294.942 0.464107 294.478Q0.000239849 294.014 0.000239849 293.319Q0.000239849 292.617 0.439693 292.159Q0.879146 291.695 1.52612 291.695Q2.20361 291.695 2.66748 292.159Q3.12524 292.617 3.12524 293.319ZM19.0798 281.666Q19.0798 283.692 18.207 285.279Q17.3281 286.866 15.79 287.769Q14.2519 288.667 12.3049 288.667Q10.3518 288.667 8.81372 287.769Q7.27563 286.866 6.41503 285.279Q5.55444 283.692 5.55444 281.666Q5.55444 279.865 6.28076 278.455Q7.00097 277.039 8.37426 276.264L9.55224 278.089Q8.60009 278.718 8.13012 279.646Q7.65405 280.567 7.65405 281.69Q7.65405 282.99 8.22778 284.028Q8.80151 285.066 9.86352 285.658Q10.9255 286.243 12.3049 286.243Q13.7026 286.243 14.7646 285.658Q15.8267 285.066 16.4065 284.028Q16.9802 282.99 16.9802 281.69Q16.9802 280.567 16.5041 279.646Q16.0281 278.718 15.0759 278.089L16.2295 276.264Q17.6028 277.039 18.3413 278.455Q19.0798 279.865 19.0798 281.666ZM7.77612 263.464L7.77612 268.317L18.9272 268.317L18.9272 270.715L7.77612 270.715L7.77612 275.568L5.67651 275.568L5.67651 263.464L7.77612 263.464ZM10.1748 254.893Q10.1992 252.366 11.3284 251.042Q12.4514 249.717 14.5022 249.717Q16.6506 249.717 17.8164 251.158Q18.9761 252.592 18.9517 255.265L18.9272 261.015L5.67651 261.015L5.67651 258.616L10.1504 258.616L10.1748 254.893ZM17.1267 255.467Q17.1511 253.843 16.4797 253.007Q15.8022 252.165 14.4778 252.165Q13.1777 252.165 12.5796 252.976Q11.9753 253.788 11.9509 255.467L11.9021 258.616L17.1023 258.616L17.1267 255.467ZM23.7795 236.887Q21.4785 238.316 18.4939 239.091Q15.5032 239.866 12.0791 239.866Q8.65502 239.866 5.63989 239.091Q2.62475 238.316 0.378655 236.887L0.378655 234.617Q3.00317 236.112 5.87792 236.814Q8.75268 237.516 12.0791 237.516Q15.3994 237.516 18.2803 236.814Q21.155 236.112 23.7795 234.617L23.7795 236.887ZM16.8276 218.338L22.0034 218.338L22.0034 220.59L18.9272 220.59L18.9272 231.662L22.0034 231.662L22.0034 233.939L16.8276 233.939L16.8276 233.243Q16.7544 231.967 15.0271 231.491Q13.2998 231.015 10.1504 230.838L5.67651 230.643L5.67651 220.365L16.8276 220.365L16.8276 218.338ZM10.3274 228.641Q12.8298 228.739 14.4656 229.056Q16.1013 229.367 16.8276 230.191L16.8276 222.763L7.77612 222.763L7.77612 228.513L10.3274 228.641ZM5.67651 215.215L5.67651 212.816L11.3039 212.816L11.3039 205.266L5.67651 205.266L5.67651 202.867L18.9272 202.867L18.9272 205.266L13.3791 205.266L13.3791 212.816L18.9272 212.816L18.9272 215.215L5.67651 215.215ZM5.67651 198.19L5.67651 195.791L18.9272 195.791L18.9272 198.19L5.67651 198.19ZM3.12524 196.993Q3.12524 197.689 2.67968 198.153Q2.22802 198.617 1.57494 198.617Q0.92797 198.617 0.464103 198.153Q0.000235558 197.689 0.000235558 196.993Q0.000235558 196.292 0.439689 195.834Q0.879142 195.37 1.52611 195.37Q2.2036 195.37 2.66747 195.834Q3.12524 196.292 3.12524 196.993ZM23.7795 192.641Q21.155 191.139 18.2803 190.431Q15.3994 189.717 12.0791 189.717Q8.75268 189.717 5.87792 190.431Q3.00317 191.139 0.378654 192.641L0.378653 190.364Q2.62475 188.918 5.62768 188.142Q8.6245 187.367 12.0791 187.367Q15.5032 187.367 18.5061 188.142Q21.5029 188.918 23.7795 190.364L23.7795 192.641Z" fill="#000000" fill-opacity="1.000000" fill-rule="evenodd"/>
	<path id="Line 2" d="M102.109 4.24023L102.109 506.24L99.7451 506.24L99.7451 4.24023L102.109 4.24023ZM100.927 5.91211L95.0757 11.7637C94.6074 12.2324 93.8721 12.2324 93.4038 11.7637C92.9355 11.2949 92.9355 10.5605 93.4038 10.0918L100.091 3.4043C100.56 2.93555 101.295 2.93555 101.763 3.4043L108.451 10.0918C108.919 10.5605 108.919 11.2949 108.451 11.7637C107.982 12.2324 107.247 12.2324 106.779 11.7637L100.927 5.91211Z" fill="#000000" fill-opacity="1.000000" fill-rule="evenodd"/>
	<path id="Rectangle 25" d="M354.207 211.24L430.648 211.24C442.4 211.24 451.927 220.768 451.927 232.52L451.927 504.24L332.927 504.24L332.927 232.52C332.927 220.768 342.454 211.24 354.207 211.24Z" fill="url(#paint_linear_84_5347_0)" fill-opacity="1.000000" fill-rule="evenodd"/>
	<path id="Rectangle 27" d="M745.207 98.2402L821.648 98.2402C833.4 98.2402 842.927 107.768 842.927 119.52L842.927 504.24L723.927 504.24L723.927 119.52C723.927 107.768 733.454 98.2402 745.207 98.2402Z" fill="url(#paint_linear_84_5416_0)" fill-opacity="1.000000" fill-rule="evenodd"/>
	<path id="Rectangle 29" d="M1136.21 118.24L1212.65 118.24C1224.4 118.24 1233.93 127.768 1233.93 139.52L1233.93 504.24L1114.93 504.24L1114.93 139.52C1114.93 127.768 1124.45 118.24 1136.21 118.24Z" fill="url(#paint_linear_84_5420_0)" fill-opacity="1.000000" fill-rule="evenodd"/>
	<path id="Rectangle 26" d="M225.207 349.24L301.648 349.24C313.4 349.24 322.927 358.768 322.927 370.52L322.927 504.24L203.927 504.24L203.927 370.52C203.927 358.768 213.454 349.24 225.207 349.24Z" fill="url(#paint_linear_84_5348_0)" fill-opacity="1.000000" fill-rule="evenodd"/>
	<path id="Rectangle 28" d="M616.207 298.24L692.648 298.24C704.4 298.24 713.927 307.768 713.927 319.52L713.927 504.24L594.927 504.24L594.927 319.52C594.927 307.768 604.454 298.24 616.207 298.24Z" fill="url(#paint_linear_84_5417_0)" fill-opacity="1.000000" fill-rule="evenodd"/>
	<path id="Rectangle 30" d="M1007.21 230.24L1083.65 230.24C1095.4 230.24 1104.93 239.768 1104.93 251.52L1104.93 504.24L985.927 504.24L985.927 251.52C985.927 239.768 995.454 230.24 1007.21 230.24Z" fill="url(#paint_linear_84_5421_0)" fill-opacity="1.000000" fill-rule="evenodd"/>
	<path id="1,3" d="M251.765 310.742L251.765 335.24L246.091 335.24L246.091 315.288L241.195 315.288L241.195 310.742L251.765 310.742ZM259.29 328.729Q260.76 328.729 261.7 329.66Q262.648 330.583 262.648 332.087Q262.648 332.788 262.469 333.489Q262.298 334.189 261.7 335.591L259.709 340.632L256.24 340.632L257.786 335.069Q256.906 334.719 256.393 333.933Q255.889 333.138 255.889 332.087Q255.889 330.583 256.855 329.66Q257.82 328.729 259.29 328.729ZM276.996 320.714Q280.218 321.244 281.927 323.115Q283.644 324.986 283.644 327.746Q283.644 329.883 282.525 331.686Q281.405 333.489 279.115 334.574Q276.825 335.659 273.501 335.659Q270.904 335.659 268.4 334.975Q265.905 334.292 264.153 333.036L266.358 328.695Q267.759 329.746 269.596 330.327Q271.433 330.899 273.356 330.899Q275.492 330.899 276.714 330.079Q277.945 329.259 277.945 327.746Q277.945 324.739 273.356 324.739L270.767 324.739L270.767 320.996L275.808 315.288L265.375 315.288L265.375 310.742L282.525 310.742L282.525 314.416L276.996 320.714Z" fill="#0088D4" fill-opacity="1.000000" fill-rule="evenodd"/>
	<path id="1,7" d="M643.23 256.742L643.23 281.24L637.556 281.24L637.556 261.288L632.66 261.288L632.66 256.742L643.23 256.742ZM650.755 274.729Q652.225 274.729 653.165 275.66Q654.113 276.583 654.113 278.087Q654.113 278.788 653.934 279.489Q653.763 280.189 653.165 281.591L651.174 286.632L647.705 286.632L649.251 281.069Q648.371 280.719 647.858 279.933Q647.354 279.138 647.354 278.087Q647.354 276.583 648.32 275.66Q649.285 274.729 650.755 274.729ZM675.284 256.742L675.284 260.416L666.184 281.24L660.023 281.24L668.816 261.356L660.69 261.356L660.69 265.347L655.648 265.347L655.648 256.742L675.284 256.742Z" fill="#0088D4" fill-opacity="1.000000" fill-rule="evenodd"/>
	<path id="2,1" d="M1042.93 213.617L1042.93 218.24L1024.42 218.24L1024.42 214.566L1033.87 205.636Q1035.37 204.209 1035.89 203.176Q1036.42 202.142 1036.42 201.125Q1036.42 199.655 1035.42 198.869Q1034.43 198.083 1032.5 198.083Q1030.89 198.083 1029.59 198.698Q1028.3 199.305 1027.42 200.527L1023.3 197.869Q1024.73 195.733 1027.25 194.528Q1029.77 193.323 1033.03 193.323Q1035.75 193.323 1037.81 194.22Q1039.86 195.109 1040.99 196.733Q1042.13 198.356 1042.13 200.569Q1042.13 202.56 1041.28 204.312Q1040.45 206.064 1038.04 208.302L1032.4 213.617L1042.93 213.617ZM1048.89 211.729Q1050.35 211.729 1051.29 212.66Q1052.24 213.583 1052.24 215.087Q1052.24 215.788 1052.06 216.489Q1051.89 217.189 1051.29 218.591L1049.3 223.632L1045.83 223.632L1047.38 218.069Q1046.5 217.719 1045.99 216.933Q1045.48 216.138 1045.48 215.087Q1045.48 213.583 1046.45 212.66Q1047.42 211.729 1048.89 211.729ZM1063.69 193.742L1063.69 218.24L1058.02 218.24L1058.02 198.288L1053.12 198.288L1053.12 193.742L1063.69 193.742Z" fill="#0088D4" fill-opacity="1.000000" fill-rule="evenodd"/>
	<path id="2,4" d="M385.955 182.617L385.955 187.24L367.438 187.24L367.438 183.566L376.889 174.636Q378.393 173.209 378.914 172.176Q379.444 171.142 379.444 170.125Q379.444 168.655 378.444 167.869Q377.453 167.083 375.522 167.083Q373.915 167.083 372.617 167.698Q371.326 168.305 370.446 169.527L366.319 166.869Q367.754 164.733 370.275 163.528Q372.796 162.323 376.052 162.323Q378.777 162.323 380.828 163.22Q382.879 164.109 384.015 165.733Q385.152 167.356 385.152 169.569Q385.152 171.56 384.306 173.312Q383.469 175.064 381.059 177.302L375.419 182.617L385.955 182.617ZM391.908 180.729Q393.377 180.729 394.317 181.66Q395.266 182.583 395.266 184.087Q395.266 184.788 395.086 185.489Q394.915 186.189 394.317 187.591L392.326 192.632L388.857 192.632L390.404 187.069Q389.524 186.719 389.011 185.933Q388.507 185.138 388.507 184.087Q388.507 182.583 389.472 181.66Q390.438 180.729 391.908 180.729ZM420.252 182.096L416.262 182.096L416.262 187.24L410.733 187.24L410.733 182.096L397.54 182.096L397.54 178.277L409.093 162.742L415.04 162.742L404.333 177.473L410.913 177.473L410.913 172.893L416.262 172.893L416.262 177.473L420.252 177.473L420.252 182.096Z" fill="#737373" fill-opacity="1.000000" fill-rule="evenodd"/>
	<path id="3,3" d="M771.756 67.7139Q774.978 68.2437 776.687 70.115Q778.404 71.9863 778.404 74.7463Q778.404 76.8826 777.285 78.6855Q776.165 80.4885 773.875 81.5737Q771.585 82.6589 768.261 82.6589Q765.664 82.6589 763.16 81.9753Q760.665 81.2917 758.913 80.0356L761.118 75.6948Q762.519 76.7458 764.356 77.3269Q766.193 77.8994 768.116 77.8994Q770.252 77.8994 771.474 77.0791Q772.705 76.2588 772.705 74.7463Q772.705 71.7385 768.116 71.7385L765.527 71.7385L765.527 67.9958L770.568 62.2878L760.135 62.2878L760.135 57.7419L777.285 57.7419L777.285 61.4163L771.756 67.7139ZM784.29 75.729Q785.76 75.729 786.7 76.6604Q787.648 77.5833 787.648 79.0872Q787.648 79.7878 787.469 80.4885Q787.298 81.1892 786.7 82.5906L784.709 87.6321L781.24 87.6321L782.786 82.0693Q781.906 81.719 781.393 80.9329Q780.889 80.1382 780.889 79.0872Q780.889 77.5833 781.855 76.6604Q782.82 75.729 784.29 75.729ZM801.996 67.7139Q805.218 68.2437 806.927 70.115Q808.644 71.9863 808.644 74.7463Q808.644 76.8826 807.525 78.6855Q806.405 80.4885 804.115 81.5737Q801.825 82.6589 798.501 82.6589Q795.904 82.6589 793.4 81.9753Q790.905 81.2917 789.153 80.0356L791.358 75.6948Q792.759 76.7458 794.596 77.3269Q796.433 77.8994 798.356 77.8994Q800.492 77.8994 801.714 77.0791Q802.945 76.2588 802.945 74.7463Q802.945 71.7385 798.356 71.7385L795.767 71.7385L795.767 67.9958L800.808 62.2878L790.375 62.2878L790.375 57.7419L807.525 57.7419L807.525 61.4163L801.996 67.7139Z" fill="#737373" fill-opacity="1.000000" fill-rule="evenodd"/>
	<path id="3,2" d="M1163.79 91.7139Q1167.01 92.2437 1168.72 94.115Q1170.44 95.9863 1170.44 98.7463Q1170.44 100.883 1169.32 102.686Q1168.2 104.489 1165.91 105.574Q1163.62 106.659 1160.3 106.659Q1157.7 106.659 1155.19 105.975Q1152.7 105.292 1150.95 104.036L1153.15 99.6948Q1154.55 100.746 1156.39 101.327Q1158.23 101.899 1160.15 101.899Q1162.29 101.899 1163.51 101.079Q1164.74 100.259 1164.74 98.7463Q1164.74 95.7385 1160.15 95.7385L1157.56 95.7385L1157.56 91.9958L1162.6 86.2878L1152.17 86.2878L1152.17 81.7419L1169.32 81.7419L1169.32 85.4163L1163.79 91.7139ZM1176.33 99.729Q1177.79 99.729 1178.73 100.66Q1179.68 101.583 1179.68 103.087Q1179.68 103.788 1179.5 104.489Q1179.33 105.189 1178.73 106.591L1176.74 111.632L1173.27 111.632L1174.82 106.069Q1173.94 105.719 1173.43 104.933Q1172.92 104.138 1172.92 103.087Q1172.92 101.583 1173.89 100.66Q1174.86 99.729 1176.33 99.729ZM1200.89 101.617L1200.89 106.24L1182.38 106.24L1182.38 102.566L1191.83 93.6365Q1193.33 92.2095 1193.85 91.1755Q1194.38 90.1416 1194.38 89.1248Q1194.38 87.655 1193.38 86.8689Q1192.39 86.0828 1190.46 86.0828Q1188.85 86.0828 1187.55 86.698Q1186.26 87.3047 1185.38 88.5266L1181.26 85.8691Q1182.69 83.7329 1185.21 82.5281Q1187.73 81.3232 1190.99 81.3232Q1193.71 81.3232 1195.77 82.2205Q1197.82 83.1091 1198.95 84.7327Q1200.09 86.3562 1200.09 88.5693Q1200.09 90.5603 1199.24 92.312Q1198.41 94.0637 1196 96.3025L1190.36 101.617L1200.89 101.617Z" fill="#737373" fill-opacity="1.000000" fill-rule="evenodd"/>
	<path id="Line 3" d="M1335.93 507.422L100.927 507.422L100.927 505.059L1335.93 505.059L1335.93 507.422ZM1334.26 506.24L1328.4 500.389C1327.94 499.92 1327.94 499.186 1328.4 498.717C1328.87 498.248 1329.61 498.248 1330.08 498.717L1336.76 505.404C1337.23 505.873 1337.23 506.607 1336.76 507.076L1330.08 513.764C1329.61 514.232 1328.87 514.232 1328.4 513.764C1327.94 513.295 1327.94 512.561 1328.4 512.092L1334.26 506.24Z" fill="#000000" fill-opacity="1.000000" fill-rule="evenodd"/>
	<path id="Line 8" d="M100.58 382.24L88.7578 382.24" stroke="#000000" stroke-opacity="1.000000" stroke-width="1.182186" stroke-linecap="round"/>
	<path id="Line 9" d="M100.58 257.24L88.7578 257.24" stroke="#000000" stroke-opacity="1.000000" stroke-width="1.182186" stroke-linecap="round"/>
	<path id="Line 10" d="M100.58 132.24L88.7578 132.24" stroke="#000000" stroke-opacity="1.000000" stroke-width="1.182186" stroke-linecap="round"/>
	<path id="лихоманка" d="M258.597 551.641L258.597 564.24L256.294 564.24L256.294 553.619L251.324 553.619L251.214 556.77Q251.126 559.415 250.784 561.063Q250.441 562.711 249.685 563.568Q248.929 564.42 247.598 564.42Q247.132 564.42 246.319 564.24L246.481 562.206Q246.714 562.28 247.022 562.28Q248.12 562.28 248.578 560.975Q249.039 559.67 249.144 556.862L249.325 551.641L258.597 551.641ZM262.162 551.641L264.465 551.641L264.465 560.588L271.233 551.641L273.408 551.641L273.408 564.24L271.105 564.24L271.105 555.311L264.338 564.24L262.162 564.24L262.162 551.641ZM278.395 551.641L281.366 555.851L284.337 551.641L287.07 551.641L282.843 557.688L287.413 564.24L284.64 564.24L281.366 559.652L278.11 564.24L275.407 564.24L279.964 557.78L275.697 551.641L278.395 551.641ZM294.774 564.42Q292.849 564.42 291.302 563.585Q289.755 562.746 288.872 561.261Q287.989 559.775 287.989 557.938Q287.989 556.106 288.872 554.621Q289.755 553.135 291.302 552.3Q292.849 551.461 294.774 551.461Q296.703 551.461 298.25 552.3Q299.797 553.135 300.68 554.612Q301.564 556.088 301.564 557.938Q301.564 559.793 300.68 561.27Q299.797 562.746 298.25 563.585Q296.703 564.42 294.774 564.42ZM294.774 562.368Q296.035 562.368 297.042 561.801Q298.052 561.234 298.628 560.219Q299.204 559.2 299.204 557.938Q299.204 556.682 298.628 555.667Q298.052 554.647 297.042 554.08Q296.035 553.513 294.774 553.513Q293.517 553.513 292.506 554.08Q291.5 554.647 290.924 555.667Q290.349 556.682 290.349 557.938Q290.349 559.2 290.924 560.219Q291.5 561.234 292.506 561.801Q293.517 562.368 294.774 562.368ZM315.728 564.24L315.71 555.886L311.57 562.799L310.525 562.799L306.385 555.996L306.385 564.24L304.174 564.24L304.174 551.641L306.099 551.641L311.083 559.973L316.018 551.641L317.925 551.641L317.96 564.24L315.728 564.24ZM329.84 561.322L323.539 561.322L322.295 564.24L319.887 564.24L325.556 551.641L327.859 551.641L333.545 564.24L331.097 564.24L329.84 561.322ZM329.063 559.49L326.69 553.979L324.33 559.49L329.063 559.49ZM346.67 551.641L346.67 564.24L344.327 564.24L344.327 558.839L337.815 558.839L337.815 564.24L335.472 564.24L335.472 551.641L337.815 551.641L337.815 556.844L344.327 556.844L344.327 551.641L346.67 551.641ZM354.841 558.932L352.504 558.932L352.504 564.24L350.196 564.24L350.196 551.641L352.504 551.641L352.504 556.915L354.916 556.915L358.533 551.641L361.016 551.641L356.714 557.741L361.178 564.24L358.533 564.24L354.841 558.932ZM370.916 561.322L364.615 561.322L363.371 564.24L360.963 564.24L366.632 551.641L368.935 551.641L374.621 564.24L372.173 564.24L370.916 561.322ZM370.139 559.49L367.766 553.979L365.406 559.49L370.139 559.49Z" fill="#000000" fill-opacity="1.000000" fill-rule="evenodd"/>
	<path id="риніт" d="M702.22 551.641Q703.855 551.641 705.068 552.182Q706.285 552.722 706.931 553.729Q707.581 554.735 707.581 556.124Q707.581 557.49 706.931 558.51Q706.285 559.525 705.068 560.065Q703.855 560.606 702.22 560.606L699.377 560.606L699.377 564.24L697.034 564.24L697.034 551.641L702.22 551.641ZM702.11 558.624Q703.639 558.624 704.43 557.978Q705.226 557.328 705.226 556.124Q705.226 554.915 704.43 554.269Q703.639 553.619 702.11 553.619L699.377 553.619L699.377 558.624L702.11 558.624ZM709.818 551.641L712.121 551.641L712.121 560.588L718.889 551.641L721.064 551.641L721.064 564.24L718.761 564.24L718.761 555.311L711.994 564.24L709.818 564.24L709.818 551.641ZM735.79 551.641L735.79 564.24L733.447 564.24L733.447 558.839L726.935 558.839L726.935 564.24L724.592 564.24L724.592 551.641L726.935 551.641L726.935 556.844L733.447 556.844L733.447 551.641L735.79 551.641ZM739.338 551.641L741.641 551.641L741.641 564.24L739.338 564.24L739.338 551.641ZM754.329 553.619L750.155 553.619L750.155 564.24L747.834 564.24L747.834 553.619L743.673 553.619L743.673 551.641L754.329 551.641L754.329 553.619Z" fill="#000000" fill-opacity="1.000000" fill-rule="evenodd"/>
	<path id="кашель" d="M1068.65 558.932L1066.31 558.932L1066.31 564.24L1064 564.24L1064 551.641L1066.31 551.641L1066.31 556.915L1068.72 556.915L1072.34 551.641L1074.82 551.641L1070.52 557.741L1074.98 564.24L1072.34 564.24L1068.65 558.932ZM1084.72 561.322L1078.42 561.322L1077.18 564.24L1074.77 564.24L1080.44 551.641L1082.74 551.641L1088.43 564.24L1085.98 564.24L1084.72 561.322ZM1083.94 559.49L1081.57 553.979L1079.21 559.49L1083.94 559.49ZM1106.56 551.641L1106.56 564.24L1090.38 564.24L1090.38 551.641L1092.68 551.641L1092.68 562.258L1097.32 562.258L1097.32 551.641L1099.63 551.641L1099.63 562.258L1104.25 562.258L1104.25 551.641L1106.56 551.641ZM1119.55 562.28L1119.55 564.24L1110.1 564.24L1110.1 551.641L1119.3 551.641L1119.3 553.601L1112.44 553.601L1112.44 556.879L1118.52 556.879L1118.52 558.804L1112.44 558.804L1112.44 562.28L1119.55 562.28ZM1132.93 551.641L1132.93 564.24L1130.62 564.24L1130.62 553.619L1125.65 553.619L1125.54 556.77Q1125.46 559.415 1125.11 561.063Q1124.77 562.711 1124.01 563.568Q1123.26 564.42 1121.93 564.42Q1121.46 564.42 1120.65 564.24L1120.81 562.206Q1121.04 562.28 1121.35 562.28Q1122.45 562.28 1122.91 560.975Q1123.37 559.67 1123.47 556.862L1123.65 551.641L1132.93 551.641ZM1142.28 555.908Q1144.56 555.908 1145.77 556.923Q1146.98 557.938 1146.98 559.938Q1146.98 562.025 1145.65 563.133Q1144.32 564.24 1141.91 564.24L1136.49 564.24L1136.49 551.641L1138.8 551.641L1138.8 555.908L1142.28 555.908ZM1141.8 562.438Q1143.17 562.438 1143.91 561.81Q1144.64 561.182 1144.64 559.973Q1144.64 557.688 1141.8 557.688L1138.8 557.688L1138.8 562.438L1141.8 562.438Z" fill="#000000" fill-opacity="1.000000" fill-rule="evenodd"/>
	<path id="1" d="M68.7538 375.001L68.7538 388.24L67.3915 388.24L67.3915 376.211L64.2698 376.211L64.2698 375.001L68.7538 375.001Z" fill="#000000" fill-opacity="1.000000" fill-rule="evenodd"/>
	<path id="2" d="M72.209 262.03L72.209 263.24L62.9224 263.24L62.9224 262.275L68.427 256.886Q69.466 255.865 69.8354 255.117Q70.2049 254.369 70.2049 253.612Q70.2049 252.439 69.4013 251.788Q68.5978 251.137 67.1016 251.137Q64.7742 251.137 63.4904 252.61L62.5253 251.779Q63.3011 250.869 64.5017 250.379Q65.7024 249.885 67.2171 249.885Q69.2397 249.885 70.4219 250.841Q71.6041 251.797 71.6041 253.459Q71.6041 254.485 71.1469 255.431Q70.6944 256.373 69.429 257.602L64.9266 262.03L72.209 262.03Z" fill="#000000" fill-opacity="1.000000" fill-rule="evenodd"/>
	<path id="3" d="M67.7453 130.676Q69.8233 130.787 70.9086 131.798Q71.9984 132.81 71.9984 134.44Q71.9984 135.571 71.4488 136.453Q70.9039 137.331 69.8233 137.843Q68.7474 138.356 67.1957 138.356Q65.7596 138.356 64.4804 137.894Q63.2059 137.427 62.4301 136.652L63.0904 135.571Q63.7554 136.255 64.8498 136.679Q65.9489 137.104 67.1957 137.104Q68.8213 137.104 69.7079 136.398Q70.5992 135.687 70.5992 134.44Q70.5992 133.207 69.7079 132.509Q68.8213 131.807 67.0249 131.807L66.0782 131.807L66.0782 130.805L69.7495 126.211L62.9796 126.211L62.9796 125.001L71.4904 125.001L71.4904 125.966L67.7453 130.676Z" fill="#000000" fill-opacity="1.000000" fill-rule="evenodd"/>
	<path id="4" d="M73.6619 9.75833L71.0159 9.75833L71.0159 13.2402L69.6536 13.2402L69.6536 9.75833L62.1818 9.75833L62.1818 8.77471L69.1964 0.00067234L70.7111 0.00067234L63.9412 8.54843L69.6905 8.54843L69.6905 5.48676L71.0159 5.48676L71.0159 8.54843L73.6619 8.54843L73.6619 9.75833Z" fill="#000000" fill-opacity="1.000000" fill-rule="evenodd"/>
	<path id="0" d="M67.6674 512.356Q66.1343 512.356 64.9336 511.543Q63.733 510.726 63.0587 509.206Q62.3891 507.682 62.3891 505.618Q62.3891 503.559 63.0587 502.035Q63.733 500.511 64.9336 499.698Q66.1343 498.885 67.6674 498.885Q69.2006 498.885 70.4012 499.698Q71.6019 500.511 72.2807 502.035Q72.9642 503.559 72.9642 505.618Q72.9642 507.682 72.2807 509.206Q71.6019 510.726 70.4012 511.543Q69.2006 512.356 67.6674 512.356ZM67.6674 511.104Q68.8219 511.104 69.6993 510.462Q70.5813 509.82 71.0708 508.592Q71.5649 507.359 71.5649 505.618Q71.5649 503.882 71.0708 502.653Q70.5813 501.42 69.6993 500.779Q68.8219 500.137 67.6674 500.137Q66.5129 500.137 65.6309 500.779Q64.7535 501.42 64.2594 502.653Q63.7699 503.882 63.7699 505.618Q63.7699 507.359 64.2594 508.592Q64.7535 509.82 65.6309 510.462Q66.5129 511.104 67.6674 511.104Z" fill="#000000" fill-opacity="1.000000" fill-rule="evenodd"/>
	<path id="image 9 (Traced)" d="M508.007 545.393C507.343 545.637 506.834 546.463 506.941 547.125C507.058 547.842 507.244 548.055 511.494 552.334C517.083 557.965 517.083 556.607 511.494 562.236C508.381 565.371 507.299 566.51 507.165 566.795C506.389 568.438 507.823 569.814 509.461 568.998C510.062 568.699 520.003 558.727 520.287 558.137C520.922 556.82 521.004 556.932 514.945 550.865C509.046 544.957 509.091 544.992 508.007 545.393ZM518.2 545.645C517.468 546.084 517.22 547.012 517.612 547.842C517.756 548.146 518.741 549.186 521.908 552.375C527.45 557.957 527.455 556.609 521.868 562.236C518.755 565.371 517.673 566.51 517.539 566.795C516.763 568.438 518.198 569.814 519.835 568.998C520.455 568.689 530.309 558.809 530.619 558.186C531.297 556.822 531.353 556.9 525.404 550.943C519.451 544.982 519.384 544.934 518.2 545.645Z" fill="url(#paint_linear_84_5372_0)" fill-opacity="1.000000" fill-rule="evenodd"/>
	<path id="image 9 (Traced)" d="M898.007 545.393C897.343 545.637 896.834 546.463 896.941 547.125C897.058 547.842 897.244 548.055 901.494 552.334C907.083 557.965 907.083 556.607 901.494 562.236C898.381 565.371 897.299 566.51 897.165 566.795C896.389 568.438 897.823 569.814 899.461 568.998C900.062 568.699 910.003 558.727 910.287 558.137C910.922 556.82 911.004 556.932 904.945 550.865C899.046 544.957 899.091 544.992 898.007 545.393ZM908.2 545.645C907.468 546.084 907.22 547.012 907.612 547.842C907.756 548.146 908.741 549.186 911.908 552.375C917.45 557.957 917.455 556.609 911.868 562.236C908.755 565.371 907.673 566.51 907.539 566.795C906.763 568.438 908.198 569.814 909.835 568.998C910.455 568.689 920.309 558.809 920.619 558.186C921.297 556.822 921.353 556.9 915.404 550.943C909.451 544.982 909.384 544.934 908.2 545.645Z" fill="url(#paint_linear_84_5442_0)" fill-opacity="1.000000" fill-rule="evenodd"/>
</svg>
