<svg width="1129.186523" height="691.000000" viewBox="0 0 1129.19 691" fill="none" xmlns="http://www.w3.org/2000/svg" xmlns:xlink="http://www.w3.org/1999/xlink">
	<desc>
			Created with Pixso.
	</desc>
	<defs>
		<linearGradient id="paint_linear_79_4217_0" x1="257.500000" y1="126.000000" x2="257.500000" y2="746.903870" gradientUnits="userSpaceOnUse">
			<stop stop-color="#BBBBBB"/>
			<stop offset="1.000000" stop-color="#BBBBBB" stop-opacity="0.000000"/>
		</linearGradient>
		<linearGradient id="paint_linear_79_4218_0" x1="396.583435" y1="66.423019" x2="386.999939" y2="498.358734" gradientUnits="userSpaceOnUse">
			<stop stop-color="#039E00"/>
			<stop offset="1.000000" stop-color="#9FFFA8"/>
		</linearGradient>
		<linearGradient id="paint_linear_79_4276_0" x1="750.500000" y1="115.000000" x2="750.500000" y2="753.461548" gradientUnits="userSpaceOnUse">
			<stop stop-color="#BBBBBB"/>
			<stop offset="1.000000" stop-color="#BBBBBB" stop-opacity="0.000000"/>
		</linearGradient>
		<linearGradient id="paint_linear_79_4277_0" x1="889.584717" y1="255.730743" x2="880.000000" y2="505.381683" gradientUnits="userSpaceOnUse">
			<stop stop-color="#039E00"/>
			<stop offset="1.000000" stop-color="#9FFFA8"/>
		</linearGradient>
		<linearGradient id="paint_linear_79_4260_0" x1="576.033936" y1="544.076904" x2="574.100891" y2="575.778625" gradientUnits="userSpaceOnUse">
			<stop stop-color="#039E00"/>
			<stop offset="1.000000" stop-color="#9FFFA8"/>
		</linearGradient>
		<linearGradient id="paint_linear_79_4266_0" x1="322.000000" y1="645.000000" x2="322.000000" y2="718.423096" gradientUnits="userSpaceOnUse">
			<stop stop-color="#BBBBBB"/>
			<stop offset="1.000000" stop-color="#BBBBBB" stop-opacity="0.000000"/>
		</linearGradient>
		<linearGradient id="paint_linear_79_4269_0" x1="694.898254" y1="627.897400" x2="691.193298" y2="688.659058" gradientUnits="userSpaceOnUse">
			<stop stop-color="#039E00"/>
			<stop offset="1.000000" stop-color="#9FFFA8"/>
		</linearGradient>
	</defs>
	<path id="% пацієнтів зі скаргами" d="M17.9006 479.001Q17.9006 480.826 16.5762 481.949Q15.2517 483.072 13.1277 483.072Q10.9976 483.072 9.6731 481.949Q8.34863 480.826 8.34863 479.001Q8.34863 477.176 9.66089 476.065Q10.9731 474.948 13.1277 474.948Q15.2761 474.948 16.5884 476.065Q17.9006 477.176 17.9006 479.001ZM8.50122 468.448L8.50122 466.526L26 478.476L26 480.399L8.50122 468.448ZM16.4724 479.001Q16.4724 477.848 15.5874 477.201Q14.7024 476.548 13.1277 476.548Q11.553 476.548 10.668 477.201Q9.77686 477.848 9.77686 479.001Q9.77686 480.124 10.6802 480.79Q11.5774 481.449 13.1277 481.449Q14.678 481.449 15.5752 480.79Q16.4724 480.124 16.4724 479.001ZM26.1526 467.923Q26.1526 469.748 24.8403 470.865Q23.522 471.976 21.3735 471.976Q19.2251 471.976 17.9128 470.865Q16.6006 469.748 16.6006 467.923Q16.6006 466.098 17.925 464.975Q19.2495 463.852 21.3735 463.852Q23.4976 463.852 24.8281 464.975Q26.1526 466.098 26.1526 467.923ZM24.7244 467.923Q24.7244 466.8 23.8271 466.141Q22.9238 465.476 21.3735 465.476Q19.8232 465.476 18.926 466.141Q18.0227 466.8 18.0227 467.923Q18.0227 469.077 18.9138 469.73Q19.7988 470.377 21.3735 470.377Q22.9482 470.377 23.8394 469.73Q24.7244 469.077 24.7244 467.923ZM12.7493 441.6L26 441.6L26 443.999L14.8489 443.999L14.8489 451.476L26 451.476L26 453.875L12.7493 453.875L12.7493 441.6ZM12.6272 432.225Q12.6272 429.473 13.9761 428.014Q15.3249 426.549 17.9983 426.549L26 426.549L26 428.826L24.2483 428.826Q25.176 429.424 25.6643 430.541Q26.1526 431.652 26.1526 433.171Q26.1526 435.399 25.0784 436.736Q23.998 438.073 22.2524 438.073Q20.5007 438.073 19.4387 436.797Q18.3767 435.521 18.3767 432.75L18.3767 428.948L17.9006 428.948Q16.3503 428.948 15.5264 429.851Q14.7024 430.748 14.7024 432.5Q14.7024 433.672 15.093 434.801Q15.4775 435.924 16.1245 436.699L14.324 437.7Q13.5 436.675 13.0666 435.253Q12.6272 433.825 12.6272 432.225ZM24.2971 432.775Q24.2971 431.401 23.6868 430.4Q23.0764 429.4 21.9473 428.948L20.0979 428.948L20.0979 432.647Q20.0979 435.698 22.1487 435.698Q23.1497 435.698 23.7234 434.923Q24.2971 434.148 24.2971 432.775ZM23.9004 408.077L29.1738 408.077L29.1738 410.347L26 410.347L26 422.225L12.7493 422.225L12.7493 419.826L23.9004 419.826L23.9004 412.575L12.7493 412.575L12.7493 410.176L23.9004 410.176L23.9004 408.077ZM12.7493 404.975L12.7493 402.576L26 402.576L26 404.975L12.7493 404.975ZM10.198 403.778Q10.198 404.474 9.75244 404.938Q9.30078 405.402 8.6477 405.402Q8.00073 405.402 7.53686 404.938Q7.07299 404.474 7.07299 403.778Q7.07299 403.076 7.51245 402.619Q7.9519 402.155 8.59887 402.155Q9.27636 402.155 9.74023 402.619Q10.198 403.076 10.198 403.778ZM26.1465 391.979Q26.1465 393.999 25.2737 395.641Q24.4009 397.277 22.8506 398.205Q21.3003 399.126 19.3716 399.126Q17.4246 399.126 15.8743 398.205Q14.324 397.277 13.4512 395.641Q12.5723 393.999 12.5723 391.979Q12.5723 390.227 13.1277 388.818Q13.677 387.402 14.7268 386.425L16.1245 387.829Q14.5498 389.428 14.5498 391.875Q14.5498 393.829 15.6606 395.202Q16.7715 396.575 18.572 396.85L18.572 390.203L20.3481 390.203L20.3481 396.801Q22.0754 396.477 23.1374 395.129Q24.1995 393.78 24.1995 391.875Q24.1995 389.452 22.6003 387.829L23.9736 386.425Q25.0478 387.402 25.5972 388.83Q26.1465 390.252 26.1465 391.979ZM12.7493 383.475L12.7493 381.076L18.3767 381.076L18.3767 373.526L12.7493 373.526L12.7493 371.127L26 371.127L26 373.526L20.4519 373.526L20.4519 381.076L26 381.076L26 383.475L12.7493 383.475ZM14.8489 356.574L14.8489 361.426L26 361.426L26 363.825L14.8489 363.825L14.8489 368.677L12.7493 368.677L12.7493 356.574L14.8489 356.574ZM12.7493 354.125L12.7493 351.726L26 351.726L26 354.125L12.7493 354.125ZM10.198 352.928Q10.198 353.624 9.75244 354.088Q9.30078 354.552 8.6477 354.552Q8.00073 354.552 7.53686 354.088Q7.07299 353.624 7.07299 352.928Q7.07299 352.226 7.51245 351.769Q7.9519 351.305 8.59887 351.305Q9.27636 351.305 9.74023 351.769Q10.198 352.226 10.198 352.928ZM19.1274 338.022Q19.7744 335.453 22.3501 335.453Q24.1018 335.453 25.0539 336.765Q26 338.077 26 340.677L26 347.05L12.7493 347.05L12.7493 340.897Q12.7493 338.547 13.6404 337.223Q14.5254 335.898 16.1489 335.898Q17.1987 335.898 17.9617 336.466Q18.7246 337.028 19.1274 338.022ZM18.4499 344.7L18.4499 341.099Q18.4499 339.725 17.9495 339.011Q17.449 338.297 16.5029 338.297Q14.5986 338.297 14.5986 341.099L14.5986 344.7L18.4499 344.7ZM24.1506 340.848Q24.1506 339.353 23.6746 338.602Q23.1985 337.852 22.1975 337.852Q21.1721 337.852 20.6777 338.541Q20.1772 339.225 20.1772 340.702L20.1772 344.7L24.1506 344.7L24.1506 340.848ZM19.103 317.803Q19.4509 316.472 20.2261 315.752Q21.0012 315.026 22.1487 315.026Q23.3267 315.026 24.2422 315.825Q25.1516 316.625 25.6643 318.041Q26.177 319.451 26.177 321.203Q26.177 322.674 25.7925 324.09Q25.4018 325.499 24.6755 326.598L22.8506 325.878Q23.4487 324.926 23.7905 323.699Q24.1262 322.472 24.1262 321.227Q24.1262 319.524 23.5403 318.511Q22.9482 317.498 21.9473 317.498Q21.0256 317.498 20.5251 318.316Q20.0247 319.127 20.0247 320.598L20.0247 323.028L18.2974 323.028L18.2974 320.775Q18.2974 319.426 17.8274 318.651Q17.3513 317.876 16.5273 317.876Q15.624 317.876 15.1235 318.792Q14.623 319.701 14.623 321.251Q14.623 323.223 15.6484 325.426L13.7991 326.073Q12.5723 323.65 12.5723 321.001Q12.5723 319.402 13.0239 318.126Q13.4756 316.851 14.2996 316.124Q15.1235 315.398 16.1733 315.398Q17.1499 315.398 17.925 316.051Q18.7002 316.698 19.103 317.803ZM12.7493 311.375L12.7493 308.976L26 308.976L26 311.375L12.7493 311.375ZM10.198 310.178Q10.198 310.874 9.75243 311.338Q9.30077 311.802 8.6477 311.802Q8.00072 311.802 7.53686 311.338Q7.07299 310.874 7.07299 310.178Q7.07299 309.476 7.51244 309.019Q7.9519 308.555 8.59887 308.555Q9.27636 308.555 9.74023 309.019Q10.198 309.476 10.198 310.178ZM26.1526 291.801Q26.1526 293.827 25.2798 295.414Q24.4009 297.001 22.8628 297.904Q21.3247 298.801 19.3777 298.801Q17.4246 298.801 15.8865 297.904Q14.3484 297.001 13.4878 295.414Q12.6272 293.827 12.6272 291.801Q12.6272 290 13.3535 288.59Q14.0737 287.174 15.447 286.399L16.625 288.224Q15.6728 288.853 15.2029 289.78Q14.7268 290.702 14.7268 291.825Q14.7268 293.125 15.3005 294.163Q15.8743 295.2 16.9363 295.792Q17.9983 296.378 19.3777 296.378Q20.7754 296.378 21.8374 295.792Q22.8994 295.2 23.4792 294.163Q24.053 293.125 24.053 291.825Q24.053 290.702 23.5769 289.78Q23.1008 288.853 22.1487 288.224L23.3022 286.399Q24.6755 287.174 25.4141 288.59Q26.1526 290 26.1526 291.801ZM20.397 278.148L20.397 280.901L26 280.901L26 283.3L12.7493 283.3L12.7493 280.901L18.3523 280.901L18.3523 278.099L12.7493 273.802L12.7493 271.227L19.1274 276.25L26 270.873L26 273.699L20.397 278.148ZM12.6272 263.875Q12.6272 261.123 13.9761 259.664Q15.3249 258.199 17.9983 258.199L26 258.199L26 260.476L24.2483 260.476Q25.176 261.074 25.6643 262.191Q26.1526 263.302 26.1526 264.821Q26.1526 267.049 25.0784 268.386Q23.998 269.723 22.2524 269.723Q20.5007 269.723 19.4387 268.447Q18.3767 267.171 18.3767 264.4L18.3767 260.598L17.9006 260.598Q16.3503 260.598 15.5264 261.501Q14.7024 262.398 14.7024 264.15Q14.7024 265.322 15.093 266.451Q15.4775 267.574 16.1245 268.349L14.324 269.35Q13.5 268.325 13.0666 266.903Q12.6272 265.475 12.6272 263.875ZM24.2971 264.425Q24.2971 263.051 23.6868 262.05Q23.0764 261.049 21.9473 260.598L20.0979 260.598L20.0979 264.297Q20.0979 267.348 22.1487 267.348Q23.1496 267.348 23.7234 266.573Q24.2971 265.798 24.2971 264.425ZM12.6272 246.849Q12.6272 244.927 13.4756 243.401Q14.324 241.875 15.8498 241.014Q17.3757 240.154 19.3777 240.154Q21.3735 240.154 22.9116 241.014Q24.4497 241.875 25.3042 243.401Q26.1526 244.927 26.1526 246.849Q26.1526 248.278 25.6033 249.468Q25.0478 250.652 23.998 251.476L30.8523 251.476L30.8523 253.875L12.7493 253.875L12.7493 251.574L14.8489 251.574Q13.7502 250.774 13.1887 249.553Q12.6272 248.326 12.6272 246.849ZM24.053 247.051Q24.053 245.775 23.467 244.762Q22.875 243.749 21.813 243.163Q20.751 242.577 19.3777 242.577Q17.9983 242.577 16.9363 243.163Q15.8743 243.749 15.3005 244.762Q14.7268 245.775 14.7268 247.051Q14.7268 248.302 15.3127 249.315Q15.8987 250.328 16.9485 250.914Q17.9983 251.5 19.3777 251.5Q20.751 251.5 21.813 250.927Q22.875 250.353 23.467 249.327Q24.053 248.302 24.053 247.051ZM14.8489 226.927L14.8489 234.276L26 234.276L26 236.675L12.7493 236.675L12.7493 226.927L14.8489 226.927ZM12.6272 219.75Q12.6272 216.998 13.9761 215.539Q15.3249 214.074 17.9983 214.074L26 214.074L26 216.351L24.2483 216.351Q25.176 216.949 25.6643 218.066Q26.1526 219.177 26.1526 220.696Q26.1526 222.924 25.0784 224.261Q23.998 225.598 22.2524 225.598Q20.5007 225.598 19.4387 224.322Q18.3767 223.046 18.3767 220.275L18.3767 216.473L17.9006 216.473Q16.3503 216.473 15.5264 217.376Q14.7024 218.273 14.7024 220.025Q14.7024 221.197 15.093 222.326Q15.4775 223.449 16.1245 224.224L14.324 225.225Q13.5 224.2 13.0666 222.778Q12.6272 221.35 12.6272 219.75ZM24.2971 220.3Q24.2971 218.926 23.6868 217.925Q23.0764 216.924 21.9473 216.473L20.0979 216.473L20.0979 220.172Q20.0979 223.223 22.1487 223.223Q23.1496 223.223 23.7234 222.448Q24.2971 221.673 24.2971 220.3ZM12.7493 194.472L26 194.472L26 196.651L16.3259 196.651L24.4985 201.601L24.4985 202.651L16.3015 207.552L26 207.552L26 209.75L12.7493 209.75L12.7493 207.278L21.697 202.077L12.7493 196.725L12.7493 194.472ZM12.7493 189.8L12.7493 187.401L22.3989 187.401L12.7493 179.277L12.7493 177.098L26 177.098L26 179.503L16.3503 179.503L26 187.602L26 189.8L12.7493 189.8Z" fill="#000000" fill-opacity="1.000000" fill-rule="evenodd"/>
	<path id="Line 2" d="M96.1826 15L96.1826 517L93.8174 517L93.8174 15L96.1826 15ZM95 16.6719L89.1484 22.5234C88.6807 22.9912 87.9443 22.9912 87.4766 22.5234C87.0088 22.0557 87.0088 21.3193 87.4766 20.8516L94.1641 14.1641C94.6318 13.6963 95.3682 13.6963 95.8359 14.1641L102.523 20.8516C102.991 21.3193 102.991 22.0557 102.523 22.5234C102.056 22.9912 101.319 22.9912 100.852 22.5234L95 16.6719Z" fill="#000000" fill-opacity="1.000000" fill-rule="evenodd"/>
	<path id="Line 3" d="M1128 518.183L95 518.183L95 515.817L1128 515.817L1128 518.183ZM1126.33 517L1120.48 511.148C1120.01 510.681 1120.01 509.944 1120.48 509.477C1120.94 509.009 1121.68 509.009 1122.15 509.477L1128.84 516.164C1129.3 516.632 1129.3 517.368 1128.84 517.836L1122.15 524.523C1121.68 524.991 1120.94 524.991 1120.48 524.523C1120.01 524.056 1120.01 523.319 1120.48 522.852L1126.33 517Z" fill="#000000" fill-opacity="1.000000" fill-rule="evenodd"/>
	<path id="Rectangle 23" d="M219.279 126L295.721 126C307.473 126 317 135.527 317 147.279L317 515L198 515L198 147.279C198 135.527 207.527 126 219.279 126Z" fill="url(#paint_linear_79_4217_0)" fill-opacity="1.000000" fill-rule="evenodd"/>
	<path id="Rectangle 24" d="M348.279 188L424.721 188C436.473 188 446 197.527 446 209.279L446 515L327 515L327 209.279C327 197.527 336.527 188 348.279 188Z" fill="url(#paint_linear_79_4218_0)" fill-opacity="1.000000" fill-rule="evenodd"/>
	<path id="78%" d="M237.718 81.0385L237.718 85.3822L226.96 110L219.677 110L230.071 86.4934L220.465 86.4934L220.465 91.2109L214.505 91.2109L214.505 81.0385L237.718 81.0385ZM259.82 94.7768Q261.971 95.8475 263.103 97.585Q264.244 99.3225 264.244 101.605Q264.244 104.293 262.709 106.303Q261.184 108.303 258.406 109.404Q255.638 110.495 252.001 110.495Q248.354 110.495 245.597 109.404Q242.849 108.303 241.334 106.303Q239.829 104.293 239.829 101.605Q239.829 99.3225 240.97 97.585Q242.112 95.8475 244.223 94.7768Q242.607 93.7767 241.738 92.2715Q240.869 90.7563 240.869 88.8168Q240.869 86.2913 242.273 84.4326Q243.677 82.5638 246.203 81.5536Q248.728 80.5435 252.001 80.5435Q255.304 80.5435 257.85 81.5536Q260.396 82.5638 261.8 84.4326Q263.214 86.2913 263.214 88.8168Q263.214 90.7563 262.345 92.2715Q261.477 93.7767 259.82 94.7768ZM252.001 85.463Q249.971 85.463 248.748 86.4429Q247.526 87.4126 247.526 89.1097Q247.526 90.7563 248.728 91.7159Q249.93 92.6655 252.001 92.6655Q254.062 92.6655 255.304 91.7159Q256.547 90.7563 256.547 89.1097Q256.547 87.4126 255.304 86.4429Q254.062 85.463 252.001 85.463ZM252.001 105.575Q254.516 105.575 255.981 104.434Q257.456 103.292 257.456 101.393Q257.456 99.4942 255.981 98.373Q254.516 97.2517 252.001 97.2517Q249.516 97.2517 248.061 98.373Q246.617 99.4942 246.617 101.393Q246.617 103.343 248.061 104.464Q249.516 105.575 252.001 105.575ZM273.592 96.6759Q270.41 96.6759 268.4 94.504Q266.4 92.3321 266.4 88.6955Q266.4 85.0488 268.4 82.877Q270.41 80.7051 273.592 80.7051Q276.785 80.7051 278.765 82.877Q280.755 85.0488 280.755 88.6955Q280.755 92.3321 278.765 94.504Q276.785 96.6759 273.592 96.6759ZM290.846 81.0385L295.776 81.0385L275.997 110L271.067 110L290.846 81.0385ZM273.592 93.2817Q275.007 93.2817 275.805 92.1301Q276.613 90.9684 276.613 88.6955Q276.613 86.4126 275.805 85.261Q275.007 84.0993 273.592 84.0993Q272.229 84.0993 271.4 85.2812Q270.572 86.453 270.572 88.6955Q270.572 90.928 271.4 92.1099Q272.229 93.2817 273.592 93.2817ZM293.25 110.333Q291.18 110.333 289.543 109.364Q287.917 108.384 286.997 106.565Q286.088 104.747 286.088 102.343Q286.088 99.9488 286.997 98.1305Q287.917 96.3021 289.543 95.3324Q291.18 94.3626 293.25 94.3626Q296.432 94.3626 298.443 96.5344Q300.453 98.7063 300.453 102.343Q300.453 105.99 298.443 108.161Q296.432 110.333 293.25 110.333ZM293.25 106.939Q294.654 106.939 295.463 105.757Q296.271 104.575 296.271 102.343Q296.271 100.11 295.463 98.9387Q294.654 97.7568 293.25 97.7568Q291.887 97.7568 291.058 98.9184Q290.23 100.07 290.23 102.343Q290.23 104.626 291.058 105.788Q291.887 106.939 293.25 106.939Z" fill="#737373" fill-opacity="1.000000" fill-rule="evenodd"/>
	<path id="65%" d="M359.632 155.837Q362.41 155.837 364.683 156.958Q366.956 158.07 368.279 160.12Q369.602 162.171 369.602 164.858Q369.602 167.757 368.158 169.949Q366.713 172.141 364.208 173.323Q361.703 174.495 358.642 174.495Q352.561 174.495 349.126 170.778Q345.692 167.05 345.692 160.14Q345.692 155.211 347.55 151.695Q349.409 148.18 352.743 146.362Q356.076 144.543 360.46 144.543Q362.774 144.543 364.905 145.059Q367.036 145.574 368.532 146.523L366.047 151.453Q363.895 149.998 360.622 149.998Q356.945 149.998 354.793 152.15Q352.642 154.302 352.47 158.403Q355.036 155.837 359.632 155.837ZM358.268 169.495Q360.42 169.495 361.763 168.333Q363.107 167.171 363.107 165.191Q363.107 163.201 361.763 162.019Q360.42 160.837 358.187 160.837Q355.995 160.837 354.581 162.06Q353.177 163.282 353.177 165.191Q353.177 167.09 354.541 168.293Q355.904 169.495 358.268 169.495ZM381.978 155.918Q388.1 155.918 391.019 158.363Q393.939 160.797 393.939 164.898Q393.939 167.545 392.605 169.717Q391.282 171.889 388.575 173.192Q385.868 174.495 381.898 174.495Q378.827 174.495 375.867 173.687Q372.917 172.879 370.846 171.394L373.493 166.262Q375.15 167.505 377.301 168.192Q379.453 168.868 381.726 168.868Q384.251 168.868 385.696 167.878Q387.15 166.878 387.15 165.1Q387.15 163.242 385.635 162.292Q384.13 161.343 380.403 161.343L372.998 161.343L374.483 145.038L392.151 145.038L392.151 150.413L380.069 150.413L379.615 155.918L381.978 155.918ZM402.951 160.676Q399.769 160.676 397.759 158.504Q395.759 156.332 395.759 152.696Q395.759 149.049 397.759 146.877Q399.769 144.705 402.951 144.705Q406.143 144.705 408.123 146.877Q410.113 149.049 410.113 152.696Q410.113 156.332 408.123 158.504Q406.143 160.676 402.951 160.676ZM420.205 145.038L425.134 145.038L405.355 174L400.426 174L420.205 145.038ZM402.951 157.282Q404.365 157.282 405.163 156.13Q405.972 154.968 405.972 152.696Q405.972 150.413 405.163 149.261Q404.365 148.099 402.951 148.099Q401.587 148.099 400.759 149.281Q399.931 150.453 399.931 152.696Q399.931 154.928 400.759 156.11Q401.587 157.282 402.951 157.282ZM422.609 174.333Q420.538 174.333 418.902 173.364Q417.275 172.384 416.356 170.565Q415.447 168.747 415.447 166.343Q415.447 163.949 416.356 162.131Q417.275 160.302 418.902 159.332Q420.538 158.363 422.609 158.363Q425.791 158.363 427.801 160.534Q429.812 162.706 429.812 166.343Q429.812 169.99 427.801 172.161Q425.791 174.333 422.609 174.333ZM422.609 170.939Q424.013 170.939 424.821 169.757Q425.629 168.575 425.629 166.343Q425.629 164.11 424.821 162.939Q424.013 161.757 422.609 161.757Q421.245 161.757 420.417 162.918Q419.589 164.07 419.589 166.343Q419.589 168.626 420.417 169.788Q421.245 170.939 422.609 170.939Z" fill="#19A056" fill-opacity="1.000000" fill-rule="evenodd"/>
	<path id="16,7%" d="M343.877 74.5012L343.877 92L339.824 92L339.824 77.7483L336.327 77.7483L336.327 74.5012L343.877 74.5012ZM355.349 81.0259Q357.028 81.0259 358.401 81.7034Q359.774 82.3748 360.574 83.6138Q361.374 84.8528 361.374 86.4763Q361.374 88.228 360.501 89.5525Q359.628 90.877 358.114 91.5911Q356.601 92.2991 354.751 92.2991Q351.077 92.2991 349.002 90.053Q346.927 87.8008 346.927 83.626Q346.927 80.6475 348.05 78.5234Q349.173 76.3994 351.187 75.3008Q353.201 74.2021 355.85 74.2021Q357.248 74.2021 358.535 74.5134Q359.823 74.8247 360.727 75.3984L359.225 78.377Q357.925 77.498 355.948 77.498Q353.726 77.498 352.426 78.7981Q351.126 80.0981 351.022 82.5762Q352.572 81.0259 355.349 81.0259ZM354.525 89.2778Q355.826 89.2778 356.637 88.5759Q357.449 87.874 357.449 86.6777Q357.449 85.4753 356.637 84.7612Q355.826 84.0471 354.477 84.0471Q353.152 84.0471 352.298 84.7856Q351.449 85.5242 351.449 86.6777Q351.449 87.8252 352.273 88.5515Q353.097 89.2778 354.525 89.2778ZM365.427 87.3491Q366.477 87.3491 367.148 88.0144Q367.826 88.6736 367.826 89.7478Q367.826 90.2483 367.698 90.7488Q367.575 91.2493 367.148 92.2502L365.726 95.8513L363.248 95.8513L364.353 91.8779Q363.724 91.6277 363.358 91.0662Q362.998 90.4985 362.998 89.7478Q362.998 88.6736 363.688 88.0144Q364.377 87.3491 365.427 87.3491ZM382.948 74.5012L382.948 77.1257L376.448 92L372.047 92L378.327 77.7971L372.523 77.7971L372.523 80.6475L368.922 80.6475L368.922 74.5012L382.948 74.5012ZM388.948 83.9495Q387.026 83.9495 385.811 82.6372Q384.602 81.325 384.602 79.1277Q384.602 76.9243 385.811 75.6121Q387.026 74.2998 388.948 74.2998Q390.877 74.2998 392.073 75.6121Q393.276 76.9243 393.276 79.1277Q393.276 81.325 392.073 82.6372Q390.877 83.9495 388.948 83.9495ZM399.373 74.5012L402.352 74.5012L390.401 92L387.422 92L399.373 74.5012ZM388.948 81.8987Q389.803 81.8987 390.285 81.2029Q390.773 80.501 390.773 79.1277Q390.773 77.7483 390.285 77.0525Q389.803 76.3506 388.948 76.3506Q388.124 76.3506 387.624 77.0647Q387.123 77.7727 387.123 79.1277Q387.123 80.4766 387.624 81.1907Q388.124 81.8987 388.948 81.8987ZM400.826 92.2014Q399.574 92.2014 398.586 91.6155Q397.603 91.0234 397.048 89.9248Q396.498 88.8262 396.498 87.3735Q396.498 85.927 397.048 84.8284Q397.603 83.7236 398.586 83.1377Q399.574 82.5518 400.826 82.5518Q402.748 82.5518 403.963 83.864Q405.177 85.1763 405.177 87.3735Q405.177 89.5769 403.963 90.8892Q402.748 92.2014 400.826 92.2014ZM400.826 90.1506Q401.674 90.1506 402.162 89.4365Q402.651 88.7224 402.651 87.3735Q402.651 86.0247 402.162 85.3167Q401.674 84.6025 400.826 84.6025Q400.002 84.6025 399.501 85.3044Q399.001 86.0002 399.001 87.3735Q399.001 88.7529 399.501 89.4548Q400.002 90.1506 400.826 90.1506Z" fill="#19A056" fill-opacity="1.000000" fill-rule="evenodd"/>
	<path id="Rectangle 23" d="M712.279 115L788.721 115C800.473 115 810 124.527 810 136.279L810 515L691 515L691 136.279C691 124.527 700.527 115 712.279 115Z" fill="url(#paint_linear_79_4276_0)" fill-opacity="1.000000" fill-rule="evenodd"/>
	<path id="Rectangle 24" d="M841.279 326L917.721 326C929.473 326 939 335.527 939 347.279L939 515L820 515L820 347.279C820 335.527 829.527 326 841.279 326Z" fill="url(#paint_linear_79_4277_0)" fill-opacity="1.000000" fill-rule="evenodd"/>
	<path id="80%" d="M725.591 83.7768Q727.742 84.8475 728.874 86.585Q730.015 88.3225 730.015 90.6055Q730.015 93.2925 728.48 95.3028Q726.954 97.3029 724.176 98.404Q721.409 99.495 717.772 99.495Q714.125 99.495 711.367 98.404Q708.62 97.3029 707.104 95.3028Q705.599 93.2925 705.599 90.6055Q705.599 88.3225 706.741 86.585Q707.882 84.8475 709.994 83.7768Q708.377 82.7767 707.509 81.2715Q706.64 79.7563 706.64 77.8168Q706.64 75.2913 708.044 73.4326Q709.448 71.5638 711.974 70.5536Q714.499 69.5435 717.772 69.5435Q721.075 69.5435 723.621 70.5536Q726.166 71.5638 727.571 73.4326Q728.985 75.2913 728.985 77.8168Q728.985 79.7563 728.116 81.2715Q727.247 82.7767 725.591 83.7768ZM717.772 74.463Q715.741 74.463 714.519 75.4429Q713.297 76.4126 713.297 78.1097Q713.297 79.7563 714.499 80.7159Q715.701 81.6655 717.772 81.6655Q719.833 81.6655 721.075 80.7159Q722.318 79.7563 722.318 78.1097Q722.318 76.4126 721.075 75.4429Q719.833 74.463 717.772 74.463ZM717.772 94.5755Q720.287 94.5755 721.752 93.434Q723.227 92.2925 723.227 90.3934Q723.227 88.4942 721.752 87.373Q720.287 86.2517 717.772 86.2517Q715.287 86.2517 713.832 87.373Q712.388 88.4942 712.388 90.3934Q712.388 92.343 713.832 93.4643Q715.287 94.5755 717.772 94.5755ZM745.495 99.495Q741.888 99.495 739.07 97.7171Q736.262 95.9392 734.666 92.5652Q733.08 89.1913 733.08 84.5142Q733.08 79.8472 734.666 76.4732Q736.262 73.0993 739.07 71.3214Q741.888 69.5435 745.495 69.5435Q749.091 69.5435 751.899 71.3214Q754.717 73.0993 756.303 76.4732Q757.899 79.8472 757.899 84.5142Q757.899 89.1913 756.303 92.5652Q754.717 95.9392 751.899 97.7171Q749.091 99.495 745.495 99.495ZM745.495 93.8279Q748.141 93.8279 749.646 91.5551Q751.162 89.2721 751.162 84.5142Q751.162 79.7563 749.646 77.4834Q748.141 75.2105 745.495 75.2105Q742.878 75.2105 741.363 77.4834Q739.858 79.7563 739.858 84.5142Q739.858 89.2721 741.363 91.5551Q742.878 93.8279 745.495 93.8279ZM767.872 85.6759Q764.69 85.6759 762.679 83.504Q760.679 81.3321 760.679 77.6955Q760.679 74.0488 762.679 71.877Q764.69 69.7051 767.872 69.7051Q771.064 69.7051 773.044 71.877Q775.034 74.0488 775.034 77.6955Q775.034 81.3321 773.044 83.504Q771.064 85.6759 767.872 85.6759ZM785.125 70.0385L790.055 70.0385L770.276 99L765.346 99L785.125 70.0385ZM767.872 82.2817Q769.286 82.2817 770.084 81.1301Q770.892 79.9684 770.892 77.6955Q770.892 75.4126 770.084 74.261Q769.286 73.0993 767.872 73.0993Q766.508 73.0993 765.68 74.2812Q764.851 75.453 764.851 77.6955Q764.851 79.928 765.68 81.1099Q766.508 82.2817 767.872 82.2817ZM787.53 99.3334Q785.459 99.3334 783.822 98.3636Q782.196 97.3837 781.277 95.5654Q780.367 93.7471 780.367 91.3429Q780.367 88.9488 781.277 87.1305Q782.196 85.3021 783.822 84.3324Q785.459 83.3626 787.53 83.3626Q790.712 83.3626 792.722 85.5344Q794.732 87.7063 794.732 91.3429Q794.732 94.9896 792.722 97.1615Q790.712 99.3334 787.53 99.3334ZM787.53 95.9392Q788.934 95.9392 789.742 94.7573Q790.55 93.5754 790.55 91.3429Q790.55 89.1104 789.742 87.9387Q788.934 86.7568 787.53 86.7568Q786.166 86.7568 785.337 87.9184Q784.509 89.07 784.509 91.3429Q784.509 93.6259 785.337 94.7876Q786.166 95.9392 787.53 95.9392Z" fill="#737373" fill-opacity="1.000000" fill-rule="evenodd"/>
	<path id="39%" d="M851.573 288.827Q855.381 289.453 857.402 291.666Q859.432 293.878 859.432 297.141Q859.432 299.666 858.109 301.798Q856.785 303.929 854.078 305.212Q851.371 306.495 847.441 306.495Q844.37 306.495 841.411 305.687Q838.461 304.879 836.39 303.394L838.996 298.262Q840.653 299.505 842.825 300.192Q844.997 300.868 847.27 300.868Q849.795 300.868 851.24 299.899Q852.694 298.929 852.694 297.141Q852.694 293.585 847.27 293.585L844.209 293.585L844.209 289.16L850.169 282.413L837.835 282.413L837.835 277.038L858.109 277.038L858.109 281.382L851.573 288.827ZM872.714 276.543Q878.795 276.543 882.23 280.251Q885.664 283.948 885.664 290.898Q885.664 295.818 883.826 299.343Q881.987 302.858 878.634 304.677Q875.28 306.495 870.896 306.495Q868.583 306.495 866.471 305.98Q864.36 305.465 862.875 304.515L865.35 299.585Q867.461 301.03 870.775 301.03Q874.452 301.03 876.603 298.858Q878.755 296.686 878.927 292.595Q876.32 295.201 871.724 295.201Q868.956 295.201 866.673 294.09Q864.4 292.969 863.077 290.918Q861.754 288.868 861.754 286.18Q861.754 283.281 863.198 281.089Q864.653 278.897 867.148 277.725Q869.653 276.543 872.714 276.543ZM873.219 290.191Q875.411 290.191 876.795 288.979Q878.179 287.756 878.179 285.847Q878.179 283.948 876.836 282.746Q875.492 281.544 873.128 281.544Q870.977 281.544 869.633 282.706Q868.29 283.867 868.29 285.847Q868.29 287.837 869.633 289.019Q870.977 290.191 873.219 290.191ZM895.596 292.676Q892.414 292.676 890.404 290.504Q888.404 288.332 888.404 284.696Q888.404 281.049 890.404 278.877Q892.414 276.705 895.596 276.705Q898.788 276.705 900.768 278.877Q902.758 281.049 902.758 284.696Q902.758 288.332 900.768 290.504Q898.788 292.676 895.596 292.676ZM912.85 277.038L917.779 277.038L898 306L893.071 306L912.85 277.038ZM895.596 289.282Q897.01 289.282 897.808 288.13Q898.616 286.968 898.616 284.696Q898.616 282.413 897.808 281.261Q897.01 280.099 895.596 280.099Q894.232 280.099 893.404 281.281Q892.576 282.453 892.576 284.696Q892.576 286.928 893.404 288.11Q894.232 289.282 895.596 289.282ZM915.254 306.333Q913.183 306.333 911.547 305.364Q909.92 304.384 909.001 302.565Q908.092 300.747 908.092 298.343Q908.092 295.949 909.001 294.131Q909.92 292.302 911.547 291.332Q913.183 290.363 915.254 290.363Q918.436 290.363 920.446 292.534Q922.456 294.706 922.456 298.343Q922.456 301.99 920.446 304.161Q918.436 306.333 915.254 306.333ZM915.254 302.939Q916.658 302.939 917.466 301.757Q918.274 300.575 918.274 298.343Q918.274 296.11 917.466 294.939Q916.658 293.757 915.254 293.757Q913.89 293.757 913.062 294.918Q912.233 296.07 912.233 298.343Q912.233 300.626 913.062 301.788Q913.89 302.939 915.254 302.939Z" fill="#19A056" fill-opacity="1.000000" fill-rule="evenodd"/>
	<path id="51%" d="M862.176 193.075Q865.875 193.075 867.639 194.552Q869.403 196.023 869.403 198.501Q869.403 200.1 868.597 201.412Q867.798 202.724 866.162 203.512Q864.526 204.299 862.128 204.299Q860.272 204.299 858.484 203.811Q856.701 203.323 855.45 202.425L857.049 199.325Q858.05 200.075 859.35 200.49Q860.65 200.899 862.024 200.899Q863.55 200.899 864.422 200.301Q865.301 199.697 865.301 198.623Q865.301 197.5 864.386 196.926Q863.476 196.352 861.224 196.352L856.75 196.352L857.648 186.501L868.323 186.501L868.323 189.748L861.023 189.748L860.748 193.075L862.176 193.075ZM877.802 186.501L877.802 204L873.749 204L873.749 189.748L870.252 189.748L870.252 186.501L877.802 186.501ZM884.898 195.949Q882.976 195.949 881.761 194.637Q880.552 193.325 880.552 191.128Q880.552 188.924 881.761 187.612Q882.976 186.3 884.898 186.3Q886.827 186.3 888.023 187.612Q889.226 188.924 889.226 191.128Q889.226 193.325 888.023 194.637Q886.827 195.949 884.898 195.949ZM895.323 186.501L898.302 186.501L886.351 204L883.372 204L895.323 186.501ZM884.898 193.899Q885.753 193.899 886.235 193.203Q886.723 192.501 886.723 191.128Q886.723 189.748 886.235 189.052Q885.753 188.351 884.898 188.351Q884.074 188.351 883.574 189.065Q883.073 189.773 883.073 191.128Q883.073 192.477 883.574 193.191Q884.074 193.899 884.898 193.899ZM896.776 204.201Q895.524 204.201 894.536 203.615Q893.553 203.023 892.998 201.925Q892.448 200.826 892.448 199.374Q892.448 197.927 892.998 196.828Q893.553 195.724 894.536 195.138Q895.524 194.552 896.776 194.552Q898.698 194.552 899.913 195.864Q901.127 197.176 901.127 199.374Q901.127 201.577 899.913 202.889Q898.698 204.201 896.776 204.201ZM896.776 202.151Q897.624 202.151 898.112 201.437Q898.601 200.722 898.601 199.374Q898.601 198.025 898.112 197.317Q897.624 196.603 896.776 196.603Q895.952 196.603 895.451 197.304Q894.951 198 894.951 199.374Q894.951 200.753 895.451 201.455Q895.952 202.151 896.776 202.151Z" fill="#19A056" fill-opacity="1.000000" fill-rule="evenodd"/>
	<path id="Line 8" d="M94.6523 465L82.8301 465" stroke="#000000" stroke-opacity="1.000000" stroke-width="1.182186" stroke-linecap="round"/>
	<path id="Line 9" d="M94.6523 415L82.8301 415" stroke="#000000" stroke-opacity="1.000000" stroke-width="1.182186" stroke-linecap="round"/>
	<path id="Line 10" d="M94.6523 365L82.8301 365" stroke="#000000" stroke-opacity="1.000000" stroke-width="1.182186" stroke-linecap="round"/>
	<path id="Line 11" d="M94.6523 315L82.8301 315" stroke="#000000" stroke-opacity="1.000000" stroke-width="1.182186" stroke-linecap="round"/>
	<path id="Line 12" d="M94.6523 265L82.8301 265" stroke="#000000" stroke-opacity="1.000000" stroke-width="1.182186" stroke-linecap="round"/>
	<path id="Line 13" d="M94.6523 215L82.8301 215" stroke="#000000" stroke-opacity="1.000000" stroke-width="1.182186" stroke-linecap="round"/>
	<path id="Line 14" d="M94.6523 165L82.8301 165" stroke="#000000" stroke-opacity="1.000000" stroke-width="1.182186" stroke-linecap="round"/>
	<path id="Line 15" d="M94.6523 115L82.8301 115" stroke="#000000" stroke-opacity="1.000000" stroke-width="1.182186" stroke-linecap="round"/>
	<path id="Line 16" d="M94.6523 65L82.8301 65" stroke="#000000" stroke-opacity="1.000000" stroke-width="1.182186" stroke-linecap="round"/>
	<path id="серцево судинні прояви" d="M181.049 572.18Q179.141 572.18 177.603 571.345Q176.065 570.506 175.191 569.029Q174.316 567.553 174.316 565.698Q174.316 563.848 175.199 562.372Q176.083 560.895 177.621 560.06Q179.159 559.221 181.066 559.221Q182.613 559.221 183.892 559.761Q185.171 560.302 186.054 561.326L184.542 562.75Q183.171 561.273 181.176 561.273Q179.88 561.273 178.851 561.84Q177.827 562.407 177.252 563.417Q176.676 564.424 176.676 565.698Q176.676 566.977 177.252 567.988Q177.827 568.994 178.851 569.561Q179.88 570.128 181.176 570.128Q183.171 570.128 184.542 568.634L186.054 570.075Q185.171 571.099 183.883 571.64Q182.595 572.18 181.049 572.18ZM197.678 570.04L197.678 572L188.23 572L188.23 559.401L197.428 559.401L197.428 561.361L190.572 561.361L190.572 564.639L196.655 564.639L196.655 566.564L190.572 566.564L190.572 570.04L197.678 570.04ZM205.476 559.401Q207.111 559.401 208.323 559.941Q209.541 560.482 210.187 561.488Q210.837 562.495 210.837 563.883Q210.837 565.25 210.187 566.27Q209.541 567.285 208.323 567.825Q207.111 568.366 205.476 568.366L202.632 568.366L202.632 572L200.29 572L200.29 559.401L205.476 559.401ZM205.366 566.384Q206.895 566.384 207.686 565.738Q208.482 565.087 208.482 563.883Q208.482 562.675 207.686 562.029Q206.895 561.378 205.366 561.378L202.632 561.378L202.632 566.384L205.366 566.384ZM225.924 570.018L225.924 574.773L223.766 574.773L223.766 572L213.074 572L213.074 559.401L215.377 559.401L215.377 570.018L221.731 570.018L221.731 559.401L224.052 559.401L224.052 570.018L225.924 570.018ZM237.512 570.04L237.512 572L228.064 572L228.064 559.401L237.262 559.401L237.262 561.361L230.406 561.361L230.406 564.639L236.489 564.639L236.489 566.564L230.406 566.564L230.406 570.04L237.512 570.04ZM248.425 565.448Q249.63 565.773 250.258 566.555Q250.891 567.337 250.891 568.506Q250.891 570.163 249.665 571.082Q248.443 572 246.118 572L240.146 572L240.146 559.401L245.78 559.401Q247.903 559.401 249.089 560.249Q250.28 561.093 250.28 562.64Q250.28 563.628 249.801 564.349Q249.322 565.07 248.425 565.448ZM242.449 564.784L245.578 564.784Q246.716 564.784 247.309 564.336Q247.903 563.883 247.903 563Q247.903 562.117 247.309 561.66Q246.716 561.198 245.578 561.198L242.449 561.198L242.449 564.784ZM246.048 570.198Q248.531 570.198 248.531 568.326Q248.531 566.494 246.048 566.494L242.449 566.494L242.449 570.198L246.048 570.198ZM259.384 572.18Q257.459 572.18 255.912 571.345Q254.365 570.506 253.482 569.021Q252.599 567.535 252.599 565.698Q252.599 563.866 253.482 562.38Q254.365 560.895 255.912 560.06Q257.459 559.221 259.384 559.221Q261.313 559.221 262.86 560.06Q264.407 560.895 265.29 562.372Q266.173 563.848 266.173 565.698Q266.173 567.553 265.29 569.029Q264.407 570.506 262.86 571.345Q261.313 572.18 259.384 572.18ZM259.384 570.128Q260.645 570.128 261.651 569.561Q262.662 568.994 263.238 567.979Q263.813 566.959 263.813 565.698Q263.813 564.441 263.238 563.426Q262.662 562.407 261.651 561.84Q260.645 561.273 259.384 561.273Q258.127 561.273 257.116 561.84Q256.11 562.407 255.534 563.426Q254.958 564.441 254.958 565.698Q254.958 566.959 255.534 567.979Q256.11 568.994 257.116 569.561Q258.127 570.128 259.384 570.128ZM279.527 572.18Q277.619 572.18 276.081 571.345Q274.543 570.506 273.669 569.029Q272.794 567.553 272.794 565.698Q272.794 563.848 273.677 562.372Q274.561 560.895 276.099 560.06Q277.637 559.221 279.544 559.221Q281.091 559.221 282.37 559.761Q283.649 560.302 284.532 561.326L283.02 562.75Q281.649 561.273 279.654 561.273Q278.358 561.273 277.329 561.84Q276.305 562.407 275.73 563.417Q275.154 564.424 275.154 565.698Q275.154 566.977 275.73 567.988Q276.305 568.994 277.329 569.561Q278.358 570.128 279.654 570.128Q281.649 570.128 283.02 568.634L284.532 570.075Q283.649 571.099 282.361 571.64Q281.073 572.18 279.527 572.18ZM297.258 559.401L291.786 569.57Q291.066 570.919 290.064 571.596Q289.066 572.268 287.897 572.268Q286.961 572.268 286.043 571.873L286.618 570.04Q287.357 570.273 287.844 570.273Q288.978 570.273 289.717 569.104L289.914 568.796L284.891 559.401L287.392 559.401L291.118 566.797L294.955 559.401L297.258 559.401ZM311.19 570.018L311.19 574.681L309.032 574.681L309.032 572L299.364 572L299.364 574.681L297.185 574.681L297.202 570.018L297.743 570.018Q298.934 569.965 299.408 568.265Q299.887 566.564 299.993 563.396L300.138 559.401L309.371 559.401L309.371 570.018L311.19 570.018ZM302.045 563.611Q301.957 566.059 301.649 567.689Q301.346 569.319 300.678 570.018L307.068 570.018L307.068 561.378L302.137 561.378L302.045 563.611ZM313.406 559.401L315.709 559.401L315.709 568.348L322.477 559.401L324.652 559.401L324.652 572L322.349 572L322.349 563.07L315.581 572L313.406 572L313.406 559.401ZM339.378 559.401L339.378 572L337.035 572L337.035 566.599L330.523 566.599L330.523 572L328.18 572L328.18 559.401L330.523 559.401L330.523 564.604L337.035 564.604L337.035 559.401L339.378 559.401ZM354.102 559.401L354.102 572L351.759 572L351.759 566.599L345.247 566.599L345.247 572L342.904 572L342.904 559.401L345.247 559.401L345.247 564.604L351.759 564.604L351.759 559.401L354.102 559.401ZM357.65 559.401L359.953 559.401L359.953 572L357.65 572L357.65 559.401ZM379.626 559.401L379.626 572L377.324 572L377.324 561.378L370.789 561.378L370.789 572L368.486 572L368.486 559.401L379.626 559.401ZM388.356 559.401Q389.991 559.401 391.203 559.941Q392.421 560.482 393.067 561.488Q393.717 562.495 393.717 563.883Q393.717 565.25 393.067 566.27Q392.421 567.285 391.203 567.825Q389.991 568.366 388.356 568.366L385.513 568.366L385.513 572L383.17 572L383.17 559.401L388.356 559.401ZM388.246 566.384Q389.775 566.384 390.566 565.738Q391.362 565.087 391.362 563.883Q391.362 562.675 390.566 562.029Q389.775 561.378 388.246 561.378L385.513 561.378L385.513 566.384L388.246 566.384ZM401.944 572.18Q400.019 572.18 398.472 571.345Q396.925 570.506 396.042 569.021Q395.159 567.535 395.159 565.698Q395.159 563.866 396.042 562.38Q396.925 560.895 398.472 560.06Q400.019 559.221 401.944 559.221Q403.873 559.221 405.42 560.06Q406.967 560.895 407.85 562.372Q408.733 563.848 408.733 565.698Q408.733 567.553 407.85 569.029Q406.967 570.506 405.42 571.345Q403.873 572.18 401.944 572.18ZM401.944 570.128Q403.205 570.128 404.211 569.561Q405.222 568.994 405.798 567.979Q406.373 566.959 406.373 565.698Q406.373 564.441 405.798 563.426Q405.222 562.407 404.211 561.84Q403.205 561.273 401.944 561.273Q400.687 561.273 399.676 561.84Q398.67 562.407 398.094 563.426Q397.518 564.441 397.518 565.698Q397.518 566.959 398.094 567.979Q398.67 568.994 399.676 569.561Q400.687 570.128 401.944 570.128ZM420.505 559.401L420.505 572L418.198 572L418.198 568.489L415.087 568.489L414.836 568.489L412.494 572L410.028 572L412.727 568.111Q411.413 567.627 410.701 566.573Q409.993 565.518 409.993 564.024Q409.993 562.587 410.639 561.545Q411.29 560.5 412.476 559.95Q413.663 559.401 415.267 559.401L420.505 559.401ZM415.337 561.378Q413.9 561.378 413.131 562.046Q412.366 562.71 412.366 563.989Q412.366 565.232 413.105 565.909Q413.843 566.582 415.249 566.582L418.198 566.582L418.198 561.378L415.337 561.378ZM432.349 565.448Q433.554 565.773 434.182 566.555Q434.815 567.337 434.815 568.506Q434.815 570.163 433.589 571.082Q432.367 572 430.042 572L424.07 572L424.07 559.401L429.704 559.401Q431.827 559.401 433.013 560.249Q434.204 561.093 434.204 562.64Q434.204 563.628 433.725 564.349Q433.246 565.07 432.349 565.448ZM426.373 564.784L429.502 564.784Q430.64 564.784 431.233 564.336Q431.827 563.883 431.827 563Q431.827 562.117 431.233 561.66Q430.64 561.198 429.502 561.198L426.373 561.198L426.373 564.784ZM429.972 570.198Q432.455 570.198 432.455 568.326Q432.455 566.494 429.972 566.494L426.373 566.494L426.373 570.198L429.972 570.198ZM437.498 559.401L439.801 559.401L439.801 568.348L446.568 559.401L448.744 559.401L448.744 572L446.441 572L446.441 563.07L439.673 572L437.498 572L437.498 559.401Z" fill="#000000" fill-opacity="1.000000" fill-rule="evenodd"/>
	<path id="порушення сну" d="M765.097 559.401L765.097 572L762.795 572L762.795 561.378L756.26 561.378L756.26 572L753.957 572L753.957 559.401L765.097 559.401ZM774.473 572.18Q772.548 572.18 771.001 571.345Q769.454 570.506 768.571 569.021Q767.688 567.535 767.688 565.698Q767.688 563.866 768.571 562.38Q769.454 560.895 771.001 560.06Q772.548 559.221 774.473 559.221Q776.402 559.221 777.949 560.06Q779.496 560.895 780.379 562.372Q781.262 563.848 781.262 565.698Q781.262 567.553 780.379 569.029Q779.496 570.506 777.949 571.345Q776.402 572.18 774.473 572.18ZM774.473 570.128Q775.734 570.128 776.74 569.561Q777.751 568.994 778.327 567.979Q778.902 566.959 778.902 565.698Q778.902 564.441 778.327 563.426Q777.751 562.407 776.74 561.84Q775.734 561.273 774.473 561.273Q773.216 561.273 772.205 561.84Q771.199 562.407 770.623 563.426Q770.047 564.441 770.047 565.698Q770.047 566.959 770.623 567.979Q771.199 568.994 772.205 569.561Q773.216 570.128 774.473 570.128ZM789.037 559.401Q790.672 559.401 791.884 559.941Q793.102 560.482 793.748 561.488Q794.398 562.495 794.398 563.883Q794.398 565.25 793.748 566.27Q793.102 567.285 791.884 567.825Q790.672 568.366 789.037 568.366L786.193 568.366L786.193 572L783.851 572L783.851 559.401L789.037 559.401ZM788.927 566.384Q790.456 566.384 791.247 565.738Q792.043 565.087 792.043 563.883Q792.043 562.675 791.247 562.029Q790.456 561.378 788.927 561.378L786.193 561.378L786.193 566.384L788.927 566.384ZM807.163 559.401L801.691 569.57Q800.971 570.919 799.969 571.596Q798.971 572.268 797.802 572.268Q796.866 572.268 795.948 571.873L796.523 570.04Q797.262 570.273 797.749 570.273Q798.883 570.273 799.622 569.104L799.819 568.796L794.796 559.401L797.297 559.401L801.023 566.797L804.86 559.401L807.163 559.401ZM824.984 559.401L824.984 572L808.803 572L808.803 559.401L811.106 559.401L811.106 570.018L815.751 570.018L815.751 559.401L818.054 559.401L818.054 570.018L822.681 570.018L822.681 559.401L824.984 559.401ZM837.975 570.04L837.975 572L828.527 572L828.527 559.401L837.725 559.401L837.725 561.361L830.87 561.361L830.87 564.639L836.952 564.639L836.952 566.564L830.87 566.564L830.87 570.04L837.975 570.04ZM851.784 559.401L851.784 572L849.442 572L849.442 566.599L842.93 566.599L842.93 572L840.587 572L840.587 559.401L842.93 559.401L842.93 564.604L849.442 564.604L849.442 559.401L851.784 559.401ZM866.508 559.401L866.508 572L864.166 572L864.166 566.599L857.654 566.599L857.654 572L855.311 572L855.311 559.401L857.654 559.401L857.654 564.604L864.166 564.604L864.166 559.401L866.508 559.401ZM879.668 559.401L879.668 572L877.361 572L877.361 568.489L874.25 568.489L873.999 568.489L871.657 572L869.191 572L871.89 568.111Q870.576 567.627 869.864 566.573Q869.156 565.518 869.156 564.024Q869.156 562.587 869.802 561.545Q870.453 560.5 871.639 559.95Q872.826 559.401 874.43 559.401L879.668 559.401ZM874.5 561.378Q873.063 561.378 872.294 562.046Q871.529 562.71 871.529 563.989Q871.529 565.232 872.268 565.909Q873.006 566.582 874.412 566.582L877.361 566.582L877.361 561.378L874.5 561.378ZM893.976 572.18Q892.068 572.18 890.53 571.345Q888.992 570.506 888.118 569.029Q887.243 567.553 887.243 565.698Q887.243 563.848 888.126 562.372Q889.01 560.895 890.548 560.06Q892.086 559.221 893.993 559.221Q895.54 559.221 896.819 559.761Q898.098 560.302 898.981 561.326L897.469 562.75Q896.098 561.273 894.103 561.273Q892.807 561.273 891.778 561.84Q890.754 562.407 890.179 563.417Q889.603 564.424 889.603 565.698Q889.603 566.977 890.179 567.988Q890.754 568.994 891.778 569.561Q892.807 570.128 894.103 570.128Q896.098 570.128 897.469 568.634L898.981 570.075Q898.098 571.099 896.81 571.64Q895.522 572.18 893.976 572.18ZM912.354 559.401L912.354 572L910.012 572L910.012 566.599L903.5 566.599L903.5 572L901.157 572L901.157 559.401L903.5 559.401L903.5 564.604L910.012 564.604L910.012 559.401L912.354 559.401ZM926.701 559.401L921.229 569.57Q920.509 570.919 919.507 571.596Q918.509 572.268 917.34 572.268Q916.404 572.268 915.486 571.873L916.061 570.04Q916.8 570.273 917.287 570.273Q918.421 570.273 919.16 569.104L919.357 568.796L914.334 559.401L916.835 559.401L920.561 566.797L924.398 559.401L926.701 559.401Z" fill="#000000" fill-opacity="1.000000" fill-rule="evenodd"/>
	<path id="0" d="M66.287 523.115Q64.7539 523.115 63.5532 522.303Q62.3526 521.485 61.6784 519.966Q61.0088 518.442 61.0088 516.378Q61.0088 514.318 61.6784 512.794Q62.3526 511.271 63.5532 510.458Q64.7539 509.645 66.287 509.645Q67.8202 509.645 69.0209 510.458Q70.2215 511.271 70.9003 512.794Q71.5838 514.318 71.5838 516.378Q71.5838 518.442 70.9003 519.966Q70.2215 521.485 69.0209 522.303Q67.8202 523.115 66.287 523.115ZM66.287 521.864Q67.4415 521.864 68.3189 521.222Q69.201 520.58 69.6905 519.352Q70.1846 518.119 70.1846 516.378Q70.1846 514.642 69.6905 513.413Q69.201 512.18 68.3189 511.538Q67.4415 510.896 66.287 510.896Q65.1326 510.896 64.2505 511.538Q63.3731 512.18 62.879 513.413Q62.3895 514.642 62.3895 516.378Q62.3895 518.119 62.879 519.352Q63.3731 520.58 64.2505 521.222Q65.1326 521.864 66.287 521.864Z" fill="#000000" fill-opacity="1.000000" fill-rule="evenodd"/>
	<path id="10%" d="M52.6243 456.76L52.6243 470L51.262 470L51.262 457.97L48.1403 457.97L48.1403 456.76L52.6243 456.76ZM61.0597 470.115Q59.5265 470.115 58.3259 469.303Q57.1252 468.485 56.451 466.966Q55.7814 465.442 55.7814 463.378Q55.7814 461.318 56.451 459.794Q57.1252 458.271 58.3259 457.458Q59.5265 456.645 61.0597 456.645Q62.5928 456.645 63.7935 457.458Q64.9941 458.271 65.673 459.794Q66.3564 461.318 66.3564 463.378Q66.3564 465.442 65.673 466.966Q64.9941 468.485 63.7935 469.303Q62.5928 470.115 61.0597 470.115ZM61.0597 468.864Q62.2141 468.864 63.0915 468.222Q63.9736 467.58 64.4631 466.352Q64.9572 465.119 64.9572 463.378Q64.9572 461.642 64.4631 460.413Q63.9736 459.18 63.0915 458.538Q62.2141 457.896 61.0597 457.896Q59.9052 457.896 59.0232 458.538Q58.1458 459.18 57.6516 460.413Q57.1621 461.642 57.1621 463.378Q57.1621 465.119 57.6516 466.352Q58.1458 467.58 59.0232 468.222Q59.9052 468.864 61.0597 468.864ZM71.1016 463.854Q69.7577 463.854 68.9358 462.861Q68.1138 461.868 68.1138 460.261Q68.1138 458.649 68.9358 457.656Q69.7577 456.663 71.1016 456.663Q72.4269 456.663 73.2581 457.647Q74.0893 458.631 74.0893 460.261Q74.0893 461.886 73.2581 462.87Q72.4269 463.854 71.1016 463.854ZM79.1229 456.76L80.2404 456.76L71.1985 470L70.081 470L79.1229 456.76ZM71.1016 462.999Q72.0298 462.999 72.5885 462.274Q73.1473 461.545 73.1473 460.261Q73.1473 458.972 72.5885 458.247Q72.0298 457.518 71.1016 457.518Q70.1549 457.518 69.6053 458.257Q69.0604 458.991 69.0604 460.261Q69.0604 461.526 69.6053 462.265Q70.1549 462.999 71.1016 462.999ZM79.2152 470.092Q77.8945 470.092 77.0587 469.1Q76.2274 468.107 76.2274 466.5Q76.2274 464.893 77.0587 463.9Q77.8945 462.907 79.2152 462.907Q80.559 462.907 81.381 463.9Q82.2076 464.893 82.2076 466.5Q82.2076 468.107 81.381 469.1Q80.559 470.092 79.2152 470.092ZM79.2152 469.243Q80.1619 469.243 80.7114 468.508Q81.261 467.77 81.261 466.5Q81.261 465.234 80.7114 464.495Q80.1619 463.757 79.2152 463.757Q78.2916 463.757 77.7329 464.486Q77.1741 465.216 77.1741 466.5Q77.1741 467.788 77.7329 468.518Q78.2916 469.243 79.2152 469.243Z" fill="#000000" fill-opacity="1.000000" fill-rule="evenodd"/>
	<path id="20%" d="M54.1552 418.79L54.1552 420L44.8686 420L44.8686 419.035L50.3731 413.646Q51.4122 412.625 51.7816 411.877Q52.151 411.129 52.151 410.372Q52.151 409.199 51.3475 408.548Q50.544 407.896 49.0478 407.896Q46.7204 407.896 45.4366 409.37L44.4714 408.538Q45.2472 407.629 46.4479 407.139Q47.6486 406.645 49.1632 406.645Q51.1859 406.645 52.3681 407.601Q53.5503 408.557 53.5503 410.219Q53.5503 411.244 53.0931 412.191Q52.6405 413.133 51.3752 414.362L46.8728 418.79L54.1552 418.79ZM61.0597 420.115Q59.5265 420.115 58.3259 419.303Q57.1252 418.485 56.451 416.966Q55.7814 415.442 55.7814 413.378Q55.7814 411.318 56.451 409.794Q57.1252 408.271 58.3259 407.458Q59.5265 406.645 61.0597 406.645Q62.5928 406.645 63.7935 407.458Q64.9941 408.271 65.673 409.794Q66.3564 411.318 66.3564 413.378Q66.3564 415.442 65.673 416.966Q64.9941 418.485 63.7935 419.303Q62.5928 420.115 61.0597 420.115ZM61.0597 418.864Q62.2141 418.864 63.0915 418.222Q63.9736 417.58 64.4631 416.352Q64.9572 415.119 64.9572 413.378Q64.9572 411.642 64.4631 410.413Q63.9736 409.18 63.0915 408.538Q62.2141 407.896 61.0597 407.896Q59.9052 407.896 59.0232 408.538Q58.1458 409.18 57.6516 410.413Q57.1621 411.642 57.1621 413.378Q57.1621 415.119 57.6516 416.352Q58.1458 417.58 59.0232 418.222Q59.9052 418.864 61.0597 418.864ZM71.1016 413.854Q69.7577 413.854 68.9358 412.861Q68.1138 411.868 68.1138 410.261Q68.1138 408.649 68.9358 407.656Q69.7577 406.663 71.1016 406.663Q72.4269 406.663 73.2581 407.647Q74.0893 408.631 74.0893 410.261Q74.0893 411.886 73.2581 412.87Q72.4269 413.854 71.1016 413.854ZM79.1229 406.76L80.2404 406.76L71.1985 420L70.081 420L79.1229 406.76ZM71.1016 412.999Q72.0298 412.999 72.5885 412.274Q73.1473 411.545 73.1473 410.261Q73.1473 408.972 72.5885 408.247Q72.0298 407.518 71.1016 407.518Q70.1549 407.518 69.6053 408.257Q69.0604 408.991 69.0604 410.261Q69.0604 411.526 69.6053 412.265Q70.1549 412.999 71.1016 412.999ZM79.2152 420.092Q77.8945 420.092 77.0587 419.1Q76.2274 418.107 76.2274 416.5Q76.2274 414.893 77.0587 413.9Q77.8945 412.907 79.2152 412.907Q80.559 412.907 81.381 413.9Q82.2076 414.893 82.2076 416.5Q82.2076 418.107 81.381 419.1Q80.559 420.092 79.2152 420.092ZM79.2152 419.243Q80.1619 419.243 80.7114 418.508Q81.261 417.77 81.261 416.5Q81.261 415.234 80.7114 414.495Q80.1619 413.757 79.2152 413.757Q78.2916 413.757 77.7329 414.486Q77.1741 415.216 77.1741 416.5Q77.1741 417.788 77.7329 418.518Q78.2916 419.243 79.2152 419.243Z" fill="#000000" fill-opacity="1.000000" fill-rule="evenodd"/>
	<path id="30%" d="M49.6158 362.436Q51.6939 362.547 52.7791 363.558Q53.8689 364.569 53.8689 366.199Q53.8689 367.331 53.3194 368.213Q52.7745 369.09 51.6939 369.603Q50.6179 370.115 49.0663 370.115Q47.6301 370.115 46.3509 369.654Q45.0764 369.187 44.3006 368.411L44.9609 367.331Q45.6259 368.014 46.7204 368.439Q47.8194 368.864 49.0663 368.864Q50.6918 368.864 51.5784 368.157Q52.4697 367.446 52.4697 366.199Q52.4697 364.966 51.5784 364.269Q50.6918 363.567 48.8954 363.567L47.9487 363.567L47.9487 362.565L51.62 357.97L44.8501 357.97L44.8501 356.76L53.3609 356.76L53.3609 357.726L49.6158 362.436ZM61.0597 370.115Q59.5265 370.115 58.3259 369.303Q57.1252 368.485 56.451 366.966Q55.7814 365.442 55.7814 363.378Q55.7814 361.318 56.451 359.794Q57.1252 358.271 58.3259 357.458Q59.5265 356.645 61.0597 356.645Q62.5928 356.645 63.7935 357.458Q64.9941 358.271 65.673 359.794Q66.3564 361.318 66.3564 363.378Q66.3564 365.442 65.673 366.966Q64.9941 368.485 63.7935 369.303Q62.5928 370.115 61.0597 370.115ZM61.0597 368.864Q62.2141 368.864 63.0915 368.222Q63.9736 367.58 64.4631 366.352Q64.9572 365.119 64.9572 363.378Q64.9572 361.642 64.4631 360.413Q63.9736 359.18 63.0915 358.538Q62.2141 357.896 61.0597 357.896Q59.9052 357.896 59.0232 358.538Q58.1458 359.18 57.6516 360.413Q57.1621 361.642 57.1621 363.378Q57.1621 365.119 57.6516 366.352Q58.1458 367.58 59.0232 368.222Q59.9052 368.864 61.0597 368.864ZM71.1016 363.854Q69.7577 363.854 68.9358 362.861Q68.1138 361.868 68.1138 360.261Q68.1138 358.649 68.9358 357.656Q69.7577 356.663 71.1016 356.663Q72.4269 356.663 73.2581 357.647Q74.0893 358.631 74.0893 360.261Q74.0893 361.886 73.2581 362.87Q72.4269 363.854 71.1016 363.854ZM79.1229 356.76L80.2404 356.76L71.1985 370L70.081 370L79.1229 356.76ZM71.1016 362.999Q72.0298 362.999 72.5885 362.274Q73.1473 361.545 73.1473 360.261Q73.1473 358.972 72.5885 358.247Q72.0298 357.518 71.1016 357.518Q70.1549 357.518 69.6053 358.257Q69.0604 358.991 69.0604 360.261Q69.0604 361.526 69.6053 362.265Q70.1549 362.999 71.1016 362.999ZM79.2152 370.092Q77.8945 370.092 77.0587 369.1Q76.2274 368.107 76.2274 366.5Q76.2274 364.893 77.0587 363.9Q77.8945 362.907 79.2152 362.907Q80.559 362.907 81.381 363.9Q82.2076 364.893 82.2076 366.5Q82.2076 368.107 81.381 369.1Q80.559 370.092 79.2152 370.092ZM79.2152 369.243Q80.1619 369.243 80.7114 368.508Q81.261 367.77 81.261 366.5Q81.261 365.234 80.7114 364.495Q80.1619 363.757 79.2152 363.757Q78.2916 363.757 77.7329 364.486Q77.1741 365.216 77.1741 366.5Q77.1741 367.788 77.7329 368.518Q78.2916 369.243 79.2152 369.243Z" fill="#000000" fill-opacity="1.000000" fill-rule="evenodd"/>
	<path id="40%" d="M54.5324 316.518L51.8864 316.518L51.8864 320L50.5241 320L50.5241 316.518L43.0523 316.518L43.0523 315.534L50.0669 306.76L51.5816 306.76L44.8117 315.308L50.561 315.308L50.561 312.247L51.8864 312.247L51.8864 315.308L54.5324 315.308L54.5324 316.518ZM61.0597 320.115Q59.5265 320.115 58.3259 319.303Q57.1252 318.485 56.451 316.966Q55.7814 315.442 55.7814 313.378Q55.7814 311.318 56.451 309.794Q57.1252 308.271 58.3259 307.458Q59.5265 306.645 61.0597 306.645Q62.5928 306.645 63.7935 307.458Q64.9941 308.271 65.673 309.794Q66.3564 311.318 66.3564 313.378Q66.3564 315.442 65.673 316.966Q64.9941 318.485 63.7935 319.303Q62.5928 320.115 61.0597 320.115ZM61.0597 318.864Q62.2141 318.864 63.0915 318.222Q63.9736 317.58 64.4631 316.352Q64.9572 315.119 64.9572 313.378Q64.9572 311.642 64.4631 310.413Q63.9736 309.18 63.0915 308.538Q62.2141 307.896 61.0597 307.896Q59.9052 307.896 59.0232 308.538Q58.1458 309.18 57.6516 310.413Q57.1621 311.642 57.1621 313.378Q57.1621 315.119 57.6516 316.352Q58.1458 317.58 59.0232 318.222Q59.9052 318.864 61.0597 318.864ZM71.1015 313.854Q69.7577 313.854 68.9357 312.861Q68.1138 311.868 68.1138 310.261Q68.1138 308.649 68.9357 307.656Q69.7577 306.663 71.1015 306.663Q72.4269 306.663 73.2581 307.647Q74.0893 308.631 74.0893 310.261Q74.0893 311.886 73.2581 312.87Q72.4269 313.854 71.1015 313.854ZM79.1229 306.76L80.2404 306.76L71.1985 320L70.081 320L79.1229 306.76ZM71.1015 312.999Q72.0298 312.999 72.5885 312.274Q73.1473 311.545 73.1473 310.261Q73.1473 308.972 72.5885 308.247Q72.0298 307.518 71.1015 307.518Q70.1549 307.518 69.6053 308.257Q69.0604 308.991 69.0604 310.261Q69.0604 311.526 69.6053 312.265Q70.1549 312.999 71.1015 312.999ZM79.2152 320.092Q77.8945 320.092 77.0587 319.1Q76.2274 318.107 76.2274 316.5Q76.2274 314.893 77.0587 313.9Q77.8945 312.907 79.2152 312.907Q80.559 312.907 81.381 313.9Q82.2076 314.893 82.2076 316.5Q82.2076 318.107 81.381 319.1Q80.559 320.092 79.2152 320.092ZM79.2152 319.243Q80.1619 319.243 80.7114 318.508Q81.261 317.77 81.261 316.5Q81.261 315.234 80.7114 314.495Q80.1619 313.757 79.2152 313.757Q78.2916 313.757 77.7329 314.486Q77.1741 315.216 77.1741 316.5Q77.1741 317.788 77.7329 318.518Q78.2916 319.243 79.2152 319.243Z" fill="#000000" fill-opacity="1.000000" fill-rule="evenodd"/>
	<path id="50%" d="M48.5574 262.186Q51.4298 262.186 52.7459 263.221Q54.062 264.251 54.062 266.102Q54.062 267.257 53.5217 268.167Q52.9814 269.072 51.9008 269.594Q50.8248 270.115 49.2547 270.115Q47.837 270.115 46.5578 269.654Q45.2833 269.187 44.5075 268.411L45.1679 267.331Q45.8328 268.014 46.9088 268.439Q47.9894 268.864 49.2362 268.864Q50.8802 268.864 51.7807 268.13Q52.6812 267.391 52.6812 266.163Q52.6812 264.8 51.6653 264.098Q50.6539 263.396 48.2526 263.396L45.4357 263.396L46.1145 256.76L53.36 256.76L53.36 257.97L47.306 257.97L46.8534 262.186L48.5574 262.186ZM61.0597 270.115Q59.5265 270.115 58.3259 269.303Q57.1252 268.485 56.451 266.966Q55.7814 265.442 55.7814 263.378Q55.7814 261.318 56.451 259.794Q57.1252 258.271 58.3259 257.458Q59.5265 256.645 61.0597 256.645Q62.5928 256.645 63.7935 257.458Q64.9941 258.271 65.673 259.794Q66.3564 261.318 66.3564 263.378Q66.3564 265.442 65.673 266.966Q64.9941 268.485 63.7935 269.303Q62.5928 270.115 61.0597 270.115ZM61.0597 268.864Q62.2141 268.864 63.0915 268.222Q63.9736 267.58 64.4631 266.352Q64.9572 265.119 64.9572 263.378Q64.9572 261.642 64.4631 260.413Q63.9736 259.18 63.0915 258.538Q62.2141 257.896 61.0597 257.896Q59.9052 257.896 59.0232 258.538Q58.1458 259.18 57.6516 260.413Q57.1621 261.642 57.1621 263.378Q57.1621 265.119 57.6516 266.352Q58.1458 267.58 59.0232 268.222Q59.9052 268.864 61.0597 268.864ZM71.1016 263.854Q69.7577 263.854 68.9358 262.861Q68.1138 261.868 68.1138 260.261Q68.1138 258.649 68.9358 257.656Q69.7577 256.663 71.1016 256.663Q72.4269 256.663 73.2581 257.647Q74.0893 258.631 74.0893 260.261Q74.0893 261.886 73.2581 262.87Q72.4269 263.854 71.1016 263.854ZM79.1229 256.76L80.2404 256.76L71.1985 270L70.081 270L79.1229 256.76ZM71.1016 262.999Q72.0298 262.999 72.5885 262.274Q73.1473 261.545 73.1473 260.261Q73.1473 258.972 72.5885 258.247Q72.0298 257.518 71.1016 257.518Q70.1549 257.518 69.6053 258.257Q69.0604 258.991 69.0604 260.261Q69.0604 261.526 69.6053 262.265Q70.1549 262.999 71.1016 262.999ZM79.2152 270.092Q77.8945 270.092 77.0587 269.1Q76.2274 268.107 76.2274 266.5Q76.2274 264.893 77.0587 263.9Q77.8945 262.907 79.2152 262.907Q80.559 262.907 81.381 263.9Q82.2076 264.893 82.2076 266.5Q82.2076 268.107 81.381 269.1Q80.559 270.092 79.2152 270.092ZM79.2152 269.243Q80.1619 269.243 80.7114 268.508Q81.261 267.77 81.261 266.5Q81.261 265.234 80.7114 264.495Q80.1619 263.757 79.2152 263.757Q78.2916 263.757 77.7329 264.486Q77.1741 265.216 77.1741 266.5Q77.1741 267.788 77.7329 268.518Q78.2916 269.243 79.2152 269.243Z" fill="#000000" fill-opacity="1.000000" fill-rule="evenodd"/>
	<path id="60%" d="M49.7482 212.076Q51.0505 212.076 52.0618 212.57Q53.0778 213.059 53.6411 213.96Q54.2091 214.856 54.2091 216.047Q54.2091 217.257 53.6227 218.185Q53.0408 219.109 52.0064 219.612Q50.9766 220.115 49.6928 220.115Q47.0606 220.115 45.6614 218.384Q44.2622 216.652 44.2622 213.493Q44.2622 211.281 45.0195 209.748Q45.7768 208.215 47.1345 207.43Q48.4968 206.645 50.3162 206.645Q52.2835 206.645 53.4564 207.365L52.9069 208.46Q51.9602 207.836 50.3347 207.836Q48.1412 207.836 46.8898 209.226Q45.6429 210.616 45.6429 213.267Q45.6429 213.738 45.6983 214.343Q46.1924 213.267 47.2684 212.671Q48.349 212.076 49.7482 212.076ZM49.6328 218.961Q51.0736 218.961 51.9695 218.176Q52.8699 217.391 52.8699 216.084Q52.8699 214.782 51.9695 214.006Q51.0736 213.23 49.5404 213.23Q48.5383 213.23 47.7718 213.609Q47.0052 213.983 46.5665 214.648Q46.1324 215.308 46.1324 216.121Q46.1324 216.878 46.5388 217.525Q46.9498 218.167 47.7441 218.564Q48.5383 218.961 49.6328 218.961ZM61.0597 220.115Q59.5265 220.115 58.3259 219.303Q57.1252 218.485 56.451 216.966Q55.7814 215.442 55.7814 213.378Q55.7814 211.318 56.451 209.794Q57.1252 208.27 58.3259 207.458Q59.5265 206.645 61.0597 206.645Q62.5928 206.645 63.7935 207.458Q64.9941 208.27 65.673 209.794Q66.3564 211.318 66.3564 213.378Q66.3564 215.442 65.673 216.966Q64.9941 218.485 63.7935 219.303Q62.5928 220.115 61.0597 220.115ZM61.0597 218.864Q62.2141 218.864 63.0915 218.222Q63.9736 217.58 64.4631 216.352Q64.9572 215.119 64.9572 213.378Q64.9572 211.642 64.4631 210.413Q63.9736 209.18 63.0915 208.538Q62.2141 207.896 61.0597 207.896Q59.9052 207.896 59.0232 208.538Q58.1458 209.18 57.6516 210.413Q57.1621 211.642 57.1621 213.378Q57.1621 215.119 57.6516 216.352Q58.1458 217.58 59.0232 218.222Q59.9052 218.864 61.0597 218.864ZM71.1016 213.854Q69.7577 213.854 68.9358 212.861Q68.1138 211.868 68.1138 210.261Q68.1138 208.649 68.9358 207.656Q69.7577 206.663 71.1016 206.663Q72.4269 206.663 73.2581 207.647Q74.0893 208.631 74.0893 210.261Q74.0893 211.886 73.2581 212.87Q72.4269 213.854 71.1016 213.854ZM79.1229 206.76L80.2404 206.76L71.1985 220L70.081 220L79.1229 206.76ZM71.1016 212.999Q72.0298 212.999 72.5885 212.274Q73.1473 211.545 73.1473 210.261Q73.1473 208.972 72.5885 208.247Q72.0298 207.518 71.1016 207.518Q70.1549 207.518 69.6053 208.257Q69.0604 208.991 69.0604 210.261Q69.0604 211.526 69.6053 212.265Q70.1549 212.999 71.1016 212.999ZM79.2152 220.092Q77.8945 220.092 77.0587 219.1Q76.2274 218.107 76.2274 216.5Q76.2274 214.893 77.0587 213.9Q77.8945 212.907 79.2152 212.907Q80.559 212.907 81.381 213.9Q82.2076 214.893 82.2076 216.5Q82.2076 218.107 81.381 219.1Q80.559 220.092 79.2152 220.092ZM79.2152 219.243Q80.1619 219.243 80.7114 218.508Q81.261 217.77 81.261 216.5Q81.261 215.234 80.7114 214.495Q80.1619 213.757 79.2152 213.757Q78.2916 213.757 77.7329 214.486Q77.1741 215.216 77.1741 216.5Q77.1741 217.788 77.7329 218.518Q78.2916 219.243 79.2152 219.243Z" fill="#000000" fill-opacity="1.000000" fill-rule="evenodd"/>
	<path id="70%" d="M54.3608 156.76L54.3608 157.726L48.8193 170L47.3462 170L52.7907 157.97L45.9839 157.97L45.9839 160.45L44.6401 160.45L44.6401 156.76L54.3608 156.76ZM61.0597 170.115Q59.5265 170.115 58.3259 169.303Q57.1252 168.485 56.451 166.966Q55.7814 165.442 55.7814 163.378Q55.7814 161.318 56.451 159.794Q57.1252 158.27 58.3259 157.458Q59.5265 156.645 61.0597 156.645Q62.5928 156.645 63.7935 157.458Q64.9941 158.27 65.673 159.794Q66.3564 161.318 66.3564 163.378Q66.3564 165.442 65.673 166.966Q64.9941 168.485 63.7935 169.303Q62.5928 170.115 61.0597 170.115ZM61.0597 168.864Q62.2141 168.864 63.0915 168.222Q63.9736 167.58 64.4631 166.352Q64.9572 165.119 64.9572 163.378Q64.9572 161.642 64.4631 160.413Q63.9736 159.18 63.0915 158.538Q62.2141 157.896 61.0597 157.896Q59.9052 157.896 59.0232 158.538Q58.1458 159.18 57.6516 160.413Q57.1621 161.642 57.1621 163.378Q57.1621 165.119 57.6516 166.352Q58.1458 167.58 59.0232 168.222Q59.9052 168.864 61.0597 168.864ZM71.1016 163.854Q69.7577 163.854 68.9358 162.861Q68.1138 161.868 68.1138 160.261Q68.1138 158.649 68.9358 157.656Q69.7577 156.663 71.1016 156.663Q72.4269 156.663 73.2581 157.647Q74.0893 158.631 74.0893 160.261Q74.0893 161.886 73.2581 162.87Q72.4269 163.854 71.1016 163.854ZM79.1229 156.76L80.2404 156.76L71.1985 170L70.081 170L79.1229 156.76ZM71.1016 162.999Q72.0298 162.999 72.5885 162.274Q73.1473 161.545 73.1473 160.261Q73.1473 158.972 72.5885 158.247Q72.0298 157.518 71.1016 157.518Q70.1549 157.518 69.6053 158.257Q69.0604 158.991 69.0604 160.261Q69.0604 161.526 69.6053 162.265Q70.1549 162.999 71.1016 162.999ZM79.2152 170.092Q77.8945 170.092 77.0587 169.1Q76.2274 168.107 76.2274 166.5Q76.2274 164.893 77.0587 163.9Q77.8945 162.907 79.2152 162.907Q80.559 162.907 81.381 163.9Q82.2076 164.893 82.2076 166.5Q82.2076 168.107 81.381 169.1Q80.559 170.092 79.2152 170.092ZM79.2152 169.243Q80.1619 169.243 80.7114 168.508Q81.261 167.77 81.261 166.5Q81.261 165.234 80.7114 164.495Q80.1619 163.757 79.2152 163.757Q78.2916 163.757 77.7329 164.486Q77.1741 165.216 77.1741 166.5Q77.1741 167.788 77.7329 168.518Q78.2916 169.243 79.2152 169.243Z" fill="#000000" fill-opacity="1.000000" fill-rule="evenodd"/>
	<path id="80%" d="M51.2962 113.059Q52.5477 113.475 53.2173 114.306Q53.8915 115.137 53.8915 116.31Q53.8915 117.465 53.2635 118.328Q52.6401 119.187 51.4763 119.654Q50.3126 120.115 48.7472 120.115Q46.3597 120.115 44.9974 119.095Q43.6397 118.07 43.6397 116.31Q43.6397 115.119 44.2909 114.297Q44.942 113.475 46.1934 113.059Q45.1683 112.662 44.6372 111.914Q44.1108 111.166 44.1108 110.145Q44.1108 108.538 45.3668 107.592Q46.6275 106.645 48.7472 106.645Q50.1464 106.645 51.1946 107.074Q52.2429 107.499 52.8294 108.294Q53.4159 109.088 53.4159 110.145Q53.4159 111.166 52.8663 111.914Q52.3214 112.662 51.2962 113.059ZM45.473 110.182Q45.473 111.281 46.3412 111.923Q47.214 112.565 48.7472 112.565Q50.2757 112.565 51.1531 111.923Q52.0351 111.281 52.0351 110.201Q52.0351 109.088 51.1346 108.446Q50.2387 107.799 48.7472 107.799Q47.2325 107.799 46.3505 108.446Q45.473 109.088 45.473 110.182ZM48.7472 118.961Q50.502 118.961 51.4948 118.241Q52.4923 117.52 52.4923 116.292Q52.4923 115.063 51.4948 114.357Q50.502 113.646 48.7472 113.646Q47.0062 113.646 46.0133 114.357Q45.0205 115.063 45.0205 116.292Q45.0205 117.543 46.0041 118.254Q46.9877 118.961 48.7472 118.961ZM61.0597 120.115Q59.5265 120.115 58.3259 119.303Q57.1252 118.485 56.451 116.966Q55.7814 115.442 55.7814 113.378Q55.7814 111.318 56.451 109.794Q57.1252 108.27 58.3259 107.458Q59.5265 106.645 61.0597 106.645Q62.5928 106.645 63.7935 107.458Q64.9941 108.27 65.673 109.794Q66.3564 111.318 66.3564 113.378Q66.3564 115.442 65.673 116.966Q64.9941 118.485 63.7935 119.303Q62.5928 120.115 61.0597 120.115ZM61.0597 118.864Q62.2141 118.864 63.0915 118.222Q63.9736 117.58 64.4631 116.352Q64.9572 115.119 64.9572 113.378Q64.9572 111.642 64.4631 110.413Q63.9736 109.18 63.0915 108.538Q62.2141 107.896 61.0597 107.896Q59.9052 107.896 59.0232 108.538Q58.1458 109.18 57.6516 110.413Q57.1621 111.642 57.1621 113.378Q57.1621 115.119 57.6516 116.352Q58.1458 117.58 59.0232 118.222Q59.9052 118.864 61.0597 118.864ZM71.1016 113.854Q69.7577 113.854 68.9358 112.861Q68.1138 111.868 68.1138 110.261Q68.1138 108.649 68.9358 107.656Q69.7577 106.663 71.1016 106.663Q72.4269 106.663 73.2581 107.647Q74.0893 108.631 74.0893 110.261Q74.0893 111.886 73.2581 112.87Q72.4269 113.854 71.1016 113.854ZM79.1229 106.76L80.2404 106.76L71.1985 120L70.081 120L79.1229 106.76ZM71.1016 112.999Q72.0298 112.999 72.5885 112.274Q73.1473 111.545 73.1473 110.261Q73.1473 108.972 72.5885 108.247Q72.0298 107.518 71.1016 107.518Q70.1549 107.518 69.6053 108.257Q69.0604 108.991 69.0604 110.261Q69.0604 111.526 69.6053 112.265Q70.1549 112.999 71.1016 112.999ZM79.2152 120.092Q77.8945 120.092 77.0587 119.1Q76.2274 118.107 76.2274 116.5Q76.2274 114.893 77.0587 113.9Q77.8945 112.907 79.2152 112.907Q80.559 112.907 81.381 113.9Q82.2076 114.893 82.2076 116.5Q82.2076 118.107 81.381 119.1Q80.559 120.092 79.2152 120.092ZM79.2152 119.243Q80.1619 119.243 80.7114 118.508Q81.261 117.77 81.261 116.5Q81.261 115.234 80.7114 114.495Q80.1619 113.757 79.2152 113.757Q78.2916 113.757 77.7329 114.486Q77.1741 115.216 77.1741 116.5Q77.1741 117.788 77.7329 118.518Q78.2916 119.243 79.2152 119.243Z" fill="#000000" fill-opacity="1.000000" fill-rule="evenodd"/>
	<path id="90%" d="M48.386 56.645Q51.0135 56.645 52.4128 58.3767Q53.812 60.1084 53.812 63.2671Q53.812 65.4791 53.0547 67.0122Q52.3019 68.5454 50.9397 69.3304Q49.5774 70.1154 47.7625 70.1154Q45.7953 70.1154 44.6224 69.3951L45.1719 68.296Q46.1139 68.924 47.7441 68.924Q49.9376 68.924 51.1844 67.534Q52.4312 66.1394 52.4312 63.4934Q52.4312 62.9992 52.3758 62.4174Q51.8863 63.4934 50.8057 64.0891Q49.7298 64.6848 48.3305 64.6848Q47.0237 64.6848 46.0123 64.1953Q45.001 63.7012 44.433 62.8053Q43.865 61.9048 43.865 60.7134Q43.865 59.5035 44.4515 58.5753Q45.038 57.6471 46.0678 57.1483Q47.0976 56.645 48.386 56.645ZM48.5383 63.5303Q49.5404 63.5303 50.307 63.1516Q51.0736 62.773 51.5077 62.1126Q51.9417 61.4522 51.9417 60.6349Q51.9417 59.8821 51.5354 59.2403Q51.129 58.5938 50.3347 58.1966Q49.5404 57.7995 48.4414 57.7995Q47.0052 57.7995 46.1047 58.5845Q45.2088 59.3696 45.2088 60.6764Q45.2088 61.9787 46.1047 62.7545Q47.0052 63.5303 48.5383 63.5303ZM61.0597 70.1154Q59.5265 70.1154 58.3259 69.3027Q57.1252 68.4853 56.451 66.966Q55.7814 65.4421 55.7814 63.3779Q55.7814 61.3183 56.451 59.7944Q57.1252 58.2705 58.3259 57.4577Q59.5265 56.645 61.0597 56.645Q62.5928 56.645 63.7935 57.4577Q64.9941 58.2705 65.673 59.7944Q66.3564 61.3183 66.3564 63.3779Q66.3564 65.4421 65.673 66.966Q64.9941 68.4853 63.7935 69.3027Q62.5928 70.1154 61.0597 70.1154ZM61.0597 68.864Q62.2141 68.864 63.0915 68.2221Q63.9736 67.5802 64.4631 66.3518Q64.9572 65.1189 64.9572 63.3779Q64.9572 61.6416 64.4631 60.4132Q63.9736 59.1802 63.0915 58.5383Q62.2141 57.8964 61.0597 57.8964Q59.9052 57.8964 59.0232 58.5383Q58.1458 59.1802 57.6516 60.4132Q57.1621 61.6416 57.1621 63.3779Q57.1621 65.1189 57.6516 66.3518Q58.1458 67.5802 59.0232 68.2221Q59.9052 68.864 61.0597 68.864ZM71.1016 63.8536Q69.7577 63.8536 68.9358 62.8607Q68.1138 61.8679 68.1138 60.2608Q68.1138 58.6492 68.9358 57.6563Q69.7577 56.6635 71.1016 56.6635Q72.4269 56.6635 73.2581 57.6471Q74.0893 58.6307 74.0893 60.2608Q74.0893 61.8863 73.2581 62.8699Q72.4269 63.8536 71.1016 63.8536ZM79.1229 56.7604L80.2404 56.7604L71.1985 70L70.081 70L79.1229 56.7604ZM71.1016 62.9992Q72.0298 62.9992 72.5885 62.2742Q73.1473 61.5446 73.1473 60.2608Q73.1473 58.9724 72.5885 58.2474Q72.0298 57.5178 71.1016 57.5178Q70.1549 57.5178 69.6053 58.2566Q69.0604 58.9909 69.0604 60.2608Q69.0604 61.5261 69.6053 62.265Q70.1549 62.9992 71.1016 62.9992ZM79.2152 70.0924Q77.8945 70.0924 77.0587 69.0995Q76.2274 68.1067 76.2274 66.4996Q76.2274 64.8926 77.0587 63.8997Q77.8945 62.9069 79.2152 62.9069Q80.559 62.9069 81.381 63.8997Q82.2076 64.8926 82.2076 66.4996Q82.2076 68.1067 81.381 69.0995Q80.559 70.0924 79.2152 70.0924ZM79.2152 69.2427Q80.1619 69.2427 80.7114 68.5084Q81.261 67.7695 81.261 66.4996Q81.261 65.2343 80.7114 64.4954Q80.1619 63.7566 79.2152 63.7566Q78.2916 63.7566 77.7329 64.4862Q77.1741 65.2158 77.1741 66.4996Q77.1741 67.788 77.7329 68.5176Q78.2916 69.2427 79.2152 69.2427Z" fill="#000000" fill-opacity="1.000000" fill-rule="evenodd"/>
	<path id="100%" d="M40.1026 6.76044L40.1026 20L38.7403 20L38.7403 7.97033L35.6186 7.97033L35.6186 6.76044L40.1026 6.76044ZM48.5379 20.1154Q47.0048 20.1154 45.8041 19.3027Q44.6035 18.4853 43.9293 16.966Q43.2597 15.4421 43.2597 13.3779Q43.2597 11.3183 43.9293 9.79441Q44.6035 8.2705 45.8041 7.45774Q47.0048 6.64499 48.5379 6.64499Q50.0711 6.64499 51.2717 7.45774Q52.4724 8.2705 53.1512 9.79441Q53.8347 11.3183 53.8347 13.3779Q53.8347 15.4421 53.1512 16.966Q52.4724 18.4853 51.2717 19.3027Q50.0711 20.1154 48.5379 20.1154ZM48.5379 18.864Q49.6924 18.864 50.5698 18.2221Q51.4518 17.5802 51.9413 16.3518Q52.4355 15.1189 52.4355 13.3779Q52.4355 11.6416 51.9413 10.4132Q51.4518 9.18023 50.5698 8.53833Q49.6924 7.89644 48.5379 7.89644Q47.3835 7.89644 46.5014 8.53833Q45.624 9.18023 45.1299 10.4132Q44.6404 11.6416 44.6404 13.3779Q44.6404 15.1189 45.1299 16.3518Q45.624 17.5802 46.5014 18.2221Q47.3835 18.864 48.5379 18.864ZM61.0597 20.1154Q59.5265 20.1154 58.3259 19.3027Q57.1252 18.4853 56.451 16.966Q55.7814 15.4421 55.7814 13.3779Q55.7814 11.3183 56.451 9.79441Q57.1252 8.2705 58.3259 7.45774Q59.5265 6.64499 61.0597 6.64499Q62.5928 6.64499 63.7935 7.45774Q64.9941 8.2705 65.673 9.79441Q66.3564 11.3183 66.3564 13.3779Q66.3564 15.4421 65.673 16.966Q64.9941 18.4853 63.7935 19.3027Q62.5928 20.1154 61.0597 20.1154ZM61.0597 18.864Q62.2141 18.864 63.0915 18.2221Q63.9736 17.5802 64.4631 16.3518Q64.9572 15.1189 64.9572 13.3779Q64.9572 11.6416 64.4631 10.4132Q63.9736 9.18023 63.0915 8.53833Q62.2141 7.89644 61.0597 7.89644Q59.9052 7.89644 59.0232 8.53833Q58.1458 9.18023 57.6516 10.4132Q57.1621 11.6416 57.1621 13.3779Q57.1621 15.1189 57.6516 16.3518Q58.1458 17.5802 59.0232 18.2221Q59.9052 18.864 61.0597 18.864ZM71.1016 13.8536Q69.7577 13.8536 68.9358 12.8607Q68.1138 11.8679 68.1138 10.2608Q68.1138 8.64917 68.9358 7.65631Q69.7577 6.66346 71.1016 6.66346Q72.4269 6.66346 73.2581 7.64708Q74.0893 8.63069 74.0893 10.2608Q74.0893 11.8863 73.2581 12.8699Q72.4269 13.8536 71.1016 13.8536ZM79.1229 6.76044L80.2404 6.76044L71.1985 20L70.081 20L79.1229 6.76044ZM71.1016 12.9992Q72.0298 12.9992 72.5885 12.2742Q73.1473 11.5446 73.1473 10.2608Q73.1473 8.97242 72.5885 8.24741Q72.0298 7.51778 71.1016 7.51778Q70.1549 7.51778 69.6053 8.25664Q69.0604 8.99089 69.0604 10.2608Q69.0604 11.5261 69.6053 12.265Q70.1549 12.9992 71.1016 12.9992ZM79.2152 20.0924Q77.8945 20.0924 77.0587 19.0995Q76.2274 18.1067 76.2274 16.4996Q76.2274 14.8926 77.0587 13.8997Q77.8945 12.9069 79.2152 12.9069Q80.559 12.9069 81.381 13.8997Q82.2076 14.8926 82.2076 16.4996Q82.2076 18.1067 81.381 19.0995Q80.559 20.0924 79.2152 20.0924ZM79.2152 19.2427Q80.1619 19.2427 80.7114 18.5084Q81.261 17.7695 81.261 16.4996Q81.261 15.2343 80.7114 14.4954Q80.1619 13.7566 79.2152 13.7566Q78.2916 13.7566 77.7329 14.4862Q77.1741 15.2158 77.1741 16.4996Q77.1741 17.788 77.7329 18.5176Q78.2916 19.2427 79.2152 19.2427Z" fill="#000000" fill-opacity="1.000000" fill-rule="evenodd"/>
	<path id="image 9 (Traced)" d="M563.08 553.151C562.415 553.396 561.907 554.223 562.015 554.884C562.131 555.601 562.317 555.814 566.566 560.095C572.155 565.724 572.155 564.366 566.566 569.996C563.454 573.131 562.372 574.271 562.237 574.555C561.462 576.197 562.896 577.573 564.534 576.758C565.134 576.46 575.075 566.485 575.359 565.897C575.995 564.581 576.077 564.691 570.019 558.625C564.119 552.718 564.164 552.753 563.08 553.151ZM573.272 553.403C572.541 553.843 572.293 554.771 572.686 555.602C572.829 555.905 573.813 556.944 576.981 560.135C582.522 565.717 582.528 564.368 576.94 569.996C573.828 573.131 572.746 574.271 572.611 574.555C571.835 576.197 573.271 577.574 574.908 576.758C575.527 576.449 585.382 566.568 585.692 565.945C586.37 564.583 586.426 564.66 580.477 558.703C574.523 552.742 574.457 552.692 573.272 553.403Z" fill="url(#paint_linear_79_4260_0)" fill-opacity="1.000000" fill-rule="evenodd"/>
	<path id="До лікування" d="M388.276 678.393L388.276 685.592L385.493 685.592L385.493 681L368.208 681L368.179 685.592L365.388 685.592L365.417 678.393L366.443 678.393Q368.42 678.268 369.226 675.258Q370.039 672.24 370.222 666.747L370.427 660.001L385.193 660.001L385.193 678.393L388.276 678.393ZM372.859 667.018Q372.712 671.457 372.156 674.372Q371.599 677.279 370.369 678.393L382.219 678.393L382.219 662.609L373.013 662.609L372.859 667.018ZM398.362 681.183Q395.989 681.183 394.099 680.136Q392.21 679.081 391.14 677.235Q390.078 675.39 390.078 673.053Q390.078 670.709 391.14 668.864Q392.21 667.018 394.099 665.985Q395.989 664.953 398.362 664.953Q400.728 664.953 402.603 665.985Q404.478 667.018 405.54 668.864Q406.609 670.709 406.609 673.053Q406.609 675.39 405.54 677.235Q404.478 679.081 402.603 680.136Q400.728 681.183 398.362 681.183ZM398.362 678.664Q399.885 678.664 401.101 677.96Q402.317 677.25 403.006 675.976Q403.701 674.701 403.701 673.053Q403.701 671.398 403.006 670.124Q402.317 668.849 401.101 668.161Q399.885 667.472 398.362 667.472Q396.831 667.472 395.615 668.161Q394.4 668.849 393.689 670.124Q392.986 671.398 392.986 673.053Q392.986 674.701 393.689 675.976Q394.4 677.25 395.615 677.96Q396.831 678.664 398.362 678.664ZM432.503 665.099L432.503 681L429.617 681L429.617 667.619L422.784 667.619L422.601 671.164Q422.447 674.372 422.029 676.518Q421.612 678.664 420.652 679.953Q419.693 681.242 417.979 681.242Q417.203 681.242 416.206 680.971L416.39 678.539Q416.778 678.627 417.107 678.627Q418.309 678.627 418.909 677.58Q419.51 676.532 419.685 675.089Q419.869 673.646 420.022 670.98L420.293 665.099L432.503 665.099ZM438.081 665.099L440.959 665.099L440.959 681L438.081 681L438.081 665.099ZM439.516 662.038Q438.681 662.038 438.124 661.503Q437.568 660.961 437.568 660.177Q437.568 659.401 438.124 658.844Q438.681 658.288 439.516 658.288Q440.358 658.288 440.908 658.815Q441.464 659.342 441.464 660.119Q441.464 660.932 440.908 661.488Q440.358 662.038 439.516 662.038ZM452.752 674.276L449.449 674.276L449.449 681L446.571 681L446.571 665.099L449.449 665.099L449.449 671.823L452.811 671.823L457.967 665.099L461.058 665.099L455.03 672.753L461.483 681L458.092 681L452.752 674.276ZM477.805 665.099L470.092 682.589Q469.074 685.021 467.705 686.01Q466.342 686.999 464.424 686.999Q463.252 686.999 462.153 686.625Q461.062 686.251 460.344 685.526L461.574 683.373Q462.805 684.538 464.424 684.538Q465.471 684.538 466.174 683.981Q466.884 683.432 467.456 682.077L467.961 680.971L460.945 665.099L463.94 665.099L469.492 677.821L474.985 665.099L477.805 665.099ZM491.573 672.753Q494.657 673.529 494.657 676.62Q494.657 678.722 493.082 679.865Q491.507 681 488.387 681L480.741 681L480.741 665.099L488.123 665.099Q490.943 665.099 492.533 666.168Q494.122 667.23 494.122 669.179Q494.122 670.438 493.441 671.354Q492.767 672.27 491.573 672.753ZM483.56 671.94L487.882 671.94Q489.53 671.94 490.387 671.339Q491.243 670.739 491.243 669.604Q491.243 667.318 487.882 667.318L483.56 667.318L483.56 671.94ZM488.182 678.781Q489.976 678.781 490.877 678.209Q491.778 677.638 491.778 676.437Q491.778 675.207 490.95 674.613Q490.13 674.013 488.358 674.013L483.56 674.013L483.56 678.781L488.182 678.781ZM504.829 664.953Q508.133 664.953 509.883 666.571Q511.641 668.19 511.641 671.398L511.641 681L508.909 681L508.909 678.898Q508.191 680.011 506.851 680.597Q505.518 681.183 503.694 681.183Q501.021 681.183 499.417 679.894Q497.813 678.598 497.813 676.503Q497.813 674.401 499.344 673.126Q500.874 671.852 504.2 671.852L508.763 671.852L508.763 671.281Q508.763 669.42 507.679 668.432Q506.602 667.443 504.5 667.443Q503.094 667.443 501.739 667.912Q500.391 668.373 499.461 669.149L498.26 666.989Q499.49 666 501.197 665.48Q502.911 664.953 504.829 664.953ZM504.17 678.957Q505.818 678.957 507.019 678.224Q508.221 677.492 508.763 676.137L508.763 673.917L504.324 673.917Q500.662 673.917 500.662 676.378Q500.662 677.58 501.592 678.268Q502.522 678.957 504.17 678.957ZM516.831 665.099L519.709 665.099L519.709 671.852L528.769 671.852L528.769 665.099L531.647 665.099L531.647 681L528.769 681L528.769 674.342L519.709 674.342L519.709 681L516.831 681L516.831 665.099ZM537.26 665.099L540.139 665.099L540.139 671.852L549.199 671.852L549.199 665.099L552.077 665.099L552.077 681L549.199 681L549.199 674.342L540.139 674.342L540.139 681L537.26 681L537.26 665.099ZM570.442 665.099L570.442 681L567.857 681L567.857 675.961L563.242 675.961L562.913 675.961L559.426 681L556.343 681L560.21 675.573Q558.408 675.031 557.449 673.786Q556.489 672.541 556.489 670.68Q556.489 667.948 558.35 666.527Q560.21 665.099 563.477 665.099L570.442 665.099ZM559.426 670.768Q559.426 672.357 560.43 673.126Q561.441 673.888 563.447 673.888L567.857 673.888L567.857 667.619L563.572 667.619Q559.426 667.619 559.426 670.768Z" fill="#000000" fill-opacity="1.000000" fill-rule="evenodd"/>
	<rect id="Rectangle 26" x="299.000000" y="645.000000" rx="12.000000" width="46.000000" height="46.000000" fill="url(#paint_linear_79_4266_0)" fill-opacity="1.000000"/>
	<path id="Після лікування" d="M755.357 660.001L755.357 681L752.42 681L752.42 662.609L740.24 662.609L740.24 681L737.267 681L737.267 660.001L755.357 660.001ZM761.421 665.099L764.299 665.099L764.299 681L761.421 681L761.421 665.099ZM762.856 662.038Q762.021 662.038 761.464 661.503Q760.908 660.961 760.908 660.177Q760.908 659.401 761.464 658.844Q762.021 658.288 762.856 658.288Q763.698 658.288 764.248 658.815Q764.804 659.342 764.804 660.119Q764.804 660.932 764.248 661.488Q763.698 662.038 762.856 662.038ZM776.839 681.183Q774.408 681.183 772.503 680.136Q770.599 679.081 769.515 677.235Q768.438 675.39 768.438 673.053Q768.438 670.709 769.515 668.864Q770.599 667.018 772.503 665.985Q774.408 664.953 776.839 664.953Q779 664.953 780.692 665.824Q782.391 666.688 783.321 668.336L781.131 669.75Q780.377 668.607 779.264 668.043Q778.158 667.472 776.81 667.472Q775.25 667.472 774.005 668.161Q772.76 668.849 772.049 670.124Q771.346 671.398 771.346 673.053Q771.346 674.73 772.049 676.005Q772.76 677.279 774.005 677.975Q775.25 678.664 776.81 678.664Q778.158 678.664 779.264 678.092Q780.377 677.521 781.131 676.378L783.321 677.763Q782.391 679.411 780.692 680.297Q779 681.183 776.839 681.183ZM800.213 665.099L800.213 681L797.327 681L797.327 667.619L790.494 667.619L790.311 671.164Q790.157 674.372 789.739 676.518Q789.322 678.664 788.362 679.953Q787.403 681.242 785.689 681.242Q784.913 681.242 783.917 680.971L784.1 678.539Q784.488 678.627 784.817 678.627Q786.019 678.627 786.619 677.58Q787.22 676.532 787.396 675.089Q787.579 673.646 787.732 670.98L788.003 665.099L800.213 665.099ZM818.542 665.099L818.542 681L815.957 681L815.957 675.961L811.342 675.961L811.013 675.961L807.526 681L804.443 681L808.31 675.573Q806.508 675.031 805.549 673.786Q804.589 672.541 804.589 670.68Q804.589 667.948 806.45 666.527Q808.31 665.099 811.577 665.099L818.542 665.099ZM807.526 670.768Q807.526 672.357 808.53 673.126Q809.541 673.888 811.547 673.888L815.957 673.888L815.957 667.619L811.672 667.619Q807.526 667.619 807.526 670.768ZM845.873 665.099L845.873 681L842.987 681L842.987 667.619L836.154 667.619L835.971 671.164Q835.817 674.372 835.399 676.518Q834.982 678.664 834.022 679.953Q833.063 681.242 831.349 681.242Q830.573 681.242 829.576 680.971L829.76 678.539Q830.148 678.627 830.477 678.627Q831.679 678.627 832.279 677.58Q832.88 676.532 833.055 675.089Q833.239 673.646 833.392 670.98L833.663 665.099L845.873 665.099ZM851.451 665.099L854.329 665.099L854.329 681L851.451 681L851.451 665.099ZM852.886 662.038Q852.051 662.038 851.495 661.503Q850.938 660.961 850.938 660.177Q850.938 659.401 851.495 658.844Q852.051 658.288 852.886 658.288Q853.728 658.288 854.278 658.815Q854.834 659.342 854.834 660.119Q854.834 660.932 854.278 661.488Q853.728 662.038 852.886 662.038ZM866.122 674.276L862.819 674.276L862.819 681L859.941 681L859.941 665.099L862.819 665.099L862.819 671.823L866.181 671.823L871.337 665.099L874.428 665.099L868.4 672.753L874.853 681L871.462 681L866.122 674.276ZM891.175 665.099L883.462 682.589Q882.444 685.021 881.075 686.01Q879.712 686.999 877.794 686.999Q876.622 686.999 875.523 686.625Q874.432 686.251 873.714 685.526L874.944 683.373Q876.175 684.538 877.794 684.538Q878.841 684.538 879.544 683.981Q880.254 683.432 880.826 682.077L881.331 680.971L874.315 665.099L877.31 665.099L882.862 677.821L888.355 665.099L891.175 665.099ZM904.943 672.753Q908.027 673.529 908.027 676.62Q908.027 678.722 906.452 679.865Q904.877 681 901.757 681L894.111 681L894.111 665.099L901.493 665.099Q904.313 665.099 905.903 666.168Q907.492 667.23 907.492 669.179Q907.492 670.438 906.811 671.354Q906.137 672.27 904.943 672.753ZM896.93 671.94L901.252 671.94Q902.9 671.94 903.757 671.339Q904.613 670.739 904.613 669.604Q904.613 667.318 901.252 667.318L896.93 667.318L896.93 671.94ZM901.552 678.781Q903.346 678.781 904.247 678.209Q905.148 677.638 905.148 676.437Q905.148 675.207 904.32 674.613Q903.5 674.013 901.728 674.013L896.93 674.013L896.93 678.781L901.552 678.781ZM918.199 664.953Q921.503 664.953 923.253 666.571Q925.011 668.19 925.011 671.398L925.011 681L922.279 681L922.279 678.898Q921.561 680.011 920.221 680.597Q918.888 681.183 917.064 681.183Q914.391 681.183 912.787 679.894Q911.183 678.598 911.183 676.503Q911.183 674.401 912.714 673.126Q914.244 671.852 917.57 671.852L922.133 671.852L922.133 671.281Q922.133 669.42 921.049 668.432Q919.972 667.443 917.87 667.443Q916.464 667.443 915.109 667.912Q913.761 668.373 912.831 669.149L911.63 666.989Q912.86 666 914.567 665.48Q916.281 664.953 918.199 664.953ZM917.54 678.957Q919.188 678.957 920.389 678.224Q921.591 677.492 922.133 676.137L922.133 673.917L917.694 673.917Q914.032 673.917 914.032 676.378Q914.032 677.58 914.962 678.268Q915.892 678.957 917.54 678.957ZM930.201 665.099L933.079 665.099L933.079 671.852L942.139 671.852L942.139 665.099L945.017 665.099L945.017 681L942.139 681L942.139 674.342L933.079 674.342L933.079 681L930.201 681L930.201 665.099ZM950.63 665.099L953.509 665.099L953.509 671.852L962.569 671.852L962.569 665.099L965.447 665.099L965.447 681L962.569 681L962.569 674.342L953.509 674.342L953.509 681L950.63 681L950.63 665.099ZM983.812 665.099L983.812 681L981.227 681L981.227 675.961L976.612 675.961L976.283 675.961L972.796 681L969.713 681L973.58 675.573Q971.778 675.031 970.819 673.786Q969.859 672.541 969.859 670.68Q969.859 667.948 971.72 666.527Q973.58 665.099 976.847 665.099L983.812 665.099ZM972.796 670.768Q972.796 672.357 973.8 673.126Q974.811 673.888 976.817 673.888L981.227 673.888L981.227 667.619L976.942 667.619Q972.796 667.619 972.796 670.768Z" fill="#000000" fill-opacity="1.000000" fill-rule="evenodd"/>
	<rect id="Rectangle 26" x="668.000000" y="645.000000" rx="12.000000" width="46.000000" height="46.000000" fill="url(#paint_linear_79_4269_0)" fill-opacity="1.000000"/>
	<path id="Vector" d="M380.56 111.348L378.74 113.138L390.07 124.363L379.656 124.363C365.094 124.337 351.132 118.607 340.814 108.424C330.498 98.2402 324.662 84.4287 324.581 70L322 70C322.085 85.1055 328.193 99.5654 338.994 110.228C349.794 120.891 364.41 126.891 379.656 126.921L390.07 126.921L378.74 138.197L380.56 140L395 125.642L380.56 111.348Z" fill="#19A056" fill-opacity="1.000000" fill-rule="evenodd"/>
	<path id="Vector" d="M887.56 221.348L885.74 223.138L897.07 234.363L886.656 234.363C872.094 234.337 858.132 228.607 847.814 218.424C837.498 208.24 831.662 194.429 831.581 180L829 180C829.085 195.105 835.193 209.565 845.994 220.228C856.794 230.891 871.41 236.891 886.656 236.921L897.07 236.921L885.74 248.197L887.56 250L902 235.642L887.56 221.348Z" fill="#19A056" fill-opacity="1.000000" fill-rule="evenodd"/>
</svg>
