<svg width="1335.898926" height="507.354980" viewBox="0 0 1335.9 507.355" fill="none" xmlns="http://www.w3.org/2000/svg">
	<desc>
			Created with Pixso.
	</desc>
	<defs>
		<linearGradient id="paint_linear_75_2966_0" x1="196.212387" y1="155.354980" x2="196.212387" y2="618.239624" gradientUnits="userSpaceOnUse">
			<stop stop-color="#BBBBBB"/>
			<stop offset="1.000000" stop-color="#BBBBBB" stop-opacity="0.000000"/>
		</linearGradient>
		<linearGradient id="paint_linear_75_2969_0" x1="335.297119" y1="323.265228" x2="325.712402" y2="440.825714" gradientUnits="userSpaceOnUse">
			<stop stop-color="#7CC700"/>
			<stop offset="1.000000" stop-color="#C6F579"/>
		</linearGradient>
		<linearGradient id="paint_linear_75_2987_0" x1="503.212402" y1="213.354980" x2="503.212402" y2="583.662720" gradientUnits="userSpaceOnUse">
			<stop stop-color="#BBBBBB"/>
			<stop offset="1.000000" stop-color="#BBBBBB" stop-opacity="0.000000"/>
		</linearGradient>
		<linearGradient id="paint_linear_75_2988_0" x1="642.297058" y1="365.790863" x2="632.712402" y2="442.403320" gradientUnits="userSpaceOnUse">
			<stop stop-color="#7CC700"/>
			<stop offset="1.000000" stop-color="#C6F579"/>
		</linearGradient>
		<linearGradient id="paint_linear_75_2992_0" x1="810.212402" y1="183.354980" x2="810.212402" y2="601.547302" gradientUnits="userSpaceOnUse">
			<stop stop-color="#BBBBBB"/>
			<stop offset="1.000000" stop-color="#BBBBBB" stop-opacity="0.000000"/>
		</linearGradient>
		<linearGradient id="paint_linear_75_2993_0" x1="949.297058" y1="375.393433" x2="939.712402" y2="442.759552" gradientUnits="userSpaceOnUse">
			<stop stop-color="#7CC700"/>
			<stop offset="1.000000" stop-color="#C6F579"/>
		</linearGradient>
		<linearGradient id="paint_linear_75_2997_0" x1="1117.212402" y1="56.354980" x2="1117.212402" y2="677.258850" gradientUnits="userSpaceOnUse">
			<stop stop-color="#BBBBBB"/>
			<stop offset="1.000000" stop-color="#BBBBBB" stop-opacity="0.000000"/>
		</linearGradient>
		<linearGradient id="paint_linear_75_2998_0" x1="1256.297119" y1="305.431885" x2="1246.712402" y2="440.164124" gradientUnits="userSpaceOnUse">
			<stop stop-color="#7CC700"/>
			<stop offset="1.000000" stop-color="#C6F579"/>
		</linearGradient>
		<linearGradient id="paint_linear_75_2958_0" x1="414.746277" y1="474.431885" x2="412.813232" y2="506.133575" gradientUnits="userSpaceOnUse">
			<stop stop-color="#7CC700"/>
			<stop offset="1.000000" stop-color="#C6F579"/>
		</linearGradient>
		<linearGradient id="paint_linear_75_3004_0" x1="730.746338" y1="474.431885" x2="728.813293" y2="506.133575" gradientUnits="userSpaceOnUse">
			<stop stop-color="#7CC700"/>
			<stop offset="1.000000" stop-color="#C6F579"/>
		</linearGradient>
		<linearGradient id="paint_linear_75_3005_0" x1="1030.746338" y1="474.431885" x2="1028.813232" y2="506.133575" gradientUnits="userSpaceOnUse">
			<stop stop-color="#7CC700"/>
			<stop offset="1.000000" stop-color="#C6F579"/>
		</linearGradient>
	</defs>
	<path id="К-сть дітей зі скаргами %" d="M13.4692 405.764L13.4692 410.144L22.7124 410.144L22.7124 413.088L1.71387 413.088L1.71387 410.144L10.8325 410.144L10.8325 405.706L1.71387 399.106L1.71387 395.898L11.8799 403.398L22.7124 395.532L22.7124 398.953L13.4692 405.764ZM13.2349 393.858L13.2349 385.787L15.7251 385.787L15.7251 393.858L13.2349 393.858ZM22.8955 374.056Q22.8955 376.487 21.8481 378.392Q20.7935 380.296 18.9478 381.38Q17.102 382.457 14.7656 382.457Q12.4219 382.457 10.5762 381.38Q8.73047 380.296 7.69775 378.392Q6.66504 376.487 6.66504 374.056Q6.66504 371.895 7.53662 370.203Q8.40088 368.504 10.0488 367.574L11.4624 369.764Q10.3198 370.518 9.75586 371.631Q9.18457 372.737 9.18457 374.085Q9.18457 375.645 9.87304 376.89Q10.5615 378.135 11.8359 378.846Q13.1103 379.549 14.7656 379.549Q16.4429 379.549 17.7173 378.846Q18.9917 378.135 19.6875 376.89Q20.376 375.645 20.376 374.085Q20.376 372.737 19.8047 371.631Q19.2334 370.518 18.0908 369.764L19.4751 367.574Q21.123 368.504 22.0093 370.203Q22.8955 371.895 22.8955 374.056ZM9.33105 352.214L9.33105 358.037L22.7124 358.037L22.7124 360.915L9.33105 360.915L9.33105 366.738L6.81152 366.738L6.81152 352.214L9.33105 352.214ZM12.2095 341.928Q12.2388 338.896 13.5937 337.307Q14.9414 335.717 17.4023 335.717Q19.9805 335.717 21.3794 337.446Q22.771 339.167 22.7417 342.375L22.7124 349.274L6.81152 349.274L6.81152 346.396L12.1802 346.396L12.2095 341.928ZM20.5518 342.617Q20.5811 340.668 19.7754 339.665Q18.9624 338.654 17.373 338.654Q15.813 338.654 15.0952 339.628Q14.3701 340.603 14.3408 342.617L14.2822 346.396L20.5225 346.396L20.5518 342.617ZM20.1929 307.783L26.4038 307.783L26.4038 310.485L22.7124 310.485L22.7124 323.771L26.4038 323.771L26.4038 326.503L20.1929 326.503L20.1929 325.668Q20.105 324.138 18.0322 323.566Q15.9595 322.995 12.1802 322.783L6.81152 322.548L6.81152 310.214L20.1929 310.214L20.1929 307.783ZM12.3926 320.146Q15.3955 320.263 17.3584 320.644Q19.3213 321.017 20.1929 322.006L20.1929 313.093L9.33105 313.093L9.33105 319.992L12.3926 320.146ZM6.81152 304.034L6.81152 301.156L22.7124 301.156L22.7124 304.034L6.81152 304.034ZM3.75 302.599Q3.75 303.434 3.21533 303.991Q2.67334 304.547 1.88964 304.547Q1.11328 304.547 0.556636 303.991Q-4.76837e-06 303.434 -4.76837e-06 302.599Q-4.76837e-06 301.757 0.527339 301.207Q1.05468 300.651 1.83105 300.651Q2.64404 300.651 3.20068 301.207Q3.75 301.757 3.75 302.599ZM9.33105 283.694L9.33105 289.517L22.7124 289.517L22.7124 292.395L9.33105 292.395L9.33105 298.218L6.81152 298.218L6.81152 283.694L9.33105 283.694ZM14.8535 267.074Q15.1831 267.074 15.7251 267.133L15.7251 280.038Q17.8198 279.767 19.1016 278.193Q20.376 276.618 20.376 274.274Q20.376 271.425 18.4497 269.689L20.3101 268.1Q21.5698 269.176 22.2363 270.78Q22.8955 272.384 22.8955 274.369Q22.8955 276.889 21.8628 278.837Q20.8227 280.785 18.9624 281.855Q17.102 282.917 14.7656 282.917Q12.4512 282.917 10.5908 281.884Q8.73046 280.844 7.69775 279.035Q6.66503 277.218 6.66503 274.933Q6.66503 272.655 7.69775 270.876Q8.73046 269.089 10.5908 268.085Q12.4512 267.074 14.8535 267.074ZM9.08935 274.933Q9.08935 277.006 10.3491 278.405Q11.6089 279.797 13.6523 280.038L13.6523 269.836Q11.6455 270.077 10.3711 271.476Q9.08935 272.868 9.08935 274.933ZM6.81152 262.604L6.81152 259.726L18.3911 259.726L6.81152 249.978L6.81152 247.363L22.7124 247.363L22.7124 250.249L11.1328 250.249L22.7124 259.968L22.7124 262.604L6.81152 262.604ZM4.74609 255.17Q4.74609 257.39 3.68408 258.62Q2.61474 259.843 0.600579 259.88L0.600579 257.924Q1.71386 257.895 2.38769 257.163Q3.06152 256.43 3.06152 255.2Q3.06152 253.969 2.38769 253.222Q1.71386 252.468 0.600578 252.438L0.600578 250.424Q2.61474 250.454 3.68407 251.713Q4.74609 252.973 4.74609 255.17ZM14.436 225.108Q14.8535 223.512 15.7837 222.648Q16.7139 221.776 18.0908 221.776Q19.5044 221.776 20.603 222.735Q21.6943 223.695 22.3096 225.394Q22.9248 227.086 22.9248 229.188Q22.9248 230.953 22.4634 232.652Q21.9946 234.344 21.123 235.663L18.9331 234.798Q19.6509 233.656 20.061 232.184Q20.4639 230.712 20.4639 229.217Q20.4639 227.174 19.7607 225.958Q19.0503 224.742 17.8491 224.742Q16.7432 224.742 16.1426 225.724Q15.542 226.698 15.542 228.463L15.542 231.378L13.4692 231.378L13.4692 228.675Q13.4692 227.057 12.9053 226.127Q12.334 225.196 11.3452 225.196Q10.2612 225.196 9.66064 226.295Q9.06005 227.386 9.06005 229.247Q9.06005 231.612 10.2905 234.256L8.07128 235.033Q6.59911 232.125 6.59911 228.946Q6.59911 227.027 7.14111 225.497Q7.6831 223.966 8.67187 223.094Q9.66064 222.223 10.9204 222.223Q12.0923 222.223 13.0225 223.006Q13.9526 223.783 14.436 225.108ZM6.81151 217.394L6.81151 214.516L22.7124 214.516L22.7124 217.394L6.81151 217.394ZM3.74999 215.959Q3.74999 216.794 3.21532 217.35Q2.67333 217.907 1.88964 217.907Q1.11327 217.907 0.556632 217.35Q-8.58307e-06 216.794 -8.58307e-06 215.959Q-8.58307e-06 215.117 0.527335 214.567Q1.05468 214.011 1.83105 214.011Q2.64403 214.011 3.20068 214.567Q3.74999 215.117 3.74999 215.959ZM22.8955 193.906Q22.8955 196.337 21.8481 198.242Q20.7934 200.146 18.9477 201.23Q17.102 202.307 14.7656 202.307Q12.4219 202.307 10.5762 201.23Q8.73046 200.146 7.69774 198.242Q6.66503 196.337 6.66503 193.906Q6.66503 191.745 7.53661 190.053Q8.40087 188.354 10.0488 187.424L11.4624 189.614Q10.3198 190.368 9.75585 191.481Q9.18456 192.587 9.18456 193.935Q9.18456 195.495 9.87304 196.74Q10.5615 197.985 11.8359 198.696Q13.1103 199.399 14.7656 199.399Q16.4429 199.399 17.7173 198.696Q18.9917 197.985 19.6875 196.74Q20.376 195.495 20.376 193.935Q20.376 192.587 19.8047 191.481Q19.2334 190.368 18.0908 189.614L19.4751 187.424Q21.123 188.354 22.0093 190.053Q22.8955 191.745 22.8955 193.906ZM15.9888 177.523L15.9888 180.826L22.7124 180.826L22.7124 183.704L6.81151 183.704L6.81151 180.826L13.5351 180.826L13.5351 177.464L6.81151 172.308L6.81151 169.217L14.4653 175.245L22.7124 168.792L22.7124 172.183L15.9888 177.523ZM6.66503 160.395Q6.66503 157.092 8.28368 155.342Q9.90233 153.584 13.1103 153.584L22.7124 153.584L22.7124 156.316L20.6103 156.316Q21.7236 157.034 22.3096 158.374Q22.8955 159.707 22.8955 161.531Q22.8955 164.204 21.6064 165.808Q20.31 167.412 18.2153 167.412Q16.1133 167.412 14.8389 165.881Q13.5644 164.351 13.5644 161.025L13.5644 156.462L12.9932 156.462Q11.1328 156.462 10.144 157.546Q9.15526 158.623 9.15526 160.725Q9.15526 162.131 9.62401 163.486Q10.0854 164.834 10.8618 165.764L8.70116 166.965Q7.71239 165.735 7.19237 164.028Q6.66503 162.314 6.66503 160.395ZM20.6689 161.055Q20.6689 159.407 19.9365 158.206Q19.2041 157.004 17.8491 156.462L15.6299 156.462L15.6299 160.901Q15.6299 164.563 18.0908 164.563Q19.292 164.563 19.9805 163.633Q20.6689 162.703 20.6689 161.055ZM6.66503 139.964Q6.66503 137.657 7.68309 135.826Q8.70116 133.995 10.5322 132.962Q12.3633 131.93 14.7656 131.93Q17.1606 131.93 19.0063 132.962Q20.852 133.995 21.8774 135.826Q22.8955 137.657 22.8955 139.964Q22.8955 141.678 22.2363 143.106Q21.5698 144.527 20.31 145.516L28.5351 145.516L28.5351 148.394L6.81151 148.394L6.81151 145.633L9.33104 145.633Q8.01268 144.674 7.33886 143.209Q6.66503 141.737 6.66503 139.964ZM20.376 140.206Q20.376 138.675 19.6728 137.459Q18.9624 136.244 17.688 135.54Q16.4136 134.837 14.7656 134.837Q13.1103 134.837 11.8359 135.54Q10.5615 136.244 9.87304 137.459Q9.18456 138.675 9.18456 140.206Q9.18456 141.707 9.88768 142.923Q10.5908 144.139 11.8506 144.842Q13.1103 145.545 14.7656 145.545Q16.4136 145.545 17.688 144.857Q18.9624 144.168 19.6728 142.938Q20.376 141.707 20.376 140.206ZM9.33104 116.058L9.33104 124.876L22.7124 124.876L22.7124 127.754L6.81151 127.754L6.81151 116.058L9.33104 116.058ZM6.66503 107.445Q6.66503 104.142 8.28368 102.392Q9.90233 100.634 13.1103 100.634L22.7124 100.634L22.7124 103.366L20.6103 103.366Q21.7236 104.084 22.3096 105.424Q22.8955 106.757 22.8955 108.581Q22.8955 111.254 21.6064 112.858Q20.31 114.462 18.2153 114.462Q16.1133 114.462 14.8389 112.931Q13.5644 111.401 13.5644 108.075L13.5644 103.512L12.9932 103.512Q11.1328 103.512 10.144 104.596Q9.15526 105.673 9.15526 107.775Q9.15526 109.181 9.62401 110.536Q10.0854 111.884 10.8618 112.814L8.70116 114.015Q7.71239 112.785 7.19237 111.078Q6.66503 109.364 6.66503 107.445ZM20.6689 108.105Q20.6689 106.457 19.9365 105.256Q19.2041 104.054 17.8491 103.512L15.6299 103.512L15.6299 107.951Q15.6299 111.613 18.0908 111.613Q19.292 111.613 19.9805 110.683Q20.6689 109.753 20.6689 108.105ZM6.81151 77.1119L22.7124 77.1119L22.7124 79.7267L11.1035 79.7267L20.9106 85.6666L20.9106 86.9264L11.0742 92.8077L22.7124 92.8077L22.7124 95.4444L6.81151 95.4444L6.81151 92.4781L17.5488 86.2379L6.81151 79.8145L6.81151 77.1119ZM6.81151 71.5044L6.81151 68.626L18.3911 68.626L6.81151 58.8775L6.81151 56.2627L22.7124 56.2627L22.7124 59.1485L11.1328 59.1485L22.7124 68.8677L22.7124 71.5044L6.81151 71.5044ZM12.9931 39.4064Q12.9931 41.5963 11.4038 42.944Q9.81444 44.2917 7.26561 44.2917Q4.70946 44.2917 3.1201 42.944Q1.53075 41.5963 1.53075 39.4064Q1.53075 37.2165 3.10545 35.8835Q4.68016 34.5431 7.26561 34.5431Q9.84373 34.5431 11.4184 35.8835Q12.9931 37.2165 12.9931 39.4064ZM1.71385 26.7428L1.71385 24.4357L22.7124 38.7765L22.7124 41.0836L1.71385 26.7428ZM11.2793 39.4064Q11.2793 38.0221 10.2173 37.2458Q9.15526 36.4621 7.26561 36.4621Q5.37596 36.4621 4.31395 37.2458Q3.24461 38.0221 3.24461 39.4064Q3.24461 40.7541 4.3286 41.5524Q5.40526 42.3434 7.26561 42.3434Q9.12596 42.3434 10.2026 41.5524Q11.2793 40.7541 11.2793 39.4064ZM22.8955 26.1129Q22.8955 28.3029 21.3208 29.6432Q19.7388 30.9762 17.1606 30.9762Q14.5825 30.9762 13.0078 29.6432Q11.4331 28.3029 11.4331 26.1129Q11.4331 23.923 13.0224 22.5753Q14.6118 21.2277 17.1606 21.2277Q19.7095 21.2277 21.3061 22.5753Q22.8955 23.923 22.8955 26.1129ZM21.1816 26.1129Q21.1816 24.7653 20.105 23.9743Q19.021 23.1759 17.1606 23.1759Q15.3003 23.1759 14.2236 23.9743Q13.1396 24.7653 13.1396 26.1129Q13.1396 27.4972 14.209 28.2809Q15.271 29.0573 17.1606 29.0573Q19.0503 29.0573 20.1196 28.2809Q21.1816 27.4972 21.1816 26.1129Z" fill="#000000" fill-opacity="1.000000" fill-rule="evenodd"/>
	<path id="Line 2" d="M85.8945 5.35498L85.8945 447.355L83.5303 447.355L83.5303 5.35498L85.8945 5.35498ZM84.7124 7.02686L78.8608 12.8784C78.3926 13.3464 77.6572 13.3464 77.189 12.8784C76.7207 12.4103 76.7207 11.6747 77.189 11.2065L83.8765 4.51904C84.3447 4.0509 85.0801 4.0509 85.5483 4.51904L92.2358 11.2065C92.7036 11.6747 92.7036 12.4103 92.2358 12.8784C91.7681 13.3464 91.0317 13.3464 90.564 12.8784L84.7124 7.02686Z" fill="#000000" fill-opacity="1.000000" fill-rule="evenodd"/>
	<path id="Line 3" d="M1334.71 448.537L84.7124 448.537L84.7124 446.173L1334.71 446.173L1334.71 448.537ZM1333.04 447.355L1327.19 441.503C1326.72 441.035 1326.72 440.3 1327.19 439.832C1327.66 439.364 1328.39 439.364 1328.86 439.832L1335.55 446.519C1336.02 446.987 1336.02 447.723 1335.55 448.191L1328.86 454.878C1328.39 455.346 1327.66 455.346 1327.19 454.878C1326.72 454.41 1326.72 453.675 1327.19 453.207L1333.04 447.355Z" fill="#000000" fill-opacity="1.000000" fill-rule="evenodd"/>
	<path id="Rectangle 23" d="M157.992 155.355L234.433 155.355C246.185 155.355 255.712 164.882 255.712 176.634L255.712 445.355L136.712 445.355L136.712 176.634C136.712 164.882 146.24 155.355 157.992 155.355Z" fill="url(#paint_linear_75_2966_0)" fill-opacity="1.000000" fill-rule="evenodd"/>
	<path id="Rectangle 24" d="M286.992 356.355L363.433 356.355C375.185 356.355 384.712 365.882 384.712 377.634L384.712 445.355L265.712 445.355L265.712 377.634C265.712 365.882 275.24 356.355 286.992 356.355Z" fill="url(#paint_linear_75_2969_0)" fill-opacity="1.000000" fill-rule="evenodd"/>
	<path id="13,5" d="M170.914 112.393L170.914 141.355L164.207 141.355L164.207 117.768L158.418 117.768L158.418 112.393L170.914 112.393ZM189.487 124.182Q193.296 124.808 195.316 127.021Q197.346 129.233 197.346 132.496Q197.346 135.021 196.023 137.153Q194.7 139.284 191.993 140.567Q189.285 141.85 185.356 141.85Q182.285 141.85 179.325 141.042Q176.375 140.234 174.305 138.749L176.911 133.617Q178.567 134.86 180.739 135.547Q182.911 136.223 185.184 136.223Q187.709 136.223 189.154 135.254Q190.609 134.284 190.609 132.496Q190.609 128.94 185.184 128.94L182.123 128.94L182.123 124.515L188.083 117.768L175.749 117.768L175.749 112.393L196.023 112.393L196.023 116.737L189.487 124.182ZM204.305 133.658Q206.042 133.658 207.154 134.759Q208.275 135.85 208.275 137.627Q208.275 138.456 208.063 139.284Q207.861 140.112 207.154 141.769L204.8 147.729L200.699 147.729L202.527 141.153Q201.486 140.739 200.88 139.809Q200.284 138.87 200.284 137.627Q200.284 135.85 201.426 134.759Q202.567 133.658 204.305 133.658ZM221.227 123.273Q227.348 123.273 230.268 125.718Q233.187 128.152 233.187 132.253Q233.187 134.9 231.854 137.072Q230.53 139.244 227.823 140.547Q225.116 141.85 221.146 141.85Q218.075 141.85 215.115 141.042Q212.165 140.234 210.095 138.749L212.741 133.617Q214.398 134.86 216.55 135.547Q218.701 136.223 220.974 136.223Q223.5 136.223 224.944 135.233Q226.399 134.233 226.399 132.455Q226.399 130.597 224.883 129.647Q223.378 128.698 219.651 128.698L212.246 128.698L213.731 112.393L231.399 112.393L231.399 117.768L219.317 117.768L218.863 123.273L221.227 123.273Z" fill="#737373" fill-opacity="1.000000" fill-rule="evenodd"/>
	<path id="4,0" d="M319.979 334.274L315.261 334.274L315.261 340.355L308.726 340.355L308.726 334.274L293.129 334.274L293.129 329.758L306.786 311.393L313.817 311.393L301.159 328.809L308.938 328.809L308.938 323.394L315.261 323.394L315.261 328.809L319.979 328.809L319.979 334.274ZM326.647 332.658Q328.384 332.658 329.495 333.759Q330.617 334.85 330.617 336.627Q330.617 337.456 330.405 338.284Q330.202 339.112 329.495 340.769L327.142 346.729L323.04 346.729L324.869 340.153Q323.828 339.739 323.222 338.809Q322.626 337.87 322.626 336.627Q322.626 334.85 323.768 333.759Q324.909 332.658 326.647 332.658ZM345.516 340.85Q341.909 340.85 339.091 339.072Q336.283 337.294 334.687 333.92Q333.101 330.546 333.101 325.869Q333.101 321.202 334.687 317.828Q336.283 314.454 339.091 312.676Q341.909 310.898 345.516 310.898Q349.112 310.898 351.92 312.676Q354.739 314.454 356.324 317.828Q357.921 321.202 357.921 325.869Q357.921 330.546 356.324 333.92Q354.739 337.294 351.92 339.072Q349.112 340.85 345.516 340.85ZM345.516 335.183Q348.162 335.183 349.667 332.91Q351.183 330.627 351.183 325.869Q351.183 321.111 349.667 318.838Q348.162 316.565 345.516 316.565Q342.899 316.565 341.384 318.838Q339.879 321.111 339.879 325.869Q339.879 330.627 341.384 332.91Q342.899 335.183 345.516 335.183Z" fill="#7CC700" fill-opacity="1.000000" fill-rule="evenodd"/>
	<path id="Rectangle 23" d="M464.992 213.355L541.433 213.355C553.185 213.355 562.712 222.882 562.712 234.634L562.712 445.355L443.712 445.355L443.712 234.634C443.712 222.882 453.24 213.355 464.992 213.355Z" fill="url(#paint_linear_75_2987_0)" fill-opacity="1.000000" fill-rule="evenodd"/>
	<path id="Rectangle 24" d="M593.992 387.355L670.433 387.355C682.185 387.355 691.712 396.882 691.712 408.634L691.712 445.355L572.712 445.355L572.712 408.634C572.712 396.882 582.24 387.355 593.992 387.355Z" fill="url(#paint_linear_75_2988_0)" fill-opacity="1.000000" fill-rule="evenodd"/>
	<path id="11,8" d="M481 170.393L481 199.355L474.293 199.355L474.293 175.768L468.504 175.768L468.504 170.393L481 170.393ZM497.22 170.393L497.22 199.355L490.512 199.355L490.512 175.768L484.724 175.768L484.724 170.393L497.22 170.393ZM506.116 191.658Q507.853 191.658 508.964 192.759Q510.086 193.85 510.086 195.627Q510.086 196.456 509.873 197.284Q509.671 198.112 508.964 199.769L506.611 205.729L502.509 205.729L504.338 199.153Q503.297 198.739 502.691 197.809Q502.095 196.87 502.095 195.627Q502.095 193.85 503.237 192.759Q504.378 191.658 506.116 191.658ZM533.341 184.132Q535.492 185.203 536.624 186.94Q537.765 188.677 537.765 190.96Q537.765 193.648 536.23 195.658Q534.704 197.658 531.927 198.759Q529.159 199.85 525.522 199.85Q521.875 199.85 519.118 198.759Q516.37 197.658 514.855 195.658Q513.349 193.648 513.349 190.96Q513.349 188.677 514.491 186.94Q515.632 185.203 517.744 184.132Q516.127 183.132 515.259 181.627Q514.39 180.111 514.39 178.172Q514.39 175.646 515.794 173.788Q517.198 171.919 519.724 170.909Q522.249 169.898 525.522 169.898Q528.825 169.898 531.371 170.909Q533.917 171.919 535.321 173.788Q536.735 175.646 536.735 178.172Q536.735 180.111 535.866 181.627Q534.997 183.132 533.341 184.132ZM525.522 174.818Q523.492 174.818 522.269 175.798Q521.047 176.768 521.047 178.465Q521.047 180.111 522.249 181.071Q523.451 182.02 525.522 182.02Q527.583 182.02 528.825 181.071Q530.068 180.111 530.068 178.465Q530.068 176.768 528.825 175.798Q527.583 174.818 525.522 174.818ZM525.522 194.93Q528.037 194.93 529.502 193.789Q530.977 192.647 530.977 190.748Q530.977 188.849 529.502 187.728Q528.037 186.607 525.522 186.607Q523.037 186.607 521.582 187.728Q520.138 188.849 520.138 190.748Q520.138 192.698 521.582 193.819Q523.037 194.93 525.522 194.93Z" fill="#737373" fill-opacity="1.000000" fill-rule="evenodd"/>
	<path id="3,1" d="M622.908 356.182Q626.717 356.808 628.737 359.021Q630.767 361.233 630.767 364.496Q630.767 367.021 629.444 369.153Q628.121 371.284 625.414 372.567Q622.706 373.85 618.777 373.85Q615.706 373.85 612.746 373.042Q609.796 372.234 607.725 370.749L610.332 365.617Q611.988 366.86 614.16 367.547Q616.332 368.223 618.605 368.223Q621.13 368.223 622.575 367.254Q624.03 366.284 624.03 364.496Q624.03 360.94 618.605 360.94L615.544 360.94L615.544 356.515L621.504 349.768L609.17 349.768L609.17 344.393L629.444 344.393L629.444 348.737L622.908 356.182ZM637.726 365.658Q639.463 365.658 640.574 366.759Q641.696 367.85 641.696 369.627Q641.696 370.456 641.484 371.284Q641.282 372.112 640.574 373.769L638.221 379.729L634.119 379.729L635.948 373.153Q634.907 372.739 634.301 371.809Q633.705 370.87 633.705 369.627Q633.705 367.85 634.847 366.759Q635.988 365.658 637.726 365.658ZM655.228 344.393L655.228 373.355L648.521 373.355L648.521 349.768L642.732 349.768L642.732 344.393L655.228 344.393Z" fill="#7CC700" fill-opacity="1.000000" fill-rule="evenodd"/>
	<path id="Rectangle 23" d="M771.992 183.355L848.433 183.355C860.185 183.355 869.712 192.882 869.712 204.634L869.712 445.355L750.712 445.355L750.712 204.634C750.712 192.882 760.24 183.355 771.992 183.355Z" fill="url(#paint_linear_75_2992_0)" fill-opacity="1.000000" fill-rule="evenodd"/>
	<path id="Rectangle 24" d="M900.992 394.355L977.433 394.355C989.185 394.355 998.712 403.882 998.712 415.634L998.712 445.355L879.712 445.355L879.712 415.634C879.712 403.882 889.24 394.355 900.992 394.355Z" fill="url(#paint_linear_75_2993_0)" fill-opacity="1.000000" fill-rule="evenodd"/>
	<path id="12,0" d="M782.78 138.393L782.78 167.355L776.072 167.355L776.072 143.768L770.284 143.768L770.284 138.393L782.78 138.393ZM809.465 161.89L809.465 167.355L787.574 167.355L787.574 163.011L798.747 152.455Q800.525 150.768 801.141 149.546Q801.767 148.323 801.767 147.121Q801.767 145.384 800.585 144.454Q799.413 143.525 797.13 143.525Q795.231 143.525 793.696 144.252Q792.171 144.97 791.13 146.414L786.251 143.273Q787.948 140.747 790.928 139.323Q793.908 137.898 797.757 137.898Q800.979 137.898 803.404 138.959Q805.828 140.01 807.172 141.929Q808.515 143.848 808.515 146.465Q808.515 148.818 807.515 150.889Q806.525 152.96 803.676 155.607L797.009 161.89L809.465 161.89ZM816.501 159.658Q818.239 159.658 819.35 160.759Q820.471 161.85 820.471 163.627Q820.471 164.456 820.259 165.284Q820.057 166.112 819.35 167.769L816.996 173.729L812.895 173.729L814.724 167.153Q813.683 166.739 813.077 165.809Q812.481 164.87 812.481 163.627Q812.481 161.85 813.622 160.759Q814.764 159.658 816.501 159.658ZM835.37 167.85Q831.764 167.85 828.946 166.072Q826.138 164.294 824.541 160.92Q822.956 157.546 822.956 152.869Q822.956 148.202 824.541 144.828Q826.138 141.454 828.946 139.676Q831.764 137.898 835.37 137.898Q838.967 137.898 841.775 139.676Q844.593 141.454 846.179 144.828Q847.775 148.202 847.775 152.869Q847.775 157.546 846.179 160.92Q844.593 164.294 841.775 166.072Q838.967 167.85 835.37 167.85ZM835.37 162.183Q838.017 162.183 839.522 159.91Q841.037 157.627 841.037 152.869Q841.037 148.111 839.522 145.838Q838.017 143.566 835.37 143.566Q832.754 143.566 831.239 145.838Q829.734 148.111 829.734 152.869Q829.734 157.627 831.239 159.91Q832.754 162.183 835.37 162.183Z" fill="#737373" fill-opacity="1.000000" fill-rule="evenodd"/>
	<path id="3,0" d="M920.909 356.182Q924.717 356.808 926.737 359.021Q928.768 361.233 928.768 364.496Q928.768 367.021 927.444 369.153Q926.121 371.284 923.414 372.567Q920.707 373.85 916.777 373.85Q913.706 373.85 910.746 373.042Q907.797 372.234 905.726 370.749L908.332 365.617Q909.989 366.86 912.161 367.547Q914.332 368.223 916.605 368.223Q919.131 368.223 920.575 367.254Q922.03 366.284 922.03 364.496Q922.03 360.94 916.605 360.94L913.545 360.94L913.545 356.515L919.505 349.768L907.17 349.768L907.17 344.393L927.444 344.393L927.444 348.737L920.909 356.182ZM935.726 365.658Q937.464 365.658 938.575 366.759Q939.696 367.85 939.696 369.627Q939.696 370.456 939.484 371.284Q939.282 372.112 938.575 373.769L936.221 379.729L932.12 379.729L933.948 373.153Q932.908 372.739 932.302 371.809Q931.706 370.87 931.706 369.627Q931.706 367.85 932.847 366.759Q933.989 365.658 935.726 365.658ZM954.595 373.85Q950.989 373.85 948.17 372.072Q945.362 370.294 943.766 366.92Q942.18 363.546 942.18 358.869Q942.18 354.202 943.766 350.828Q945.362 347.454 948.17 345.676Q950.989 343.898 954.595 343.898Q958.191 343.898 961 345.676Q963.818 347.454 965.404 350.828Q967 354.202 967 358.869Q967 363.546 965.404 366.92Q963.818 370.294 961 372.072Q958.191 373.85 954.595 373.85ZM954.595 368.183Q957.242 368.183 958.747 365.91Q960.262 363.627 960.262 358.869Q960.262 354.111 958.747 351.838Q957.242 349.565 954.595 349.565Q951.979 349.565 950.464 351.838Q948.958 354.111 948.958 358.869Q948.958 363.627 950.464 365.91Q951.979 368.183 954.595 368.183Z" fill="#7CC700" fill-opacity="1.000000" fill-rule="evenodd"/>
	<path id="Rectangle 23" d="M1078.99 56.355L1155.43 56.355C1167.19 56.355 1176.71 65.8821 1176.71 77.6343L1176.71 445.355L1057.71 445.355L1057.71 77.6343C1057.71 65.8821 1067.24 56.355 1078.99 56.355Z" fill="url(#paint_linear_75_2997_0)" fill-opacity="1.000000" fill-rule="evenodd"/>
	<path id="Rectangle 24" d="M1207.99 343.355L1284.43 343.355C1296.19 343.355 1305.71 352.882 1305.71 364.634L1305.71 445.355L1186.71 445.355L1186.71 364.634C1186.71 352.882 1196.24 343.355 1207.99 343.355Z" fill="url(#paint_linear_75_2998_0)" fill-opacity="1.000000" fill-rule="evenodd"/>
	<path id="17,0" d="M1090.88 1.39344L1090.88 30.355L1084.17 30.355L1084.17 6.76754L1078.38 6.76754L1078.38 1.39344L1090.88 1.39344ZM1118.59 1.39344L1118.59 5.73716L1107.84 30.355L1100.55 30.355L1110.95 6.84835L1101.34 6.84835L1101.34 11.5658L1095.38 11.5658L1095.38 1.39344L1118.59 1.39344ZM1123.4 22.6575Q1125.14 22.6575 1126.25 23.7586Q1127.37 24.8496 1127.37 26.6275Q1127.37 27.4558 1127.16 28.2841Q1126.96 29.1125 1126.25 30.7691L1123.9 36.7291L1119.8 36.7291L1121.62 30.1529Q1120.58 29.7388 1119.98 28.8094Q1119.38 27.87 1119.38 26.6275Q1119.38 24.8496 1120.52 23.7586Q1121.66 22.6575 1123.4 22.6575ZM1142.27 30.85Q1138.66 30.85 1135.85 29.0721Q1133.04 27.2942 1131.44 23.9202Q1129.86 20.5462 1129.86 15.8692Q1129.86 11.2022 1131.44 7.82821Q1133.04 4.45425 1135.85 2.67635Q1138.66 0.898455 1142.27 0.898455Q1145.87 0.898455 1148.67 2.67635Q1151.49 4.45425 1153.08 7.82821Q1154.68 11.2022 1154.68 15.8692Q1154.68 20.5462 1153.08 23.9202Q1151.49 27.2942 1148.67 29.0721Q1145.87 30.85 1142.27 30.85ZM1142.27 25.1829Q1144.92 25.1829 1146.42 22.91Q1147.94 20.6271 1147.94 15.8692Q1147.94 11.1113 1146.42 8.83838Q1144.92 6.5655 1142.27 6.5655Q1139.65 6.5655 1138.14 8.83838Q1136.63 11.1113 1136.63 15.8692Q1136.63 20.6271 1138.14 22.91Q1139.65 25.1829 1142.27 25.1829Z" fill="#737373" fill-opacity="1.000000" fill-rule="evenodd"/>
	<path id="Line 8" d="M84.3647 336.355L72.543 336.355" stroke="#000000" stroke-opacity="1.000000" stroke-width="1.182186" stroke-linecap="round"/>
	<path id="Line 11" d="M84.3647 226.355L72.543 226.355" stroke="#000000" stroke-opacity="1.000000" stroke-width="1.182186" stroke-linecap="round"/>
	<path id="Line 12" d="M84.3647 116.355L72.543 116.355" stroke="#000000" stroke-opacity="1.000000" stroke-width="1.182186" stroke-linecap="round"/>
	<path id="Порушення фаз сну" d="M149.649 488.756L149.649 501.355L147.346 501.355L147.346 490.733L140.811 490.733L140.811 501.355L138.509 501.355L138.509 488.756L149.649 488.756ZM159.024 501.535Q157.099 501.535 155.552 500.7Q154.006 499.861 153.122 498.375Q152.239 496.89 152.239 495.053Q152.239 493.221 153.122 491.735Q154.006 490.25 155.552 489.415Q157.099 488.576 159.024 488.576Q160.953 488.576 162.5 489.415Q164.047 490.25 164.93 491.727Q165.814 493.203 165.814 495.053Q165.814 496.908 164.93 498.384Q164.047 499.861 162.5 500.7Q160.953 501.535 159.024 501.535ZM159.024 499.483Q160.285 499.483 161.292 498.916Q162.302 498.349 162.878 497.334Q163.454 496.314 163.454 495.053Q163.454 493.796 162.878 492.781Q162.302 491.762 161.292 491.195Q160.285 490.628 159.024 490.628Q157.767 490.628 156.757 491.195Q155.75 491.762 155.175 492.781Q154.599 493.796 154.599 495.053Q154.599 496.314 155.175 497.334Q155.75 498.349 156.757 498.916Q157.767 499.483 159.024 499.483ZM173.588 488.756Q175.223 488.756 176.436 489.296Q177.653 489.837 178.299 490.843Q178.949 491.85 178.949 493.238Q178.949 494.605 178.299 495.625Q177.653 496.64 176.436 497.18Q175.223 497.721 173.588 497.721L170.745 497.721L170.745 501.355L168.403 501.355L168.403 488.756L173.588 488.756ZM173.478 495.739Q175.008 495.739 175.799 495.093Q176.594 494.442 176.594 493.238Q176.594 492.03 175.799 491.384Q175.008 490.733 173.478 490.733L170.745 490.733L170.745 495.739L173.478 495.739ZM191.714 488.756L186.243 498.925Q185.522 500.274 184.52 500.951Q183.523 501.623 182.354 501.623Q181.418 501.623 180.499 501.228L181.075 499.395Q181.813 499.628 182.301 499.628Q183.435 499.628 184.173 498.459L184.371 498.151L179.348 488.756L181.848 488.756L185.575 496.152L189.411 488.756L191.714 488.756ZM209.535 488.756L209.535 501.355L193.355 501.355L193.355 488.756L195.657 488.756L195.657 499.373L200.302 499.373L200.302 488.756L202.605 488.756L202.605 499.373L207.233 499.373L207.233 488.756L209.535 488.756ZM222.527 499.395L222.527 501.355L213.079 501.355L213.079 488.756L222.276 488.756L222.276 490.716L215.421 490.716L215.421 493.994L221.503 493.994L221.503 495.919L215.421 495.919L215.421 499.395L222.527 499.395ZM236.336 488.756L236.336 501.355L233.994 501.355L233.994 495.954L227.481 495.954L227.481 501.355L225.139 501.355L225.139 488.756L227.481 488.756L227.481 493.959L233.994 493.959L233.994 488.756L236.336 488.756ZM251.06 488.756L251.06 501.355L248.718 501.355L248.718 495.954L242.205 495.954L242.205 501.355L239.863 501.355L239.863 488.756L242.205 488.756L242.205 493.959L248.718 493.959L248.718 488.756L251.06 488.756ZM264.219 488.756L264.219 501.355L261.912 501.355L261.912 497.844L258.801 497.844L258.55 497.844L256.208 501.355L253.743 501.355L256.441 497.466Q255.127 496.982 254.415 495.928Q253.708 494.873 253.708 493.379Q253.708 491.942 254.354 490.9Q255.004 489.854 256.191 489.305Q257.377 488.756 258.981 488.756L264.219 488.756ZM259.051 490.733Q257.614 490.733 256.845 491.401Q256.081 492.065 256.081 493.344Q256.081 494.587 256.819 495.264Q257.557 495.937 258.964 495.937L261.912 495.937L261.912 490.733L259.051 490.733ZM287.131 495.036Q287.131 497.523 285.404 498.964Q283.677 500.401 280.491 500.529L280.491 501.86L278.329 501.86L278.329 500.529Q275.143 500.366 273.407 498.947Q271.672 497.523 271.672 495.036Q271.672 492.553 273.407 491.125Q275.143 489.692 278.329 489.529L278.329 488.25L280.491 488.25L280.491 489.529Q283.677 489.692 285.404 491.125Q287.131 492.553 287.131 495.036ZM280.491 498.692Q282.649 498.529 283.765 497.602Q284.881 496.675 284.881 495.018Q284.881 493.361 283.756 492.447Q282.631 491.529 280.491 491.384L280.491 498.692ZM273.957 495.036Q273.957 496.675 275.082 497.593Q276.207 498.512 278.329 498.692L278.329 491.384Q273.957 491.709 273.957 495.036ZM297.771 498.437L291.469 498.437L290.225 501.355L287.817 501.355L293.486 488.756L295.789 488.756L301.475 501.355L299.027 501.355L297.771 498.437ZM296.993 496.604L294.62 491.094L292.26 496.604L296.993 496.604ZM310.03 494.785Q311.163 495.146 311.801 495.945Q312.442 496.745 312.442 497.826Q312.442 498.96 311.704 499.799Q310.966 500.634 309.731 501.087Q308.5 501.535 307.041 501.535Q305.78 501.535 304.51 501.184Q303.244 500.832 302.163 500.129L302.919 498.419Q303.745 498.978 304.752 499.276Q305.762 499.571 306.751 499.571Q308.175 499.571 309.12 499.017Q310.065 498.459 310.065 497.483Q310.065 496.657 309.379 496.227Q308.698 495.792 307.49 495.792L304.558 495.792L304.558 493.959L307.309 493.959Q308.355 493.959 308.948 493.528Q309.542 493.093 309.542 492.355Q309.542 491.472 308.742 490.988Q307.942 490.5 306.698 490.5Q305.85 490.5 304.949 490.747Q304.053 490.988 303.262 491.454L302.524 489.564Q303.495 489.042 304.585 488.782Q305.675 488.523 306.751 488.523Q308.157 488.523 309.335 488.954Q310.513 489.384 311.216 490.188Q311.919 490.988 311.919 492.065Q311.919 493.001 311.414 493.704Q310.908 494.407 310.03 494.785ZM325.849 501.535Q323.942 501.535 322.404 500.7Q320.866 499.861 319.991 498.384Q319.117 496.908 319.117 495.053Q319.117 493.203 320 491.727Q320.883 490.25 322.421 489.415Q323.959 488.576 325.867 488.576Q327.413 488.576 328.692 489.116Q329.971 489.657 330.854 490.681L329.343 492.104Q327.972 490.628 325.976 490.628Q324.68 490.628 323.652 491.195Q322.628 491.762 322.052 492.772Q321.476 493.779 321.476 495.053Q321.476 496.332 322.052 497.343Q322.628 498.349 323.652 498.916Q324.68 499.483 325.976 499.483Q327.972 499.483 329.343 497.989L330.854 499.43Q329.971 500.454 328.683 500.995Q327.396 501.535 325.849 501.535ZM344.228 488.756L344.228 501.355L341.886 501.355L341.886 495.954L335.373 495.954L335.373 501.355L333.031 501.355L333.031 488.756L335.373 488.756L335.373 493.959L341.886 493.959L341.886 488.756L344.228 488.756ZM358.574 488.756L353.103 498.925Q352.382 500.274 351.38 500.951Q350.383 501.623 349.214 501.623Q348.278 501.623 347.359 501.228L347.935 499.395Q348.673 499.628 349.161 499.628Q350.295 499.628 351.033 498.459L351.231 498.151L346.208 488.756L348.708 488.756L352.435 496.152L356.271 488.756L358.574 488.756Z" fill="#000000" fill-opacity="1.000000" fill-rule="evenodd"/>
	<path id="дратівливість" d="M509.001 499.373L509.001 504.036L506.844 504.036L506.844 501.355L497.176 501.355L497.176 504.036L494.996 504.036L495.013 499.373L495.554 499.373Q496.745 499.32 497.22 497.62Q497.699 495.919 497.804 492.75L497.949 488.756L507.182 488.756L507.182 499.373L509.001 499.373ZM499.856 492.966Q499.768 495.414 499.461 497.044Q499.158 498.674 498.49 499.373L504.879 499.373L504.879 490.733L499.949 490.733L499.856 492.966ZM516.381 488.756Q518.016 488.756 519.229 489.296Q520.446 489.837 521.092 490.843Q521.742 491.85 521.742 493.238Q521.742 494.605 521.092 495.625Q520.446 496.64 519.229 497.18Q518.016 497.721 516.381 497.721L513.538 497.721L513.538 501.355L511.196 501.355L511.196 488.756L516.381 488.756ZM516.271 495.739Q517.801 495.739 518.592 495.093Q519.387 494.442 519.387 493.238Q519.387 492.03 518.592 491.384Q517.801 490.733 516.271 490.733L513.538 490.733L513.538 495.739L516.271 495.739ZM531.682 498.437L525.38 498.437L524.136 501.355L521.728 501.355L527.397 488.756L529.7 488.756L535.386 501.355L532.938 501.355L531.682 498.437ZM530.904 496.604L528.531 491.094L526.171 496.604L530.904 496.604ZM545.829 490.733L541.654 490.733L541.654 501.355L539.333 501.355L539.333 490.733L535.172 490.733L535.172 488.756L545.829 488.756L545.829 490.733ZM547.866 488.756L550.168 488.756L550.168 501.355L547.866 501.355L547.866 488.756ZM562.013 494.803Q563.217 495.128 563.845 495.91Q564.478 496.692 564.478 497.861Q564.478 499.518 563.252 500.437Q562.03 501.355 559.706 501.355L553.734 501.355L553.734 488.756L559.367 488.756Q561.49 488.756 562.676 489.604Q563.867 490.448 563.867 491.995Q563.867 492.983 563.388 493.704Q562.909 494.425 562.013 494.803ZM556.036 494.139L559.165 494.139Q560.303 494.139 560.897 493.691Q561.49 493.238 561.49 492.355Q561.49 491.472 560.897 491.015Q560.303 490.553 559.165 490.553L556.036 490.553L556.036 494.139ZM559.635 499.553Q562.118 499.553 562.118 497.681Q562.118 495.849 559.635 495.849L556.036 495.849L556.036 499.553L559.635 499.553ZM577.906 488.756L577.906 501.355L575.603 501.355L575.603 490.733L570.633 490.733L570.523 493.884Q570.435 496.53 570.093 498.178Q569.75 499.826 568.994 500.683Q568.238 501.535 566.907 501.535Q566.441 501.535 565.628 501.355L565.79 499.32Q566.023 499.395 566.331 499.395Q567.43 499.395 567.887 498.09Q568.348 496.785 568.454 493.977L568.634 488.756L577.906 488.756ZM581.472 488.756L583.774 488.756L583.774 497.703L590.542 488.756L592.717 488.756L592.717 501.355L590.414 501.355L590.414 492.425L583.647 501.355L581.472 501.355L581.472 488.756ZM604.547 494.803Q605.751 495.128 606.379 495.91Q607.012 496.692 607.012 497.861Q607.012 499.518 605.786 500.437Q604.564 501.355 602.24 501.355L596.268 501.355L596.268 488.756L601.901 488.756Q604.024 488.756 605.21 489.604Q606.401 490.448 606.401 491.995Q606.401 492.983 605.922 493.704Q605.443 494.425 604.547 494.803ZM598.57 494.139L601.699 494.139Q602.837 494.139 603.431 493.691Q604.024 493.238 604.024 492.355Q604.024 491.472 603.431 491.015Q602.837 490.553 601.699 490.553L598.57 490.553L598.57 494.139ZM602.169 499.553Q604.652 499.553 604.652 497.681Q604.652 495.849 602.169 495.849L598.57 495.849L598.57 499.553L602.169 499.553ZM609.696 488.756L611.998 488.756L611.998 501.355L609.696 501.355L609.696 488.756ZM621.338 501.535Q619.431 501.535 617.893 500.7Q616.355 499.861 615.48 498.384Q614.606 496.908 614.606 495.053Q614.606 493.203 615.489 491.727Q616.372 490.25 617.91 489.415Q619.448 488.576 621.356 488.576Q622.902 488.576 624.181 489.116Q625.46 489.657 626.343 490.681L624.832 492.104Q623.461 490.628 621.465 490.628Q620.169 490.628 619.141 491.195Q618.117 491.762 617.541 492.772Q616.965 493.779 616.965 495.053Q616.965 496.332 617.541 497.343Q618.117 498.349 619.141 498.916Q620.169 499.483 621.465 499.483Q623.461 499.483 624.832 497.989L626.343 499.43Q625.46 500.454 624.172 500.995Q622.885 501.535 621.338 501.535ZM637.521 490.733L633.346 490.733L633.346 501.355L631.026 501.355L631.026 490.733L626.864 490.733L626.864 488.756L637.521 488.756L637.521 490.733ZM645.35 493.023Q647.622 493.023 648.834 494.038Q650.047 495.053 650.047 497.053Q650.047 499.14 648.716 500.248Q647.384 501.355 644.972 501.355L639.558 501.355L639.558 488.756L641.86 488.756L641.86 493.023L645.35 493.023ZM644.866 499.553Q646.233 499.553 646.971 498.925Q647.709 498.296 647.709 497.088Q647.709 494.803 644.866 494.803L641.86 494.803L641.86 499.553L644.866 499.553Z" fill="#000000" fill-opacity="1.000000" fill-rule="evenodd"/>
	<path id="безпричинні жахи" d="M774.591 488.756L784.399 488.756L784.399 490.681L776.893 490.681L776.893 493.779L780.62 493.779Q782.887 493.779 784.065 494.724Q785.243 495.668 785.243 497.448Q785.243 499.32 783.947 500.34Q782.655 501.355 780.26 501.355L774.591 501.355L774.591 488.756ZM780.132 499.553Q781.481 499.553 782.184 499.035Q782.887 498.512 782.887 497.523Q782.887 495.576 780.132 495.576L776.893 495.576L776.893 499.553L780.132 499.553ZM797.247 499.395L797.247 501.355L787.799 501.355L787.799 488.756L796.996 488.756L796.996 490.716L790.141 490.716L790.141 493.994L796.223 493.994L796.223 495.919L790.141 495.919L790.141 499.395L797.247 499.395ZM806.486 494.785Q807.619 495.146 808.257 495.945Q808.898 496.745 808.898 497.826Q808.898 498.96 808.16 499.799Q807.422 500.634 806.187 501.087Q804.956 501.535 803.497 501.535Q802.236 501.535 800.966 501.184Q799.7 500.832 798.619 500.129L799.375 498.419Q800.201 498.978 801.208 499.276Q802.218 499.571 803.207 499.571Q804.631 499.571 805.576 499.017Q806.521 498.459 806.521 497.483Q806.521 496.657 805.835 496.227Q805.154 495.792 803.945 495.792L801.014 495.792L801.014 493.959L803.765 493.959Q804.811 493.959 805.405 493.528Q805.998 493.093 805.998 492.355Q805.998 491.472 805.198 490.988Q804.398 490.5 803.154 490.5Q802.306 490.5 801.405 490.747Q800.509 490.988 799.718 491.454L798.98 489.564Q799.951 489.042 801.041 488.782Q802.131 488.523 803.207 488.523Q804.613 488.523 805.791 488.954Q806.969 489.384 807.672 490.188Q808.375 490.988 808.375 492.065Q808.375 493.001 807.87 493.704Q807.365 494.407 806.486 494.785ZM822.703 488.756L822.703 501.355L820.4 501.355L820.4 490.733L813.865 490.733L813.865 501.355L811.563 501.355L811.563 488.756L822.703 488.756ZM831.432 488.756Q833.067 488.756 834.28 489.296Q835.497 489.837 836.143 490.843Q836.793 491.85 836.793 493.238Q836.793 494.605 836.143 495.625Q835.497 496.64 834.28 497.18Q833.067 497.721 831.432 497.721L828.589 497.721L828.589 501.355L826.247 501.355L826.247 488.756L831.432 488.756ZM831.322 495.739Q832.852 495.739 833.643 495.093Q834.438 494.442 834.438 493.238Q834.438 492.03 833.643 491.384Q832.852 490.733 831.322 490.733L828.589 490.733L828.589 495.739L831.322 495.739ZM839.031 488.756L841.333 488.756L841.333 497.703L848.101 488.756L850.276 488.756L850.276 501.355L847.973 501.355L847.973 492.425L841.206 501.355L839.031 501.355L839.031 488.756ZM863.275 488.756L863.275 501.355L860.95 501.355L860.95 496.604Q859.171 497.268 857.567 497.268Q855.158 497.268 853.853 496.108Q852.548 494.948 852.548 492.768L852.548 488.756L854.868 488.756L854.868 492.518Q854.868 493.849 855.642 494.552Q856.415 495.251 857.857 495.251Q859.496 495.251 860.95 494.587L860.95 488.756L863.275 488.756ZM866.823 488.756L869.125 488.756L869.125 497.703L875.893 488.756L878.068 488.756L878.068 501.355L875.765 501.355L875.765 492.425L868.998 501.355L866.823 501.355L866.823 488.756ZM892.794 488.756L892.794 501.355L890.452 501.355L890.452 495.954L883.939 495.954L883.939 501.355L881.597 501.355L881.597 488.756L883.939 488.756L883.939 493.959L890.452 493.959L890.452 488.756L892.794 488.756ZM907.518 488.756L907.518 501.355L905.176 501.355L905.176 495.954L898.663 495.954L898.663 501.355L896.321 501.355L896.321 488.756L898.663 488.756L898.663 493.959L905.176 493.959L905.176 488.756L907.518 488.756ZM911.067 488.756L913.369 488.756L913.369 501.355L911.067 501.355L911.067 488.756ZM932.898 496.046L930.74 496.046L930.74 501.355L928.45 501.355L928.45 496.046L926.293 496.046L923.107 501.355L920.408 501.355L924.368 494.785L920.677 488.756L923.159 488.756L926.24 494.029L928.45 494.029L928.45 488.756L930.74 488.756L930.74 494.029L932.915 494.029L936.013 488.756L938.496 488.756L934.823 494.803L938.764 501.355L936.066 501.355L932.898 496.046ZM948.541 498.437L942.239 498.437L940.995 501.355L938.587 501.355L944.256 488.756L946.559 488.756L952.245 501.355L949.797 501.355L948.541 498.437ZM947.763 496.604L945.39 491.094L943.03 496.604L947.763 496.604ZM955.002 488.756L957.972 492.966L960.943 488.756L963.676 488.756L959.449 494.803L964.019 501.355L961.246 501.355L957.972 496.767L954.716 501.355L952.013 501.355L956.57 494.895L952.303 488.756L955.002 488.756ZM965.607 488.756L967.909 488.756L967.909 497.703L974.677 488.756L976.852 488.756L976.852 501.355L974.549 501.355L974.549 492.425L967.782 501.355L965.607 501.355L965.607 488.756Z" fill="#000000" fill-opacity="1.000000" fill-rule="evenodd"/>
	<path id="коливання настрою" d="M1073.57 496.046L1071.24 496.046L1071.24 501.355L1068.93 501.355L1068.93 488.756L1071.24 488.756L1071.24 494.029L1073.65 494.029L1077.27 488.756L1079.75 488.756L1075.45 494.855L1079.91 501.355L1077.27 501.355L1073.57 496.046ZM1087.31 501.535Q1085.38 501.535 1083.83 500.7Q1082.29 499.861 1081.4 498.375Q1080.52 496.89 1080.52 495.053Q1080.52 493.221 1081.4 491.735Q1082.29 490.25 1083.83 489.415Q1085.38 488.576 1087.31 488.576Q1089.24 488.576 1090.78 489.415Q1092.33 490.25 1093.21 491.727Q1094.1 493.203 1094.1 495.053Q1094.1 496.908 1093.21 498.384Q1092.33 499.861 1090.78 500.7Q1089.24 501.535 1087.31 501.535ZM1087.31 499.483Q1088.57 499.483 1089.57 498.916Q1090.58 498.349 1091.16 497.334Q1091.74 496.314 1091.74 495.053Q1091.74 493.796 1091.16 492.781Q1090.58 491.762 1089.57 491.195Q1088.57 490.628 1087.31 490.628Q1086.05 490.628 1085.04 491.195Q1084.03 491.762 1083.46 492.781Q1082.88 493.796 1082.88 495.053Q1082.88 496.314 1083.46 497.334Q1084.03 498.349 1085.04 498.916Q1086.05 499.483 1087.31 499.483ZM1107.09 488.756L1107.09 501.355L1104.79 501.355L1104.79 490.733L1099.82 490.733L1099.71 493.884Q1099.62 496.53 1099.28 498.178Q1098.93 499.826 1098.18 500.683Q1097.42 501.535 1096.09 501.535Q1095.63 501.535 1094.81 501.355L1094.98 499.32Q1095.21 499.395 1095.52 499.395Q1096.61 499.395 1097.07 498.09Q1097.53 496.785 1097.64 493.977L1097.82 488.756L1107.09 488.756ZM1110.66 488.756L1112.96 488.756L1112.96 497.703L1119.73 488.756L1121.9 488.756L1121.9 501.355L1119.6 501.355L1119.6 492.425L1112.83 501.355L1110.66 501.355L1110.66 488.756ZM1133.73 494.803Q1134.94 495.128 1135.56 495.91Q1136.2 496.692 1136.2 497.861Q1136.2 499.518 1134.97 500.437Q1133.75 501.355 1131.42 501.355L1125.45 501.355L1125.45 488.756L1131.09 488.756Q1133.21 488.756 1134.4 489.604Q1135.59 490.448 1135.59 491.995Q1135.59 492.983 1135.11 493.704Q1134.63 494.425 1133.73 494.803ZM1127.76 494.139L1130.88 494.139Q1132.02 494.139 1132.62 493.691Q1133.21 493.238 1133.21 492.355Q1133.21 491.472 1132.62 491.015Q1132.02 490.553 1130.88 490.553L1127.76 490.553L1127.76 494.139ZM1131.35 499.553Q1133.84 499.553 1133.84 497.681Q1133.84 495.849 1131.35 495.849L1127.76 495.849L1127.76 499.553L1131.35 499.553ZM1147.21 498.437L1140.91 498.437L1139.67 501.355L1137.26 501.355L1142.93 488.756L1145.23 488.756L1150.92 501.355L1148.47 501.355L1147.21 498.437ZM1146.43 496.604L1144.06 491.094L1141.7 496.604L1146.43 496.604ZM1164.04 488.756L1164.04 501.355L1161.7 501.355L1161.7 495.954L1155.19 495.954L1155.19 501.355L1152.84 501.355L1152.84 488.756L1155.19 488.756L1155.19 493.959L1161.7 493.959L1161.7 488.756L1164.04 488.756ZM1178.77 488.756L1178.77 501.355L1176.42 501.355L1176.42 495.954L1169.91 495.954L1169.91 501.355L1167.57 501.355L1167.57 488.756L1169.91 488.756L1169.91 493.959L1176.42 493.959L1176.42 488.756L1178.77 488.756ZM1191.93 488.756L1191.93 501.355L1189.62 501.355L1189.62 497.844L1186.51 497.844L1186.26 497.844L1183.91 501.355L1181.45 501.355L1184.15 497.466Q1182.83 496.982 1182.12 495.928Q1181.41 494.873 1181.41 493.379Q1181.41 491.942 1182.06 490.9Q1182.71 489.854 1183.9 489.305Q1185.08 488.756 1186.69 488.756L1191.93 488.756ZM1186.76 490.733Q1185.32 490.733 1184.55 491.401Q1183.79 492.065 1183.79 493.344Q1183.79 494.587 1184.53 495.264Q1185.26 495.937 1186.67 495.937L1189.62 495.937L1189.62 490.733L1186.76 490.733ZM1211.63 488.756L1211.63 501.355L1209.29 501.355L1209.29 495.954L1202.78 495.954L1202.78 501.355L1200.44 501.355L1200.44 488.756L1202.78 488.756L1202.78 493.959L1209.29 493.959L1209.29 488.756L1211.63 488.756ZM1223.51 498.437L1217.21 498.437L1215.97 501.355L1213.56 501.355L1219.23 488.756L1221.53 488.756L1227.22 501.355L1224.77 501.355L1223.51 498.437ZM1222.74 496.604L1220.36 491.094L1218 496.604L1222.74 496.604ZM1234.76 501.535Q1232.86 501.535 1231.32 500.7Q1229.78 499.861 1228.91 498.384Q1228.03 496.908 1228.03 495.053Q1228.03 493.203 1228.91 491.727Q1229.8 490.25 1231.34 489.415Q1232.87 488.576 1234.78 488.576Q1236.33 488.576 1237.61 489.116Q1238.89 489.657 1239.77 490.681L1238.26 492.104Q1236.89 490.628 1234.89 490.628Q1233.59 490.628 1232.57 491.195Q1231.54 491.762 1230.97 492.772Q1230.39 493.779 1230.39 495.053Q1230.39 496.332 1230.97 497.343Q1231.54 498.349 1232.57 498.916Q1233.59 499.483 1234.89 499.483Q1236.89 499.483 1238.26 497.989L1239.77 499.43Q1238.89 500.454 1237.6 500.995Q1236.31 501.535 1234.76 501.535ZM1250.95 490.733L1246.77 490.733L1246.77 501.355L1244.45 501.355L1244.45 490.733L1240.29 490.733L1240.29 488.756L1250.95 488.756L1250.95 490.733ZM1258.15 488.756Q1259.78 488.756 1260.99 489.296Q1262.21 489.837 1262.86 490.843Q1263.51 491.85 1263.51 493.238Q1263.51 494.605 1262.86 495.625Q1262.21 496.64 1260.99 497.18Q1259.78 497.721 1258.15 497.721L1255.3 497.721L1255.3 501.355L1252.96 501.355L1252.96 488.756L1258.15 488.756ZM1258.04 495.739Q1259.57 495.739 1260.36 495.093Q1261.15 494.442 1261.15 493.238Q1261.15 492.03 1260.36 491.384Q1259.57 490.733 1258.04 490.733L1255.3 490.733L1255.3 495.739L1258.04 495.739ZM1271.73 501.535Q1269.81 501.535 1268.26 500.7Q1266.72 499.861 1265.83 498.375Q1264.95 496.89 1264.95 495.053Q1264.95 493.221 1265.83 491.735Q1266.72 490.25 1268.26 489.415Q1269.81 488.576 1271.73 488.576Q1273.66 488.576 1275.21 489.415Q1276.76 490.25 1277.64 491.727Q1278.52 493.203 1278.52 495.053Q1278.52 496.908 1277.64 498.384Q1276.76 499.861 1275.21 500.7Q1273.66 501.535 1271.73 501.535ZM1271.73 499.483Q1273 499.483 1274 498.916Q1275.01 498.349 1275.59 497.334Q1276.16 496.314 1276.16 495.053Q1276.16 493.796 1275.59 492.781Q1275.01 491.762 1274 491.195Q1273 490.628 1271.73 490.628Q1270.48 490.628 1269.47 491.195Q1268.46 491.762 1267.88 492.781Q1267.31 493.796 1267.31 495.053Q1267.31 496.314 1267.88 497.334Q1268.46 498.349 1269.47 498.916Q1270.48 499.483 1271.73 499.483ZM1291.9 488.576Q1293.75 488.576 1295.24 489.415Q1296.72 490.25 1297.57 491.727Q1298.41 493.203 1298.41 495.053Q1298.41 496.908 1297.57 498.384Q1296.72 499.861 1295.24 500.7Q1293.75 501.535 1291.9 501.535Q1290.2 501.535 1288.81 500.832Q1287.41 500.129 1286.52 498.872Q1285.63 497.611 1285.41 496.007L1283.44 496.007L1283.44 501.355L1281.13 501.355L1281.13 488.756L1283.44 488.756L1283.44 493.919L1285.45 493.919Q1285.7 492.355 1286.59 491.142Q1287.48 489.925 1288.86 489.252Q1290.24 488.576 1291.9 488.576ZM1291.9 499.483Q1293.07 499.483 1294.02 498.925Q1294.97 498.367 1295.51 497.36Q1296.05 496.35 1296.05 495.053Q1296.05 493.757 1295.51 492.75Q1294.97 491.744 1294.02 491.186Q1293.07 490.628 1291.9 490.628Q1290.73 490.628 1289.78 491.186Q1288.84 491.744 1288.29 492.75Q1287.74 493.757 1287.74 495.053Q1287.74 496.35 1288.29 497.36Q1288.84 498.367 1289.78 498.925Q1290.73 499.483 1291.9 499.483Z" fill="#000000" fill-opacity="1.000000" fill-rule="evenodd"/>
	<path id="0" d="M55.9995 453.47Q54.4663 453.47 53.2656 452.658Q52.065 451.84 51.3908 450.321Q50.7212 448.797 50.7212 446.733Q50.7212 444.673 51.3908 443.149Q52.065 441.625 53.2656 440.813Q54.4663 440 55.9995 440Q57.5326 440 58.7333 440.813Q59.9339 441.625 60.6128 443.149Q61.2962 444.673 61.2962 446.733Q61.2962 448.797 60.6128 450.321Q59.9339 451.84 58.7333 452.658Q57.5326 453.47 55.9995 453.47ZM55.9995 452.219Q57.1539 452.219 58.0313 451.577Q58.9134 450.935 59.4029 449.707Q59.897 448.474 59.897 446.733Q59.897 444.997 59.4029 443.768Q58.9134 442.535 58.0313 441.893Q57.1539 441.251 55.9995 441.251Q54.845 441.251 53.963 441.893Q53.0855 442.535 52.5914 443.768Q52.1019 444.997 52.1019 446.733Q52.1019 448.474 52.5914 449.707Q53.0855 450.935 53.963 451.577Q54.845 452.219 55.9995 452.219Z" fill="#000000" fill-opacity="1.000000" fill-rule="evenodd"/>
	<path id="5" d="M56.472 335.541Q59.3444 335.541 60.6605 336.576Q61.9766 337.606 61.9766 339.457Q61.9766 340.612 61.4363 341.522Q60.896 342.427 59.8154 342.949Q58.7394 343.47 57.1694 343.47Q55.7517 343.47 54.4725 343.009Q53.1979 342.542 52.4221 341.766L53.0825 340.686Q53.7475 341.369 54.8235 341.794Q55.904 342.219 57.1509 342.219Q58.7949 342.219 59.6954 341.485Q60.5958 340.746 60.5958 339.517Q60.5958 338.155 59.5799 337.453Q58.5686 336.751 56.1673 336.751L53.3503 336.751L54.0292 330.115L61.2747 330.115L61.2747 331.325L55.2206 331.325L54.768 335.541L56.472 335.541Z" fill="#000000" fill-opacity="1.000000" fill-rule="evenodd"/>
	<path id="10" d="M47.5641 220.115L47.5641 233.355L46.2018 233.355L46.2018 221.325L43.0801 221.325L43.0801 220.115L47.5641 220.115ZM55.9995 233.47Q54.4663 233.47 53.2656 232.658Q52.065 231.84 51.3908 230.321Q50.7212 228.797 50.7212 226.733Q50.7212 224.673 51.3908 223.149Q52.065 221.625 53.2656 220.813Q54.4663 220 55.9995 220Q57.5326 220 58.7333 220.813Q59.9339 221.625 60.6128 223.149Q61.2962 224.673 61.2962 226.733Q61.2962 228.797 60.6128 230.321Q59.9339 231.84 58.7333 232.658Q57.5326 233.47 55.9995 233.47ZM55.9995 232.219Q57.1539 232.219 58.0313 231.577Q58.9134 230.935 59.4029 229.707Q59.897 228.474 59.897 226.733Q59.897 224.997 59.4029 223.768Q58.9134 222.535 58.0313 221.893Q57.1539 221.251 55.9995 221.251Q54.845 221.251 53.963 221.893Q53.0855 222.535 52.5914 223.768Q52.1019 224.997 52.1019 226.733Q52.1019 228.474 52.5914 229.707Q53.0855 230.935 53.963 231.577Q54.845 232.219 55.9995 232.219Z" fill="#000000" fill-opacity="1.000000" fill-rule="evenodd"/>
	<path id="15" d="M49.3799 110.115L49.3799 123.355L48.0177 123.355L48.0177 111.325L44.896 111.325L44.896 110.115L49.3799 110.115ZM56.0189 115.541Q58.8913 115.541 60.2074 116.576Q61.5235 117.606 61.5235 119.457Q61.5235 120.612 60.9832 121.522Q60.4429 122.427 59.3623 122.949Q58.2863 123.47 56.7162 123.47Q55.2985 123.47 54.0194 123.009Q52.7448 122.542 51.969 121.766L52.6294 120.686Q53.2943 121.369 54.3703 121.794Q55.4509 122.219 56.6978 122.219Q58.3417 122.219 59.2422 121.485Q60.1427 120.746 60.1427 119.517Q60.1427 118.155 59.1268 117.453Q58.1155 116.751 55.7141 116.751L52.8972 116.751L53.576 110.115L60.8216 110.115L60.8216 111.325L54.7675 111.325L54.3149 115.541L56.0189 115.541Z" fill="#000000" fill-opacity="1.000000" fill-rule="evenodd"/>
	<path id="20" d="M49.095 12.1451L49.095 13.355L39.8084 13.355L39.8084 12.3898L45.3129 7.00073Q46.352 5.98017 46.7214 5.23207Q47.0908 4.48397 47.0908 3.72663Q47.0908 2.55368 46.2873 1.90255Q45.4838 1.25142 43.9876 1.25142Q41.6602 1.25142 40.3764 2.72454L39.4112 1.89332Q40.187 0.983586 41.3877 0.494087Q42.5884 -2.95639e-05 44.103 -2.95639e-05Q46.1257 -2.95639e-05 47.3079 0.955878Q48.4901 1.91179 48.4901 3.57424Q48.4901 4.59941 48.0329 5.54609Q47.5803 6.48814 46.315 7.71651L41.8126 12.1451L49.095 12.1451ZM55.9995 13.4704Q54.4663 13.4704 53.2656 12.6577Q52.065 11.8403 51.3908 10.321Q50.7212 8.7971 50.7212 6.73289Q50.7212 4.6733 51.3908 3.14939Q52.065 1.62548 53.2656 0.812723Q54.4663 -2.95639e-05 55.9995 -2.95639e-05Q57.5326 -2.95639e-05 58.7333 0.812723Q59.9339 1.62548 60.6128 3.14939Q61.2962 4.6733 61.2962 6.73289Q61.2962 8.7971 60.6128 10.321Q59.9339 11.8403 58.7333 12.6577Q57.5326 13.4704 55.9995 13.4704ZM55.9995 12.219Q57.1539 12.219 58.0313 11.5771Q58.9134 10.9352 59.4029 9.70683Q59.897 8.47384 59.897 6.73289Q59.897 4.99655 59.4029 3.76819Q58.9134 2.53521 58.0313 1.89332Q57.1539 1.25142 55.9995 1.25142Q54.845 1.25142 53.963 1.89332Q53.0855 2.53521 52.5914 3.76819Q52.1019 4.99655 52.1019 6.73289Q52.1019 8.47384 52.5914 9.70683Q53.0855 10.9352 53.963 11.5771Q54.845 12.219 55.9995 12.219Z" fill="#000000" fill-opacity="1.000000" fill-rule="evenodd"/>
	<path id="image 9 (Traced)" d="M401.792 483.506C401.127 483.75 400.62 484.577 400.727 485.239C400.843 485.956 401.03 486.17 405.279 490.449C410.868 496.079 410.868 494.722 405.279 500.351C402.167 503.486 401.084 504.625 400.95 504.909C400.174 506.552 401.609 507.929 403.247 507.113C403.846 506.815 413.788 496.841 414.072 496.252C414.708 494.936 414.79 495.047 408.731 488.98C402.832 483.072 402.876 483.108 401.792 483.506ZM411.985 483.759C411.253 484.198 411.005 485.126 411.398 485.956C411.542 486.261 412.526 487.3 415.694 490.49C421.235 496.072 421.241 494.723 415.653 500.351C412.541 503.486 411.458 504.625 411.324 504.909C410.547 506.552 411.983 507.929 413.621 507.113C414.24 506.804 424.094 496.923 424.405 496.3C425.083 494.938 425.138 495.015 419.189 489.058C413.236 483.097 413.169 483.048 411.985 483.759Z" fill="url(#paint_linear_75_2958_0)" fill-opacity="1.000000" fill-rule="evenodd"/>
	<path id="image 9 (Traced)" d="M717.792 483.506C717.127 483.75 716.62 484.577 716.727 485.239C716.843 485.956 717.03 486.17 721.279 490.449C726.868 496.079 726.868 494.722 721.279 500.351C718.167 503.486 717.084 504.625 716.95 504.909C716.174 506.552 717.609 507.929 719.247 507.113C719.846 506.815 729.788 496.841 730.072 496.252C730.708 494.936 730.79 495.047 724.731 488.98C718.832 483.072 718.876 483.108 717.792 483.506ZM727.985 483.759C727.253 484.198 727.005 485.126 727.398 485.956C727.542 486.261 728.526 487.3 731.694 490.49C737.235 496.072 737.241 494.723 731.653 500.351C728.541 503.486 727.458 504.625 727.324 504.909C726.547 506.552 727.983 507.929 729.621 507.113C730.24 506.804 740.094 496.923 740.405 496.3C741.083 494.938 741.138 495.015 735.189 489.058C729.236 483.097 729.169 483.048 727.985 483.759Z" fill="url(#paint_linear_75_3004_0)" fill-opacity="1.000000" fill-rule="evenodd"/>
	<path id="image 9 (Traced)" d="M1017.79 483.506C1017.13 483.75 1016.62 484.577 1016.73 485.239C1016.84 485.956 1017.03 486.17 1021.28 490.449C1026.87 496.079 1026.87 494.722 1021.28 500.351C1018.17 503.486 1017.08 504.625 1016.95 504.909C1016.17 506.552 1017.61 507.929 1019.25 507.113C1019.85 506.815 1029.79 496.841 1030.07 496.252C1030.71 494.936 1030.79 495.047 1024.73 488.98C1018.83 483.072 1018.88 483.108 1017.79 483.506ZM1027.98 483.759C1027.25 484.198 1027.01 485.126 1027.4 485.956C1027.54 486.261 1028.53 487.3 1031.69 490.49C1037.23 496.072 1037.24 494.723 1031.65 500.351C1028.54 503.486 1027.46 504.625 1027.32 504.909C1026.55 506.552 1027.98 507.929 1029.62 507.113C1030.24 506.804 1040.09 496.923 1040.4 496.3C1041.08 494.938 1041.14 495.015 1035.19 489.058C1029.24 483.097 1029.17 483.048 1027.98 483.759Z" fill="url(#paint_linear_75_3005_0)" fill-opacity="1.000000" fill-rule="evenodd"/>
</svg>
