<svg width="1824.898926" height="657.000000" viewBox="0 0 1824.9 657" fill="none" xmlns="http://www.w3.org/2000/svg" xmlns:xlink="http://www.w3.org/1999/xlink">
	<desc>
			Created with Pixso.
	</desc>
	<defs>
		<linearGradient id="paint_linear_76_3029_0" x1="212.212387" y1="451.000000" x2="212.212387" y2="680.846191" gradientUnits="userSpaceOnUse">
			<stop stop-color="#BBBBBB"/>
			<stop offset="1.000000" stop-color="#BBBBBB" stop-opacity="0.000000"/>
		</linearGradient>
		<linearGradient id="paint_linear_76_3030_0" x1="351.297119" y1="578.538452" x2="341.712402" y2="594.389282" gradientUnits="userSpaceOnUse">
			<stop stop-color="#009C4F"/>
			<stop offset="1.000000" stop-color="#C6F579"/>
		</linearGradient>
		<linearGradient id="paint_linear_76_3142_0" x1="494.212402" y1="451.000000" x2="494.212402" y2="680.846191" gradientUnits="userSpaceOnUse">
			<stop stop-color="#BBBBBB"/>
			<stop offset="1.000000" stop-color="#BBBBBB" stop-opacity="0.000000"/>
		</linearGradient>
		<linearGradient id="paint_linear_76_3143_0" x1="633.297119" y1="578.538452" x2="623.712402" y2="594.389282" gradientUnits="userSpaceOnUse">
			<stop stop-color="#009C4F"/>
			<stop offset="1.000000" stop-color="#C6F579"/>
		</linearGradient>
		<linearGradient id="paint_linear_76_3137_0" x1="776.212402" y1="451.000000" x2="776.212402" y2="680.846191" gradientUnits="userSpaceOnUse">
			<stop stop-color="#BBBBBB"/>
			<stop offset="1.000000" stop-color="#BBBBBB" stop-opacity="0.000000"/>
		</linearGradient>
		<linearGradient id="paint_linear_76_3138_0" x1="915.297119" y1="578.538452" x2="905.712402" y2="594.389282" gradientUnits="userSpaceOnUse">
			<stop stop-color="#009C4F"/>
			<stop offset="1.000000" stop-color="#C6F579"/>
		</linearGradient>
		<linearGradient id="paint_linear_76_3115_0" x1="1058.212402" y1="372.000000" x2="1058.212402" y2="727.942322" gradientUnits="userSpaceOnUse">
			<stop stop-color="#BBBBBB"/>
			<stop offset="1.000000" stop-color="#BBBBBB" stop-opacity="0.000000"/>
		</linearGradient>
		<linearGradient id="paint_linear_76_3116_0" x1="1197.297119" y1="575.794861" x2="1187.712402" y2="594.287537" gradientUnits="userSpaceOnUse">
			<stop stop-color="#009C4F"/>
			<stop offset="1.000000" stop-color="#C6F579"/>
		</linearGradient>
		<linearGradient id="paint_linear_76_3120_0" x1="1340.212402" y1="63.000000" x2="1340.212402" y2="912.153870" gradientUnits="userSpaceOnUse">
			<stop stop-color="#BBBBBB"/>
			<stop offset="1.000000" stop-color="#BBBBBB" stop-opacity="0.000000"/>
		</linearGradient>
		<linearGradient id="paint_linear_76_3121_0" x1="1479.297119" y1="534.640991" x2="1469.712402" y2="592.760803" gradientUnits="userSpaceOnUse">
			<stop stop-color="#009C4F"/>
			<stop offset="1.000000" stop-color="#C6F579"/>
		</linearGradient>
		<linearGradient id="paint_linear_76_3125_0" x1="1622.212402" y1="160.000000" x2="1622.212402" y2="854.326904" gradientUnits="userSpaceOnUse">
			<stop stop-color="#BBBBBB"/>
			<stop offset="1.000000" stop-color="#BBBBBB" stop-opacity="0.000000"/>
		</linearGradient>
		<linearGradient id="paint_linear_76_3126_0" x1="1761.297119" y1="534.640991" x2="1751.712402" y2="592.760803" gradientUnits="userSpaceOnUse">
			<stop stop-color="#009C4F"/>
			<stop offset="1.000000" stop-color="#C6F579"/>
		</linearGradient>
		<linearGradient id="paint_linear_76_3060_0" x1="405.746277" y1="624.076904" x2="403.813232" y2="655.778625" gradientUnits="userSpaceOnUse">
			<stop stop-color="#009C4F"/>
			<stop offset="1.000000" stop-color="#C6F579"/>
		</linearGradient>
		<linearGradient id="paint_linear_76_3061_0" x1="706.746338" y1="624.076904" x2="704.813293" y2="655.778625" gradientUnits="userSpaceOnUse">
			<stop stop-color="#009C4F"/>
			<stop offset="1.000000" stop-color="#C6F579"/>
		</linearGradient>
		<linearGradient id="paint_linear_76_3062_0" x1="988.746338" y1="624.076904" x2="986.813293" y2="655.778625" gradientUnits="userSpaceOnUse">
			<stop stop-color="#009C4F"/>
			<stop offset="1.000000" stop-color="#C6F579"/>
		</linearGradient>
		<linearGradient id="paint_linear_76_3129_0" x1="1270.746216" y1="624.076904" x2="1268.813110" y2="655.778625" gradientUnits="userSpaceOnUse">
			<stop stop-color="#009C4F"/>
			<stop offset="1.000000" stop-color="#C6F579"/>
		</linearGradient>
		<linearGradient id="paint_linear_76_3130_0" x1="1559.746216" y1="624.076904" x2="1557.813110" y2="655.778625" gradientUnits="userSpaceOnUse">
			<stop stop-color="#009C4F"/>
			<stop offset="1.000000" stop-color="#C6F579"/>
		</linearGradient>
	</defs>
	<path id="відсоток пацієнтів" d="M14.4653 471.377Q15.2417 468.293 18.3325 468.293Q20.4346 468.293 21.5771 469.868Q22.7124 471.443 22.7124 474.563L22.7124 482.209L6.81152 482.209L6.81152 474.827Q6.81152 472.007 7.88086 470.417Q8.94287 468.828 10.8911 468.828Q12.1509 468.828 13.0664 469.509Q13.9819 470.183 14.4653 471.377ZM13.6523 479.39L13.6523 475.068Q13.6523 473.42 13.0518 472.563Q12.4512 471.707 11.3159 471.707Q9.03076 471.707 9.03076 475.068L9.03076 479.39L13.6523 479.39ZM20.4932 474.768Q20.4932 472.974 19.9219 472.073Q19.3506 471.172 18.1494 471.172Q16.9189 471.172 16.3257 472Q15.7251 472.82 15.7251 474.592L15.7251 479.39L20.4932 479.39L20.4932 474.768ZM6.81152 463.789L6.81152 460.911L22.7124 460.911L22.7124 463.789L6.81152 463.789ZM3.75 462.354Q3.75 463.189 3.21533 463.746Q2.67334 464.302 1.88965 464.302Q1.11328 464.302 0.55664 463.746Q-9.53674e-07 463.189 -9.53674e-07 462.354Q-9.53674e-07 461.512 0.527343 460.962Q1.05469 460.406 1.83105 460.406Q2.64404 460.406 3.20068 460.962Q3.75 461.512 3.75 462.354ZM20.1929 439.128L26.4038 439.128L26.4038 441.83L22.7124 441.83L22.7124 455.116L26.4038 455.116L26.4038 457.848L20.1929 457.848L20.1929 457.013Q20.105 455.483 18.0322 454.911Q15.9595 454.34 12.1802 454.128L6.81152 453.893L6.81152 441.559L20.1929 441.559L20.1929 439.128ZM12.3926 451.491Q15.3955 451.608 17.3584 451.989Q19.3213 452.362 20.1929 453.351L20.1929 444.438L9.33105 444.438L9.33105 451.337L12.3926 451.491ZM22.8955 428.451Q22.8955 430.882 21.8481 432.787Q20.7935 434.691 18.9478 435.775Q17.102 436.852 14.7656 436.852Q12.4219 436.852 10.5762 435.775Q8.73047 434.691 7.69775 432.787Q6.66504 430.882 6.66504 428.451Q6.66504 426.29 7.53662 424.598Q8.40088 422.899 10.0488 421.969L11.4624 424.159Q10.3198 424.913 9.75586 426.026Q9.18457 427.132 9.18457 428.48Q9.18457 430.04 9.87304 431.285Q10.5615 432.53 11.8359 433.241Q13.1103 433.944 14.7656 433.944Q16.4429 433.944 17.7173 433.241Q18.9917 432.53 19.6875 431.285Q20.376 430.04 20.376 428.48Q20.376 427.132 19.8047 426.026Q19.2334 424.913 18.0908 424.159L19.4751 421.969Q21.123 422.899 22.0093 424.598Q22.8955 426.29 22.8955 428.451ZM22.8955 411.678Q22.8955 414.051 21.8481 415.941Q20.7935 417.83 18.9478 418.9Q17.102 419.962 14.7656 419.962Q12.4219 419.962 10.5762 418.9Q8.73046 417.83 7.69775 415.941Q6.66504 414.051 6.66504 411.678Q6.66504 409.312 7.69775 407.437Q8.73046 405.562 10.5762 404.5Q12.4219 403.431 14.7656 403.431Q17.102 403.431 18.9478 404.5Q20.7935 405.562 21.8481 407.437Q22.8955 409.312 22.8955 411.678ZM20.376 411.678Q20.376 410.155 19.6728 408.939Q18.9624 407.723 17.688 407.034Q16.4136 406.339 14.7656 406.339Q13.1103 406.339 11.8359 407.034Q10.5615 407.723 9.87304 408.939Q9.18457 410.155 9.18457 411.678Q9.18457 413.209 9.87304 414.425Q10.5615 415.64 11.8359 416.351Q13.1103 417.054 14.7656 417.054Q16.4136 417.054 17.688 416.351Q18.9624 415.64 19.6728 414.425Q20.376 413.209 20.376 411.678ZM9.33105 388.009L9.33105 393.832L22.7124 393.832L22.7124 396.71L9.33105 396.71L9.33105 402.533L6.81152 402.533L6.81152 388.009L9.33105 388.009ZM22.8955 378.948Q22.8955 381.321 21.8481 383.211Q20.7935 385.1 18.9478 386.17Q17.102 387.232 14.7656 387.232Q12.4219 387.232 10.5762 386.17Q8.73046 385.1 7.69775 383.211Q6.66503 381.321 6.66503 378.948Q6.66503 376.582 7.69775 374.707Q8.73046 372.832 10.5762 371.77Q12.4219 370.701 14.7656 370.701Q17.102 370.701 18.9477 371.77Q20.7935 372.832 21.8481 374.707Q22.8955 376.582 22.8955 378.948ZM20.376 378.948Q20.376 377.424 19.6728 376.209Q18.9624 374.993 17.688 374.304Q16.4136 373.609 14.7656 373.609Q13.1103 373.609 11.8359 374.304Q10.5615 374.993 9.87304 376.209Q9.18457 377.424 9.18457 378.948Q9.18457 380.479 9.87304 381.695Q10.5615 382.91 11.8359 383.621Q13.1103 384.324 14.7656 384.324Q16.4136 384.324 17.688 383.621Q18.9624 382.91 19.6728 381.695Q20.376 380.479 20.376 378.948ZM15.9888 360.348L15.9888 363.651L22.7124 363.651L22.7124 366.529L6.81152 366.529L6.81152 363.651L13.5352 363.651L13.5352 360.289L6.81152 355.133L6.81152 352.042L14.4653 358.07L22.7124 351.617L22.7124 355.008L15.9888 360.348ZM6.81152 325.79L22.7124 325.79L22.7124 328.669L9.33105 328.669L9.33105 337.641L22.7124 337.641L22.7124 340.519L6.81152 340.519L6.81152 325.79ZM6.66503 314.541Q6.66503 311.237 8.28368 309.487Q9.90234 307.729 13.1103 307.729L22.7124 307.729L22.7124 310.461L20.6103 310.461Q21.7236 311.179 22.3096 312.519Q22.8955 313.852 22.8955 315.676Q22.8955 318.349 21.6064 319.953Q20.3101 321.557 18.2153 321.557Q16.1133 321.557 14.8389 320.026Q13.5644 318.496 13.5644 315.17L13.5644 310.607L12.9932 310.607Q11.1328 310.607 10.144 311.691Q9.15527 312.768 9.15527 314.87Q9.15527 316.276 9.62402 317.631Q10.0854 318.979 10.8618 319.909L8.70116 321.11Q7.71239 319.88 7.19238 318.173Q6.66503 316.459 6.66503 314.541ZM20.6689 315.2Q20.6689 313.552 19.9365 312.351Q19.2041 311.149 17.8491 310.607L15.6299 310.607L15.6299 315.046Q15.6299 318.708 18.0908 318.708Q19.292 318.708 19.9805 317.778Q20.6689 316.848 20.6689 315.2ZM20.1929 285.562L26.521 285.562L26.521 288.287L22.7124 288.287L22.7124 302.539L6.81152 302.539L6.81152 299.661L20.1929 299.661L20.1929 290.96L6.81152 290.96L6.81151 288.081L20.1929 288.081L20.1929 285.562ZM6.81151 281.839L6.81151 278.961L22.7124 278.961L22.7124 281.839L6.81151 281.839ZM3.74999 280.404Q3.74999 281.239 3.21532 281.796Q2.67333 282.352 1.88964 282.352Q1.11327 282.352 0.556632 281.796Q-8.58307e-06 281.239 -8.58307e-06 280.404Q-8.58307e-06 279.562 0.527335 279.012Q1.05468 278.456 1.83105 278.456Q2.64403 278.456 3.20068 279.012Q3.74999 279.562 3.74999 280.404ZM22.8882 266.245Q22.8882 268.669 21.8408 270.64Q20.7934 272.602 18.9331 273.716Q17.0727 274.822 14.7583 274.822Q12.4219 274.822 10.5615 273.716Q8.70116 272.602 7.6538 270.64Q6.59911 268.669 6.59911 266.245Q6.59911 264.143 7.26562 262.451Q7.9248 260.752 9.18456 259.58L10.8618 261.265Q8.97216 263.183 8.97216 266.12Q8.97216 268.464 10.3052 270.112Q11.6382 271.76 13.7988 272.09L13.7988 264.114L15.9302 264.114L15.9302 272.031Q18.0029 271.643 19.2773 270.024Q20.5517 268.406 20.5517 266.12Q20.5517 263.213 18.6328 261.265L20.2808 259.58Q21.5698 260.752 22.229 262.466Q22.8882 264.172 22.8882 266.245ZM6.81151 256.039L6.81151 253.161L13.5644 253.161L13.5644 244.101L6.81151 244.101L6.81151 241.223L22.7124 241.223L22.7124 244.101L16.0547 244.101L16.0547 253.161L22.7124 253.161L22.7124 256.039L6.81151 256.039ZM9.33104 223.759L9.33104 229.582L22.7124 229.582L22.7124 232.46L9.33104 232.46L9.33104 238.283L6.81151 238.283L6.81151 223.759L9.33104 223.759ZM6.81151 220.819L6.81151 217.941L22.7124 217.941L22.7124 220.819L6.81151 220.819ZM3.74999 219.384Q3.74999 220.219 3.21532 220.776Q2.67333 221.332 1.88964 221.332Q1.11327 221.332 0.556629 220.776Q-1.14441e-05 220.219 -1.14441e-05 219.384Q-1.14441e-05 218.542 0.527332 217.992Q1.05468 217.436 1.83104 217.436Q2.64403 217.436 3.20067 217.992Q3.74999 218.542 3.74999 219.384ZM14.4653 201.497Q15.2417 198.413 18.3325 198.413Q20.4346 198.413 21.5771 199.988Q22.7124 201.563 22.7124 204.683L22.7124 212.329L6.81151 212.329L6.81151 204.947Q6.81151 202.127 7.88085 200.537Q8.94286 198.948 10.8911 198.948Q12.1509 198.948 13.0664 199.629Q13.9819 200.303 14.4653 201.497ZM13.6523 209.51L13.6523 205.188Q13.6523 203.54 13.0517 202.683Q12.4512 201.827 11.3159 201.827Q9.03075 201.827 9.03075 205.188L9.03075 209.51L13.6523 209.51ZM20.4932 204.888Q20.4932 203.094 19.9219 202.193Q19.3506 201.292 18.1494 201.292Q16.9189 201.292 16.3257 202.12Q15.7251 202.94 15.7251 204.712L15.7251 209.51L20.4932 209.51L20.4932 204.888Z" fill="#000000" fill-opacity="1.000000" fill-rule="evenodd"/>
	<path id="Line 2" d="M101.895 63L101.895 597L99.5303 597L99.5303 63L101.895 63ZM100.712 64.6719L94.8608 70.5234C94.3926 70.9915 93.6572 70.9915 93.189 70.5234C92.7207 70.0552 92.7207 69.3196 93.189 68.8516L99.8765 62.1641C100.345 61.696 101.08 61.696 101.548 62.1641L108.236 68.8516C108.704 69.3196 108.704 70.0552 108.236 70.5234C107.768 70.9915 107.032 70.9915 106.564 70.5234L100.712 64.6719Z" fill="#000000" fill-opacity="1.000000" fill-rule="evenodd"/>
	<path id="Line 3" d="M1823.71 598.182L100.712 598.182L100.712 595.818L1823.71 595.818L1823.71 598.182ZM1822.04 597L1816.19 591.148C1815.72 590.68 1815.72 589.945 1816.19 589.477C1816.66 589.009 1817.39 589.009 1817.86 589.477L1824.55 596.164C1825.02 596.632 1825.02 597.368 1824.55 597.836L1817.86 604.523C1817.39 604.991 1816.66 604.991 1816.19 604.523C1815.72 604.055 1815.72 603.32 1816.19 602.852L1822.04 597Z" fill="#000000" fill-opacity="1.000000" fill-rule="evenodd"/>
	<path id="Rectangle 23" d="M173.992 451L250.433 451C262.186 451 271.712 460.527 271.712 472.279L271.712 595L152.712 595L152.712 472.279C152.712 460.527 162.239 451 173.992 451Z" fill="url(#paint_linear_76_3029_0)" fill-opacity="1.000000" fill-rule="evenodd"/>
	<path id="Rectangle 24" d="M293.712 583L388.712 583C395.34 583 400.712 588.373 400.712 595L281.712 595C281.712 588.373 287.085 583 293.712 583Z" fill="url(#paint_linear_76_3030_0)" fill-opacity="1.000000" fill-rule="evenodd"/>
	<path id="14%" d="M184.614 407.038L184.614 436L177.907 436L177.907 412.413L172.118 412.413L172.118 407.038L184.614 407.038ZM216.178 429.919L211.461 429.919L211.461 436L204.925 436L204.925 429.919L189.328 429.919L189.328 425.403L202.985 407.038L210.016 407.038L197.359 424.454L205.137 424.454L205.137 419.039L211.461 419.039L211.461 424.454L216.178 424.454L216.178 429.919ZM223.626 422.676Q220.444 422.676 218.434 420.504Q216.433 418.332 216.433 414.696Q216.433 411.049 218.434 408.877Q220.444 406.705 223.626 406.705Q226.818 406.705 228.798 408.877Q230.788 411.049 230.788 414.696Q230.788 418.332 228.798 420.504Q226.818 422.676 223.626 422.676ZM240.88 407.038L245.809 407.038L226.03 436L221.1 436L240.88 407.038ZM223.626 419.282Q225.04 419.282 225.838 418.13Q226.646 416.968 226.646 414.696Q226.646 412.413 225.838 411.261Q225.04 410.099 223.626 410.099Q222.262 410.099 221.434 411.281Q220.605 412.453 220.605 414.696Q220.605 416.928 221.434 418.11Q222.262 419.282 223.626 419.282ZM243.284 436.333Q241.213 436.333 239.576 435.364Q237.95 434.384 237.031 432.565Q236.122 430.747 236.122 428.343Q236.122 425.949 237.031 424.131Q237.95 422.302 239.576 421.332Q241.213 420.363 243.284 420.363Q246.466 420.363 248.476 422.534Q250.486 424.706 250.486 428.343Q250.486 431.99 248.476 434.161Q246.466 436.333 243.284 436.333ZM243.284 432.939Q244.688 432.939 245.496 431.757Q246.304 430.575 246.304 428.343Q246.304 426.11 245.496 424.939Q244.688 423.757 243.284 423.757Q241.92 423.757 241.092 424.918Q240.263 426.07 240.263 428.343Q240.263 430.626 241.092 431.788Q241.92 432.939 243.284 432.939Z" fill="#737373" fill-opacity="1.000000" fill-rule="evenodd"/>
	<path id="0%" d="M324.053 567.495Q320.446 567.495 317.628 565.717Q314.82 563.939 313.224 560.565Q311.638 557.191 311.638 552.514Q311.638 547.847 313.224 544.473Q314.82 541.099 317.628 539.321Q320.446 537.543 324.053 537.543Q327.649 537.543 330.457 539.321Q333.276 541.099 334.862 544.473Q336.458 547.847 336.458 552.514Q336.458 557.191 334.862 560.565Q333.276 563.939 330.457 565.717Q327.649 567.495 324.053 567.495ZM324.053 561.828Q326.699 561.828 328.204 559.555Q329.72 557.272 329.72 552.514Q329.72 547.756 328.204 545.483Q326.699 543.211 324.053 543.211Q321.436 543.211 319.921 545.483Q318.416 547.756 318.416 552.514Q318.416 557.272 319.921 559.555Q321.436 561.828 324.053 561.828ZM346.43 553.676Q343.248 553.676 341.238 551.504Q339.237 549.332 339.237 545.696Q339.237 542.049 341.238 539.877Q343.248 537.705 346.43 537.705Q349.622 537.705 351.602 539.877Q353.592 542.049 353.592 545.696Q353.592 549.332 351.602 551.504Q349.622 553.676 346.43 553.676ZM363.684 538.038L368.613 538.038L348.834 567L343.904 567L363.684 538.038ZM346.43 550.282Q347.844 550.282 348.642 549.13Q349.45 547.968 349.45 545.696Q349.45 543.413 348.642 542.261Q347.844 541.099 346.43 541.099Q345.066 541.099 344.238 542.281Q343.409 543.453 343.409 545.696Q343.409 547.928 344.238 549.11Q345.066 550.282 346.43 550.282ZM366.088 567.333Q364.017 567.333 362.38 566.364Q360.754 565.384 359.835 563.565Q358.926 561.747 358.926 559.343Q358.926 556.949 359.835 555.13Q360.754 553.302 362.38 552.332Q364.017 551.363 366.088 551.363Q369.27 551.363 371.28 553.534Q373.29 555.706 373.29 559.343Q373.29 562.99 371.28 565.161Q369.27 567.333 366.088 567.333ZM366.088 563.939Q367.492 563.939 368.3 562.757Q369.108 561.575 369.108 559.343Q369.108 557.11 368.3 555.939Q367.492 554.757 366.088 554.757Q364.724 554.757 363.896 555.918Q363.067 557.07 363.067 559.343Q363.067 561.626 363.896 562.788Q364.724 563.939 366.088 563.939Z" fill="#009C4F" fill-opacity="1.000000" fill-rule="evenodd"/>
	<path id="Rectangle 23" d="M455.992 451L532.433 451C544.186 451 553.712 460.527 553.712 472.279L553.712 595L434.712 595L434.712 472.279C434.712 460.527 444.239 451 455.992 451Z" fill="url(#paint_linear_76_3142_0)" fill-opacity="1.000000" fill-rule="evenodd"/>
	<path id="Rectangle 24" d="M575.712 583L670.712 583C677.34 583 682.712 588.373 682.712 595L563.712 595C563.712 588.373 569.085 583 575.712 583Z" fill="url(#paint_linear_76_3143_0)" fill-opacity="1.000000" fill-rule="evenodd"/>
	<path id="14%" d="M466.614 407.038L466.614 436L459.907 436L459.907 412.413L454.118 412.413L454.118 407.038L466.614 407.038ZM498.178 429.919L493.461 429.919L493.461 436L486.925 436L486.925 429.919L471.328 429.919L471.328 425.403L484.985 407.038L492.016 407.038L479.359 424.454L487.137 424.454L487.137 419.039L493.461 419.039L493.461 424.454L498.178 424.454L498.178 429.919ZM505.626 422.676Q502.444 422.676 500.434 420.504Q498.433 418.332 498.433 414.696Q498.433 411.049 500.434 408.877Q502.444 406.705 505.626 406.705Q508.818 406.705 510.798 408.877Q512.788 411.049 512.788 414.696Q512.788 418.332 510.798 420.504Q508.818 422.676 505.626 422.676ZM522.88 407.038L527.809 407.038L508.03 436L503.1 436L522.88 407.038ZM505.626 419.282Q507.04 419.282 507.838 418.13Q508.646 416.968 508.646 414.696Q508.646 412.413 507.838 411.261Q507.04 410.099 505.626 410.099Q504.262 410.099 503.434 411.281Q502.605 412.453 502.605 414.696Q502.605 416.928 503.434 418.11Q504.262 419.282 505.626 419.282ZM525.284 436.333Q523.213 436.333 521.576 435.364Q519.95 434.384 519.031 432.565Q518.122 430.747 518.122 428.343Q518.122 425.949 519.031 424.131Q519.95 422.302 521.576 421.332Q523.213 420.363 525.284 420.363Q528.466 420.363 530.476 422.534Q532.486 424.706 532.486 428.343Q532.486 431.99 530.476 434.161Q528.466 436.333 525.284 436.333ZM525.284 432.939Q526.688 432.939 527.496 431.757Q528.304 430.575 528.304 428.343Q528.304 426.11 527.496 424.939Q526.688 423.757 525.284 423.757Q523.92 423.757 523.092 424.918Q522.263 426.07 522.263 428.343Q522.263 430.626 523.092 431.788Q523.92 432.939 525.284 432.939Z" fill="#737373" fill-opacity="1.000000" fill-rule="evenodd"/>
	<path id="0%" d="M606.053 567.495Q602.446 567.495 599.628 565.717Q596.82 563.939 595.224 560.565Q593.638 557.191 593.638 552.514Q593.638 547.847 595.224 544.473Q596.82 541.099 599.628 539.321Q602.446 537.543 606.053 537.543Q609.649 537.543 612.457 539.321Q615.276 541.099 616.862 544.473Q618.458 547.847 618.458 552.514Q618.458 557.191 616.862 560.565Q615.276 563.939 612.457 565.717Q609.649 567.495 606.053 567.495ZM606.053 561.828Q608.699 561.828 610.205 559.555Q611.72 557.272 611.72 552.514Q611.72 547.756 610.205 545.483Q608.699 543.211 606.053 543.211Q603.436 543.211 601.921 545.483Q600.416 547.756 600.416 552.514Q600.416 557.272 601.921 559.555Q603.436 561.828 606.053 561.828ZM628.43 553.676Q625.248 553.676 623.238 551.504Q621.237 549.332 621.237 545.696Q621.237 542.049 623.238 539.877Q625.248 537.705 628.43 537.705Q631.622 537.705 633.602 539.877Q635.592 542.049 635.592 545.696Q635.592 549.332 633.602 551.504Q631.622 553.676 628.43 553.676ZM645.683 538.038L650.613 538.038L630.834 567L625.904 567L645.683 538.038ZM628.43 550.282Q629.844 550.282 630.642 549.13Q631.45 547.968 631.45 545.696Q631.45 543.413 630.642 542.261Q629.844 541.099 628.43 541.099Q627.066 541.099 626.238 542.281Q625.409 543.453 625.409 545.696Q625.409 547.928 626.238 549.11Q627.066 550.282 628.43 550.282ZM648.088 567.333Q646.017 567.333 644.38 566.364Q642.754 565.384 641.835 563.565Q640.926 561.747 640.926 559.343Q640.926 556.949 641.835 555.13Q642.754 553.302 644.38 552.332Q646.017 551.363 648.088 551.363Q651.27 551.363 653.28 553.534Q655.29 555.706 655.29 559.343Q655.29 562.99 653.28 565.161Q651.27 567.333 648.088 567.333ZM648.088 563.939Q649.492 563.939 650.3 562.757Q651.108 561.575 651.108 559.343Q651.108 557.11 650.3 555.939Q649.492 554.757 648.088 554.757Q646.724 554.757 645.896 555.918Q645.067 557.07 645.067 559.343Q645.067 561.626 645.896 562.788Q646.724 563.939 648.088 563.939Z" fill="#009C4F" fill-opacity="1.000000" fill-rule="evenodd"/>
	<path id="Rectangle 23" d="M737.992 451L814.433 451C826.186 451 835.712 460.527 835.712 472.279L835.712 595L716.712 595L716.712 472.279C716.712 460.527 726.239 451 737.992 451Z" fill="url(#paint_linear_76_3137_0)" fill-opacity="1.000000" fill-rule="evenodd"/>
	<path id="Rectangle 24" d="M857.712 583L952.712 583C959.34 583 964.712 588.373 964.712 595L845.712 595C845.712 588.373 851.085 583 857.712 583Z" fill="url(#paint_linear_76_3138_0)" fill-opacity="1.000000" fill-rule="evenodd"/>
	<path id="14%" d="M748.614 407.038L748.614 436L741.907 436L741.907 412.413L736.118 412.413L736.118 407.038L748.614 407.038ZM780.178 429.919L775.461 429.919L775.461 436L768.925 436L768.925 429.919L753.328 429.919L753.328 425.403L766.985 407.038L774.016 407.038L761.359 424.454L769.137 424.454L769.137 419.039L775.461 419.039L775.461 424.454L780.178 424.454L780.178 429.919ZM787.626 422.676Q784.444 422.676 782.434 420.504Q780.433 418.332 780.433 414.696Q780.433 411.049 782.434 408.877Q784.444 406.705 787.626 406.705Q790.818 406.705 792.798 408.877Q794.788 411.049 794.788 414.696Q794.788 418.332 792.798 420.504Q790.818 422.676 787.626 422.676ZM804.88 407.038L809.809 407.038L790.03 436L785.1 436L804.88 407.038ZM787.626 419.282Q789.04 419.282 789.838 418.13Q790.646 416.968 790.646 414.696Q790.646 412.413 789.838 411.261Q789.04 410.099 787.626 410.099Q786.262 410.099 785.434 411.281Q784.605 412.453 784.605 414.696Q784.605 416.928 785.434 418.11Q786.262 419.282 787.626 419.282ZM807.284 436.333Q805.213 436.333 803.576 435.364Q801.95 434.384 801.031 432.565Q800.122 430.747 800.122 428.343Q800.122 425.949 801.031 424.131Q801.95 422.302 803.576 421.332Q805.213 420.363 807.284 420.363Q810.466 420.363 812.476 422.534Q814.486 424.706 814.486 428.343Q814.486 431.99 812.476 434.161Q810.466 436.333 807.284 436.333ZM807.284 432.939Q808.688 432.939 809.496 431.757Q810.304 430.575 810.304 428.343Q810.304 426.11 809.496 424.939Q808.688 423.757 807.284 423.757Q805.92 423.757 805.092 424.918Q804.263 426.07 804.263 428.343Q804.263 430.626 805.092 431.788Q805.92 432.939 807.284 432.939Z" fill="#737373" fill-opacity="1.000000" fill-rule="evenodd"/>
	<path id="0%" d="M888.053 567.495Q884.446 567.495 881.628 565.717Q878.82 563.939 877.224 560.565Q875.638 557.191 875.638 552.514Q875.638 547.847 877.224 544.473Q878.82 541.099 881.628 539.321Q884.446 537.543 888.053 537.543Q891.649 537.543 894.457 539.321Q897.276 541.099 898.862 544.473Q900.458 547.847 900.458 552.514Q900.458 557.191 898.862 560.565Q897.276 563.939 894.457 565.717Q891.649 567.495 888.053 567.495ZM888.053 561.828Q890.699 561.828 892.205 559.555Q893.72 557.272 893.72 552.514Q893.72 547.756 892.205 545.483Q890.699 543.211 888.053 543.211Q885.436 543.211 883.921 545.483Q882.416 547.756 882.416 552.514Q882.416 557.272 883.921 559.555Q885.436 561.828 888.053 561.828ZM910.43 553.676Q907.248 553.676 905.238 551.504Q903.237 549.332 903.237 545.696Q903.237 542.049 905.238 539.877Q907.248 537.705 910.43 537.705Q913.622 537.705 915.602 539.877Q917.592 542.049 917.592 545.696Q917.592 549.332 915.602 551.504Q913.622 553.676 910.43 553.676ZM927.683 538.038L932.613 538.038L912.834 567L907.904 567L927.683 538.038ZM910.43 550.282Q911.844 550.282 912.642 549.13Q913.45 547.968 913.45 545.696Q913.45 543.413 912.642 542.261Q911.844 541.099 910.43 541.099Q909.066 541.099 908.238 542.281Q907.409 543.453 907.409 545.696Q907.409 547.928 908.238 549.11Q909.066 550.282 910.43 550.282ZM930.088 567.333Q928.017 567.333 926.38 566.364Q924.754 565.384 923.835 563.565Q922.926 561.747 922.926 559.343Q922.926 556.949 923.835 555.13Q924.754 553.302 926.38 552.332Q928.017 551.363 930.088 551.363Q933.27 551.363 935.28 553.534Q937.29 555.706 937.29 559.343Q937.29 562.99 935.28 565.161Q933.27 567.333 930.088 567.333ZM930.088 563.939Q931.492 563.939 932.3 562.757Q933.108 561.575 933.108 559.343Q933.108 557.11 932.3 555.939Q931.492 554.757 930.088 554.757Q928.724 554.757 927.896 555.918Q927.067 557.07 927.067 559.343Q927.067 561.626 927.896 562.788Q928.724 563.939 930.088 563.939Z" fill="#009C4F" fill-opacity="1.000000" fill-rule="evenodd"/>
	<path id="Rectangle 23" d="M1019.99 372L1096.43 372C1108.19 372 1117.71 381.527 1117.71 393.279L1117.71 595L998.712 595L998.712 393.279C998.712 381.527 1008.24 372 1019.99 372Z" fill="url(#paint_linear_76_3115_0)" fill-opacity="1.000000" fill-rule="evenodd"/>
	<path id="Rectangle 24" d="M1141.71 581L1232.71 581C1240.44 581 1246.71 587.268 1246.71 595L1127.71 595C1127.71 587.268 1133.98 581 1141.71 581Z" fill="url(#paint_linear_76_3116_0)" fill-opacity="1.000000" fill-rule="evenodd"/>
	<path id="21%" d="M1043.01 349.535L1043.01 355L1021.12 355L1021.12 350.656L1032.29 340.1Q1034.07 338.413 1034.68 337.191Q1035.31 335.968 1035.31 334.766Q1035.31 333.029 1034.13 332.099Q1032.96 331.17 1030.67 331.17Q1028.77 331.17 1027.24 331.897Q1025.71 332.615 1024.67 334.059L1019.79 330.918Q1021.49 328.392 1024.47 326.968Q1027.45 325.543 1031.3 325.543Q1034.52 325.543 1036.95 326.604Q1039.37 327.655 1040.71 329.574Q1042.06 331.493 1042.06 334.11Q1042.06 336.463 1041.06 338.534Q1040.07 340.605 1037.22 343.252L1030.55 349.535L1043.01 349.535ZM1056.95 326.038L1056.95 355L1050.25 355L1050.25 331.413L1044.46 331.413L1044.46 326.038L1056.95 326.038ZM1068.7 341.676Q1065.52 341.676 1063.51 339.504Q1061.51 337.332 1061.51 333.696Q1061.51 330.049 1063.51 327.877Q1065.52 325.705 1068.7 325.705Q1071.89 325.705 1073.87 327.877Q1075.86 330.049 1075.86 333.696Q1075.86 337.332 1073.87 339.504Q1071.89 341.676 1068.7 341.676ZM1085.95 326.038L1090.88 326.038L1071.1 355L1066.17 355L1085.95 326.038ZM1068.7 338.282Q1070.11 338.282 1070.91 337.13Q1071.72 335.968 1071.72 333.696Q1071.72 331.413 1070.91 330.261Q1070.11 329.099 1068.7 329.099Q1067.33 329.099 1066.51 330.281Q1065.68 331.453 1065.68 333.696Q1065.68 335.928 1066.51 337.11Q1067.33 338.282 1068.7 338.282ZM1088.36 355.333Q1086.29 355.333 1084.65 354.364Q1083.02 353.384 1082.1 351.565Q1081.19 349.747 1081.19 347.343Q1081.19 344.949 1082.1 343.131Q1083.02 341.302 1084.65 340.332Q1086.29 339.363 1088.36 339.363Q1091.54 339.363 1093.55 341.534Q1095.56 343.706 1095.56 347.343Q1095.56 350.99 1093.55 353.161Q1091.54 355.333 1088.36 355.333ZM1088.36 351.939Q1089.76 351.939 1090.57 350.757Q1091.38 349.575 1091.38 347.343Q1091.38 345.11 1090.57 343.939Q1089.76 342.757 1088.36 342.757Q1086.99 342.757 1086.16 343.918Q1085.34 345.07 1085.34 347.343Q1085.34 349.626 1086.16 350.788Q1086.99 351.939 1088.36 351.939Z" fill="#737373" fill-opacity="1.000000" fill-rule="evenodd"/>
	<path id="0%" d="M1170.05 567.495Q1166.45 567.495 1163.63 565.717Q1160.82 563.939 1159.22 560.565Q1157.64 557.191 1157.64 552.514Q1157.64 547.847 1159.22 544.473Q1160.82 541.099 1163.63 539.321Q1166.45 537.543 1170.05 537.543Q1173.65 537.543 1176.46 539.321Q1179.28 541.099 1180.86 544.473Q1182.46 547.847 1182.46 552.514Q1182.46 557.191 1180.86 560.565Q1179.28 563.939 1176.46 565.717Q1173.65 567.495 1170.05 567.495ZM1170.05 561.828Q1172.7 561.828 1174.2 559.555Q1175.72 557.272 1175.72 552.514Q1175.72 547.756 1174.2 545.483Q1172.7 543.211 1170.05 543.211Q1167.44 543.211 1165.92 545.483Q1164.42 547.756 1164.42 552.514Q1164.42 557.272 1165.92 559.555Q1167.44 561.828 1170.05 561.828ZM1192.43 553.676Q1189.25 553.676 1187.24 551.504Q1185.24 549.332 1185.24 545.696Q1185.24 542.049 1187.24 539.877Q1189.25 537.705 1192.43 537.705Q1195.62 537.705 1197.6 539.877Q1199.59 542.049 1199.59 545.696Q1199.59 549.332 1197.6 551.504Q1195.62 553.676 1192.43 553.676ZM1209.68 538.038L1214.61 538.038L1194.83 567L1189.9 567L1209.68 538.038ZM1192.43 550.282Q1193.84 550.282 1194.64 549.13Q1195.45 547.968 1195.45 545.696Q1195.45 543.413 1194.64 542.261Q1193.84 541.099 1192.43 541.099Q1191.07 541.099 1190.24 542.281Q1189.41 543.453 1189.41 545.696Q1189.41 547.928 1190.24 549.11Q1191.07 550.282 1192.43 550.282ZM1212.09 567.333Q1210.02 567.333 1208.38 566.364Q1206.75 565.384 1205.83 563.565Q1204.93 561.747 1204.93 559.343Q1204.93 556.949 1205.83 555.13Q1206.75 553.302 1208.38 552.332Q1210.02 551.363 1212.09 551.363Q1215.27 551.363 1217.28 553.534Q1219.29 555.706 1219.29 559.343Q1219.29 562.99 1217.28 565.161Q1215.27 567.333 1212.09 567.333ZM1212.09 563.939Q1213.49 563.939 1214.3 562.757Q1215.11 561.575 1215.11 559.343Q1215.11 557.11 1214.3 555.939Q1213.49 554.757 1212.09 554.757Q1210.72 554.757 1209.9 555.918Q1209.07 557.07 1209.07 559.343Q1209.07 561.626 1209.9 562.788Q1210.72 563.939 1212.09 563.939Z" fill="#009C4F" fill-opacity="1.000000" fill-rule="evenodd"/>
	<path id="Rectangle 23" d="M1301.99 63L1378.43 63C1390.19 63 1399.71 72.5271 1399.71 84.2793L1399.71 595L1280.71 595L1280.71 84.2793C1280.71 72.5271 1290.24 63 1301.99 63Z" fill="url(#paint_linear_76_3120_0)" fill-opacity="1.000000" fill-rule="evenodd"/>
	<path id="Rectangle 24" d="M1430.99 551L1507.43 551C1519.19 551 1528.71 560.527 1528.71 572.279L1528.71 595L1409.71 595L1409.71 572.279C1409.71 560.527 1419.24 551 1430.99 551Z" fill="url(#paint_linear_76_3121_0)" fill-opacity="1.000000" fill-rule="evenodd"/>
	<path id="50%" d="M1307.76 25.918Q1313.88 25.918 1316.8 28.3626Q1319.72 30.7971 1319.72 34.8984Q1319.72 37.545 1318.39 39.7169Q1317.06 41.8887 1314.35 43.1919Q1311.65 44.495 1307.68 44.495Q1304.61 44.495 1301.65 43.6868Q1298.7 42.8787 1296.63 41.3938L1299.27 36.2621Q1300.93 37.5046 1303.08 38.1915Q1305.23 38.8683 1307.51 38.8683Q1310.03 38.8683 1311.48 37.8784Q1312.93 36.8783 1312.93 35.1004Q1312.93 33.2417 1311.42 32.2921Q1309.91 31.3426 1306.18 31.3426L1298.78 31.3426L1300.26 15.0385L1317.93 15.0385L1317.93 20.4126L1305.85 20.4126L1305.39 25.918L1307.76 25.918ZM1334.86 44.495Q1331.26 44.495 1328.44 42.7171Q1325.63 40.9392 1324.03 37.5652Q1322.45 34.1913 1322.45 29.5142Q1322.45 24.8472 1324.03 21.4732Q1325.63 18.0993 1328.44 16.3214Q1331.26 14.5435 1334.86 14.5435Q1338.46 14.5435 1341.27 16.3214Q1344.09 18.0993 1345.67 21.4732Q1347.27 24.8472 1347.27 29.5142Q1347.27 34.1913 1345.67 37.5652Q1344.09 40.9392 1341.27 42.7171Q1338.46 44.495 1334.86 44.495ZM1334.86 38.8279Q1337.51 38.8279 1339.01 36.5551Q1340.53 34.2721 1340.53 29.5142Q1340.53 24.7563 1339.01 22.4834Q1337.51 20.2105 1334.86 20.2105Q1332.25 20.2105 1330.73 22.4834Q1329.23 24.7563 1329.23 29.5142Q1329.23 34.2721 1330.73 36.5551Q1332.25 38.8279 1334.86 38.8279ZM1357.24 30.6759Q1354.06 30.6759 1352.05 28.504Q1350.05 26.3321 1350.05 22.6955Q1350.05 19.0488 1352.05 16.877Q1354.06 14.7051 1357.24 14.7051Q1360.43 14.7051 1362.41 16.877Q1364.4 19.0488 1364.4 22.6955Q1364.4 26.3321 1362.41 28.504Q1360.43 30.6759 1357.24 30.6759ZM1374.49 15.0385L1379.42 15.0385L1359.64 44L1354.71 44L1374.49 15.0385ZM1357.24 27.2817Q1358.65 27.2817 1359.45 26.1301Q1360.26 24.9684 1360.26 22.6955Q1360.26 20.4126 1359.45 19.261Q1358.65 18.0993 1357.24 18.0993Q1355.88 18.0993 1355.05 19.2812Q1354.22 20.453 1354.22 22.6955Q1354.22 24.928 1355.05 26.1099Q1355.88 27.2817 1357.24 27.2817ZM1376.9 44.3334Q1374.83 44.3334 1373.19 43.3636Q1371.56 42.3837 1370.64 40.5654Q1369.74 38.7471 1369.74 36.3429Q1369.74 33.9488 1370.64 32.1305Q1371.56 30.3021 1373.19 29.3323Q1374.83 28.3626 1376.9 28.3626Q1380.08 28.3626 1382.09 30.5344Q1384.1 32.7063 1384.1 36.3429Q1384.1 39.9896 1382.09 42.1615Q1380.08 44.3334 1376.9 44.3334ZM1376.9 40.9392Q1378.3 40.9392 1379.11 39.7573Q1379.92 38.5754 1379.92 36.3429Q1379.92 34.1104 1379.11 32.9387Q1378.3 31.7568 1376.9 31.7568Q1375.53 31.7568 1374.71 32.9184Q1373.88 34.07 1373.88 36.3429Q1373.88 38.6259 1374.71 39.7876Q1375.53 40.9392 1376.9 40.9392Z" fill="#737373" fill-opacity="1.000000" fill-rule="evenodd"/>
	<path id="4%" d="M1466.07 535.919L1461.35 535.919L1461.35 542L1454.82 542L1454.82 535.919L1439.22 535.919L1439.22 531.403L1452.88 513.038L1459.91 513.038L1447.25 530.454L1455.03 530.454L1455.03 525.039L1461.35 525.039L1461.35 530.454L1466.07 530.454L1466.07 535.919ZM1473.52 528.676Q1470.33 528.676 1468.32 526.504Q1466.32 524.332 1466.32 520.696Q1466.32 517.049 1468.32 514.877Q1470.33 512.705 1473.52 512.705Q1476.71 512.705 1478.69 514.877Q1480.68 517.049 1480.68 520.696Q1480.68 524.332 1478.69 526.504Q1476.71 528.676 1473.52 528.676ZM1490.77 513.038L1495.7 513.038L1475.92 542L1470.99 542L1490.77 513.038ZM1473.52 525.282Q1474.93 525.282 1475.73 524.13Q1476.54 522.968 1476.54 520.696Q1476.54 518.413 1475.73 517.261Q1474.93 516.099 1473.52 516.099Q1472.15 516.099 1471.32 517.281Q1470.5 518.453 1470.5 520.696Q1470.5 522.928 1471.32 524.11Q1472.15 525.282 1473.52 525.282ZM1493.17 542.333Q1491.1 542.333 1489.47 541.364Q1487.84 540.384 1486.92 538.565Q1486.01 536.747 1486.01 534.343Q1486.01 531.949 1486.92 530.13Q1487.84 528.302 1489.47 527.332Q1491.1 526.363 1493.17 526.363Q1496.36 526.363 1498.37 528.534Q1500.38 530.706 1500.38 534.343Q1500.38 537.99 1498.37 540.161Q1496.36 542.333 1493.17 542.333ZM1493.17 538.939Q1494.58 538.939 1495.39 537.757Q1496.19 536.575 1496.19 534.343Q1496.19 532.11 1495.39 530.939Q1494.58 529.757 1493.17 529.757Q1491.81 529.757 1490.98 530.918Q1490.15 532.07 1490.15 534.343Q1490.15 536.626 1490.98 537.788Q1491.81 538.939 1493.17 538.939Z" fill="#009C4F" fill-opacity="1.000000" fill-rule="evenodd"/>
	<path id="Rectangle 23" d="M1583.99 160L1660.43 160C1672.19 160 1681.71 169.527 1681.71 181.279L1681.71 595L1562.71 595L1562.71 181.279C1562.71 169.527 1572.24 160 1583.99 160Z" fill="url(#paint_linear_76_3125_0)" fill-opacity="1.000000" fill-rule="evenodd"/>
	<path id="Rectangle 24" d="M1712.99 551L1789.43 551C1801.19 551 1810.71 560.527 1810.71 572.279L1810.71 595L1691.71 595L1691.71 572.279C1691.71 560.527 1701.24 551 1712.99 551Z" fill="url(#paint_linear_76_3126_0)" fill-opacity="1.000000" fill-rule="evenodd"/>
	<path id="42%" d="M1605.08 139.919L1600.36 139.919L1600.36 146L1593.82 146L1593.82 139.919L1578.23 139.919L1578.23 135.403L1591.88 117.038L1598.91 117.038L1586.26 134.454L1594.04 134.454L1594.04 129.039L1600.36 129.039L1600.36 134.454L1605.08 134.454L1605.08 139.919ZM1628.62 140.535L1628.62 146L1606.73 146L1606.73 141.656L1617.9 131.1Q1619.68 129.413 1620.3 128.191Q1620.93 126.968 1620.93 125.766Q1620.93 124.029 1619.74 123.099Q1618.57 122.17 1616.29 122.17Q1614.39 122.17 1612.85 122.897Q1611.33 123.615 1610.29 125.059L1605.41 121.918Q1607.11 119.392 1610.09 117.968Q1613.07 116.543 1616.91 116.543Q1620.14 116.543 1622.56 117.604Q1624.99 118.655 1626.33 120.574Q1627.67 122.493 1627.67 125.11Q1627.67 127.463 1626.67 129.534Q1625.68 131.605 1622.83 134.252L1616.17 140.535L1628.62 140.535ZM1638.51 132.676Q1635.33 132.676 1633.32 130.504Q1631.32 128.332 1631.32 124.696Q1631.32 121.049 1633.32 118.877Q1635.33 116.705 1638.51 116.705Q1641.7 116.705 1643.68 118.877Q1645.67 121.049 1645.67 124.696Q1645.67 128.332 1643.68 130.504Q1641.7 132.676 1638.51 132.676ZM1655.76 117.038L1660.69 117.038L1640.91 146L1635.98 146L1655.76 117.038ZM1638.51 129.282Q1639.92 129.282 1640.72 128.13Q1641.53 126.968 1641.53 124.696Q1641.53 122.413 1640.72 121.261Q1639.92 120.099 1638.51 120.099Q1637.14 120.099 1636.32 121.281Q1635.49 122.453 1635.49 124.696Q1635.49 126.928 1636.32 128.11Q1637.14 129.282 1638.51 129.282ZM1658.17 146.333Q1656.1 146.333 1654.46 145.364Q1652.83 144.384 1651.91 142.565Q1651 140.747 1651 138.343Q1651 135.949 1651.91 134.131Q1652.83 132.302 1654.46 131.332Q1656.1 130.363 1658.17 130.363Q1661.35 130.363 1663.36 132.534Q1665.37 134.706 1665.37 138.343Q1665.37 141.99 1663.36 144.161Q1661.35 146.333 1658.17 146.333ZM1658.17 142.939Q1659.57 142.939 1660.38 141.757Q1661.19 140.575 1661.19 138.343Q1661.19 136.11 1660.38 134.939Q1659.57 133.757 1658.17 133.757Q1656.8 133.757 1655.97 134.918Q1655.15 136.07 1655.15 138.343Q1655.15 140.626 1655.97 141.788Q1656.8 142.939 1658.17 142.939Z" fill="#737373" fill-opacity="1.000000" fill-rule="evenodd"/>
	<path id="4%" d="M1748.07 535.919L1743.35 535.919L1743.35 542L1736.82 542L1736.82 535.919L1721.22 535.919L1721.22 531.403L1734.88 513.038L1741.91 513.038L1729.25 530.454L1737.03 530.454L1737.03 525.039L1743.35 525.039L1743.35 530.454L1748.07 530.454L1748.07 535.919ZM1755.52 528.676Q1752.33 528.676 1750.32 526.504Q1748.32 524.332 1748.32 520.696Q1748.32 517.049 1750.32 514.877Q1752.33 512.705 1755.52 512.705Q1758.71 512.705 1760.69 514.877Q1762.68 517.049 1762.68 520.696Q1762.68 524.332 1760.69 526.504Q1758.71 528.676 1755.52 528.676ZM1772.77 513.038L1777.7 513.038L1757.92 542L1752.99 542L1772.77 513.038ZM1755.52 525.282Q1756.93 525.282 1757.73 524.13Q1758.54 522.968 1758.54 520.696Q1758.54 518.413 1757.73 517.261Q1756.93 516.099 1755.52 516.099Q1754.15 516.099 1753.32 517.281Q1752.5 518.453 1752.5 520.696Q1752.5 522.928 1753.32 524.11Q1754.15 525.282 1755.52 525.282ZM1775.17 542.333Q1773.1 542.333 1771.47 541.364Q1769.84 540.384 1768.92 538.565Q1768.01 536.747 1768.01 534.343Q1768.01 531.949 1768.92 530.13Q1769.84 528.302 1771.47 527.332Q1773.1 526.363 1775.17 526.363Q1778.36 526.363 1780.37 528.534Q1782.38 530.706 1782.38 534.343Q1782.38 537.99 1780.37 540.161Q1778.36 542.333 1775.17 542.333ZM1775.17 538.939Q1776.58 538.939 1777.39 537.757Q1778.19 536.575 1778.19 534.343Q1778.19 532.11 1777.39 530.939Q1776.58 529.757 1775.17 529.757Q1773.81 529.757 1772.98 530.918Q1772.15 532.07 1772.15 534.343Q1772.15 536.626 1772.98 537.788Q1773.81 538.939 1775.17 538.939Z" fill="#009C4F" fill-opacity="1.000000" fill-rule="evenodd"/>
	<path id="Line 8" d="M100.365 544L88.543 544" stroke="#000000" stroke-opacity="1.000000" stroke-width="1.182186" stroke-linecap="round"/>
	<path id="Line 9" d="M100.365 491L88.543 491" stroke="#000000" stroke-opacity="1.000000" stroke-width="1.182186" stroke-linecap="round"/>
	<path id="Line 10" d="M100.365 438L88.543 438" stroke="#000000" stroke-opacity="1.000000" stroke-width="1.182186" stroke-linecap="round"/>
	<path id="Line 11" d="M100.365 385L88.543 385" stroke="#000000" stroke-opacity="1.000000" stroke-width="1.182186" stroke-linecap="round"/>
	<path id="Line 12" d="M100.365 332L88.543 332" stroke="#000000" stroke-opacity="1.000000" stroke-width="1.182186" stroke-linecap="round"/>
	<path id="Line 13" d="M100.365 279L88.543 279" stroke="#000000" stroke-opacity="1.000000" stroke-width="1.182186" stroke-linecap="round"/>
	<path id="Line 14" d="M100.365 226L88.543 226" stroke="#000000" stroke-opacity="1.000000" stroke-width="1.182186" stroke-linecap="round"/>
	<path id="Line 15" d="M100.365 173L88.543 173" stroke="#000000" stroke-opacity="1.000000" stroke-width="1.182186" stroke-linecap="round"/>
	<path id="Line 16" d="M100.365 120L88.543 120" stroke="#000000" stroke-opacity="1.000000" stroke-width="1.182186" stroke-linecap="round"/>
	<path id="швидке насичення" d="M145.114 638.401L145.114 651L128.934 651L128.934 638.401L131.236 638.401L131.236 649.018L135.881 649.018L135.881 638.401L138.184 638.401L138.184 649.018L142.812 649.018L142.812 638.401L145.114 638.401ZM156.959 644.448Q158.163 644.773 158.791 645.555Q159.424 646.337 159.424 647.506Q159.424 649.163 158.198 650.082Q156.976 651 154.652 651L148.68 651L148.68 638.401L154.313 638.401Q156.436 638.401 157.622 639.249Q158.813 640.093 158.813 641.64Q158.813 642.628 158.334 643.349Q157.855 644.07 156.959 644.448ZM150.982 643.784L154.111 643.784Q155.249 643.784 155.843 643.336Q156.436 642.883 156.436 642Q156.436 641.117 155.843 640.66Q155.249 640.198 154.111 640.198L150.982 640.198L150.982 643.784ZM154.581 649.198Q157.064 649.198 157.064 647.326Q157.064 645.494 154.581 645.494L150.982 645.494L150.982 649.198L154.581 649.198ZM162.108 638.401L164.41 638.401L164.41 647.348L171.178 638.401L173.353 638.401L173.353 651L171.05 651L171.05 642.07L164.283 651L162.108 651L162.108 638.401ZM189.249 649.018L189.249 653.681L187.092 653.681L187.092 651L177.424 651L177.424 653.681L175.244 653.681L175.261 649.018L175.802 649.018Q176.993 648.965 177.468 647.265Q177.947 645.564 178.052 642.396L178.197 638.401L187.43 638.401L187.43 649.018L189.249 649.018ZM180.104 642.611Q180.016 645.059 179.709 646.689Q179.406 648.319 178.738 649.018L185.127 649.018L185.127 640.378L180.197 640.378L180.104 642.611ZM196.089 645.691L193.751 645.691L193.751 651L191.444 651L191.444 638.401L193.751 638.401L193.751 643.674L196.163 643.674L199.78 638.401L202.263 638.401L197.961 644.5L202.426 651L199.78 651L196.089 645.691ZM213.474 649.04L213.474 651L204.026 651L204.026 638.401L213.223 638.401L213.223 640.361L206.368 640.361L206.368 643.639L212.45 643.639L212.45 645.564L206.368 645.564L206.368 649.04L213.474 649.04ZM232.251 638.401L232.251 651L229.909 651L229.909 645.599L223.396 645.599L223.396 651L221.054 651L221.054 638.401L223.396 638.401L223.396 643.604L229.909 643.604L229.909 638.401L232.251 638.401ZM244.132 648.082L237.83 648.082L236.586 651L234.178 651L239.847 638.401L242.15 638.401L247.836 651L245.388 651L244.132 648.082ZM243.354 646.25L240.981 640.739L238.621 646.25L243.354 646.25ZM255.38 651.18Q253.473 651.18 251.935 650.345Q250.397 649.506 249.522 648.029Q248.648 646.553 248.648 644.698Q248.648 642.848 249.531 641.372Q250.414 639.895 251.952 639.06Q253.49 638.221 255.398 638.221Q256.944 638.221 258.223 638.761Q259.502 639.302 260.385 640.326L258.874 641.75Q257.503 640.273 255.507 640.273Q254.211 640.273 253.183 640.84Q252.159 641.407 251.583 642.417Q251.007 643.424 251.007 644.698Q251.007 645.977 251.583 646.988Q252.159 647.994 253.183 648.561Q254.211 649.128 255.507 649.128Q257.503 649.128 258.874 647.634L260.385 649.075Q259.502 650.099 258.214 650.64Q256.927 651.18 255.38 651.18ZM262.584 638.401L264.886 638.401L264.886 647.348L271.654 638.401L273.829 638.401L273.829 651L271.526 651L271.526 642.07L264.759 651L262.584 651L262.584 638.401ZM286.828 638.401L286.828 651L284.503 651L284.503 646.25Q282.724 646.913 281.12 646.913Q278.711 646.913 277.406 645.753Q276.101 644.593 276.101 642.413L276.101 638.401L278.421 638.401L278.421 642.163Q278.421 643.494 279.195 644.197Q279.968 644.896 281.41 644.896Q283.049 644.896 284.503 644.232L284.503 638.401L286.828 638.401ZM299.802 649.04L299.802 651L290.354 651L290.354 638.401L299.551 638.401L299.551 640.361L292.696 640.361L292.696 643.639L298.778 643.639L298.778 645.564L292.696 645.564L292.696 649.04L299.802 649.04ZM313.611 638.401L313.611 651L311.269 651L311.269 645.599L304.756 645.599L304.756 651L302.414 651L302.414 638.401L304.756 638.401L304.756 643.604L311.269 643.604L311.269 638.401L313.611 638.401ZM328.335 638.401L328.335 651L325.993 651L325.993 645.599L319.48 645.599L319.48 651L317.138 651L317.138 638.401L319.48 638.401L319.48 643.604L325.993 643.604L325.993 638.401L328.335 638.401ZM341.494 638.401L341.494 651L339.187 651L339.187 647.489L336.076 647.489L335.825 647.489L333.483 651L331.018 651L333.716 647.111Q332.402 646.627 331.69 645.573Q330.983 644.518 330.983 643.024Q330.983 641.587 331.629 640.545Q332.279 639.5 333.466 638.95Q334.652 638.401 336.256 638.401L341.494 638.401ZM336.326 640.378Q334.889 640.378 334.12 641.046Q333.356 641.71 333.356 642.989Q333.356 644.232 334.094 644.909Q334.832 645.582 336.239 645.582L339.187 645.582L339.187 640.378L336.326 640.378Z" fill="#000000" fill-opacity="1.000000" fill-rule="evenodd"/>
	<path id="тяжкість у животі" d="M471.062 640.378L466.887 640.378L466.887 651L464.566 651L464.566 640.378L460.405 640.378L460.405 638.401L471.062 638.401L471.062 640.378ZM482.169 638.401L482.169 651L479.862 651L479.862 647.489L476.751 647.489L476.5 647.489L474.158 651L471.693 651L474.391 647.111Q473.077 646.627 472.365 645.573Q471.658 644.518 471.658 643.024Q471.658 641.587 472.304 640.545Q472.954 639.5 474.141 638.95Q475.327 638.401 476.931 638.401L482.169 638.401ZM477.001 640.378Q475.564 640.378 474.795 641.046Q474.031 641.71 474.031 642.989Q474.031 644.232 474.769 644.909Q475.507 645.582 476.914 645.582L479.862 645.582L479.862 640.378L477.001 640.378ZM496.73 645.691L494.572 645.691L494.572 651L492.282 651L492.282 645.691L490.125 645.691L486.939 651L484.24 651L488.2 644.43L484.509 638.401L486.991 638.401L490.072 643.674L492.282 643.674L492.282 638.401L494.572 638.401L494.572 643.674L496.747 643.674L499.845 638.401L502.328 638.401L498.654 644.448L502.596 651L499.898 651L496.73 645.691ZM508.88 645.691L506.542 645.691L506.542 651L504.235 651L504.235 638.401L506.542 638.401L506.542 643.674L508.954 643.674L512.571 638.401L515.054 638.401L510.752 644.5L515.217 651L512.571 651L508.88 645.691ZM516.839 638.401L519.141 638.401L519.141 651L516.839 651L516.839 638.401ZM528.481 651.18Q526.574 651.18 525.036 650.345Q523.498 649.506 522.623 648.029Q521.749 646.553 521.749 644.698Q521.749 642.848 522.632 641.372Q523.515 639.895 525.053 639.06Q526.591 638.221 528.499 638.221Q530.045 638.221 531.324 638.761Q532.603 639.302 533.486 640.326L531.975 641.75Q530.604 640.273 528.608 640.273Q527.312 640.273 526.284 640.84Q525.26 641.407 524.684 642.417Q524.108 643.424 524.108 644.698Q524.108 645.977 524.684 646.988Q525.26 647.994 526.284 648.561Q527.312 649.128 528.608 649.128Q530.604 649.128 531.975 647.634L533.486 649.075Q532.603 650.099 531.315 650.64Q530.028 651.18 528.481 651.18ZM544.664 640.378L540.489 640.378L540.489 651L538.169 651L538.169 640.378L534.007 640.378L534.007 638.401L544.664 638.401L544.664 640.378ZM552.493 642.668Q554.765 642.668 555.977 643.683Q557.19 644.698 557.19 646.698Q557.19 648.785 555.859 649.893Q554.527 651 552.115 651L546.701 651L546.701 638.401L549.003 638.401L549.003 642.668L552.493 642.668ZM552.009 649.198Q553.376 649.198 554.114 648.57Q554.852 647.941 554.852 646.733Q554.852 644.448 552.009 644.448L549.003 644.448L549.003 649.198L552.009 649.198ZM575.372 638.401L569.901 648.57Q569.18 649.919 568.178 650.596Q567.181 651.268 566.012 651.268Q565.076 651.268 564.157 650.873L564.733 649.04Q565.471 649.273 565.959 649.273Q567.093 649.273 567.831 648.104L568.029 647.796L563.006 638.401L565.506 638.401L569.233 645.797L573.069 638.401L575.372 638.401ZM593.246 645.691L591.088 645.691L591.088 651L588.798 651L588.798 645.691L586.641 645.691L583.455 651L580.756 651L584.716 644.43L581.025 638.401L583.507 638.401L586.588 643.674L588.798 643.674L588.798 638.401L591.088 638.401L591.088 643.674L593.263 643.674L596.361 638.401L598.844 638.401L595.171 644.448L599.112 651L596.414 651L593.246 645.691ZM600.773 638.401L603.075 638.401L603.075 647.348L609.843 638.401L612.018 638.401L612.018 651L609.715 651L609.715 642.07L602.948 651L600.773 651L600.773 638.401ZM623.848 644.448Q625.052 644.773 625.68 645.555Q626.313 646.337 626.313 647.506Q626.313 649.163 625.087 650.082Q623.865 651 621.541 651L615.569 651L615.569 638.401L621.202 638.401Q623.325 638.401 624.511 639.249Q625.702 640.093 625.702 641.64Q625.702 642.628 625.223 643.349Q624.744 644.07 623.848 644.448ZM617.871 643.784L621 643.784Q622.138 643.784 622.732 643.336Q623.325 642.883 623.325 642Q623.325 641.117 622.732 640.66Q622.138 640.198 621 640.198L617.871 640.198L617.871 643.784ZM621.47 649.198Q623.953 649.198 623.953 647.326Q623.953 645.494 621.47 645.494L617.871 645.494L617.871 649.198L621.47 649.198ZM634.806 651.18Q632.881 651.18 631.334 650.345Q629.788 649.506 628.904 648.021Q628.021 646.535 628.021 644.698Q628.021 642.866 628.904 641.38Q629.788 639.895 631.334 639.06Q632.881 638.221 634.806 638.221Q636.735 638.221 638.282 639.06Q639.829 639.895 640.712 641.372Q641.596 642.848 641.596 644.698Q641.596 646.553 640.712 648.029Q639.829 649.506 638.282 650.345Q636.735 651.18 634.806 651.18ZM634.806 649.128Q636.067 649.128 637.074 648.561Q638.084 647.994 638.66 646.979Q639.236 645.959 639.236 644.698Q639.236 643.441 638.66 642.426Q638.084 641.407 637.074 640.84Q636.067 640.273 634.806 640.273Q633.549 640.273 632.539 640.84Q631.532 641.407 630.957 642.426Q630.381 643.441 630.381 644.698Q630.381 645.959 630.957 646.979Q631.532 647.994 632.539 648.561Q633.549 649.128 634.806 649.128ZM653.15 640.378L648.975 640.378L648.975 651L646.655 651L646.655 640.378L642.493 640.378L642.493 638.401L653.15 638.401L653.15 640.378ZM655.187 638.401L657.489 638.401L657.489 651L655.187 651L655.187 638.401Z" fill="#000000" fill-opacity="1.000000" fill-rule="evenodd"/>
	<path id="відрижка" d="M792.131 644.448Q793.335 644.773 793.963 645.555Q794.596 646.337 794.596 647.506Q794.596 649.163 793.37 650.082Q792.148 651 789.824 651L783.852 651L783.852 638.401L789.485 638.401Q791.608 638.401 792.794 639.249Q793.985 640.093 793.985 641.64Q793.985 642.628 793.506 643.349Q793.027 644.07 792.131 644.448ZM786.154 643.784L789.283 643.784Q790.421 643.784 791.015 643.336Q791.608 642.883 791.608 642Q791.608 641.117 791.015 640.66Q790.421 640.198 789.283 640.198L786.154 640.198L786.154 643.784ZM789.753 649.198Q792.236 649.198 792.236 647.326Q792.236 645.494 789.753 645.494L786.154 645.494L786.154 649.198L789.753 649.198ZM797.28 638.401L799.582 638.401L799.582 651L797.28 651L797.28 638.401ZM815.493 649.018L815.493 653.681L813.336 653.681L813.336 651L803.668 651L803.668 653.681L801.488 653.681L801.505 649.018L802.046 649.018Q803.237 648.965 803.712 647.265Q804.191 645.564 804.296 642.396L804.441 638.401L813.674 638.401L813.674 649.018L815.493 649.018ZM806.348 642.611Q806.26 645.059 805.953 646.689Q805.65 648.319 804.982 649.018L811.371 649.018L811.371 640.378L806.441 640.378L806.348 642.611ZM822.873 638.401Q824.508 638.401 825.721 638.941Q826.938 639.482 827.584 640.488Q828.234 641.495 828.234 642.883Q828.234 644.25 827.584 645.27Q826.938 646.285 825.721 646.825Q824.508 647.366 822.873 647.366L820.03 647.366L820.03 651L817.688 651L817.688 638.401L822.873 638.401ZM822.763 645.384Q824.293 645.384 825.084 644.738Q825.879 644.087 825.879 642.883Q825.879 641.675 825.084 641.029Q824.293 640.378 822.763 640.378L820.03 640.378L820.03 645.384L822.763 645.384ZM830.472 638.401L832.774 638.401L832.774 647.348L839.542 638.401L841.717 638.401L841.717 651L839.414 651L839.414 642.07L832.647 651L830.472 651L830.472 638.401ZM856.263 645.691L854.105 645.691L854.105 651L851.815 651L851.815 645.691L849.658 645.691L846.472 651L843.773 651L847.733 644.43L844.042 638.401L846.524 638.401L849.605 643.674L851.815 643.674L851.815 638.401L854.105 638.401L854.105 643.674L856.28 643.674L859.378 638.401L861.861 638.401L858.188 644.448L862.129 651L859.431 651L856.263 645.691ZM868.413 645.691L866.075 645.691L866.075 651L863.768 651L863.768 638.401L866.075 638.401L866.075 643.674L868.487 643.674L872.104 638.401L874.587 638.401L870.285 644.5L874.75 651L872.104 651L868.413 645.691ZM884.488 648.082L878.186 648.082L876.942 651L874.534 651L880.203 638.401L882.506 638.401L888.192 651L885.744 651L884.488 648.082ZM883.71 646.25L881.337 640.739L878.977 646.25L883.71 646.25Z" fill="#000000" fill-opacity="1.000000" fill-rule="evenodd"/>
	<path id="нудота" d="M1100.06 638.401L1100.06 651L1097.72 651L1097.72 645.599L1091.21 645.599L1091.21 651L1088.87 651L1088.87 638.401L1091.21 638.401L1091.21 643.604L1097.72 643.604L1097.72 638.401L1100.06 638.401ZM1114.41 638.401L1108.94 648.57Q1108.22 649.919 1107.22 650.596Q1106.22 651.268 1105.05 651.268Q1104.11 651.268 1103.2 650.873L1103.77 649.04Q1104.51 649.273 1105 649.273Q1106.13 649.273 1106.87 648.104L1107.07 647.796L1102.04 638.401L1104.54 638.401L1108.27 645.797L1112.11 638.401L1114.41 638.401ZM1128.34 649.018L1128.34 653.681L1126.18 653.681L1126.18 651L1116.52 651L1116.52 653.681L1114.34 653.681L1114.35 649.018L1114.9 649.018Q1116.09 648.965 1116.56 647.265Q1117.04 645.564 1117.15 642.396L1117.29 638.401L1126.52 638.401L1126.52 649.018L1128.34 649.018ZM1119.2 642.611Q1119.11 645.059 1118.8 646.689Q1118.5 648.319 1117.83 649.018L1124.22 649.018L1124.22 640.378L1119.29 640.378L1119.2 642.611ZM1136.37 651.18Q1134.44 651.18 1132.9 650.345Q1131.35 649.506 1130.47 648.021Q1129.58 646.535 1129.58 644.698Q1129.58 642.866 1130.47 641.38Q1131.35 639.895 1132.9 639.06Q1134.44 638.221 1136.37 638.221Q1138.3 638.221 1139.84 639.06Q1141.39 639.895 1142.27 641.372Q1143.16 642.848 1143.16 644.698Q1143.16 646.553 1142.27 648.029Q1141.39 649.506 1139.84 650.345Q1138.3 651.18 1136.37 651.18ZM1136.37 649.128Q1137.63 649.128 1138.64 648.561Q1139.65 647.994 1140.22 646.979Q1140.8 645.959 1140.8 644.698Q1140.8 643.441 1140.22 642.426Q1139.65 641.407 1138.64 640.84Q1137.63 640.273 1136.37 640.273Q1135.11 640.273 1134.1 640.84Q1133.09 641.407 1132.52 642.426Q1131.94 643.441 1131.94 644.698Q1131.94 645.959 1132.52 646.979Q1133.09 647.994 1134.1 648.561Q1135.11 649.128 1136.37 649.128ZM1154.71 640.378L1150.54 640.378L1150.54 651L1148.22 651L1148.22 640.378L1144.05 640.378L1144.05 638.401L1154.71 638.401L1154.71 640.378ZM1164.45 648.082L1158.15 648.082L1156.91 651L1154.5 651L1160.17 638.401L1162.47 638.401L1168.16 651L1165.71 651L1164.45 648.082ZM1163.67 646.25L1161.3 640.739L1158.94 646.25L1163.67 646.25Z" fill="#000000" fill-opacity="1.000000" fill-rule="evenodd"/>
	<path id="біль у животі" d="M1337.68 638.401L1347.49 638.401L1347.49 640.326L1339.98 640.326L1339.98 643.424L1343.71 643.424Q1345.98 643.424 1347.15 644.369Q1348.33 645.313 1348.33 647.093Q1348.33 648.965 1347.03 649.985Q1345.74 651 1343.35 651L1337.68 651L1337.68 638.401ZM1343.22 649.198Q1344.57 649.198 1345.27 648.68Q1345.98 648.157 1345.98 647.168Q1345.98 645.221 1343.22 645.221L1339.98 645.221L1339.98 649.198L1343.22 649.198ZM1350.91 638.401L1353.21 638.401L1353.21 651L1350.91 651L1350.91 638.401ZM1367.4 638.401L1367.4 651L1365.09 651L1365.09 640.378L1360.12 640.378L1360.01 643.529Q1359.92 646.175 1359.58 647.823Q1359.24 649.471 1358.48 650.328Q1357.73 651.18 1356.4 651.18Q1355.93 651.18 1355.12 651L1355.28 648.965Q1355.51 649.04 1355.82 649.04Q1356.92 649.04 1357.38 647.735Q1357.84 646.43 1357.94 643.622L1358.12 638.401L1367.4 638.401ZM1376.75 642.668Q1379.02 642.668 1380.24 643.683Q1381.45 644.698 1381.45 646.698Q1381.45 648.785 1380.12 649.893Q1378.79 651 1376.37 651L1370.96 651L1370.96 638.401L1373.26 638.401L1373.26 642.668L1376.75 642.668ZM1376.27 649.198Q1377.64 649.198 1378.37 648.57Q1379.11 647.941 1379.11 646.733Q1379.11 644.448 1376.27 644.448L1373.26 644.448L1373.26 649.198L1376.27 649.198ZM1399.63 638.401L1394.16 648.57Q1393.44 649.919 1392.44 650.596Q1391.44 651.268 1390.27 651.268Q1389.34 651.268 1388.42 650.873L1388.99 649.04Q1389.73 649.273 1390.22 649.273Q1391.35 649.273 1392.09 648.104L1392.29 647.796L1387.27 638.401L1389.77 638.401L1393.49 645.797L1397.33 638.401L1399.63 638.401ZM1417.51 645.691L1415.35 645.691L1415.35 651L1413.06 651L1413.06 645.691L1410.9 645.691L1407.71 651L1405.02 651L1408.98 644.43L1405.28 638.401L1407.77 638.401L1410.85 643.674L1413.06 643.674L1413.06 638.401L1415.35 638.401L1415.35 643.674L1417.52 643.674L1420.62 638.401L1423.1 638.401L1419.43 644.448L1423.37 651L1420.67 651L1417.51 645.691ZM1425.03 638.401L1427.34 638.401L1427.34 647.348L1434.1 638.401L1436.28 638.401L1436.28 651L1433.98 651L1433.98 642.07L1427.21 651L1425.03 651L1425.03 638.401ZM1448.11 644.448Q1449.31 644.773 1449.94 645.555Q1450.57 646.337 1450.57 647.506Q1450.57 649.163 1449.35 650.082Q1448.13 651 1445.8 651L1439.83 651L1439.83 638.401L1445.46 638.401Q1447.58 638.401 1448.77 639.249Q1449.96 640.093 1449.96 641.64Q1449.96 642.628 1449.48 643.349Q1449 644.07 1448.11 644.448ZM1442.13 643.784L1445.26 643.784Q1446.4 643.784 1446.99 643.336Q1447.58 642.883 1447.58 642Q1447.58 641.117 1446.99 640.66Q1446.4 640.198 1445.26 640.198L1442.13 640.198L1442.13 643.784ZM1445.73 649.198Q1448.21 649.198 1448.21 647.326Q1448.21 645.494 1445.73 645.494L1442.13 645.494L1442.13 649.198L1445.73 649.198ZM1459.07 651.18Q1457.14 651.18 1455.59 650.345Q1454.05 649.506 1453.16 648.021Q1452.28 646.535 1452.28 644.698Q1452.28 642.866 1453.16 641.38Q1454.05 639.895 1455.59 639.06Q1457.14 638.221 1459.07 638.221Q1461 638.221 1462.54 639.06Q1464.09 639.895 1464.97 641.372Q1465.86 642.848 1465.86 644.698Q1465.86 646.553 1464.97 648.029Q1464.09 649.506 1462.54 650.345Q1461 651.18 1459.07 651.18ZM1459.07 649.128Q1460.33 649.128 1461.33 648.561Q1462.34 647.994 1462.92 646.979Q1463.5 645.959 1463.5 644.698Q1463.5 643.441 1462.92 642.426Q1462.34 641.407 1461.33 640.84Q1460.33 640.273 1459.07 640.273Q1457.81 640.273 1456.8 640.84Q1455.79 641.407 1455.22 642.426Q1454.64 643.441 1454.64 644.698Q1454.64 645.959 1455.22 646.979Q1455.79 647.994 1456.8 648.561Q1457.81 649.128 1459.07 649.128ZM1477.41 640.378L1473.23 640.378L1473.23 651L1470.91 651L1470.91 640.378L1466.75 640.378L1466.75 638.401L1477.41 638.401L1477.41 640.378ZM1479.45 638.401L1481.75 638.401L1481.75 651L1479.45 651L1479.45 638.401Z" fill="#000000" fill-opacity="1.000000" fill-rule="evenodd"/>
	<path id="закрепи" d="M1667.31 644.43Q1668.45 644.791 1669.09 645.59Q1669.73 646.39 1669.73 647.471Q1669.73 648.605 1668.99 649.444Q1668.25 650.279 1667.02 650.732Q1665.79 651.18 1664.33 651.18Q1663.07 651.18 1661.8 650.829Q1660.53 650.477 1659.45 649.774L1660.2 648.064Q1661.03 648.623 1662.04 648.921Q1663.05 649.216 1664.04 649.216Q1665.46 649.216 1666.4 648.662Q1667.35 648.104 1667.35 647.128Q1667.35 646.302 1666.66 645.872Q1665.98 645.437 1664.77 645.437L1661.84 645.437L1661.84 643.604L1664.59 643.604Q1665.64 643.604 1666.23 643.173Q1666.83 642.738 1666.83 642Q1666.83 641.117 1666.03 640.633Q1665.23 640.146 1663.98 640.146Q1663.14 640.146 1662.23 640.392Q1661.34 640.633 1660.55 641.099L1659.81 639.209Q1660.78 638.687 1661.87 638.427Q1662.96 638.168 1664.04 638.168Q1665.44 638.168 1666.62 638.599Q1667.8 639.029 1668.5 639.833Q1669.2 640.633 1669.2 641.71Q1669.2 642.646 1668.7 643.349Q1668.19 644.052 1667.31 644.43ZM1680.72 648.082L1674.42 648.082L1673.18 651L1670.77 651L1676.44 638.401L1678.74 638.401L1684.43 651L1681.98 651L1680.72 648.082ZM1679.95 646.25L1677.57 640.739L1675.21 646.25L1679.95 646.25ZM1691 645.691L1688.66 645.691L1688.66 651L1686.36 651L1686.36 638.401L1688.66 638.401L1688.66 643.674L1691.08 643.674L1694.69 638.401L1697.17 638.401L1692.87 644.5L1697.34 651L1694.69 651L1691 645.691ZM1704.12 638.401Q1705.76 638.401 1706.97 638.941Q1708.19 639.482 1708.83 640.488Q1709.48 641.495 1709.48 642.883Q1709.48 644.25 1708.83 645.27Q1708.19 646.285 1706.97 646.825Q1705.76 647.366 1704.12 647.366L1701.28 647.366L1701.28 651L1698.94 651L1698.94 638.401L1704.12 638.401ZM1704.01 645.384Q1705.54 645.384 1706.33 644.738Q1707.13 644.087 1707.13 642.883Q1707.13 641.675 1706.33 641.029Q1705.54 640.378 1704.01 640.378L1701.28 640.378L1701.28 645.384L1704.01 645.384ZM1721.15 649.04L1721.15 651L1711.7 651L1711.7 638.401L1720.9 638.401L1720.9 640.361L1714.04 640.361L1714.04 643.639L1720.12 643.639L1720.12 645.564L1714.04 645.564L1714.04 649.04L1721.15 649.04ZM1734.92 638.401L1734.92 651L1732.62 651L1732.62 640.378L1726.08 640.378L1726.08 651L1723.78 651L1723.78 638.401L1734.92 638.401ZM1738.49 638.401L1740.79 638.401L1740.79 647.348L1747.56 638.401L1749.73 638.401L1749.73 651L1747.43 651L1747.43 642.07L1740.66 651L1738.49 651L1738.49 638.401Z" fill="#000000" fill-opacity="1.000000" fill-rule="evenodd"/>
	<path id="0" d="M71.9995 603.115Q70.4663 603.115 69.2656 602.303Q68.065 601.485 67.3908 599.966Q66.7212 598.442 66.7212 596.378Q66.7212 594.318 67.3908 592.794Q68.065 591.271 69.2656 590.458Q70.4663 589.645 71.9995 589.645Q73.5326 589.645 74.7333 590.458Q75.9339 591.271 76.6127 592.794Q77.2962 594.318 77.2962 596.378Q77.2962 598.442 76.6127 599.966Q75.9339 601.485 74.7333 602.303Q73.5326 603.115 71.9995 603.115ZM71.9995 601.864Q73.1539 601.864 74.0313 601.222Q74.9134 600.58 75.4029 599.352Q75.897 598.119 75.897 596.378Q75.897 594.642 75.4029 593.413Q74.9134 592.18 74.0313 591.538Q73.1539 590.896 71.9995 590.896Q70.845 590.896 69.963 591.538Q69.0855 592.18 68.5914 593.413Q68.1019 594.642 68.1019 596.378Q68.1019 598.119 68.5914 599.352Q69.0855 600.58 69.963 601.222Q70.845 601.864 71.9995 601.864Z" fill="#000000" fill-opacity="1.000000" fill-rule="evenodd"/>
	<path id="5%" d="M63.9807 543.186Q66.853 543.186 68.1691 544.221Q69.4852 545.251 69.4852 547.102Q69.4852 548.257 68.9449 549.167Q68.4046 550.072 67.3241 550.594Q66.2481 551.115 64.678 551.115Q63.2603 551.115 61.9811 550.654Q60.7066 550.187 59.9308 549.411L60.5911 548.331Q61.2561 549.014 62.3321 549.439Q63.4127 549.864 64.6595 549.864Q66.3035 549.864 67.204 549.13Q68.1045 548.391 68.1045 547.163Q68.1045 545.8 67.0885 545.098Q66.0772 544.396 63.6759 544.396L60.859 544.396L61.5378 537.76L68.7833 537.76L68.7833 538.97L62.7292 538.97L62.2767 543.186L63.9807 543.186ZM73.814 544.854Q72.4701 544.854 71.6482 543.861Q70.8262 542.868 70.8262 541.261Q70.8262 539.649 71.6482 538.656Q72.4701 537.663 73.814 537.663Q75.1393 537.663 75.9705 538.647Q76.8017 539.631 76.8017 541.261Q76.8017 542.886 75.9705 543.87Q75.1393 544.854 73.814 544.854ZM81.8353 537.76L82.9528 537.76L73.9109 551L72.7934 551L81.8353 537.76ZM73.814 543.999Q74.7422 543.999 75.3009 543.274Q75.8597 542.545 75.8597 541.261Q75.8597 539.972 75.3009 539.247Q74.7422 538.518 73.814 538.518Q72.8673 538.518 72.3177 539.257Q71.7728 539.991 71.7728 541.261Q71.7728 542.526 72.3177 543.265Q72.8673 543.999 73.814 543.999ZM81.9276 551.092Q80.6069 551.092 79.7711 550.099Q78.9398 549.107 78.9398 547.5Q78.9398 545.893 79.7711 544.9Q80.6069 543.907 81.9276 543.907Q83.2714 543.907 84.0934 544.9Q84.92 545.893 84.92 547.5Q84.92 549.107 84.0934 550.099Q83.2714 551.092 81.9276 551.092ZM81.9276 550.243Q82.8743 550.243 83.4238 549.508Q83.9734 548.77 83.9734 547.5Q83.9734 546.234 83.4238 545.495Q82.8743 544.757 81.9276 544.757Q81.0041 544.757 80.4453 545.486Q79.8865 546.216 79.8865 547.5Q79.8865 548.788 80.4453 549.518Q81.0041 550.243 81.9276 550.243Z" fill="#000000" fill-opacity="1.000000" fill-rule="evenodd"/>
	<path id="10%" d="M55.3367 484.76L55.3367 498L53.9744 498L53.9744 485.97L50.8527 485.97L50.8527 484.76L55.3367 484.76ZM63.7721 498.115Q62.2389 498.115 61.0383 497.303Q59.8376 496.485 59.1634 494.966Q58.4938 493.442 58.4938 491.378Q58.4938 489.318 59.1634 487.794Q59.8376 486.271 61.0383 485.458Q62.2389 484.645 63.7721 484.645Q65.3052 484.645 66.5059 485.458Q67.7065 486.271 68.3854 487.794Q69.0688 489.318 69.0688 491.378Q69.0688 493.442 68.3854 494.966Q67.7065 496.485 66.5059 497.303Q65.3052 498.115 63.7721 498.115ZM63.7721 496.864Q64.9265 496.864 65.8039 496.222Q66.686 495.58 67.1755 494.352Q67.6696 493.119 67.6696 491.378Q67.6696 489.642 67.1755 488.413Q66.686 487.18 65.8039 486.538Q64.9265 485.896 63.7721 485.896Q62.6176 485.896 61.7356 486.538Q60.8582 487.18 60.364 488.413Q59.8745 489.642 59.8745 491.378Q59.8745 493.119 60.364 494.352Q60.8582 495.58 61.7356 496.222Q62.6176 496.864 63.7721 496.864ZM73.814 491.854Q72.4701 491.854 71.6482 490.861Q70.8262 489.868 70.8262 488.261Q70.8262 486.649 71.6482 485.656Q72.4701 484.663 73.814 484.663Q75.1393 484.663 75.9705 485.647Q76.8017 486.631 76.8017 488.261Q76.8017 489.886 75.9705 490.87Q75.1393 491.854 73.814 491.854ZM81.8353 484.76L82.9528 484.76L73.9109 498L72.7934 498L81.8353 484.76ZM73.814 490.999Q74.7422 490.999 75.3009 490.274Q75.8597 489.545 75.8597 488.261Q75.8597 486.972 75.3009 486.247Q74.7422 485.518 73.814 485.518Q72.8673 485.518 72.3177 486.257Q71.7728 486.991 71.7728 488.261Q71.7728 489.526 72.3177 490.265Q72.8673 490.999 73.814 490.999ZM81.9276 498.092Q80.6069 498.092 79.7711 497.1Q78.9398 496.107 78.9398 494.5Q78.9398 492.893 79.7711 491.9Q80.6069 490.907 81.9276 490.907Q83.2714 490.907 84.0934 491.9Q84.92 492.893 84.92 494.5Q84.92 496.107 84.0934 497.1Q83.2714 498.092 81.9276 498.092ZM81.9276 497.243Q82.8743 497.243 83.4238 496.508Q83.9734 495.77 83.9734 494.5Q83.9734 493.234 83.4238 492.495Q82.8743 491.757 81.9276 491.757Q81.0041 491.757 80.4453 492.486Q79.8865 493.216 79.8865 494.5Q79.8865 495.788 80.4453 496.518Q81.0041 497.243 81.9276 497.243Z" fill="#000000" fill-opacity="1.000000" fill-rule="evenodd"/>
	<path id="15%" d="M57.3417 431.76L57.3417 445L55.9794 445L55.9794 432.97L52.8577 432.97L52.8577 431.76L57.3417 431.76ZM63.9807 437.186Q66.853 437.186 68.1691 438.221Q69.4852 439.251 69.4852 441.102Q69.4852 442.257 68.9449 443.167Q68.4046 444.072 67.324 444.594Q66.2481 445.115 64.678 445.115Q63.2603 445.115 61.9811 444.654Q60.7066 444.187 59.9308 443.411L60.5911 442.331Q61.2561 443.014 62.3321 443.439Q63.4127 443.864 64.6595 443.864Q66.3035 443.864 67.204 443.13Q68.1045 442.391 68.1045 441.163Q68.1045 439.8 67.0885 439.098Q66.0772 438.396 63.6759 438.396L60.859 438.396L61.5378 431.76L68.7833 431.76L68.7833 432.97L62.7292 432.97L62.2767 437.186L63.9807 437.186ZM73.8139 438.854Q72.4701 438.854 71.6481 437.861Q70.8262 436.868 70.8262 435.261Q70.8262 433.649 71.6481 432.656Q72.4701 431.663 73.8139 431.663Q75.1393 431.663 75.9705 432.647Q76.8017 433.631 76.8017 435.261Q76.8017 436.886 75.9705 437.87Q75.1393 438.854 73.8139 438.854ZM81.8353 431.76L82.9528 431.76L73.9109 445L72.7934 445L81.8353 431.76ZM73.8139 437.999Q74.7422 437.999 75.3009 437.274Q75.8597 436.545 75.8597 435.261Q75.8597 433.972 75.3009 433.247Q74.7422 432.518 73.8139 432.518Q72.8673 432.518 72.3177 433.257Q71.7728 433.991 71.7728 435.261Q71.7728 436.526 72.3177 437.265Q72.8673 437.999 73.8139 437.999ZM81.9276 445.092Q80.6069 445.092 79.7711 444.1Q78.9398 443.107 78.9398 441.5Q78.9398 439.893 79.7711 438.9Q80.6069 437.907 81.9276 437.907Q83.2714 437.907 84.0934 438.9Q84.92 439.893 84.92 441.5Q84.92 443.107 84.0934 444.1Q83.2714 445.092 81.9276 445.092ZM81.9276 444.243Q82.8743 444.243 83.4238 443.508Q83.9734 442.77 83.9734 441.5Q83.9734 440.234 83.4238 439.495Q82.8743 438.757 81.9276 438.757Q81.004 438.757 80.4453 439.486Q79.8865 440.216 79.8865 441.5Q79.8865 442.788 80.4453 443.518Q81.004 444.243 81.9276 444.243Z" fill="#000000" fill-opacity="1.000000" fill-rule="evenodd"/>
	<path id="20%" d="M56.8676 390.79L56.8676 392L47.581 392L47.581 391.035L53.0855 385.646Q54.1246 384.625 54.494 383.877Q54.8634 383.129 54.8634 382.372Q54.8634 381.199 54.0599 380.548Q53.2564 379.896 51.7602 379.896Q49.4328 379.896 48.149 381.37L47.1838 380.538Q47.9597 379.629 49.1603 379.139Q50.361 378.645 51.8756 378.645Q53.8983 378.645 55.0805 379.601Q56.2627 380.557 56.2627 382.219Q56.2627 383.244 55.8055 384.191Q55.3529 385.133 54.0876 386.362L49.5852 390.79L56.8676 390.79ZM63.7721 392.115Q62.2389 392.115 61.0383 391.303Q59.8376 390.485 59.1634 388.966Q58.4938 387.442 58.4938 385.378Q58.4938 383.318 59.1634 381.794Q59.8376 380.271 61.0383 379.458Q62.2389 378.645 63.7721 378.645Q65.3052 378.645 66.5059 379.458Q67.7065 380.271 68.3854 381.794Q69.0688 383.318 69.0688 385.378Q69.0688 387.442 68.3854 388.966Q67.7065 390.485 66.5059 391.303Q65.3052 392.115 63.7721 392.115ZM63.7721 390.864Q64.9265 390.864 65.8039 390.222Q66.686 389.58 67.1755 388.352Q67.6696 387.119 67.6696 385.378Q67.6696 383.642 67.1755 382.413Q66.686 381.18 65.8039 380.538Q64.9265 379.896 63.7721 379.896Q62.6176 379.896 61.7356 380.538Q60.8582 381.18 60.364 382.413Q59.8745 383.642 59.8745 385.378Q59.8745 387.119 60.364 388.352Q60.8582 389.58 61.7356 390.222Q62.6176 390.864 63.7721 390.864ZM73.814 385.854Q72.4701 385.854 71.6482 384.861Q70.8262 383.868 70.8262 382.261Q70.8262 380.649 71.6482 379.656Q72.4701 378.663 73.814 378.663Q75.1393 378.663 75.9705 379.647Q76.8017 380.631 76.8017 382.261Q76.8017 383.886 75.9705 384.87Q75.1393 385.854 73.814 385.854ZM81.8353 378.76L82.9528 378.76L73.9109 392L72.7934 392L81.8353 378.76ZM73.814 384.999Q74.7422 384.999 75.3009 384.274Q75.8597 383.545 75.8597 382.261Q75.8597 380.972 75.3009 380.247Q74.7422 379.518 73.814 379.518Q72.8673 379.518 72.3177 380.257Q71.7728 380.991 71.7728 382.261Q71.7728 383.526 72.3177 384.265Q72.8673 384.999 73.814 384.999ZM81.9276 392.092Q80.6069 392.092 79.7711 391.1Q78.9398 390.107 78.9398 388.5Q78.9398 386.893 79.7711 385.9Q80.6069 384.907 81.9276 384.907Q83.2714 384.907 84.0934 385.9Q84.92 386.893 84.92 388.5Q84.92 390.107 84.0934 391.1Q83.2714 392.092 81.9276 392.092ZM81.9276 391.243Q82.8743 391.243 83.4238 390.508Q83.9734 389.77 83.9734 388.5Q83.9734 387.234 83.4238 386.495Q82.8743 385.757 81.9276 385.757Q81.0041 385.757 80.4453 386.486Q79.8865 387.216 79.8865 388.5Q79.8865 389.788 80.4453 390.518Q81.0041 391.243 81.9276 391.243Z" fill="#000000" fill-opacity="1.000000" fill-rule="evenodd"/>
	<path id="25%" d="M58.7969 337.79L58.7969 339L49.5103 339L49.5103 338.035L55.0149 332.646Q56.0539 331.625 56.4233 330.877Q56.7928 330.129 56.7928 329.372Q56.7928 328.199 55.9892 327.548Q55.1857 326.896 53.6895 326.896Q51.3621 326.896 50.0783 328.37L49.1132 327.538Q49.889 326.629 51.0896 326.139Q52.2903 325.645 53.805 325.645Q55.8276 325.645 57.0098 326.601Q58.192 327.557 58.192 329.219Q58.192 330.244 57.7348 331.191Q57.2823 332.133 56.017 333.362L51.5145 337.79L58.7969 337.79ZM63.9807 331.186Q66.853 331.186 68.1691 332.221Q69.4852 333.251 69.4852 335.102Q69.4852 336.257 68.9449 337.167Q68.4046 338.072 67.3241 338.594Q66.2481 339.115 64.678 339.115Q63.2603 339.115 61.9811 338.654Q60.7066 338.187 59.9308 337.411L60.5911 336.331Q61.2561 337.014 62.3321 337.439Q63.4127 337.864 64.6595 337.864Q66.3035 337.864 67.204 337.13Q68.1045 336.391 68.1045 335.163Q68.1045 333.8 67.0885 333.098Q66.0772 332.396 63.6759 332.396L60.859 332.396L61.5378 325.76L68.7833 325.76L68.7833 326.97L62.7292 326.97L62.2767 331.186L63.9807 331.186ZM73.814 332.854Q72.4701 332.854 71.6482 331.861Q70.8262 330.868 70.8262 329.261Q70.8262 327.649 71.6482 326.656Q72.4701 325.663 73.814 325.663Q75.1393 325.663 75.9705 326.647Q76.8018 327.631 76.8018 329.261Q76.8018 330.886 75.9705 331.87Q75.1393 332.854 73.814 332.854ZM81.8353 325.76L82.9528 325.76L73.9109 339L72.7934 339L81.8353 325.76ZM73.814 331.999Q74.7422 331.999 75.3009 331.274Q75.8597 330.545 75.8597 329.261Q75.8597 327.972 75.3009 327.247Q74.7422 326.518 73.814 326.518Q72.8673 326.518 72.3177 327.257Q71.7728 327.991 71.7728 329.261Q71.7728 330.526 72.3177 331.265Q72.8673 331.999 73.814 331.999ZM81.9276 339.092Q80.6069 339.092 79.7711 338.1Q78.9398 337.107 78.9398 335.5Q78.9398 333.893 79.7711 332.9Q80.6069 331.907 81.9276 331.907Q83.2714 331.907 84.0934 332.9Q84.92 333.893 84.92 335.5Q84.92 337.107 84.0934 338.1Q83.2714 339.092 81.9276 339.092ZM81.9276 338.243Q82.8743 338.243 83.4238 337.508Q83.9734 336.77 83.9734 335.5Q83.9734 334.234 83.4238 333.495Q82.8743 332.757 81.9276 332.757Q81.0041 332.757 80.4453 333.486Q79.8865 334.216 79.8865 335.5Q79.8865 336.788 80.4453 337.518Q81.0041 338.243 81.9276 338.243Z" fill="#000000" fill-opacity="1.000000" fill-rule="evenodd"/>
	<path id="30%" d="M52.3282 278.436Q54.4063 278.547 55.4915 279.558Q56.5813 280.569 56.5813 282.199Q56.5813 283.331 56.0318 284.213Q55.4869 285.09 54.4063 285.603Q53.3303 286.115 51.7787 286.115Q50.3425 286.115 49.0633 285.654Q47.7888 285.187 47.013 284.411L47.6733 283.331Q48.3383 284.014 49.4328 284.439Q50.5318 284.864 51.7787 284.864Q53.4042 284.864 54.2908 284.157Q55.1821 283.446 55.1821 282.199Q55.1821 280.966 54.2908 280.269Q53.4042 279.567 51.6078 279.567L50.6611 279.567L50.6611 278.565L54.3324 273.97L47.5625 273.97L47.5625 272.76L56.0733 272.76L56.0733 273.726L52.3282 278.436ZM63.7721 286.115Q62.2389 286.115 61.0383 285.303Q59.8376 284.485 59.1634 282.966Q58.4938 281.442 58.4938 279.378Q58.4938 277.318 59.1634 275.794Q59.8376 274.271 61.0383 273.458Q62.2389 272.645 63.7721 272.645Q65.3052 272.645 66.5059 273.458Q67.7065 274.271 68.3854 275.794Q69.0688 277.318 69.0688 279.378Q69.0688 281.442 68.3854 282.966Q67.7065 284.485 66.5059 285.303Q65.3052 286.115 63.7721 286.115ZM63.7721 284.864Q64.9265 284.864 65.8039 284.222Q66.686 283.58 67.1755 282.352Q67.6696 281.119 67.6696 279.378Q67.6696 277.642 67.1755 276.413Q66.686 275.18 65.8039 274.538Q64.9265 273.896 63.7721 273.896Q62.6176 273.896 61.7356 274.538Q60.8582 275.18 60.364 276.413Q59.8745 277.642 59.8745 279.378Q59.8745 281.119 60.364 282.352Q60.8582 283.58 61.7356 284.222Q62.6176 284.864 63.7721 284.864ZM73.814 279.854Q72.4701 279.854 71.6482 278.861Q70.8262 277.868 70.8262 276.261Q70.8262 274.649 71.6482 273.656Q72.4701 272.663 73.814 272.663Q75.1393 272.663 75.9705 273.647Q76.8017 274.631 76.8017 276.261Q76.8017 277.886 75.9705 278.87Q75.1393 279.854 73.814 279.854ZM81.8353 272.76L82.9528 272.76L73.9109 286L72.7934 286L81.8353 272.76ZM73.814 278.999Q74.7422 278.999 75.3009 278.274Q75.8597 277.545 75.8597 276.261Q75.8597 274.972 75.3009 274.247Q74.7422 273.518 73.814 273.518Q72.8673 273.518 72.3177 274.257Q71.7728 274.991 71.7728 276.261Q71.7728 277.526 72.3177 278.265Q72.8673 278.999 73.814 278.999ZM81.9276 286.092Q80.6069 286.092 79.7711 285.1Q78.9398 284.107 78.9398 282.5Q78.9398 280.893 79.7711 279.9Q80.6069 278.907 81.9276 278.907Q83.2714 278.907 84.0934 279.9Q84.92 280.893 84.92 282.5Q84.92 284.107 84.0934 285.1Q83.2714 286.092 81.9276 286.092ZM81.9276 285.243Q82.8743 285.243 83.4238 284.508Q83.9734 283.77 83.9734 282.5Q83.9734 281.234 83.4238 280.495Q82.8743 279.757 81.9276 279.757Q81.0041 279.757 80.4453 280.486Q79.8865 281.216 79.8865 282.5Q79.8865 283.788 80.4453 284.518Q81.0041 285.243 81.9276 285.243Z" fill="#000000" fill-opacity="1.000000" fill-rule="evenodd"/>
	<path id="35%" d="M54.5223 225.436Q56.6004 225.547 57.6856 226.558Q58.7754 227.569 58.7754 229.199Q58.7754 230.331 58.2259 231.213Q57.681 232.09 56.6004 232.603Q55.5244 233.115 53.9728 233.115Q52.5366 233.115 51.2575 232.654Q49.9829 232.187 49.2071 231.411L49.8675 230.331Q50.5325 231.014 51.6269 231.439Q52.726 231.864 53.9728 231.864Q55.5983 231.864 56.485 231.157Q57.3762 230.446 57.3762 229.199Q57.3762 227.966 56.485 227.269Q55.5983 226.567 53.8019 226.567L52.8553 226.567L52.8553 225.565L56.5265 220.97L49.7566 220.97L49.7566 219.76L58.2675 219.76L58.2675 220.726L54.5223 225.436ZM63.9807 225.186Q66.853 225.186 68.1691 226.221Q69.4852 227.251 69.4852 229.102Q69.4852 230.257 68.9449 231.167Q68.4046 232.072 67.3241 232.594Q66.2481 233.115 64.678 233.115Q63.2603 233.115 61.9811 232.654Q60.7066 232.187 59.9308 231.411L60.5911 230.331Q61.2561 231.014 62.3321 231.439Q63.4127 231.864 64.6595 231.864Q66.3035 231.864 67.204 231.13Q68.1045 230.391 68.1045 229.163Q68.1045 227.8 67.0885 227.098Q66.0772 226.396 63.6759 226.396L60.859 226.396L61.5378 219.76L68.7833 219.76L68.7833 220.97L62.7292 220.97L62.2767 225.186L63.9807 225.186ZM73.814 226.854Q72.4701 226.854 71.6482 225.861Q70.8262 224.868 70.8262 223.261Q70.8262 221.649 71.6482 220.656Q72.4701 219.663 73.814 219.663Q75.1393 219.663 75.9705 220.647Q76.8017 221.631 76.8017 223.261Q76.8017 224.886 75.9705 225.87Q75.1393 226.854 73.814 226.854ZM81.8353 219.76L82.9528 219.76L73.9109 233L72.7934 233L81.8353 219.76ZM73.814 225.999Q74.7422 225.999 75.3009 225.274Q75.8597 224.545 75.8597 223.261Q75.8597 221.972 75.3009 221.247Q74.7422 220.518 73.814 220.518Q72.8673 220.518 72.3177 221.257Q71.7728 221.991 71.7728 223.261Q71.7728 224.526 72.3177 225.265Q72.8673 225.999 73.814 225.999ZM81.9276 233.092Q80.6069 233.092 79.7711 232.1Q78.9398 231.107 78.9398 229.5Q78.9398 227.893 79.7711 226.9Q80.6069 225.907 81.9276 225.907Q83.2714 225.907 84.0934 226.9Q84.92 227.893 84.92 229.5Q84.92 231.107 84.0934 232.1Q83.2714 233.092 81.9276 233.092ZM81.9276 232.243Q82.8743 232.243 83.4238 231.508Q83.9734 230.77 83.9734 229.5Q83.9734 228.234 83.4238 227.495Q82.8743 226.757 81.9276 226.757Q81.0041 226.757 80.4453 227.486Q79.8865 228.216 79.8865 229.5Q79.8865 230.788 80.4453 231.518Q81.0041 232.243 81.9276 232.243Z" fill="#000000" fill-opacity="1.000000" fill-rule="evenodd"/>
	<path id="40%" d="M57.2448 176.518L54.5988 176.518L54.5988 180L53.2365 180L53.2365 176.518L45.7647 176.518L45.7647 175.534L52.7793 166.76L54.294 166.76L47.5241 175.308L53.2734 175.308L53.2734 172.247L54.5988 172.247L54.5988 175.308L57.2448 175.308L57.2448 176.518ZM63.7721 180.115Q62.2389 180.115 61.0383 179.303Q59.8376 178.485 59.1634 176.966Q58.4938 175.442 58.4938 173.378Q58.4938 171.318 59.1634 169.794Q59.8376 168.27 61.0383 167.458Q62.2389 166.645 63.7721 166.645Q65.3052 166.645 66.5059 167.458Q67.7065 168.27 68.3854 169.794Q69.0688 171.318 69.0688 173.378Q69.0688 175.442 68.3854 176.966Q67.7065 178.485 66.5059 179.303Q65.3052 180.115 63.7721 180.115ZM63.7721 178.864Q64.9265 178.864 65.8039 178.222Q66.686 177.58 67.1755 176.352Q67.6696 175.119 67.6696 173.378Q67.6696 171.642 67.1755 170.413Q66.686 169.18 65.8039 168.538Q64.9265 167.896 63.7721 167.896Q62.6176 167.896 61.7356 168.538Q60.8582 169.18 60.364 170.413Q59.8745 171.642 59.8745 173.378Q59.8745 175.119 60.364 176.352Q60.8582 177.58 61.7356 178.222Q62.6176 178.864 63.7721 178.864ZM73.8139 173.854Q72.4701 173.854 71.6481 172.861Q70.8262 171.868 70.8262 170.261Q70.8262 168.649 71.6481 167.656Q72.4701 166.663 73.8139 166.663Q75.1393 166.663 75.9705 167.647Q76.8017 168.631 76.8017 170.261Q76.8017 171.886 75.9705 172.87Q75.1393 173.854 73.8139 173.854ZM81.8353 166.76L82.9528 166.76L73.9109 180L72.7934 180L81.8353 166.76ZM73.8139 172.999Q74.7422 172.999 75.3009 172.274Q75.8597 171.545 75.8597 170.261Q75.8597 168.972 75.3009 168.247Q74.7422 167.518 73.8139 167.518Q72.8673 167.518 72.3177 168.257Q71.7728 168.991 71.7728 170.261Q71.7728 171.526 72.3177 172.265Q72.8673 172.999 73.8139 172.999ZM81.9276 180.092Q80.6069 180.092 79.7711 179.1Q78.9398 178.107 78.9398 176.5Q78.9398 174.893 79.7711 173.9Q80.6069 172.907 81.9276 172.907Q83.2714 172.907 84.0934 173.9Q84.92 174.893 84.92 176.5Q84.92 178.107 84.0934 179.1Q83.2714 180.092 81.9276 180.092ZM81.9276 179.243Q82.8743 179.243 83.4238 178.508Q83.9734 177.77 83.9734 176.5Q83.9734 175.234 83.4238 174.495Q82.8743 173.757 81.9276 173.757Q81.004 173.757 80.4453 174.486Q79.8865 175.216 79.8865 176.5Q79.8865 177.788 80.4453 178.518Q81.004 179.243 81.9276 179.243Z" fill="#000000" fill-opacity="1.000000" fill-rule="evenodd"/>
	<path id="45%" d="M59.3255 123.518L56.6794 123.518L56.6794 127L55.3171 127L55.3171 123.518L47.8454 123.518L47.8454 122.534L54.86 113.76L56.3746 113.76L49.6048 122.308L55.3541 122.308L55.3541 119.247L56.6794 119.247L56.6794 122.308L59.3255 122.308L59.3255 123.518ZM63.9807 119.186Q66.853 119.186 68.1691 120.221Q69.4852 121.251 69.4852 123.102Q69.4852 124.257 68.9449 125.167Q68.4046 126.072 67.3241 126.594Q66.2481 127.115 64.678 127.115Q63.2603 127.115 61.9811 126.654Q60.7066 126.187 59.9308 125.411L60.5911 124.331Q61.2561 125.014 62.3321 125.439Q63.4127 125.864 64.6595 125.864Q66.3035 125.864 67.204 125.13Q68.1045 124.391 68.1045 123.163Q68.1045 121.8 67.0885 121.098Q66.0772 120.396 63.6759 120.396L60.859 120.396L61.5378 113.76L68.7833 113.76L68.7833 114.97L62.7292 114.97L62.2767 119.186L63.9807 119.186ZM73.814 120.854Q72.4701 120.854 71.6482 119.861Q70.8262 118.868 70.8262 117.261Q70.8262 115.649 71.6482 114.656Q72.4701 113.663 73.814 113.663Q75.1393 113.663 75.9705 114.647Q76.8017 115.631 76.8017 117.261Q76.8017 118.886 75.9705 119.87Q75.1393 120.854 73.814 120.854ZM81.8353 113.76L82.9528 113.76L73.9109 127L72.7934 127L81.8353 113.76ZM73.814 119.999Q74.7422 119.999 75.3009 119.274Q75.8597 118.545 75.8597 117.261Q75.8597 115.972 75.3009 115.247Q74.7422 114.518 73.814 114.518Q72.8673 114.518 72.3177 115.257Q71.7728 115.991 71.7728 117.261Q71.7728 118.526 72.3177 119.265Q72.8673 119.999 73.814 119.999ZM81.9276 127.092Q80.6069 127.092 79.7711 126.1Q78.9398 125.107 78.9398 123.5Q78.9398 121.893 79.7711 120.9Q80.6069 119.907 81.9276 119.907Q83.2714 119.907 84.0934 120.9Q84.92 121.893 84.92 123.5Q84.92 125.107 84.0934 126.1Q83.2714 127.092 81.9276 127.092ZM81.9276 126.243Q82.8743 126.243 83.4238 125.508Q83.9734 124.77 83.9734 123.5Q83.9734 122.234 83.4238 121.495Q82.8743 120.757 81.9276 120.757Q81.0041 120.757 80.4453 121.486Q79.8865 122.216 79.8865 123.5Q79.8865 124.788 80.4453 125.518Q81.0041 126.243 81.9276 126.243Z" fill="#000000" fill-opacity="1.000000" fill-rule="evenodd"/>
	<path id="50%" d="M51.2698 66.1865Q54.1422 66.1865 55.4583 67.2209Q56.7744 68.2507 56.7744 70.1025Q56.7744 71.257 56.2341 72.1667Q55.6938 73.0718 54.6132 73.5936Q53.5372 74.1154 51.9671 74.1154Q50.5494 74.1154 49.2703 73.6537Q47.9957 73.1872 47.2199 72.4114L47.8803 71.3308Q48.5452 72.0143 49.6212 72.4391Q50.7018 72.864 51.9486 72.864Q53.5926 72.864 54.4931 72.1297Q55.3936 71.3909 55.3936 70.1625Q55.3936 68.8002 54.3777 68.0983Q53.3663 67.3964 50.965 67.3964L48.1481 67.3964L48.8269 60.7604L56.0724 60.7604L56.0724 61.9703L50.0184 61.9703L49.5658 66.1865L51.2698 66.1865ZM63.7721 74.1154Q62.2389 74.1154 61.0383 73.3027Q59.8376 72.4853 59.1634 70.966Q58.4938 69.4421 58.4938 67.3779Q58.4938 65.3183 59.1634 63.7944Q59.8376 62.2705 61.0383 61.4577Q62.2389 60.645 63.7721 60.645Q65.3052 60.645 66.5059 61.4577Q67.7065 62.2705 68.3854 63.7944Q69.0688 65.3183 69.0688 67.3779Q69.0688 69.4421 68.3854 70.966Q67.7065 72.4853 66.5059 73.3027Q65.3052 74.1154 63.7721 74.1154ZM63.7721 72.864Q64.9265 72.864 65.8039 72.2221Q66.686 71.5802 67.1755 70.3518Q67.6696 69.1189 67.6696 67.3779Q67.6696 65.6416 67.1755 64.4132Q66.686 63.1802 65.8039 62.5383Q64.9265 61.8964 63.7721 61.8964Q62.6176 61.8964 61.7356 62.5383Q60.8582 63.1802 60.364 64.4132Q59.8745 65.6416 59.8745 67.3779Q59.8745 69.1189 60.364 70.3518Q60.8582 71.5802 61.7356 72.2221Q62.6176 72.864 63.7721 72.864ZM73.814 67.8536Q72.4701 67.8536 71.6482 66.8607Q70.8262 65.8679 70.8262 64.2608Q70.8262 62.6492 71.6482 61.6563Q72.4701 60.6635 73.814 60.6635Q75.1393 60.6635 75.9705 61.6471Q76.8017 62.6307 76.8017 64.2608Q76.8017 65.8863 75.9705 66.8699Q75.1393 67.8536 73.814 67.8536ZM81.8353 60.7604L82.9528 60.7604L73.9109 74L72.7934 74L81.8353 60.7604ZM73.814 66.9992Q74.7422 66.9992 75.3009 66.2742Q75.8597 65.5446 75.8597 64.2608Q75.8597 62.9724 75.3009 62.2474Q74.7422 61.5178 73.814 61.5178Q72.8673 61.5178 72.3177 62.2566Q71.7728 62.9909 71.7728 64.2608Q71.7728 65.5261 72.3177 66.265Q72.8673 66.9992 73.814 66.9992ZM81.9276 74.0924Q80.6069 74.0924 79.7711 73.0995Q78.9398 72.1067 78.9398 70.4996Q78.9398 68.8926 79.7711 67.8997Q80.6069 66.9069 81.9276 66.9069Q83.2714 66.9069 84.0934 67.8997Q84.92 68.8926 84.92 70.4996Q84.92 72.1067 84.0934 73.0995Q83.2714 74.0924 81.9276 74.0924ZM81.9276 73.2427Q82.8743 73.2427 83.4238 72.5084Q83.9734 71.7695 83.9734 70.4996Q83.9734 69.2343 83.4238 68.4954Q82.8743 67.7566 81.9276 67.7566Q81.0041 67.7566 80.4453 68.4862Q79.8865 69.2158 79.8865 70.4996Q79.8865 71.788 80.4453 72.5176Q81.0041 73.2427 81.9276 73.2427Z" fill="#000000" fill-opacity="1.000000" fill-rule="evenodd"/>
	<path id="image 9 (Traced)" d="M392.792 633.151C392.128 633.396 391.62 634.222 391.727 634.884C391.843 635.601 392.029 635.814 396.279 640.094C401.868 645.724 401.868 644.367 396.279 649.996C393.166 653.131 392.084 654.27 391.95 654.554C391.174 656.197 392.608 657.574 394.247 656.758C394.847 656.459 404.788 646.486 405.072 645.897C405.708 644.581 405.789 644.692 399.73 638.625C393.832 632.717 393.876 632.753 392.792 633.151ZM402.985 633.404C402.253 633.843 402.005 634.771 402.397 635.602C402.542 635.906 403.526 636.945 406.693 640.135C412.235 645.717 412.24 644.368 406.653 649.996C403.54 653.131 402.458 654.27 402.324 654.554C401.548 656.197 402.983 657.574 404.621 656.758C405.24 656.449 415.094 646.568 415.404 645.945C416.082 644.583 416.138 644.66 410.189 638.703C404.236 632.742 404.169 632.693 402.985 633.404Z" fill="url(#paint_linear_76_3060_0)" fill-opacity="1.000000" fill-rule="evenodd"/>
	<path id="image 9 (Traced)" d="M693.792 633.151C693.128 633.396 692.62 634.222 692.727 634.884C692.843 635.601 693.029 635.814 697.279 640.094C702.868 645.724 702.868 644.367 697.279 649.996C694.166 653.131 693.084 654.27 692.95 654.554C692.174 656.197 693.608 657.574 695.247 656.758C695.847 656.459 705.788 646.486 706.072 645.897C706.708 644.581 706.789 644.692 700.73 638.625C694.832 632.717 694.876 632.753 693.792 633.151ZM703.985 633.404C703.253 633.843 703.005 634.771 703.397 635.602C703.542 635.906 704.526 636.945 707.693 640.135C713.235 645.717 713.24 644.368 707.653 649.996C704.54 653.131 703.458 654.27 703.324 654.554C702.548 656.197 703.983 657.574 705.621 656.758C706.24 656.449 716.094 646.568 716.404 645.945C717.082 644.583 717.138 644.66 711.189 638.703C705.236 632.742 705.169 632.693 703.985 633.404Z" fill="url(#paint_linear_76_3061_0)" fill-opacity="1.000000" fill-rule="evenodd"/>
	<path id="image 9 (Traced)" d="M975.792 633.151C975.128 633.396 974.62 634.222 974.727 634.884C974.843 635.601 975.029 635.814 979.279 640.094C984.868 645.724 984.868 644.367 979.279 649.996C976.166 653.131 975.084 654.27 974.95 654.554C974.174 656.197 975.608 657.574 977.247 656.758C977.847 656.459 987.788 646.486 988.072 645.897C988.708 644.581 988.789 644.692 982.73 638.625C976.832 632.717 976.876 632.753 975.792 633.151ZM985.985 633.404C985.253 633.843 985.005 634.771 985.397 635.602C985.542 635.906 986.526 636.945 989.693 640.135C995.235 645.717 995.24 644.368 989.653 649.996C986.54 653.131 985.458 654.27 985.324 654.554C984.548 656.197 985.983 657.574 987.621 656.758C988.24 656.449 998.094 646.568 998.404 645.945C999.082 644.583 999.138 644.66 993.189 638.703C987.236 632.742 987.169 632.693 985.985 633.404Z" fill="url(#paint_linear_76_3062_0)" fill-opacity="1.000000" fill-rule="evenodd"/>
	<path id="image 9 (Traced)" d="M1257.79 633.151C1257.13 633.396 1256.62 634.222 1256.73 634.884C1256.84 635.601 1257.03 635.814 1261.28 640.094C1266.87 645.724 1266.87 644.367 1261.28 649.996C1258.17 653.131 1257.08 654.27 1256.95 654.554C1256.17 656.197 1257.61 657.574 1259.25 656.758C1259.85 656.459 1269.79 646.486 1270.07 645.897C1270.71 644.581 1270.79 644.692 1264.73 638.625C1258.83 632.717 1258.88 632.753 1257.79 633.151ZM1267.98 633.404C1267.25 633.843 1267 634.771 1267.4 635.602C1267.54 635.906 1268.53 636.945 1271.69 640.135C1277.23 645.717 1277.24 644.368 1271.65 649.996C1268.54 653.131 1267.46 654.27 1267.32 654.554C1266.55 656.197 1267.98 657.574 1269.62 656.758C1270.24 656.449 1280.09 646.568 1280.4 645.945C1281.08 644.583 1281.14 644.66 1275.19 638.703C1269.24 632.742 1269.17 632.693 1267.98 633.404Z" fill="url(#paint_linear_76_3129_0)" fill-opacity="1.000000" fill-rule="evenodd"/>
	<path id="image 9 (Traced)" d="M1546.79 633.151C1546.13 633.396 1545.62 634.222 1545.73 634.884C1545.84 635.601 1546.03 635.814 1550.28 640.094C1555.87 645.724 1555.87 644.367 1550.28 649.996C1547.17 653.131 1546.08 654.27 1545.95 654.554C1545.17 656.197 1546.61 657.574 1548.25 656.758C1548.85 656.459 1558.79 646.486 1559.07 645.897C1559.71 644.581 1559.79 644.692 1553.73 638.625C1547.83 632.717 1547.88 632.753 1546.79 633.151ZM1556.98 633.404C1556.25 633.843 1556.01 634.771 1556.4 635.602C1556.54 635.906 1557.53 636.945 1560.69 640.135C1566.23 645.717 1566.24 644.368 1560.65 649.996C1557.54 653.131 1556.46 654.27 1556.32 654.554C1555.55 656.197 1556.98 657.574 1558.62 656.758C1559.24 656.449 1569.09 646.568 1569.4 645.945C1570.08 644.583 1570.14 644.66 1564.19 638.703C1558.24 632.742 1558.17 632.693 1556.98 633.404Z" fill="url(#paint_linear_76_3130_0)" fill-opacity="1.000000" fill-rule="evenodd"/>
</svg>
