<svg width="1176.640625" height="608.000000" viewBox="0 0 1176.64 608" fill="none" xmlns="http://www.w3.org/2000/svg" xmlns:xlink="http://www.w3.org/1999/xlink">
	<desc>
			Created with Pixso.
	</desc>
	<defs>
		<linearGradient id="paint_linear_69_341_0" x1="1244.808594" y1="154.750000" x2="-16.583984" y2="154.750000" gradientUnits="userSpaceOnUse">
			<stop stop-color="#E10920"/>
			<stop offset="1.000000" stop-color="#FF7785"/>
		</linearGradient>
		<linearGradient id="paint_linear_69_342_0" x1="1244.808594" y1="264.750000" x2="-16.583984" y2="264.750000" gradientUnits="userSpaceOnUse">
			<stop stop-color="#E10920"/>
			<stop offset="1.000000" stop-color="#FF7785"/>
		</linearGradient>
		<linearGradient id="paint_linear_69_343_0" x1="1244.808594" y1="374.750000" x2="-16.583984" y2="374.750000" gradientUnits="userSpaceOnUse">
			<stop stop-color="#E10920"/>
			<stop offset="1.000000" stop-color="#FF7785"/>
		</linearGradient>
		<linearGradient id="paint_linear_69_344_0" x1="1244.808594" y1="484.750000" x2="-16.583984" y2="484.750000" gradientUnits="userSpaceOnUse">
			<stop stop-color="#E10920"/>
			<stop offset="1.000000" stop-color="#FF7785"/>
		</linearGradient>
		<linearGradient id="paint_linear_69_346_0" x1="1244.808594" y1="594.750000" x2="-16.583984" y2="594.750000" gradientUnits="userSpaceOnUse">
			<stop stop-color="#E10920"/>
			<stop offset="1.000000" stop-color="#FF7785"/>
		</linearGradient>
		<linearGradient id="paint_linear_69_334_0" x1="37.829453" y1="197.437256" x2="1241.306152" y2="274.500000" gradientUnits="userSpaceOnUse">
			<stop stop-color="#E10920"/>
			<stop offset="1.000000" stop-color="#FF7785"/>
		</linearGradient>
	</defs>
	<path id="Line 2" d="M58.6357 42L58.6357 596L56.2715 596L56.2715 42L58.6357 42ZM57.4536 594.328L63.3052 588.477C63.7734 588.008 64.5088 588.008 64.9771 588.477C65.4451 588.945 65.4453 589.68 64.9771 590.148L58.2896 596.836C57.8215 597.305 57.0859 597.305 56.6177 596.836L49.9302 590.148C49.4622 589.68 49.4622 588.945 49.9302 588.477C50.3984 588.008 51.134 588.008 51.6021 588.477L57.4536 594.328Z" fill="#000000" fill-opacity="1.000000" fill-rule="evenodd"/>
	<path id="Line 3" d="M1175.45 43.1826L57.1055 43.1826L57.1055 40.8174L1175.45 40.8174L1175.45 43.1826ZM1173.78 42L1167.93 36.1484C1167.46 35.6807 1167.46 34.9443 1167.93 34.4766C1168.4 34.0088 1169.13 34.0088 1169.6 34.4766L1176.29 41.1641C1176.76 41.6318 1176.76 42.3682 1176.29 42.8359L1169.6 49.5234C1169.13 49.9912 1168.4 49.9912 1167.93 49.5234C1167.46 49.0557 1167.46 48.3193 1167.93 47.8516L1173.78 42Z" fill="#000000" fill-opacity="1.000000" fill-rule="evenodd"/>
	<path id="Line 20" d="M1175.45 155L57.1055 155" stroke="url(#paint_linear_69_341_0)" stroke-opacity="1.000000" stroke-width="0.500000"/>
	<path id="Line 21" d="M1175.45 265L57.1055 265" stroke="url(#paint_linear_69_342_0)" stroke-opacity="1.000000" stroke-width="0.500000"/>
	<path id="Line 22" d="M1175.45 375L57.1055 375" stroke="url(#paint_linear_69_343_0)" stroke-opacity="1.000000" stroke-width="0.500000"/>
	<path id="Line 23" d="M1175.45 485L57.1055 485" stroke="url(#paint_linear_69_344_0)" stroke-opacity="1.000000" stroke-width="0.500000"/>
	<path id="Line 24" d="M1175.45 595L57.1055 595" stroke="url(#paint_linear_69_346_0)" stroke-opacity="1.000000" stroke-width="0.500000"/>
	<path id="Line 8" d="M57.1055 485L45.2837 485" stroke="#000000" stroke-opacity="1.000000" stroke-width="1.182186" stroke-linecap="round"/>
	<path id="Line 11" d="M57.1055 375L45.2837 375" stroke="#000000" stroke-opacity="1.000000" stroke-width="1.182186" stroke-linecap="round"/>
	<path id="Line 12" d="M57.1055 265L45.2837 265" stroke="#000000" stroke-opacity="1.000000" stroke-width="1.182186" stroke-linecap="round"/>
	<path id="Line 13" d="M57.1055 155L45.2837 155" stroke="#000000" stroke-opacity="1.000000" stroke-width="1.182186" stroke-linecap="round"/>
	<path id="Line 14" d="M104 41.8223L104 30" stroke="#000000" stroke-opacity="1.000000" stroke-width="1.182186" stroke-linecap="round"/>
	<path id="Line 16" d="M318 41.8223L318 30" stroke="#000000" stroke-opacity="1.000000" stroke-width="1.182186" stroke-linecap="round"/>
	<path id="Line 17" d="M532 41.8223L532 30" stroke="#000000" stroke-opacity="1.000000" stroke-width="1.182186" stroke-linecap="round"/>
	<path id="Line 18" d="M746 41.8223L746 30" stroke="#000000" stroke-opacity="1.000000" stroke-width="1.182186" stroke-linecap="round"/>
	<path id="Line 19" d="M960 41.8223L960 30" stroke="#000000" stroke-opacity="1.000000" stroke-width="1.182186" stroke-linecap="round"/>
	<path id="Line 15" d="M318 41.8223L318 30" stroke="#000000" stroke-opacity="1.000000" stroke-width="1.182186" stroke-linecap="round"/>
	<path id="-2,5" d="M3.48875 596.288L8.44378 596.288L8.44378 597.461L3.48875 597.461L3.48875 596.288ZM19.3768 600.79L19.3768 602L10.0902 602L10.0902 601.035L15.5947 595.646Q16.6337 594.625 17.0032 593.877Q17.3726 593.129 17.3726 592.372Q17.3726 591.199 16.5691 590.548Q15.7656 589.896 14.2694 589.896Q11.9419 589.896 10.6582 591.37L9.69301 590.538Q10.4688 589.629 11.6695 589.139Q12.8701 588.645 14.3848 588.645Q16.4075 588.645 17.5896 589.601Q18.7718 590.557 18.7718 592.219Q18.7718 593.244 18.3147 594.191Q17.8621 595.133 16.5968 596.362L12.0943 600.79L19.3768 600.79ZM22.3068 600.033Q22.7409 600.033 23.0226 600.328Q23.3089 600.619 23.3089 601.053Q23.3089 601.28 23.2442 601.547Q23.1796 601.811 23.0457 602.152L22.2514 604.762L21.3416 604.762L21.9882 602.018Q21.6834 601.926 21.494 601.672Q21.3047 601.414 21.3047 601.053Q21.3047 600.619 21.5864 600.328Q21.8727 600.033 22.3068 600.033ZM28.7596 594.186Q31.632 594.186 32.9481 595.221Q34.2642 596.251 34.2642 598.102Q34.2642 599.257 33.7239 600.167Q33.1836 601.072 32.103 601.594Q31.027 602.115 29.4569 602.115Q28.0392 602.115 26.7601 601.654Q25.4855 601.187 24.7097 600.411L25.3701 599.331Q26.0351 600.014 27.111 600.439Q28.1916 600.864 29.4385 600.864Q31.0825 600.864 31.9829 600.13Q32.8834 599.391 32.8834 598.163Q32.8834 596.8 31.8675 596.098Q30.8562 595.396 28.4549 595.396L25.6379 595.396L26.3168 588.76L33.5623 588.76L33.5623 589.97L27.5082 589.97L27.0556 594.186L28.7596 594.186Z" fill="#000000" fill-opacity="1.000000" fill-rule="evenodd"/>
	<path id="-2" d="M18.3938 486.288L23.3488 486.288L23.3488 487.461L18.3938 487.461L18.3938 486.288ZM34.2818 490.79L34.2818 492L24.9952 492L24.9952 491.035L30.4997 485.646Q31.5387 484.625 31.9082 483.877Q32.2776 483.129 32.2776 482.372Q32.2776 481.199 31.4741 480.548Q30.6706 479.896 29.1744 479.896Q26.8469 479.896 25.5632 481.37L24.598 480.538Q25.3738 479.629 26.5745 479.139Q27.7751 478.645 29.2898 478.645Q31.3125 478.645 32.4947 479.601Q33.6768 480.557 33.6768 482.219Q33.6768 483.244 33.2197 484.191Q32.7671 485.133 31.5018 486.362L26.9993 490.79L34.2818 490.79Z" fill="#000000" fill-opacity="1.000000" fill-rule="evenodd"/>
	<path id="-1,5" d="M7.68788 376.288L12.6429 376.288L12.6429 377.461L7.68788 377.461L7.68788 376.288ZM18.1107 368.76L18.1107 382L16.7484 382L16.7484 369.97L13.6267 369.97L13.6267 368.76L18.1107 368.76ZM22.3068 380.033Q22.7409 380.033 23.0226 380.328Q23.3089 380.619 23.3089 381.053Q23.3089 381.28 23.2442 381.547Q23.1796 381.811 23.0457 382.152L22.2514 384.762L21.3416 384.762L21.9882 382.018Q21.6834 381.926 21.494 381.672Q21.3047 381.414 21.3047 381.053Q21.3047 380.619 21.5864 380.328Q21.8727 380.033 22.3068 380.033ZM28.7596 374.186Q31.632 374.186 32.9481 375.221Q34.2642 376.251 34.2642 378.102Q34.2642 379.257 33.7239 380.167Q33.1836 381.072 32.103 381.594Q31.027 382.115 29.4569 382.115Q28.0392 382.115 26.7601 381.654Q25.4855 381.187 24.7097 380.411L25.3701 379.331Q26.0351 380.014 27.111 380.439Q28.1916 380.864 29.4385 380.864Q31.0825 380.864 31.9829 380.13Q32.8834 379.391 32.8834 378.163Q32.8834 376.8 31.8675 376.098Q30.8562 375.396 28.4549 375.396L25.6379 375.396L26.3168 368.76L33.5623 368.76L33.5623 369.97L27.5082 369.97L27.0556 374.186L28.7596 374.186Z" fill="#000000" fill-opacity="1.000000" fill-rule="evenodd"/>
	<path id="-1" d="M22.4037 266.288L27.3588 266.288L27.3588 267.461L22.4037 267.461L22.4037 266.288ZM32.8265 258.76L32.8265 272L31.4643 272L31.4643 259.97L28.3426 259.97L28.3426 258.76L32.8265 258.76Z" fill="#000000" fill-opacity="1.000000" fill-rule="evenodd"/>
	<path id="-0,5" d="M1.72966 156.288L6.68468 156.288L6.68468 157.461L1.72966 157.461L1.72966 156.288ZM14.2324 162.115Q12.6992 162.115 11.4986 161.303Q10.2979 160.485 9.62371 158.966Q8.95411 157.442 8.95411 155.378Q8.95411 153.318 9.62371 151.794Q10.2979 150.27 11.4986 149.458Q12.6992 148.645 14.2324 148.645Q15.7655 148.645 16.9662 149.458Q18.1669 150.27 18.8457 151.794Q19.5291 153.318 19.5291 155.378Q19.5291 157.442 18.8457 158.966Q18.1669 160.485 16.9662 161.303Q15.7655 162.115 14.2324 162.115ZM14.2324 160.864Q15.3869 160.864 16.2643 160.222Q17.1463 159.58 17.6358 158.352Q18.1299 157.119 18.1299 155.378Q18.1299 153.642 17.6358 152.413Q17.1463 151.18 16.2643 150.538Q15.3869 149.896 14.2324 149.896Q13.0779 149.896 12.1959 150.538Q11.3185 151.18 10.8244 152.413Q10.3349 153.642 10.3349 155.378Q10.3349 157.119 10.8244 158.352Q11.3185 159.58 12.1959 160.222Q13.0779 160.864 14.2324 160.864ZM22.3068 160.033Q22.7409 160.033 23.0226 160.328Q23.3089 160.619 23.3089 161.053Q23.3089 161.28 23.2442 161.547Q23.1796 161.811 23.0457 162.152L22.2514 164.762L21.3416 164.762L21.9882 162.018Q21.6834 161.926 21.494 161.672Q21.3047 161.414 21.3047 161.053Q21.3047 160.619 21.5864 160.328Q21.8727 160.033 22.3068 160.033ZM28.7596 154.186Q31.632 154.186 32.9481 155.221Q34.2642 156.251 34.2642 158.102Q34.2642 159.257 33.7239 160.167Q33.1836 161.072 32.103 161.594Q31.027 162.115 29.4569 162.115Q28.0392 162.115 26.7601 161.654Q25.4855 161.187 24.7097 160.411L25.3701 159.331Q26.0351 160.014 27.111 160.439Q28.1916 160.864 29.4385 160.864Q31.0825 160.864 31.9829 160.13Q32.8834 159.391 32.8834 158.163Q32.8834 156.8 31.8675 156.098Q30.8562 155.396 28.4549 155.396L25.6379 155.396L26.3168 148.76L33.5623 148.76L33.5623 149.97L27.5082 149.97L27.0556 154.186L28.7596 154.186Z" fill="#000000" fill-opacity="1.000000" fill-rule="evenodd"/>
	<path id="0" d="M28.7402 52.1154Q27.207 52.1154 26.0064 51.3027Q24.8057 50.4853 24.1315 48.966Q23.4619 47.4421 23.4619 45.3779Q23.4619 43.3183 24.1315 41.7944Q24.8057 40.2705 26.0064 39.4577Q27.207 38.645 28.7402 38.645Q30.2733 38.645 31.474 39.4577Q32.6746 40.2705 33.3535 41.7944Q34.0369 43.3183 34.0369 45.3779Q34.0369 47.4421 33.3535 48.966Q32.6746 50.4853 31.474 51.3027Q30.2733 52.1154 28.7402 52.1154ZM28.7402 50.864Q29.8947 50.864 30.7721 50.2221Q31.6541 49.5802 32.1436 48.3518Q32.6377 47.1189 32.6377 45.3779Q32.6377 43.6416 32.1436 42.4132Q31.6541 41.1802 30.7721 40.5383Q29.8947 39.8964 28.7402 39.8964Q27.5857 39.8964 26.7037 40.5383Q25.8263 41.1802 25.3322 42.4132Q24.8427 43.6416 24.8427 45.3779Q24.8427 47.1189 25.3322 48.3518Q25.8263 49.5802 26.7037 50.2221Q27.5857 50.864 28.7402 50.864Z" fill="#000000" fill-opacity="1.000000" fill-rule="evenodd"/>
	<path id="2" d="M110.282 18.7901L110.282 20L100.995 20L100.995 19.0349L106.5 13.6457Q107.539 12.6252 107.908 11.8771Q108.278 11.129 108.278 10.3716Q108.278 9.1987 107.474 8.54757Q106.671 7.89644 105.174 7.89644Q102.847 7.89644 101.563 9.36956L100.598 8.53833Q101.374 7.62861 102.574 7.13911Q103.775 6.64499 105.29 6.64499Q107.312 6.64499 108.495 7.6009Q109.677 8.55681 109.677 10.2193Q109.677 11.2444 109.22 12.1911Q108.767 13.1332 107.502 14.3615L102.999 18.7901L110.282 18.7901Z" fill="#000000" fill-opacity="1.000000" fill-rule="evenodd"/>
	<path id="3" d="M318.818 12.4359Q320.896 12.5467 321.981 13.558Q323.071 14.5693 323.071 16.1995Q323.071 17.3308 322.522 18.2129Q321.977 19.0903 320.896 19.6029Q319.82 20.1154 318.268 20.1154Q316.832 20.1154 315.553 19.6537Q314.279 19.1872 313.503 18.4114L314.163 17.3308Q314.828 18.0143 315.923 18.4391Q317.022 18.864 318.268 18.864Q319.894 18.864 320.781 18.1575Q321.672 17.4463 321.672 16.1995Q321.672 14.9665 320.781 14.2692Q319.894 13.5672 318.098 13.5672L317.151 13.5672L317.151 12.5652L320.822 7.97033L314.052 7.97033L314.052 6.76044L322.563 6.76044L322.563 7.72558L318.818 12.4359Z" fill="#000000" fill-opacity="1.000000" fill-rule="evenodd"/>
	<path id="4" d="M536.735 16.5181L534.089 16.5181L534.089 20L532.726 20L532.726 16.5181L525.255 16.5181L525.255 15.5345L532.269 6.76044L533.784 6.76044L527.014 15.3082L532.763 15.3082L532.763 12.2465L534.089 12.2465L534.089 15.3082L536.735 15.3082L536.735 16.5181Z" fill="#000000" fill-opacity="1.000000" fill-rule="evenodd"/>
	<path id="5" d="M743.76 12.1865Q746.632 12.1865 747.948 13.2209Q749.264 14.2507 749.264 16.1025Q749.264 17.257 748.724 18.1667Q748.184 19.0718 747.103 19.5936Q746.027 20.1154 744.457 20.1154Q743.039 20.1154 741.76 19.6537Q740.486 19.1872 739.71 18.4114L740.37 17.3308Q741.035 18.0143 742.111 18.4391Q743.192 18.864 744.438 18.864Q746.082 18.864 746.983 18.1297Q747.883 17.3909 747.883 16.1625Q747.883 14.8002 746.867 14.0983Q745.856 13.3964 743.455 13.3964L740.638 13.3964L741.317 6.76044L748.562 6.76044L748.562 7.97033L742.508 7.97033L742.056 12.1865L743.76 12.1865Z" fill="#000000" fill-opacity="1.000000" fill-rule="evenodd"/>
	<path id="6" d="M957.951 12.0757Q959.253 12.0757 960.264 12.5698Q961.28 13.0593 961.843 13.9598Q962.411 14.8556 962.411 16.0471Q962.411 17.257 961.825 18.1852Q961.243 19.1087 960.209 19.6121Q959.179 20.1154 957.895 20.1154Q955.263 20.1154 953.864 18.3837Q952.464 16.652 952.464 13.4934Q952.464 11.2814 953.222 9.74823Q953.979 8.21508 955.337 7.43004Q956.699 6.64499 958.518 6.64499Q960.486 6.64499 961.659 7.36538L961.109 8.45983Q960.162 7.83641 958.537 7.83641Q956.343 7.83641 955.092 9.2264Q953.845 10.6164 953.845 13.2671Q953.845 13.7381 953.901 14.3431Q954.395 13.2671 955.471 12.6714Q956.551 12.0757 957.951 12.0757ZM957.835 18.961Q959.276 18.961 960.172 18.1759Q961.072 17.3909 961.072 16.084Q961.072 14.7818 960.172 14.0059Q959.276 13.2301 957.743 13.2301Q956.741 13.2301 955.974 13.6088Q955.207 13.9829 954.769 14.6478Q954.335 15.3082 954.335 16.121Q954.335 16.8783 954.741 17.5248Q955.152 18.1667 955.946 18.5638Q956.741 18.961 957.835 18.961Z" fill="#000000" fill-opacity="1.000000" fill-rule="evenodd"/>
	<path id="7" d="M1175.18 6.76044L1175.18 7.72558L1169.64 20L1168.17 20L1173.61 7.97033L1166.81 7.97033L1166.81 10.4502L1165.46 10.4502L1165.46 6.76044L1175.18 6.76044Z" fill="#000000" fill-opacity="1.000000" fill-rule="evenodd"/>
	<path id="Vector 3" d="M104 69L316.205 151.996L523.926 188.377C667.222 256.025 955.508 392.457 962.282 397.004C969.057 401.553 1104.25 454.23 1171 480" stroke="url(#paint_linear_69_334_0)" stroke-opacity="1.000000" stroke-width="9.000000" stroke-linecap="round"/>
	<path id="Vector 4" d="M102 74C170.576 106.971 309.222 173.141 315.199 174.049C321.177 174.959 459.823 215.736 528.398 236.012L753.553 363.348L1167 485" stroke="#847777" stroke-opacity="1.000000" stroke-width="9.000000" stroke-linecap="round"/>
</svg>
