<svg width="969.186523" height="669.000000" viewBox="0 0 969.187 669" fill="none" xmlns="http://www.w3.org/2000/svg" xmlns:xlink="http://www.w3.org/1999/xlink">
	<desc>
			Created with Pixso.
	</desc>
	<defs>
		<filter id="filter_84_5263_dd" x="220.361328" y="370.082031" width="79.369141" height="33.199219" filterUnits="userSpaceOnUse" color-interpolation-filters="sRGB">
			<feFlood flood-opacity="0" result="BackgroundImageFix"/>
			<feColorMatrix in="SourceAlpha" type="matrix" values="0 0 0 0 0 0 0 0 0 0 0 0 0 0 0 0 0 0 127 0" result="hardAlpha"/>
			<feOffset dx="0" dy="4"/>
			<feGaussianBlur stdDeviation="1.33333"/>
			<feComposite in2="hardAlpha" operator="out" k2="-1" k3="1"/>
			<feColorMatrix type="matrix" values="0 0 0 0 0 0 0 0 0 0 0 0 0 0 0 0 0 0 0.25 0"/>
			<feBlend mode="normal" in2="BackgroundImageFix" result="effect_dropShadow_1"/>
			<feBlend mode="normal" in="SourceGraphic" in2="effect_dropShadow_1" result="shape"/>
		</filter>
		<filter id="filter_84_5314_dd" x="612.361328" y="462.082031" width="79.369141" height="33.199219" filterUnits="userSpaceOnUse" color-interpolation-filters="sRGB">
			<feFlood flood-opacity="0" result="BackgroundImageFix"/>
			<feColorMatrix in="SourceAlpha" type="matrix" values="0 0 0 0 0 0 0 0 0 0 0 0 0 0 0 0 0 0 127 0" result="hardAlpha"/>
			<feOffset dx="0" dy="4"/>
			<feGaussianBlur stdDeviation="1.33333"/>
			<feComposite in2="hardAlpha" operator="out" k2="-1" k3="1"/>
			<feColorMatrix type="matrix" values="0 0 0 0 0 0 0 0 0 0 0 0 0 0 0 0 0 0 0.25 0"/>
			<feBlend mode="normal" in2="BackgroundImageFix" result="effect_dropShadow_1"/>
			<feBlend mode="normal" in="SourceGraphic" in2="effect_dropShadow_1" result="shape"/>
		</filter>
		<linearGradient id="paint_linear_84_5305_0" x1="260.500000" y1="52.000000" x2="260.500000" y2="364.000000" gradientUnits="userSpaceOnUse">
			<stop stop-color="#1091DA"/>
			<stop offset="1.000000" stop-color="#7DC5ED"/>
		</linearGradient>
		<linearGradient id="paint_linear_84_5311_0" x1="652.500000" y1="374.000000" x2="652.500000" y2="511.000000" gradientUnits="userSpaceOnUse">
			<stop stop-color="#1091DA"/>
			<stop offset="1.000000" stop-color="#7DC5ED"/>
		</linearGradient>
		<linearGradient id="paint_linear_84_5239_0" x1="403.500000" y1="630.000000" x2="403.500000" y2="685.865356" gradientUnits="userSpaceOnUse">
			<stop stop-color="#BBBBBB"/>
			<stop offset="1.000000" stop-color="#BBBBBB" stop-opacity="0.000000"/>
		</linearGradient>
		<linearGradient id="paint_linear_84_5242_0" x1="103.500000" y1="630.000000" x2="103.500000" y2="665.000000" gradientUnits="userSpaceOnUse">
			<stop stop-color="#1091DA"/>
			<stop offset="1.000000" stop-color="#7DC5ED"/>
		</linearGradient>
		<linearGradient id="paint_linear_84_5257_0" x1="389.500000" y1="52.000000" x2="389.500000" y2="784.634644" gradientUnits="userSpaceOnUse">
			<stop stop-color="#BBBBBB"/>
			<stop offset="1.000000" stop-color="#BBBBBB" stop-opacity="0.000000"/>
		</linearGradient>
		<linearGradient id="paint_linear_84_5260_0" x1="260.500000" y1="332.000000" x2="260.500000" y2="511.000000" gradientUnits="userSpaceOnUse">
			<stop stop-color="#1091DA"/>
			<stop offset="1.000000" stop-color="#7DC5ED"/>
		</linearGradient>
		<linearGradient id="paint_linear_84_5312_0" x1="781.500000" y1="374.000000" x2="781.500000" y2="592.673096" gradientUnits="userSpaceOnUse">
			<stop stop-color="#BBBBBB"/>
			<stop offset="1.000000" stop-color="#BBBBBB" stop-opacity="0.000000"/>
		</linearGradient>
		<linearGradient id="paint_linear_84_5313_0" x1="652.500000" y1="499.000000" x2="652.500000" y2="511.000000" gradientUnits="userSpaceOnUse">
			<stop stop-color="#1091DA"/>
			<stop offset="1.000000" stop-color="#7DC5ED"/>
		</linearGradient>
		<linearGradient id="paint_linear_84_5284_0" x1="526.000000" y1="552.000000" x2="526.000000" y2="576.000000" gradientUnits="userSpaceOnUse">
			<stop stop-color="#1091DA"/>
			<stop offset="1.000000" stop-color="#7DC5ED"/>
		</linearGradient>
	</defs>
	<g opacity="0.500000">
		<path id="Rectangle 27" d="M222.279 52L298.721 52C310.473 52 320 61.5273 320 73.2793L320 364L201 364L201 73.2793C201 61.5273 210.527 52 222.279 52Z" fill="url(#paint_linear_84_5305_0)" fill-opacity="1.000000" fill-rule="evenodd"/>
	</g>
	<g opacity="0.500000">
		<path id="Rectangle 28" d="M614.279 374L690.721 374C702.473 374 712 383.527 712 395.279L712 511L593 511L593 395.279C593 383.527 602.527 374 614.279 374Z" fill="url(#paint_linear_84_5311_0)" fill-opacity="1.000000" fill-rule="evenodd"/>
	</g>
	<path id="Контроль" d="M445.591 649.757L441.211 649.757L441.211 659L438.267 659L438.267 638.001L441.211 638.001L441.211 647.12L445.649 647.12L452.249 638.001L455.457 638.001L447.957 648.167L455.823 659L452.402 659L445.591 649.757ZM465.032 659.183Q462.659 659.183 460.769 658.136Q458.88 657.081 457.81 655.235Q456.748 653.39 456.748 651.053Q456.748 648.709 457.81 646.864Q458.88 645.018 460.769 643.985Q462.659 642.953 465.032 642.953Q467.398 642.953 469.273 643.985Q471.148 645.018 472.21 646.864Q473.279 648.709 473.279 651.053Q473.279 653.39 472.21 655.235Q471.148 657.081 469.273 658.136Q467.398 659.183 465.032 659.183ZM465.032 656.664Q466.555 656.664 467.771 655.96Q468.987 655.25 469.676 653.976Q470.371 652.701 470.371 651.053Q470.371 649.398 469.676 648.124Q468.987 646.849 467.771 646.161Q466.555 645.472 465.032 645.472Q463.501 645.472 462.285 646.161Q461.07 646.849 460.359 648.124Q459.656 649.398 459.656 651.053Q459.656 652.701 460.359 653.976Q461.07 655.25 462.285 655.96Q463.501 656.664 465.032 656.664ZM477.451 643.099L480.329 643.099L480.329 649.852L489.389 649.852L489.389 643.099L492.267 643.099L492.267 659L489.389 659L489.389 652.342L480.329 652.342L480.329 659L477.451 659L477.451 643.099ZM509.731 645.619L503.908 645.619L503.908 659L501.03 659L501.03 645.619L495.207 645.619L495.207 643.099L509.731 643.099L509.731 645.619ZM521.101 642.953Q523.408 642.953 525.239 643.971Q527.07 644.989 528.103 646.82Q529.135 648.651 529.135 651.053Q529.135 653.448 528.103 655.294Q527.07 657.14 525.239 658.165Q523.408 659.183 521.101 659.183Q519.387 659.183 517.959 658.524Q516.538 657.857 515.549 656.598L515.549 664.823L512.671 664.823L512.671 643.099L515.432 643.099L515.432 645.619Q516.391 644.3 517.856 643.626Q519.328 642.953 521.101 642.953ZM520.859 656.664Q522.39 656.664 523.606 655.96Q524.821 655.25 525.525 653.976Q526.228 652.701 526.228 651.053Q526.228 649.398 525.525 648.124Q524.821 646.849 523.606 646.161Q522.39 645.472 520.859 645.472Q519.358 645.472 518.142 646.175Q516.926 646.878 516.223 648.138Q515.52 649.398 515.52 651.053Q515.52 652.701 516.208 653.976Q516.897 655.25 518.127 655.96Q519.358 656.664 520.859 656.664ZM540.122 659.183Q537.749 659.183 535.859 658.136Q533.97 657.081 532.9 655.235Q531.838 653.39 531.838 651.053Q531.838 648.709 532.9 646.864Q533.97 645.018 535.859 643.985Q537.749 642.953 540.122 642.953Q542.488 642.953 544.363 643.985Q546.238 645.018 547.3 646.864Q548.369 648.709 548.369 651.053Q548.369 653.39 547.3 655.235Q546.238 657.081 544.363 658.136Q542.488 659.183 540.122 659.183ZM540.122 656.664Q541.646 656.664 542.861 655.96Q544.077 655.25 544.766 653.976Q545.461 652.701 545.461 651.053Q545.461 649.398 544.766 648.124Q544.077 646.849 542.861 646.161Q541.646 645.472 540.122 645.472Q538.591 645.472 537.375 646.161Q536.16 646.849 535.449 648.124Q534.746 649.398 534.746 651.053Q534.746 652.701 535.449 653.976Q536.16 655.25 537.375 655.96Q538.591 656.664 540.122 656.664ZM566.073 643.099L566.073 659L563.187 659L563.187 645.619L556.354 645.619L556.171 649.164Q556.017 652.372 555.599 654.518Q555.182 656.664 554.222 657.953Q553.263 659.242 551.549 659.242Q550.773 659.242 549.776 658.971L549.96 656.539Q550.348 656.627 550.677 656.627Q551.879 656.627 552.479 655.58Q553.08 654.532 553.255 653.089Q553.439 651.646 553.592 648.98L553.863 643.099L566.073 643.099ZM578.997 648.497Q582.029 648.526 583.618 649.881Q585.208 651.229 585.208 653.69Q585.208 656.268 583.479 657.667Q581.758 659.059 578.55 659.029L571.651 659L571.651 643.099L574.529 643.099L574.529 648.468L578.997 648.497ZM578.308 656.839Q580.256 656.869 581.26 656.063Q582.271 655.25 582.271 653.661Q582.271 652.101 581.297 651.383Q580.322 650.658 578.308 650.628L574.529 650.57L574.529 656.81L578.308 656.839Z" fill="#000000" fill-opacity="1.000000" fill-rule="evenodd"/>
	<rect id="Rectangle 26" x="386.000000" y="630.000000" rx="8.000000" width="35.000000" height="35.000000" fill="url(#paint_linear_84_5239_0)" fill-opacity="1.000000"/>
	<path id="АНАФЕРОН" d="M154.919 653.749L143.757 653.749L141.45 659L138.359 659L147.866 638.001L150.839 638.001L160.375 659L157.226 659L154.919 653.749ZM153.872 651.354L149.338 641.063L144.812 651.354L153.872 651.354ZM182.068 638.001L182.068 659L179.065 659L179.065 649.64L167.01 649.64L167.01 659L164.007 659L164.007 638.001L167.01 638.001L167.01 647.032L179.065 647.032L179.065 638.001L182.068 638.001ZM202.259 653.749L191.097 653.749L188.79 659L185.699 659L195.206 638.001L198.179 638.001L207.715 659L204.566 659L202.259 653.749ZM201.212 651.354L196.678 641.063L192.152 651.354L201.212 651.354ZM234.213 648.468Q234.213 652.643 231.298 655.016Q228.39 657.381 223.08 657.557L223.08 659.776L220.29 659.776L220.29 657.557Q214.98 657.352 212.05 654.986Q209.128 652.613 209.128 648.468Q209.128 644.3 212.05 641.935Q214.98 639.562 220.29 639.349L220.29 637.218L223.08 637.218L223.08 639.349Q228.361 639.562 231.283 641.949Q234.213 644.33 234.213 648.468ZM223.08 655.221Q227.101 654.979 229.211 653.258Q231.327 651.529 231.327 648.438Q231.327 645.414 229.181 643.685Q227.043 641.957 223.08 641.722L223.08 655.221ZM212.043 648.468Q212.043 651.529 214.181 653.258Q216.327 654.979 220.29 655.221L220.29 641.722Q216.269 641.957 214.152 643.67Q212.043 645.377 212.043 648.468ZM254.068 656.393L254.068 659L238.827 659L238.827 638.001L253.643 638.001L253.643 640.609L241.83 640.609L241.83 647.062L252.354 647.062L252.354 649.61L241.83 649.61L241.83 656.393L254.068 656.393ZM266.965 638.001Q271.045 638.001 273.381 639.95Q275.725 641.898 275.725 645.318Q275.725 648.739 273.381 650.694Q271.045 652.643 266.965 652.643L261.78 652.643L261.78 659L258.777 659L258.777 638.001L266.965 638.001ZM266.877 650.028Q269.726 650.028 271.228 648.819Q272.729 647.604 272.729 645.318Q272.729 643.041 271.228 641.825Q269.726 640.609 266.877 640.609L261.78 640.609L261.78 650.028L266.877 650.028ZM289.645 659.242Q286.466 659.242 283.917 657.85Q281.368 656.451 279.911 653.99Q278.461 651.529 278.461 648.497Q278.461 645.472 279.911 643.011Q281.368 640.55 283.917 639.159Q286.466 637.76 289.645 637.76Q292.794 637.76 295.343 639.159Q297.899 640.55 299.335 642.997Q300.778 645.443 300.778 648.497Q300.778 651.559 299.335 654.005Q297.899 656.451 295.343 657.85Q292.794 659.242 289.645 659.242ZM289.645 656.568Q291.959 656.568 293.805 655.521Q295.651 654.474 296.713 652.628Q297.775 650.782 297.775 648.497Q297.775 646.219 296.713 644.374Q295.651 642.528 293.805 641.48Q291.959 640.433 289.645 640.433Q287.338 640.433 285.463 641.48Q283.588 642.528 282.518 644.374Q281.456 646.219 281.456 648.497Q281.456 650.782 282.518 652.628Q283.588 654.474 285.463 655.521Q287.338 656.568 289.645 656.568ZM323.698 638.001L323.698 659L320.695 659L320.695 649.64L308.64 649.64L308.64 659L305.637 659L305.637 638.001L308.64 638.001L308.64 647.032L320.695 647.032L320.695 638.001L323.698 638.001Z" fill="#000000" fill-opacity="1.000000" fill-rule="evenodd"/>
	<rect id="Rectangle 26" x="86.000000" y="630.000000" rx="8.000000" width="35.000000" height="35.000000" fill="url(#paint_linear_84_5242_0)" fill-opacity="1.000000"/>
	<path id="Пацієнти з ГРВІ, %" d="M8.50122 381.202L26 381.202L26 383.65L10.6741 383.65L10.6741 393.8L26 393.8L26 396.278L8.50122 396.278L8.50122 381.202ZM12.6272 371.425Q12.6272 368.673 13.9761 367.214Q15.3249 365.749 17.9983 365.749L26 365.749L26 368.026L24.2483 368.026Q25.176 368.624 25.6643 369.741Q26.1526 370.852 26.1526 372.371Q26.1526 374.599 25.0784 375.936Q23.998 377.273 22.2524 377.273Q20.5007 377.273 19.4387 375.997Q18.3767 374.721 18.3767 371.95L18.3767 368.148L17.9006 368.148Q16.3503 368.148 15.5264 369.051Q14.7024 369.948 14.7024 371.7Q14.7024 372.872 15.093 374.001Q15.4775 375.124 16.1245 375.899L14.324 376.9Q13.5 375.875 13.0666 374.453Q12.6272 373.025 12.6272 371.425ZM24.2971 371.975Q24.2971 370.601 23.6868 369.6Q23.0764 368.6 21.9473 368.148L20.0979 368.148L20.0979 371.847Q20.0979 374.898 22.1487 374.898Q23.1497 374.898 23.7234 374.123Q24.2971 373.348 24.2971 371.975ZM23.9004 347.277L29.1738 347.277L29.1738 349.547L26 349.547L26 361.425L12.7493 361.425L12.7493 359.026L23.9004 359.026L23.9004 351.775L12.7493 351.775L12.7493 349.376L23.9004 349.376L23.9004 347.277ZM12.7493 344.175L12.7493 341.776L26 341.776L26 344.175L12.7493 344.175ZM10.198 342.978Q10.198 343.674 9.75244 344.138Q9.30078 344.602 8.6477 344.602Q8.00073 344.602 7.53686 344.138Q7.073 343.674 7.073 342.978Q7.073 342.276 7.51245 341.819Q7.9519 341.355 8.59887 341.355Q9.27636 341.355 9.74023 341.819Q10.198 342.276 10.198 342.978ZM26.1465 331.179Q26.1465 333.199 25.2737 334.841Q24.4009 336.477 22.8506 337.405Q21.3003 338.326 19.3716 338.326Q17.4246 338.326 15.8743 337.405Q14.324 336.477 13.4512 334.841Q12.5723 333.199 12.5723 331.179Q12.5723 329.427 13.1277 328.018Q13.677 326.602 14.7268 325.625L16.1245 327.029Q14.5498 328.628 14.5498 331.075Q14.5498 333.029 15.6606 334.402Q16.7715 335.775 18.572 336.05L18.572 329.403L20.3481 329.403L20.3481 336.001Q22.0754 335.677 23.1374 334.329Q24.1995 332.98 24.1995 331.075Q24.1995 328.652 22.6003 327.029L23.9736 325.625Q25.0478 326.602 25.5972 328.03Q26.1465 329.452 26.1465 331.179ZM12.7493 322.675L12.7493 320.276L18.3767 320.276L18.3767 312.726L12.7493 312.726L12.7493 310.327L26 310.327L26 312.726L20.4519 312.726L20.4519 320.276L26 320.276L26 322.675L12.7493 322.675ZM14.8489 295.774L14.8489 300.626L26 300.626L26 303.025L14.8489 303.025L14.8489 307.877L12.7493 307.877L12.7493 295.774L14.8489 295.774ZM12.7493 293.325L12.7493 290.926L22.3989 290.926L12.7493 282.802L12.7493 280.623L26 280.623L26 283.028L16.3503 283.028L26 291.127L26 293.325L12.7493 293.325ZM19.103 262.078Q19.4509 260.747 20.2261 260.027Q21.0012 259.301 22.1487 259.301Q23.3267 259.301 24.2422 260.1Q25.1516 260.9 25.6643 262.316Q26.177 263.726 26.177 265.478Q26.177 266.949 25.7925 268.365Q25.4018 269.774 24.6755 270.873L22.8506 270.153Q23.4487 269.201 23.7905 267.974Q24.1262 266.747 24.1262 265.502Q24.1262 263.799 23.5403 262.786Q22.9482 261.773 21.9473 261.773Q21.0256 261.773 20.5251 262.591Q20.0247 263.402 20.0247 264.873L20.0247 267.303L18.2974 267.303L18.2974 265.05Q18.2974 263.701 17.8274 262.926Q17.3513 262.151 16.5273 262.151Q15.624 262.151 15.1235 263.067Q14.623 263.976 14.623 265.526Q14.623 267.498 15.6484 269.701L13.7991 270.348Q12.5723 267.925 12.5723 265.276Q12.5723 263.677 13.0239 262.401Q13.4756 261.126 14.2996 260.399Q15.1235 259.673 16.1733 259.673Q17.1499 259.673 17.925 260.326Q18.7002 260.973 19.103 262.078ZM10.6741 237.078L10.6741 246.074L26 246.05L26 248.528L8.50121 248.528L8.50121 237.047L10.6741 237.078ZM8.50121 227.254Q8.50121 223.854 10.1247 221.907Q11.7483 219.954 14.5986 219.954Q17.449 219.954 19.0786 221.907Q20.7021 223.854 20.7021 227.254L20.7021 231.575L26 231.575L26 234.078L8.50121 234.078L8.50121 227.254ZM18.5232 227.327Q18.5232 224.953 17.5161 223.702Q16.5029 222.451 14.5986 222.451Q12.7004 222.451 11.6872 223.702Q10.6741 224.953 10.6741 227.327L10.6741 231.575L18.5232 231.575L18.5232 227.327ZM16.9241 205.577Q17.3513 203.801 18.4377 202.891Q19.5242 201.976 21.227 201.976Q23.4975 201.976 24.7488 203.642Q26 205.302 26 208.476L26 216.478L8.50121 216.478L8.50121 208.952Q8.50121 206.077 9.66698 204.466Q10.8267 202.849 12.9995 202.849Q14.4277 202.849 15.4287 203.563Q16.4236 204.277 16.9241 205.577ZM16.1977 214L16.1977 209.123Q16.1977 207.298 15.4775 206.34Q14.7512 205.376 13.3474 205.376Q11.9497 205.376 11.2112 206.352Q10.4726 207.323 10.4726 209.123L10.4726 214L16.1977 214ZM24.0225 208.525Q24.0225 204.503 21.0256 204.503Q19.5242 204.503 18.8162 205.516Q18.102 206.523 18.102 208.525L18.102 214L24.0225 214L24.0225 208.525ZM8.50121 197.803L8.50121 195.325L26 195.325L26 197.803L8.50121 197.803ZM22.7224 189.725Q22.7224 189.023 23.2107 188.566Q23.699 188.102 24.4253 188.102Q24.7976 188.102 25.1516 188.187Q25.4995 188.273 26.2258 188.523L29.6987 189.701L29.6987 191.276L25.9756 190.348Q25.7986 190.824 25.3896 191.111Q24.9746 191.398 24.4253 191.398Q23.6746 191.398 23.1985 190.928Q22.7224 190.452 22.7224 189.725ZM17.9006 175.201Q17.9006 177.026 16.5762 178.149Q15.2517 179.272 13.1277 179.272Q10.9975 179.272 9.67309 178.149Q8.34862 177.026 8.34862 175.201Q8.34862 173.376 9.66088 172.265Q10.9731 171.148 13.1277 171.148Q15.2761 171.148 16.5884 172.265Q17.9006 173.376 17.9006 175.201ZM8.50121 164.648L8.50121 162.726L26 174.676L26 176.599L8.50121 164.648ZM16.4724 175.201Q16.4724 174.048 15.5874 173.401Q14.7024 172.748 13.1277 172.748Q11.553 172.748 10.668 173.401Q9.77685 174.048 9.77685 175.201Q9.77685 176.324 10.6802 176.99Q11.5774 177.649 13.1277 177.649Q14.678 177.649 15.5752 176.99Q16.4724 176.324 16.4724 175.201ZM26.1526 164.123Q26.1526 165.948 24.8403 167.065Q23.522 168.176 21.3735 168.176Q19.2251 168.176 17.9128 167.065Q16.6006 165.948 16.6006 164.123Q16.6006 162.298 17.925 161.175Q19.2495 160.052 21.3735 160.052Q23.4975 160.052 24.8281 161.175Q26.1526 162.298 26.1526 164.123ZM24.7244 164.123Q24.7244 163 23.8271 162.341Q22.9238 161.676 21.3735 161.676Q19.8232 161.676 18.926 162.341Q18.0227 163 18.0227 164.123Q18.0227 165.277 18.9138 165.93Q19.7988 166.577 21.3735 166.577Q22.9482 166.577 23.8393 165.93Q24.7244 165.277 24.7244 164.123Z" fill="#000000" fill-opacity="1.000000" fill-rule="evenodd"/>
	<path id="Line 2" d="M109.183 11L109.183 513L106.817 513L106.817 11L109.183 11ZM108 12.6719L102.148 18.5234C101.681 18.9922 100.944 18.9922 100.477 18.5234C100.009 18.0547 100.009 17.3203 100.477 16.8516L107.164 10.1641C107.632 9.69531 108.368 9.69531 108.836 10.1641L115.523 16.8516C115.991 17.3203 115.991 18.0547 115.523 18.5234C115.056 18.9922 114.319 18.9922 113.852 18.5234L108 12.6719Z" fill="#000000" fill-opacity="1.000000" fill-rule="evenodd"/>
	<path id="Rectangle 25" d="M351.279 52L427.721 52C439.473 52 449 61.5273 449 73.2793L449 511L330 511L330 73.2793C330 61.5273 339.527 52 351.279 52Z" fill="url(#paint_linear_84_5257_0)" fill-opacity="1.000000" fill-rule="evenodd"/>
	<path id="Rectangle 26" d="M222.279 332L298.721 332C310.473 332 320 341.527 320 353.279L320 511L201 511L201 353.279C201 341.527 210.527 332 222.279 332Z" fill="url(#paint_linear_84_5260_0)" fill-opacity="1.000000" fill-rule="evenodd"/>
	<g filter="url(#filter_84_5263_dd)">
		<path id="22%" d="M243.998 390.377L243.998 395L225.481 395L225.481 391.326L234.932 382.396Q236.436 380.969 236.957 379.935Q237.487 378.901 237.487 377.885Q237.487 376.415 236.487 375.629Q235.496 374.843 233.565 374.843Q231.958 374.843 230.659 375.458Q229.369 376.064 228.489 377.286L224.362 374.629Q225.797 372.493 228.318 371.288Q230.839 370.083 234.094 370.083Q236.82 370.083 238.871 370.98Q240.922 371.869 242.058 373.492Q243.195 375.116 243.195 377.329Q243.195 379.32 242.349 381.072Q241.511 382.823 239.102 385.062L233.462 390.377L243.998 390.377ZM264.648 390.377L264.648 395L246.131 395L246.131 391.326L255.582 382.396Q257.086 380.969 257.607 379.935Q258.137 378.901 258.137 377.885Q258.137 376.415 257.137 375.629Q256.146 374.843 254.215 374.843Q252.608 374.843 251.309 375.458Q250.019 376.064 249.139 377.286L245.012 374.629Q246.447 372.493 248.968 371.288Q251.489 370.083 254.744 370.083Q257.47 370.083 259.521 370.98Q261.572 371.869 262.708 373.492Q263.845 375.116 263.845 377.329Q263.845 379.32 262.999 381.072Q262.161 382.823 259.752 385.062L254.112 390.377L264.648 390.377ZM273.01 383.729Q270.318 383.729 268.618 381.892Q266.926 380.055 266.926 376.979Q266.926 373.894 268.618 372.057Q270.318 370.22 273.01 370.22Q275.71 370.22 277.385 372.057Q279.068 373.894 279.068 376.979Q279.068 380.055 277.385 381.892Q275.71 383.729 273.01 383.729ZM287.605 370.502L291.775 370.502L275.044 395L270.874 395L287.605 370.502ZM273.01 380.858Q274.206 380.858 274.881 379.884Q275.565 378.901 275.565 376.979Q275.565 375.048 274.881 374.073Q274.206 373.091 273.01 373.091Q271.856 373.091 271.156 374.091Q270.455 375.082 270.455 376.979Q270.455 378.867 271.156 379.867Q271.856 380.858 273.01 380.858ZM289.638 395.282Q287.887 395.282 286.502 394.462Q285.127 393.633 284.349 392.095Q283.58 390.557 283.58 388.523Q283.58 386.498 284.349 384.96Q285.127 383.413 286.502 382.593Q287.887 381.772 289.638 381.772Q292.33 381.772 294.03 383.61Q295.731 385.447 295.731 388.523Q295.731 391.608 294.03 393.445Q292.33 395.282 289.638 395.282ZM289.638 392.411Q290.826 392.411 291.51 391.411Q292.193 390.411 292.193 388.523Q292.193 386.635 291.51 385.643Q290.826 384.644 289.638 384.644Q288.485 384.644 287.784 385.626Q287.083 386.6 287.083 388.523Q287.083 390.454 287.784 391.437Q288.485 392.411 289.638 392.411Z" fill="#FFFFFF" fill-opacity="1.000000" fill-rule="evenodd"/>
	</g>
	<path id="в 2,5 рази" d="M242.836 132.048Q245.314 132.799 245.314 135.252Q245.314 137.053 243.959 138.03Q242.61 139 239.961 139L233.162 139L233.162 125.652L239.687 125.652Q242.14 125.652 243.514 126.555Q244.887 127.452 244.887 129.1Q244.887 130.125 244.35 130.876Q243.813 131.627 242.836 132.048ZM236.135 131.224L239.412 131.224Q241.835 131.224 241.835 129.552Q241.835 127.922 239.412 127.922L236.135 127.922L236.135 131.224ZM239.711 136.723Q242.287 136.723 242.287 135.051Q242.287 134.172 241.683 133.739Q241.084 133.299 239.815 133.299L236.135 133.299L236.135 136.723L239.711 136.723ZM267.213 136.247L267.213 139L254.31 139L254.31 136.827L261.262 130.223Q262.44 129.1 262.849 128.264Q263.264 127.428 263.264 126.598Q263.264 125.377 262.434 124.73Q261.61 124.077 260.011 124.077Q257.338 124.077 255.916 125.902L253.639 124.15Q254.664 122.777 256.398 122.014Q258.137 121.251 260.286 121.251Q263.136 121.251 264.833 122.6Q266.536 123.949 266.536 126.274Q266.536 127.702 265.938 128.954Q265.339 130.199 263.636 131.798L258.961 136.247L267.213 136.247ZM271.314 135.027Q272.186 135.027 272.76 135.6Q273.34 136.174 273.34 137.102Q273.34 137.499 273.224 137.938Q273.114 138.377 272.76 139.25L271.485 142.772L269.464 142.772L270.465 138.951Q269.91 138.725 269.599 138.237Q269.287 137.749 269.287 137.102Q269.287 136.174 269.861 135.6Q270.435 135.027 271.314 135.027ZM280.911 128.276Q284.61 128.276 286.386 129.717Q288.162 131.151 288.162 133.623Q288.162 135.198 287.387 136.473Q286.612 137.749 285.061 138.5Q283.511 139.25 281.234 139.25Q279.361 139.25 277.609 138.713Q275.863 138.176 274.661 137.224L276.04 134.697Q277.011 135.503 278.372 135.967Q279.739 136.424 281.186 136.424Q282.913 136.424 283.902 135.716Q284.89 135.002 284.89 133.751Q284.89 132.402 283.822 131.712Q282.76 131.023 280.185 131.023L275.961 131.023L276.864 121.501L287.137 121.501L287.137 124.223L279.611 124.223L279.239 128.276L280.911 128.276ZM237.872 151.499Q239.825 151.499 241.363 152.354Q242.901 153.202 243.774 154.752Q244.647 156.302 244.647 158.323Q244.647 160.349 243.774 161.912Q242.901 163.474 241.363 164.329Q239.825 165.177 237.872 165.177Q235.174 165.177 233.6 163.376L233.6 169.852L230.475 169.852L230.475 151.652L233.447 151.652L233.447 153.397Q234.222 152.451 235.357 151.975Q236.499 151.499 237.872 151.499ZM237.524 162.498Q239.251 162.498 240.362 161.35Q241.473 160.203 241.473 158.323Q241.473 156.449 240.362 155.302Q239.251 154.148 237.524 154.148Q236.401 154.148 235.498 154.661Q234.601 155.173 234.076 156.125Q233.551 157.078 233.551 158.323Q233.551 159.574 234.076 160.526Q234.601 161.472 235.498 161.985Q236.401 162.498 237.524 162.498ZM252.549 151.499Q255.503 151.499 257.066 152.915Q258.628 154.325 258.628 157.175L258.628 165L255.674 165L255.674 163.376Q255.1 164.249 254.038 164.713Q252.976 165.177 251.475 165.177Q249.979 165.177 248.85 164.664Q247.727 164.152 247.111 163.242Q246.5 162.327 246.5 161.173Q246.5 159.373 247.837 158.286Q249.174 157.2 252.055 157.2L255.503 157.2L255.503 156.998Q255.503 155.601 254.661 154.85Q253.825 154.099 252.177 154.099Q251.054 154.099 249.961 154.453Q248.875 154.801 248.124 155.424L246.903 153.147Q247.953 152.347 249.424 151.926Q250.901 151.499 252.549 151.499ZM252.128 162.9Q253.3 162.9 254.209 162.363Q255.125 161.826 255.503 160.825L255.503 159.275L252.274 159.275Q249.577 159.275 249.577 161.051Q249.577 161.899 250.248 162.4Q250.925 162.9 252.128 162.9ZM270.302 158.048Q271.547 158.402 272.237 159.189Q272.926 159.977 272.926 161.075Q272.926 162.302 272.096 163.242Q271.272 164.176 269.82 164.701Q268.373 165.226 266.524 165.226Q264.974 165.226 263.496 164.866Q262.026 164.5 260.823 163.822L261.726 161.503Q262.703 162.052 263.924 162.351Q265.151 162.65 266.377 162.65Q267.952 162.65 268.837 162.162Q269.722 161.674 269.722 160.825Q269.722 160.05 269.032 159.629Q268.349 159.202 267.098 159.202L264.497 159.202L264.497 157.102L266.847 157.102Q268.025 157.102 268.684 156.705Q269.35 156.302 269.35 155.576Q269.35 154.85 268.55 154.429Q267.751 154.001 266.353 154.001Q264.351 154.001 262.123 154.978L261.324 152.677Q263.948 151.45 266.628 151.45Q268.324 151.45 269.673 151.914Q271.022 152.378 271.785 153.214Q272.548 154.05 272.548 155.125Q272.548 156.101 271.95 156.864Q271.352 157.627 270.302 158.048ZM276.175 151.652L279.3 151.652L279.3 160.453L286.673 151.652L289.523 151.652L289.523 165L286.398 165L286.398 156.199L279.049 165L276.175 165L276.175 151.652Z" fill="#096294" fill-opacity="1.000000" fill-rule="evenodd"/>
	<path id="56%" d="M363.209 24.7046Q368.388 24.7046 370.857 26.7725Q373.327 28.8318 373.327 32.301Q373.327 34.5398 372.199 36.377Q371.079 38.2141 368.789 39.3164Q366.499 40.4187 363.141 40.4187Q360.543 40.4187 358.04 39.7351Q355.545 39.0515 353.793 37.7954L356.032 33.4546Q357.433 34.5056 359.253 35.0867Q361.073 35.6592 362.996 35.6592Q365.132 35.6592 366.354 34.8218Q367.584 33.9758 367.584 32.4719Q367.584 30.8997 366.303 30.0964Q365.029 29.2932 361.876 29.2932L355.613 29.2932L356.869 15.5017L371.814 15.5017L371.814 20.0476L361.594 20.0476L361.21 24.7046L363.209 24.7046ZM387.427 24.6362Q389.777 24.6362 391.699 25.5847Q393.622 26.5247 394.741 28.2593Q395.861 29.9939 395.861 32.2668Q395.861 34.7192 394.639 36.5735Q393.417 38.4277 391.298 39.4275Q389.178 40.4187 386.589 40.4187Q381.445 40.4187 378.54 37.2742Q375.635 34.1211 375.635 28.2764Q375.635 24.1064 377.207 21.1328Q378.779 18.1592 381.599 16.6211Q384.419 15.083 388.127 15.083Q390.084 15.083 391.887 15.5188Q393.69 15.9546 394.955 16.7578L392.853 20.9277Q391.033 19.6973 388.264 19.6973Q385.154 19.6973 383.334 21.5173Q381.514 23.3374 381.368 26.8066Q383.539 24.6362 387.427 24.6362ZM386.273 36.189Q388.093 36.189 389.23 35.2063Q390.366 34.2236 390.366 32.5488Q390.366 30.8655 389.23 29.8657Q388.093 28.866 386.205 28.866Q384.351 28.866 383.154 29.8999Q381.966 30.9338 381.966 32.5488Q381.966 34.1553 383.12 35.1721Q384.274 36.189 386.273 36.189ZM402.895 28.7292Q400.203 28.7292 398.503 26.8921Q396.811 25.0549 396.811 21.9788Q396.811 18.894 398.503 17.0569Q400.203 15.2197 402.895 15.2197Q405.595 15.2197 407.27 17.0569Q408.953 18.894 408.953 21.9788Q408.953 25.0549 407.27 26.8921Q405.595 28.7292 402.895 28.7292ZM417.49 15.5017L421.66 15.5017L404.929 40L400.759 40L417.49 15.5017ZM402.895 25.8582Q404.091 25.8582 404.766 24.884Q405.45 23.9014 405.45 21.9788Q405.45 20.0476 404.766 19.0735Q404.091 18.0908 402.895 18.0908Q401.741 18.0908 401.041 19.0906Q400.34 20.0818 400.34 21.9788Q400.34 23.8672 401.041 24.8669Q401.741 25.8582 402.895 25.8582ZM419.523 40.282Q417.772 40.282 416.387 39.4617Q415.012 38.6328 414.234 37.0947Q413.465 35.5566 413.465 33.5229Q413.465 31.4978 414.234 29.9597Q415.012 28.4131 416.387 27.5928Q417.772 26.7725 419.523 26.7725Q422.215 26.7725 423.915 28.6096Q425.616 30.4468 425.616 33.5229Q425.616 36.6077 423.915 38.4448Q422.215 40.282 419.523 40.282ZM419.523 37.4109Q420.711 37.4109 421.395 36.4111Q422.078 35.4114 422.078 33.5229Q422.078 31.6345 421.395 30.6433Q420.711 29.6436 419.523 29.6436Q418.37 29.6436 417.669 30.6262Q416.968 31.6003 416.968 33.5229Q416.968 35.4541 417.669 36.4368Q418.37 37.4109 419.523 37.4109Z" fill="#737373" fill-opacity="1.000000" fill-rule="evenodd"/>
	<path id="Line 3" d="M968 514.182L108 514.182L108 511.818L968 511.818L968 514.182ZM966.328 513L960.477 507.148C960.009 506.68 960.009 505.945 960.477 505.477C960.944 505.008 961.681 505.008 962.148 505.477L968.836 512.164C969.304 512.633 969.304 513.367 968.836 513.836L962.148 520.523C961.681 520.992 960.944 520.992 960.477 520.523C960.009 520.055 960.009 519.32 960.477 518.852L966.328 513Z" fill="#000000" fill-opacity="1.000000" fill-rule="evenodd"/>
	<path id="Rectangle 29" d="M743.279 374L819.721 374C831.473 374 841 383.527 841 395.279L841 511L722 511L722 395.279C722 383.527 731.527 374 743.279 374Z" fill="url(#paint_linear_84_5312_0)" fill-opacity="1.000000" fill-rule="evenodd"/>
	<path id="Rectangle 30" d="M605 499L700 499C706.627 499 712 504.373 712 511L593 511C593 504.373 598.373 499 605 499Z" fill="url(#paint_linear_84_5313_0)" fill-opacity="1.000000" fill-rule="evenodd"/>
	<g filter="url(#filter_84_5314_dd)">
		<path id="22%" d="M635.998 482.377L635.998 487L617.481 487L617.481 483.326L626.932 474.396Q628.436 472.969 628.957 471.935Q629.487 470.901 629.487 469.885Q629.487 468.415 628.487 467.629Q627.496 466.843 625.565 466.843Q623.958 466.843 622.659 467.458Q621.369 468.064 620.489 469.286L616.362 466.629Q617.797 464.493 620.318 463.288Q622.839 462.083 626.094 462.083Q628.82 462.083 630.871 462.98Q632.922 463.869 634.058 465.492Q635.195 467.116 635.195 469.329Q635.195 471.32 634.349 473.072Q633.511 474.823 631.102 477.062L625.462 482.377L635.998 482.377ZM656.648 482.377L656.648 487L638.131 487L638.131 483.326L647.582 474.396Q649.086 472.969 649.607 471.935Q650.137 470.901 650.137 469.885Q650.137 468.415 649.137 467.629Q648.146 466.843 646.215 466.843Q644.608 466.843 643.309 467.458Q642.019 468.064 641.139 469.286L637.012 466.629Q638.447 464.493 640.968 463.288Q643.489 462.083 646.744 462.083Q649.47 462.083 651.521 462.98Q653.572 463.869 654.708 465.492Q655.845 467.116 655.845 469.329Q655.845 471.32 654.999 473.072Q654.161 474.823 651.752 477.062L646.112 482.377L656.648 482.377ZM665.01 475.729Q662.318 475.729 660.618 473.892Q658.926 472.055 658.926 468.979Q658.926 465.894 660.618 464.057Q662.318 462.22 665.01 462.22Q667.71 462.22 669.385 464.057Q671.068 465.894 671.068 468.979Q671.068 472.055 669.385 473.892Q667.71 475.729 665.01 475.729ZM679.605 462.502L683.775 462.502L667.044 487L662.874 487L679.605 462.502ZM665.01 472.858Q666.206 472.858 666.881 471.884Q667.565 470.901 667.565 468.979Q667.565 467.048 666.881 466.073Q666.206 465.091 665.01 465.091Q663.856 465.091 663.156 466.091Q662.455 467.082 662.455 468.979Q662.455 470.867 663.156 471.867Q663.856 472.858 665.01 472.858ZM681.638 487.282Q679.887 487.282 678.502 486.462Q677.127 485.633 676.349 484.095Q675.58 482.557 675.58 480.523Q675.58 478.498 676.349 476.96Q677.127 475.413 678.502 474.593Q679.887 473.772 681.638 473.772Q684.33 473.772 686.03 475.61Q687.731 477.447 687.731 480.523Q687.731 483.608 686.03 485.445Q684.33 487.282 681.638 487.282ZM681.638 484.411Q682.826 484.411 683.51 483.411Q684.193 482.411 684.193 480.523Q684.193 478.635 683.51 477.643Q682.826 476.644 681.638 476.644Q680.485 476.644 679.784 477.626Q679.083 478.6 679.083 480.523Q679.083 482.454 679.784 483.437Q680.485 484.411 681.638 484.411Z" fill="#FFFFFF" fill-opacity="1.000000" fill-rule="evenodd"/>
	</g>
	<path id="в 9 разів" d="M645.249 396.048Q647.727 396.799 647.727 399.252Q647.727 401.053 646.372 402.03Q645.023 403 642.374 403L635.575 403L635.575 389.652L642.099 389.652Q644.553 389.652 645.926 390.555Q647.299 391.452 647.299 393.1Q647.299 394.125 646.762 394.876Q646.225 395.627 645.249 396.048ZM638.547 395.224L641.825 395.224Q644.248 395.224 644.248 393.552Q644.248 391.922 641.825 391.922L638.547 391.922L638.547 395.224ZM642.124 400.723Q644.699 400.723 644.699 399.051Q644.699 398.172 644.095 397.739Q643.497 397.299 642.227 397.299L638.547 397.299L638.547 400.723L642.124 400.723ZM662.851 385.251Q666.452 385.251 668.435 387.503Q670.425 389.749 670.425 393.948Q670.425 396.903 669.351 398.99Q668.277 401.077 666.336 402.164Q664.401 403.25 661.85 403.25Q660.501 403.25 659.311 402.963Q658.127 402.677 657.248 402.127L658.45 399.674Q659.75 400.522 661.776 400.522Q664.297 400.522 665.719 398.978Q667.148 397.427 667.148 394.498L667.148 394.473Q666.372 395.377 665.17 395.841Q663.974 396.298 662.472 396.298Q660.751 396.298 659.372 395.639Q657.998 394.974 657.223 393.753Q656.448 392.526 656.448 390.927Q656.448 389.224 657.297 387.937Q658.151 386.649 659.598 385.953Q661.05 385.251 662.851 385.251ZM663.101 393.747Q664.676 393.747 665.658 392.899Q666.647 392.05 666.647 390.75Q666.647 389.475 665.683 388.638Q664.724 387.802 663.028 387.802Q661.502 387.802 660.55 388.614Q659.598 389.426 659.598 390.775Q659.598 392.148 660.55 392.948Q661.502 393.747 663.101 393.747ZM627.735 415.499Q629.688 415.499 631.226 416.354Q632.764 417.202 633.637 418.752Q634.509 420.302 634.509 422.323Q634.509 424.349 633.637 425.912Q632.764 427.474 631.226 428.329Q629.688 429.177 627.735 429.177Q625.037 429.177 623.462 427.376L623.462 433.852L620.337 433.852L620.337 415.652L623.31 415.652L623.31 417.397Q624.085 416.451 625.22 415.975Q626.361 415.499 627.735 415.499ZM627.387 426.498Q629.114 426.498 630.225 425.35Q631.336 424.203 631.336 422.323Q631.336 420.449 630.225 419.302Q629.114 418.148 627.387 418.148Q626.264 418.148 625.36 418.661Q624.463 419.173 623.938 420.125Q623.413 421.078 623.413 422.323Q623.413 423.574 623.938 424.526Q624.463 425.472 625.36 425.985Q626.264 426.498 627.387 426.498ZM642.411 415.499Q645.366 415.499 646.928 416.915Q648.491 418.325 648.491 421.175L648.491 429L645.536 429L645.536 427.376Q644.963 428.249 643.901 428.713Q642.839 429.177 641.337 429.177Q639.842 429.177 638.713 428.664Q637.59 428.152 636.973 427.242Q636.363 426.327 636.363 425.173Q636.363 423.373 637.7 422.286Q639.036 421.2 641.917 421.2L645.366 421.2L645.366 420.998Q645.366 419.601 644.523 418.85Q643.687 418.099 642.039 418.099Q640.916 418.099 639.824 418.453Q638.737 418.801 637.986 419.424L636.766 417.147Q637.816 416.347 639.286 415.926Q640.764 415.499 642.411 415.499ZM641.99 426.9Q643.162 426.9 644.072 426.363Q644.987 425.826 645.366 424.825L645.366 423.275L642.137 423.275Q639.439 423.275 639.439 425.051Q639.439 425.899 640.11 426.4Q640.788 426.9 641.99 426.9ZM660.164 422.048Q661.41 422.402 662.099 423.189Q662.789 423.977 662.789 425.075Q662.789 426.302 661.959 427.242Q661.135 428.176 659.682 428.701Q658.236 429.226 656.386 429.226Q654.836 429.226 653.359 428.866Q651.888 428.5 650.686 427.822L651.589 425.503Q652.566 426.052 653.786 426.351Q655.013 426.65 656.24 426.65Q657.815 426.65 658.7 426.162Q659.585 425.674 659.585 424.825Q659.585 424.05 658.895 423.629Q658.211 423.202 656.96 423.202L654.36 423.202L654.36 421.102L656.71 421.102Q657.888 421.102 658.547 420.705Q659.212 420.302 659.212 419.576Q659.212 418.85 658.413 418.429Q657.613 418.001 656.215 418.001Q654.214 418.001 651.986 418.978L651.186 416.677Q653.811 415.45 656.49 415.45Q658.187 415.45 659.536 415.914Q660.885 416.378 661.648 417.214Q662.411 418.05 662.411 419.125Q662.411 420.101 661.812 420.864Q661.214 421.627 660.164 422.048ZM666.037 415.652L669.162 415.652L669.162 429L666.037 429L666.037 415.652ZM667.612 413.448Q666.763 413.448 666.19 412.911Q665.616 412.374 665.616 411.574Q665.616 410.775 666.19 410.238Q666.763 409.701 667.612 409.701Q668.46 409.701 669.034 410.213Q669.614 410.726 669.614 411.501Q669.614 412.325 669.052 412.887Q668.491 413.448 667.612 413.448ZM683.061 422.048Q685.539 422.799 685.539 425.252Q685.539 427.053 684.184 428.03Q682.835 429 680.186 429L673.387 429L673.387 415.652L679.912 415.652Q682.365 415.652 683.739 416.555Q685.112 417.452 685.112 419.1Q685.112 420.125 684.575 420.876Q684.038 421.627 683.061 422.048ZM676.359 421.224L679.637 421.224Q682.06 421.224 682.06 419.552Q682.06 417.922 679.637 417.922L676.359 417.922L676.359 421.224ZM679.936 426.723Q682.512 426.723 682.512 425.051Q682.512 424.172 681.908 423.739Q681.309 423.299 680.04 423.299L676.359 423.299L676.359 426.723L679.936 426.723Z" fill="#096294" fill-opacity="1.000000" fill-rule="evenodd"/>
	<path id="18%" d="M759.235 337.502L759.235 362L753.562 362L753.562 342.048L748.665 342.048L748.665 337.502L759.235 337.502ZM780.27 349.123Q782.09 350.029 783.047 351.498Q784.013 352.968 784.013 354.899Q784.013 357.172 782.714 358.873Q781.423 360.564 779.074 361.496Q776.732 362.419 773.656 362.419Q770.571 362.419 768.239 361.496Q765.914 360.564 764.633 358.873Q763.359 357.172 763.359 354.899Q763.359 352.968 764.325 351.498Q765.291 350.029 767.076 349.123Q765.709 348.277 764.974 347.004Q764.24 345.722 764.24 344.081Q764.24 341.945 765.427 340.373Q766.615 338.792 768.751 337.938Q770.888 337.083 773.656 337.083Q776.45 337.083 778.604 337.938Q780.757 338.792 781.945 340.373Q783.141 341.945 783.141 344.081Q783.141 345.722 782.406 347.004Q781.671 348.277 780.27 349.123ZM773.656 341.244Q771.939 341.244 770.905 342.073Q769.871 342.894 769.871 344.329Q769.871 345.722 770.888 346.534Q771.904 347.337 773.656 347.337Q775.399 347.337 776.45 346.534Q777.501 345.722 777.501 344.329Q777.501 342.894 776.45 342.073Q775.399 341.244 773.656 341.244ZM773.656 358.257Q775.784 358.257 777.023 357.292Q778.27 356.326 778.27 354.72Q778.27 353.113 777.023 352.165Q775.784 351.216 773.656 351.216Q771.554 351.216 770.324 352.165Q769.102 353.113 769.102 354.72Q769.102 356.369 770.324 357.317Q771.554 358.257 773.656 358.257ZM791.92 350.729Q789.228 350.729 787.528 348.892Q785.836 347.055 785.836 343.979Q785.836 340.894 787.528 339.057Q789.228 337.22 791.92 337.22Q794.62 337.22 796.295 339.057Q797.978 340.894 797.978 343.979Q797.978 347.055 796.295 348.892Q794.62 350.729 791.92 350.729ZM806.515 337.502L810.685 337.502L793.954 362L789.784 362L806.515 337.502ZM791.92 347.858Q793.116 347.858 793.791 346.884Q794.475 345.901 794.475 343.979Q794.475 342.048 793.791 341.073Q793.116 340.091 791.92 340.091Q790.766 340.091 790.066 341.091Q789.365 342.082 789.365 343.979Q789.365 345.867 790.066 346.867Q790.766 347.858 791.92 347.858ZM808.548 362.282Q806.797 362.282 805.412 361.462Q804.037 360.633 803.259 359.095Q802.49 357.557 802.49 355.523Q802.49 353.498 803.259 351.96Q804.037 350.413 805.412 349.593Q806.797 348.772 808.548 348.772Q811.24 348.772 812.94 350.61Q814.641 352.447 814.641 355.523Q814.641 358.608 812.94 360.445Q811.24 362.282 808.548 362.282ZM808.548 359.411Q809.736 359.411 810.42 358.411Q811.103 357.411 811.103 355.523Q811.103 353.635 810.42 352.643Q809.736 351.644 808.548 351.644Q807.395 351.644 806.694 352.626Q805.993 353.6 805.993 355.523Q805.993 357.454 806.694 358.437Q807.395 359.411 808.548 359.411Z" fill="#737373" fill-opacity="1.000000" fill-rule="evenodd"/>
	<path id="Line 8" d="M107.652 429L95.8301 429" stroke="#000000" stroke-opacity="1.000000" stroke-width="1.182186" stroke-linecap="round"/>
	<path id="Line 9" d="M107.652 346L95.8301 346" stroke="#000000" stroke-opacity="1.000000" stroke-width="1.182186" stroke-linecap="round"/>
	<path id="Line 10" d="M107.652 263L95.8301 263" stroke="#000000" stroke-opacity="1.000000" stroke-width="1.182186" stroke-linecap="round"/>
	<path id="Line 11" d="M107.652 180L95.8301 180" stroke="#000000" stroke-opacity="1.000000" stroke-width="1.182186" stroke-linecap="round"/>
	<path id="Line 12" d="M107.652 97L95.8301 97" stroke="#000000" stroke-opacity="1.000000" stroke-width="1.182186" stroke-linecap="round"/>
	<path id="Захворіло грві за 2 місяці" d="M184.733 564.43Q185.867 564.791 186.504 565.59Q187.146 566.39 187.146 567.471Q187.146 568.605 186.408 569.444Q185.669 570.279 184.434 570.732Q183.204 571.18 181.745 571.18Q180.484 571.18 179.214 570.829Q177.948 570.477 176.867 569.774L177.623 568.064Q178.449 568.623 179.455 568.921Q180.466 569.216 181.455 569.216Q182.879 569.216 183.824 568.662Q184.768 568.104 184.768 567.128Q184.768 566.302 184.083 565.872Q183.402 565.437 182.193 565.437L179.262 565.437L179.262 563.604L182.013 563.604Q183.059 563.604 183.652 563.173Q184.245 562.738 184.245 562Q184.245 561.117 183.446 560.633Q182.646 560.146 181.402 560.146Q180.554 560.146 179.653 560.392Q178.757 560.633 177.966 561.099L177.227 559.209Q178.199 558.687 179.288 558.427Q180.378 558.168 181.455 558.168Q182.861 558.168 184.039 558.599Q185.217 559.029 185.92 559.833Q186.623 560.633 186.623 561.71Q186.623 562.646 186.117 563.349Q185.612 564.052 184.733 564.43ZM198.142 568.082L191.84 568.082L190.597 571L188.189 571L193.858 558.401L196.16 558.401L201.847 571L199.399 571L198.142 568.082ZM197.364 566.25L194.991 560.739L192.632 566.25L197.364 566.25ZM204.603 558.401L207.574 562.611L210.545 558.401L213.278 558.401L209.05 564.448L213.621 571L210.848 571L207.574 566.412L204.318 571L201.615 571L206.172 564.54L201.905 558.401L204.603 558.401ZM223.488 564.448Q224.692 564.773 225.32 565.555Q225.953 566.337 225.953 567.506Q225.953 569.163 224.727 570.082Q223.505 571 221.18 571L215.208 571L215.208 558.401L220.842 558.401Q222.965 558.401 224.151 559.249Q225.342 560.093 225.342 561.64Q225.342 562.628 224.863 563.349Q224.384 564.07 223.488 564.448ZM217.511 563.784L220.64 563.784Q221.778 563.784 222.371 563.336Q222.965 562.883 222.965 562Q222.965 561.117 222.371 560.66Q221.778 560.198 220.64 560.198L217.511 560.198L217.511 563.784ZM221.11 569.198Q223.593 569.198 223.593 567.326Q223.593 565.494 221.11 565.494L217.511 565.494L217.511 569.198L221.11 569.198ZM234.446 571.18Q232.521 571.18 230.974 570.345Q229.427 569.506 228.544 568.021Q227.661 566.535 227.661 564.698Q227.661 562.866 228.544 561.38Q229.427 559.895 230.974 559.06Q232.521 558.221 234.446 558.221Q236.375 558.221 237.922 559.06Q239.469 559.895 240.352 561.372Q241.235 562.848 241.235 564.698Q241.235 566.553 240.352 568.029Q239.469 569.506 237.922 570.345Q236.375 571.18 234.446 571.18ZM234.446 569.128Q235.707 569.128 236.713 568.561Q237.724 567.994 238.3 566.979Q238.875 565.959 238.875 564.698Q238.875 563.441 238.3 562.426Q237.724 561.407 236.713 560.84Q235.707 560.273 234.446 560.273Q233.189 560.273 232.178 560.84Q231.172 561.407 230.596 562.426Q230.02 563.441 230.02 564.698Q230.02 565.959 230.596 566.979Q231.172 567.994 232.178 568.561Q233.189 569.128 234.446 569.128ZM249.01 558.401Q250.645 558.401 251.857 558.941Q253.075 559.482 253.721 560.488Q254.371 561.495 254.371 562.883Q254.371 564.25 253.721 565.27Q253.075 566.285 251.857 566.825Q250.645 567.366 249.01 567.366L246.167 567.366L246.167 571L243.824 571L243.824 558.401L249.01 558.401ZM248.9 565.384Q250.429 565.384 251.22 564.738Q252.016 564.087 252.016 562.883Q252.016 561.675 251.22 561.029Q250.429 560.378 248.9 560.378L246.167 560.378L246.167 565.384L248.9 565.384ZM256.608 558.401L258.911 558.401L258.911 571L256.608 571L256.608 558.401ZM273.095 558.401L273.095 571L270.792 571L270.792 560.378L265.822 560.378L265.712 563.529Q265.624 566.175 265.281 567.823Q264.939 569.471 264.183 570.328Q263.427 571.18 262.095 571.18Q261.629 571.18 260.816 571L260.979 568.965Q261.212 569.04 261.52 569.04Q262.618 569.04 263.075 567.735Q263.537 566.43 263.642 563.622L263.822 558.401L273.095 558.401ZM282.47 571.18Q280.545 571.18 278.998 570.345Q277.451 569.506 276.568 568.021Q275.685 566.535 275.685 564.698Q275.685 562.866 276.568 561.38Q277.451 559.895 278.998 559.06Q280.545 558.221 282.47 558.221Q284.399 558.221 285.946 559.06Q287.493 559.895 288.376 561.372Q289.259 562.848 289.259 564.698Q289.259 566.553 288.376 568.029Q287.493 569.506 285.946 570.345Q284.399 571.18 282.47 571.18ZM282.47 569.128Q283.731 569.128 284.737 568.561Q285.748 567.994 286.324 566.979Q286.899 565.959 286.899 564.698Q286.899 563.441 286.324 562.426Q285.748 561.407 284.737 560.84Q283.731 560.273 282.47 560.273Q281.213 560.273 280.202 560.84Q279.196 561.407 278.62 562.426Q278.044 563.441 278.044 564.698Q278.044 565.959 278.62 566.979Q279.196 567.994 280.202 568.561Q281.213 569.128 282.47 569.128ZM305.368 560.378L299.123 560.378L299.141 571L296.838 571L296.838 558.401L305.386 558.401L305.368 560.378ZM312.532 558.401Q314.167 558.401 315.379 558.941Q316.597 559.482 317.243 560.488Q317.893 561.495 317.893 562.883Q317.893 564.25 317.243 565.27Q316.597 566.285 315.379 566.825Q314.167 567.366 312.532 567.366L309.689 567.366L309.689 571L307.346 571L307.346 558.401L312.532 558.401ZM312.422 565.384Q313.951 565.384 314.742 564.738Q315.538 564.087 315.538 562.883Q315.538 561.675 314.742 561.029Q313.951 560.378 312.422 560.378L309.689 560.378L309.689 565.384L312.422 565.384ZM328.409 564.448Q329.614 564.773 330.242 565.555Q330.875 566.337 330.875 567.506Q330.875 569.163 329.649 570.082Q328.427 571 326.102 571L320.13 571L320.13 558.401L325.764 558.401Q327.887 558.401 329.073 559.249Q330.264 560.093 330.264 561.64Q330.264 562.628 329.785 563.349Q329.306 564.07 328.409 564.448ZM322.433 563.784L325.562 563.784Q326.7 563.784 327.293 563.336Q327.887 562.883 327.887 562Q327.887 561.117 327.293 560.66Q326.7 560.198 325.562 560.198L322.433 560.198L322.433 563.784ZM326.032 569.198Q328.515 569.198 328.515 567.326Q328.515 565.494 326.032 565.494L322.433 565.494L322.433 569.198L326.032 569.198ZM333.558 558.401L335.861 558.401L335.861 571L333.558 571L333.558 558.401ZM350.999 564.43Q352.133 564.791 352.77 565.59Q353.412 566.39 353.412 567.471Q353.412 568.605 352.673 569.444Q351.935 570.279 350.7 570.732Q349.47 571.18 348.011 571.18Q346.75 571.18 345.48 570.829Q344.214 570.477 343.133 569.774L343.889 568.064Q344.715 568.623 345.721 568.921Q346.732 569.216 347.721 569.216Q349.145 569.216 350.089 568.662Q351.034 568.104 351.034 567.128Q351.034 566.302 350.349 565.872Q349.668 565.437 348.459 565.437L345.528 565.437L345.528 563.604L348.279 563.604Q349.325 563.604 349.918 563.173Q350.511 562.738 350.511 562Q350.511 561.117 349.712 560.633Q348.912 560.146 347.668 560.146Q346.82 560.146 345.919 560.392Q345.023 560.633 344.232 561.099L343.493 559.209Q344.464 558.687 345.554 558.427Q346.644 558.168 347.721 558.168Q349.127 558.168 350.305 558.599Q351.483 559.029 352.186 559.833Q352.889 560.633 352.889 561.71Q352.889 562.646 352.383 563.349Q351.878 564.052 350.999 564.43ZM364.408 568.082L358.106 568.082L356.863 571L354.455 571L360.124 558.401L362.426 558.401L368.113 571L365.665 571L364.408 568.082ZM363.63 566.25L361.257 560.739L358.897 566.25L363.63 566.25ZM383.164 569.018L383.164 571L373.874 571L373.874 569.436L378.88 564.681Q379.728 563.872 380.022 563.27Q380.321 562.668 380.321 562.07Q380.321 561.191 379.724 560.726Q379.13 560.255 377.979 560.255Q376.054 560.255 375.03 561.569L373.391 560.308Q374.129 559.319 375.377 558.77Q376.63 558.221 378.177 558.221Q380.229 558.221 381.451 559.192Q382.677 560.163 382.677 561.837Q382.677 562.866 382.246 563.767Q381.815 564.663 380.589 565.814L377.223 569.018L383.164 569.018ZM402.027 571L402.01 562.646L397.87 569.559L396.824 569.559L392.685 562.756L392.685 571L390.474 571L390.474 558.401L392.399 558.401L397.382 566.733L402.317 558.401L404.225 558.401L404.26 571L402.027 571ZM407.808 558.401L410.111 558.401L410.111 571L407.808 571L407.808 558.401ZM419.451 571.18Q417.543 571.18 416.005 570.345Q414.467 569.506 413.593 568.029Q412.718 566.553 412.718 564.698Q412.718 562.848 413.601 561.372Q414.485 559.895 416.023 559.06Q417.561 558.221 419.468 558.221Q421.015 558.221 422.294 558.761Q423.573 559.302 424.456 560.326L422.944 561.75Q421.573 560.273 419.578 560.273Q418.282 560.273 417.253 560.84Q416.229 561.407 415.654 562.417Q415.078 563.424 415.078 564.698Q415.078 565.977 415.654 566.988Q416.229 567.994 417.253 568.561Q418.282 569.128 419.578 569.128Q421.573 569.128 422.944 567.634L424.456 569.075Q423.573 570.099 422.285 570.64Q420.997 571.18 419.451 571.18ZM435.995 558.401L435.995 571L433.688 571L433.688 567.489L430.577 567.489L430.326 567.489L427.984 571L425.518 571L428.217 567.111Q426.903 566.627 426.191 565.573Q425.483 564.518 425.483 563.024Q425.483 561.587 426.129 560.545Q426.78 559.5 427.966 558.95Q429.153 558.401 430.757 558.401L435.995 558.401ZM430.827 560.378Q429.39 560.378 428.621 561.046Q427.856 561.71 427.856 562.989Q427.856 564.232 428.595 564.909Q429.333 565.582 430.739 565.582L433.688 565.582L433.688 560.378L430.827 560.378ZM452.41 569.018L452.41 573.773L450.252 573.773L450.252 571L439.56 571L439.56 558.401L441.863 558.401L441.863 569.018L448.217 569.018L448.217 558.401L450.538 558.401L450.538 569.018L452.41 569.018ZM454.572 558.401L456.875 558.401L456.875 571L454.572 571L454.572 558.401Z" fill="#000000" fill-opacity="1.000000" fill-rule="evenodd"/>
	<path id="Захворіло грві повторно" d="M601.731 564.43Q602.865 564.791 603.502 565.59Q604.144 566.39 604.144 567.471Q604.144 568.605 603.406 569.444Q602.667 570.279 601.432 570.732Q600.202 571.18 598.743 571.18Q597.482 571.18 596.212 570.829Q594.946 570.477 593.865 569.774L594.621 568.064Q595.447 568.623 596.453 568.921Q597.464 569.216 598.453 569.216Q599.877 569.216 600.822 568.662Q601.766 568.104 601.766 567.128Q601.766 566.302 601.081 565.872Q600.4 565.437 599.191 565.437L596.26 565.437L596.26 563.604L599.011 563.604Q600.057 563.604 600.65 563.173Q601.243 562.738 601.243 562Q601.243 561.117 600.444 560.633Q599.644 560.146 598.4 560.146Q597.552 560.146 596.651 560.392Q595.755 560.633 594.964 561.099L594.225 559.209Q595.197 558.687 596.286 558.427Q597.376 558.168 598.453 558.168Q599.859 558.168 601.037 558.599Q602.215 559.029 602.918 559.833Q603.621 560.633 603.621 561.71Q603.621 562.646 603.115 563.349Q602.61 564.052 601.731 564.43ZM615.14 568.082L608.839 568.082L607.595 571L605.187 571L610.856 558.401L613.158 558.401L618.845 571L616.397 571L615.14 568.082ZM614.362 566.25L611.989 560.739L609.63 566.25L614.362 566.25ZM621.601 558.401L624.572 562.611L627.543 558.401L630.276 558.401L626.048 564.448L630.619 571L627.846 571L624.572 566.412L621.316 571L618.613 571L623.17 564.54L618.903 558.401L621.601 558.401ZM640.485 564.448Q641.69 564.773 642.318 565.555Q642.951 566.337 642.951 567.506Q642.951 569.163 641.725 570.082Q640.503 571 638.178 571L632.206 571L632.206 558.401L637.84 558.401Q639.963 558.401 641.149 559.249Q642.34 560.093 642.34 561.64Q642.34 562.628 641.861 563.349Q641.382 564.07 640.485 564.448ZM634.509 563.784L637.638 563.784Q638.776 563.784 639.369 563.336Q639.963 562.883 639.963 562Q639.963 561.117 639.369 560.66Q638.776 560.198 637.638 560.198L634.509 560.198L634.509 563.784ZM638.108 569.198Q640.591 569.198 640.591 567.326Q640.591 565.494 638.108 565.494L634.509 565.494L634.509 569.198L638.108 569.198ZM651.444 571.18Q649.519 571.18 647.972 570.345Q646.425 569.506 645.542 568.021Q644.659 566.535 644.659 564.698Q644.659 562.866 645.542 561.38Q646.425 559.895 647.972 559.06Q649.519 558.221 651.444 558.221Q653.373 558.221 654.92 559.06Q656.467 559.895 657.35 561.372Q658.233 562.848 658.233 564.698Q658.233 566.553 657.35 568.029Q656.467 569.506 654.92 570.345Q653.373 571.18 651.444 571.18ZM651.444 569.128Q652.705 569.128 653.711 568.561Q654.722 567.994 655.298 566.979Q655.873 565.959 655.873 564.698Q655.873 563.441 655.298 562.426Q654.722 561.407 653.711 560.84Q652.705 560.273 651.444 560.273Q650.187 560.273 649.176 560.84Q648.17 561.407 647.594 562.426Q647.018 563.441 647.018 564.698Q647.018 565.959 647.594 566.979Q648.17 567.994 649.176 568.561Q650.187 569.128 651.444 569.128ZM666.008 558.401Q667.643 558.401 668.855 558.941Q670.073 559.482 670.719 560.488Q671.369 561.495 671.369 562.883Q671.369 564.25 670.719 565.27Q670.073 566.285 668.855 566.825Q667.643 567.366 666.008 567.366L663.164 567.366L663.164 571L660.822 571L660.822 558.401L666.008 558.401ZM665.898 565.384Q667.427 565.384 668.218 564.738Q669.014 564.087 669.014 562.883Q669.014 561.675 668.218 561.029Q667.427 560.378 665.898 560.378L663.164 560.378L663.164 565.384L665.898 565.384ZM673.606 558.401L675.909 558.401L675.909 571L673.606 571L673.606 558.401ZM690.093 558.401L690.093 571L687.79 571L687.79 560.378L682.82 560.378L682.71 563.529Q682.622 566.175 682.279 567.823Q681.937 569.471 681.181 570.328Q680.425 571.18 679.093 571.18Q678.628 571.18 677.815 571L677.977 568.965Q678.21 569.04 678.518 569.04Q679.616 569.04 680.073 567.735Q680.535 566.43 680.64 563.622L680.82 558.401L690.093 558.401ZM699.468 571.18Q697.543 571.18 695.996 570.345Q694.449 569.506 693.566 568.021Q692.683 566.535 692.683 564.698Q692.683 562.866 693.566 561.38Q694.449 559.895 695.996 559.06Q697.543 558.221 699.468 558.221Q701.397 558.221 702.944 559.06Q704.491 559.895 705.374 561.372Q706.257 562.848 706.257 564.698Q706.257 566.553 705.374 568.029Q704.491 569.506 702.944 570.345Q701.397 571.18 699.468 571.18ZM699.468 569.128Q700.729 569.128 701.735 568.561Q702.746 567.994 703.322 566.979Q703.897 565.959 703.897 564.698Q703.897 563.441 703.322 562.426Q702.746 561.407 701.735 560.84Q700.729 560.273 699.468 560.273Q698.211 560.273 697.2 560.84Q696.194 561.407 695.618 562.426Q695.042 563.441 695.042 564.698Q695.042 565.959 695.618 566.979Q696.194 567.994 697.2 568.561Q698.211 569.128 699.468 569.128ZM722.366 560.378L716.121 560.378L716.139 571L713.836 571L713.836 558.401L722.384 558.401L722.366 560.378ZM729.53 558.401Q731.165 558.401 732.377 558.941Q733.595 559.482 734.241 560.488Q734.891 561.495 734.891 562.883Q734.891 564.25 734.241 565.27Q733.595 566.285 732.377 566.825Q731.165 567.366 729.53 567.366L726.687 567.366L726.687 571L724.344 571L724.344 558.401L729.53 558.401ZM729.42 565.384Q730.949 565.384 731.74 564.738Q732.536 564.087 732.536 562.883Q732.536 561.675 731.74 561.029Q730.949 560.378 729.42 560.378L726.687 560.378L726.687 565.384L729.42 565.384ZM745.407 564.448Q746.612 564.773 747.24 565.555Q747.873 566.337 747.873 567.506Q747.873 569.163 746.647 570.082Q745.425 571 743.1 571L737.128 571L737.128 558.401L742.762 558.401Q744.885 558.401 746.071 559.249Q747.262 560.093 747.262 561.64Q747.262 562.628 746.783 563.349Q746.304 564.07 745.407 564.448ZM739.431 563.784L742.56 563.784Q743.698 563.784 744.291 563.336Q744.885 562.883 744.885 562Q744.885 561.117 744.291 560.66Q743.698 560.198 742.56 560.198L739.431 560.198L739.431 563.784ZM743.03 569.198Q745.513 569.198 745.513 567.326Q745.513 565.494 743.03 565.494L739.431 565.494L739.431 569.198L743.03 569.198ZM750.556 558.401L752.859 558.401L752.859 571L750.556 571L750.556 558.401ZM772.532 558.401L772.532 571L770.23 571L770.23 560.378L763.695 560.378L763.695 571L761.392 571L761.392 558.401L772.532 558.401ZM781.908 571.18Q779.983 571.18 778.436 570.345Q776.889 569.506 776.006 568.021Q775.123 566.535 775.123 564.698Q775.123 562.866 776.006 561.38Q776.889 559.895 778.436 559.06Q779.983 558.221 781.908 558.221Q783.837 558.221 785.384 559.06Q786.931 559.895 787.814 561.372Q788.697 562.848 788.697 564.698Q788.697 566.553 787.814 568.029Q786.931 569.506 785.384 570.345Q783.837 571.18 781.908 571.18ZM781.908 569.128Q783.169 569.128 784.175 568.561Q785.186 567.994 785.762 566.979Q786.337 565.959 786.337 564.698Q786.337 563.441 785.762 562.426Q785.186 561.407 784.175 560.84Q783.169 560.273 781.908 560.273Q780.651 560.273 779.64 560.84Q778.634 561.407 778.058 562.426Q777.482 563.441 777.482 564.698Q777.482 565.959 778.058 566.979Q778.634 567.994 779.64 568.561Q780.651 569.128 781.908 569.128ZM799.587 564.448Q800.792 564.773 801.42 565.555Q802.053 566.337 802.053 567.506Q802.053 569.163 800.827 570.082Q799.605 571 797.28 571L791.308 571L791.308 558.401L796.942 558.401Q799.065 558.401 800.251 559.249Q801.442 560.093 801.442 561.64Q801.442 562.628 800.963 563.349Q800.484 564.07 799.587 564.448ZM793.611 563.784L796.74 563.784Q797.878 563.784 798.471 563.336Q799.065 562.883 799.065 562Q799.065 561.117 798.471 560.66Q797.878 560.198 796.74 560.198L793.611 560.198L793.611 563.784ZM797.21 569.198Q799.693 569.198 799.693 567.326Q799.693 565.494 797.21 565.494L793.611 565.494L793.611 569.198L797.21 569.198ZM813.679 560.378L809.504 560.378L809.504 571L807.184 571L807.184 560.378L803.022 560.378L803.022 558.401L813.679 558.401L813.679 560.378ZM821.346 571.18Q819.421 571.18 817.874 570.345Q816.327 569.506 815.444 568.021Q814.561 566.535 814.561 564.698Q814.561 562.866 815.444 561.38Q816.327 559.895 817.874 559.06Q819.421 558.221 821.346 558.221Q823.275 558.221 824.822 559.06Q826.369 559.895 827.252 561.372Q828.135 562.848 828.135 564.698Q828.135 566.553 827.252 568.029Q826.369 569.506 824.822 570.345Q823.275 571.18 821.346 571.18ZM821.346 569.128Q822.607 569.128 823.613 568.561Q824.624 567.994 825.2 566.979Q825.775 565.959 825.775 564.698Q825.775 563.441 825.2 562.426Q824.624 561.407 823.613 560.84Q822.607 560.273 821.346 560.273Q820.089 560.273 819.078 560.84Q818.072 561.407 817.496 562.426Q816.92 563.441 816.92 564.698Q816.92 565.959 817.496 566.979Q818.072 567.994 819.078 568.561Q820.089 569.128 821.346 569.128ZM835.91 558.401Q837.544 558.401 838.757 558.941Q839.975 559.482 840.621 560.488Q841.271 561.495 841.271 562.883Q841.271 564.25 840.621 565.27Q839.975 566.285 838.757 566.825Q837.544 567.366 835.91 567.366L833.066 567.366L833.066 571L830.724 571L830.724 558.401L835.91 558.401ZM835.8 565.384Q837.329 565.384 838.12 564.738Q838.916 564.087 838.916 562.883Q838.916 561.675 838.12 561.029Q837.329 560.378 835.8 560.378L833.066 560.378L833.066 565.384L835.8 565.384ZM854.683 558.401L854.683 571L852.341 571L852.341 565.599L845.828 565.599L845.828 571L843.486 571L843.486 558.401L845.828 558.401L845.828 563.604L852.341 563.604L852.341 558.401L854.683 558.401ZM864.042 571.18Q862.117 571.18 860.57 570.345Q859.023 569.506 858.14 568.021Q857.257 566.535 857.257 564.698Q857.257 562.866 858.14 561.38Q859.023 559.895 860.57 559.06Q862.117 558.221 864.042 558.221Q865.971 558.221 867.518 559.06Q869.065 559.895 869.948 561.372Q870.831 562.848 870.831 564.698Q870.831 566.553 869.948 568.029Q869.065 569.506 867.518 570.345Q865.971 571.18 864.042 571.18ZM864.042 569.128Q865.303 569.128 866.309 568.561Q867.32 567.994 867.896 566.979Q868.471 565.959 868.471 564.698Q868.471 563.441 867.896 562.426Q867.32 561.407 866.309 560.84Q865.303 560.273 864.042 560.273Q862.785 560.273 861.774 560.84Q860.768 561.407 860.192 562.426Q859.616 563.441 859.616 564.698Q859.616 565.959 860.192 566.979Q860.768 567.994 861.774 568.561Q862.785 569.128 864.042 569.128Z" fill="#000000" fill-opacity="1.000000" fill-rule="evenodd"/>
	<path id="10%" d="M65.6243 421.76L65.6243 435L64.262 435L64.262 422.97L61.1403 422.97L61.1403 421.76L65.6243 421.76ZM74.0597 435.115Q72.5265 435.115 71.3259 434.303Q70.1252 433.485 69.451 431.966Q68.7814 430.442 68.7814 428.378Q68.7814 426.318 69.451 424.794Q70.1252 423.271 71.3259 422.458Q72.5265 421.645 74.0597 421.645Q75.5928 421.645 76.7935 422.458Q77.9941 423.271 78.673 424.794Q79.3564 426.318 79.3564 428.378Q79.3564 430.442 78.673 431.966Q77.9941 433.485 76.7935 434.303Q75.5928 435.115 74.0597 435.115ZM74.0597 433.864Q75.2141 433.864 76.0915 433.222Q76.9736 432.58 77.4631 431.352Q77.9572 430.119 77.9572 428.378Q77.9572 426.642 77.4631 425.413Q76.9736 424.18 76.0915 423.538Q75.2141 422.896 74.0597 422.896Q72.9052 422.896 72.0232 423.538Q71.1458 424.18 70.6516 425.413Q70.1621 426.642 70.1621 428.378Q70.1621 430.119 70.6516 431.352Q71.1458 432.58 72.0232 433.222Q72.9052 433.864 74.0597 433.864ZM84.1016 428.854Q82.7577 428.854 81.9358 427.861Q81.1138 426.868 81.1138 425.261Q81.1138 423.649 81.9358 422.656Q82.7577 421.663 84.1016 421.663Q85.4269 421.663 86.2581 422.647Q87.0893 423.631 87.0893 425.261Q87.0893 426.886 86.2581 427.87Q85.4269 428.854 84.1016 428.854ZM92.1229 421.76L93.2404 421.76L84.1985 435L83.081 435L92.1229 421.76ZM84.1016 427.999Q85.0298 427.999 85.5885 427.274Q86.1473 426.545 86.1473 425.261Q86.1473 423.972 85.5885 423.247Q85.0298 422.518 84.1016 422.518Q83.1549 422.518 82.6053 423.257Q82.0604 423.991 82.0604 425.261Q82.0604 426.526 82.6053 427.265Q83.1549 427.999 84.1016 427.999ZM92.2152 435.092Q90.8945 435.092 90.0587 434.1Q89.2274 433.107 89.2274 431.5Q89.2274 429.893 90.0587 428.9Q90.8945 427.907 92.2152 427.907Q93.559 427.907 94.381 428.9Q95.2076 429.893 95.2076 431.5Q95.2076 433.107 94.381 434.1Q93.559 435.092 92.2152 435.092ZM92.2152 434.243Q93.1619 434.243 93.7114 433.508Q94.261 432.77 94.261 431.5Q94.261 430.234 93.7114 429.495Q93.1619 428.757 92.2152 428.757Q91.2916 428.757 90.7329 429.486Q90.1741 430.216 90.1741 431.5Q90.1741 432.788 90.7329 433.518Q91.2916 434.243 92.2152 434.243Z" fill="#000000" fill-opacity="1.000000" fill-rule="evenodd"/>
	<path id="20%" d="M67.1552 350.79L67.1552 352L57.8686 352L57.8686 351.035L63.3731 345.646Q64.4122 344.625 64.7816 343.877Q65.151 343.129 65.151 342.372Q65.151 341.199 64.3475 340.548Q63.544 339.896 62.0478 339.896Q59.7204 339.896 58.4366 341.37L57.4714 340.538Q58.2472 339.629 59.4479 339.139Q60.6486 338.645 62.1632 338.645Q64.1859 338.645 65.3681 339.601Q66.5503 340.557 66.5503 342.219Q66.5503 343.244 66.0931 344.191Q65.6405 345.133 64.3752 346.362L59.8728 350.79L67.1552 350.79ZM74.0597 352.115Q72.5265 352.115 71.3259 351.303Q70.1252 350.485 69.451 348.966Q68.7814 347.442 68.7814 345.378Q68.7814 343.318 69.451 341.794Q70.1252 340.271 71.3259 339.458Q72.5265 338.645 74.0597 338.645Q75.5928 338.645 76.7935 339.458Q77.9941 340.271 78.673 341.794Q79.3564 343.318 79.3564 345.378Q79.3564 347.442 78.673 348.966Q77.9941 350.485 76.7935 351.303Q75.5928 352.115 74.0597 352.115ZM74.0597 350.864Q75.2141 350.864 76.0915 350.222Q76.9736 349.58 77.4631 348.352Q77.9572 347.119 77.9572 345.378Q77.9572 343.642 77.4631 342.413Q76.9736 341.18 76.0915 340.538Q75.2141 339.896 74.0597 339.896Q72.9052 339.896 72.0232 340.538Q71.1458 341.18 70.6516 342.413Q70.1621 343.642 70.1621 345.378Q70.1621 347.119 70.6516 348.352Q71.1458 349.58 72.0232 350.222Q72.9052 350.864 74.0597 350.864ZM84.1016 345.854Q82.7577 345.854 81.9358 344.861Q81.1138 343.868 81.1138 342.261Q81.1138 340.649 81.9358 339.656Q82.7577 338.663 84.1016 338.663Q85.4269 338.663 86.2581 339.647Q87.0893 340.631 87.0893 342.261Q87.0893 343.886 86.2581 344.87Q85.4269 345.854 84.1016 345.854ZM92.1229 338.76L93.2404 338.76L84.1985 352L83.081 352L92.1229 338.76ZM84.1016 344.999Q85.0298 344.999 85.5885 344.274Q86.1473 343.545 86.1473 342.261Q86.1473 340.972 85.5885 340.247Q85.0298 339.518 84.1016 339.518Q83.1549 339.518 82.6053 340.257Q82.0604 340.991 82.0604 342.261Q82.0604 343.526 82.6053 344.265Q83.1549 344.999 84.1016 344.999ZM92.2152 352.092Q90.8945 352.092 90.0587 351.1Q89.2274 350.107 89.2274 348.5Q89.2274 346.893 90.0587 345.9Q90.8945 344.907 92.2152 344.907Q93.559 344.907 94.381 345.9Q95.2076 346.893 95.2076 348.5Q95.2076 350.107 94.381 351.1Q93.559 352.092 92.2152 352.092ZM92.2152 351.243Q93.1619 351.243 93.7114 350.508Q94.261 349.77 94.261 348.5Q94.261 347.234 93.7114 346.495Q93.1619 345.757 92.2152 345.757Q91.2916 345.757 90.7329 346.486Q90.1741 347.216 90.1741 348.5Q90.1741 349.788 90.7329 350.518Q91.2916 351.243 92.2152 351.243Z" fill="#000000" fill-opacity="1.000000" fill-rule="evenodd"/>
	<path id="30%" d="M62.6158 261.436Q64.6939 261.547 65.7791 262.558Q66.8689 263.569 66.8689 265.199Q66.8689 266.331 66.3194 267.213Q65.7745 268.09 64.6939 268.603Q63.6179 269.115 62.0663 269.115Q60.6301 269.115 59.3509 268.654Q58.0764 268.187 57.3006 267.411L57.9609 266.331Q58.6259 267.014 59.7204 267.439Q60.8194 267.864 62.0663 267.864Q63.6918 267.864 64.5784 267.157Q65.4697 266.446 65.4697 265.199Q65.4697 263.966 64.5784 263.269Q63.6918 262.567 61.8954 262.567L60.9487 262.567L60.9487 261.565L64.62 256.97L57.8501 256.97L57.8501 255.76L66.3609 255.76L66.3609 256.726L62.6158 261.436ZM74.0597 269.115Q72.5265 269.115 71.3259 268.303Q70.1252 267.485 69.451 265.966Q68.7814 264.442 68.7814 262.378Q68.7814 260.318 69.451 258.794Q70.1252 257.271 71.3259 256.458Q72.5265 255.645 74.0597 255.645Q75.5928 255.645 76.7935 256.458Q77.9941 257.271 78.673 258.794Q79.3564 260.318 79.3564 262.378Q79.3564 264.442 78.673 265.966Q77.9941 267.485 76.7935 268.303Q75.5928 269.115 74.0597 269.115ZM74.0597 267.864Q75.2141 267.864 76.0915 267.222Q76.9736 266.58 77.4631 265.352Q77.9572 264.119 77.9572 262.378Q77.9572 260.642 77.4631 259.413Q76.9736 258.18 76.0915 257.538Q75.2141 256.896 74.0597 256.896Q72.9052 256.896 72.0232 257.538Q71.1458 258.18 70.6516 259.413Q70.1621 260.642 70.1621 262.378Q70.1621 264.119 70.6516 265.352Q71.1458 266.58 72.0232 267.222Q72.9052 267.864 74.0597 267.864ZM84.1016 262.854Q82.7577 262.854 81.9358 261.861Q81.1138 260.868 81.1138 259.261Q81.1138 257.649 81.9358 256.656Q82.7577 255.663 84.1016 255.663Q85.4269 255.663 86.2581 256.647Q87.0893 257.631 87.0893 259.261Q87.0893 260.886 86.2581 261.87Q85.4269 262.854 84.1016 262.854ZM92.1229 255.76L93.2404 255.76L84.1985 269L83.081 269L92.1229 255.76ZM84.1016 261.999Q85.0298 261.999 85.5885 261.274Q86.1473 260.545 86.1473 259.261Q86.1473 257.972 85.5885 257.247Q85.0298 256.518 84.1016 256.518Q83.1549 256.518 82.6053 257.257Q82.0604 257.991 82.0604 259.261Q82.0604 260.526 82.6053 261.265Q83.1549 261.999 84.1016 261.999ZM92.2152 269.092Q90.8945 269.092 90.0587 268.1Q89.2274 267.107 89.2274 265.5Q89.2274 263.893 90.0587 262.9Q90.8945 261.907 92.2152 261.907Q93.559 261.907 94.381 262.9Q95.2076 263.893 95.2076 265.5Q95.2076 267.107 94.381 268.1Q93.559 269.092 92.2152 269.092ZM92.2152 268.243Q93.1619 268.243 93.7114 267.508Q94.261 266.77 94.261 265.5Q94.261 264.234 93.7114 263.495Q93.1619 262.757 92.2152 262.757Q91.2916 262.757 90.7329 263.486Q90.1741 264.216 90.1741 265.5Q90.1741 266.788 90.7329 267.518Q91.2916 268.243 92.2152 268.243Z" fill="#000000" fill-opacity="1.000000" fill-rule="evenodd"/>
	<path id="40%" d="M67.5324 182.518L64.8864 182.518L64.8864 186L63.5241 186L63.5241 182.518L56.0523 182.518L56.0523 181.534L63.0669 172.76L64.5816 172.76L57.8117 181.308L63.561 181.308L63.561 178.247L64.8864 178.247L64.8864 181.308L67.5324 181.308L67.5324 182.518ZM74.0597 186.115Q72.5265 186.115 71.3259 185.303Q70.1252 184.485 69.451 182.966Q68.7814 181.442 68.7814 179.378Q68.7814 177.318 69.451 175.794Q70.1252 174.27 71.3259 173.458Q72.5265 172.645 74.0597 172.645Q75.5928 172.645 76.7935 173.458Q77.9941 174.27 78.673 175.794Q79.3564 177.318 79.3564 179.378Q79.3564 181.442 78.673 182.966Q77.9941 184.485 76.7935 185.303Q75.5928 186.115 74.0597 186.115ZM74.0597 184.864Q75.2141 184.864 76.0915 184.222Q76.9736 183.58 77.4631 182.352Q77.9572 181.119 77.9572 179.378Q77.9572 177.642 77.4631 176.413Q76.9736 175.18 76.0915 174.538Q75.2141 173.896 74.0597 173.896Q72.9052 173.896 72.0232 174.538Q71.1458 175.18 70.6516 176.413Q70.1621 177.642 70.1621 179.378Q70.1621 181.119 70.6516 182.352Q71.1458 183.58 72.0232 184.222Q72.9052 184.864 74.0597 184.864ZM84.1015 179.854Q82.7577 179.854 81.9357 178.861Q81.1138 177.868 81.1138 176.261Q81.1138 174.649 81.9357 173.656Q82.7577 172.663 84.1015 172.663Q85.4269 172.663 86.2581 173.647Q87.0893 174.631 87.0893 176.261Q87.0893 177.886 86.2581 178.87Q85.4269 179.854 84.1015 179.854ZM92.1229 172.76L93.2404 172.76L84.1985 186L83.081 186L92.1229 172.76ZM84.1015 178.999Q85.0298 178.999 85.5885 178.274Q86.1473 177.545 86.1473 176.261Q86.1473 174.972 85.5885 174.247Q85.0298 173.518 84.1015 173.518Q83.1549 173.518 82.6053 174.257Q82.0604 174.991 82.0604 176.261Q82.0604 177.526 82.6053 178.265Q83.1549 178.999 84.1015 178.999ZM92.2152 186.092Q90.8945 186.092 90.0587 185.1Q89.2274 184.107 89.2274 182.5Q89.2274 180.893 90.0587 179.9Q90.8945 178.907 92.2152 178.907Q93.559 178.907 94.381 179.9Q95.2076 180.893 95.2076 182.5Q95.2076 184.107 94.381 185.1Q93.559 186.092 92.2152 186.092ZM92.2152 185.243Q93.1619 185.243 93.7114 184.508Q94.261 183.77 94.261 182.5Q94.261 181.234 93.7114 180.495Q93.1619 179.757 92.2152 179.757Q91.2916 179.757 90.7329 180.486Q90.1741 181.216 90.1741 182.5Q90.1741 183.788 90.7329 184.518Q91.2916 185.243 92.2152 185.243Z" fill="#000000" fill-opacity="1.000000" fill-rule="evenodd"/>
	<path id="50%" d="M61.5574 95.1865Q64.4297 95.1865 65.7459 96.2209Q67.062 97.2507 67.062 99.1025Q67.062 100.257 66.5217 101.167Q65.9814 102.072 64.9008 102.594Q63.8248 103.115 62.2547 103.115Q60.837 103.115 59.5578 102.654Q58.2833 102.187 57.5075 101.411L58.1679 100.331Q58.8328 101.014 59.9088 101.439Q60.9894 101.864 62.2362 101.864Q63.8802 101.864 64.7807 101.13Q65.6812 100.391 65.6812 99.1625Q65.6812 97.8002 64.6653 97.0983Q63.6539 96.3964 61.2526 96.3964L58.4357 96.3964L59.1145 89.7604L66.36 89.7604L66.36 90.9703L60.306 90.9703L59.8534 95.1865L61.5574 95.1865ZM74.0597 103.115Q72.5265 103.115 71.3259 102.303Q70.1252 101.485 69.451 99.966Q68.7814 98.4421 68.7814 96.3779Q68.7814 94.3183 69.451 92.7944Q70.1252 91.2705 71.3259 90.4577Q72.5265 89.645 74.0597 89.645Q75.5928 89.645 76.7935 90.4577Q77.9941 91.2705 78.673 92.7944Q79.3564 94.3183 79.3564 96.3779Q79.3564 98.4421 78.673 99.966Q77.9941 101.485 76.7935 102.303Q75.5928 103.115 74.0597 103.115ZM74.0597 101.864Q75.2141 101.864 76.0915 101.222Q76.9736 100.58 77.4631 99.3518Q77.9572 98.1189 77.9572 96.3779Q77.9572 94.6416 77.4631 93.4132Q76.9736 92.1802 76.0915 91.5383Q75.2141 90.8964 74.0597 90.8964Q72.9052 90.8964 72.0232 91.5383Q71.1458 92.1802 70.6516 93.4132Q70.1621 94.6416 70.1621 96.3779Q70.1621 98.1189 70.6516 99.3518Q71.1458 100.58 72.0232 101.222Q72.9052 101.864 74.0597 101.864ZM84.1016 96.8536Q82.7577 96.8536 81.9358 95.8607Q81.1138 94.8679 81.1138 93.2608Q81.1138 91.6492 81.9358 90.6563Q82.7577 89.6635 84.1016 89.6635Q85.4269 89.6635 86.2581 90.6471Q87.0893 91.6307 87.0893 93.2608Q87.0893 94.8863 86.2581 95.8699Q85.4269 96.8536 84.1016 96.8536ZM92.1229 89.7604L93.2404 89.7604L84.1985 103L83.081 103L92.1229 89.7604ZM84.1016 95.9992Q85.0298 95.9992 85.5885 95.2742Q86.1473 94.5446 86.1473 93.2608Q86.1473 91.9724 85.5885 91.2474Q85.0298 90.5178 84.1016 90.5178Q83.1549 90.5178 82.6053 91.2566Q82.0604 91.9909 82.0604 93.2608Q82.0604 94.5261 82.6053 95.265Q83.1549 95.9992 84.1016 95.9992ZM92.2152 103.092Q90.8945 103.092 90.0587 102.1Q89.2274 101.107 89.2274 99.4996Q89.2274 97.8926 90.0587 96.8997Q90.8945 95.9069 92.2152 95.9069Q93.559 95.9069 94.381 96.8997Q95.2076 97.8926 95.2076 99.4996Q95.2076 101.107 94.381 102.1Q93.559 103.092 92.2152 103.092ZM92.2152 102.243Q93.1619 102.243 93.7114 101.508Q94.261 100.77 94.261 99.4996Q94.261 98.2343 93.7114 97.4954Q93.1619 96.7566 92.2152 96.7566Q91.2916 96.7566 90.7329 97.4862Q90.1741 98.2158 90.1741 99.4996Q90.1741 100.788 90.7329 101.518Q91.2916 102.243 92.2152 102.243Z" fill="#000000" fill-opacity="1.000000" fill-rule="evenodd"/>
	<path id="60%" d="M62.7482 12.0757Q64.0505 12.0757 65.0618 12.5698Q66.0778 13.0593 66.6411 13.9598Q67.2091 14.8556 67.2091 16.0471Q67.2091 17.257 66.6227 18.1852Q66.0408 19.1087 65.0064 19.6121Q63.9766 20.1154 62.6928 20.1154Q60.0606 20.1154 58.6614 18.3837Q57.2622 16.652 57.2622 13.4934Q57.2622 11.2814 58.0195 9.74823Q58.7768 8.21508 60.1345 7.43004Q61.4968 6.64499 63.3162 6.64499Q65.2835 6.64499 66.4564 7.36538L65.9069 8.45983Q64.9602 7.83641 63.3347 7.83641Q61.1412 7.83641 59.8898 9.2264Q58.6429 10.6164 58.6429 13.2671Q58.6429 13.7381 58.6983 14.3431Q59.1924 13.2671 60.2684 12.6714Q61.349 12.0757 62.7482 12.0757ZM62.6328 18.961Q64.0736 18.961 64.9695 18.1759Q65.8699 17.3909 65.8699 16.084Q65.8699 14.7818 64.9695 14.0059Q64.0736 13.2301 62.5404 13.2301Q61.5383 13.2301 60.7718 13.6088Q60.0052 13.9829 59.5665 14.6478Q59.1324 15.3082 59.1324 16.121Q59.1324 16.8783 59.5388 17.5248Q59.9498 18.1667 60.7441 18.5638Q61.5383 18.961 62.6328 18.961ZM74.0597 20.1154Q72.5265 20.1154 71.3259 19.3027Q70.1252 18.4853 69.451 16.966Q68.7814 15.4421 68.7814 13.3779Q68.7814 11.3183 69.451 9.79441Q70.1252 8.2705 71.3259 7.45774Q72.5265 6.64499 74.0597 6.64499Q75.5928 6.64499 76.7935 7.45774Q77.9941 8.2705 78.673 9.79441Q79.3564 11.3183 79.3564 13.3779Q79.3564 15.4421 78.673 16.966Q77.9941 18.4853 76.7935 19.3027Q75.5928 20.1154 74.0597 20.1154ZM74.0597 18.864Q75.2141 18.864 76.0915 18.2221Q76.9736 17.5802 77.4631 16.3518Q77.9572 15.1189 77.9572 13.3779Q77.9572 11.6416 77.4631 10.4132Q76.9736 9.18023 76.0915 8.53833Q75.2141 7.89644 74.0597 7.89644Q72.9052 7.89644 72.0232 8.53833Q71.1458 9.18023 70.6516 10.4132Q70.1621 11.6416 70.1621 13.3779Q70.1621 15.1189 70.6516 16.3518Q71.1458 17.5802 72.0232 18.2221Q72.9052 18.864 74.0597 18.864ZM84.1016 13.8536Q82.7577 13.8536 81.9358 12.8607Q81.1138 11.8679 81.1138 10.2608Q81.1138 8.64917 81.9358 7.65631Q82.7577 6.66346 84.1016 6.66346Q85.4269 6.66346 86.2581 7.64708Q87.0893 8.63069 87.0893 10.2608Q87.0893 11.8863 86.2581 12.8699Q85.4269 13.8536 84.1016 13.8536ZM92.1229 6.76044L93.2404 6.76044L84.1985 20L83.081 20L92.1229 6.76044ZM84.1016 12.9992Q85.0298 12.9992 85.5885 12.2742Q86.1473 11.5446 86.1473 10.2608Q86.1473 8.97242 85.5885 8.24741Q85.0298 7.51778 84.1016 7.51778Q83.1549 7.51778 82.6053 8.25664Q82.0604 8.99089 82.0604 10.2608Q82.0604 11.5261 82.6053 12.265Q83.1549 12.9992 84.1016 12.9992ZM92.2152 20.0924Q90.8945 20.0924 90.0587 19.0995Q89.2274 18.1067 89.2274 16.4996Q89.2274 14.8926 90.0587 13.8997Q90.8945 12.9069 92.2152 12.9069Q93.559 12.9069 94.381 13.8997Q95.2076 14.8926 95.2076 16.4996Q95.2076 18.1067 94.381 19.0995Q93.559 20.0924 92.2152 20.0924ZM92.2152 19.2427Q93.1619 19.2427 93.7114 18.5084Q94.261 17.7695 94.261 16.4996Q94.261 15.2343 93.7114 14.4954Q93.1619 13.7566 92.2152 13.7566Q91.2916 13.7566 90.7329 14.4862Q90.1741 15.2158 90.1741 16.4996Q90.1741 17.788 90.7329 18.5176Q91.2916 19.2427 92.2152 19.2427Z" fill="#000000" fill-opacity="1.000000" fill-rule="evenodd"/>
	<path id="0" d="M84.7402 518.115Q83.207 518.115 82.0064 517.303Q80.8057 516.485 80.1315 514.966Q79.4619 513.442 79.4619 511.378Q79.4619 509.318 80.1315 507.794Q80.8057 506.271 82.0064 505.458Q83.207 504.645 84.7402 504.645Q86.2733 504.645 87.474 505.458Q88.6746 506.271 89.3535 507.794Q90.0369 509.318 90.0369 511.378Q90.0369 513.442 89.3535 514.966Q88.6746 516.485 87.474 517.303Q86.2733 518.115 84.7402 518.115ZM84.7402 516.864Q85.8947 516.864 86.7721 516.222Q87.6541 515.58 88.1436 514.352Q88.6377 513.119 88.6377 511.378Q88.6377 509.642 88.1436 508.413Q87.6541 507.18 86.7721 506.538Q85.8947 505.896 84.7402 505.896Q83.5857 505.896 82.7037 506.538Q81.8263 507.18 81.3322 508.413Q80.8427 509.642 80.8427 511.378Q80.8427 513.119 81.3322 514.352Q81.8263 515.58 82.7037 516.222Q83.5857 516.864 84.7402 516.864Z" fill="#000000" fill-opacity="1.000000" fill-rule="evenodd"/>
	<path id="image 9 (Traced)" d="M515.08 552.152C514.415 552.396 513.907 553.223 514.015 553.885C514.131 554.602 514.317 554.814 518.566 559.094C524.155 564.725 524.155 563.367 518.566 568.996C515.454 572.131 514.372 573.27 514.237 573.555C513.462 575.197 514.896 576.574 516.534 575.758C517.134 575.459 527.075 565.486 527.359 564.896C527.995 563.58 528.077 563.691 522.019 557.625C516.119 551.717 516.164 551.752 515.08 552.152ZM525.272 552.404C524.541 552.844 524.293 553.771 524.686 554.602C524.829 554.906 525.813 555.945 528.981 559.135C534.522 564.717 534.528 563.369 528.94 568.996C525.828 572.131 524.746 573.27 524.611 573.555C523.835 575.197 525.271 576.574 526.908 575.758C527.527 575.449 537.382 565.568 537.692 564.945C538.37 563.582 538.426 563.66 532.477 557.703C526.523 551.742 526.457 551.693 525.272 552.404Z" fill="url(#paint_linear_84_5284_0)" fill-opacity="1.000000" fill-rule="evenodd"/>
</svg>
