<svg width="1236.353027" height="655.000000" viewBox="0 0 1236.35 655" fill="none" xmlns="http://www.w3.org/2000/svg" >
	<desc>
			Created with Pixso.
	</desc>
	<defs>
		<linearGradient id="paint_linear_69_740_0" x1="201.523621" y1="-37.856911" x2="192.712387" y2="561.282349" gradientUnits="userSpaceOnUse">
			<stop stop-color="#E70E00"/>
			<stop offset="1.000000" stop-color="#FF7777"/>
		</linearGradient>
		<linearGradient id="paint_linear_70_795_0" x1="477.523071" y1="169.569931" x2="468.712341" y2="570.137329" gradientUnits="userSpaceOnUse">
			<stop stop-color="#E70E00"/>
			<stop offset="1.000000" stop-color="#FF7777"/>
		</linearGradient>
		<linearGradient id="paint_linear_70_799_0" x1="767.523071" y1="311.430817" x2="758.712341" y2="576.193359" gradientUnits="userSpaceOnUse">
			<stop stop-color="#E70E00"/>
			<stop offset="1.000000" stop-color="#FF7777"/>
		</linearGradient>
		<linearGradient id="paint_linear_70_803_0" x1="1043.524048" y1="572.502563" x2="1034.712402" y2="587.338440" gradientUnits="userSpaceOnUse">
			<stop stop-color="#E70E00"/>
			<stop offset="1.000000" stop-color="#FF7777"/>
		</linearGradient>
		<linearGradient id="paint_linear_69_743_0" x1="317.212402" y1="280.000000" x2="317.212402" y2="771.615356" gradientUnits="userSpaceOnUse">
			<stop stop-color="#BBBBBB"/>
			<stop offset="1.000000" stop-color="#BBBBBB" stop-opacity="0.000000"/>
		</linearGradient>
		<linearGradient id="paint_linear_70_796_0" x1="593.212402" y1="128.000000" x2="593.212402" y2="862.230774" gradientUnits="userSpaceOnUse">
			<stop stop-color="#BBBBBB"/>
			<stop offset="1.000000" stop-color="#BBBBBB" stop-opacity="0.000000"/>
		</linearGradient>
		<linearGradient id="paint_linear_70_800_0" x1="883.212402" y1="401.000000" x2="883.212402" y2="699.480774" gradientUnits="userSpaceOnUse">
			<stop stop-color="#BBBBBB"/>
			<stop offset="1.000000" stop-color="#BBBBBB" stop-opacity="0.000000"/>
		</linearGradient>
		<linearGradient id="paint_linear_70_804_0" x1="1159.212402" y1="440.000000" x2="1159.212402" y2="676.230774" gradientUnits="userSpaceOnUse">
			<stop stop-color="#BBBBBB"/>
			<stop offset="1.000000" stop-color="#BBBBBB" stop-opacity="0.000000"/>
		</linearGradient>
		<linearGradient id="paint_linear_69_761_0" x1="374.913940" y1="635.062500" x2="407.623230" y2="640.500000" gradientUnits="userSpaceOnUse">
			<stop stop-color="#E10920"/>
			<stop offset="1.000000" stop-color="#FF7785"/>
		</linearGradient>
		<linearGradient id="paint_linear_70_817_0" x1="660.913940" y1="635.062500" x2="693.623230" y2="640.500000" gradientUnits="userSpaceOnUse">
			<stop stop-color="#E10920"/>
			<stop offset="1.000000" stop-color="#FF7785"/>
		</linearGradient>
		<linearGradient id="paint_linear_70_818_0" x1="939.913940" y1="635.062500" x2="972.623230" y2="640.500000" gradientUnits="userSpaceOnUse">
			<stop stop-color="#E10920"/>
			<stop offset="1.000000" stop-color="#FF7785"/>
		</linearGradient>
	</defs>
	<path id="Line 2" d="M118.348 35L118.348 589L115.984 589L115.984 35L118.348 35ZM117.166 36.6719L111.314 42.5234C110.846 42.9922 110.111 42.9922 109.643 42.5234C109.174 42.0547 109.174 41.3203 109.643 40.8516L116.33 34.1641C116.798 33.6953 117.534 33.6953 118.002 34.1641L124.689 40.8516C125.158 41.3203 125.158 42.0547 124.689 42.5234C124.221 42.9922 123.486 42.9922 123.018 42.5234L117.166 36.6719Z" fill="#000000" fill-opacity="1.000000" fill-rule="evenodd"/>
	<path id="Line 3" d="M1235.17 590.057L116.818 590.057L116.818 587.693L1235.17 587.693L1235.17 590.057ZM1233.49 588.875L1227.64 583.023C1227.17 582.555 1227.17 581.82 1227.64 581.352C1228.11 580.883 1228.85 580.883 1229.31 581.352L1236 588.039C1236.47 588.508 1236.47 589.242 1236 589.711L1229.31 596.398C1228.85 596.867 1228.11 596.867 1227.64 596.398C1227.17 595.93 1227.17 595.195 1227.64 594.727L1233.49 588.875Z" fill="#000000" fill-opacity="1.000000" fill-rule="evenodd"/>
	<path id="47" d="M194.134 39.9188L189.416 39.9188L189.416 46L182.88 46L182.88 39.9188L167.283 39.9188L167.283 35.4033L180.941 17.0385L187.972 17.0385L175.314 34.4538L183.092 34.4538L183.092 29.0393L189.416 29.0393L189.416 34.4538L194.134 34.4538L194.134 39.9188ZM217.055 17.0385L217.055 21.3822L206.297 46L199.014 46L209.408 22.4934L199.802 22.4934L199.802 27.2109L193.842 27.2109L193.842 17.0385L217.055 17.0385Z" fill="#E10920" fill-opacity="1.000000" fill-rule="evenodd"/>
	<path id="33" d="M458.963 204.827Q462.772 205.453 464.792 207.666Q466.822 209.878 466.822 213.141Q466.822 215.666 465.499 217.798Q464.176 219.929 461.469 221.212Q458.761 222.495 454.832 222.495Q451.761 222.495 448.801 221.687Q445.851 220.879 443.781 219.394L446.387 214.262Q448.043 215.505 450.215 216.192Q452.387 216.868 454.66 216.868Q457.185 216.868 458.63 215.899Q460.085 214.929 460.085 213.141Q460.085 209.585 454.66 209.585L451.599 209.585L451.599 205.16L457.559 198.413L445.225 198.413L445.225 193.038L465.499 193.038L465.499 197.382L458.963 204.827ZM483.251 204.827Q487.06 205.453 489.08 207.666Q491.111 209.878 491.111 213.141Q491.111 215.666 489.787 217.798Q488.464 219.929 485.757 221.212Q483.049 222.495 479.12 222.495Q476.049 222.495 473.089 221.687Q470.139 220.879 468.069 219.394L470.675 214.262Q472.331 215.505 474.503 216.192Q476.675 216.868 478.948 216.868Q481.474 216.868 482.918 215.899Q484.373 214.929 484.373 213.141Q484.373 209.585 478.948 209.585L475.887 209.585L475.887 205.16L481.847 198.413L469.513 198.413L469.513 193.038L489.787 193.038L489.787 197.382L483.251 204.827Z" fill="#E10920" fill-opacity="1.000000" fill-rule="evenodd"/>
	<path id="21" d="M761.151 335.535L761.151 341L739.26 341L739.26 336.656L750.433 326.1Q752.211 324.413 752.827 323.191Q753.453 321.968 753.453 320.766Q753.453 319.029 752.271 318.099Q751.099 317.17 748.816 317.17Q746.917 317.17 745.382 317.897Q743.857 318.615 742.816 320.059L737.937 316.918Q739.634 314.392 742.614 312.968Q745.594 311.543 749.443 311.543Q752.665 311.543 755.09 312.604Q757.514 313.655 758.858 315.574Q760.201 317.493 760.201 320.11Q760.201 322.463 759.201 324.534Q758.211 326.605 755.362 329.252L748.695 335.535L761.151 335.535ZM775.097 312.038L775.097 341L768.39 341L768.39 317.413L762.602 317.413L762.602 312.038L775.097 312.038Z" fill="#E10920" fill-opacity="1.000000" fill-rule="evenodd"/>
	<path id="0" d="M1034.2 565.495Q1030.59 565.495 1027.77 563.717Q1024.96 561.939 1023.37 558.565Q1021.78 555.191 1021.78 550.514Q1021.78 545.847 1023.37 542.473Q1024.96 539.099 1027.77 537.321Q1030.59 535.543 1034.2 535.543Q1037.79 535.543 1040.6 537.321Q1043.42 539.099 1045.01 542.473Q1046.6 545.847 1046.6 550.514Q1046.6 555.191 1045.01 558.565Q1043.42 561.939 1040.6 563.717Q1037.79 565.495 1034.2 565.495ZM1034.2 559.828Q1036.84 559.828 1038.35 557.555Q1039.86 555.272 1039.86 550.514Q1039.86 545.756 1038.35 543.483Q1036.84 541.211 1034.2 541.211Q1031.58 541.211 1030.06 543.483Q1028.56 545.756 1028.56 550.514Q1028.56 555.272 1030.06 557.555Q1031.58 559.828 1034.2 559.828Z" fill="#E10920" fill-opacity="1.000000" fill-rule="evenodd"/>
	<path id="27" d="M317.975 260.535L317.975 266L296.085 266L296.085 261.656L307.257 251.1Q309.035 249.413 309.651 248.191Q310.278 246.968 310.278 245.766Q310.278 244.029 309.096 243.099Q307.924 242.17 305.641 242.17Q303.742 242.17 302.206 242.897Q300.681 243.615 299.641 245.059L294.761 241.918Q296.458 239.392 299.438 237.968Q302.418 236.543 306.267 236.543Q309.49 236.543 311.914 237.604Q314.338 238.655 315.682 240.574Q317.026 242.493 317.026 245.11Q317.026 247.463 316.025 249.534Q315.035 251.605 312.187 254.252L305.52 260.535L317.975 260.535ZM343.335 237.038L343.335 241.382L332.577 266L325.293 266L335.688 242.493L326.081 242.493L326.081 247.211L320.121 247.211L320.121 237.038L343.335 237.038Z" fill="#737373" fill-opacity="1.000000" fill-rule="evenodd"/>
	<path id="43" d="M597.989 109.919L593.271 109.919L593.271 116L586.735 116L586.735 109.919L571.138 109.919L571.138 105.403L584.796 87.0385L591.827 87.0385L579.169 104.454L586.948 104.454L586.948 99.0393L593.271 99.0393L593.271 104.454L597.989 104.454L597.989 109.919ZM613.217 98.8271Q617.025 99.4534 619.045 101.666Q621.076 103.878 621.076 107.141Q621.076 109.666 619.753 111.798Q618.429 113.929 615.722 115.212Q613.015 116.495 609.085 116.495Q606.014 116.495 603.055 115.687Q600.105 114.879 598.034 113.394L600.64 108.262Q602.297 109.505 604.469 110.192Q606.641 110.868 608.913 110.868Q611.439 110.868 612.883 109.899Q614.338 108.929 614.338 107.141Q614.338 103.585 608.913 103.585L605.853 103.585L605.853 99.1605L611.813 92.4126L599.478 92.4126L599.478 87.0385L619.753 87.0385L619.753 91.3822L613.217 98.8271Z" fill="#737373" fill-opacity="1.000000" fill-rule="evenodd"/>
	<path id="17" d="M877.565 358.038L877.565 387L870.857 387L870.857 363.413L865.069 363.413L865.069 358.038L877.565 358.038ZM905.28 358.038L905.28 362.382L894.522 387L887.238 387L897.633 363.493L888.026 363.493L888.026 368.211L882.066 368.211L882.066 358.038L905.28 358.038Z" fill="#737373" fill-opacity="1.000000" fill-rule="evenodd"/>
	<path id="13" d="M1154.64 395.038L1154.64 424L1147.94 424L1147.94 400.413L1142.15 400.413L1142.15 395.038L1154.64 395.038ZM1173.22 406.827Q1177.03 407.453 1179.05 409.666Q1181.08 411.878 1181.08 415.141Q1181.08 417.666 1179.75 419.798Q1178.43 421.929 1175.72 423.212Q1173.02 424.495 1169.09 424.495Q1166.01 424.495 1163.05 423.687Q1160.11 422.879 1158.03 421.394L1160.64 416.262Q1162.3 417.505 1164.47 418.192Q1166.64 418.868 1168.91 418.868Q1171.44 418.868 1172.88 417.899Q1174.34 416.929 1174.34 415.141Q1174.34 411.585 1168.91 411.585L1165.85 411.585L1165.85 407.16L1171.81 400.413L1159.48 400.413L1159.48 395.038L1179.75 395.038L1179.75 399.382L1173.22 406.827Z" fill="#737373" fill-opacity="1.000000" fill-rule="evenodd"/>
	<path id="Rectangle 24" d="M153.992 63L230.433 63C242.186 63 251.712 72.5273 251.712 84.2793L251.712 588L132.712 588L132.712 84.2793C132.712 72.5273 142.239 63 153.992 63Z" fill="url(#paint_linear_69_740_0)" fill-opacity="1.000000" fill-rule="evenodd"/>
	<path id="Rectangle 26" d="M429.992 237L506.433 237C518.186 237 527.712 246.527 527.712 258.279L527.712 588L408.712 588L408.712 258.279C408.712 246.527 418.239 237 429.992 237Z" fill="url(#paint_linear_70_795_0)" fill-opacity="1.000000" fill-rule="evenodd"/>
	<path id="Rectangle 28" d="M719.992 356L796.433 356C808.186 356 817.712 365.527 817.712 377.279L817.712 588L698.712 588L698.712 377.279C698.712 365.527 708.239 356 719.992 356Z" fill="url(#paint_linear_70_799_0)" fill-opacity="1.000000" fill-rule="evenodd"/>
	<path id="Rectangle 30" d="M987.712 575L1080.71 575C1087.89 575 1093.71 580.82 1093.71 588L974.712 588C974.712 580.82 980.533 575 987.712 575Z" fill="url(#paint_linear_70_803_0)" fill-opacity="1.000000" fill-rule="evenodd"/>
	<path id="Rectangle 25" d="M278.992 280L355.433 280C367.186 280 376.712 289.527 376.712 301.279L376.712 588L257.712 588L257.712 301.279C257.712 289.527 267.239 280 278.992 280Z" fill="url(#paint_linear_69_743_0)" fill-opacity="1.000000" fill-rule="evenodd"/>
	<path id="Rectangle 27" d="M554.992 128L631.433 128C643.186 128 652.712 137.527 652.712 149.279L652.712 588L533.712 588L533.712 149.279C533.712 137.527 543.239 128 554.992 128Z" fill="url(#paint_linear_70_796_0)" fill-opacity="1.000000" fill-rule="evenodd"/>
	<path id="Rectangle 29" d="M844.992 401L921.433 401C933.186 401 942.712 410.527 942.712 422.279L942.712 588L823.712 588L823.712 422.279C823.712 410.527 833.239 401 844.992 401Z" fill="url(#paint_linear_70_800_0)" fill-opacity="1.000000" fill-rule="evenodd"/>
	<path id="Rectangle 31" d="M1120.99 440L1197.43 440C1209.19 440 1218.71 449.527 1218.71 461.279L1218.71 588L1099.71 588L1099.71 461.279C1099.71 449.527 1109.24 440 1120.99 440Z" fill="url(#paint_linear_70_804_0)" fill-opacity="1.000000" fill-rule="evenodd"/>
	<path id="Line 9" d="M398.712 588.875L398.712 577.053" stroke="#000000" stroke-opacity="1.000000" stroke-width="1.182186" stroke-linecap="round"/>
	<path id="Line 19" d="M677.712 588.875L677.712 577.053" stroke="#000000" stroke-opacity="1.000000" stroke-width="1.182186" stroke-linecap="round"/>
	<path id="Line 20" d="M956.712 588.875L956.712 577.053" stroke="#000000" stroke-opacity="1.000000" stroke-width="1.182186" stroke-linecap="round"/>
	<path id="Line 21" d="M1235.71 588.875L1235.71 577.053" stroke="#000000" stroke-opacity="1.000000" stroke-width="1.182186" stroke-linecap="round"/>
	<path id="Line 8" d="M116.818 534L104.996 534" stroke="#000000" stroke-opacity="1.000000" stroke-width="1.182186" stroke-linecap="round"/>
	<path id="Line 11" d="M116.818 479L104.996 479" stroke="#000000" stroke-opacity="1.000000" stroke-width="1.182186" stroke-linecap="round"/>
	<path id="Line 12" d="M116.818 424L104.996 424" stroke="#000000" stroke-opacity="1.000000" stroke-width="1.182186" stroke-linecap="round"/>
	<path id="Line 13" d="M116.818 369L104.996 369" stroke="#000000" stroke-opacity="1.000000" stroke-width="1.182186" stroke-linecap="round"/>
	<path id="Line 14" d="M116.818 314L104.996 314" stroke="#000000" stroke-opacity="1.000000" stroke-width="1.182186" stroke-linecap="round"/>
	<path id="Line 15" d="M116.818 259L104.996 259" stroke="#000000" stroke-opacity="1.000000" stroke-width="1.182186" stroke-linecap="round"/>
	<path id="Line 16" d="M116.818 204L104.996 204" stroke="#000000" stroke-opacity="1.000000" stroke-width="1.182186" stroke-linecap="round"/>
	<path id="Line 17" d="M116.818 149L104.996 149" stroke="#000000" stroke-opacity="1.000000" stroke-width="1.182186" stroke-linecap="round"/>
	<path id="Line 18" d="M116.818 94L104.996 94" stroke="#000000" stroke-opacity="1.000000" stroke-width="1.182186" stroke-linecap="round"/>
	<path id="0 балів" d="M251.427 650.276Q249.414 650.276 247.84 649.284Q246.272 648.291 245.381 646.407Q244.495 644.523 244.495 641.912Q244.495 639.306 245.381 637.422Q246.272 635.538 247.84 634.545Q249.414 633.552 251.427 633.552Q253.435 633.552 255.003 634.545Q256.577 635.538 257.463 637.422Q258.354 639.306 258.354 641.912Q258.354 644.523 257.463 646.407Q256.577 648.291 255.003 649.284Q253.435 650.276 251.427 650.276ZM251.427 647.112Q252.905 647.112 253.745 645.843Q254.592 644.568 254.592 641.912Q254.592 639.255 253.745 637.986Q252.905 636.717 251.427 636.717Q249.966 636.717 249.12 637.986Q248.28 639.255 248.28 641.912Q248.28 644.568 249.12 645.843Q249.966 647.112 251.427 647.112ZM267.826 633.829L280.884 633.829L280.884 636.807L271.549 636.807L271.549 640.135L276.027 640.135Q278.966 640.135 280.5 641.359Q282.034 642.583 282.034 644.895Q282.034 647.321 280.325 648.663Q278.616 650 275.497 650L267.826 650L267.826 633.829ZM275.288 647.225Q276.721 647.225 277.483 646.661Q278.25 646.097 278.25 645.008Q278.25 642.882 275.288 642.882L271.549 642.882L271.549 647.225L275.288 647.225ZM295.692 646.537L288.184 646.537L286.751 650L282.916 650L290.125 633.829L293.819 633.829L301.05 650L297.124 650L295.692 646.537ZM294.513 643.694L291.952 637.501L289.386 643.694L294.513 643.694ZM317.753 633.829L317.753 650L314.059 650L314.059 636.875L308.514 636.875L308.396 640.248Q308.283 643.694 307.843 645.832Q307.403 647.969 306.376 649.114Q305.35 650.254 303.5 650.254Q302.738 650.254 301.65 650L301.881 646.836Q302.185 646.926 302.552 646.926Q303.895 646.926 304.425 645.347Q304.955 643.762 305.096 640.389L305.327 633.829L317.753 633.829ZM321.796 633.829L325.518 633.829L325.518 650L321.796 650L321.796 633.829ZM340.743 641.567Q342.221 642.007 343.005 643Q343.795 643.993 343.795 645.448Q343.795 647.597 342.164 648.799Q340.534 650 337.505 650L329.535 650L329.535 633.829L337.071 633.829Q339.886 633.829 341.454 634.917Q343.027 636 343.027 638.008Q343.027 639.21 342.424 640.123Q341.826 641.037 340.743 641.567ZM333.258 640.53L336.744 640.53Q337.968 640.53 338.594 640.033Q339.22 639.537 339.22 638.561Q339.22 637.619 338.583 637.111Q337.945 636.598 336.744 636.598L333.258 636.598L333.258 640.53ZM337.37 647.225Q340.004 647.225 340.004 645.149Q340.004 643.135 337.37 643.135L333.258 643.135L333.258 647.225L337.37 647.225Z" fill="#000000" fill-opacity="1.000000" fill-rule="evenodd"/>
	<path id="1 бал" d="M506.071 633.829L506.071 650L502.326 650L502.326 636.829L499.094 636.829L499.094 633.829L506.071 633.829ZM516.533 633.829L529.591 633.829L529.591 636.807L520.256 636.807L520.256 640.135L524.734 640.135Q527.673 640.135 529.207 641.359Q530.741 642.583 530.741 644.895Q530.741 647.321 529.032 648.663Q527.323 650 524.204 650L516.533 650L516.533 633.829ZM523.995 647.225Q525.428 647.225 526.19 646.661Q526.957 646.097 526.957 645.008Q526.957 642.882 523.995 642.882L520.256 642.882L520.256 647.225L523.995 647.225ZM544.399 646.537L536.891 646.537L535.458 650L531.623 650L538.831 633.829L542.526 633.829L549.757 650L545.831 650L544.399 646.537ZM543.22 643.694L540.659 637.501L538.092 643.694L543.22 643.694ZM566.46 633.829L566.46 650L562.766 650L562.766 636.875L557.221 636.875L557.103 640.248Q556.99 643.694 556.55 645.832Q556.11 647.969 555.083 649.114Q554.057 650.254 552.207 650.254Q551.445 650.254 550.357 650L550.588 646.836Q550.892 646.926 551.259 646.926Q552.601 646.926 553.132 645.347Q553.662 643.762 553.803 640.389L554.034 633.829L566.46 633.829Z" fill="#000000" fill-opacity="1.000000" fill-rule="evenodd"/>
	<path id="2 бали" d="M776.143 646.948L776.143 650L763.92 650L763.92 647.575L770.159 641.68Q771.152 640.738 771.496 640.056Q771.845 639.373 771.845 638.702Q771.845 637.732 771.185 637.213Q770.531 636.694 769.256 636.694Q768.196 636.694 767.339 637.1Q766.487 637.501 765.906 638.307L763.182 636.553Q764.129 635.143 765.793 634.348Q767.457 633.552 769.606 633.552Q771.405 633.552 772.759 634.145Q774.113 634.731 774.863 635.803Q775.613 636.875 775.613 638.335Q775.613 639.65 775.055 640.806Q774.502 641.962 772.911 643.44L769.189 646.948L776.143 646.948ZM785.336 633.829L798.394 633.829L798.394 636.807L789.059 636.807L789.059 640.135L793.538 640.135Q796.476 640.135 798.01 641.359Q799.545 642.583 799.545 644.895Q799.545 647.321 797.836 648.663Q796.127 650 793.007 650L785.336 650L785.336 633.829ZM792.799 647.225Q794.231 647.225 794.993 646.661Q795.76 646.097 795.76 645.008Q795.76 642.882 792.799 642.882L789.059 642.882L789.059 647.225L792.799 647.225ZM813.202 646.537L805.694 646.537L804.262 650L800.426 650L807.635 633.829L811.329 633.829L818.56 650L814.635 650L813.202 646.537ZM812.023 643.694L809.462 637.501L806.896 643.694L812.023 643.694ZM835.263 633.829L835.263 650L831.569 650L831.569 636.875L826.024 636.875L825.906 640.248Q825.793 643.694 825.353 645.832Q824.913 647.969 823.886 649.114Q822.86 650.254 821.01 650.254Q820.248 650.254 819.16 650L819.391 646.836Q819.696 646.926 820.062 646.926Q821.405 646.926 821.935 645.347Q822.465 643.762 822.606 640.389L822.837 633.829L835.263 633.829ZM839.306 633.829L843.029 633.829L843.029 644.365L850.745 633.829L854.253 633.829L854.253 650L850.559 650L850.559 639.486L842.843 650L839.306 650L839.306 633.829Z" fill="#000000" fill-opacity="1.000000" fill-rule="evenodd"/>
	<path id="3 бали" d="M1075.59 640.411Q1077.72 640.761 1078.85 641.996Q1079.98 643.231 1079.98 645.053Q1079.98 646.463 1079.24 647.654Q1078.5 648.844 1076.99 649.56Q1075.48 650.276 1073.28 650.276Q1071.57 650.276 1069.92 649.825Q1068.27 649.374 1067.11 648.545L1068.57 645.679Q1069.49 646.373 1070.71 646.757Q1071.92 647.135 1073.19 647.135Q1074.6 647.135 1075.4 646.593Q1076.22 646.052 1076.22 645.053Q1076.22 643.068 1073.19 643.068L1071.48 643.068L1071.48 640.597L1074.81 636.829L1067.92 636.829L1067.92 633.829L1079.24 633.829L1079.24 636.254L1075.59 640.411ZM1089.36 633.829L1102.42 633.829L1102.42 636.807L1093.08 636.807L1093.08 640.135L1097.56 640.135Q1100.5 640.135 1102.03 641.359Q1103.57 642.583 1103.57 644.895Q1103.57 647.321 1101.86 648.663Q1100.15 650 1097.03 650L1089.36 650L1089.36 633.829ZM1096.82 647.225Q1098.25 647.225 1099.02 646.661Q1099.78 646.097 1099.78 645.008Q1099.78 642.882 1096.82 642.882L1093.08 642.882L1093.08 647.225L1096.82 647.225ZM1117.22 646.537L1109.72 646.537L1108.28 650L1104.45 650L1111.66 633.829L1115.35 633.829L1122.58 650L1118.66 650L1117.22 646.537ZM1116.05 643.694L1113.49 637.501L1110.92 643.694L1116.05 643.694ZM1139.29 633.829L1139.29 650L1135.59 650L1135.59 636.875L1130.05 636.875L1129.93 640.248Q1129.82 643.694 1129.38 645.832Q1128.94 647.969 1127.91 649.114Q1126.88 650.254 1125.03 650.254Q1124.27 650.254 1123.18 650L1123.41 646.836Q1123.72 646.926 1124.09 646.926Q1125.43 646.926 1125.96 645.347Q1126.49 643.762 1126.63 640.389L1126.86 633.829L1139.29 633.829ZM1143.33 633.829L1147.05 633.829L1147.05 644.365L1154.77 633.829L1158.28 633.829L1158.28 650L1154.58 650L1154.58 639.486L1146.87 650L1143.33 650L1143.33 633.829Z" fill="#000000" fill-opacity="1.000000" fill-rule="evenodd"/>
	<path id="0" d="M88.4526 595.115Q86.9194 595.115 85.7188 594.303Q84.5181 593.485 83.8439 591.966Q83.1743 590.442 83.1743 588.378Q83.1743 586.318 83.8439 584.794Q84.5181 583.271 85.7188 582.458Q86.9194 581.645 88.4526 581.645Q89.9857 581.645 91.1864 582.458Q92.387 583.271 93.0659 584.794Q93.7493 586.318 93.7493 588.378Q93.7493 590.442 93.0659 591.966Q92.387 593.485 91.1864 594.303Q89.9857 595.115 88.4526 595.115ZM88.4526 593.864Q89.6071 593.864 90.4845 593.222Q91.3665 592.58 91.856 591.352Q92.3501 590.119 92.3501 588.378Q92.3501 586.642 91.856 585.413Q91.3665 584.18 90.4845 583.538Q89.6071 582.896 88.4526 582.896Q87.2981 582.896 86.4161 583.538Q85.5387 584.18 85.0446 585.413Q84.5551 586.642 84.5551 588.378Q84.5551 590.119 85.0446 591.352Q85.5387 592.58 86.4161 593.222Q87.2981 593.864 88.4526 593.864Z" fill="#000000" fill-opacity="1.000000" fill-rule="evenodd"/>
	<path id="5" d="M88.472 533.186Q91.3444 533.186 92.6605 534.221Q93.9766 535.251 93.9766 537.102Q93.9766 538.257 93.4363 539.167Q92.896 540.072 91.8154 540.594Q90.7394 541.115 89.1693 541.115Q87.7517 541.115 86.4725 540.654Q85.1979 540.187 84.4221 539.411L85.0825 538.331Q85.7475 539.014 86.8234 539.439Q87.904 539.864 89.1509 539.864Q90.7949 539.864 91.6954 539.13Q92.5958 538.391 92.5958 537.163Q92.5958 535.8 91.5799 535.098Q90.5686 534.396 88.1673 534.396L85.3503 534.396L86.0292 527.76L93.2747 527.76L93.2747 528.97L87.2206 528.97L86.768 533.186L88.472 533.186Z" fill="#000000" fill-opacity="1.000000" fill-rule="evenodd"/>
	<path id="10" d="M80.0172 472.76L80.0172 486L78.655 486L78.655 473.97L75.5332 473.97L75.5332 472.76L80.0172 472.76ZM88.4526 486.115Q86.9194 486.115 85.7188 485.303Q84.5181 484.485 83.8439 482.966Q83.1743 481.442 83.1743 479.378Q83.1743 477.318 83.8439 475.794Q84.5181 474.271 85.7188 473.458Q86.9194 472.645 88.4526 472.645Q89.9857 472.645 91.1864 473.458Q92.387 474.271 93.0659 475.794Q93.7493 477.318 93.7493 479.378Q93.7493 481.442 93.0659 482.966Q92.387 484.485 91.1864 485.303Q89.9857 486.115 88.4526 486.115ZM88.4526 484.864Q89.6071 484.864 90.4845 484.222Q91.3665 483.58 91.856 482.352Q92.3501 481.119 92.3501 479.378Q92.3501 477.642 91.856 476.413Q91.3665 475.18 90.4845 474.538Q89.6071 473.896 88.4526 473.896Q87.2981 473.896 86.4161 474.538Q85.5387 475.18 85.0446 476.413Q84.5551 477.642 84.5551 479.378Q84.5551 481.119 85.0446 482.352Q85.5387 483.58 86.4161 484.222Q87.2981 484.864 88.4526 484.864Z" fill="#000000" fill-opacity="1.000000" fill-rule="evenodd"/>
	<path id="15" d="M81.8331 417.76L81.8331 431L80.4708 431L80.4708 418.97L77.3491 418.97L77.3491 417.76L81.8331 417.76ZM88.472 423.186Q91.3444 423.186 92.6605 424.221Q93.9766 425.251 93.9766 427.102Q93.9766 428.257 93.4363 429.167Q92.896 430.072 91.8154 430.594Q90.7394 431.115 89.1693 431.115Q87.7516 431.115 86.4725 430.654Q85.1979 430.187 84.4221 429.411L85.0825 428.331Q85.7475 429.014 86.8234 429.439Q87.904 429.864 89.1509 429.864Q90.7949 429.864 91.6954 429.13Q92.5958 428.391 92.5958 427.163Q92.5958 425.8 91.5799 425.098Q90.5686 424.396 88.1673 424.396L85.3503 424.396L86.0292 417.76L93.2747 417.76L93.2747 418.97L87.2206 418.97L86.768 423.186L88.472 423.186Z" fill="#000000" fill-opacity="1.000000" fill-rule="evenodd"/>
	<path id="20" d="M81.5481 374.79L81.5481 376L72.2615 376L72.2615 375.035L77.7661 369.646Q78.8051 368.625 79.1745 367.877Q79.544 367.129 79.544 366.372Q79.544 365.199 78.7404 364.548Q77.9369 363.896 76.4407 363.896Q74.1133 363.896 72.8295 365.37L71.8644 364.538Q72.6402 363.629 73.8408 363.139Q75.0415 362.645 76.5562 362.645Q78.5788 362.645 79.761 363.601Q80.9432 364.557 80.9432 366.219Q80.9432 367.244 80.486 368.191Q80.0335 369.133 78.7681 370.362L74.2657 374.79L81.5481 374.79ZM88.4526 376.115Q86.9194 376.115 85.7188 375.303Q84.5181 374.485 83.8439 372.966Q83.1743 371.442 83.1743 369.378Q83.1743 367.318 83.8439 365.794Q84.5181 364.271 85.7188 363.458Q86.9194 362.645 88.4526 362.645Q89.9857 362.645 91.1864 363.458Q92.387 364.271 93.0659 365.794Q93.7493 367.318 93.7493 369.378Q93.7493 371.442 93.0659 372.966Q92.387 374.485 91.1864 375.303Q89.9857 376.115 88.4526 376.115ZM88.4526 374.864Q89.6071 374.864 90.4845 374.222Q91.3665 373.58 91.856 372.352Q92.3501 371.119 92.3501 369.378Q92.3501 367.642 91.856 366.413Q91.3665 365.18 90.4845 364.538Q89.6071 363.896 88.4526 363.896Q87.2981 363.896 86.4161 364.538Q85.5387 365.18 85.0446 366.413Q84.5551 367.642 84.5551 369.378Q84.5551 371.119 85.0446 372.352Q85.5387 373.58 86.4161 374.222Q87.2981 374.864 88.4526 374.864Z" fill="#000000" fill-opacity="1.000000" fill-rule="evenodd"/>
	<path id="25" d="M83.2883 319.79L83.2883 321L74.0017 321L74.0017 320.035L79.5062 314.646Q80.5453 313.625 80.9147 312.877Q81.2841 312.129 81.2841 311.372Q81.2841 310.199 80.4806 309.548Q79.6771 308.896 78.1809 308.896Q75.8535 308.896 74.5697 310.37L73.6045 309.538Q74.3803 308.629 75.581 308.139Q76.7817 307.645 78.2963 307.645Q80.319 307.645 81.5012 308.601Q82.6834 309.557 82.6834 311.219Q82.6834 312.244 82.2262 313.191Q81.7736 314.133 80.5083 315.362L76.0059 319.79L83.2883 319.79ZM88.472 313.186Q91.3444 313.186 92.6605 314.221Q93.9766 315.251 93.9766 317.102Q93.9766 318.257 93.4363 319.167Q92.896 320.072 91.8154 320.594Q90.7394 321.115 89.1693 321.115Q87.7516 321.115 86.4725 320.654Q85.1979 320.187 84.4221 319.411L85.0825 318.331Q85.7475 319.014 86.8234 319.439Q87.904 319.864 89.1509 319.864Q90.7949 319.864 91.6954 319.13Q92.5958 318.391 92.5958 317.163Q92.5958 315.8 91.5799 315.098Q90.5686 314.396 88.1673 314.396L85.3503 314.396L86.0292 307.76L93.2747 307.76L93.2747 308.97L87.2206 308.97L86.768 313.186L88.472 313.186Z" fill="#000000" fill-opacity="1.000000" fill-rule="evenodd"/>
	<path id="30" d="M77.0087 258.436Q79.0868 258.547 80.172 259.558Q81.2618 260.569 81.2618 262.199Q81.2618 263.331 80.7123 264.213Q80.1674 265.09 79.0868 265.603Q78.0108 266.115 76.4592 266.115Q75.023 266.115 73.7439 265.654Q72.4693 265.187 71.6935 264.411L72.3539 263.331Q73.0188 264.014 74.1133 264.439Q75.2123 264.864 76.4592 264.864Q78.0847 264.864 78.9713 264.157Q79.8626 263.446 79.8626 262.199Q79.8626 260.966 78.9713 260.269Q78.0847 259.567 76.2883 259.567L75.3417 259.567L75.3417 258.565L79.0129 253.97L72.243 253.97L72.243 252.76L80.7538 252.76L80.7538 253.726L77.0087 258.436ZM88.4526 266.115Q86.9194 266.115 85.7188 265.303Q84.5181 264.485 83.8439 262.966Q83.1743 261.442 83.1743 259.378Q83.1743 257.318 83.8439 255.794Q84.5181 254.27 85.7188 253.458Q86.9194 252.645 88.4526 252.645Q89.9857 252.645 91.1864 253.458Q92.387 254.27 93.0659 255.794Q93.7493 257.318 93.7493 259.378Q93.7493 261.442 93.0659 262.966Q92.387 264.485 91.1864 265.303Q89.9857 266.115 88.4526 266.115ZM88.4526 264.864Q89.6071 264.864 90.4845 264.222Q91.3665 263.58 91.856 262.352Q92.3501 261.119 92.3501 259.378Q92.3501 257.642 91.856 256.413Q91.3665 255.18 90.4845 254.538Q89.6071 253.896 88.4526 253.896Q87.2981 253.896 86.4161 254.538Q85.5387 255.18 85.0446 256.413Q84.5551 257.642 84.5551 259.378Q84.5551 261.119 85.0446 262.352Q85.5387 263.58 86.4161 264.222Q87.2981 264.864 88.4526 264.864Z" fill="#000000" fill-opacity="1.000000" fill-rule="evenodd"/>
	<path id="35" d="M79.0137 203.436Q81.0918 203.547 82.177 204.558Q83.2668 205.569 83.2668 207.199Q83.2668 208.331 82.7173 209.213Q82.1724 210.09 81.0918 210.603Q80.0158 211.115 78.4642 211.115Q77.028 211.115 75.7488 210.654Q74.4743 210.187 73.6985 209.411L74.3588 208.331Q75.0238 209.014 76.1183 209.439Q77.2173 209.864 78.4642 209.864Q80.0897 209.864 80.9763 209.157Q81.8676 208.446 81.8676 207.199Q81.8676 205.966 80.9763 205.269Q80.0897 204.567 78.2933 204.567L77.3466 204.567L77.3466 203.565L81.0179 198.97L74.248 198.97L74.248 197.76L82.7588 197.76L82.7588 198.726L79.0137 203.436ZM88.472 203.186Q91.3444 203.186 92.6605 204.221Q93.9766 205.251 93.9766 207.102Q93.9766 208.257 93.4363 209.167Q92.896 210.072 91.8154 210.594Q90.7394 211.115 89.1693 211.115Q87.7516 211.115 86.4725 210.654Q85.1979 210.187 84.4221 209.411L85.0825 208.331Q85.7475 209.014 86.8234 209.439Q87.904 209.864 89.1509 209.864Q90.7949 209.864 91.6954 209.13Q92.5958 208.391 92.5958 207.163Q92.5958 205.8 91.5799 205.098Q90.5686 204.396 88.1673 204.396L85.3503 204.396L86.0292 197.76L93.2747 197.76L93.2747 198.97L87.2206 198.97L86.768 203.186L88.472 203.186Z" fill="#000000" fill-opacity="1.000000" fill-rule="evenodd"/>
	<path id="40" d="M81.9254 152.518L79.2793 152.518L79.2793 156L77.917 156L77.917 152.518L70.4452 152.518L70.4452 151.534L77.4598 142.76L78.9745 142.76L72.2047 151.308L77.9539 151.308L77.9539 148.247L79.2793 148.247L79.2793 151.308L81.9254 151.308L81.9254 152.518ZM88.4526 156.115Q86.9194 156.115 85.7188 155.303Q84.5181 154.485 83.8439 152.966Q83.1743 151.442 83.1743 149.378Q83.1743 147.318 83.8439 145.794Q84.5181 144.27 85.7188 143.458Q86.9194 142.645 88.4526 142.645Q89.9857 142.645 91.1864 143.458Q92.387 144.27 93.0659 145.794Q93.7493 147.318 93.7493 149.378Q93.7493 151.442 93.0659 152.966Q92.387 154.485 91.1864 155.303Q89.9857 156.115 88.4526 156.115ZM88.4526 154.864Q89.6071 154.864 90.4845 154.222Q91.3665 153.58 91.856 152.352Q92.3501 151.119 92.3501 149.378Q92.3501 147.642 91.856 146.413Q91.3665 145.18 90.4845 144.538Q89.6071 143.896 88.4526 143.896Q87.2981 143.896 86.4161 144.538Q85.5387 145.18 85.0446 146.413Q84.5551 147.642 84.5551 149.378Q84.5551 151.119 85.0446 152.352Q85.5387 153.58 86.4161 154.222Q87.2981 154.864 88.4526 154.864Z" fill="#000000" fill-opacity="1.000000" fill-rule="evenodd"/>
	<path id="45" d="M83.8169 97.5181L81.1708 97.5181L81.1708 101L79.8085 101L79.8085 97.5181L72.3367 97.5181L72.3367 96.5345L79.3513 87.7604L80.866 87.7604L74.0961 96.3082L79.8454 96.3082L79.8454 93.2465L81.1708 93.2465L81.1708 96.3082L83.8169 96.3082L83.8169 97.5181ZM88.472 93.1865Q91.3444 93.1865 92.6605 94.2209Q93.9766 95.2507 93.9766 97.1025Q93.9766 98.257 93.4363 99.1667Q92.896 100.072 91.8154 100.594Q90.7394 101.115 89.1693 101.115Q87.7516 101.115 86.4725 100.654Q85.1979 100.187 84.4221 99.4114L85.0825 98.3308Q85.7475 99.0143 86.8234 99.4391Q87.904 99.864 89.1509 99.864Q90.7949 99.864 91.6954 99.1297Q92.5958 98.3909 92.5958 97.1625Q92.5958 95.8002 91.5799 95.0983Q90.5686 94.3964 88.1673 94.3964L85.3503 94.3964L86.0292 87.7604L93.2747 87.7604L93.2747 88.9703L87.2206 88.9703L86.768 93.1865L88.472 93.1865Z" fill="#000000" fill-opacity="1.000000" fill-rule="evenodd"/>
	<path id="50" d="M75.9503 38.1865Q78.8227 38.1865 80.1388 39.2209Q81.4549 40.2507 81.4549 42.1025Q81.4549 43.257 80.9146 44.1667Q80.3743 45.0718 79.2937 45.5936Q78.2177 46.1154 76.6476 46.1154Q75.2299 46.1154 73.9508 45.6537Q72.6762 45.1872 71.9004 44.4114L72.5608 43.3308Q73.2258 44.0143 74.3017 44.4391Q75.3823 44.864 76.6292 44.864Q78.2731 44.864 79.1736 44.1297Q80.0741 43.3909 80.0741 42.1625Q80.0741 40.8002 79.0582 40.0983Q78.0469 39.3964 75.6455 39.3964L72.8286 39.3964L73.5075 32.7604L80.753 32.7604L80.753 33.9703L74.6989 33.9703L74.2463 38.1865L75.9503 38.1865ZM88.4526 46.1154Q86.9194 46.1154 85.7188 45.3027Q84.5181 44.4853 83.8439 42.966Q83.1743 41.4421 83.1743 39.3779Q83.1743 37.3183 83.8439 35.7944Q84.5181 34.2705 85.7188 33.4577Q86.9194 32.645 88.4526 32.645Q89.9857 32.645 91.1864 33.4577Q92.387 34.2705 93.0659 35.7944Q93.7493 37.3183 93.7493 39.3779Q93.7493 41.4421 93.0659 42.966Q92.387 44.4853 91.1864 45.3027Q89.9857 46.1154 88.4526 46.1154ZM88.4526 44.864Q89.6071 44.864 90.4845 44.2221Q91.3665 43.5802 91.856 42.3518Q92.3501 41.1189 92.3501 39.3779Q92.3501 37.6416 91.856 36.4132Q91.3665 35.1802 90.4845 34.5383Q89.6071 33.8964 88.4526 33.8964Q87.2981 33.8964 86.4161 34.5383Q85.5387 35.1802 85.0446 36.4132Q84.5551 37.6416 84.5551 39.3779Q84.5551 41.1189 85.0446 42.3518Q85.5387 43.5802 86.4161 44.2221Q87.2981 44.864 88.4526 44.864Z" fill="#000000" fill-opacity="1.000000" fill-rule="evenodd"/>
	<path id="image 9 (Traced)" d="M378.017 626.184C377.214 626.479 376.6 627.477 376.729 628.275C376.87 629.143 377.096 629.4 382.23 634.572C388.984 641.375 388.984 639.734 382.23 646.537C378.469 650.324 377.162 651.701 377 652.045C376.062 654.029 377.795 655.693 379.774 654.707C380.5 654.348 392.512 642.295 392.855 641.584C393.624 639.994 393.722 640.127 386.401 632.797C379.273 625.658 379.327 625.701 378.017 626.184ZM390.333 626.488C389.449 627.018 389.149 628.141 389.624 629.143C389.797 629.512 390.987 630.766 394.814 634.621C401.51 641.365 401.517 639.736 394.766 646.537C391.004 650.324 389.697 651.701 389.535 652.045C388.597 654.029 390.331 655.693 392.31 654.707C393.058 654.334 404.965 642.395 405.34 641.643C406.159 639.996 406.227 640.09 399.038 632.891C391.845 625.688 391.765 625.629 390.333 626.488Z" fill="url(#paint_linear_69_761_0)" fill-opacity="1.000000" fill-rule="evenodd"/>
	<path id="image 9 (Traced)" d="M664.017 626.184C663.214 626.479 662.6 627.477 662.729 628.275C662.87 629.143 663.096 629.4 668.23 634.572C674.984 641.375 674.984 639.734 668.23 646.537C664.469 650.324 663.162 651.701 663 652.045C662.062 654.029 663.795 655.693 665.774 654.707C666.5 654.348 678.512 642.295 678.855 641.584C679.624 639.994 679.722 640.127 672.401 632.797C665.273 625.658 665.327 625.701 664.017 626.184ZM676.333 626.488C675.449 627.018 675.149 628.141 675.624 629.143C675.797 629.512 676.987 630.766 680.814 634.621C687.51 641.365 687.517 639.736 680.766 646.537C677.004 650.324 675.697 651.701 675.535 652.045C674.597 654.029 676.331 655.693 678.31 654.707C679.058 654.334 690.965 642.395 691.34 641.643C692.159 639.996 692.227 640.09 685.038 632.891C677.845 625.688 677.765 625.629 676.333 626.488Z" fill="url(#paint_linear_70_817_0)" fill-opacity="1.000000" fill-rule="evenodd"/>
	<path id="image 9 (Traced)" d="M943.017 626.184C942.214 626.479 941.6 627.477 941.729 628.275C941.87 629.143 942.096 629.4 947.23 634.572C953.984 641.375 953.984 639.734 947.23 646.537C943.469 650.324 942.162 651.701 942 652.045C941.062 654.029 942.795 655.693 944.774 654.707C945.5 654.348 957.512 642.295 957.855 641.584C958.624 639.994 958.722 640.127 951.401 632.797C944.273 625.658 944.327 625.701 943.017 626.184ZM955.333 626.488C954.449 627.018 954.149 628.141 954.624 629.143C954.797 629.512 955.987 630.766 959.814 634.621C966.51 641.365 966.517 639.736 959.766 646.537C956.004 650.324 954.697 651.701 954.535 652.045C953.597 654.029 955.331 655.693 957.31 654.707C958.058 654.334 969.965 642.395 970.34 641.643C971.159 639.996 971.227 640.09 964.038 632.891C956.845 625.688 956.765 625.629 955.333 626.488Z" fill="url(#paint_linear_70_818_0)" fill-opacity="1.000000" fill-rule="evenodd"/>
	<path id="% пацієнтів" d="M13.0518 433.972Q13.0518 436.279 11.4771 437.737Q9.90234 439.187 7.26562 439.187Q4.62158 439.187 3.04688 437.737Q1.47217 436.279 1.47217 433.972Q1.47217 431.658 3.04688 430.222Q4.62158 428.779 7.26562 428.779Q9.90234 428.779 11.4771 430.222Q13.0518 431.658 13.0518 433.972ZM1.71387 421.462L1.71387 417.888L22.7124 432.229L22.7124 435.803L1.71387 421.462ZM10.5908 433.972Q10.5908 432.947 9.75586 432.368Q8.91357 431.782 7.26562 431.782Q5.61035 431.782 4.77539 432.368Q3.93311 432.947 3.93311 433.972Q3.93311 434.961 4.79004 435.562Q5.63965 436.162 7.26562 436.162Q8.88428 436.162 9.74121 435.562Q10.5908 434.961 10.5908 433.972ZM22.9541 419.719Q22.9541 421.221 22.251 422.407Q21.5405 423.586 20.2222 424.253Q18.9038 424.912 17.1606 424.912Q15.4248 424.912 14.1064 424.253Q12.7808 423.586 12.0776 422.407Q11.3745 421.221 11.3745 419.719Q11.3745 417.412 12.9492 415.955Q14.5239 414.497 17.1606 414.497Q19.8047 414.497 21.3794 415.955Q22.9541 417.412 22.9541 419.719ZM20.4932 419.719Q20.4932 418.701 19.6362 418.115Q18.7793 417.529 17.1606 417.529Q15.542 417.529 14.6924 418.115Q13.8354 418.701 13.8354 419.719Q13.8354 420.708 14.6777 421.309Q15.5127 421.909 17.1606 421.909Q18.8159 421.909 19.6582 421.309Q20.4932 420.708 20.4932 419.719ZM6.81152 388.1L22.7124 388.1L22.7124 390.979L9.33105 390.979L9.33105 399.951L22.7124 399.951L22.7124 402.829L6.81152 402.829L6.81152 388.1ZM6.66504 376.851Q6.66504 373.547 8.28369 371.797Q9.90234 370.039 13.1103 370.039L22.7124 370.039L22.7124 372.771L20.6103 372.771Q21.7236 373.489 22.3096 374.829Q22.8955 376.162 22.8955 377.986Q22.8955 380.659 21.6064 382.263Q20.3101 383.867 18.2153 383.867Q16.1133 383.867 14.8389 382.336Q13.5645 380.806 13.5645 377.48L13.5644 372.917L12.9932 372.917Q11.1328 372.917 10.144 374.001Q9.15527 375.078 9.15527 377.18Q9.15527 378.586 9.62402 379.941Q10.0854 381.289 10.8618 382.219L8.70117 383.42Q7.7124 382.19 7.19238 380.483Q6.66504 378.769 6.66504 376.851ZM20.6689 377.51Q20.6689 375.862 19.9365 374.661Q19.2041 373.459 17.8491 372.917L15.6299 372.917L15.6299 377.356Q15.6299 381.018 18.0908 381.018Q19.292 381.018 19.9805 380.088Q20.6689 379.158 20.6689 377.51ZM20.1929 347.872L26.521 347.872L26.521 350.597L22.7124 350.597L22.7124 364.849L6.81152 364.849L6.81152 361.971L20.1929 361.971L20.1929 353.27L6.81152 353.27L6.81152 350.391L20.1929 350.391L20.1929 347.872ZM6.81152 344.149L6.81152 341.271L22.7124 341.271L22.7124 344.149L6.81152 344.149ZM3.75 342.714Q3.75 343.549 3.21533 344.106Q2.67334 344.662 1.88964 344.662Q1.11328 344.662 0.556637 344.106Q-3.8147e-06 343.549 -3.8147e-06 342.714Q-3.8147e-06 341.872 0.527339 341.322Q1.05468 340.766 1.83105 340.766Q2.64404 340.766 3.20068 341.322Q3.75 341.872 3.75 342.714ZM22.8882 328.555Q22.8882 330.979 21.8408 332.95Q20.7935 334.912 18.9331 336.026Q17.0728 337.132 14.7583 337.132Q12.4219 337.132 10.5615 336.026Q8.70117 334.912 7.6538 332.95Q6.59912 330.979 6.59912 328.555Q6.59912 326.453 7.26562 324.761Q7.9248 323.062 9.18456 321.89L10.8618 323.575Q8.97216 325.493 8.97216 328.43Q8.97216 330.774 10.3052 332.422Q11.6382 334.07 13.7988 334.4L13.7988 326.424L15.9302 326.424L15.9302 334.341Q18.0029 333.953 19.2773 332.334Q20.5518 330.716 20.5518 328.43Q20.5518 325.523 18.6328 323.575L20.2808 321.89Q21.5698 323.062 22.229 324.776Q22.8882 326.482 22.8882 328.555ZM6.81152 318.349L6.81152 315.471L13.5644 315.471L13.5644 306.411L6.81152 306.411L6.81152 303.533L22.7124 303.533L22.7124 306.411L16.0547 306.411L16.0547 315.471L22.7124 315.471L22.7124 318.349L6.81152 318.349ZM9.33105 286.069L9.33105 291.892L22.7124 291.892L22.7124 294.77L9.33105 294.77L9.33105 300.593L6.81152 300.593L6.81152 286.069L9.33105 286.069ZM6.81152 283.13L6.81152 280.251L22.7124 280.251L22.7124 283.13L6.81152 283.13ZM3.74999 281.694Q3.74999 282.529 3.21533 283.086Q2.67333 283.642 1.88964 283.642Q1.11327 283.642 0.556634 283.086Q-6.67572e-06 282.529 -6.67572e-06 281.694Q-6.67572e-06 280.852 0.527337 280.302Q1.05468 279.746 1.83105 279.746Q2.64404 279.746 3.20068 280.302Q3.74999 280.852 3.74999 281.694ZM14.4653 263.807Q15.2417 260.723 18.3325 260.723Q20.4346 260.723 21.5771 262.298Q22.7124 263.873 22.7124 266.993L22.7124 274.639L6.81152 274.639L6.81152 267.257Q6.81152 264.437 7.88085 262.848Q8.94286 261.258 10.8911 261.258Q12.1509 261.258 13.0664 261.939Q13.9819 262.613 14.4653 263.807ZM13.6523 271.82L13.6523 267.498Q13.6523 265.85 13.0518 264.993Q12.4512 264.137 11.3159 264.137Q9.03075 264.137 9.03075 267.498L9.03075 271.82L13.6523 271.82ZM20.4932 267.198Q20.4932 265.404 19.9219 264.503Q19.3506 263.602 18.1494 263.602Q16.9189 263.602 16.3257 264.43Q15.7251 265.25 15.7251 267.022L15.7251 271.82L20.4932 271.82L20.4932 267.198Z" fill="#000000" fill-opacity="1.000000" fill-rule="evenodd"/>
	<ellipse id="Ellipse 19" cx="192.712402" cy="30.000000" rx="43.000000" ry="28.000000" stroke="#E10920" stroke-opacity="1.000000" stroke-width="4.000000"/>
	<ellipse id="Ellipse 20" cx="468.712402" cy="206.000000" rx="43.000000" ry="28.000000" stroke="#E10920" stroke-opacity="1.000000" stroke-width="4.000000"/>
</svg>
