<svg width="1784.898926" height="572.180176" viewBox="0 0 1784.9 572.18" fill="none" xmlns="http://www.w3.org/2000/svg" >
	<desc>
			Created with Pixso.
	</desc>
	<defs>
		<linearGradient id="paint_linear_76_3161_0" x1="212.212387" y1="148.000000" x2="212.212387" y2="695.480774" gradientUnits="userSpaceOnUse">
			<stop stop-color="#BBBBBB"/>
			<stop offset="1.000000" stop-color="#BBBBBB" stop-opacity="0.000000"/>
		</linearGradient>
		<linearGradient id="paint_linear_76_3162_0" x1="351.297119" y1="384.000000" x2="341.712402" y2="487.030518" gradientUnits="userSpaceOnUse">
			<stop stop-color="#7CC700"/>
			<stop offset="1.000000" stop-color="#C6F579"/>
		</linearGradient>
		<linearGradient id="paint_linear_76_3166_0" x1="531.212402" y1="321.000000" x2="531.212402" y2="592.346191" gradientUnits="userSpaceOnUse">
			<stop stop-color="#BBBBBB"/>
			<stop offset="1.000000" stop-color="#BBBBBB" stop-opacity="0.000000"/>
		</linearGradient>
		<linearGradient id="paint_linear_76_3167_0" x1="670.297058" y1="404.576904" x2="660.712402" y2="487.793884" gradientUnits="userSpaceOnUse">
			<stop stop-color="#7CC700"/>
			<stop offset="1.000000" stop-color="#C6F579"/>
		</linearGradient>
		<linearGradient id="paint_linear_76_3171_0" x1="850.212402" y1="360.000000" x2="850.212402" y2="569.096191" gradientUnits="userSpaceOnUse">
			<stop stop-color="#BBBBBB"/>
			<stop offset="1.000000" stop-color="#BBBBBB" stop-opacity="0.000000"/>
		</linearGradient>
		<linearGradient id="paint_linear_76_3172_0" x1="989.297058" y1="404.576904" x2="979.712402" y2="487.793884" gradientUnits="userSpaceOnUse">
			<stop stop-color="#7CC700"/>
			<stop offset="1.000000" stop-color="#C6F579"/>
		</linearGradient>
		<linearGradient id="paint_linear_76_3176_0" x1="1169.212402" y1="312.000000" x2="1169.212402" y2="597.711548" gradientUnits="userSpaceOnUse">
			<stop stop-color="#BBBBBB"/>
			<stop offset="1.000000" stop-color="#BBBBBB" stop-opacity="0.000000"/>
		</linearGradient>
		<linearGradient id="paint_linear_76_3177_0" x1="1308.297119" y1="385.371796" x2="1298.712402" y2="487.081421" gradientUnits="userSpaceOnUse">
			<stop stop-color="#7CC700"/>
			<stop offset="1.000000" stop-color="#C6F579"/>
		</linearGradient>
		<linearGradient id="paint_linear_76_3181_0" x1="1488.212402" y1="56.000000" x2="1488.212402" y2="750.326904" gradientUnits="userSpaceOnUse">
			<stop stop-color="#BBBBBB"/>
			<stop offset="1.000000" stop-color="#BBBBBB" stop-opacity="0.000000"/>
		</linearGradient>
		<linearGradient id="paint_linear_76_3182_0" x1="1627.297241" y1="357.935913" x2="1617.712402" y2="486.063599" gradientUnits="userSpaceOnUse">
			<stop stop-color="#7CC700"/>
			<stop offset="1.000000" stop-color="#C6F579"/>
		</linearGradient>
		<linearGradient id="paint_linear_76_3216_0" x1="427.746277" y1="532.076904" x2="425.813232" y2="563.778625" gradientUnits="userSpaceOnUse">
			<stop stop-color="#7CC700"/>
			<stop offset="1.000000" stop-color="#C6F579"/>
		</linearGradient>
		<linearGradient id="paint_linear_76_3243_0" x1="756.746338" y1="532.076904" x2="754.813293" y2="563.778625" gradientUnits="userSpaceOnUse">
			<stop stop-color="#7CC700"/>
			<stop offset="1.000000" stop-color="#C6F579"/>
		</linearGradient>
		<linearGradient id="paint_linear_76_3244_0" x1="1075.746216" y1="532.076904" x2="1073.813110" y2="563.778625" gradientUnits="userSpaceOnUse">
			<stop stop-color="#7CC700"/>
			<stop offset="1.000000" stop-color="#C6F579"/>
		</linearGradient>
		<linearGradient id="paint_linear_76_3245_0" x1="1394.746216" y1="532.076904" x2="1392.813110" y2="563.778625" gradientUnits="userSpaceOnUse">
			<stop stop-color="#7CC700"/>
			<stop offset="1.000000" stop-color="#C6F579"/>
		</linearGradient>
	</defs>
	<path id="відсоток пацієнтів" d="M14.4653 386.377Q15.2417 383.293 18.3325 383.293Q20.4346 383.293 21.5771 384.868Q22.7124 386.443 22.7124 389.563L22.7124 397.209L6.81152 397.209L6.81152 389.827Q6.81152 387.007 7.88086 385.417Q8.94287 383.828 10.8911 383.828Q12.1509 383.828 13.0664 384.509Q13.9819 385.183 14.4653 386.377ZM13.6523 394.39L13.6523 390.068Q13.6523 388.42 13.0518 387.563Q12.4512 386.707 11.3159 386.707Q9.03076 386.707 9.03076 390.068L9.03076 394.39L13.6523 394.39ZM20.4932 389.768Q20.4932 387.974 19.9219 387.073Q19.3506 386.172 18.1494 386.172Q16.9189 386.172 16.3257 387Q15.7251 387.82 15.7251 389.592L15.7251 394.39L20.4932 394.39L20.4932 389.768ZM6.81152 378.789L6.81152 375.911L22.7124 375.911L22.7124 378.789L6.81152 378.789ZM3.75 377.354Q3.75 378.189 3.21533 378.746Q2.67334 379.302 1.88965 379.302Q1.11328 379.302 0.55664 378.746Q-9.53674e-07 378.189 -9.53674e-07 377.354Q-9.53674e-07 376.512 0.527343 375.962Q1.05469 375.406 1.83105 375.406Q2.64404 375.406 3.20068 375.962Q3.75 376.512 3.75 377.354ZM20.1929 354.128L26.4038 354.128L26.4038 356.83L22.7124 356.83L22.7124 370.116L26.4038 370.116L26.4038 372.848L20.1929 372.848L20.1929 372.013Q20.105 370.483 18.0322 369.911Q15.9595 369.34 12.1802 369.128L6.81152 368.893L6.81152 356.559L20.1929 356.559L20.1929 354.128ZM12.3926 366.491Q15.3955 366.608 17.3584 366.989Q19.3213 367.362 20.1929 368.351L20.1929 359.438L9.33105 359.438L9.33105 366.337L12.3926 366.491ZM22.8955 343.451Q22.8955 345.882 21.8481 347.787Q20.7935 349.691 18.9478 350.775Q17.102 351.852 14.7656 351.852Q12.4219 351.852 10.5762 350.775Q8.73047 349.691 7.69775 347.787Q6.66504 345.882 6.66504 343.451Q6.66504 341.29 7.53662 339.598Q8.40088 337.899 10.0488 336.969L11.4624 339.159Q10.3198 339.913 9.75586 341.026Q9.18457 342.132 9.18457 343.48Q9.18457 345.04 9.87304 346.285Q10.5615 347.53 11.8359 348.241Q13.1103 348.944 14.7656 348.944Q16.4429 348.944 17.7173 348.241Q18.9917 347.53 19.6875 346.285Q20.376 345.04 20.376 343.48Q20.376 342.132 19.8047 341.026Q19.2334 339.913 18.0908 339.159L19.4751 336.969Q21.123 337.899 22.0093 339.598Q22.8955 341.29 22.8955 343.451ZM22.8955 326.678Q22.8955 329.051 21.8481 330.941Q20.7935 332.83 18.9478 333.9Q17.102 334.962 14.7656 334.962Q12.4219 334.962 10.5762 333.9Q8.73046 332.83 7.69775 330.941Q6.66504 329.051 6.66504 326.678Q6.66504 324.312 7.69775 322.437Q8.73046 320.562 10.5762 319.5Q12.4219 318.431 14.7656 318.431Q17.102 318.431 18.9478 319.5Q20.7935 320.562 21.8481 322.437Q22.8955 324.312 22.8955 326.678ZM20.376 326.678Q20.376 325.155 19.6728 323.939Q18.9624 322.723 17.688 322.034Q16.4136 321.339 14.7656 321.339Q13.1103 321.339 11.8359 322.034Q10.5615 322.723 9.87304 323.939Q9.18457 325.155 9.18457 326.678Q9.18457 328.209 9.87304 329.425Q10.5615 330.64 11.8359 331.351Q13.1103 332.054 14.7656 332.054Q16.4136 332.054 17.688 331.351Q18.9624 330.64 19.6728 329.425Q20.376 328.209 20.376 326.678ZM9.33105 303.009L9.33105 308.832L22.7124 308.832L22.7124 311.71L9.33105 311.71L9.33105 317.533L6.81152 317.533L6.81152 303.009L9.33105 303.009ZM22.8955 293.948Q22.8955 296.321 21.8481 298.211Q20.7935 300.1 18.9478 301.17Q17.102 302.232 14.7656 302.232Q12.4219 302.232 10.5762 301.17Q8.73046 300.1 7.69775 298.211Q6.66503 296.321 6.66503 293.948Q6.66503 291.582 7.69775 289.707Q8.73046 287.832 10.5762 286.77Q12.4219 285.701 14.7656 285.701Q17.102 285.701 18.9477 286.77Q20.7935 287.832 21.8481 289.707Q22.8955 291.582 22.8955 293.948ZM20.376 293.948Q20.376 292.424 19.6728 291.209Q18.9624 289.993 17.688 289.304Q16.4136 288.609 14.7656 288.609Q13.1103 288.609 11.8359 289.304Q10.5615 289.993 9.87304 291.209Q9.18457 292.424 9.18457 293.948Q9.18457 295.479 9.87304 296.695Q10.5615 297.91 11.8359 298.621Q13.1103 299.324 14.7656 299.324Q16.4136 299.324 17.688 298.621Q18.9624 297.91 19.6728 296.695Q20.376 295.479 20.376 293.948ZM15.9888 275.348L15.9888 278.651L22.7124 278.651L22.7124 281.529L6.81152 281.529L6.81152 278.651L13.5352 278.651L13.5352 275.289L6.81152 270.133L6.81152 267.042L14.4653 273.07L22.7124 266.617L22.7124 270.008L15.9888 275.348ZM6.81152 240.79L22.7124 240.79L22.7124 243.669L9.33105 243.669L9.33105 252.641L22.7124 252.641L22.7124 255.519L6.81152 255.519L6.81152 240.79ZM6.66503 229.541Q6.66503 226.237 8.28368 224.487Q9.90234 222.729 13.1103 222.729L22.7124 222.729L22.7124 225.461L20.6103 225.461Q21.7236 226.179 22.3096 227.519Q22.8955 228.852 22.8955 230.676Q22.8955 233.349 21.6064 234.953Q20.3101 236.557 18.2153 236.557Q16.1133 236.557 14.8389 235.026Q13.5644 233.496 13.5644 230.17L13.5644 225.607L12.9932 225.607Q11.1328 225.607 10.144 226.691Q9.15527 227.768 9.15527 229.87Q9.15527 231.276 9.62402 232.631Q10.0854 233.979 10.8618 234.909L8.70116 236.11Q7.71239 234.88 7.19238 233.173Q6.66503 231.459 6.66503 229.541ZM20.6689 230.2Q20.6689 228.552 19.9365 227.351Q19.2041 226.149 17.8491 225.607L15.6299 225.607L15.6299 230.046Q15.6299 233.708 18.0908 233.708Q19.292 233.708 19.9805 232.778Q20.6689 231.848 20.6689 230.2ZM20.1929 200.562L26.521 200.562L26.521 203.287L22.7124 203.287L22.7124 217.539L6.81152 217.539L6.81152 214.661L20.1929 214.661L20.1929 205.96L6.81152 205.96L6.81151 203.081L20.1929 203.081L20.1929 200.562ZM6.81151 196.839L6.81151 193.961L22.7124 193.961L22.7124 196.839L6.81151 196.839ZM3.74999 195.404Q3.74999 196.239 3.21532 196.796Q2.67333 197.352 1.88964 197.352Q1.11327 197.352 0.556632 196.796Q-8.58307e-06 196.239 -8.58307e-06 195.404Q-8.58307e-06 194.562 0.527335 194.012Q1.05468 193.456 1.83105 193.456Q2.64403 193.456 3.20068 194.012Q3.74999 194.562 3.74999 195.404ZM22.8882 181.245Q22.8882 183.669 21.8408 185.64Q20.7934 187.602 18.9331 188.716Q17.0727 189.822 14.7583 189.822Q12.4219 189.822 10.5615 188.716Q8.70116 187.602 7.6538 185.64Q6.59911 183.669 6.59911 181.245Q6.59911 179.143 7.26562 177.451Q7.9248 175.752 9.18456 174.58L10.8618 176.265Q8.97216 178.183 8.97216 181.12Q8.97216 183.464 10.3052 185.112Q11.6382 186.76 13.7988 187.09L13.7988 179.114L15.9302 179.114L15.9302 187.031Q18.0029 186.643 19.2773 185.024Q20.5517 183.406 20.5517 181.12Q20.5517 178.213 18.6328 176.265L20.2808 174.58Q21.5698 175.752 22.229 177.466Q22.8882 179.172 22.8882 181.245ZM6.81151 171.039L6.81151 168.161L13.5644 168.161L13.5644 159.101L6.81151 159.101L6.81151 156.223L22.7124 156.223L22.7124 159.101L16.0547 159.101L16.0547 168.161L22.7124 168.161L22.7124 171.039L6.81151 171.039ZM9.33104 138.759L9.33104 144.582L22.7124 144.582L22.7124 147.46L9.33104 147.46L9.33104 153.283L6.81151 153.283L6.81151 138.759L9.33104 138.759ZM6.81151 135.819L6.81151 132.941L22.7124 132.941L22.7124 135.819L6.81151 135.819ZM3.74999 134.384Q3.74999 135.219 3.21532 135.776Q2.67333 136.332 1.88964 136.332Q1.11327 136.332 0.556629 135.776Q-1.14441e-05 135.219 -1.14441e-05 134.384Q-1.14441e-05 133.542 0.527332 132.992Q1.05468 132.436 1.83104 132.436Q2.64403 132.436 3.20067 132.992Q3.74999 133.542 3.74999 134.384ZM14.4653 116.497Q15.2417 113.413 18.3325 113.413Q20.4346 113.413 21.5771 114.988Q22.7124 116.563 22.7124 119.683L22.7124 127.329L6.81151 127.329L6.81151 119.947Q6.81151 117.127 7.88085 115.537Q8.94286 113.948 10.8911 113.948Q12.1509 113.948 13.0664 114.629Q13.9819 115.303 14.4653 116.497ZM13.6523 124.51L13.6523 120.188Q13.6523 118.54 13.0517 117.683Q12.4512 116.827 11.3159 116.827Q9.03075 116.827 9.03075 120.188L9.03075 124.51L13.6523 124.51ZM20.4932 119.888Q20.4932 118.094 19.9219 117.193Q19.3506 116.292 18.1494 116.292Q16.9189 116.292 16.3257 117.12Q15.7251 117.94 15.7251 119.712L15.7251 124.51L20.4932 124.51L20.4932 119.888Z" fill="#000000" fill-opacity="1.000000" fill-rule="evenodd"/>
	<path id="Line 2" d="M101.895 16L101.895 493L99.5303 493L99.5303 16L101.895 16ZM100.712 17.6719L94.8608 23.5234C94.3926 23.9915 93.6572 23.9915 93.189 23.5234C92.7207 23.0552 92.7207 22.3196 93.189 21.8516L99.8765 15.1641C100.345 14.696 101.08 14.696 101.548 15.1641L108.236 21.8516C108.704 22.3196 108.704 23.0552 108.236 23.5234C107.768 23.9915 107.032 23.9915 106.564 23.5234L100.712 17.6719Z" fill="#000000" fill-opacity="1.000000" fill-rule="evenodd"/>
	<path id="Line 3" d="M1783.71 494.182L100.712 494.182L100.712 491.818L1783.71 491.818L1783.71 494.182ZM1782.04 493L1776.19 487.148C1775.72 486.68 1775.72 485.945 1776.19 485.477C1776.66 485.008 1777.39 485.008 1777.86 485.477L1784.55 492.164C1785.02 492.632 1785.02 493.368 1784.55 493.836L1777.86 500.523C1777.39 500.992 1776.66 500.992 1776.19 500.523C1775.72 500.055 1775.72 499.32 1776.19 498.852L1782.04 493Z" fill="#000000" fill-opacity="1.000000" fill-rule="evenodd"/>
	<path id="Rectangle 23" d="M173.992 148L250.433 148C262.186 148 271.712 157.527 271.712 169.279L271.712 491L152.712 491L152.712 169.279C152.712 157.527 162.239 148 173.992 148Z" fill="url(#paint_linear_76_3161_0)" fill-opacity="1.000000" fill-rule="evenodd"/>
	<path id="Rectangle 24" d="M302.992 413L379.433 413C391.185 413 400.712 422.527 400.712 434.279L400.712 491L281.712 491L281.712 434.279C281.712 422.527 291.239 413 302.992 413Z" fill="url(#paint_linear_76_3162_0)" fill-opacity="1.000000" fill-rule="evenodd"/>
	<path id="65%" d="M184.344 110.837Q187.122 110.837 189.395 111.958Q191.668 113.07 192.991 115.12Q194.315 117.171 194.315 119.858Q194.315 122.757 192.87 124.949Q191.426 127.141 188.92 128.323Q186.415 129.495 183.354 129.495Q177.273 129.495 173.839 125.778Q170.404 122.05 170.404 115.14Q170.404 110.211 172.263 106.695Q174.121 103.18 177.455 101.362Q180.789 99.5435 185.173 99.5435Q187.486 99.5435 189.617 100.059Q191.749 100.574 193.244 101.523L190.759 106.453Q188.607 104.998 185.334 104.998Q181.657 104.998 179.506 107.15Q177.354 109.302 177.182 113.403Q179.748 110.837 184.344 110.837ZM182.981 124.495Q185.132 124.495 186.476 123.333Q187.819 122.171 187.819 120.191Q187.819 118.201 186.476 117.019Q185.132 115.838 182.9 115.838Q180.708 115.838 179.294 117.06Q177.889 118.282 177.889 120.191Q177.889 122.09 179.253 123.293Q180.617 124.495 182.981 124.495ZM206.691 110.918Q212.812 110.918 215.732 113.363Q218.651 115.797 218.651 119.898Q218.651 122.545 217.318 124.717Q215.994 126.889 213.287 128.192Q210.58 129.495 206.61 129.495Q203.539 129.495 200.579 128.687Q197.63 127.879 195.559 126.394L198.205 121.262Q199.862 122.505 202.014 123.192Q204.165 123.868 206.438 123.868Q208.964 123.868 210.408 122.878Q211.863 121.878 211.863 120.1Q211.863 118.242 210.348 117.292Q208.842 116.343 205.115 116.343L197.71 116.343L199.195 100.038L216.863 100.038L216.863 105.413L204.782 105.413L204.327 110.918L206.691 110.918ZM227.664 115.676Q224.482 115.676 222.471 113.504Q220.471 111.332 220.471 107.696Q220.471 104.049 222.471 101.877Q224.482 99.7051 227.664 99.7051Q230.856 99.7051 232.836 101.877Q234.826 104.049 234.826 107.696Q234.826 111.332 232.836 113.504Q230.856 115.676 227.664 115.676ZM244.917 100.038L249.847 100.038L230.068 129L225.138 129L244.917 100.038ZM227.664 112.282Q229.078 112.282 229.876 111.13Q230.684 109.968 230.684 107.696Q230.684 105.413 229.876 104.261Q229.078 103.099 227.664 103.099Q226.3 103.099 225.471 104.281Q224.643 105.453 224.643 107.696Q224.643 109.928 225.471 111.11Q226.3 112.282 227.664 112.282ZM247.321 129.333Q245.251 129.333 243.614 128.364Q241.988 127.384 241.068 125.565Q240.159 123.747 240.159 121.343Q240.159 118.949 241.068 117.131Q241.988 115.302 243.614 114.332Q245.251 113.363 247.321 113.363Q250.503 113.363 252.514 115.534Q254.524 117.706 254.524 121.343Q254.524 124.99 252.514 127.161Q250.503 129.333 247.321 129.333ZM247.321 125.939Q248.726 125.939 249.534 124.757Q250.342 123.575 250.342 121.343Q250.342 119.11 249.534 117.939Q248.726 116.757 247.321 116.757Q245.958 116.757 245.129 117.918Q244.301 119.07 244.301 121.343Q244.301 123.626 245.129 124.788Q245.958 125.939 247.321 125.939Z" fill="#737373" fill-opacity="1.000000" fill-rule="evenodd"/>
	<path id="15%" d="M316.645 370.038L316.645 399L309.938 399L309.938 375.413L304.149 375.413L304.149 370.038L316.645 370.038ZM331.622 380.918Q337.744 380.918 340.663 383.363Q343.583 385.797 343.583 389.898Q343.583 392.545 342.249 394.717Q340.926 396.889 338.219 398.192Q335.511 399.495 331.541 399.495Q328.47 399.495 325.511 398.687Q322.561 397.879 320.49 396.394L323.137 391.262Q324.793 392.505 326.945 393.192Q329.097 393.868 331.37 393.868Q333.895 393.868 335.34 392.878Q336.794 391.878 336.794 390.1Q336.794 388.242 335.279 387.292Q333.774 386.343 330.046 386.343L322.642 386.343L324.127 370.038L341.795 370.038L341.795 375.413L329.713 375.413L329.258 380.918L331.622 380.918ZM352.595 385.676Q349.413 385.676 347.403 383.504Q345.403 381.332 345.403 377.696Q345.403 374.049 347.403 371.877Q349.413 369.705 352.595 369.705Q355.787 369.705 357.767 371.877Q359.757 374.049 359.757 377.696Q359.757 381.332 357.767 383.504Q355.787 385.676 352.595 385.676ZM369.849 370.038L374.778 370.038L354.999 399L350.069 399L369.849 370.038ZM352.595 382.282Q354.009 382.282 354.807 381.13Q355.615 379.968 355.615 377.696Q355.615 375.413 354.807 374.261Q354.009 373.099 352.595 373.099Q351.231 373.099 350.403 374.281Q349.575 375.453 349.575 377.696Q349.575 379.928 350.403 381.11Q351.231 382.282 352.595 382.282ZM372.253 399.333Q370.182 399.333 368.545 398.364Q366.919 397.384 366 395.565Q365.091 393.747 365.091 391.343Q365.091 388.949 366 387.131Q366.919 385.302 368.545 384.332Q370.182 383.363 372.253 383.363Q375.435 383.363 377.445 385.534Q379.455 387.706 379.455 391.343Q379.455 394.99 377.445 397.161Q375.435 399.333 372.253 399.333ZM372.253 395.939Q373.657 395.939 374.465 394.757Q375.273 393.575 375.273 391.343Q375.273 389.11 374.465 387.939Q373.657 386.757 372.253 386.757Q370.889 386.757 370.061 387.918Q369.232 389.07 369.232 391.343Q369.232 393.626 370.061 394.788Q370.889 395.939 372.253 395.939Z" fill="#7CC700" fill-opacity="1.000000" fill-rule="evenodd"/>
	<path id="Rectangle 23" d="M492.992 321L569.433 321C581.185 321 590.712 330.527 590.712 342.279L590.712 491L471.712 491L471.712 342.279C471.712 330.527 481.24 321 492.992 321Z" fill="url(#paint_linear_76_3166_0)" fill-opacity="1.000000" fill-rule="evenodd"/>
	<path id="Rectangle 24" d="M621.992 428L698.433 428C710.185 428 719.712 437.527 719.712 449.279L719.712 491L600.712 491L600.712 449.279C600.712 437.527 610.24 428 621.992 428Z" fill="url(#paint_linear_76_3167_0)" fill-opacity="1.000000" fill-rule="evenodd"/>
	<path id="32%" d="M503.154 291.827Q506.963 292.453 508.983 294.666Q511.013 296.878 511.013 300.141Q511.013 302.666 509.69 304.798Q508.367 306.929 505.659 308.212Q502.952 309.495 499.023 309.495Q495.952 309.495 492.992 308.687Q490.042 307.879 487.971 306.394L490.578 301.262Q492.234 302.505 494.406 303.192Q496.578 303.868 498.851 303.868Q501.376 303.868 502.821 302.899Q504.276 301.929 504.276 300.141Q504.276 296.585 498.851 296.585L495.79 296.585L495.79 292.16L501.75 285.413L489.416 285.413L489.416 280.038L509.69 280.038L509.69 284.382L503.154 291.827ZM535.554 303.535L535.554 309L513.664 309L513.664 304.656L524.836 294.1Q526.614 292.413 527.23 291.191Q527.856 289.968 527.856 288.766Q527.856 287.029 526.675 286.099Q525.503 285.17 523.22 285.17Q521.321 285.17 519.785 285.897Q518.26 286.615 517.219 288.059L512.34 284.918Q514.037 282.392 517.017 280.968Q519.997 279.543 523.846 279.543Q527.069 279.543 529.493 280.604Q531.917 281.655 533.261 283.574Q534.604 285.493 534.604 288.11Q534.604 290.463 533.604 292.534Q532.614 294.605 529.766 297.252L523.099 303.535L535.554 303.535ZM545.439 295.676Q542.257 295.676 540.247 293.504Q538.247 291.332 538.247 287.696Q538.247 284.049 540.247 281.877Q542.257 279.705 545.439 279.705Q548.632 279.705 550.612 281.877Q552.602 284.049 552.602 287.696Q552.602 291.332 550.612 293.504Q548.632 295.676 545.439 295.676ZM562.693 280.038L567.623 280.038L547.844 309L542.914 309L562.693 280.038ZM545.439 292.282Q546.854 292.282 547.652 291.13Q548.46 289.968 548.46 287.696Q548.46 285.413 547.652 284.261Q546.854 283.099 545.439 283.099Q544.076 283.099 543.247 284.281Q542.419 285.453 542.419 287.696Q542.419 289.928 543.247 291.11Q544.076 292.282 545.439 292.282ZM565.097 309.333Q563.026 309.333 561.39 308.364Q559.764 307.384 558.844 305.565Q557.935 303.747 557.935 301.343Q557.935 298.949 558.844 297.131Q559.764 295.302 561.39 294.332Q563.026 293.363 565.097 293.363Q568.279 293.363 570.29 295.534Q572.3 297.706 572.3 301.343Q572.3 304.99 570.29 307.161Q568.279 309.333 565.097 309.333ZM565.097 305.939Q566.501 305.939 567.31 304.757Q568.118 303.575 568.118 301.343Q568.118 299.11 567.31 297.939Q566.501 296.757 565.097 296.757Q563.734 296.757 562.905 297.918Q562.077 299.07 562.077 301.343Q562.077 303.626 562.905 304.788Q563.734 305.939 565.097 305.939Z" fill="#737373" fill-opacity="1.000000" fill-rule="evenodd"/>
	<path id="11%" d="M639.638 385.038L639.638 414L632.93 414L632.93 390.413L627.142 390.413L627.142 385.038L639.638 385.038ZM655.858 385.038L655.858 414L649.15 414L649.15 390.413L643.362 390.413L643.362 385.038L655.858 385.038ZM667.602 400.676Q664.42 400.676 662.41 398.504Q660.41 396.332 660.41 392.696Q660.41 389.049 662.41 386.877Q664.42 384.705 667.602 384.705Q670.794 384.705 672.774 386.877Q674.764 389.049 674.764 392.696Q674.764 396.332 672.774 398.504Q670.794 400.676 667.602 400.676ZM684.856 385.038L689.785 385.038L670.006 414L665.077 414L684.856 385.038ZM667.602 397.282Q669.016 397.282 669.814 396.13Q670.622 394.968 670.622 392.696Q670.622 390.413 669.814 389.261Q669.016 388.099 667.602 388.099Q666.238 388.099 665.41 389.281Q664.582 390.453 664.582 392.696Q664.582 394.928 665.41 396.11Q666.238 397.282 667.602 397.282ZM687.26 414.333Q685.189 414.333 683.553 413.364Q681.926 412.384 681.007 410.565Q680.098 408.747 680.098 406.343Q680.098 403.949 681.007 402.131Q681.926 400.302 683.553 399.332Q685.189 398.363 687.26 398.363Q690.442 398.363 692.452 400.534Q694.462 402.706 694.462 406.343Q694.462 409.99 692.452 412.161Q690.442 414.333 687.26 414.333ZM687.26 410.939Q688.664 410.939 689.472 409.757Q690.28 408.575 690.28 406.343Q690.28 404.11 689.472 402.939Q688.664 401.757 687.26 401.757Q685.896 401.757 685.068 402.918Q684.24 404.07 684.24 406.343Q684.24 408.626 685.068 409.788Q685.896 410.939 687.26 410.939Z" fill="#7CC700" fill-opacity="1.000000" fill-rule="evenodd"/>
	<path id="Rectangle 23" d="M811.992 360L888.433 360C900.185 360 909.712 369.527 909.712 381.279L909.712 491L790.712 491L790.712 381.279C790.712 369.527 800.24 360 811.992 360Z" fill="url(#paint_linear_76_3171_0)" fill-opacity="1.000000" fill-rule="evenodd"/>
	<path id="Rectangle 24" d="M940.992 428L1017.43 428C1029.19 428 1038.71 437.527 1038.71 449.279L1038.71 491L919.712 491L919.712 449.279C919.712 437.527 929.24 428 940.992 428Z" fill="url(#paint_linear_76_3172_0)" fill-opacity="1.000000" fill-rule="evenodd"/>
	<path id="25%" d="M831.014 340.535L831.014 346L809.124 346L809.124 341.656L820.296 331.1Q822.074 329.413 822.69 328.191Q823.317 326.968 823.317 325.766Q823.317 324.029 822.135 323.099Q820.963 322.17 818.68 322.17Q816.781 322.17 815.245 322.897Q813.72 323.615 812.68 325.059L807.8 321.918Q809.498 319.392 812.478 317.968Q815.458 316.543 819.306 316.543Q822.529 316.543 824.953 317.604Q827.378 318.655 828.721 320.574Q830.065 322.493 830.065 325.11Q830.065 327.463 829.065 329.534Q828.075 331.605 825.226 334.252L818.559 340.535L831.014 340.535ZM843.718 327.918Q849.84 327.918 852.759 330.363Q855.679 332.797 855.679 336.898Q855.679 339.545 854.345 341.717Q853.022 343.889 850.315 345.192Q847.608 346.495 843.638 346.495Q840.567 346.495 837.607 345.687Q834.657 344.879 832.586 343.394L835.233 338.262Q836.89 339.505 839.041 340.192Q841.193 340.868 843.466 340.868Q845.991 340.868 847.436 339.878Q848.891 338.878 848.891 337.1Q848.891 335.242 847.375 334.292Q845.87 333.343 842.143 333.343L834.738 333.343L836.223 317.038L853.891 317.038L853.891 322.413L841.809 322.413L841.355 327.918L843.718 327.918ZM864.691 332.676Q861.509 332.676 859.499 330.504Q857.499 328.332 857.499 324.696Q857.499 321.049 859.499 318.877Q861.509 316.705 864.691 316.705Q867.883 316.705 869.863 318.877Q871.853 321.049 871.853 324.696Q871.853 328.332 869.863 330.504Q867.883 332.676 864.691 332.676ZM881.945 317.038L886.875 317.038L867.095 346L862.166 346L881.945 317.038ZM864.691 329.282Q866.105 329.282 866.903 328.13Q867.712 326.968 867.712 324.696Q867.712 322.413 866.903 321.261Q866.105 320.099 864.691 320.099Q863.327 320.099 862.499 321.281Q861.671 322.453 861.671 324.696Q861.671 326.928 862.499 328.11Q863.327 329.282 864.691 329.282ZM884.349 346.333Q882.278 346.333 880.642 345.364Q879.015 344.384 878.096 342.565Q877.187 340.747 877.187 338.343Q877.187 335.949 878.096 334.131Q879.015 332.302 880.642 331.332Q882.278 330.363 884.349 330.363Q887.531 330.363 889.541 332.534Q891.552 334.706 891.552 338.343Q891.552 341.99 889.541 344.161Q887.531 346.333 884.349 346.333ZM884.349 342.939Q885.753 342.939 886.561 341.757Q887.37 340.575 887.37 338.343Q887.37 336.11 886.561 334.939Q885.753 333.757 884.349 333.757Q882.985 333.757 882.157 334.918Q881.329 336.07 881.329 338.343Q881.329 340.626 882.157 341.788Q882.985 342.939 884.349 342.939Z" fill="#737373" fill-opacity="1.000000" fill-rule="evenodd"/>
	<path id="11%" d="M958.638 380.038L958.638 409L951.93 409L951.93 385.413L946.142 385.413L946.142 380.038L958.638 380.038ZM974.858 380.038L974.858 409L968.15 409L968.15 385.413L962.362 385.413L962.362 380.038L974.858 380.038ZM986.602 395.676Q983.42 395.676 981.41 393.504Q979.41 391.332 979.41 387.696Q979.41 384.049 981.41 381.877Q983.42 379.705 986.602 379.705Q989.794 379.705 991.774 381.877Q993.764 384.049 993.764 387.696Q993.764 391.332 991.774 393.504Q989.794 395.676 986.602 395.676ZM1003.86 380.038L1008.79 380.038L989.006 409L984.077 409L1003.86 380.038ZM986.602 392.282Q988.016 392.282 988.814 391.13Q989.622 389.968 989.622 387.696Q989.622 385.413 988.814 384.261Q988.016 383.099 986.602 383.099Q985.238 383.099 984.41 384.281Q983.582 385.453 983.582 387.696Q983.582 389.928 984.41 391.11Q985.238 392.282 986.602 392.282ZM1006.26 409.333Q1004.19 409.333 1002.55 408.364Q1000.93 407.384 1000.01 405.565Q999.098 403.747 999.098 401.343Q999.098 398.949 1000.01 397.131Q1000.93 395.302 1002.55 394.332Q1004.19 393.363 1006.26 393.363Q1009.44 393.363 1011.45 395.534Q1013.46 397.706 1013.46 401.343Q1013.46 404.99 1011.45 407.161Q1009.44 409.333 1006.26 409.333ZM1006.26 405.939Q1007.66 405.939 1008.47 404.757Q1009.28 403.575 1009.28 401.343Q1009.28 399.11 1008.47 397.939Q1007.66 396.757 1006.26 396.757Q1004.9 396.757 1004.07 397.918Q1003.24 399.07 1003.24 401.343Q1003.24 403.626 1004.07 404.788Q1004.9 405.939 1006.26 405.939Z" fill="#7CC700" fill-opacity="1.000000" fill-rule="evenodd"/>
	<path id="Rectangle 23" d="M1130.99 312L1207.43 312C1219.19 312 1228.71 321.527 1228.71 333.279L1228.71 491L1109.71 491L1109.71 333.279C1109.71 321.527 1119.24 312 1130.99 312Z" fill="url(#paint_linear_76_3176_0)" fill-opacity="1.000000" fill-rule="evenodd"/>
	<path id="Rectangle 24" d="M1259.99 414L1336.43 414C1348.19 414 1357.71 423.527 1357.71 435.279L1357.71 491L1238.71 491L1238.71 435.279C1238.71 423.527 1248.24 414 1259.99 414Z" fill="url(#paint_linear_76_3177_0)" fill-opacity="1.000000" fill-rule="evenodd"/>
	<path id="35%" d="M1142.07 284.827Q1145.88 285.453 1147.9 287.666Q1149.93 289.878 1149.93 293.141Q1149.93 295.666 1148.6 297.798Q1147.28 299.929 1144.57 301.212Q1141.87 302.495 1137.94 302.495Q1134.87 302.495 1131.91 301.687Q1128.96 300.879 1126.89 299.394L1129.49 294.262Q1131.15 295.505 1133.32 296.192Q1135.49 296.868 1137.76 296.868Q1140.29 296.868 1141.73 295.899Q1143.19 294.929 1143.19 293.141Q1143.19 289.585 1137.76 289.585L1134.7 289.585L1134.7 285.16L1140.66 278.413L1128.33 278.413L1128.33 273.038L1148.6 273.038L1148.6 277.382L1142.07 284.827ZM1162.55 283.918Q1168.67 283.918 1171.59 286.363Q1174.51 288.797 1174.51 292.898Q1174.51 295.545 1173.18 297.717Q1171.86 299.889 1169.15 301.192Q1166.44 302.495 1162.47 302.495Q1159.4 302.495 1156.44 301.687Q1153.49 300.879 1151.42 299.394L1154.07 294.262Q1155.72 295.505 1157.88 296.192Q1160.03 296.868 1162.3 296.868Q1164.83 296.868 1166.27 295.878Q1167.72 294.878 1167.72 293.1Q1167.72 291.242 1166.21 290.292Q1164.7 289.343 1160.98 289.343L1153.57 289.343L1155.06 273.038L1172.73 273.038L1172.73 278.413L1160.64 278.413L1160.19 283.918L1162.55 283.918ZM1183.53 288.676Q1180.34 288.676 1178.33 286.504Q1176.33 284.332 1176.33 280.696Q1176.33 277.049 1178.33 274.877Q1180.34 272.705 1183.53 272.705Q1186.72 272.705 1188.7 274.877Q1190.69 277.049 1190.69 280.696Q1190.69 284.332 1188.7 286.504Q1186.72 288.676 1183.53 288.676ZM1200.78 273.038L1205.71 273.038L1185.93 302L1181 302L1200.78 273.038ZM1183.53 285.282Q1184.94 285.282 1185.74 284.13Q1186.55 282.968 1186.55 280.696Q1186.55 278.413 1185.74 277.261Q1184.94 276.099 1183.53 276.099Q1182.16 276.099 1181.33 277.281Q1180.51 278.453 1180.51 280.696Q1180.51 282.928 1181.33 284.11Q1182.16 285.282 1183.53 285.282ZM1203.18 302.333Q1201.11 302.333 1199.48 301.364Q1197.85 300.384 1196.93 298.565Q1196.02 296.747 1196.02 294.343Q1196.02 291.949 1196.93 290.131Q1197.85 288.302 1199.48 287.332Q1201.11 286.363 1203.18 286.363Q1206.37 286.363 1208.38 288.534Q1210.39 290.706 1210.39 294.343Q1210.39 297.99 1208.38 300.161Q1206.37 302.333 1203.18 302.333ZM1203.18 298.939Q1204.59 298.939 1205.4 297.757Q1206.2 296.575 1206.2 294.343Q1206.2 292.11 1205.4 290.939Q1204.59 289.757 1203.18 289.757Q1201.82 289.757 1200.99 290.918Q1200.16 292.07 1200.16 294.343Q1200.16 296.626 1200.99 297.788Q1201.82 298.939 1203.18 298.939Z" fill="#737373" fill-opacity="1.000000" fill-rule="evenodd"/>
	<path id="15%" d="M1273.65 365.038L1273.65 394L1266.94 394L1266.94 370.413L1261.15 370.413L1261.15 365.038L1273.65 365.038ZM1288.62 375.918Q1294.74 375.918 1297.66 378.363Q1300.58 380.797 1300.58 384.898Q1300.58 387.545 1299.25 389.717Q1297.93 391.889 1295.22 393.192Q1292.51 394.495 1288.54 394.495Q1285.47 394.495 1282.51 393.687Q1279.56 392.879 1277.49 391.394L1280.14 386.262Q1281.79 387.505 1283.95 388.192Q1286.1 388.868 1288.37 388.868Q1290.9 388.868 1292.34 387.878Q1293.79 386.878 1293.79 385.1Q1293.79 383.242 1292.28 382.292Q1290.77 381.343 1287.05 381.343L1279.64 381.343L1281.13 365.038L1298.79 365.038L1298.79 370.413L1286.71 370.413L1286.26 375.918L1288.62 375.918ZM1309.59 380.676Q1306.41 380.676 1304.4 378.504Q1302.4 376.332 1302.4 372.696Q1302.4 369.049 1304.4 366.877Q1306.41 364.705 1309.59 364.705Q1312.79 364.705 1314.77 366.877Q1316.76 369.049 1316.76 372.696Q1316.76 376.332 1314.77 378.504Q1312.79 380.676 1309.59 380.676ZM1326.85 365.038L1331.78 365.038L1312 394L1307.07 394L1326.85 365.038ZM1309.59 377.282Q1311.01 377.282 1311.81 376.13Q1312.62 374.968 1312.62 372.696Q1312.62 370.413 1311.81 369.261Q1311.01 368.099 1309.59 368.099Q1308.23 368.099 1307.4 369.281Q1306.57 370.453 1306.57 372.696Q1306.57 374.928 1307.4 376.11Q1308.23 377.282 1309.59 377.282ZM1329.25 394.333Q1327.18 394.333 1325.55 393.364Q1323.92 392.384 1323 390.565Q1322.09 388.747 1322.09 386.343Q1322.09 383.949 1323 382.131Q1323.92 380.302 1325.55 379.332Q1327.18 378.363 1329.25 378.363Q1332.43 378.363 1334.45 380.534Q1336.46 382.706 1336.46 386.343Q1336.46 389.99 1334.45 392.161Q1332.43 394.333 1329.25 394.333ZM1329.25 390.939Q1330.66 390.939 1331.47 389.757Q1332.27 388.575 1332.27 386.343Q1332.27 384.11 1331.47 382.939Q1330.66 381.757 1329.25 381.757Q1327.89 381.757 1327.06 382.918Q1326.23 384.07 1326.23 386.343Q1326.23 388.626 1327.06 389.788Q1327.89 390.939 1329.25 390.939Z" fill="#7CC700" fill-opacity="1.000000" fill-rule="evenodd"/>
	<path id="Rectangle 23" d="M1449.99 56L1526.43 56C1538.19 56 1547.71 65.5271 1547.71 77.2793L1547.71 491L1428.71 491L1428.71 77.2793C1428.71 65.5271 1438.24 56 1449.99 56Z" fill="url(#paint_linear_76_3181_0)" fill-opacity="1.000000" fill-rule="evenodd"/>
	<path id="Rectangle 24" d="M1578.99 394L1655.43 394C1667.19 394 1676.71 403.527 1676.71 415.279L1676.71 491L1557.71 491L1557.71 415.279C1557.71 403.527 1567.24 394 1578.99 394Z" fill="url(#paint_linear_76_3182_0)" fill-opacity="1.000000" fill-rule="evenodd"/>
	<path id="81%" d="M1469.24 28.7768Q1471.39 29.8475 1472.52 31.585Q1473.67 33.3225 1473.67 35.6055Q1473.67 38.2925 1472.13 40.3028Q1470.6 42.3029 1467.83 43.404Q1465.06 44.495 1461.42 44.495Q1457.78 44.495 1455.02 43.404Q1452.27 42.3029 1450.75 40.3028Q1449.25 38.2925 1449.25 35.6055Q1449.25 33.3225 1450.39 31.585Q1451.53 29.8475 1453.64 28.7768Q1452.03 27.7767 1451.16 26.2715Q1450.29 24.7563 1450.29 22.8168Q1450.29 20.2913 1451.69 18.4326Q1453.1 16.5638 1455.62 15.5536Q1458.15 14.5435 1461.42 14.5435Q1464.73 14.5435 1467.27 15.5536Q1469.82 16.5638 1471.22 18.4326Q1472.63 20.2913 1472.63 22.8168Q1472.63 24.7563 1471.77 26.2715Q1470.9 27.7767 1469.24 28.7768ZM1461.42 19.463Q1459.39 19.463 1458.17 20.4429Q1456.95 21.4126 1456.95 23.1097Q1456.95 24.7563 1458.15 25.7159Q1459.35 26.6655 1461.42 26.6655Q1463.48 26.6655 1464.73 25.7159Q1465.97 24.7563 1465.97 23.1097Q1465.97 21.4126 1464.73 20.4429Q1463.48 19.463 1461.42 19.463ZM1461.42 39.5755Q1463.94 39.5755 1465.4 38.434Q1466.88 37.2925 1466.88 35.3934Q1466.88 33.4942 1465.4 32.373Q1463.94 31.2517 1461.42 31.2517Q1458.94 31.2517 1457.48 32.373Q1456.04 33.4942 1456.04 35.3934Q1456.04 37.343 1457.48 38.4643Q1458.94 39.5755 1461.42 39.5755ZM1487.9 15.0385L1487.9 44L1481.19 44L1481.19 20.4126L1475.41 20.4126L1475.41 15.0385L1487.9 15.0385ZM1499.65 30.6759Q1496.46 30.6759 1494.45 28.504Q1492.45 26.3321 1492.45 22.6955Q1492.45 19.0488 1494.45 16.877Q1496.46 14.7051 1499.65 14.7051Q1502.84 14.7051 1504.82 16.877Q1506.81 19.0488 1506.81 22.6955Q1506.81 26.3321 1504.82 28.504Q1502.84 30.6759 1499.65 30.6759ZM1516.9 15.0385L1521.83 15.0385L1502.05 44L1497.12 44L1516.9 15.0385ZM1499.65 27.2817Q1501.06 27.2817 1501.86 26.1301Q1502.67 24.9684 1502.67 22.6955Q1502.67 20.4126 1501.86 19.261Q1501.06 18.0993 1499.65 18.0993Q1498.28 18.0993 1497.45 19.2812Q1496.63 20.453 1496.63 22.6955Q1496.63 24.928 1497.45 26.1099Q1498.28 27.2817 1499.65 27.2817ZM1519.3 44.3334Q1517.23 44.3334 1515.6 43.3636Q1513.97 42.3837 1513.05 40.5654Q1512.14 38.7471 1512.14 36.3429Q1512.14 33.9488 1513.05 32.1305Q1513.97 30.3021 1515.6 29.3323Q1517.23 28.3626 1519.3 28.3626Q1522.49 28.3626 1524.5 30.5344Q1526.51 32.7063 1526.51 36.3429Q1526.51 39.9896 1524.5 42.1615Q1522.49 44.3334 1519.3 44.3334ZM1519.3 40.9392Q1520.71 40.9392 1521.52 39.7573Q1522.32 38.5754 1522.32 36.3429Q1522.32 34.1104 1521.52 32.9387Q1520.71 31.7568 1519.3 31.7568Q1517.94 31.7568 1517.11 32.9184Q1516.28 34.07 1516.28 36.3429Q1516.28 38.6259 1517.11 39.7876Q1517.94 40.9392 1519.3 40.9392Z" fill="#737373" fill-opacity="1.000000" fill-rule="evenodd"/>
	<path id="19%" d="M1591.57 351.038L1591.57 380L1584.86 380L1584.86 356.413L1579.07 356.413L1579.07 351.038L1591.57 351.038ZM1606.79 350.543Q1612.87 350.543 1616.3 354.251Q1619.74 357.948 1619.74 364.898Q1619.74 369.818 1617.9 373.343Q1616.06 376.858 1612.71 378.677Q1609.35 380.495 1604.97 380.495Q1602.66 380.495 1600.55 379.98Q1598.43 379.465 1596.95 378.515L1599.42 373.585Q1601.54 375.03 1604.85 375.03Q1608.53 375.03 1610.68 372.858Q1612.83 370.686 1613 366.595Q1610.4 369.201 1605.8 369.201Q1603.03 369.201 1600.75 368.09Q1598.48 366.969 1597.15 364.918Q1595.83 362.868 1595.83 360.18Q1595.83 357.281 1597.27 355.089Q1598.73 352.897 1601.22 351.725Q1603.73 350.543 1606.79 350.543ZM1607.29 364.191Q1609.49 364.191 1610.87 362.979Q1612.25 361.756 1612.25 359.847Q1612.25 357.948 1610.91 356.746Q1609.57 355.544 1607.2 355.544Q1605.05 355.544 1603.71 356.706Q1602.36 357.867 1602.36 359.847Q1602.36 361.837 1603.71 363.019Q1605.05 364.191 1607.29 364.191ZM1629.67 366.676Q1626.49 366.676 1624.48 364.504Q1622.48 362.332 1622.48 358.696Q1622.48 355.049 1624.48 352.877Q1626.49 350.705 1629.67 350.705Q1632.86 350.705 1634.84 352.877Q1636.83 355.049 1636.83 358.696Q1636.83 362.332 1634.84 364.504Q1632.86 366.676 1629.67 366.676ZM1646.92 351.038L1651.85 351.038L1632.07 380L1627.15 380L1646.92 351.038ZM1629.67 363.282Q1631.08 363.282 1631.88 362.13Q1632.69 360.968 1632.69 358.696Q1632.69 356.413 1631.88 355.261Q1631.08 354.099 1629.67 354.099Q1628.31 354.099 1627.48 355.281Q1626.65 356.453 1626.65 358.696Q1626.65 360.928 1627.48 362.11Q1628.31 363.282 1629.67 363.282ZM1649.33 380.333Q1647.26 380.333 1645.62 379.364Q1643.99 378.384 1643.08 376.565Q1642.17 374.747 1642.17 372.343Q1642.17 369.949 1643.08 368.131Q1643.99 366.302 1645.62 365.332Q1647.26 364.363 1649.33 364.363Q1652.51 364.363 1654.52 366.534Q1656.53 368.706 1656.53 372.343Q1656.53 375.99 1654.52 378.161Q1652.51 380.333 1649.33 380.333ZM1649.33 376.939Q1650.73 376.939 1651.54 375.757Q1652.35 374.575 1652.35 372.343Q1652.35 370.11 1651.54 368.939Q1650.73 367.757 1649.33 367.757Q1647.96 367.757 1647.14 368.918Q1646.31 370.07 1646.31 372.343Q1646.31 374.626 1647.14 375.788Q1647.96 376.939 1649.33 376.939Z" fill="#7CC700" fill-opacity="1.000000" fill-rule="evenodd"/>
	<path id="Line 8" d="M100.365 440L88.543 440" stroke="#000000" stroke-opacity="1.000000" stroke-width="1.182186" stroke-linecap="round"/>
	<path id="Line 9" d="M100.365 387L88.543 387" stroke="#000000" stroke-opacity="1.000000" stroke-width="1.182186" stroke-linecap="round"/>
	<path id="Line 10" d="M100.365 334L88.543 334" stroke="#000000" stroke-opacity="1.000000" stroke-width="1.182186" stroke-linecap="round"/>
	<path id="Line 11" d="M100.365 281L88.543 281" stroke="#000000" stroke-opacity="1.000000" stroke-width="1.182186" stroke-linecap="round"/>
	<path id="Line 12" d="M100.365 228L88.543 228" stroke="#000000" stroke-opacity="1.000000" stroke-width="1.182186" stroke-linecap="round"/>
	<path id="Line 13" d="M100.365 175L88.543 175" stroke="#000000" stroke-opacity="1.000000" stroke-width="1.182186" stroke-linecap="round"/>
	<path id="Line 14" d="M100.365 122L88.543 122" stroke="#000000" stroke-opacity="1.000000" stroke-width="1.182186" stroke-linecap="round"/>
	<path id="Line 15" d="M100.365 69L88.543 69" stroke="#000000" stroke-opacity="1.000000" stroke-width="1.182186" stroke-linecap="round"/>
	<path id="головний біль" d="M189.346 549.378L183.102 549.378L183.119 560L180.817 560L180.817 547.401L189.364 547.401L189.346 549.378ZM195.716 560.18Q193.791 560.18 192.244 559.345Q190.698 558.506 189.814 557.021Q188.931 555.535 188.931 553.698Q188.931 551.866 189.814 550.38Q190.698 548.895 192.244 548.06Q193.791 547.221 195.716 547.221Q197.645 547.221 199.192 548.06Q200.739 548.895 201.622 550.372Q202.506 551.848 202.506 553.698Q202.506 555.553 201.622 557.029Q200.739 558.506 199.192 559.345Q197.645 560.18 195.716 560.18ZM195.716 558.128Q196.977 558.128 197.984 557.561Q198.994 556.994 199.57 555.979Q200.146 554.959 200.146 553.698Q200.146 552.441 199.57 551.426Q198.994 550.407 197.984 549.84Q196.977 549.273 195.716 549.273Q194.459 549.273 193.449 549.84Q192.442 550.407 191.867 551.426Q191.291 552.441 191.291 553.698Q191.291 554.959 191.867 555.979Q192.442 556.994 193.449 557.561Q194.459 558.128 195.716 558.128ZM215.501 547.401L215.501 560L213.198 560L213.198 549.378L208.228 549.378L208.118 552.529Q208.031 555.175 207.688 556.823Q207.345 558.471 206.589 559.328Q205.833 560.18 204.502 560.18Q204.036 560.18 203.223 560L203.385 557.965Q203.618 558.04 203.926 558.04Q205.025 558.04 205.482 556.735Q205.943 555.43 206.049 552.622L206.229 547.401L215.501 547.401ZM224.876 560.18Q222.951 560.18 221.404 559.345Q219.858 558.506 218.974 557.021Q218.091 555.535 218.091 553.698Q218.091 551.866 218.974 550.38Q219.858 548.895 221.404 548.06Q222.951 547.221 224.876 547.221Q226.805 547.221 228.352 548.06Q229.899 548.895 230.782 550.372Q231.666 551.848 231.666 553.698Q231.666 555.553 230.782 557.029Q229.899 558.506 228.352 559.345Q226.805 560.18 224.876 560.18ZM224.876 558.128Q226.137 558.128 227.144 557.561Q228.154 556.994 228.73 555.979Q229.306 554.959 229.306 553.698Q229.306 552.441 228.73 551.426Q228.154 550.407 227.144 549.84Q226.137 549.273 224.876 549.273Q223.619 549.273 222.609 549.84Q221.602 550.407 221.027 551.426Q220.451 552.441 220.451 553.698Q220.451 554.959 221.027 555.979Q221.602 556.994 222.609 557.561Q223.619 558.128 224.876 558.128ZM242.556 553.448Q243.76 553.773 244.388 554.555Q245.021 555.337 245.021 556.506Q245.021 558.163 243.795 559.082Q242.573 560 240.249 560L234.277 560L234.277 547.401L239.91 547.401Q242.033 547.401 243.219 548.249Q244.41 549.093 244.41 550.64Q244.41 551.628 243.931 552.349Q243.452 553.07 242.556 553.448ZM236.579 552.784L239.708 552.784Q240.846 552.784 241.44 552.336Q242.033 551.883 242.033 551Q242.033 550.117 241.44 549.66Q240.846 549.198 239.708 549.198L236.579 549.198L236.579 552.784ZM240.178 558.198Q242.661 558.198 242.661 556.326Q242.661 554.494 240.178 554.494L236.579 554.494L236.579 558.198L240.178 558.198ZM258.88 547.401L258.88 560L256.538 560L256.538 554.599L250.025 554.599L250.025 560L247.683 560L247.683 547.401L250.025 547.401L250.025 552.604L256.538 552.604L256.538 547.401L258.88 547.401ZM262.429 547.401L264.731 547.401L264.731 556.348L271.499 547.401L273.674 547.401L273.674 560L271.371 560L271.371 551.07L264.604 560L262.429 560L262.429 547.401ZM277.225 547.401L279.527 547.401L279.527 556.348L286.295 547.401L288.47 547.401L288.47 560L286.167 560L286.167 551.07L279.4 560L277.225 560L277.225 547.401ZM282.819 546.553Q281.202 546.553 280.38 545.889Q279.562 545.221 279.545 543.942L281.18 543.942Q281.202 544.61 281.615 544.971Q282.028 545.331 282.819 545.331Q283.592 545.331 284.032 544.971Q284.476 544.61 284.493 543.942L286.115 543.942Q286.097 545.204 285.258 545.88Q284.423 546.553 282.819 546.553ZM296.989 547.401L306.797 547.401L306.797 549.326L299.291 549.326L299.291 552.424L303.018 552.424Q305.285 552.424 306.463 553.369Q307.641 554.313 307.641 556.093Q307.641 557.965 306.345 558.985Q305.053 560 302.658 560L296.989 560L296.989 547.401ZM302.53 558.198Q303.879 558.198 304.582 557.68Q305.285 557.157 305.285 556.168Q305.285 554.221 302.53 554.221L299.291 554.221L299.291 558.198L302.53 558.198ZM310.219 547.401L312.521 547.401L312.521 560L310.219 560L310.219 547.401ZM326.705 547.401L326.705 560L324.402 560L324.402 549.378L319.432 549.378L319.322 552.529Q319.234 555.175 318.892 556.823Q318.549 558.471 317.793 559.328Q317.037 560.18 315.706 560.18Q315.24 560.18 314.427 560L314.589 557.965Q314.822 558.04 315.13 558.04Q316.229 558.04 316.686 556.735Q317.147 555.43 317.253 552.622L317.433 547.401L326.705 547.401ZM336.063 551.668Q338.335 551.668 339.547 552.683Q340.76 553.698 340.76 555.698Q340.76 557.785 339.429 558.893Q338.097 560 335.685 560L330.271 560L330.271 547.401L332.573 547.401L332.573 551.668L336.063 551.668ZM335.579 558.198Q336.946 558.198 337.684 557.57Q338.422 556.941 338.422 555.733Q338.422 553.448 335.579 553.448L332.573 553.448L332.573 558.198L335.579 558.198Z" fill="#000000" fill-opacity="1.000000" fill-rule="evenodd"/>
	<path id="запаморочення" d="M487.189 553.43Q488.322 553.791 488.96 554.59Q489.601 555.39 489.601 556.471Q489.601 557.605 488.863 558.444Q488.125 559.279 486.89 559.732Q485.659 560.18 484.2 560.18Q482.939 560.18 481.669 559.829Q480.403 559.477 479.322 558.774L480.078 557.064Q480.904 557.623 481.911 557.921Q482.921 558.216 483.91 558.216Q485.334 558.216 486.279 557.662Q487.224 557.104 487.224 556.128Q487.224 555.302 486.538 554.872Q485.857 554.437 484.649 554.437L481.717 554.437L481.717 552.604L484.468 552.604Q485.514 552.604 486.108 552.173Q486.701 551.738 486.701 551Q486.701 550.117 485.901 549.633Q485.101 549.146 483.858 549.146Q483.009 549.146 482.108 549.392Q481.212 549.633 480.421 550.099L479.683 548.209Q480.654 547.687 481.744 547.427Q482.834 547.168 483.91 547.168Q485.316 547.168 486.494 547.599Q487.672 548.029 488.375 548.833Q489.078 549.633 489.078 550.71Q489.078 551.646 488.573 552.349Q488.067 553.052 487.189 553.43ZM500.598 557.082L494.296 557.082L493.052 560L490.644 560L496.313 547.401L498.616 547.401L504.302 560L501.854 560L500.598 557.082ZM499.82 555.25L497.447 549.739L495.087 555.25L499.82 555.25ZM517.392 547.401L517.392 560L515.089 560L515.089 549.378L508.554 549.378L508.554 560L506.252 560L506.252 547.401L517.392 547.401ZM529.29 557.082L522.988 557.082L521.744 560L519.336 560L525.005 547.401L527.308 547.401L532.994 560L530.546 560L529.29 557.082ZM528.512 555.25L526.139 549.739L523.779 555.25L528.512 555.25ZM546.497 560L546.479 551.646L542.34 558.559L541.294 558.559L537.154 551.756L537.154 560L534.944 560L534.944 547.401L536.868 547.401L541.852 555.733L546.787 547.401L548.694 547.401L548.729 560L546.497 560ZM558.087 560.18Q556.162 560.18 554.615 559.345Q553.069 558.506 552.185 557.021Q551.302 555.535 551.302 553.698Q551.302 551.866 552.185 550.38Q553.069 548.895 554.615 548.06Q556.162 547.221 558.087 547.221Q560.016 547.221 561.563 548.06Q563.11 548.895 563.993 550.372Q564.877 551.848 564.877 553.698Q564.877 555.553 563.993 557.029Q563.11 558.506 561.563 559.345Q560.016 560.18 558.087 560.18ZM558.087 558.128Q559.348 558.128 560.355 557.561Q561.365 556.994 561.941 555.979Q562.517 554.959 562.517 553.698Q562.517 552.441 561.941 551.426Q561.365 550.407 560.355 549.84Q559.348 549.273 558.087 549.273Q556.83 549.273 555.82 549.84Q554.813 550.407 554.238 551.426Q553.662 552.441 553.662 553.698Q553.662 554.959 554.238 555.979Q554.813 556.994 555.82 557.561Q556.83 558.128 558.087 558.128ZM572.651 547.401Q574.286 547.401 575.499 547.941Q576.716 548.482 577.362 549.488Q578.013 550.495 578.013 551.883Q578.013 553.25 577.362 554.27Q576.716 555.285 575.499 555.825Q574.286 556.366 572.651 556.366L569.808 556.366L569.808 560L567.466 560L567.466 547.401L572.651 547.401ZM572.541 554.384Q574.071 554.384 574.862 553.738Q575.657 553.087 575.657 551.883Q575.657 550.675 574.862 550.029Q574.071 549.378 572.541 549.378L569.808 549.378L569.808 554.384L572.541 554.384ZM586.239 560.18Q584.314 560.18 582.767 559.345Q581.221 558.506 580.337 557.021Q579.454 555.535 579.454 553.698Q579.454 551.866 580.337 550.38Q581.221 548.895 582.767 548.06Q584.314 547.221 586.239 547.221Q588.168 547.221 589.715 548.06Q591.262 548.895 592.145 550.372Q593.029 551.848 593.029 553.698Q593.029 555.553 592.145 557.029Q591.262 558.506 589.715 559.345Q588.168 560.18 586.239 560.18ZM586.239 558.128Q587.5 558.128 588.507 557.561Q589.517 556.994 590.093 555.979Q590.669 554.959 590.669 553.698Q590.669 552.441 590.093 551.426Q589.517 550.407 588.507 549.84Q587.5 549.273 586.239 549.273Q584.982 549.273 583.972 549.84Q582.965 550.407 582.39 551.426Q581.814 552.441 581.814 553.698Q581.814 554.959 582.39 555.979Q582.965 556.994 583.972 557.561Q584.982 558.128 586.239 558.128ZM605.178 547.401L605.178 560L602.853 560L602.853 555.25Q601.074 555.913 599.47 555.913Q597.061 555.913 595.756 554.753Q594.451 553.593 594.451 551.413L594.451 547.401L596.771 547.401L596.771 551.163Q596.771 552.494 597.545 553.197Q598.318 553.896 599.76 553.896Q601.399 553.896 602.853 553.232L602.853 547.401L605.178 547.401ZM618.152 558.04L618.152 560L608.704 560L608.704 547.401L617.901 547.401L617.901 549.361L611.046 549.361L611.046 552.639L617.128 552.639L617.128 554.564L611.046 554.564L611.046 558.04L618.152 558.04ZM631.961 547.401L631.961 560L629.619 560L629.619 554.599L623.106 554.599L623.106 560L620.764 560L620.764 547.401L623.106 547.401L623.106 552.604L629.619 552.604L629.619 547.401L631.961 547.401ZM646.685 547.401L646.685 560L644.343 560L644.343 554.599L637.83 554.599L637.83 560L635.488 560L635.488 547.401L637.83 547.401L637.83 552.604L644.343 552.604L644.343 547.401L646.685 547.401ZM659.844 547.401L659.844 560L657.537 560L657.537 556.489L654.426 556.489L654.175 556.489L651.833 560L649.368 560L652.066 556.111Q650.752 555.627 650.04 554.573Q649.333 553.518 649.333 552.024Q649.333 550.587 649.979 549.545Q650.629 548.5 651.816 547.95Q653.002 547.401 654.606 547.401L659.844 547.401ZM654.676 549.378Q653.239 549.378 652.47 550.046Q651.706 550.71 651.706 551.989Q651.706 553.232 652.444 553.909Q653.182 554.582 654.589 554.582L657.537 554.582L657.537 549.378L654.676 549.378Z" fill="#000000" fill-opacity="1.000000" fill-rule="evenodd"/>
	<path id="біль в ділянці серця" d="M798.983 547.401L808.791 547.401L808.791 549.326L801.285 549.326L801.285 552.424L805.012 552.424Q807.279 552.424 808.457 553.369Q809.635 554.313 809.635 556.093Q809.635 557.965 808.339 558.985Q807.047 560 804.652 560L798.983 560L798.983 547.401ZM804.524 558.198Q805.873 558.198 806.576 557.68Q807.279 557.157 807.279 556.168Q807.279 554.221 804.524 554.221L801.285 554.221L801.285 558.198L804.524 558.198ZM812.213 547.401L814.515 547.401L814.515 560L812.213 560L812.213 547.401ZM828.699 547.401L828.699 560L826.396 560L826.396 549.378L821.426 549.378L821.316 552.529Q821.229 555.175 820.886 556.823Q820.543 558.471 819.787 559.328Q819.031 560.18 817.7 560.18Q817.234 560.18 816.421 560L816.583 557.965Q816.816 558.04 817.124 558.04Q818.223 558.04 818.68 556.735Q819.141 555.43 819.247 552.622L819.427 547.401L828.699 547.401ZM838.057 551.668Q840.329 551.668 841.541 552.683Q842.754 553.698 842.754 555.698Q842.754 557.785 841.423 558.893Q840.091 560 837.679 560L832.265 560L832.265 547.401L834.567 547.401L834.567 551.668L838.057 551.668ZM837.573 558.198Q838.94 558.198 839.678 557.57Q840.416 556.941 840.416 555.733Q840.416 553.448 837.573 553.448L834.567 553.448L834.567 558.198L837.573 558.198ZM858.418 553.448Q859.622 553.773 860.25 554.555Q860.883 555.337 860.883 556.506Q860.883 558.163 859.657 559.082Q858.435 560 856.111 560L850.139 560L850.139 547.401L855.772 547.401Q857.895 547.401 859.081 548.249Q860.272 549.093 860.272 550.64Q860.272 551.628 859.793 552.349Q859.314 553.07 858.418 553.448ZM852.441 552.784L855.57 552.784Q856.708 552.784 857.302 552.336Q857.895 551.883 857.895 551Q857.895 550.117 857.302 549.66Q856.708 549.198 855.57 549.198L852.441 549.198L852.441 552.784ZM856.04 558.198Q858.523 558.198 858.523 556.326Q858.523 554.494 856.04 554.494L852.441 554.494L852.441 558.198L856.04 558.198ZM881.006 558.018L881.006 562.681L878.849 562.681L878.849 560L869.181 560L869.181 562.681L867.001 562.681L867.018 558.018L867.559 558.018Q868.75 557.965 869.225 556.265Q869.704 554.564 869.809 551.396L869.954 547.401L879.187 547.401L879.187 558.018L881.006 558.018ZM871.861 551.611Q871.773 554.059 871.466 555.689Q871.163 557.319 870.495 558.018L876.884 558.018L876.884 549.378L871.954 549.378L871.861 551.611ZM883.223 547.401L885.525 547.401L885.525 560L883.223 560L883.223 547.401ZM899.709 547.401L899.709 560L897.406 560L897.406 549.378L892.436 549.378L892.326 552.529Q892.239 555.175 891.896 556.823Q891.553 558.471 890.797 559.328Q890.041 560.18 888.71 560.18Q888.244 560.18 887.431 560L887.594 557.965Q887.826 558.04 888.134 558.04Q889.233 558.04 889.69 556.735Q890.151 555.43 890.257 552.622L890.437 547.401L899.709 547.401ZM912.885 547.401L912.885 560L910.578 560L910.578 556.489L907.467 556.489L907.216 556.489L904.874 560L902.409 560L905.107 556.111Q903.793 555.627 903.081 554.573Q902.374 553.518 902.374 552.024Q902.374 550.587 903.02 549.545Q903.67 548.5 904.857 547.95Q906.043 547.401 907.647 547.401L912.885 547.401ZM907.717 549.378Q906.28 549.378 905.511 550.046Q904.747 550.71 904.747 551.989Q904.747 553.232 905.485 553.909Q906.223 554.582 907.63 554.582L910.578 554.582L910.578 549.378L907.717 549.378ZM927.626 547.401L927.626 560L925.284 560L925.284 554.599L918.771 554.599L918.771 560L916.429 560L916.429 547.401L918.771 547.401L918.771 552.604L925.284 552.604L925.284 547.401L927.626 547.401ZM944.024 558.018L944.024 562.773L941.866 562.773L941.866 560L931.175 560L931.175 547.401L933.477 547.401L933.477 558.018L939.832 558.018L939.832 547.401L942.152 547.401L942.152 558.018L944.024 558.018ZM946.187 547.401L948.489 547.401L948.489 560L946.187 560L946.187 547.401ZM962.797 560.18Q960.89 560.18 959.352 559.345Q957.814 558.506 956.939 557.029Q956.065 555.553 956.065 553.698Q956.065 551.848 956.948 550.372Q957.831 548.895 959.369 548.06Q960.907 547.221 962.815 547.221Q964.361 547.221 965.64 547.761Q966.919 548.302 967.802 549.326L966.291 550.75Q964.92 549.273 962.924 549.273Q961.628 549.273 960.6 549.84Q959.576 550.407 959 551.417Q958.424 552.424 958.424 553.698Q958.424 554.977 959 555.988Q959.576 556.994 960.6 557.561Q961.628 558.128 962.924 558.128Q964.92 558.128 966.291 556.634L967.802 558.075Q966.919 559.099 965.631 559.64Q964.344 560.18 962.797 560.18ZM979.427 558.04L979.427 560L969.979 560L969.979 547.401L979.176 547.401L979.176 549.361L972.321 549.361L972.321 552.639L978.403 552.639L978.403 554.564L972.321 554.564L972.321 558.04L979.427 558.04ZM987.224 547.401Q988.859 547.401 990.072 547.941Q991.289 548.482 991.935 549.488Q992.585 550.495 992.585 551.883Q992.585 553.25 991.935 554.27Q991.289 555.285 990.072 555.825Q988.859 556.366 987.224 556.366L984.381 556.366L984.381 560L982.039 560L982.039 547.401L987.224 547.401ZM987.114 554.384Q988.644 554.384 989.435 553.738Q990.23 553.087 990.23 551.883Q990.23 550.675 989.435 550.029Q988.644 549.378 987.114 549.378L984.381 549.378L984.381 554.384L987.114 554.384ZM1007.67 558.018L1007.67 562.773L1005.51 562.773L1005.51 560L994.823 560L994.823 547.401L997.125 547.401L997.125 558.018L1003.48 558.018L1003.48 547.401L1005.8 547.401L1005.8 558.018L1007.67 558.018ZM1019.45 547.401L1019.45 560L1017.14 560L1017.14 556.489L1014.03 556.489L1013.78 556.489L1011.43 560L1008.97 560L1011.67 556.111Q1010.35 555.627 1009.64 554.573Q1008.93 553.518 1008.93 552.024Q1008.93 550.587 1009.58 549.545Q1010.23 548.5 1011.42 547.95Q1012.6 547.401 1014.21 547.401L1019.45 547.401ZM1014.28 549.378Q1012.84 549.378 1012.07 550.046Q1011.31 550.71 1011.31 551.989Q1011.31 553.232 1012.05 553.909Q1012.78 554.582 1014.19 554.582L1017.14 554.582L1017.14 549.378L1014.28 549.378Z" fill="#000000" fill-opacity="1.000000" fill-rule="evenodd"/>
	<path id="підвищена втомлюванність" d="M1182.95 534.401L1182.95 547L1180.65 547L1180.65 536.378L1174.12 536.378L1174.12 547L1171.81 547L1171.81 534.401L1182.95 534.401ZM1186.52 534.401L1188.82 534.401L1188.82 547L1186.52 547L1186.52 534.401ZM1204.73 545.018L1204.73 549.681L1202.58 549.681L1202.58 547L1192.91 547L1192.91 549.681L1190.73 549.681L1190.75 545.018L1191.29 545.018Q1192.48 544.965 1192.95 543.265Q1193.43 541.564 1193.54 538.396L1193.68 534.401L1202.91 534.401L1202.91 545.018L1204.73 545.018ZM1195.59 538.611Q1195.5 541.059 1195.19 542.689Q1194.89 544.319 1194.22 545.018L1200.61 545.018L1200.61 536.378L1195.68 536.378L1195.59 538.611ZM1215.23 540.448Q1216.43 540.773 1217.06 541.555Q1217.69 542.337 1217.69 543.506Q1217.69 545.163 1216.47 546.082Q1215.25 547 1212.92 547L1206.95 547L1206.95 534.401L1212.58 534.401Q1214.71 534.401 1215.89 535.249Q1217.08 536.093 1217.08 537.64Q1217.08 538.628 1216.6 539.349Q1216.13 540.07 1215.23 540.448ZM1209.25 539.784L1212.38 539.784Q1213.52 539.784 1214.11 539.336Q1214.71 538.883 1214.71 538Q1214.71 537.117 1214.11 536.66Q1213.52 536.198 1212.38 536.198L1209.25 536.198L1209.25 539.784ZM1212.85 545.198Q1215.33 545.198 1215.33 543.326Q1215.33 541.494 1212.85 541.494L1209.25 541.494L1209.25 545.198L1212.85 545.198ZM1220.38 534.401L1222.68 534.401L1222.68 543.348L1229.45 534.401L1231.62 534.401L1231.62 547L1229.32 547L1229.32 538.07L1222.55 547L1220.38 547L1220.38 534.401ZM1251.35 534.401L1251.35 547L1235.17 547L1235.17 534.401L1237.48 534.401L1237.48 545.018L1242.12 545.018L1242.12 534.401L1244.42 534.401L1244.42 545.018L1249.05 545.018L1249.05 534.401L1251.35 534.401ZM1253.17 545.018L1253.17 549.681L1251.01 549.681L1251.01 547L1248.99 547L1248.99 545.018L1253.17 545.018ZM1264.87 545.04L1264.87 547L1255.42 547L1255.42 534.401L1264.62 534.401L1264.62 536.361L1257.76 536.361L1257.76 539.639L1263.84 539.639L1263.84 541.564L1257.76 541.564L1257.76 545.04L1264.87 545.04ZM1278.68 534.401L1278.68 547L1276.33 547L1276.33 541.599L1269.82 541.599L1269.82 547L1267.48 547L1267.48 534.401L1269.82 534.401L1269.82 539.604L1276.33 539.604L1276.33 534.401L1278.68 534.401ZM1290.56 544.082L1284.26 544.082L1283.01 547L1280.6 547L1286.27 534.401L1288.58 534.401L1294.26 547L1291.81 547L1290.56 544.082ZM1289.78 542.25L1287.41 536.739L1285.05 542.25L1289.78 542.25ZM1149.53 565.448Q1150.73 565.773 1151.36 566.555Q1151.99 567.337 1151.99 568.506Q1151.99 570.163 1150.77 571.082Q1149.55 572 1147.22 572L1141.25 572L1141.25 559.401L1146.88 559.401Q1149.01 559.401 1150.19 560.249Q1151.38 561.093 1151.38 562.64Q1151.38 563.628 1150.9 564.349Q1150.43 565.07 1149.53 565.448ZM1143.55 564.784L1146.68 564.784Q1147.82 564.784 1148.41 564.336Q1149.01 563.883 1149.01 563Q1149.01 562.117 1148.41 561.66Q1147.82 561.198 1146.68 561.198L1143.55 561.198L1143.55 564.784ZM1147.15 570.198Q1149.63 570.198 1149.63 568.326Q1149.63 566.494 1147.15 566.494L1143.55 566.494L1143.55 570.198L1147.15 570.198ZM1163.62 561.378L1159.45 561.378L1159.45 572L1157.13 572L1157.13 561.378L1152.96 561.378L1152.96 559.401L1163.62 559.401L1163.62 561.378ZM1171.29 572.18Q1169.36 572.18 1167.82 571.345Q1166.27 570.506 1165.39 569.021Q1164.5 567.535 1164.5 565.698Q1164.5 563.866 1165.39 562.38Q1166.27 560.895 1167.82 560.06Q1169.36 559.221 1171.29 559.221Q1173.22 559.221 1174.76 560.06Q1176.31 560.895 1177.19 562.372Q1178.08 563.848 1178.08 565.698Q1178.08 567.553 1177.19 569.029Q1176.31 570.506 1174.76 571.345Q1173.22 572.18 1171.29 572.18ZM1171.29 570.128Q1172.55 570.128 1173.55 569.561Q1174.57 568.994 1175.14 567.979Q1175.72 566.959 1175.72 565.698Q1175.72 564.441 1175.14 563.426Q1174.57 562.407 1173.55 561.84Q1172.55 561.273 1171.29 561.273Q1170.03 561.273 1169.02 561.84Q1168.01 562.407 1167.44 563.426Q1166.86 564.441 1166.86 565.698Q1166.86 566.959 1167.44 567.979Q1168.01 568.994 1169.02 569.561Q1170.03 570.128 1171.29 570.128ZM1192.24 572L1192.22 563.646L1188.08 570.559L1187.04 570.559L1182.9 563.756L1182.9 572L1180.69 572L1180.69 559.401L1182.61 559.401L1187.6 567.733L1192.53 559.401L1194.44 559.401L1194.47 572L1192.24 572ZM1208.64 559.401L1208.64 572L1206.34 572L1206.34 561.378L1201.37 561.378L1201.26 564.529Q1201.17 567.175 1200.83 568.823Q1200.48 570.471 1199.73 571.328Q1198.97 572.18 1197.64 572.18Q1197.17 572.18 1196.36 572L1196.52 569.965Q1196.76 570.04 1197.07 570.04Q1198.16 570.04 1198.62 568.735Q1199.08 567.43 1199.19 564.622L1199.37 559.401L1208.64 559.401ZM1222.97 559.221Q1224.82 559.221 1226.31 560.06Q1227.79 560.895 1228.64 562.372Q1229.48 563.848 1229.48 565.698Q1229.48 567.553 1228.64 569.029Q1227.79 570.506 1226.31 571.345Q1224.82 572.18 1222.97 572.18Q1221.28 572.18 1219.88 571.477Q1218.49 570.774 1217.59 569.517Q1216.71 568.256 1216.49 566.652L1214.51 566.652L1214.51 572L1212.21 572L1212.21 559.401L1214.51 559.401L1214.51 564.564L1216.53 564.564Q1216.78 563 1217.66 561.787Q1218.56 560.57 1219.93 559.897Q1221.31 559.221 1222.97 559.221ZM1222.97 570.128Q1224.14 570.128 1225.09 569.57Q1226.04 569.012 1226.58 568.005Q1227.12 566.995 1227.12 565.698Q1227.12 564.402 1226.58 563.396Q1226.04 562.389 1225.09 561.831Q1224.14 561.273 1222.97 561.273Q1221.8 561.273 1220.85 561.831Q1219.91 562.389 1219.36 563.396Q1218.81 564.402 1218.81 565.698Q1218.81 566.995 1219.36 568.005Q1219.91 569.012 1220.85 569.57Q1221.8 570.128 1222.97 570.128ZM1240.39 565.448Q1241.6 565.773 1242.23 566.555Q1242.86 567.337 1242.86 568.506Q1242.86 570.163 1241.63 571.082Q1240.41 572 1238.09 572L1232.11 572L1232.11 559.401L1237.75 559.401Q1239.87 559.401 1241.06 560.249Q1242.25 561.093 1242.25 562.64Q1242.25 563.628 1241.77 564.349Q1241.29 565.07 1240.39 565.448ZM1234.42 564.784L1237.55 564.784Q1238.68 564.784 1239.28 564.336Q1239.87 563.883 1239.87 563Q1239.87 562.117 1239.28 561.66Q1238.68 561.198 1237.55 561.198L1234.42 561.198L1234.42 564.784ZM1238.02 570.198Q1240.5 570.198 1240.5 568.326Q1240.5 566.494 1238.02 566.494L1234.42 566.494L1234.42 570.198L1238.02 570.198ZM1253.87 569.082L1247.57 569.082L1246.33 572L1243.92 572L1249.59 559.401L1251.89 559.401L1257.58 572L1255.13 572L1253.87 569.082ZM1253.1 567.25L1250.72 561.739L1248.36 567.25L1253.1 567.25ZM1270.7 559.401L1270.7 572L1268.36 572L1268.36 566.599L1261.85 566.599L1261.85 572L1259.51 572L1259.51 559.401L1261.85 559.401L1261.85 564.604L1268.36 564.604L1268.36 559.401L1270.7 559.401ZM1285.43 559.401L1285.43 572L1283.08 572L1283.08 566.599L1276.57 566.599L1276.57 572L1274.23 572L1274.23 559.401L1276.57 559.401L1276.57 564.604L1283.08 564.604L1283.08 559.401L1285.43 559.401ZM1288.98 559.401L1291.28 559.401L1291.28 572L1288.98 572L1288.98 559.401ZM1300.62 572.18Q1298.71 572.18 1297.17 571.345Q1295.63 570.506 1294.76 569.029Q1293.89 567.553 1293.89 565.698Q1293.89 563.848 1294.77 562.372Q1295.65 560.895 1297.19 560.06Q1298.73 559.221 1300.64 559.221Q1302.18 559.221 1303.46 559.761Q1304.74 560.302 1305.62 561.326L1304.11 562.75Q1302.74 561.273 1300.75 561.273Q1299.45 561.273 1298.42 561.84Q1297.4 562.407 1296.82 563.417Q1296.25 564.424 1296.25 565.698Q1296.25 566.977 1296.82 567.988Q1297.4 568.994 1298.42 569.561Q1299.45 570.128 1300.75 570.128Q1302.74 570.128 1304.11 568.634L1305.62 570.075Q1304.74 571.099 1303.45 571.64Q1302.16 572.18 1300.62 572.18ZM1316.8 561.378L1312.63 561.378L1312.63 572L1310.31 572L1310.31 561.378L1306.14 561.378L1306.14 559.401L1316.8 559.401L1316.8 561.378ZM1324.63 563.668Q1326.9 563.668 1328.11 564.683Q1329.33 565.698 1329.33 567.698Q1329.33 569.785 1328 570.893Q1326.66 572 1324.25 572L1318.84 572L1318.84 559.401L1321.14 559.401L1321.14 563.668L1324.63 563.668ZM1324.15 570.198Q1325.51 570.198 1326.25 569.57Q1326.99 568.941 1326.99 567.733Q1326.99 565.448 1324.15 565.448L1321.14 565.448L1321.14 570.198L1324.15 570.198Z" fill="#000000" fill-opacity="1.000000" fill-rule="evenodd"/>
	<path id="емоційна лабільність" d="M1444.96 558.04L1444.96 560L1435.51 560L1435.51 547.401L1444.71 547.401L1444.71 549.361L1437.85 549.361L1437.85 552.639L1443.93 552.639L1443.93 554.564L1437.85 554.564L1437.85 558.04L1444.96 558.04ZM1459.14 560L1459.13 551.646L1454.99 558.559L1453.94 558.559L1449.8 551.756L1449.8 560L1447.59 560L1447.59 547.401L1449.51 547.401L1454.5 555.733L1459.43 547.401L1461.34 547.401L1461.38 560L1459.14 560ZM1470.73 560.18Q1468.81 560.18 1467.26 559.345Q1465.71 558.506 1464.83 557.021Q1463.95 555.535 1463.95 553.698Q1463.95 551.866 1464.83 550.38Q1465.71 548.895 1467.26 548.06Q1468.81 547.221 1470.73 547.221Q1472.66 547.221 1474.21 548.06Q1475.76 548.895 1476.64 550.372Q1477.52 551.848 1477.52 553.698Q1477.52 555.553 1476.64 557.029Q1475.76 558.506 1474.21 559.345Q1472.66 560.18 1470.73 560.18ZM1470.73 558.128Q1471.99 558.128 1473 557.561Q1474.01 556.994 1474.59 555.979Q1475.16 554.959 1475.16 553.698Q1475.16 552.441 1474.59 551.426Q1474.01 550.407 1473 549.84Q1471.99 549.273 1470.73 549.273Q1469.48 549.273 1468.47 549.84Q1467.46 550.407 1466.88 551.426Q1466.31 552.441 1466.31 553.698Q1466.31 554.959 1466.88 555.979Q1467.46 556.994 1468.47 557.561Q1469.48 558.128 1470.73 558.128ZM1492.98 558.018L1492.98 562.773L1490.83 562.773L1490.83 560L1480.13 560L1480.13 547.401L1482.44 547.401L1482.44 558.018L1488.79 558.018L1488.79 547.401L1491.11 547.401L1491.11 558.018L1492.98 558.018ZM1495.15 547.401L1497.45 547.401L1497.45 560L1495.15 560L1495.15 547.401ZM1501.01 547.401L1503.32 547.401L1503.32 556.348L1510.08 547.401L1512.26 547.401L1512.26 560L1509.96 560L1509.96 551.07L1503.19 560L1501.01 560L1501.01 547.401ZM1506.61 546.553Q1504.99 546.553 1504.17 545.889Q1503.35 545.221 1503.33 543.942L1504.97 543.942Q1504.99 544.61 1505.4 544.971Q1505.82 545.331 1506.61 545.331Q1507.38 545.331 1507.82 544.971Q1508.26 544.61 1508.28 543.942L1509.9 543.942Q1509.89 545.204 1509.05 545.88Q1508.21 546.553 1506.61 546.553ZM1526.98 547.401L1526.98 560L1524.64 560L1524.64 554.599L1518.13 554.599L1518.13 560L1515.79 560L1515.79 547.401L1518.13 547.401L1518.13 552.604L1524.64 552.604L1524.64 547.401L1526.98 547.401ZM1538.87 557.082L1532.56 557.082L1531.32 560L1528.91 560L1534.58 547.401L1536.88 547.401L1542.57 560L1540.12 560L1538.87 557.082ZM1538.09 555.25L1535.71 549.739L1533.35 555.25L1538.09 555.25ZM1560.23 547.401L1560.23 560L1557.93 560L1557.93 549.378L1552.96 549.378L1552.85 552.529Q1552.76 555.175 1552.42 556.823Q1552.08 558.471 1551.32 559.328Q1550.56 560.18 1549.23 560.18Q1548.77 560.18 1547.95 560L1548.12 557.965Q1548.35 558.04 1548.66 558.04Q1549.76 558.04 1550.21 556.735Q1550.67 555.43 1550.78 552.622L1550.96 547.401L1560.23 547.401ZM1572.13 557.082L1565.83 557.082L1564.58 560L1562.18 560L1567.84 547.401L1570.15 547.401L1575.83 560L1573.39 560L1572.13 557.082ZM1571.35 555.25L1568.98 549.739L1566.62 555.25L1571.35 555.25ZM1577.78 547.401L1587.59 547.401L1587.59 549.326L1580.09 549.326L1580.09 552.424L1583.81 552.424Q1586.08 552.424 1587.26 553.369Q1588.44 554.313 1588.44 556.093Q1588.44 557.965 1587.14 558.985Q1585.85 560 1583.45 560L1577.78 560L1577.78 547.401ZM1583.33 558.198Q1584.67 558.198 1585.38 557.68Q1586.08 557.157 1586.08 556.168Q1586.08 554.221 1583.33 554.221L1580.09 554.221L1580.09 558.198L1583.33 558.198ZM1591.01 547.401L1593.32 547.401L1593.32 560L1591.01 560L1591.01 547.401ZM1607.5 547.401L1607.5 560L1605.2 560L1605.2 549.378L1600.23 549.378L1600.12 552.529Q1600.03 555.175 1599.69 556.823Q1599.34 558.471 1598.59 559.328Q1597.83 560.18 1596.5 560.18Q1596.03 560.18 1595.22 560L1595.38 557.965Q1595.62 558.04 1595.93 558.04Q1597.02 558.04 1597.48 556.735Q1597.94 555.43 1598.05 552.622L1598.23 547.401L1607.5 547.401ZM1616.86 551.668Q1619.13 551.668 1620.34 552.683Q1621.56 553.698 1621.56 555.698Q1621.56 557.785 1620.22 558.893Q1618.89 560 1616.48 560L1611.07 560L1611.07 547.401L1613.37 547.401L1613.37 551.668L1616.86 551.668ZM1616.37 558.198Q1617.74 558.198 1618.48 557.57Q1619.22 556.941 1619.22 555.733Q1619.22 553.448 1616.37 553.448L1613.37 553.448L1613.37 558.198L1616.37 558.198ZM1635.15 547.401L1635.15 560L1632.8 560L1632.8 554.599L1626.29 554.599L1626.29 560L1623.95 560L1623.95 547.401L1626.29 547.401L1626.29 552.604L1632.8 552.604L1632.8 547.401L1635.15 547.401ZM1638.7 547.401L1641 547.401L1641 560L1638.7 560L1638.7 547.401ZM1650.34 560.18Q1648.43 560.18 1646.89 559.345Q1645.35 558.506 1644.48 557.029Q1643.61 555.553 1643.61 553.698Q1643.61 551.848 1644.49 550.372Q1645.37 548.895 1646.91 548.06Q1648.45 547.221 1650.36 547.221Q1651.9 547.221 1653.18 547.761Q1654.46 548.302 1655.34 549.326L1653.83 550.75Q1652.46 549.273 1650.47 549.273Q1649.17 549.273 1648.14 549.84Q1647.12 550.407 1646.54 551.417Q1645.97 552.424 1645.97 553.698Q1645.97 554.977 1646.54 555.988Q1647.12 556.994 1648.14 557.561Q1649.17 558.128 1650.47 558.128Q1652.46 558.128 1653.83 556.634L1655.34 558.075Q1654.46 559.099 1653.17 559.64Q1651.88 560.18 1650.34 560.18ZM1666.52 549.378L1662.35 549.378L1662.35 560L1660.03 560L1660.03 549.378L1655.86 549.378L1655.86 547.401L1666.52 547.401L1666.52 549.378ZM1674.35 551.668Q1676.62 551.668 1677.83 552.683Q1679.05 553.698 1679.05 555.698Q1679.05 557.785 1677.72 558.893Q1676.38 560 1673.97 560L1668.56 560L1668.56 547.401L1670.86 547.401L1670.86 551.668L1674.35 551.668ZM1673.87 558.198Q1675.23 558.198 1675.97 557.57Q1676.71 556.941 1676.71 555.733Q1676.71 553.448 1673.87 553.448L1670.86 553.448L1670.86 558.198L1673.87 558.198Z" fill="#000000" fill-opacity="1.000000" fill-rule="evenodd"/>
	<path id="0" d="M71.9995 499.115Q70.4663 499.115 69.2656 498.303Q68.065 497.485 67.3908 495.966Q66.7212 494.442 66.7212 492.378Q66.7212 490.318 67.3908 488.794Q68.065 487.271 69.2656 486.458Q70.4663 485.645 71.9995 485.645Q73.5326 485.645 74.7333 486.458Q75.9339 487.271 76.6127 488.794Q77.2962 490.318 77.2962 492.378Q77.2962 494.442 76.6127 495.966Q75.9339 497.485 74.7333 498.303Q73.5326 499.115 71.9995 499.115ZM71.9995 497.864Q73.1539 497.864 74.0313 497.222Q74.9134 496.58 75.4029 495.352Q75.897 494.119 75.897 492.378Q75.897 490.642 75.4029 489.413Q74.9134 488.18 74.0313 487.538Q73.1539 486.896 71.9995 486.896Q70.845 486.896 69.963 487.538Q69.0855 488.18 68.5914 489.413Q68.1019 490.642 68.1019 492.378Q68.1019 494.119 68.5914 495.352Q69.0855 496.58 69.963 497.222Q70.845 497.864 71.9995 497.864Z" fill="#000000" fill-opacity="1.000000" fill-rule="evenodd"/>
	<path id="10%" d="M55.3367 433.76L55.3367 447L53.9744 447L53.9744 434.97L50.8527 434.97L50.8527 433.76L55.3367 433.76ZM63.7721 447.115Q62.2389 447.115 61.0383 446.303Q59.8376 445.485 59.1634 443.966Q58.4938 442.442 58.4938 440.378Q58.4938 438.318 59.1634 436.794Q59.8376 435.271 61.0383 434.458Q62.2389 433.645 63.7721 433.645Q65.3052 433.645 66.5059 434.458Q67.7065 435.271 68.3854 436.794Q69.0688 438.318 69.0688 440.378Q69.0688 442.442 68.3854 443.966Q67.7065 445.485 66.5059 446.303Q65.3052 447.115 63.7721 447.115ZM63.7721 445.864Q64.9265 445.864 65.8039 445.222Q66.686 444.58 67.1755 443.352Q67.6696 442.119 67.6696 440.378Q67.6696 438.642 67.1755 437.413Q66.686 436.18 65.8039 435.538Q64.9265 434.896 63.7721 434.896Q62.6176 434.896 61.7356 435.538Q60.8582 436.18 60.364 437.413Q59.8745 438.642 59.8745 440.378Q59.8745 442.119 60.364 443.352Q60.8582 444.58 61.7356 445.222Q62.6176 445.864 63.7721 445.864ZM73.814 440.854Q72.4701 440.854 71.6482 439.861Q70.8262 438.868 70.8262 437.261Q70.8262 435.649 71.6482 434.656Q72.4701 433.663 73.814 433.663Q75.1393 433.663 75.9705 434.647Q76.8017 435.631 76.8017 437.261Q76.8017 438.886 75.9705 439.87Q75.1393 440.854 73.814 440.854ZM81.8353 433.76L82.9528 433.76L73.9109 447L72.7934 447L81.8353 433.76ZM73.814 439.999Q74.7422 439.999 75.3009 439.274Q75.8597 438.545 75.8597 437.261Q75.8597 435.972 75.3009 435.247Q74.7422 434.518 73.814 434.518Q72.8673 434.518 72.3177 435.257Q71.7728 435.991 71.7728 437.261Q71.7728 438.526 72.3177 439.265Q72.8673 439.999 73.814 439.999ZM81.9276 447.092Q80.6069 447.092 79.7711 446.1Q78.9398 445.107 78.9398 443.5Q78.9398 441.893 79.7711 440.9Q80.6069 439.907 81.9276 439.907Q83.2714 439.907 84.0934 440.9Q84.92 441.893 84.92 443.5Q84.92 445.107 84.0934 446.1Q83.2714 447.092 81.9276 447.092ZM81.9276 446.243Q82.8743 446.243 83.4238 445.508Q83.9734 444.77 83.9734 443.5Q83.9734 442.234 83.4238 441.495Q82.8743 440.757 81.9276 440.757Q81.0041 440.757 80.4453 441.486Q79.8865 442.216 79.8865 443.5Q79.8865 444.788 80.4453 445.518Q81.0041 446.243 81.9276 446.243Z" fill="#000000" fill-opacity="1.000000" fill-rule="evenodd"/>
	<path id="20%" d="M56.8676 392.79L56.8676 394L47.581 394L47.581 393.035L53.0855 387.646Q54.1246 386.625 54.494 385.877Q54.8634 385.129 54.8634 384.372Q54.8634 383.199 54.0599 382.548Q53.2564 381.896 51.7602 381.896Q49.4328 381.896 48.149 383.37L47.1838 382.538Q47.9597 381.629 49.1603 381.139Q50.361 380.645 51.8756 380.645Q53.8983 380.645 55.0805 381.601Q56.2627 382.557 56.2627 384.219Q56.2627 385.244 55.8055 386.191Q55.3529 387.133 54.0876 388.362L49.5852 392.79L56.8676 392.79ZM63.7721 394.115Q62.2389 394.115 61.0383 393.303Q59.8376 392.485 59.1634 390.966Q58.4938 389.442 58.4938 387.378Q58.4938 385.318 59.1634 383.794Q59.8376 382.271 61.0383 381.458Q62.2389 380.645 63.7721 380.645Q65.3052 380.645 66.5059 381.458Q67.7065 382.271 68.3854 383.794Q69.0688 385.318 69.0688 387.378Q69.0688 389.442 68.3854 390.966Q67.7065 392.485 66.5059 393.303Q65.3052 394.115 63.7721 394.115ZM63.7721 392.864Q64.9265 392.864 65.8039 392.222Q66.686 391.58 67.1755 390.352Q67.6696 389.119 67.6696 387.378Q67.6696 385.642 67.1755 384.413Q66.686 383.18 65.8039 382.538Q64.9265 381.896 63.7721 381.896Q62.6176 381.896 61.7356 382.538Q60.8582 383.18 60.364 384.413Q59.8745 385.642 59.8745 387.378Q59.8745 389.119 60.364 390.352Q60.8582 391.58 61.7356 392.222Q62.6176 392.864 63.7721 392.864ZM73.814 387.854Q72.4701 387.854 71.6482 386.861Q70.8262 385.868 70.8262 384.261Q70.8262 382.649 71.6482 381.656Q72.4701 380.663 73.814 380.663Q75.1393 380.663 75.9705 381.647Q76.8017 382.631 76.8017 384.261Q76.8017 385.886 75.9705 386.87Q75.1393 387.854 73.814 387.854ZM81.8353 380.76L82.9528 380.76L73.9109 394L72.7934 394L81.8353 380.76ZM73.814 386.999Q74.7422 386.999 75.3009 386.274Q75.8597 385.545 75.8597 384.261Q75.8597 382.972 75.3009 382.247Q74.7422 381.518 73.814 381.518Q72.8673 381.518 72.3177 382.257Q71.7728 382.991 71.7728 384.261Q71.7728 385.526 72.3177 386.265Q72.8673 386.999 73.814 386.999ZM81.9276 394.092Q80.6069 394.092 79.7711 393.1Q78.9398 392.107 78.9398 390.5Q78.9398 388.893 79.7711 387.9Q80.6069 386.907 81.9276 386.907Q83.2714 386.907 84.0934 387.9Q84.92 388.893 84.92 390.5Q84.92 392.107 84.0934 393.1Q83.2714 394.092 81.9276 394.092ZM81.9276 393.243Q82.8743 393.243 83.4238 392.508Q83.9734 391.77 83.9734 390.5Q83.9734 389.234 83.4238 388.495Q82.8743 387.757 81.9276 387.757Q81.0041 387.757 80.4453 388.486Q79.8865 389.216 79.8865 390.5Q79.8865 391.788 80.4453 392.518Q81.0041 393.243 81.9276 393.243Z" fill="#000000" fill-opacity="1.000000" fill-rule="evenodd"/>
	<path id="30%" d="M52.3282 333.436Q54.4063 333.547 55.4915 334.558Q56.5813 335.569 56.5813 337.199Q56.5813 338.331 56.0318 339.213Q55.4869 340.09 54.4063 340.603Q53.3303 341.115 51.7787 341.115Q50.3425 341.115 49.0633 340.654Q47.7888 340.187 47.013 339.411L47.6733 338.331Q48.3383 339.014 49.4328 339.439Q50.5318 339.864 51.7787 339.864Q53.4042 339.864 54.2908 339.157Q55.1821 338.446 55.1821 337.199Q55.1821 335.966 54.2908 335.269Q53.4042 334.567 51.6078 334.567L50.6611 334.567L50.6611 333.565L54.3324 328.97L47.5625 328.97L47.5625 327.76L56.0733 327.76L56.0733 328.726L52.3282 333.436ZM63.7721 341.115Q62.2389 341.115 61.0383 340.303Q59.8376 339.485 59.1634 337.966Q58.4938 336.442 58.4938 334.378Q58.4938 332.318 59.1634 330.794Q59.8376 329.271 61.0383 328.458Q62.2389 327.645 63.7721 327.645Q65.3052 327.645 66.5059 328.458Q67.7065 329.271 68.3854 330.794Q69.0688 332.318 69.0688 334.378Q69.0688 336.442 68.3854 337.966Q67.7065 339.485 66.5059 340.303Q65.3052 341.115 63.7721 341.115ZM63.7721 339.864Q64.9265 339.864 65.8039 339.222Q66.686 338.58 67.1755 337.352Q67.6696 336.119 67.6696 334.378Q67.6696 332.642 67.1755 331.413Q66.686 330.18 65.8039 329.538Q64.9265 328.896 63.7721 328.896Q62.6176 328.896 61.7356 329.538Q60.8582 330.18 60.364 331.413Q59.8745 332.642 59.8745 334.378Q59.8745 336.119 60.364 337.352Q60.8582 338.58 61.7356 339.222Q62.6176 339.864 63.7721 339.864ZM73.814 334.854Q72.4701 334.854 71.6482 333.861Q70.8262 332.868 70.8262 331.261Q70.8262 329.649 71.6482 328.656Q72.4701 327.663 73.814 327.663Q75.1393 327.663 75.9705 328.647Q76.8017 329.631 76.8017 331.261Q76.8017 332.886 75.9705 333.87Q75.1393 334.854 73.814 334.854ZM81.8353 327.76L82.9528 327.76L73.9109 341L72.7934 341L81.8353 327.76ZM73.814 333.999Q74.7422 333.999 75.3009 333.274Q75.8597 332.545 75.8597 331.261Q75.8597 329.972 75.3009 329.247Q74.7422 328.518 73.814 328.518Q72.8673 328.518 72.3177 329.257Q71.7728 329.991 71.7728 331.261Q71.7728 332.526 72.3177 333.265Q72.8673 333.999 73.814 333.999ZM81.9276 341.092Q80.6069 341.092 79.7711 340.1Q78.9398 339.107 78.9398 337.5Q78.9398 335.893 79.7711 334.9Q80.6069 333.907 81.9276 333.907Q83.2714 333.907 84.0934 334.9Q84.92 335.893 84.92 337.5Q84.92 339.107 84.0934 340.1Q83.2714 341.092 81.9276 341.092ZM81.9276 340.243Q82.8743 340.243 83.4238 339.508Q83.9734 338.77 83.9734 337.5Q83.9734 336.234 83.4238 335.495Q82.8743 334.757 81.9276 334.757Q81.0041 334.757 80.4453 335.486Q79.8865 336.216 79.8865 337.5Q79.8865 338.788 80.4453 339.518Q81.0041 340.243 81.9276 340.243Z" fill="#000000" fill-opacity="1.000000" fill-rule="evenodd"/>
	<path id="40%" d="M57.2448 284.518L54.5988 284.518L54.5988 288L53.2365 288L53.2365 284.518L45.7647 284.518L45.7647 283.534L52.7793 274.76L54.294 274.76L47.5241 283.308L53.2734 283.308L53.2734 280.247L54.5988 280.247L54.5988 283.308L57.2448 283.308L57.2448 284.518ZM63.7721 288.115Q62.2389 288.115 61.0383 287.303Q59.8376 286.485 59.1634 284.966Q58.4938 283.442 58.4938 281.378Q58.4938 279.318 59.1634 277.794Q59.8376 276.271 61.0383 275.458Q62.2389 274.645 63.7721 274.645Q65.3052 274.645 66.5059 275.458Q67.7065 276.271 68.3854 277.794Q69.0688 279.318 69.0688 281.378Q69.0688 283.442 68.3854 284.966Q67.7065 286.485 66.5059 287.303Q65.3052 288.115 63.7721 288.115ZM63.7721 286.864Q64.9265 286.864 65.8039 286.222Q66.686 285.58 67.1755 284.352Q67.6696 283.119 67.6696 281.378Q67.6696 279.642 67.1755 278.413Q66.686 277.18 65.8039 276.538Q64.9265 275.896 63.7721 275.896Q62.6176 275.896 61.7356 276.538Q60.8582 277.18 60.364 278.413Q59.8745 279.642 59.8745 281.378Q59.8745 283.119 60.364 284.352Q60.8582 285.58 61.7356 286.222Q62.6176 286.864 63.7721 286.864ZM73.8139 281.854Q72.4701 281.854 71.6481 280.861Q70.8262 279.868 70.8262 278.261Q70.8262 276.649 71.6481 275.656Q72.4701 274.663 73.8139 274.663Q75.1393 274.663 75.9705 275.647Q76.8017 276.631 76.8017 278.261Q76.8017 279.886 75.9705 280.87Q75.1393 281.854 73.8139 281.854ZM81.8353 274.76L82.9528 274.76L73.9109 288L72.7934 288L81.8353 274.76ZM73.8139 280.999Q74.7422 280.999 75.3009 280.274Q75.8597 279.545 75.8597 278.261Q75.8597 276.972 75.3009 276.247Q74.7422 275.518 73.8139 275.518Q72.8673 275.518 72.3177 276.257Q71.7728 276.991 71.7728 278.261Q71.7728 279.526 72.3177 280.265Q72.8673 280.999 73.8139 280.999ZM81.9276 288.092Q80.6069 288.092 79.7711 287.1Q78.9398 286.107 78.9398 284.5Q78.9398 282.893 79.7711 281.9Q80.6069 280.907 81.9276 280.907Q83.2714 280.907 84.0934 281.9Q84.92 282.893 84.92 284.5Q84.92 286.107 84.0934 287.1Q83.2714 288.092 81.9276 288.092ZM81.9276 287.243Q82.8743 287.243 83.4238 286.508Q83.9734 285.77 83.9734 284.5Q83.9734 283.234 83.4238 282.495Q82.8743 281.757 81.9276 281.757Q81.004 281.757 80.4453 282.486Q79.8865 283.216 79.8865 284.5Q79.8865 285.788 80.4453 286.518Q81.004 287.243 81.9276 287.243Z" fill="#000000" fill-opacity="1.000000" fill-rule="evenodd"/>
	<path id="50%" d="M51.2698 227.186Q54.1422 227.186 55.4583 228.221Q56.7744 229.251 56.7744 231.102Q56.7744 232.257 56.2341 233.167Q55.6938 234.072 54.6132 234.594Q53.5372 235.115 51.9671 235.115Q50.5494 235.115 49.2703 234.654Q47.9957 234.187 47.2199 233.411L47.8803 232.331Q48.5452 233.014 49.6212 233.439Q50.7018 233.864 51.9486 233.864Q53.5926 233.864 54.4931 233.13Q55.3936 232.391 55.3936 231.163Q55.3936 229.8 54.3777 229.098Q53.3663 228.396 50.965 228.396L48.1481 228.396L48.8269 221.76L56.0724 221.76L56.0724 222.97L50.0184 222.97L49.5658 227.186L51.2698 227.186ZM63.7721 235.115Q62.2389 235.115 61.0383 234.303Q59.8376 233.485 59.1634 231.966Q58.4938 230.442 58.4938 228.378Q58.4938 226.318 59.1634 224.794Q59.8376 223.27 61.0383 222.458Q62.2389 221.645 63.7721 221.645Q65.3052 221.645 66.5059 222.458Q67.7065 223.27 68.3854 224.794Q69.0688 226.318 69.0688 228.378Q69.0688 230.442 68.3854 231.966Q67.7065 233.485 66.5059 234.303Q65.3052 235.115 63.7721 235.115ZM63.7721 233.864Q64.9265 233.864 65.8039 233.222Q66.686 232.58 67.1755 231.352Q67.6696 230.119 67.6696 228.378Q67.6696 226.642 67.1755 225.413Q66.686 224.18 65.8039 223.538Q64.9265 222.896 63.7721 222.896Q62.6176 222.896 61.7356 223.538Q60.8582 224.18 60.364 225.413Q59.8745 226.642 59.8745 228.378Q59.8745 230.119 60.364 231.352Q60.8582 232.58 61.7356 233.222Q62.6176 233.864 63.7721 233.864ZM73.814 228.854Q72.4701 228.854 71.6482 227.861Q70.8262 226.868 70.8262 225.261Q70.8262 223.649 71.6482 222.656Q72.4701 221.663 73.814 221.663Q75.1393 221.663 75.9705 222.647Q76.8017 223.631 76.8017 225.261Q76.8017 226.886 75.9705 227.87Q75.1393 228.854 73.814 228.854ZM81.8353 221.76L82.9528 221.76L73.9109 235L72.7934 235L81.8353 221.76ZM73.814 227.999Q74.7422 227.999 75.3009 227.274Q75.8597 226.545 75.8597 225.261Q75.8597 223.972 75.3009 223.247Q74.7422 222.518 73.814 222.518Q72.8673 222.518 72.3177 223.257Q71.7728 223.991 71.7728 225.261Q71.7728 226.526 72.3177 227.265Q72.8673 227.999 73.814 227.999ZM81.9276 235.092Q80.6069 235.092 79.7711 234.1Q78.9398 233.107 78.9398 231.5Q78.9398 229.893 79.7711 228.9Q80.6069 227.907 81.9276 227.907Q83.2714 227.907 84.0934 228.9Q84.92 229.893 84.92 231.5Q84.92 233.107 84.0934 234.1Q83.2714 235.092 81.9276 235.092ZM81.9276 234.243Q82.8743 234.243 83.4238 233.508Q83.9734 232.77 83.9734 231.5Q83.9734 230.234 83.4238 229.495Q82.8743 228.757 81.9276 228.757Q81.0041 228.757 80.4453 229.486Q79.8865 230.216 79.8865 231.5Q79.8865 232.788 80.4453 233.518Q81.0041 234.243 81.9276 234.243Z" fill="#000000" fill-opacity="1.000000" fill-rule="evenodd"/>
	<path id="60%" d="M52.4606 174.076Q53.7629 174.076 54.7742 174.57Q55.7902 175.059 56.3535 175.96Q56.9215 176.856 56.9215 178.047Q56.9215 179.257 56.3351 180.185Q55.7532 181.109 54.7188 181.612Q53.689 182.115 52.4052 182.115Q49.773 182.115 48.3738 180.384Q46.9746 178.652 46.9746 175.493Q46.9746 173.281 47.7319 171.748Q48.4892 170.215 49.8469 169.43Q51.2092 168.645 53.0286 168.645Q54.9959 168.645 56.1688 169.365L55.6193 170.46Q54.6726 169.836 53.0471 169.836Q50.8536 169.836 49.6022 171.226Q48.3553 172.616 48.3553 175.267Q48.3553 175.738 48.4107 176.343Q48.9049 175.267 49.9808 174.671Q51.0614 174.076 52.4606 174.076ZM52.3452 180.961Q53.786 180.961 54.6819 180.176Q55.5824 179.391 55.5824 178.084Q55.5824 176.782 54.6819 176.006Q53.786 175.23 52.2528 175.23Q51.2507 175.23 50.4842 175.609Q49.7176 175.983 49.2789 176.648Q48.8448 177.308 48.8448 178.121Q48.8448 178.878 49.2512 179.525Q49.6622 180.167 50.4565 180.564Q51.2507 180.961 52.3452 180.961ZM63.7721 182.115Q62.2389 182.115 61.0383 181.303Q59.8376 180.485 59.1634 178.966Q58.4938 177.442 58.4938 175.378Q58.4938 173.318 59.1634 171.794Q59.8376 170.27 61.0383 169.458Q62.2389 168.645 63.7721 168.645Q65.3052 168.645 66.5059 169.458Q67.7065 170.27 68.3854 171.794Q69.0688 173.318 69.0688 175.378Q69.0688 177.442 68.3854 178.966Q67.7065 180.485 66.5059 181.303Q65.3052 182.115 63.7721 182.115ZM63.7721 180.864Q64.9265 180.864 65.8039 180.222Q66.686 179.58 67.1755 178.352Q67.6696 177.119 67.6696 175.378Q67.6696 173.642 67.1755 172.413Q66.686 171.18 65.8039 170.538Q64.9265 169.896 63.7721 169.896Q62.6176 169.896 61.7356 170.538Q60.8582 171.18 60.364 172.413Q59.8745 173.642 59.8745 175.378Q59.8745 177.119 60.364 178.352Q60.8582 179.58 61.7356 180.222Q62.6176 180.864 63.7721 180.864ZM73.814 175.854Q72.4701 175.854 71.6482 174.861Q70.8262 173.868 70.8262 172.261Q70.8262 170.649 71.6482 169.656Q72.4701 168.663 73.814 168.663Q75.1393 168.663 75.9705 169.647Q76.8017 170.631 76.8017 172.261Q76.8017 173.886 75.9705 174.87Q75.1393 175.854 73.814 175.854ZM81.8353 168.76L82.9528 168.76L73.9109 182L72.7934 182L81.8353 168.76ZM73.814 174.999Q74.7422 174.999 75.3009 174.274Q75.8597 173.545 75.8597 172.261Q75.8597 170.972 75.3009 170.247Q74.7422 169.518 73.814 169.518Q72.8673 169.518 72.3177 170.257Q71.7728 170.991 71.7728 172.261Q71.7728 173.526 72.3177 174.265Q72.8673 174.999 73.814 174.999ZM81.9276 182.092Q80.6069 182.092 79.7711 181.1Q78.9398 180.107 78.9398 178.5Q78.9398 176.893 79.7711 175.9Q80.6069 174.907 81.9276 174.907Q83.2714 174.907 84.0934 175.9Q84.92 176.893 84.92 178.5Q84.92 180.107 84.0934 181.1Q83.2714 182.092 81.9276 182.092ZM81.9276 181.243Q82.8743 181.243 83.4238 180.508Q83.9734 179.77 83.9734 178.5Q83.9734 177.234 83.4238 176.495Q82.8743 175.757 81.9276 175.757Q81.0041 175.757 80.4453 176.486Q79.8865 177.216 79.8865 178.5Q79.8865 179.788 80.4453 180.518Q81.0041 181.243 81.9276 181.243Z" fill="#000000" fill-opacity="1.000000" fill-rule="evenodd"/>
	<path id="70%" d="M57.0732 115.76L57.0732 116.726L51.5317 129L50.0586 129L55.5031 116.97L48.6963 116.97L48.6963 119.45L47.3525 119.45L47.3525 115.76L57.0732 115.76ZM63.7721 129.115Q62.2389 129.115 61.0383 128.303Q59.8376 127.485 59.1634 125.966Q58.4938 124.442 58.4938 122.378Q58.4938 120.318 59.1634 118.794Q59.8376 117.27 61.0383 116.458Q62.2389 115.645 63.7721 115.645Q65.3052 115.645 66.5059 116.458Q67.7065 117.27 68.3854 118.794Q69.0688 120.318 69.0688 122.378Q69.0688 124.442 68.3854 125.966Q67.7065 127.485 66.5059 128.303Q65.3052 129.115 63.7721 129.115ZM63.7721 127.864Q64.9265 127.864 65.8039 127.222Q66.686 126.58 67.1755 125.352Q67.6696 124.119 67.6696 122.378Q67.6696 120.642 67.1755 119.413Q66.686 118.18 65.8039 117.538Q64.9265 116.896 63.7721 116.896Q62.6176 116.896 61.7356 117.538Q60.8582 118.18 60.364 119.413Q59.8745 120.642 59.8745 122.378Q59.8745 124.119 60.364 125.352Q60.8582 126.58 61.7356 127.222Q62.6176 127.864 63.7721 127.864ZM73.814 122.854Q72.4701 122.854 71.6482 121.861Q70.8262 120.868 70.8262 119.261Q70.8262 117.649 71.6482 116.656Q72.4701 115.663 73.814 115.663Q75.1393 115.663 75.9705 116.647Q76.8017 117.631 76.8017 119.261Q76.8017 120.886 75.9705 121.87Q75.1393 122.854 73.814 122.854ZM81.8353 115.76L82.9528 115.76L73.9109 129L72.7934 129L81.8353 115.76ZM73.814 121.999Q74.7422 121.999 75.3009 121.274Q75.8597 120.545 75.8597 119.261Q75.8597 117.972 75.3009 117.247Q74.7422 116.518 73.814 116.518Q72.8673 116.518 72.3177 117.257Q71.7728 117.991 71.7728 119.261Q71.7728 120.526 72.3177 121.265Q72.8673 121.999 73.814 121.999ZM81.9276 129.092Q80.6069 129.092 79.7711 128.1Q78.9398 127.107 78.9398 125.5Q78.9398 123.893 79.7711 122.9Q80.6069 121.907 81.9276 121.907Q83.2714 121.907 84.0934 122.9Q84.92 123.893 84.92 125.5Q84.92 127.107 84.0934 128.1Q83.2714 129.092 81.9276 129.092ZM81.9276 128.243Q82.8743 128.243 83.4238 127.508Q83.9734 126.77 83.9734 125.5Q83.9734 124.234 83.4238 123.495Q82.8743 122.757 81.9276 122.757Q81.0041 122.757 80.4453 123.486Q79.8865 124.216 79.8865 125.5Q79.8865 126.788 80.4453 127.518Q81.0041 128.243 81.9276 128.243Z" fill="#000000" fill-opacity="1.000000" fill-rule="evenodd"/>
	<path id="80%" d="M54.0086 69.0593Q55.2601 69.4749 55.9297 70.3061Q56.6039 71.1373 56.6039 72.3103Q56.6039 73.4648 55.9759 74.3283Q55.3525 75.1872 54.1887 75.6537Q53.025 76.1154 51.4596 76.1154Q49.0721 76.1154 47.7098 75.0949Q46.3521 74.0697 46.3521 72.3103Q46.3521 71.1189 47.0033 70.2969Q47.6544 69.4749 48.9058 69.0593Q47.8807 68.6621 47.3496 67.914Q46.8232 67.1659 46.8232 66.1454Q46.8232 64.5383 48.0792 63.5917Q49.3399 62.645 51.4596 62.645Q52.8588 62.645 53.907 63.0745Q54.9553 63.4993 55.5418 64.2936Q56.1283 65.0879 56.1283 66.1454Q56.1283 67.1659 55.5787 67.914Q55.0338 68.6621 54.0086 69.0593ZM48.1855 66.1823Q48.1855 67.2814 49.0536 67.9233Q49.9264 68.5652 51.4596 68.5652Q52.9881 68.5652 53.8655 67.9233Q54.7475 67.2814 54.7475 66.2008Q54.7475 65.0879 53.847 64.446Q52.9511 63.7995 51.4596 63.7995Q49.9449 63.7995 49.0629 64.446Q48.1855 65.0879 48.1855 66.1823ZM51.4596 74.961Q53.2144 74.961 54.2072 74.2406Q55.2047 73.5202 55.2047 72.2918Q55.2047 71.0634 54.2072 70.3569Q53.2144 69.6458 51.4596 69.6458Q49.7186 69.6458 48.7257 70.3569Q47.7329 71.0634 47.7329 72.2918Q47.7329 73.5433 48.7165 74.2544Q49.7001 74.961 51.4596 74.961ZM63.7721 76.1154Q62.2389 76.1154 61.0383 75.3027Q59.8376 74.4853 59.1634 72.966Q58.4938 71.4421 58.4938 69.3779Q58.4938 67.3183 59.1634 65.7944Q59.8376 64.2705 61.0383 63.4577Q62.2389 62.645 63.7721 62.645Q65.3052 62.645 66.5059 63.4577Q67.7065 64.2705 68.3854 65.7944Q69.0688 67.3183 69.0688 69.3779Q69.0688 71.4421 68.3854 72.966Q67.7065 74.4853 66.5059 75.3027Q65.3052 76.1154 63.7721 76.1154ZM63.7721 74.864Q64.9265 74.864 65.8039 74.2221Q66.686 73.5802 67.1755 72.3518Q67.6696 71.1189 67.6696 69.3779Q67.6696 67.6416 67.1755 66.4132Q66.686 65.1802 65.8039 64.5383Q64.9265 63.8964 63.7721 63.8964Q62.6176 63.8964 61.7356 64.5383Q60.8582 65.1802 60.364 66.4132Q59.8745 67.6416 59.8745 69.3779Q59.8745 71.1189 60.364 72.3518Q60.8582 73.5802 61.7356 74.2221Q62.6176 74.864 63.7721 74.864ZM73.814 69.8536Q72.4701 69.8536 71.6482 68.8607Q70.8262 67.8679 70.8262 66.2608Q70.8262 64.6492 71.6482 63.6563Q72.4701 62.6635 73.814 62.6635Q75.1393 62.6635 75.9705 63.6471Q76.8017 64.6307 76.8017 66.2608Q76.8017 67.8863 75.9705 68.8699Q75.1393 69.8536 73.814 69.8536ZM81.8353 62.7604L82.9528 62.7604L73.9109 76L72.7934 76L81.8353 62.7604ZM73.814 68.9992Q74.7422 68.9992 75.3009 68.2742Q75.8597 67.5446 75.8597 66.2608Q75.8597 64.9724 75.3009 64.2474Q74.7422 63.5178 73.814 63.5178Q72.8673 63.5178 72.3177 64.2566Q71.7728 64.9909 71.7728 66.2608Q71.7728 67.5261 72.3177 68.265Q72.8673 68.9992 73.814 68.9992ZM81.9276 76.0924Q80.6069 76.0924 79.7711 75.0995Q78.9398 74.1067 78.9398 72.4996Q78.9398 70.8926 79.7711 69.8997Q80.6069 68.9069 81.9276 68.9069Q83.2714 68.9069 84.0934 69.8997Q84.92 70.8926 84.92 72.4996Q84.92 74.1067 84.0934 75.0995Q83.2714 76.0924 81.9276 76.0924ZM81.9276 75.2427Q82.8743 75.2427 83.4238 74.5084Q83.9734 73.7695 83.9734 72.4996Q83.9734 71.2343 83.4238 70.4954Q82.8743 69.7566 81.9276 69.7566Q81.0041 69.7566 80.4453 70.4862Q79.8865 71.2158 79.8865 72.4996Q79.8865 73.788 80.4453 74.5176Q81.0041 75.2427 81.9276 75.2427Z" fill="#000000" fill-opacity="1.000000" fill-rule="evenodd"/>
	<path id="90%" d="M51.0984 9.64499Q53.726 9.64499 55.1252 11.3767Q56.5244 13.1084 56.5244 16.2671Q56.5244 18.4791 55.7671 20.0122Q55.0144 21.5454 53.6521 22.3304Q52.2898 23.1154 50.4749 23.1154Q48.5077 23.1154 47.3348 22.3951L47.8843 21.296Q48.8263 21.924 50.4565 21.924Q52.65 21.924 53.8968 20.534Q55.1437 19.1394 55.1437 16.4934Q55.1437 15.9992 55.0882 15.4174Q54.5987 16.4934 53.5181 17.0891Q52.4422 17.6848 51.0429 17.6848Q49.7361 17.6848 48.7248 17.1953Q47.7134 16.7012 47.1454 15.8053Q46.5774 14.9048 46.5774 13.7134Q46.5774 12.5035 47.1639 11.5753Q47.7504 10.6471 48.7802 10.1483Q49.81 9.64499 51.0984 9.64499ZM51.2507 16.5303Q52.2528 16.5303 53.0194 16.1516Q53.786 15.773 54.2201 15.1126Q54.6542 14.4522 54.6542 13.6349Q54.6542 12.8821 54.2478 12.2403Q53.8414 11.5938 53.0471 11.1966Q52.2528 10.7995 51.1538 10.7995Q49.7176 10.7995 48.8171 11.5845Q47.9212 12.3696 47.9212 13.6764Q47.9212 14.9787 48.8171 15.7545Q49.7176 16.5303 51.2507 16.5303ZM63.7721 23.1154Q62.2389 23.1154 61.0383 22.3027Q59.8376 21.4853 59.1634 19.966Q58.4938 18.4421 58.4938 16.3779Q58.4938 14.3183 59.1634 12.7944Q59.8376 11.2705 61.0383 10.4577Q62.2389 9.64499 63.7721 9.64499Q65.3052 9.64499 66.5059 10.4577Q67.7065 11.2705 68.3854 12.7944Q69.0688 14.3183 69.0688 16.3779Q69.0688 18.4421 68.3854 19.966Q67.7065 21.4853 66.5059 22.3027Q65.3052 23.1154 63.7721 23.1154ZM63.7721 21.864Q64.9265 21.864 65.8039 21.2221Q66.686 20.5802 67.1755 19.3518Q67.6696 18.1189 67.6696 16.3779Q67.6696 14.6416 67.1755 13.4132Q66.686 12.1802 65.8039 11.5383Q64.9265 10.8964 63.7721 10.8964Q62.6176 10.8964 61.7356 11.5383Q60.8582 12.1802 60.364 13.4132Q59.8745 14.6416 59.8745 16.3779Q59.8745 18.1189 60.364 19.3518Q60.8582 20.5802 61.7356 21.2221Q62.6176 21.864 63.7721 21.864ZM73.814 16.8536Q72.4701 16.8536 71.6482 15.8607Q70.8262 14.8679 70.8262 13.2608Q70.8262 11.6492 71.6482 10.6563Q72.4701 9.66346 73.814 9.66346Q75.1393 9.66346 75.9705 10.6471Q76.8017 11.6307 76.8017 13.2608Q76.8017 14.8863 75.9705 15.8699Q75.1393 16.8536 73.814 16.8536ZM81.8353 9.76044L82.9528 9.76044L73.9109 23L72.7934 23L81.8353 9.76044ZM73.814 15.9992Q74.7422 15.9992 75.3009 15.2742Q75.8597 14.5446 75.8597 13.2608Q75.8597 11.9724 75.3009 11.2474Q74.7422 10.5178 73.814 10.5178Q72.8673 10.5178 72.3177 11.2566Q71.7728 11.9909 71.7728 13.2608Q71.7728 14.5261 72.3177 15.265Q72.8673 15.9992 73.814 15.9992ZM81.9276 23.0924Q80.6069 23.0924 79.7711 22.0995Q78.9398 21.1067 78.9398 19.4996Q78.9398 17.8926 79.7711 16.8997Q80.6069 15.9069 81.9276 15.9069Q83.2714 15.9069 84.0934 16.8997Q84.92 17.8926 84.92 19.4996Q84.92 21.1067 84.0934 22.0995Q83.2714 23.0924 81.9276 23.0924ZM81.9276 22.2427Q82.8743 22.2427 83.4238 21.5084Q83.9734 20.7695 83.9734 19.4996Q83.9734 18.2343 83.4238 17.4954Q82.8743 16.7566 81.9276 16.7566Q81.0041 16.7566 80.4453 17.4862Q79.8865 18.2158 79.8865 19.4996Q79.8865 20.788 80.4453 21.5176Q81.0041 22.2427 81.9276 22.2427Z" fill="#000000" fill-opacity="1.000000" fill-rule="evenodd"/>
	<path id="image 9 (Traced)" d="M414.792 541.151C414.127 541.396 413.62 542.222 413.727 542.884C413.843 543.601 414.03 543.814 418.279 548.095C423.868 553.724 423.868 552.367 418.279 557.996C415.167 561.131 414.084 562.27 413.95 562.554C413.174 564.197 414.609 565.574 416.247 564.758C416.846 564.459 426.788 554.485 427.072 553.897C427.708 552.581 427.79 552.691 421.731 546.625C415.832 540.717 415.876 540.753 414.792 541.151ZM424.985 541.404C424.253 541.843 424.005 542.771 424.398 543.602C424.542 543.906 425.526 544.945 428.694 548.135C434.235 553.717 434.241 552.368 428.653 557.996C425.541 561.131 424.458 562.27 424.324 562.554C423.547 564.197 424.983 565.574 426.621 564.758C427.24 564.449 437.094 554.568 437.405 553.945C438.083 552.583 438.138 552.661 432.189 546.703C426.236 540.742 426.169 540.693 424.985 541.404Z" fill="url(#paint_linear_76_3216_0)" fill-opacity="1.000000" fill-rule="evenodd"/>
	<path id="image 9 (Traced)" d="M743.792 541.151C743.127 541.396 742.62 542.222 742.727 542.884C742.843 543.601 743.03 543.814 747.279 548.095C752.868 553.724 752.868 552.367 747.279 557.996C744.167 561.131 743.084 562.27 742.95 562.554C742.174 564.197 743.609 565.574 745.247 564.758C745.846 564.459 755.788 554.485 756.072 553.897C756.708 552.581 756.79 552.691 750.731 546.625C744.832 540.717 744.876 540.753 743.792 541.151ZM753.985 541.404C753.253 541.843 753.005 542.771 753.398 543.602C753.542 543.906 754.526 544.945 757.694 548.135C763.235 553.717 763.241 552.368 757.653 557.996C754.541 561.131 753.458 562.27 753.324 562.554C752.547 564.197 753.983 565.574 755.621 564.758C756.24 564.449 766.094 554.568 766.405 553.945C767.083 552.583 767.138 552.661 761.189 546.703C755.236 540.742 755.169 540.693 753.985 541.404Z" fill="url(#paint_linear_76_3243_0)" fill-opacity="1.000000" fill-rule="evenodd"/>
	<path id="image 9 (Traced)" d="M1062.79 541.151C1062.13 541.396 1061.62 542.222 1061.73 542.884C1061.84 543.601 1062.03 543.814 1066.28 548.095C1071.87 553.724 1071.87 552.367 1066.28 557.996C1063.17 561.131 1062.08 562.27 1061.95 562.554C1061.17 564.197 1062.61 565.574 1064.25 564.758C1064.85 564.459 1074.79 554.485 1075.07 553.897C1075.71 552.581 1075.79 552.691 1069.73 546.625C1063.83 540.717 1063.88 540.753 1062.79 541.151ZM1072.98 541.404C1072.25 541.843 1072.01 542.771 1072.4 543.602C1072.54 543.906 1073.53 544.945 1076.69 548.135C1082.23 553.717 1082.24 552.368 1076.65 557.996C1073.54 561.131 1072.46 562.27 1072.32 562.554C1071.55 564.197 1072.98 565.574 1074.62 564.758C1075.24 564.449 1085.09 554.568 1085.4 553.945C1086.08 552.583 1086.14 552.661 1080.19 546.703C1074.24 540.742 1074.17 540.693 1072.98 541.404Z" fill="url(#paint_linear_76_3244_0)" fill-opacity="1.000000" fill-rule="evenodd"/>
	<path id="image 9 (Traced)" d="M1381.79 541.151C1381.13 541.396 1380.62 542.222 1380.73 542.884C1380.84 543.601 1381.03 543.814 1385.28 548.095C1390.87 553.724 1390.87 552.367 1385.28 557.996C1382.17 561.131 1381.08 562.27 1380.95 562.554C1380.17 564.197 1381.61 565.574 1383.25 564.758C1383.85 564.459 1393.79 554.485 1394.07 553.897C1394.71 552.581 1394.79 552.691 1388.73 546.625C1382.83 540.717 1382.88 540.753 1381.79 541.151ZM1391.98 541.404C1391.25 541.843 1391.01 542.771 1391.4 543.602C1391.54 543.906 1392.53 544.945 1395.69 548.135C1401.23 553.717 1401.24 552.368 1395.65 557.996C1392.54 561.131 1391.46 562.27 1391.32 562.554C1390.55 564.197 1391.98 565.574 1393.62 564.758C1394.24 564.449 1404.09 554.568 1404.4 553.945C1405.08 552.583 1405.14 552.661 1399.19 546.703C1393.24 540.742 1393.17 540.693 1391.98 541.404Z" fill="url(#paint_linear_76_3245_0)" fill-opacity="1.000000" fill-rule="evenodd"/>
</svg>
