<svg width="1293.353027" height="654.839844" viewBox="0 0 1293.35 654.84" fill="none" xmlns="http://www.w3.org/2000/svg">
	<desc>
			Created with Pixso.
	</desc>
	<defs>
		<linearGradient id="paint_linear_69_214_0" x1="376.977539" y1="347.736481" x2="368.166016" y2="547.449585" gradientUnits="userSpaceOnUse">
			<stop stop-color="#E70E00"/>
			<stop offset="1.000000" stop-color="#FF7777"/>
		</linearGradient>
		<linearGradient id="paint_linear_69_245_0" x1="950.976074" y1="-33.738197" x2="942.165955" y2="531.164612" gradientUnits="userSpaceOnUse">
			<stop stop-color="#E70E00"/>
			<stop offset="1.000000" stop-color="#FF7777"/>
		</linearGradient>
		<linearGradient id="paint_linear_69_241_0" x1="496.666016" y1="459.355469" x2="496.666016" y2="614.182373" gradientUnits="userSpaceOnUse">
			<stop stop-color="#BBBBBB"/>
			<stop offset="1.000000" stop-color="#BBBBBB" stop-opacity="0.000000"/>
		</linearGradient>
		<linearGradient id="paint_linear_69_246_0" x1="1070.666016" y1="349.355469" x2="1070.666016" y2="679.759277" gradientUnits="userSpaceOnUse">
			<stop stop-color="#BBBBBB"/>
			<stop offset="1.000000" stop-color="#BBBBBB" stop-opacity="0.000000"/>
		</linearGradient>
		<linearGradient id="paint_linear_69_233_0" x1="706.251282" y1="609.480408" x2="759.262878" y2="618.292908" gradientUnits="userSpaceOnUse">
			<stop stop-color="#E10920"/>
			<stop offset="1.000000" stop-color="#FF7785"/>
		</linearGradient>
	</defs>
	<path id="Line 2" d="M175.348 3.35547L175.348 557.355L172.984 557.355L172.984 3.35547L175.348 3.35547ZM174.166 5.02734L168.314 10.8789C167.846 11.3467 167.111 11.3467 166.643 10.8789C166.174 10.4111 166.174 9.6748 166.643 9.20703L173.33 2.51953C173.798 2.05176 174.534 2.05176 175.002 2.51953L181.689 9.20703C182.158 9.6748 182.158 10.4111 181.689 10.8789C181.221 11.3467 180.486 11.3467 180.018 10.8789L174.166 5.02734Z" fill="#000000" fill-opacity="1.000000" fill-rule="evenodd"/>
	<path id="Line 3" d="M1292.17 558.413L173.818 558.413L173.818 556.048L1292.17 556.048L1292.17 558.413ZM1290.49 557.23L1284.64 551.379C1284.17 550.911 1284.17 550.175 1284.64 549.707C1285.11 549.239 1285.85 549.239 1286.31 549.707L1293 556.395C1293.47 556.862 1293.47 557.599 1293 558.066L1286.31 564.754C1285.85 565.222 1285.11 565.222 1284.64 564.754C1284.17 564.286 1284.17 563.55 1284.64 563.082L1290.49 557.23Z" fill="#000000" fill-opacity="1.000000" fill-rule="evenodd"/>
	<path id="31%" d="M344.808 349.183Q348.616 349.809 350.636 352.021Q352.667 354.233 352.667 357.496Q352.667 360.022 351.343 362.153Q350.02 364.285 347.313 365.568Q344.606 366.85 340.676 366.85Q337.605 366.85 334.645 366.042Q331.696 365.234 329.625 363.749L332.231 358.618Q333.888 359.86 336.06 360.547Q338.231 361.224 340.504 361.224Q343.03 361.224 344.474 360.254Q345.929 359.284 345.929 357.496Q345.929 353.94 340.504 353.94L337.443 353.94L337.443 349.516L343.403 342.768L331.069 342.768L331.069 337.394L351.343 337.394L351.343 341.738L344.808 349.183ZM366.949 337.394L366.949 366.355L360.241 366.355L360.241 342.768L354.453 342.768L354.453 337.394L366.949 337.394ZM378.693 353.031Q375.511 353.031 373.501 350.859Q371.501 348.688 371.501 345.051Q371.501 341.404 373.501 339.232Q375.511 337.061 378.693 337.061Q381.885 337.061 383.865 339.232Q385.855 341.404 385.855 345.051Q385.855 348.688 383.865 350.859Q381.885 353.031 378.693 353.031ZM395.947 337.394L400.877 337.394L381.098 366.355L376.168 366.355L395.947 337.394ZM378.693 349.637Q380.108 349.637 380.906 348.486Q381.714 347.324 381.714 345.051Q381.714 342.768 380.906 341.616Q380.108 340.455 378.693 340.455Q377.33 340.455 376.501 341.637Q375.673 342.808 375.673 345.051Q375.673 347.283 376.501 348.465Q377.33 349.637 378.693 349.637ZM398.351 366.689Q396.28 366.689 394.644 365.719Q393.018 364.739 392.098 362.921Q391.189 361.103 391.189 358.698Q391.189 356.304 392.098 354.486Q393.018 352.658 394.644 351.688Q396.28 350.718 398.351 350.718Q401.533 350.718 403.544 352.89Q405.554 355.062 405.554 358.698Q405.554 362.345 403.544 364.517Q401.533 366.689 398.351 366.689ZM398.351 363.295Q399.755 363.295 400.564 362.113Q401.372 360.931 401.372 358.698Q401.372 356.466 400.564 355.294Q399.755 354.112 398.351 354.112Q396.987 354.112 396.159 355.274Q395.331 356.426 395.331 358.698Q395.331 360.981 396.159 362.143Q396.987 363.295 398.351 363.295Z" fill="#E10920" fill-opacity="1.000000" fill-rule="evenodd"/>
	<path id="96%" d="M909.368 17.8989Q915.449 17.8989 918.884 21.6063Q922.318 25.3035 922.318 32.2534Q922.318 37.173 920.48 40.6985Q918.641 44.2138 915.288 46.0321Q911.934 47.8505 907.55 47.8505Q905.236 47.8505 903.125 47.3353Q901.014 46.8201 899.529 45.8705L902.004 40.9409Q904.115 42.3854 907.428 42.3854Q911.105 42.3854 913.257 40.2136Q915.409 38.0417 915.581 33.9505Q912.974 36.5568 908.378 36.5568Q905.61 36.5568 903.327 35.4456Q901.054 34.3243 899.731 32.2736Q898.408 30.223 898.408 27.536Q898.408 24.6368 899.852 22.4447Q901.307 20.2526 903.802 19.0808Q906.307 17.8989 909.368 17.8989ZM909.873 31.5463Q912.065 31.5463 913.449 30.3341Q914.833 29.1118 914.833 27.2026Q914.833 25.3035 913.49 24.1014Q912.146 22.8993 909.782 22.8993Q907.63 22.8993 906.287 24.061Q904.943 25.2227 904.943 27.2026Q904.943 29.1926 906.287 30.3745Q907.63 31.5463 909.873 31.5463ZM939.493 29.1926Q942.271 29.1926 944.544 30.3139Q946.817 31.4251 948.14 33.4757Q949.463 35.5264 949.463 38.2134Q949.463 41.1126 948.019 43.3047Q946.574 45.4968 944.069 46.6787Q941.564 47.8505 938.503 47.8505Q932.422 47.8505 928.987 44.133Q925.552 40.4055 925.552 33.496Q925.552 28.5663 927.411 25.0509Q929.27 21.5356 932.603 19.7172Q935.937 17.8989 940.321 17.8989Q942.634 17.8989 944.766 18.4141Q946.897 18.9293 948.392 19.8789L945.907 24.8085Q943.756 23.3539 940.483 23.3539Q936.806 23.3539 934.654 25.5055Q932.502 27.6572 932.331 31.7585Q934.896 29.1926 939.493 29.1926ZM938.129 42.8501Q940.281 42.8501 941.624 41.6884Q942.968 40.5267 942.968 38.5468Q942.968 36.5568 941.624 35.3749Q940.281 34.193 938.048 34.193Q935.856 34.193 934.442 35.4153Q933.038 36.6376 933.038 38.5468Q933.038 40.4459 934.402 41.648Q935.765 42.8501 938.129 42.8501ZM957.779 34.0313Q954.597 34.0313 952.587 31.8595Q950.587 29.6876 950.587 26.051Q950.587 22.4043 952.587 20.2324Q954.597 18.0606 957.779 18.0606Q960.971 18.0606 962.951 20.2324Q964.941 22.4043 964.941 26.051Q964.941 29.6876 962.951 31.8595Q960.971 34.0313 957.779 34.0313ZM975.033 18.3939L979.962 18.3939L960.183 47.3555L955.254 47.3555L975.033 18.3939ZM957.779 30.6372Q959.193 30.6372 959.991 29.4856Q960.8 28.3239 960.8 26.051Q960.8 23.768 959.991 22.6164Q959.193 21.4547 957.779 21.4547Q956.415 21.4547 955.587 22.6366Q954.759 23.8084 954.759 26.051Q954.759 28.2835 955.587 29.4654Q956.415 30.6372 957.779 30.6372ZM977.437 47.6888Q975.366 47.6888 973.73 46.7191Q972.103 45.7392 971.184 43.9209Q970.275 42.1026 970.275 39.6984Q970.275 37.3043 971.184 35.486Q972.103 33.6576 973.73 32.6878Q975.366 31.7181 977.437 31.7181Q980.619 31.7181 982.629 33.8899Q984.64 36.0618 984.64 39.6984Q984.64 43.3451 982.629 45.517Q980.619 47.6888 977.437 47.6888ZM977.437 44.2947Q978.841 44.2947 979.649 43.1128Q980.457 41.9309 980.457 39.6984Q980.457 37.4659 979.649 36.2941Q978.841 35.1122 977.437 35.1122Q976.073 35.1122 975.245 36.2739Q974.417 37.4255 974.417 39.6984Q974.417 41.9814 975.245 43.1431Q976.073 44.2947 977.437 44.2947Z" fill="#E10920" fill-opacity="1.000000" fill-rule="evenodd"/>
	<path id="18%" d="M477.254 416.394L477.254 445.355L470.546 445.355L470.546 421.768L464.758 421.768L464.758 416.394L477.254 416.394ZM502.121 430.132Q504.272 431.203 505.404 432.94Q506.545 434.678 506.545 436.961Q506.545 439.648 505.01 441.658Q503.484 443.658 500.706 444.759Q497.939 445.85 494.302 445.85Q490.655 445.85 487.897 444.759Q485.15 443.658 483.635 441.658Q482.129 439.648 482.129 436.961Q482.129 434.678 483.271 432.94Q484.412 431.203 486.524 430.132Q484.907 429.132 484.039 427.627Q483.17 426.112 483.17 424.172Q483.17 421.647 484.574 419.788Q485.978 417.919 488.504 416.909Q491.029 415.899 494.302 415.899Q497.605 415.899 500.151 416.909Q502.696 417.919 504.101 419.788Q505.515 421.647 505.515 424.172Q505.515 426.112 504.646 427.627Q503.777 429.132 502.121 430.132ZM494.302 420.818Q492.271 420.818 491.049 421.798Q489.827 422.768 489.827 424.465Q489.827 426.112 491.029 427.071Q492.231 428.021 494.302 428.021Q496.363 428.021 497.605 427.071Q498.848 426.112 498.848 424.465Q498.848 422.768 497.605 421.798Q496.363 420.818 494.302 420.818ZM494.302 440.931Q496.817 440.931 498.282 439.789Q499.757 438.648 499.757 436.749Q499.757 434.85 498.282 433.728Q496.817 432.607 494.302 432.607Q491.817 432.607 490.362 433.728Q488.918 434.85 488.918 436.749Q488.918 438.698 490.362 439.82Q491.817 440.931 494.302 440.931ZM515.893 432.031Q512.711 432.031 510.701 429.859Q508.701 427.688 508.701 424.051Q508.701 420.404 510.701 418.232Q512.711 416.061 515.893 416.061Q519.085 416.061 521.065 418.232Q523.055 420.404 523.055 424.051Q523.055 427.688 521.065 429.859Q519.085 432.031 515.893 432.031ZM533.147 416.394L538.077 416.394L518.297 445.355L513.368 445.355L533.147 416.394ZM515.893 428.637Q517.307 428.637 518.106 427.486Q518.914 426.324 518.914 424.051Q518.914 421.768 518.106 420.616Q517.307 419.455 515.893 419.455Q514.53 419.455 513.701 420.637Q512.873 421.808 512.873 424.051Q512.873 426.283 513.701 427.465Q514.53 428.637 515.893 428.637ZM535.551 445.689Q533.48 445.689 531.844 444.719Q530.217 443.739 529.298 441.921Q528.389 440.103 528.389 437.698Q528.389 435.304 529.298 433.486Q530.217 431.658 531.844 430.688Q533.48 429.718 535.551 429.718Q538.733 429.718 540.743 431.89Q542.754 434.062 542.754 437.698Q542.754 441.345 540.743 443.517Q538.733 445.689 535.551 445.689ZM535.551 442.295Q536.955 442.295 537.763 441.113Q538.572 439.931 538.572 437.698Q538.572 435.466 537.763 434.294Q536.955 433.112 535.551 433.112Q534.187 433.112 533.359 434.274Q532.531 435.426 532.531 437.698Q532.531 439.981 533.359 441.143Q534.187 442.295 535.551 442.295Z" fill="#737373" fill-opacity="1.000000" fill-rule="evenodd"/>
	<path id="39%" d="M1049.74 312.183Q1053.55 312.809 1055.57 315.021Q1057.6 317.233 1057.6 320.496Q1057.6 323.022 1056.27 325.153Q1054.95 327.285 1052.24 328.568Q1049.54 329.85 1045.61 329.85Q1042.54 329.85 1039.58 329.042Q1036.63 328.234 1034.56 326.749L1037.16 321.618Q1038.82 322.86 1040.99 323.547Q1043.16 324.224 1045.44 324.224Q1047.96 324.224 1049.41 323.254Q1050.86 322.284 1050.86 320.496Q1050.86 316.94 1045.44 316.94L1042.37 316.94L1042.37 312.516L1048.33 305.768L1036 305.768L1036 300.394L1056.27 300.394L1056.27 304.738L1049.74 312.183ZM1070.88 299.899Q1076.96 299.899 1080.4 303.606Q1083.83 307.303 1083.83 314.253Q1083.83 319.173 1081.99 322.698Q1080.15 326.214 1076.8 328.032Q1073.45 329.85 1069.06 329.85Q1066.75 329.85 1064.64 329.335Q1062.53 328.82 1061.04 327.871L1063.52 322.941Q1065.63 324.385 1068.94 324.385Q1072.62 324.385 1074.77 322.214Q1076.92 320.042 1077.09 315.951Q1074.49 318.557 1069.89 318.557Q1067.12 318.557 1064.84 317.446Q1062.57 316.324 1061.24 314.274Q1059.92 312.223 1059.92 309.536Q1059.92 306.637 1061.36 304.445Q1062.82 302.253 1065.31 301.081Q1067.82 299.899 1070.88 299.899ZM1071.39 313.546Q1073.58 313.546 1074.96 312.334Q1076.35 311.112 1076.35 309.203Q1076.35 307.303 1075 306.101Q1073.66 304.899 1071.29 304.899Q1069.14 304.899 1067.8 306.061Q1066.46 307.223 1066.46 309.203Q1066.46 311.193 1067.8 312.375Q1069.14 313.546 1071.39 313.546ZM1093.76 316.031Q1090.58 316.031 1088.57 313.859Q1086.57 311.688 1086.57 308.051Q1086.57 304.404 1088.57 302.232Q1090.58 300.061 1093.76 300.061Q1096.95 300.061 1098.93 302.232Q1100.92 304.404 1100.92 308.051Q1100.92 311.688 1098.93 313.859Q1096.95 316.031 1093.76 316.031ZM1111.02 300.394L1115.95 300.394L1096.17 329.355L1091.24 329.355L1111.02 300.394ZM1093.76 312.637Q1095.18 312.637 1095.97 311.486Q1096.78 310.324 1096.78 308.051Q1096.78 305.768 1095.97 304.616Q1095.18 303.455 1093.76 303.455Q1092.4 303.455 1091.57 304.637Q1090.74 305.808 1090.74 308.051Q1090.74 310.283 1091.57 311.465Q1092.4 312.637 1093.76 312.637ZM1113.42 329.689Q1111.35 329.689 1109.71 328.719Q1108.09 327.739 1107.17 325.921Q1106.26 324.103 1106.26 321.698Q1106.26 319.304 1107.17 317.486Q1108.09 315.658 1109.71 314.688Q1111.35 313.718 1113.42 313.718Q1116.6 313.718 1118.61 315.89Q1120.62 318.062 1120.62 321.698Q1120.62 325.345 1118.61 327.517Q1116.6 329.689 1113.42 329.689ZM1113.42 326.295Q1114.82 326.295 1115.63 325.113Q1116.44 323.931 1116.44 321.698Q1116.44 319.466 1115.63 318.294Q1114.82 317.112 1113.42 317.112Q1112.06 317.112 1111.23 318.274Q1110.4 319.426 1110.4 321.698Q1110.4 323.981 1111.23 325.143Q1112.06 326.295 1113.42 326.295Z" fill="#737373" fill-opacity="1.000000" fill-rule="evenodd"/>
	<path id="Rectangle 24" d="M329.445 381.355L405.887 381.355C417.639 381.355 427.166 390.883 427.166 402.635L427.166 556.355L308.166 556.355L308.166 402.635C308.166 390.883 317.693 381.355 329.445 381.355Z" fill="url(#paint_linear_69_214_0)" fill-opacity="1.000000" fill-rule="evenodd"/>
	<path id="Rectangle 26" d="M903.445 61.3555L979.887 61.3555C991.639 61.3555 1001.17 70.8828 1001.17 82.6348L1001.17 556.355L882.166 556.355L882.166 82.6348C882.166 70.8828 891.693 61.3555 903.445 61.3555Z" fill="url(#paint_linear_69_245_0)" fill-opacity="1.000000" fill-rule="evenodd"/>
	<path id="Rectangle 25" d="M458.445 459.355L534.887 459.355C546.639 459.355 556.166 468.883 556.166 480.635L556.166 556.355L437.166 556.355L437.166 480.635C437.166 468.883 446.693 459.355 458.445 459.355Z" fill="url(#paint_linear_69_241_0)" fill-opacity="1.000000" fill-rule="evenodd"/>
	<path id="Rectangle 27" d="M1032.45 349.355L1108.89 349.355C1120.64 349.355 1130.17 358.883 1130.17 370.635L1130.17 556.355L1011.17 556.355L1011.17 370.635C1011.17 358.883 1020.69 349.355 1032.45 349.355Z" fill="url(#paint_linear_69_246_0)" fill-opacity="1.000000" fill-rule="evenodd"/>
	<path id="Line 10" d="M733.166 557.23L733.166 545.408" stroke="#000000" stroke-opacity="1.000000" stroke-width="1.182186" stroke-linecap="round"/>
	<path id="Line 8" d="M173.818 446.355L161.996 446.355" stroke="#000000" stroke-opacity="1.000000" stroke-width="1.182186" stroke-linecap="round"/>
	<path id="Line 11" d="M173.818 336.355L161.996 336.355" stroke="#000000" stroke-opacity="1.000000" stroke-width="1.182186" stroke-linecap="round"/>
	<path id="Line 12" d="M173.818 226.355L161.996 226.355" stroke="#000000" stroke-opacity="1.000000" stroke-width="1.182186" stroke-linecap="round"/>
	<path id="Line 13" d="M173.818 116.355L161.996 116.355" stroke="#000000" stroke-opacity="1.000000" stroke-width="1.182186" stroke-linecap="round"/>
	<path id="Візит 2 (4-й (+/-1) день)" d="M409.632 609.923Q411.109 610.363 411.894 611.356Q412.683 612.348 412.683 613.804Q412.683 615.953 411.053 617.154Q409.423 618.355 406.394 618.355L398.424 618.355L398.424 602.184L405.96 602.184Q408.774 602.184 410.342 603.273Q411.916 604.356 411.916 606.364Q411.916 607.565 411.313 608.479Q410.715 609.393 409.632 609.923ZM402.147 608.885L405.633 608.885Q406.857 608.885 407.483 608.389Q408.109 607.892 408.109 606.917Q408.109 605.975 407.471 605.467Q406.834 604.954 405.633 604.954L402.147 604.954L402.147 608.885ZM406.259 615.58Q408.893 615.58 408.893 613.505Q408.893 611.491 406.259 611.491L402.147 611.491L402.147 615.58L406.259 615.58ZM415.636 602.184L419.359 602.184L419.359 618.355L415.636 618.355L415.636 602.184ZM432.575 609.923Q433.98 610.408 434.775 611.44Q435.576 612.467 435.576 613.826Q435.576 615.304 434.606 616.393Q433.636 617.476 431.983 618.057Q430.33 618.632 428.368 618.632Q426.704 618.632 425.051 618.22Q423.398 617.803 421.921 616.945L423.077 614.266Q424.143 614.915 425.423 615.248Q426.704 615.58 427.928 615.58Q429.592 615.58 430.686 614.982Q431.786 614.379 431.786 613.296Q431.786 612.393 431.036 611.931Q430.285 611.468 428.994 611.468L425.04 611.468L425.04 608.654L428.717 608.654Q429.845 608.654 430.483 608.191Q431.12 607.729 431.12 606.917Q431.12 605.975 430.206 605.444Q429.293 604.909 427.86 604.909Q426.8 604.909 425.666 605.202Q424.532 605.49 423.517 606.065L422.383 603.154Q424.949 601.834 427.928 601.834Q429.823 601.834 431.413 602.393Q433.01 602.946 433.957 604.012Q434.905 605.072 434.905 606.482Q434.905 607.633 434.279 608.535Q433.658 609.438 432.575 609.923ZM438.532 602.184L442.254 602.184L442.254 612.721L449.971 602.184L453.479 602.184L453.479 618.355L449.784 618.355L449.784 607.842L442.068 618.355L438.532 618.355L438.532 602.184ZM469.863 605.23L464.686 605.23L464.686 618.355L460.991 618.355L460.991 605.23L455.836 605.23L455.836 602.184L469.863 602.184L469.863 605.23ZM489.731 615.304L489.731 618.355L477.508 618.355L477.508 615.93L483.747 610.036Q484.739 609.094 485.083 608.411Q485.433 607.729 485.433 607.058Q485.433 606.087 484.773 605.568Q484.119 605.05 482.844 605.05Q481.784 605.05 480.926 605.456Q480.075 605.856 479.494 606.663L476.769 604.909Q477.717 603.498 479.381 602.703Q481.045 601.908 483.194 601.908Q484.993 601.908 486.347 602.5Q487.701 603.087 488.451 604.158Q489.201 605.23 489.201 606.691Q489.201 608.005 488.643 609.161Q488.09 610.318 486.499 611.796L482.776 615.304L489.731 615.304ZM351.965 654.84Q350.577 652.736 349.827 649.966Q349.077 647.191 349.077 644.027Q349.077 640.863 349.827 638.076Q350.577 635.29 351.965 633.214L355.406 633.214Q353.95 635.775 353.279 638.42Q352.614 641.066 352.614 644.027Q352.614 646.982 353.279 649.628Q353.95 652.273 355.406 654.84L351.965 654.84ZM370.885 646.96L368.251 646.96L368.251 650.355L364.602 650.355L364.602 646.96L355.893 646.96L355.893 644.439L363.519 634.184L367.444 634.184L360.377 643.908L364.72 643.908L364.72 640.885L368.251 640.885L368.251 643.908L370.885 643.908L370.885 646.96ZM372.527 642.408L379.064 642.408L379.064 645.296L372.527 645.296L372.527 642.408ZM382.252 634.184L385.974 634.184L385.974 644.721L393.691 634.184L397.199 634.184L397.199 650.355L393.504 650.355L393.504 639.842L385.788 650.355L382.252 650.355L382.252 634.184ZM389.714 633.141Q385.275 633.141 385.23 629.61L387.796 629.61Q387.841 631.296 389.714 631.296Q390.639 631.296 391.124 630.868Q391.609 630.439 391.632 629.61L394.193 629.61Q394.17 631.341 393.059 632.244Q391.953 633.141 389.714 633.141ZM410.324 654.84Q408.937 652.736 408.186 649.966Q407.436 647.191 407.436 644.027Q407.436 640.863 408.186 638.076Q408.937 635.29 410.324 633.214L413.765 633.214Q412.31 635.775 411.638 638.42Q410.973 641.066 410.973 644.027Q410.973 646.982 411.638 649.628Q412.31 652.273 413.765 654.84L410.324 654.84ZM426.429 643.677L422.408 643.677L422.408 647.609L419.43 647.609L419.43 643.677L415.43 643.677L415.43 640.863L419.43 640.863L419.43 636.931L422.408 636.931L422.408 640.863L426.429 640.863L426.429 643.677ZM434.701 630.901L437.911 630.901L430.285 652.668L427.075 652.668L434.701 630.901ZM436.454 642.408L442.992 642.408L442.992 645.296L436.454 645.296L436.454 642.408ZM450.827 634.184L450.827 650.355L447.081 650.355L447.081 637.185L443.849 637.185L443.849 634.184L450.827 634.184ZM452.973 654.84Q454.429 652.273 455.111 649.628Q455.794 646.982 455.794 644.027Q455.794 641.066 455.111 638.42Q454.429 635.775 452.973 633.214L456.414 633.214Q457.824 635.267 458.574 638.054Q459.325 640.834 459.325 644.027Q459.325 647.214 458.586 649.978Q457.847 652.736 456.414 654.84L452.973 654.84ZM486.244 647.304L486.244 653.706L482.775 653.706L482.775 650.355L471.365 650.355L471.365 653.706L467.896 653.706L467.924 647.304L468.567 647.304Q470.022 647.259 470.62 645.183Q471.223 643.102 471.365 639.244L471.551 634.184L483.977 634.184L483.977 647.304L486.244 647.304ZM474.67 639.588Q474.551 642.476 474.179 644.427Q473.812 646.379 473.051 647.304L480.282 647.304L480.282 637.23L474.738 637.23L474.67 639.588ZM501.28 647.355L501.28 650.355L488.759 650.355L488.759 634.184L500.981 634.184L500.981 637.185L492.476 637.185L492.476 640.699L499.989 640.699L499.989 643.609L492.476 643.609L492.476 647.355L501.28 647.355ZM519.142 634.184L519.142 650.355L515.396 650.355L515.396 643.722L508.052 643.722L508.052 650.355L504.307 650.355L504.307 634.184L508.052 634.184L508.052 640.558L515.396 640.558L515.396 634.184L519.142 634.184ZM531.017 639.497Q533.973 639.497 535.552 640.817Q537.137 642.132 537.137 644.721Q537.137 647.468 535.394 648.911Q533.651 650.355 530.487 650.355L523.183 650.355L523.183 634.184L526.905 634.184L526.905 639.497L531.017 639.497ZM530.278 647.58Q531.734 647.58 532.552 646.87Q533.375 646.153 533.375 644.788Q533.375 642.267 530.278 642.267L526.905 642.267L526.905 647.58L530.278 647.58ZM537.902 654.84Q539.357 652.273 540.039 649.628Q540.722 646.982 540.722 644.027Q540.722 641.066 540.039 638.42Q539.357 635.775 537.902 633.214L541.342 633.214Q542.753 635.267 543.503 638.054Q544.253 640.834 544.253 644.027Q544.253 647.214 543.514 649.978Q542.775 652.736 541.342 654.84L537.902 654.84Z" fill="#000000" fill-opacity="1.000000" fill-rule="evenodd"/>
	<path id="Візит 3 (7-й (+/-1) день)" d="M990.609 609.923Q992.086 610.363 992.87 611.356Q993.66 612.348 993.66 613.804Q993.66 615.953 992.03 617.154Q990.4 618.355 987.371 618.355L979.401 618.355L979.401 602.184L986.937 602.184Q989.751 602.184 991.319 603.273Q992.893 604.356 992.893 606.364Q992.893 607.565 992.289 608.479Q991.692 609.393 990.609 609.923ZM983.124 608.885L986.609 608.885Q987.833 608.885 988.46 608.389Q989.086 607.892 989.086 606.917Q989.086 605.975 988.448 605.467Q987.811 604.954 986.609 604.954L983.124 604.954L983.124 608.885ZM987.236 615.58Q989.87 615.58 989.87 613.505Q989.87 611.491 987.236 611.491L983.124 611.491L983.124 615.58L987.236 615.58ZM996.613 602.184L1000.34 602.184L1000.34 618.355L996.613 618.355L996.613 602.184ZM1013.55 609.923Q1014.96 610.408 1015.75 611.44Q1016.55 612.467 1016.55 613.826Q1016.55 615.304 1015.58 616.393Q1014.61 617.476 1012.96 618.057Q1011.31 618.632 1009.34 618.632Q1007.68 618.632 1006.03 618.22Q1004.38 617.803 1002.9 616.945L1004.05 614.266Q1005.12 614.915 1006.4 615.248Q1007.68 615.58 1008.9 615.58Q1010.57 615.58 1011.66 614.982Q1012.76 614.379 1012.76 613.296Q1012.76 612.393 1012.01 611.931Q1011.26 611.468 1009.97 611.468L1006.02 611.468L1006.02 608.654L1009.69 608.654Q1010.82 608.654 1011.46 608.191Q1012.1 607.729 1012.1 606.917Q1012.1 605.975 1011.18 605.444Q1010.27 604.909 1008.84 604.909Q1007.78 604.909 1006.64 605.202Q1005.51 605.49 1004.49 606.065L1003.36 603.154Q1005.93 601.834 1008.9 601.834Q1010.8 601.834 1012.39 602.393Q1013.99 602.946 1014.93 604.012Q1015.88 605.072 1015.88 606.482Q1015.88 607.633 1015.26 608.535Q1014.64 609.438 1013.55 609.923ZM1019.51 602.184L1023.23 602.184L1023.23 612.721L1030.95 602.184L1034.46 602.184L1034.46 618.355L1030.76 618.355L1030.76 607.842L1023.05 618.355L1019.51 618.355L1019.51 602.184ZM1050.84 605.23L1045.66 605.23L1045.66 618.355L1041.97 618.355L1041.97 605.23L1036.81 605.23L1036.81 602.184L1050.84 602.184L1050.84 605.23ZM1066.18 608.767Q1068.31 609.116 1069.43 610.352Q1070.57 611.587 1070.57 613.409Q1070.57 614.819 1069.83 616.009Q1069.09 617.199 1067.58 617.916Q1066.07 618.632 1063.87 618.632Q1062.16 618.632 1060.5 618.181Q1058.86 617.729 1057.7 616.9L1059.16 614.035Q1060.08 614.729 1061.29 615.112Q1062.51 615.49 1063.78 615.49Q1065.19 615.49 1065.99 614.949Q1066.8 614.407 1066.8 613.409Q1066.8 611.423 1063.78 611.423L1062.07 611.423L1062.07 608.953L1065.39 605.185L1058.51 605.185L1058.51 602.184L1069.83 602.184L1069.83 604.61L1066.18 608.767ZM934.224 654.84Q932.836 652.736 932.086 649.966Q931.336 647.191 931.336 644.027Q931.336 640.863 932.086 638.076Q932.836 635.29 934.224 633.214L937.665 633.214Q936.21 635.775 935.538 638.42Q934.873 641.066 934.873 644.027Q934.873 646.982 935.538 649.628Q936.21 652.273 937.665 654.84L934.224 654.84ZM951.457 634.184L951.457 636.61L945.45 650.355L941.383 650.355L947.187 637.23L941.823 637.23L941.823 639.864L938.495 639.864L938.495 634.184L951.457 634.184ZM952.268 642.408L958.805 642.408L958.805 645.296L952.268 645.296L952.268 642.408ZM961.992 634.184L965.715 634.184L965.715 644.721L973.431 634.184L976.94 634.184L976.94 650.355L973.245 650.355L973.245 639.842L965.529 650.355L961.992 650.355L961.992 634.184ZM969.455 633.141Q965.016 633.141 964.971 629.61L967.537 629.61Q967.582 631.296 969.455 631.296Q970.38 631.296 970.865 630.868Q971.35 630.439 971.373 629.61L973.933 629.61Q973.911 631.341 972.8 632.244Q971.694 633.141 969.455 633.141ZM990.065 654.84Q988.678 652.736 987.927 649.966Q987.177 647.191 987.177 644.027Q987.177 640.863 987.927 638.076Q988.678 635.29 990.065 633.214L993.506 633.214Q992.051 635.775 991.379 638.42Q990.714 641.066 990.714 644.027Q990.714 646.982 991.379 649.628Q992.051 652.273 993.506 654.84L990.065 654.84ZM1006.17 643.677L1002.15 643.677L1002.15 647.609L999.17 647.609L999.17 643.677L995.171 643.677L995.171 640.863L999.17 640.863L999.17 636.931L1002.15 636.931L1002.15 640.863L1006.17 640.863L1006.17 643.677ZM1014.44 630.901L1017.65 630.901L1010.03 652.668L1006.82 652.668L1014.44 630.901ZM1016.2 642.408L1022.73 642.408L1022.73 645.296L1016.2 645.296L1016.2 642.408ZM1030.57 634.184L1030.57 650.355L1026.82 650.355L1026.82 637.185L1023.59 637.185L1023.59 634.184L1030.57 634.184ZM1032.71 654.84Q1034.17 652.273 1034.85 649.628Q1035.53 646.982 1035.53 644.027Q1035.53 641.066 1034.85 638.42Q1034.17 635.775 1032.71 633.214L1036.16 633.214Q1037.57 635.267 1038.32 638.054Q1039.07 640.834 1039.07 644.027Q1039.07 647.214 1038.33 649.978Q1037.59 652.736 1036.16 654.84L1032.71 654.84ZM1065.98 647.304L1065.98 653.706L1062.52 653.706L1062.52 650.355L1051.11 650.355L1051.11 653.706L1047.64 653.706L1047.66 647.304L1048.31 647.304Q1049.76 647.259 1050.36 645.183Q1050.96 643.102 1051.11 639.244L1051.29 634.184L1063.72 634.184L1063.72 647.304L1065.98 647.304ZM1054.41 639.588Q1054.29 642.476 1053.92 644.427Q1053.55 646.379 1052.79 647.304L1060.02 647.304L1060.02 637.23L1054.48 637.23L1054.41 639.588ZM1081.02 647.355L1081.02 650.355L1068.5 650.355L1068.5 634.184L1080.72 634.184L1080.72 637.185L1072.22 637.185L1072.22 640.699L1079.73 640.699L1079.73 643.609L1072.22 643.609L1072.22 647.355L1081.02 647.355ZM1098.88 634.184L1098.88 650.355L1095.14 650.355L1095.14 643.722L1087.79 643.722L1087.79 650.355L1084.05 650.355L1084.05 634.184L1087.79 634.184L1087.79 640.558L1095.14 640.558L1095.14 634.184L1098.88 634.184ZM1110.76 639.497Q1113.71 639.497 1115.29 640.817Q1116.88 642.132 1116.88 644.721Q1116.88 647.468 1115.14 648.911Q1113.39 650.355 1110.23 650.355L1102.92 650.355L1102.92 634.184L1106.65 634.184L1106.65 639.497L1110.76 639.497ZM1110.02 647.58Q1111.47 647.58 1112.29 646.87Q1113.12 646.153 1113.12 644.788Q1113.12 642.267 1110.02 642.267L1106.65 642.267L1106.65 647.58L1110.02 647.58ZM1117.64 654.84Q1119.1 652.273 1119.78 649.628Q1120.46 646.982 1120.46 644.027Q1120.46 641.066 1119.78 638.42Q1119.1 635.775 1117.64 633.214L1121.08 633.214Q1122.49 635.267 1123.24 638.054Q1123.99 640.834 1123.99 644.027Q1123.99 647.214 1123.25 649.978Q1122.52 652.736 1121.08 654.84L1117.64 654.84Z" fill="#000000" fill-opacity="1.000000" fill-rule="evenodd"/>
	<path id="0" d="M145.453 563.471Q143.919 563.471 142.719 562.658Q141.518 561.841 140.844 560.321Q140.174 558.798 140.174 556.733Q140.174 554.674 140.844 553.15Q141.518 551.626 142.719 550.813Q143.919 550 145.453 550Q146.986 550 148.186 550.813Q149.387 551.626 150.066 553.15Q150.749 554.674 150.749 556.733Q150.749 558.798 150.066 560.321Q149.387 561.841 148.186 562.658Q146.986 563.471 145.453 563.471ZM145.453 562.219Q146.607 562.219 147.484 561.578Q148.366 560.936 148.856 559.707Q149.35 558.474 149.35 556.733Q149.35 554.997 148.856 553.769Q148.366 552.536 147.484 551.894Q146.607 551.252 145.453 551.252Q144.298 551.252 143.416 551.894Q142.539 552.536 142.045 553.769Q141.555 554.997 141.555 556.733Q141.555 558.474 142.045 559.707Q142.539 560.936 143.416 561.578Q144.298 562.219 145.453 562.219Z" fill="#000000" fill-opacity="1.000000" fill-rule="evenodd"/>
	<path id="20" d="M138.548 452.146L138.548 453.355L129.262 453.355L129.262 452.39L134.766 447.001Q135.805 445.981 136.175 445.233Q136.544 444.484 136.544 443.727Q136.544 442.554 135.74 441.903Q134.937 441.252 133.441 441.252Q131.113 441.252 129.83 442.725L128.864 441.894Q129.64 440.984 130.841 440.495Q132.041 440 133.556 440Q135.579 440 136.761 440.956Q137.943 441.912 137.943 443.575Q137.943 444.6 137.486 445.547Q137.033 446.489 135.768 447.717L131.266 452.146L138.548 452.146ZM145.453 453.471Q143.919 453.471 142.719 452.658Q141.518 451.841 140.844 450.322Q140.174 448.798 140.174 446.733Q140.174 444.674 140.844 443.15Q141.518 441.626 142.719 440.813Q143.919 440 145.453 440Q146.986 440 148.186 440.813Q149.387 441.626 150.066 443.15Q150.749 444.674 150.749 446.733Q150.749 448.798 150.066 450.322Q149.387 451.841 148.186 452.658Q146.986 453.471 145.453 453.471ZM145.453 452.219Q146.607 452.219 147.484 451.578Q148.366 450.936 148.856 449.707Q149.35 448.474 149.35 446.733Q149.35 444.997 148.856 443.769Q148.366 442.536 147.484 441.894Q146.607 441.252 145.453 441.252Q144.298 441.252 143.416 441.894Q142.539 442.536 142.045 443.769Q141.555 444.997 141.555 446.733Q141.555 448.474 142.045 449.707Q142.539 450.936 143.416 451.578Q144.298 452.219 145.453 452.219Z" fill="#000000" fill-opacity="1.000000" fill-rule="evenodd"/>
	<path id="40" d="M138.925 339.874L136.279 339.874L136.279 343.355L134.917 343.355L134.917 339.874L127.445 339.874L127.445 338.89L134.46 330.116L135.975 330.116L129.205 338.664L134.954 338.664L134.954 335.602L136.279 335.602L136.279 338.664L138.925 338.664L138.925 339.874ZM145.453 343.471Q143.919 343.471 142.719 342.658Q141.518 341.841 140.844 340.322Q140.174 338.798 140.174 336.733Q140.174 334.674 140.844 333.15Q141.518 331.626 142.719 330.813Q143.919 330 145.453 330Q146.986 330 148.186 330.813Q149.387 331.626 150.066 333.15Q150.749 334.674 150.749 336.733Q150.749 338.798 150.066 340.322Q149.387 341.841 148.186 342.658Q146.986 343.471 145.453 343.471ZM145.453 342.219Q146.607 342.219 147.484 341.578Q148.366 340.936 148.856 339.707Q149.35 338.474 149.35 336.733Q149.35 334.997 148.856 333.769Q148.366 332.536 147.484 331.894Q146.607 331.252 145.453 331.252Q144.298 331.252 143.416 331.894Q142.539 332.536 142.045 333.769Q141.555 334.997 141.555 336.733Q141.555 338.474 142.045 339.707Q142.539 340.936 143.416 341.578Q144.298 342.219 145.453 342.219Z" fill="#000000" fill-opacity="1.000000" fill-rule="evenodd"/>
	<path id="60" d="M134.141 225.431Q135.443 225.431 136.455 225.925Q137.471 226.415 138.034 227.315Q138.602 228.211 138.602 229.403Q138.602 230.612 138.016 231.541Q137.434 232.464 136.399 232.968Q135.37 233.471 134.086 233.471Q131.454 233.471 130.054 231.739Q128.655 230.007 128.655 226.849Q128.655 224.637 129.412 223.104Q130.17 221.571 131.527 220.786Q132.89 220 134.709 220Q136.676 220 137.849 220.721L137.3 221.815Q136.353 221.192 134.728 221.192Q132.534 221.192 131.283 222.582Q130.036 223.972 130.036 226.623Q130.036 227.094 130.091 227.699Q130.585 226.623 131.661 226.027Q132.742 225.431 134.141 225.431ZM134.026 232.316Q135.467 232.316 136.362 231.531Q137.263 230.746 137.263 229.439Q137.263 228.137 136.362 227.361Q135.467 226.586 133.933 226.586Q132.931 226.586 132.165 226.964Q131.398 227.338 130.959 228.003Q130.525 228.664 130.525 229.476Q130.525 230.234 130.932 230.88Q131.343 231.522 132.137 231.919Q132.931 232.316 134.026 232.316ZM145.453 233.471Q143.919 233.471 142.719 232.658Q141.518 231.841 140.844 230.322Q140.174 228.798 140.174 226.733Q140.174 224.674 140.844 223.15Q141.518 221.626 142.719 220.813Q143.919 220 145.453 220Q146.986 220 148.186 220.813Q149.387 221.626 150.066 223.15Q150.749 224.674 150.749 226.733Q150.749 228.798 150.066 230.322Q149.387 231.841 148.186 232.658Q146.986 233.471 145.453 233.471ZM145.453 232.219Q146.607 232.219 147.484 231.578Q148.366 230.936 148.856 229.707Q149.35 228.474 149.35 226.733Q149.35 224.997 148.856 223.769Q148.366 222.536 147.484 221.894Q146.607 221.252 145.453 221.252Q144.298 221.252 143.416 221.894Q142.539 222.536 142.045 223.769Q141.555 224.997 141.555 226.733Q141.555 228.474 142.045 229.707Q142.539 230.936 143.416 231.578Q144.298 232.219 145.453 232.219Z" fill="#000000" fill-opacity="1.000000" fill-rule="evenodd"/>
	<path id="80" d="M135.689 116.415Q136.941 116.83 137.61 117.662Q138.284 118.493 138.284 119.666Q138.284 120.82 137.656 121.684Q137.033 122.543 135.869 123.009Q134.706 123.471 133.14 123.471Q130.753 123.471 129.39 122.45Q128.033 121.425 128.033 119.666Q128.033 118.474 128.684 117.652Q129.335 116.83 130.586 116.415Q129.561 116.018 129.03 115.27Q128.504 114.521 128.504 113.501Q128.504 111.894 129.76 110.947Q131.02 110 133.14 110Q134.539 110 135.588 110.43Q136.636 110.855 137.222 111.649Q137.809 112.443 137.809 113.501Q137.809 114.521 137.259 115.27Q136.714 116.018 135.689 116.415ZM129.866 113.538Q129.866 114.637 130.734 115.279Q131.607 115.921 133.14 115.921Q134.669 115.921 135.546 115.279Q136.428 114.637 136.428 113.556Q136.428 112.443 135.528 111.801Q134.632 111.155 133.14 111.155Q131.625 111.155 130.743 111.801Q129.866 112.443 129.866 113.538ZM133.14 122.316Q134.895 122.316 135.888 121.596Q136.885 120.876 136.885 119.647Q136.885 118.419 135.888 117.712Q134.895 117.001 133.14 117.001Q131.399 117.001 130.406 117.712Q129.413 118.419 129.413 119.647Q129.413 120.899 130.397 121.61Q131.381 122.316 133.14 122.316ZM145.453 123.471Q143.919 123.471 142.719 122.658Q141.518 121.841 140.844 120.322Q140.174 118.798 140.174 116.733Q140.174 114.674 140.844 113.15Q141.518 111.626 142.719 110.813Q143.919 110 145.453 110Q146.986 110 148.186 110.813Q149.387 111.626 150.066 113.15Q150.749 114.674 150.749 116.733Q150.749 118.798 150.066 120.322Q149.387 121.841 148.186 122.658Q146.986 123.471 145.453 123.471ZM145.453 122.219Q146.607 122.219 147.484 121.578Q148.366 120.936 148.856 119.707Q149.35 118.474 149.35 116.733Q149.35 114.997 148.856 113.769Q148.366 112.536 147.484 111.894Q146.607 111.252 145.453 111.252Q144.298 111.252 143.416 111.894Q142.539 112.536 142.045 113.769Q141.555 114.997 141.555 116.733Q141.555 118.474 142.045 119.707Q142.539 120.936 143.416 121.578Q144.298 122.219 145.453 122.219Z" fill="#000000" fill-opacity="1.000000" fill-rule="evenodd"/>
	<path id="100" d="M124.496 0.115907L124.496 13.3555L123.133 13.3555L123.133 1.3258L120.012 1.3258L120.012 0.115907L124.496 0.115907ZM132.931 13.4709Q131.398 13.4709 130.197 12.6582Q128.996 11.8408 128.322 10.3215Q127.653 8.79759 127.653 6.73338Q127.653 4.67379 128.322 3.14988Q128.996 1.62596 130.197 0.813211Q131.398 0.000458717 132.931 0.000458717Q134.464 0.000458717 135.665 0.813211Q136.865 1.62596 137.544 3.14988Q138.228 4.67379 138.228 6.73338Q138.228 8.79759 137.544 10.3215Q136.865 11.8408 135.665 12.6582Q134.464 13.4709 132.931 13.4709ZM132.931 12.2195Q134.085 12.2195 134.963 11.5776Q135.845 10.9357 136.334 9.70732Q136.828 8.47433 136.828 6.73338Q136.828 4.99704 136.334 3.76868Q135.845 2.53569 134.963 1.8938Q134.085 1.25191 132.931 1.25191Q131.776 1.25191 130.894 1.8938Q130.017 2.53569 129.523 3.76868Q129.033 4.99704 129.033 6.73338Q129.033 8.47433 129.523 9.70732Q130.017 10.9357 130.894 11.5776Q131.776 12.2195 132.931 12.2195ZM145.453 13.4709Q143.919 13.4709 142.719 12.6582Q141.518 11.8408 140.844 10.3215Q140.174 8.79759 140.174 6.73338Q140.174 4.67379 140.844 3.14988Q141.518 1.62596 142.719 0.813211Q143.919 0.000458717 145.453 0.000458717Q146.986 0.000458717 148.186 0.813211Q149.387 1.62596 150.066 3.14988Q150.749 4.67379 150.749 6.73338Q150.749 8.79759 150.066 10.3215Q149.387 11.8408 148.186 12.6582Q146.986 13.4709 145.453 13.4709ZM145.453 12.2195Q146.607 12.2195 147.484 11.5776Q148.366 10.9357 148.856 9.70732Q149.35 8.47433 149.35 6.73338Q149.35 4.99704 148.856 3.76868Q148.366 2.53569 147.484 1.8938Q146.607 1.25191 145.453 1.25191Q144.298 1.25191 143.416 1.8938Q142.539 2.53569 142.045 3.76868Q141.555 4.99704 141.555 6.73338Q141.555 8.47433 142.045 9.70732Q142.539 10.9357 143.416 11.5776Q144.298 12.2195 145.453 12.2195Z" fill="#000000" fill-opacity="1.000000" fill-rule="evenodd"/>
	<path id="image 9 (Traced)" d="M711.281 595.09C709.979 595.567 708.984 597.187 709.194 598.482C709.422 599.887 709.787 600.305 718.109 608.687C729.054 619.71 729.054 617.053 718.109 628.076C712.013 634.216 709.895 636.447 709.631 637.004C708.111 640.22 710.921 642.916 714.129 641.319C715.304 640.734 734.772 621.202 735.329 620.05C736.573 617.472 736.733 617.689 724.869 605.808C713.316 594.239 713.404 594.309 711.281 595.09ZM731.241 595.583C729.808 596.443 729.322 598.262 730.091 599.888C730.373 600.483 732.301 602.518 738.504 608.766C749.355 619.696 749.367 617.056 738.424 628.076C732.329 634.216 730.21 636.447 729.947 637.004C728.427 640.221 731.238 642.917 734.444 641.319C735.657 640.715 754.956 621.364 755.563 620.144C756.89 617.476 757 617.628 745.349 605.961C733.691 594.287 733.561 594.191 731.241 595.583Z" fill="url(#paint_linear_69_233_0)" fill-opacity="1.000000" fill-rule="evenodd"/>
	<path id="Частка пацієнтів з вираженістю денного кашлю менше 2 балів, %" d="M62.105 174.584L64.7124 174.584L64.7124 189.672L62.6689 189.672L54.4219 181.125Q52.9204 179.565 51.8291 179.03Q50.7305 178.488 49.6245 178.488Q47.9692 178.488 47.061 179.645Q46.1455 180.795 46.1455 182.956Q46.1455 186.435 48.4233 188.325L46.6509 190.368Q45.1494 189.138 44.3144 187.145Q43.4722 185.146 43.4722 182.685Q43.4722 179.389 45.0469 177.441Q46.6216 175.485 49.3242 175.485Q51.0014 175.485 52.5029 176.21Q54.0044 176.928 55.9233 178.935L62.105 185.358L62.105 174.584ZM49.3535 154.604Q49.3535 152.385 50.3423 150.649Q51.331 148.906 53.0888 147.932Q54.8393 146.958 57.0952 146.958Q59.4023 146.958 61.1894 147.991Q62.9692 149.023 63.9653 150.898Q64.9541 152.773 64.9541 155.176Q64.9541 159.226 62.1782 161.431Q59.4023 163.635 54.3633 163.635Q49.4707 163.635 46.6948 161.628Q43.9189 159.614 43.0254 155.476L41.3994 148.218L44.0434 147.793L45.479 154.487Q46.1748 157.607 47.8227 159.138Q49.4707 160.669 52.5615 160.874Q51.0307 159.856 50.1958 158.237Q49.3535 156.618 49.3535 154.604ZM62.5517 155.117Q62.5517 153.586 61.8633 152.4Q61.1748 151.213 59.959 150.554Q58.7431 149.895 57.1831 149.895Q54.81 149.895 53.3745 151.338Q51.9316 152.773 51.9316 155.117Q51.9316 157.453 53.3745 158.911Q54.81 160.368 57.1831 160.368Q58.7431 160.368 59.959 159.695Q61.1748 159.014 61.8633 157.82Q62.5517 156.618 62.5517 155.117ZM48.665 137.326Q48.665 134.023 50.2837 132.272Q51.9023 130.514 55.1103 130.514L64.7124 130.514L64.7124 133.246L62.6103 133.246Q63.7236 133.964 64.3096 135.305Q64.8955 136.638 64.8955 138.461Q64.8955 141.135 63.6064 142.739Q62.31 144.343 60.2153 144.343Q58.1133 144.343 56.8389 142.812Q55.5644 141.281 55.5644 137.956L55.5644 133.393L54.9931 133.393Q53.1328 133.393 52.144 134.477Q51.1553 135.554 51.1553 137.656Q51.1553 139.062 51.624 140.417Q52.0854 141.764 52.8618 142.695L50.7012 143.896Q49.7124 142.665 49.1924 140.959Q48.665 139.245 48.665 137.326ZM62.6689 137.985Q62.6689 136.337 61.9365 135.136Q61.2041 133.935 59.8491 133.393L57.6299 133.393L57.6299 137.831Q57.6299 141.493 60.0908 141.493Q61.292 141.493 61.9805 140.563Q62.6689 139.633 62.6689 137.985ZM48.8115 111.673L64.7124 111.673L64.7124 114.558L51.331 114.558L51.331 121.392L54.876 121.575Q58.084 121.729 60.23 122.146Q62.376 122.564 63.665 123.523Q64.9541 124.483 64.9541 126.197Q64.9541 126.973 64.6831 127.969L62.2514 127.786Q62.3393 127.398 62.3393 127.068Q62.3393 125.867 61.292 125.266Q60.2446 124.666 58.8017 124.49Q57.3589 124.307 54.6929 124.153L48.8115 123.882L48.8115 111.673ZM48.8115 106.095L48.8115 103.216L64.7124 103.216L64.7124 106.095L48.8115 106.095ZM45.75 104.659Q45.75 105.494 45.2153 106.051Q44.6733 106.608 43.8896 106.608Q43.1133 106.608 42.5566 106.051Q42 105.494 42 104.659Q42 103.817 42.5273 103.268Q43.0547 102.711 43.831 102.711Q44.644 102.711 45.2007 103.268Q45.75 103.817 45.75 104.659ZM56.4653 86.7724Q57.2417 83.6889 60.3325 83.6889Q62.4345 83.6889 63.5771 85.2636Q64.7124 86.8383 64.7124 89.9584L64.7124 97.6049L48.8115 97.6049L48.8115 90.2221Q48.8115 87.4023 49.8808 85.8129Q50.9428 84.2236 52.8911 84.2236Q54.1509 84.2236 55.0664 84.9047Q55.9819 85.5786 56.4653 86.7724ZM55.6523 94.7851L55.6523 90.4638Q55.6523 88.8159 55.0517 87.9589Q54.4512 87.102 53.3159 87.102Q51.0307 87.102 51.0307 90.4638L51.0307 94.7851L55.6523 94.7851ZM62.4931 90.1635Q62.4931 88.3691 61.9219 87.4682Q61.3506 86.5673 60.1494 86.5673Q58.9189 86.5673 58.3257 87.395Q57.7251 88.2153 57.7251 89.9877L57.7251 94.7851L62.4931 94.7851L62.4931 90.1635ZM60.7793 78.5257Q60.7793 77.6834 61.3652 77.1341Q61.9511 76.5775 62.8227 76.5775Q63.2695 76.5775 63.6943 76.68Q64.1118 76.7826 64.9834 77.0829L69.1509 78.4964L69.1509 80.3861L64.6831 79.2728Q64.4707 79.8441 63.98 80.1883Q63.4819 80.5326 62.8227 80.5326Q61.9219 80.5326 61.3506 79.9686Q60.7793 79.3973 60.7793 78.5257ZM54.9931 61.0969Q54.9931 63.2868 53.4038 64.6345Q51.8144 65.9821 49.2656 65.9821Q46.7094 65.9821 45.1201 64.6345Q43.5307 63.2868 43.5307 61.0969Q43.5307 58.907 45.1054 57.5739Q46.6802 56.2336 49.2656 56.2336Q51.8437 56.2336 53.4184 57.5739Q54.9931 58.907 54.9931 61.0969ZM43.7138 48.4333L43.7138 46.1262L64.7124 60.467L64.7124 62.7741L43.7138 48.4333ZM53.2793 61.0969Q53.2793 59.7126 52.2173 58.9362Q51.1553 58.1526 49.2656 58.1526Q47.376 58.1526 46.3139 58.9362Q45.2446 59.7126 45.2446 61.0969Q45.2446 62.4445 46.3286 63.2429Q47.4053 64.0339 49.2656 64.0339Q51.126 64.0339 52.2026 63.2429Q53.2793 62.4445 53.2793 61.0969ZM64.8955 47.8035Q64.8955 49.9934 63.3208 51.3337Q61.7387 52.6667 59.1606 52.6667Q56.5825 52.6667 55.0078 51.3337Q53.4331 49.9934 53.4331 47.8035Q53.4331 45.6135 55.0224 44.2659Q56.6118 42.9182 59.1606 42.9182Q61.7094 42.9182 63.3061 44.2659Q64.8955 45.6135 64.8955 47.8035ZM63.1816 47.8035Q63.1816 46.4558 62.105 45.6648Q61.021 44.8665 59.1606 44.8665Q57.3003 44.8665 56.2236 45.6648Q55.1396 46.4558 55.1396 47.8035Q55.1396 49.1877 56.209 49.9714Q57.271 50.7478 59.1606 50.7478Q61.0503 50.7478 62.1196 49.9714Q63.1816 49.1877 63.1816 47.8035Z" fill="#E10920" fill-opacity="1.000000" fill-rule="evenodd"/>
	<path id="Частка пацієнтів з вираженістю денного кашлю менше 2 балів, %" d="M1.71387 547.547L22.7124 547.547L22.7124 550.513L14.3994 550.513Q15.6958 553.846 15.6958 556.666Q15.6958 560.503 13.8354 562.62Q11.9751 564.737 8.52539 564.737L1.71387 564.737L1.71387 561.792L8.1958 561.792Q10.5322 561.792 11.792 560.372Q13.0518 558.943 13.0518 556.336Q13.0518 553.428 11.7334 550.513L1.71387 550.513L1.71387 547.547ZM6.66504 535.816Q6.66504 532.513 8.28369 530.762Q9.90234 529.004 13.1103 529.004L22.7124 529.004L22.7124 531.736L20.6103 531.736Q21.7236 532.454 22.3096 533.794Q22.8955 535.128 22.8955 536.951Q22.8955 539.625 21.6064 541.229Q20.3101 542.833 18.2153 542.833Q16.1133 542.833 14.8389 541.302Q13.5645 539.771 13.5645 536.446L13.5645 531.883L12.9932 531.883Q11.1328 531.883 10.144 532.967Q9.15527 534.044 9.15527 536.146Q9.15527 537.552 9.62402 538.907Q10.0854 540.254 10.8618 541.185L8.70117 542.386Q7.7124 541.155 7.19238 539.449Q6.66504 537.735 6.66504 535.816ZM20.6689 536.475Q20.6689 534.827 19.9365 533.626Q19.2041 532.425 17.8491 531.883L15.6299 531.883L15.6299 536.321Q15.6299 539.983 18.0908 539.983Q19.292 539.983 19.9805 539.053Q20.6689 538.123 20.6689 536.475ZM22.8955 516.886Q22.8955 519.318 21.8481 521.222Q20.7935 523.126 18.9478 524.21Q17.102 525.287 14.7656 525.287Q12.4219 525.287 10.5762 524.21Q8.73047 523.126 7.69775 521.222Q6.66504 519.318 6.66504 516.886Q6.66504 514.726 7.53662 513.034Q8.40088 511.334 10.0488 510.404L11.4624 512.594Q10.3198 513.349 9.75586 514.462Q9.18457 515.568 9.18457 516.916Q9.18457 518.476 9.87304 519.721Q10.5615 520.966 11.8359 521.676Q13.1103 522.379 14.7656 522.379Q16.4429 522.379 17.7173 521.676Q18.9917 520.966 19.6875 519.721Q20.376 518.476 20.376 516.916Q20.376 515.568 19.8047 514.462Q19.2334 513.349 18.0908 512.594L19.4751 510.404Q21.123 511.334 22.0093 513.034Q22.8955 514.726 22.8955 516.886ZM9.33105 495.044L9.33105 500.867L22.7124 500.867L22.7124 503.746L9.33105 503.746L9.33105 509.568L6.81152 509.568L6.81152 495.044L9.33105 495.044ZM15.9888 485.923L15.9888 489.227L22.7124 489.227L22.7124 492.105L6.81152 492.105L6.81152 489.227L13.5352 489.227L13.5352 485.865L6.81152 480.708L6.81152 477.618L14.4653 483.645L22.7124 477.193L22.7124 480.584L15.9888 485.923ZM6.66504 468.796Q6.66503 465.493 8.28369 463.742Q9.90234 461.984 13.1103 461.984L22.7124 461.984L22.7124 464.716L20.6103 464.716Q21.7236 465.434 22.3096 466.775Q22.8955 468.108 22.8955 469.931Q22.8955 472.605 21.6064 474.209Q20.3101 475.813 18.2153 475.813Q16.1133 475.813 14.8389 474.282Q13.5644 472.751 13.5644 469.426L13.5644 464.863L12.9932 464.863Q11.1328 464.863 10.144 465.947Q9.15527 467.024 9.15527 469.126Q9.15527 470.532 9.62402 471.887Q10.0854 473.234 10.8618 474.165L8.70117 475.366Q7.7124 474.135 7.19238 472.429Q6.66504 470.715 6.66504 468.796ZM20.6689 469.455Q20.6689 467.807 19.9365 466.606Q19.2041 465.405 17.8491 464.863L15.6299 464.863L15.6299 469.301Q15.6299 472.963 18.0908 472.963Q19.292 472.963 19.9805 472.033Q20.6689 471.103 20.6689 469.455ZM6.81152 433.996L22.7124 433.996L22.7124 436.874L9.33105 436.874L9.33105 445.847L22.7124 445.847L22.7124 448.725L6.81152 448.725L6.81152 433.996ZM6.66503 422.746Q6.66503 419.443 8.28369 417.692Q9.90234 415.934 13.1103 415.934L22.7124 415.934L22.7124 418.666L20.6103 418.666Q21.7236 419.384 22.3096 420.725Q22.8955 422.058 22.8955 423.881Q22.8955 426.555 21.6064 428.159Q20.3101 429.763 18.2153 429.763Q16.1133 429.763 14.8389 428.232Q13.5644 426.701 13.5644 423.376L13.5644 418.813L12.9932 418.813Q11.1328 418.813 10.144 419.897Q9.15527 420.974 9.15527 423.076Q9.15527 424.482 9.62402 425.837Q10.0854 427.184 10.8618 428.115L8.70117 429.316Q7.7124 428.085 7.19238 426.379Q6.66503 424.665 6.66503 422.746ZM20.6689 423.405Q20.6689 421.757 19.9365 420.556Q19.2041 419.355 17.8491 418.813L15.6299 418.813L15.6299 423.251Q15.6299 426.913 18.0908 426.913Q19.292 426.913 19.9805 425.983Q20.6689 425.053 20.6689 423.405ZM20.1929 393.767L26.521 393.767L26.521 396.492L22.7124 396.492L22.7124 410.745L6.81152 410.745L6.81152 407.867L20.1929 407.867L20.1929 399.165L6.81152 399.165L6.81152 396.287L20.1929 396.287L20.1929 393.767ZM6.81152 390.045L6.81152 387.167L22.7124 387.167L22.7124 390.045L6.81152 390.045ZM3.74999 388.609Q3.74999 389.444 3.21532 390.001Q2.67333 390.558 1.88964 390.558Q1.11327 390.558 0.556633 390.001Q-7.62939e-06 389.444 -7.62939e-06 388.609Q-7.62939e-06 387.767 0.527336 387.218Q1.05468 386.661 1.83105 386.661Q2.64404 386.661 3.20068 387.218Q3.74999 387.767 3.74999 388.609ZM22.8882 374.45Q22.8882 376.875 21.8408 378.845Q20.7934 380.808 18.9331 381.921Q17.0727 383.027 14.7583 383.027Q12.4219 383.027 10.5615 381.921Q8.70116 380.808 7.6538 378.845Q6.59911 376.875 6.59911 374.45Q6.59911 372.348 7.26562 370.656Q7.9248 368.957 9.18456 367.785L10.8618 369.47Q8.97216 371.389 8.97216 374.326Q8.97216 376.67 10.3052 378.318Q11.6382 379.966 13.7988 380.295L13.7988 372.319L15.9302 372.319L15.9302 380.237Q18.0029 379.848 19.2773 378.23Q20.5518 376.611 20.5518 374.326Q20.5518 371.418 18.6328 369.47L20.2808 367.785Q21.5698 368.957 22.229 370.671Q22.8882 372.378 22.8882 374.45ZM6.81151 364.245L6.81151 361.367L13.5644 361.367L13.5644 352.306L6.81151 352.306L6.81151 349.428L22.7124 349.428L22.7124 352.306L16.0547 352.306L16.0547 361.367L22.7124 361.367L22.7124 364.245L6.81151 364.245ZM9.33105 331.964L9.33105 337.787L22.7124 337.787L22.7124 340.666L9.33105 340.666L9.33105 346.488L6.81151 346.488L6.81151 331.964L9.33105 331.964ZM6.81151 329.025L6.81151 326.147L22.7124 326.147L22.7124 329.025L6.81151 329.025ZM3.74999 327.589Q3.74999 328.424 3.21532 328.981Q2.67333 329.538 1.88964 329.538Q1.11327 329.538 0.55663 328.981Q-1.04904e-05 328.424 -1.04904e-05 327.589Q-1.04904e-05 326.747 0.527333 326.198Q1.05468 325.641 1.83104 325.641Q2.64403 325.641 3.20067 326.198Q3.74999 326.747 3.74999 327.589ZM14.4653 309.702Q15.2417 306.619 18.3325 306.619Q20.4346 306.619 21.5771 308.194Q22.7124 309.768 22.7124 312.888L22.7124 320.535L6.81151 320.535L6.81151 313.152Q6.81151 310.332 7.88085 308.743Q8.94286 307.154 10.8911 307.154Q12.1509 307.154 13.0664 307.835Q13.9819 308.509 14.4653 309.702ZM13.6523 317.715L13.6523 313.394Q13.6523 311.746 13.0517 310.889Q12.4512 310.032 11.3159 310.032Q9.03075 310.032 9.03075 313.394L9.03075 317.715L13.6523 317.715ZM20.4932 313.094Q20.4932 311.299 19.9219 310.398Q19.3506 309.497 18.1494 309.497Q16.9189 309.497 16.3257 310.325Q15.7251 311.145 15.7251 312.918L15.7251 317.715L20.4932 317.715L20.4932 313.094ZM14.436 285.439Q14.8535 283.842 15.7837 282.978Q16.7139 282.106 18.0908 282.106Q19.5044 282.106 20.603 283.066Q21.6943 284.025 22.3096 285.725Q22.9248 287.417 22.9248 289.519Q22.9248 291.284 22.4634 292.983Q21.9946 294.675 21.123 295.993L18.9331 295.129Q19.6509 293.986 20.061 292.514Q20.4639 291.042 20.4639 289.548Q20.4639 287.504 19.7607 286.289Q19.0503 285.073 17.8491 285.073Q16.7432 285.073 16.1426 286.054Q15.542 287.028 15.542 288.793L15.542 291.708L13.4692 291.708L13.4692 289.006Q13.4692 287.387 12.9053 286.457Q12.334 285.527 11.3452 285.527Q10.2612 285.527 9.66063 286.625Q9.06005 287.717 9.06005 289.577Q9.06005 291.943 10.2905 294.587L8.07128 295.363Q6.59911 292.456 6.59911 289.277Q6.59911 287.358 7.1411 285.827Q7.68309 284.296 8.67186 283.425Q9.66063 282.553 10.9204 282.553Q12.0923 282.553 13.0224 283.337Q13.9526 284.113 14.436 285.439ZM14.4653 258.822Q15.2417 255.739 18.3325 255.739Q20.4346 255.739 21.5771 257.314Q22.7124 258.888 22.7124 262.008L22.7124 269.655L6.81151 269.655L6.81151 262.272Q6.81151 259.452 7.88085 257.863Q8.94286 256.274 10.8911 256.274Q12.1509 256.274 13.0664 256.955Q13.9819 257.629 14.4653 258.822ZM13.6523 266.835L13.6523 262.514Q13.6523 260.866 13.0517 260.009Q12.4512 259.152 11.3159 259.152Q9.03075 259.152 9.03075 262.514L9.03075 266.835L13.6523 266.835ZM20.4932 262.214Q20.4932 260.419 19.9219 259.518Q19.3506 258.617 18.1494 258.617Q16.9189 258.617 16.3257 259.445Q15.7251 260.265 15.7251 262.038L15.7251 266.835L20.4932 266.835L20.4932 262.214ZM6.81151 251.235L6.81151 248.356L18.3911 248.356L6.81151 238.608L6.81151 235.993L22.7124 235.993L22.7124 238.879L11.1328 238.879L22.7124 248.598L22.7124 251.235L6.81151 251.235ZM6.66502 221.985Q6.66502 219.678 7.68309 217.847Q8.70116 216.015 10.5322 214.983Q12.3633 213.95 14.7656 213.95Q17.1606 213.95 19.0063 214.983Q20.852 216.015 21.8774 217.847Q22.8955 219.678 22.8955 221.985Q22.8955 223.699 22.2363 225.127Q21.5698 226.548 20.31 227.536L28.5351 227.536L28.5351 230.415L6.81151 230.415L6.81151 227.654L9.33104 227.654Q8.01268 226.694 7.33885 225.229Q6.66502 223.757 6.66502 221.985ZM20.376 222.226Q20.376 220.696 19.6728 219.48Q18.9624 218.264 17.688 217.561Q16.4136 216.858 14.7656 216.858Q13.1103 216.858 11.8359 217.561Q10.5615 218.264 9.87303 219.48Q9.18456 220.696 9.18456 222.226Q9.18456 223.728 9.88768 224.944Q10.5908 226.16 11.8506 226.863Q13.1103 227.566 14.7656 227.566Q16.4136 227.566 17.688 226.877Q18.9624 226.189 19.6728 224.958Q20.376 223.728 20.376 222.226ZM6.66502 204.256Q6.66502 200.953 8.28368 199.202Q9.90233 197.444 13.1103 197.444L22.7124 197.444L22.7124 200.176L20.6103 200.176Q21.7236 200.894 22.3096 202.234Q22.8955 203.567 22.8955 205.391Q22.8955 208.065 21.6064 209.669Q20.31 211.273 18.2153 211.273Q16.1133 211.273 14.8389 209.742Q13.5644 208.211 13.5644 204.886L13.5644 200.323L12.9931 200.323Q11.1328 200.323 10.144 201.407Q9.15526 202.483 9.15526 204.586Q9.15526 205.992 9.62401 207.347Q10.0854 208.694 10.8618 209.625L8.70116 210.826Q7.71239 209.595 7.19237 207.889Q6.66502 206.175 6.66502 204.256ZM20.6689 204.915Q20.6689 203.267 19.9365 202.066Q19.2041 200.865 17.8491 200.323L15.6299 200.323L15.6299 204.761Q15.6299 208.423 18.0908 208.423Q19.292 208.423 19.9805 207.493Q20.6689 206.563 20.6689 204.915ZM15.9888 177.797L15.9888 180.888L22.7124 180.888L22.7124 183.766L15.9888 183.766L15.9888 186.857L22.7124 191.237L22.7124 194.657L14.4946 189.193L6.81151 194.232L6.81151 191.178L13.5351 186.886L13.5351 183.766L6.81151 183.766L6.81151 180.888L13.5351 180.888L13.5351 177.768L6.81151 173.476L6.81151 170.385L14.5239 175.424L22.7124 169.967L22.7124 173.388L15.9888 177.797ZM14.8535 152.955Q15.1831 152.955 15.7251 153.013L15.7251 165.919Q17.8198 165.648 19.1015 164.073Q20.376 162.498 20.376 160.154Q20.376 157.305 18.4497 155.57L20.31 153.98Q21.5698 155.057 22.2363 156.661Q22.8955 158.265 22.8955 160.25Q22.8955 162.769 21.8628 164.717Q20.8227 166.666 18.9624 167.735Q17.102 168.797 14.7656 168.797Q12.4512 168.797 10.5908 167.764Q8.73045 166.724 7.69774 164.915Q6.66502 163.099 6.66502 160.814Q6.66502 158.536 7.69774 156.756Q8.73045 154.969 10.5908 153.966Q12.4512 152.955 14.8535 152.955ZM9.08934 160.814Q9.08934 162.886 10.3491 164.285Q11.6089 165.677 13.6523 165.919L13.6523 155.716Q11.6455 155.958 10.3711 157.357Q9.08934 158.748 9.08934 160.814ZM6.8115 148.485L6.8115 145.606L13.5644 145.606L13.5644 136.546L6.8115 136.546L6.8115 133.668L22.7124 133.668L22.7124 136.546L16.0547 136.546L16.0547 145.606L22.7124 145.606L22.7124 148.485L6.8115 148.485ZM6.8115 128.055L6.8115 125.176L22.7124 125.176L22.7124 128.055L6.8115 128.055ZM3.74998 126.619Q3.74998 127.454 3.21531 128.011Q2.67332 128.568 1.88963 128.568Q1.11326 128.568 0.556622 128.011Q-1.90735e-05 127.454 -1.90735e-05 126.619Q-1.90735e-05 125.777 0.527325 125.228Q1.05467 124.671 1.83104 124.671Q2.64402 124.671 3.20066 125.228Q3.74998 125.777 3.74998 126.619ZM22.8955 112.636Q22.8955 115.068 21.8481 116.972Q20.7934 118.876 18.9477 119.96Q17.102 121.037 14.7656 121.037Q12.4219 121.037 10.5762 119.96Q8.73045 118.876 7.69773 116.972Q6.66502 115.068 6.66502 112.636Q6.66502 110.476 7.5366 108.784Q8.40086 107.084 10.0488 106.154L11.4624 108.344Q10.3198 109.099 9.75584 110.212Q9.18455 111.318 9.18455 112.665Q9.18455 114.226 9.87303 115.471Q10.5615 116.716 11.8359 117.426Q13.1103 118.129 14.7656 118.129Q16.4429 118.129 17.7173 117.426Q18.9917 116.716 19.6875 115.471Q20.376 114.226 20.376 112.665Q20.376 111.318 19.8047 110.212Q19.2334 109.099 18.0908 108.344L19.4751 106.154Q21.123 107.084 22.0093 108.784Q22.8955 110.476 22.8955 112.636ZM9.33103 90.7943L9.33103 96.6171L22.7124 96.6171L22.7124 99.4955L9.33103 99.4955L9.33103 105.318L6.8115 105.318L6.8115 90.7943L9.33103 90.7943ZM6.66502 73.7851Q6.66502 71.4779 7.69773 69.6469Q8.73045 67.8158 10.5762 66.7685Q12.4219 65.7138 14.7656 65.7138Q17.102 65.7138 18.9477 66.7685Q20.7934 67.8158 21.8481 69.6469Q22.8955 71.4779 22.8955 73.7851Q22.8955 75.8871 22.0239 77.601Q21.1523 79.3075 19.5776 80.4062Q18.0029 81.4975 15.9887 81.7685L15.9887 84.9765L22.7124 84.9765L22.7124 87.8549L6.8115 87.8549L6.8115 84.9765L13.3227 84.9765L13.3227 81.7318Q11.3452 81.4389 9.82908 80.3476Q8.31297 79.2489 7.49265 77.557Q6.66502 75.8578 6.66502 73.7851ZM20.376 73.7851Q20.376 72.3129 19.6875 71.1337Q18.9917 69.9472 17.7173 69.2587Q16.4429 68.5629 14.7656 68.5629Q13.1103 68.5629 11.8359 69.2587Q10.5615 69.9472 9.87303 71.1337Q9.18455 72.3129 9.18455 73.7851Q9.18455 75.2572 9.87303 76.4584Q10.5615 77.6523 11.8359 78.3334Q13.1103 79.0072 14.7656 79.0072Q16.4429 79.0072 17.7173 78.3334Q18.9917 77.6523 19.6875 76.4584Q20.376 75.2572 20.376 73.7851ZM62.1929 547.393L68.4038 547.393L68.4038 550.096L64.7124 550.096L64.7124 563.382L68.4038 563.382L68.4038 566.114L62.1929 566.114L62.1929 565.279Q62.105 563.748 60.0322 563.177Q57.9595 562.605 54.1802 562.393L48.8115 562.159L48.8115 549.825L62.1929 549.825L62.1929 547.393ZM54.3926 559.756Q57.3955 559.874 59.3584 560.254Q61.3213 560.628 62.1929 561.617L62.1929 552.703L51.3311 552.703L51.3311 559.603L54.3926 559.756ZM56.8535 529.275Q57.1831 529.275 57.7251 529.333L57.7251 542.239Q59.8198 541.968 61.1016 540.393Q62.376 538.818 62.376 536.475Q62.376 533.625 60.4497 531.89L62.3101 530.3Q63.5698 531.377 64.2363 532.981Q64.8955 534.585 64.8955 536.57Q64.8955 539.089 63.8628 541.038Q62.8228 542.986 60.9624 544.055Q59.1021 545.117 56.7656 545.117Q54.4512 545.117 52.5908 544.084Q50.7305 543.044 49.6978 541.235Q48.665 539.419 48.665 537.134Q48.665 534.856 49.6978 533.076Q50.7305 531.289 52.5908 530.286Q54.4512 529.275 56.8535 529.275ZM51.0894 537.134Q51.0894 539.206 52.3491 540.605Q53.6089 541.997 55.6523 542.239L55.6523 532.036Q53.6455 532.278 52.3711 533.677Q51.0894 535.068 51.0894 537.134ZM48.8115 524.805L48.8115 521.927L55.5645 521.927L55.5645 512.866L48.8115 512.866L48.8115 509.988L64.7124 509.988L64.7124 512.866L58.0547 512.866L58.0547 521.927L64.7124 521.927L64.7124 524.805L48.8115 524.805ZM48.8115 504.375L48.8115 501.497L55.5645 501.497L55.5645 492.436L48.8115 492.436L48.8115 489.558L64.7124 489.558L64.7124 492.436L58.0547 492.436L58.0547 501.497L64.7124 501.497L64.7124 504.375L48.8115 504.375ZM64.8955 477.133Q64.8955 479.506 63.8481 481.396Q62.7935 483.286 60.9478 484.355Q59.1021 485.417 56.7656 485.417Q54.4219 485.417 52.5762 484.355Q50.7305 483.286 49.6978 481.396Q48.665 479.506 48.665 477.133Q48.665 474.768 49.6978 472.893Q50.7305 471.018 52.5762 469.956Q54.4219 468.886 56.7656 468.886Q59.102 468.886 60.9477 469.956Q62.7934 471.018 63.8481 472.893Q64.8955 474.768 64.8955 477.133ZM62.376 477.133Q62.376 475.61 61.6728 474.394Q60.9624 473.178 59.688 472.49Q58.4136 471.794 56.7656 471.794Q55.1103 471.794 53.8359 472.49Q52.5615 473.178 51.873 474.394Q51.1846 475.61 51.1846 477.133Q51.1846 478.664 51.873 479.88Q52.5615 481.096 53.8359 481.806Q55.1104 482.509 56.7656 482.509Q58.4136 482.509 59.688 481.806Q60.9624 481.096 61.6729 479.88Q62.376 478.664 62.376 477.133ZM51.3311 453.018L51.3311 461.837L64.7124 461.837L64.7124 464.715L48.8115 464.715L48.8115 453.018L51.3311 453.018ZM64.8955 443.953Q64.8955 446.326 63.8481 448.216Q62.7934 450.106 60.9477 451.175Q59.102 452.237 56.7656 452.237Q54.4219 452.237 52.5762 451.175Q50.7305 450.106 49.6978 448.216Q48.665 446.326 48.665 443.953Q48.665 441.588 49.6978 439.713Q50.7305 437.838 52.5762 436.776Q54.4219 435.706 56.7656 435.706Q59.102 435.706 60.9477 436.776Q62.7934 437.838 63.8481 439.713Q64.8955 441.588 64.8955 443.953ZM62.376 443.953Q62.376 442.43 61.6728 441.214Q60.9624 439.998 59.688 439.31Q58.4136 438.614 56.7656 438.614Q55.1103 438.614 53.8359 439.31Q52.5615 439.998 51.873 441.214Q51.1846 442.43 51.1846 443.953Q51.1846 445.484 51.873 446.7Q52.5615 447.916 53.8359 448.626Q55.1103 449.329 56.7656 449.329Q58.4136 449.329 59.688 448.626Q60.9624 447.916 61.6728 446.7Q62.376 445.484 62.376 443.953ZM57.9888 417.283L57.9888 420.587L64.7124 420.587L64.7124 423.465L48.8115 423.465L48.8115 420.587L55.5351 420.587L55.5351 417.225L48.8115 412.068L48.8115 408.978L56.4653 415.005L64.7124 408.553L64.7124 411.944L57.9888 417.283ZM48.665 400.156Q48.665 396.853 50.2837 395.102Q51.9023 393.344 55.1103 393.344L64.7124 393.344L64.7124 396.076L62.6103 396.076Q63.7236 396.794 64.3096 398.135Q64.8955 399.468 64.8955 401.291Q64.8955 403.965 63.6064 405.569Q62.3101 407.173 60.2153 407.173Q58.1133 407.173 56.8389 405.642Q55.5644 404.111 55.5644 400.786L55.5644 396.223L54.9932 396.223Q53.1328 396.223 52.144 397.307Q51.1553 398.384 51.1553 400.486Q51.1553 401.892 51.624 403.247Q52.0854 404.594 52.8618 405.525L50.7012 406.726Q49.7124 405.495 49.1924 403.789Q48.665 402.075 48.665 400.156ZM62.6689 400.815Q62.6689 399.167 61.9365 397.966Q61.2041 396.765 59.8491 396.223L57.6299 396.223L57.6299 400.661Q57.6299 404.323 60.0908 404.323Q61.292 404.323 61.9805 403.393Q62.6689 402.463 62.6689 400.815ZM48.8115 365.508L64.7124 365.508L64.7124 388.155L48.8115 388.155L48.8115 385.277L62.1929 385.277L62.1929 378.253L48.8115 378.253L48.8115 375.374L62.1929 375.374L62.1929 368.387L48.8115 368.387L48.8115 365.508ZM48.8115 346.273L64.7124 346.273L64.7124 349.158L51.331 349.158L51.331 355.992L54.876 356.175Q58.084 356.329 60.23 356.746Q62.376 357.164 63.665 358.123Q64.9541 359.083 64.9541 360.797Q64.9541 361.573 64.6831 362.569L62.2515 362.386Q62.3393 361.998 62.3393 361.668Q62.3393 360.467 61.292 359.866Q60.2446 359.266 58.8018 359.09Q57.3589 358.907 54.6929 358.753L48.8115 358.482L48.8115 346.273ZM48.665 326.625Q48.665 324.318 49.6977 322.487Q50.7305 320.656 52.5762 319.609Q54.4219 318.554 56.7656 318.554Q59.102 318.554 60.9477 319.609Q62.7934 320.656 63.8481 322.487Q64.8955 324.318 64.8955 326.625Q64.8955 328.727 64.0239 330.441Q63.1523 332.148 61.5776 333.246Q60.0029 334.338 57.9888 334.609L57.9888 337.817L64.7124 337.817L64.7124 340.695L48.8115 340.695L48.8115 337.817L55.3227 337.817L55.3227 334.572Q53.3452 334.279 51.8291 333.188Q50.313 332.089 49.4927 330.397Q48.665 328.698 48.665 326.625ZM62.376 326.625Q62.376 325.153 61.6875 323.974Q60.9917 322.787 59.7173 322.099Q58.4429 321.403 56.7656 321.403Q55.1103 321.403 53.8359 322.099Q52.5615 322.787 51.873 323.974Q51.1846 325.153 51.1846 326.625Q51.1846 328.097 51.873 329.298Q52.5615 330.492 53.8359 331.173Q55.1103 331.847 56.7656 331.847Q58.4429 331.847 59.7173 331.173Q60.9917 330.492 61.6875 329.298Q62.376 328.097 62.376 326.625ZM48.8115 288.012L64.7124 288.012L64.7124 290.627L53.1035 290.627L62.9106 296.567L62.9106 297.827L53.0742 303.708L64.7124 303.708L64.7124 306.345L48.8115 306.345L48.8115 303.379L59.5488 297.138L48.8115 290.715L48.8115 288.012ZM56.8535 268.035Q57.1831 268.035 57.7251 268.093L57.7251 280.999Q59.8198 280.728 61.1015 279.153Q62.376 277.578 62.376 275.235Q62.376 272.385 60.4497 270.65L62.31 269.06Q63.5698 270.137 64.2363 271.741Q64.8955 273.345 64.8955 275.33Q64.8955 277.849 63.8628 279.798Q62.8227 281.746 60.9624 282.815Q59.102 283.877 56.7656 283.877Q54.4512 283.877 52.5908 282.844Q50.7305 281.804 49.6977 279.995Q48.665 278.179 48.665 275.894Q48.665 273.616 49.6977 271.836Q50.7305 270.049 52.5908 269.046Q54.4512 268.035 56.8535 268.035ZM51.0893 275.894Q51.0893 277.966 52.3491 279.365Q53.6089 280.757 55.6523 280.999L55.6523 270.796Q53.6455 271.038 52.3711 272.437Q51.0893 273.828 51.0893 275.894ZM48.8115 263.565L48.8115 260.687L55.5644 260.687L55.5644 251.626L48.8115 251.626L48.8115 248.748L64.7124 248.748L64.7124 251.626L58.0547 251.626L58.0547 260.687L64.7124 260.687L64.7124 263.565L48.8115 263.565ZM48.8115 220.488L64.7124 220.488L64.7124 243.135L48.8115 243.135L48.8115 240.257L62.1929 240.257L62.1929 233.233L48.8115 233.233L48.8115 230.354L62.1929 230.354L62.1929 223.367L48.8115 223.367L48.8115 220.488ZM56.8535 200.535Q57.1831 200.535 57.7251 200.593L57.7251 213.499Q59.8198 213.228 61.1015 211.653Q62.376 210.078 62.376 207.735Q62.376 204.885 60.4497 203.15L62.31 201.56Q63.5698 202.637 64.2363 204.241Q64.8955 205.845 64.8955 207.83Q64.8955 210.349 63.8628 212.298Q62.8227 214.246 60.9624 215.315Q59.102 216.377 56.7656 216.377Q54.4512 216.377 52.5908 215.344Q50.7305 214.304 49.6977 212.495Q48.665 210.679 48.665 208.394Q48.665 206.116 49.6977 204.336Q50.7305 202.549 52.5908 201.546Q54.4512 200.535 56.8535 200.535ZM51.0893 208.394Q51.0893 210.466 52.3491 211.865Q53.6089 213.257 55.6523 213.499L55.6523 203.296Q53.6455 203.538 52.3711 204.937Q51.0893 206.328 51.0893 208.394Z" fill="#000000" fill-opacity="1.000000" fill-rule="evenodd"/>
</svg>
