<svg width="1291.353027" height="736.154297" viewBox="0 0 1291.35 736.154" fill="none" xmlns="http://www.w3.org/2000/svg" >
	<desc>
			Created with Pixso.
	</desc>
	<defs>
		<linearGradient id="paint_linear_69_422_0" x1="295.524048" y1="457.410461" x2="286.712402" y2="552.131531" gradientUnits="userSpaceOnUse">
			<stop stop-color="#E70E00"/>
			<stop offset="1.000000" stop-color="#FF7777"/>
		</linearGradient>
		<linearGradient id="paint_linear_69_449_0" x1="640.522644" y1="235.678268" x2="631.712341" y2="542.665894" gradientUnits="userSpaceOnUse">
			<stop stop-color="#E70E00"/>
			<stop offset="1.000000" stop-color="#FF7777"/>
		</linearGradient>
		<linearGradient id="paint_linear_69_453_0" x1="1023.523682" y1="-2.743378" x2="1014.712402" y2="532.487793" gradientUnits="userSpaceOnUse">
			<stop stop-color="#E70E00"/>
			<stop offset="1.000000" stop-color="#FF7777"/>
		</linearGradient>
		<linearGradient id="paint_linear_69_445_0" x1="416.212402" y1="500.355469" x2="416.212402" y2="589.740112" gradientUnits="userSpaceOnUse">
			<stop stop-color="#BBBBBB"/>
			<stop offset="1.000000" stop-color="#BBBBBB" stop-opacity="0.000000"/>
		</linearGradient>
		<linearGradient id="paint_linear_69_450_0" x1="761.212402" y1="473.355469" x2="761.212402" y2="605.836243" gradientUnits="userSpaceOnUse">
			<stop stop-color="#BBBBBB"/>
			<stop offset="1.000000" stop-color="#BBBBBB" stop-opacity="0.000000"/>
		</linearGradient>
		<linearGradient id="paint_linear_69_454_0" x1="1144.212402" y1="343.355469" x2="1144.212402" y2="683.336243" gradientUnits="userSpaceOnUse">
			<stop stop-color="#BBBBBB"/>
			<stop offset="1.000000" stop-color="#BBBBBB" stop-opacity="0.000000"/>
		</linearGradient>
		<linearGradient id="paint_linear_69_441_0" x1="497.251282" y1="609.480408" x2="550.262878" y2="618.292908" gradientUnits="userSpaceOnUse">
			<stop stop-color="#E10920"/>
			<stop offset="1.000000" stop-color="#FF7785"/>
		</linearGradient>
		<linearGradient id="paint_linear_69_442_0" x1="843.251282" y1="609.480408" x2="896.262878" y2="618.292908" gradientUnits="userSpaceOnUse">
			<stop stop-color="#E10920"/>
			<stop offset="1.000000" stop-color="#FF7785"/>
		</linearGradient>
	</defs>
	<path id="Line 2" d="M173.348 3.35547L173.348 557.355L170.984 557.355L170.984 3.35547L173.348 3.35547ZM172.166 5.02734L166.314 10.8789C165.846 11.3477 165.111 11.3477 164.643 10.8789C164.175 10.4102 164.175 9.67578 164.643 9.20703L171.33 2.51953C171.798 2.05078 172.534 2.05078 173.002 2.51953L179.689 9.20703C180.157 9.67578 180.157 10.4102 179.689 10.8789C179.221 11.3477 178.486 11.3477 178.018 10.8789L172.166 5.02734Z" fill="#000000" fill-opacity="1.000000" fill-rule="evenodd"/>
	<path id="Line 3" d="M1290.17 558.412L171.818 558.412L171.818 556.049L1290.17 556.049L1290.17 558.412ZM1288.49 557.23L1282.64 551.379C1282.17 550.91 1282.17 550.176 1282.64 549.707C1283.11 549.238 1283.85 549.238 1284.31 549.707L1291 556.395C1291.47 556.863 1291.47 557.598 1291 558.066L1284.31 564.754C1283.85 565.223 1283.11 565.223 1282.64 564.754C1282.17 564.285 1282.17 563.551 1282.64 563.082L1288.49 557.23Z" fill="#000000" fill-opacity="1.000000" fill-rule="evenodd"/>
	<path id="15%" d="M261.099 432.394L261.099 461.355L254.391 461.355L254.391 437.768L248.603 437.768L248.603 432.394L261.099 432.394ZM276.076 443.273Q282.197 443.273 285.117 445.718Q288.036 448.153 288.036 452.254Q288.036 454.9 286.703 457.072Q285.379 459.244 282.672 460.547Q279.965 461.85 275.995 461.85Q272.924 461.85 269.964 461.042Q267.015 460.234 264.944 458.749L267.59 453.618Q269.247 454.86 271.399 455.547Q273.55 456.224 275.823 456.224Q278.349 456.224 279.793 455.234Q281.248 454.234 281.248 452.456Q281.248 450.597 279.733 449.648Q278.227 448.698 274.5 448.698L267.095 448.698L268.58 432.394L286.248 432.394L286.248 437.768L274.167 437.768L273.712 443.273L276.076 443.273ZM297.049 448.031Q293.866 448.031 291.856 445.859Q289.856 443.688 289.856 440.051Q289.856 436.404 291.856 434.232Q293.866 432.061 297.049 432.061Q300.241 432.061 302.221 434.232Q304.211 436.404 304.211 440.051Q304.211 443.688 302.221 445.859Q300.241 448.031 297.049 448.031ZM314.302 432.394L319.232 432.394L299.453 461.355L294.523 461.355L314.302 432.394ZM297.049 444.637Q298.463 444.637 299.261 443.486Q300.069 442.324 300.069 440.051Q300.069 437.768 299.261 436.616Q298.463 435.455 297.049 435.455Q295.685 435.455 294.856 436.637Q294.028 437.808 294.028 440.051Q294.028 442.283 294.856 443.465Q295.685 444.637 297.049 444.637ZM316.706 461.689Q314.636 461.689 312.999 460.719Q311.373 459.739 310.453 457.921Q309.544 456.103 309.544 453.698Q309.544 451.304 310.453 449.486Q311.373 447.658 312.999 446.688Q314.636 445.718 316.706 445.718Q319.888 445.718 321.899 447.89Q323.909 450.062 323.909 453.698Q323.909 457.345 321.899 459.517Q319.888 461.689 316.706 461.689ZM316.706 458.295Q318.111 458.295 318.919 457.113Q319.727 455.931 319.727 453.698Q319.727 451.466 318.919 450.294Q318.111 449.112 316.706 449.112Q315.343 449.112 314.514 450.274Q313.686 451.426 313.686 453.698Q313.686 455.981 314.514 457.143Q315.343 458.295 316.706 458.295Z" fill="#E10920" fill-opacity="1.000000" fill-rule="evenodd"/>
	<path id="50%" d="M599.212 259.273Q605.333 259.273 608.253 261.718Q611.172 264.153 611.172 268.254Q611.172 270.9 609.839 273.072Q608.515 275.244 605.808 276.547Q603.101 277.85 599.131 277.85Q596.06 277.85 593.1 277.042Q590.151 276.234 588.08 274.749L590.726 269.618Q592.383 270.86 594.535 271.547Q596.686 272.224 598.959 272.224Q601.485 272.224 602.929 271.234Q604.384 270.234 604.384 268.456Q604.384 266.597 602.869 265.648Q601.363 264.698 597.636 264.698L590.231 264.698L591.716 248.394L609.384 248.394L609.384 253.768L597.303 253.768L596.848 259.273L599.212 259.273ZM626.316 277.85Q622.71 277.85 619.891 276.073Q617.083 274.295 615.487 270.921Q613.901 267.547 613.901 262.87Q613.901 258.203 615.487 254.829Q617.083 251.455 619.891 249.677Q622.71 247.899 626.316 247.899Q629.912 247.899 632.72 249.677Q635.539 251.455 637.125 254.829Q638.721 258.203 638.721 262.87Q638.721 267.547 637.125 270.921Q635.539 274.295 632.72 276.073Q629.912 277.85 626.316 277.85ZM626.316 272.183Q628.962 272.183 630.468 269.911Q631.983 267.628 631.983 262.87Q631.983 258.112 630.468 255.839Q628.962 253.566 626.316 253.566Q623.7 253.566 622.184 255.839Q620.679 258.112 620.679 262.87Q620.679 267.628 622.184 269.911Q623.7 272.183 626.316 272.183ZM648.693 264.031Q645.511 264.031 643.501 261.859Q641.501 259.688 641.501 256.051Q641.501 252.404 643.501 250.232Q645.511 248.061 648.693 248.061Q651.885 248.061 653.865 250.232Q655.855 252.404 655.855 256.051Q655.855 259.688 653.865 261.859Q651.885 264.031 648.693 264.031ZM665.947 248.394L670.876 248.394L651.097 277.355L646.168 277.355L665.947 248.394ZM648.693 260.637Q650.107 260.637 650.905 259.486Q651.713 258.324 651.713 256.051Q651.713 253.768 650.905 252.616Q650.107 251.455 648.693 251.455Q647.329 251.455 646.501 252.637Q645.673 253.808 645.673 256.051Q645.673 258.283 646.501 259.465Q647.329 260.637 648.693 260.637ZM668.351 277.689Q666.28 277.689 664.643 276.719Q663.017 275.739 662.098 273.921Q661.189 272.103 661.189 269.698Q661.189 267.304 662.098 265.486Q663.017 263.658 664.643 262.688Q666.28 261.718 668.351 261.718Q671.533 261.718 673.543 263.89Q675.553 266.062 675.553 269.698Q675.553 273.345 673.543 275.517Q671.533 277.689 668.351 277.689ZM668.351 274.295Q669.755 274.295 670.563 273.113Q671.371 271.931 671.371 269.698Q671.371 267.466 670.563 266.294Q669.755 265.112 668.351 265.112Q666.987 265.112 666.159 266.274Q665.33 267.426 665.33 269.698Q665.33 271.981 666.159 273.143Q666.987 274.295 668.351 274.295Z" fill="#E10920" fill-opacity="1.000000" fill-rule="evenodd"/>
	<path id="85%" d="M991.701 58.1322Q993.853 59.203 994.984 60.9405Q996.126 62.678 996.126 64.961Q996.126 67.648 994.59 69.6582Q993.065 71.6584 990.287 72.7595Q987.519 73.8504 983.883 73.8504Q980.236 73.8504 977.478 72.7595Q974.73 71.6584 973.215 69.6582Q971.71 67.648 971.71 64.961Q971.71 62.678 972.852 60.9405Q973.993 59.203 976.104 58.1322Q974.488 57.1322 973.619 55.627Q972.751 54.1118 972.751 52.1722Q972.751 49.6468 974.155 47.7881Q975.559 45.9193 978.084 44.9091Q980.61 43.8989 983.883 43.8989Q987.186 43.8989 989.732 44.9091Q992.277 45.9193 993.681 47.7881Q995.095 49.6468 995.095 52.1722Q995.095 54.1118 994.227 55.627Q993.358 57.1322 991.701 58.1322ZM983.883 48.8185Q981.852 48.8185 980.63 49.7983Q979.408 50.7681 979.408 52.4652Q979.408 54.1118 980.61 55.0714Q981.812 56.021 983.883 56.021Q985.943 56.021 987.186 55.0714Q988.428 54.1118 988.428 52.4652Q988.428 50.7681 987.186 49.7983Q985.943 48.8185 983.883 48.8185ZM983.883 68.9309Q986.398 68.9309 987.863 67.7894Q989.338 66.6479 989.338 64.7488Q989.338 62.8497 987.863 61.7284Q986.398 60.6071 983.883 60.6071Q981.398 60.6071 979.943 61.7284Q978.498 62.8497 978.498 64.7488Q978.498 66.6985 979.943 67.8197Q981.398 68.9309 983.883 68.9309ZM1009.12 55.2734Q1015.24 55.2734 1018.16 57.7181Q1021.08 60.1526 1021.08 64.2538Q1021.08 66.9005 1019.75 69.0724Q1018.42 71.2442 1015.72 72.5473Q1013.01 73.8504 1009.04 73.8504Q1005.97 73.8504 1003.01 73.0423Q1000.06 72.2342 997.988 70.7492L1000.63 65.6176Q1002.29 66.8601 1004.44 67.547Q1006.59 68.2238 1008.87 68.2238Q1011.39 68.2238 1012.84 67.2338Q1014.29 66.2338 1014.29 64.4559Q1014.29 62.5972 1012.78 61.6476Q1011.27 60.6981 1007.54 60.6981L1000.14 60.6981L1001.62 44.3939L1019.29 44.3939L1019.29 49.768L1007.21 49.768L1006.76 55.2734L1009.12 55.2734ZM1030.09 60.0313Q1026.91 60.0313 1024.9 57.8595Q1022.9 55.6876 1022.9 52.051Q1022.9 48.4043 1024.9 46.2324Q1026.91 44.0606 1030.09 44.0606Q1033.29 44.0606 1035.27 46.2324Q1037.26 48.4043 1037.26 52.051Q1037.26 55.6876 1035.27 57.8595Q1033.29 60.0313 1030.09 60.0313ZM1047.35 44.3939L1052.28 44.3939L1032.5 73.3555L1027.57 73.3555L1047.35 44.3939ZM1030.09 56.6372Q1031.51 56.6372 1032.31 55.4856Q1033.11 54.3239 1033.11 52.051Q1033.11 49.768 1032.31 48.6164Q1031.51 47.4547 1030.09 47.4547Q1028.73 47.4547 1027.9 48.6366Q1027.07 49.8084 1027.07 52.051Q1027.07 54.2835 1027.9 55.4654Q1028.73 56.6372 1030.09 56.6372ZM1049.75 73.6888Q1047.68 73.6888 1046.04 72.7191Q1044.42 71.7392 1043.5 69.9209Q1042.59 68.1026 1042.59 65.6984Q1042.59 63.3043 1043.5 61.486Q1044.42 59.6576 1046.04 58.6878Q1047.68 57.7181 1049.75 57.7181Q1052.93 57.7181 1054.94 59.8899Q1056.95 62.0618 1056.95 65.6984Q1056.95 69.3451 1054.94 71.517Q1052.93 73.6888 1049.75 73.6888ZM1049.75 70.2947Q1051.16 70.2947 1051.96 69.1128Q1052.77 67.9309 1052.77 65.6984Q1052.77 63.4659 1051.96 62.2941Q1051.16 61.1122 1049.75 61.1122Q1048.39 61.1122 1047.56 62.2739Q1046.73 63.4255 1046.73 65.6984Q1046.73 67.9814 1047.56 69.1431Q1048.39 70.2947 1049.75 70.2947Z" fill="#E10920" fill-opacity="1.000000" fill-rule="evenodd"/>
	<path id="7%" d="M409.402 461.394L409.402 465.738L398.644 490.355L391.361 490.355L401.755 466.849L392.149 466.849L392.149 471.566L386.189 471.566L386.189 461.394L409.402 461.394ZM419.333 477.031Q416.151 477.031 414.141 474.859Q412.141 472.688 412.141 469.051Q412.141 465.404 414.141 463.232Q416.151 461.061 419.333 461.061Q422.525 461.061 424.505 463.232Q426.495 465.404 426.495 469.051Q426.495 472.688 424.505 474.859Q422.525 477.031 419.333 477.031ZM436.587 461.394L441.517 461.394L421.738 490.355L416.808 490.355L436.587 461.394ZM419.333 473.637Q420.748 473.637 421.546 472.486Q422.354 471.324 422.354 469.051Q422.354 466.768 421.546 465.616Q420.748 464.455 419.333 464.455Q417.97 464.455 417.141 465.637Q416.313 466.808 416.313 469.051Q416.313 471.283 417.141 472.465Q417.97 473.637 419.333 473.637ZM438.991 490.689Q436.92 490.689 435.284 489.719Q433.658 488.739 432.738 486.921Q431.829 485.103 431.829 482.698Q431.829 480.304 432.738 478.486Q433.658 476.658 435.284 475.688Q436.92 474.718 438.991 474.718Q442.173 474.718 444.184 476.89Q446.194 479.062 446.194 482.698Q446.194 486.345 444.184 488.517Q442.173 490.689 438.991 490.689ZM438.991 487.295Q440.395 487.295 441.203 486.113Q442.012 484.931 442.012 482.698Q442.012 480.466 441.203 479.294Q440.395 478.112 438.991 478.112Q437.628 478.112 436.799 479.274Q435.971 480.426 435.971 482.698Q435.971 484.981 436.799 486.143Q437.628 487.295 438.991 487.295Z" fill="#737373" fill-opacity="1.000000" fill-rule="evenodd"/>
	<path id="14%" d="M733.614 432.394L733.614 461.355L726.907 461.355L726.907 437.768L721.118 437.768L721.118 432.394L733.614 432.394ZM765.178 455.274L760.461 455.274L760.461 461.355L753.925 461.355L753.925 455.274L738.328 455.274L738.328 450.759L751.985 432.394L759.016 432.394L746.359 449.809L754.137 449.809L754.137 444.395L760.461 444.395L760.461 449.809L765.178 449.809L765.178 455.274ZM772.626 448.031Q769.444 448.031 767.434 445.859Q765.433 443.688 765.433 440.051Q765.433 436.404 767.434 434.232Q769.444 432.061 772.626 432.061Q775.818 432.061 777.798 434.232Q779.788 436.404 779.788 440.051Q779.788 443.688 777.798 445.859Q775.818 448.031 772.626 448.031ZM789.88 432.394L794.809 432.394L775.03 461.355L770.1 461.355L789.88 432.394ZM772.626 444.637Q774.04 444.637 774.838 443.486Q775.646 442.324 775.646 440.051Q775.646 437.768 774.838 436.616Q774.04 435.455 772.626 435.455Q771.262 435.455 770.434 436.637Q769.605 437.808 769.605 440.051Q769.605 442.283 770.434 443.465Q771.262 444.637 772.626 444.637ZM792.284 461.689Q790.213 461.689 788.576 460.719Q786.95 459.739 786.031 457.921Q785.122 456.103 785.122 453.698Q785.122 451.304 786.031 449.486Q786.95 447.658 788.576 446.688Q790.213 445.718 792.284 445.718Q795.466 445.718 797.476 447.89Q799.486 450.062 799.486 453.698Q799.486 457.345 797.476 459.517Q795.466 461.689 792.284 461.689ZM792.284 458.295Q793.688 458.295 794.496 457.113Q795.304 455.931 795.304 453.698Q795.304 451.466 794.496 450.294Q793.688 449.112 792.284 449.112Q790.92 449.112 790.092 450.274Q789.263 451.426 789.263 453.698Q789.263 455.981 790.092 457.143Q790.92 458.295 792.284 458.295Z" fill="#737373" fill-opacity="1.000000" fill-rule="evenodd"/>
	<path id="39%" d="M1115.29 312.183Q1119.09 312.809 1121.11 315.021Q1123.14 317.233 1123.14 320.496Q1123.14 323.022 1121.82 325.153Q1120.5 327.285 1117.79 328.568Q1115.08 329.85 1111.15 329.85Q1108.08 329.85 1105.12 329.042Q1102.17 328.234 1100.1 326.749L1102.71 321.618Q1104.37 322.86 1106.54 323.547Q1108.71 324.224 1110.98 324.224Q1113.51 324.224 1114.95 323.254Q1116.41 322.284 1116.41 320.496Q1116.41 316.94 1110.98 316.94L1107.92 316.94L1107.92 312.516L1113.88 305.768L1101.55 305.768L1101.55 300.394L1121.82 300.394L1121.82 304.738L1115.29 312.183ZM1136.43 299.899Q1142.51 299.899 1145.94 303.606Q1149.38 307.303 1149.38 314.253Q1149.38 319.173 1147.54 322.698Q1145.7 326.214 1142.35 328.032Q1138.99 329.85 1134.61 329.85Q1132.29 329.85 1130.18 329.335Q1128.07 328.82 1126.59 327.871L1129.06 322.941Q1131.17 324.385 1134.49 324.385Q1138.16 324.385 1140.32 322.214Q1142.47 320.042 1142.64 315.951Q1140.03 318.557 1135.44 318.557Q1132.67 318.557 1130.39 317.446Q1128.11 316.324 1126.79 314.274Q1125.47 312.223 1125.47 309.536Q1125.47 306.637 1126.91 304.445Q1128.37 302.253 1130.86 301.081Q1133.37 299.899 1136.43 299.899ZM1136.93 313.546Q1139.12 313.546 1140.51 312.334Q1141.89 311.112 1141.89 309.203Q1141.89 307.303 1140.55 306.101Q1139.2 304.899 1136.84 304.899Q1134.69 304.899 1133.35 306.061Q1132 307.223 1132 309.203Q1132 311.193 1133.35 312.375Q1134.69 313.546 1136.93 313.546ZM1159.31 316.031Q1156.13 316.031 1154.12 313.859Q1152.12 311.688 1152.12 308.051Q1152.12 304.404 1154.12 302.232Q1156.13 300.061 1159.31 300.061Q1162.5 300.061 1164.48 302.232Q1166.47 304.404 1166.47 308.051Q1166.47 311.688 1164.48 313.859Q1162.5 316.031 1159.31 316.031ZM1176.56 300.394L1181.49 300.394L1161.71 329.355L1156.78 329.355L1176.56 300.394ZM1159.31 312.637Q1160.72 312.637 1161.52 311.486Q1162.33 310.324 1162.33 308.051Q1162.33 305.768 1161.52 304.616Q1160.72 303.455 1159.31 303.455Q1157.94 303.455 1157.12 304.637Q1156.29 305.808 1156.29 308.051Q1156.29 310.283 1157.12 311.465Q1157.94 312.637 1159.31 312.637ZM1178.97 329.689Q1176.9 329.689 1175.26 328.719Q1173.63 327.739 1172.71 325.921Q1171.8 324.103 1171.8 321.698Q1171.8 319.304 1172.71 317.486Q1173.63 315.658 1175.26 314.688Q1176.9 313.718 1178.97 313.718Q1182.15 313.718 1184.16 315.89Q1186.17 318.062 1186.17 321.698Q1186.17 325.345 1184.16 327.517Q1182.15 329.689 1178.97 329.689ZM1178.97 326.295Q1180.37 326.295 1181.18 325.113Q1181.99 323.931 1181.99 321.698Q1181.99 319.466 1181.18 318.294Q1180.37 317.112 1178.97 317.112Q1177.6 317.112 1176.77 318.274Q1175.95 319.426 1175.95 321.698Q1175.95 323.981 1176.77 325.143Q1177.6 326.295 1178.97 326.295Z" fill="#737373" fill-opacity="1.000000" fill-rule="evenodd"/>
	<path id="Rectangle 24" d="M247.992 473.355L324.433 473.355C336.186 473.355 345.712 482.883 345.712 494.635L345.712 556.355L226.712 556.355L226.712 494.635C226.712 482.883 236.24 473.355 247.992 473.355Z" fill="url(#paint_linear_69_422_0)" fill-opacity="1.000000" fill-rule="evenodd"/>
	<path id="Rectangle 26" d="M592.992 287.355L669.433 287.355C681.186 287.355 690.712 296.883 690.712 308.635L690.712 556.355L571.712 556.355L571.712 308.635C571.712 296.883 581.239 287.355 592.992 287.355Z" fill="url(#paint_linear_69_449_0)" fill-opacity="1.000000" fill-rule="evenodd"/>
	<path id="Rectangle 28" d="M975.992 87.3555L1052.43 87.3555C1064.19 87.3555 1073.71 96.8828 1073.71 108.635L1073.71 556.355L954.712 556.355L954.712 108.635C954.712 96.8828 964.239 87.3555 975.992 87.3555Z" fill="url(#paint_linear_69_453_0)" fill-opacity="1.000000" fill-rule="evenodd"/>
	<path id="Rectangle 25" d="M377.992 500.355L454.433 500.355C466.186 500.355 475.712 509.883 475.712 521.635L475.712 556.355L356.712 556.355L356.712 521.635C356.712 509.883 366.239 500.355 377.992 500.355Z" fill="url(#paint_linear_69_445_0)" fill-opacity="1.000000" fill-rule="evenodd"/>
	<path id="Rectangle 27" d="M722.992 473.355L799.433 473.355C811.186 473.355 820.712 482.883 820.712 494.635L820.712 556.355L701.712 556.355L701.712 494.635C701.712 482.883 711.239 473.355 722.992 473.355Z" fill="url(#paint_linear_69_450_0)" fill-opacity="1.000000" fill-rule="evenodd"/>
	<path id="Rectangle 29" d="M1105.99 343.355L1182.43 343.355C1194.19 343.355 1203.71 352.883 1203.71 364.635L1203.71 556.355L1084.71 556.355L1084.71 364.635C1084.71 352.883 1094.24 343.355 1105.99 343.355Z" fill="url(#paint_linear_69_454_0)" fill-opacity="1.000000" fill-rule="evenodd"/>
	<path id="Line 9" d="M524.109 557.23L524.109 545.408" stroke="#000000" stroke-opacity="1.000000" stroke-width="1.182186" stroke-linecap="round"/>
	<path id="Line 10" d="M877.583 557.23L877.583 545.408" stroke="#000000" stroke-opacity="1.000000" stroke-width="1.182186" stroke-linecap="round"/>
	<path id="Line 8" d="M171.818 446.355L159.996 446.355" stroke="#000000" stroke-opacity="1.000000" stroke-width="1.182186" stroke-linecap="round"/>
	<path id="Line 11" d="M171.818 336.355L159.996 336.355" stroke="#000000" stroke-opacity="1.000000" stroke-width="1.182186" stroke-linecap="round"/>
	<path id="Line 12" d="M171.818 226.355L159.996 226.355" stroke="#000000" stroke-opacity="1.000000" stroke-width="1.182186" stroke-linecap="round"/>
	<path id="Line 13" d="M171.818 116.355L159.996 116.355" stroke="#000000" stroke-opacity="1.000000" stroke-width="1.182186" stroke-linecap="round"/>
	<path id="Візит 1 (0-й день)" d="M318.188 609.923Q319.666 610.363 320.45 611.356Q321.24 612.348 321.24 613.804Q321.24 615.953 319.609 617.154Q317.979 618.355 314.95 618.355L306.98 618.355L306.98 602.184L314.516 602.184Q317.331 602.184 318.899 603.273Q320.472 604.356 320.472 606.364Q320.472 607.565 319.869 608.479Q319.271 609.393 318.188 609.923ZM310.703 608.885L314.189 608.885Q315.413 608.885 316.039 608.389Q316.665 607.892 316.665 606.917Q316.665 605.975 316.028 605.467Q315.39 604.954 314.189 604.954L310.703 604.954L310.703 608.885ZM314.815 615.58Q317.449 615.58 317.449 613.505Q317.449 611.491 314.815 611.491L310.703 611.491L310.703 615.58L314.815 615.58ZM324.192 602.184L327.915 602.184L327.915 618.355L324.192 618.355L324.192 602.184ZM341.132 609.923Q342.536 610.408 343.332 611.44Q344.133 612.467 344.133 613.826Q344.133 615.304 343.162 616.393Q342.192 617.476 340.54 618.057Q338.887 618.632 336.924 618.632Q335.26 618.632 333.607 618.22Q331.955 617.803 330.477 616.945L331.633 614.266Q332.699 614.915 333.98 615.248Q335.26 615.58 336.484 615.58Q338.148 615.58 339.242 614.982Q340.342 614.379 340.342 613.296Q340.342 612.393 339.592 611.931Q338.842 611.468 337.55 611.468L333.596 611.468L333.596 608.654L337.274 608.654Q338.402 608.654 339.039 608.191Q339.677 607.729 339.677 606.917Q339.677 605.975 338.763 605.444Q337.849 604.909 336.416 604.909Q335.356 604.909 334.222 605.202Q333.088 605.49 332.073 606.065L330.939 603.154Q333.506 601.834 336.484 601.834Q338.379 601.834 339.97 602.393Q341.566 602.946 342.514 604.012Q343.461 605.072 343.461 606.482Q343.461 607.633 342.835 608.535Q342.215 609.438 341.132 609.923ZM347.088 602.184L350.811 602.184L350.811 612.721L358.527 602.184L362.035 602.184L362.035 618.355L358.341 618.355L358.341 607.842L350.625 618.355L347.088 618.355L347.088 602.184ZM378.42 605.23L373.242 605.23L373.242 618.355L369.547 618.355L369.547 605.23L364.392 605.23L364.392 602.184L378.42 602.184L378.42 605.23ZM392.444 602.184L392.444 618.355L388.699 618.355L388.699 605.185L385.467 605.185L385.467 602.184L392.444 602.184ZM287.451 654.84Q286.131 652.713 285.415 649.955Q284.698 647.191 284.698 644.027Q284.698 640.863 285.415 638.076Q286.131 635.29 287.451 633.214L289.549 633.214Q288.167 635.639 287.519 638.296Q286.87 640.953 286.87 644.027Q286.87 647.095 287.519 649.758Q288.167 652.414 289.549 654.84L287.451 654.84ZM298.006 650.542Q296.089 650.542 294.599 649.56Q293.11 648.579 292.253 646.706Q291.401 644.833 291.401 642.267Q291.401 639.706 292.253 637.834Q293.11 635.961 294.599 634.979Q296.089 633.998 298.006 633.998Q299.902 633.998 301.391 634.979Q302.88 635.961 303.731 637.834Q304.589 639.706 304.589 642.267Q304.589 644.833 303.731 646.706Q302.88 648.579 301.391 649.56Q299.902 650.542 298.006 650.542ZM298.006 648.483Q299.947 648.483 301.114 646.892Q302.282 645.296 302.282 642.267Q302.282 639.244 301.114 637.653Q299.947 636.057 298.006 636.057Q296.043 636.057 294.876 637.653Q293.708 639.244 293.708 642.267Q293.708 645.296 294.876 646.892Q296.043 648.483 298.006 648.483ZM307.176 643.057L313.392 643.057L313.392 644.974L307.176 644.974L307.176 643.057ZM317.226 634.184L319.516 634.184L319.516 646.661L329.082 634.184L331.209 634.184L331.209 650.355L328.941 650.355L328.941 637.901L319.353 650.355L317.226 650.355L317.226 634.184ZM324.181 633.05Q322.291 633.05 321.259 632.233Q320.233 631.409 320.21 629.886L321.851 629.886Q321.874 630.789 322.483 631.285Q323.098 631.781 324.181 631.781Q325.224 631.781 325.856 631.285Q326.493 630.789 326.516 629.886L328.135 629.886Q328.112 631.386 327.08 632.221Q326.054 633.05 324.181 633.05ZM357.865 648.347L357.865 653.892L355.722 653.892L355.722 650.355L342.41 650.355L342.387 653.892L340.238 653.892L340.261 648.347L341.051 648.347Q342.574 648.252 343.194 645.933Q343.82 643.609 343.961 639.379L344.119 634.184L355.49 634.184L355.49 648.347L357.865 648.347ZM345.992 639.588Q345.879 643.006 345.45 645.251Q345.022 647.49 344.074 648.347L353.2 648.347L353.2 636.192L346.11 636.192L345.992 639.588ZM372.768 648.347L372.768 650.355L361.03 650.355L361.03 634.184L372.441 634.184L372.441 636.192L363.343 636.192L363.343 641.161L371.448 641.161L371.448 643.124L363.343 643.124L363.343 648.347L372.768 648.347ZM390.304 634.184L390.304 650.355L387.991 650.355L387.991 643.147L378.707 643.147L378.707 650.355L376.394 650.355L376.394 634.184L378.707 634.184L378.707 641.139L387.991 641.139L387.991 634.184L390.304 634.184ZM402.435 639.819Q405.323 639.819 406.857 641.116Q408.397 642.408 408.397 644.924Q408.397 647.58 406.744 648.968Q405.091 650.355 402.017 650.355L395.339 650.355L395.339 634.184L397.629 634.184L397.629 639.819L402.435 639.819ZM401.927 648.528Q403.935 648.528 405.007 647.62Q406.084 646.706 406.084 644.974Q406.084 641.647 401.927 641.647L397.629 641.647L397.629 648.528L401.927 648.528ZM409.758 654.84Q411.145 652.414 411.8 649.758Q412.459 647.095 412.459 644.027Q412.459 640.953 411.8 638.296Q411.145 635.639 409.758 633.214L411.862 633.214Q413.198 635.29 413.915 638.065Q414.631 640.834 414.631 644.027Q414.631 647.191 413.915 649.966Q413.198 652.736 411.862 654.84L409.758 654.84Z" fill="#000000" fill-opacity="1.000000" fill-rule="evenodd"/>
	<path id="Візит 2 (4-й (+/-1) день)" d="M659.632 609.923Q661.109 610.363 661.893 611.356Q662.683 612.348 662.683 613.804Q662.683 615.953 661.053 617.154Q659.423 618.355 656.394 618.355L648.424 618.355L648.424 602.184L655.96 602.184Q658.774 602.184 660.342 603.273Q661.916 604.356 661.916 606.364Q661.916 607.565 661.313 608.479Q660.715 609.393 659.632 609.923ZM652.147 608.885L655.633 608.885Q656.857 608.885 657.483 608.389Q658.109 607.892 658.109 606.917Q658.109 605.975 657.471 605.467Q656.834 604.954 655.633 604.954L652.147 604.954L652.147 608.885ZM656.259 615.58Q658.893 615.58 658.893 613.505Q658.893 611.491 656.259 611.491L652.147 611.491L652.147 615.58L656.259 615.58ZM665.636 602.184L669.359 602.184L669.359 618.355L665.636 618.355L665.636 602.184ZM682.575 609.923Q683.98 610.408 684.775 611.44Q685.576 612.467 685.576 613.826Q685.576 615.304 684.606 616.393Q683.636 617.476 681.983 618.057Q680.33 618.632 678.368 618.632Q676.704 618.632 675.051 618.22Q673.398 617.803 671.921 616.945L673.077 614.266Q674.143 614.915 675.423 615.248Q676.704 615.58 677.928 615.58Q679.592 615.58 680.686 614.982Q681.786 614.379 681.786 613.296Q681.786 612.393 681.036 611.931Q680.285 611.468 678.994 611.468L675.04 611.468L675.04 608.654L678.717 608.654Q679.845 608.654 680.483 608.191Q681.12 607.729 681.12 606.917Q681.12 605.975 680.206 605.444Q679.293 604.909 677.86 604.909Q676.8 604.909 675.666 605.202Q674.532 605.49 673.517 606.065L672.383 603.154Q674.949 601.834 677.928 601.834Q679.823 601.834 681.413 602.393Q683.01 602.946 683.957 604.012Q684.905 605.072 684.905 606.482Q684.905 607.633 684.279 608.535Q683.658 609.438 682.575 609.923ZM688.532 602.184L692.254 602.184L692.254 612.721L699.971 602.184L703.479 602.184L703.479 618.355L699.784 618.355L699.784 607.842L692.068 618.355L688.532 618.355L688.532 602.184ZM719.864 605.23L714.686 605.23L714.686 618.355L710.991 618.355L710.991 605.23L705.836 605.23L705.836 602.184L719.864 602.184L719.864 605.23ZM739.731 615.304L739.731 618.355L727.508 618.355L727.508 615.93L733.747 610.036Q734.739 609.094 735.083 608.411Q735.433 607.729 735.433 607.058Q735.433 606.087 734.773 605.568Q734.119 605.05 732.844 605.05Q731.784 605.05 730.926 605.456Q730.075 605.856 729.494 606.663L726.769 604.909Q727.717 603.498 729.381 602.703Q731.045 601.908 733.194 601.908Q734.993 601.908 736.347 602.5Q737.701 603.087 738.451 604.158Q739.201 605.23 739.201 606.691Q739.201 608.005 738.643 609.161Q738.09 610.318 736.499 611.796L732.776 615.304L739.731 615.304ZM605.225 654.84Q603.905 652.713 603.189 649.955Q602.473 647.191 602.473 644.027Q602.473 640.863 603.189 638.076Q603.905 635.29 605.225 633.214L607.323 633.214Q605.941 635.639 605.293 638.296Q604.644 640.953 604.644 644.027Q604.644 647.095 605.293 649.758Q605.941 652.414 607.323 654.84L605.225 654.84ZM622.781 646.379L619.707 646.379L619.707 650.355L617.467 650.355L617.467 646.379L608.482 646.379L608.482 644.766L616.751 634.184L619.244 634.184L611.319 644.393L617.535 644.393L617.535 640.885L619.707 640.885L619.707 644.393L622.781 644.393L622.781 646.379ZM624.604 643.057L630.82 643.057L630.82 644.974L624.604 644.974L624.604 643.057ZM634.654 634.184L636.944 634.184L636.944 646.661L646.51 634.184L648.637 634.184L648.637 650.355L646.369 650.355L646.369 637.901L636.78 650.355L634.654 650.355L634.654 634.184ZM641.608 633.05Q639.719 633.05 638.687 632.233Q637.66 631.409 637.638 629.886L639.279 629.886Q639.302 630.789 639.911 631.285Q640.526 631.781 641.608 631.781Q642.652 631.781 643.284 631.285Q643.921 630.789 643.944 629.886L645.562 629.886Q645.54 631.386 644.508 632.221Q643.481 633.05 641.608 633.05ZM662.314 654.84Q660.994 652.713 660.278 649.955Q659.561 647.191 659.561 644.027Q659.561 640.863 660.278 638.076Q660.994 635.29 662.314 633.214L664.412 633.214Q663.03 635.639 662.381 638.296Q661.733 640.953 661.733 644.027Q661.733 647.095 662.381 649.758Q663.03 652.414 664.412 654.84L662.314 654.84ZM677.049 643.192L672.847 643.192L672.847 647.327L670.906 647.327L670.906 643.192L666.698 643.192L666.698 641.37L670.906 641.37L670.906 637.207L672.847 637.207L672.847 641.37L677.049 641.37L677.049 643.192ZM685.576 630.901L687.584 630.901L679.964 652.668L677.95 652.668L685.576 630.901ZM686.475 643.057L692.691 643.057L692.691 644.974L686.475 644.974L686.475 643.057ZM699.713 634.184L699.713 650.355L697.429 650.355L697.429 636.192L693.779 636.192L693.779 634.184L699.713 634.184ZM702.88 654.84Q704.268 652.414 704.922 649.758Q705.582 647.095 705.582 644.027Q705.582 640.953 704.922 638.296Q704.268 635.639 702.88 633.214L704.984 633.214Q706.321 635.29 707.037 638.065Q707.754 640.834 707.754 644.027Q707.754 647.191 707.037 649.966Q706.321 652.736 704.984 654.84L702.88 654.84ZM734.091 648.347L734.091 653.892L731.947 653.892L731.947 650.355L718.636 650.355L718.613 653.892L716.464 653.892L716.487 648.347L717.276 648.347Q718.799 648.252 719.42 645.933Q720.046 643.609 720.187 639.379L720.345 634.184L731.716 634.184L731.716 648.347L734.091 648.347ZM722.218 639.588Q722.105 643.006 721.676 645.251Q721.247 647.49 720.3 648.347L729.426 648.347L729.426 636.192L722.336 636.192L722.218 639.588ZM748.994 648.347L748.994 650.355L737.256 650.355L737.256 634.184L748.667 634.184L748.667 636.192L739.569 636.192L739.569 641.161L747.674 641.161L747.674 643.124L739.569 643.124L739.569 648.347L748.994 648.347ZM766.529 634.184L766.529 650.355L764.217 650.355L764.217 643.147L754.933 643.147L754.933 650.355L752.62 650.355L752.62 634.184L754.933 634.184L754.933 641.139L764.217 641.139L764.217 634.184L766.529 634.184ZM778.661 639.819Q781.548 639.819 783.083 641.116Q784.623 642.408 784.623 644.924Q784.623 647.58 782.97 648.968Q781.317 650.355 778.243 650.355L771.565 650.355L771.565 634.184L773.855 634.184L773.855 639.819L778.661 639.819ZM778.153 648.528Q780.161 648.528 781.233 647.62Q782.31 646.706 782.31 644.974Q782.31 641.647 778.153 641.647L773.855 641.647L773.855 648.528L778.153 648.528ZM785.984 654.84Q787.371 652.414 788.025 649.758Q788.685 647.095 788.685 644.027Q788.685 640.953 788.025 638.296Q787.371 635.639 785.984 633.214L788.087 633.214Q789.424 635.29 790.141 638.065Q790.857 640.834 790.857 644.027Q790.857 647.191 790.141 649.966Q789.424 652.736 788.087 654.84L785.984 654.84Z" fill="#000000" fill-opacity="1.000000" fill-rule="evenodd"/>
	<path id="Візит 3 (7-й (+/-1) день)" d="M1042.61 609.923Q1044.09 610.363 1044.87 611.356Q1045.66 612.348 1045.66 613.804Q1045.66 615.953 1044.03 617.154Q1042.4 618.355 1039.37 618.355L1031.4 618.355L1031.4 602.184L1038.94 602.184Q1041.75 602.184 1043.32 603.273Q1044.89 604.356 1044.89 606.364Q1044.89 607.565 1044.29 608.479Q1043.69 609.393 1042.61 609.923ZM1035.12 608.885L1038.61 608.885Q1039.83 608.885 1040.46 608.389Q1041.09 607.892 1041.09 606.917Q1041.09 605.975 1040.45 605.467Q1039.81 604.954 1038.61 604.954L1035.12 604.954L1035.12 608.885ZM1039.24 615.58Q1041.87 615.58 1041.87 613.505Q1041.87 611.491 1039.24 611.491L1035.12 611.491L1035.12 615.58L1039.24 615.58ZM1048.61 602.184L1052.34 602.184L1052.34 618.355L1048.61 618.355L1048.61 602.184ZM1065.55 609.923Q1066.96 610.408 1067.75 611.44Q1068.55 612.467 1068.55 613.826Q1068.55 615.304 1067.58 616.393Q1066.61 617.476 1064.96 618.057Q1063.31 618.632 1061.34 618.632Q1059.68 618.632 1058.03 618.22Q1056.38 617.803 1054.9 616.945L1056.05 614.266Q1057.12 614.915 1058.4 615.248Q1059.68 615.58 1060.9 615.58Q1062.57 615.58 1063.66 614.982Q1064.76 614.379 1064.76 613.296Q1064.76 612.393 1064.01 611.931Q1063.26 611.468 1061.97 611.468L1058.02 611.468L1058.02 608.654L1061.69 608.654Q1062.82 608.654 1063.46 608.191Q1064.1 607.729 1064.1 606.917Q1064.1 605.975 1063.18 605.444Q1062.27 604.909 1060.84 604.909Q1059.78 604.909 1058.64 605.202Q1057.51 605.49 1056.49 606.065L1055.36 603.154Q1057.93 601.834 1060.9 601.834Q1062.8 601.834 1064.39 602.393Q1065.99 602.946 1066.93 604.012Q1067.88 605.072 1067.88 606.482Q1067.88 607.633 1067.26 608.535Q1066.64 609.438 1065.55 609.923ZM1071.51 602.184L1075.23 602.184L1075.23 612.721L1082.95 602.184L1086.46 602.184L1086.46 618.355L1082.76 618.355L1082.76 607.842L1075.05 618.355L1071.51 618.355L1071.51 602.184ZM1102.84 605.23L1097.66 605.23L1097.66 618.355L1093.97 618.355L1093.97 605.23L1088.81 605.23L1088.81 602.184L1102.84 602.184L1102.84 605.23ZM1118.18 608.767Q1120.31 609.116 1121.43 610.352Q1122.57 611.587 1122.57 613.409Q1122.57 614.819 1121.83 616.009Q1121.09 617.199 1119.58 617.916Q1118.07 618.632 1115.87 618.632Q1114.16 618.632 1112.5 618.181Q1110.86 617.729 1109.7 616.9L1111.16 614.035Q1112.08 614.729 1113.29 615.112Q1114.51 615.49 1115.78 615.49Q1117.19 615.49 1117.99 614.949Q1118.8 614.407 1118.8 613.409Q1118.8 611.423 1115.78 611.423L1114.07 611.423L1114.07 608.953L1117.39 605.185L1110.51 605.185L1110.51 602.184L1121.83 602.184L1121.83 604.61L1118.18 608.767ZM989.507 654.84Q988.188 652.713 987.471 649.955Q986.755 647.191 986.755 644.027Q986.755 640.863 987.471 638.076Q988.188 635.29 989.507 633.214L991.606 633.214Q990.224 635.639 989.575 638.296Q988.926 640.953 988.926 644.027Q988.926 647.095 989.575 649.758Q990.224 652.414 991.606 654.84L989.507 654.84ZM1005.24 634.184L1005.24 635.752L998.698 650.355L996.25 650.355L1002.65 636.192L995.257 636.192L995.257 639.08L993.04 639.08L993.04 634.184L1005.24 634.184ZM1006.32 643.057L1012.54 643.057L1012.54 644.974L1006.32 644.974L1006.32 643.057ZM1016.37 634.184L1018.66 634.184L1018.66 646.661L1028.23 634.184L1030.35 634.184L1030.35 650.355L1028.09 650.355L1028.09 637.901L1018.5 650.355L1016.37 650.355L1016.37 634.184ZM1023.33 633.05Q1021.44 633.05 1020.4 632.233Q1019.38 631.409 1019.36 629.886L1021 629.886Q1021.02 630.789 1021.63 631.285Q1022.24 631.781 1023.33 631.781Q1024.37 631.781 1025 631.285Q1025.64 630.789 1025.66 629.886L1027.28 629.886Q1027.26 631.386 1026.23 632.221Q1025.2 633.05 1023.33 633.05ZM1044.03 654.84Q1042.71 652.713 1042 649.955Q1041.28 647.191 1041.28 644.027Q1041.28 640.863 1042 638.076Q1042.71 635.29 1044.03 633.214L1046.13 633.214Q1044.75 635.639 1044.1 638.296Q1043.45 640.953 1043.45 644.027Q1043.45 647.095 1044.1 649.758Q1044.75 652.414 1046.13 654.84L1044.03 654.84ZM1058.77 643.192L1054.56 643.192L1054.56 647.327L1052.62 647.327L1052.62 643.192L1048.42 643.192L1048.42 641.37L1052.62 641.37L1052.62 637.207L1054.56 637.207L1054.56 641.37L1058.77 641.37L1058.77 643.192ZM1067.29 630.901L1069.3 630.901L1061.68 652.668L1059.67 652.668L1067.29 630.901ZM1068.19 643.057L1074.41 643.057L1074.41 644.974L1068.19 644.974L1068.19 643.057ZM1081.43 634.184L1081.43 650.355L1079.15 650.355L1079.15 636.192L1075.5 636.192L1075.5 634.184L1081.43 634.184ZM1084.6 654.84Q1085.99 652.414 1086.64 649.758Q1087.3 647.095 1087.3 644.027Q1087.3 640.953 1086.64 638.296Q1085.99 635.639 1084.6 633.214L1086.7 633.214Q1088.04 635.29 1088.76 638.065Q1089.47 640.834 1089.47 644.027Q1089.47 647.191 1088.76 649.966Q1088.04 652.736 1086.7 654.84L1084.6 654.84ZM1115.81 648.347L1115.81 653.892L1113.67 653.892L1113.67 650.355L1100.35 650.355L1100.33 653.892L1098.18 653.892L1098.2 648.347L1098.99 648.347Q1100.52 648.252 1101.14 645.933Q1101.76 643.609 1101.9 639.379L1102.06 634.184L1113.43 634.184L1113.43 648.347L1115.81 648.347ZM1103.94 639.588Q1103.82 643.006 1103.39 645.251Q1102.97 647.49 1102.02 648.347L1111.14 648.347L1111.14 636.192L1104.05 636.192L1103.94 639.588ZM1130.71 648.347L1130.71 650.355L1118.97 650.355L1118.97 634.184L1130.38 634.184L1130.38 636.192L1121.29 636.192L1121.29 641.161L1129.39 641.161L1129.39 643.124L1121.29 643.124L1121.29 648.347L1130.71 648.347ZM1148.25 634.184L1148.25 650.355L1145.93 650.355L1145.93 643.147L1136.65 643.147L1136.65 650.355L1134.34 650.355L1134.34 634.184L1136.65 634.184L1136.65 641.139L1145.93 641.139L1145.93 634.184L1148.25 634.184ZM1160.38 639.819Q1163.27 639.819 1164.8 641.116Q1166.34 642.408 1166.34 644.924Q1166.34 647.58 1164.69 648.968Q1163.03 650.355 1159.96 650.355L1153.28 650.355L1153.28 634.184L1155.57 634.184L1155.57 639.819L1160.38 639.819ZM1159.87 648.528Q1161.88 648.528 1162.95 647.62Q1164.03 646.706 1164.03 644.974Q1164.03 641.647 1159.87 641.647L1155.57 641.647L1155.57 648.528L1159.87 648.528ZM1167.7 654.84Q1169.09 652.414 1169.74 649.758Q1170.4 647.095 1170.4 644.027Q1170.4 640.953 1169.74 638.296Q1169.09 635.639 1167.7 633.214L1169.81 633.214Q1171.14 635.29 1171.86 638.065Q1172.57 640.834 1172.57 644.027Q1172.57 647.191 1171.86 649.966Q1171.14 652.736 1169.81 654.84L1167.7 654.84Z" fill="#000000" fill-opacity="1.000000" fill-rule="evenodd"/>
	<path id="0" d="M143.453 563.471Q141.919 563.471 140.719 562.658Q139.518 561.841 138.844 560.321Q138.174 558.798 138.174 556.733Q138.174 554.674 138.844 553.15Q139.518 551.626 140.719 550.813Q141.919 550 143.453 550Q144.986 550 146.186 550.813Q147.387 551.626 148.066 553.15Q148.749 554.674 148.749 556.733Q148.749 558.798 148.066 560.321Q147.387 561.841 146.186 562.658Q144.986 563.471 143.453 563.471ZM143.453 562.219Q144.607 562.219 145.484 561.578Q146.366 560.936 146.856 559.707Q147.35 558.474 147.35 556.733Q147.35 554.997 146.856 553.769Q146.366 552.536 145.484 551.894Q144.607 551.252 143.453 551.252Q142.298 551.252 141.416 551.894Q140.539 552.536 140.045 553.769Q139.555 554.997 139.555 556.733Q139.555 558.474 140.045 559.707Q140.539 560.936 141.416 561.578Q142.298 562.219 143.453 562.219Z" fill="#000000" fill-opacity="1.000000" fill-rule="evenodd"/>
	<path id="20" d="M136.548 452.146L136.548 453.355L127.262 453.355L127.262 452.39L132.766 447.001Q133.805 445.981 134.175 445.233Q134.544 444.484 134.544 443.727Q134.544 442.554 133.74 441.903Q132.937 441.252 131.441 441.252Q129.113 441.252 127.83 442.725L126.864 441.894Q127.64 440.984 128.841 440.495Q130.041 440 131.556 440Q133.579 440 134.761 440.956Q135.943 441.912 135.943 443.575Q135.943 444.6 135.486 445.547Q135.033 446.489 133.768 447.717L129.266 452.146L136.548 452.146ZM143.453 453.471Q141.919 453.471 140.719 452.658Q139.518 451.841 138.844 450.322Q138.174 448.798 138.174 446.733Q138.174 444.674 138.844 443.15Q139.518 441.626 140.719 440.813Q141.919 440 143.453 440Q144.986 440 146.186 440.813Q147.387 441.626 148.066 443.15Q148.749 444.674 148.749 446.733Q148.749 448.798 148.066 450.322Q147.387 451.841 146.186 452.658Q144.986 453.471 143.453 453.471ZM143.453 452.219Q144.607 452.219 145.484 451.578Q146.366 450.936 146.856 449.707Q147.35 448.474 147.35 446.733Q147.35 444.997 146.856 443.769Q146.366 442.536 145.484 441.894Q144.607 441.252 143.453 441.252Q142.298 441.252 141.416 441.894Q140.539 442.536 140.045 443.769Q139.555 444.997 139.555 446.733Q139.555 448.474 140.045 449.707Q140.539 450.936 141.416 451.578Q142.298 452.219 143.453 452.219Z" fill="#000000" fill-opacity="1.000000" fill-rule="evenodd"/>
	<path id="40" d="M136.925 339.874L134.279 339.874L134.279 343.355L132.917 343.355L132.917 339.874L125.445 339.874L125.445 338.89L132.46 330.116L133.975 330.116L127.205 338.664L132.954 338.664L132.954 335.602L134.279 335.602L134.279 338.664L136.925 338.664L136.925 339.874ZM143.453 343.471Q141.919 343.471 140.719 342.658Q139.518 341.841 138.844 340.322Q138.174 338.798 138.174 336.733Q138.174 334.674 138.844 333.15Q139.518 331.626 140.719 330.813Q141.919 330 143.453 330Q144.986 330 146.186 330.813Q147.387 331.626 148.066 333.15Q148.749 334.674 148.749 336.733Q148.749 338.798 148.066 340.322Q147.387 341.841 146.186 342.658Q144.986 343.471 143.453 343.471ZM143.453 342.219Q144.607 342.219 145.484 341.578Q146.366 340.936 146.856 339.707Q147.35 338.474 147.35 336.733Q147.35 334.997 146.856 333.769Q146.366 332.536 145.484 331.894Q144.607 331.252 143.453 331.252Q142.298 331.252 141.416 331.894Q140.539 332.536 140.045 333.769Q139.555 334.997 139.555 336.733Q139.555 338.474 140.045 339.707Q140.539 340.936 141.416 341.578Q142.298 342.219 143.453 342.219Z" fill="#000000" fill-opacity="1.000000" fill-rule="evenodd"/>
	<path id="60" d="M132.141 225.431Q133.443 225.431 134.455 225.925Q135.471 226.415 136.034 227.315Q136.602 228.211 136.602 229.403Q136.602 230.612 136.016 231.541Q135.434 232.464 134.399 232.968Q133.37 233.471 132.086 233.471Q129.454 233.471 128.054 231.739Q126.655 230.007 126.655 226.849Q126.655 224.637 127.412 223.104Q128.17 221.571 129.527 220.786Q130.89 220 132.709 220Q134.676 220 135.849 220.721L135.3 221.815Q134.353 221.192 132.728 221.192Q130.534 221.192 129.283 222.582Q128.036 223.972 128.036 226.623Q128.036 227.094 128.091 227.699Q128.585 226.623 129.661 226.027Q130.742 225.431 132.141 225.431ZM132.026 232.316Q133.467 232.316 134.362 231.531Q135.263 230.746 135.263 229.439Q135.263 228.137 134.362 227.361Q133.467 226.586 131.933 226.586Q130.931 226.586 130.165 226.964Q129.398 227.338 128.959 228.003Q128.525 228.664 128.525 229.476Q128.525 230.234 128.932 230.88Q129.343 231.522 130.137 231.919Q130.931 232.316 132.026 232.316ZM143.453 233.471Q141.919 233.471 140.719 232.658Q139.518 231.841 138.844 230.322Q138.174 228.798 138.174 226.733Q138.174 224.674 138.844 223.15Q139.518 221.626 140.719 220.813Q141.919 220 143.453 220Q144.986 220 146.186 220.813Q147.387 221.626 148.066 223.15Q148.749 224.674 148.749 226.733Q148.749 228.798 148.066 230.322Q147.387 231.841 146.186 232.658Q144.986 233.471 143.453 233.471ZM143.453 232.219Q144.607 232.219 145.484 231.578Q146.366 230.936 146.856 229.707Q147.35 228.474 147.35 226.733Q147.35 224.997 146.856 223.769Q146.366 222.536 145.484 221.894Q144.607 221.252 143.453 221.252Q142.298 221.252 141.416 221.894Q140.539 222.536 140.045 223.769Q139.555 224.997 139.555 226.733Q139.555 228.474 140.045 229.707Q140.539 230.936 141.416 231.578Q142.298 232.219 143.453 232.219Z" fill="#000000" fill-opacity="1.000000" fill-rule="evenodd"/>
	<path id="80" d="M133.689 116.415Q134.941 116.83 135.61 117.662Q136.284 118.493 136.284 119.666Q136.284 120.82 135.656 121.684Q135.033 122.543 133.869 123.009Q132.706 123.471 131.14 123.471Q128.753 123.471 127.39 122.45Q126.033 121.425 126.033 119.666Q126.033 118.474 126.684 117.652Q127.335 116.83 128.586 116.415Q127.561 116.018 127.03 115.27Q126.504 114.521 126.504 113.501Q126.504 111.894 127.76 110.947Q129.02 110 131.14 110Q132.539 110 133.588 110.43Q134.636 110.855 135.222 111.649Q135.809 112.443 135.809 113.501Q135.809 114.521 135.259 115.27Q134.714 116.018 133.689 116.415ZM127.866 113.538Q127.866 114.637 128.734 115.279Q129.607 115.921 131.14 115.921Q132.669 115.921 133.546 115.279Q134.428 114.637 134.428 113.556Q134.428 112.443 133.528 111.801Q132.632 111.155 131.14 111.155Q129.625 111.155 128.743 111.801Q127.866 112.443 127.866 113.538ZM131.14 122.316Q132.895 122.316 133.888 121.596Q134.885 120.876 134.885 119.647Q134.885 118.419 133.888 117.712Q132.895 117.001 131.14 117.001Q129.399 117.001 128.406 117.712Q127.413 118.419 127.413 119.647Q127.413 120.899 128.397 121.61Q129.381 122.316 131.14 122.316ZM143.453 123.471Q141.919 123.471 140.719 122.658Q139.518 121.841 138.844 120.322Q138.174 118.798 138.174 116.733Q138.174 114.674 138.844 113.15Q139.518 111.626 140.719 110.813Q141.919 110 143.453 110Q144.986 110 146.186 110.813Q147.387 111.626 148.066 113.15Q148.749 114.674 148.749 116.733Q148.749 118.798 148.066 120.322Q147.387 121.841 146.186 122.658Q144.986 123.471 143.453 123.471ZM143.453 122.219Q144.607 122.219 145.484 121.578Q146.366 120.936 146.856 119.707Q147.35 118.474 147.35 116.733Q147.35 114.997 146.856 113.769Q146.366 112.536 145.484 111.894Q144.607 111.252 143.453 111.252Q142.298 111.252 141.416 111.894Q140.539 112.536 140.045 113.769Q139.555 114.997 139.555 116.733Q139.555 118.474 140.045 119.707Q140.539 120.936 141.416 121.578Q142.298 122.219 143.453 122.219Z" fill="#000000" fill-opacity="1.000000" fill-rule="evenodd"/>
	<path id="100" d="M122.496 0.115907L122.496 13.3555L121.133 13.3555L121.133 1.3258L118.012 1.3258L118.012 0.115907L122.496 0.115907ZM130.931 13.4709Q129.398 13.4709 128.197 12.6582Q126.996 11.8408 126.322 10.3215Q125.653 8.79759 125.653 6.73338Q125.653 4.67379 126.322 3.14988Q126.996 1.62596 128.197 0.813211Q129.398 0.000458717 130.931 0.000458717Q132.464 0.000458717 133.665 0.813211Q134.865 1.62596 135.544 3.14988Q136.228 4.67379 136.228 6.73338Q136.228 8.79759 135.544 10.3215Q134.865 11.8408 133.665 12.6582Q132.464 13.4709 130.931 13.4709ZM130.931 12.2195Q132.085 12.2195 132.963 11.5776Q133.845 10.9357 134.334 9.70732Q134.828 8.47433 134.828 6.73338Q134.828 4.99704 134.334 3.76868Q133.845 2.53569 132.963 1.8938Q132.085 1.25191 130.931 1.25191Q129.776 1.25191 128.894 1.8938Q128.017 2.53569 127.523 3.76868Q127.033 4.99704 127.033 6.73338Q127.033 8.47433 127.523 9.70732Q128.017 10.9357 128.894 11.5776Q129.776 12.2195 130.931 12.2195ZM143.453 13.4709Q141.919 13.4709 140.719 12.6582Q139.518 11.8408 138.844 10.3215Q138.174 8.79759 138.174 6.73338Q138.174 4.67379 138.844 3.14988Q139.518 1.62596 140.719 0.813211Q141.919 0.000458717 143.453 0.000458717Q144.986 0.000458717 146.186 0.813211Q147.387 1.62596 148.066 3.14988Q148.749 4.67379 148.749 6.73338Q148.749 8.79759 148.066 10.3215Q147.387 11.8408 146.186 12.6582Q144.986 13.4709 143.453 13.4709ZM143.453 12.2195Q144.607 12.2195 145.484 11.5776Q146.366 10.9357 146.856 9.70732Q147.35 8.47433 147.35 6.73338Q147.35 4.99704 146.856 3.76868Q146.366 2.53569 145.484 1.8938Q144.607 1.25191 143.453 1.25191Q142.298 1.25191 141.416 1.8938Q140.539 2.53569 140.045 3.76868Q139.555 4.99704 139.555 6.73338Q139.555 8.47433 140.045 9.70732Q140.539 10.9357 141.416 11.5776Q142.298 12.2195 143.453 12.2195Z" fill="#000000" fill-opacity="1.000000" fill-rule="evenodd"/>
	<path id="image 9 (Traced)" d="M502.281 595.09C500.979 595.568 499.984 597.186 500.194 598.482C500.422 599.887 500.787 600.305 509.109 608.686C520.054 619.711 520.054 617.053 509.109 628.076C503.013 634.217 500.895 636.447 500.631 637.004C499.111 640.221 501.921 642.916 505.129 641.32C506.304 640.734 525.772 621.203 526.329 620.051C527.573 617.473 527.733 617.689 515.869 605.809C504.316 594.24 504.404 594.309 502.281 595.09ZM522.241 595.584C520.808 596.443 520.322 598.262 521.091 599.887C521.373 600.482 523.301 602.518 529.504 608.766C540.355 619.697 540.367 617.057 529.424 628.076C523.329 634.217 521.21 636.447 520.947 637.004C519.427 640.221 522.238 642.918 525.444 641.318C526.657 640.715 545.956 621.365 546.563 620.143C547.89 617.475 548 617.629 536.349 605.961C524.691 594.287 524.561 594.191 522.241 595.584Z" fill="url(#paint_linear_69_441_0)" fill-opacity="1.000000" fill-rule="evenodd"/>
	<path id="image 9 (Traced)" d="M848.281 595.09C846.979 595.568 845.984 597.186 846.194 598.482C846.422 599.887 846.787 600.305 855.109 608.686C866.054 619.711 866.054 617.053 855.109 628.076C849.013 634.217 846.895 636.447 846.631 637.004C845.111 640.221 847.921 642.916 851.129 641.32C852.304 640.734 871.772 621.203 872.329 620.051C873.573 617.473 873.733 617.689 861.869 605.809C850.316 594.24 850.404 594.309 848.281 595.09ZM868.241 595.584C866.808 596.443 866.322 598.262 867.091 599.887C867.373 600.482 869.301 602.518 875.504 608.766C886.355 619.697 886.367 617.057 875.424 628.076C869.329 634.217 867.21 636.447 866.947 637.004C865.427 640.221 868.238 642.918 871.444 641.318C872.657 640.715 891.956 621.365 892.563 620.143C893.89 617.475 894 617.629 882.349 605.961C870.691 594.287 870.561 594.191 868.241 595.584Z" fill="url(#paint_linear_69_442_0)" fill-opacity="1.000000" fill-rule="evenodd"/>
	<path id="Частка пацієнтів з нормалізацією аускультативної картини" d="M48.3354 554.83Q48.3354 551.08 50.1226 549.073Q51.9023 547.059 55.5059 547.059L64.7124 547.059L64.7124 551.439L62.7056 551.439Q64.9541 552.765 64.9541 556.361Q64.9541 558.221 64.3242 559.591Q63.6943 560.953 62.5884 561.671Q61.4751 562.389 60.0615 562.389Q57.813 562.389 56.5239 560.697Q55.2349 559.005 55.2349 555.46L55.2349 551.739Q53.7041 551.739 52.8765 552.669Q52.0488 553.6 52.0488 555.46Q52.0488 556.749 52.459 557.994Q52.8618 559.239 53.5503 560.111L50.2837 561.795Q49.3535 560.47 48.8481 558.624Q48.3354 556.778 48.3354 554.83ZM61.8047 555.189Q61.8047 553.995 61.248 553.065Q60.6914 552.135 59.6147 551.739L57.9595 551.739L57.9595 554.955Q57.9595 557.833 59.8491 557.833Q60.75 557.833 61.2773 557.13Q61.8047 556.419 61.8047 555.189ZM48.5698 526.815L65.7012 534.103Q68.4917 535.216 69.627 536.849Q70.7695 538.483 70.7695 540.797Q70.7695 542.057 70.3813 543.287Q69.9932 544.51 69.3047 545.294L65.9722 543.58Q66.4556 543.046 66.7192 542.342Q66.9902 541.632 66.9902 540.943Q66.9902 539.984 66.5215 539.383Q66.0601 538.783 64.9834 538.307L64.8296 538.241L48.5698 545.235L48.5698 540.401L59.5195 535.875L48.5698 531.312L48.5698 526.815ZM64.9541 517.334Q64.9541 519.912 63.8921 521.97Q62.8228 524.028 60.9331 525.185Q59.0435 526.335 56.6411 526.335Q54.2388 526.335 52.3491 525.185Q50.4595 524.028 49.3975 521.97Q48.3354 519.912 48.3354 517.334Q48.3354 514.785 49.3975 512.881Q50.4595 510.976 52.4443 510.105L54.3926 513.738Q52.1733 514.997 52.1733 517.363Q52.1733 519.194 53.3745 520.395Q54.5757 521.596 56.6411 521.596Q58.7139 521.596 59.915 520.395Q61.1089 519.194 61.1089 517.363Q61.1089 514.968 58.8896 513.738L60.8745 510.105Q62.7935 510.976 63.8774 512.881Q64.9541 514.785 64.9541 517.334ZM58.5894 500.145L58.5894 502.577L64.7124 502.577L64.7124 507.257L48.5698 507.257L48.5698 502.577L54.8394 502.577L54.8394 500.057L48.5698 495.677L48.5698 490.697L56.3115 496.337L64.7124 490.309L64.7124 495.824L58.5894 500.145ZM48.5698 472.725L65.7012 480.013Q68.4917 481.126 69.627 482.759Q70.7695 484.393 70.7695 486.707Q70.7695 487.967 70.3813 489.197Q69.9932 490.42 69.3047 491.204L65.9722 489.49Q66.4556 488.956 66.7192 488.252Q66.9902 487.542 66.9902 486.853Q66.9902 485.894 66.5215 485.293Q66.0601 484.693 64.9834 484.217L64.8296 484.151L48.5698 491.145L48.5698 486.311L59.5195 481.785L48.5698 477.222L48.5698 472.725ZM48.5698 456.134L64.7124 456.134L64.7124 460.814L52.415 460.814L52.415 465.919L55.2642 466.065Q58.4429 466.182 60.5449 466.666Q62.6396 467.142 63.8408 468.226Q65.042 469.302 65.042 471.229Q65.042 472.247 64.6831 473.653L60.8452 473.419Q60.9038 472.935 60.9038 472.723Q60.9038 471.676 60.1421 471.156Q59.373 470.628 58.1865 470.445Q57 470.262 55.0518 470.174L48.5698 469.932L48.5698 456.134ZM53.7334 442.906Q53.7627 439.757 55.1616 438.08Q56.5532 436.395 59.102 436.395Q61.7754 436.395 63.2622 438.27Q64.7417 440.145 64.7417 443.536L64.7124 451.637L48.5698 451.637L48.5698 446.986L53.7334 446.986L53.7334 442.906ZM61.4092 443.954Q61.4458 442.606 60.8452 441.888Q60.2446 441.163 59.0434 441.163Q57.8716 441.163 57.3369 441.874Q56.7949 442.577 56.7656 443.954L56.729 446.986L61.4092 446.986L61.4092 443.954ZM52.415 421.392L52.415 426.856L64.7124 426.856L64.7124 431.507L52.415 431.507L52.415 436.964L48.5698 436.964L48.5698 421.392L52.415 421.392ZM48.3354 412.63Q48.3354 408.88 50.1226 406.873Q51.9023 404.859 55.5059 404.859L64.7124 404.859L64.7124 409.239L62.7056 409.239Q64.9541 410.565 64.9541 414.161Q64.9541 416.021 64.3242 417.391Q63.6943 418.753 62.5884 419.471Q61.4751 420.189 60.0615 420.189Q57.813 420.189 56.5239 418.497Q55.2349 416.805 55.2349 413.26L55.2349 409.539Q53.7041 409.539 52.8765 410.469Q52.0488 411.4 52.0488 413.26Q52.0488 414.549 52.459 415.794Q52.8618 417.039 53.5503 417.911L50.2837 419.595Q49.3535 418.27 48.8481 416.424Q48.3354 414.578 48.3354 412.63ZM61.8047 412.989Q61.8047 411.795 61.248 410.865Q60.6914 409.935 59.6147 409.539L57.9595 409.539L57.9595 412.755Q57.9595 415.633 59.8491 415.633Q60.75 415.633 61.2773 414.93Q61.8047 414.219 61.8047 412.989ZM52.415 387.222L52.415 392.686L64.7124 392.686L64.7124 397.337L52.415 397.337L52.415 402.794L48.5698 402.794L48.5698 387.222L52.415 387.222ZM48.5698 384.737L48.5698 380.086L58.1719 380.086L48.5698 372.227L48.5698 367.935L64.7124 367.935L64.7124 372.586L55.1103 372.586L64.7124 380.416L64.7124 384.737L48.5698 384.737ZM56.2822 351.103Q57.2417 348.254 60.1201 348.254Q62.3101 348.254 63.5112 349.909Q64.7124 351.557 64.7124 354.824L64.7124 363.437L48.5698 363.437L48.5698 355.183Q48.5698 352.158 49.6684 350.451Q50.7598 348.737 52.7446 348.737Q53.9458 348.737 54.8613 349.352Q55.7695 349.968 56.2822 351.103ZM55.2056 359.145L55.2056 355.607Q55.2056 353.146 53.4624 353.146Q51.7559 353.146 51.7559 355.607L51.7559 359.145L55.2056 359.145ZM61.5337 355.212Q61.5337 352.634 59.7612 352.634Q58.831 352.634 58.3989 353.234Q57.9595 353.835 57.9595 355.124L57.9595 359.145L61.5337 359.145L61.5337 355.212ZM48.5698 344.777L48.5698 340.126L54.876 340.126L54.876 333.102L48.5698 333.102L48.5698 328.422L64.7124 328.422L64.7124 333.102L58.6846 333.102L58.6846 340.126L64.7124 340.126L64.7124 344.777L48.5698 344.777ZM64.9541 316.398Q64.9541 318.947 63.8921 320.976Q62.8227 322.997 60.9331 324.14Q59.0434 325.275 56.6411 325.275Q54.2388 325.275 52.3491 324.14Q50.4595 322.997 49.3974 320.976Q48.3354 318.947 48.3354 316.398Q48.3354 313.842 49.3974 311.835Q50.4595 309.821 52.3491 308.686Q54.2388 307.543 56.6411 307.543Q59.0434 307.543 60.9331 308.686Q62.8227 309.821 63.8921 311.835Q64.9541 313.842 64.9541 316.398ZM61.1089 316.398Q61.1089 314.597 59.9004 313.439Q58.6846 312.282 56.6411 312.282Q54.605 312.282 53.3891 313.439Q52.1733 314.597 52.1733 316.398Q52.1733 318.193 53.3891 319.365Q54.605 320.537 56.6411 320.537Q58.6846 320.537 59.9004 319.365Q61.1089 318.193 61.1089 316.398ZM48.5698 304.425L48.5698 299.745L64.7124 299.745L64.7124 304.425L48.5698 304.425ZM46.3213 304.549Q46.3213 305.384 45.7573 305.941Q45.186 306.498 44.2851 306.498Q43.3843 306.498 42.813 305.941Q42.2417 305.384 42.2417 304.549Q42.2417 303.707 42.813 303.136Q43.3843 302.564 44.2851 302.564Q45.186 302.564 45.7573 303.136Q46.3213 303.707 46.3213 304.549ZM46.3213 299.627Q46.3213 300.47 45.7573 301.041Q45.186 301.605 44.2851 301.605Q43.3843 301.605 42.813 301.041Q42.2417 300.47 42.2417 299.627Q42.2417 298.785 42.813 298.236Q43.3843 297.679 44.2851 297.679Q45.186 297.679 45.7573 298.236Q46.3213 298.785 46.3213 299.627ZM58.5893 279.705L58.5893 282.137L64.7124 282.137L64.7124 286.817L48.5698 286.817L48.5698 282.137L54.8393 282.137L54.8393 279.617L48.5698 275.237L48.5698 270.257L56.3115 275.897L64.7124 269.869L64.7124 275.384L58.5893 279.705ZM48.3354 261.58Q48.3354 257.83 50.1225 255.823Q51.9023 253.809 55.5058 253.809L64.7124 253.809L64.7124 258.189L62.7056 258.189Q64.9541 259.515 64.9541 263.111Q64.9541 264.971 64.3242 266.341Q63.6943 267.703 62.5884 268.421Q61.4751 269.139 60.0615 269.139Q57.813 269.139 56.5239 267.447Q55.2348 265.755 55.2348 262.21L55.2348 258.489Q53.7041 258.489 52.8765 259.419Q52.0488 260.35 52.0488 262.21Q52.0488 263.499 52.459 264.744Q52.8618 265.989 53.5503 266.861L50.2837 268.545Q49.3535 267.22 48.8481 265.374Q48.3354 263.528 48.3354 261.58ZM61.8047 261.939Q61.8047 260.745 61.248 259.815Q60.6914 258.885 59.6147 258.489L57.9595 258.489L57.9595 261.705Q57.9595 264.583 59.8491 264.583Q60.75 264.583 61.2773 263.88Q61.8047 263.169 61.8047 261.939ZM48.3354 240.23Q48.3354 237.974 49.3681 236.136Q50.4009 234.29 52.2759 233.243Q54.1509 232.188 56.6411 232.188Q59.1313 232.188 61.0063 233.243Q62.8813 234.29 63.9214 236.136Q64.9541 237.974 64.9541 240.23Q64.9541 243.314 63.0058 245.086L70.5351 245.086L70.5351 249.766L48.5698 249.766L48.5698 245.298L50.4302 245.298Q48.3354 243.555 48.3354 240.23ZM61.1089 241.036Q61.1089 239.234 59.9004 238.084Q58.6846 236.927 56.6411 236.927Q54.605 236.927 53.3891 238.084Q52.1733 239.234 52.1733 241.036Q52.1733 242.838 53.3891 243.995Q54.605 245.145 56.6411 245.145Q58.6846 245.145 59.9004 243.995Q61.1089 242.838 61.1089 241.036ZM52.415 215.953L52.415 221.416L64.7124 221.416L64.7124 226.067L52.415 226.067L52.415 231.524L48.5698 231.524L48.5698 215.953L52.415 215.953ZM48.5698 213.467L48.5698 208.816L58.1719 208.816L48.5698 200.957L48.5698 196.665L64.7124 196.665L64.7124 201.316L55.1103 201.316L64.7124 209.146L64.7124 213.467L48.5698 213.467ZM48.5698 192.167L48.5698 187.516L54.876 187.516L54.876 180.492L48.5698 180.492L48.5698 175.812L64.7124 175.812L64.7124 180.492L58.6846 180.492L58.6846 187.516L64.7124 187.516L64.7124 192.167L48.5698 192.167ZM48.5698 171.347L48.5698 166.696L58.1719 166.696L48.5698 158.837L48.5698 154.545L64.7124 154.545L64.7124 159.196L55.1103 159.196L64.7124 167.026L64.7124 171.347L48.5698 171.347Z" fill="#E10920" fill-opacity="1.000000" fill-rule="evenodd"/>
	<path id="Частка пацієнтів з нормалізацією аускультативної картини" d="M1.71387 544.547L22.7124 544.547L22.7124 547.513L14.3994 547.513Q15.6958 550.846 15.6958 553.666Q15.6958 557.503 13.8354 559.62Q11.9751 561.737 8.52539 561.737L1.71387 561.737L1.71387 558.792L8.1958 558.792Q10.5322 558.792 11.792 557.372Q13.0518 555.943 13.0518 553.336Q13.0518 550.428 11.7334 547.513L1.71387 547.513L1.71387 544.547ZM6.66504 532.816Q6.66504 529.513 8.28369 527.762Q9.90234 526.004 13.1103 526.004L22.7124 526.004L22.7124 528.736L20.6103 528.736Q21.7236 529.454 22.3096 530.794Q22.8955 532.128 22.8955 533.951Q22.8955 536.625 21.6064 538.229Q20.3101 539.833 18.2153 539.833Q16.1133 539.833 14.8389 538.302Q13.5645 536.771 13.5645 533.446L13.5645 528.883L12.9932 528.883Q11.1328 528.883 10.144 529.967Q9.15527 531.044 9.15527 533.146Q9.15527 534.552 9.62402 535.907Q10.0854 537.254 10.8618 538.185L8.70117 539.386Q7.7124 538.155 7.19238 536.449Q6.66504 534.735 6.66504 532.816ZM20.6689 533.475Q20.6689 531.827 19.9365 530.626Q19.2041 529.425 17.8491 528.883L15.6299 528.883L15.6299 533.321Q15.6299 536.983 18.0908 536.983Q19.292 536.983 19.9805 536.053Q20.6689 535.123 20.6689 533.475ZM22.8955 513.886Q22.8955 516.318 21.8481 518.222Q20.7935 520.126 18.9478 521.21Q17.102 522.287 14.7656 522.287Q12.4219 522.287 10.5762 521.21Q8.73047 520.126 7.69775 518.222Q6.66504 516.318 6.66504 513.886Q6.66504 511.726 7.53662 510.034Q8.40088 508.334 10.0488 507.404L11.4624 509.594Q10.3198 510.349 9.75586 511.462Q9.18457 512.568 9.18457 513.916Q9.18457 515.476 9.87304 516.721Q10.5615 517.966 11.8359 518.676Q13.1103 519.379 14.7656 519.379Q16.4429 519.379 17.7173 518.676Q18.9917 517.966 19.6875 516.721Q20.376 515.476 20.376 513.916Q20.376 512.568 19.8047 511.462Q19.2334 510.349 18.0908 509.594L19.4751 507.404Q21.123 508.334 22.0093 510.034Q22.8955 511.726 22.8955 513.886ZM9.33105 492.044L9.33105 497.867L22.7124 497.867L22.7124 500.746L9.33105 500.746L9.33105 506.568L6.81152 506.568L6.81152 492.044L9.33105 492.044ZM15.9888 482.923L15.9888 486.227L22.7124 486.227L22.7124 489.105L6.81152 489.105L6.81152 486.227L13.5352 486.227L13.5352 482.865L6.81152 477.708L6.81152 474.618L14.4653 480.645L22.7124 474.193L22.7124 477.584L15.9888 482.923ZM6.66504 465.796Q6.66503 462.493 8.28369 460.742Q9.90234 458.984 13.1103 458.984L22.7124 458.984L22.7124 461.716L20.6103 461.716Q21.7236 462.434 22.3096 463.775Q22.8955 465.108 22.8955 466.931Q22.8955 469.605 21.6064 471.209Q20.3101 472.813 18.2153 472.813Q16.1133 472.813 14.8389 471.282Q13.5644 469.751 13.5644 466.426L13.5644 461.863L12.9932 461.863Q11.1328 461.863 10.144 462.947Q9.15527 464.024 9.15527 466.126Q9.15527 467.532 9.62402 468.887Q10.0854 470.234 10.8618 471.165L8.70117 472.366Q7.7124 471.135 7.19238 469.429Q6.66504 467.715 6.66504 465.796ZM20.6689 466.455Q20.6689 464.807 19.9365 463.606Q19.2041 462.405 17.8491 461.863L15.6299 461.863L15.6299 466.301Q15.6299 469.963 18.0908 469.963Q19.292 469.963 19.9805 469.033Q20.6689 468.103 20.6689 466.455ZM6.81152 430.996L22.7124 430.996L22.7124 433.874L9.33105 433.874L9.33105 442.847L22.7124 442.847L22.7124 445.725L6.81152 445.725L6.81152 430.996ZM6.66503 419.746Q6.66503 416.443 8.28369 414.692Q9.90234 412.934 13.1103 412.934L22.7124 412.934L22.7124 415.666L20.6103 415.666Q21.7236 416.384 22.3096 417.725Q22.8955 419.058 22.8955 420.881Q22.8955 423.555 21.6064 425.159Q20.3101 426.763 18.2153 426.763Q16.1133 426.763 14.8389 425.232Q13.5644 423.701 13.5644 420.376L13.5644 415.813L12.9932 415.813Q11.1328 415.813 10.144 416.897Q9.15527 417.974 9.15527 420.076Q9.15527 421.482 9.62402 422.837Q10.0854 424.184 10.8618 425.115L8.70117 426.316Q7.7124 425.085 7.19238 423.379Q6.66503 421.665 6.66503 419.746ZM20.6689 420.405Q20.6689 418.757 19.9365 417.556Q19.2041 416.355 17.8491 415.813L15.6299 415.813L15.6299 420.251Q15.6299 423.913 18.0908 423.913Q19.292 423.913 19.9805 422.983Q20.6689 422.053 20.6689 420.405ZM20.1929 390.767L26.521 390.767L26.521 393.492L22.7124 393.492L22.7124 407.745L6.81152 407.745L6.81152 404.867L20.1929 404.867L20.1929 396.165L6.81152 396.165L6.81152 393.287L20.1929 393.287L20.1929 390.767ZM6.81152 387.045L6.81152 384.167L22.7124 384.167L22.7124 387.045L6.81152 387.045ZM3.74999 385.609Q3.74999 386.444 3.21532 387.001Q2.67333 387.558 1.88964 387.558Q1.11327 387.558 0.556633 387.001Q-7.62939e-06 386.444 -7.62939e-06 385.609Q-7.62939e-06 384.767 0.527336 384.218Q1.05468 383.661 1.83105 383.661Q2.64404 383.661 3.20068 384.218Q3.74999 384.767 3.74999 385.609ZM22.8882 371.45Q22.8882 373.875 21.8408 375.845Q20.7934 377.808 18.9331 378.921Q17.0727 380.027 14.7583 380.027Q12.4219 380.027 10.5615 378.921Q8.70116 377.808 7.6538 375.845Q6.59911 373.875 6.59911 371.45Q6.59911 369.348 7.26562 367.656Q7.9248 365.957 9.18456 364.785L10.8618 366.47Q8.97216 368.389 8.97216 371.326Q8.97216 373.67 10.3052 375.318Q11.6382 376.966 13.7988 377.295L13.7988 369.319L15.9302 369.319L15.9302 377.237Q18.0029 376.848 19.2773 375.23Q20.5518 373.611 20.5518 371.326Q20.5518 368.418 18.6328 366.47L20.2808 364.785Q21.5698 365.957 22.229 367.671Q22.8882 369.378 22.8882 371.45ZM6.81151 361.245L6.81151 358.367L13.5644 358.367L13.5644 349.306L6.81151 349.306L6.81151 346.428L22.7124 346.428L22.7124 349.306L16.0547 349.306L16.0547 358.367L22.7124 358.367L22.7124 361.245L6.81151 361.245ZM9.33105 328.964L9.33105 334.787L22.7124 334.787L22.7124 337.666L9.33105 337.666L9.33105 343.488L6.81151 343.488L6.81151 328.964L9.33105 328.964ZM6.81151 326.025L6.81151 323.147L22.7124 323.147L22.7124 326.025L6.81151 326.025ZM3.74999 324.589Q3.74999 325.424 3.21532 325.981Q2.67333 326.538 1.88964 326.538Q1.11327 326.538 0.55663 325.981Q-1.04904e-05 325.424 -1.04904e-05 324.589Q-1.04904e-05 323.747 0.527333 323.198Q1.05468 322.641 1.83104 322.641Q2.64403 322.641 3.20067 323.198Q3.74999 323.747 3.74999 324.589ZM14.4653 306.702Q15.2417 303.619 18.3325 303.619Q20.4346 303.619 21.5771 305.194Q22.7124 306.768 22.7124 309.888L22.7124 317.535L6.81151 317.535L6.81151 310.152Q6.81151 307.332 7.88085 305.743Q8.94286 304.154 10.8911 304.154Q12.1509 304.154 13.0664 304.835Q13.9819 305.509 14.4653 306.702ZM13.6523 314.715L13.6523 310.394Q13.6523 308.746 13.0517 307.889Q12.4512 307.032 11.3159 307.032Q9.03075 307.032 9.03075 310.394L9.03075 314.715L13.6523 314.715ZM20.4932 310.094Q20.4932 308.299 19.9219 307.398Q19.3506 306.497 18.1494 306.497Q16.9189 306.497 16.3257 307.325Q15.7251 308.145 15.7251 309.918L15.7251 314.715L20.4932 314.715L20.4932 310.094ZM14.436 282.439Q14.8535 280.842 15.7837 279.978Q16.7139 279.106 18.0908 279.106Q19.5044 279.106 20.603 280.066Q21.6943 281.025 22.3096 282.725Q22.9248 284.417 22.9248 286.519Q22.9248 288.284 22.4634 289.983Q21.9946 291.675 21.123 292.993L18.9331 292.129Q19.6509 290.986 20.061 289.514Q20.4639 288.042 20.4639 286.548Q20.4639 284.504 19.7607 283.289Q19.0503 282.073 17.8491 282.073Q16.7432 282.073 16.1426 283.054Q15.542 284.028 15.542 285.793L15.542 288.708L13.4692 288.708L13.4692 286.006Q13.4692 284.387 12.9053 283.457Q12.334 282.527 11.3452 282.527Q10.2612 282.527 9.66063 283.625Q9.06005 284.717 9.06005 286.577Q9.06005 288.943 10.2905 291.587L8.07128 292.363Q6.59911 289.456 6.59911 286.277Q6.59911 284.358 7.1411 282.827Q7.68309 281.296 8.67186 280.425Q9.66063 279.553 10.9204 279.553Q12.0923 279.553 13.0224 280.337Q13.9526 281.113 14.436 282.439ZM6.81151 266.655L6.81151 263.776L13.5644 263.776L13.5644 254.716L6.81151 254.716L6.81151 251.838L22.7124 251.838L22.7124 254.716L16.0547 254.716L16.0547 263.776L22.7124 263.776L22.7124 266.655L6.81151 266.655ZM22.8955 239.413Q22.8955 241.786 21.8481 243.676Q20.7934 245.566 18.9477 246.635Q17.102 247.697 14.7656 247.697Q12.4219 247.697 10.5762 246.635Q8.73046 245.566 7.69774 243.676Q6.66502 241.786 6.66502 239.413Q6.66502 237.048 7.69774 235.173Q8.73045 233.298 10.5762 232.236Q12.4219 231.166 14.7656 231.166Q17.102 231.166 18.9477 232.236Q20.7934 233.298 21.8481 235.173Q22.8955 237.048 22.8955 239.413ZM20.376 239.413Q20.376 237.89 19.6728 236.674Q18.9624 235.458 17.688 234.77Q16.4136 234.074 14.7656 234.074Q13.1103 234.074 11.8359 234.77Q10.5615 235.458 9.87303 236.674Q9.18456 237.89 9.18456 239.413Q9.18456 240.944 9.87303 242.16Q10.5615 243.376 11.8359 244.086Q13.1103 244.789 14.7656 244.789Q16.4136 244.789 17.688 244.086Q18.9624 243.376 19.6728 242.16Q20.376 240.944 20.376 239.413ZM6.66502 218.565Q6.66502 216.258 7.68309 214.427Q8.70116 212.595 10.5322 211.563Q12.3633 210.53 14.7656 210.53Q17.1606 210.53 19.0063 211.563Q20.852 212.595 21.8774 214.427Q22.8955 216.258 22.8955 218.565Q22.8955 220.279 22.2363 221.707Q21.5698 223.128 20.31 224.116L28.5351 224.116L28.5351 226.995L6.81151 226.995L6.81151 224.234L9.33104 224.234Q8.01268 223.274 7.33885 221.809Q6.66502 220.337 6.66502 218.565ZM20.376 218.806Q20.376 217.276 19.6728 216.06Q18.9624 214.844 17.688 214.141Q16.4136 213.438 14.7656 213.438Q13.1103 213.438 11.8359 214.141Q10.5615 214.844 9.87303 216.06Q9.18456 217.276 9.18456 218.806Q9.18456 220.308 9.88768 221.524Q10.5908 222.74 11.8506 223.443Q13.1103 224.146 14.7656 224.146Q16.4136 224.146 17.688 223.457Q18.9624 222.769 19.6728 221.538Q20.376 220.308 20.376 218.806ZM6.81151 188.022L22.7124 188.022L22.7124 190.637L11.1035 190.637L20.9106 196.577L20.9106 197.837L11.0742 203.718L22.7124 203.718L22.7124 206.355L6.81151 206.355L6.81151 203.389L17.5488 197.148L6.81151 190.725L6.81151 188.022ZM6.66502 176.746Q6.66502 173.443 8.28367 171.692Q9.90233 169.934 13.1103 169.934L22.7124 169.934L22.7124 172.666L20.6103 172.666Q21.7236 173.384 22.3096 174.724Q22.8955 176.057 22.8955 177.881Q22.8955 180.555 21.6064 182.159Q20.31 183.763 18.2153 183.763Q16.1133 183.763 14.8389 182.232Q13.5644 180.701 13.5644 177.376L13.5644 172.813L12.9931 172.813Q11.1328 172.813 10.144 173.897Q9.15526 174.974 9.15526 177.076Q9.15526 178.482 9.62401 179.837Q10.0854 181.184 10.8618 182.115L8.70115 183.316Q7.71239 182.085 7.19237 180.379Q6.66502 178.665 6.66502 176.746ZM20.6689 177.405Q20.6689 175.757 19.9365 174.556Q19.2041 173.355 17.8491 172.813L15.6299 172.813L15.6299 177.251Q15.6299 180.913 18.0908 180.913Q19.292 180.913 19.9805 179.983Q20.6689 179.053 20.6689 177.405ZM6.81151 151.093L22.7124 151.093L22.7124 153.978L9.33104 153.978L9.33104 160.812L12.876 160.995Q16.084 161.149 18.23 161.566Q20.376 161.984 21.665 162.943Q22.9541 163.903 22.9541 165.616Q22.9541 166.393 22.6831 167.389L20.2514 167.206Q20.3393 166.818 20.3393 166.488Q20.3393 165.287 19.292 164.686Q18.2446 164.086 16.8017 163.91Q15.3589 163.727 12.6929 163.573L6.81151 163.302L6.81151 151.093ZM6.8115 145.515L6.8115 142.636L22.7124 142.636L22.7124 145.515L6.8115 145.515ZM3.74998 144.079Q3.74998 144.914 3.21531 145.471Q2.67332 146.028 1.88963 146.028Q1.11326 146.028 0.556623 145.471Q-1.81198e-05 144.914 -1.81198e-05 144.079Q-1.81198e-05 143.237 0.527326 142.688Q1.05467 142.131 1.83104 142.131Q2.64402 142.131 3.20067 142.688Q3.74998 143.237 3.74998 144.079ZM14.436 128.689Q14.8535 127.092 15.7837 126.228Q16.7138 125.356 18.0908 125.356Q19.5044 125.356 20.603 126.316Q21.6943 127.275 22.3096 128.975Q22.9248 130.666 22.9248 132.769Q22.9248 134.534 22.4634 136.233Q21.9946 137.925 21.123 139.243L18.9331 138.379Q19.6509 137.236 20.061 135.764Q20.4638 134.292 20.4638 132.798Q20.4638 130.754 19.7607 129.539Q19.0503 128.323 17.8491 128.323Q16.7431 128.323 16.1426 129.304Q15.542 130.278 15.542 132.043L15.542 134.958L13.4692 134.958L13.4692 132.256Q13.4692 130.637 12.9053 129.707Q12.334 128.777 11.3452 128.777Q10.2612 128.777 9.66063 129.875Q9.06004 130.967 9.06004 132.827Q9.06004 135.193 10.2905 137.837L8.07127 138.613Q6.5991 135.706 6.5991 132.527Q6.5991 130.608 7.14109 129.077Q7.68309 127.546 8.67186 126.675Q9.66063 125.803 10.9204 125.803Q12.0923 125.803 13.0224 126.587Q13.9526 127.363 14.436 128.689ZM6.66502 115.306Q6.66502 112.003 8.28367 110.252Q9.90232 108.494 13.1103 108.494L22.7124 108.494L22.7124 111.226L20.6103 111.226Q21.7236 111.944 22.3096 113.284Q22.8955 114.617 22.8955 116.441Q22.8955 119.115 21.6064 120.719Q20.31 122.323 18.2153 122.323Q16.1133 122.323 14.8388 120.792Q13.5644 119.261 13.5644 115.936L13.5644 111.373L12.9931 111.373Q11.1328 111.373 10.144 112.457Q9.15525 113.533 9.15525 115.636Q9.15525 117.042 9.624 118.397Q10.0854 119.744 10.8618 120.675L8.70115 121.876Q7.71238 120.645 7.19236 118.939Q6.66502 117.225 6.66502 115.306ZM20.6689 115.965Q20.6689 114.317 19.9365 113.116Q19.2041 111.915 17.8491 111.373L15.6299 111.373L15.6299 115.811Q15.6299 119.473 18.0908 119.473Q19.292 119.473 19.9804 118.543Q20.6689 117.613 20.6689 115.965ZM20.1929 86.3273L26.521 86.3273L26.521 89.0519L22.7124 89.0519L22.7124 103.305L6.8115 103.305L6.8115 100.426L20.1929 100.426L20.1929 91.7253L6.8115 91.7253L6.8115 88.8469L20.1929 88.8469L20.1929 86.3273ZM6.8115 82.6049L6.8115 79.7264L22.7124 79.7264L22.7124 82.6049L6.8115 82.6049ZM3.74998 81.1693Q3.74998 82.0043 3.21531 82.5609Q2.67332 83.1176 1.88963 83.1176Q1.11326 83.1176 0.55662 82.5609Q-2.09808e-05 82.0043 -2.09808e-05 81.1693Q-2.09808e-05 80.327 0.527323 79.7777Q1.05467 79.2211 1.83103 79.2211Q2.64402 79.2211 3.20066 79.7777Q3.74998 80.327 3.74998 81.1693ZM22.8882 67.0104Q22.8882 69.4347 21.8408 71.4049Q20.7934 73.3678 18.9331 74.4811Q17.0727 75.587 14.7583 75.587Q12.4219 75.587 10.5615 74.4811Q8.70115 73.3678 7.65379 71.4049Q6.5991 69.4347 6.5991 67.0104Q6.5991 64.9083 7.2656 63.2164Q7.92478 61.5172 9.18455 60.3453L10.8618 62.0299Q8.97215 63.9489 8.97215 66.8859Q8.97215 69.2296 10.3052 70.8776Q11.6382 72.5255 13.7988 72.8551L13.7988 64.879L15.9302 64.879L15.9302 72.7965Q18.0029 72.4083 19.2773 70.7897Q20.5517 69.171 20.5517 66.8859Q20.5517 63.9781 18.6328 62.0299L20.2807 60.3453Q21.5698 61.5172 22.229 63.2311Q22.8882 64.9376 22.8882 67.0104ZM6.66502 42.735Q6.66502 40.4279 7.69773 38.5969Q8.73045 36.7658 10.5761 35.7184Q12.4219 34.6638 14.7656 34.6638Q17.102 34.6638 18.9477 35.7184Q20.7934 36.7658 21.8481 38.5969Q22.8955 40.4279 22.8955 42.735Q22.8955 44.8371 22.0239 46.551Q21.1523 48.2575 19.5776 49.3561Q18.0029 50.4474 15.9887 50.7184L15.9887 53.9265L22.7124 53.9265L22.7124 56.8049L6.8115 56.8049L6.8115 53.9265L13.3227 53.9265L13.3227 50.6818Q11.3452 50.3889 9.82908 49.2975Q8.31297 48.1989 7.49265 46.507Q6.66502 44.8078 6.66502 42.735ZM20.376 42.735Q20.376 41.2629 19.6875 40.0837Q18.9917 38.8972 17.7173 38.2087Q16.4428 37.5129 14.7656 37.5129Q13.1103 37.5129 11.8359 38.2087Q10.5615 38.8972 9.87302 40.0837Q9.18455 41.2629 9.18455 42.735Q9.18455 44.2072 9.87302 45.4084Q10.5615 46.6022 11.8359 47.2834Q13.1103 47.9572 14.7656 47.9572Q16.4428 47.9572 17.7173 47.2834Q18.9917 46.6022 19.6875 45.4084Q20.376 44.2072 20.376 42.735Z" fill="#000000" fill-opacity="1.000000" fill-rule="evenodd"/>
	<path id="Міжгрупова різниця, p&lt;0,01" d="M606.906 731.355L606.882 719.115L600.806 729.316L599.705 729.316L593.634 719.186L593.634 731.355L591.326 731.355L591.326 714.557L593.294 714.557L600.302 726.363L607.216 714.557L609.185 714.557L609.208 731.355L606.906 731.355ZM614.057 718.635L616.36 718.635L616.36 731.355L614.057 731.355L614.057 718.635ZM615.205 716.186Q614.537 716.186 614.092 715.758Q613.647 715.324 613.647 714.697Q613.647 714.076 614.092 713.631Q614.537 713.186 615.205 713.186Q615.879 713.186 616.319 713.607Q616.764 714.029 616.764 714.65Q616.764 715.301 616.319 715.746Q615.879 716.186 615.205 716.186ZM632.415 725.977L629.943 725.977L629.943 731.355L627.64 731.355L627.64 725.977L625.167 725.977L621.663 731.355L618.927 731.355L623.298 724.781L619.267 718.635L621.71 718.635L625.144 724.014L627.64 724.014L627.64 718.635L629.943 718.635L629.943 724.014L632.439 724.014L635.872 718.635L638.345 718.635L634.314 724.805L638.679 731.355L635.943 731.355L632.415 725.977ZM650.582 720.65L643.528 720.65L643.528 731.355L641.225 731.355L641.225 718.635L650.582 718.635L650.582 720.65ZM659.681 718.518Q661.527 718.518 662.992 719.332Q664.456 720.146 665.283 721.611Q666.109 723.076 666.109 724.998Q666.109 726.914 665.283 728.391Q664.456 729.867 662.992 730.688Q661.527 731.502 659.681 731.502Q658.31 731.502 657.167 730.975Q656.031 730.441 655.24 729.434L655.24 736.014L652.937 736.014L652.937 718.635L655.146 718.635L655.146 720.65Q655.913 719.596 657.085 719.057Q658.263 718.518 659.681 718.518ZM659.488 729.486Q660.712 729.486 661.685 728.924Q662.658 728.355 663.22 727.336Q663.783 726.316 663.783 724.998Q663.783 723.674 663.22 722.654Q662.658 721.635 661.685 721.084Q660.712 720.533 659.488 720.533Q658.286 720.533 657.314 721.096Q656.341 721.658 655.779 722.666Q655.216 723.674 655.216 724.998Q655.216 726.316 655.767 727.336Q656.318 728.355 657.302 728.924Q658.286 729.486 659.488 729.486ZM680.444 718.635L674.274 732.627Q673.46 734.572 672.364 735.363Q671.274 736.154 669.739 736.154Q668.802 736.154 667.923 735.855Q667.05 735.557 666.476 734.977L667.46 733.254Q668.444 734.186 669.739 734.186Q670.577 734.186 671.14 733.74Q671.708 733.301 672.165 732.217L672.569 731.332L666.956 718.635L669.352 718.635L673.794 728.812L678.188 718.635L680.444 718.635ZM694.576 718.635L694.576 731.355L692.273 731.355L692.273 720.65L685.096 720.65L685.096 731.355L682.793 731.355L682.793 718.635L694.576 718.635ZM704.49 731.502Q702.592 731.502 701.08 730.664Q699.568 729.82 698.713 728.344Q697.863 726.867 697.863 724.998Q697.863 723.123 698.713 721.646Q699.568 720.17 701.08 719.344Q702.592 718.518 704.49 718.518Q706.383 718.518 707.883 719.344Q709.383 720.17 710.232 721.646Q711.088 723.123 711.088 724.998Q711.088 726.867 710.232 728.344Q709.383 729.82 707.883 730.664Q706.383 731.502 704.49 731.502ZM704.49 729.486Q705.709 729.486 706.681 728.924Q707.654 728.355 708.205 727.336Q708.762 726.316 708.762 724.998Q708.762 723.674 708.205 722.654Q707.654 721.635 706.681 721.084Q705.709 720.533 704.49 720.533Q703.265 720.533 702.293 721.084Q701.32 721.635 700.752 722.654Q700.189 723.674 700.189 724.998Q700.189 726.316 700.752 727.336Q701.32 728.355 702.293 728.924Q703.265 729.486 704.49 729.486ZM723.091 724.758Q725.558 725.379 725.558 727.852Q725.558 729.533 724.298 730.447Q723.038 731.355 720.542 731.355L714.425 731.355L714.425 718.635L720.331 718.635Q722.587 718.635 723.858 719.49Q725.13 720.34 725.13 721.898Q725.13 722.906 724.585 723.639Q724.046 724.371 723.091 724.758ZM716.681 724.107L720.138 724.107Q721.456 724.107 722.142 723.627Q722.827 723.146 722.827 722.238Q722.827 720.41 720.138 720.41L716.681 720.41L716.681 724.107ZM720.378 729.58Q721.813 729.58 722.534 729.123Q723.255 728.666 723.255 727.705Q723.255 726.721 722.593 726.246Q721.937 725.766 720.519 725.766L716.681 725.766L716.681 729.58L720.378 729.58ZM733.696 718.518Q736.339 718.518 737.739 719.812Q739.145 721.107 739.145 723.674L739.145 731.355L736.96 731.355L736.96 729.674Q736.385 730.564 735.313 731.033Q734.247 731.502 732.788 731.502Q730.649 731.502 729.366 730.471Q728.083 729.434 728.083 727.758Q728.083 726.076 729.307 725.057Q730.532 724.037 733.192 724.037L736.842 724.037L736.842 723.58Q736.842 722.092 735.975 721.301Q735.114 720.51 733.432 720.51Q732.307 720.51 731.223 720.885Q730.145 721.254 729.401 721.875L728.44 720.146Q729.424 719.355 730.79 718.939Q732.161 718.518 733.696 718.518ZM733.169 729.721Q734.487 729.721 735.448 729.135Q736.409 728.549 736.842 727.465L736.842 725.689L733.292 725.689Q730.362 725.689 730.362 727.658Q730.362 728.619 731.106 729.17Q731.85 729.721 733.169 729.721ZM756.497 718.518Q758.343 718.518 759.807 719.332Q761.272 720.146 762.099 721.611Q762.925 723.076 762.925 724.998Q762.925 726.914 762.099 728.391Q761.272 729.867 759.807 730.688Q758.343 731.502 756.497 731.502Q755.126 731.502 753.983 730.975Q752.847 730.441 752.056 729.434L752.056 736.014L749.753 736.014L749.753 718.635L751.962 718.635L751.962 720.65Q752.729 719.596 753.901 719.057Q755.079 718.518 756.497 718.518ZM756.304 729.486Q757.528 729.486 758.501 728.924Q759.474 728.355 760.036 727.336Q760.599 726.316 760.599 724.998Q760.599 723.674 760.036 722.654Q759.474 721.635 758.501 721.084Q757.528 720.533 756.304 720.533Q755.102 720.533 754.13 721.096Q753.157 721.658 752.595 722.666Q752.032 723.674 752.032 724.998Q752.032 726.316 752.583 727.336Q753.134 728.355 754.118 728.924Q755.102 729.486 756.304 729.486ZM766.265 718.635L768.568 718.635L768.568 731.355L766.265 731.355L766.265 718.635ZM767.413 716.186Q766.745 716.186 766.3 715.758Q765.855 715.324 765.855 714.697Q765.855 714.076 766.3 713.631Q766.745 713.186 767.413 713.186Q768.087 713.186 768.527 713.607Q768.972 714.029 768.972 714.65Q768.972 715.301 768.527 715.746Q768.087 716.186 767.413 716.186ZM779.726 724.734Q781.003 725.068 781.694 725.812Q782.392 726.557 782.392 727.658Q782.392 728.789 781.624 729.668Q780.856 730.541 779.497 731.033Q778.144 731.525 776.462 731.525Q775.05 731.525 773.69 731.156Q772.337 730.781 771.282 730.084L771.974 728.332Q772.888 728.906 774.065 729.234Q775.243 729.557 776.438 729.557Q778.073 729.557 779.046 728.994Q780.019 728.426 780.019 727.465Q780.019 726.58 779.233 726.1Q778.454 725.619 777.042 725.619L774.71 725.619L774.71 723.961L776.872 723.961Q778.167 723.961 778.911 723.51Q779.655 723.053 779.655 722.262Q779.655 721.395 778.776 720.914Q777.903 720.434 776.415 720.434Q774.522 720.434 772.407 721.418L771.786 719.643Q774.112 718.465 776.655 718.465Q778.19 718.465 779.415 718.898Q780.64 719.332 781.337 720.123Q782.034 720.914 782.034 721.922Q782.034 722.859 781.407 723.604Q780.786 724.348 779.726 724.734ZM785.897 718.635L788.2 718.635L788.2 724.037L795.448 724.037L795.448 718.635L797.75 718.635L797.75 731.355L795.448 731.355L795.448 726.029L788.2 726.029L788.2 731.355L785.897 731.355L785.897 718.635ZM802.241 718.635L804.544 718.635L804.544 727.898L812.342 718.635L814.434 718.635L814.434 731.355L812.126 731.355L812.126 722.092L804.35 731.355L802.241 731.355L802.241 718.635ZM832.479 729.34L832.479 734.402L830.299 734.402L830.299 731.355L818.897 731.355L818.897 718.635L821.2 718.635L821.2 729.34L828.161 729.34L828.161 718.635L830.463 718.635L830.463 729.34L832.479 729.34ZM845.658 718.635L845.658 731.355L843.59 731.355L843.59 727.324L839.898 727.324L839.635 727.324L836.846 731.355L834.379 731.355L837.472 727.014Q836.031 726.58 835.263 725.584Q834.496 724.588 834.496 723.1Q834.496 720.914 835.984 719.777Q837.472 718.635 840.086 718.635L845.658 718.635ZM836.846 723.17Q836.846 724.441 837.648 725.057Q838.457 725.666 840.062 725.666L843.59 725.666L843.59 720.65L840.162 720.65Q836.846 720.65 836.846 723.17ZM850.672 728.209Q851.346 728.209 851.785 728.678Q852.231 729.146 852.231 729.844Q852.231 730.201 852.149 730.541Q852.067 730.875 851.826 731.572L850.696 734.906L849.184 734.906L850.075 731.332Q849.617 731.162 849.342 730.77Q849.067 730.371 849.067 729.844Q849.067 729.123 849.518 728.666Q849.975 728.209 850.672 728.209ZM868.746 718.518Q870.592 718.518 872.057 719.332Q873.521 720.146 874.348 721.611Q875.174 723.076 875.174 724.998Q875.174 726.914 874.348 728.391Q873.521 729.867 872.057 730.688Q870.592 731.502 868.746 731.502Q867.375 731.502 866.232 730.975Q865.096 730.441 864.305 729.434L864.305 736.014L862.002 736.014L862.002 718.635L864.211 718.635L864.211 720.65Q864.979 719.596 866.15 719.057Q867.328 718.518 868.746 718.518ZM868.553 729.486Q869.777 729.486 870.75 728.924Q871.723 728.355 872.285 727.336Q872.848 726.316 872.848 724.998Q872.848 723.674 872.285 722.654Q871.723 721.635 870.75 721.084Q869.777 720.533 868.553 720.533Q867.352 720.533 866.379 721.096Q865.406 721.658 864.844 722.666Q864.281 723.674 864.281 724.998Q864.281 726.316 864.832 727.336Q865.383 728.355 866.367 728.924Q867.352 729.486 868.553 729.486ZM888.542 719.666L880.022 722.953L888.542 726.246L888.542 728.238L877.79 723.99L877.79 721.922L888.542 717.674L888.542 719.666ZM898.168 731.549Q896.176 731.549 894.629 730.529Q893.082 729.51 892.191 727.564Q891.307 725.619 891.307 722.953Q891.307 720.293 892.191 718.348Q893.082 716.402 894.629 715.383Q896.176 714.363 898.168 714.363Q900.137 714.363 901.684 715.383Q903.231 716.402 904.115 718.348Q905.006 720.293 905.006 722.953Q905.006 725.619 904.115 727.564Q903.231 729.51 901.684 730.529Q900.137 731.549 898.168 731.549ZM898.168 729.41Q900.184 729.41 901.397 727.758Q902.609 726.1 902.609 722.953Q902.609 719.812 901.397 718.16Q900.184 716.502 898.168 716.502Q896.129 716.502 894.916 718.16Q893.703 719.812 893.703 722.953Q893.703 726.1 894.916 727.758Q896.129 729.41 898.168 729.41ZM908.632 728.209Q909.306 728.209 909.745 728.678Q910.191 729.146 910.191 729.844Q910.191 730.201 910.109 730.541Q910.027 730.875 909.786 731.572L908.656 734.906L907.144 734.906L908.035 731.332Q907.578 731.162 907.302 730.77Q907.027 730.371 907.027 729.844Q907.027 729.123 907.478 728.666Q907.935 728.209 908.632 728.209ZM919.048 731.549Q917.056 731.549 915.509 730.529Q913.962 729.51 913.071 727.564Q912.187 725.619 912.187 722.953Q912.187 720.293 913.071 718.348Q913.962 716.402 915.509 715.383Q917.056 714.363 919.048 714.363Q921.017 714.363 922.564 715.383Q924.111 716.402 924.995 718.348Q925.886 720.293 925.886 722.953Q925.886 725.619 924.995 727.564Q924.111 729.51 922.564 730.529Q921.017 731.549 919.048 731.549ZM919.048 729.41Q921.064 729.41 922.277 727.758Q923.489 726.1 923.489 722.953Q923.489 719.812 922.277 718.16Q921.064 716.502 919.048 716.502Q917.009 716.502 915.796 718.16Q914.583 719.812 914.583 722.953Q914.583 726.1 915.796 727.758Q917.009 729.41 919.048 729.41ZM933.326 714.557L933.326 731.355L930.953 731.355L930.953 716.643L927.162 716.643L927.162 714.557L933.326 714.557Z" fill="#000000" fill-opacity="1.000000" fill-rule="evenodd"/>
</svg>
