<svg width="1337.113770" height="566.187500" viewBox="0 0 1337.11 566.188" fill="none" xmlns="http://www.w3.org/2000/svg" >
	<desc>
			Created with Pixso.
	</desc>
	<defs>
		<linearGradient id="paint_linear_85_5872_0" x1="392.427246" y1="116.187500" x2="392.427246" y2="730.706726" gradientUnits="userSpaceOnUse">
			<stop stop-color="#BBBBBB"/>
			<stop offset="1.000000" stop-color="#BBBBBB" stop-opacity="0.000000"/>
		</linearGradient>
		<linearGradient id="paint_linear_85_5873_0" x1="783.427246" y1="90.187500" x2="783.427246" y2="746.206726" gradientUnits="userSpaceOnUse">
			<stop stop-color="#BBBBBB"/>
			<stop offset="1.000000" stop-color="#BBBBBB" stop-opacity="0.000000"/>
		</linearGradient>
		<linearGradient id="paint_linear_85_5874_0" x1="1174.427246" y1="54.187500" x2="1174.427246" y2="767.668274" gradientUnits="userSpaceOnUse">
			<stop stop-color="#BBBBBB"/>
			<stop offset="1.000000" stop-color="#BBBBBB" stop-opacity="0.000000"/>
		</linearGradient>
		<linearGradient id="paint_linear_85_5875_0" x1="263.427246" y1="227.187500" x2="263.427246" y2="501.187500" gradientUnits="userSpaceOnUse">
			<stop stop-color="#516ACF"/>
			<stop offset="1.000000" stop-color="#9FB2FF"/>
		</linearGradient>
		<linearGradient id="paint_linear_85_5876_0" x1="654.427246" y1="278.187500" x2="654.427246" y2="501.187500" gradientUnits="userSpaceOnUse">
			<stop stop-color="#516ACF"/>
			<stop offset="1.000000" stop-color="#9FB2FF"/>
		</linearGradient>
		<linearGradient id="paint_linear_85_5877_0" x1="1045.427246" y1="227.187500" x2="1045.427246" y2="501.187500" gradientUnits="userSpaceOnUse">
			<stop stop-color="#516ACF"/>
			<stop offset="1.000000" stop-color="#9FB2FF"/>
		</linearGradient>
		<linearGradient id="paint_linear_85_5896_0" x1="518.927246" y1="542.187500" x2="518.927246" y2="566.187500" gradientUnits="userSpaceOnUse">
			<stop stop-color="#516ACF"/>
			<stop offset="1.000000" stop-color="#9FB2FF"/>
		</linearGradient>
		<linearGradient id="paint_linear_85_5897_0" x1="908.927246" y1="542.187500" x2="908.927246" y2="566.187500" gradientUnits="userSpaceOnUse">
			<stop stop-color="#516ACF"/>
			<stop offset="1.000000" stop-color="#9FB2FF"/>
		</linearGradient>
	</defs>
	<path id="Тривалість (дні)" d="M3.60132 374.435L3.60132 380.435L18.9272 380.435L18.9272 382.889L3.60132 382.889L3.60132 388.864L1.42847 388.864L1.42847 374.435L3.60132 374.435ZM5.55444 365.087Q5.55444 363.164 6.40283 361.638Q7.25122 360.113 8.7771 359.252Q10.303 358.391 12.3049 358.391Q14.3008 358.391 15.8389 359.252Q17.377 360.113 18.2314 361.638Q19.0798 363.164 19.0798 365.087Q19.0798 366.515 18.5305 367.705Q17.9751 368.889 16.9253 369.713L23.7795 369.713L23.7795 372.112L5.67651 372.112L5.67651 369.811L7.77612 369.811Q6.67749 369.011 6.11597 367.791Q5.55444 366.564 5.55444 365.087ZM16.9802 365.288Q16.9802 364.013 16.3943 363Q15.8022 361.986 14.7402 361.4Q13.6782 360.814 12.3049 360.814Q10.9255 360.814 9.86352 361.4Q8.80151 361.986 8.22778 363Q7.65405 364.013 7.65405 365.288Q7.65405 366.54 8.23999 367.553Q8.82593 368.566 9.87573 369.152Q10.9255 369.738 12.3049 369.738Q13.6782 369.738 14.7402 369.164Q15.8022 368.59 16.3943 367.565Q16.9802 366.54 16.9802 365.288ZM5.67651 354.912L5.67651 352.513L15.3262 352.513L5.67651 344.39L5.67651 342.211L18.9272 342.211L18.9272 344.615L9.27759 344.615L18.9272 352.715L18.9272 354.912L5.67651 354.912ZM12.0547 328.535Q12.7017 325.965 15.2773 325.965Q17.0291 325.965 17.9812 327.278Q18.9272 328.59 18.9272 331.19L18.9272 337.562L5.67651 337.562L5.67651 331.41Q5.67651 329.06 6.56762 327.735Q7.45263 326.411 9.07617 326.411Q10.126 326.411 10.8889 326.979Q11.6519 327.54 12.0547 328.535ZM11.3772 335.212L11.3772 331.611Q11.3772 330.238 10.8767 329.524Q10.3762 328.81 9.43017 328.81Q7.52588 328.81 7.52588 331.611L7.52588 335.212L11.3772 335.212ZM17.0779 331.361Q17.0779 329.866 16.6018 329.115Q16.1257 328.364 15.1248 328.364Q14.0994 328.364 13.605 329.054Q13.1045 329.737 13.1045 331.214L13.1045 335.212L17.0779 335.212L17.0779 331.361ZM5.55444 317.488Q5.55444 314.735 6.90332 313.277Q8.25219 311.812 10.9255 311.812L18.9272 311.812L18.9272 314.088L17.1755 314.088Q18.1033 314.686 18.5915 315.803Q19.0798 316.914 19.0798 318.434Q19.0798 320.662 18.0056 321.998Q16.9253 323.335 15.1797 323.335Q13.428 323.335 12.366 322.059Q11.304 320.784 11.304 318.013L11.304 314.21L10.8279 314.21Q9.27758 314.21 8.45361 315.114Q7.62964 316.011 7.62964 317.763Q7.62964 318.934 8.02026 320.064Q8.40478 321.187 9.05175 321.962L7.25122 322.963Q6.42724 321.937 5.99389 320.515Q5.55444 319.087 5.55444 317.488ZM17.2244 318.037Q17.2244 316.664 16.614 315.663Q16.0037 314.662 14.8745 314.21L13.0251 314.21L13.0251 317.909Q13.0251 320.961 15.0759 320.961Q16.0769 320.961 16.6506 320.186Q17.2244 319.411 17.2244 318.037ZM5.67651 296.11L18.9272 296.11L18.9272 298.515L7.77612 298.515L7.77612 304.209L10.7302 304.362Q13.4036 304.49 15.1919 304.838Q16.9802 305.186 18.0544 305.986Q19.1287 306.785 19.1287 308.213Q19.1287 308.86 18.9028 309.69L16.8765 309.538Q16.9497 309.214 16.9497 308.94Q16.9497 307.939 16.0769 307.438Q15.2041 306.938 14.0017 306.791Q12.7993 306.639 10.5776 306.51L5.67651 306.285L5.67651 296.11ZM5.67651 291.462L5.67651 289.063L18.9272 289.063L18.9272 291.462L5.67651 291.462ZM3.12524 290.266Q3.12524 290.962 2.67968 291.425Q2.22802 291.889 1.57495 291.889Q0.927975 291.889 0.464107 291.425Q0.000239849 290.962 0.000239849 290.266Q0.000239849 289.564 0.439693 289.106Q0.879146 288.642 1.52612 288.642Q2.20361 288.642 2.66748 289.106Q3.12524 289.564 3.12524 290.266ZM19.0798 278.613Q19.0798 280.639 18.207 282.226Q17.3281 283.813 15.79 284.717Q14.2519 285.614 12.3049 285.614Q10.3518 285.614 8.81372 284.717Q7.27563 283.813 6.41503 282.226Q5.55444 280.639 5.55444 278.613Q5.55444 276.813 6.28076 275.403Q7.00097 273.987 8.37426 273.212L9.55224 275.036Q8.60009 275.665 8.13012 276.593Q7.65405 277.514 7.65405 278.638Q7.65405 279.938 8.22778 280.975Q8.80151 282.013 9.86352 282.605Q10.9255 283.191 12.3049 283.191Q13.7026 283.191 14.7646 282.605Q15.8267 282.013 16.4065 280.975Q16.9802 279.938 16.9802 278.638Q16.9802 277.514 16.5041 276.593Q16.0281 275.665 15.0759 275.036L16.2295 273.212Q17.6028 273.987 18.3413 275.403Q19.0798 276.813 19.0798 278.613ZM7.77612 260.412L7.77612 265.264L18.9272 265.264L18.9272 267.663L7.77612 267.663L7.77612 272.515L5.67651 272.515L5.67651 260.412L7.77612 260.412ZM10.1748 251.84Q10.1992 249.313 11.3284 247.989Q12.4514 246.664 14.5022 246.664Q16.6506 246.664 17.8164 248.105Q18.9761 249.539 18.9517 252.213L18.9272 257.962L5.67651 257.962L5.67651 255.563L10.1504 255.563L10.1748 251.84ZM17.1267 252.414Q17.1511 250.79 16.4797 249.954Q15.8022 249.112 14.4778 249.112Q13.1777 249.112 12.5796 249.924Q11.9753 250.736 11.9509 252.414L11.9021 255.563L17.1023 255.563L17.1267 252.414ZM23.7795 233.835Q21.4785 235.263 18.4939 236.038Q15.5032 236.813 12.0791 236.813Q8.65502 236.813 5.63989 236.038Q2.62475 235.263 0.378655 233.835L0.378655 231.564Q3.00317 233.06 5.87792 233.761Q8.75268 234.463 12.0791 234.463Q15.3994 234.463 18.2803 233.761Q21.155 233.06 23.7795 231.564L23.7795 233.835ZM16.8276 215.285L22.0034 215.285L22.0034 217.538L18.9272 217.538L18.9272 228.609L22.0034 228.609L22.0034 230.886L16.8276 230.886L16.8276 230.19Q16.7544 228.915 15.0271 228.439Q13.2998 227.962 10.1504 227.785L5.67651 227.59L5.67651 217.312L16.8276 217.312L16.8276 215.285ZM10.3274 225.588Q12.8298 225.686 14.4656 226.003Q16.1013 226.315 16.8276 227.139L16.8276 219.711L7.77612 219.711L7.77612 225.46L10.3274 225.588ZM5.67651 212.162L5.67651 209.763L11.3039 209.763L11.3039 202.213L5.67651 202.213L5.67651 199.815L18.9272 199.815L18.9272 202.213L13.3791 202.213L13.3791 209.763L18.9272 209.763L18.9272 212.162L5.67651 212.162ZM5.67651 195.137L5.67651 192.738L18.9272 192.738L18.9272 195.137L5.67651 195.137ZM3.12524 193.941Q3.12524 194.637 2.67968 195.1Q2.22802 195.564 1.57494 195.564Q0.92797 195.564 0.464103 195.1Q0.000235558 194.637 0.000235558 193.941Q0.000235558 193.239 0.439689 192.781Q0.879142 192.317 1.52611 192.317Q2.2036 192.317 2.66747 192.781Q3.12524 193.239 3.12524 193.941ZM23.7795 189.588Q21.155 188.086 18.2803 187.378Q15.3994 186.664 12.0791 186.664Q8.75268 186.664 5.87792 187.378Q3.00317 188.086 0.378654 189.588L0.378653 187.311Q2.62475 185.865 5.62768 185.09Q8.6245 184.314 12.0791 184.314Q15.5032 184.314 18.5061 185.09Q21.5029 185.865 23.7795 187.311L23.7795 189.588Z" fill="#000000" fill-opacity="1.000000" fill-rule="evenodd"/>
	<path id="Line 2" d="M102.109 1.1875L102.109 503.188L99.7451 503.188L99.7451 1.1875L102.109 1.1875ZM100.927 2.85938L95.0757 8.71094C94.6074 9.17969 93.8721 9.17969 93.4038 8.71094C92.9355 8.24219 92.9355 7.50781 93.4038 7.03906L100.091 0.351562C100.56 -0.117188 101.295 -0.117188 101.763 0.351562L108.451 7.03906C108.919 7.50781 108.919 8.24219 108.451 8.71094C107.982 9.17969 107.247 9.17969 106.779 8.71094L100.927 2.85938Z" fill="#000000" fill-opacity="1.000000" fill-rule="evenodd"/>
	<path id="Rectangle 25" d="M354.207 116.188L430.648 116.188C442.4 116.188 451.927 125.715 451.927 137.467L451.927 501.188L332.927 501.188L332.927 137.467C332.927 125.715 342.455 116.188 354.207 116.188Z" fill="url(#paint_linear_85_5872_0)" fill-opacity="1.000000" fill-rule="evenodd"/>
	<path id="Rectangle 27" d="M745.207 90.1875L821.648 90.1875C833.4 90.1875 842.927 99.7148 842.927 111.467L842.927 501.188L723.927 501.188L723.927 111.467C723.927 99.7148 733.455 90.1875 745.207 90.1875Z" fill="url(#paint_linear_85_5873_0)" fill-opacity="1.000000" fill-rule="evenodd"/>
	<path id="Rectangle 29" d="M1136.21 54.1875L1212.65 54.1875C1224.4 54.1875 1233.93 63.7148 1233.93 75.4668L1233.93 501.188L1114.93 501.188L1114.93 75.4668C1114.93 63.7148 1124.45 54.1875 1136.21 54.1875Z" fill="url(#paint_linear_85_5874_0)" fill-opacity="1.000000" fill-rule="evenodd"/>
	<path id="Rectangle 26" d="M225.207 227.188L301.648 227.188C313.4 227.188 322.927 236.715 322.927 248.467L322.927 501.188L203.927 501.188L203.927 248.467C203.927 236.715 213.455 227.188 225.207 227.188Z" fill="url(#paint_linear_85_5875_0)" fill-opacity="1.000000" fill-rule="evenodd"/>
	<path id="Rectangle 28" d="M616.207 278.188L692.648 278.188C704.4 278.188 713.927 287.715 713.927 299.467L713.927 501.188L594.927 501.188L594.927 299.467C594.927 287.715 604.455 278.188 616.207 278.188Z" fill="url(#paint_linear_85_5876_0)" fill-opacity="1.000000" fill-rule="evenodd"/>
	<path id="Rectangle 30" d="M1007.21 227.188L1083.65 227.188C1095.4 227.188 1104.93 236.715 1104.93 248.467L1104.93 501.188L985.927 501.188L985.927 248.467C985.927 236.715 995.455 227.188 1007.21 227.188Z" fill="url(#paint_linear_85_5877_0)" fill-opacity="1.000000" fill-rule="evenodd"/>
	<path id="4,5" d="M259.82 199.043L255.829 199.043L255.829 204.188L250.301 204.188L250.301 199.043L237.107 199.043L237.107 195.224L248.66 179.689L254.607 179.689L243.901 194.421L250.48 194.421L250.48 189.841L255.829 189.841L255.829 194.421L259.82 194.421L259.82 199.043ZM265.46 197.676Q266.93 197.676 267.87 198.608Q268.818 199.531 268.818 201.034Q268.818 201.735 268.639 202.436Q268.468 203.136 267.87 204.538L265.879 209.579L262.41 209.579L263.956 204.017Q263.076 203.666 262.563 202.88Q262.059 202.085 262.059 201.034Q262.059 199.531 263.025 198.608Q263.99 197.676 265.46 197.676ZM279.774 188.892Q284.952 188.892 287.422 190.96Q289.891 193.019 289.891 196.489Q289.891 198.727 288.763 200.564Q287.644 202.402 285.354 203.504Q283.064 204.606 279.706 204.606Q277.108 204.606 274.604 203.923Q272.109 203.239 270.358 201.983L272.596 197.642Q273.998 198.693 275.818 199.274Q277.638 199.847 279.56 199.847Q281.697 199.847 282.919 199.009Q284.149 198.163 284.149 196.659Q284.149 195.087 282.867 194.284Q281.594 193.481 278.441 193.481L272.178 193.481L273.434 179.689L288.379 179.689L288.379 184.235L278.159 184.235L277.775 188.892L279.774 188.892Z" fill="#516ACF" fill-opacity="1.000000" fill-rule="evenodd"/>
	<path id="3,7" d="M641.221 251.661Q644.443 252.191 646.151 254.062Q647.869 255.934 647.869 258.694Q647.869 260.83 646.75 262.633Q645.63 264.436 643.34 265.521Q641.05 266.606 637.726 266.606Q635.129 266.606 632.625 265.923Q630.13 265.239 628.378 263.983L630.583 259.642Q631.984 260.693 633.821 261.274Q635.658 261.847 637.581 261.847Q639.717 261.847 640.939 261.026Q642.17 260.206 642.17 258.694Q642.17 255.686 637.581 255.686L634.992 255.686L634.992 251.943L640.033 246.235L629.6 246.235L629.6 241.689L646.75 241.689L646.75 245.364L641.221 251.661ZM653.755 259.676Q655.225 259.676 656.165 260.608Q657.113 261.531 657.113 263.034Q657.113 263.735 656.934 264.436Q656.763 265.136 656.165 266.538L654.174 271.579L650.705 271.579L652.251 266.017Q651.371 265.666 650.858 264.88Q650.354 264.085 650.354 263.034Q650.354 261.531 651.32 260.608Q652.285 259.676 653.755 259.676ZM678.284 241.689L678.284 245.364L669.184 266.188L663.023 266.188L671.816 246.303L663.69 246.303L663.69 250.294L658.648 250.294L658.648 241.689L678.284 241.689Z" fill="#516ACF" fill-opacity="1.000000" fill-rule="evenodd"/>
	<path id="4,4" d="M1040.17 212.043L1036.18 212.043L1036.18 217.188L1030.66 217.188L1030.66 212.043L1017.46 212.043L1017.46 208.224L1029.02 192.689L1034.96 192.689L1024.26 207.421L1030.84 207.421L1030.84 202.841L1036.18 202.841L1036.18 207.421L1040.17 207.421L1040.17 212.043ZM1045.82 210.676Q1047.28 210.676 1048.22 211.608Q1049.17 212.531 1049.17 214.034Q1049.17 214.735 1048.99 215.436Q1048.82 216.136 1048.22 217.538L1046.23 222.579L1042.76 222.579L1044.31 217.017Q1043.43 216.666 1042.92 215.88Q1042.41 215.085 1042.41 214.034Q1042.41 212.531 1043.38 211.608Q1044.35 210.676 1045.82 210.676ZM1074.16 212.043L1070.17 212.043L1070.17 217.188L1064.64 217.188L1064.64 212.043L1051.45 212.043L1051.45 208.224L1063 192.689L1068.95 192.689L1058.24 207.421L1064.82 207.421L1064.82 202.841L1070.17 202.841L1070.17 207.421L1074.16 207.421L1074.16 212.043Z" fill="#516ACF" fill-opacity="1.000000" fill-rule="evenodd"/>
	<path id="6,2" d="M380.179 86.8237Q382.529 86.8237 384.451 87.7722Q386.374 88.7122 387.493 90.4468Q388.613 92.1814 388.613 94.4543Q388.613 96.9067 387.391 98.761Q386.169 100.615 384.05 101.615Q381.931 102.606 379.342 102.606Q374.197 102.606 371.292 99.4617Q368.387 96.3086 368.387 90.4639Q368.387 86.2939 369.959 83.3203Q371.531 80.3467 374.351 78.8086Q377.171 77.2705 380.88 77.2705Q382.836 77.2705 384.639 77.7063Q386.442 78.1421 387.707 78.9453L385.605 83.1152Q383.785 81.8848 381.016 81.8848Q377.906 81.8848 376.086 83.7048Q374.266 85.5249 374.121 88.9941Q376.291 86.8237 380.179 86.8237ZM379.025 98.3765Q380.845 98.3765 381.982 97.3938Q383.118 96.4111 383.118 94.7363Q383.118 93.053 381.982 92.0532Q380.845 91.0535 378.957 91.0535Q377.103 91.0535 375.906 92.0874Q374.719 93.1213 374.719 94.7363Q374.719 96.3428 375.872 97.3596Q377.026 98.3765 379.025 98.3765ZM394.288 95.6763Q395.757 95.6763 396.697 96.6077Q397.646 97.5305 397.646 99.0344Q397.646 99.7351 397.466 100.436Q397.295 101.136 396.697 102.538L394.706 107.579L391.237 107.579L392.784 102.017Q391.904 101.666 391.391 100.88Q390.887 100.085 390.887 99.0344Q390.887 97.5305 391.852 96.6077Q392.818 95.6763 394.288 95.6763ZM418.855 97.5647L418.855 102.188L400.338 102.188L400.338 98.5132L409.789 89.5837Q411.293 88.1567 411.814 87.1228Q412.344 86.0889 412.344 85.072Q412.344 83.6023 411.344 82.8162Q410.353 82.03 408.422 82.03Q406.815 82.03 405.517 82.6453Q404.226 83.252 403.346 84.4739L399.219 81.8164Q400.654 79.6802 403.175 78.4753Q405.696 77.2705 408.952 77.2705Q411.677 77.2705 413.728 78.1677Q415.779 79.0564 416.915 80.6799Q418.052 82.3035 418.052 84.5166Q418.052 86.5076 417.206 88.2593Q416.369 90.011 413.959 92.2498L408.319 97.5647L418.855 97.5647Z" fill="#737373" fill-opacity="1.000000" fill-rule="evenodd"/>
	<path id="6,7" d="M771.109 62.8237Q773.459 62.8237 775.381 63.7722Q777.304 64.7122 778.423 66.4468Q779.543 68.1814 779.543 70.4543Q779.543 72.9067 778.321 74.761Q777.099 76.6152 774.98 77.615Q772.861 78.6062 770.272 78.6062Q765.128 78.6062 762.222 75.4617Q759.317 72.3086 759.317 66.4639Q759.317 62.2939 760.889 59.3203Q762.461 56.3467 765.281 54.8086Q768.101 53.2705 771.81 53.2705Q773.766 53.2705 775.569 53.7063Q777.372 54.1421 778.637 54.9453L776.535 59.1152Q774.715 57.8848 771.946 57.8848Q768.836 57.8848 767.016 59.7048Q765.196 61.5249 765.051 64.9941Q767.221 62.8237 771.109 62.8237ZM769.955 74.3765Q771.775 74.3765 772.912 73.3938Q774.048 72.4111 774.048 70.7363Q774.048 69.053 772.912 68.0532Q771.775 67.0535 769.887 67.0535Q768.033 67.0535 766.836 68.0874Q765.649 69.1213 765.649 70.7363Q765.649 72.3428 766.802 73.3596Q767.956 74.3765 769.955 74.3765ZM785.218 71.6763Q786.687 71.6763 787.627 72.6077Q788.576 73.5305 788.576 75.0344Q788.576 75.7351 788.396 76.4358Q788.225 77.1365 787.627 78.5378L785.636 83.5793L782.167 83.5793L783.714 78.0166Q782.833 77.6663 782.321 76.8801Q781.817 76.0854 781.817 75.0344Q781.817 73.5305 782.782 72.6077Q783.748 71.6763 785.218 71.6763ZM809.747 53.6892L809.747 57.3635L800.646 78.1875L794.486 78.1875L803.278 58.3035L795.152 58.3035L795.152 62.2939L790.111 62.2939L790.111 53.6892L809.747 53.6892Z" fill="#737373" fill-opacity="1.000000" fill-rule="evenodd"/>
	<path id="7,1" d="M1179.81 16.6892L1179.81 20.3635L1170.71 41.1875L1164.55 41.1875L1173.34 21.3035L1165.22 21.3035L1165.22 25.2939L1160.18 25.2939L1160.18 16.6892L1179.81 16.6892ZM1183.88 34.6763Q1185.35 34.6763 1186.29 35.6077Q1187.24 36.5305 1187.24 38.0344Q1187.24 38.7351 1187.06 39.4358Q1186.89 40.1365 1186.29 41.5378L1184.3 46.5793L1180.83 46.5793L1182.37 41.0166Q1181.49 40.6663 1180.98 39.8801Q1180.48 39.0854 1180.48 38.0344Q1180.48 36.5305 1181.44 35.6077Q1182.41 34.6763 1183.88 34.6763ZM1198.68 16.6892L1198.68 41.1875L1193.01 41.1875L1193.01 21.2351L1188.11 21.2351L1188.11 16.6892L1198.68 16.6892Z" fill="#737373" fill-opacity="1.000000" fill-rule="evenodd"/>
	<path id="Line 3" d="M1335.93 504.369L100.927 504.369L100.927 502.006L1335.93 502.006L1335.93 504.369ZM1334.26 503.188L1328.4 497.336C1327.94 496.867 1327.94 496.133 1328.4 495.664C1328.87 495.195 1329.61 495.195 1330.08 495.664L1336.76 502.352C1337.23 502.82 1337.23 503.555 1336.76 504.023L1330.08 510.711C1329.61 511.18 1328.87 511.18 1328.4 510.711C1327.94 510.242 1327.94 509.508 1328.4 509.039L1334.26 503.188Z" fill="#000000" fill-opacity="1.000000" fill-rule="evenodd"/>
	<path id="Line 8" d="M100.58 440.188L88.7578 440.188" stroke="#000000" stroke-opacity="1.000000" stroke-width="1.182186" stroke-linecap="round"/>
	<path id="Line 9" d="M100.58 378.188L88.7578 378.188" stroke="#000000" stroke-opacity="1.000000" stroke-width="1.182186" stroke-linecap="round"/>
	<path id="Line 10" d="M100.58 316.188L88.7578 316.188" stroke="#000000" stroke-opacity="1.000000" stroke-width="1.182186" stroke-linecap="round"/>
	<path id="Line 11" d="M100.58 254.188L88.7578 254.188" stroke="#000000" stroke-opacity="1.000000" stroke-width="1.182186" stroke-linecap="round"/>
	<path id="Line 12" d="M100.58 192.188L88.7578 192.188" stroke="#000000" stroke-opacity="1.000000" stroke-width="1.182186" stroke-linecap="round"/>
	<path id="Line 13" d="M100.58 130.188L88.7578 130.188" stroke="#000000" stroke-opacity="1.000000" stroke-width="1.182186" stroke-linecap="round"/>
	<path id="Line 14" d="M100.58 68.1875L88.7578 68.1875" stroke="#000000" stroke-opacity="1.000000" stroke-width="1.182186" stroke-linecap="round"/>
	<path id="лихоманка" d="M258.597 548.588L258.597 561.188L256.294 561.188L256.294 550.566L251.324 550.566L251.214 553.717Q251.126 556.362 250.784 558.01Q250.441 559.658 249.685 560.515Q248.929 561.368 247.598 561.368Q247.132 561.368 246.319 561.188L246.481 559.153Q246.714 559.228 247.022 559.228Q248.12 559.228 248.578 557.922Q249.039 556.617 249.144 553.809L249.325 548.588L258.597 548.588ZM262.162 548.588L264.465 548.588L264.465 557.536L271.233 548.588L273.408 548.588L273.408 561.188L271.105 561.188L271.105 552.258L264.338 561.188L262.162 561.188L262.162 548.588ZM278.395 548.588L281.366 552.798L284.337 548.588L287.07 548.588L282.843 554.635L287.413 561.188L284.64 561.188L281.366 556.6L278.11 561.188L275.407 561.188L279.964 554.728L275.697 548.588L278.395 548.588ZM294.774 561.368Q292.849 561.368 291.302 560.533Q289.755 559.693 288.872 558.208Q287.989 556.723 287.989 554.886Q287.989 553.053 288.872 551.568Q289.755 550.083 291.302 549.248Q292.849 548.408 294.774 548.408Q296.703 548.408 298.25 549.248Q299.797 550.083 300.68 551.559Q301.564 553.036 301.564 554.886Q301.564 556.74 300.68 558.217Q299.797 559.693 298.25 560.533Q296.703 561.368 294.774 561.368ZM294.774 559.315Q296.035 559.315 297.042 558.749Q298.052 558.182 298.628 557.167Q299.204 556.147 299.204 554.886Q299.204 553.629 298.628 552.614Q298.052 551.594 297.042 551.027Q296.035 550.46 294.774 550.46Q293.517 550.46 292.506 551.027Q291.5 551.594 290.924 552.614Q290.349 553.629 290.349 554.886Q290.349 556.147 290.924 557.167Q291.5 558.182 292.506 558.749Q293.517 559.315 294.774 559.315ZM315.728 561.188L315.71 552.833L311.57 559.746L310.525 559.746L306.385 552.943L306.385 561.188L304.174 561.188L304.174 548.588L306.099 548.588L311.083 556.92L316.018 548.588L317.925 548.588L317.96 561.188L315.728 561.188ZM329.84 558.27L323.539 558.27L322.295 561.188L319.887 561.188L325.556 548.588L327.859 548.588L333.545 561.188L331.097 561.188L329.84 558.27ZM329.063 556.437L326.69 550.926L324.33 556.437L329.063 556.437ZM346.67 548.588L346.67 561.188L344.327 561.188L344.327 555.787L337.815 555.787L337.815 561.188L335.472 561.188L335.472 548.588L337.815 548.588L337.815 553.792L344.327 553.792L344.327 548.588L346.67 548.588ZM354.841 555.879L352.504 555.879L352.504 561.188L350.196 561.188L350.196 548.588L352.504 548.588L352.504 553.862L354.916 553.862L358.533 548.588L361.016 548.588L356.714 554.688L361.178 561.188L358.533 561.188L354.841 555.879ZM370.916 558.27L364.615 558.27L363.371 561.188L360.963 561.188L366.632 548.588L368.935 548.588L374.621 561.188L372.173 561.188L370.916 558.27ZM370.139 556.437L367.766 550.926L365.406 556.437L370.139 556.437Z" fill="#000000" fill-opacity="1.000000" fill-rule="evenodd"/>
	<path id="риніт" d="M702.22 548.588Q703.855 548.588 705.068 549.129Q706.285 549.669 706.931 550.676Q707.581 551.682 707.581 553.071Q707.581 554.438 706.931 555.457Q706.285 556.472 705.068 557.013Q703.855 557.553 702.22 557.553L699.377 557.553L699.377 561.188L697.034 561.188L697.034 548.588L702.22 548.588ZM702.11 555.571Q703.639 555.571 704.43 554.925Q705.226 554.275 705.226 553.071Q705.226 551.862 704.43 551.216Q703.639 550.566 702.11 550.566L699.377 550.566L699.377 555.571L702.11 555.571ZM709.818 548.588L712.121 548.588L712.121 557.536L718.889 548.588L721.064 548.588L721.064 561.188L718.761 561.188L718.761 552.258L711.994 561.188L709.818 561.188L709.818 548.588ZM735.79 548.588L735.79 561.188L733.447 561.188L733.447 555.787L726.935 555.787L726.935 561.188L724.592 561.188L724.592 548.588L726.935 548.588L726.935 553.792L733.447 553.792L733.447 548.588L735.79 548.588ZM739.338 548.588L741.641 548.588L741.641 561.188L739.338 561.188L739.338 548.588ZM754.329 550.566L750.155 550.566L750.155 561.188L747.834 561.188L747.834 550.566L743.673 550.566L743.673 548.588L754.329 548.588L754.329 550.566Z" fill="#000000" fill-opacity="1.000000" fill-rule="evenodd"/>
	<path id="кашель" d="M1068.65 555.879L1066.31 555.879L1066.31 561.188L1064 561.188L1064 548.588L1066.31 548.588L1066.31 553.862L1068.72 553.862L1072.34 548.588L1074.82 548.588L1070.52 554.688L1074.98 561.188L1072.34 561.188L1068.65 555.879ZM1084.72 558.27L1078.42 558.27L1077.18 561.188L1074.77 561.188L1080.44 548.588L1082.74 548.588L1088.43 561.188L1085.98 561.188L1084.72 558.27ZM1083.94 556.437L1081.57 550.926L1079.21 556.437L1083.94 556.437ZM1106.56 548.588L1106.56 561.188L1090.38 561.188L1090.38 548.588L1092.68 548.588L1092.68 559.206L1097.32 559.206L1097.32 548.588L1099.63 548.588L1099.63 559.206L1104.25 559.206L1104.25 548.588L1106.56 548.588ZM1119.55 559.228L1119.55 561.188L1110.1 561.188L1110.1 548.588L1119.3 548.588L1119.3 550.548L1112.44 550.548L1112.44 553.827L1118.52 553.827L1118.52 555.751L1112.44 555.751L1112.44 559.228L1119.55 559.228ZM1132.93 548.588L1132.93 561.188L1130.62 561.188L1130.62 550.566L1125.65 550.566L1125.54 553.717Q1125.46 556.362 1125.11 558.01Q1124.77 559.658 1124.01 560.515Q1123.26 561.368 1121.93 561.368Q1121.46 561.368 1120.65 561.188L1120.81 559.153Q1121.04 559.228 1121.35 559.228Q1122.45 559.228 1122.91 557.922Q1123.37 556.617 1123.47 553.809L1123.65 548.588L1132.93 548.588ZM1142.28 552.855Q1144.56 552.855 1145.77 553.871Q1146.98 554.886 1146.98 556.885Q1146.98 558.973 1145.65 560.08Q1144.32 561.188 1141.91 561.188L1136.49 561.188L1136.49 548.588L1138.8 548.588L1138.8 552.855L1142.28 552.855ZM1141.8 559.386Q1143.17 559.386 1143.91 558.757Q1144.64 558.129 1144.64 556.92Q1144.64 554.635 1141.8 554.635L1138.8 554.635L1138.8 559.386L1141.8 559.386Z" fill="#000000" fill-opacity="1.000000" fill-rule="evenodd"/>
	<path id="1" d="M68.7538 432.948L68.7538 446.188L67.3915 446.188L67.3915 434.158L64.2698 434.158L64.2698 432.948L68.7538 432.948Z" fill="#000000" fill-opacity="1.000000" fill-rule="evenodd"/>
	<path id="2" d="M70.209 382.978L70.209 384.188L60.9224 384.188L60.9224 383.222L66.427 377.833Q67.466 376.813 67.8354 376.065Q68.2049 375.316 68.2049 374.559Q68.2049 373.386 67.4013 372.735Q66.5978 372.084 65.1016 372.084Q62.7742 372.084 61.4904 373.557L60.5253 372.726Q61.3011 371.816 62.5017 371.327Q63.7024 370.832 65.2171 370.832Q67.2397 370.832 68.4219 371.788Q69.6041 372.744 69.6041 374.407Q69.6041 375.432 69.1469 376.379Q68.6944 377.321 67.429 378.549L62.9266 382.978L70.209 382.978Z" fill="#000000" fill-opacity="1.000000" fill-rule="evenodd"/>
	<path id="3" d="M65.7453 314.623Q67.8233 314.734 68.9086 315.746Q69.9984 316.757 69.9984 318.387Q69.9984 319.518 69.4488 320.4Q68.9039 321.278 67.8233 321.79Q66.7474 322.303 65.1957 322.303Q63.7596 322.303 62.4804 321.841Q61.2059 321.375 60.4301 320.599L61.0904 319.518Q61.7554 320.202 62.8498 320.627Q63.9489 321.051 65.1957 321.051Q66.8213 321.051 67.7079 320.345Q68.5992 319.634 68.5992 318.387Q68.5992 317.154 67.7079 316.457Q66.8213 315.755 65.0249 315.755L64.0782 315.755L64.0782 314.753L67.7495 310.158L60.9796 310.158L60.9796 308.948L69.4904 308.948L69.4904 309.913L65.7453 314.623Z" fill="#000000" fill-opacity="1.000000" fill-rule="evenodd"/>
	<path id="4" d="M70.6619 256.706L68.0159 256.706L68.0159 260.188L66.6536 260.188L66.6536 256.706L59.1818 256.706L59.1818 255.722L66.1964 246.948L67.7111 246.948L60.9412 255.496L66.6905 255.496L66.6905 252.434L68.0159 252.434L68.0159 255.496L70.6619 255.496L70.6619 256.706Z" fill="#000000" fill-opacity="1.000000" fill-rule="evenodd"/>
	<path id="5" d="M64.6869 190.374Q67.5592 190.374 68.8753 191.408Q70.1914 192.438 70.1914 194.29Q70.1914 195.444 69.6512 196.354Q69.1109 197.259 68.0303 197.781Q66.9543 198.303 65.3842 198.303Q63.9665 198.303 62.6873 197.841Q61.4128 197.375 60.637 196.599L61.2973 195.518Q61.9623 196.202 63.0383 196.627Q64.1189 197.051 65.3657 197.051Q67.0097 197.051 67.9102 196.317Q68.8107 195.578 68.8107 194.35Q68.8107 192.988 67.7947 192.286Q66.7834 191.584 64.3821 191.584L61.5652 191.584L62.244 184.948L69.4895 184.948L69.4895 186.158L63.4354 186.158L62.9829 190.374L64.6869 190.374Z" fill="#000000" fill-opacity="1.000000" fill-rule="evenodd"/>
	<path id="6" d="M65.8777 128.263Q67.18 128.263 68.1913 128.757Q69.2072 129.247 69.7706 130.147Q70.3386 131.043 70.3386 132.235Q70.3386 133.444 69.7522 134.373Q69.1703 135.296 68.1359 135.8Q67.1061 136.303 65.8223 136.303Q63.1901 136.303 61.7909 134.571Q60.3916 132.84 60.3916 129.681Q60.3916 127.469 61.149 125.936Q61.9063 124.403 63.264 123.618Q64.6263 122.832 66.4457 122.832Q68.413 122.832 69.5859 123.553L69.0364 124.647Q68.0897 124.024 66.4642 124.024Q64.2707 124.024 63.0192 125.414Q61.7724 126.804 61.7724 129.455Q61.7724 129.926 61.8278 130.531Q62.3219 129.455 63.3979 128.859Q64.4785 128.263 65.8777 128.263ZM65.7623 135.148Q67.2031 135.148 68.0989 134.363Q68.9994 133.578 68.9994 132.272Q68.9994 130.969 68.0989 130.193Q67.2031 129.418 65.6699 129.418Q64.6678 129.418 63.9013 129.796Q63.1347 130.17 62.696 130.835Q62.2619 131.496 62.2619 132.308Q62.2619 133.066 62.6683 133.712Q63.0793 134.354 63.8735 134.751Q64.6678 135.148 65.7623 135.148Z" fill="#000000" fill-opacity="1.000000" fill-rule="evenodd"/>
	<path id="7" d="M70.112 60.9479L70.112 61.9131L64.5705 74.1875L63.0974 74.1875L68.5419 62.1578L61.7351 62.1578L61.7351 64.6376L60.3913 64.6376L60.3913 60.9479L70.112 60.9479Z" fill="#000000" fill-opacity="1.000000" fill-rule="evenodd"/>
	<path id="0" d="M67.6674 508.303Q66.1343 508.303 64.9336 507.49Q63.733 506.673 63.0587 505.154Q62.3891 503.63 62.3891 501.565Q62.3891 499.506 63.0587 497.982Q63.733 496.458 64.9336 495.645Q66.1343 494.832 67.6674 494.832Q69.2006 494.832 70.4012 495.645Q71.6019 496.458 72.2807 497.982Q72.9642 499.506 72.9642 501.565Q72.9642 503.63 72.2807 505.154Q71.6019 506.673 70.4012 507.49Q69.2006 508.303 67.6674 508.303ZM67.6674 507.051Q68.8219 507.051 69.6993 506.41Q70.5813 505.768 71.0708 504.539Q71.5649 503.306 71.5649 501.565Q71.5649 499.829 71.0708 498.601Q70.5813 497.368 69.6993 496.726Q68.8219 496.084 67.6674 496.084Q66.5129 496.084 65.6309 496.726Q64.7535 497.368 64.2594 498.601Q63.7699 499.829 63.7699 501.565Q63.7699 503.306 64.2594 504.539Q64.7535 505.768 65.6309 506.41Q66.5129 507.051 67.6674 507.051Z" fill="#000000" fill-opacity="1.000000" fill-rule="evenodd"/>
	<path id="image 9 (Traced)" d="M508.007 542.34C507.342 542.584 506.834 543.41 506.942 544.072C507.058 544.789 507.245 545.002 511.494 549.281C517.083 554.912 517.083 553.555 511.494 559.184C508.381 562.318 507.299 563.457 507.165 563.742C506.389 565.385 507.824 566.762 509.461 565.945C510.061 565.646 520.002 555.674 520.287 555.084C520.922 553.768 521.004 553.879 514.946 547.812C509.046 541.904 509.091 541.939 508.007 542.34ZM518.2 542.592C517.468 543.031 517.22 543.959 517.613 544.789C517.756 545.094 518.741 546.133 521.909 549.322C527.45 554.904 527.456 553.557 521.868 559.184C518.755 562.318 517.673 563.457 517.539 563.742C516.762 565.385 518.198 566.762 519.835 565.945C520.455 565.637 530.309 555.756 530.62 555.133C531.297 553.77 531.353 553.848 525.404 547.891C519.451 541.93 519.384 541.881 518.2 542.592Z" fill="url(#paint_linear_85_5896_0)" fill-opacity="1.000000" fill-rule="evenodd"/>
	<path id="image 9 (Traced)" d="M898.007 542.34C897.342 542.584 896.834 543.41 896.942 544.072C897.058 544.789 897.245 545.002 901.494 549.281C907.083 554.912 907.083 553.555 901.494 559.184C898.381 562.318 897.299 563.457 897.165 563.742C896.389 565.385 897.824 566.762 899.461 565.945C900.061 565.646 910.002 555.674 910.287 555.084C910.922 553.768 911.004 553.879 904.946 547.812C899.046 541.904 899.091 541.939 898.007 542.34ZM908.2 542.592C907.468 543.031 907.22 543.959 907.613 544.789C907.756 545.094 908.741 546.133 911.909 549.322C917.45 554.904 917.456 553.557 911.868 559.184C908.755 562.318 907.673 563.457 907.539 563.742C906.762 565.385 908.198 566.762 909.835 565.945C910.455 565.637 920.309 555.756 920.62 555.133C921.297 553.77 921.353 553.848 915.404 547.891C909.451 541.93 909.384 541.881 908.2 542.592Z" fill="url(#paint_linear_85_5897_0)" fill-opacity="1.000000" fill-rule="evenodd"/>
</svg>
