<svg width="1048.186523" height="707.000000" viewBox="0 0 1048.19 707" fill="none" xmlns="http://www.w3.org/2000/svg" xmlns:xlink="http://www.w3.org/1999/xlink">
	<desc>
			Created with Pixso.
	</desc>
	<defs>
		<linearGradient id="paint_linear_85_5626_0" x1="556.500000" y1="668.000000" x2="556.500000" y2="723.865356" gradientUnits="userSpaceOnUse">
			<stop stop-color="#BBBBBB"/>
			<stop offset="1.000000" stop-color="#BBBBBB" stop-opacity="0.000000"/>
		</linearGradient>
		<linearGradient id="paint_linear_85_5629_0" x1="245.500000" y1="668.000000" x2="245.500000" y2="703.000000" gradientUnits="userSpaceOnUse">
			<stop stop-color="#516ACF"/>
			<stop offset="1.000000" stop-color="#9FB2FF"/>
		</linearGradient>
		<linearGradient id="paint_linear_85_5633_0" x1="452.500000" y1="426.000000" x2="452.500000" y2="604.769226" gradientUnits="userSpaceOnUse">
			<stop stop-color="#BBBBBB"/>
			<stop offset="1.000000" stop-color="#BBBBBB" stop-opacity="0.000000"/>
		</linearGradient>
		<linearGradient id="paint_linear_85_5751_0" x1="869.500000" y1="49.000000" x2="869.500000" y2="829.519226" gradientUnits="userSpaceOnUse">
			<stop stop-color="#BBBBBB"/>
			<stop offset="1.000000" stop-color="#BBBBBB" stop-opacity="0.000000"/>
		</linearGradient>
		<linearGradient id="paint_linear_85_5636_0" x1="323.500000" y1="490.000000" x2="323.500000" y2="538.000000" gradientUnits="userSpaceOnUse">
			<stop stop-color="#516ACF"/>
			<stop offset="1.000000" stop-color="#9FB2FF"/>
		</linearGradient>
		<linearGradient id="paint_linear_85_5752_0" x1="740.500000" y1="275.000000" x2="740.500000" y2="538.000000" gradientUnits="userSpaceOnUse">
			<stop stop-color="#516ACF"/>
			<stop offset="1.000000" stop-color="#9FB2FF"/>
		</linearGradient>
		<linearGradient id="paint_linear_85_5657_0" x1="579.000000" y1="579.000000" x2="579.000000" y2="603.000000" gradientUnits="userSpaceOnUse">
			<stop stop-color="#1091DA"/>
			<stop offset="1.000000" stop-color="#7DC5ED"/>
		</linearGradient>
	</defs>
	<path id="Контроль" d="M604.591 687.757L600.211 687.757L600.211 697L597.267 697L597.267 676.001L600.211 676.001L600.211 685.12L604.649 685.12L611.249 676.001L614.457 676.001L606.957 686.167L614.823 697L611.402 697L604.591 687.757ZM624.032 697.183Q621.659 697.183 619.769 696.136Q617.88 695.081 616.81 693.235Q615.748 691.39 615.748 689.053Q615.748 686.709 616.81 684.864Q617.88 683.018 619.769 681.985Q621.659 680.953 624.032 680.953Q626.398 680.953 628.273 681.985Q630.148 683.018 631.21 684.864Q632.279 686.709 632.279 689.053Q632.279 691.39 631.21 693.235Q630.148 695.081 628.273 696.136Q626.398 697.183 624.032 697.183ZM624.032 694.664Q625.555 694.664 626.771 693.96Q627.987 693.25 628.676 691.976Q629.371 690.701 629.371 689.053Q629.371 687.398 628.676 686.124Q627.987 684.849 626.771 684.161Q625.555 683.472 624.032 683.472Q622.501 683.472 621.285 684.161Q620.07 684.849 619.359 686.124Q618.656 687.398 618.656 689.053Q618.656 690.701 619.359 691.976Q620.07 693.25 621.285 693.96Q622.501 694.664 624.032 694.664ZM636.451 681.099L639.329 681.099L639.329 687.852L648.389 687.852L648.389 681.099L651.267 681.099L651.267 697L648.389 697L648.389 690.342L639.329 690.342L639.329 697L636.451 697L636.451 681.099ZM668.731 683.619L662.908 683.619L662.908 697L660.03 697L660.03 683.619L654.207 683.619L654.207 681.099L668.731 681.099L668.731 683.619ZM680.101 680.953Q682.408 680.953 684.239 681.971Q686.07 682.989 687.103 684.82Q688.135 686.651 688.135 689.053Q688.135 691.448 687.103 693.294Q686.07 695.14 684.239 696.165Q682.408 697.183 680.101 697.183Q678.387 697.183 676.959 696.524Q675.538 695.857 674.549 694.598L674.549 702.823L671.671 702.823L671.671 681.099L674.432 681.099L674.432 683.619Q675.391 682.3 676.856 681.626Q678.328 680.953 680.101 680.953ZM679.859 694.664Q681.39 694.664 682.606 693.96Q683.821 693.25 684.525 691.976Q685.228 690.701 685.228 689.053Q685.228 687.398 684.525 686.124Q683.821 684.849 682.606 684.161Q681.39 683.472 679.859 683.472Q678.358 683.472 677.142 684.175Q675.926 684.878 675.223 686.138Q674.52 687.398 674.52 689.053Q674.52 690.701 675.208 691.976Q675.897 693.25 677.127 693.96Q678.358 694.664 679.859 694.664ZM699.122 697.183Q696.749 697.183 694.859 696.136Q692.97 695.081 691.9 693.235Q690.838 691.39 690.838 689.053Q690.838 686.709 691.9 684.864Q692.97 683.018 694.859 681.985Q696.749 680.953 699.122 680.953Q701.488 680.953 703.363 681.985Q705.238 683.018 706.3 684.864Q707.369 686.709 707.369 689.053Q707.369 691.39 706.3 693.235Q705.238 695.081 703.363 696.136Q701.488 697.183 699.122 697.183ZM699.122 694.664Q700.646 694.664 701.861 693.96Q703.077 693.25 703.766 691.976Q704.461 690.701 704.461 689.053Q704.461 687.398 703.766 686.124Q703.077 684.849 701.861 684.161Q700.646 683.472 699.122 683.472Q697.591 683.472 696.375 684.161Q695.16 684.849 694.449 686.124Q693.746 687.398 693.746 689.053Q693.746 690.701 694.449 691.976Q695.16 693.25 696.375 693.96Q697.591 694.664 699.122 694.664ZM725.073 681.099L725.073 697L722.187 697L722.187 683.619L715.354 683.619L715.171 687.164Q715.017 690.372 714.599 692.518Q714.182 694.664 713.222 695.953Q712.263 697.242 710.549 697.242Q709.773 697.242 708.776 696.971L708.96 694.539Q709.348 694.627 709.677 694.627Q710.879 694.627 711.479 693.58Q712.08 692.532 712.255 691.089Q712.439 689.646 712.592 686.98L712.863 681.099L725.073 681.099ZM737.997 686.497Q741.029 686.526 742.618 687.881Q744.208 689.229 744.208 691.69Q744.208 694.268 742.479 695.667Q740.758 697.059 737.55 697.029L730.651 697L730.651 681.099L733.529 681.099L733.529 686.468L737.997 686.497ZM737.308 694.839Q739.256 694.869 740.26 694.063Q741.271 693.25 741.271 691.661Q741.271 690.101 740.297 689.383Q739.322 688.658 737.308 688.628L733.529 688.57L733.529 694.81L737.308 694.839Z" fill="#000000" fill-opacity="1.000000" fill-rule="evenodd"/>
	<rect id="Rectangle 26" x="539.000000" y="668.000000" rx="8.000000" width="35.000000" height="35.000000" fill="url(#paint_linear_85_5626_0)" fill-opacity="1.000000"/>
	<path id="АНАФЕРОН" d="M299.919 691.749L288.757 691.749L286.45 697L283.359 697L292.866 676.001L295.839 676.001L305.375 697L302.226 697L299.919 691.749ZM298.872 689.354L294.338 679.063L289.812 689.354L298.872 689.354ZM327.068 676.001L327.068 697L324.065 697L324.065 687.64L312.01 687.64L312.01 697L309.007 697L309.007 676.001L312.01 676.001L312.01 685.032L324.065 685.032L324.065 676.001L327.068 676.001ZM347.259 691.749L336.097 691.749L333.79 697L330.699 697L340.206 676.001L343.179 676.001L352.715 697L349.566 697L347.259 691.749ZM346.212 689.354L341.678 679.063L337.152 689.354L346.212 689.354ZM379.213 686.468Q379.213 690.643 376.298 693.016Q373.39 695.381 368.08 695.557L368.08 697.776L365.29 697.776L365.29 695.557Q359.98 695.352 357.05 692.986Q354.128 690.613 354.128 686.468Q354.128 682.3 357.05 679.935Q359.98 677.562 365.29 677.349L365.29 675.218L368.08 675.218L368.08 677.349Q373.361 677.562 376.283 679.949Q379.213 682.33 379.213 686.468ZM368.08 693.221Q372.101 692.979 374.211 691.258Q376.327 689.529 376.327 686.438Q376.327 683.414 374.181 681.685Q372.043 679.957 368.08 679.722L368.08 693.221ZM357.043 686.468Q357.043 689.529 359.181 691.258Q361.327 692.979 365.29 693.221L365.29 679.722Q361.269 679.957 359.152 681.67Q357.043 683.377 357.043 686.468ZM399.068 694.393L399.068 697L383.827 697L383.827 676.001L398.643 676.001L398.643 678.609L386.83 678.609L386.83 685.062L397.354 685.062L397.354 687.61L386.83 687.61L386.83 694.393L399.068 694.393ZM411.965 676.001Q416.045 676.001 418.381 677.95Q420.725 679.898 420.725 683.318Q420.725 686.739 418.381 688.694Q416.045 690.643 411.965 690.643L406.78 690.643L406.78 697L403.777 697L403.777 676.001L411.965 676.001ZM411.877 688.028Q414.726 688.028 416.228 686.819Q417.729 685.604 417.729 683.318Q417.729 681.041 416.228 679.825Q414.726 678.609 411.877 678.609L406.78 678.609L406.78 688.028L411.877 688.028ZM434.645 697.242Q431.466 697.242 428.917 695.85Q426.368 694.451 424.911 691.99Q423.461 689.529 423.461 686.497Q423.461 683.472 424.911 681.011Q426.368 678.55 428.917 677.159Q431.466 675.76 434.645 675.76Q437.794 675.76 440.343 677.159Q442.899 678.55 444.335 680.997Q445.778 683.443 445.778 686.497Q445.778 689.559 444.335 692.005Q442.899 694.451 440.343 695.85Q437.794 697.242 434.645 697.242ZM434.645 694.568Q436.959 694.568 438.805 693.521Q440.651 692.474 441.713 690.628Q442.775 688.782 442.775 686.497Q442.775 684.219 441.713 682.374Q440.651 680.528 438.805 679.48Q436.959 678.433 434.645 678.433Q432.338 678.433 430.463 679.48Q428.588 680.528 427.518 682.374Q426.456 684.219 426.456 686.497Q426.456 688.782 427.518 690.628Q428.588 692.474 430.463 693.521Q432.338 694.568 434.645 694.568ZM468.698 676.001L468.698 697L465.695 697L465.695 687.64L453.64 687.64L453.64 697L450.637 697L450.637 676.001L453.64 676.001L453.64 685.032L465.695 685.032L465.695 676.001L468.698 676.001Z" fill="#000000" fill-opacity="1.000000" fill-rule="evenodd"/>
	<rect id="Rectangle 26" x="228.000000" y="668.000000" rx="8.000000" width="35.000000" height="35.000000" fill="url(#paint_linear_85_5629_0)" fill-opacity="1.000000"/>
	<path id="Кількість пацієнтів хворих на ГРВІ і на гриб %" d="M18.2974 405.249L18.2974 408.899L26 408.899L26 411.353L8.50122 411.353L8.50122 408.899L16.1001 408.899L16.1001 405.201L8.50122 399.701L8.50122 397.028L16.9729 403.278L26 396.723L26 399.573L18.2974 405.249ZM12.7493 394.225L12.7493 391.826L26 391.826L26 394.225L12.7493 394.225ZM10.198 393.028Q10.198 393.724 9.75244 394.188Q9.30078 394.652 8.6477 394.652Q8.00073 394.652 7.53686 394.188Q7.073 393.724 7.073 393.028Q7.073 392.326 7.51245 391.869Q7.9519 391.405 8.59888 391.405Q9.27637 391.405 9.74023 391.869Q10.198 392.326 10.198 393.028ZM12.7493 375.773L26 375.773L26 378.177L14.8489 378.177L14.8489 383.872L17.803 384.025Q20.4763 384.153 22.2646 384.501Q24.053 384.849 25.1272 385.648Q26.2014 386.448 26.2014 387.876Q26.2014 388.523 25.9756 389.353L23.9492 389.2Q24.0225 388.877 24.0225 388.602Q24.0225 387.601 23.1497 387.101Q22.2769 386.6 21.0745 386.454Q19.8721 386.301 17.6504 386.173L12.7493 385.947L12.7493 375.773ZM17.2476 365.003Q17.272 362.476 18.4011 361.151Q19.5242 359.827 21.5749 359.827Q23.7234 359.827 24.8892 361.267Q26.0488 362.702 26.0244 365.375L26 371.125L12.7493 371.125L12.7493 368.726L17.2231 368.726L17.2476 365.003ZM24.1995 365.576Q24.2239 363.953 23.5525 363.117Q22.875 362.274 21.5505 362.274Q20.2505 362.274 19.6523 363.086Q19.0481 363.898 19.0237 365.576L18.9749 368.726L24.175 368.726L24.1995 365.576ZM20.397 351.598L20.397 354.351L26 354.351L26 356.75L12.7493 356.75L12.7493 354.351L18.3523 354.351L18.3523 351.549L12.7493 347.253L12.7493 344.677L19.1274 349.7L26 344.323L26 347.149L20.397 351.598ZM12.7493 341.8L12.7493 339.401L26 339.401L26 341.8L12.7493 341.8ZM10.198 340.603Q10.198 341.299 9.75244 341.763Q9.30078 342.227 8.6477 342.227Q8.00073 342.227 7.53686 341.763Q7.07299 341.299 7.07299 340.603Q7.07299 339.901 7.51245 339.444Q7.9519 338.98 8.59887 338.98Q9.27636 338.98 9.74023 339.444Q10.198 339.901 10.198 340.603ZM26.1526 328.951Q26.1526 330.977 25.2798 332.564Q24.4009 334.151 22.8628 335.054Q21.3247 335.951 19.3777 335.951Q17.4246 335.951 15.8865 335.054Q14.3484 334.151 13.4878 332.564Q12.6272 330.977 12.6272 328.951Q12.6272 327.15 13.3535 325.74Q14.0737 324.324 15.447 323.549L16.625 325.374Q15.6728 326.003 15.2029 326.93Q14.7268 327.852 14.7268 328.975Q14.7268 330.275 15.3005 331.313Q15.8743 332.35 16.9363 332.942Q17.9983 333.528 19.3777 333.528Q20.7754 333.528 21.8374 332.942Q22.8994 332.35 23.4792 331.313Q24.053 330.275 24.053 328.975Q24.053 327.852 23.5769 326.93Q23.1008 326.003 22.1487 325.374L23.3022 323.549Q24.6755 324.324 25.4141 325.74Q26.1526 327.15 26.1526 328.951ZM14.8489 310.749L14.8489 315.601L26 315.601L26 318L14.8489 318L14.8489 322.852L12.7493 322.852L12.7493 310.749L14.8489 310.749ZM17.2476 302.178Q17.272 299.651 18.4011 298.326Q19.5242 297.002 21.5749 297.002Q23.7234 297.002 24.8892 298.442Q26.0488 299.877 26.0244 302.55L26 308.3L12.7493 308.3L12.7493 305.901L17.2231 305.901L17.2476 302.178ZM24.1995 302.751Q24.2239 301.128 23.5525 300.292Q22.875 299.449 21.5505 299.449Q20.2505 299.449 19.6523 300.261Q19.0481 301.073 19.0237 302.751L18.9748 305.901L24.175 305.901L24.1995 302.751ZM12.7493 274.925L26 274.925L26 277.324L14.8489 277.324L14.8489 284.801L26 284.801L26 287.2L12.7493 287.2L12.7493 274.925ZM12.6272 265.55Q12.6272 262.798 13.9761 261.339Q15.3249 259.874 17.9983 259.874L26 259.874L26 262.151L24.2483 262.151Q25.176 262.749 25.6643 263.866Q26.1526 264.977 26.1526 266.497Q26.1526 268.724 25.0784 270.061Q23.998 271.398 22.2524 271.398Q20.5007 271.398 19.4387 270.122Q18.3767 268.846 18.3767 266.075L18.3767 262.273L17.9006 262.273Q16.3503 262.273 15.5264 263.176Q14.7024 264.073 14.7024 265.825Q14.7024 266.997 15.093 268.126Q15.4775 269.249 16.1245 270.024L14.324 271.025Q13.5 270 13.0666 268.578Q12.6272 267.15 12.6272 265.55ZM24.2971 266.1Q24.2971 264.727 23.6868 263.726Q23.0764 262.725 21.9473 262.273L20.0979 262.273L20.0979 265.972Q20.0979 269.023 22.1487 269.023Q23.1497 269.023 23.7234 268.248Q24.2971 267.473 24.2971 266.1ZM23.9004 241.402L29.1738 241.402L29.1738 243.672L26 243.672L26 255.55L12.7493 255.55L12.7493 253.151L23.9004 253.151L23.9004 245.9L12.7493 245.9L12.7493 243.501L23.9004 243.501L23.9004 241.402ZM12.7493 238.3L12.7493 235.901L26 235.901L26 238.3L12.7493 238.3ZM10.198 237.103Q10.198 237.799 9.75243 238.263Q9.30077 238.727 8.6477 238.727Q8.00072 238.727 7.53686 238.263Q7.07299 237.799 7.07299 237.103Q7.07299 236.401 7.51244 235.944Q7.9519 235.48 8.59887 235.48Q9.27636 235.48 9.74023 235.944Q10.198 236.401 10.198 237.103ZM26.1465 225.304Q26.1465 227.324 25.2737 228.966Q24.4009 230.602 22.8506 231.53Q21.3003 232.451 19.3716 232.451Q17.4246 232.451 15.8743 231.53Q14.324 230.602 13.4512 228.966Q12.5723 227.324 12.5723 225.304Q12.5723 223.552 13.1277 222.143Q13.677 220.727 14.7268 219.75L16.1245 221.154Q14.5498 222.753 14.5498 225.2Q14.5498 227.154 15.6606 228.527Q16.7715 229.9 18.572 230.175L18.572 223.528L20.3481 223.528L20.3481 230.126Q22.0754 229.802 23.1374 228.454Q24.1995 227.105 24.1995 225.2Q24.1995 222.777 22.6003 221.154L23.9736 219.75Q25.0478 220.727 25.5972 222.155Q26.1465 223.577 26.1465 225.304ZM12.7493 216.8L12.7493 214.401L18.3767 214.401L18.3767 206.851L12.7493 206.851L12.7493 204.452L26 204.452L26 206.851L20.4519 206.851L20.4519 214.401L26 214.401L26 216.8L12.7493 216.8ZM14.8489 189.899L14.8489 194.751L26 194.751L26 197.15L14.8489 197.15L14.8489 202.002L12.7493 202.002L12.7493 189.899L14.8489 189.899ZM12.7493 187.45L12.7493 185.051L26 185.051L26 187.45L12.7493 187.45ZM10.198 186.253Q10.198 186.949 9.75243 187.413Q9.30077 187.877 8.64769 187.877Q8.00072 187.877 7.53685 187.413Q7.07299 186.949 7.07299 186.253Q7.07299 185.551 7.51244 185.094Q7.95189 184.63 8.59887 184.63Q9.27636 184.63 9.74022 185.094Q10.198 185.551 10.198 186.253ZM19.1274 171.347Q19.7744 168.778 22.3501 168.778Q24.1018 168.778 25.0539 170.09Q26 171.402 26 174.003L26 180.375L12.7493 180.375L12.7493 174.222Q12.7493 171.872 13.6404 170.548Q14.5254 169.223 16.1489 169.223Q17.1987 169.223 17.9617 169.791Q18.7246 170.353 19.1274 171.347ZM18.4499 178.025L18.4499 174.424Q18.4499 173.05 17.9495 172.336Q17.449 171.622 16.5029 171.622Q14.5986 171.622 14.5986 174.424L14.5986 178.025L18.4499 178.025ZM24.1506 174.173Q24.1506 172.678 23.6745 171.927Q23.1985 171.177 22.1975 171.177Q21.1721 171.177 20.6777 171.866Q20.1772 172.55 20.1772 174.027L20.1772 178.025L24.1506 178.025L24.1506 174.173ZM26 150.023L20.928 153.85L26 157.72L26 160.399L19.2251 155.175L12.7493 160.149L12.7493 157.469L17.5222 153.82L12.7493 150.194L12.7493 147.57L19.2251 152.574L26 147.295L26 150.023ZM19.1274 135.747Q19.7744 133.178 22.3501 133.178Q24.1018 133.178 25.0539 134.49Q26 135.802 26 138.402L26 144.775L12.7493 144.775L12.7493 138.622Q12.7493 136.272 13.6404 134.948Q14.5254 133.623 16.1489 133.623Q17.1987 133.623 17.9617 134.191Q18.7246 134.753 19.1274 135.747ZM18.4499 142.425L18.4499 138.824Q18.4499 137.45 17.9494 136.736Q17.449 136.022 16.5029 136.022Q14.5986 136.022 14.5986 138.824L14.5986 142.425L18.4499 142.425ZM24.1506 138.573Q24.1506 137.078 23.6745 136.327Q23.1985 135.577 22.1975 135.577Q21.1721 135.577 20.6777 136.266Q20.1772 136.95 20.1772 138.427L20.1772 142.425L24.1506 142.425L24.1506 138.573ZM26.1526 123.748Q26.1526 125.726 25.2798 127.301Q24.4009 128.875 22.8628 129.766Q21.3247 130.651 19.3777 130.651Q17.4245 130.651 15.8865 129.766Q14.3484 128.875 13.4878 127.301Q12.6272 125.726 12.6272 123.748Q12.6272 121.777 13.4878 120.214Q14.3484 118.652 15.8865 117.767Q17.4245 116.876 19.3777 116.876Q21.3247 116.876 22.8628 117.767Q24.4009 118.652 25.2798 120.214Q26.1526 121.777 26.1526 123.748ZM24.053 123.748Q24.053 122.479 23.467 121.466Q22.875 120.452 21.813 119.879Q20.751 119.299 19.3777 119.299Q17.9983 119.299 16.9363 119.879Q15.8743 120.452 15.3005 121.466Q14.7268 122.479 14.7268 123.748Q14.7268 125.024 15.3005 126.037Q15.8743 127.05 16.9363 127.642Q17.9983 128.228 19.3777 128.228Q20.751 128.228 21.813 127.642Q22.875 127.05 23.467 126.037Q24.053 125.024 24.053 123.748ZM12.6272 106.374Q12.6272 104.452 13.4756 102.926Q14.324 101.4 15.8498 100.539Q17.3757 99.6789 19.3777 99.6789Q21.3735 99.6789 22.9116 100.539Q24.4497 101.4 25.3042 102.926Q26.1526 104.452 26.1526 106.374Q26.1526 107.803 25.6033 108.993Q25.0478 110.177 23.998 111.001L30.8523 111.001L30.8523 113.4L12.7493 113.4L12.7493 111.099L14.8489 111.099Q13.7502 110.299 13.1887 109.078Q12.6272 107.851 12.6272 106.374ZM24.053 106.576Q24.053 105.3 23.467 104.287Q22.875 103.274 21.813 102.688Q20.751 102.102 19.3777 102.102Q17.9983 102.102 16.9363 102.688Q15.8743 103.274 15.3005 104.287Q14.7268 105.3 14.7268 106.576Q14.7268 107.827 15.3127 108.84Q15.8987 109.853 16.9485 110.439Q17.9983 111.025 19.3777 111.025Q20.751 111.025 21.813 110.452Q22.875 109.878 23.467 108.852Q24.053 107.827 24.053 106.576ZM12.7493 96.1996L12.7493 93.8009L22.3989 93.8009L12.7493 85.6771L12.7493 83.4981L26 83.4981L26 85.9029L16.3503 85.9029L26 94.0023L26 96.1996L12.7493 96.1996ZM26 70.5732L20.928 74.4001L26 78.2697L26 80.9492L19.2251 75.7245L12.7493 80.6989L12.7493 78.0195L17.5222 74.3696L12.7493 70.7441L12.7493 68.1196L19.2251 73.1245L26 67.8449L26 70.5732ZM47.7493 359.387L47.7493 356.988L53.3767 356.988L53.3767 349.438L47.7493 349.438L47.7493 347.04L61 347.04L61 349.438L55.4519 349.438L55.4519 356.988L61 356.988L61 359.387L47.7493 359.387ZM47.6272 337.638Q47.6272 334.885 48.9761 333.427Q50.3249 331.962 52.9983 331.962L61 331.962L61 334.238L59.2483 334.238Q60.176 334.836 60.6643 335.953Q61.1526 337.064 61.1526 338.584Q61.1526 340.812 60.0784 342.148Q58.998 343.485 57.2524 343.485Q55.5007 343.485 54.4387 342.209Q53.3767 340.934 53.3767 338.163L53.3767 334.36L52.9006 334.36Q51.3503 334.36 50.5264 335.264Q49.7024 336.161 49.7024 337.913Q49.7024 339.084 50.093 340.214Q50.4775 341.337 51.1245 342.112L49.324 343.113Q48.5 342.087 48.0666 340.665Q47.6272 339.237 47.6272 337.638ZM59.2971 338.187Q59.2971 336.814 58.6868 335.813Q58.0764 334.812 56.9473 334.36L55.0979 334.36L55.0979 338.059Q55.0979 341.111 57.1487 341.111Q58.1497 341.111 58.7234 340.336Q59.2971 339.561 59.2971 338.187ZM45.6741 309.065L45.6741 318.062L61 318.037L61 320.515L43.5012 320.515L43.5012 309.035L45.6741 309.065ZM43.5012 299.242Q43.5012 295.842 45.1247 293.895Q46.7483 291.942 49.5986 291.942Q52.449 291.942 54.0786 293.895Q55.7021 295.842 55.7021 299.242L55.7021 303.563L61 303.563L61 306.065L43.5012 306.065L43.5012 299.242ZM53.5232 299.315Q53.5232 296.941 52.5161 295.689Q51.5029 294.438 49.5986 294.438Q47.7004 294.438 46.6873 295.689Q45.6741 296.941 45.6741 299.315L45.6741 303.563L53.5232 303.563L53.5232 299.315ZM51.9241 277.564Q52.3513 275.788 53.4377 274.879Q54.5242 273.963 56.227 273.963Q58.4976 273.963 59.7488 275.63Q61 277.29 61 280.464L61 288.465L43.5012 288.465L43.5012 280.94Q43.5012 278.065 44.667 276.454Q45.8267 274.836 47.9995 274.836Q49.4277 274.836 50.4287 275.55Q51.4236 276.264 51.9241 277.564ZM51.1977 285.987L51.1977 281.111Q51.1977 279.286 50.4775 278.327Q49.7512 277.363 48.3474 277.363Q46.9497 277.363 46.2112 278.34Q45.4726 279.31 45.4726 281.111L45.4726 285.987L51.1977 285.987ZM59.0225 280.512Q59.0225 276.49 56.0256 276.49Q54.5242 276.49 53.8162 277.503Q53.102 278.51 53.102 280.512L53.102 285.987L59.0225 285.987L59.0225 280.512ZM43.5012 269.79L43.5012 267.312L61 267.312L61 269.79L43.5012 269.79ZM47.7493 255.537L47.7493 253.138L61 253.138L61 255.537L47.7493 255.537ZM45.198 254.341Q45.198 255.037 44.7524 255.5Q44.3008 255.964 43.6477 255.964Q43.0007 255.964 42.5369 255.5Q42.073 255.037 42.073 254.341Q42.073 253.639 42.5124 253.181Q42.9519 252.717 43.5989 252.717Q44.2764 252.717 44.7402 253.181Q45.198 253.639 45.198 254.341ZM47.7493 241.737L47.7493 239.338L53.3767 239.338L53.3767 231.788L47.7493 231.788L47.7493 229.39L61 229.39L61 231.788L55.4519 231.788L55.4519 239.338L61 239.338L61 241.737L47.7493 241.737ZM47.6272 219.988Q47.6272 217.235 48.9761 215.777Q50.3249 214.312 52.9983 214.312L61 214.312L61 216.588L59.2483 216.588Q60.176 217.186 60.6643 218.303Q61.1526 219.414 61.1526 220.934Q61.1526 223.162 60.0784 224.498Q58.998 225.835 57.2524 225.835Q55.5007 225.835 54.4387 224.559Q53.3767 223.284 53.3767 220.513L53.3767 216.71L52.9006 216.71Q51.3503 216.71 50.5264 217.614Q49.7024 218.511 49.7024 220.263Q49.7024 221.434 50.093 222.564Q50.4775 223.687 51.1245 224.462L49.324 225.463Q48.5 224.437 48.0666 223.015Q47.6272 221.587 47.6272 219.988ZM59.2971 220.537Q59.2971 219.164 58.6868 218.163Q58.0764 217.162 56.9473 216.71L55.0979 216.71L55.0979 220.409Q55.0979 223.461 57.1487 223.461Q58.1497 223.461 58.7234 222.686Q59.2971 221.911 59.2971 220.537ZM49.8489 193.515L49.8489 200.863L61 200.863L61 203.262L47.7493 203.262L47.7493 193.515L49.8489 193.515ZM47.6272 184.037Q47.6272 182.114 48.4756 180.588Q49.324 179.063 50.8498 178.202Q52.3757 177.341 54.3777 177.341Q56.3735 177.341 57.9116 178.202Q59.4497 179.063 60.3042 180.588Q61.1526 182.114 61.1526 184.037Q61.1526 185.465 60.6033 186.655Q60.0478 187.839 58.998 188.663L65.8523 188.663L65.8523 191.062L47.7493 191.062L47.7493 188.761L49.8489 188.761Q48.7502 187.961 48.1887 186.741Q47.6272 185.514 47.6272 184.037ZM59.053 184.238Q59.053 182.963 58.467 181.95Q57.875 180.936 56.813 180.35Q55.751 179.764 54.3777 179.764Q52.9983 179.764 51.9363 180.35Q50.8743 180.936 50.3005 181.95Q49.7268 182.963 49.7268 184.238Q49.7268 185.49 50.3127 186.503Q50.8987 187.516 51.9485 188.102Q52.9983 188.688 54.3777 188.688Q55.751 188.688 56.813 188.114Q57.875 187.54 58.467 186.515Q59.053 185.49 59.053 184.238ZM47.7493 173.862L47.7493 171.463L57.3989 171.463L47.7493 163.34L47.7493 161.161L61 161.161L61 163.565L51.3503 163.565L61 171.665L61 173.862L47.7493 173.862ZM48.2009 149.762Q48.2009 147.912 49.0249 146.466Q49.8489 145.013 51.3137 144.201Q52.7724 143.389 54.6523 143.389Q56.5749 143.389 58.0642 144.25Q59.5474 145.111 60.3774 146.673Q61.2014 148.236 61.2014 150.238Q61.2014 153.613 58.8882 155.45Q56.5749 157.287 52.3757 157.287Q48.2986 157.287 45.9853 155.615Q43.6721 153.936 42.9275 150.488L41.5725 144.439L43.7759 144.085L44.9722 149.664Q45.552 152.264 46.9253 153.54Q48.2986 154.815 50.8743 154.986Q49.5986 154.138 48.9028 152.789Q48.2009 151.44 48.2009 149.762ZM59.1995 150.189Q59.1995 148.913 58.6257 147.924Q58.052 146.936 57.0388 146.386Q56.0256 145.837 54.7256 145.837Q52.748 145.837 51.5517 147.039Q50.3494 148.236 50.3494 150.189Q50.3494 152.136 51.5517 153.35Q52.748 154.565 54.7256 154.565Q56.0256 154.565 57.0388 154.004Q58.052 153.436 58.6257 152.441Q59.1995 151.44 59.1995 150.189ZM52.9495 130.189Q52.9495 132.112 51.6372 133.327Q50.3249 134.535 48.1277 134.535Q45.9243 134.535 44.612 133.327Q43.2998 132.112 43.2998 130.189Q43.2998 128.261 44.612 127.064Q45.9243 125.862 48.1277 125.862Q50.3249 125.862 51.6372 127.064Q52.9495 128.261 52.9495 130.189ZM43.5012 119.764L43.5012 116.786L61 128.737L61 131.715L43.5012 119.764ZM50.8987 130.189Q50.8987 129.335 50.2029 128.853Q49.501 128.364 48.1277 128.364Q46.7483 128.364 46.0525 128.853Q45.3506 129.335 45.3506 130.189Q45.3506 131.013 46.0647 131.514Q46.7727 132.014 48.1277 132.014Q49.4766 132.014 50.1907 131.514Q50.8987 131.013 50.8987 130.189ZM61.2014 118.312Q61.2014 119.563 60.6155 120.552Q60.0234 121.535 58.9248 122.09Q57.8262 122.639 56.3735 122.639Q54.927 122.639 53.8284 122.09Q52.7236 121.535 52.1377 120.552Q51.5517 119.563 51.5517 118.312Q51.5517 116.389 52.864 115.175Q54.1763 113.96 56.3735 113.96Q58.5769 113.96 59.8891 115.175Q61.2014 116.389 61.2014 118.312ZM59.1506 118.312Q59.1506 117.463 58.4365 116.975Q57.7224 116.487 56.3735 116.487Q55.0246 116.487 54.3166 116.975Q53.6025 117.463 53.6025 118.312Q53.6025 119.136 54.3044 119.636Q55.0002 120.137 56.3735 120.137Q57.7529 120.137 58.4548 119.636Q59.1506 119.136 59.1506 118.312Z" fill="#000000" fill-opacity="1.000000" fill-rule="evenodd"/>
	<path id="Line 2" d="M162.183 38L162.183 540L159.817 540L159.817 38L162.183 38ZM161 39.6719L155.148 45.5234C154.681 45.9922 153.944 45.9922 153.477 45.5234C153.009 45.0547 153.009 44.3203 153.477 43.8516L160.164 37.1641C160.632 36.6953 161.368 36.6953 161.836 37.1641L168.523 43.8516C168.991 44.3203 168.991 45.0547 168.523 45.5234C168.056 45.9922 167.319 45.9922 166.852 45.5234L161 39.6719Z" fill="#000000" fill-opacity="1.000000" fill-rule="evenodd"/>
	<path id="Rectangle 25" d="M414.279 426L490.721 426C502.473 426 512 435.527 512 447.279L512 538L393 538L393 447.279C393 435.527 402.527 426 414.279 426Z" fill="url(#paint_linear_85_5633_0)" fill-opacity="1.000000" fill-rule="evenodd"/>
	<path id="Rectangle 27" d="M831.279 49L907.721 49C919.473 49 929 58.5273 929 70.2793L929 538L810 538L810 70.2793C810 58.5273 819.527 49 831.279 49Z" fill="url(#paint_linear_85_5751_0)" fill-opacity="1.000000" fill-rule="evenodd"/>
	<path id="Rectangle 26" d="M285.279 490L361.721 490C373.473 490 383 499.527 383 511.279L383 538L264 538L264 511.279C264 499.527 273.527 490 285.279 490Z" fill="url(#paint_linear_85_5636_0)" fill-opacity="1.000000" fill-rule="evenodd"/>
	<path id="Rectangle 28" d="M702.279 275L778.721 275C790.473 275 800 284.527 800 296.279L800 538L681 538L681 296.279C681 284.527 690.527 275 702.279 275Z" fill="url(#paint_linear_85_5752_0)" fill-opacity="1.000000" fill-rule="evenodd"/>
	<path id="7%" d="M317.74 453.502L317.74 457.176L308.639 478L302.478 478L311.271 458.116L303.145 458.116L303.145 462.106L298.103 462.106L298.103 453.502L317.74 453.502ZM326.14 466.729Q323.448 466.729 321.748 464.892Q320.056 463.055 320.056 459.979Q320.056 456.894 321.748 455.057Q323.448 453.22 326.14 453.22Q328.84 453.22 330.515 455.057Q332.198 456.894 332.198 459.979Q332.198 463.055 330.515 464.892Q328.84 466.729 326.14 466.729ZM340.735 453.502L344.905 453.502L328.174 478L324.004 478L340.735 453.502ZM326.14 463.858Q327.336 463.858 328.011 462.884Q328.695 461.901 328.695 459.979Q328.695 458.048 328.011 457.073Q327.336 456.091 326.14 456.091Q324.986 456.091 324.286 457.091Q323.585 458.082 323.585 459.979Q323.585 461.867 324.286 462.867Q324.986 463.858 326.14 463.858ZM342.768 478.282Q341.017 478.282 339.632 477.462Q338.257 476.633 337.479 475.095Q336.71 473.557 336.71 471.523Q336.71 469.498 337.479 467.96Q338.257 466.413 339.632 465.593Q341.017 464.772 342.768 464.772Q345.46 464.772 347.16 466.61Q348.861 468.447 348.861 471.523Q348.861 474.608 347.16 476.445Q345.46 478.282 342.768 478.282ZM342.768 475.411Q343.956 475.411 344.64 474.411Q345.323 473.411 345.323 471.523Q345.323 469.635 344.64 468.643Q343.956 467.644 342.768 467.644Q341.615 467.644 340.914 468.626Q340.213 469.6 340.213 471.523Q340.213 473.454 340.914 474.437Q341.615 475.411 342.768 475.411Z" fill="#516ACF" fill-opacity="1.000000" fill-rule="evenodd"/>
	<path id="41%" d="M729.97 253.856L725.98 253.856L725.98 259L720.451 259L720.451 253.856L707.258 253.856L707.258 250.036L718.81 234.502L724.758 234.502L714.051 249.233L720.63 249.233L720.63 244.653L725.98 244.653L725.98 249.233L729.97 249.233L729.97 253.856ZM740.23 234.502L740.23 259L734.557 259L734.557 239.048L729.66 239.048L729.66 234.502L740.23 234.502ZM750.165 247.729Q747.473 247.729 745.773 245.892Q744.081 244.055 744.081 240.979Q744.081 237.894 745.773 236.057Q747.473 234.22 750.165 234.22Q752.865 234.22 754.54 236.057Q756.223 237.894 756.223 240.979Q756.223 244.055 754.54 245.892Q752.865 247.729 750.165 247.729ZM764.76 234.502L768.93 234.502L752.199 259L748.029 259L764.76 234.502ZM750.165 244.858Q751.361 244.858 752.036 243.884Q752.72 242.901 752.72 240.979Q752.72 239.048 752.036 238.073Q751.361 237.091 750.165 237.091Q749.011 237.091 748.311 238.091Q747.61 239.082 747.61 240.979Q747.61 242.867 748.311 243.867Q749.011 244.858 750.165 244.858ZM766.793 259.282Q765.042 259.282 763.657 258.462Q762.282 257.633 761.504 256.095Q760.735 254.557 760.735 252.523Q760.735 250.498 761.504 248.96Q762.282 247.413 763.657 246.593Q765.042 245.772 766.793 245.772Q769.485 245.772 771.185 247.61Q772.886 249.447 772.886 252.523Q772.886 255.608 771.185 257.445Q769.485 259.282 766.793 259.282ZM766.793 256.411Q767.981 256.411 768.665 255.411Q769.348 254.411 769.348 252.523Q769.348 250.635 768.665 249.643Q767.981 248.644 766.793 248.644Q765.64 248.644 764.939 249.626Q764.238 250.6 764.238 252.523Q764.238 254.454 764.939 255.437Q765.64 256.411 766.793 256.411Z" fill="#516ACF" fill-opacity="1.000000" fill-rule="evenodd"/>
	<path id="19%" d="M430.963 387.502L430.963 412L425.289 412L425.289 392.048L420.393 392.048L420.393 387.502L430.963 387.502ZM443.837 387.083Q448.981 387.083 451.886 390.219Q454.792 393.346 454.792 399.225Q454.792 403.387 453.236 406.369Q451.681 409.343 448.844 410.881Q446.007 412.419 442.299 412.419Q440.342 412.419 438.556 411.983Q436.77 411.547 435.514 410.744L437.608 406.574Q439.394 407.796 442.196 407.796Q445.307 407.796 447.127 405.959Q448.947 404.122 449.092 400.661Q446.887 402.865 443 402.865Q440.658 402.865 438.727 401.926Q436.804 400.977 435.685 399.242Q434.566 397.508 434.566 395.235Q434.566 392.782 435.788 390.928Q437.018 389.074 439.129 388.083Q441.248 387.083 443.837 387.083ZM444.264 398.627Q446.118 398.627 447.289 397.602Q448.46 396.568 448.46 394.953Q448.46 393.346 447.323 392.33Q446.187 391.313 444.187 391.313Q442.367 391.313 441.231 392.295Q440.094 393.278 440.094 394.953Q440.094 396.636 441.231 397.636Q442.367 398.627 444.264 398.627ZM463.192 400.729Q460.501 400.729 458.8 398.892Q457.108 397.055 457.108 393.979Q457.108 390.894 458.8 389.057Q460.501 387.22 463.192 387.22Q465.893 387.22 467.567 389.057Q469.251 390.894 469.251 393.979Q469.251 397.055 467.567 398.892Q465.893 400.729 463.192 400.729ZM477.787 387.502L481.957 387.502L465.226 412L461.056 412L477.787 387.502ZM463.192 397.858Q464.389 397.858 465.064 396.884Q465.747 395.901 465.747 393.979Q465.747 392.048 465.064 391.073Q464.389 390.091 463.192 390.091Q462.039 390.091 461.338 391.091Q460.638 392.082 460.638 393.979Q460.638 395.867 461.338 396.867Q462.039 397.858 463.192 397.858ZM479.821 412.282Q478.069 412.282 476.685 411.462Q475.309 410.633 474.532 409.095Q473.763 407.557 473.763 405.523Q473.763 403.498 474.532 401.96Q475.309 400.413 476.685 399.593Q478.069 398.772 479.821 398.772Q482.513 398.772 484.213 400.61Q485.913 402.447 485.913 405.523Q485.913 408.608 484.213 410.445Q482.513 412.282 479.821 412.282ZM479.821 409.411Q481.009 409.411 481.692 408.411Q482.376 407.411 482.376 405.523Q482.376 403.635 481.692 402.643Q481.009 401.644 479.821 401.644Q478.667 401.644 477.967 402.626Q477.266 403.6 477.266 405.523Q477.266 407.454 477.967 408.437Q478.667 409.411 479.821 409.411Z" fill="#737373" fill-opacity="1.000000" fill-rule="evenodd"/>
	<path id="79%" d="M853.697 12.5017L853.697 16.176L844.597 37L838.436 37L847.229 17.116L839.102 17.116L839.102 21.1064L834.061 21.1064L834.061 12.5017L853.697 12.5017ZM864.827 12.083Q869.971 12.083 872.876 15.219Q875.781 18.3464 875.781 24.2253Q875.781 28.3867 874.226 31.3689Q872.671 34.3425 869.834 35.8806Q866.997 37.4187 863.289 37.4187Q861.332 37.4187 859.546 36.9829Q857.76 36.5471 856.504 35.7439L858.598 31.574Q860.384 32.7959 863.186 32.7959Q866.297 32.7959 868.117 30.9587Q869.937 29.1216 870.082 25.6609Q867.877 27.8655 863.99 27.8655Q861.648 27.8655 859.717 26.9255Q857.794 25.9771 856.675 24.2424Q855.556 22.5078 855.556 20.2349Q855.556 17.7825 856.778 15.9282Q858.008 14.074 860.119 13.0828Q862.238 12.083 864.827 12.083ZM865.254 23.6272Q867.108 23.6272 868.279 22.6018Q869.45 21.5679 869.45 19.9529Q869.45 18.3464 868.313 17.3296Q867.177 16.3127 865.177 16.3127Q863.357 16.3127 862.221 17.2954Q861.084 18.2781 861.084 19.9529Q861.084 21.6362 862.221 22.636Q863.357 23.6272 865.254 23.6272ZM884.182 25.7292Q881.491 25.7292 879.79 23.8921Q878.099 22.0549 878.099 18.9788Q878.099 15.894 879.79 14.0569Q881.491 12.2197 884.182 12.2197Q886.883 12.2197 888.557 14.0569Q890.241 15.894 890.241 18.9788Q890.241 22.0549 888.557 23.8921Q886.883 25.7292 884.182 25.7292ZM898.777 12.5017L902.947 12.5017L886.216 37L882.046 37L898.777 12.5017ZM884.182 22.8582Q885.379 22.8582 886.054 21.884Q886.737 20.9014 886.737 18.9788Q886.737 17.0476 886.054 16.0735Q885.379 15.0908 884.182 15.0908Q883.029 15.0908 882.328 16.0906Q881.628 17.0818 881.628 18.9788Q881.628 20.8672 882.328 21.8669Q883.029 22.8582 884.182 22.8582ZM900.811 37.282Q899.059 37.282 897.675 36.4617Q896.299 35.6328 895.522 34.0947Q894.753 32.5566 894.753 30.5229Q894.753 28.4978 895.522 26.9597Q896.299 25.4131 897.675 24.5928Q899.059 23.7725 900.811 23.7725Q903.503 23.7725 905.203 25.6096Q906.903 27.4468 906.903 30.5229Q906.903 33.6077 905.203 35.4448Q903.503 37.282 900.811 37.282ZM900.811 34.4109Q901.999 34.4109 902.682 33.4111Q903.366 32.4114 903.366 30.5229Q903.366 28.6345 902.682 27.6433Q901.999 26.6436 900.811 26.6436Q899.657 26.6436 898.957 27.6262Q898.256 28.6003 898.256 30.5229Q898.256 32.4541 898.957 33.4368Q899.657 34.4109 900.811 34.4109Z" fill="#737373" fill-opacity="1.000000" fill-rule="evenodd"/>
	<path id="Line 3" d="M1047 541.182L161 541.182L161 538.818L1047 538.818L1047 541.182ZM1045.33 540L1039.48 534.148C1039.01 533.68 1039.01 532.945 1039.48 532.477C1039.94 532.008 1040.68 532.008 1041.15 532.477L1047.84 539.164C1048.3 539.633 1048.3 540.367 1047.84 540.836L1041.15 547.523C1040.68 547.992 1039.94 547.992 1039.48 547.523C1039.01 547.055 1039.01 546.32 1039.48 545.852L1045.33 540Z" fill="#000000" fill-opacity="1.000000" fill-rule="evenodd"/>
	<path id="Line 8" d="M160.652 478L148.83 478" stroke="#000000" stroke-opacity="1.000000" stroke-width="1.182186" stroke-linecap="round"/>
	<path id="Line 9" d="M160.652 415L148.83 415" stroke="#000000" stroke-opacity="1.000000" stroke-width="1.182186" stroke-linecap="round"/>
	<path id="Line 10" d="M160.652 352L148.83 352" stroke="#000000" stroke-opacity="1.000000" stroke-width="1.182186" stroke-linecap="round"/>
	<path id="Line 11" d="M160.652 289L148.83 289" stroke="#000000" stroke-opacity="1.000000" stroke-width="1.182186" stroke-linecap="round"/>
	<path id="Line 12" d="M160.652 226L148.83 226" stroke="#000000" stroke-opacity="1.000000" stroke-width="1.182186" stroke-linecap="round"/>
	<path id="Line 13" d="M160.652 163L148.83 163" stroke="#000000" stroke-opacity="1.000000" stroke-width="1.182186" stroke-linecap="round"/>
	<path id="Line 14" d="M160.652 100L148.83 100" stroke="#000000" stroke-opacity="1.000000" stroke-width="1.182186" stroke-linecap="round"/>
	<path id="захворіло грип" d="M292.637 591.43Q293.771 591.791 294.408 592.59Q295.05 593.39 295.05 594.471Q295.05 595.605 294.311 596.444Q293.573 597.279 292.338 597.732Q291.108 598.18 289.649 598.18Q288.388 598.18 287.118 597.829Q285.852 597.477 284.771 596.774L285.527 595.064Q286.353 595.623 287.359 595.921Q288.37 596.216 289.359 596.216Q290.783 596.216 291.728 595.662Q292.672 595.104 292.672 594.128Q292.672 593.302 291.987 592.872Q291.306 592.437 290.097 592.437L287.166 592.437L287.166 590.604L289.917 590.604Q290.963 590.604 291.556 590.173Q292.149 589.738 292.149 589Q292.149 588.117 291.35 587.633Q290.55 587.146 289.306 587.146Q288.458 587.146 287.557 587.392Q286.661 587.633 285.87 588.099L285.131 586.209Q286.103 585.687 287.192 585.427Q288.282 585.168 289.359 585.168Q290.765 585.168 291.943 585.599Q293.121 586.029 293.824 586.833Q294.527 587.633 294.527 588.71Q294.527 589.646 294.021 590.349Q293.516 591.052 292.637 591.43ZM306.046 595.082L299.744 595.082L298.501 598L296.093 598L301.762 585.401L304.064 585.401L309.751 598L307.303 598L306.046 595.082ZM305.268 593.25L302.895 587.739L300.535 593.25L305.268 593.25ZM312.507 585.401L315.478 589.611L318.449 585.401L321.182 585.401L316.954 591.448L321.525 598L318.752 598L315.478 593.412L312.222 598L309.519 598L314.076 591.54L309.809 585.401L312.507 585.401ZM331.391 591.448Q332.596 591.773 333.224 592.555Q333.857 593.337 333.857 594.506Q333.857 596.163 332.631 597.082Q331.409 598 329.084 598L323.112 598L323.112 585.401L328.746 585.401Q330.869 585.401 332.055 586.249Q333.246 587.093 333.246 588.64Q333.246 589.628 332.767 590.349Q332.288 591.07 331.391 591.448ZM325.415 590.784L328.544 590.784Q329.682 590.784 330.275 590.336Q330.869 589.883 330.869 589Q330.869 588.117 330.275 587.66Q329.682 587.198 328.544 587.198L325.415 587.198L325.415 590.784ZM329.014 596.198Q331.497 596.198 331.497 594.326Q331.497 592.494 329.014 592.494L325.415 592.494L325.415 596.198L329.014 596.198ZM342.35 598.18Q340.425 598.18 338.878 597.345Q337.331 596.506 336.448 595.021Q335.565 593.535 335.565 591.698Q335.565 589.866 336.448 588.38Q337.331 586.895 338.878 586.06Q340.425 585.221 342.35 585.221Q344.279 585.221 345.826 586.06Q347.373 586.895 348.256 588.372Q349.139 589.848 349.139 591.698Q349.139 593.553 348.256 595.029Q347.373 596.506 345.826 597.345Q344.279 598.18 342.35 598.18ZM342.35 596.128Q343.611 596.128 344.617 595.561Q345.628 594.994 346.204 593.979Q346.779 592.959 346.779 591.698Q346.779 590.441 346.204 589.426Q345.628 588.407 344.617 587.84Q343.611 587.273 342.35 587.273Q341.093 587.273 340.082 587.84Q339.076 588.407 338.5 589.426Q337.924 590.441 337.924 591.698Q337.924 592.959 338.5 593.979Q339.076 594.994 340.082 595.561Q341.093 596.128 342.35 596.128ZM356.914 585.401Q358.549 585.401 359.761 585.941Q360.979 586.482 361.625 587.488Q362.275 588.495 362.275 589.883Q362.275 591.25 361.625 592.27Q360.979 593.285 359.761 593.825Q358.549 594.366 356.914 594.366L354.07 594.366L354.07 598L351.728 598L351.728 585.401L356.914 585.401ZM356.804 592.384Q358.333 592.384 359.124 591.738Q359.92 591.087 359.92 589.883Q359.92 588.675 359.124 588.029Q358.333 587.378 356.804 587.378L354.07 587.378L354.07 592.384L356.804 592.384ZM364.512 585.401L366.815 585.401L366.815 598L364.512 598L364.512 585.401ZM380.999 585.401L380.999 598L378.696 598L378.696 587.378L373.726 587.378L373.616 590.529Q373.528 593.175 373.185 594.823Q372.843 596.471 372.087 597.328Q371.331 598.18 369.999 598.18Q369.533 598.18 368.72 598L368.883 595.965Q369.116 596.04 369.424 596.04Q370.522 596.04 370.979 594.735Q371.441 593.43 371.546 590.622L371.726 585.401L380.999 585.401ZM390.374 598.18Q388.449 598.18 386.902 597.345Q385.355 596.506 384.472 595.021Q383.589 593.535 383.589 591.698Q383.589 589.866 384.472 588.38Q385.355 586.895 386.902 586.06Q388.449 585.221 390.374 585.221Q392.303 585.221 393.85 586.06Q395.397 586.895 396.28 588.372Q397.163 589.848 397.163 591.698Q397.163 593.553 396.28 595.029Q395.397 596.506 393.85 597.345Q392.303 598.18 390.374 598.18ZM390.374 596.128Q391.635 596.128 392.641 595.561Q393.652 594.994 394.228 593.979Q394.803 592.959 394.803 591.698Q394.803 590.441 394.228 589.426Q393.652 588.407 392.641 587.84Q391.635 587.273 390.374 587.273Q389.117 587.273 388.106 587.84Q387.1 588.407 386.524 589.426Q385.948 590.441 385.948 591.698Q385.948 592.959 386.524 593.979Q387.1 594.994 388.106 595.561Q389.117 596.128 390.374 596.128ZM413.272 587.378L407.027 587.378L407.045 598L404.742 598L404.742 585.401L413.29 585.401L413.272 587.378ZM420.436 585.401Q422.071 585.401 423.283 585.941Q424.501 586.482 425.147 587.488Q425.797 588.495 425.797 589.883Q425.797 591.25 425.147 592.27Q424.501 593.285 423.283 593.825Q422.071 594.366 420.436 594.366L417.592 594.366L417.592 598L415.25 598L415.25 585.401L420.436 585.401ZM420.326 592.384Q421.855 592.384 422.646 591.738Q423.442 591.087 423.442 589.883Q423.442 588.675 422.646 588.029Q421.855 587.378 420.326 587.378L417.592 587.378L417.592 592.384L420.326 592.384ZM428.034 585.401L430.337 585.401L430.337 594.348L437.104 585.401L439.28 585.401L439.28 598L436.977 598L436.977 589.07L430.209 598L428.034 598L428.034 585.401ZM453.97 585.401L453.97 598L451.668 598L451.668 587.378L445.133 587.378L445.133 598L442.83 598L442.83 585.401L453.97 585.401Z" fill="#000000" fill-opacity="1.000000" fill-rule="evenodd"/>
	<path id="захворіло на грві" d="M719.401 591.43Q720.535 591.791 721.172 592.59Q721.814 593.39 721.814 594.471Q721.814 595.605 721.076 596.444Q720.337 597.279 719.102 597.732Q717.872 598.18 716.413 598.18Q715.152 598.18 713.882 597.829Q712.616 597.477 711.535 596.774L712.291 595.064Q713.117 595.623 714.123 595.921Q715.134 596.216 716.123 596.216Q717.547 596.216 718.492 595.662Q719.436 595.104 719.436 594.128Q719.436 593.302 718.751 592.872Q718.07 592.437 716.861 592.437L713.93 592.437L713.93 590.604L716.681 590.604Q717.727 590.604 718.32 590.173Q718.913 589.738 718.913 589Q718.913 588.117 718.114 587.633Q717.314 587.146 716.07 587.146Q715.222 587.146 714.321 587.392Q713.425 587.633 712.634 588.099L711.895 586.209Q712.867 585.687 713.956 585.427Q715.046 585.168 716.123 585.168Q717.529 585.168 718.707 585.599Q719.885 586.029 720.588 586.833Q721.291 587.633 721.291 588.71Q721.291 589.646 720.785 590.349Q720.28 591.052 719.401 591.43ZM732.81 595.082L726.508 595.082L725.265 598L722.857 598L728.526 585.401L730.828 585.401L736.515 598L734.067 598L732.81 595.082ZM732.032 593.25L729.659 587.739L727.299 593.25L732.032 593.25ZM739.271 585.401L742.242 589.611L745.213 585.401L747.946 585.401L743.718 591.448L748.289 598L745.516 598L742.242 593.412L738.986 598L736.283 598L740.84 591.54L736.573 585.401L739.271 585.401ZM758.156 591.448Q759.36 591.773 759.988 592.555Q760.621 593.337 760.621 594.506Q760.621 596.163 759.395 597.082Q758.173 598 755.848 598L749.876 598L749.876 585.401L755.51 585.401Q757.633 585.401 758.819 586.249Q760.01 587.093 760.01 588.64Q760.01 589.628 759.531 590.349Q759.052 591.07 758.156 591.448ZM752.179 590.784L755.308 590.784Q756.446 590.784 757.039 590.336Q757.633 589.883 757.633 589Q757.633 588.117 757.039 587.66Q756.446 587.198 755.308 587.198L752.179 587.198L752.179 590.784ZM755.778 596.198Q758.261 596.198 758.261 594.326Q758.261 592.494 755.778 592.494L752.179 592.494L752.179 596.198L755.778 596.198ZM769.114 598.18Q767.189 598.18 765.642 597.345Q764.095 596.506 763.212 595.021Q762.329 593.535 762.329 591.698Q762.329 589.866 763.212 588.38Q764.095 586.895 765.642 586.06Q767.189 585.221 769.114 585.221Q771.043 585.221 772.59 586.06Q774.137 586.895 775.02 588.372Q775.903 589.848 775.903 591.698Q775.903 593.553 775.02 595.029Q774.137 596.506 772.59 597.345Q771.043 598.18 769.114 598.18ZM769.114 596.128Q770.375 596.128 771.381 595.561Q772.392 594.994 772.968 593.979Q773.543 592.959 773.543 591.698Q773.543 590.441 772.968 589.426Q772.392 588.407 771.381 587.84Q770.375 587.273 769.114 587.273Q767.857 587.273 766.846 587.84Q765.84 588.407 765.264 589.426Q764.688 590.441 764.688 591.698Q764.688 592.959 765.264 593.979Q765.84 594.994 766.846 595.561Q767.857 596.128 769.114 596.128ZM783.678 585.401Q785.312 585.401 786.525 585.941Q787.743 586.482 788.389 587.488Q789.039 588.495 789.039 589.883Q789.039 591.25 788.389 592.27Q787.743 593.285 786.525 593.825Q785.312 594.366 783.678 594.366L780.834 594.366L780.834 598L778.492 598L778.492 585.401L783.678 585.401ZM783.568 592.384Q785.097 592.384 785.888 591.738Q786.684 591.087 786.684 589.883Q786.684 588.675 785.888 588.029Q785.097 587.378 783.568 587.378L780.834 587.378L780.834 592.384L783.568 592.384ZM791.276 585.401L793.579 585.401L793.579 598L791.276 598L791.276 585.401ZM807.763 585.401L807.763 598L805.46 598L805.46 587.378L800.49 587.378L800.38 590.529Q800.292 593.175 799.949 594.823Q799.607 596.471 798.851 597.328Q798.095 598.18 796.763 598.18Q796.297 598.18 795.484 598L795.647 595.965Q795.88 596.04 796.188 596.04Q797.286 596.04 797.743 594.735Q798.205 593.43 798.31 590.622L798.49 585.401L807.763 585.401ZM817.138 598.18Q815.213 598.18 813.666 597.345Q812.119 596.506 811.236 595.021Q810.353 593.535 810.353 591.698Q810.353 589.866 811.236 588.38Q812.119 586.895 813.666 586.06Q815.213 585.221 817.138 585.221Q819.067 585.221 820.614 586.06Q822.161 586.895 823.044 588.372Q823.927 589.848 823.927 591.698Q823.927 593.553 823.044 595.029Q822.161 596.506 820.614 597.345Q819.067 598.18 817.138 598.18ZM817.138 596.128Q818.399 596.128 819.405 595.561Q820.416 594.994 820.992 593.979Q821.567 592.959 821.567 591.698Q821.567 590.441 820.992 589.426Q820.416 588.407 819.405 587.84Q818.399 587.273 817.138 587.273Q815.881 587.273 814.87 587.84Q813.864 588.407 813.288 589.426Q812.712 590.441 812.712 591.698Q812.712 592.959 813.288 593.979Q813.864 594.994 814.87 595.561Q815.881 596.128 817.138 596.128ZM842.682 585.401L842.682 598L840.339 598L840.339 592.599L833.826 592.599L833.826 598L831.484 598L831.484 585.401L833.826 585.401L833.826 590.604L840.339 590.604L840.339 585.401L842.682 585.401ZM854.562 595.082L848.26 595.082L847.017 598L844.609 598L850.278 585.401L852.58 585.401L858.267 598L855.819 598L854.562 595.082ZM853.784 593.25L851.411 587.739L849.052 593.25L853.784 593.25ZM873.714 587.378L867.469 587.378L867.487 598L865.184 598L865.184 585.401L873.732 585.401L873.714 587.378ZM880.878 585.401Q882.513 585.401 883.725 585.941Q884.943 586.482 885.589 587.488Q886.239 588.495 886.239 589.883Q886.239 591.25 885.589 592.27Q884.943 593.285 883.725 593.825Q882.513 594.366 880.878 594.366L878.034 594.366L878.034 598L875.692 598L875.692 585.401L880.878 585.401ZM880.768 592.384Q882.297 592.384 883.088 591.738Q883.884 591.087 883.884 589.883Q883.884 588.675 883.088 588.029Q882.297 587.378 880.768 587.378L878.034 587.378L878.034 592.384L880.768 592.384ZM896.755 591.448Q897.96 591.773 898.588 592.555Q899.221 593.337 899.221 594.506Q899.221 596.163 897.995 597.082Q896.773 598 894.448 598L888.476 598L888.476 585.401L894.11 585.401Q896.233 585.401 897.419 586.249Q898.61 587.093 898.61 588.64Q898.61 589.628 898.131 590.349Q897.652 591.07 896.755 591.448ZM890.779 590.784L893.908 590.784Q895.046 590.784 895.639 590.336Q896.233 589.883 896.233 589Q896.233 588.117 895.639 587.66Q895.046 587.198 893.908 587.198L890.779 587.198L890.779 590.784ZM894.378 596.198Q896.861 596.198 896.861 594.326Q896.861 592.494 894.378 592.494L890.779 592.494L890.779 596.198L894.378 596.198ZM901.904 585.401L904.207 585.401L904.207 598L901.904 598L901.904 585.401Z" fill="#000000" fill-opacity="1.000000" fill-rule="evenodd"/>
	<path id="10%" d="M115.624 470.76L115.624 484L114.262 484L114.262 471.97L111.14 471.97L111.14 470.76L115.624 470.76ZM124.06 484.115Q122.527 484.115 121.326 483.303Q120.125 482.485 119.451 480.966Q118.781 479.442 118.781 477.378Q118.781 475.318 119.451 473.794Q120.125 472.271 121.326 471.458Q122.527 470.645 124.06 470.645Q125.593 470.645 126.793 471.458Q127.994 472.271 128.673 473.794Q129.356 475.318 129.356 477.378Q129.356 479.442 128.673 480.966Q127.994 482.485 126.793 483.303Q125.593 484.115 124.06 484.115ZM124.06 482.864Q125.214 482.864 126.092 482.222Q126.974 481.58 127.463 480.352Q127.957 479.119 127.957 477.378Q127.957 475.642 127.463 474.413Q126.974 473.18 126.092 472.538Q125.214 471.896 124.06 471.896Q122.905 471.896 122.023 472.538Q121.146 473.18 120.652 474.413Q120.162 475.642 120.162 477.378Q120.162 479.119 120.652 480.352Q121.146 481.58 122.023 482.222Q122.905 482.864 124.06 482.864ZM134.102 477.854Q132.758 477.854 131.936 476.861Q131.114 475.868 131.114 474.261Q131.114 472.649 131.936 471.656Q132.758 470.663 134.102 470.663Q135.427 470.663 136.258 471.647Q137.089 472.631 137.089 474.261Q137.089 475.886 136.258 476.87Q135.427 477.854 134.102 477.854ZM142.123 470.76L143.24 470.76L134.199 484L133.081 484L142.123 470.76ZM134.102 476.999Q135.03 476.999 135.589 476.274Q136.147 475.545 136.147 474.261Q136.147 472.972 135.589 472.247Q135.03 471.518 134.102 471.518Q133.155 471.518 132.605 472.257Q132.06 472.991 132.06 474.261Q132.06 475.526 132.605 476.265Q133.155 476.999 134.102 476.999ZM142.215 484.092Q140.895 484.092 140.059 483.1Q139.227 482.107 139.227 480.5Q139.227 478.893 140.059 477.9Q140.895 476.907 142.215 476.907Q143.559 476.907 144.381 477.9Q145.208 478.893 145.208 480.5Q145.208 482.107 144.381 483.1Q143.559 484.092 142.215 484.092ZM142.215 483.243Q143.162 483.243 143.711 482.508Q144.261 481.77 144.261 480.5Q144.261 479.234 143.711 478.495Q143.162 477.757 142.215 477.757Q141.292 477.757 140.733 478.486Q140.174 479.216 140.174 480.5Q140.174 481.788 140.733 482.518Q141.292 483.243 142.215 483.243Z" fill="#000000" fill-opacity="1.000000" fill-rule="evenodd"/>
	<path id="20%" d="M117.155 419.79L117.155 421L107.869 421L107.869 420.035L113.373 414.646Q114.412 413.625 114.782 412.877Q115.151 412.129 115.151 411.372Q115.151 410.199 114.348 409.548Q113.544 408.896 112.048 408.896Q109.72 408.896 108.437 410.37L107.471 409.538Q108.247 408.629 109.448 408.139Q110.649 407.645 112.163 407.645Q114.186 407.645 115.368 408.601Q116.55 409.557 116.55 411.219Q116.55 412.244 116.093 413.191Q115.641 414.133 114.375 415.362L109.873 419.79L117.155 419.79ZM124.06 421.115Q122.527 421.115 121.326 420.303Q120.125 419.485 119.451 417.966Q118.781 416.442 118.781 414.378Q118.781 412.318 119.451 410.794Q120.125 409.271 121.326 408.458Q122.527 407.645 124.06 407.645Q125.593 407.645 126.793 408.458Q127.994 409.271 128.673 410.794Q129.356 412.318 129.356 414.378Q129.356 416.442 128.673 417.966Q127.994 419.485 126.793 420.303Q125.593 421.115 124.06 421.115ZM124.06 419.864Q125.214 419.864 126.092 419.222Q126.974 418.58 127.463 417.352Q127.957 416.119 127.957 414.378Q127.957 412.642 127.463 411.413Q126.974 410.18 126.092 409.538Q125.214 408.896 124.06 408.896Q122.905 408.896 122.023 409.538Q121.146 410.18 120.652 411.413Q120.162 412.642 120.162 414.378Q120.162 416.119 120.652 417.352Q121.146 418.58 122.023 419.222Q122.905 419.864 124.06 419.864ZM134.102 414.854Q132.758 414.854 131.936 413.861Q131.114 412.868 131.114 411.261Q131.114 409.649 131.936 408.656Q132.758 407.663 134.102 407.663Q135.427 407.663 136.258 408.647Q137.089 409.631 137.089 411.261Q137.089 412.886 136.258 413.87Q135.427 414.854 134.102 414.854ZM142.123 407.76L143.24 407.76L134.199 421L133.081 421L142.123 407.76ZM134.102 413.999Q135.03 413.999 135.589 413.274Q136.147 412.545 136.147 411.261Q136.147 409.972 135.589 409.247Q135.03 408.518 134.102 408.518Q133.155 408.518 132.605 409.257Q132.06 409.991 132.06 411.261Q132.06 412.526 132.605 413.265Q133.155 413.999 134.102 413.999ZM142.215 421.092Q140.895 421.092 140.059 420.1Q139.227 419.107 139.227 417.5Q139.227 415.893 140.059 414.9Q140.895 413.907 142.215 413.907Q143.559 413.907 144.381 414.9Q145.208 415.893 145.208 417.5Q145.208 419.107 144.381 420.1Q143.559 421.092 142.215 421.092ZM142.215 420.243Q143.162 420.243 143.711 419.508Q144.261 418.77 144.261 417.5Q144.261 416.234 143.711 415.495Q143.162 414.757 142.215 414.757Q141.292 414.757 140.733 415.486Q140.174 416.216 140.174 417.5Q140.174 418.788 140.733 419.518Q141.292 420.243 142.215 420.243Z" fill="#000000" fill-opacity="1.000000" fill-rule="evenodd"/>
	<path id="30%" d="M112.616 350.436Q114.694 350.547 115.779 351.558Q116.869 352.569 116.869 354.199Q116.869 355.331 116.319 356.213Q115.774 357.09 114.694 357.603Q113.618 358.115 112.066 358.115Q110.63 358.115 109.351 357.654Q108.076 357.187 107.301 356.411L107.961 355.331Q108.626 356.014 109.72 356.439Q110.819 356.864 112.066 356.864Q113.692 356.864 114.578 356.157Q115.47 355.446 115.47 354.199Q115.47 352.966 114.578 352.269Q113.692 351.567 111.895 351.567L110.949 351.567L110.949 350.565L114.62 345.97L107.85 345.97L107.85 344.76L116.361 344.76L116.361 345.726L112.616 350.436ZM124.06 358.115Q122.527 358.115 121.326 357.303Q120.125 356.485 119.451 354.966Q118.781 353.442 118.781 351.378Q118.781 349.318 119.451 347.794Q120.125 346.271 121.326 345.458Q122.527 344.645 124.06 344.645Q125.593 344.645 126.793 345.458Q127.994 346.271 128.673 347.794Q129.356 349.318 129.356 351.378Q129.356 353.442 128.673 354.966Q127.994 356.485 126.793 357.303Q125.593 358.115 124.06 358.115ZM124.06 356.864Q125.214 356.864 126.092 356.222Q126.974 355.58 127.463 354.352Q127.957 353.119 127.957 351.378Q127.957 349.642 127.463 348.413Q126.974 347.18 126.092 346.538Q125.214 345.896 124.06 345.896Q122.905 345.896 122.023 346.538Q121.146 347.18 120.652 348.413Q120.162 349.642 120.162 351.378Q120.162 353.119 120.652 354.352Q121.146 355.58 122.023 356.222Q122.905 356.864 124.06 356.864ZM134.102 351.854Q132.758 351.854 131.936 350.861Q131.114 349.868 131.114 348.261Q131.114 346.649 131.936 345.656Q132.758 344.663 134.102 344.663Q135.427 344.663 136.258 345.647Q137.089 346.631 137.089 348.261Q137.089 349.886 136.258 350.87Q135.427 351.854 134.102 351.854ZM142.123 344.76L143.24 344.76L134.199 358L133.081 358L142.123 344.76ZM134.102 350.999Q135.03 350.999 135.589 350.274Q136.147 349.545 136.147 348.261Q136.147 346.972 135.589 346.247Q135.03 345.518 134.102 345.518Q133.155 345.518 132.605 346.257Q132.06 346.991 132.06 348.261Q132.06 349.526 132.605 350.265Q133.155 350.999 134.102 350.999ZM142.215 358.092Q140.895 358.092 140.059 357.1Q139.227 356.107 139.227 354.5Q139.227 352.893 140.059 351.9Q140.895 350.907 142.215 350.907Q143.559 350.907 144.381 351.9Q145.208 352.893 145.208 354.5Q145.208 356.107 144.381 357.1Q143.559 358.092 142.215 358.092ZM142.215 357.243Q143.162 357.243 143.711 356.508Q144.261 355.77 144.261 354.5Q144.261 353.234 143.711 352.495Q143.162 351.757 142.215 351.757Q141.292 351.757 140.733 352.486Q140.174 353.216 140.174 354.5Q140.174 355.788 140.733 356.518Q141.292 357.243 142.215 357.243Z" fill="#000000" fill-opacity="1.000000" fill-rule="evenodd"/>
	<path id="40%" d="M117.532 291.518L114.886 291.518L114.886 295L113.524 295L113.524 291.518L106.052 291.518L106.052 290.534L113.067 281.76L114.582 281.76L107.812 290.308L113.561 290.308L113.561 287.247L114.886 287.247L114.886 290.308L117.532 290.308L117.532 291.518ZM124.06 295.115Q122.527 295.115 121.326 294.303Q120.125 293.485 119.451 291.966Q118.781 290.442 118.781 288.378Q118.781 286.318 119.451 284.794Q120.125 283.271 121.326 282.458Q122.527 281.645 124.06 281.645Q125.593 281.645 126.793 282.458Q127.994 283.271 128.673 284.794Q129.356 286.318 129.356 288.378Q129.356 290.442 128.673 291.966Q127.994 293.485 126.793 294.303Q125.593 295.115 124.06 295.115ZM124.06 293.864Q125.214 293.864 126.092 293.222Q126.974 292.58 127.463 291.352Q127.957 290.119 127.957 288.378Q127.957 286.642 127.463 285.413Q126.974 284.18 126.092 283.538Q125.214 282.896 124.06 282.896Q122.905 282.896 122.023 283.538Q121.146 284.18 120.652 285.413Q120.162 286.642 120.162 288.378Q120.162 290.119 120.652 291.352Q121.146 292.58 122.023 293.222Q122.905 293.864 124.06 293.864ZM134.102 288.854Q132.758 288.854 131.936 287.861Q131.114 286.868 131.114 285.261Q131.114 283.649 131.936 282.656Q132.758 281.663 134.102 281.663Q135.427 281.663 136.258 282.647Q137.089 283.631 137.089 285.261Q137.089 286.886 136.258 287.87Q135.427 288.854 134.102 288.854ZM142.123 281.76L143.24 281.76L134.199 295L133.081 295L142.123 281.76ZM134.102 287.999Q135.03 287.999 135.589 287.274Q136.147 286.545 136.147 285.261Q136.147 283.972 135.589 283.247Q135.03 282.518 134.102 282.518Q133.155 282.518 132.605 283.257Q132.06 283.991 132.06 285.261Q132.06 286.526 132.605 287.265Q133.155 287.999 134.102 287.999ZM142.215 295.092Q140.895 295.092 140.059 294.1Q139.227 293.107 139.227 291.5Q139.227 289.893 140.059 288.9Q140.895 287.907 142.215 287.907Q143.559 287.907 144.381 288.9Q145.208 289.893 145.208 291.5Q145.208 293.107 144.381 294.1Q143.559 295.092 142.215 295.092ZM142.215 294.243Q143.162 294.243 143.711 293.508Q144.261 292.77 144.261 291.5Q144.261 290.234 143.711 289.495Q143.162 288.757 142.215 288.757Q141.292 288.757 140.733 289.486Q140.174 290.216 140.174 291.5Q140.174 292.788 140.733 293.518Q141.292 294.243 142.215 294.243Z" fill="#000000" fill-opacity="1.000000" fill-rule="evenodd"/>
	<path id="50%" d="M111.557 224.186Q114.43 224.186 115.746 225.221Q117.062 226.251 117.062 228.102Q117.062 229.257 116.522 230.167Q115.981 231.072 114.901 231.594Q113.825 232.115 112.255 232.115Q110.837 232.115 109.558 231.654Q108.283 231.187 107.507 230.411L108.168 229.331Q108.833 230.014 109.909 230.439Q110.989 230.864 112.236 230.864Q113.88 230.864 114.781 230.13Q115.681 229.391 115.681 228.163Q115.681 226.8 114.665 226.098Q113.654 225.396 111.253 225.396L108.436 225.396L109.115 218.76L116.36 218.76L116.36 219.97L110.306 219.97L109.853 224.186L111.557 224.186ZM124.06 232.115Q122.527 232.115 121.326 231.303Q120.125 230.485 119.451 228.966Q118.781 227.442 118.781 225.378Q118.781 223.318 119.451 221.794Q120.125 220.27 121.326 219.458Q122.527 218.645 124.06 218.645Q125.593 218.645 126.793 219.458Q127.994 220.27 128.673 221.794Q129.356 223.318 129.356 225.378Q129.356 227.442 128.673 228.966Q127.994 230.485 126.793 231.303Q125.593 232.115 124.06 232.115ZM124.06 230.864Q125.214 230.864 126.092 230.222Q126.974 229.58 127.463 228.352Q127.957 227.119 127.957 225.378Q127.957 223.642 127.463 222.413Q126.974 221.18 126.092 220.538Q125.214 219.896 124.06 219.896Q122.905 219.896 122.023 220.538Q121.146 221.18 120.652 222.413Q120.162 223.642 120.162 225.378Q120.162 227.119 120.652 228.352Q121.146 229.58 122.023 230.222Q122.905 230.864 124.06 230.864ZM134.102 225.854Q132.758 225.854 131.936 224.861Q131.114 223.868 131.114 222.261Q131.114 220.649 131.936 219.656Q132.758 218.663 134.102 218.663Q135.427 218.663 136.258 219.647Q137.089 220.631 137.089 222.261Q137.089 223.886 136.258 224.87Q135.427 225.854 134.102 225.854ZM142.123 218.76L143.24 218.76L134.199 232L133.081 232L142.123 218.76ZM134.102 224.999Q135.03 224.999 135.589 224.274Q136.147 223.545 136.147 222.261Q136.147 220.972 135.589 220.247Q135.03 219.518 134.102 219.518Q133.155 219.518 132.605 220.257Q132.06 220.991 132.06 222.261Q132.06 223.526 132.605 224.265Q133.155 224.999 134.102 224.999ZM142.215 232.092Q140.895 232.092 140.059 231.1Q139.227 230.107 139.227 228.5Q139.227 226.893 140.059 225.9Q140.895 224.907 142.215 224.907Q143.559 224.907 144.381 225.9Q145.208 226.893 145.208 228.5Q145.208 230.107 144.381 231.1Q143.559 232.092 142.215 232.092ZM142.215 231.243Q143.162 231.243 143.711 230.508Q144.261 229.77 144.261 228.5Q144.261 227.234 143.711 226.495Q143.162 225.757 142.215 225.757Q141.292 225.757 140.733 226.486Q140.174 227.216 140.174 228.5Q140.174 229.788 140.733 230.518Q141.292 231.243 142.215 231.243Z" fill="#000000" fill-opacity="1.000000" fill-rule="evenodd"/>
	<path id="60%" d="M112.748 161.076Q114.05 161.076 115.062 161.57Q116.078 162.059 116.641 162.96Q117.209 163.856 117.209 165.047Q117.209 166.257 116.623 167.185Q116.041 168.109 115.006 168.612Q113.977 169.115 112.693 169.115Q110.061 169.115 108.661 167.384Q107.262 165.652 107.262 162.493Q107.262 160.281 108.019 158.748Q108.777 157.215 110.134 156.43Q111.497 155.645 113.316 155.645Q115.283 155.645 116.456 156.365L115.907 157.46Q114.96 156.836 113.335 156.836Q111.141 156.836 109.89 158.226Q108.643 159.616 108.643 162.267Q108.643 162.738 108.698 163.343Q109.192 162.267 110.268 161.671Q111.349 161.076 112.748 161.076ZM112.633 167.961Q114.074 167.961 114.969 167.176Q115.87 166.391 115.87 165.084Q115.87 163.782 114.969 163.006Q114.074 162.23 112.54 162.23Q111.538 162.23 110.772 162.609Q110.005 162.983 109.566 163.648Q109.132 164.308 109.132 165.121Q109.132 165.878 109.539 166.525Q109.95 167.167 110.744 167.564Q111.538 167.961 112.633 167.961ZM124.06 169.115Q122.527 169.115 121.326 168.303Q120.125 167.485 119.451 165.966Q118.781 164.442 118.781 162.378Q118.781 160.318 119.451 158.794Q120.125 157.27 121.326 156.458Q122.527 155.645 124.06 155.645Q125.593 155.645 126.793 156.458Q127.994 157.27 128.673 158.794Q129.356 160.318 129.356 162.378Q129.356 164.442 128.673 165.966Q127.994 167.485 126.793 168.303Q125.593 169.115 124.06 169.115ZM124.06 167.864Q125.214 167.864 126.092 167.222Q126.974 166.58 127.463 165.352Q127.957 164.119 127.957 162.378Q127.957 160.642 127.463 159.413Q126.974 158.18 126.092 157.538Q125.214 156.896 124.06 156.896Q122.905 156.896 122.023 157.538Q121.146 158.18 120.652 159.413Q120.162 160.642 120.162 162.378Q120.162 164.119 120.652 165.352Q121.146 166.58 122.023 167.222Q122.905 167.864 124.06 167.864ZM134.102 162.854Q132.758 162.854 131.936 161.861Q131.114 160.868 131.114 159.261Q131.114 157.649 131.936 156.656Q132.758 155.663 134.102 155.663Q135.427 155.663 136.258 156.647Q137.089 157.631 137.089 159.261Q137.089 160.886 136.258 161.87Q135.427 162.854 134.102 162.854ZM142.123 155.76L143.24 155.76L134.199 169L133.081 169L142.123 155.76ZM134.102 161.999Q135.03 161.999 135.589 161.274Q136.147 160.545 136.147 159.261Q136.147 157.972 135.589 157.247Q135.03 156.518 134.102 156.518Q133.155 156.518 132.605 157.257Q132.06 157.991 132.06 159.261Q132.06 160.526 132.605 161.265Q133.155 161.999 134.102 161.999ZM142.215 169.092Q140.895 169.092 140.059 168.1Q139.227 167.107 139.227 165.5Q139.227 163.893 140.059 162.9Q140.895 161.907 142.215 161.907Q143.559 161.907 144.381 162.9Q145.208 163.893 145.208 165.5Q145.208 167.107 144.381 168.1Q143.559 169.092 142.215 169.092ZM142.215 168.243Q143.162 168.243 143.711 167.508Q144.261 166.77 144.261 165.5Q144.261 164.234 143.711 163.495Q143.162 162.757 142.215 162.757Q141.292 162.757 140.733 163.486Q140.174 164.216 140.174 165.5Q140.174 166.788 140.733 167.518Q141.292 168.243 142.215 168.243Z" fill="#000000" fill-opacity="1.000000" fill-rule="evenodd"/>
	<path id="70%" d="M117.361 92.7604L117.361 93.7256L111.819 106L110.346 106L115.791 93.9703L108.984 93.9703L108.984 96.4501L107.64 96.4501L107.64 92.7604L117.361 92.7604ZM124.06 106.115Q122.527 106.115 121.326 105.303Q120.125 104.485 119.451 102.966Q118.781 101.442 118.781 99.3779Q118.781 97.3183 119.451 95.7944Q120.125 94.2705 121.326 93.4577Q122.527 92.645 124.06 92.645Q125.593 92.645 126.793 93.4577Q127.994 94.2705 128.673 95.7944Q129.356 97.3183 129.356 99.3779Q129.356 101.442 128.673 102.966Q127.994 104.485 126.793 105.303Q125.593 106.115 124.06 106.115ZM124.06 104.864Q125.214 104.864 126.092 104.222Q126.974 103.58 127.463 102.352Q127.957 101.119 127.957 99.3779Q127.957 97.6416 127.463 96.4132Q126.974 95.1802 126.092 94.5383Q125.214 93.8964 124.06 93.8964Q122.905 93.8964 122.023 94.5383Q121.146 95.1802 120.652 96.4132Q120.162 97.6416 120.162 99.3779Q120.162 101.119 120.652 102.352Q121.146 103.58 122.023 104.222Q122.905 104.864 124.06 104.864ZM134.102 99.8536Q132.758 99.8536 131.936 98.8607Q131.114 97.8679 131.114 96.2608Q131.114 94.6492 131.936 93.6563Q132.758 92.6635 134.102 92.6635Q135.427 92.6635 136.258 93.6471Q137.089 94.6307 137.089 96.2608Q137.089 97.8863 136.258 98.8699Q135.427 99.8536 134.102 99.8536ZM142.123 92.7604L143.24 92.7604L134.199 106L133.081 106L142.123 92.7604ZM134.102 98.9992Q135.03 98.9992 135.589 98.2742Q136.147 97.5446 136.147 96.2608Q136.147 94.9724 135.589 94.2474Q135.03 93.5178 134.102 93.5178Q133.155 93.5178 132.605 94.2566Q132.06 94.9909 132.06 96.2608Q132.06 97.5261 132.605 98.265Q133.155 98.9992 134.102 98.9992ZM142.215 106.092Q140.895 106.092 140.059 105.1Q139.227 104.107 139.227 102.5Q139.227 100.893 140.059 99.8997Q140.895 98.9069 142.215 98.9069Q143.559 98.9069 144.381 99.8997Q145.208 100.893 145.208 102.5Q145.208 104.107 144.381 105.1Q143.559 106.092 142.215 106.092ZM142.215 105.243Q143.162 105.243 143.711 104.508Q144.261 103.77 144.261 102.5Q144.261 101.234 143.711 100.495Q143.162 99.7566 142.215 99.7566Q141.292 99.7566 140.733 100.486Q140.174 101.216 140.174 102.5Q140.174 103.788 140.733 104.518Q141.292 105.243 142.215 105.243Z" fill="#000000" fill-opacity="1.000000" fill-rule="evenodd"/>
	<path id="80%" d="M114.296 36.0593Q115.548 36.4749 116.217 37.3061Q116.892 38.1373 116.892 39.3103Q116.892 40.4648 116.263 41.3283Q115.64 42.1872 114.476 42.6537Q113.313 43.1154 111.747 43.1154Q109.36 43.1154 107.997 42.0949Q106.64 41.0697 106.64 39.3103Q106.64 38.1189 107.291 37.2969Q107.942 36.4749 109.193 36.0593Q108.168 35.6621 107.637 34.914Q107.111 34.1659 107.111 33.1454Q107.111 31.5383 108.367 30.5917Q109.628 29.645 111.747 29.645Q113.146 29.645 114.195 30.0745Q115.243 30.4993 115.829 31.2936Q116.416 32.0879 116.416 33.1454Q116.416 34.1659 115.866 34.914Q115.321 35.6621 114.296 36.0593ZM108.473 33.1823Q108.473 34.2814 109.341 34.9233Q110.214 35.5652 111.747 35.5652Q113.276 35.5652 114.153 34.9233Q115.035 34.2814 115.035 33.2008Q115.035 32.0879 114.135 31.446Q113.239 30.7995 111.747 30.7995Q110.232 30.7995 109.35 31.446Q108.473 32.0879 108.473 33.1823ZM111.747 41.961Q113.502 41.961 114.495 41.2406Q115.492 40.5202 115.492 39.2918Q115.492 38.0634 114.495 37.3569Q113.502 36.6457 111.747 36.6457Q110.006 36.6457 109.013 37.3569Q108.02 38.0634 108.02 39.2918Q108.02 40.5433 109.004 41.2544Q109.988 41.961 111.747 41.961ZM124.06 43.1154Q122.527 43.1154 121.326 42.3027Q120.125 41.4853 119.451 39.966Q118.781 38.4421 118.781 36.3779Q118.781 34.3183 119.451 32.7944Q120.125 31.2705 121.326 30.4577Q122.527 29.645 124.06 29.645Q125.593 29.645 126.793 30.4577Q127.994 31.2705 128.673 32.7944Q129.356 34.3183 129.356 36.3779Q129.356 38.4421 128.673 39.966Q127.994 41.4853 126.793 42.3027Q125.593 43.1154 124.06 43.1154ZM124.06 41.864Q125.214 41.864 126.092 41.2221Q126.974 40.5802 127.463 39.3518Q127.957 38.1189 127.957 36.3779Q127.957 34.6416 127.463 33.4132Q126.974 32.1802 126.092 31.5383Q125.214 30.8964 124.06 30.8964Q122.905 30.8964 122.023 31.5383Q121.146 32.1802 120.652 33.4132Q120.162 34.6416 120.162 36.3779Q120.162 38.1189 120.652 39.3518Q121.146 40.5802 122.023 41.2221Q122.905 41.864 124.06 41.864ZM134.102 36.8536Q132.758 36.8536 131.936 35.8607Q131.114 34.8679 131.114 33.2608Q131.114 31.6492 131.936 30.6563Q132.758 29.6635 134.102 29.6635Q135.427 29.6635 136.258 30.6471Q137.089 31.6307 137.089 33.2608Q137.089 34.8863 136.258 35.8699Q135.427 36.8536 134.102 36.8536ZM142.123 29.7604L143.24 29.7604L134.199 43L133.081 43L142.123 29.7604ZM134.102 35.9992Q135.03 35.9992 135.589 35.2742Q136.147 34.5446 136.147 33.2608Q136.147 31.9724 135.589 31.2474Q135.03 30.5178 134.102 30.5178Q133.155 30.5178 132.605 31.2566Q132.06 31.9909 132.06 33.2608Q132.06 34.5261 132.605 35.265Q133.155 35.9992 134.102 35.9992ZM142.215 43.0924Q140.895 43.0924 140.059 42.0995Q139.227 41.1067 139.227 39.4996Q139.227 37.8926 140.059 36.8997Q140.895 35.9069 142.215 35.9069Q143.559 35.9069 144.381 36.8997Q145.208 37.8926 145.208 39.4996Q145.208 41.1067 144.381 42.0995Q143.559 43.0924 142.215 43.0924ZM142.215 42.2427Q143.162 42.2427 143.711 41.5084Q144.261 40.7695 144.261 39.4996Q144.261 38.2343 143.711 37.4954Q143.162 36.7566 142.215 36.7566Q141.292 36.7566 140.733 37.4862Q140.174 38.2158 140.174 39.4996Q140.174 40.788 140.733 41.5176Q141.292 42.2427 142.215 42.2427Z" fill="#000000" fill-opacity="1.000000" fill-rule="evenodd"/>
	<path id="0" d="M127.74 546.115Q126.207 546.115 125.006 545.303Q123.806 544.485 123.132 542.966Q122.462 541.442 122.462 539.378Q122.462 537.318 123.132 535.794Q123.806 534.271 125.006 533.458Q126.207 532.645 127.74 532.645Q129.273 532.645 130.474 533.458Q131.675 534.271 132.353 535.794Q133.037 537.318 133.037 539.378Q133.037 541.442 132.353 542.966Q131.675 544.485 130.474 545.303Q129.273 546.115 127.74 546.115ZM127.74 544.864Q128.895 544.864 129.772 544.222Q130.654 543.58 131.144 542.352Q131.638 541.119 131.638 539.378Q131.638 537.642 131.144 536.413Q130.654 535.18 129.772 534.538Q128.895 533.896 127.74 533.896Q126.586 533.896 125.704 534.538Q124.826 535.18 124.332 536.413Q123.843 537.642 123.843 539.378Q123.843 541.119 124.332 542.352Q124.826 543.58 125.704 544.222Q126.586 544.864 127.74 544.864Z" fill="#000000" fill-opacity="1.000000" fill-rule="evenodd"/>
	<path id="image 9 (Traced)" d="M568.08 579.152C567.415 579.396 566.907 580.223 567.015 580.885C567.131 581.602 567.317 581.814 571.566 586.094C577.155 591.725 577.155 590.367 571.566 595.996C568.454 599.131 567.372 600.27 567.237 600.555C566.462 602.197 567.896 603.574 569.534 602.758C570.134 602.459 580.075 592.486 580.359 591.896C580.995 590.58 581.077 590.691 575.019 584.625C569.119 578.717 569.164 578.752 568.08 579.152ZM578.272 579.404C577.541 579.844 577.293 580.771 577.686 581.602C577.829 581.906 578.813 582.945 581.981 586.135C587.522 591.717 587.528 590.369 581.94 595.996C578.828 599.131 577.746 600.27 577.611 600.555C576.835 602.197 578.271 603.574 579.908 602.758C580.527 602.449 590.382 592.568 590.692 591.945C591.37 590.582 591.426 590.66 585.477 584.703C579.523 578.742 579.457 578.693 578.272 579.404Z" fill="url(#paint_linear_85_5657_0)" fill-opacity="1.000000" fill-rule="evenodd"/>
	<path id="XMLID_1452_" d="M320.637 357.031L314.383 413.357L305.973 408.439C303.411 406.947 300.73 410.17 302.655 412.418L322.037 435.031C323.085 436.252 324.978 436.252 326.026 435.031L345.408 412.418C347.343 410.168 344.651 406.947 342.1 408.439L333.68 413.348L327.435 357.031C326.998 352.99 321.075 352.988 320.637 357.031Z" fill="#516ACF" fill-opacity="1.000000" fill-rule="evenodd"/>
	<rect id="Rectangle 50" x="248.000000" y="269.000000" rx="21.000000" width="152.000000" height="78.000000" stroke="#516ACF" stroke-opacity="1.000000" stroke-width="4.000000"/>
	<path id="в 2 рази" d="M282.225 310.214Q285 311.055 285 313.803Q285 315.819 283.482 316.913Q281.972 318 279.005 318L271.39 318L271.39 303.05L278.697 303.05Q281.445 303.05 282.983 304.062Q284.521 305.066 284.521 306.912Q284.521 308.061 283.92 308.901Q283.318 309.742 282.225 310.214ZM274.719 309.291L278.39 309.291Q281.103 309.291 281.103 307.418Q281.103 305.593 278.39 305.593L274.719 305.593L274.719 309.291ZM278.725 315.45Q281.609 315.45 281.609 313.577Q281.609 312.593 280.933 312.107Q280.263 311.615 278.841 311.615L274.719 311.615L274.719 315.45L278.725 315.45ZM309.527 314.917L309.527 318L295.076 318L295.076 315.566L302.862 308.17Q304.181 306.912 304.639 305.976Q305.104 305.039 305.104 304.109Q305.104 302.742 304.174 302.018Q303.251 301.286 301.46 301.286Q298.466 301.286 296.873 303.33L294.324 301.368Q295.472 299.83 297.413 298.976Q299.362 298.121 301.768 298.121Q304.96 298.121 306.861 299.632Q308.768 301.143 308.768 303.747Q308.768 305.347 308.098 306.748Q307.428 308.143 305.521 309.934L300.285 314.917L309.527 314.917ZM328.759 302.879Q330.946 302.879 332.669 303.836Q334.392 304.786 335.369 306.522Q336.347 308.259 336.347 310.521Q336.347 312.791 335.369 314.541Q334.392 316.291 332.669 317.248Q330.946 318.198 328.759 318.198Q325.737 318.198 323.974 316.182L323.974 323.435L320.474 323.435L320.474 303.05L323.803 303.05L323.803 305.005Q324.671 303.945 325.942 303.412Q327.221 302.879 328.759 302.879ZM328.369 315.197Q330.304 315.197 331.548 313.912Q332.792 312.627 332.792 310.521Q332.792 308.423 331.548 307.138Q330.304 305.846 328.369 305.846Q327.111 305.846 326.1 306.42Q325.095 306.994 324.507 308.061Q323.919 309.127 323.919 310.521Q323.919 311.923 324.507 312.989Q325.095 314.049 326.1 314.623Q327.111 315.197 328.369 315.197ZM345.197 302.879Q348.505 302.879 350.255 304.465Q352.005 306.044 352.005 309.236L352.005 318L348.697 318L348.697 316.182Q348.054 317.159 346.865 317.679Q345.675 318.198 343.994 318.198Q342.319 318.198 341.054 317.624Q339.796 317.05 339.106 316.031Q338.422 315.006 338.422 313.714Q338.422 311.697 339.919 310.48Q341.417 309.264 344.643 309.264L348.505 309.264L348.505 309.038Q348.505 307.473 347.562 306.632Q346.626 305.791 344.78 305.791Q343.522 305.791 342.298 306.188Q341.082 306.577 340.241 307.274L338.874 304.725Q340.049 303.829 341.697 303.357Q343.351 302.879 345.197 302.879ZM344.725 315.648Q346.038 315.648 347.056 315.047Q348.082 314.445 348.505 313.324L348.505 311.588L344.889 311.588Q341.868 311.588 341.868 313.577Q341.868 314.527 342.62 315.088Q343.378 315.648 344.725 315.648ZM365.08 310.214Q366.475 310.61 367.247 311.492Q368.02 312.374 368.02 313.604Q368.02 314.979 367.09 316.031Q366.167 317.077 364.54 317.665Q362.92 318.253 360.849 318.253Q359.112 318.253 357.458 317.85Q355.811 317.439 354.464 316.681L355.476 314.083Q356.569 314.698 357.937 315.033Q359.311 315.368 360.685 315.368Q362.448 315.368 363.44 314.821Q364.431 314.274 364.431 313.324Q364.431 312.456 363.658 311.984Q362.893 311.506 361.491 311.506L358.579 311.506L358.579 309.154L361.211 309.154Q362.53 309.154 363.269 308.71Q364.014 308.259 364.014 307.445Q364.014 306.632 363.118 306.16Q362.223 305.682 360.657 305.682Q358.415 305.682 355.92 306.775L355.024 304.198Q357.964 302.824 360.965 302.824Q362.865 302.824 364.376 303.344Q365.887 303.863 366.741 304.8Q367.596 305.736 367.596 306.939Q367.596 308.033 366.926 308.888Q366.256 309.742 365.08 310.214ZM371.658 303.05L375.158 303.05L375.158 312.907L383.415 303.05L386.608 303.05L386.608 318L383.108 318L383.108 308.143L374.877 318L371.658 318L371.658 303.05Z" fill="#000000" fill-opacity="1.000000" fill-rule="evenodd"/>
	<path id="XMLID_1452_" d="M718.637 146.031L712.383 202.357L703.973 197.439C701.411 195.947 698.73 199.17 700.655 201.418L720.037 224.031C721.085 225.252 722.978 225.252 724.026 224.031L743.408 201.418C745.343 199.168 742.651 195.947 740.1 197.439L731.68 202.348L725.435 146.031C724.998 141.99 719.075 141.988 718.637 146.031Z" fill="#516ACF" fill-opacity="1.000000" fill-rule="evenodd"/>
	<rect id="Rectangle 50" x="646.000000" y="58.000000" rx="21.000000" width="152.000000" height="78.000000" stroke="#516ACF" stroke-opacity="1.000000" stroke-width="4.000000"/>
	<path id="в 2 рази" d="M680.224 99.2139Q683 100.055 683 102.803Q683 104.819 681.482 105.913Q679.972 107 677.005 107L669.39 107L669.39 92.0498L676.697 92.0498Q679.445 92.0498 680.983 93.0615Q682.521 94.0664 682.521 95.9121Q682.521 97.0605 681.92 97.9014Q681.318 98.7422 680.224 99.2139ZM672.719 98.291L676.39 98.291Q679.103 98.291 679.103 96.418Q679.103 94.5928 676.39 94.5928L672.719 94.5928L672.719 98.291ZM676.724 104.45Q679.609 104.45 679.609 102.577Q679.609 101.593 678.932 101.107Q678.263 100.615 676.841 100.615L672.719 100.615L672.719 104.45L676.724 104.45ZM707.527 103.917L707.527 107L693.076 107L693.076 104.566L700.862 97.1699Q702.181 95.9121 702.639 94.9756Q703.104 94.0391 703.104 93.1094Q703.104 91.7422 702.174 91.0176Q701.251 90.2861 699.46 90.2861Q696.466 90.2861 694.873 92.3301L692.324 90.3682Q693.472 88.8301 695.413 87.9756Q697.362 87.1211 699.768 87.1211Q702.96 87.1211 704.861 88.6318Q706.768 90.1426 706.768 92.7471Q706.768 94.3467 706.098 95.748Q705.428 97.1426 703.521 98.9336L698.285 103.917L707.527 103.917ZM726.759 91.8789Q728.946 91.8789 730.669 92.8359Q732.392 93.7861 733.369 95.5225Q734.347 97.2588 734.347 99.5215Q734.347 101.791 733.369 103.541Q732.392 105.291 730.669 106.248Q728.946 107.198 726.759 107.198Q723.737 107.198 721.974 105.182L721.974 112.435L718.474 112.435L718.474 92.0498L721.803 92.0498L721.803 94.0049Q722.671 92.9453 723.942 92.4121Q725.221 91.8789 726.759 91.8789ZM726.369 104.197Q728.304 104.197 729.548 102.912Q730.792 101.627 730.792 99.5215Q730.792 97.4229 729.548 96.1377Q728.304 94.8457 726.369 94.8457Q725.111 94.8457 724.1 95.4199Q723.095 95.9941 722.507 97.0605Q721.919 98.127 721.919 99.5215Q721.919 100.923 722.507 101.989Q723.095 103.049 724.1 103.623Q725.111 104.197 726.369 104.197ZM743.197 91.8789Q746.505 91.8789 748.255 93.4648Q750.005 95.0439 750.005 98.2363L750.005 107L746.697 107L746.697 105.182Q746.054 106.159 744.865 106.679Q743.675 107.198 741.994 107.198Q740.319 107.198 739.054 106.624Q737.796 106.05 737.106 105.031Q736.422 104.006 736.422 102.714Q736.422 100.697 737.919 99.4805Q739.417 98.2637 742.643 98.2637L746.505 98.2637L746.505 98.0381Q746.505 96.4727 745.562 95.6318Q744.626 94.791 742.78 94.791Q741.522 94.791 740.298 95.1875Q739.082 95.5771 738.241 96.2744L736.874 93.7246Q738.049 92.8291 739.697 92.3574Q741.351 91.8789 743.197 91.8789ZM742.725 104.648Q744.038 104.648 745.056 104.047Q746.082 103.445 746.505 102.324L746.505 100.588L742.889 100.588Q739.868 100.588 739.868 102.577Q739.868 103.527 740.62 104.088Q741.378 104.648 742.725 104.648ZM763.08 99.2139Q764.475 99.6104 765.247 100.492Q766.02 101.374 766.02 102.604Q766.02 103.979 765.09 105.031Q764.167 106.077 762.54 106.665Q760.92 107.253 758.849 107.253Q757.112 107.253 755.458 106.85Q753.811 106.439 752.464 105.681L753.476 103.083Q754.569 103.698 755.937 104.033Q757.311 104.368 758.685 104.368Q760.448 104.368 761.44 103.821Q762.431 103.274 762.431 102.324Q762.431 101.456 761.658 100.984Q760.893 100.506 759.491 100.506L756.579 100.506L756.579 98.1543L759.211 98.1543Q760.53 98.1543 761.269 97.71Q762.014 97.2588 762.014 96.4453Q762.014 95.6318 761.118 95.1602Q760.223 94.6816 758.657 94.6816Q756.415 94.6816 753.92 95.7754L753.024 93.1982Q755.964 91.8242 758.965 91.8242Q760.865 91.8242 762.376 92.3438Q763.887 92.8633 764.741 93.7998Q765.596 94.7363 765.596 95.9395Q765.596 97.0332 764.926 97.8877Q764.256 98.7422 763.08 99.2139ZM769.658 92.0498L773.158 92.0498L773.158 101.907L781.415 92.0498L784.608 92.0498L784.608 107L781.108 107L781.108 97.1426L772.877 107L769.658 107L769.658 92.0498Z" fill="#000000" fill-opacity="1.000000" fill-rule="evenodd"/>
</svg>
