<svg width="74" height="68" viewBox="0 0 74 68" fill="none" xmlns="http://www.w3.org/2000/svg">
<g id="Group 35">
<g id="Group">
<path id="Vector" d="M74 37.1966C74 41.5238 70.5356 45.0403 66.2271 45.1227C62.7453 57.9989 50.9791 67.473 37 67.473C23.0209 67.473 11.2546 57.9989 7.77289 45.1227C3.46441 45.0403 0 41.5238 0 37.1966C0 35.0084 0.887422 33.0254 2.32117 31.5902C3.72312 30.1897 5.64539 29.3124 7.77289 29.2719C11.2546 16.3956 23.0209 6.9216 37 6.9216C50.9791 6.9216 62.7453 16.3956 66.2271 29.2719C68.3546 29.3124 70.2769 30.1897 71.6788 31.5902C73.1126 33.0254 74 35.0084 74 37.1966Z" fill="#FFE9D6"/>
<path id="Vector_2" d="M74 37.1966C74 41.5238 70.5356 45.0403 66.2271 45.1227C62.7454 57.9989 50.9791 67.473 37 67.473V6.9216C50.9791 6.9216 62.7454 16.3956 66.2271 29.2719C68.3546 29.3124 70.2769 30.1897 71.6788 31.5902C73.1126 33.0254 74 35.0084 74 37.1966Z" fill="#FFD2B4"/>
<path id="Vector_3" d="M47.4424 48.9209C45.2701 52.6022 41.268 54.8901 37 54.8901C32.732 54.8901 28.7299 52.6022 26.5576 48.9209L30.2923 46.7168C31.6885 49.0843 34.2582 50.5541 37 50.5541C39.7418 50.5541 42.3115 49.0843 43.7077 46.7168L47.4424 48.9209Z" fill="#F59264"/>
<path id="Vector_4" d="M47.4424 48.9209C45.2701 52.6022 41.268 54.8901 37 54.8901V50.5541C39.7418 50.5541 42.3115 49.0843 43.7077 46.7168L47.4424 48.9209Z" fill="#DB703D"/>
<path id="Vector_5" d="M31.7039 37.8672H27.368C27.368 36.3188 26.1084 35.0592 24.5601 35.0592C23.0117 35.0592 21.752 36.3188 21.752 37.8672H17.416C17.416 33.928 20.6209 30.7233 24.5601 30.7233C28.4993 30.7233 31.7039 33.928 31.7039 37.8672Z" fill="#697C86"/>
<path id="Vector_6" d="M56.5838 37.8672H52.2479C52.2479 36.3188 50.9882 35.0592 49.4398 35.0592C47.8914 35.0592 46.6318 36.3188 46.6318 37.8672H42.2959C42.2959 33.928 45.5006 30.7233 49.4398 30.7233C53.379 30.7233 56.5838 33.928 56.5838 37.8672Z" fill="#465A61"/>
<path id="Vector_7" d="M48.4426 17.773C48.4426 24.0833 43.3103 29.2156 37.0001 29.2156C30.6898 29.2156 25.5575 24.0833 25.5575 17.773H29.8935C29.8935 21.6913 33.0818 24.8796 37.0001 24.8796C40.9183 24.8796 44.1067 21.6913 44.1067 17.773C44.1067 13.8548 40.9183 10.6664 37.0001 10.6664H25.5951C19.7127 10.6664 14.9287 5.88099 14.9287 1.52588e-05H19.2646C19.2646 3.49044 22.1032 6.33048 25.5951 6.33048H26.9667C25.6558 4.55853 24.8797 2.36744 24.8797 1.52588e-05H29.2156C29.2156 3.49044 32.0557 6.33048 35.5461 6.33048H37.0001C43.3103 6.33048 48.4426 11.4642 48.4426 17.773Z" fill="#FFDA2D"/>
<path id="Vector_8" d="M48.4425 17.773C48.4425 24.0833 43.3102 29.2156 37 29.2156V24.8796C40.9182 24.8796 44.1066 21.6913 44.1066 17.773C44.1066 13.8548 40.9182 10.6664 37 10.6664V6.33047C43.3102 6.33047 48.4425 11.4642 48.4425 17.773Z" fill="#FAC005"/>
</g>
</g>
</svg>
