<svg width="614.615234" height="315.000000" viewBox="0 0 614.615 315" fill="none" xmlns="http://www.w3.org/2000/svg" xmlns:xlink="http://www.w3.org/1999/xlink">
	<desc>
			Created with Pixso.
	</desc>
	<defs/>
	<path id="Зниження збудливості іритантних рецепторів респіраторного тракту" d="M48.2737 79.2402Q49.8557 79.6738 50.7405 80.7402Q51.6311 81.8066 51.6311 83.2949Q51.6311 84.7832 50.6819 85.9023Q49.7327 87.0156 48.1624 87.6074Q46.592 88.1934 44.7463 88.1934Q43.0647 88.1934 41.4065 87.6895Q39.7542 87.1855 38.3831 86.1777L39.2209 84.4023Q40.3284 85.2637 41.6936 85.6973Q43.0647 86.1309 44.4534 86.1309Q46.469 86.1309 47.8342 85.2812Q49.2053 84.4258 49.2053 82.9375Q49.2053 81.666 48.1741 80.9805Q47.1428 80.2949 45.2737 80.2949L41.5295 80.2949L41.5295 78.3496L45.1038 78.3496Q46.7092 78.3496 47.6116 77.6934Q48.5139 77.0312 48.5139 75.8535Q48.5139 74.5352 47.3362 73.7676Q46.1584 73 44.3596 73Q43.1819 73 41.969 73.3398Q40.762 73.6738 39.678 74.3418L38.9104 72.3789Q40.1819 71.6582 41.5999 71.3008Q43.0178 70.9375 44.4299 70.9375Q46.2053 70.9375 47.6936 71.4883Q49.1819 72.0391 50.0549 73.0996Q50.9338 74.1543 50.9338 75.5664Q50.9338 76.8379 50.2249 77.7988Q49.5217 78.7598 48.2737 79.2402ZM55.2559 75.2793L57.5586 75.2793L57.5586 80.6816L64.8067 80.6816L64.8067 75.2793L67.1094 75.2793L67.1094 88L64.8067 88L64.8067 82.6738L57.5586 82.6738L57.5586 88L55.2559 88L55.2559 75.2793ZM71.5999 75.2793L73.9026 75.2793L73.9026 84.543L81.7015 75.2793L83.7933 75.2793L83.7933 88L81.4847 88L81.4847 78.7363L73.7093 88L71.5999 88L71.5999 75.2793ZM99.8223 82.6211L97.3496 82.6211L97.3496 88L95.0469 88L95.0469 82.6211L92.5743 82.6211L89.0704 88L86.334 88L90.7051 81.4258L86.6739 75.2793L89.1172 75.2793L92.5508 80.6582L95.0469 80.6582L95.0469 75.2793L97.3496 75.2793L97.3496 80.6582L99.8457 80.6582L103.279 75.2793L105.752 75.2793L101.721 81.4492L106.086 88L103.35 88L99.8223 82.6211ZM119.696 81.7129Q119.696 81.9766 119.649 82.4102L109.325 82.4102Q109.542 84.0859 110.801 85.1113Q112.061 86.1309 113.936 86.1309Q116.216 86.1309 117.604 84.5898L118.876 86.0781Q118.014 87.0859 116.731 87.6191Q115.448 88.1465 113.86 88.1465Q111.844 88.1465 110.286 87.3203Q108.727 86.4883 107.872 85Q107.022 83.5117 107.022 81.6426Q107.022 79.791 107.848 78.3027Q108.68 76.8145 110.128 75.9883Q111.581 75.1621 113.409 75.1621Q115.231 75.1621 116.655 75.9883Q118.085 76.8145 118.887 78.3027Q119.696 79.791 119.696 81.7129ZM113.409 77.1016Q111.751 77.1016 110.632 78.1094Q109.518 79.1172 109.325 80.752L117.487 80.752Q117.294 79.1465 116.175 78.127Q115.061 77.1016 113.409 77.1016ZM123.272 75.2793L125.575 75.2793L125.575 80.6816L132.823 80.6816L132.823 75.2793L135.125 75.2793L135.125 88L132.823 88L132.823 82.6738L125.575 82.6738L125.575 88L123.272 88L123.272 75.2793ZM139.616 75.2793L141.919 75.2793L141.919 80.6816L149.167 80.6816L149.167 75.2793L151.469 75.2793L151.469 88L149.167 88L149.167 82.6738L141.919 82.6738L141.919 88L139.616 88L139.616 75.2793ZM166.161 75.2793L166.161 88L164.093 88L164.093 83.9688L160.401 83.9688L160.138 83.9688L157.349 88L154.882 88L157.976 83.6582Q156.534 83.2246 155.767 82.2285Q154.999 81.2324 154.999 79.7441Q154.999 77.5586 156.487 76.4219Q157.976 75.2793 160.589 75.2793L166.161 75.2793ZM157.349 79.8145Q157.349 81.0859 158.151 81.7012Q158.96 82.3105 160.565 82.3105L164.093 82.3105L164.093 77.2949L160.665 77.2949Q157.349 77.2949 157.349 79.8145ZM183.989 81.3789Q185.266 81.7129 185.957 82.457Q186.655 83.2012 186.655 84.3027Q186.655 85.4336 185.887 86.3125Q185.12 87.1855 183.76 87.6777Q182.407 88.1699 180.725 88.1699Q179.313 88.1699 177.954 87.8008Q176.6 87.4258 175.545 86.7285L176.237 84.9766Q177.151 85.5508 178.329 85.8789Q179.506 86.2012 180.702 86.2012Q182.336 86.2012 183.309 85.6387Q184.282 85.0703 184.282 84.1094Q184.282 83.2246 183.496 82.7441Q182.717 82.2637 181.305 82.2637L178.973 82.2637L178.973 80.6055L181.135 80.6055Q182.43 80.6055 183.174 80.1543Q183.918 79.6973 183.918 78.9062Q183.918 78.0391 183.039 77.5586Q182.166 77.0781 180.678 77.0781Q178.786 77.0781 176.67 78.0625L176.049 76.2871Q178.375 75.1094 180.918 75.1094Q182.454 75.1094 183.678 75.543Q184.903 75.9766 185.6 76.7676Q186.297 77.5586 186.297 78.5664Q186.297 79.5039 185.67 80.248Q185.049 80.9922 183.989 81.3789ZM196.64 75.7129Q198.416 75.7129 199.804 76.5039Q201.199 77.2949 201.978 78.7012Q202.758 80.1016 202.758 81.9062Q202.758 83.752 201.931 85.1816Q201.105 86.6055 199.605 87.4023Q198.105 88.1934 196.183 88.1934Q192.943 88.1934 191.179 85.9727Q189.416 83.752 189.416 79.7207Q189.416 75.8066 191.021 73.5859Q192.633 71.3652 195.943 70.6504L201.75 69.3496L202.09 71.4648L196.734 72.6133Q194.238 73.1699 193.013 74.4883Q191.789 75.8066 191.625 78.2793Q192.439 77.0547 193.734 76.3867Q195.029 75.7129 196.64 75.7129ZM196.23 86.2715Q197.455 86.2715 198.404 85.7207Q199.353 85.1699 199.881 84.1973Q200.408 83.2246 200.408 81.9766Q200.408 80.0781 199.254 78.9297Q198.105 77.7754 196.23 77.7754Q194.361 77.7754 193.195 78.9297Q192.029 80.0781 192.029 81.9766Q192.029 83.2246 192.568 84.1973Q193.113 85.1699 194.068 85.7207Q195.029 86.2715 196.23 86.2715ZM217.043 75.2793L210.873 89.2715Q210.059 91.2168 208.963 92.0078Q207.873 92.7988 206.338 92.7988Q205.401 92.7988 204.522 92.5Q203.649 92.2012 203.075 91.6211L204.059 89.8984Q205.043 90.8301 206.338 90.8301Q207.176 90.8301 207.739 90.3848Q208.307 89.9453 208.764 88.8613L209.168 87.9766L203.555 75.2793L205.952 75.2793L210.393 85.457L214.788 75.2793L217.043 75.2793ZM231.657 85.9844L231.657 90.9531L229.495 90.9531L229.495 88L218.866 88L218.866 90.9531L216.681 90.9531L216.681 85.9844L217.349 85.9844Q218.573 85.9141 219.03 84.2559Q219.487 82.5977 219.657 79.5742L219.845 75.2793L229.712 75.2793L229.712 85.9844L231.657 85.9844ZM221.767 79.7441Q221.673 82.1465 221.368 83.7168Q221.07 85.2871 220.278 85.9844L227.409 85.9844L227.409 77.2949L221.89 77.2949L221.767 79.7441ZM245.578 75.2793L245.578 88L243.269 88L243.269 77.2949L237.802 77.2949L237.656 80.1309Q237.533 82.6973 237.199 84.4141Q236.865 86.1309 236.097 87.1621Q235.33 88.1934 233.959 88.1934Q233.338 88.1934 232.541 87.9766L232.687 86.0312Q232.998 86.1016 233.261 86.1016Q234.222 86.1016 234.703 85.2637Q235.183 84.4258 235.324 83.2715Q235.47 82.1172 235.593 79.9844L235.81 75.2793L245.578 75.2793ZM250.04 75.2793L252.343 75.2793L252.343 84.543L260.141 75.2793L262.233 75.2793L262.233 88L259.925 88L259.925 78.7363L252.149 88L250.04 88L250.04 75.2793ZM275.362 81.4023Q277.829 82.0234 277.829 84.4961Q277.829 86.1777 276.569 87.0918Q275.309 88 272.813 88L266.696 88L266.696 75.2793L272.602 75.2793Q274.858 75.2793 276.13 76.1348Q277.401 76.9844 277.401 78.543Q277.401 79.5508 276.856 80.2832Q276.317 81.0156 275.362 81.4023ZM268.952 80.752L272.409 80.752Q273.727 80.752 274.413 80.2715Q275.098 79.791 275.098 78.8828Q275.098 77.0547 272.409 77.0547L268.952 77.0547L268.952 80.752ZM272.649 86.2246Q274.085 86.2246 274.805 85.7676Q275.526 85.3105 275.526 84.3496Q275.526 83.3652 274.864 82.8906Q274.208 82.4102 272.79 82.4102L268.952 82.4102L268.952 86.2246L272.649 86.2246ZM286.881 88.1465Q284.983 88.1465 283.471 87.3086Q281.959 86.4648 281.104 84.9883Q280.254 83.5117 280.254 81.6426Q280.254 79.7676 281.104 78.291Q281.959 76.8145 283.471 75.9883Q284.983 75.1621 286.881 75.1621Q288.774 75.1621 290.274 75.9883Q291.774 76.8145 292.623 78.291Q293.479 79.7676 293.479 81.6426Q293.479 83.5117 292.623 84.9883Q291.774 86.4648 290.274 87.3086Q288.774 88.1465 286.881 88.1465ZM286.881 86.1309Q288.1 86.1309 289.073 85.5684Q290.045 85 290.596 83.9805Q291.153 82.9609 291.153 81.6426Q291.153 80.3184 290.596 79.2988Q290.045 78.2793 289.073 77.7285Q288.1 77.1777 286.881 77.1777Q285.657 77.1777 284.684 77.7285Q283.711 78.2793 283.143 79.2988Q282.58 80.3184 282.58 81.6426Q282.58 82.9609 283.143 83.9805Q283.711 85 284.684 85.5684Q285.657 86.1309 286.881 86.1309ZM302.359 88.1465Q300.414 88.1465 298.89 87.3086Q297.367 86.4648 296.5 84.9883Q295.638 83.5117 295.638 81.6426Q295.638 79.7676 296.5 78.291Q297.367 76.8145 298.89 75.9883Q300.414 75.1621 302.359 75.1621Q304.087 75.1621 305.441 75.8594Q306.8 76.5508 307.544 77.8691L305.792 79Q305.189 78.0859 304.298 77.6348Q303.414 77.1777 302.335 77.1777Q301.087 77.1777 300.091 77.7285Q299.095 78.2793 298.527 79.2988Q297.964 80.3184 297.964 81.6426Q297.964 82.9844 298.527 84.0039Q299.095 85.0234 300.091 85.5801Q301.087 86.1309 302.335 86.1309Q303.414 86.1309 304.298 85.6738Q305.189 85.2168 305.792 84.3027L307.544 85.4102Q306.8 86.7285 305.441 87.4375Q304.087 88.1465 302.359 88.1465ZM319.832 77.2949L315.174 77.2949L315.174 88L312.871 88L312.871 77.2949L308.213 77.2949L308.213 75.2793L319.832 75.2793L319.832 77.2949ZM322.184 75.2793L324.487 75.2793L324.487 88L322.184 88L322.184 75.2793ZM323.332 72.8301Q322.664 72.8301 322.219 72.4023Q321.774 71.9688 321.774 71.3418Q321.774 70.7207 322.219 70.2754Q322.664 69.8301 323.332 69.8301Q324.006 69.8301 324.446 70.252Q324.891 70.6738 324.891 71.2949Q324.891 71.9453 324.446 72.3906Q324.006 72.8301 323.332 72.8301ZM335.432 75.2793L337.735 75.2793L337.735 88L335.432 88L335.432 75.2793ZM336.58 72.8301Q335.912 72.8301 335.467 72.4023Q335.022 71.9688 335.022 71.3418Q335.022 70.7207 335.467 70.2754Q335.912 69.8301 336.58 69.8301Q337.254 69.8301 337.694 70.252Q338.139 70.6738 338.139 71.2949Q338.139 71.9453 337.694 72.3906Q337.254 72.8301 336.58 72.8301ZM348.968 75.1621Q350.814 75.1621 352.279 75.9766Q353.743 76.791 354.57 78.2559Q355.396 79.7207 355.396 81.6426Q355.396 83.5586 354.57 85.0352Q353.743 86.5117 352.279 87.332Q350.814 88.1465 348.968 88.1465Q347.597 88.1465 346.454 87.6191Q345.318 87.0859 344.527 86.0781L344.527 92.6582L342.224 92.6582L342.224 75.2793L344.433 75.2793L344.433 77.2949Q345.2 76.2402 346.372 75.7012Q347.55 75.1621 348.968 75.1621ZM348.775 86.1309Q349.999 86.1309 350.972 85.5684Q351.945 85 352.507 83.9805Q353.07 82.9609 353.07 81.6426Q353.07 80.3184 352.507 79.2988Q351.945 78.2793 350.972 77.7285Q349.999 77.1777 348.775 77.1777Q347.574 77.1777 346.601 77.7402Q345.628 78.3027 345.066 79.3105Q344.503 80.3184 344.503 81.6426Q344.503 82.9609 345.054 83.9805Q345.605 85 346.589 85.5684Q347.574 86.1309 348.775 86.1309ZM358.736 75.2793L361.039 75.2793L361.039 84.543L368.837 75.2793L370.929 75.2793L370.929 88L368.621 88L368.621 78.7363L360.845 88L358.736 88L358.736 75.2793ZM384.872 77.2949L380.214 77.2949L380.214 88L377.911 88L377.911 77.2949L373.253 77.2949L373.253 75.2793L384.872 75.2793L384.872 77.2949ZM391.759 75.1621Q394.402 75.1621 395.802 76.457Q397.208 77.752 397.208 80.3184L397.208 88L395.023 88L395.023 86.3184Q394.449 87.209 393.376 87.6777Q392.31 88.1465 390.851 88.1465Q388.712 88.1465 387.429 87.1152Q386.146 86.0781 386.146 84.4023Q386.146 82.7207 387.37 81.7012Q388.595 80.6816 391.255 80.6816L394.906 80.6816L394.906 80.2246Q394.906 78.7363 394.038 77.9453Q393.177 77.1543 391.495 77.1543Q390.37 77.1543 389.286 77.5293Q388.208 77.8984 387.464 78.5195L386.503 76.791Q387.488 76 388.853 75.584Q390.224 75.1621 391.759 75.1621ZM391.232 86.3652Q392.55 86.3652 393.511 85.7793Q394.472 85.1934 394.906 84.1094L394.906 82.334L391.355 82.334Q388.425 82.334 388.425 84.3027Q388.425 85.2637 389.169 85.8145Q389.913 86.3652 391.232 86.3652ZM401.36 75.2793L403.663 75.2793L403.663 80.6816L410.911 80.6816L410.911 75.2793L413.213 75.2793L413.213 88L410.911 88L410.911 82.6738L403.663 82.6738L403.663 88L401.36 88L401.36 75.2793ZM427.184 77.2949L422.526 77.2949L422.526 88L420.223 88L420.223 77.2949L415.565 77.2949L415.565 75.2793L427.184 75.2793L427.184 77.2949ZM429.536 75.2793L431.839 75.2793L431.839 80.6816L439.087 80.6816L439.087 75.2793L441.389 75.2793L441.389 88L439.087 88L439.087 82.6738L431.839 82.6738L431.839 88L429.536 88L429.536 75.2793ZM445.88 75.2793L448.183 75.2793L448.183 84.543L455.981 75.2793L458.073 75.2793L458.073 88L455.765 88L455.765 78.7363L447.989 88L445.88 88L445.88 75.2793ZM470.481 88L466.807 83.1309L463.093 88L460.52 88L465.536 81.4961L460.76 75.2793L463.333 75.2793L466.837 79.8613L470.317 75.2793L472.837 75.2793L468.032 81.4961L473.1 88L470.481 88ZM46.592 109.162Q48.4377 109.162 49.9026 109.977Q51.3674 110.791 52.1936 112.256Q53.0198 113.721 53.0198 115.643Q53.0198 117.559 52.1936 119.035Q51.3674 120.512 49.9026 121.332Q48.4377 122.146 46.592 122.146Q45.2209 122.146 44.0784 121.619Q42.9417 121.086 42.1506 120.078L42.1506 126.658L39.8479 126.658L39.8479 109.279L42.0569 109.279L42.0569 111.295Q42.8245 110.24 43.9963 109.701Q45.1741 109.162 46.592 109.162ZM46.3987 120.131Q47.6233 120.131 48.5959 119.568Q49.5686 119 50.1311 117.98Q50.6936 116.961 50.6936 115.643Q50.6936 114.318 50.1311 113.299Q49.5686 112.279 48.5959 111.729Q47.6233 111.178 46.3987 111.178Q45.1975 111.178 44.2249 111.74Q43.2522 112.303 42.6897 113.311Q42.1272 114.318 42.1272 115.643Q42.1272 116.961 42.678 117.98Q43.2288 119 44.2131 119.568Q45.1975 120.131 46.3987 120.131ZM67.856 115.713Q67.856 115.977 67.8091 116.41L57.4849 116.41Q57.7017 118.086 58.9615 119.111Q60.2212 120.131 62.0962 120.131Q64.3755 120.131 65.7642 118.59L67.0357 120.078Q66.1744 121.086 64.8912 121.619Q63.6079 122.146 62.0201 122.146Q60.0044 122.146 58.4458 121.32Q56.8872 120.488 56.0318 119Q55.1822 117.512 55.1822 115.643Q55.1822 113.791 56.0083 112.303Q56.8404 110.814 58.2876 109.988Q59.7408 109.162 61.5689 109.162Q63.3912 109.162 64.815 109.988Q66.2447 110.814 67.0474 112.303Q67.856 113.791 67.856 115.713ZM61.5689 111.102Q59.9107 111.102 58.7915 112.109Q57.6783 113.117 57.4849 114.752L65.647 114.752Q65.4537 113.146 64.3345 112.127Q63.2212 111.102 61.5689 111.102ZM85.0139 119.984L85.0139 125.047L82.8342 125.047L82.8342 122L71.4319 122L71.4319 109.279L73.7346 109.279L73.7346 119.984L80.6956 119.984L80.6956 109.279L82.9983 109.279L82.9983 119.984L85.0139 119.984ZM99.488 115.713Q99.488 115.977 99.4411 116.41L89.1169 116.41Q89.3337 118.086 90.5935 119.111Q91.8532 120.131 93.7282 120.131Q96.0075 120.131 97.3962 118.59L98.6677 120.078Q97.8064 121.086 96.5231 121.619Q95.2399 122.146 93.6521 122.146Q91.6364 122.146 90.0778 121.32Q88.5192 120.488 87.6638 119Q86.8142 117.512 86.8142 115.643Q86.8142 113.791 87.6403 112.303Q88.4724 110.814 89.9196 109.988Q91.3728 109.162 93.2009 109.162Q95.0231 109.162 96.447 109.988Q97.8767 110.814 98.6794 112.303Q99.488 113.791 99.488 115.713ZM93.2009 111.102Q91.5427 111.102 90.4235 112.109Q89.3103 113.117 89.1169 114.752L97.279 114.752Q97.0856 113.146 95.9665 112.127Q94.8532 111.102 93.2009 111.102ZM114.847 109.279L114.847 122L112.544 122L112.544 111.295L105.367 111.295L105.367 122L103.064 122L103.064 109.279L114.847 109.279ZM128.792 111.295L124.134 111.295L124.134 122L121.831 122L121.831 111.295L117.173 111.295L117.173 109.279L128.792 109.279L128.792 111.295ZM136.041 122.146Q134.143 122.146 132.631 121.309Q131.119 120.465 130.264 118.988Q129.414 117.512 129.414 115.643Q129.414 113.768 130.264 112.291Q131.119 110.814 132.631 109.988Q134.143 109.162 136.041 109.162Q137.934 109.162 139.434 109.988Q140.934 110.814 141.783 112.291Q142.639 113.768 142.639 115.643Q142.639 117.512 141.783 118.988Q140.934 120.465 139.434 121.309Q137.934 122.146 136.041 122.146ZM136.041 120.131Q137.26 120.131 138.233 119.568Q139.205 119 139.756 117.98Q140.313 116.961 140.313 115.643Q140.313 114.318 139.756 113.299Q139.205 112.279 138.233 111.729Q137.26 111.178 136.041 111.178Q134.817 111.178 133.844 111.729Q132.871 112.279 132.303 113.299Q131.74 114.318 131.74 115.643Q131.74 116.961 132.303 117.98Q132.871 119 133.844 119.568Q134.817 120.131 136.041 120.131ZM152.72 109.162Q154.566 109.162 156.031 109.977Q157.495 110.791 158.322 112.256Q159.148 113.721 159.148 115.643Q159.148 117.559 158.322 119.035Q157.495 120.512 156.031 121.332Q154.566 122.146 152.72 122.146Q151.349 122.146 150.206 121.619Q149.07 121.086 148.279 120.078L148.279 126.658L145.976 126.658L145.976 109.279L148.185 109.279L148.185 111.295Q148.952 110.24 150.124 109.701Q151.302 109.162 152.72 109.162ZM152.527 120.131Q153.751 120.131 154.724 119.568Q155.697 119 156.259 117.98Q156.822 116.961 156.822 115.643Q156.822 114.318 156.259 113.299Q155.697 112.279 154.724 111.729Q153.751 111.178 152.527 111.178Q151.326 111.178 150.353 111.74Q149.38 112.303 148.818 113.311Q148.255 114.318 148.255 115.643Q148.255 116.961 148.806 117.98Q149.357 119 150.341 119.568Q151.326 120.131 152.527 120.131ZM162.488 109.279L164.791 109.279L164.791 122L162.488 122L162.488 109.279ZM163.636 106.83Q162.968 106.83 162.523 106.402Q162.078 105.969 162.078 105.342Q162.078 104.721 162.523 104.275Q162.968 103.83 163.636 103.83Q164.31 103.83 164.75 104.252Q165.195 104.674 165.195 105.295Q165.195 105.945 164.75 106.391Q164.31 106.83 163.636 106.83ZM177.946 115.402Q180.413 116.023 180.413 118.496Q180.413 120.178 179.153 121.092Q177.893 122 175.397 122L169.28 122L169.28 109.279L175.186 109.279Q177.442 109.279 178.714 110.135Q179.985 110.984 179.985 112.543Q179.985 113.551 179.44 114.283Q178.901 115.016 177.946 115.402ZM171.536 114.752L174.993 114.752Q176.311 114.752 176.997 114.271Q177.682 113.791 177.682 112.883Q177.682 111.055 174.993 111.055L171.536 111.055L171.536 114.752ZM175.233 120.225Q176.669 120.225 177.389 119.768Q178.11 119.311 178.11 118.35Q178.11 117.365 177.448 116.891Q176.792 116.41 175.374 116.41L171.536 116.41L171.536 120.225L175.233 120.225ZM197.216 109.162Q199.062 109.162 200.527 109.977Q201.991 110.791 202.818 112.256Q203.644 113.721 203.644 115.643Q203.644 117.559 202.818 119.035Q201.991 120.512 200.527 121.332Q199.062 122.146 197.216 122.146Q195.845 122.146 194.702 121.619Q193.566 121.086 192.775 120.078L192.775 126.658L190.472 126.658L190.472 109.279L192.681 109.279L192.681 111.295Q193.448 110.24 194.62 109.701Q195.798 109.162 197.216 109.162ZM197.023 120.131Q198.247 120.131 199.22 119.568Q200.193 119 200.755 117.98Q201.318 116.961 201.318 115.643Q201.318 114.318 200.755 113.299Q200.193 112.279 199.22 111.729Q198.247 111.178 197.023 111.178Q195.822 111.178 194.849 111.74Q193.876 112.303 193.314 113.311Q192.751 114.318 192.751 115.643Q192.751 116.961 193.302 117.98Q193.853 119 194.837 119.568Q195.822 120.131 197.023 120.131ZM218.48 115.713Q218.48 115.977 218.433 116.41L208.109 116.41Q208.326 118.086 209.585 119.111Q210.845 120.131 212.72 120.131Q215 120.131 216.388 118.59L217.66 120.078Q216.798 121.086 215.515 121.619Q214.232 122.146 212.644 122.146Q210.628 122.146 209.07 121.32Q207.511 120.488 206.656 119Q205.806 117.512 205.806 115.643Q205.806 113.791 206.632 112.303Q207.464 110.814 208.912 109.988Q210.365 109.162 212.193 109.162Q214.015 109.162 215.439 109.988Q216.869 110.814 217.671 112.303Q218.48 113.791 218.48 115.713ZM212.193 111.102Q210.535 111.102 209.416 112.109Q208.302 113.117 208.109 114.752L216.271 114.752Q216.078 113.146 214.958 112.127Q213.845 111.102 212.193 111.102ZM227.599 122.146Q225.654 122.146 224.13 121.309Q222.607 120.465 221.739 118.988Q220.878 117.512 220.878 115.643Q220.878 113.768 221.739 112.291Q222.607 110.814 224.13 109.988Q225.654 109.162 227.599 109.162Q229.327 109.162 230.681 109.859Q232.04 110.551 232.784 111.869L231.032 113Q230.429 112.086 229.538 111.635Q228.654 111.178 227.575 111.178Q226.327 111.178 225.331 111.729Q224.335 112.279 223.767 113.299Q223.204 114.318 223.204 115.643Q223.204 116.984 223.767 118.004Q224.335 119.023 225.331 119.58Q226.327 120.131 227.575 120.131Q228.654 120.131 229.538 119.674Q230.429 119.217 231.032 118.303L232.784 119.41Q232.04 120.729 230.681 121.438Q229.327 122.146 227.599 122.146ZM247.543 109.279L247.543 122L245.24 122L245.24 111.295L238.063 111.295L238.063 122L235.76 122L235.76 109.279L247.543 109.279ZM252.008 109.279L254.311 109.279L254.311 122L252.008 122L252.008 109.279ZM253.156 106.83Q252.488 106.83 252.043 106.402Q251.598 105.969 251.598 105.342Q251.598 104.721 252.043 104.275Q252.488 103.83 253.156 103.83Q253.83 103.83 254.27 104.252Q254.715 104.674 254.715 105.295Q254.715 105.945 254.27 106.391Q253.83 106.83 253.156 106.83ZM265.544 109.162Q267.39 109.162 268.855 109.977Q270.319 110.791 271.146 112.256Q271.972 113.721 271.972 115.643Q271.972 117.559 271.146 119.035Q270.319 120.512 268.855 121.332Q267.39 122.146 265.544 122.146Q264.173 122.146 263.03 121.619Q261.894 121.086 261.103 120.078L261.103 126.658L258.8 126.658L258.8 109.279L261.009 109.279L261.009 111.295Q261.776 110.24 262.948 109.701Q264.126 109.162 265.544 109.162ZM265.351 120.131Q266.575 120.131 267.548 119.568Q268.521 119 269.083 117.98Q269.646 116.961 269.646 115.643Q269.646 114.318 269.083 113.299Q268.521 112.279 267.548 111.729Q266.575 111.178 265.351 111.178Q264.15 111.178 263.177 111.74Q262.204 112.303 261.642 113.311Q261.079 114.318 261.079 115.643Q261.079 116.961 261.63 117.98Q262.181 119 263.165 119.568Q264.15 120.131 265.351 120.131ZM279.727 109.162Q282.37 109.162 283.77 110.457Q285.176 111.752 285.176 114.318L285.176 122L282.991 122L282.991 120.318Q282.417 121.209 281.344 121.678Q280.278 122.146 278.819 122.146Q276.68 122.146 275.397 121.115Q274.114 120.078 274.114 118.402Q274.114 116.721 275.338 115.701Q276.563 114.682 279.223 114.682L282.874 114.682L282.874 114.225Q282.874 112.736 282.006 111.945Q281.145 111.154 279.463 111.154Q278.338 111.154 277.254 111.529Q276.176 111.898 275.432 112.52L274.471 110.791Q275.456 110 276.821 109.584Q278.192 109.162 279.727 109.162ZM279.2 120.365Q280.518 120.365 281.479 119.779Q282.44 119.193 282.874 118.109L282.874 116.334L279.323 116.334Q276.393 116.334 276.393 118.303Q276.393 119.264 277.137 119.814Q277.881 120.365 279.2 120.365ZM298.808 111.295L294.15 111.295L294.15 122L291.847 122L291.847 111.295L287.189 111.295L287.189 109.279L298.808 109.279L298.808 111.295ZM306.057 122.146Q304.159 122.146 302.647 121.309Q301.135 120.465 300.28 118.988Q299.43 117.512 299.43 115.643Q299.43 113.768 300.28 112.291Q301.135 110.814 302.647 109.988Q304.159 109.162 306.057 109.162Q307.95 109.162 309.45 109.988Q310.95 110.814 311.799 112.291Q312.655 113.768 312.655 115.643Q312.655 117.512 311.799 118.988Q310.95 120.465 309.45 121.309Q307.95 122.146 306.057 122.146ZM306.057 120.131Q307.276 120.131 308.249 119.568Q309.221 119 309.772 117.98Q310.329 116.961 310.329 115.643Q310.329 114.318 309.772 113.299Q309.221 112.279 308.249 111.729Q307.276 111.178 306.057 111.178Q304.833 111.178 303.86 111.729Q302.887 112.279 302.319 113.299Q301.756 114.318 301.756 115.643Q301.756 116.961 302.319 117.98Q302.887 119 303.86 119.568Q304.833 120.131 306.057 120.131ZM322.736 109.162Q324.582 109.162 326.047 109.977Q327.511 110.791 328.338 112.256Q329.164 113.721 329.164 115.643Q329.164 117.559 328.338 119.035Q327.511 120.512 326.047 121.332Q324.582 122.146 322.736 122.146Q321.365 122.146 320.222 121.619Q319.086 121.086 318.295 120.078L318.295 126.658L315.992 126.658L315.992 109.279L318.201 109.279L318.201 111.295Q318.968 110.24 320.14 109.701Q321.318 109.162 322.736 109.162ZM322.543 120.131Q323.767 120.131 324.74 119.568Q325.713 119 326.275 117.98Q326.838 116.961 326.838 115.643Q326.838 114.318 326.275 113.299Q325.713 112.279 324.74 111.729Q323.767 111.178 322.543 111.178Q321.342 111.178 320.369 111.74Q319.396 112.303 318.834 113.311Q318.271 114.318 318.271 115.643Q318.271 116.961 318.822 117.98Q319.373 119 320.357 119.568Q321.342 120.131 322.543 120.131ZM332.504 109.279L334.807 109.279L334.807 114.682L342.055 114.682L342.055 109.279L344.357 109.279L344.357 122L342.055 122L342.055 116.674L334.807 116.674L334.807 122L332.504 122L332.504 109.279ZM354.297 122.146Q352.399 122.146 350.887 121.309Q349.375 120.465 348.52 118.988Q347.67 117.512 347.67 115.643Q347.67 113.768 348.52 112.291Q349.375 110.814 350.887 109.988Q352.399 109.162 354.297 109.162Q356.19 109.162 357.69 109.988Q359.19 110.814 360.039 112.291Q360.895 113.768 360.895 115.643Q360.895 117.512 360.039 118.988Q359.19 120.465 357.69 121.309Q356.19 122.146 354.297 122.146ZM354.297 120.131Q355.516 120.131 356.489 119.568Q357.461 119 358.012 117.98Q358.569 116.961 358.569 115.643Q358.569 114.318 358.012 113.299Q357.461 112.279 356.489 111.729Q355.516 111.178 354.297 111.178Q353.073 111.178 352.1 111.729Q351.127 112.279 350.559 113.299Q349.996 114.318 349.996 115.643Q349.996 116.961 350.559 117.98Q351.127 119 352.1 119.568Q353.073 120.131 354.297 120.131ZM373.589 111.295L366.535 111.295L366.535 122L364.232 122L364.232 109.279L373.589 109.279L373.589 111.295ZM380.841 122.146Q378.943 122.146 377.431 121.309Q375.919 120.465 375.064 118.988Q374.214 117.512 374.214 115.643Q374.214 113.768 375.064 112.291Q375.919 110.814 377.431 109.988Q378.943 109.162 380.841 109.162Q382.734 109.162 384.234 109.988Q385.734 110.814 386.583 112.291Q387.439 113.768 387.439 115.643Q387.439 117.512 386.583 118.988Q385.734 120.465 384.234 121.309Q382.734 122.146 380.841 122.146ZM380.841 120.131Q382.06 120.131 383.033 119.568Q384.005 119 384.556 117.98Q385.113 116.961 385.113 115.643Q385.113 114.318 384.556 113.299Q384.005 112.279 383.033 111.729Q382.06 111.178 380.841 111.178Q379.617 111.178 378.644 111.729Q377.671 112.279 377.103 113.299Q376.54 114.318 376.54 115.643Q376.54 116.961 377.103 117.98Q377.671 119 378.644 119.568Q379.617 120.131 380.841 120.131ZM406.712 111.295L402.054 111.295L402.054 122L399.751 122L399.751 111.295L395.093 111.295L395.093 109.279L406.712 109.279L406.712 111.295ZM415.808 109.162Q417.654 109.162 419.119 109.977Q420.583 110.791 421.41 112.256Q422.236 113.721 422.236 115.643Q422.236 117.559 421.41 119.035Q420.583 120.512 419.119 121.332Q417.654 122.146 415.808 122.146Q414.437 122.146 413.294 121.619Q412.158 121.086 411.367 120.078L411.367 126.658L409.064 126.658L409.064 109.279L411.273 109.279L411.273 111.295Q412.04 110.24 413.212 109.701Q414.39 109.162 415.808 109.162ZM415.615 120.131Q416.839 120.131 417.812 119.568Q418.785 119 419.347 117.98Q419.91 116.961 419.91 115.643Q419.91 114.318 419.347 113.299Q418.785 112.279 417.812 111.729Q416.839 111.178 415.615 111.178Q414.414 111.178 413.441 111.74Q412.468 112.303 411.906 113.311Q411.343 114.318 411.343 115.643Q411.343 116.961 411.894 117.98Q412.445 119 413.429 119.568Q414.414 120.131 415.615 120.131ZM429.991 109.162Q432.634 109.162 434.034 110.457Q435.44 111.752 435.44 114.318L435.44 122L433.255 122L433.255 120.318Q432.681 121.209 431.608 121.678Q430.542 122.146 429.083 122.146Q426.944 122.146 425.661 121.115Q424.378 120.078 424.378 118.402Q424.378 116.721 425.602 115.701Q426.827 114.682 429.487 114.682L433.138 114.682L433.138 114.225Q433.138 112.736 432.27 111.945Q431.409 111.154 429.727 111.154Q428.602 111.154 427.518 111.529Q426.44 111.898 425.696 112.52L424.735 110.791Q425.72 110 427.085 109.584Q428.456 109.162 429.991 109.162ZM429.464 120.365Q430.782 120.365 431.743 119.779Q432.704 119.193 433.138 118.109L433.138 116.334L429.587 116.334Q426.657 116.334 426.657 118.303Q426.657 119.264 427.401 119.814Q428.145 120.365 429.464 120.365ZM444.537 116.621L441.895 116.621L441.895 122L439.592 122L439.592 109.279L441.895 109.279L441.895 114.658L444.584 114.658L448.709 109.279L451.182 109.279L446.359 115.402L451.522 122L448.809 122L444.537 116.621ZM463.208 111.295L458.55 111.295L458.55 122L456.247 122L456.247 111.295L451.589 111.295L451.589 109.279L463.208 109.279L463.208 111.295ZM476.987 109.279L470.817 123.271Q470.003 125.217 468.907 126.008Q467.817 126.799 466.282 126.799Q465.345 126.799 464.466 126.5Q463.593 126.201 463.019 125.621L464.003 123.898Q464.987 124.83 466.282 124.83Q467.12 124.83 467.683 124.385Q468.251 123.945 468.708 122.861L469.112 121.977L463.499 109.279L465.896 109.279L470.337 119.457L474.731 109.279L476.987 109.279Z" fill="#000000" fill-opacity="1.000000" fill-rule="evenodd"/>
	<path id="Polygon 5" d="M24.6155 89L6.15405 76.0098L6.15405 101.99L24.6155 89Z" fill="#E10920" fill-opacity="1.000000" fill-rule="evenodd"/>
	<path id="Посилений протикашльовий ефект" d="M29.0178 8.20117L29.0178 25L25.1506 25L25.1506 11.3652L17.5686 11.3652L17.5686 25L13.7014 25L13.7014 8.20117L29.0178 8.20117ZM41.2109 25.2871Q38.5918 25.2871 36.4882 24.1621Q34.3906 23.0312 33.2011 21.0508Q32.0175 19.0703 32.0175 16.5977Q32.0175 14.1309 33.2011 12.1504Q34.3906 10.1699 36.4882 9.04492Q38.5918 7.91406 41.2109 7.91406Q43.8242 7.91406 45.9101 9.04492Q48.0019 10.1699 49.1972 12.1504Q50.3984 14.1309 50.3984 16.5977Q50.3984 19.0703 49.1972 21.0508Q48.0019 23.0312 45.9101 24.1621Q43.8242 25.2871 41.2109 25.2871ZM41.2109 21.9766Q42.6933 21.9766 43.8945 21.291Q45.0957 20.6055 45.7812 19.3867Q46.4668 18.1621 46.4668 16.5977Q46.4668 15.0391 45.7812 13.8145Q45.0957 12.5898 43.8945 11.9102Q42.6933 11.2246 41.2109 11.2246Q39.7226 11.2246 38.5214 11.9102Q37.3203 12.5898 36.6347 13.8145Q35.9492 15.0391 35.9492 16.5977Q35.9492 18.1621 36.6347 19.3867Q37.3203 20.6055 38.5214 21.291Q39.7226 21.9766 41.2109 21.9766ZM61.3427 25.2871Q58.7763 25.2871 56.6962 24.1738Q54.622 23.0547 53.4326 21.0742Q52.249 19.0938 52.249 16.5977Q52.249 14.1016 53.4326 12.127Q54.622 10.1465 56.6962 9.0332Q58.7763 7.91406 61.3662 7.91406Q63.5517 7.91406 65.3154 8.68164Q67.0791 9.44922 68.2802 10.8906L65.7841 13.1934Q64.0791 11.2246 61.5595 11.2246Q60.0009 11.2246 58.7763 11.9102Q57.5517 12.5898 56.8662 13.8145Q56.1806 15.0391 56.1806 16.5977Q56.1806 18.1621 56.8662 19.3867Q57.5517 20.6055 58.7763 21.291Q60.0009 21.9766 61.5595 21.9766Q64.0791 21.9766 65.7841 19.9844L68.2802 22.2871Q67.0791 23.752 65.3037 24.5195Q63.5283 25.2871 61.3427 25.2871ZM70.8214 8.20117L74.6886 8.20117L74.6886 19.1465L82.7042 8.20117L86.3488 8.20117L86.3488 25L82.5109 25L82.5109 14.0781L74.4952 25L70.8214 25L70.8214 8.20117ZM105.382 8.20117L105.382 25L101.544 25L101.544 11.3652L95.7843 11.3652L95.6613 14.8691Q95.5441 18.4492 95.0871 20.6699Q94.63 22.8906 93.5636 24.0801Q92.4972 25.2637 90.5753 25.2637Q89.7843 25.2637 88.6535 25L88.8937 21.7129Q89.2101 21.8066 89.591 21.8066Q90.9855 21.8066 91.5363 20.166Q92.0871 18.5195 92.2335 15.0156L92.4738 8.20117L105.382 8.20117ZM122.589 21.8828L122.589 25L109.581 25L109.581 8.20117L122.279 8.20117L122.279 11.3184L113.443 11.3184L113.443 14.9688L121.247 14.9688L121.247 17.9922L113.443 17.9922L113.443 21.8828L122.589 21.8828ZM141.144 8.20117L141.144 25L137.253 25L137.253 18.1094L129.624 18.1094L129.624 25L125.733 25L125.733 8.20117L129.624 8.20117L129.624 14.8223L137.253 14.8223L137.253 8.20117L141.144 8.20117ZM145.341 8.20117L149.209 8.20117L149.209 19.1465L157.224 8.20117L160.869 8.20117L160.869 25L157.031 25L157.031 14.0781L149.015 25L145.341 25L145.341 8.20117ZM165.045 8.20117L168.913 8.20117L168.913 19.1465L176.928 8.20117L180.573 8.20117L180.573 25L176.735 25L176.735 14.0781L168.719 25L165.045 25L165.045 8.20117ZM172.797 7.11719Q168.186 7.11719 168.139 3.44922L170.805 3.44922Q170.852 5.20117 172.797 5.20117Q173.758 5.20117 174.262 4.75586Q174.766 4.31055 174.79 3.44922L177.45 3.44922Q177.426 5.24805 176.272 6.18555Q175.124 7.11719 172.797 7.11719ZM206.858 8.20117L206.858 25L202.991 25L202.991 11.3652L195.409 11.3652L195.409 25L191.541 25L191.541 8.20117L206.858 8.20117ZM218.301 8.20117Q220.533 8.20117 222.174 8.94531Q223.82 9.68945 224.705 11.0605Q225.596 12.4258 225.596 14.2949Q225.596 16.1465 224.705 17.5293Q223.82 18.9062 222.174 19.6387Q220.533 20.3652 218.301 20.3652L214.92 20.3652L214.92 25L211.029 25L211.029 8.20117L218.301 8.20117ZM218.084 17.2012Q219.836 17.2012 220.744 16.4453Q221.658 15.6895 221.658 14.2949Q221.658 12.8828 220.744 12.127Q219.836 11.3652 218.084 11.3652L214.92 11.3652L214.92 17.2012L218.084 17.2012ZM236.427 25.2871Q233.808 25.2871 231.704 24.1621Q229.607 23.0312 228.417 21.0508Q227.234 19.0703 227.234 16.5977Q227.234 14.1309 228.417 12.1504Q229.607 10.1699 231.704 9.04492Q233.808 7.91406 236.427 7.91406Q239.04 7.91406 241.126 9.04492Q243.218 10.1699 244.413 12.1504Q245.614 14.1309 245.614 16.5977Q245.614 19.0703 244.413 21.0508Q243.218 23.0312 241.126 24.1621Q239.04 25.2871 236.427 25.2871ZM236.427 21.9766Q237.909 21.9766 239.111 21.291Q240.312 20.6055 240.997 19.3867Q241.683 18.1621 241.683 16.5977Q241.683 15.0391 240.997 13.8145Q240.312 12.5898 239.111 11.9102Q237.909 11.2246 236.427 11.2246Q234.939 11.2246 233.737 11.9102Q232.536 12.5898 231.851 13.8145Q231.165 15.0391 231.165 16.5977Q231.165 18.1621 231.851 19.3867Q232.536 20.6055 233.737 21.291Q234.939 21.9766 236.427 21.9766ZM261.217 11.3652L255.838 11.3652L255.838 25L252 25L252 11.3652L246.645 11.3652L246.645 8.20117L261.217 8.20117L261.217 11.3652ZM263.661 8.20117L267.529 8.20117L267.529 19.1465L275.544 8.20117L279.189 8.20117L279.189 25L275.351 25L275.351 14.0781L267.335 25L263.661 25L263.661 8.20117ZM289.869 18.2324L287.186 18.2324L287.186 25L283.319 25L283.319 8.20117L287.186 8.20117L287.186 14.9922L289.969 14.9922L294.381 8.20117L298.488 8.20117L292.992 16.3105L298.653 25L294.24 25L289.869 18.2324ZM311.52 21.4023L303.721 21.4023L302.233 25L298.249 25L305.737 8.20117L309.575 8.20117L317.087 25L313.009 25L311.52 21.4023ZM310.296 18.4492L307.636 12.0156L304.97 18.4492L310.296 18.4492ZM341.495 8.20117L341.495 25L319.317 25L319.317 8.20117L323.185 8.20117L323.185 21.8301L328.487 21.8301L328.487 8.20117L332.349 8.20117L332.349 21.8301L337.634 21.8301L337.634 8.20117L341.495 8.20117ZM360.526 8.20117L360.526 25L356.688 25L356.688 11.3652L350.928 11.3652L350.805 14.8691Q350.688 18.4492 350.231 20.6699Q349.774 22.8906 348.708 24.0801Q347.641 25.2637 345.719 25.2637Q344.928 25.2637 343.797 25L344.038 21.7129Q344.354 21.8066 344.735 21.8066Q346.129 21.8066 346.68 20.166Q347.231 18.5195 347.378 15.0156L347.618 8.20117L360.526 8.20117ZM372.864 13.7207Q375.934 13.7207 377.575 15.0918Q379.221 16.457 379.221 19.1465Q379.221 22 377.411 23.5Q375.6 25 372.313 25L364.725 25L364.725 8.20117L368.593 8.20117L368.593 13.7207L372.864 13.7207ZM372.096 22.1172Q373.608 22.1172 374.458 21.3789Q375.313 20.6348 375.313 19.2168Q375.313 16.5977 372.096 16.5977L368.593 16.5977L368.593 22.1172L372.096 22.1172ZM390.051 25.2871Q387.432 25.2871 385.328 24.1621Q383.231 23.0312 382.041 21.0508Q380.858 19.0703 380.858 16.5977Q380.858 14.1309 382.041 12.1504Q383.231 10.1699 385.328 9.04492Q387.432 7.91406 390.051 7.91406Q392.664 7.91406 394.75 9.04492Q396.842 10.1699 398.037 12.1504Q399.238 14.1309 399.238 16.5977Q399.238 19.0703 398.037 21.0508Q396.842 23.0312 394.75 24.1621Q392.664 25.2871 390.051 25.2871ZM390.051 21.9766Q391.533 21.9766 392.734 21.291Q393.936 20.6055 394.621 19.3867Q395.307 18.1621 395.307 16.5977Q395.307 15.0391 394.621 13.8145Q393.936 12.5898 392.734 11.9102Q391.533 11.2246 390.051 11.2246Q388.563 11.2246 387.361 11.9102Q386.16 12.5898 385.475 13.8145Q384.789 15.0391 384.789 16.5977Q384.789 18.1621 385.475 19.3867Q386.16 20.6055 387.361 21.291Q388.563 21.9766 390.051 21.9766ZM413.88 16.2402Q415.415 16.6973 416.23 17.7285Q417.05 18.7598 417.05 20.2715Q417.05 22.5039 415.357 23.752Q413.663 25 410.517 25L402.237 25L402.237 8.20117L410.066 8.20117Q412.989 8.20117 414.618 9.33203Q416.253 10.457 416.253 12.543Q416.253 13.791 415.626 14.7402Q415.005 15.6895 413.88 16.2402ZM406.105 15.1621L409.726 15.1621Q410.997 15.1621 411.648 14.6465Q412.298 14.1309 412.298 13.1172Q412.298 12.1387 411.636 11.6113Q410.974 11.0781 409.726 11.0781L406.105 11.0781L406.105 15.1621ZM410.376 22.1172Q413.112 22.1172 413.112 19.9609Q413.112 17.8691 410.376 17.8691L406.105 17.8691L406.105 22.1172L410.376 22.1172ZM420.117 8.20117L423.985 8.20117L423.985 19.1465L432 8.20117L435.645 8.20117L435.645 25L431.807 25L431.807 14.0781L423.791 25L420.117 25L420.117 8.20117ZM439.821 8.20117L443.689 8.20117L443.689 19.1465L451.704 8.20117L455.349 8.20117L455.349 25L451.511 25L451.511 14.0781L443.495 25L439.821 25L439.821 8.20117ZM447.573 7.11719Q442.962 7.11719 442.915 3.44922L445.581 3.44922Q445.628 5.20117 447.573 5.20117Q448.534 5.20117 449.038 4.75586Q449.542 4.31055 449.566 3.44922L452.226 3.44922Q452.202 5.24805 451.048 6.18555Q449.9 7.11719 447.573 7.11719ZM479.325 21.8828L479.325 25L466.317 25L466.317 8.20117L479.015 8.20117L479.015 11.3184L470.179 11.3184L470.179 14.9688L477.983 14.9688L477.983 17.9922L470.179 17.9922L470.179 21.8828L479.325 21.8828ZM502.32 16.5508Q502.32 19.8906 500.052 21.8008Q497.785 23.7051 493.537 23.9219L493.537 25.7441L489.957 25.7441L489.957 23.8984Q485.685 23.6582 483.418 21.748Q481.15 19.8379 481.15 16.5508Q481.15 13.2402 483.418 11.3594Q485.685 9.47266 489.957 9.20898L489.957 7.48047L493.537 7.48047L493.537 9.18555Q497.785 9.42578 500.052 11.3477Q502.32 13.2637 502.32 16.5508ZM493.537 20.8691Q496.08 20.6348 497.328 19.5684Q498.576 18.4961 498.576 16.5273Q498.576 12.6895 493.537 12.2559L493.537 20.8691ZM484.918 16.5508Q484.918 20.3418 489.957 20.8691L489.957 12.2559Q487.39 12.4961 486.154 13.5391Q484.918 14.582 484.918 16.5508ZM518.229 21.8828L518.229 25L505.221 25L505.221 8.20117L517.919 8.20117L517.919 11.3184L509.083 11.3184L509.083 14.9688L516.887 14.9688L516.887 17.9922L509.083 17.9922L509.083 21.8828L518.229 21.8828ZM527.877 18.2324L525.194 18.2324L525.194 25L521.327 25L521.327 8.20117L525.194 8.20117L525.194 14.9922L527.977 14.9922L532.389 8.20117L536.496 8.20117L531 16.3105L536.661 25L532.248 25L527.877 18.2324ZM551.137 11.3652L545.758 11.3652L545.758 25L541.92 25L541.92 11.3652L536.565 11.3652L536.565 8.20117L551.137 8.20117L551.137 11.3652Z" fill="#000000" fill-opacity="1.000000" fill-rule="evenodd"/>
	<path id="Вплив на периферичну ланку кашльового рефлексу за рахунок протизапальної дії" d="M50.6936 169.287Q52.3987 169.697 53.2717 170.74Q54.1506 171.783 54.1506 173.418Q54.1506 175.598 52.551 176.799Q50.9573 178 47.9104 178L40.2288 178L40.2288 161.201L47.4534 161.201Q50.2131 161.201 51.76 162.32Q53.3127 163.434 53.3127 165.52Q53.3127 166.891 52.6272 167.852Q51.9417 168.807 50.6936 169.287ZM42.6077 168.59L47.2893 168.59Q49.0413 168.59 49.9612 167.898Q50.887 167.201 50.887 165.854Q50.887 164.512 49.9495 163.803Q49.0178 163.094 47.2893 163.094L42.6077 163.094L42.6077 168.59ZM47.8635 176.102Q51.7249 176.102 51.7249 173.225Q51.7249 171.783 50.7522 171.104Q49.7854 170.418 47.8635 170.418L42.6077 170.418L42.6077 176.102L47.8635 176.102ZM69.5591 165.279L69.5591 178L67.2564 178L67.2564 167.295L60.0786 167.295L60.0786 178L57.7759 178L57.7759 165.279L69.5591 165.279ZM84.9458 165.279L84.9458 178L82.6372 178L82.6372 167.295L77.1704 167.295L77.0239 170.131Q76.9008 172.697 76.5669 174.414Q76.2329 176.131 75.4653 177.162Q74.6977 178.193 73.3266 178.193Q72.7055 178.193 71.9087 177.977L72.0551 176.031Q72.3657 176.102 72.6294 176.102Q73.5903 176.102 74.0708 175.264Q74.5512 174.426 74.6919 173.271Q74.8383 172.117 74.9614 169.984L75.1782 165.279L84.9458 165.279ZM89.4079 165.279L91.7106 165.279L91.7106 174.543L99.5095 165.279L101.601 165.279L101.601 178L99.2927 178L99.2927 168.736L91.5173 178L89.4079 178L89.4079 165.279ZM114.73 171.402Q117.197 172.023 117.197 174.496Q117.197 176.178 115.937 177.092Q114.677 178 112.181 178L106.064 178L106.064 165.279L111.97 165.279Q114.226 165.279 115.497 166.135Q116.769 166.984 116.769 168.543Q116.769 169.551 116.224 170.283Q115.685 171.016 114.73 171.402ZM108.32 170.752L111.777 170.752Q113.095 170.752 113.781 170.271Q114.466 169.791 114.466 168.883Q114.466 167.055 111.777 167.055L108.32 167.055L108.32 170.752ZM112.017 176.225Q113.453 176.225 114.173 175.768Q114.894 175.311 114.894 174.35Q114.894 173.365 114.232 172.891Q113.576 172.41 112.158 172.41L108.32 172.41L108.32 176.225L112.017 176.225ZM127.256 165.279L129.559 165.279L129.559 170.682L136.807 170.682L136.807 165.279L139.109 165.279L139.109 178L136.807 178L136.807 172.674L129.559 172.674L129.559 178L127.256 178L127.256 165.279ZM148.135 165.162Q150.778 165.162 152.178 166.457Q153.584 167.752 153.584 170.318L153.584 178L151.399 178L151.399 176.318Q150.825 177.209 149.752 177.678Q148.686 178.146 147.227 178.146Q145.088 178.146 143.805 177.115Q142.522 176.078 142.522 174.402Q142.522 172.721 143.746 171.701Q144.971 170.682 147.631 170.682L151.282 170.682L151.282 170.225Q151.282 168.736 150.414 167.945Q149.553 167.154 147.871 167.154Q146.746 167.154 145.662 167.529Q144.584 167.898 143.84 168.52L142.879 166.791Q143.864 166 145.229 165.584Q146.6 165.162 148.135 165.162ZM147.608 176.365Q148.926 176.365 149.887 175.779Q150.848 175.193 151.282 174.109L151.282 172.334L147.731 172.334Q144.801 172.334 144.801 174.303Q144.801 175.264 145.545 175.814Q146.289 176.365 147.608 176.365ZM175.975 165.279L175.975 178L173.672 178L173.672 167.295L166.495 167.295L166.495 178L164.192 178L164.192 165.279L175.975 165.279ZM191.936 171.713Q191.936 171.977 191.889 172.41L181.565 172.41Q181.782 174.086 183.041 175.111Q184.301 176.131 186.176 176.131Q188.456 176.131 189.844 174.59L191.116 176.078Q190.254 177.086 188.971 177.619Q187.688 178.146 186.1 178.146Q184.084 178.146 182.526 177.32Q180.967 176.488 180.112 175Q179.262 173.512 179.262 171.643Q179.262 169.791 180.088 168.303Q180.92 166.814 182.368 165.988Q183.821 165.162 185.649 165.162Q187.471 165.162 188.895 165.988Q190.325 166.814 191.127 168.303Q191.936 169.791 191.936 171.713ZM185.649 167.102Q183.991 167.102 182.872 168.109Q181.758 169.117 181.565 170.752L189.727 170.752Q189.534 169.146 188.415 168.127Q187.301 167.102 185.649 167.102ZM202.256 165.162Q204.102 165.162 205.567 165.977Q207.031 166.791 207.858 168.256Q208.684 169.721 208.684 171.643Q208.684 173.559 207.858 175.035Q207.031 176.512 205.567 177.332Q204.102 178.146 202.256 178.146Q200.885 178.146 199.742 177.619Q198.606 177.086 197.815 176.078L197.815 182.658L195.512 182.658L195.512 165.279L197.721 165.279L197.721 167.295Q198.488 166.24 199.66 165.701Q200.838 165.162 202.256 165.162ZM202.063 176.131Q203.287 176.131 204.26 175.568Q205.233 175 205.795 173.98Q206.358 172.961 206.358 171.643Q206.358 170.318 205.795 169.299Q205.233 168.279 204.26 167.729Q203.287 167.178 202.063 167.178Q200.862 167.178 199.889 167.74Q198.916 168.303 198.354 169.311Q197.791 170.318 197.791 171.643Q197.791 172.961 198.342 173.98Q198.893 175 199.877 175.568Q200.862 176.131 202.063 176.131ZM212.024 165.279L214.327 165.279L214.327 174.543L222.125 165.279L224.217 165.279L224.217 178L221.909 178L221.909 168.736L214.133 178L212.024 178L212.024 165.279ZM244.735 171.613Q244.735 174.566 242.766 176.271Q240.797 177.977 237.223 178.17L237.223 182.658L234.967 182.658L234.967 178.17Q231.393 177.977 229.436 176.283Q227.479 174.59 227.479 171.613Q227.479 168.666 229.424 167.008Q231.369 165.35 234.967 165.162L234.967 160.193L237.223 160.193L237.223 165.162Q240.797 165.35 242.766 167.02Q244.735 168.689 244.735 171.613ZM229.758 171.613Q229.758 173.658 231.065 174.812Q232.377 175.961 234.967 176.131L234.967 167.201Q232.354 167.365 231.053 168.496Q229.758 169.621 229.758 171.613ZM237.223 176.154Q242.455 175.744 242.455 171.613Q242.455 169.598 241.131 168.484Q239.813 167.365 237.223 167.201L237.223 176.154ZM259.496 171.713Q259.496 171.977 259.449 172.41L249.125 172.41Q249.342 174.086 250.601 175.111Q251.861 176.131 253.736 176.131Q256.016 176.131 257.404 174.59L258.676 176.078Q257.814 177.086 256.531 177.619Q255.248 178.146 253.66 178.146Q251.644 178.146 250.086 177.32Q248.527 176.488 247.672 175Q246.822 173.512 246.822 171.643Q246.822 169.791 247.648 168.303Q248.48 166.814 249.928 165.988Q251.381 165.162 253.209 165.162Q255.031 165.162 256.455 165.988Q257.885 166.814 258.687 168.303Q259.496 169.791 259.496 171.713ZM253.209 167.102Q251.551 167.102 250.432 168.109Q249.318 169.117 249.125 170.752L257.287 170.752Q257.094 169.146 255.975 168.127Q254.861 167.102 253.209 167.102ZM269.816 165.162Q271.662 165.162 273.127 165.977Q274.591 166.791 275.418 168.256Q276.244 169.721 276.244 171.643Q276.244 173.559 275.418 175.035Q274.591 176.512 273.127 177.332Q271.662 178.146 269.816 178.146Q268.445 178.146 267.302 177.619Q266.166 177.086 265.375 176.078L265.375 182.658L263.072 182.658L263.072 165.279L265.281 165.279L265.281 167.295Q266.048 166.24 267.22 165.701Q268.398 165.162 269.816 165.162ZM269.623 176.131Q270.847 176.131 271.82 175.568Q272.793 175 273.355 173.98Q273.918 172.961 273.918 171.643Q273.918 170.318 273.355 169.299Q272.793 168.279 271.82 167.729Q270.847 167.178 269.623 167.178Q268.422 167.178 267.449 167.74Q266.476 168.303 265.914 169.311Q265.351 170.318 265.351 171.643Q265.351 172.961 265.902 173.98Q266.453 175 267.437 175.568Q268.422 176.131 269.623 176.131ZM279.584 165.279L281.887 165.279L281.887 174.543L289.685 165.279L291.777 165.279L291.777 178L289.469 178L289.469 168.736L281.693 178L279.584 178L279.584 165.279ZM306.394 165.279L306.394 178L304.086 178L304.086 172.861Q302.023 173.822 299.984 173.822Q297.605 173.822 296.31 172.721Q295.015 171.613 295.015 169.41L295.015 165.279L297.318 165.279L297.318 169.264Q297.318 170.582 298.144 171.256Q298.976 171.93 300.465 171.93Q302.146 171.93 304.086 171.086L304.086 165.279L306.394 165.279ZM310.856 165.279L313.159 165.279L313.159 170.682L320.407 170.682L320.407 165.279L322.709 165.279L322.709 178L320.407 178L320.407 172.674L313.159 172.674L313.159 178L310.856 178L310.856 165.279ZM338.555 165.279L332.385 179.271Q331.571 181.217 330.475 182.008Q329.385 182.799 327.85 182.799Q326.913 182.799 326.034 182.5Q325.161 182.201 324.587 181.621L325.571 179.898Q326.555 180.83 327.85 180.83Q328.688 180.83 329.251 180.385Q329.819 179.945 330.276 178.861L330.68 177.977L325.067 165.279L327.464 165.279L331.905 175.457L336.3 165.279L338.555 165.279ZM358.282 165.279L358.282 178L355.973 178L355.973 167.295L350.506 167.295L350.36 170.131Q350.237 172.697 349.903 174.414Q349.569 176.131 348.801 177.162Q348.034 178.193 346.663 178.193Q346.042 178.193 345.245 177.977L345.391 176.031Q345.702 176.102 345.965 176.102Q346.926 176.102 347.407 175.264Q347.887 174.426 348.028 173.271Q348.174 172.117 348.297 169.984L348.514 165.279L358.282 165.279ZM367.279 165.162Q369.922 165.162 371.322 166.457Q372.728 167.752 372.728 170.318L372.728 178L370.543 178L370.543 176.318Q369.969 177.209 368.896 177.678Q367.83 178.146 366.371 178.146Q364.232 178.146 362.949 177.115Q361.666 176.078 361.666 174.402Q361.666 172.721 362.89 171.701Q364.115 170.682 366.775 170.682L370.426 170.682L370.426 170.225Q370.426 168.736 369.558 167.945Q368.697 167.154 367.015 167.154Q365.89 167.154 364.806 167.529Q363.728 167.898 362.984 168.52L362.023 166.791Q363.008 166 364.373 165.584Q365.744 165.162 367.279 165.162ZM366.752 176.365Q368.07 176.365 369.031 175.779Q369.992 175.193 370.426 174.109L370.426 172.334L366.875 172.334Q363.945 172.334 363.945 174.303Q363.945 175.264 364.689 175.814Q365.433 176.365 366.752 176.365ZM376.88 165.279L379.183 165.279L379.183 170.682L386.431 170.682L386.431 165.279L388.733 165.279L388.733 178L386.431 178L386.431 172.674L379.183 172.674L379.183 178L376.88 178L376.88 165.279ZM398.169 172.621L395.527 172.621L395.527 178L393.224 178L393.224 165.279L395.527 165.279L395.527 170.658L398.216 170.658L402.341 165.279L404.814 165.279L399.991 171.402L405.154 178L402.441 178L398.169 172.621ZM418.211 165.279L412.041 179.271Q411.227 181.217 410.131 182.008Q409.041 182.799 407.506 182.799Q406.569 182.799 405.69 182.5Q404.817 182.201 404.243 181.621L405.227 179.898Q406.211 180.83 407.506 180.83Q408.344 180.83 408.907 180.385Q409.475 179.945 409.932 178.861L410.336 177.977L404.723 165.279L407.12 165.279L411.561 175.457L415.956 165.279L418.211 165.279ZM431.961 172.621L429.319 172.621L429.319 178L427.016 178L427.016 165.279L429.319 165.279L429.319 170.658L432.008 170.658L436.133 165.279L438.606 165.279L433.783 171.402L438.946 178L436.233 178L431.961 172.621ZM445.663 165.162Q448.306 165.162 449.706 166.457Q451.112 167.752 451.112 170.318L451.112 178L448.927 178L448.927 176.318Q448.353 177.209 447.28 177.678Q446.214 178.146 444.755 178.146Q442.616 178.146 441.333 177.115Q440.05 176.078 440.05 174.402Q440.05 172.721 441.274 171.701Q442.499 170.682 445.159 170.682L448.81 170.682L448.81 170.225Q448.81 168.736 447.942 167.945Q447.081 167.154 445.399 167.154Q444.274 167.154 443.19 167.529Q442.112 167.898 441.368 168.52L440.407 166.791Q441.392 166 442.757 165.584Q444.128 165.162 445.663 165.162ZM445.136 176.365Q446.454 176.365 447.415 175.779Q448.376 175.193 448.81 174.109L448.81 172.334L445.259 172.334Q442.329 172.334 442.329 174.303Q442.329 175.264 443.073 175.814Q443.817 176.365 445.136 176.365ZM473.381 165.279L473.381 178L455.264 178L455.264 165.279L457.567 165.279L457.567 175.984L463.186 175.984L463.186 165.279L465.488 165.279L465.488 175.984L471.078 175.984L471.078 165.279L473.381 165.279ZM488.77 165.279L488.77 178L486.461 178L486.461 167.295L480.994 167.295L480.848 170.131Q480.725 172.697 480.391 174.414Q480.057 176.131 479.289 177.162Q478.522 178.193 477.151 178.193Q476.53 178.193 475.733 177.977L475.879 176.031Q476.19 176.102 476.453 176.102Q477.414 176.102 477.895 175.264Q478.375 174.426 478.516 173.271Q478.662 172.117 478.785 169.984L479.002 165.279L488.77 165.279ZM499.109 169.598Q501.535 169.621 502.806 170.705Q504.078 171.783 504.078 173.752Q504.078 175.814 502.695 176.934Q501.318 178.047 498.751 178.023L493.232 178L493.232 165.279L495.535 165.279L495.535 169.574L499.109 169.598ZM498.558 176.271Q500.117 176.295 500.919 175.65Q501.728 175 501.728 173.729Q501.728 172.48 500.949 171.906Q500.169 171.326 498.558 171.303L495.535 171.256L495.535 176.248L498.558 176.271ZM512.481 178.146Q510.583 178.146 509.071 177.309Q507.559 176.465 506.704 174.988Q505.854 173.512 505.854 171.643Q505.854 169.768 506.704 168.291Q507.559 166.814 509.071 165.988Q510.583 165.162 512.481 165.162Q514.374 165.162 515.874 165.988Q517.374 166.814 518.223 168.291Q519.079 169.768 519.079 171.643Q519.079 173.512 518.223 174.988Q517.374 176.465 515.874 177.309Q514.374 178.146 512.481 178.146ZM512.481 176.131Q513.7 176.131 514.672 175.568Q515.645 175 516.196 173.98Q516.753 172.961 516.753 171.643Q516.753 170.318 516.196 169.299Q515.645 168.279 514.672 167.729Q513.7 167.178 512.481 167.178Q511.257 167.178 510.284 167.729Q509.311 168.279 508.743 169.299Q508.18 170.318 508.18 171.643Q508.18 172.961 508.743 173.98Q509.311 175 510.284 175.568Q511.257 176.131 512.481 176.131ZM531.082 171.402Q533.549 172.023 533.549 174.496Q533.549 176.178 532.289 177.092Q531.029 178 528.533 178L522.416 178L522.416 165.279L528.322 165.279Q530.578 165.279 531.849 166.135Q533.121 166.984 533.121 168.543Q533.121 169.551 532.576 170.283Q532.037 171.016 531.082 171.402ZM524.672 170.752L528.129 170.752Q529.447 170.752 530.133 170.271Q530.818 169.791 530.818 168.883Q530.818 167.055 528.129 167.055L524.672 167.055L524.672 170.752ZM528.369 176.225Q529.805 176.225 530.525 175.768Q531.246 175.311 531.246 174.35Q531.246 173.365 530.584 172.891Q529.928 172.41 528.51 172.41L524.672 172.41L524.672 176.225L528.369 176.225ZM542.601 178.146Q540.703 178.146 539.191 177.309Q537.679 176.465 536.824 174.988Q535.974 173.512 535.974 171.643Q535.974 169.768 536.824 168.291Q537.679 166.814 539.191 165.988Q540.703 165.162 542.601 165.162Q544.494 165.162 545.994 165.988Q547.494 166.814 548.343 168.291Q549.199 169.768 549.199 171.643Q549.199 173.512 548.343 174.988Q547.494 176.465 545.994 177.309Q544.494 178.146 542.601 178.146ZM542.601 176.131Q543.82 176.131 544.792 175.568Q545.765 175 546.316 173.98Q546.873 172.961 546.873 171.643Q546.873 170.318 546.316 169.299Q545.765 168.279 544.792 167.729Q543.82 167.178 542.601 167.178Q541.376 167.178 540.404 167.729Q539.431 168.279 538.863 169.299Q538.3 170.318 538.3 171.643Q538.3 172.961 538.863 173.98Q539.431 175 540.404 175.568Q541.376 176.131 542.601 176.131ZM561.893 167.295L554.839 167.295L554.839 178L552.536 178L552.536 165.279L561.893 165.279L561.893 167.295ZM569.145 178.146Q567.247 178.146 565.735 177.309Q564.223 176.465 563.368 174.988Q562.518 173.512 562.518 171.643Q562.518 169.768 563.368 168.291Q564.223 166.814 565.735 165.988Q567.247 165.162 569.145 165.162Q571.038 165.162 572.538 165.988Q574.038 166.814 574.887 168.291Q575.743 169.768 575.743 171.643Q575.743 173.512 574.887 174.988Q574.038 176.465 572.538 177.309Q571.038 178.146 569.145 178.146ZM569.145 176.131Q570.364 176.131 571.336 175.568Q572.309 175 572.86 173.98Q573.417 172.961 573.417 171.643Q573.417 170.318 572.86 169.299Q572.309 168.279 571.336 167.729Q570.364 167.178 569.145 167.178Q567.92 167.178 566.948 167.729Q565.975 168.279 565.407 169.299Q564.844 170.318 564.844 171.643Q564.844 172.961 565.407 173.98Q565.975 175 566.948 175.568Q567.92 176.131 569.145 176.131ZM46.592 199.162Q48.4377 199.162 49.9026 199.977Q51.3674 200.791 52.1936 202.256Q53.0198 203.721 53.0198 205.643Q53.0198 207.559 52.1936 209.035Q51.3674 210.512 49.9026 211.332Q48.4377 212.146 46.592 212.146Q45.2209 212.146 44.0784 211.619Q42.9417 211.086 42.1506 210.078L42.1506 216.658L39.8479 216.658L39.8479 199.279L42.0569 199.279L42.0569 201.295Q42.8245 200.24 43.9963 199.701Q45.1741 199.162 46.592 199.162ZM46.3987 210.131Q47.6233 210.131 48.5959 209.568Q49.5686 209 50.1311 207.98Q50.6936 206.961 50.6936 205.643Q50.6936 204.318 50.1311 203.299Q49.5686 202.279 48.5959 201.729Q47.6233 201.178 46.3987 201.178Q45.1975 201.178 44.2249 201.74Q43.2522 202.303 42.6897 203.311Q42.1272 204.318 42.1272 205.643Q42.1272 206.961 42.678 207.98Q43.2288 209 44.2131 209.568Q45.1975 210.131 46.3987 210.131ZM67.856 205.713Q67.856 205.977 67.8091 206.41L57.4849 206.41Q57.7017 208.086 58.9615 209.111Q60.2212 210.131 62.0962 210.131Q64.3755 210.131 65.7642 208.59L67.0357 210.078Q66.1744 211.086 64.8912 211.619Q63.6079 212.146 62.0201 212.146Q60.0044 212.146 58.4458 211.32Q56.8872 210.488 56.0318 209Q55.1822 207.512 55.1822 205.643Q55.1822 203.791 56.0083 202.303Q56.8404 200.814 58.2876 199.988Q59.7408 199.162 61.5689 199.162Q63.3912 199.162 64.815 199.988Q66.2447 200.814 67.0474 202.303Q67.856 203.791 67.856 205.713ZM61.5689 201.102Q59.9107 201.102 58.7915 202.109Q57.6783 203.117 57.4849 204.752L65.647 204.752Q65.4537 203.146 64.3345 202.127Q63.2212 201.102 61.5689 201.102ZM87.4866 205.613Q87.4866 208.566 85.5178 210.271Q83.5491 211.977 79.9749 212.17L79.9749 216.658L77.719 216.658L77.719 212.17Q74.1448 211.977 72.1878 210.283Q70.2307 208.59 70.2307 205.613Q70.2307 202.666 72.176 201.008Q74.1214 199.35 77.719 199.162L77.719 194.193L79.9749 194.193L79.9749 199.162Q83.5491 199.35 85.5178 201.02Q87.4866 202.689 87.4866 205.613ZM72.51 205.613Q72.51 207.658 73.8167 208.812Q75.1292 209.961 77.719 210.131L77.719 201.201Q75.1057 201.365 73.8049 202.496Q72.51 203.621 72.51 205.613ZM79.9749 210.154Q85.2073 209.744 85.2073 205.613Q85.2073 203.598 83.8831 202.484Q82.5647 201.365 79.9749 201.201L79.9749 210.154ZM101.578 199.279L101.578 212L99.2692 212L99.2692 201.295L93.8024 201.295L93.6559 204.131Q93.5329 206.697 93.1989 208.414Q92.8649 210.131 92.0973 211.162Q91.3297 212.193 89.9586 212.193Q89.3375 212.193 88.5407 211.977L88.6871 210.031Q88.9977 210.102 89.2614 210.102Q90.2223 210.102 90.7028 209.264Q91.1832 208.426 91.3239 207.271Q91.4704 206.117 91.5934 203.984L91.8102 199.279L101.578 199.279ZM117.536 205.713Q117.536 205.977 117.489 206.41L107.165 206.41Q107.382 208.086 108.641 209.111Q109.901 210.131 111.776 210.131Q114.056 210.131 115.444 208.59L116.716 210.078Q115.854 211.086 114.571 211.619Q113.288 212.146 111.7 212.146Q109.684 212.146 108.126 211.32Q106.567 210.488 105.712 209Q104.862 207.512 104.862 205.643Q104.862 203.791 105.688 202.303Q106.52 200.814 107.968 199.988Q109.421 199.162 111.249 199.162Q113.071 199.162 114.495 199.988Q115.925 200.814 116.727 202.303Q117.536 203.791 117.536 205.713ZM111.249 201.102Q109.591 201.102 108.472 202.109Q107.358 203.117 107.165 204.752L115.327 204.752Q115.134 203.146 114.015 202.127Q112.901 201.102 111.249 201.102ZM126.057 206.621L123.415 206.621L123.415 212L121.112 212L121.112 199.279L123.415 199.279L123.415 204.658L126.104 204.658L130.229 199.279L132.702 199.279L127.879 205.402L133.042 212L130.329 212L126.057 206.621ZM140.575 212.146Q138.63 212.146 137.106 211.309Q135.583 210.465 134.715 208.988Q133.854 207.512 133.854 205.643Q133.854 203.768 134.715 202.291Q135.583 200.814 137.106 199.988Q138.63 199.162 140.575 199.162Q142.303 199.162 143.657 199.859Q145.016 200.551 145.76 201.869L144.008 203Q143.405 202.086 142.514 201.635Q141.63 201.178 140.551 201.178Q139.303 201.178 138.307 201.729Q137.311 202.279 136.743 203.299Q136.18 204.318 136.18 205.643Q136.18 206.984 136.743 208.004Q137.311 209.023 138.307 209.58Q139.303 210.131 140.551 210.131Q141.63 210.131 142.514 209.674Q143.405 209.217 144.008 208.303L145.76 209.41Q145.016 210.729 143.657 211.438Q142.303 212.146 140.575 212.146ZM159.923 199.279L153.753 213.271Q152.939 215.217 151.843 216.008Q150.753 216.799 149.218 216.799Q148.281 216.799 147.402 216.5Q146.529 216.201 145.955 215.621L146.939 213.898Q147.923 214.83 149.218 214.83Q150.056 214.83 150.619 214.385Q151.187 213.945 151.644 212.861L152.048 211.977L146.435 199.279L148.832 199.279L153.273 209.457L157.668 199.279L159.923 199.279ZM175.613 205.379Q176.89 205.713 177.581 206.457Q178.279 207.201 178.279 208.303Q178.279 209.434 177.511 210.312Q176.744 211.186 175.384 211.678Q174.031 212.17 172.349 212.17Q170.937 212.17 169.578 211.801Q168.224 211.426 167.169 210.729L167.861 208.977Q168.775 209.551 169.953 209.879Q171.13 210.201 172.326 210.201Q173.96 210.201 174.933 209.639Q175.906 209.07 175.906 208.109Q175.906 207.225 175.12 206.744Q174.341 206.264 172.929 206.264L170.597 206.264L170.597 204.605L172.759 204.605Q174.054 204.605 174.798 204.154Q175.542 203.697 175.542 202.906Q175.542 202.039 174.663 201.559Q173.79 201.078 172.302 201.078Q170.41 201.078 168.294 202.062L167.673 200.287Q169.999 199.109 172.542 199.109Q174.078 199.109 175.302 199.543Q176.527 199.977 177.224 200.768Q177.921 201.559 177.921 202.566Q177.921 203.504 177.294 204.248Q176.673 204.992 175.613 205.379ZM186.319 199.162Q188.962 199.162 190.362 200.457Q191.768 201.752 191.768 204.318L191.768 212L189.583 212L189.583 210.318Q189.009 211.209 187.936 211.678Q186.87 212.146 185.411 212.146Q183.272 212.146 181.989 211.115Q180.706 210.078 180.706 208.402Q180.706 206.721 181.93 205.701Q183.155 204.682 185.815 204.682L189.466 204.682L189.466 204.225Q189.466 202.736 188.598 201.945Q187.737 201.154 186.055 201.154Q184.93 201.154 183.846 201.529Q182.768 201.898 182.024 202.52L181.063 200.791Q182.048 200 183.413 199.584Q184.784 199.162 186.319 199.162ZM185.792 210.365Q187.11 210.365 188.071 209.779Q189.032 209.193 189.466 208.109L189.466 206.334L185.915 206.334Q182.985 206.334 182.985 208.303Q182.985 209.264 183.729 209.814Q184.473 210.365 185.792 210.365ZM209.12 199.162Q210.966 199.162 212.431 199.977Q213.895 200.791 214.722 202.256Q215.548 203.721 215.548 205.643Q215.548 207.559 214.722 209.035Q213.895 210.512 212.431 211.332Q210.966 212.146 209.12 212.146Q207.749 212.146 206.606 211.619Q205.47 211.086 204.679 210.078L204.679 216.658L202.376 216.658L202.376 199.279L204.585 199.279L204.585 201.295Q205.352 200.24 206.524 199.701Q207.702 199.162 209.12 199.162ZM208.927 210.131Q210.151 210.131 211.124 209.568Q212.097 209 212.659 207.98Q213.222 206.961 213.222 205.643Q213.222 204.318 212.659 203.299Q212.097 202.279 211.124 201.729Q210.151 201.178 208.927 201.178Q207.726 201.178 206.753 201.74Q205.78 202.303 205.218 203.311Q204.655 204.318 204.655 205.643Q204.655 206.961 205.206 207.98Q205.757 209 206.741 209.568Q207.726 210.131 208.927 210.131ZM223.303 199.162Q225.946 199.162 227.346 200.457Q228.752 201.752 228.752 204.318L228.752 212L226.567 212L226.567 210.318Q225.993 211.209 224.92 211.678Q223.854 212.146 222.395 212.146Q220.256 212.146 218.973 211.115Q217.69 210.078 217.69 208.402Q217.69 206.721 218.914 205.701Q220.139 204.682 222.799 204.682L226.45 204.682L226.45 204.225Q226.45 202.736 225.582 201.945Q224.721 201.154 223.039 201.154Q221.914 201.154 220.83 201.529Q219.752 201.898 219.008 202.52L218.047 200.791Q219.032 200 220.397 199.584Q221.768 199.162 223.303 199.162ZM222.776 210.365Q224.094 210.365 225.055 209.779Q226.016 209.193 226.45 208.109L226.45 206.334L222.899 206.334Q219.969 206.334 219.969 208.303Q219.969 209.264 220.713 209.814Q221.457 210.365 222.776 210.365ZM240.849 212L237.175 207.131L233.461 212L230.888 212L235.904 205.496L231.129 199.279L233.701 199.279L237.205 203.861L240.685 199.279L243.205 199.279L238.4 205.496L243.468 212L240.849 212ZM256.523 199.279L250.353 213.271Q249.539 215.217 248.443 216.008Q247.353 216.799 245.818 216.799Q244.881 216.799 244.002 216.5Q243.129 216.201 242.555 215.621L243.539 213.898Q244.523 214.83 245.818 214.83Q246.656 214.83 247.219 214.385Q247.787 213.945 248.244 212.861L248.648 211.977L243.035 199.279L245.432 199.279L249.873 209.457L254.268 199.279L256.523 199.279ZM258.872 199.279L261.175 199.279L261.175 204.682L268.423 204.682L268.423 199.279L270.725 199.279L270.725 212L268.423 212L268.423 206.674L261.175 206.674L261.175 212L258.872 212L258.872 199.279ZM280.665 212.146Q278.767 212.146 277.255 211.309Q275.743 210.465 274.888 208.988Q274.038 207.512 274.038 205.643Q274.038 203.768 274.888 202.291Q275.743 200.814 277.255 199.988Q278.767 199.162 280.665 199.162Q282.558 199.162 284.058 199.988Q285.558 200.814 286.407 202.291Q287.263 203.768 287.263 205.643Q287.263 207.512 286.407 208.988Q285.558 210.465 284.058 211.309Q282.558 212.146 280.665 212.146ZM280.665 210.131Q281.884 210.131 282.857 209.568Q283.829 209 284.38 207.98Q284.937 206.961 284.937 205.643Q284.937 204.318 284.38 203.299Q283.829 202.279 282.857 201.729Q281.884 201.178 280.665 201.178Q279.44 201.178 278.468 201.729Q277.495 202.279 276.927 203.299Q276.364 204.318 276.364 205.643Q276.364 206.961 276.927 207.98Q277.495 209 278.468 209.568Q279.44 210.131 280.665 210.131ZM295.545 206.621L292.903 206.621L292.903 212L290.6 212L290.6 199.279L292.903 199.279L292.903 204.658L295.592 204.658L299.717 199.279L302.19 199.279L297.367 205.402L302.53 212L299.817 212L295.545 206.621ZM323.191 199.279L323.191 212L320.888 212L320.888 201.295L313.711 201.295L313.711 212L311.408 212L311.408 199.279L323.191 199.279ZM334.4 199.162Q336.246 199.162 337.711 199.977Q339.175 200.791 340.002 202.256Q340.828 203.721 340.828 205.643Q340.828 207.559 340.002 209.035Q339.175 210.512 337.711 211.332Q336.246 212.146 334.4 212.146Q333.029 212.146 331.886 211.619Q330.75 211.086 329.959 210.078L329.959 216.658L327.656 216.658L327.656 199.279L329.865 199.279L329.865 201.295Q330.632 200.24 331.804 199.701Q332.982 199.162 334.4 199.162ZM334.207 210.131Q335.431 210.131 336.404 209.568Q337.377 209 337.939 207.98Q338.502 206.961 338.502 205.643Q338.502 204.318 337.939 203.299Q337.377 202.279 336.404 201.729Q335.431 201.178 334.207 201.178Q333.005 201.178 332.033 201.74Q331.06 202.303 330.498 203.311Q329.935 204.318 329.935 205.643Q329.935 206.961 330.486 207.98Q331.037 209 332.021 209.568Q333.005 210.131 334.207 210.131ZM349.617 212.146Q347.719 212.146 346.207 211.309Q344.695 210.465 343.84 208.988Q342.99 207.512 342.99 205.643Q342.99 203.768 343.84 202.291Q344.695 200.814 346.207 199.988Q347.719 199.162 349.617 199.162Q351.51 199.162 353.01 199.988Q354.51 200.814 355.359 202.291Q356.215 203.768 356.215 205.643Q356.215 207.512 355.359 208.988Q354.51 210.465 353.01 211.309Q351.51 212.146 349.617 212.146ZM349.617 210.131Q350.836 210.131 351.809 209.568Q352.781 209 353.332 207.98Q353.889 206.961 353.889 205.643Q353.889 204.318 353.332 203.299Q352.781 202.279 351.809 201.729Q350.836 201.178 349.617 201.178Q348.392 201.178 347.42 201.729Q346.447 202.279 345.879 203.299Q345.316 204.318 345.316 205.643Q345.316 206.961 345.879 207.98Q346.447 209 347.42 209.568Q348.392 210.131 349.617 210.131ZM368.552 201.295L363.894 201.295L363.894 212L361.591 212L361.591 201.295L356.933 201.295L356.933 199.279L368.552 199.279L368.552 201.295ZM370.904 199.279L373.207 199.279L373.207 208.543L381.005 199.279L383.097 199.279L383.097 212L380.789 212L380.789 202.736L373.013 212L370.904 212L370.904 199.279ZM394.229 205.379Q395.506 205.713 396.197 206.457Q396.895 207.201 396.895 208.303Q396.895 209.434 396.127 210.312Q395.359 211.186 394 211.678Q392.647 212.17 390.965 212.17Q389.553 212.17 388.193 211.801Q386.84 211.426 385.785 210.729L386.477 208.977Q387.391 209.551 388.568 209.879Q389.746 210.201 390.942 210.201Q392.576 210.201 393.549 209.639Q394.522 209.07 394.522 208.109Q394.522 207.225 393.736 206.744Q392.957 206.264 391.545 206.264L389.213 206.264L389.213 204.605L391.375 204.605Q392.67 204.605 393.414 204.154Q394.158 203.697 394.158 202.906Q394.158 202.039 393.279 201.559Q392.406 201.078 390.918 201.078Q389.026 201.078 386.91 202.062L386.289 200.287Q388.615 199.109 391.158 199.109Q392.693 199.109 393.918 199.543Q395.143 199.977 395.84 200.768Q396.537 201.559 396.537 202.566Q396.537 203.504 395.91 204.248Q395.289 204.992 394.229 205.379ZM404.935 199.162Q407.578 199.162 408.978 200.457Q410.384 201.752 410.384 204.318L410.384 212L408.199 212L408.199 210.318Q407.624 211.209 406.552 211.678Q405.486 212.146 404.027 212.146Q401.888 212.146 400.605 211.115Q399.322 210.078 399.322 208.402Q399.322 206.721 400.546 205.701Q401.771 204.682 404.431 204.682L408.082 204.682L408.082 204.225Q408.082 202.736 407.214 201.945Q406.353 201.154 404.671 201.154Q403.546 201.154 402.462 201.529Q401.384 201.898 400.64 202.52L399.679 200.791Q400.664 200 402.029 199.584Q403.4 199.162 404.935 199.162ZM404.408 210.365Q405.726 210.365 406.687 209.779Q407.648 209.193 408.082 208.109L408.082 206.334L404.531 206.334Q401.601 206.334 401.601 208.303Q401.601 209.264 402.345 209.814Q403.089 210.365 404.408 210.365ZM426.319 199.279L426.319 212L424.016 212L424.016 201.295L416.839 201.295L416.839 212L414.536 212L414.536 199.279L426.319 199.279ZM435.319 199.162Q437.962 199.162 439.362 200.457Q440.768 201.752 440.768 204.318L440.768 212L438.583 212L438.583 210.318Q438.008 211.209 436.936 211.678Q435.87 212.146 434.411 212.146Q432.272 212.146 430.989 211.115Q429.706 210.078 429.706 208.402Q429.706 206.721 430.93 205.701Q432.155 204.682 434.815 204.682L438.465 204.682L438.465 204.225Q438.465 202.736 437.598 201.945Q436.737 201.154 435.055 201.154Q433.93 201.154 432.846 201.529Q431.768 201.898 431.024 202.52L430.063 200.791Q431.048 200 432.413 199.584Q433.784 199.162 435.319 199.162ZM434.792 210.365Q436.11 210.365 437.071 209.779Q438.032 209.193 438.465 208.109L438.465 206.334L434.915 206.334Q431.985 206.334 431.985 208.303Q431.985 209.264 432.729 209.814Q433.473 210.365 434.792 210.365ZM455.842 199.279L455.842 212L453.533 212L453.533 201.295L448.066 201.295L447.92 204.131Q447.797 206.697 447.463 208.414Q447.129 210.131 446.361 211.162Q445.594 212.193 444.223 212.193Q443.601 212.193 442.805 211.977L442.951 210.031Q443.262 210.102 443.525 210.102Q444.486 210.102 444.967 209.264Q445.447 208.426 445.588 207.271Q445.734 206.117 445.857 203.984L446.074 199.279L455.842 199.279ZM466.181 203.598Q468.607 203.621 469.878 204.705Q471.15 205.783 471.15 207.752Q471.15 209.814 469.767 210.934Q468.39 212.047 465.823 212.023L460.304 212L460.304 199.279L462.607 199.279L462.607 203.574L466.181 203.598ZM465.63 210.271Q467.189 210.295 467.991 209.65Q468.8 209 468.8 207.729Q468.8 206.48 468.021 205.906Q467.241 205.326 465.63 205.303L462.607 205.256L462.607 210.248L465.63 210.271ZM474.104 199.279L476.407 199.279L476.407 204.682L483.655 204.682L483.655 199.279L485.957 199.279L485.957 212L483.655 212L483.655 206.674L476.407 206.674L476.407 212L474.104 212L474.104 199.279ZM495.897 212.146Q493.999 212.146 492.487 211.309Q490.975 210.465 490.12 208.988Q489.27 207.512 489.27 205.643Q489.27 203.768 490.12 202.291Q490.975 200.814 492.487 199.988Q493.999 199.162 495.897 199.162Q497.79 199.162 499.29 199.988Q500.79 200.814 501.639 202.291Q502.495 203.768 502.495 205.643Q502.495 207.512 501.639 208.988Q500.79 210.465 499.29 211.309Q497.79 212.146 495.897 212.146ZM495.897 210.131Q497.116 210.131 498.088 209.568Q499.061 209 499.612 207.98Q500.169 206.961 500.169 205.643Q500.169 204.318 499.612 203.299Q499.061 202.279 498.088 201.729Q497.116 201.178 495.897 201.178Q494.672 201.178 493.7 201.729Q492.727 202.279 492.159 203.299Q491.596 204.318 491.596 205.643Q491.596 206.961 492.159 207.98Q492.727 209 493.7 209.568Q494.672 210.131 495.897 210.131ZM505.785 199.279L508.088 199.279L508.088 212L505.785 212L505.785 199.279ZM505.228 197Q504.701 197 504.367 196.654Q504.033 196.303 504.033 195.799Q504.033 195.271 504.367 194.926Q504.701 194.574 505.228 194.574Q505.732 194.574 506.066 194.926Q506.406 195.271 506.406 195.799Q506.406 196.326 506.066 196.666Q505.732 197 505.228 197ZM508.638 197Q508.135 197 507.795 196.654Q507.461 196.303 507.461 195.799Q507.461 195.271 507.795 194.926Q508.135 194.574 508.638 194.574Q509.166 194.574 509.5 194.926Q509.84 195.271 509.84 195.799Q509.84 196.326 509.5 196.666Q509.166 197 508.638 197ZM531.921 209.984L531.921 214.953L529.759 214.953L529.759 212L519.13 212L519.13 214.953L516.945 214.953L516.945 209.984L517.613 209.984Q518.837 209.914 519.294 208.256Q519.751 206.598 519.921 203.574L520.109 199.279L529.976 199.279L529.976 209.984L531.921 209.984ZM522.031 203.744Q521.937 206.146 521.632 207.717Q521.333 209.287 520.542 209.984L527.673 209.984L527.673 201.295L522.154 201.295L522.031 203.744ZM534.92 199.279L537.223 199.279L537.223 212L534.92 212L534.92 199.279ZM536.068 196.83Q535.4 196.83 534.955 196.402Q534.51 195.969 534.51 195.342Q534.51 194.721 534.955 194.275Q535.4 193.83 536.068 193.83Q536.742 193.83 537.182 194.252Q537.627 194.674 537.627 195.295Q537.627 195.945 537.182 196.391Q536.742 196.83 536.068 196.83ZM541.665 199.279L543.968 199.279L543.968 212L541.665 212L541.665 199.279ZM541.108 197Q540.581 197 540.247 196.654Q539.913 196.303 539.913 195.799Q539.913 195.271 540.247 194.926Q540.581 194.574 541.108 194.574Q541.612 194.574 541.946 194.926Q542.286 195.271 542.286 195.799Q542.286 196.326 541.946 196.666Q541.612 197 541.108 197ZM544.518 197Q544.015 197 543.675 196.654Q543.341 196.303 543.341 195.799Q543.341 195.271 543.675 194.926Q544.015 194.574 544.518 194.574Q545.046 194.574 545.38 194.926Q545.72 195.271 545.72 195.799Q545.72 196.326 545.38 196.666Q545.046 197 544.518 197Z" fill="#000000" fill-opacity="1.000000" fill-rule="evenodd"/>
	<path id="Polygon 6" d="M24.6155 182L6.15405 169.01L6.15405 194.99L24.6155 182Z" fill="#E10920" fill-opacity="1.000000" fill-rule="evenodd"/>
	<path id="Вибіркове зниження збудливості кашльового центру" d="M50.6936 263.287Q52.3987 263.697 53.2717 264.74Q54.1506 265.783 54.1506 267.418Q54.1506 269.598 52.551 270.799Q50.9573 272 47.9104 272L40.2288 272L40.2288 255.201L47.4534 255.201Q50.2131 255.201 51.76 256.32Q53.3127 257.434 53.3127 259.52Q53.3127 260.891 52.6272 261.852Q51.9417 262.807 50.6936 263.287ZM42.6077 262.59L47.2893 262.59Q49.0413 262.59 49.9612 261.898Q50.887 261.201 50.887 259.854Q50.887 258.512 49.9495 257.803Q49.0178 257.094 47.2893 257.094L42.6077 257.094L42.6077 262.59ZM47.8635 270.102Q51.7249 270.102 51.7249 267.225Q51.7249 265.783 50.7522 265.104Q49.7854 264.418 47.8635 264.418L42.6077 264.418L42.6077 270.102L47.8635 270.102ZM57.7759 259.279L60.0786 259.279L60.0786 268.543L67.8775 259.279L69.9693 259.279L69.9693 272L67.6607 272L67.6607 262.736L59.8853 272L57.7759 272L57.7759 259.279ZM80.9124 259.713Q82.6878 259.713 84.0764 260.504Q85.471 261.295 86.2503 262.701Q87.0296 264.102 87.0296 265.906Q87.0296 267.752 86.2034 269.182Q85.3772 270.605 83.8772 271.402Q82.3772 272.193 80.4553 272.193Q77.2151 272.193 75.4514 269.973Q73.6878 267.752 73.6878 263.721Q73.6878 259.807 75.2932 257.586Q76.9046 255.365 80.2151 254.65L86.0217 253.35L86.3616 255.465L81.0061 256.613Q78.51 257.17 77.2854 258.488Q76.0608 259.807 75.8967 262.279Q76.7112 261.055 78.0061 260.387Q79.301 259.713 80.9124 259.713ZM80.5022 270.271Q81.7268 270.271 82.676 269.721Q83.6253 269.17 84.1526 268.197Q84.6799 267.225 84.6799 265.977Q84.6799 264.078 83.5257 262.93Q82.3772 261.775 80.5022 261.775Q78.6331 261.775 77.4671 262.93Q76.301 264.078 76.301 265.977Q76.301 267.225 76.8401 268.197Q77.385 269.17 78.3401 269.721Q79.301 270.271 80.5022 270.271ZM90.3199 259.279L92.6226 259.279L92.6226 272L90.3199 272L90.3199 259.279ZM91.4683 256.83Q90.8004 256.83 90.3551 256.402Q89.9097 255.969 89.9097 255.342Q89.9097 254.721 90.3551 254.275Q90.8004 253.83 91.4683 253.83Q92.1422 253.83 92.5816 254.252Q93.0269 254.674 93.0269 255.295Q93.0269 255.945 92.5816 256.391Q92.1422 256.83 91.4683 256.83ZM103.856 259.162Q105.702 259.162 107.167 259.977Q108.631 260.791 109.458 262.256Q110.284 263.721 110.284 265.643Q110.284 267.559 109.458 269.035Q108.631 270.512 107.167 271.332Q105.702 272.146 103.856 272.146Q102.485 272.146 101.342 271.619Q100.206 271.086 99.4146 270.078L99.4146 276.658L97.1119 276.658L97.1119 259.279L99.3209 259.279L99.3209 261.295Q100.088 260.24 101.26 259.701Q102.438 259.162 103.856 259.162ZM103.663 270.131Q104.887 270.131 105.86 269.568Q106.833 269 107.395 267.98Q107.958 266.961 107.958 265.643Q107.958 264.318 107.395 263.299Q106.833 262.279 105.86 261.729Q104.887 261.178 103.663 261.178Q102.462 261.178 101.489 261.74Q100.516 262.303 99.9537 263.311Q99.3912 264.318 99.3912 265.643Q99.3912 266.961 99.942 267.98Q100.493 269 101.477 269.568Q102.462 270.131 103.663 270.131ZM118.569 266.621L115.927 266.621L115.927 272L113.624 272L113.624 259.279L115.927 259.279L115.927 264.658L118.616 264.658L122.741 259.279L125.214 259.279L120.391 265.402L125.554 272L122.841 272L118.569 266.621ZM132.993 272.146Q131.095 272.146 129.583 271.309Q128.071 270.465 127.216 268.988Q126.366 267.512 126.366 265.643Q126.366 263.768 127.216 262.291Q128.071 260.814 129.583 259.988Q131.095 259.162 132.993 259.162Q134.886 259.162 136.386 259.988Q137.886 260.814 138.735 262.291Q139.591 263.768 139.591 265.643Q139.591 267.512 138.735 268.988Q137.886 270.465 136.386 271.309Q134.886 272.146 132.993 272.146ZM132.993 270.131Q134.212 270.131 135.185 269.568Q136.157 269 136.708 267.98Q137.265 266.961 137.265 265.643Q137.265 264.318 136.708 263.299Q136.157 262.279 135.185 261.729Q134.212 261.178 132.993 261.178Q131.769 261.178 130.796 261.729Q129.823 262.279 129.255 263.299Q128.692 264.318 128.692 265.643Q128.692 266.961 129.255 267.98Q129.823 269 130.796 269.568Q131.769 270.131 132.993 270.131ZM151.594 265.402Q154.061 266.023 154.061 268.496Q154.061 270.178 152.801 271.092Q151.541 272 149.045 272L142.928 272L142.928 259.279L148.834 259.279Q151.09 259.279 152.361 260.135Q153.633 260.984 153.633 262.543Q153.633 263.551 153.088 264.283Q152.549 265.016 151.594 265.402ZM145.184 264.752L148.641 264.752Q149.959 264.752 150.645 264.271Q151.33 263.791 151.33 262.883Q151.33 261.055 148.641 261.055L145.184 261.055L145.184 264.752ZM148.881 270.225Q150.317 270.225 151.037 269.768Q151.758 269.311 151.758 268.35Q151.758 267.365 151.096 266.891Q150.44 266.41 149.022 266.41L145.184 266.41L145.184 270.225L148.881 270.225ZM169.16 265.713Q169.16 265.977 169.113 266.41L158.789 266.41Q159.006 268.086 160.265 269.111Q161.525 270.131 163.4 270.131Q165.68 270.131 167.068 268.59L168.34 270.078Q167.478 271.086 166.195 271.619Q164.912 272.146 163.324 272.146Q161.308 272.146 159.75 271.32Q158.191 270.488 157.336 269Q156.486 267.512 156.486 265.643Q156.486 263.791 157.312 262.303Q158.144 260.814 159.592 259.988Q161.045 259.162 162.873 259.162Q164.695 259.162 166.119 259.988Q167.549 260.814 168.351 262.303Q169.16 263.791 169.16 265.713ZM162.873 261.102Q161.215 261.102 160.096 262.109Q158.982 263.117 158.789 264.752L166.951 264.752Q166.758 263.146 165.639 262.127Q164.525 261.102 162.873 261.102ZM186.077 265.379Q187.354 265.713 188.045 266.457Q188.743 267.201 188.743 268.303Q188.743 269.434 187.975 270.312Q187.208 271.186 185.848 271.678Q184.495 272.17 182.813 272.17Q181.401 272.17 180.042 271.801Q178.688 271.426 177.633 270.729L178.325 268.977Q179.239 269.551 180.417 269.879Q181.594 270.201 182.79 270.201Q184.424 270.201 185.397 269.639Q186.37 269.07 186.37 268.109Q186.37 267.225 185.584 266.744Q184.805 266.264 183.393 266.264L181.061 266.264L181.061 264.605L183.223 264.605Q184.518 264.605 185.262 264.154Q186.006 263.697 186.006 262.906Q186.006 262.039 185.127 261.559Q184.254 261.078 182.766 261.078Q180.874 261.078 178.758 262.062L178.137 260.287Q180.463 259.109 183.006 259.109Q184.542 259.109 185.766 259.543Q186.991 259.977 187.688 260.768Q188.385 261.559 188.385 262.566Q188.385 263.504 187.758 264.248Q187.137 264.992 186.077 265.379ZM192.248 259.279L194.551 259.279L194.551 264.682L201.799 264.682L201.799 259.279L204.101 259.279L204.101 272L201.799 272L201.799 266.674L194.551 266.674L194.551 272L192.248 272L192.248 259.279ZM208.592 259.279L210.895 259.279L210.895 268.543L218.693 259.279L220.785 259.279L220.785 272L218.477 272L218.477 262.736L210.701 272L208.592 272L208.592 259.279ZM236.814 266.621L234.342 266.621L234.342 272L232.039 272L232.039 266.621L229.566 266.621L226.062 272L223.326 272L227.697 265.426L223.666 259.279L226.109 259.279L229.543 264.658L232.039 264.658L232.039 259.279L234.342 259.279L234.342 264.658L236.838 264.658L240.271 259.279L242.744 259.279L238.713 265.449L243.078 272L240.342 272L236.814 266.621ZM256.688 265.713Q256.688 265.977 256.641 266.41L246.317 266.41Q246.534 268.086 247.793 269.111Q249.053 270.131 250.928 270.131Q253.208 270.131 254.596 268.59L255.868 270.078Q255.006 271.086 253.723 271.619Q252.44 272.146 250.852 272.146Q248.836 272.146 247.278 271.32Q245.719 270.488 244.864 269Q244.014 267.512 244.014 265.643Q244.014 263.791 244.84 262.303Q245.672 260.814 247.12 259.988Q248.573 259.162 250.401 259.162Q252.223 259.162 253.647 259.988Q255.077 260.814 255.879 262.303Q256.688 263.791 256.688 265.713ZM250.401 261.102Q248.743 261.102 247.624 262.109Q246.51 263.117 246.317 264.752L254.479 264.752Q254.286 263.146 253.167 262.127Q252.053 261.102 250.401 261.102ZM260.264 259.279L262.567 259.279L262.567 264.682L269.815 264.682L269.815 259.279L272.117 259.279L272.117 272L269.815 272L269.815 266.674L262.567 266.674L262.567 272L260.264 272L260.264 259.279ZM276.608 259.279L278.911 259.279L278.911 264.682L286.159 264.682L286.159 259.279L288.461 259.279L288.461 272L286.159 272L286.159 266.674L278.911 266.674L278.911 272L276.608 272L276.608 259.279ZM303.153 259.279L303.153 272L301.085 272L301.085 267.969L297.393 267.969L297.13 267.969L294.341 272L291.874 272L294.968 267.658Q293.526 267.225 292.759 266.229Q291.991 265.232 291.991 263.744Q291.991 261.559 293.479 260.422Q294.968 259.279 297.581 259.279L303.153 259.279ZM294.341 263.814Q294.341 265.086 295.143 265.701Q295.952 266.311 297.557 266.311L301.085 266.311L301.085 261.295L297.657 261.295Q294.341 261.295 294.341 263.814ZM320.981 265.379Q322.258 265.713 322.949 266.457Q323.647 267.201 323.647 268.303Q323.647 269.434 322.879 270.312Q322.112 271.186 320.752 271.678Q319.399 272.17 317.717 272.17Q316.305 272.17 314.945 271.801Q313.592 271.426 312.537 270.729L313.229 268.977Q314.143 269.551 315.32 269.879Q316.498 270.201 317.694 270.201Q319.328 270.201 320.301 269.639Q321.274 269.07 321.274 268.109Q321.274 267.225 320.488 266.744Q319.709 266.264 318.297 266.264L315.965 266.264L315.965 264.605L318.127 264.605Q319.422 264.605 320.166 264.154Q320.91 263.697 320.91 262.906Q320.91 262.039 320.031 261.559Q319.158 261.078 317.67 261.078Q315.778 261.078 313.662 262.062L313.041 260.287Q315.367 259.109 317.91 259.109Q319.445 259.109 320.67 259.543Q321.895 259.977 322.592 260.768Q323.289 261.559 323.289 262.566Q323.289 263.504 322.662 264.248Q322.041 264.992 320.981 265.379ZM333.632 259.713Q335.408 259.713 336.796 260.504Q338.191 261.295 338.97 262.701Q339.75 264.102 339.75 265.906Q339.75 267.752 338.923 269.182Q338.097 270.605 336.597 271.402Q335.097 272.193 333.175 272.193Q329.935 272.193 328.171 269.973Q326.408 267.752 326.408 263.721Q326.408 259.807 328.013 257.586Q329.625 255.365 332.935 254.65L338.742 253.35L339.082 255.465L333.726 256.613Q331.23 257.17 330.005 258.488Q328.781 259.807 328.617 262.279Q329.431 261.055 330.726 260.387Q332.021 259.713 333.632 259.713ZM333.222 270.271Q334.447 270.271 335.396 269.721Q336.345 269.17 336.873 268.197Q337.4 267.225 337.4 265.977Q337.4 264.078 336.246 262.93Q335.097 261.775 333.222 261.775Q331.353 261.775 330.187 262.93Q329.021 264.078 329.021 265.977Q329.021 267.225 329.56 268.197Q330.105 269.17 331.06 269.721Q332.021 270.271 333.222 270.271ZM354.035 259.279L347.865 273.271Q347.051 275.217 345.955 276.008Q344.865 276.799 343.33 276.799Q342.393 276.799 341.514 276.5Q340.641 276.201 340.067 275.621L341.051 273.898Q342.035 274.83 343.33 274.83Q344.168 274.83 344.731 274.385Q345.299 273.945 345.756 272.861L346.16 271.977L340.547 259.279L342.944 259.279L347.385 269.457L351.779 259.279L354.035 259.279ZM368.649 269.984L368.649 274.953L366.487 274.953L366.487 272L355.858 272L355.858 274.953L353.673 274.953L353.673 269.984L354.341 269.984Q355.565 269.914 356.022 268.256Q356.479 266.598 356.649 263.574L356.837 259.279L366.704 259.279L366.704 269.984L368.649 269.984ZM358.759 263.744Q358.665 266.146 358.36 267.717Q358.061 269.287 357.27 269.984L364.401 269.984L364.401 261.295L358.882 261.295L358.759 263.744ZM382.57 259.279L382.57 272L380.261 272L380.261 261.295L374.794 261.295L374.648 264.131Q374.525 266.697 374.191 268.414Q373.857 270.131 373.089 271.162Q372.322 272.193 370.951 272.193Q370.33 272.193 369.533 271.977L369.679 270.031Q369.99 270.102 370.253 270.102Q371.214 270.102 371.695 269.264Q372.175 268.426 372.316 267.271Q372.462 266.117 372.585 263.984L372.802 259.279L382.57 259.279ZM387.032 259.279L389.335 259.279L389.335 268.543L397.133 259.279L399.225 259.279L399.225 272L396.917 272L396.917 262.736L389.141 272L387.032 272L387.032 259.279ZM412.354 265.402Q414.821 266.023 414.821 268.496Q414.821 270.178 413.561 271.092Q412.301 272 409.805 272L403.688 272L403.688 259.279L409.594 259.279Q411.85 259.279 413.121 260.135Q414.393 260.984 414.393 262.543Q414.393 263.551 413.848 264.283Q413.309 265.016 412.354 265.402ZM405.944 264.752L409.401 264.752Q410.719 264.752 411.405 264.271Q412.09 263.791 412.09 262.883Q412.09 261.055 409.401 261.055L405.944 261.055L405.944 264.752ZM409.641 270.225Q411.077 270.225 411.797 269.768Q412.518 269.311 412.518 268.35Q412.518 267.365 411.856 266.891Q411.2 266.41 409.782 266.41L405.944 266.41L405.944 270.225L409.641 270.225ZM423.873 272.146Q421.975 272.146 420.463 271.309Q418.951 270.465 418.096 268.988Q417.246 267.512 417.246 265.643Q417.246 263.768 418.096 262.291Q418.951 260.814 420.463 259.988Q421.975 259.162 423.873 259.162Q425.766 259.162 427.266 259.988Q428.766 260.814 429.615 262.291Q430.471 263.768 430.471 265.643Q430.471 267.512 429.615 268.988Q428.766 270.465 427.266 271.309Q425.766 272.146 423.873 272.146ZM423.873 270.131Q425.092 270.131 426.065 269.568Q427.037 269 427.588 267.98Q428.145 266.961 428.145 265.643Q428.145 264.318 427.588 263.299Q427.037 262.279 426.065 261.729Q425.092 261.178 423.873 261.178Q422.648 261.178 421.676 261.729Q420.703 262.279 420.135 263.299Q419.572 264.318 419.572 265.643Q419.572 266.961 420.135 267.98Q420.703 269 421.676 269.568Q422.648 270.131 423.873 270.131ZM439.351 272.146Q437.406 272.146 435.882 271.309Q434.359 270.465 433.491 268.988Q432.63 267.512 432.63 265.643Q432.63 263.768 433.491 262.291Q434.359 260.814 435.882 259.988Q437.406 259.162 439.351 259.162Q441.079 259.162 442.433 259.859Q443.792 260.551 444.536 261.869L442.784 263Q442.181 262.086 441.29 261.635Q440.406 261.178 439.327 261.178Q438.079 261.178 437.083 261.729Q436.087 262.279 435.519 263.299Q434.956 264.318 434.956 265.643Q434.956 266.984 435.519 268.004Q436.087 269.023 437.083 269.58Q438.079 270.131 439.327 270.131Q440.406 270.131 441.29 269.674Q442.181 269.217 442.784 268.303L444.536 269.41Q443.792 270.729 442.433 271.438Q441.079 272.146 439.351 272.146ZM456.824 261.295L452.166 261.295L452.166 272L449.863 272L449.863 261.295L445.205 261.295L445.205 259.279L456.824 259.279L456.824 261.295ZM459.176 259.279L461.479 259.279L461.479 272L459.176 272L459.176 259.279ZM460.324 256.83Q459.656 256.83 459.211 256.402Q458.766 255.969 458.766 255.342Q458.766 254.721 459.211 254.275Q459.656 253.83 460.324 253.83Q460.998 253.83 461.438 254.252Q461.883 254.674 461.883 255.295Q461.883 255.945 461.438 256.391Q460.998 256.83 460.324 256.83ZM44.7932 300.621L42.1506 300.621L42.1506 306L39.8479 306L39.8479 293.279L42.1506 293.279L42.1506 298.658L44.8401 298.658L48.9651 293.279L51.4377 293.279L46.6155 299.402L51.7776 306L49.0647 306L44.7932 300.621ZM58.4951 293.162Q61.1376 293.162 62.538 294.457Q63.9443 295.752 63.9443 298.318L63.9443 306L61.7587 306L61.7587 304.318Q61.1845 305.209 60.1122 305.678Q59.0458 306.146 57.5869 306.146Q55.4482 306.146 54.165 305.115Q52.8818 304.078 52.8818 302.402Q52.8818 300.721 54.1064 299.701Q55.331 298.682 57.9911 298.682L61.6415 298.682L61.6415 298.225Q61.6415 296.736 60.7744 295.945Q59.913 295.154 58.2314 295.154Q57.1064 295.154 56.0224 295.529Q54.9443 295.898 54.2001 296.52L53.2392 294.791Q54.2236 294 55.5888 293.584Q56.9599 293.162 58.4951 293.162ZM57.9677 304.365Q59.2861 304.365 60.247 303.779Q61.2079 303.193 61.6415 302.109L61.6415 300.334L58.0908 300.334Q55.1611 300.334 55.1611 302.303Q55.1611 303.264 55.9052 303.814Q56.6494 304.365 57.9677 304.365ZM86.2131 293.279L86.2131 306L68.0959 306L68.0959 293.279L70.3986 293.279L70.3986 303.984L76.0178 303.984L76.0178 293.279L78.3205 293.279L78.3205 303.984L83.9104 303.984L83.9104 293.279L86.2131 293.279ZM101.602 293.279L101.602 306L99.2932 306L99.2932 295.295L93.8264 295.295L93.6799 298.131Q93.5569 300.697 93.2229 302.414Q92.8889 304.131 92.1213 305.162Q91.3537 306.193 89.9826 306.193Q89.3615 306.193 88.5647 305.977L88.7112 304.031Q89.0217 304.102 89.2854 304.102Q90.2463 304.102 90.7268 303.264Q91.2072 302.426 91.3479 301.271Q91.4944 300.117 91.6174 297.984L91.8342 293.279L101.602 293.279ZM111.941 297.598Q114.367 297.621 115.638 298.705Q116.91 299.783 116.91 301.752Q116.91 303.814 115.527 304.934Q114.15 306.047 111.583 306.023L106.064 306L106.064 293.279L108.367 293.279L108.367 297.574L111.941 297.598ZM111.39 304.271Q112.949 304.295 113.751 303.65Q114.56 303 114.56 301.729Q114.56 300.48 113.781 299.906Q113.001 299.326 111.39 299.303L108.367 299.256L108.367 304.248L111.39 304.271ZM125.313 306.146Q123.415 306.146 121.903 305.309Q120.391 304.465 119.536 302.988Q118.686 301.512 118.686 299.643Q118.686 297.768 119.536 296.291Q120.391 294.814 121.903 293.988Q123.415 293.162 125.313 293.162Q127.206 293.162 128.706 293.988Q130.206 294.814 131.055 296.291Q131.911 297.768 131.911 299.643Q131.911 301.512 131.055 302.988Q130.206 304.465 128.706 305.309Q127.206 306.146 125.313 306.146ZM125.313 304.131Q126.532 304.131 127.505 303.568Q128.477 303 129.028 301.98Q129.585 300.961 129.585 299.643Q129.585 298.318 129.028 297.299Q128.477 296.279 127.505 295.729Q126.532 295.178 125.313 295.178Q124.089 295.178 123.116 295.729Q122.143 296.279 121.575 297.299Q121.012 298.318 121.012 299.643Q121.012 300.961 121.575 301.98Q122.143 303 123.116 303.568Q124.089 304.131 125.313 304.131ZM143.914 299.402Q146.381 300.023 146.381 302.496Q146.381 304.178 145.121 305.092Q143.861 306 141.365 306L135.248 306L135.248 293.279L141.154 293.279Q143.41 293.279 144.682 294.135Q145.953 294.984 145.953 296.543Q145.953 297.551 145.408 298.283Q144.869 299.016 143.914 299.402ZM137.504 298.752L140.961 298.752Q142.279 298.752 142.965 298.271Q143.65 297.791 143.65 296.883Q143.65 295.055 140.961 295.055L137.504 295.055L137.504 298.752ZM141.201 304.225Q142.637 304.225 143.357 303.768Q144.078 303.311 144.078 302.35Q144.078 301.365 143.416 300.891Q142.76 300.41 141.342 300.41L137.504 300.41L137.504 304.225L141.201 304.225ZM155.433 306.146Q153.535 306.146 152.023 305.309Q150.511 304.465 149.656 302.988Q148.806 301.512 148.806 299.643Q148.806 297.768 149.656 296.291Q150.511 294.814 152.023 293.988Q153.535 293.162 155.433 293.162Q157.326 293.162 158.826 293.988Q160.326 294.814 161.175 296.291Q162.031 297.768 162.031 299.643Q162.031 301.512 161.175 302.988Q160.326 304.465 158.826 305.309Q157.326 306.146 155.433 306.146ZM155.433 304.131Q156.652 304.131 157.625 303.568Q158.597 303 159.148 301.98Q159.705 300.961 159.705 299.643Q159.705 298.318 159.148 297.299Q158.597 296.279 157.625 295.729Q156.652 295.178 155.433 295.178Q154.209 295.178 153.236 295.729Q152.263 296.279 151.695 297.299Q151.132 298.318 151.132 299.643Q151.132 300.961 151.695 301.98Q152.263 303 153.236 303.568Q154.209 304.131 155.433 304.131ZM174.725 295.295L167.671 295.295L167.671 306L165.368 306L165.368 293.279L174.725 293.279L174.725 295.295ZM181.977 306.146Q180.079 306.146 178.567 305.309Q177.055 304.465 176.2 302.988Q175.35 301.512 175.35 299.643Q175.35 297.768 176.2 296.291Q177.055 294.814 178.567 293.988Q180.079 293.162 181.977 293.162Q183.87 293.162 185.37 293.988Q186.87 294.814 187.719 296.291Q188.575 297.768 188.575 299.643Q188.575 301.512 187.719 302.988Q186.87 304.465 185.37 305.309Q183.87 306.146 181.977 306.146ZM181.977 304.131Q183.196 304.131 184.169 303.568Q185.141 303 185.692 301.98Q186.249 300.961 186.249 299.643Q186.249 298.318 185.692 297.299Q185.141 296.279 184.169 295.729Q183.196 295.178 181.977 295.178Q180.753 295.178 179.78 295.729Q178.807 296.279 178.239 297.299Q177.676 298.318 177.676 299.643Q177.676 300.961 178.239 301.98Q178.807 303 179.78 303.568Q180.753 304.131 181.977 304.131ZM211.95 303.984L211.95 309.047L209.77 309.047L209.77 306L198.368 306L198.368 293.279L200.671 293.279L200.671 303.984L207.632 303.984L207.632 293.279L209.934 293.279L209.934 303.984L211.95 303.984ZM226.424 299.713Q226.424 299.977 226.377 300.41L216.053 300.41Q216.27 302.086 217.529 303.111Q218.789 304.131 220.664 304.131Q222.944 304.131 224.332 302.59L225.604 304.078Q224.742 305.086 223.459 305.619Q222.176 306.146 220.588 306.146Q218.572 306.146 217.014 305.32Q215.455 304.488 214.6 303Q213.75 301.512 213.75 299.643Q213.75 297.791 214.576 296.303Q215.408 294.814 216.856 293.988Q218.309 293.162 220.137 293.162Q221.959 293.162 223.383 293.988Q224.813 294.814 225.615 296.303Q226.424 297.791 226.424 299.713ZM220.137 295.102Q218.479 295.102 217.36 296.109Q216.246 297.117 216.053 298.752L224.215 298.752Q224.022 297.146 222.903 296.127Q221.789 295.102 220.137 295.102ZM230 293.279L232.303 293.279L232.303 298.682L239.551 298.682L239.551 293.279L241.853 293.279L241.853 306L239.551 306L239.551 300.674L232.303 300.674L232.303 306L230 306L230 293.279ZM255.824 295.295L251.166 295.295L251.166 306L248.863 306L248.863 295.295L244.205 295.295L244.205 293.279L255.824 293.279L255.824 295.295ZM264.92 293.162Q266.766 293.162 268.231 293.977Q269.695 294.791 270.522 296.256Q271.348 297.721 271.348 299.643Q271.348 301.559 270.522 303.035Q269.695 304.512 268.231 305.332Q266.766 306.146 264.92 306.146Q263.549 306.146 262.406 305.619Q261.27 305.086 260.479 304.078L260.479 310.658L258.176 310.658L258.176 293.279L260.385 293.279L260.385 295.295Q261.152 294.24 262.324 293.701Q263.502 293.162 264.92 293.162ZM264.727 304.131Q265.951 304.131 266.924 303.568Q267.897 303 268.459 301.98Q269.022 300.961 269.022 299.643Q269.022 298.318 268.459 297.299Q267.897 296.279 266.924 295.729Q265.951 295.178 264.727 295.178Q263.526 295.178 262.553 295.74Q261.58 296.303 261.018 297.311Q260.455 298.318 260.455 299.643Q260.455 300.961 261.006 301.98Q261.557 303 262.541 303.568Q263.526 304.131 264.727 304.131ZM285.683 293.279L279.513 307.271Q278.699 309.217 277.603 310.008Q276.513 310.799 274.978 310.799Q274.041 310.799 273.162 310.5Q272.289 310.201 271.715 309.621L272.699 307.898Q273.683 308.83 274.978 308.83Q275.816 308.83 276.379 308.385Q276.947 307.945 277.404 306.861L277.808 305.977L272.195 293.279L274.592 293.279L279.033 303.457L283.428 293.279L285.683 293.279Z" fill="#000000" fill-opacity="1.000000" fill-rule="evenodd"/>
	<path id="Polygon 7" d="M24.6155 276L6.15405 263.01L6.15405 288.99L24.6155 276Z" fill="#E10920" fill-opacity="1.000000" fill-rule="evenodd"/>
</svg>
