<svg width="126.000000" height="401.000000" viewBox="0 0 126 401" fill="none" xmlns="http://www.w3.org/2000/svg" xmlns:xlink="http://www.w3.org/1999/xlink">
	<desc>
			Created with Pixso.
	</desc>
	<defs>
		<linearGradient id="paint_linear_89_12935_0" x1="-7.813955" y1="125.312447" x2="134.302307" y2="200.499939" gradientUnits="userSpaceOnUse">
			<stop stop-color="#E10920"/>
			<stop offset="1.000000" stop-color="#FF7785"/>
		</linearGradient>
	</defs>
	<path id="Vector" d="M115.5 401L73.5 401C56.1748 401 42 386.754 42 369.342L42 242.711C42 225.299 27.8252 211.053 10.5 211.053C4.7251 211.053 0 206.304 0 200.5C0 194.696 4.7251 189.947 10.5 189.947C27.8252 189.947 42 175.701 42 158.289L42 31.6582C42 14.2461 56.1748 0 73.5 0L115.5 0C121.275 0 126 4.74902 126 10.5527C126 16.3564 121.275 21.1055 115.5 21.1055L73.5 21.1055C67.7251 21.1055 63 25.8535 63 31.6582L63 158.289C63 175.701 54.6001 191.003 42 200.5C54.6001 209.997 63 225.299 63 242.711L63 369.342C63 375.146 67.7251 379.895 73.5 379.895L115.5 379.895C121.275 379.895 126 384.644 126 390.447C126 396.251 121.275 401 115.5 401Z" fill="url(#paint_linear_89_12935_0)" fill-opacity="1.000000" fill-rule="evenodd"/>
</svg>
