<svg width="71.000000" height="70.998047" viewBox="0 0 71 70.998" fill="none" xmlns="http://www.w3.org/2000/svg" xmlns:xlink="http://www.w3.org/1999/xlink">
	<desc>
			Created with Pixso.
	</desc>
	<defs/>
	<path id="Vector" d="M20.8691 53.3545C38.8096 53.3545 53.3525 38.8096 53.3525 20.8691C53.3525 12.9189 50.4883 5.64648 45.748 0C60.3926 4.70117 70.998 18.418 70.998 34.625C70.998 54.7139 54.7139 70.998 34.625 70.998C18.418 70.998 4.70117 60.3926 0 45.748C5.64648 50.4902 12.9219 53.3545 20.8691 53.3545Z" fill="#FFD93B" fill-opacity="1.000000" fill-rule="nonzero"/>
	<path id="Vector" d="M57.1055 6.07617C61.9707 12.2568 64.8945 20.0391 64.8945 28.5186C64.8945 48.6074 48.6104 64.8916 28.5215 64.8916C20.042 64.8916 12.2598 61.9678 6.0791 57.1025C12.7354 65.5527 23.0361 70.9971 34.627 70.9971C54.7168 70.9971 71 54.7139 71 34.624C71 23.0332 65.5557 12.7344 57.1055 6.07617Z" fill="#F4C534" fill-opacity="1.000000" fill-rule="nonzero"/>
	<path id="Vector" d="M18.2041 14.1992L21.9512 21.7939L30.3301 23.0107L24.2676 28.9209L25.6973 37.2666L18.2041 33.3271L10.709 37.2666L12.1387 28.9209L6.07617 23.0107L14.4561 21.7939L18.2041 14.1992Z" fill="#FFD83B" fill-opacity="1.000000" fill-rule="nonzero"/>
	<path id="Vector" d="M39.3379 11.7686L41.2793 15.7061L45.623 16.3359L42.4795 19.4004L43.2227 23.7236L39.3379 21.6826L35.4521 23.7236L36.1953 19.4004L33.0518 16.3359L37.3965 15.7061L39.3379 11.7686Z" fill="#FFD83B" fill-opacity="1.000000" fill-rule="nonzero"/>
</svg>
