<svg width="84.000000" height="256.000000" viewBox="0 0 84 256" fill="none" xmlns="http://www.w3.org/2000/svg" xmlns:xlink="http://www.w3.org/1999/xlink">
	<desc>
			Created with Pixso.
	</desc>
	<defs>
		<linearGradient id="paint_linear_89_12936_0" x1="89.209312" y1="176.000046" x2="-5.534883" y2="128.000031" gradientUnits="userSpaceOnUse">
			<stop stop-color="#E10920"/>
			<stop offset="1.000000" stop-color="#FF7785"/>
		</linearGradient>
	</defs>
	<path id="Vector" d="M7 0L35 0C46.5498 0 56 9.09473 56 20.2109L56 101.053C56 112.168 65.4502 121.263 77 121.263C80.8501 121.263 84 124.295 84 128C84 131.705 80.8501 134.737 77 134.737C65.4502 134.737 56 143.832 56 154.947L56 235.789C56 246.905 46.5498 256 35 256L7 256C3.1499 256 0 252.969 0 249.263C0 245.558 3.1499 242.526 7 242.526L35 242.526C38.8501 242.526 42 239.495 42 235.789L42 154.947C42 143.832 47.6001 134.063 56 128C47.6001 121.937 42 112.168 42 101.053L42 20.2109C42 16.5049 38.8501 13.4736 35 13.4736L7 13.4736C3.1499 13.4736 0 10.4424 0 6.7373C0 3.03125 3.1499 0 7 0Z" fill="url(#paint_linear_89_12936_0)" fill-opacity="1.000000" fill-rule="evenodd"/>
</svg>
