<svg width="684.000000" height="348.000000" viewBox="0 0 684 348" fill="none" xmlns="http://www.w3.org/2000/svg" xmlns:xlink="http://www.w3.org/1999/xlink">
	<desc>
			Created with Pixso.
	</desc>
	<defs/>
	<path id="Протизапальний, бронхолітичний, протинабряковий, протиалегрічний ефекти" d="M17.4023 12.2012L17.4023 29L13.5352 29L13.5352 15.3652L5.95312 15.3652L5.95312 29L2.08594 29L2.08594 12.2012L17.4023 12.2012ZM28.8454 12.2012Q31.0778 12.2012 32.7185 12.9453Q34.365 13.6895 35.2497 15.0605Q36.1403 16.4258 36.1403 18.2949Q36.1403 20.1465 35.2497 21.5293Q34.365 22.9062 32.7185 23.6387Q31.0778 24.3652 28.8454 24.3652L25.4646 24.3652L25.4646 29L21.5739 29L21.5739 12.2012L28.8454 12.2012ZM28.6286 21.2012Q30.3806 21.2012 31.2888 20.4453Q32.2028 19.6895 32.2028 18.2949Q32.2028 16.8828 31.2888 16.127Q30.3806 15.3652 28.6286 15.3652L25.4646 15.3652L25.4646 21.2012L28.6286 21.2012ZM46.9714 29.2871Q44.3523 29.2871 42.2488 28.1621Q40.1511 27.0312 38.9617 25.0508Q37.7781 23.0703 37.7781 20.5977Q37.7781 18.1309 38.9617 16.1504Q40.1511 14.1699 42.2488 13.0449Q44.3523 11.9141 46.9714 11.9141Q49.5847 11.9141 51.6706 13.0449Q53.7624 14.1699 54.9577 16.1504Q56.1589 18.1309 56.1589 20.5977Q56.1589 23.0703 54.9577 25.0508Q53.7624 27.0312 51.6706 28.1621Q49.5847 29.2871 46.9714 29.2871ZM46.9714 25.9766Q48.4538 25.9766 49.655 25.291Q50.8562 24.6055 51.5417 23.3867Q52.2273 22.1621 52.2273 20.5977Q52.2273 19.0391 51.5417 17.8145Q50.8562 16.5898 49.655 15.9102Q48.4538 15.2246 46.9714 15.2246Q45.4831 15.2246 44.282 15.9102Q43.0808 16.5898 42.3952 17.8145Q41.7097 19.0391 41.7097 20.5977Q41.7097 22.1621 42.3952 23.3867Q43.0808 24.6055 44.282 25.291Q45.4831 25.9766 46.9714 25.9766ZM71.7617 15.3652L66.3828 15.3652L66.3828 29L62.5449 29L62.5449 15.3652L57.1894 15.3652L57.1894 12.2012L71.7617 12.2012L71.7617 15.3652ZM74.2059 12.2012L78.0731 12.2012L78.0731 23.1465L86.0888 12.2012L89.7333 12.2012L89.7333 29L85.8954 29L85.8954 18.0781L77.8798 29L74.2059 29L74.2059 12.2012ZM103.467 20.2402Q104.926 20.7441 105.752 21.8164Q106.584 22.8828 106.584 24.2949Q106.584 25.8301 105.576 26.9609Q104.568 28.0859 102.851 28.6895Q101.135 29.2871 99.0955 29.2871Q97.367 29.2871 95.6502 28.8594Q93.9334 28.4258 92.3982 27.5352L93.5994 24.752Q94.7068 25.4258 96.0369 25.7715Q97.367 26.1172 98.6385 26.1172Q100.367 26.1172 101.504 25.4961Q102.646 24.8691 102.646 23.7441Q102.646 22.8066 101.867 22.3262Q101.088 21.8457 99.7459 21.8457L95.6385 21.8457L95.6385 18.9219L99.4588 18.9219Q100.631 18.9219 101.293 18.4414Q101.955 17.9609 101.955 17.1172Q101.955 16.1387 101.006 15.5879Q100.056 15.0312 98.5681 15.0312Q97.4666 15.0312 96.2888 15.3359Q95.1111 15.6348 94.0564 16.2324L92.8787 13.209Q95.5447 11.8379 98.6385 11.8379Q100.607 11.8379 102.26 12.418Q103.918 12.9922 104.902 14.0996Q105.887 15.2012 105.887 16.666Q105.887 17.8613 105.236 18.7988Q104.592 19.7363 103.467 20.2402ZM121.033 25.4023L113.234 25.4023L111.746 29L107.761 29L115.25 12.2012L119.088 12.2012L126.599 29L122.521 29L121.033 25.4023ZM119.808 22.4492L117.148 16.0156L114.482 22.4492L119.808 22.4492ZM144.146 12.2012L144.146 29L140.279 29L140.279 15.3652L132.697 15.3652L132.697 29L128.83 29L128.83 12.2012L144.146 12.2012ZM159.697 25.4023L151.898 25.4023L150.41 29L146.425 29L153.914 12.2012L157.752 12.2012L165.263 29L161.185 29L159.697 25.4023ZM158.472 22.4492L155.812 16.0156L153.146 22.4492L158.472 22.4492ZM182.615 12.2012L182.615 29L178.777 29L178.777 15.3652L173.017 15.3652L172.894 18.8691Q172.777 22.4492 172.32 24.6699Q171.863 26.8906 170.796 28.0801Q169.73 29.2637 167.808 29.2637Q167.017 29.2637 165.886 29L166.126 25.7129Q166.443 25.8066 166.823 25.8066Q168.218 25.8066 168.769 24.166Q169.32 22.5195 169.466 19.0156L169.706 12.2012L182.615 12.2012ZM194.953 17.7207Q198.023 17.7207 199.664 19.0918Q201.31 20.457 201.31 23.1465Q201.31 26 199.499 27.5Q197.689 29 194.402 29L186.814 29L186.814 12.2012L190.681 12.2012L190.681 17.7207L194.953 17.7207ZM194.185 26.1172Q195.697 26.1172 196.546 25.3789Q197.402 24.6348 197.402 23.2168Q197.402 20.5977 194.185 20.5977L190.681 20.5977L190.681 26.1172L194.185 26.1172ZM219.528 12.2012L219.528 29L215.637 29L215.637 22.1094L208.009 22.1094L208.009 29L204.118 29L204.118 12.2012L208.009 12.2012L208.009 18.8223L215.637 18.8223L215.637 12.2012L219.528 12.2012ZM223.726 12.2012L227.593 12.2012L227.593 23.1465L235.609 12.2012L239.253 12.2012L239.253 29L235.415 29L235.415 18.0781L227.4 29L223.726 29L223.726 12.2012ZM243.43 12.2012L247.297 12.2012L247.297 23.1465L255.313 12.2012L258.957 12.2012L258.957 29L255.119 29L255.119 18.0781L247.104 29L243.43 29L243.43 12.2012ZM251.182 11.1172Q246.571 11.1172 246.524 7.44922L249.19 7.44922Q249.237 9.20117 251.182 9.20117Q252.143 9.20117 252.647 8.75586Q253.151 8.31055 253.174 7.44922L255.834 7.44922Q255.811 9.24805 254.656 10.1855Q253.508 11.1172 251.182 11.1172ZM264.218 24.5352Q265.226 24.5352 265.87 25.1738Q266.521 25.8066 266.521 26.8379Q266.521 27.3184 266.398 27.7988Q266.28 28.2793 265.87 29.2402L264.505 32.6973L262.126 32.6973L263.187 28.8828Q262.583 28.6426 262.232 28.1035Q261.886 27.5586 261.886 26.8379Q261.886 25.8066 262.548 25.1738Q263.21 24.5352 264.218 24.5352ZM276.214 12.2012L289.778 12.2012L289.778 15.2949L280.081 15.2949L280.081 18.752L284.733 18.752Q287.786 18.752 289.38 20.0234Q290.974 21.2949 290.974 23.6973Q290.974 26.2168 289.198 27.6113Q287.423 29 284.183 29L276.214 29L276.214 12.2012ZM283.966 26.1172Q285.454 26.1172 286.245 25.5312Q287.042 24.9453 287.042 23.8145Q287.042 21.6055 283.966 21.6055L280.081 21.6055L280.081 26.1172L283.966 26.1172ZM301.197 12.2012Q303.43 12.2012 305.07 12.9453Q306.717 13.6895 307.602 15.0605Q308.492 16.4258 308.492 18.2949Q308.492 20.1465 307.602 21.5293Q306.717 22.9062 305.07 23.6387Q303.43 24.3652 301.197 24.3652L297.817 24.3652L297.817 29L293.926 29L293.926 12.2012L301.197 12.2012ZM300.981 21.2012Q302.733 21.2012 303.641 20.4453Q304.555 19.6895 304.555 18.2949Q304.555 16.8828 303.641 16.127Q302.733 15.3652 300.981 15.3652L297.817 15.3652L297.817 21.2012L300.981 21.2012ZM319.323 29.2871Q316.704 29.2871 314.601 28.1621Q312.503 27.0312 311.314 25.0508Q310.13 23.0703 310.13 20.5977Q310.13 18.1309 311.314 16.1504Q312.503 14.1699 314.601 13.0449Q316.704 11.9141 319.323 11.9141Q321.937 11.9141 324.023 13.0449Q326.114 14.1699 327.31 16.1504Q328.511 18.1309 328.511 20.5977Q328.511 23.0703 327.31 25.0508Q326.114 27.0312 324.023 28.1621Q321.937 29.2871 319.323 29.2871ZM319.323 25.9766Q320.806 25.9766 322.007 25.291Q323.208 24.6055 323.894 23.3867Q324.579 22.1621 324.579 20.5977Q324.579 19.0391 323.894 17.8145Q323.208 16.5898 322.007 15.9102Q320.806 15.2246 319.323 15.2246Q317.835 15.2246 316.634 15.9102Q315.433 16.5898 314.747 17.8145Q314.062 19.0391 314.062 20.5977Q314.062 22.1621 314.747 23.3867Q315.433 24.6055 316.634 25.291Q317.835 25.9766 319.323 25.9766ZM346.92 12.2012L346.92 29L343.029 29L343.029 22.1094L335.401 22.1094L335.401 29L331.51 29L331.51 12.2012L335.401 12.2012L335.401 18.8223L343.029 18.8223L343.029 12.2012L346.92 12.2012ZM354.141 12.2012L357.622 17.2871L361.102 12.2012L365.667 12.2012L360.071 20.2402L366.118 29L361.536 29L357.622 23.4336L353.761 29L349.272 29L355.272 20.4102L349.653 12.2012L354.141 12.2012ZM375.867 29.2871Q373.248 29.2871 371.145 28.1621Q369.047 27.0312 367.858 25.0508Q366.674 23.0703 366.674 20.5977Q366.674 18.1309 367.858 16.1504Q369.047 14.1699 371.145 13.0449Q373.248 11.9141 375.867 11.9141Q378.481 11.9141 380.567 13.0449Q382.658 14.1699 383.854 16.1504Q385.055 18.1309 385.055 20.5977Q385.055 23.0703 383.854 25.0508Q382.658 27.0312 380.567 28.1621Q378.481 29.2871 375.867 29.2871ZM375.867 25.9766Q377.35 25.9766 378.551 25.291Q379.752 24.6055 380.438 23.3867Q381.123 22.1621 381.123 20.5977Q381.123 19.0391 380.438 17.8145Q379.752 16.5898 378.551 15.9102Q377.35 15.2246 375.867 15.2246Q374.379 15.2246 373.178 15.9102Q371.977 16.5898 371.291 17.8145Q370.606 19.0391 370.606 20.5977Q370.606 22.1621 371.291 23.3867Q371.977 24.6055 373.178 25.291Q374.379 25.9766 375.867 25.9766ZM402.551 12.2012L402.551 29L398.713 29L398.713 15.3652L392.953 15.3652L392.83 18.8691Q392.713 22.4492 392.256 24.6699Q391.799 26.8906 390.732 28.0801Q389.666 29.2637 387.744 29.2637Q386.953 29.2637 385.822 29L386.062 25.7129Q386.379 25.8066 386.759 25.8066Q388.154 25.8066 388.705 24.166Q389.256 22.5195 389.402 19.0156L389.642 12.2012L402.551 12.2012ZM406.75 12.2012L410.617 12.2012L410.617 29L406.75 29L406.75 12.2012ZM427.634 15.3652L422.255 15.3652L422.255 29L418.417 29L418.417 15.3652L413.061 15.3652L413.061 12.2012L427.634 12.2012L427.634 15.3652ZM430.078 12.2012L433.945 12.2012L433.945 23.1465L441.961 12.2012L445.605 12.2012L445.605 29L441.767 29L441.767 18.0781L433.752 29L430.078 29L430.078 12.2012ZM463.107 12.2012L463.107 29L459.263 29L459.263 22.9531Q457.077 23.7441 455.208 23.7441Q451.821 23.7441 450.023 22.127Q448.224 20.5039 448.224 17.457L448.224 12.2012L452.062 12.2012L452.062 17.0234Q452.062 18.752 452.987 19.6309Q453.913 20.5039 455.665 20.5039Q457.581 20.5039 459.263 19.7598L459.263 12.2012L463.107 12.2012ZM482.688 12.2012L482.688 29L478.797 29L478.797 22.1094L471.169 22.1094L471.169 29L467.278 29L467.278 12.2012L471.169 12.2012L471.169 18.8223L478.797 18.8223L478.797 12.2012L482.688 12.2012ZM486.886 12.2012L490.753 12.2012L490.753 23.1465L498.769 12.2012L502.413 12.2012L502.413 29L498.575 29L498.575 18.0781L490.56 29L486.886 29L486.886 12.2012ZM506.59 12.2012L510.457 12.2012L510.457 23.1465L518.473 12.2012L522.117 12.2012L522.117 29L518.279 29L518.279 18.0781L510.264 29L506.59 29L506.59 12.2012ZM514.342 11.1172Q509.731 11.1172 509.684 7.44922L512.35 7.44922Q512.397 9.20117 514.342 9.20117Q515.303 9.20117 515.807 8.75586Q516.311 8.31055 516.334 7.44922L518.994 7.44922Q518.971 9.24805 517.817 10.1855Q516.668 11.1172 514.342 11.1172ZM527.378 24.5352Q528.386 24.5352 529.03 25.1738Q529.681 25.8066 529.681 26.8379Q529.681 27.3184 529.558 27.7988Q529.44 28.2793 529.03 29.2402L527.665 32.6973L525.286 32.6973L526.347 28.8828Q525.743 28.6426 525.392 28.1035Q525.046 27.5586 525.046 26.8379Q525.046 25.8066 525.708 25.1738Q526.37 24.5352 527.378 24.5352ZM17.4023 53.2012L17.4023 70L13.5352 70L13.5352 56.3652L5.95312 56.3652L5.95312 70L2.08594 70L2.08594 53.2012L17.4023 53.2012ZM28.8454 53.2012Q31.0778 53.2012 32.7185 53.9453Q34.365 54.6895 35.2497 56.0605Q36.1403 57.4258 36.1403 59.2949Q36.1403 61.1465 35.2497 62.5293Q34.365 63.9062 32.7185 64.6387Q31.0778 65.3652 28.8454 65.3652L25.4646 65.3652L25.4646 70L21.5739 70L21.5739 53.2012L28.8454 53.2012ZM28.6286 62.2012Q30.3806 62.2012 31.2888 61.4453Q32.2028 60.6895 32.2028 59.2949Q32.2028 57.8828 31.2888 57.127Q30.3806 56.3652 28.6286 56.3652L25.4646 56.3652L25.4646 62.2012L28.6286 62.2012ZM46.9714 70.2871Q44.3523 70.2871 42.2488 69.1621Q40.1511 68.0312 38.9617 66.0508Q37.7781 64.0703 37.7781 61.5977Q37.7781 59.1309 38.9617 57.1504Q40.1511 55.1699 42.2488 54.0449Q44.3523 52.9141 46.9714 52.9141Q49.5847 52.9141 51.6706 54.0449Q53.7624 55.1699 54.9577 57.1504Q56.1589 59.1309 56.1589 61.5977Q56.1589 64.0703 54.9577 66.0508Q53.7624 68.0312 51.6706 69.1621Q49.5847 70.2871 46.9714 70.2871ZM46.9714 66.9766Q48.4538 66.9766 49.655 66.291Q50.8562 65.6055 51.5417 64.3867Q52.2273 63.1621 52.2273 61.5977Q52.2273 60.0391 51.5417 58.8145Q50.8562 57.5898 49.655 56.9102Q48.4538 56.2246 46.9714 56.2246Q45.4831 56.2246 44.282 56.9102Q43.0808 57.5898 42.3952 58.8145Q41.7097 60.0391 41.7097 61.5977Q41.7097 63.1621 42.3952 64.3867Q43.0808 65.6055 44.282 66.291Q45.4831 66.9766 46.9714 66.9766ZM71.7617 56.3652L66.3828 56.3652L66.3828 70L62.5449 70L62.5449 56.3652L57.1894 56.3652L57.1894 53.2012L71.7617 53.2012L71.7617 56.3652ZM74.2059 53.2012L78.0731 53.2012L78.0731 64.1465L86.0888 53.2012L89.7333 53.2012L89.7333 70L85.8954 70L85.8954 59.0781L77.8798 70L74.2059 70L74.2059 53.2012ZM109.32 53.2012L109.32 70L105.429 70L105.429 63.1094L97.8006 63.1094L97.8006 70L93.9099 70L93.9099 53.2012L97.8006 53.2012L97.8006 59.8223L105.429 59.8223L105.429 53.2012L109.32 53.2012ZM124.897 66.4023L117.098 66.4023L115.61 70L111.625 70L119.114 53.2012L122.952 53.2012L130.463 70L126.385 70L124.897 66.4023ZM123.672 63.4492L121.012 57.0156L118.346 63.4492L123.672 63.4492ZM132.694 53.2012L146.258 53.2012L146.258 56.2949L136.561 56.2949L136.561 59.752L141.213 59.752Q144.266 59.752 145.86 61.0234Q147.454 62.2949 147.454 64.6973Q147.454 67.2168 145.678 68.6113Q143.903 70 140.663 70L132.694 70L132.694 53.2012ZM140.446 67.1172Q141.934 67.1172 142.725 66.5312Q143.522 65.9453 143.522 64.8145Q143.522 62.6055 140.446 62.6055L136.561 62.6055L136.561 67.1172L140.446 67.1172ZM157.677 53.2012Q159.91 53.2012 161.55 53.9453Q163.197 54.6895 164.082 56.0605Q164.972 57.4258 164.972 59.2949Q164.972 61.1465 164.082 62.5293Q163.197 63.9062 161.55 64.6387Q159.91 65.3652 157.677 65.3652L154.297 65.3652L154.297 70L150.406 70L150.406 53.2012L157.677 53.2012ZM157.461 62.2012Q159.213 62.2012 160.121 61.4453Q161.035 60.6895 161.035 59.2949Q161.035 57.8828 160.121 57.127Q159.213 56.3652 157.461 56.3652L154.297 56.3652L154.297 62.2012L157.461 62.2012ZM180.6 53.2012L180.6 70L176.762 70L176.762 65.5352L173.205 65.5352L170.235 70L166.127 70L169.631 64.9375Q167.926 64.2402 167.012 62.8398Q166.104 61.4336 166.104 59.4648Q166.104 57.5195 166.989 56.1191Q167.879 54.7129 169.508 53.957Q171.143 53.2012 173.352 53.2012L180.6 53.2012ZM173.446 56.3652Q171.793 56.3652 170.914 57.1387Q170.041 57.9062 170.041 59.418Q170.041 60.8828 170.879 61.6738Q171.717 62.4648 173.352 62.4648L176.762 62.4648L176.762 56.3652L173.446 56.3652ZM191.302 63.2324L188.618 63.2324L188.618 70L184.751 70L184.751 53.2012L188.618 53.2012L188.618 59.9922L191.401 59.9922L195.814 53.2012L199.921 53.2012L194.425 61.3105L200.085 70L195.673 70L191.302 63.2324ZM209.859 70.2871Q207.24 70.2871 205.137 69.1621Q203.039 68.0312 201.85 66.0508Q200.666 64.0703 200.666 61.5977Q200.666 59.1309 201.85 57.1504Q203.039 55.1699 205.137 54.0449Q207.24 52.9141 209.859 52.9141Q212.473 52.9141 214.559 54.0449Q216.65 55.1699 217.846 57.1504Q219.047 59.1309 219.047 61.5977Q219.047 64.0703 217.846 66.0508Q216.65 68.0312 214.559 69.1621Q212.473 70.2871 209.859 70.2871ZM209.859 66.9766Q211.342 66.9766 212.543 66.291Q213.744 65.6055 214.43 64.3867Q215.115 63.1621 215.115 61.5977Q215.115 60.0391 214.43 58.8145Q213.744 57.5898 212.543 56.9102Q211.342 56.2246 209.859 56.2246Q208.371 56.2246 207.17 56.9102Q205.969 57.5898 205.283 58.8145Q204.598 60.0391 204.598 61.5977Q204.598 63.1621 205.283 64.3867Q205.969 65.6055 207.17 66.291Q208.371 66.9766 209.859 66.9766ZM233.689 61.2402Q235.224 61.6973 236.038 62.7285Q236.858 63.7598 236.858 65.2715Q236.858 67.5039 235.165 68.752Q233.472 70 230.325 70L222.046 70L222.046 53.2012L229.874 53.2012Q232.798 53.2012 234.427 54.332Q236.062 55.457 236.062 57.543Q236.062 58.791 235.435 59.7402Q234.814 60.6895 233.689 61.2402ZM225.913 60.1621L229.534 60.1621Q230.806 60.1621 231.456 59.6465Q232.107 59.1309 232.107 58.1172Q232.107 57.1387 231.444 56.6113Q230.782 56.0781 229.534 56.0781L225.913 56.0781L225.913 60.1621ZM230.185 67.1172Q232.921 67.1172 232.921 64.9609Q232.921 62.8691 230.185 62.8691L225.913 62.8691L225.913 67.1172L230.185 67.1172ZM239.926 53.2012L243.793 53.2012L243.793 64.1465L251.809 53.2012L255.453 53.2012L255.453 70L251.615 70L251.615 59.0781L243.6 70L239.926 70L239.926 53.2012ZM259.63 53.2012L263.497 53.2012L263.497 64.1465L271.513 53.2012L275.157 53.2012L275.157 70L271.319 70L271.319 59.0781L263.304 70L259.63 70L259.63 53.2012ZM267.382 52.1172Q262.771 52.1172 262.724 48.4492L265.39 48.4492Q265.437 50.2012 267.382 50.2012Q268.343 50.2012 268.847 49.7559Q269.351 49.3105 269.374 48.4492L272.034 48.4492Q272.011 50.248 270.857 51.1855Q269.708 52.1172 267.382 52.1172ZM280.418 65.5352Q281.426 65.5352 282.07 66.1738Q282.721 66.8066 282.721 67.8379Q282.721 68.3184 282.598 68.7988Q282.48 69.2793 282.07 70.2402L280.705 73.6973L278.326 73.6973L279.387 69.8828Q278.783 69.6426 278.432 69.1035Q278.086 68.5586 278.086 67.8379Q278.086 66.8066 278.748 66.1738Q279.41 65.5352 280.418 65.5352ZM307.73 53.2012L307.73 70L303.863 70L303.863 56.3652L296.281 56.3652L296.281 70L292.414 70L292.414 53.2012L307.73 53.2012ZM319.173 53.2012Q321.406 53.2012 323.047 53.9453Q324.693 54.6895 325.578 56.0605Q326.468 57.4258 326.468 59.2949Q326.468 61.1465 325.578 62.5293Q324.693 63.9062 323.047 64.6387Q321.406 65.3652 319.173 65.3652L315.793 65.3652L315.793 70L311.902 70L311.902 53.2012L319.173 53.2012ZM318.957 62.2012Q320.709 62.2012 321.617 61.4453Q322.531 60.6895 322.531 59.2949Q322.531 57.8828 321.617 57.127Q320.709 56.3652 318.957 56.3652L315.793 56.3652L315.793 62.2012L318.957 62.2012ZM337.299 70.2871Q334.68 70.2871 332.577 69.1621Q330.479 68.0312 329.29 66.0508Q328.106 64.0703 328.106 61.5977Q328.106 59.1309 329.29 57.1504Q330.479 55.1699 332.577 54.0449Q334.68 52.9141 337.299 52.9141Q339.913 52.9141 341.999 54.0449Q344.09 55.1699 345.286 57.1504Q346.487 59.1309 346.487 61.5977Q346.487 64.0703 345.286 66.0508Q344.09 68.0312 341.999 69.1621Q339.913 70.2871 337.299 70.2871ZM337.299 66.9766Q338.782 66.9766 339.983 66.291Q341.184 65.6055 341.87 64.3867Q342.555 63.1621 342.555 61.5977Q342.555 60.0391 341.87 58.8145Q341.184 57.5898 339.983 56.9102Q338.782 56.2246 337.299 56.2246Q335.811 56.2246 334.61 56.9102Q333.409 57.5898 332.723 58.8145Q332.038 60.0391 332.038 61.5977Q332.038 63.1621 332.723 64.3867Q333.409 65.6055 334.61 66.291Q335.811 66.9766 337.299 66.9766ZM362.09 56.3652L356.711 56.3652L356.711 70L352.873 70L352.873 56.3652L347.517 56.3652L347.517 53.2012L362.09 53.2012L362.09 56.3652ZM364.534 53.2012L368.401 53.2012L368.401 64.1465L376.417 53.2012L380.061 53.2012L380.061 70L376.223 70L376.223 59.0781L368.208 70L364.534 70L364.534 53.2012ZM395.617 66.4023L387.818 66.4023L386.33 70L382.345 70L389.834 53.2012L393.672 53.2012L401.183 70L397.105 70L395.617 66.4023ZM394.392 63.4492L391.732 57.0156L389.066 63.4492L394.392 63.4492ZM418.535 53.2012L418.535 70L414.697 70L414.697 56.3652L408.937 56.3652L408.814 59.8691Q408.697 63.4492 408.24 65.6699Q407.783 67.8906 406.716 69.0801Q405.65 70.2637 403.728 70.2637Q402.937 70.2637 401.806 70L402.046 66.7129Q402.363 66.8066 402.744 66.8066Q404.138 66.8066 404.689 65.166Q405.24 63.5195 405.386 60.0156L405.626 53.2012L418.535 53.2012ZM435.742 66.8828L435.742 70L422.734 70L422.734 53.2012L435.431 53.2012L435.431 56.3184L426.595 56.3184L426.595 59.9688L434.4 59.9688L434.4 62.9922L426.595 62.9922L426.595 66.8828L435.742 66.8828ZM450.722 56.3652L442.73 56.3652L442.753 70L438.886 70L438.886 53.2012L450.745 53.2012L450.722 56.3652ZM460.389 53.2012Q462.622 53.2012 464.263 53.9453Q465.909 54.6895 466.794 56.0605Q467.684 57.4258 467.684 59.2949Q467.684 61.1465 466.794 62.5293Q465.909 63.9062 464.263 64.6387Q462.622 65.3652 460.389 65.3652L457.009 65.3652L457.009 70L453.118 70L453.118 53.2012L460.389 53.2012ZM460.173 62.2012Q461.925 62.2012 462.833 61.4453Q463.747 60.6895 463.747 59.2949Q463.747 57.8828 462.833 57.127Q461.925 56.3652 460.173 56.3652L457.009 56.3652L457.009 62.2012L460.173 62.2012ZM470.254 53.2012L474.121 53.2012L474.121 70L470.254 70L470.254 53.2012ZM491.619 53.2012L491.619 70L487.775 70L487.775 63.9531Q485.589 64.7441 483.72 64.7441Q480.333 64.7441 478.535 63.127Q476.736 61.5039 476.736 58.457L476.736 53.2012L480.574 53.2012L480.574 58.0234Q480.574 59.752 481.5 60.6309Q482.425 61.5039 484.177 61.5039Q486.093 61.5039 487.775 60.7598L487.775 53.2012L491.619 53.2012ZM511.2 53.2012L511.2 70L507.31 70L507.31 63.1094L499.681 63.1094L499.681 70L495.79 70L495.79 53.2012L499.681 53.2012L499.681 59.8223L507.31 59.8223L507.31 53.2012L511.2 53.2012ZM515.398 53.2012L519.265 53.2012L519.265 64.1465L527.281 53.2012L530.925 53.2012L530.925 70L527.087 70L527.087 59.0781L519.072 70L515.398 70L515.398 53.2012ZM535.102 53.2012L538.969 53.2012L538.969 64.1465L546.985 53.2012L550.629 53.2012L550.629 70L546.791 70L546.791 59.0781L538.776 70L535.102 70L535.102 53.2012ZM542.854 52.1172Q538.243 52.1172 538.196 48.4492L540.862 48.4492Q540.909 50.2012 542.854 50.2012Q543.815 50.2012 544.319 49.7559Q544.823 49.3105 544.846 48.4492L547.506 48.4492Q547.483 50.248 546.328 51.1855Q545.18 52.1172 542.854 52.1172ZM574.606 66.8828L574.606 70L561.598 70L561.598 53.2012L574.295 53.2012L574.295 56.3184L565.459 56.3184L565.459 59.9688L573.264 59.9688L573.264 62.9922L565.459 62.9922L565.459 66.8828L574.606 66.8828ZM597.6 61.5508Q597.6 64.8906 595.333 66.8008Q593.065 68.7051 588.817 68.9219L588.817 70.7441L585.237 70.7441L585.237 68.8984Q580.966 68.6582 578.698 66.748Q576.43 64.8379 576.43 61.5508Q576.43 58.2402 578.698 56.3594Q580.966 54.4727 585.237 54.209L585.237 52.4805L588.817 52.4805L588.817 54.1855Q593.065 54.4258 595.333 56.3477Q597.6 58.2637 597.6 61.5508ZM588.817 65.8691Q591.36 65.6348 592.608 64.5684Q593.856 63.4961 593.856 61.5273Q593.856 57.6895 588.817 57.2559L588.817 65.8691ZM580.198 61.5508Q580.198 65.3418 585.237 65.8691L585.237 57.2559Q582.671 57.4961 581.434 58.5391Q580.198 59.582 580.198 61.5508ZM613.51 66.8828L613.51 70L600.502 70L600.502 53.2012L613.199 53.2012L613.199 56.3184L604.363 56.3184L604.363 59.9688L612.168 59.9688L612.168 62.9922L604.363 62.9922L604.363 66.8828L613.51 66.8828ZM623.158 63.2324L620.474 63.2324L620.474 70L616.607 70L616.607 53.2012L620.474 53.2012L620.474 59.9922L623.257 59.9922L627.669 53.2012L631.777 53.2012L626.281 61.3105L631.941 70L627.529 70L623.158 63.2324ZM646.418 56.3652L641.039 56.3652L641.039 70L637.201 70L637.201 56.3652L631.845 56.3652L631.845 53.2012L646.418 53.2012L646.418 56.3652ZM648.862 53.2012L652.729 53.2012L652.729 64.1465L660.745 53.2012L664.389 53.2012L664.389 70L660.551 70L660.551 59.0781L652.536 70L648.862 70L648.862 53.2012Z" fill="#000000" fill-opacity="1.000000" fill-rule="evenodd"/>
	<path id="Зменшення запалення Зменшення алергічної реакції Зменшення вираженності набряку Зменшення бронхоспазму Сприяє покращенню евакуації мокротиння" d="M51.6582 122.24Q53.2402 122.674 54.125 123.74Q55.0156 124.807 55.0156 126.295Q55.0156 127.783 54.0664 128.902Q53.1172 130.016 51.5469 130.607Q49.9766 131.193 48.1309 131.193Q46.4492 131.193 44.791 130.689Q43.1387 130.186 41.7676 129.178L42.6055 127.402Q43.7129 128.264 45.0781 128.697Q46.4492 129.131 47.8379 129.131Q49.8535 129.131 51.2188 128.281Q52.5898 127.426 52.5898 125.938Q52.5898 124.666 51.5586 123.98Q50.5273 123.295 48.6582 123.295L44.9141 123.295L44.9141 121.35L48.4883 121.35Q50.0938 121.35 50.9961 120.693Q51.8984 120.031 51.8984 118.854Q51.8984 117.535 50.7207 116.768Q49.543 116 47.7441 116Q46.5664 116 45.3535 116.34Q44.1465 116.674 43.0625 117.342L42.2949 115.379Q43.5664 114.658 44.9844 114.301Q46.4023 113.938 47.8145 113.938Q49.5898 113.938 51.0781 114.488Q52.5664 115.039 53.4395 116.1Q54.3184 117.154 54.3184 118.566Q54.3184 119.838 53.6094 120.799Q52.9062 121.76 51.6582 122.24ZM73.3064 118.279L73.3064 131L71.2146 131L71.2146 121.713L66.4627 129.559L65.4549 129.559L60.7498 121.689L60.7498 131L58.6404 131L58.6404 118.279L61.0135 118.279L66.0057 126.869L71.1443 118.279L73.3064 118.279ZM89.2885 124.713Q89.2885 124.977 89.2416 125.41L78.9174 125.41Q79.1342 127.086 80.394 128.111Q81.6537 129.131 83.5287 129.131Q85.808 129.131 87.1967 127.59L88.4682 129.078Q87.6069 130.086 86.3237 130.619Q85.0405 131.146 83.4526 131.146Q81.437 131.146 79.8784 130.32Q78.3198 129.488 77.4643 128Q76.6147 126.512 76.6147 124.643Q76.6147 122.791 77.4409 121.303Q78.2729 119.814 79.7202 118.988Q81.1733 118.162 83.0014 118.162Q84.8237 118.162 86.2475 118.988Q87.6772 119.814 88.4799 121.303Q89.2885 122.791 89.2885 124.713ZM83.0014 120.102Q81.3432 120.102 80.2241 121.109Q79.1108 122.117 78.9174 123.752L87.0795 123.752Q86.8862 122.146 85.767 121.127Q84.6537 120.102 83.0014 120.102ZM92.8644 118.279L95.1672 118.279L95.1672 123.682L102.415 123.682L102.415 118.279L104.718 118.279L104.718 131L102.415 131L102.415 125.674L95.1672 125.674L95.1672 131L92.8644 131L92.8644 118.279ZM127.326 118.279L127.326 131L109.208 131L109.208 118.279L111.511 118.279L111.511 128.984L117.13 128.984L117.13 118.279L119.433 118.279L119.433 128.984L125.023 128.984L125.023 118.279L127.326 118.279ZM143.289 124.713Q143.289 124.977 143.242 125.41L132.917 125.41Q133.134 127.086 134.394 128.111Q135.654 129.131 137.529 129.131Q139.808 129.131 141.197 127.59L142.468 129.078Q141.607 130.086 140.324 130.619Q139.04 131.146 137.453 131.146Q135.437 131.146 133.878 130.32Q132.32 129.488 131.464 128Q130.615 126.512 130.615 124.643Q130.615 122.791 131.441 121.303Q132.273 119.814 133.72 118.988Q135.173 118.162 137.001 118.162Q138.824 118.162 140.247 118.988Q141.677 119.814 142.48 121.303Q143.289 122.791 143.289 124.713ZM137.001 120.102Q135.343 120.102 134.224 121.109Q133.111 122.117 132.917 123.752L141.08 123.752Q140.886 122.146 139.767 121.127Q138.654 120.102 137.001 120.102ZM146.864 118.279L149.167 118.279L149.167 123.682L156.415 123.682L156.415 118.279L158.718 118.279L158.718 131L156.415 131L156.415 125.674L149.167 125.674L149.167 131L146.864 131L146.864 118.279ZM163.208 118.279L165.511 118.279L165.511 123.682L172.759 123.682L172.759 118.279L175.062 118.279L175.062 131L172.759 131L172.759 125.674L165.511 125.674L165.511 131L163.208 131L163.208 118.279ZM189.754 118.279L189.754 131L187.685 131L187.685 126.969L183.994 126.969L183.73 126.969L180.941 131L178.474 131L181.568 126.658Q180.127 126.225 179.359 125.229Q178.591 124.232 178.591 122.744Q178.591 120.559 180.08 119.422Q181.568 118.279 184.181 118.279L189.754 118.279ZM180.941 122.814Q180.941 124.086 181.744 124.701Q182.552 125.311 184.158 125.311L187.685 125.311L187.685 120.295L184.258 120.295Q180.941 120.295 180.941 122.814ZM207.581 124.379Q208.859 124.713 209.55 125.457Q210.247 126.201 210.247 127.303Q210.247 128.434 209.48 129.312Q208.712 130.186 207.353 130.678Q205.999 131.17 204.318 131.17Q202.905 131.17 201.546 130.801Q200.193 130.426 199.138 129.729L199.829 127.977Q200.743 128.551 201.921 128.879Q203.099 129.201 204.294 129.201Q205.929 129.201 206.902 128.639Q207.874 128.07 207.874 127.109Q207.874 126.225 207.089 125.744Q206.31 125.264 204.898 125.264L202.566 125.264L202.566 123.605L204.728 123.605Q206.023 123.605 206.767 123.154Q207.511 122.697 207.511 121.906Q207.511 121.039 206.632 120.559Q205.759 120.078 204.271 120.078Q202.378 120.078 200.263 121.062L199.642 119.287Q201.968 118.109 204.511 118.109Q206.046 118.109 207.271 118.543Q208.495 118.977 209.193 119.768Q209.89 120.559 209.89 121.566Q209.89 122.504 209.263 123.248Q208.642 123.992 207.581 124.379ZM218.288 118.162Q220.93 118.162 222.331 119.457Q223.737 120.752 223.737 123.318L223.737 131L221.551 131L221.551 129.318Q220.977 130.209 219.905 130.678Q218.838 131.146 217.379 131.146Q215.241 131.146 213.958 130.115Q212.674 129.078 212.674 127.402Q212.674 125.721 213.899 124.701Q215.124 123.682 217.784 123.682L221.434 123.682L221.434 123.225Q221.434 121.736 220.567 120.945Q219.706 120.154 218.024 120.154Q216.899 120.154 215.815 120.529Q214.737 120.898 213.993 121.52L213.032 119.791Q214.016 119 215.381 118.584Q216.752 118.162 218.288 118.162ZM217.76 129.365Q219.079 129.365 220.04 128.779Q221 128.193 221.434 127.109L221.434 125.334L217.883 125.334Q214.954 125.334 214.954 127.303Q214.954 128.264 215.698 128.814Q216.442 129.365 217.76 129.365ZM239.672 118.279L239.672 131L237.369 131L237.369 120.295L230.191 120.295L230.191 131L227.888 131L227.888 118.279L239.672 118.279ZM248.672 118.162Q251.314 118.162 252.715 119.457Q254.121 120.752 254.121 123.318L254.121 131L251.935 131L251.935 129.318Q251.361 130.209 250.289 130.678Q249.222 131.146 247.763 131.146Q245.625 131.146 244.342 130.115Q243.058 129.078 243.058 127.402Q243.058 125.721 244.283 124.701Q245.508 123.682 248.168 123.682L251.818 123.682L251.818 123.225Q251.818 121.736 250.951 120.945Q250.09 120.154 248.408 120.154Q247.283 120.154 246.199 120.529Q245.121 120.898 244.377 121.52L243.416 119.791Q244.4 119 245.765 118.584Q247.136 118.162 248.672 118.162ZM248.144 129.365Q249.463 129.365 250.424 128.779Q251.384 128.193 251.818 127.109L251.818 125.334L248.267 125.334Q245.338 125.334 245.338 127.303Q245.338 128.264 246.082 128.814Q246.826 129.365 248.144 129.365ZM269.194 118.279L269.194 131L266.886 131L266.886 120.295L261.419 120.295L261.272 123.131Q261.149 125.697 260.815 127.414Q260.481 129.131 259.714 130.162Q258.946 131.193 257.575 131.193Q256.954 131.193 256.157 130.977L256.304 129.031Q256.614 129.102 256.878 129.102Q257.839 129.102 258.319 128.264Q258.8 127.426 258.94 126.271Q259.087 125.117 259.21 122.984L259.427 118.279L269.194 118.279ZM285.153 124.713Q285.153 124.977 285.106 125.41L274.781 125.41Q274.998 127.086 276.258 128.111Q277.518 129.131 279.393 129.131Q281.672 129.131 283.061 127.59L284.332 129.078Q283.471 130.086 282.188 130.619Q280.904 131.146 279.317 131.146Q277.301 131.146 275.742 130.32Q274.184 129.488 273.328 128Q272.479 126.512 272.479 124.643Q272.479 122.791 273.305 121.303Q274.137 119.814 275.584 118.988Q277.037 118.162 278.865 118.162Q280.688 118.162 282.112 118.988Q283.541 119.814 284.344 121.303Q285.153 122.791 285.153 124.713ZM278.865 120.102Q277.207 120.102 276.088 121.109Q274.975 122.117 274.781 123.752L282.944 123.752Q282.75 122.146 281.631 121.127Q280.518 120.102 278.865 120.102ZM288.728 118.279L291.031 118.279L291.031 123.682L298.279 123.682L298.279 118.279L300.582 118.279L300.582 131L298.279 131L298.279 125.674L291.031 125.674L291.031 131L288.728 131L288.728 118.279ZM305.072 118.279L307.375 118.279L307.375 123.682L314.623 123.682L314.623 118.279L316.926 118.279L316.926 131L314.623 131L314.623 125.674L307.375 125.674L307.375 131L305.072 131L305.072 118.279ZM331.618 118.279L331.618 131L329.549 131L329.549 126.969L325.858 126.969L325.594 126.969L322.805 131L320.338 131L323.432 126.658Q321.991 126.225 321.223 125.229Q320.456 124.232 320.456 122.744Q320.456 120.559 321.944 119.422Q323.432 118.279 326.045 118.279L331.618 118.279ZM322.805 122.814Q322.805 124.086 323.608 124.701Q324.416 125.311 326.022 125.311L329.549 125.311L329.549 120.295L326.122 120.295Q322.805 120.295 322.805 122.814ZM51.6582 163.24Q53.2402 163.674 54.125 164.74Q55.0156 165.807 55.0156 167.295Q55.0156 168.783 54.0664 169.902Q53.1172 171.016 51.5469 171.607Q49.9766 172.193 48.1309 172.193Q46.4492 172.193 44.791 171.689Q43.1387 171.186 41.7676 170.178L42.6055 168.402Q43.7129 169.264 45.0781 169.697Q46.4492 170.131 47.8379 170.131Q49.8535 170.131 51.2188 169.281Q52.5898 168.426 52.5898 166.938Q52.5898 165.666 51.5586 164.98Q50.5273 164.295 48.6582 164.295L44.9141 164.295L44.9141 162.35L48.4883 162.35Q50.0938 162.35 50.9961 161.693Q51.8984 161.031 51.8984 159.854Q51.8984 158.535 50.7207 157.768Q49.543 157 47.7441 157Q46.5664 157 45.3535 157.34Q44.1465 157.674 43.0625 158.342L42.2949 156.379Q43.5664 155.658 44.9844 155.301Q46.4023 154.938 47.8145 154.938Q49.5898 154.938 51.0781 155.488Q52.5664 156.039 53.4395 157.1Q54.3184 158.154 54.3184 159.566Q54.3184 160.838 53.6094 161.799Q52.9062 162.76 51.6582 163.24ZM73.3064 159.279L73.3064 172L71.2146 172L71.2146 162.713L66.4627 170.559L65.4549 170.559L60.7498 162.689L60.7498 172L58.6404 172L58.6404 159.279L61.0135 159.279L66.0057 167.869L71.1443 159.279L73.3064 159.279ZM89.2885 165.713Q89.2885 165.977 89.2416 166.41L78.9174 166.41Q79.1342 168.086 80.394 169.111Q81.6537 170.131 83.5287 170.131Q85.808 170.131 87.1967 168.59L88.4682 170.078Q87.6069 171.086 86.3237 171.619Q85.0405 172.146 83.4526 172.146Q81.437 172.146 79.8784 171.32Q78.3198 170.488 77.4643 169Q76.6147 167.512 76.6147 165.643Q76.6147 163.791 77.4409 162.303Q78.2729 160.814 79.7202 159.988Q81.1733 159.162 83.0014 159.162Q84.8237 159.162 86.2475 159.988Q87.6772 160.814 88.4799 162.303Q89.2885 163.791 89.2885 165.713ZM83.0014 161.102Q81.3432 161.102 80.2241 162.109Q79.1108 163.117 78.9174 164.752L87.0795 164.752Q86.8862 163.146 85.767 162.127Q84.6537 161.102 83.0014 161.102ZM92.8644 159.279L95.1672 159.279L95.1672 164.682L102.415 164.682L102.415 159.279L104.718 159.279L104.718 172L102.415 172L102.415 166.674L95.1672 166.674L95.1672 172L92.8644 172L92.8644 159.279ZM127.326 159.279L127.326 172L109.208 172L109.208 159.279L111.511 159.279L111.511 169.984L117.13 169.984L117.13 159.279L119.433 159.279L119.433 169.984L125.023 169.984L125.023 159.279L127.326 159.279ZM143.289 165.713Q143.289 165.977 143.242 166.41L132.917 166.41Q133.134 168.086 134.394 169.111Q135.654 170.131 137.529 170.131Q139.808 170.131 141.197 168.59L142.468 170.078Q141.607 171.086 140.324 171.619Q139.04 172.146 137.453 172.146Q135.437 172.146 133.878 171.32Q132.32 170.488 131.464 169Q130.615 167.512 130.615 165.643Q130.615 163.791 131.441 162.303Q132.273 160.814 133.72 159.988Q135.173 159.162 137.001 159.162Q138.824 159.162 140.247 159.988Q141.677 160.814 142.48 162.303Q143.289 163.791 143.289 165.713ZM137.001 161.102Q135.343 161.102 134.224 162.109Q133.111 163.117 132.917 164.752L141.08 164.752Q140.886 163.146 139.767 162.127Q138.654 161.102 137.001 161.102ZM146.864 159.279L149.167 159.279L149.167 164.682L156.415 164.682L156.415 159.279L158.718 159.279L158.718 172L156.415 172L156.415 166.674L149.167 166.674L149.167 172L146.864 172L146.864 159.279ZM163.208 159.279L165.511 159.279L165.511 164.682L172.759 164.682L172.759 159.279L175.062 159.279L175.062 172L172.759 172L172.759 166.674L165.511 166.674L165.511 172L163.208 172L163.208 159.279ZM189.754 159.279L189.754 172L187.685 172L187.685 167.969L183.994 167.969L183.73 167.969L180.941 172L178.474 172L181.568 167.658Q180.127 167.225 179.359 166.229Q178.591 165.232 178.591 163.744Q178.591 161.559 180.08 160.422Q181.568 159.279 184.181 159.279L189.754 159.279ZM180.941 163.814Q180.941 165.086 181.744 165.701Q182.552 166.311 184.158 166.311L187.685 166.311L187.685 161.295L184.258 161.295Q180.941 161.295 180.941 163.814ZM205.232 159.162Q207.874 159.162 209.275 160.457Q210.681 161.752 210.681 164.318L210.681 172L208.495 172L208.495 170.318Q207.921 171.209 206.849 171.678Q205.782 172.146 204.323 172.146Q202.185 172.146 200.902 171.115Q199.618 170.078 199.618 168.402Q199.618 166.721 200.843 165.701Q202.068 164.682 204.728 164.682L208.378 164.682L208.378 164.225Q208.378 162.736 207.511 161.945Q206.65 161.154 204.968 161.154Q203.843 161.154 202.759 161.529Q201.681 161.898 200.937 162.52L199.976 160.791Q200.96 160 202.325 159.584Q203.696 159.162 205.232 159.162ZM204.704 170.365Q206.023 170.365 206.984 169.779Q207.944 169.193 208.378 168.109L208.378 166.334L204.827 166.334Q201.898 166.334 201.898 168.303Q201.898 169.264 202.642 169.814Q203.386 170.365 204.704 170.365ZM225.754 159.279L225.754 172L223.446 172L223.446 161.295L217.979 161.295L217.832 164.131Q217.709 166.697 217.375 168.414Q217.041 170.131 216.274 171.162Q215.506 172.193 214.135 172.193Q213.514 172.193 212.717 171.977L212.864 170.031Q213.174 170.102 213.438 170.102Q214.399 170.102 214.879 169.264Q215.36 168.426 215.5 167.271Q215.647 166.117 215.77 163.984L215.987 159.279L225.754 159.279ZM241.713 165.713Q241.713 165.977 241.666 166.41L231.341 166.41Q231.558 168.086 232.818 169.111Q234.078 170.131 235.953 170.131Q238.232 170.131 239.621 168.59L240.892 170.078Q240.031 171.086 238.748 171.619Q237.464 172.146 235.877 172.146Q233.861 172.146 232.302 171.32Q230.744 170.488 229.888 169Q229.039 167.512 229.039 165.643Q229.039 163.791 229.865 162.303Q230.697 160.814 232.144 159.988Q233.597 159.162 235.425 159.162Q237.248 159.162 238.672 159.988Q240.101 160.814 240.904 162.303Q241.713 163.791 241.713 165.713ZM235.425 161.102Q233.767 161.102 232.648 162.109Q231.535 163.117 231.341 164.752L239.504 164.752Q239.31 163.146 238.191 162.127Q237.078 161.102 235.425 161.102ZM252.033 159.162Q253.878 159.162 255.343 159.977Q256.808 160.791 257.634 162.256Q258.46 163.721 258.46 165.643Q258.46 167.559 257.634 169.035Q256.808 170.512 255.343 171.332Q253.878 172.146 252.033 172.146Q250.661 172.146 249.519 171.619Q248.382 171.086 247.591 170.078L247.591 176.658L245.288 176.658L245.288 159.279L247.497 159.279L247.497 161.295Q248.265 160.24 249.437 159.701Q250.615 159.162 252.033 159.162ZM251.839 170.131Q253.064 170.131 254.036 169.568Q255.009 169 255.572 167.98Q256.134 166.961 256.134 165.643Q256.134 164.318 255.572 163.299Q255.009 162.279 254.036 161.729Q253.064 161.178 251.839 161.178Q250.638 161.178 249.665 161.74Q248.693 162.303 248.13 163.311Q247.568 164.318 247.568 165.643Q247.568 166.961 248.119 167.98Q248.669 169 249.654 169.568Q250.638 170.131 251.839 170.131ZM271.158 161.295L264.103 161.295L264.103 172L261.8 172L261.8 159.279L271.158 159.279L271.158 161.295ZM273.512 159.279L275.815 159.279L275.815 172L273.512 172L273.512 159.279ZM274.661 156.83Q273.993 156.83 273.548 156.402Q273.102 155.969 273.102 155.342Q273.102 154.721 273.548 154.275Q273.993 153.83 274.661 153.83Q275.335 153.83 275.774 154.252Q276.219 154.674 276.219 155.295Q276.219 155.945 275.774 156.391Q275.335 156.83 274.661 156.83ZM290.459 159.279L290.459 172L288.15 172L288.15 166.861Q286.088 167.822 284.049 167.822Q281.67 167.822 280.375 166.721Q279.08 165.613 279.08 163.41L279.08 159.279L281.383 159.279L281.383 163.264Q281.383 164.582 282.209 165.256Q283.041 165.93 284.529 165.93Q286.211 165.93 288.15 165.086L288.15 159.279L290.459 159.279ZM294.92 159.279L297.223 159.279L297.223 164.682L304.471 164.682L304.471 159.279L306.774 159.279L306.774 172L304.471 172L304.471 166.674L297.223 166.674L297.223 172L294.92 172L294.92 159.279ZM316.714 172.146Q314.815 172.146 313.304 171.309Q311.792 170.465 310.936 168.988Q310.087 167.512 310.087 165.643Q310.087 163.768 310.936 162.291Q311.792 160.814 313.304 159.988Q314.815 159.162 316.714 159.162Q318.606 159.162 320.106 159.988Q321.606 160.814 322.456 162.291Q323.311 163.768 323.311 165.643Q323.311 167.512 322.456 168.988Q321.606 170.465 320.106 171.309Q318.606 172.146 316.714 172.146ZM316.714 170.131Q317.932 170.131 318.905 169.568Q319.878 169 320.429 167.98Q320.985 166.961 320.985 165.643Q320.985 164.318 320.429 163.299Q319.878 162.279 318.905 161.729Q317.932 161.178 316.714 161.178Q315.489 161.178 314.516 161.729Q313.544 162.279 312.975 163.299Q312.413 164.318 312.413 165.643Q312.413 166.961 312.975 167.98Q313.544 169 314.516 169.568Q315.489 170.131 316.714 170.131ZM326.602 159.279L328.904 159.279L328.904 172L326.602 172L326.602 159.279ZM326.045 157Q325.518 157 325.184 156.654Q324.85 156.303 324.85 155.799Q324.85 155.271 325.184 154.926Q325.518 154.574 326.045 154.574Q326.549 154.574 326.883 154.926Q327.223 155.271 327.223 155.799Q327.223 156.326 326.883 156.666Q326.549 157 326.045 157ZM329.455 157Q328.951 157 328.611 156.654Q328.277 156.303 328.277 155.799Q328.277 155.271 328.611 154.926Q328.951 154.574 329.455 154.574Q329.982 154.574 330.316 154.926Q330.656 155.271 330.656 155.799Q330.656 156.326 330.316 156.666Q329.982 157 329.455 157ZM346.545 159.162Q348.39 159.162 349.855 159.977Q351.32 160.791 352.146 162.256Q352.972 163.721 352.972 165.643Q352.972 167.559 352.146 169.035Q351.32 170.512 349.855 171.332Q348.39 172.146 346.545 172.146Q345.174 172.146 344.031 171.619Q342.894 171.086 342.103 170.078L342.103 176.658L339.8 176.658L339.8 159.279L342.009 159.279L342.009 161.295Q342.777 160.24 343.949 159.701Q345.127 159.162 346.545 159.162ZM346.351 170.131Q347.576 170.131 348.549 169.568Q349.521 169 350.084 167.98Q350.646 166.961 350.646 165.643Q350.646 164.318 350.084 163.299Q349.521 162.279 348.549 161.729Q347.576 161.178 346.351 161.178Q345.15 161.178 344.177 161.74Q343.205 162.303 342.642 163.311Q342.08 164.318 342.08 165.643Q342.08 166.961 342.631 167.98Q343.181 169 344.166 169.568Q345.15 170.131 346.351 170.131ZM367.809 165.713Q367.809 165.977 367.762 166.41L357.437 166.41Q357.654 168.086 358.914 169.111Q360.174 170.131 362.049 170.131Q364.328 170.131 365.717 168.59L366.988 170.078Q366.127 171.086 364.844 171.619Q363.561 172.146 361.973 172.146Q359.957 172.146 358.398 171.32Q356.84 170.488 355.984 169Q355.135 167.512 355.135 165.643Q355.135 163.791 355.961 162.303Q356.793 160.814 358.24 159.988Q359.693 159.162 361.521 159.162Q363.344 159.162 364.768 159.988Q366.197 160.814 367 162.303Q367.809 163.791 367.809 165.713ZM361.521 161.102Q359.863 161.102 358.744 162.109Q357.631 163.117 357.437 164.752L365.6 164.752Q365.406 163.146 364.287 162.127Q363.174 161.102 361.521 161.102ZM375.56 159.162Q378.202 159.162 379.603 160.457Q381.009 161.752 381.009 164.318L381.009 172L378.823 172L378.823 170.318Q378.249 171.209 377.177 171.678Q376.11 172.146 374.651 172.146Q372.513 172.146 371.23 171.115Q369.946 170.078 369.946 168.402Q369.946 166.721 371.171 165.701Q372.396 164.682 375.056 164.682L378.706 164.682L378.706 164.225Q378.706 162.736 377.839 161.945Q376.978 161.154 375.296 161.154Q374.171 161.154 373.087 161.529Q372.009 161.898 371.265 162.52L370.304 160.791Q371.288 160 372.653 159.584Q374.024 159.162 375.56 159.162ZM375.032 170.365Q376.351 170.365 377.312 169.779Q378.273 169.193 378.706 168.109L378.706 166.334L375.155 166.334Q372.226 166.334 372.226 168.303Q372.226 169.264 372.97 169.814Q373.714 170.365 375.032 170.365ZM390.106 166.621L387.463 166.621L387.463 172L385.16 172L385.16 159.279L387.463 159.279L387.463 164.658L390.153 164.658L394.278 159.279L396.75 159.279L391.928 165.402L397.09 172L394.377 172L390.106 166.621ZM413.094 169.984L413.094 175.047L410.915 175.047L410.915 172L399.512 172L399.512 159.279L401.815 159.279L401.815 169.984L408.776 169.984L408.776 159.279L411.079 159.279L411.079 169.984L413.094 169.984ZM416.072 159.279L418.375 159.279L418.375 172L416.072 172L416.072 159.279ZM417.221 156.83Q416.553 156.83 416.108 156.402Q415.662 155.969 415.662 155.342Q415.662 154.721 416.108 154.275Q416.553 153.83 417.221 153.83Q417.895 153.83 418.334 154.252Q418.779 154.674 418.779 155.295Q418.779 155.945 418.334 156.391Q417.895 156.83 417.221 156.83ZM422.818 159.279L425.12 159.279L425.12 172L422.818 172L422.818 159.279ZM422.261 157Q421.734 157 421.4 156.654Q421.066 156.303 421.066 155.799Q421.066 155.271 421.4 154.926Q421.734 154.574 422.261 154.574Q422.765 154.574 423.099 154.926Q423.439 155.271 423.439 155.799Q423.439 156.326 423.099 156.666Q422.765 157 422.261 157ZM425.671 157Q425.167 157 424.827 156.654Q424.493 156.303 424.493 155.799Q424.493 155.271 424.827 154.926Q425.167 154.574 425.671 154.574Q426.198 154.574 426.532 154.926Q426.872 155.271 426.872 155.799Q426.872 156.326 426.532 156.666Q426.198 157 425.671 157ZM51.6582 204.24Q53.2402 204.674 54.125 205.74Q55.0156 206.807 55.0156 208.295Q55.0156 209.783 54.0664 210.902Q53.1172 212.016 51.5469 212.607Q49.9766 213.193 48.1309 213.193Q46.4492 213.193 44.791 212.689Q43.1387 212.186 41.7676 211.178L42.6055 209.402Q43.7129 210.264 45.0781 210.697Q46.4492 211.131 47.8379 211.131Q49.8535 211.131 51.2188 210.281Q52.5898 209.426 52.5898 207.938Q52.5898 206.666 51.5586 205.98Q50.5273 205.295 48.6582 205.295L44.9141 205.295L44.9141 203.35L48.4883 203.35Q50.0938 203.35 50.9961 202.693Q51.8984 202.031 51.8984 200.854Q51.8984 199.535 50.7207 198.768Q49.543 198 47.7441 198Q46.5664 198 45.3535 198.34Q44.1465 198.674 43.0625 199.342L42.2949 197.379Q43.5664 196.658 44.9844 196.301Q46.4023 195.938 47.8145 195.938Q49.5898 195.938 51.0781 196.488Q52.5664 197.039 53.4395 198.1Q54.3184 199.154 54.3184 200.566Q54.3184 201.838 53.6094 202.799Q52.9062 203.76 51.6582 204.24ZM73.3064 200.279L73.3064 213L71.2146 213L71.2146 203.713L66.4627 211.559L65.4549 211.559L60.7498 203.689L60.7498 213L58.6404 213L58.6404 200.279L61.0135 200.279L66.0057 208.869L71.1443 200.279L73.3064 200.279ZM89.2885 206.713Q89.2885 206.977 89.2416 207.41L78.9174 207.41Q79.1342 209.086 80.394 210.111Q81.6537 211.131 83.5287 211.131Q85.808 211.131 87.1967 209.59L88.4682 211.078Q87.6069 212.086 86.3237 212.619Q85.0405 213.146 83.4526 213.146Q81.437 213.146 79.8784 212.32Q78.3198 211.488 77.4643 210Q76.6147 208.512 76.6147 206.643Q76.6147 204.791 77.4409 203.303Q78.2729 201.814 79.7202 200.988Q81.1733 200.162 83.0014 200.162Q84.8237 200.162 86.2475 200.988Q87.6772 201.814 88.4799 203.303Q89.2885 204.791 89.2885 206.713ZM83.0014 202.102Q81.3432 202.102 80.2241 203.109Q79.1108 204.117 78.9174 205.752L87.0795 205.752Q86.8862 204.146 85.767 203.127Q84.6537 202.102 83.0014 202.102ZM92.8644 200.279L95.1672 200.279L95.1672 205.682L102.415 205.682L102.415 200.279L104.718 200.279L104.718 213L102.415 213L102.415 207.674L95.1672 207.674L95.1672 213L92.8644 213L92.8644 200.279ZM127.326 200.279L127.326 213L109.208 213L109.208 200.279L111.511 200.279L111.511 210.984L117.13 210.984L117.13 200.279L119.433 200.279L119.433 210.984L125.023 210.984L125.023 200.279L127.326 200.279ZM143.289 206.713Q143.289 206.977 143.242 207.41L132.917 207.41Q133.134 209.086 134.394 210.111Q135.654 211.131 137.529 211.131Q139.808 211.131 141.197 209.59L142.468 211.078Q141.607 212.086 140.324 212.619Q139.04 213.146 137.453 213.146Q135.437 213.146 133.878 212.32Q132.32 211.488 131.464 210Q130.615 208.512 130.615 206.643Q130.615 204.791 131.441 203.303Q132.273 201.814 133.72 200.988Q135.173 200.162 137.001 200.162Q138.824 200.162 140.247 200.988Q141.677 201.814 142.48 203.303Q143.289 204.791 143.289 206.713ZM137.001 202.102Q135.343 202.102 134.224 203.109Q133.111 204.117 132.917 205.752L141.08 205.752Q140.886 204.146 139.767 203.127Q138.654 202.102 137.001 202.102ZM146.864 200.279L149.167 200.279L149.167 205.682L156.415 205.682L156.415 200.279L158.718 200.279L158.718 213L156.415 213L156.415 207.674L149.167 207.674L149.167 213L146.864 213L146.864 200.279ZM163.208 200.279L165.511 200.279L165.511 205.682L172.759 205.682L172.759 200.279L175.062 200.279L175.062 213L172.759 213L172.759 207.674L165.511 207.674L165.511 213L163.208 213L163.208 200.279ZM189.754 200.279L189.754 213L187.685 213L187.685 208.969L183.994 208.969L183.73 208.969L180.941 213L178.474 213L181.568 208.658Q180.127 208.225 179.359 207.229Q178.591 206.232 178.591 204.744Q178.591 202.559 180.08 201.422Q181.568 200.279 184.181 200.279L189.754 200.279ZM180.941 204.814Q180.941 206.086 181.744 206.701Q182.552 207.311 184.158 207.311L187.685 207.311L187.685 202.295L184.258 202.295Q180.941 202.295 180.941 204.814ZM209.362 206.402Q211.829 207.023 211.829 209.496Q211.829 211.178 210.569 212.092Q209.31 213 206.814 213L200.696 213L200.696 200.279L206.603 200.279Q208.859 200.279 210.13 201.135Q211.402 201.984 211.402 203.543Q211.402 204.551 210.857 205.283Q210.318 206.016 209.362 206.402ZM202.952 205.752L206.409 205.752Q207.728 205.752 208.413 205.271Q209.099 204.791 209.099 203.883Q209.099 202.055 206.409 202.055L202.952 202.055L202.952 205.752ZM206.65 211.225Q208.085 211.225 208.806 210.768Q209.527 210.311 209.527 209.35Q209.527 208.365 208.864 207.891Q208.208 207.41 206.79 207.41L202.952 207.41L202.952 211.225L206.65 211.225ZM215.432 200.279L217.735 200.279L217.735 209.543L225.534 200.279L227.626 200.279L227.626 213L225.317 213L225.317 203.736L217.542 213L215.432 213L215.432 200.279ZM238.833 200.162Q240.678 200.162 242.143 200.977Q243.608 201.791 244.434 203.256Q245.26 204.721 245.26 206.643Q245.26 208.559 244.434 210.035Q243.608 211.512 242.143 212.332Q240.678 213.146 238.833 213.146Q237.461 213.146 236.319 212.619Q235.182 212.086 234.391 211.078L234.391 217.658L232.088 217.658L232.088 200.279L234.297 200.279L234.297 202.295Q235.065 201.24 236.237 200.701Q237.415 200.162 238.833 200.162ZM238.639 211.131Q239.864 211.131 240.836 210.568Q241.809 210 242.372 208.98Q242.934 207.961 242.934 206.643Q242.934 205.318 242.372 204.299Q241.809 203.279 240.836 202.729Q239.864 202.178 238.639 202.178Q237.438 202.178 236.465 202.74Q235.493 203.303 234.93 204.311Q234.368 205.318 234.368 206.643Q234.368 207.961 234.919 208.98Q235.469 210 236.454 210.568Q237.438 211.131 238.639 211.131ZM253.016 200.162Q255.658 200.162 257.059 201.457Q258.465 202.752 258.465 205.318L258.465 213L256.279 213L256.279 211.318Q255.705 212.209 254.633 212.678Q253.566 213.146 252.107 213.146Q249.969 213.146 248.686 212.115Q247.402 211.078 247.402 209.402Q247.402 207.721 248.627 206.701Q249.852 205.682 252.512 205.682L256.162 205.682L256.162 205.225Q256.162 203.736 255.295 202.945Q254.434 202.154 252.752 202.154Q251.627 202.154 250.543 202.529Q249.465 202.898 248.721 203.52L247.76 201.791Q248.744 201 250.109 200.584Q251.48 200.162 253.016 200.162ZM252.488 211.365Q253.807 211.365 254.768 210.779Q255.728 210.193 256.162 209.109L256.162 207.334L252.611 207.334Q249.682 207.334 249.682 209.303Q249.682 210.264 250.426 210.814Q251.17 211.365 252.488 211.365ZM274.183 207.621L271.71 207.621L271.71 213L269.407 213L269.407 207.621L266.935 207.621L263.431 213L260.695 213L265.066 206.426L261.034 200.279L263.478 200.279L266.911 205.658L269.407 205.658L269.407 200.279L271.71 200.279L271.71 205.658L274.206 205.658L277.64 200.279L280.113 200.279L276.081 206.449L280.447 213L277.71 213L274.183 207.621ZM294.057 206.713Q294.057 206.977 294.01 207.41L283.685 207.41Q283.902 209.086 285.162 210.111Q286.422 211.131 288.297 211.131Q290.576 211.131 291.965 209.59L293.236 211.078Q292.375 212.086 291.092 212.619Q289.808 213.146 288.221 213.146Q286.205 213.146 284.646 212.32Q283.088 211.488 282.232 210Q281.383 208.512 281.383 206.643Q281.383 204.791 282.209 203.303Q283.041 201.814 284.488 200.988Q285.941 200.162 287.769 200.162Q289.592 200.162 291.016 200.988Q292.445 201.814 293.248 203.303Q294.057 204.791 294.057 206.713ZM287.769 202.102Q286.111 202.102 284.992 203.109Q283.879 204.117 283.685 205.752L291.848 205.752Q291.654 204.146 290.535 203.127Q289.422 202.102 287.769 202.102ZM297.632 200.279L299.935 200.279L299.935 205.682L307.183 205.682L307.183 200.279L309.486 200.279L309.486 213L307.183 213L307.183 207.674L299.935 207.674L299.935 213L297.632 213L297.632 200.279ZM313.976 200.279L316.279 200.279L316.279 205.682L323.527 205.682L323.527 200.279L325.83 200.279L325.83 213L323.527 213L323.527 207.674L316.279 207.674L316.279 213L313.976 213L313.976 200.279ZM335.77 213.146Q333.871 213.146 332.359 212.309Q330.848 211.465 329.992 209.988Q329.143 208.512 329.143 206.643Q329.143 204.768 329.992 203.291Q330.848 201.814 332.359 200.988Q333.871 200.162 335.77 200.162Q337.662 200.162 339.162 200.988Q340.662 201.814 341.512 203.291Q342.367 204.768 342.367 206.643Q342.367 208.512 341.512 209.988Q340.662 211.465 339.162 212.309Q337.662 213.146 335.77 213.146ZM335.77 211.131Q336.988 211.131 337.961 210.568Q338.934 210 339.484 208.98Q340.041 207.961 340.041 206.643Q340.041 205.318 339.484 204.299Q338.934 203.279 337.961 202.729Q336.988 202.178 335.77 202.178Q334.545 202.178 333.572 202.729Q332.6 203.279 332.031 204.299Q331.469 205.318 331.469 206.643Q331.469 207.961 332.031 208.98Q332.6 210 333.572 210.568Q334.545 211.131 335.77 211.131ZM351.247 213.146Q349.302 213.146 347.779 212.309Q346.255 211.465 345.388 209.988Q344.527 208.512 344.527 206.643Q344.527 204.768 345.388 203.291Q346.255 201.814 347.779 200.988Q349.302 200.162 351.247 200.162Q352.976 200.162 354.329 200.859Q355.689 201.551 356.433 202.869L354.681 204Q354.077 203.086 353.187 202.635Q352.302 202.178 351.224 202.178Q349.976 202.178 348.98 202.729Q347.984 203.279 347.415 204.299Q346.853 205.318 346.853 206.643Q346.853 207.984 347.415 209.004Q347.984 210.023 348.98 210.58Q349.976 211.131 351.224 211.131Q352.302 211.131 353.187 210.674Q354.077 210.217 354.681 209.303L356.433 210.41Q355.689 211.729 354.329 212.438Q352.976 213.146 351.247 213.146ZM368.721 202.295L364.063 202.295L364.063 213L361.76 213L361.76 202.295L357.102 202.295L357.102 200.279L368.721 200.279L368.721 202.295ZM371.072 200.279L373.375 200.279L373.375 213L371.072 213L371.072 200.279ZM372.221 197.83Q371.553 197.83 371.108 197.402Q370.662 196.969 370.662 196.342Q370.662 195.721 371.108 195.275Q371.553 194.83 372.221 194.83Q372.895 194.83 373.334 195.252Q373.779 195.674 373.779 196.295Q373.779 196.945 373.334 197.391Q372.895 197.83 372.221 197.83ZM384.32 200.279L386.623 200.279L386.623 205.682L393.871 205.682L393.871 200.279L396.174 200.279L396.174 213L393.871 213L393.871 207.674L386.623 207.674L386.623 213L384.32 213L384.32 200.279ZM405.2 200.162Q407.842 200.162 409.243 201.457Q410.649 202.752 410.649 205.318L410.649 213L408.463 213L408.463 211.318Q407.889 212.209 406.817 212.678Q405.75 213.146 404.291 213.146Q402.153 213.146 400.87 212.115Q399.586 211.078 399.586 209.402Q399.586 207.721 400.811 206.701Q402.036 205.682 404.696 205.682L408.346 205.682L408.346 205.225Q408.346 203.736 407.479 202.945Q406.618 202.154 404.936 202.154Q403.811 202.154 402.727 202.529Q401.649 202.898 400.905 203.52L399.944 201.791Q400.928 201 402.293 200.584Q403.664 200.162 405.2 200.162ZM404.672 211.365Q405.991 211.365 406.952 210.779Q407.912 210.193 408.346 209.109L408.346 207.334L404.795 207.334Q401.866 207.334 401.866 209.303Q401.866 210.264 402.61 210.814Q403.354 211.365 404.672 211.365ZM421.281 200.713Q423.056 200.713 424.445 201.504Q425.839 202.295 426.619 203.701Q427.398 205.102 427.398 206.906Q427.398 208.752 426.572 210.182Q425.746 211.605 424.246 212.402Q422.746 213.193 420.824 213.193Q417.584 213.193 415.82 210.973Q414.056 208.752 414.056 204.721Q414.056 200.807 415.662 198.586Q417.273 196.365 420.584 195.65L426.39 194.35L426.73 196.465L421.375 197.613Q418.879 198.17 417.654 199.488Q416.429 200.807 416.265 203.279Q417.08 202.055 418.375 201.387Q419.67 200.713 421.281 200.713ZM420.871 211.271Q422.095 211.271 423.045 210.721Q423.994 210.17 424.521 209.197Q425.048 208.225 425.048 206.977Q425.048 205.078 423.894 203.93Q422.746 202.775 420.871 202.775Q419.002 202.775 417.836 203.93Q416.67 205.078 416.67 206.977Q416.67 208.225 417.209 209.197Q417.754 210.17 418.709 210.721Q419.67 211.271 420.871 211.271ZM437.433 200.162Q439.278 200.162 440.743 200.977Q442.208 201.791 443.034 203.256Q443.86 204.721 443.86 206.643Q443.86 208.559 443.034 210.035Q442.208 211.512 440.743 212.332Q439.278 213.146 437.433 213.146Q436.061 213.146 434.919 212.619Q433.782 212.086 432.991 211.078L432.991 217.658L430.688 217.658L430.688 200.279L432.897 200.279L432.897 202.295Q433.665 201.24 434.837 200.701Q436.015 200.162 437.433 200.162ZM437.239 211.131Q438.464 211.131 439.436 210.568Q440.409 210 440.972 208.98Q441.534 207.961 441.534 206.643Q441.534 205.318 440.972 204.299Q440.409 203.279 439.436 202.729Q438.464 202.178 437.239 202.178Q436.038 202.178 435.065 202.74Q434.093 203.303 433.53 204.311Q432.968 205.318 432.968 206.643Q432.968 207.961 433.518 208.98Q434.069 210 435.054 210.568Q436.038 211.131 437.239 211.131ZM456.97 200.279L456.97 213L454.901 213L454.901 208.969L451.21 208.969L450.946 208.969L448.157 213L445.69 213L448.784 208.658Q447.343 208.225 446.575 207.229Q445.807 206.232 445.807 204.744Q445.807 202.559 447.296 201.422Q448.784 200.279 451.397 200.279L456.97 200.279ZM448.157 204.814Q448.157 206.086 448.96 206.701Q449.768 207.311 451.374 207.311L454.901 207.311L454.901 202.295L451.473 202.295Q448.157 202.295 448.157 204.814ZM466.402 207.621L463.759 207.621L463.759 213L461.456 213L461.456 200.279L463.759 200.279L463.759 205.658L466.449 205.658L470.574 200.279L473.046 200.279L468.224 206.402L473.386 213L470.673 213L466.402 207.621ZM486.444 200.279L480.274 214.271Q479.459 216.217 478.364 217.008Q477.274 217.799 475.739 217.799Q474.801 217.799 473.922 217.5Q473.049 217.201 472.475 216.621L473.459 214.898Q474.444 215.83 475.739 215.83Q476.577 215.83 477.139 215.385Q477.708 214.945 478.165 213.861L478.569 212.977L472.956 200.279L475.352 200.279L479.793 210.457L484.188 200.279L486.444 200.279ZM51.6582 245.24Q53.2402 245.674 54.125 246.74Q55.0156 247.807 55.0156 249.295Q55.0156 250.783 54.0664 251.902Q53.1172 253.016 51.5469 253.607Q49.9766 254.193 48.1309 254.193Q46.4492 254.193 44.791 253.689Q43.1387 253.186 41.7676 252.178L42.6055 250.402Q43.7129 251.264 45.0781 251.697Q46.4492 252.131 47.8379 252.131Q49.8535 252.131 51.2188 251.281Q52.5898 250.426 52.5898 248.938Q52.5898 247.666 51.5586 246.98Q50.5273 246.295 48.6582 246.295L44.9141 246.295L44.9141 244.35L48.4883 244.35Q50.0938 244.35 50.9961 243.693Q51.8984 243.031 51.8984 241.854Q51.8984 240.535 50.7207 239.768Q49.543 239 47.7441 239Q46.5664 239 45.3535 239.34Q44.1465 239.674 43.0625 240.342L42.2949 238.379Q43.5664 237.658 44.9844 237.301Q46.4023 236.938 47.8145 236.938Q49.5898 236.938 51.0781 237.488Q52.5664 238.039 53.4395 239.1Q54.3184 240.154 54.3184 241.566Q54.3184 242.838 53.6094 243.799Q52.9062 244.76 51.6582 245.24ZM73.3064 241.279L73.3064 254L71.2146 254L71.2146 244.713L66.4627 252.559L65.4549 252.559L60.7498 244.689L60.7498 254L58.6404 254L58.6404 241.279L61.0135 241.279L66.0057 249.869L71.1443 241.279L73.3064 241.279ZM89.2885 247.713Q89.2885 247.977 89.2416 248.41L78.9174 248.41Q79.1342 250.086 80.394 251.111Q81.6537 252.131 83.5287 252.131Q85.808 252.131 87.1967 250.59L88.4682 252.078Q87.6069 253.086 86.3237 253.619Q85.0405 254.146 83.4526 254.146Q81.437 254.146 79.8784 253.32Q78.3198 252.488 77.4643 251Q76.6147 249.512 76.6147 247.643Q76.6147 245.791 77.4409 244.303Q78.2729 242.814 79.7202 241.988Q81.1733 241.162 83.0014 241.162Q84.8237 241.162 86.2475 241.988Q87.6772 242.814 88.4799 244.303Q89.2885 245.791 89.2885 247.713ZM83.0014 243.102Q81.3432 243.102 80.2241 244.109Q79.1108 245.117 78.9174 246.752L87.0795 246.752Q86.8862 245.146 85.767 244.127Q84.6537 243.102 83.0014 243.102ZM92.8644 241.279L95.1672 241.279L95.1672 246.682L102.415 246.682L102.415 241.279L104.718 241.279L104.718 254L102.415 254L102.415 248.674L95.1672 248.674L95.1672 254L92.8644 254L92.8644 241.279ZM127.326 241.279L127.326 254L109.208 254L109.208 241.279L111.511 241.279L111.511 251.984L117.13 251.984L117.13 241.279L119.433 241.279L119.433 251.984L125.023 251.984L125.023 241.279L127.326 241.279ZM143.289 247.713Q143.289 247.977 143.242 248.41L132.917 248.41Q133.134 250.086 134.394 251.111Q135.654 252.131 137.529 252.131Q139.808 252.131 141.197 250.59L142.468 252.078Q141.607 253.086 140.324 253.619Q139.04 254.146 137.453 254.146Q135.437 254.146 133.878 253.32Q132.32 252.488 131.464 251Q130.615 249.512 130.615 247.643Q130.615 245.791 131.441 244.303Q132.273 242.814 133.72 241.988Q135.173 241.162 137.001 241.162Q138.824 241.162 140.247 241.988Q141.677 242.814 142.48 244.303Q143.289 245.791 143.289 247.713ZM137.001 243.102Q135.343 243.102 134.224 244.109Q133.111 245.117 132.917 246.752L141.08 246.752Q140.886 245.146 139.767 244.127Q138.654 243.102 137.001 243.102ZM146.864 241.279L149.167 241.279L149.167 246.682L156.415 246.682L156.415 241.279L158.718 241.279L158.718 254L156.415 254L156.415 248.674L149.167 248.674L149.167 254L146.864 254L146.864 241.279ZM163.208 241.279L165.511 241.279L165.511 246.682L172.759 246.682L172.759 241.279L175.062 241.279L175.062 254L172.759 254L172.759 248.674L165.511 248.674L165.511 254L163.208 254L163.208 241.279ZM189.754 241.279L189.754 254L187.685 254L187.685 249.969L183.994 249.969L183.73 249.969L180.941 254L178.474 254L181.568 249.658Q180.127 249.225 179.359 248.229Q178.591 247.232 178.591 245.744Q178.591 243.559 180.08 242.422Q181.568 241.279 184.181 241.279L189.754 241.279ZM180.941 245.814Q180.941 247.086 181.744 247.701Q182.552 248.311 184.158 248.311L187.685 248.311L187.685 243.295L184.258 243.295Q180.941 243.295 180.941 245.814ZM207.177 241.713Q208.952 241.713 210.341 242.504Q211.735 243.295 212.515 244.701Q213.294 246.102 213.294 247.906Q213.294 249.752 212.468 251.182Q211.642 252.605 210.142 253.402Q208.642 254.193 206.72 254.193Q203.48 254.193 201.716 251.973Q199.952 249.752 199.952 245.721Q199.952 241.807 201.558 239.586Q203.169 237.365 206.48 236.65L212.286 235.35L212.626 237.465L207.271 238.613Q204.775 239.17 203.55 240.488Q202.325 241.807 202.161 244.279Q202.976 243.055 204.271 242.387Q205.566 241.713 207.177 241.713ZM206.767 252.271Q207.991 252.271 208.941 251.721Q209.89 251.17 210.417 250.197Q210.944 249.225 210.944 247.977Q210.944 246.078 209.79 244.93Q208.642 243.775 206.767 243.775Q204.898 243.775 203.732 244.93Q202.566 246.078 202.566 247.977Q202.566 249.225 203.105 250.197Q203.65 251.17 204.605 251.721Q205.566 252.271 206.767 252.271ZM223.329 241.162Q225.174 241.162 226.639 241.977Q228.104 242.791 228.93 244.256Q229.756 245.721 229.756 247.643Q229.756 249.559 228.93 251.035Q228.104 252.512 226.639 253.332Q225.174 254.146 223.329 254.146Q221.957 254.146 220.815 253.619Q219.678 253.086 218.887 252.078L218.887 258.658L216.584 258.658L216.584 241.279L218.793 241.279L218.793 243.295Q219.561 242.24 220.733 241.701Q221.911 241.162 223.329 241.162ZM223.135 252.131Q224.36 252.131 225.332 251.568Q226.305 251 226.868 249.98Q227.43 248.961 227.43 247.643Q227.43 246.318 226.868 245.299Q226.305 244.279 225.332 243.729Q224.36 243.178 223.135 243.178Q221.934 243.178 220.961 243.74Q219.989 244.303 219.426 245.311Q218.864 246.318 218.864 247.643Q218.864 248.961 219.415 249.98Q219.965 251 220.95 251.568Q221.934 252.131 223.135 252.131ZM238.546 254.146Q236.647 254.146 235.135 253.309Q233.624 252.465 232.768 250.988Q231.919 249.512 231.919 247.643Q231.919 245.768 232.768 244.291Q233.624 242.814 235.135 241.988Q236.647 241.162 238.546 241.162Q240.438 241.162 241.938 241.988Q243.438 242.814 244.288 244.291Q245.143 245.768 245.143 247.643Q245.143 249.512 244.288 250.988Q243.438 252.465 241.938 253.309Q240.438 254.146 238.546 254.146ZM238.546 252.131Q239.764 252.131 240.737 251.568Q241.71 251 242.26 249.98Q242.817 248.961 242.817 247.643Q242.817 246.318 242.26 245.299Q241.71 244.279 240.737 243.729Q239.764 243.178 238.546 243.178Q237.321 243.178 236.348 243.729Q235.376 244.279 234.807 245.299Q234.245 246.318 234.245 247.643Q234.245 248.961 234.807 249.98Q235.376 251 236.348 251.568Q237.321 252.131 238.546 252.131ZM248.48 241.279L250.783 241.279L250.783 246.682L258.031 246.682L258.031 241.279L260.334 241.279L260.334 254L258.031 254L258.031 248.674L250.783 248.674L250.783 254L248.48 254L248.48 241.279ZM272.77 254L269.096 249.131L265.381 254L262.809 254L267.824 247.496L263.049 241.279L265.621 241.279L269.125 245.861L272.606 241.279L275.125 241.279L270.321 247.496L275.389 254L272.77 254ZM282.826 254.146Q280.927 254.146 279.415 253.309Q277.904 252.465 277.048 250.988Q276.199 249.512 276.199 247.643Q276.199 245.768 277.048 244.291Q277.904 242.814 279.415 241.988Q280.927 241.162 282.826 241.162Q284.718 241.162 286.218 241.988Q287.718 242.814 288.568 244.291Q289.423 245.768 289.423 247.643Q289.423 249.512 288.568 250.988Q287.718 252.465 286.218 253.309Q284.718 254.146 282.826 254.146ZM282.826 252.131Q284.044 252.131 285.017 251.568Q285.99 251 286.54 249.98Q287.097 248.961 287.097 247.643Q287.097 246.318 286.54 245.299Q285.99 244.279 285.017 243.729Q284.044 243.178 282.826 243.178Q281.601 243.178 280.628 243.729Q279.656 244.279 279.087 245.299Q278.525 246.318 278.525 247.643Q278.525 248.961 279.087 249.98Q279.656 251 280.628 251.568Q281.601 252.131 282.826 252.131ZM298.303 254.146Q296.358 254.146 294.835 253.309Q293.311 252.465 292.444 250.988Q291.583 249.512 291.583 247.643Q291.583 245.768 292.444 244.291Q293.311 242.814 294.835 241.988Q296.358 241.162 298.303 241.162Q300.032 241.162 301.385 241.859Q302.745 242.551 303.489 243.869L301.737 245Q301.133 244.086 300.243 243.635Q299.358 243.178 298.28 243.178Q297.032 243.178 296.036 243.729Q295.04 244.279 294.471 245.299Q293.909 246.318 293.909 247.643Q293.909 248.984 294.471 250.004Q295.04 251.023 296.036 251.58Q297.032 252.131 298.28 252.131Q299.358 252.131 300.243 251.674Q301.133 251.217 301.737 250.303L303.489 251.41Q302.745 252.729 301.385 253.438Q300.032 254.146 298.303 254.146ZM318.248 241.279L318.248 254L315.945 254L315.945 243.295L308.767 243.295L308.767 254L306.464 254L306.464 241.279L318.248 241.279ZM327.248 241.162Q329.89 241.162 331.291 242.457Q332.697 243.752 332.697 246.318L332.697 254L330.511 254L330.511 252.318Q329.937 253.209 328.865 253.678Q327.798 254.146 326.339 254.146Q324.201 254.146 322.918 253.115Q321.634 252.078 321.634 250.402Q321.634 248.721 322.859 247.701Q324.084 246.682 326.744 246.682L330.394 246.682L330.394 246.225Q330.394 244.736 329.527 243.945Q328.666 243.154 326.984 243.154Q325.859 243.154 324.775 243.529Q323.697 243.898 322.953 244.52L321.992 242.791Q322.976 242 324.341 241.584Q325.712 241.162 327.248 241.162ZM326.72 252.365Q328.039 252.365 329 251.779Q329.96 251.193 330.394 250.109L330.394 248.334L326.843 248.334Q323.914 248.334 323.914 250.303Q323.914 251.264 324.658 251.814Q325.402 252.365 326.72 252.365ZM343.517 247.379Q344.795 247.713 345.486 248.457Q346.183 249.201 346.183 250.303Q346.183 251.434 345.416 252.312Q344.648 253.186 343.289 253.678Q341.935 254.17 340.254 254.17Q338.841 254.17 337.482 253.801Q336.129 253.426 335.074 252.729L335.765 250.977Q336.679 251.551 337.857 251.879Q339.035 252.201 340.23 252.201Q341.865 252.201 342.838 251.639Q343.81 251.07 343.81 250.109Q343.81 249.225 343.025 248.744Q342.246 248.264 340.834 248.264L338.502 248.264L338.502 246.605L340.664 246.605Q341.959 246.605 342.703 246.154Q343.447 245.697 343.447 244.906Q343.447 244.039 342.568 243.559Q341.695 243.078 340.207 243.078Q338.314 243.078 336.199 244.062L335.578 242.287Q337.904 241.109 340.447 241.109Q341.982 241.109 343.207 241.543Q344.431 241.977 345.129 242.768Q345.826 243.559 345.826 244.566Q345.826 245.504 345.199 246.248Q344.578 246.992 343.517 247.379ZM364.354 241.279L364.354 254L362.263 254L362.263 244.713L357.511 252.559L356.503 252.559L351.798 244.689L351.798 254L349.688 254L349.688 241.279L352.061 241.279L357.054 249.869L362.192 241.279L364.354 241.279ZM380.196 241.279L374.026 255.271Q373.212 257.217 372.116 258.008Q371.026 258.799 369.491 258.799Q368.553 258.799 367.674 258.5Q366.801 258.201 366.227 257.621L367.212 255.898Q368.196 256.83 369.491 256.83Q370.329 256.83 370.891 256.385Q371.46 255.945 371.917 254.861L372.321 253.977L366.708 241.279L369.104 241.279L373.546 251.457L377.94 241.279L380.196 241.279ZM51.125 295.193Q48.6055 295.193 46.5781 294.08Q44.5508 292.961 43.3965 291.004Q42.248 289.047 42.248 286.598Q42.248 284.154 43.3965 282.197Q44.5508 280.24 46.5898 279.127Q48.6289 278.008 51.1484 278.008Q53.1172 278.008 54.7461 278.67Q56.3809 279.326 57.5352 280.627L55.9766 282.139Q54.0781 280.146 51.248 280.146Q49.373 280.146 47.8613 280.984Q46.3496 281.822 45.4941 283.299Q44.6445 284.775 44.6445 286.598Q44.6445 288.426 45.4941 289.902Q46.3496 291.379 47.8613 292.217Q49.373 293.055 51.248 293.055Q54.0547 293.055 55.9766 291.039L57.5352 292.551Q56.3809 293.846 54.7344 294.52Q53.0938 295.193 51.125 295.193ZM72.2476 282.279L72.2476 295L69.9449 295L69.9449 284.295L62.7672 284.295L62.7672 295L60.4644 295L60.4644 282.279L72.2476 282.279ZM83.4566 282.162Q85.3023 282.162 86.7671 282.977Q88.2319 283.791 89.0581 285.256Q89.8843 286.721 89.8843 288.643Q89.8843 290.559 89.0581 292.035Q88.2319 293.512 86.7671 294.332Q85.3023 295.146 83.4566 295.146Q82.0855 295.146 80.9429 294.619Q79.8062 294.086 79.0152 293.078L79.0152 299.658L76.7124 299.658L76.7124 282.279L78.9214 282.279L78.9214 284.295Q79.689 283.24 80.8609 282.701Q82.0386 282.162 83.4566 282.162ZM83.2632 293.131Q84.4878 293.131 85.4605 292.568Q86.4331 292 86.9956 290.98Q87.5581 289.961 87.5581 288.643Q87.5581 287.318 86.9956 286.299Q86.4331 285.279 85.4605 284.729Q84.4878 284.178 83.2632 284.178Q82.062 284.178 81.0894 284.74Q80.1167 285.303 79.5542 286.311Q78.9917 287.318 78.9917 288.643Q78.9917 289.961 79.5425 290.98Q80.0933 292 81.0777 292.568Q82.062 293.131 83.2632 293.131ZM93.2244 282.279L95.5272 282.279L95.5272 291.543L103.326 282.279L105.418 282.279L105.418 295L103.109 295L103.109 285.736L95.3338 295L93.2244 295L93.2244 282.279ZM120.082 282.279L120.082 295L118.013 295L118.013 290.969L114.322 290.969L114.058 290.969L111.269 295L108.802 295L111.896 290.658Q110.455 290.225 109.687 289.229Q108.919 288.232 108.919 286.744Q108.919 284.559 110.408 283.422Q111.896 282.279 114.509 282.279L120.082 282.279ZM111.269 286.814Q111.269 288.086 112.072 288.701Q112.88 289.311 114.486 289.311L118.013 289.311L118.013 284.295L114.586 284.295Q111.269 284.295 111.269 286.814ZM130.252 295.141Q128.313 295.141 126.736 294.303Q125.166 293.465 124.275 291.977Q123.391 290.488 123.391 288.637Q123.391 286.768 124.275 285.279Q125.166 283.791 126.736 282.953Q128.313 282.109 130.252 282.109Q131.934 282.109 133.287 282.643Q134.647 283.17 135.584 284.178L134.236 285.52Q132.701 284.008 130.352 284.008Q128.477 284.008 127.158 285.074Q125.84 286.141 125.576 287.869L131.957 287.869L131.957 289.574L125.623 289.574Q125.934 291.232 127.229 292.252Q128.523 293.271 130.352 293.271Q132.678 293.271 134.236 291.736L135.584 293.055Q134.647 294.086 133.275 294.613Q131.91 295.141 130.252 295.141ZM156.656 282.279L156.656 295L154.353 295L154.353 284.295L147.175 284.295L147.175 295L144.872 295L144.872 282.279L156.656 282.279ZM166.57 295.146Q164.671 295.146 163.159 294.309Q161.648 293.465 160.792 291.988Q159.943 290.512 159.943 288.643Q159.943 286.768 160.792 285.291Q161.648 283.814 163.159 282.988Q164.671 282.162 166.57 282.162Q168.462 282.162 169.962 282.988Q171.462 283.814 172.312 285.291Q173.167 286.768 173.167 288.643Q173.167 290.512 172.312 291.988Q171.462 293.465 169.962 294.309Q168.462 295.146 166.57 295.146ZM166.57 293.131Q167.788 293.131 168.761 292.568Q169.734 292 170.284 290.98Q170.841 289.961 170.841 288.643Q170.841 287.318 170.284 286.299Q169.734 285.279 168.761 284.729Q167.788 284.178 166.57 284.178Q165.345 284.178 164.372 284.729Q163.4 285.279 162.831 286.299Q162.269 287.318 162.269 288.643Q162.269 289.961 162.831 290.98Q163.4 292 164.372 292.568Q165.345 293.131 166.57 293.131ZM181.45 289.621L178.807 289.621L178.807 295L176.504 295L176.504 282.279L178.807 282.279L178.807 287.658L181.497 287.658L185.622 282.279L188.094 282.279L183.272 288.402L188.434 295L185.721 295L181.45 289.621ZM197.601 282.162Q199.446 282.162 200.911 282.977Q202.376 283.791 203.202 285.256Q204.028 286.721 204.028 288.643Q204.028 290.559 203.202 292.035Q202.376 293.512 200.911 294.332Q199.446 295.146 197.601 295.146Q196.229 295.146 195.087 294.619Q193.95 294.086 193.159 293.078L193.159 299.658L190.856 299.658L190.856 282.279L193.065 282.279L193.065 284.295Q193.833 283.24 195.005 282.701Q196.183 282.162 197.601 282.162ZM197.407 293.131Q198.632 293.131 199.604 292.568Q200.577 292 201.14 290.98Q201.702 289.961 201.702 288.643Q201.702 287.318 201.14 286.299Q200.577 285.279 199.604 284.729Q198.632 284.178 197.407 284.178Q196.206 284.178 195.233 284.74Q194.261 285.303 193.698 286.311Q193.136 287.318 193.136 288.643Q193.136 289.961 193.687 290.98Q194.237 292 195.222 292.568Q196.206 293.131 197.407 293.131ZM211.784 282.162Q214.426 282.162 215.827 283.457Q217.233 284.752 217.233 287.318L217.233 295L215.047 295L215.047 293.318Q214.473 294.209 213.401 294.678Q212.334 295.146 210.875 295.146Q208.737 295.146 207.454 294.115Q206.17 293.078 206.17 291.402Q206.17 289.721 207.395 288.701Q208.62 287.682 211.28 287.682L214.93 287.682L214.93 287.225Q214.93 285.736 214.063 284.945Q213.202 284.154 211.52 284.154Q210.395 284.154 209.311 284.529Q208.233 284.898 207.489 285.52L206.528 283.791Q207.512 283 208.877 282.584Q210.248 282.162 211.784 282.162ZM211.256 293.365Q212.575 293.365 213.536 292.779Q214.496 292.193 214.93 291.109L214.93 289.334L211.379 289.334Q208.45 289.334 208.45 291.303Q208.45 292.264 209.194 292.814Q209.938 293.365 211.256 293.365ZM239.502 282.279L239.502 295L221.384 295L221.384 282.279L223.687 282.279L223.687 292.984L229.306 292.984L229.306 282.279L231.609 282.279L231.609 292.984L237.199 292.984L237.199 282.279L239.502 282.279ZM241.4 292.984L241.4 297.713L239.238 297.713L239.238 295L237.105 295L237.105 292.984L241.4 292.984ZM255.465 288.713Q255.465 288.977 255.418 289.41L245.093 289.41Q245.31 291.086 246.57 292.111Q247.83 293.131 249.705 293.131Q251.984 293.131 253.373 291.59L254.644 293.078Q253.783 294.086 252.5 294.619Q251.216 295.146 249.629 295.146Q247.613 295.146 246.054 294.32Q244.496 293.488 243.64 292Q242.791 290.512 242.791 288.643Q242.791 286.791 243.617 285.303Q244.449 283.814 245.896 282.988Q247.349 282.162 249.177 282.162Q251 282.162 252.424 282.988Q253.853 283.814 254.656 285.303Q255.465 286.791 255.465 288.713ZM249.177 284.102Q247.519 284.102 246.4 285.109Q245.287 286.117 245.093 287.752L253.256 287.752Q253.062 286.146 251.943 285.127Q250.83 284.102 249.177 284.102ZM259.04 282.279L261.343 282.279L261.343 287.682L268.591 287.682L268.591 282.279L270.894 282.279L270.894 295L268.591 295L268.591 289.674L261.343 289.674L261.343 295L259.04 295L259.04 282.279ZM275.384 282.279L277.687 282.279L277.687 287.682L284.935 287.682L284.935 282.279L287.238 282.279L287.238 295L284.935 295L284.935 289.674L277.687 289.674L277.687 295L275.384 295L275.384 282.279ZM302.984 282.162Q304.83 282.162 306.295 282.988Q307.76 283.814 308.598 285.291Q309.441 286.768 309.441 288.643Q309.441 290.512 308.598 291.988Q307.76 293.465 306.295 294.309Q304.83 295.146 302.984 295.146Q301.303 295.146 299.932 294.449Q298.566 293.752 297.687 292.492Q296.814 291.232 296.598 289.621L294.031 289.621L294.031 295L291.728 295L291.728 282.279L294.031 282.279L294.031 287.488L296.627 287.488Q296.861 285.906 297.734 284.693Q298.613 283.48 299.967 282.824Q301.326 282.162 302.984 282.162ZM302.984 293.131Q304.162 293.131 305.105 292.58Q306.055 292.023 306.605 291.004Q307.162 289.984 307.162 288.643Q307.162 287.318 306.605 286.299Q306.055 285.279 305.105 284.729Q304.162 284.178 302.984 284.178Q301.807 284.178 300.846 284.729Q299.891 285.279 299.346 286.299Q298.807 287.318 298.807 288.643Q298.807 289.984 299.346 291.004Q299.891 292.023 300.846 292.58Q301.807 293.131 302.984 293.131ZM330.704 288.713Q330.704 288.977 330.658 289.41L320.333 289.41Q320.55 291.086 321.81 292.111Q323.07 293.131 324.945 293.131Q327.224 293.131 328.613 291.59L329.884 293.078Q329.023 294.086 327.74 294.619Q326.456 295.146 324.869 295.146Q322.853 295.146 321.294 294.32Q319.736 293.488 318.88 292Q318.031 290.512 318.031 288.643Q318.031 286.791 318.857 285.303Q319.689 283.814 321.136 282.988Q322.589 282.162 324.417 282.162Q326.24 282.162 327.663 282.988Q329.093 283.814 329.896 285.303Q330.704 286.791 330.704 288.713ZM324.417 284.102Q322.759 284.102 321.64 285.109Q320.527 286.117 320.333 287.752L328.496 287.752Q328.302 286.146 327.183 285.127Q326.07 284.102 324.417 284.102ZM342.946 288.402Q345.413 289.023 345.413 291.496Q345.413 293.178 344.153 294.092Q342.894 295 340.398 295L334.28 295L334.28 282.279L340.187 282.279Q342.443 282.279 343.714 283.135Q344.985 283.984 344.985 285.543Q344.985 286.551 344.441 287.283Q343.901 288.016 342.946 288.402ZM336.536 287.752L339.993 287.752Q341.312 287.752 341.997 287.271Q342.683 286.791 342.683 285.883Q342.683 284.055 339.993 284.055L336.536 284.055L336.536 287.752ZM340.234 293.225Q341.669 293.225 342.39 292.768Q343.11 292.311 343.11 291.35Q343.11 290.365 342.448 289.891Q341.792 289.41 340.374 289.41L336.536 289.41L336.536 293.225L340.234 293.225ZM353.552 282.162Q356.194 282.162 357.595 283.457Q359.001 284.752 359.001 287.318L359.001 295L356.815 295L356.815 293.318Q356.241 294.209 355.169 294.678Q354.102 295.146 352.643 295.146Q350.505 295.146 349.221 294.115Q347.938 293.078 347.938 291.402Q347.938 289.721 349.163 288.701Q350.387 287.682 353.048 287.682L356.698 287.682L356.698 287.225Q356.698 285.736 355.831 284.945Q354.97 284.154 353.288 284.154Q352.163 284.154 351.079 284.529Q350.001 284.898 349.257 285.52L348.296 283.791Q349.28 283 350.645 282.584Q352.016 282.162 353.552 282.162ZM353.024 293.365Q354.343 293.365 355.303 292.779Q356.264 292.193 356.698 291.109L356.698 289.334L353.147 289.334Q350.218 289.334 350.218 291.303Q350.218 292.264 350.962 292.814Q351.706 293.365 353.024 293.365ZM368.098 289.621L365.455 289.621L365.455 295L363.152 295L363.152 282.279L365.455 282.279L365.455 287.658L368.145 287.658L372.27 282.279L374.742 282.279L369.92 288.402L375.082 295L372.369 295L368.098 289.621ZM388.14 282.279L381.97 296.271Q381.155 298.217 380.06 299.008Q378.97 299.799 377.435 299.799Q376.497 299.799 375.618 299.5Q374.745 299.201 374.171 298.621L375.155 296.898Q376.14 297.83 377.435 297.83Q378.273 297.83 378.835 297.385Q379.404 296.945 379.861 295.861L380.265 294.977L374.652 282.279L377.048 282.279L381.489 292.457L385.884 282.279L388.14 282.279ZM394.616 282.162Q397.258 282.162 398.658 283.457Q400.065 284.752 400.065 287.318L400.065 295L397.879 295L397.879 293.318Q397.305 294.209 396.233 294.678Q395.166 295.146 393.707 295.146Q391.569 295.146 390.285 294.115Q389.002 293.078 389.002 291.402Q389.002 289.721 390.227 288.701Q391.451 287.682 394.112 287.682L397.762 287.682L397.762 287.225Q397.762 285.736 396.895 284.945Q396.033 284.154 394.352 284.154Q393.227 284.154 392.143 284.529Q391.065 284.898 390.321 285.52L389.36 283.791Q390.344 283 391.709 282.584Q393.08 282.162 394.616 282.162ZM394.088 293.365Q395.407 293.365 396.367 292.779Q397.328 292.193 397.762 291.109L397.762 289.334L394.211 289.334Q391.282 289.334 391.282 291.303Q391.282 292.264 392.026 292.814Q392.77 293.365 394.088 293.365ZM417.798 292.984L417.798 298.047L415.619 298.047L415.619 295L404.216 295L404.216 282.279L406.519 282.279L406.519 292.984L413.48 292.984L413.48 282.279L415.783 282.279L415.783 292.984L417.798 292.984ZM420.776 282.279L423.079 282.279L423.079 295L420.776 295L420.776 282.279ZM421.925 279.83Q421.257 279.83 420.811 279.402Q420.366 278.969 420.366 278.342Q420.366 277.721 420.811 277.275Q421.257 276.83 421.925 276.83Q422.599 276.83 423.038 277.252Q423.483 277.674 423.483 278.295Q423.483 278.945 423.038 279.391Q422.599 279.83 421.925 279.83ZM427.521 282.279L429.824 282.279L429.824 295L427.521 295L427.521 282.279ZM426.965 280Q426.437 280 426.103 279.654Q425.77 279.303 425.77 278.799Q425.77 278.271 426.103 277.926Q426.437 277.574 426.965 277.574Q427.469 277.574 427.803 277.926Q428.143 278.271 428.143 278.799Q428.143 279.326 427.803 279.666Q427.469 280 426.965 280ZM430.375 280Q429.871 280 429.531 279.654Q429.197 279.303 429.197 278.799Q429.197 278.271 429.531 277.926Q429.871 277.574 430.375 277.574Q430.902 277.574 431.236 277.926Q431.576 278.271 431.576 278.799Q431.576 279.326 431.236 279.666Q430.902 280 430.375 280ZM57.8984 323.279L57.8984 336L55.8066 336L55.8066 326.713L51.0547 334.559L50.0469 334.559L45.3418 326.689L45.3418 336L43.2324 336L43.2324 323.279L45.6055 323.279L50.5977 331.869L55.7363 323.279L57.8984 323.279ZM67.8336 336.146Q65.9352 336.146 64.4235 335.309Q62.9118 334.465 62.0563 332.988Q61.2067 331.512 61.2067 329.643Q61.2067 327.768 62.0563 326.291Q62.9118 324.814 64.4235 323.988Q65.9352 323.162 67.8336 323.162Q69.7262 323.162 71.2262 323.988Q72.7262 324.814 73.5758 326.291Q74.4313 327.768 74.4313 329.643Q74.4313 331.512 73.5758 332.988Q72.7262 334.465 71.2262 335.309Q69.7262 336.146 67.8336 336.146ZM67.8336 334.131Q69.0524 334.131 70.025 333.568Q70.9977 333 71.5485 331.98Q72.1051 330.961 72.1051 329.643Q72.1051 328.318 71.5485 327.299Q70.9977 326.279 70.025 325.729Q69.0524 325.178 67.8336 325.178Q66.609 325.178 65.6364 325.729Q64.6637 326.279 64.0954 327.299Q63.5329 328.318 63.5329 329.643Q63.5329 330.961 64.0954 331.98Q64.6637 333 65.6364 333.568Q66.609 334.131 67.8336 334.131ZM82.7137 330.621L80.0712 330.621L80.0712 336L77.7684 336L77.7684 323.279L80.0712 323.279L80.0712 328.658L82.7606 328.658L86.8856 323.279L89.3583 323.279L84.536 329.402L89.6981 336L86.9852 336L82.7137 330.621ZM98.8646 323.162Q100.71 323.162 102.175 323.977Q103.64 324.791 104.466 326.256Q105.292 327.721 105.292 329.643Q105.292 331.559 104.466 333.035Q103.64 334.512 102.175 335.332Q100.71 336.146 98.8646 336.146Q97.4935 336.146 96.3509 335.619Q95.2142 335.086 94.4232 334.078L94.4232 340.658L92.1204 340.658L92.1204 323.279L94.3294 323.279L94.3294 325.295Q95.097 324.24 96.2689 323.701Q97.4466 323.162 98.8646 323.162ZM98.6712 334.131Q99.8958 334.131 100.868 333.568Q101.841 333 102.404 331.98Q102.966 330.961 102.966 329.643Q102.966 328.318 102.404 327.299Q101.841 326.279 100.868 325.729Q99.8958 325.178 98.6712 325.178Q97.47 325.178 96.4974 325.74Q95.5247 326.303 94.9622 327.311Q94.3997 328.318 94.3997 329.643Q94.3997 330.961 94.9505 331.98Q95.5013 333 96.4857 333.568Q97.47 334.131 98.6712 334.131ZM114.082 336.146Q112.183 336.146 110.671 335.309Q109.16 334.465 108.304 332.988Q107.455 331.512 107.455 329.643Q107.455 327.768 108.304 326.291Q109.16 324.814 110.671 323.988Q112.183 323.162 114.082 323.162Q115.974 323.162 117.474 323.988Q118.974 324.814 119.824 326.291Q120.679 327.768 120.679 329.643Q120.679 331.512 119.824 332.988Q118.974 334.465 117.474 335.309Q115.974 336.146 114.082 336.146ZM114.082 334.131Q115.3 334.131 116.273 333.568Q117.246 333 117.796 331.98Q118.353 330.961 118.353 329.643Q118.353 328.318 117.796 327.299Q117.246 326.279 116.273 325.729Q115.3 325.178 114.082 325.178Q112.857 325.178 111.884 325.729Q110.912 326.279 110.343 327.299Q109.781 328.318 109.781 329.643Q109.781 330.961 110.343 331.98Q110.912 333 111.884 333.568Q112.857 334.131 114.082 334.131ZM133.017 325.295L128.359 325.295L128.359 336L126.056 336L126.056 325.295L121.398 325.295L121.398 323.279L133.017 323.279L133.017 325.295ZM135.368 323.279L137.671 323.279L137.671 332.543L145.47 323.279L147.562 323.279L147.562 336L145.253 336L145.253 326.736L137.478 336L135.368 336L135.368 323.279ZM152.024 323.279L154.327 323.279L154.327 328.682L161.575 328.682L161.575 323.279L163.878 323.279L163.878 336L161.575 336L161.575 330.674L154.327 330.674L154.327 336L152.024 336L152.024 323.279ZM168.368 323.279L170.671 323.279L170.671 328.682L177.919 328.682L177.919 323.279L180.222 323.279L180.222 336L177.919 336L177.919 330.674L170.671 330.674L170.671 336L168.368 336L168.368 323.279ZM194.914 323.279L194.914 336L192.845 336L192.845 331.969L189.154 331.969L188.89 331.969L186.101 336L183.634 336L186.728 331.658Q185.287 331.225 184.519 330.229Q183.751 329.232 183.751 327.744Q183.751 325.559 185.24 324.422Q186.728 323.279 189.341 323.279L194.914 323.279ZM186.101 327.814Q186.101 329.086 186.904 329.701Q187.712 330.311 189.318 330.311L192.845 330.311L192.845 325.295L189.417 325.295Q186.101 325.295 186.101 327.814Z" fill="#000000" fill-opacity="1.000000" fill-rule="evenodd"/>
	<path id="Polygon 8" d="M26 123L7.53857 110.01L7.53857 135.99L26 123Z" fill="#E10920" fill-opacity="1.000000" fill-rule="evenodd"/>
	<path id="Polygon 9" d="M26 162L7.53857 149.01L7.53857 174.99L26 162Z" fill="#E10920" fill-opacity="1.000000" fill-rule="evenodd"/>
	<path id="Polygon 10" d="M25.6152 203L7.15381 190.01L7.15381 215.99L25.6152 203Z" fill="#E10920" fill-opacity="1.000000" fill-rule="evenodd"/>
	<path id="Polygon 11" d="M26 244L7.53857 231.01L7.53857 256.99L26 244Z" fill="#E10920" fill-opacity="1.000000" fill-rule="evenodd"/>
	<path id="Polygon 12" d="M26 284L7.53857 271.01L7.53857 296.99L26 284Z" fill="#E10920" fill-opacity="1.000000" fill-rule="evenodd"/>
</svg>
