<svg width="865.000000" height="496.000000" viewBox="0 0 865 496" fill="none" xmlns="http://www.w3.org/2000/svg" xmlns:xlink="http://www.w3.org/1999/xlink">
	<desc>
			Created with Pixso.
	</desc>
	<defs>
		<linearGradient id="paint_linear_76_3757_0" x1="121.796509" y1="331.486694" x2="114.386551" y2="454.104706" gradientUnits="userSpaceOnUse">
			<stop stop-color="#009C4F"/>
			<stop offset="1.000000" stop-color="#C6F579"/>
		</linearGradient>
		<linearGradient id="paint_linear_76_3756_0" x1="121.796509" y1="217.486710" x2="114.386551" y2="340.104706" gradientUnits="userSpaceOnUse">
			<stop stop-color="#009C4F"/>
			<stop offset="1.000000" stop-color="#C6F579"/>
		</linearGradient>
		<linearGradient id="paint_linear_76_3755_0" x1="121.796509" y1="103.486710" x2="114.386551" y2="226.104706" gradientUnits="userSpaceOnUse">
			<stop stop-color="#009C4F"/>
			<stop offset="1.000000" stop-color="#C6F579"/>
		</linearGradient>
		<linearGradient id="paint_linear_76_3716_0" x1="121.796509" y1="-3.513290" x2="114.386551" y2="119.104706" gradientUnits="userSpaceOnUse">
			<stop stop-color="#009C4F"/>
			<stop offset="1.000000" stop-color="#C6F579"/>
		</linearGradient>
	</defs>
	<path id="Rectangle 30" d="M617 496L0 496L0 0L617 0C753.967 0 865 111.033 865 248C865 384.967 753.967 496 617 496Z" fill="#E7FFC0" fill-opacity="1.000000" fill-rule="evenodd"/>
	<path id="Потрійна допомога нервовій системі: ноотропна, вегетотропна, протитривожна" d="M188.798 51.5012L188.798 69L186.35 69L186.35 53.6741L176.2 53.6741L176.2 69L173.722 69L173.722 51.5012L188.798 51.5012ZM199.527 69.1526Q197.549 69.1526 195.974 68.2798Q194.4 67.4009 193.509 65.8628Q192.624 64.3247 192.624 62.3777Q192.624 60.4246 193.509 58.8865Q194.4 57.3484 195.974 56.4878Q197.549 55.6272 199.527 55.6272Q201.498 55.6272 203.061 56.4878Q204.623 57.3484 205.508 58.8865Q206.399 60.4246 206.399 62.3777Q206.399 64.3247 205.508 65.8628Q204.623 67.4009 203.061 68.2798Q201.498 69.1526 199.527 69.1526ZM199.527 67.053Q200.796 67.053 201.809 66.467Q202.823 65.875 203.396 64.813Q203.976 63.751 203.976 62.3777Q203.976 60.9983 203.396 59.9363Q202.823 58.8743 201.809 58.3005Q200.796 57.7268 199.527 57.7268Q198.251 57.7268 197.238 58.3005Q196.225 58.8743 195.633 59.9363Q195.047 60.9983 195.047 62.3777Q195.047 63.751 195.633 64.813Q196.225 65.875 197.238 66.467Q198.251 67.053 199.527 67.053ZM219.251 57.8489L214.399 57.8489L214.399 69L212 69L212 57.8489L207.148 57.8489L207.148 55.7493L219.251 55.7493L219.251 57.8489ZM228.726 55.6272Q230.648 55.6272 232.174 56.4756Q233.7 57.324 234.561 58.8499Q235.421 60.3757 235.421 62.3777Q235.421 64.3735 234.561 65.9116Q233.7 67.4497 232.174 68.3042Q230.648 69.1526 228.726 69.1526Q227.297 69.1526 226.107 68.6033Q224.923 68.0479 224.099 66.998L224.099 73.8523L221.7 73.8523L221.7 55.7493L224.001 55.7493L224.001 57.8489Q224.801 56.7502 226.022 56.1887Q227.249 55.6272 228.726 55.6272ZM228.524 67.053Q229.8 67.053 230.813 66.467Q231.826 65.875 232.412 64.813Q232.998 63.751 232.998 62.3777Q232.998 60.9983 232.412 59.9363Q231.826 58.8743 230.813 58.3005Q229.8 57.7268 228.524 57.7268Q227.273 57.7268 226.26 58.3127Q225.247 58.8987 224.661 59.9485Q224.075 60.9983 224.075 62.3777Q224.075 63.751 224.648 64.813Q225.222 65.875 226.248 66.467Q227.273 67.053 228.524 67.053ZM238.9 55.7493L241.299 55.7493L241.299 69L238.9 69L238.9 55.7493ZM240.097 53.198Q239.401 53.198 238.937 52.7524Q238.473 52.3008 238.473 51.6477Q238.473 51.0007 238.937 50.5369Q239.401 50.073 240.097 50.073Q240.799 50.073 241.256 50.5125Q241.72 50.9519 241.72 51.5989Q241.72 52.2764 241.256 52.7402Q240.799 53.198 240.097 53.198ZM245.975 55.7493L248.374 55.7493L248.374 65.3989L256.498 55.7493L258.677 55.7493L258.677 69L256.272 69L256.272 59.3503L248.173 69L245.975 69L245.975 55.7493ZM252.171 54.0281Q250.321 54.0281 249.296 53.1431Q248.276 52.252 248.246 50.5735L249.876 50.5735Q249.9 51.5012 250.51 52.0627Q251.121 52.6243 252.146 52.6243Q253.171 52.6243 253.794 52.0627Q254.423 51.5012 254.447 50.5735L256.126 50.5735Q256.101 52.252 255.051 53.1431Q254.002 54.0281 252.171 54.0281ZM263.325 55.7493L265.724 55.7493L265.724 61.3767L273.274 61.3767L273.274 55.7493L275.673 55.7493L275.673 69L273.274 69L273.274 63.4519L265.724 63.4519L265.724 69L263.325 69L263.325 55.7493ZM285.075 55.6272Q287.827 55.6272 289.286 56.9761Q290.751 58.325 290.751 60.9983L290.751 69L288.474 69L288.474 67.2483Q287.876 68.176 286.759 68.6643Q285.648 69.1526 284.129 69.1526Q281.901 69.1526 280.564 68.0784Q279.227 66.998 279.227 65.2524Q279.227 63.5007 280.503 62.4387Q281.779 61.3767 284.55 61.3767L288.352 61.3767L288.352 60.9006Q288.352 59.3503 287.449 58.5264Q286.552 57.7024 284.8 57.7024Q283.628 57.7024 282.499 58.093Q281.376 58.4775 280.601 59.1245L279.6 57.324Q280.625 56.5 282.047 56.0667Q283.475 55.6272 285.075 55.6272ZM284.525 67.2971Q285.899 67.2971 286.9 66.6868Q287.9 66.0764 288.352 64.9473L288.352 63.0979L284.653 63.0979Q281.602 63.0979 281.602 65.1487Q281.602 66.1497 282.377 66.7234Q283.152 67.2971 284.525 67.2971ZM315.277 66.9004L315.277 72.0762L313.025 72.0762L313.025 69L301.953 69L301.953 72.0762L299.676 72.0762L299.676 66.9004L300.372 66.9004Q301.648 66.8271 302.124 65.0999Q302.6 63.3726 302.777 60.2231L302.972 55.7493L313.251 55.7493L313.251 66.9004L315.277 66.9004ZM304.974 60.4001Q304.877 62.9026 304.559 64.5383Q304.248 66.1741 303.424 66.9004L310.852 66.9004L310.852 57.8489L305.102 57.8489L304.974 60.4001ZM324.077 69.1526Q322.099 69.1526 320.524 68.2798Q318.95 67.4009 318.059 65.8628Q317.174 64.3247 317.174 62.3777Q317.174 60.4246 318.059 58.8865Q318.95 57.3484 320.524 56.4878Q322.099 55.6272 324.077 55.6272Q326.048 55.6272 327.611 56.4878Q329.173 57.3484 330.058 58.8865Q330.949 60.4246 330.949 62.3777Q330.949 64.3247 330.058 65.8628Q329.173 67.4009 327.611 68.2798Q326.048 69.1526 324.077 69.1526ZM324.077 67.053Q325.346 67.053 326.359 66.467Q327.373 65.875 327.946 64.813Q328.526 63.751 328.526 62.3777Q328.526 60.9983 327.946 59.9363Q327.373 58.8743 326.359 58.3005Q325.346 57.7268 324.077 57.7268Q322.801 57.7268 321.788 58.3005Q320.775 58.8743 320.183 59.9363Q319.597 60.9983 319.597 62.3777Q319.597 63.751 320.183 64.813Q320.775 65.875 321.788 66.467Q322.801 67.053 324.077 67.053ZM346.7 55.7493L346.7 69L344.301 69L344.301 57.8489L336.824 57.8489L336.824 69L334.425 69L334.425 55.7493L346.7 55.7493ZM357.027 69.1526Q355.049 69.1526 353.474 68.2798Q351.9 67.4009 351.009 65.8628Q350.124 64.3247 350.124 62.3777Q350.124 60.4246 351.009 58.8865Q351.9 57.3484 353.474 56.4878Q355.049 55.6272 357.027 55.6272Q358.998 55.6272 360.561 56.4878Q362.123 57.3484 363.008 58.8865Q363.899 60.4246 363.899 62.3777Q363.899 64.3247 363.008 65.8628Q362.123 67.4009 360.561 68.2798Q358.998 69.1526 357.027 69.1526ZM357.027 67.053Q358.296 67.053 359.309 66.467Q360.323 65.875 360.896 64.813Q361.476 63.751 361.476 62.3777Q361.476 60.9983 360.896 59.9363Q360.323 58.8743 359.309 58.3005Q358.296 57.7268 357.027 57.7268Q355.751 57.7268 354.738 58.3005Q353.725 58.8743 353.133 59.9363Q352.547 60.9983 352.547 62.3777Q352.547 63.751 353.133 64.813Q353.725 65.875 354.738 66.467Q355.751 67.053 357.027 67.053ZM382.653 55.7493L382.653 69L380.474 69L380.474 59.3259L375.524 67.4985L374.474 67.4985L369.573 59.3015L369.573 69L367.375 69L367.375 55.7493L369.847 55.7493L375.048 64.697L380.4 55.7493L382.653 55.7493ZM393.002 69.1526Q391.024 69.1526 389.449 68.2798Q387.875 67.4009 386.984 65.8628Q386.099 64.3247 386.099 62.3777Q386.099 60.4246 386.984 58.8865Q387.875 57.3484 389.449 56.4878Q391.024 55.6272 393.002 55.6272Q394.973 55.6272 396.536 56.4878Q398.098 57.3484 398.983 58.8865Q399.874 60.4246 399.874 62.3777Q399.874 64.3247 398.983 65.8628Q398.098 67.4009 396.536 68.2798Q394.973 69.1526 393.002 69.1526ZM393.002 67.053Q394.271 67.053 395.284 66.467Q396.298 65.875 396.871 64.813Q397.451 63.751 397.451 62.3777Q397.451 60.9983 396.871 59.9363Q396.298 58.8743 395.284 58.3005Q394.271 57.7268 393.002 57.7268Q391.726 57.7268 390.713 58.3005Q389.7 58.8743 389.108 59.9363Q388.522 60.9983 388.522 62.3777Q388.522 63.751 389.108 64.813Q389.7 65.875 390.713 66.467Q391.726 67.053 393.002 67.053ZM413.098 57.8489L405.749 57.8489L405.749 69L403.35 69L403.35 55.7493L413.098 55.7493L413.098 57.8489ZM420.275 55.6272Q423.027 55.6272 424.486 56.9761Q425.951 58.325 425.951 60.9983L425.951 69L423.674 69L423.674 67.2483Q423.076 68.176 421.959 68.6643Q420.848 69.1526 419.328 69.1526Q417.101 69.1526 415.764 68.0784Q414.427 66.998 414.427 65.2524Q414.427 63.5007 415.703 62.4387Q416.979 61.3767 419.75 61.3767L423.552 61.3767L423.552 60.9006Q423.552 59.3503 422.649 58.5264Q421.752 57.7024 420 57.7024Q418.828 57.7024 417.699 58.093Q416.576 58.4775 415.801 59.1245L414.8 57.324Q415.825 56.5 417.247 56.0667Q418.675 55.6272 420.275 55.6272ZM419.725 67.2971Q421.099 67.2971 422.099 66.6868Q423.1 66.0764 423.552 64.9473L423.552 63.0979L419.853 63.0979Q416.802 63.0979 416.802 65.1487Q416.802 66.1497 417.577 66.7234Q418.352 67.2971 419.725 67.2971ZM437 55.7493L439.399 55.7493L439.399 61.3767L446.949 61.3767L446.949 55.7493L449.348 55.7493L449.348 69L446.949 69L446.949 63.4519L439.399 63.4519L439.399 69L437 69L437 55.7493ZM466.001 62.4509Q466.001 62.7256 465.952 63.1772L455.197 63.1772Q455.423 64.9229 456.735 65.991Q458.048 67.053 460.001 67.053Q462.375 67.053 463.822 65.4478L465.146 66.998Q464.249 68.0479 462.912 68.6033Q461.575 69.1526 459.921 69.1526Q457.822 69.1526 456.198 68.292Q454.575 67.4253 453.684 65.875Q452.799 64.3247 452.799 62.3777Q452.799 60.449 453.659 58.8987Q454.526 57.3484 456.033 56.4878Q457.547 55.6272 459.451 55.6272Q461.35 55.6272 462.833 56.4878Q464.322 57.3484 465.158 58.8987Q466.001 60.449 466.001 62.4509ZM459.451 57.6475Q457.724 57.6475 456.558 58.6973Q455.399 59.7471 455.197 61.45L463.699 61.45Q463.498 59.7776 462.332 58.7156Q461.173 57.6475 459.451 57.6475ZM476.751 55.6272Q478.673 55.6272 480.199 56.4756Q481.725 57.324 482.586 58.8499Q483.446 60.3757 483.446 62.3777Q483.446 64.3735 482.586 65.9116Q481.725 67.4497 480.199 68.3042Q478.673 69.1526 476.751 69.1526Q475.322 69.1526 474.132 68.6033Q472.948 68.0479 472.124 66.998L472.124 73.8523L469.725 73.8523L469.725 55.7493L472.026 55.7493L472.026 57.8489Q472.826 56.7502 474.047 56.1887Q475.274 55.6272 476.751 55.6272ZM476.549 67.053Q477.825 67.053 478.838 66.467Q479.851 65.875 480.437 64.813Q481.023 63.751 481.023 62.3777Q481.023 60.9983 480.437 59.9363Q479.851 58.8743 478.838 58.3005Q477.825 57.7268 476.549 57.7268Q475.298 57.7268 474.285 58.3127Q473.272 58.8987 472.686 59.9485Q472.1 60.9983 472.1 62.3777Q472.1 63.751 472.673 64.813Q473.247 65.875 474.273 66.467Q475.298 67.053 476.549 67.053ZM495.953 62.1274Q498.522 62.7744 498.522 65.3501Q498.522 67.1018 497.21 68.054Q495.898 69 493.298 69L486.925 69L486.925 55.7493L493.078 55.7493Q495.428 55.7493 496.752 56.6404Q498.077 57.5254 498.077 59.1489Q498.077 60.1987 497.509 60.9617Q496.947 61.7246 495.953 62.1274ZM489.275 61.45L492.876 61.45Q494.25 61.45 494.964 60.9495Q495.678 60.449 495.678 59.5029Q495.678 57.5986 492.876 57.5986L489.275 57.5986L489.275 61.45ZM493.127 67.1506Q494.622 67.1506 495.373 66.6746Q496.123 66.1985 496.123 65.1975Q496.123 64.1721 495.434 63.6777Q494.75 63.1772 493.273 63.1772L489.275 63.1772L489.275 67.1506L493.127 67.1506ZM507.952 69.1526Q505.974 69.1526 504.399 68.2798Q502.825 67.4009 501.934 65.8628Q501.049 64.3247 501.049 62.3777Q501.049 60.4246 501.934 58.8865Q502.825 57.3484 504.399 56.4878Q505.974 55.6272 507.952 55.6272Q509.923 55.6272 511.486 56.4878Q513.048 57.3484 513.933 58.8865Q514.824 60.4246 514.824 62.3777Q514.824 64.3247 513.933 65.8628Q513.048 67.4009 511.486 68.2798Q509.923 69.1526 507.952 69.1526ZM507.952 67.053Q509.221 67.053 510.234 66.467Q511.248 65.875 511.821 64.813Q512.401 63.751 512.401 62.3777Q512.401 60.9983 511.821 59.9363Q511.248 58.8743 510.234 58.3005Q509.221 57.7268 507.952 57.7268Q506.676 57.7268 505.663 58.3005Q504.65 58.8743 504.058 59.9363Q503.472 60.9983 503.472 62.3777Q503.472 63.751 504.058 64.813Q504.65 65.875 505.663 66.467Q506.676 67.053 507.952 67.053ZM527.328 62.1274Q529.897 62.7744 529.897 65.3501Q529.897 67.1018 528.585 68.054Q527.273 69 524.672 69L518.3 69L518.3 55.7493L524.453 55.7493Q526.803 55.7493 528.127 56.6404Q529.452 57.5254 529.452 59.1489Q529.452 60.1987 528.884 60.9617Q528.322 61.7246 527.328 62.1274ZM520.65 61.45L524.251 61.45Q525.625 61.45 526.339 60.9495Q527.053 60.449 527.053 59.5029Q527.053 57.5986 524.251 57.5986L520.65 57.5986L520.65 61.45ZM524.502 67.1506Q525.997 67.1506 526.748 66.6746Q527.498 66.1985 527.498 65.1975Q527.498 64.1721 526.809 63.6777Q526.125 63.1772 524.648 63.1772L520.65 63.1772L520.65 67.1506L524.502 67.1506ZM533.65 55.7493L536.049 55.7493L536.049 69L533.65 69L533.65 55.7493ZM534.847 53.198Q534.151 53.198 533.687 52.7524Q533.223 52.3008 533.223 51.6477Q533.223 51.0007 533.687 50.5369Q534.151 50.073 534.847 50.073Q535.549 50.073 536.006 50.5125Q536.47 50.9519 536.47 51.5989Q536.47 52.2764 536.006 52.7402Q535.549 53.198 534.847 53.198ZM540.725 55.7493L543.124 55.7493L543.124 65.3989L551.248 55.7493L553.427 55.7493L553.427 69L551.022 69L551.022 59.3503L542.923 69L540.725 69L540.725 55.7493ZM546.921 54.0281Q545.071 54.0281 544.046 53.1431Q543.026 52.252 542.996 50.5735L544.626 50.5735Q544.65 51.5012 545.26 52.0627Q545.871 52.6243 546.896 52.6243Q547.922 52.6243 548.544 52.0627Q549.173 51.5012 549.197 50.5735L550.876 50.5735Q550.851 52.252 549.801 53.1431Q548.752 54.0281 546.921 54.0281ZM570.574 69.1526Q568.548 69.1526 566.961 68.2798Q565.374 67.4009 564.471 65.8628Q563.574 64.3247 563.574 62.3777Q563.574 60.4246 564.471 58.8865Q565.374 57.3484 566.961 56.4878Q568.548 55.6272 570.574 55.6272Q572.375 55.6272 573.785 56.3535Q575.201 57.0737 575.976 58.447L574.151 59.625Q573.522 58.6729 572.595 58.2029Q571.673 57.7268 570.55 57.7268Q569.25 57.7268 568.212 58.3005Q567.175 58.8743 566.583 59.9363Q565.997 60.9983 565.997 62.3777Q565.997 63.7754 566.583 64.8374Q567.175 65.8994 568.212 66.4792Q569.25 67.053 570.55 67.053Q571.673 67.053 572.595 66.5769Q573.522 66.1008 574.151 65.1487L575.976 66.3022Q575.201 67.6755 573.785 68.4141Q572.375 69.1526 570.574 69.1526ZM579.075 55.7493L581.474 55.7493L581.474 65.3989L589.598 55.7493L591.777 55.7493L591.777 69L589.372 69L589.372 59.3503L581.273 69L579.075 69L579.075 55.7493ZM602.199 69.1526Q600.173 69.1526 598.586 68.2798Q596.999 67.4009 596.096 65.8628Q595.199 64.3247 595.199 62.3777Q595.199 60.4246 596.096 58.8865Q596.999 57.3484 598.586 56.4878Q600.173 55.6272 602.199 55.6272Q604 55.6272 605.41 56.3535Q606.826 57.0737 607.601 58.447L605.776 59.625Q605.147 58.6729 604.22 58.2029Q603.298 57.7268 602.175 57.7268Q600.875 57.7268 599.837 58.3005Q598.8 58.8743 598.208 59.9363Q597.622 60.9983 597.622 62.3777Q597.622 63.7754 598.208 64.8374Q598.8 65.8994 599.837 66.4792Q600.875 67.053 602.175 67.053Q603.298 67.053 604.22 66.5769Q605.147 66.1008 605.776 65.1487L607.601 66.3022Q606.826 67.6755 605.41 68.4141Q604 69.1526 602.199 69.1526ZM620.401 57.8489L615.549 57.8489L615.549 69L613.15 69L613.15 57.8489L608.298 57.8489L608.298 55.7493L620.401 55.7493L620.401 57.8489ZM634.251 62.4509Q634.251 62.7256 634.202 63.1772L623.447 63.1772Q623.673 64.9229 624.985 65.991Q626.298 67.053 628.251 67.053Q630.625 67.053 632.072 65.4478L633.396 66.998Q632.499 68.0479 631.162 68.6033Q629.826 69.1526 628.172 69.1526Q626.072 69.1526 624.448 68.292Q622.825 67.4253 621.934 65.875Q621.049 64.3247 621.049 62.3777Q621.049 60.449 621.909 58.8987Q622.776 57.3484 624.284 56.4878Q625.797 55.6272 627.702 55.6272Q629.6 55.6272 631.083 56.4878Q632.572 57.3484 633.408 58.8987Q634.251 60.449 634.251 62.4509ZM627.702 57.6475Q625.974 57.6475 624.808 58.6973Q623.649 59.7471 623.447 61.45L631.95 61.45Q631.748 59.7776 630.582 58.7156Q629.423 57.6475 627.702 57.6475ZM653.253 55.7493L653.253 69L651.074 69L651.074 59.3259L646.124 67.4985L645.074 67.4985L640.173 59.3015L640.173 69L637.975 69L637.975 55.7493L640.447 55.7493L645.648 64.697L651 55.7493L653.253 55.7493ZM657.926 55.7493L660.324 55.7493L660.324 69L657.926 69L657.926 55.7493ZM659.122 53.198Q658.426 53.198 657.962 52.7524Q657.498 52.3008 657.498 51.6477Q657.498 51.0007 657.962 50.5369Q658.426 50.073 659.122 50.073Q659.824 50.073 660.281 50.5125Q660.745 50.9519 660.745 51.5989Q660.745 52.2764 660.281 52.7402Q659.824 53.198 659.122 53.198ZM665.525 59.0513Q664.823 59.0513 664.323 58.563Q663.823 58.0747 663.823 57.324Q663.823 56.5977 664.323 56.1094Q664.823 55.6211 665.525 55.6211Q666.227 55.6211 666.697 56.0972Q667.173 56.5732 667.173 57.324Q667.173 58.0747 666.685 58.563Q666.203 59.0513 665.525 59.0513ZM665.525 69.1526Q664.823 69.1526 664.323 68.6643Q663.823 68.176 663.823 67.4253Q663.823 66.699 664.323 66.2107Q664.823 65.7224 665.525 65.7224Q666.227 65.7224 666.697 66.1985Q667.173 66.6746 667.173 67.4253Q667.173 68.176 666.685 68.6643Q666.203 69.1526 665.525 69.1526ZM173.325 90.7493L175.724 90.7493L175.724 96.3767L183.274 96.3767L183.274 90.7493L185.673 90.7493L185.673 104L183.274 104L183.274 98.4519L175.724 98.4519L175.724 104L173.325 104L173.325 90.7493ZM196.027 104.153Q194.049 104.153 192.474 103.28Q190.9 102.401 190.009 100.863Q189.124 99.3247 189.124 97.3777Q189.124 95.4246 190.009 93.8865Q190.9 92.3484 192.474 91.4878Q194.049 90.6272 196.027 90.6272Q197.998 90.6272 199.561 91.4878Q201.123 92.3484 202.008 93.8865Q202.899 95.4246 202.899 97.3777Q202.899 99.3247 202.008 100.863Q201.123 102.401 199.561 103.28Q197.998 104.153 196.027 104.153ZM196.027 102.053Q197.296 102.053 198.309 101.467Q199.323 100.875 199.896 99.813Q200.476 98.751 200.476 97.3777Q200.476 95.9983 199.896 94.9363Q199.323 93.8743 198.309 93.3005Q197.296 92.7268 196.027 92.7268Q194.751 92.7268 193.738 93.3005Q192.725 93.8743 192.133 94.9363Q191.547 95.9983 191.547 97.3777Q191.547 98.751 192.133 99.813Q192.725 100.875 193.738 101.467Q194.751 102.053 196.027 102.053ZM212.052 104.153Q210.074 104.153 208.499 103.28Q206.925 102.401 206.034 100.863Q205.149 99.3247 205.149 97.3777Q205.149 95.4246 206.034 93.8865Q206.925 92.3484 208.499 91.4878Q210.074 90.6272 212.052 90.6272Q214.023 90.6272 215.586 91.4878Q217.148 92.3484 218.033 93.8865Q218.924 95.4246 218.924 97.3777Q218.924 99.3247 218.033 100.863Q217.148 102.401 215.586 103.28Q214.023 104.153 212.052 104.153ZM212.052 102.053Q213.321 102.053 214.334 101.467Q215.348 100.875 215.921 99.813Q216.501 98.751 216.501 97.3777Q216.501 95.9983 215.921 94.9363Q215.348 93.8743 214.334 93.3005Q213.321 92.7268 212.052 92.7268Q210.776 92.7268 209.763 93.3005Q208.75 93.8743 208.158 94.9363Q207.572 95.9983 207.572 97.3777Q207.572 98.751 208.158 99.813Q208.75 100.875 209.763 101.467Q210.776 102.053 212.052 102.053ZM231.776 92.8489L226.924 92.8489L226.924 104L224.525 104L224.525 92.8489L219.673 92.8489L219.673 90.7493L231.776 90.7493L231.776 92.8489ZM241.251 90.6272Q243.173 90.6272 244.699 91.4756Q246.225 92.324 247.086 93.8499Q247.946 95.3757 247.946 97.3777Q247.946 99.3735 247.086 100.912Q246.225 102.45 244.699 103.304Q243.173 104.153 241.251 104.153Q239.822 104.153 238.632 103.603Q237.448 103.048 236.624 101.998L236.624 108.852L234.225 108.852L234.225 90.7493L236.526 90.7493L236.526 92.8489Q237.326 91.7502 238.547 91.1887Q239.774 90.6272 241.251 90.6272ZM241.049 102.053Q242.325 102.053 243.338 101.467Q244.351 100.875 244.937 99.813Q245.523 98.751 245.523 97.3777Q245.523 95.9983 244.937 94.9363Q244.351 93.8743 243.338 93.3005Q242.325 92.7268 241.049 92.7268Q239.798 92.7268 238.785 93.3127Q237.772 93.8987 237.186 94.9485Q236.6 95.9983 236.6 97.3777Q236.6 98.751 237.173 99.813Q237.747 100.875 238.773 101.467Q239.798 102.053 241.049 102.053ZM257.102 104.153Q255.124 104.153 253.549 103.28Q251.975 102.401 251.084 100.863Q250.199 99.3247 250.199 97.3777Q250.199 95.4246 251.084 93.8865Q251.975 92.3484 253.549 91.4878Q255.124 90.6272 257.102 90.6272Q259.073 90.6272 260.636 91.4878Q262.198 92.3484 263.083 93.8865Q263.974 95.4246 263.974 97.3777Q263.974 99.3247 263.083 100.863Q262.198 102.401 260.636 103.28Q259.073 104.153 257.102 104.153ZM257.102 102.053Q258.371 102.053 259.384 101.467Q260.398 100.875 260.971 99.813Q261.551 98.751 261.551 97.3777Q261.551 95.9983 260.971 94.9363Q260.398 93.8743 259.384 93.3005Q258.371 92.7268 257.102 92.7268Q255.826 92.7268 254.813 93.3005Q253.8 93.8743 253.208 94.9363Q252.622 95.9983 252.622 97.3777Q252.622 98.751 253.208 99.813Q253.8 100.875 254.813 101.467Q255.826 102.053 257.102 102.053ZM279.725 90.7493L279.725 104L277.326 104L277.326 92.8489L269.849 92.8489L269.849 104L267.45 104L267.45 90.7493L279.725 90.7493ZM284.375 90.7493L286.774 90.7493L286.774 96.3767L294.324 96.3767L294.324 90.7493L296.723 90.7493L296.723 104L294.324 104L294.324 98.4519L286.774 98.4519L286.774 104L284.375 104L284.375 90.7493ZM306.125 90.6272Q308.877 90.6272 310.336 91.9761Q311.801 93.325 311.801 95.9983L311.801 104L309.524 104L309.524 102.248Q308.926 103.176 307.809 103.664Q306.698 104.153 305.179 104.153Q302.951 104.153 301.614 103.078Q300.277 101.998 300.277 100.252Q300.277 98.5007 301.553 97.4387Q302.829 96.3767 305.6 96.3767L309.402 96.3767L309.402 95.9006Q309.402 94.3503 308.499 93.5264Q307.602 92.7024 305.85 92.7024Q304.678 92.7024 303.549 93.093Q302.426 93.4775 301.651 94.1245L300.65 92.324Q301.675 91.5 303.097 91.0667Q304.525 90.6272 306.125 90.6272ZM305.575 102.297Q306.949 102.297 307.95 101.687Q308.951 101.076 309.402 99.9473L309.402 98.0979L305.703 98.0979Q302.652 98.0979 302.652 100.149Q302.652 101.15 303.427 101.723Q304.202 102.297 305.575 102.297ZM316.675 100.722Q317.377 100.722 317.834 101.211Q318.298 101.699 318.298 102.425Q318.298 102.798 318.213 103.152Q318.127 103.5 317.877 104.226L316.699 107.699L315.124 107.699L316.052 103.976Q315.576 103.799 315.289 103.39Q315.002 102.975 315.002 102.425Q315.002 101.675 315.472 101.198Q315.948 100.722 316.675 100.722ZM337.553 97.1274Q340.122 97.7744 340.122 100.35Q340.122 102.102 338.81 103.054Q337.498 104 334.898 104L328.525 104L328.525 90.7493L334.678 90.7493Q337.028 90.7493 338.352 91.6404Q339.677 92.5254 339.677 94.1489Q339.677 95.1987 339.109 95.9617Q338.547 96.7246 337.553 97.1274ZM330.875 96.45L334.476 96.45Q335.85 96.45 336.564 95.9495Q337.278 95.449 337.278 94.5029Q337.278 92.5986 334.476 92.5986L330.875 92.5986L330.875 96.45ZM334.727 102.151Q336.222 102.151 336.973 101.675Q337.723 101.198 337.723 100.198Q337.723 99.1721 337.034 98.6777Q336.35 98.1772 334.873 98.1772L330.875 98.1772L330.875 102.151L334.727 102.151ZM355.851 97.4509Q355.851 97.7256 355.802 98.1772L345.047 98.1772Q345.273 99.9229 346.585 100.991Q347.898 102.053 349.851 102.053Q352.225 102.053 353.672 100.448L354.996 101.998Q354.099 103.048 352.762 103.603Q351.426 104.153 349.771 104.153Q347.672 104.153 346.048 103.292Q344.425 102.425 343.534 100.875Q342.649 99.3247 342.649 97.3777Q342.649 95.449 343.509 93.8987Q344.376 92.3484 345.884 91.4878Q347.397 90.6272 349.302 90.6272Q351.2 90.6272 352.683 91.4878Q354.172 92.3484 355.008 93.8987Q355.851 95.449 355.851 97.4509ZM349.302 92.6475Q347.574 92.6475 346.408 93.6973Q345.249 94.7471 345.047 96.45L353.55 96.45Q353.348 94.7776 352.182 93.7156Q351.023 92.6475 349.302 92.6475ZM369.323 92.8489L361.974 92.8489L361.974 104L359.575 104L359.575 90.7493L369.323 90.7493L369.323 92.8489ZM383.176 97.4509Q383.176 97.7256 383.127 98.1772L372.372 98.1772Q372.598 99.9229 373.91 100.991Q375.223 102.053 377.176 102.053Q379.55 102.053 380.997 100.448L382.321 101.998Q381.424 103.048 380.087 103.603Q378.751 104.153 377.096 104.153Q374.997 104.153 373.373 103.292Q371.75 102.425 370.859 100.875Q369.974 99.3247 369.974 97.3777Q369.974 95.449 370.834 93.8987Q371.701 92.3484 373.209 91.4878Q374.722 90.6272 376.626 90.6272Q378.525 90.6272 380.008 91.4878Q381.497 92.3484 382.333 93.8987Q383.176 95.449 383.176 97.4509ZM376.626 92.6475Q374.899 92.6475 373.733 93.6973Q372.574 94.7471 372.372 96.45L380.875 96.45Q380.673 94.7776 379.507 93.7156Q378.348 92.6475 376.626 92.6475ZM396.226 92.8489L391.374 92.8489L391.374 104L388.975 104L388.975 92.8489L384.123 92.8489L384.123 90.7493L396.226 90.7493L396.226 92.8489ZM403.777 104.153Q401.799 104.153 400.224 103.28Q398.65 102.401 397.759 100.863Q396.874 99.3247 396.874 97.3777Q396.874 95.4246 397.759 93.8865Q398.65 92.3484 400.224 91.4878Q401.799 90.6272 403.777 90.6272Q405.748 90.6272 407.311 91.4878Q408.873 92.3484 409.758 93.8865Q410.649 95.4246 410.649 97.3777Q410.649 99.3247 409.758 100.863Q408.873 102.401 407.311 103.28Q405.748 104.153 403.777 104.153ZM403.777 102.053Q405.046 102.053 406.059 101.467Q407.073 100.875 407.646 99.813Q408.226 98.751 408.226 97.3777Q408.226 95.9983 407.646 94.9363Q407.073 93.8743 406.059 93.3005Q405.046 92.7268 403.777 92.7268Q402.501 92.7268 401.488 93.3005Q400.475 93.8743 399.883 94.9363Q399.297 95.9983 399.297 97.3777Q399.297 98.751 399.883 99.813Q400.475 100.875 401.488 101.467Q402.501 102.053 403.777 102.053ZM423.501 92.8489L418.649 92.8489L418.649 104L416.25 104L416.25 92.8489L411.398 92.8489L411.398 90.7493L423.501 90.7493L423.501 92.8489ZM432.976 90.6272Q434.898 90.6272 436.424 91.4756Q437.95 92.324 438.811 93.8499Q439.671 95.3757 439.671 97.3777Q439.671 99.3735 438.811 100.912Q437.95 102.45 436.424 103.304Q434.898 104.153 432.976 104.153Q431.547 104.153 430.357 103.603Q429.173 103.048 428.349 101.998L428.349 108.852L425.95 108.852L425.95 90.7493L428.251 90.7493L428.251 92.8489Q429.051 91.7502 430.272 91.1887Q431.499 90.6272 432.976 90.6272ZM432.774 102.053Q434.05 102.053 435.063 101.467Q436.076 100.875 436.662 99.813Q437.248 98.751 437.248 97.3777Q437.248 95.9983 436.662 94.9363Q436.076 93.8743 435.063 93.3005Q434.05 92.7268 432.774 92.7268Q431.523 92.7268 430.51 93.3127Q429.497 93.8987 428.911 94.9485Q428.325 95.9983 428.325 97.3777Q428.325 98.751 428.898 99.813Q429.472 100.875 430.498 101.467Q431.523 102.053 432.774 102.053ZM448.827 104.153Q446.849 104.153 445.274 103.28Q443.7 102.401 442.809 100.863Q441.924 99.3247 441.924 97.3777Q441.924 95.4246 442.809 93.8865Q443.7 92.3484 445.274 91.4878Q446.849 90.6272 448.827 90.6272Q450.798 90.6272 452.361 91.4878Q453.923 92.3484 454.808 93.8865Q455.699 95.4246 455.699 97.3777Q455.699 99.3247 454.808 100.863Q453.923 102.401 452.361 103.28Q450.798 104.153 448.827 104.153ZM448.827 102.053Q450.096 102.053 451.109 101.467Q452.123 100.875 452.696 99.813Q453.276 98.751 453.276 97.3777Q453.276 95.9983 452.696 94.9363Q452.123 93.8743 451.109 93.3005Q450.096 92.7268 448.827 92.7268Q447.551 92.7268 446.538 93.3005Q445.525 93.8743 444.933 94.9363Q444.347 95.9983 444.347 97.3777Q444.347 98.751 444.933 99.813Q445.525 100.875 446.538 101.467Q447.551 102.053 448.827 102.053ZM471.45 90.7493L471.45 104L469.051 104L469.051 92.8489L461.574 92.8489L461.574 104L459.175 104L459.175 90.7493L471.45 90.7493ZM476.1 90.7493L478.499 90.7493L478.499 96.3767L486.049 96.3767L486.049 90.7493L488.448 90.7493L488.448 104L486.049 104L486.049 98.4519L478.499 98.4519L478.499 104L476.1 104L476.1 90.7493ZM497.85 90.6272Q500.602 90.6272 502.061 91.9761Q503.526 93.325 503.526 95.9983L503.526 104L501.249 104L501.249 102.248Q500.651 103.176 499.534 103.664Q498.423 104.153 496.904 104.153Q494.676 104.153 493.339 103.078Q492.002 101.998 492.002 100.252Q492.002 98.5007 493.278 97.4387Q494.554 96.3767 497.325 96.3767L501.127 96.3767L501.127 95.9006Q501.127 94.3503 500.224 93.5264Q499.327 92.7024 497.575 92.7024Q496.403 92.7024 495.274 93.093Q494.151 93.4775 493.376 94.1245L492.375 92.324Q493.4 91.5 494.822 91.0667Q496.25 90.6272 497.85 90.6272ZM497.3 102.297Q498.674 102.297 499.674 101.687Q500.675 101.076 501.127 99.9473L501.127 98.0979L497.428 98.0979Q494.377 98.0979 494.377 100.149Q494.377 101.15 495.152 101.723Q495.927 102.297 497.3 102.297ZM508.4 100.722Q509.102 100.722 509.559 101.211Q510.023 101.699 510.023 102.425Q510.023 102.798 509.938 103.152Q509.852 103.5 509.602 104.226L508.424 107.699L506.849 107.699L507.777 103.976Q507.301 103.799 507.014 103.39Q506.727 102.975 506.727 102.425Q506.727 101.675 507.197 101.198Q507.673 100.722 508.4 100.722ZM532.525 90.7493L532.525 104L530.126 104L530.126 92.8489L522.649 92.8489L522.649 104L520.25 104L520.25 90.7493L532.525 90.7493ZM544.201 90.6272Q546.123 90.6272 547.649 91.4756Q549.175 92.324 550.036 93.8499Q550.896 95.3757 550.896 97.3777Q550.896 99.3735 550.036 100.912Q549.175 102.45 547.649 103.304Q546.123 104.153 544.201 104.153Q542.772 104.153 541.582 103.603Q540.398 103.048 539.574 101.998L539.574 108.852L537.175 108.852L537.175 90.7493L539.476 90.7493L539.476 92.8489Q540.276 91.7502 541.497 91.1887Q542.724 90.6272 544.201 90.6272ZM543.999 102.053Q545.275 102.053 546.288 101.467Q547.301 100.875 547.887 99.813Q548.473 98.751 548.473 97.3777Q548.473 95.9983 547.887 94.9363Q547.301 93.8743 546.288 93.3005Q545.275 92.7268 543.999 92.7268Q542.748 92.7268 541.735 93.3127Q540.722 93.8987 540.136 94.9485Q539.55 95.9983 539.55 97.3777Q539.55 98.751 540.123 99.813Q540.697 100.875 541.723 101.467Q542.748 102.053 543.999 102.053ZM560.052 104.153Q558.074 104.153 556.499 103.28Q554.925 102.401 554.034 100.863Q553.149 99.3247 553.149 97.3777Q553.149 95.4246 554.034 93.8865Q554.925 92.3484 556.499 91.4878Q558.074 90.6272 560.052 90.6272Q562.023 90.6272 563.586 91.4878Q565.148 92.3484 566.033 93.8865Q566.924 95.4246 566.924 97.3777Q566.924 99.3247 566.033 100.863Q565.148 102.401 563.586 103.28Q562.023 104.153 560.052 104.153ZM560.052 102.053Q561.321 102.053 562.334 101.467Q563.348 100.875 563.921 99.813Q564.501 98.751 564.501 97.3777Q564.501 95.9983 563.921 94.9363Q563.348 93.8743 562.334 93.3005Q561.321 92.7268 560.052 92.7268Q558.776 92.7268 557.763 93.3005Q556.75 93.8743 556.158 94.9363Q555.572 95.9983 555.572 97.3777Q555.572 98.751 556.158 99.813Q556.75 100.875 557.763 101.467Q558.776 102.053 560.052 102.053ZM579.776 92.8489L574.924 92.8489L574.924 104L572.525 104L572.525 92.8489L567.673 92.8489L567.673 90.7493L579.776 90.7493L579.776 92.8489ZM582.225 90.7493L584.624 90.7493L584.624 100.399L592.748 90.7493L594.927 90.7493L594.927 104L592.522 104L592.522 94.3503L584.423 104L582.225 104L582.225 90.7493ZM609.451 92.8489L604.599 92.8489L604.599 104L602.2 104L602.2 92.8489L597.348 92.8489L597.348 90.7493L609.451 90.7493L609.451 92.8489ZM618.926 90.6272Q620.848 90.6272 622.374 91.4756Q623.9 92.324 624.761 93.8499Q625.621 95.3757 625.621 97.3777Q625.621 99.3735 624.761 100.912Q623.9 102.45 622.374 103.304Q620.848 104.153 618.926 104.153Q617.497 104.153 616.307 103.603Q615.123 103.048 614.299 101.998L614.299 108.852L611.9 108.852L611.9 90.7493L614.201 90.7493L614.201 92.8489Q615.001 91.7502 616.222 91.1887Q617.449 90.6272 618.926 90.6272ZM618.724 102.053Q620 102.053 621.013 101.467Q622.026 100.875 622.612 99.813Q623.198 98.751 623.198 97.3777Q623.198 95.9983 622.612 94.9363Q622.026 93.8743 621.013 93.3005Q620 92.7268 618.724 92.7268Q617.473 92.7268 616.46 93.3127Q615.447 93.8987 614.861 94.9485Q614.275 95.9983 614.275 97.3777Q614.275 98.751 614.848 99.813Q615.422 100.875 616.448 101.467Q617.473 102.053 618.724 102.053ZM629.1 90.7493L631.499 90.7493L631.499 100.399L639.623 90.7493L641.802 90.7493L641.802 104L639.397 104L639.397 94.3503L631.298 104L629.1 104L629.1 90.7493ZM655.478 97.1274Q658.047 97.7744 658.047 100.35Q658.047 102.102 656.735 103.054Q655.423 104 652.823 104L646.45 104L646.45 90.7493L652.603 90.7493Q654.953 90.7493 656.277 91.6404Q657.602 92.5254 657.602 94.1489Q657.602 95.1987 657.034 95.9617Q656.472 96.7246 655.478 97.1274ZM648.8 96.45L652.401 96.45Q653.775 96.45 654.489 95.9495Q655.203 95.449 655.203 94.5029Q655.203 92.5986 652.401 92.5986L648.8 92.5986L648.8 96.45ZM652.652 102.151Q654.147 102.151 654.898 101.675Q655.648 101.198 655.648 100.198Q655.648 99.1721 654.959 98.6777Q654.275 98.1772 652.798 98.1772L648.8 98.1772L648.8 102.151L652.652 102.151ZM667.477 104.153Q665.499 104.153 663.924 103.28Q662.35 102.401 661.459 100.863Q660.574 99.3247 660.574 97.3777Q660.574 95.4246 661.459 93.8865Q662.35 92.3484 663.924 91.4878Q665.499 90.6272 667.477 90.6272Q669.448 90.6272 671.011 91.4878Q672.573 92.3484 673.458 93.8865Q674.349 95.4246 674.349 97.3777Q674.349 99.3247 673.458 100.863Q672.573 102.401 671.011 103.28Q669.448 104.153 667.477 104.153ZM667.477 102.053Q668.746 102.053 669.759 101.467Q670.773 100.875 671.346 99.813Q671.926 98.751 671.926 97.3777Q671.926 95.9983 671.346 94.9363Q670.773 93.8743 669.759 93.3005Q668.746 92.7268 667.477 92.7268Q666.201 92.7268 665.188 93.3005Q664.175 93.8743 663.583 94.9363Q662.997 95.9983 662.997 97.3777Q662.997 98.751 663.583 99.813Q664.175 100.875 665.188 101.467Q666.201 102.053 667.477 102.053ZM689.424 98.397L686.848 98.397L686.848 104L684.449 104L684.449 98.397L681.874 98.397L678.224 104L675.374 104L679.927 97.1519L675.728 90.7493L678.273 90.7493L681.849 96.3523L684.449 96.3523L684.449 90.7493L686.848 90.7493L686.848 96.3523L689.448 96.3523L693.025 90.7493L695.601 90.7493L691.401 97.1763L695.948 104L693.098 104L689.424 98.397ZM698.6 90.7493L700.999 90.7493L700.999 96.3767L708.549 96.3767L708.549 90.7493L710.948 90.7493L710.948 104L708.549 104L708.549 98.4519L700.999 98.4519L700.999 104L698.6 104L698.6 90.7493ZM720.35 90.6272Q723.102 90.6272 724.561 91.9761Q726.026 93.325 726.026 95.9983L726.026 104L723.749 104L723.749 102.248Q723.151 103.176 722.034 103.664Q720.923 104.153 719.404 104.153Q717.176 104.153 715.839 103.078Q714.502 101.998 714.502 100.252Q714.502 98.5007 715.778 97.4387Q717.054 96.3767 719.825 96.3767L723.627 96.3767L723.627 95.9006Q723.627 94.3503 722.724 93.5264Q721.827 92.7024 720.075 92.7024Q718.903 92.7024 717.774 93.093Q716.651 93.4775 715.876 94.1245L714.875 92.324Q715.9 91.5 717.322 91.0667Q718.75 90.6272 720.35 90.6272ZM719.8 102.297Q721.174 102.297 722.175 101.687Q723.176 101.076 723.627 99.9473L723.627 98.0979L719.928 98.0979Q716.877 98.0979 716.877 100.149Q716.877 101.15 717.652 101.723Q718.427 102.297 719.8 102.297Z" fill="#000000" fill-opacity="1.000000" fill-rule="evenodd"/>
	<path id="Не викликає седації" d="M188.773 166.501L188.773 184L186.271 184L186.271 176.2L176.225 176.2L176.225 184L173.722 184L173.722 166.501L176.225 166.501L176.225 174.027L186.271 174.027L186.271 166.501L188.773 166.501ZM205.801 177.451Q205.801 177.726 205.752 178.177L194.997 178.177Q195.223 179.923 196.535 180.991Q197.848 182.053 199.801 182.053Q202.175 182.053 203.622 180.448L204.946 181.998Q204.049 183.048 202.712 183.603Q201.375 184.153 199.721 184.153Q197.622 184.153 195.998 183.292Q194.375 182.425 193.484 180.875Q192.599 179.325 192.599 177.378Q192.599 175.449 193.459 173.899Q194.326 172.348 195.833 171.488Q197.347 170.627 199.251 170.627Q201.15 170.627 202.633 171.488Q204.122 172.348 204.958 173.899Q205.801 175.449 205.801 177.451ZM199.251 172.647Q197.524 172.647 196.358 173.697Q195.199 174.747 194.997 176.45L203.5 176.45Q203.298 174.778 202.132 173.716Q200.973 172.647 199.251 172.647ZM225.278 177.127Q227.847 177.774 227.847 180.35Q227.847 182.102 226.535 183.054Q225.223 184 222.623 184L216.25 184L216.25 170.749L222.403 170.749Q224.753 170.749 226.077 171.64Q227.402 172.525 227.402 174.149Q227.402 175.199 226.834 175.962Q226.272 176.725 225.278 177.127ZM218.6 176.45L222.201 176.45Q223.575 176.45 224.289 175.949Q225.003 175.449 225.003 174.503Q225.003 172.599 222.201 172.599L218.6 172.599L218.6 176.45ZM222.452 182.151Q223.947 182.151 224.698 181.675Q225.448 181.198 225.448 180.198Q225.448 179.172 224.759 178.678Q224.075 178.177 222.598 178.177L218.6 178.177L218.6 182.151L222.452 182.151ZM231.6 170.749L233.999 170.749L233.999 180.399L242.123 170.749L244.302 170.749L244.302 184L241.897 184L241.897 174.35L233.798 184L231.6 184L231.6 170.749ZM254.102 178.397L251.349 178.397L251.349 184L248.95 184L248.95 170.749L251.349 170.749L251.349 176.352L254.151 176.352L258.448 170.749L261.023 170.749L256 177.127L261.377 184L258.551 184L254.102 178.397ZM275.277 170.749L275.277 184L272.873 184L272.873 172.849L267.178 172.849L267.025 175.803Q266.897 178.476 266.549 180.265Q266.201 182.053 265.402 183.127Q264.602 184.201 263.174 184.201Q262.527 184.201 261.697 183.976L261.85 181.949Q262.173 182.022 262.448 182.022Q263.449 182.022 263.949 181.15Q264.45 180.277 264.596 179.074Q264.749 177.872 264.877 175.65L265.103 170.749L275.277 170.749ZM279.925 170.749L282.324 170.749L282.324 180.399L290.448 170.749L292.627 170.749L292.627 184L290.222 184L290.222 174.35L282.123 184L279.925 184L279.925 170.749ZM302.427 178.397L299.674 178.397L299.674 184L297.275 184L297.275 170.749L299.674 170.749L299.674 176.352L302.476 176.352L306.773 170.749L309.348 170.749L304.325 177.127L309.702 184L306.876 184L302.427 178.397ZM316.7 170.627Q319.452 170.627 320.911 171.976Q322.376 173.325 322.376 175.998L322.376 184L320.099 184L320.099 182.248Q319.501 183.176 318.384 183.664Q317.273 184.153 315.754 184.153Q313.526 184.153 312.189 183.078Q310.852 181.998 310.852 180.252Q310.852 178.501 312.128 177.439Q313.404 176.377 316.175 176.377L319.977 176.377L319.977 175.901Q319.977 174.35 319.074 173.526Q318.177 172.702 316.425 172.702Q315.253 172.702 314.124 173.093Q313.001 173.478 312.226 174.125L311.225 172.324Q312.25 171.5 313.672 171.067Q315.1 170.627 316.7 170.627ZM316.15 182.297Q317.524 182.297 318.525 181.687Q319.525 181.076 319.977 179.947L319.977 178.098L316.278 178.098Q313.227 178.098 313.227 180.149Q313.227 181.15 314.002 181.723Q314.777 182.297 316.15 182.297ZM332.621 184.146Q330.601 184.146 328.959 183.274Q327.323 182.401 326.395 180.851Q325.474 179.3 325.474 177.372Q325.474 175.425 326.395 173.874Q327.323 172.324 328.959 171.451Q330.601 170.572 332.621 170.572Q334.373 170.572 335.782 171.128Q337.198 171.677 338.175 172.727L336.771 174.125Q335.172 172.55 332.725 172.55Q330.771 172.55 329.398 173.661Q328.025 174.771 327.75 176.572L334.397 176.572L334.397 178.348L327.799 178.348Q328.123 180.075 329.471 181.137Q330.82 182.199 332.725 182.199Q335.148 182.199 336.771 180.6L338.175 181.974Q337.198 183.048 335.77 183.597Q334.348 184.146 332.621 184.146ZM353.624 184.153Q351.598 184.153 350.011 183.28Q348.424 182.401 347.521 180.863Q346.624 179.325 346.624 177.378Q346.624 175.425 347.521 173.886Q348.424 172.348 350.011 171.488Q351.598 170.627 353.624 170.627Q355.425 170.627 356.835 171.354Q358.251 172.074 359.026 173.447L357.201 174.625Q356.572 173.673 355.645 173.203Q354.723 172.727 353.6 172.727Q352.3 172.727 351.262 173.301Q350.225 173.874 349.633 174.936Q349.047 175.998 349.047 177.378Q349.047 178.775 349.633 179.837Q350.225 180.899 351.262 181.479Q352.3 182.053 353.6 182.053Q354.723 182.053 355.645 181.577Q356.572 181.101 357.201 180.149L359.026 181.302Q358.251 182.676 356.835 183.414Q355.425 184.153 353.624 184.153ZM373.901 177.451Q373.901 177.726 373.852 178.177L363.097 178.177Q363.323 179.923 364.635 180.991Q365.948 182.053 367.901 182.053Q370.275 182.053 371.722 180.448L373.046 181.998Q372.149 183.048 370.812 183.603Q369.475 184.153 367.821 184.153Q365.722 184.153 364.098 183.292Q362.475 182.425 361.584 180.875Q360.699 179.325 360.699 177.378Q360.699 175.449 361.559 173.899Q362.426 172.348 363.934 171.488Q365.447 170.627 367.351 170.627Q369.25 170.627 370.733 171.488Q372.222 172.348 373.058 173.899Q373.901 175.449 373.901 177.451ZM367.351 172.647Q365.624 172.647 364.458 173.697Q363.299 174.747 363.097 176.45L371.6 176.45Q371.398 174.778 370.232 173.716Q369.073 172.647 367.351 172.647ZM390.877 181.9L390.877 187.076L388.625 187.076L388.625 184L377.553 184L377.553 187.076L375.276 187.076L375.276 181.9L375.972 181.9Q377.248 181.827 377.724 180.1Q378.2 178.373 378.377 175.223L378.572 170.749L388.851 170.749L388.851 181.9L390.877 181.9ZM380.574 175.4Q380.477 177.903 380.159 179.538Q379.848 181.174 379.024 181.9L386.452 181.9L386.452 172.849L380.702 172.849L380.574 175.4ZM398.725 170.627Q401.477 170.627 402.936 171.976Q404.401 173.325 404.401 175.998L404.401 184L402.124 184L402.124 182.248Q401.526 183.176 400.409 183.664Q399.298 184.153 397.779 184.153Q395.551 184.153 394.214 183.078Q392.877 181.998 392.877 180.252Q392.877 178.501 394.153 177.439Q395.429 176.377 398.2 176.377L402.002 176.377L402.002 175.901Q402.002 174.35 401.099 173.526Q400.202 172.702 398.45 172.702Q397.278 172.702 396.149 173.093Q395.026 173.478 394.251 174.125L393.25 172.324Q394.275 171.5 395.697 171.067Q397.125 170.627 398.725 170.627ZM398.175 182.297Q399.549 182.297 400.55 181.687Q401.551 181.076 402.002 179.947L402.002 178.098L398.303 178.098Q395.252 178.098 395.252 180.149Q395.252 181.15 396.027 181.723Q396.802 182.297 398.175 182.297ZM422.873 181.9L422.873 187.174L420.603 187.174L420.603 184L408.725 184L408.725 170.749L411.124 170.749L411.124 181.9L418.375 181.9L418.375 170.749L420.774 170.749L420.774 181.9L422.873 181.9ZM425.975 170.749L428.374 170.749L428.374 184L425.975 184L425.975 170.749ZM427.172 168.198Q426.476 168.198 426.012 167.752Q425.548 167.301 425.548 166.648Q425.548 166.001 426.012 165.537Q426.476 165.073 427.172 165.073Q427.874 165.073 428.331 165.512Q428.795 165.952 428.795 166.599Q428.795 167.276 428.331 167.74Q427.874 168.198 427.172 168.198ZM433.002 170.749L435.4 170.749L435.4 184L433.002 184L433.002 170.749ZM432.422 168.375Q431.872 168.375 431.525 168.015Q431.177 167.649 431.177 167.124Q431.177 166.574 431.525 166.214Q431.872 165.848 432.422 165.848Q432.947 165.848 433.295 166.214Q433.649 166.574 433.649 167.124Q433.649 167.673 433.295 168.027Q432.947 168.375 432.422 168.375ZM435.974 168.375Q435.449 168.375 435.095 168.015Q434.747 167.649 434.747 167.124Q434.747 166.574 435.095 166.214Q435.449 165.848 435.974 165.848Q436.523 165.848 436.871 166.214Q437.225 166.574 437.225 167.124Q437.225 167.673 436.871 168.027Q436.523 168.375 435.974 168.375Z" fill="#000000" fill-opacity="1.000000" fill-rule="evenodd"/>
	<path id="Високий рівень безпеки" d="M184.623 288.924Q186.399 289.351 187.309 290.438Q188.224 291.524 188.224 293.227Q188.224 295.498 186.558 296.749Q184.898 298 181.724 298L173.722 298L173.722 280.501L181.248 280.501Q184.123 280.501 185.734 281.667Q187.351 282.827 187.351 285Q187.351 286.428 186.637 287.429Q185.923 288.424 184.623 288.924ZM176.2 288.198L181.077 288.198Q182.902 288.198 183.86 287.478Q184.824 286.751 184.824 285.347Q184.824 283.95 183.848 283.211Q182.877 282.473 181.077 282.473L176.2 282.473L176.2 288.198ZM181.675 296.022Q185.697 296.022 185.697 293.026Q185.697 291.524 184.684 290.816Q183.677 290.102 181.675 290.102L176.2 290.102L176.2 296.022L181.675 296.022ZM192 284.749L194.399 284.749L194.399 294.399L202.523 284.749L204.702 284.749L204.702 298L202.297 298L202.297 288.35L194.198 298L192 298L192 284.749ZM215.124 298.153Q213.098 298.153 211.511 297.28Q209.924 296.401 209.021 294.863Q208.124 293.325 208.124 291.378Q208.124 289.425 209.021 287.886Q209.924 286.348 211.511 285.488Q213.098 284.627 215.124 284.627Q216.925 284.627 218.335 285.354Q219.751 286.074 220.526 287.447L218.701 288.625Q218.072 287.673 217.145 287.203Q216.223 286.727 215.1 286.727Q213.8 286.727 212.762 287.301Q211.725 287.874 211.133 288.936Q210.547 289.998 210.547 291.378Q210.547 292.775 211.133 293.837Q211.725 294.899 212.762 295.479Q213.8 296.053 215.1 296.053Q216.223 296.053 217.145 295.577Q218.072 295.101 218.701 294.149L220.526 295.302Q219.751 296.676 218.335 297.414Q216.925 298.153 215.124 298.153ZM229.102 298.153Q227.124 298.153 225.549 297.28Q223.975 296.401 223.084 294.863Q222.199 293.325 222.199 291.378Q222.199 289.425 223.084 287.886Q223.975 286.348 225.549 285.488Q227.124 284.627 229.102 284.627Q231.073 284.627 232.636 285.488Q234.198 286.348 235.083 287.886Q235.974 289.425 235.974 291.378Q235.974 293.325 235.083 294.863Q234.198 296.401 232.636 297.28Q231.073 298.153 229.102 298.153ZM229.102 296.053Q230.371 296.053 231.384 295.467Q232.398 294.875 232.971 293.813Q233.551 292.751 233.551 291.378Q233.551 289.998 232.971 288.936Q232.398 287.874 231.384 287.301Q230.371 286.727 229.102 286.727Q227.826 286.727 226.813 287.301Q225.8 287.874 225.208 288.936Q224.622 289.998 224.622 291.378Q224.622 292.751 225.208 293.813Q225.8 294.875 226.813 295.467Q227.826 296.053 229.102 296.053ZM244.602 292.397L241.849 292.397L241.849 298L239.45 298L239.45 284.749L241.849 284.749L241.849 290.352L244.651 290.352L248.948 284.749L251.523 284.749L246.5 291.127L251.877 298L249.051 298L244.602 292.397ZM254.4 284.749L256.799 284.749L256.799 294.399L264.923 284.749L267.102 284.749L267.102 298L264.697 298L264.697 288.35L256.598 298L254.4 298L254.4 284.749ZM271.75 284.749L274.149 284.749L274.149 294.399L282.273 284.749L284.452 284.749L284.452 298L282.047 298L282.047 288.35L273.948 298L271.75 298L271.75 284.749ZM277.945 283.028Q276.096 283.028 275.071 282.143Q274.051 281.252 274.021 279.573L275.651 279.573Q275.675 280.501 276.285 281.063Q276.896 281.624 277.921 281.624Q278.946 281.624 279.569 281.063Q280.198 280.501 280.222 279.573L281.901 279.573Q281.876 281.252 280.826 282.143Q279.777 283.028 277.945 283.028ZM302.851 284.627Q304.773 284.627 306.299 285.476Q307.825 286.324 308.686 287.85Q309.546 289.376 309.546 291.378Q309.546 293.374 308.686 294.912Q307.825 296.45 306.299 297.304Q304.773 298.153 302.851 298.153Q301.422 298.153 300.232 297.603Q299.048 297.048 298.224 295.998L298.224 302.852L295.825 302.852L295.825 284.749L298.126 284.749L298.126 286.849Q298.926 285.75 300.147 285.189Q301.374 284.627 302.851 284.627ZM302.649 296.053Q303.925 296.053 304.938 295.467Q305.951 294.875 306.537 293.813Q307.123 292.751 307.123 291.378Q307.123 289.998 306.537 288.936Q305.951 287.874 304.938 287.301Q303.925 286.727 302.649 286.727Q301.398 286.727 300.385 287.313Q299.372 287.899 298.786 288.948Q298.2 289.998 298.2 291.378Q298.2 292.751 298.773 293.813Q299.347 294.875 300.373 295.467Q301.398 296.053 302.649 296.053ZM313.025 284.749L315.424 284.749L315.424 298L313.025 298L313.025 284.749ZM314.222 282.198Q313.526 282.198 313.062 281.752Q312.598 281.301 312.598 280.648Q312.598 280.001 313.062 279.537Q313.526 279.073 314.222 279.073Q314.924 279.073 315.381 279.512Q315.845 279.952 315.845 280.599Q315.845 281.276 315.381 281.74Q314.924 282.198 314.222 282.198ZM329.128 291.127Q331.697 291.774 331.697 294.35Q331.697 296.102 330.385 297.054Q329.073 298 326.473 298L320.1 298L320.1 284.749L326.253 284.749Q328.603 284.749 329.927 285.64Q331.252 286.525 331.252 288.149Q331.252 289.199 330.684 289.962Q330.122 290.725 329.128 291.127ZM322.45 290.45L326.051 290.45Q327.425 290.45 328.139 289.949Q328.853 289.449 328.853 288.503Q328.853 286.599 326.051 286.599L322.45 286.599L322.45 290.45ZM326.302 296.151Q327.797 296.151 328.548 295.675Q329.298 295.198 329.298 294.198Q329.298 293.172 328.609 292.678Q327.925 292.177 326.448 292.177L322.45 292.177L322.45 296.151L326.302 296.151ZM347.426 291.451Q347.426 291.726 347.377 292.177L336.622 292.177Q336.848 293.923 338.16 294.991Q339.473 296.053 341.426 296.053Q343.8 296.053 345.247 294.448L346.571 295.998Q345.674 297.048 344.337 297.603Q343 298.153 341.346 298.153Q339.247 298.153 337.623 297.292Q336 296.425 335.109 294.875Q334.224 293.325 334.224 291.378Q334.224 289.449 335.084 287.899Q335.951 286.348 337.458 285.488Q338.972 284.627 340.876 284.627Q342.775 284.627 344.258 285.488Q345.747 286.348 346.583 287.899Q347.426 289.449 347.426 291.451ZM340.876 286.647Q339.149 286.647 337.983 287.697Q336.824 288.747 336.622 290.45L345.125 290.45Q344.923 288.778 343.757 287.716Q342.598 286.647 340.876 286.647ZM351.15 284.749L353.549 284.749L353.549 290.377L361.099 290.377L361.099 284.749L363.498 284.749L363.498 298L361.099 298L361.099 292.452L353.549 292.452L353.549 298L351.15 298L351.15 284.749ZM374.297 289.248Q376.824 289.272 378.149 290.401Q379.473 291.524 379.473 293.575Q379.473 295.723 378.033 296.889Q376.598 298.049 373.925 298.024L368.175 298L368.175 284.749L370.574 284.749L370.574 289.223L374.297 289.248ZM373.724 296.199Q375.347 296.224 376.183 295.552Q377.026 294.875 377.026 293.551Q377.026 292.25 376.214 291.652Q375.402 291.048 373.724 291.024L370.574 290.975L370.574 296.175L373.724 296.199ZM396.026 285.201Q397.875 285.201 399.322 286.025Q400.774 286.849 401.586 288.314Q402.398 289.772 402.398 291.652Q402.398 293.575 401.537 295.064Q400.677 296.547 399.114 297.377Q397.552 298.201 395.55 298.201Q392.175 298.201 390.337 295.888Q388.5 293.575 388.5 289.376Q388.5 285.299 390.173 282.985Q391.851 280.672 395.3 279.927L401.348 278.573L401.702 280.776L396.124 281.972Q393.523 282.552 392.248 283.925Q390.972 285.299 390.801 287.874Q391.65 286.599 392.999 285.903Q394.347 285.201 396.026 285.201ZM395.599 296.199Q396.874 296.199 397.863 295.626Q398.852 295.052 399.401 294.039Q399.951 293.026 399.951 291.726Q399.951 289.748 398.748 288.552Q397.552 287.349 395.599 287.349Q393.652 287.349 392.437 288.552Q391.222 289.748 391.222 291.726Q391.222 293.026 391.784 294.039Q392.352 295.052 393.346 295.626Q394.347 296.199 395.599 296.199ZM417.801 291.451Q417.801 291.726 417.752 292.177L406.997 292.177Q407.223 293.923 408.535 294.991Q409.848 296.053 411.801 296.053Q414.175 296.053 415.622 294.448L416.946 295.998Q416.049 297.048 414.712 297.603Q413.375 298.153 411.721 298.153Q409.622 298.153 407.998 297.292Q406.375 296.425 405.484 294.875Q404.599 293.325 404.599 291.378Q404.599 289.449 405.459 287.899Q406.326 286.348 407.833 285.488Q409.347 284.627 411.251 284.627Q413.15 284.627 414.633 285.488Q416.122 286.348 416.958 287.899Q417.801 289.449 417.801 291.451ZM411.251 286.647Q409.524 286.647 408.358 287.697Q407.199 288.747 406.997 290.45L415.5 290.45Q415.298 288.778 414.132 287.716Q412.973 286.647 411.251 286.647ZM428.397 291.103Q429.728 291.451 430.448 292.226Q431.174 293.001 431.174 294.149Q431.174 295.327 430.375 296.242Q429.575 297.152 428.159 297.664Q426.749 298.177 424.997 298.177Q423.526 298.177 422.11 297.792Q420.701 297.402 419.602 296.676L420.322 294.851Q421.274 295.449 422.501 295.791Q423.728 296.126 424.973 296.126Q426.676 296.126 427.689 295.54Q428.702 294.948 428.702 293.947Q428.702 293.026 427.884 292.525Q427.073 292.025 425.602 292.025L423.172 292.025L423.172 290.297L425.425 290.297Q426.774 290.297 427.549 289.827Q428.324 289.351 428.324 288.527Q428.324 287.624 427.408 287.124Q426.499 286.623 424.949 286.623Q422.977 286.623 420.774 287.648L420.127 285.799Q422.55 284.572 425.199 284.572Q426.798 284.572 428.074 285.024Q429.349 285.476 430.076 286.3Q430.802 287.124 430.802 288.173Q430.802 289.15 430.149 289.925Q429.502 290.7 428.397 291.103ZM447.1 284.749L447.1 298L444.701 298L444.701 286.849L437.224 286.849L437.224 298L434.825 298L434.825 284.749L447.1 284.749ZM463.726 291.451Q463.726 291.726 463.677 292.177L452.922 292.177Q453.148 293.923 454.46 294.991Q455.773 296.053 457.726 296.053Q460.1 296.053 461.547 294.448L462.871 295.998Q461.974 297.048 460.637 297.603Q459.3 298.153 457.646 298.153Q455.547 298.153 453.923 297.292Q452.3 296.425 451.409 294.875Q450.524 293.325 450.524 291.378Q450.524 289.449 451.384 287.899Q452.251 286.348 453.758 285.488Q455.272 284.627 457.176 284.627Q459.075 284.627 460.558 285.488Q462.047 286.348 462.883 287.899Q463.726 289.449 463.726 291.451ZM457.176 286.647Q455.449 286.647 454.283 287.697Q453.124 288.747 452.922 290.45L461.424 290.45Q461.223 288.778 460.057 287.716Q458.898 286.647 457.176 286.647ZM472.602 292.397L469.849 292.397L469.849 298L467.45 298L467.45 284.749L469.849 284.749L469.849 290.352L472.651 290.352L476.948 284.749L479.523 284.749L474.5 291.127L479.877 298L477.051 298L472.602 292.397ZM482.4 284.749L484.799 284.749L484.799 294.399L492.923 284.749L495.102 284.749L495.102 298L492.697 298L492.697 288.35L484.598 298L482.4 298L482.4 284.749Z" fill="#000000" fill-opacity="1.000000" fill-rule="evenodd"/>
	<path id="Сприяє зниженню рівня тривоги з високого до помірного більш ніж у 60% пацієнтів" d="M181.547 401.201Q178.922 401.201 176.811 400.042Q174.699 398.876 173.496 396.837Q172.3 394.799 172.3 392.248Q172.3 389.702 173.496 387.664Q174.699 385.625 176.823 384.466Q178.947 383.3 181.571 383.3Q183.622 383.3 185.319 383.99Q187.022 384.673 188.224 386.028L186.601 387.603Q184.623 385.528 181.675 385.528Q179.722 385.528 178.147 386.4Q176.573 387.273 175.681 388.811Q174.796 390.349 174.796 392.248Q174.796 394.152 175.681 395.69Q176.573 397.228 178.147 398.101Q179.722 398.974 181.675 398.974Q184.599 398.974 186.601 396.874L188.224 398.449Q187.022 399.798 185.307 400.5Q183.598 401.201 181.547 401.201ZM203.55 387.749L203.55 401L201.151 401L201.151 389.849L193.674 389.849L193.674 401L191.275 401L191.275 387.749L203.55 387.749ZM215.226 387.627Q217.148 387.627 218.674 388.476Q220.2 389.324 221.061 390.85Q221.921 392.376 221.921 394.378Q221.921 396.374 221.061 397.912Q220.2 399.45 218.674 400.304Q217.148 401.153 215.226 401.153Q213.797 401.153 212.607 400.603Q211.423 400.048 210.599 398.998L210.599 405.852L208.2 405.852L208.2 387.749L210.501 387.749L210.501 389.849Q211.301 388.75 212.522 388.189Q213.749 387.627 215.226 387.627ZM215.024 399.053Q216.3 399.053 217.313 398.467Q218.326 397.875 218.912 396.813Q219.498 395.751 219.498 394.378Q219.498 392.998 218.912 391.936Q218.326 390.874 217.313 390.301Q216.3 389.727 215.024 389.727Q213.773 389.727 212.76 390.313Q211.747 390.899 211.161 391.948Q210.575 392.998 210.575 394.378Q210.575 395.751 211.148 396.813Q211.722 397.875 212.748 398.467Q213.773 399.053 215.024 399.053ZM225.4 387.749L227.799 387.749L227.799 397.399L235.923 387.749L238.102 387.749L238.102 401L235.697 401L235.697 391.35L227.598 401L225.4 401L225.4 387.749ZM253.377 387.749L253.377 401L251.222 401L251.222 396.801L247.377 396.801L247.102 396.801L244.197 401L241.627 401L244.85 396.477Q243.349 396.026 242.549 394.988Q241.749 393.95 241.749 392.4Q241.749 390.124 243.3 388.939Q244.85 387.749 247.572 387.749L253.377 387.749ZM244.197 392.473Q244.197 393.798 245.033 394.439Q245.875 395.073 247.548 395.073L251.222 395.073L251.222 389.849L247.652 389.849Q244.197 389.849 244.197 392.473ZM263.971 401.146Q261.951 401.146 260.309 400.274Q258.673 399.401 257.745 397.851Q256.824 396.3 256.824 394.372Q256.824 392.425 257.745 390.874Q258.673 389.324 260.309 388.451Q261.951 387.572 263.971 387.572Q265.723 387.572 267.132 388.128Q268.548 388.677 269.525 389.727L268.121 391.125Q266.522 389.55 264.075 389.55Q262.121 389.55 260.748 390.661Q259.375 391.771 259.1 393.572L265.747 393.572L265.747 395.348L259.149 395.348Q259.473 397.075 260.821 398.137Q262.17 399.199 264.075 399.199Q266.498 399.199 268.121 397.6L269.525 398.974Q268.548 400.048 267.12 400.597Q265.698 401.146 263.971 401.146ZM286.372 394.103Q287.703 394.451 288.423 395.226Q289.149 396.001 289.149 397.149Q289.149 398.327 288.35 399.242Q287.55 400.152 286.134 400.664Q284.724 401.177 282.972 401.177Q281.501 401.177 280.085 400.792Q278.676 400.402 277.577 399.676L278.297 397.851Q279.249 398.449 280.476 398.791Q281.703 399.126 282.948 399.126Q284.651 399.126 285.664 398.54Q286.677 397.948 286.677 396.947Q286.677 396.026 285.859 395.525Q285.048 395.025 283.577 395.025L281.147 395.025L281.147 393.297L283.4 393.297Q284.749 393.297 285.524 392.827Q286.299 392.351 286.299 391.527Q286.299 390.624 285.383 390.124Q284.474 389.623 282.924 389.623Q280.952 389.623 278.749 390.648L278.102 388.799Q280.525 387.572 283.174 387.572Q284.773 387.572 286.049 388.024Q287.324 388.476 288.051 389.3Q288.777 390.124 288.777 391.173Q288.777 392.15 288.124 392.925Q287.477 393.7 286.372 394.103ZM292.8 387.749L295.199 387.749L295.199 393.377L302.749 393.377L302.749 387.749L305.148 387.749L305.148 401L302.749 401L302.749 395.452L295.199 395.452L295.199 401L292.8 401L292.8 387.749ZM309.825 387.749L312.224 387.749L312.224 397.399L320.348 387.749L322.527 387.749L322.527 401L320.122 401L320.122 391.35L312.023 401L309.825 401L309.825 387.749ZM339.224 395.397L336.648 395.397L336.648 401L334.249 401L334.249 395.397L331.674 395.397L328.024 401L325.173 401L329.727 394.152L325.527 387.749L328.073 387.749L331.649 393.352L334.249 393.352L334.249 387.749L336.648 387.749L336.648 393.352L339.248 393.352L342.825 387.749L345.401 387.749L341.201 394.176L345.748 401L342.898 401L339.224 395.397ZM359.926 394.451Q359.926 394.726 359.877 395.177L349.122 395.177Q349.348 396.923 350.66 397.991Q351.973 399.053 353.926 399.053Q356.3 399.053 357.747 397.448L359.071 398.998Q358.174 400.048 356.837 400.603Q355.5 401.153 353.846 401.153Q351.747 401.153 350.123 400.292Q348.5 399.425 347.609 397.875Q346.724 396.325 346.724 394.378Q346.724 392.449 347.584 390.899Q348.451 389.348 349.958 388.488Q351.472 387.627 353.376 387.627Q355.275 387.627 356.758 388.488Q358.247 389.348 359.083 390.899Q359.926 392.449 359.926 394.451ZM353.376 389.647Q351.649 389.647 350.483 390.697Q349.324 391.747 349.122 393.45L357.625 393.45Q357.423 391.778 356.257 390.716Q355.098 389.647 353.376 389.647ZM363.65 387.749L366.049 387.749L366.049 393.377L373.599 393.377L373.599 387.749L375.998 387.749L375.998 401L373.599 401L373.599 395.452L366.049 395.452L366.049 401L363.65 401L363.65 387.749ZM380.675 387.749L383.074 387.749L383.074 393.377L390.624 393.377L390.624 387.749L393.023 387.749L393.023 401L390.624 401L390.624 395.452L383.074 395.452L383.074 401L380.675 401L380.675 387.749ZM409.425 387.627Q411.348 387.627 412.874 388.488Q414.4 389.348 415.272 390.886Q416.151 392.425 416.151 394.378Q416.151 396.325 415.272 397.863Q414.4 399.401 412.874 400.28Q411.348 401.153 409.425 401.153Q407.674 401.153 406.245 400.426Q404.823 399.7 403.908 398.388Q402.998 397.075 402.772 395.397L400.099 395.397L400.099 401L397.7 401L397.7 387.749L400.099 387.749L400.099 393.175L402.803 393.175Q403.047 391.527 403.957 390.264Q404.872 389 406.282 388.317Q407.698 387.627 409.425 387.627ZM409.425 399.053Q410.652 399.053 411.635 398.479Q412.624 397.899 413.197 396.837Q413.777 395.775 413.777 394.378Q413.777 392.998 413.197 391.936Q412.624 390.874 411.635 390.301Q410.652 389.727 409.425 389.727Q408.198 389.727 407.198 390.301Q406.203 390.874 405.635 391.936Q405.073 392.998 405.073 394.378Q405.073 395.775 405.635 396.837Q406.203 397.899 407.198 398.479Q408.198 399.053 409.425 399.053ZM433.351 387.627Q435.273 387.627 436.799 388.476Q438.325 389.324 439.186 390.85Q440.046 392.376 440.046 394.378Q440.046 396.374 439.186 397.912Q438.325 399.45 436.799 400.304Q435.273 401.153 433.351 401.153Q431.922 401.153 430.732 400.603Q429.548 400.048 428.724 398.998L428.724 405.852L426.325 405.852L426.325 387.749L428.626 387.749L428.626 389.849Q429.426 388.75 430.647 388.189Q431.874 387.627 433.351 387.627ZM433.149 399.053Q434.425 399.053 435.438 398.467Q436.451 397.875 437.037 396.813Q437.623 395.751 437.623 394.378Q437.623 392.998 437.037 391.936Q436.451 390.874 435.438 390.301Q434.425 389.727 433.149 389.727Q431.898 389.727 430.885 390.313Q429.872 390.899 429.286 391.948Q428.7 392.998 428.7 394.378Q428.7 395.751 429.273 396.813Q429.847 397.875 430.873 398.467Q431.898 399.053 433.149 399.053ZM443.525 387.749L445.924 387.749L445.924 401L443.525 401L443.525 387.749ZM444.722 385.198Q444.026 385.198 443.562 384.752Q443.098 384.301 443.098 383.648Q443.098 383.001 443.562 382.537Q444.026 382.073 444.722 382.073Q445.424 382.073 445.881 382.512Q446.345 382.952 446.345 383.599Q446.345 384.276 445.881 384.74Q445.424 385.198 444.722 385.198ZM459.628 394.127Q462.197 394.774 462.197 397.35Q462.197 399.102 460.885 400.054Q459.573 401 456.973 401L450.6 401L450.6 387.749L456.753 387.749Q459.103 387.749 460.427 388.64Q461.752 389.525 461.752 391.149Q461.752 392.199 461.184 392.962Q460.622 393.725 459.628 394.127ZM452.95 393.45L456.551 393.45Q457.925 393.45 458.639 392.949Q459.353 392.449 459.353 391.503Q459.353 389.599 456.551 389.599L452.95 389.599L452.95 393.45ZM456.802 399.151Q458.297 399.151 459.048 398.675Q459.798 398.198 459.798 397.198Q459.798 396.172 459.109 395.678Q458.425 395.177 456.948 395.177L452.95 395.177L452.95 399.151L456.802 399.151ZM465.95 387.749L468.349 387.749L468.349 393.377L475.899 393.377L475.899 387.749L478.298 387.749L478.298 401L475.899 401L475.899 395.452L468.349 395.452L468.349 401L465.95 401L465.95 387.749ZM493.602 387.749L493.602 401L491.447 401L491.447 396.801L487.602 396.801L487.327 396.801L484.422 401L481.852 401L485.075 396.477Q483.574 396.026 482.774 394.988Q481.974 393.95 481.974 392.4Q481.974 390.124 483.525 388.939Q485.075 387.749 487.797 387.749L493.602 387.749ZM484.422 392.473Q484.422 393.798 485.258 394.439Q486.1 395.073 487.773 395.073L491.447 395.073L491.447 389.849L487.877 389.849Q484.422 389.849 484.422 392.473ZM514.876 389.849L510.024 389.849L510.024 401L507.625 401L507.625 389.849L502.773 389.849L502.773 387.749L514.876 387.749L514.876 389.849ZM524.351 387.627Q526.273 387.627 527.799 388.476Q529.325 389.324 530.186 390.85Q531.046 392.376 531.046 394.378Q531.046 396.374 530.186 397.912Q529.325 399.45 527.799 400.304Q526.273 401.153 524.351 401.153Q522.922 401.153 521.732 400.603Q520.548 400.048 519.724 398.998L519.724 405.852L517.325 405.852L517.325 387.749L519.626 387.749L519.626 389.849Q520.426 388.75 521.647 388.189Q522.874 387.627 524.351 387.627ZM524.149 399.053Q525.425 399.053 526.438 398.467Q527.451 397.875 528.037 396.813Q528.623 395.751 528.623 394.378Q528.623 392.998 528.037 391.936Q527.451 390.874 526.438 390.301Q525.425 389.727 524.149 389.727Q522.898 389.727 521.885 390.313Q520.872 390.899 520.286 391.948Q519.7 392.998 519.7 394.378Q519.7 395.751 520.273 396.813Q520.847 397.875 521.873 398.467Q522.898 399.053 524.149 399.053ZM534.525 387.749L536.924 387.749L536.924 397.399L545.048 387.749L547.227 387.749L547.227 401L544.822 401L544.822 391.35L536.723 401L534.525 401L534.525 387.749ZM560.903 394.127Q563.472 394.774 563.472 397.35Q563.472 399.102 562.16 400.054Q560.848 401 558.248 401L551.875 401L551.875 387.749L558.028 387.749Q560.378 387.749 561.702 388.64Q563.027 389.525 563.027 391.149Q563.027 392.199 562.459 392.962Q561.897 393.725 560.903 394.127ZM554.225 393.45L557.826 393.45Q559.2 393.45 559.914 392.949Q560.628 392.449 560.628 391.503Q560.628 389.599 557.826 389.599L554.225 389.599L554.225 393.45ZM558.077 399.151Q559.572 399.151 560.323 398.675Q561.073 398.198 561.073 397.198Q561.073 396.172 560.384 395.678Q559.7 395.177 558.223 395.177L554.225 395.177L554.225 399.151L558.077 399.151ZM572.902 401.153Q570.924 401.153 569.349 400.28Q567.775 399.401 566.884 397.863Q565.999 396.325 565.999 394.378Q565.999 392.425 566.884 390.886Q567.775 389.348 569.349 388.488Q570.924 387.627 572.902 387.627Q574.873 387.627 576.436 388.488Q577.998 389.348 578.883 390.886Q579.774 392.425 579.774 394.378Q579.774 396.325 578.883 397.863Q577.998 399.401 576.436 400.28Q574.873 401.153 572.902 401.153ZM572.902 399.053Q574.171 399.053 575.184 398.467Q576.198 397.875 576.771 396.813Q577.351 395.751 577.351 394.378Q577.351 392.998 576.771 391.936Q576.198 390.874 575.184 390.301Q574.171 389.727 572.902 389.727Q571.626 389.727 570.613 390.301Q569.6 390.874 569.008 391.936Q568.422 392.998 568.422 394.378Q568.422 395.751 569.008 396.813Q569.6 397.875 570.613 398.467Q571.626 399.053 572.902 399.053ZM592.998 389.849L585.649 389.849L585.649 401L583.25 401L583.25 387.749L592.998 387.749L592.998 389.849ZM595.45 387.749L597.849 387.749L597.849 397.399L605.973 387.749L608.152 387.749L608.152 401L605.747 401L605.747 391.35L597.648 401L595.45 401L595.45 387.749ZM626.697 394.103Q628.028 394.451 628.748 395.226Q629.474 396.001 629.474 397.149Q629.474 398.327 628.675 399.242Q627.875 400.152 626.459 400.664Q625.049 401.177 623.297 401.177Q621.827 401.177 620.411 400.792Q619.001 400.402 617.902 399.676L618.622 397.851Q619.574 398.449 620.801 398.791Q622.028 399.126 623.273 399.126Q624.976 399.126 625.989 398.54Q627.002 397.948 627.002 396.947Q627.002 396.026 626.184 395.525Q625.373 395.025 623.902 395.025L621.473 395.025L621.473 393.297L623.725 393.297Q625.074 393.297 625.849 392.827Q626.624 392.351 626.624 391.527Q626.624 390.624 625.708 390.124Q624.799 389.623 623.249 389.623Q621.277 389.623 619.074 390.648L618.427 388.799Q620.85 387.572 623.499 387.572Q625.098 387.572 626.374 388.024Q627.649 388.476 628.376 389.3Q629.102 390.124 629.102 391.173Q629.102 392.15 628.449 392.925Q627.802 393.7 626.697 394.103ZM648.878 394.127Q651.447 394.774 651.447 397.35Q651.447 399.102 650.135 400.054Q648.823 401 646.223 401L639.85 401L639.85 387.749L646.003 387.749Q648.353 387.749 649.677 388.64Q651.002 389.525 651.002 391.149Q651.002 392.199 650.434 392.962Q649.872 393.725 648.878 394.127ZM642.2 393.45L645.801 393.45Q647.175 393.45 647.889 392.949Q648.603 392.449 648.603 391.503Q648.603 389.599 645.801 389.599L642.2 389.599L642.2 393.45ZM646.052 399.151Q647.547 399.151 648.298 398.675Q649.048 398.198 649.048 397.198Q649.048 396.172 648.359 395.678Q647.675 395.177 646.198 395.177L642.2 395.177L642.2 399.151L646.052 399.151ZM655.201 387.749L657.599 387.749L657.599 397.399L665.723 387.749L667.902 387.749L667.902 401L665.497 401L665.497 391.35L657.398 401L655.201 401L655.201 387.749ZM678.324 401.153Q676.298 401.153 674.711 400.28Q673.124 399.401 672.221 397.863Q671.324 396.325 671.324 394.378Q671.324 392.425 672.221 390.886Q673.124 389.348 674.711 388.488Q676.298 387.627 678.324 387.627Q680.125 387.627 681.535 388.354Q682.951 389.074 683.726 390.447L681.901 391.625Q681.272 390.673 680.345 390.203Q679.423 389.727 678.3 389.727Q677 389.727 675.962 390.301Q674.925 390.874 674.333 391.936Q673.747 392.998 673.747 394.378Q673.747 395.775 674.333 396.837Q674.925 397.899 675.962 398.479Q677 399.053 678.3 399.053Q679.423 399.053 680.345 398.577Q681.272 398.101 681.901 397.149L683.726 398.302Q682.951 399.676 681.535 400.414Q680.125 401.153 678.324 401.153ZM692.302 401.153Q690.324 401.153 688.75 400.28Q687.175 399.401 686.284 397.863Q685.399 396.325 685.399 394.378Q685.399 392.425 686.284 390.886Q687.175 389.348 688.75 388.488Q690.324 387.627 692.302 387.627Q694.273 387.627 695.836 388.488Q697.398 389.348 698.283 390.886Q699.174 392.425 699.174 394.378Q699.174 396.325 698.283 397.863Q697.398 399.401 695.836 400.28Q694.273 401.153 692.302 401.153ZM692.302 399.053Q693.571 399.053 694.584 398.467Q695.598 397.875 696.171 396.813Q696.751 395.751 696.751 394.378Q696.751 392.998 696.171 391.936Q695.598 390.874 694.584 390.301Q693.571 389.727 692.302 389.727Q691.026 389.727 690.013 390.301Q689 390.874 688.408 391.936Q687.822 392.998 687.822 394.378Q687.822 395.751 688.408 396.813Q689 397.875 690.013 398.467Q691.026 399.053 692.302 399.053ZM707.802 395.397L705.049 395.397L705.049 401L702.651 401L702.651 387.749L705.049 387.749L705.049 393.352L707.851 393.352L712.148 387.749L714.723 387.749L709.7 394.127L715.077 401L712.251 401L707.802 395.397ZM722.827 401.153Q720.849 401.153 719.275 400.28Q717.7 399.401 716.809 397.863Q715.924 396.325 715.924 394.378Q715.924 392.425 716.809 390.886Q717.7 389.348 719.275 388.488Q720.849 387.627 722.827 387.627Q724.798 387.627 726.361 388.488Q727.923 389.348 728.808 390.886Q729.699 392.425 729.699 394.378Q729.699 396.325 728.808 397.863Q727.923 399.401 726.361 400.28Q724.798 401.153 722.827 401.153ZM722.827 399.053Q724.096 399.053 725.109 398.467Q726.123 397.875 726.696 396.813Q727.276 395.751 727.276 394.378Q727.276 392.998 726.696 391.936Q726.123 390.874 725.109 390.301Q724.096 389.727 722.827 389.727Q721.551 389.727 720.538 390.301Q719.525 390.874 718.933 391.936Q718.347 392.998 718.347 394.378Q718.347 395.751 718.933 396.813Q719.525 397.875 720.538 398.467Q721.551 399.053 722.827 399.053ZM742.923 389.849L735.574 389.849L735.574 401L733.176 401L733.176 387.749L742.923 387.749L742.923 389.849ZM750.477 401.153Q748.499 401.153 746.925 400.28Q745.35 399.401 744.459 397.863Q743.574 396.325 743.574 394.378Q743.574 392.425 744.459 390.886Q745.35 389.348 746.925 388.488Q748.499 387.627 750.477 387.627Q752.448 387.627 754.011 388.488Q755.573 389.348 756.458 390.886Q757.349 392.425 757.349 394.378Q757.349 396.325 756.458 397.863Q755.573 399.401 754.011 400.28Q752.448 401.153 750.477 401.153ZM750.477 399.053Q751.746 399.053 752.76 398.467Q753.773 397.875 754.346 396.813Q754.926 395.751 754.926 394.378Q754.926 392.998 754.346 391.936Q753.773 390.874 752.76 390.301Q751.746 389.727 750.477 389.727Q749.201 389.727 748.188 390.301Q747.175 390.874 746.583 391.936Q745.997 392.998 745.997 394.378Q745.997 395.751 746.583 396.813Q747.175 397.875 748.188 398.467Q749.201 399.053 750.477 399.053ZM186.802 433.9L186.802 439.076L184.55 439.076L184.55 436L173.478 436L173.478 439.076L171.201 439.076L171.201 433.9L171.897 433.9Q173.173 433.827 173.649 432.1Q174.125 430.373 174.302 427.223L174.497 422.749L184.776 422.749L184.776 433.9L186.802 433.9ZM176.499 427.4Q176.402 429.903 176.084 431.538Q175.773 433.174 174.949 433.9L182.377 433.9L182.377 424.849L176.627 424.849L176.499 427.4ZM195.602 436.153Q193.624 436.153 192.049 435.28Q190.475 434.401 189.584 432.863Q188.699 431.325 188.699 429.378Q188.699 427.425 189.584 425.886Q190.475 424.348 192.049 423.488Q193.624 422.627 195.602 422.627Q197.573 422.627 199.136 423.488Q200.698 424.348 201.583 425.886Q202.474 427.425 202.474 429.378Q202.474 431.325 201.583 432.863Q200.698 434.401 199.136 435.28Q197.573 436.153 195.602 436.153ZM195.602 434.053Q196.871 434.053 197.884 433.467Q198.898 432.875 199.471 431.813Q200.051 430.751 200.051 429.378Q200.051 427.998 199.471 426.936Q198.898 425.874 197.884 425.301Q196.871 424.727 195.602 424.727Q194.326 424.727 193.313 425.301Q192.3 425.874 191.708 426.936Q191.122 427.998 191.122 429.378Q191.122 430.751 191.708 431.813Q192.3 432.875 193.313 433.467Q194.326 434.053 195.602 434.053ZM224.95 422.749L224.95 436L222.551 436L222.551 424.849L215.074 424.849L215.074 436L212.675 436L212.675 422.749L224.95 422.749ZM235.277 436.153Q233.299 436.153 231.724 435.28Q230.15 434.401 229.259 432.863Q228.374 431.325 228.374 429.378Q228.374 427.425 229.259 425.886Q230.15 424.348 231.724 423.488Q233.299 422.627 235.277 422.627Q237.248 422.627 238.811 423.488Q240.373 424.348 241.258 425.886Q242.149 427.425 242.149 429.378Q242.149 431.325 241.258 432.863Q240.373 434.401 238.811 435.28Q237.248 436.153 235.277 436.153ZM235.277 434.053Q236.546 434.053 237.559 433.467Q238.573 432.875 239.146 431.813Q239.726 430.751 239.726 429.378Q239.726 427.998 239.146 426.936Q238.573 425.874 237.559 425.301Q236.546 424.727 235.277 424.727Q234.001 424.727 232.988 425.301Q231.975 425.874 231.383 426.936Q230.797 427.998 230.797 429.378Q230.797 430.751 231.383 431.813Q231.975 432.875 232.988 433.467Q234.001 434.053 235.277 434.053ZM260.903 422.749L260.903 436L258.724 436L258.724 426.326L253.774 434.499L252.724 434.499L247.823 426.302L247.823 436L245.625 436L245.625 422.749L248.097 422.749L253.298 431.697L258.65 422.749L260.903 422.749ZM265.575 422.749L267.974 422.749L267.974 436L265.575 436L265.575 422.749ZM266.772 420.198Q266.076 420.198 265.612 419.752Q265.148 419.301 265.148 418.648Q265.148 418.001 265.612 417.537Q266.076 417.073 266.772 417.073Q267.474 417.073 267.931 417.512Q268.395 417.952 268.395 418.599Q268.395 419.276 267.931 419.74Q267.474 420.198 266.772 420.198ZM279.676 422.627Q281.598 422.627 283.124 423.476Q284.65 424.324 285.511 425.85Q286.371 427.376 286.371 429.378Q286.371 431.374 285.511 432.912Q284.65 434.45 283.124 435.304Q281.598 436.153 279.676 436.153Q278.247 436.153 277.057 435.603Q275.873 435.048 275.049 433.998L275.049 440.852L272.65 440.852L272.65 422.749L274.951 422.749L274.951 424.849Q275.751 423.75 276.972 423.189Q278.199 422.627 279.676 422.627ZM279.474 434.053Q280.75 434.053 281.763 433.467Q282.776 432.875 283.362 431.813Q283.948 430.751 283.948 429.378Q283.948 427.998 283.362 426.936Q282.776 425.874 281.763 425.301Q280.75 424.727 279.474 424.727Q278.223 424.727 277.21 425.313Q276.197 425.899 275.611 426.948Q275.025 427.998 275.025 429.378Q275.025 430.751 275.598 431.813Q276.172 432.875 277.198 433.467Q278.223 434.053 279.474 434.053ZM289.85 422.749L292.249 422.749L292.249 428.377L299.799 428.377L299.799 422.749L302.198 422.749L302.198 436L299.799 436L299.799 430.452L292.249 430.452L292.249 436L289.85 436L289.85 422.749ZM312.552 436.153Q310.574 436.153 308.999 435.28Q307.425 434.401 306.534 432.863Q305.649 431.325 305.649 429.378Q305.649 427.425 306.534 425.886Q307.425 424.348 308.999 423.488Q310.574 422.627 312.552 422.627Q314.523 422.627 316.086 423.488Q317.648 424.348 318.533 425.886Q319.424 427.425 319.424 429.378Q319.424 431.325 318.533 432.863Q317.648 434.401 316.086 435.28Q314.523 436.153 312.552 436.153ZM312.552 434.053Q313.821 434.053 314.834 433.467Q315.848 432.875 316.421 431.813Q317.001 430.751 317.001 429.378Q317.001 427.998 316.421 426.936Q315.848 425.874 314.834 425.301Q313.821 424.727 312.552 424.727Q311.276 424.727 310.263 425.301Q309.25 425.874 308.658 426.936Q308.072 427.998 308.072 429.378Q308.072 430.751 308.658 431.813Q309.25 432.875 310.263 433.467Q311.276 434.053 312.552 434.053ZM332.648 424.849L325.299 424.849L325.299 436L322.9 436L322.9 422.749L332.648 422.749L332.648 424.849ZM340.202 436.153Q338.224 436.153 336.649 435.28Q335.075 434.401 334.184 432.863Q333.299 431.325 333.299 429.378Q333.299 427.425 334.184 425.886Q335.075 424.348 336.649 423.488Q338.224 422.627 340.202 422.627Q342.173 422.627 343.736 423.488Q345.298 424.348 346.183 425.886Q347.074 427.425 347.074 429.378Q347.074 431.325 346.183 432.863Q345.298 434.401 343.736 435.28Q342.173 436.153 340.202 436.153ZM340.202 434.053Q341.471 434.053 342.484 433.467Q343.498 432.875 344.071 431.813Q344.651 430.751 344.651 429.378Q344.651 427.998 344.071 426.936Q343.498 425.874 342.484 425.301Q341.471 424.727 340.202 424.727Q338.926 424.727 337.913 425.301Q336.9 425.874 336.308 426.936Q335.722 427.998 335.722 429.378Q335.722 430.751 336.308 431.813Q336.9 432.875 337.913 433.467Q338.926 434.053 340.202 434.053ZM364.026 423.201Q365.875 423.201 367.322 424.025Q368.774 424.849 369.586 426.314Q370.398 427.772 370.398 429.652Q370.398 431.575 369.537 433.064Q368.677 434.547 367.114 435.377Q365.552 436.201 363.55 436.201Q360.175 436.201 358.337 433.888Q356.5 431.575 356.5 427.376Q356.5 423.299 358.173 420.985Q359.851 418.672 363.3 417.927L369.348 416.573L369.702 418.776L364.124 419.972Q361.523 420.552 360.248 421.925Q358.972 423.299 358.801 425.874Q359.65 424.599 360.999 423.903Q362.347 423.201 364.026 423.201ZM363.599 434.199Q364.874 434.199 365.863 433.626Q366.852 433.052 367.401 432.039Q367.95 431.026 367.95 429.726Q367.95 427.748 366.748 426.552Q365.552 425.349 363.599 425.349Q361.652 425.349 360.437 426.552Q359.222 427.748 359.222 429.726Q359.222 431.026 359.784 432.039Q360.352 433.052 361.346 433.626Q362.347 434.199 363.599 434.199ZM373.825 422.749L376.224 422.749L376.224 436L373.825 436L373.825 422.749ZM375.022 420.198Q374.326 420.198 373.862 419.752Q373.398 419.301 373.398 418.648Q373.398 418.001 373.862 417.537Q374.326 417.073 375.022 417.073Q375.724 417.073 376.181 417.512Q376.645 417.952 376.645 418.599Q376.645 419.276 376.181 419.74Q375.724 420.198 375.022 420.198ZM392.277 422.749L392.277 436L389.873 436L389.873 424.849L384.178 424.849L384.025 427.803Q383.897 430.476 383.549 432.265Q383.201 434.053 382.402 435.127Q381.602 436.201 380.174 436.201Q379.527 436.201 378.697 435.976L378.85 433.949Q379.173 434.022 379.448 434.022Q380.449 434.022 380.949 433.15Q381.45 432.277 381.596 431.074Q381.749 429.872 381.877 427.65L382.103 422.749L392.277 422.749ZM403.047 427.248Q405.574 427.272 406.899 428.401Q408.223 429.524 408.223 431.575Q408.223 433.723 406.783 434.889Q405.348 436.049 402.675 436.024L396.925 436L396.925 422.749L399.324 422.749L399.324 427.223L403.047 427.248ZM402.474 434.199Q404.097 434.224 404.933 433.552Q405.776 432.875 405.776 431.551Q405.776 430.25 404.964 429.652Q404.152 429.048 402.474 429.024L399.324 428.975L399.324 434.175L402.474 434.199ZM430.172 422.749L430.172 436L411.3 436L411.3 422.749L413.699 422.749L413.699 433.9L419.552 433.9L419.552 422.749L421.951 422.749L421.951 433.9L427.774 433.9L427.774 422.749L430.172 422.749ZM441.55 422.749L443.949 422.749L443.949 428.377L451.499 428.377L451.499 422.749L453.898 422.749L453.898 436L451.499 436L451.499 430.452L443.949 430.452L443.949 436L441.55 436L441.55 422.749ZM458.575 422.749L460.974 422.749L460.974 436L458.575 436L458.575 422.749ZM459.772 420.198Q459.076 420.198 458.612 419.752Q458.148 419.301 458.148 418.648Q458.148 418.001 458.612 417.537Q459.076 417.073 459.772 417.073Q460.474 417.073 460.931 417.512Q461.395 417.952 461.395 418.599Q461.395 419.276 460.931 419.74Q460.474 420.198 459.772 420.198ZM477.699 430.397L475.123 430.397L475.123 436L472.724 436L472.724 430.397L470.149 430.397L466.499 436L463.648 436L468.202 429.152L464.002 422.749L466.548 422.749L470.124 428.352L472.724 428.352L472.724 422.749L475.123 422.749L475.123 428.352L477.723 428.352L481.3 422.749L483.876 422.749L479.676 429.176L484.223 436L481.373 436L477.699 430.397ZM505.429 422.749L499.002 437.324Q498.154 439.351 497.012 440.175Q495.877 440.999 494.278 440.999Q493.301 440.999 492.386 440.688Q491.476 440.376 490.878 439.772L491.904 437.978Q492.929 438.948 494.278 438.948Q495.151 438.948 495.737 438.484Q496.329 438.026 496.805 436.897L497.226 435.976L491.379 422.749L493.875 422.749L498.502 433.351L503.079 422.749L505.429 422.749ZM521.027 425.374Q522.749 425.374 524.11 426.027Q525.477 426.674 526.252 427.888Q527.027 429.103 527.027 430.678Q527.027 432.326 526.209 433.577Q525.398 434.822 523.988 435.512Q522.578 436.201 520.826 436.201Q517.298 436.201 515.388 433.925Q513.477 431.648 513.477 427.473Q513.477 424.55 514.515 422.487Q515.553 420.424 517.414 419.362Q519.276 418.3 521.748 418.3Q523.023 418.3 524.146 418.562Q525.276 418.825 526.099 419.325L525.147 421.272Q523.902 420.448 521.803 420.448Q519.074 420.448 517.524 422.139Q515.974 423.823 515.974 427.052Q515.974 427.449 515.998 427.675Q516.749 426.552 518.061 425.966Q519.373 425.374 521.027 425.374ZM520.722 434.175Q522.45 434.175 523.524 433.253Q524.598 432.326 524.598 430.775Q524.598 429.225 523.512 428.316Q522.425 427.4 520.6 427.4Q519.422 427.4 518.507 427.852Q517.597 428.297 517.085 429.073Q516.578 429.848 516.578 430.8Q516.578 431.728 517.06 432.49Q517.548 433.247 518.482 433.711Q519.422 434.175 520.722 434.175ZM536.05 436.201Q533.974 436.201 532.363 435.139Q530.752 434.077 529.824 432.051Q528.902 430.025 528.902 427.248Q528.902 424.477 529.824 422.45Q530.752 420.424 532.363 419.362Q533.974 418.3 536.05 418.3Q538.1 418.3 539.712 419.362Q541.323 420.424 542.245 422.45Q543.172 424.477 543.172 427.248Q543.172 430.025 542.245 432.051Q541.323 434.077 539.712 435.139Q538.1 436.201 536.05 436.201ZM536.05 433.974Q538.149 433.974 539.413 432.252Q540.676 430.525 540.676 427.248Q540.676 423.976 539.413 422.255Q538.149 420.528 536.05 420.528Q533.926 420.528 532.662 422.255Q531.399 423.976 531.399 427.248Q531.399 430.525 532.662 432.252Q533.926 433.974 536.05 433.974ZM549.374 427.901Q547.549 427.901 546.426 426.576Q545.303 425.252 545.303 423.128Q545.303 420.998 546.426 419.673Q547.549 418.349 549.374 418.349Q551.199 418.349 552.31 419.661Q553.427 420.973 553.427 423.128Q553.427 425.276 552.31 426.588Q551.199 427.901 549.374 427.901ZM559.927 418.501L561.849 418.501L549.899 436L547.976 436L559.927 418.501ZM549.374 426.472Q550.527 426.472 551.174 425.587Q551.827 424.702 551.827 423.128Q551.827 421.553 551.174 420.668Q550.527 419.777 549.374 419.777Q548.251 419.777 547.585 420.68Q546.926 421.577 546.926 423.128Q546.926 424.678 547.585 425.575Q548.251 426.472 549.374 426.472ZM560.452 436.153Q558.627 436.153 557.51 434.84Q556.399 433.522 556.399 431.374Q556.399 429.225 557.51 427.913Q558.627 426.601 560.452 426.601Q562.277 426.601 563.4 427.925Q564.523 429.25 564.523 431.374Q564.523 433.498 563.4 434.828Q562.277 436.153 560.452 436.153ZM560.452 434.724Q561.575 434.724 562.234 433.827Q562.899 432.924 562.899 431.374Q562.899 429.823 562.234 428.926Q561.575 428.023 560.452 428.023Q559.298 428.023 558.645 428.914Q557.998 429.799 557.998 431.374Q557.998 432.948 558.645 433.839Q559.298 434.724 560.452 434.724ZM586.775 422.749L586.775 436L584.376 436L584.376 424.849L576.899 424.849L576.899 436L574.5 436L574.5 422.749L586.775 422.749ZM596.15 422.627Q598.902 422.627 600.361 423.976Q601.826 425.325 601.826 427.998L601.826 436L599.549 436L599.549 434.248Q598.951 435.176 597.834 435.664Q596.723 436.153 595.203 436.153Q592.976 436.153 591.639 435.078Q590.302 433.998 590.302 432.252Q590.302 430.501 591.578 429.439Q592.854 428.377 595.625 428.377L599.427 428.377L599.427 427.901Q599.427 426.35 598.524 425.526Q597.627 424.702 595.875 424.702Q594.703 424.702 593.574 425.093Q592.451 425.478 591.676 426.125L590.675 424.324Q591.7 423.5 593.122 423.067Q594.55 422.627 596.15 422.627ZM595.6 434.297Q596.974 434.297 597.974 433.687Q598.975 433.076 599.427 431.947L599.427 430.098L595.728 430.098Q592.677 430.098 592.677 432.149Q592.677 433.15 593.452 433.723Q594.227 434.297 595.6 434.297ZM620.298 433.9L620.298 439.174L618.028 439.174L618.028 436L606.15 436L606.15 422.749L608.549 422.749L608.549 433.9L615.8 433.9L615.8 422.749L618.199 422.749L618.199 433.9L620.298 433.9ZM623.4 422.749L625.799 422.749L625.799 436L623.4 436L623.4 422.749ZM624.597 420.198Q623.901 420.198 623.437 419.752Q622.973 419.301 622.973 418.648Q622.973 418.001 623.437 417.537Q623.901 417.073 624.597 417.073Q625.299 417.073 625.756 417.512Q626.22 417.952 626.22 418.599Q626.22 419.276 625.756 419.74Q625.299 420.198 624.597 420.198ZM636.396 436.146Q634.376 436.146 632.734 435.274Q631.098 434.401 630.17 432.851Q629.249 431.3 629.249 429.372Q629.249 427.425 630.17 425.874Q631.098 424.324 632.734 423.451Q634.376 422.572 636.396 422.572Q638.148 422.572 639.557 423.128Q640.974 423.677 641.95 424.727L640.546 426.125Q638.947 424.55 636.5 424.55Q634.547 424.55 633.173 425.661Q631.8 426.771 631.525 428.572L638.172 428.572L638.172 430.348L631.574 430.348Q631.898 432.075 633.246 433.137Q634.595 434.199 636.5 434.199Q638.923 434.199 640.546 432.6L641.95 433.974Q640.974 435.048 639.545 435.597Q638.123 436.146 636.396 436.146ZM644.9 422.749L647.299 422.749L647.299 428.377L654.849 428.377L654.849 422.749L657.248 422.749L657.248 436L654.849 436L654.849 430.452L647.299 430.452L647.299 436L644.9 436L644.9 422.749ZM671.801 424.849L666.949 424.849L666.949 436L664.55 436L664.55 424.849L659.698 424.849L659.698 422.749L671.801 422.749L671.801 424.849ZM674.25 422.749L676.649 422.749L676.649 436L674.25 436L674.25 422.749ZM675.447 420.198Q674.751 420.198 674.287 419.752Q673.823 419.301 673.823 418.648Q673.823 418.001 674.287 417.537Q674.751 417.073 675.447 417.073Q676.149 417.073 676.606 417.512Q677.07 417.952 677.07 418.599Q677.07 419.276 676.606 419.74Q676.149 420.198 675.447 420.198ZM690.353 429.127Q692.922 429.774 692.922 432.35Q692.922 434.102 691.61 435.054Q690.298 436 687.698 436L681.325 436L681.325 422.749L687.478 422.749Q689.828 422.749 691.152 423.64Q692.477 424.525 692.477 426.149Q692.477 427.199 691.909 427.962Q691.347 428.725 690.353 429.127ZM683.675 428.45L687.276 428.45Q688.65 428.45 689.364 427.949Q690.078 427.449 690.078 426.503Q690.078 424.599 687.276 424.599L683.675 424.599L683.675 428.45ZM687.527 434.151Q689.022 434.151 689.773 433.675Q690.523 433.198 690.523 432.198Q690.523 431.172 689.834 430.678Q689.15 430.177 687.673 430.177L683.675 430.177L683.675 434.151L687.527 434.151Z" fill="#000000" fill-opacity="1.000000" fill-rule="evenodd"/>
	<ellipse id="Ellipse 19" cx="114.000000" cy="412.414062" rx="46.000000" ry="46.414413" fill="url(#paint_linear_76_3757_0)" fill-opacity="1.000000"/>
	<path id="Vector" d="M129.928 423.188L145.055 401.036L148.82 401.036L133.693 423.188L129.928 423.188ZM131.858 412.999C130.782 412.999 129.833 412.756 129.01 412.271C128.187 411.765 127.533 411.058 127.048 410.15C126.583 409.223 126.352 408.136 126.352 406.891C126.352 405.646 126.583 404.57 127.048 403.663C127.533 402.756 128.187 402.049 129.01 401.543C129.833 401.036 130.782 400.783 131.858 400.783C132.934 400.783 133.883 401.036 134.706 401.543C135.529 402.049 136.172 402.756 136.637 403.663C137.101 404.57 137.333 405.646 137.333 406.891C137.333 408.136 137.101 409.223 136.637 410.15C136.172 411.058 135.529 411.765 134.706 412.271C133.883 412.756 132.934 412.999 131.858 412.999ZM131.858 410.403C132.554 410.403 133.113 410.119 133.535 409.549C133.957 408.958 134.168 408.072 134.168 406.891C134.168 405.709 133.957 404.834 133.535 404.265C133.113 403.674 132.554 403.378 131.858 403.378C131.183 403.378 130.624 403.674 130.181 404.265C129.759 404.834 129.548 405.709 129.548 406.891C129.548 408.052 129.759 408.927 130.181 409.518C130.624 410.108 131.183 410.403 131.858 410.403ZM146.89 423.441C145.835 423.441 144.886 423.199 144.042 422.714C143.219 422.208 142.576 421.501 142.111 420.594C141.647 419.665 141.415 418.579 141.415 417.334C141.415 416.09 141.647 415.014 142.111 414.106C142.576 413.199 143.219 412.492 144.042 411.986C144.886 411.479 145.835 411.227 146.89 411.227C147.987 411.227 148.947 411.479 149.77 411.986C150.593 412.492 151.236 413.199 151.7 414.106C152.164 415.014 152.396 416.09 152.396 417.334C152.396 418.579 152.164 419.665 151.7 420.594C151.236 421.501 150.593 422.208 149.77 422.714C148.947 423.199 147.987 423.441 146.89 423.441ZM146.89 420.847C147.586 420.847 148.145 420.562 148.567 419.992C148.989 419.401 149.2 418.516 149.2 417.334C149.2 416.174 148.989 415.298 148.567 414.708C148.145 414.117 147.586 413.821 146.89 413.821C146.215 413.821 145.656 414.117 145.213 414.708C144.791 415.277 144.58 416.152 144.58 417.334C144.58 418.516 144.791 419.401 145.213 419.992C145.656 420.562 146.215 420.847 146.89 420.847Z" fill="#FFFFFF" fill-opacity="1.000000" fill-rule="nonzero"/>
	<path id="Vector" d="M114.747 423.568C112.933 423.568 111.308 423.125 109.873 422.239C108.438 421.332 107.31 420.023 106.487 418.314C105.665 416.605 105.253 414.538 105.253 412.112C105.253 409.686 105.665 407.618 106.487 405.909C107.31 404.2 108.438 402.903 109.873 402.017C111.308 401.109 112.933 400.656 114.747 400.656C116.582 400.656 118.207 401.109 119.62 402.017C121.055 402.903 122.184 404.2 123.006 405.909C123.829 407.618 124.241 409.686 124.241 412.112C124.241 414.538 123.829 416.605 123.006 418.314C122.184 420.023 121.055 421.332 119.62 422.239C118.207 423.125 116.582 423.568 114.747 423.568ZM114.747 419.232C115.612 419.232 116.361 418.99 116.994 418.505C117.647 418.02 118.154 417.249 118.513 416.194C118.893 415.14 119.083 413.779 119.083 412.112C119.083 410.445 118.893 409.085 118.513 408.03C118.154 406.975 117.647 406.205 116.994 405.72C116.361 405.234 115.612 404.992 114.747 404.992C113.903 404.992 113.154 405.234 112.5 405.72C111.867 406.205 111.361 406.975 110.981 408.03C110.622 409.085 110.443 410.445 110.443 412.112C110.443 413.779 110.622 415.14 110.981 416.194C111.361 417.249 111.867 418.02 112.5 418.505C113.154 418.99 113.903 419.232 114.747 419.232Z" fill="#FFFFFF" fill-opacity="1.000000" fill-rule="nonzero"/>
	<path id="Vector" d="M95.0083 423.568C92.9829 423.568 91.2212 423.146 89.7231 422.302C88.2466 421.458 87.1074 420.225 86.3057 418.6C85.5039 416.976 85.103 414.971 85.103 412.587C85.103 410.034 85.5776 407.871 86.5273 406.1C87.4976 404.327 88.8267 402.977 90.5146 402.049C92.2236 401.12 94.1855 400.656 96.4009 400.656C97.582 400.656 98.7109 400.783 99.7866 401.036C100.863 401.289 101.791 401.669 102.572 402.175L100.673 405.941C100.061 405.52 99.4072 405.234 98.7109 405.087C98.0146 404.918 97.2866 404.834 96.5273 404.834C94.6074 404.834 93.0884 405.414 91.9702 406.574C90.8521 407.734 90.293 409.454 90.293 411.732C90.293 412.112 90.293 412.534 90.293 412.998C90.314 413.463 90.3774 413.927 90.4829 414.391L89.0586 413.062C89.4595 412.238 89.9766 411.553 90.6094 411.005C91.2422 410.435 91.9912 410.013 92.8564 409.738C93.7427 409.443 94.7129 409.296 95.7676 409.296C97.2026 409.296 98.4893 409.58 99.6284 410.15C100.768 410.72 101.675 411.521 102.35 412.556C103.046 413.589 103.395 414.802 103.395 416.194C103.395 417.692 103.015 419.001 102.255 420.119C101.517 421.216 100.515 422.07 99.249 422.682C98.0039 423.272 96.5908 423.568 95.0083 423.568ZM94.7236 419.739C95.4409 419.739 96.0737 419.612 96.6221 419.359C97.1919 419.085 97.6348 418.694 97.9512 418.188C98.2681 417.682 98.4263 417.102 98.4263 416.447C98.4263 415.435 98.0781 414.634 97.3818 414.043C96.7065 413.431 95.7993 413.125 94.6602 413.125C93.9009 413.125 93.2363 413.272 92.6665 413.568C92.0967 413.842 91.6431 414.232 91.3057 414.739C90.9893 415.224 90.8311 415.794 90.8311 416.447C90.8311 417.081 90.9893 417.65 91.3057 418.156C91.6221 418.642 92.0654 419.032 92.6348 419.327C93.2046 419.602 93.9009 419.739 94.7236 419.739Z" fill="#FFFFFF" fill-opacity="1.000000" fill-rule="nonzero"/>
	<ellipse id="Ellipse 18" cx="114.000000" cy="298.414062" rx="46.000000" ry="46.414413" fill="url(#paint_linear_76_3756_0)" fill-opacity="1.000000"/>
	<path id="Vector" d="M114.415 289.667C109.506 289.667 105.513 293.66 105.513 298.568C105.513 303.477 109.506 307.47 114.415 307.47C119.323 307.47 123.316 303.477 123.316 298.568C123.316 293.66 119.323 289.667 114.415 289.667ZM119.699 296.892L113.322 303.269C113.055 303.537 112.704 303.671 112.353 303.671C112.002 303.671 111.651 303.537 111.384 303.269L108.947 300.832C108.411 300.297 108.411 299.429 108.947 298.894C109.481 298.358 110.35 298.358 110.885 298.894L112.353 300.361L117.761 294.954C118.296 294.418 119.164 294.418 119.699 294.954C120.235 295.488 120.235 296.356 119.699 296.892Z" fill="#FFFFFF" fill-opacity="1.000000" fill-rule="evenodd"/>
	<path id="Vector" d="M134.26 287.884L134.258 287.848C134.238 287.399 134.225 286.924 134.216 286.396C134.178 283.82 132.13 281.689 129.554 281.545C124.183 281.245 120.027 279.494 116.477 276.033L116.447 276.004C115.289 274.942 113.542 274.942 112.383 276.004L112.353 276.033C108.802 279.494 104.647 281.245 99.2754 281.546C96.6997 281.689 94.6514 283.82 94.6133 286.396C94.6055 286.921 94.5918 287.396 94.5713 287.848L94.5693 287.933C94.4648 293.409 94.335 300.227 96.6152 306.414C97.8696 309.816 99.7686 312.774 102.26 315.205C105.097 317.975 108.813 320.172 113.305 321.738C113.451 321.789 113.603 321.831 113.758 321.862C113.976 321.905 114.195 321.927 114.415 321.927C114.634 321.927 114.854 321.905 115.072 321.862C115.227 321.831 115.38 321.789 115.526 321.738C120.013 320.169 123.726 317.97 126.56 315.201C129.05 312.77 130.949 309.811 132.204 306.407C134.493 300.201 134.364 293.372 134.26 287.884ZM114.414 310.211C107.994 310.211 102.771 304.988 102.771 298.568C102.771 292.148 107.994 286.925 114.414 286.925C120.834 286.925 126.057 292.148 126.057 298.568C126.057 304.988 120.834 310.211 114.414 310.211Z" fill="#FFFFFF" fill-opacity="1.000000" fill-rule="evenodd"/>
	<ellipse id="Ellipse 17" cx="114.000000" cy="184.414062" rx="46.000000" ry="46.414413" fill="url(#paint_linear_76_3755_0)" fill-opacity="1.000000"/>
	<path id="Vector" d="M134.09 170.488C131.312 167.764 127.625 166.214 123.724 166.214C120.358 166.214 117.045 167.336 114.427 169.474C108.068 164.344 98.7705 165.306 93.6406 171.664C89.8472 176.366 89.3125 182.992 92.3052 188.229L99.4653 188.229L106.893 175.351L111.755 190.099L117.205 180.427L121.8 188.282L126.182 188.282C127.09 188.282 127.785 188.977 127.785 189.885C127.785 190.793 127.09 191.488 126.182 191.488L119.984 191.488L117.259 186.893L110.954 197.953L106.038 183.152L101.282 191.435L94.7627 191.435L114.427 211.099L134.197 191.328C139.915 185.557 139.861 176.206 134.09 170.488Z" fill="#FFFFFF" fill-opacity="1.000000" fill-rule="evenodd"/>
	<ellipse id="Ellipse 16" cx="114.000000" cy="77.414062" rx="46.000000" ry="46.414413" fill="url(#paint_linear_76_3716_0)" fill-opacity="1.000000"/>
	<path id="Vector" d="M113.472 88.0176C111.613 88.0176 109.924 87.0889 108.938 85.5957C107.98 86.3281 106.798 86.75 105.559 86.75C104.319 86.75 103.165 86.3281 102.235 85.624C102.151 84.6943 102.095 81.1465 105.896 78.3867C105.896 78.3584 105.925 78.3301 105.953 78.3301C106.46 77.7949 106.516 77.2041 106.544 76.7246C106.572 76.3311 106.601 75.9648 106.882 75.627C107.333 75.0352 108.262 74.4434 109.276 74.3877C110.064 74.3311 110.769 74.6123 111.36 75.2041C111.585 75.4297 111.923 75.4297 112.148 75.2041C112.374 75.0068 112.374 74.6406 112.148 74.416C111.332 73.5986 110.318 73.2051 109.22 73.2607C108.009 73.3174 106.741 73.9648 106.009 74.9229C105.502 75.542 105.446 76.1621 105.418 76.6406C105.39 77.0068 105.361 77.2314 105.249 77.4004L103.812 75.8232C103.7 75.542 103.277 74.3594 104.179 73.458C105.108 72.5283 106.122 70.4443 105.474 68.6992C105.39 68.4736 105.277 68.2197 105.08 67.9668C107.896 66.5586 108.685 60.8418 108.854 58.7578C109.839 57.2646 111.529 56.3076 113.416 56.3076C115.556 56.3076 117.415 57.5186 118.316 59.3486C118.147 59.7148 117.978 60.1943 117.894 60.6445C117.189 60.6162 115.979 60.7295 115.049 61.5459C114.401 62.1367 113.979 63.0098 113.838 64.1084C112.881 64.1367 110.966 64.418 109.529 66.2207C109.332 66.4736 109.36 66.8115 109.614 67.0088C109.727 67.0938 109.839 67.1494 109.952 67.1494C110.121 67.1494 110.29 67.0654 110.402 66.9248C111.529 65.5166 113.021 65.2627 113.81 65.2354C113.81 65.4043 113.81 65.5732 113.838 65.7422C113.866 66.0234 114.092 66.249 114.401 66.249L114.43 66.249C114.739 66.2207 114.964 65.9385 114.964 65.6289C114.937 65.3193 114.908 65.0098 114.937 64.7275C114.937 64.7275 114.937 64.7002 114.937 64.6719C114.964 63.6299 115.274 62.8691 115.81 62.3906C116.767 61.5459 118.259 61.7988 118.259 61.7988C118.429 61.8555 118.598 61.7988 118.738 61.6865C118.851 61.6016 118.936 61.4326 118.936 61.2637C118.936 60.7295 119.358 59.6592 119.64 59.0957C120.512 58.5605 121.498 58.251 122.54 58.251C125.019 58.251 127.102 59.9121 127.778 62.1367C127.75 62.1934 127.75 62.25 127.75 62.334C127.666 64.165 126.426 65.207 125.215 66.1924C123.723 67.4316 122.033 68.8398 123.92 71.6836C124.117 71.9941 124.427 72.5566 124.258 72.8672C124.033 73.3174 123.047 73.458 122.625 73.458C122.287 73.458 122.062 73.7119 122.062 74.0215C122.062 74.3311 122.287 74.585 122.625 74.585C122.822 74.585 124.652 74.5566 125.244 73.4014C125.61 72.7539 125.469 71.9658 124.849 71.0361C123.526 69.0645 124.427 68.3047 125.948 67.0654C127.018 66.1641 128.341 65.0938 128.736 63.292C129.158 63.207 129.609 63.1514 130.031 63.1514C133.044 63.1514 135.495 65.5732 135.495 68.5859C135.495 68.9238 135.466 69.2617 135.41 69.5723C137.269 70.501 138.452 72.3594 138.452 74.4434C138.452 75.8232 137.944 77.0908 137.043 78.1045C137.1 78.4424 137.128 78.7803 137.128 79.1182C137.128 80.583 136.564 81.9629 135.551 82.9766C134.509 84.0186 133.157 84.582 131.693 84.582C130.087 84.582 128.595 83.8779 127.581 82.7236C126.99 84.1318 125.807 85.2012 124.371 85.708C124.371 85.1455 124.342 84.3281 124.314 83.9629C124.202 81.9629 124.061 79.2314 125.215 78.3584C125.779 77.9639 126.708 77.9922 127.947 78.4424C129.271 78.9492 130.397 78.415 130.932 77.0068C131.805 74.7539 131.073 70.6143 129.243 69.8535C128.933 69.7412 128.623 69.8818 128.51 70.1914C128.37 70.4727 128.51 70.8105 128.82 70.9238C129.834 71.3174 130.623 74.6689 129.89 76.584C129.468 77.6543 128.848 77.5693 128.341 77.4004C126.708 76.7812 125.441 76.8096 124.568 77.457C122.878 78.6963 123.047 81.6533 123.188 84.0469C123.216 84.4131 123.244 85.4268 123.272 85.9619C123.047 85.9902 122.822 86.0186 122.596 86.0186C121.076 86.0186 119.64 85.3701 118.625 84.3008C117.894 86.4688 115.837 88.0176 113.472 88.0176ZM98.9126 81.1465C98.8843 81.1465 98.856 81.1465 98.8281 81.1182C98.5181 81.0898 98.293 80.7803 98.3491 80.4707C98.5181 79.5977 98.2646 78.9492 97.645 78.4707C97.2227 78.1895 96.772 78.0762 96.6313 78.0488C95.2793 78.0205 94.3501 77.6543 93.8149 76.9219C93.083 75.9365 93.4771 74.6973 93.5054 74.6406C93.6182 74.3594 93.9277 74.1904 94.2095 74.2744C94.519 74.3877 94.6602 74.6973 94.5757 75.0068C94.5757 75.0068 94.3501 75.7393 94.7163 76.2744C95.1104 76.8096 96.0117 76.9219 96.6875 76.9219L96.8003 76.9219C96.8286 76.9219 97.5889 77.0625 98.293 77.5693C98.9971 78.0762 99.7573 79.0059 99.4756 80.668C99.4194 80.9492 99.1938 81.1465 98.9126 81.1465ZM101.081 84.4131C100.771 83.9629 100.518 83.4551 100.349 82.9209C99.7573 83.1455 99.0815 83.2588 98.4336 83.2861C95.4204 83.2861 92.9702 80.8369 92.9702 77.8232C92.9702 77.7109 92.9702 77.626 92.9985 77.5137C91.3652 76.5273 90.3794 74.7812 90.3794 72.8672C90.3794 71.0928 91.2524 69.4307 92.6885 68.417C92.6323 68.0791 92.604 67.7695 92.604 67.4316C92.604 66.1641 93.0264 65.0098 93.7588 64.0801C94.125 64.249 96.5752 65.6289 96.5752 67.7412C96.5752 68.502 96.4058 69.2061 96.2651 69.8535C95.9272 71.3457 95.561 72.8945 97.7861 73.9932C97.8423 74.0215 97.9551 74.0498 98.0396 74.0498C98.2363 74.0498 98.4336 73.9365 98.5181 73.7393C98.6592 73.458 98.5464 73.1201 98.2646 72.9795C96.8564 72.2754 97.0254 71.5996 97.3633 70.1064C97.5327 69.4307 97.7017 68.6426 97.7017 67.7412C97.7017 65.3193 95.5049 63.7705 94.5757 63.2354C95.5049 62.4473 96.7441 61.9678 98.0396 61.9678C98.4897 61.9678 98.9126 62.0244 99.335 62.1094C99.8979 59.7148 102.066 57.9688 104.629 57.9688C105.728 57.9688 106.826 58.3066 107.699 58.9268C107.474 61.0107 106.629 66.5586 104.15 67.1221C103.475 66.7275 102.517 66.3896 101.166 66.2773C100.855 66.2773 100.602 66.502 100.574 66.8115C100.546 67.1221 100.771 67.375 101.081 67.4033C102.348 67.5156 103.981 67.8818 104.432 69.0928C104.883 70.3037 104.094 71.9375 103.39 72.6416C101.785 74.2471 102.799 76.3027 102.827 76.3867C102.855 76.4434 102.883 76.5 102.911 76.5273L104.376 78.1328C101.841 80.3291 101.193 82.7793 101.081 84.4131ZM115.303 83.3428C114.993 83.3428 114.768 83.1172 114.739 82.8359C114.57 81.0059 114.993 79.6533 115.979 78.7803C117.471 77.4004 119.724 77.7949 119.836 77.7949C120.118 77.8516 120.343 78.1611 120.287 78.4707C120.231 78.7803 119.921 78.9775 119.611 78.9219C119.583 78.9219 117.809 78.6113 116.71 79.5977C116.035 80.2451 115.725 81.2871 115.866 82.752C115.894 83.0615 115.641 83.3145 115.331 83.3428L115.303 83.3428ZM111.782 84.1035C111.36 84.1035 110.966 83.9629 110.543 83.709C110.036 83.3428 109.727 82.9482 109.473 82.582C109.022 81.9346 108.628 81.3994 106.798 81.1182C106.488 81.0898 106.291 80.8086 106.319 80.499C106.375 80.1885 106.657 79.9639 106.967 80.0195C109.276 80.3574 109.867 81.1748 110.402 81.9062C110.627 82.2441 110.825 82.5264 111.191 82.752C111.951 83.2861 112.486 82.667 112.627 82.4697C112.796 82.2168 113.134 82.1602 113.388 82.3291C113.641 82.498 113.726 82.8359 113.557 83.0898C113.528 83.1455 113.247 83.54 112.74 83.8213C112.43 84.0186 112.12 84.1035 111.782 84.1035Z" fill="#FFFFFF" fill-opacity="1.000000" fill-rule="evenodd"/>
	<path id="Vector" d="M123.864 92.1572C120.681 92.1572 119.217 89.9316 117.752 87.5381C118.231 87.1162 118.654 86.6094 119.02 86.0742C120.062 86.75 121.301 87.1445 122.596 87.1445C123.779 87.1162 123.582 87.1719 124.765 86.75C126.004 86.3271 127.074 85.5107 127.862 84.4688C128.961 85.2568 130.256 85.6797 131.636 85.708C130.876 89.3125 127.693 92.0439 123.892 92.1289C123.892 92.1572 123.892 92.1572 123.864 92.1572Z" fill="#FFFFFF" fill-opacity="1.000000" fill-rule="evenodd"/>
	<path id="Vector" d="M124.765 98.7754C124.737 98.7754 124.708 98.7754 124.68 98.7754C124.371 98.7471 124.173 98.4658 124.202 98.1562C124.624 94.8047 123.356 91.8193 123.356 91.791C123.244 91.5098 123.356 91.2002 123.667 91.0596C123.948 90.9463 124.258 91.0596 124.398 91.3691C124.455 91.4814 125.779 94.6357 125.328 98.2969C125.271 98.5781 125.046 98.7754 124.765 98.7754Z" fill="#FFFFFF" fill-opacity="1.000000" fill-rule="evenodd"/>
</svg>
