<svg width="657.688477" height="215.079102" viewBox="0 0 657.688 215.079" fill="none" xmlns="http://www.w3.org/2000/svg" >
	<desc>
			Created with Pixso.
	</desc>
	<defs>
		<filter id="filter_76_3805_dd" x="0.000000" y="11.379883" width="83.399902" height="83.400391" filterUnits="userSpaceOnUse" color-interpolation-filters="sRGB">
			<feFlood flood-opacity="0" result="BackgroundImageFix"/>
			<feColorMatrix in="SourceAlpha" type="matrix" values="0 0 0 0 0 0 0 0 0 0 0 0 0 0 0 0 0 0 127 0" result="hardAlpha"/>
			<feOffset dx="2" dy="9"/>
			<feGaussianBlur stdDeviation="3.56667"/>
			<feComposite in2="hardAlpha" operator="out" k2="-1" k3="1"/>
			<feColorMatrix type="matrix" values="0 0 0 0 0 0 0 0 0 0 0 0 0 0 0 0 0 0 0.25 0"/>
			<feBlend mode="normal" in2="BackgroundImageFix" result="effect_dropShadow_1"/>
			<feBlend mode="normal" in="SourceGraphic" in2="effect_dropShadow_1" result="shape"/>
		</filter>
		<filter id="filter_76_3828_dd" x="177.000000" y="11.379883" width="83.399902" height="83.400391" filterUnits="userSpaceOnUse" color-interpolation-filters="sRGB">
			<feFlood flood-opacity="0" result="BackgroundImageFix"/>
			<feColorMatrix in="SourceAlpha" type="matrix" values="0 0 0 0 0 0 0 0 0 0 0 0 0 0 0 0 0 0 127 0" result="hardAlpha"/>
			<feOffset dx="2" dy="9"/>
			<feGaussianBlur stdDeviation="3.56667"/>
			<feComposite in2="hardAlpha" operator="out" k2="-1" k3="1"/>
			<feColorMatrix type="matrix" values="0 0 0 0 0 0 0 0 0 0 0 0 0 0 0 0 0 0 0.25 0"/>
			<feBlend mode="normal" in2="BackgroundImageFix" result="effect_dropShadow_1"/>
			<feBlend mode="normal" in="SourceGraphic" in2="effect_dropShadow_1" result="shape"/>
		</filter>
		<filter id="filter_76_3837_dd" x="352.000000" y="11.379883" width="83.400391" height="83.400391" filterUnits="userSpaceOnUse" color-interpolation-filters="sRGB">
			<feFlood flood-opacity="0" result="BackgroundImageFix"/>
			<feColorMatrix in="SourceAlpha" type="matrix" values="0 0 0 0 0 0 0 0 0 0 0 0 0 0 0 0 0 0 127 0" result="hardAlpha"/>
			<feOffset dx="2" dy="9"/>
			<feGaussianBlur stdDeviation="3.56667"/>
			<feComposite in2="hardAlpha" operator="out" k2="-1" k3="1"/>
			<feColorMatrix type="matrix" values="0 0 0 0 0 0 0 0 0 0 0 0 0 0 0 0 0 0 0.25 0"/>
			<feBlend mode="normal" in2="BackgroundImageFix" result="effect_dropShadow_1"/>
			<feBlend mode="normal" in="SourceGraphic" in2="effect_dropShadow_1" result="shape"/>
		</filter>
	</defs>
	<path id="Ранок" d="M18.6461 102.581Q22.0458 102.581 23.9928 104.205Q25.9459 105.828 25.9459 108.679Q25.9459 111.529 23.9928 113.159Q22.0458 114.782 18.6461 114.782L14.3248 114.782L14.3248 120.08L11.8224 120.08L11.8224 102.581L18.6461 102.581ZM18.5729 112.603Q20.9471 112.603 22.1983 111.596Q23.4496 110.583 23.4496 108.679Q23.4496 106.781 22.1983 105.767Q20.9471 104.754 18.5729 104.754L14.3248 104.754L14.3248 112.603L18.5729 112.603ZM33.6248 106.707Q36.3774 106.707 37.8362 108.056Q39.301 109.405 39.301 112.078L39.301 120.08L37.0244 120.08L37.0244 118.328Q36.4263 119.256 35.3093 119.744Q34.1985 120.233 32.6787 120.233Q30.4509 120.233 29.1143 119.158Q27.7776 118.078 27.7776 116.333Q27.7776 114.581 29.0532 113.519Q30.3289 112.457 33.0999 112.457L36.9023 112.457L36.9023 111.981Q36.9023 110.43 35.999 109.606Q35.1018 108.782 33.3501 108.782Q32.1782 108.782 31.0491 109.173Q29.926 109.558 29.1509 110.205L28.1499 108.404Q29.1753 107.58 30.5974 107.147Q32.0256 106.707 33.6248 106.707ZM33.0754 118.377Q34.4487 118.377 35.4497 117.767Q36.4507 117.156 36.9023 116.027L36.9023 114.178L33.2036 114.178Q30.1519 114.178 30.1519 116.229Q30.1519 117.23 30.927 117.803Q31.7022 118.377 33.0754 118.377ZM43.6256 106.829L46.0243 106.829L46.0243 112.457L53.5744 112.457L53.5744 106.829L55.973 106.829L55.973 120.08L53.5744 120.08L53.5744 114.532L46.0243 114.532L46.0243 120.08L43.6256 120.08L43.6256 106.829ZM66.3269 120.233Q64.3494 120.233 62.7747 119.36Q61.2 118.481 60.3088 116.943Q59.4238 115.405 59.4238 113.458Q59.4238 111.505 60.3088 109.967Q61.2 108.428 62.7747 107.568Q64.3494 106.707 66.3269 106.707Q68.2983 106.707 69.8608 107.568Q71.4233 108.428 72.3083 109.967Q73.1995 111.505 73.1995 113.458Q73.1995 115.405 72.3083 116.943Q71.4233 118.481 69.8608 119.36Q68.2983 120.233 66.3269 120.233ZM66.3269 118.133Q67.5964 118.133 68.6096 117.547Q69.6228 116.955 70.1965 115.893Q70.7764 114.831 70.7764 113.458Q70.7764 112.078 70.1965 111.016Q69.6228 109.954 68.6096 109.381Q67.5964 108.807 66.3269 108.807Q65.0513 108.807 64.0381 109.381Q63.0249 109.954 62.4329 111.016Q61.8469 112.078 61.8469 113.458Q61.8469 114.831 62.4329 115.893Q63.0249 116.955 64.0381 117.547Q65.0513 118.133 66.3269 118.133ZM81.827 114.477L79.0743 114.477L79.0743 120.08L76.6756 120.08L76.6756 106.829L79.0743 106.829L79.0743 112.432L81.8758 112.432L86.1727 106.829L88.7484 106.829L83.7252 113.208L89.1024 120.08L86.2765 120.08L81.827 114.477Z" fill="#000000" fill-opacity="1.000000" fill-rule="evenodd"/>
	<path id="День" d="M228.147 117.907L228.147 123.907L225.828 123.907L225.828 120.08L211.424 120.08L211.399 123.907L209.074 123.907L209.098 117.907L209.953 117.907Q211.601 117.803 212.272 115.295Q212.949 112.78 213.102 108.203L213.273 102.581L225.578 102.581L225.578 117.907L228.147 117.907ZM215.299 108.428Q215.177 112.127 214.713 114.556Q214.249 116.979 213.224 117.907L223.1 117.907L223.1 104.754L215.427 104.754L215.299 108.428ZM242.851 113.531Q242.851 113.806 242.802 114.257L232.048 114.257Q232.273 116.003 233.586 117.071Q234.898 118.133 236.851 118.133Q239.225 118.133 240.672 116.528L241.996 118.078Q241.099 119.128 239.762 119.683Q238.426 120.233 236.772 120.233Q234.672 120.233 233.048 119.372Q231.425 118.505 230.534 116.955Q229.649 115.405 229.649 113.458Q229.649 111.529 230.509 109.979Q231.376 108.428 232.884 107.568Q234.397 106.707 236.302 106.707Q238.2 106.707 239.683 107.568Q241.172 108.428 242.008 109.979Q242.851 111.529 242.851 113.531ZM236.302 108.728Q234.574 108.728 233.409 109.777Q232.249 110.827 232.048 112.53L240.55 112.53Q240.348 110.858 239.183 109.796Q238.023 108.728 236.302 108.728ZM246.576 106.829L248.974 106.829L248.974 112.457L256.524 112.457L256.524 106.829L258.923 106.829L258.923 120.08L256.524 120.08L256.524 114.532L248.974 114.532L248.974 120.08L246.576 120.08L246.576 106.829ZM269.722 111.328Q272.249 111.352 273.574 112.481Q274.898 113.604 274.898 115.655Q274.898 117.803 273.458 118.969Q272.023 120.129 269.35 120.104L263.601 120.08L263.601 106.829L265.999 106.829L265.999 111.303L269.722 111.328ZM269.149 118.28Q270.772 118.304 271.608 117.633Q272.451 116.955 272.451 115.631Q272.451 114.331 271.639 113.732Q270.827 113.128 269.149 113.104L265.999 113.055L265.999 118.255L269.149 118.28Z" fill="#000000" fill-opacity="1.000000" fill-rule="evenodd"/>
	<path id="Вечір" d="M386.386 111.004Q388.162 111.431 389.071 112.518Q389.987 113.604 389.987 115.307Q389.987 117.578 388.321 118.829Q386.66 120.08 383.487 120.08L375.485 120.08L375.485 102.581L383.01 102.581Q385.885 102.581 387.497 103.747Q389.114 104.907 389.114 107.08Q389.114 108.508 388.4 109.509Q387.686 110.504 386.386 111.004ZM377.963 110.278L382.84 110.278Q384.665 110.278 385.623 109.558Q386.587 108.831 386.587 107.427Q386.587 106.03 385.611 105.291Q384.64 104.553 382.84 104.553L377.963 104.553L377.963 110.278ZM383.438 118.103Q387.46 118.103 387.46 115.106Q387.46 113.604 386.447 112.896Q385.44 112.182 383.438 112.182L377.963 112.182L377.963 118.103L383.438 118.103ZM405.738 113.531Q405.738 113.806 405.689 114.257L394.935 114.257Q395.161 116.003 396.473 117.071Q397.785 118.133 399.738 118.133Q402.113 118.133 403.559 116.528L404.884 118.078Q403.987 119.128 402.65 119.683Q401.313 120.233 399.659 120.233Q397.56 120.233 395.936 119.372Q394.312 118.505 393.421 116.955Q392.536 115.405 392.536 113.458Q392.536 111.529 393.397 109.979Q394.264 108.428 395.771 107.568Q397.285 106.707 399.189 106.707Q401.087 106.707 402.57 107.568Q404.06 108.428 404.896 109.979Q405.738 111.529 405.738 113.531ZM399.189 108.728Q397.462 108.728 396.296 109.777Q395.136 110.827 394.935 112.53L403.437 112.53Q403.236 110.858 402.07 109.796Q400.91 108.728 399.189 108.728ZM420.041 106.829L420.041 120.08L417.636 120.08L417.636 114.727Q415.487 115.728 413.363 115.728Q410.885 115.728 409.536 114.581Q408.188 113.427 408.188 111.132L408.188 106.829L410.586 106.829L410.586 110.98Q410.586 112.353 411.447 113.055Q412.313 113.757 413.864 113.757Q415.615 113.757 417.636 112.878L417.636 106.829L420.041 106.829ZM424.688 106.829L427.087 106.829L427.087 120.08L424.688 120.08L424.688 106.829ZM425.884 104.278Q425.189 104.278 424.725 103.833Q424.261 103.381 424.261 102.728Q424.261 102.081 424.725 101.617Q425.189 101.153 425.884 101.153Q426.586 101.153 427.044 101.593Q427.508 102.032 427.508 102.679Q427.508 103.356 427.044 103.82Q426.586 104.278 425.884 104.278ZM438.788 106.707Q440.711 106.707 442.237 107.556Q443.763 108.404 444.623 109.93Q445.484 111.456 445.484 113.458Q445.484 115.454 444.623 116.992Q443.763 118.53 442.237 119.384Q440.711 120.233 438.788 120.233Q437.36 120.233 436.17 119.683Q434.986 119.128 434.162 118.078L434.162 124.932L431.763 124.932L431.763 106.829L434.064 106.829L434.064 108.929Q434.864 107.83 436.084 107.269Q437.311 106.707 438.788 106.707ZM438.587 118.133Q439.862 118.133 440.876 117.547Q441.889 116.955 442.475 115.893Q443.061 114.831 443.061 113.458Q443.061 112.078 442.475 111.016Q441.889 109.954 440.876 109.381Q439.862 108.807 438.587 108.807Q437.336 108.807 436.322 109.393Q435.309 109.979 434.723 111.029Q434.137 112.078 434.137 113.458Q434.137 114.831 434.711 115.893Q435.285 116.955 436.31 117.547Q437.336 118.133 438.587 118.133Z" fill="#000000" fill-opacity="1.000000" fill-rule="evenodd"/>
	<path id="місяці" d="M587.553 106.829L587.553 120.08L585.374 120.08L585.374 110.406L580.424 118.579L579.374 118.579L574.473 110.382L574.473 120.08L572.276 120.08L572.276 106.829L574.748 106.829L579.948 115.777L585.301 106.829L587.553 106.829ZM592.226 106.829L594.624 106.829L594.624 120.08L592.226 120.08L592.226 106.829ZM593.422 104.278Q592.726 104.278 592.262 103.833Q591.798 103.381 591.798 102.728Q591.798 102.081 592.262 101.617Q592.726 101.153 593.422 101.153Q594.124 101.153 594.582 101.593Q595.045 102.032 595.045 102.679Q595.045 103.356 594.582 103.82Q594.124 104.278 593.422 104.278ZM605.075 120.233Q603.048 120.233 601.461 119.36Q599.874 118.481 598.971 116.943Q598.074 115.405 598.074 113.458Q598.074 111.505 598.971 109.967Q599.874 108.428 601.461 107.568Q603.048 106.707 605.075 106.707Q606.875 106.707 608.285 107.434Q609.701 108.154 610.476 109.527L608.651 110.705Q608.023 109.753 607.095 109.283Q606.173 108.807 605.05 108.807Q603.75 108.807 602.713 109.381Q601.675 109.954 601.083 111.016Q600.497 112.078 600.497 113.458Q600.497 114.855 601.083 115.917Q601.675 116.979 602.713 117.559Q603.75 118.133 605.05 118.133Q606.173 118.133 607.095 117.657Q608.023 117.181 608.651 116.229L610.476 117.382Q609.701 118.756 608.285 119.494Q606.875 120.233 605.075 120.233ZM623.777 106.829L623.777 120.08L621.622 120.08L621.622 115.881L617.777 115.881L617.502 115.881L614.597 120.08L612.028 120.08L615.25 115.557Q613.749 115.106 612.949 114.068Q612.15 113.031 612.15 111.48Q612.15 109.204 613.7 108.02Q615.25 106.829 617.972 106.829L623.777 106.829ZM614.597 111.553Q614.597 112.878 615.433 113.519Q616.276 114.154 617.948 114.154L621.622 114.154L621.622 108.929L618.052 108.929Q614.597 108.929 614.597 111.553ZM642.599 117.98L642.599 123.254L640.328 123.254L640.328 120.08L628.451 120.08L628.451 106.829L630.849 106.829L630.849 117.98L638.1 117.98L638.1 106.829L640.499 106.829L640.499 117.98L642.599 117.98ZM645.701 106.829L648.099 106.829L648.099 120.08L645.701 120.08L645.701 106.829ZM646.897 104.278Q646.201 104.278 645.737 103.833Q645.273 103.381 645.273 102.728Q645.273 102.081 645.737 101.617Q646.201 101.153 646.897 101.153Q647.599 101.153 648.057 101.593Q648.52 102.032 648.52 102.679Q648.52 103.356 648.057 103.82Q647.599 104.278 646.897 104.278Z" fill="#000000" fill-opacity="1.000000" fill-rule="evenodd"/>
	<path id="Vector" d="M625.549 73.4941C623.364 73.4941 621.194 73.21 619.04 72.6406C616.885 72.043 615.06 71.2051 613.563 70.127L616.392 64.5615C617.589 65.4287 618.98 66.1172 620.566 66.626C622.152 67.1348 623.753 67.3887 625.369 67.3887C627.194 67.3887 628.631 67.0303 629.679 66.3115C630.726 65.5938 631.25 64.6064 631.25 63.3496C631.25 62.1523 630.786 61.209 629.858 60.5215C628.931 59.833 627.435 59.4883 625.369 59.4883L622.048 59.4883L622.048 54.6855L630.801 44.7656L631.608 47.3691L615.135 47.3691L615.135 41.5332L637.13 41.5332L637.13 46.2461L628.422 56.167L624.741 54.0576L626.851 54.0576C630.711 54.0576 633.629 54.9248 635.604 56.6611C637.579 58.3965 638.566 60.626 638.566 63.3496C638.566 65.1152 638.103 66.7754 637.175 68.332C636.247 69.8584 634.826 71.0996 632.91 72.0576C630.995 73.0156 628.541 73.4941 625.549 73.4941Z" fill="#67A600" fill-opacity="1.000000" fill-rule="nonzero"/>
	<path id="Vector" d="M599.503 63.125L599.503 57.5137L612.206 57.5137L612.206 63.125L599.503 63.125Z" fill="#67A600" fill-opacity="1.000000" fill-rule="nonzero"/>
	<path id="Vector" d="M586.189 72.9551L586.189 44.2266L589.332 47.3691L579.905 47.3691L579.905 41.5332L593.462 41.5332L593.462 72.9551L586.189 72.9551Z" fill="#67A600" fill-opacity="1.000000" fill-rule="nonzero"/>
	<path id="Vector" d="M647.209 10.3389L644.765 10.3389L644.765 6.50684C644.765 2.96973 641.959 0 638.421 0L632.323 0C628.787 0 625.968 2.96973 625.968 6.50684L625.968 10.3389L595.421 10.3389L595.421 6.50684C595.421 2.96973 592.602 0 589.065 0L582.968 0C579.43 0 576.624 2.96973 576.624 6.50684L576.624 10.3389L574.18 10.3389C568.389 10.3584 563.704 15.0576 563.7 20.8477L563.7 76.4834C563.71 82.2637 568.399 86.9424 574.18 86.9395L647.209 86.9395C652.989 86.9424 657.68 82.2637 657.688 76.4834L657.688 20.8477C657.685 15.0576 653 10.3584 647.209 10.3389ZM630.667 6.50684C630.667 5.56055 631.378 4.69922 632.323 4.69922L638.421 4.69922C639.366 4.69922 640.065 5.56055 640.065 6.50684L640.065 20.6777L630.667 20.6777L630.667 6.50684ZM581.323 6.50684C581.323 5.56055 582.021 4.69922 582.968 4.69922L589.065 4.69922C590.011 4.69922 590.722 5.56055 590.722 6.50684L590.722 20.6777L581.323 20.6777L581.323 6.50684ZM574.18 15.0381L576.624 15.0381L576.624 22.9941C576.588 24.2744 577.597 25.3408 578.877 25.377L593.13 25.377C594.416 25.3564 595.442 24.2959 595.421 23.0098L595.421 15.0381L625.968 15.0381L625.968 22.9941C625.938 24.2803 626.956 25.3477 628.242 25.377L642.486 25.377C643.767 25.3545 644.786 24.2998 644.765 23.0195C644.765 23.0107 644.765 23.002 644.765 22.9941L644.765 15.0381L647.209 15.0381C650.405 15.0547 652.988 17.6504 652.989 20.8477L652.989 31.0166L568.399 31.0166L568.399 20.8477C568.4 17.6504 570.983 15.0547 574.18 15.0381ZM647.209 82.2393L574.18 82.2393C570.994 82.2471 568.406 79.6699 568.399 76.4844L568.399 35.7158L652.989 35.7158L652.989 76.4834C652.982 79.668 650.396 82.2461 647.21 82.2393L647.209 82.2393Z" fill="#67A600" fill-opacity="1.000000" fill-rule="nonzero"/>
	<path id="Максимальна тривалість курсу терапії: 6 місяців" d="M28.6516 210.08L28.6272 197.33L22.2979 207.956L21.1504 207.956L14.8271 197.403L14.8271 210.08L12.4224 210.08L12.4224 192.581L14.4731 192.581L21.7729 204.88L28.9751 192.581L31.0259 192.581L31.0503 210.08L28.6516 210.08ZM40.8248 196.707Q43.5774 196.707 45.0362 198.056Q46.501 199.405 46.501 202.078L46.501 210.08L44.2244 210.08L44.2244 208.328Q43.6263 209.256 42.5093 209.744Q41.3985 210.233 39.8787 210.233Q37.6509 210.233 36.3143 209.158Q34.9776 208.078 34.9776 206.333Q34.9776 204.581 36.2532 203.519Q37.5289 202.457 40.2999 202.457L44.1023 202.457L44.1023 201.981Q44.1023 200.43 43.199 199.606Q42.3018 198.782 40.5501 198.782Q39.3782 198.782 38.2491 199.173Q37.126 199.558 36.3509 200.205L35.3499 198.404Q36.3753 197.58 37.7974 197.147Q39.2256 196.707 40.8248 196.707ZM40.2754 208.377Q41.6487 208.377 42.6497 207.767Q43.6507 207.156 44.1023 206.027L44.1023 204.178L40.4036 204.178Q37.3519 204.178 37.3519 206.229Q37.3519 207.23 38.127 207.803Q38.9021 208.377 40.2754 208.377ZM55.977 204.477L53.2243 204.477L53.2243 210.08L50.8256 210.08L50.8256 196.829L53.2243 196.829L53.2243 202.432L56.0258 202.432L60.3227 196.829L62.8984 196.829L57.8752 203.208L63.2524 210.08L60.4265 210.08L55.977 204.477ZM71.0996 210.233Q69.0732 210.233 67.4863 209.36Q65.8994 208.481 64.996 206.943Q64.0988 205.405 64.0988 203.458Q64.0988 201.505 64.996 199.967Q65.8994 198.428 67.4863 197.568Q69.0732 196.707 71.0996 196.707Q72.9001 196.707 74.31 197.434Q75.726 198.154 76.5012 199.527L74.6762 200.705Q74.0476 199.753 73.1198 199.283Q72.1982 198.807 71.0751 198.807Q69.7751 198.807 68.7375 199.381Q67.6999 199.954 67.1079 201.016Q66.5219 202.078 66.5219 203.458Q66.5219 204.855 67.1079 205.917Q67.6999 206.979 68.7375 207.559Q69.7751 208.133 71.0751 208.133Q72.1982 208.133 73.1198 207.657Q74.0476 207.181 74.6762 206.229L76.5012 207.382Q75.726 208.756 74.31 209.494Q72.9001 210.233 71.0996 210.233ZM79.6006 196.829L81.9993 196.829L81.9993 206.479L90.1231 196.829L92.3021 196.829L92.3021 210.08L89.8973 210.08L89.8973 200.43L81.7979 210.08L79.6006 210.08L79.6006 196.829ZM112.228 196.829L112.228 210.08L110.049 210.08L110.049 200.406L105.099 208.579L104.049 208.579L99.1479 200.382L99.1479 210.08L96.9506 210.08L96.9506 196.829L99.4226 196.829L104.623 205.777L109.976 196.829L112.228 196.829ZM121.625 196.707Q124.377 196.707 125.836 198.056Q127.301 199.405 127.301 202.078L127.301 210.08L125.024 210.08L125.024 208.328Q124.426 209.256 123.309 209.744Q122.198 210.233 120.679 210.233Q118.451 210.233 117.114 209.158Q115.778 208.078 115.778 206.333Q115.778 204.581 117.053 203.519Q118.329 202.457 121.1 202.457L124.902 202.457L124.902 201.981Q124.902 200.43 123.999 199.606Q123.102 198.782 121.35 198.782Q120.178 198.782 119.049 199.173Q117.926 199.558 117.151 200.205L116.15 198.404Q117.175 197.58 118.597 197.147Q120.026 196.707 121.625 196.707ZM121.075 208.377Q122.449 208.377 123.45 207.767Q124.451 207.156 124.902 206.027L124.902 204.178L121.204 204.178Q118.152 204.178 118.152 206.229Q118.152 207.23 118.927 207.803Q119.702 208.377 121.075 208.377ZM143.003 196.829L143.003 210.08L140.598 210.08L140.598 198.929L134.903 198.929L134.751 201.883Q134.622 204.556 134.275 206.345Q133.927 208.133 133.127 209.207Q132.328 210.281 130.899 210.281Q130.252 210.281 129.422 210.056L129.575 208.029Q129.898 208.103 130.173 208.103Q131.174 208.103 131.674 207.23Q132.175 206.357 132.321 205.155Q132.474 203.952 132.602 201.73L132.828 196.829L143.003 196.829ZM153.772 201.328Q156.299 201.352 157.624 202.481Q158.948 203.604 158.948 205.655Q158.948 207.803 157.508 208.969Q156.073 210.129 153.4 210.104L147.651 210.08L147.651 196.829L150.049 196.829L150.049 201.303L153.772 201.328ZM153.199 208.28Q154.822 208.304 155.658 207.633Q156.501 206.955 156.501 205.631Q156.501 204.331 155.689 203.732Q154.877 203.128 153.199 203.104L150.049 203.055L150.049 208.255L153.199 208.28ZM162.026 196.829L164.424 196.829L164.424 202.457L171.974 202.457L171.974 196.829L174.373 196.829L174.373 210.08L171.974 210.08L171.974 204.532L164.424 204.532L164.424 210.08L162.026 210.08L162.026 196.829ZM183.775 196.707Q186.527 196.707 187.986 198.056Q189.451 199.405 189.451 202.078L189.451 210.08L187.174 210.08L187.174 208.328Q186.576 209.256 185.459 209.744Q184.348 210.233 182.829 210.233Q180.601 210.233 179.264 209.158Q177.928 208.078 177.928 206.333Q177.928 204.581 179.203 203.519Q180.479 202.457 183.25 202.457L187.052 202.457L187.052 201.981Q187.052 200.43 186.149 199.606Q185.252 198.782 183.5 198.782Q182.328 198.782 181.199 199.173Q180.076 199.558 179.301 200.205L178.3 198.404Q179.325 197.58 180.747 197.147Q182.176 196.707 183.775 196.707ZM183.225 208.377Q184.599 208.377 185.6 207.767Q186.601 207.156 187.052 206.027L187.052 204.178L183.354 204.178Q180.302 204.178 180.302 206.229Q180.302 207.23 181.077 207.803Q181.852 208.377 183.225 208.377ZM210.376 198.929L205.524 198.929L205.524 210.08L203.125 210.08L203.125 198.929L198.273 198.929L198.273 196.829L210.376 196.829L210.376 198.929ZM219.851 196.707Q221.773 196.707 223.299 197.556Q224.825 198.404 225.686 199.93Q226.546 201.456 226.546 203.458Q226.546 205.454 225.686 206.992Q224.825 208.53 223.299 209.384Q221.773 210.233 219.851 210.233Q218.423 210.233 217.232 209.683Q216.048 209.128 215.224 208.078L215.224 214.932L212.826 214.932L212.826 196.829L215.127 196.829L215.127 198.929Q215.926 197.83 217.147 197.269Q218.374 196.707 219.851 196.707ZM219.649 208.133Q220.925 208.133 221.938 207.547Q222.951 206.955 223.537 205.893Q224.123 204.831 224.123 203.458Q224.123 202.078 223.537 201.016Q222.951 199.954 221.938 199.381Q220.925 198.807 219.649 198.807Q218.398 198.807 217.385 199.393Q216.372 199.979 215.786 201.029Q215.2 202.078 215.2 203.458Q215.2 204.831 215.774 205.893Q216.347 206.955 217.373 207.547Q218.398 208.133 219.649 208.133ZM230.026 196.829L232.424 196.829L232.424 206.479L240.548 196.829L242.727 196.829L242.727 210.08L240.322 210.08L240.322 200.43L232.223 210.08L230.026 210.08L230.026 196.829ZM256.403 203.208Q258.972 203.854 258.972 206.43Q258.972 208.182 257.66 209.134Q256.348 210.08 253.748 210.08L247.376 210.08L247.376 196.829L253.528 196.829Q255.878 196.829 257.202 197.72Q258.527 198.605 258.527 200.229Q258.527 201.279 257.959 202.042Q257.398 202.805 256.403 203.208ZM249.725 202.53L253.327 202.53Q254.7 202.53 255.414 202.03Q256.128 201.529 256.128 200.583Q256.128 198.679 253.327 198.679L249.725 198.679L249.725 202.53ZM253.577 208.231Q255.072 208.231 255.823 207.755Q256.574 207.279 256.574 206.278Q256.574 205.252 255.884 204.758Q255.2 204.257 253.723 204.257L249.725 204.257L249.725 208.231L253.577 208.231ZM267.45 196.707Q270.202 196.707 271.661 198.056Q273.126 199.405 273.126 202.078L273.126 210.08L270.849 210.08L270.849 208.328Q270.251 209.256 269.134 209.744Q268.023 210.233 266.504 210.233Q264.276 210.233 262.939 209.158Q261.603 208.078 261.603 206.333Q261.603 204.581 262.878 203.519Q264.154 202.457 266.925 202.457L270.727 202.457L270.727 201.981Q270.727 200.43 269.824 199.606Q268.927 198.782 267.175 198.782Q266.003 198.782 264.874 199.173Q263.751 199.558 262.976 200.205L261.975 198.404Q263 197.58 264.422 197.147Q265.851 196.707 267.45 196.707ZM266.9 208.377Q268.274 208.377 269.275 207.767Q270.276 207.156 270.727 206.027L270.727 204.178L267.029 204.178Q263.977 204.178 263.977 206.229Q263.977 207.23 264.752 207.803Q265.527 208.377 266.9 208.377ZM288.828 196.829L288.828 210.08L286.423 210.08L286.423 198.929L280.728 198.929L280.576 201.883Q280.447 204.556 280.1 206.345Q279.752 208.133 278.952 209.207Q278.153 210.281 276.724 210.281Q276.077 210.281 275.247 210.056L275.4 208.029Q275.723 208.103 275.998 208.103Q276.999 208.103 277.499 207.23Q278 206.357 278.146 205.155Q278.299 203.952 278.427 201.73L278.653 196.829L288.828 196.829ZM293.476 196.829L295.874 196.829L295.874 210.08L293.476 210.08L293.476 196.829ZM294.672 194.278Q293.976 194.278 293.512 193.833Q293.048 193.381 293.048 192.728Q293.048 192.081 293.512 191.617Q293.976 191.153 294.672 191.153Q295.374 191.153 295.832 191.593Q296.295 192.032 296.295 192.679Q296.295 193.356 295.832 193.82Q295.374 194.278 294.672 194.278ZM306.325 210.233Q304.298 210.233 302.711 209.36Q301.124 208.481 300.221 206.943Q299.324 205.405 299.324 203.458Q299.324 201.505 300.221 199.967Q301.124 198.428 302.711 197.568Q304.298 196.707 306.325 196.707Q308.125 196.707 309.535 197.434Q310.951 198.154 311.726 199.527L309.901 200.705Q309.273 199.753 308.345 199.283Q307.423 198.807 306.3 198.807Q305 198.807 303.963 199.381Q302.925 199.954 302.333 201.016Q301.747 202.078 301.747 203.458Q301.747 204.855 302.333 205.917Q302.925 206.979 303.963 207.559Q305 208.133 306.3 208.133Q307.423 208.133 308.345 207.657Q309.273 207.181 309.901 206.229L311.726 207.382Q310.951 208.756 309.535 209.494Q308.125 210.233 306.325 210.233ZM324.526 198.929L319.674 198.929L319.674 210.08L317.275 210.08L317.275 198.929L312.423 198.929L312.423 196.829L324.526 196.829L324.526 198.929ZM333.098 201.328Q335.624 201.352 336.949 202.481Q338.273 203.604 338.273 205.655Q338.273 207.803 336.833 208.969Q335.399 210.129 332.725 210.104L326.976 210.08L326.976 196.829L329.374 196.829L329.374 201.303L333.098 201.328ZM332.524 208.28Q334.147 208.304 334.983 207.633Q335.826 206.955 335.826 205.631Q335.826 204.331 335.014 203.732Q334.202 203.128 332.524 203.104L329.374 203.055L329.374 208.255L332.524 208.28ZM353.227 204.477L350.474 204.477L350.474 210.08L348.076 210.08L348.076 196.829L350.474 196.829L350.474 202.432L353.276 202.432L357.573 196.829L360.148 196.829L355.125 203.208L360.502 210.08L357.677 210.08L353.227 204.477ZM374.104 196.829L367.677 211.405Q366.829 213.431 365.688 214.255Q364.552 215.079 362.953 215.079Q361.977 215.079 361.061 214.768Q360.152 214.456 359.554 213.852L360.579 212.058Q361.604 213.028 362.953 213.028Q363.826 213.028 364.412 212.564Q365.004 212.106 365.48 210.977L365.901 210.056L360.054 196.829L362.55 196.829L367.177 207.431L371.754 196.829L374.104 196.829ZM383.576 196.707Q385.498 196.707 387.024 197.556Q388.55 198.404 389.411 199.93Q390.271 201.456 390.271 203.458Q390.271 205.454 389.411 206.992Q388.55 208.53 387.024 209.384Q385.498 210.233 383.576 210.233Q382.148 210.233 380.957 209.683Q379.773 209.128 378.949 208.078L378.949 214.932L376.551 214.932L376.551 196.829L378.852 196.829L378.852 198.929Q379.651 197.83 380.872 197.269Q382.099 196.707 383.576 196.707ZM383.374 208.133Q384.65 208.133 385.663 207.547Q386.676 206.955 387.262 205.893Q387.848 204.831 387.848 203.458Q387.848 202.078 387.262 201.016Q386.676 199.954 385.663 199.381Q384.65 198.807 383.374 198.807Q382.123 198.807 381.11 199.393Q380.097 199.979 379.511 201.029Q378.925 202.078 378.925 203.458Q378.925 204.831 379.499 205.893Q380.072 206.955 381.098 207.547Q382.123 208.133 383.374 208.133ZM399.525 210.233Q397.498 210.233 395.911 209.36Q394.324 208.481 393.421 206.943Q392.524 205.405 392.524 203.458Q392.524 201.505 393.421 199.967Q394.324 198.428 395.911 197.568Q397.498 196.707 399.525 196.707Q401.325 196.707 402.735 197.434Q404.151 198.154 404.926 199.527L403.101 200.705Q402.473 199.753 401.545 199.283Q400.623 198.807 399.5 198.807Q398.2 198.807 397.163 199.381Q396.125 199.954 395.533 201.016Q394.947 202.078 394.947 203.458Q394.947 204.855 395.533 205.917Q396.125 206.979 397.163 207.559Q398.2 208.133 399.5 208.133Q400.623 208.133 401.545 207.657Q402.473 207.181 403.101 206.229L404.926 207.382Q404.151 208.756 402.735 209.494Q401.325 210.233 399.525 210.233ZM419.679 196.829L413.252 211.405Q412.404 213.431 411.263 214.255Q410.127 215.079 408.528 215.079Q407.552 215.079 406.636 214.768Q405.727 214.456 405.129 213.852L406.154 212.058Q407.179 213.028 408.528 213.028Q409.401 213.028 409.987 212.564Q410.579 212.106 411.055 210.977L411.476 210.056L405.629 196.829L408.125 196.829L412.752 207.431L417.329 196.829L419.679 196.829ZM438.726 198.929L433.874 198.929L433.874 210.08L431.475 210.08L431.475 198.929L426.623 198.929L426.623 196.829L438.726 196.829L438.726 198.929ZM452.576 203.531Q452.576 203.806 452.527 204.257L441.773 204.257Q441.998 206.003 443.311 207.071Q444.623 208.133 446.576 208.133Q448.95 208.133 450.397 206.528L451.721 208.078Q450.824 209.128 449.487 209.683Q448.151 210.233 446.497 210.233Q444.397 210.233 442.774 209.372Q441.15 208.505 440.259 206.955Q439.374 205.405 439.374 203.458Q439.374 201.529 440.234 199.979Q441.101 198.428 442.609 197.568Q444.122 196.707 446.027 196.707Q447.925 196.707 449.408 197.568Q450.897 198.428 451.734 199.979Q452.576 201.529 452.576 203.531ZM446.027 198.728Q444.299 198.728 443.134 199.777Q441.974 200.827 441.773 202.53L450.275 202.53Q450.073 200.858 448.908 199.796Q447.748 198.728 446.027 198.728ZM463.326 196.707Q465.248 196.707 466.774 197.556Q468.3 198.404 469.161 199.93Q470.021 201.456 470.021 203.458Q470.021 205.454 469.161 206.992Q468.3 208.53 466.774 209.384Q465.248 210.233 463.326 210.233Q461.898 210.233 460.707 209.683Q459.523 209.128 458.699 208.078L458.699 214.932L456.301 214.932L456.301 196.829L458.602 196.829L458.602 198.929Q459.401 197.83 460.622 197.269Q461.849 196.707 463.326 196.707ZM463.124 208.133Q464.4 208.133 465.413 207.547Q466.426 206.955 467.012 205.893Q467.598 204.831 467.598 203.458Q467.598 202.078 467.012 201.016Q466.426 199.954 465.413 199.381Q464.4 198.807 463.124 198.807Q461.873 198.807 460.86 199.393Q459.847 199.979 459.261 201.029Q458.675 202.078 458.675 203.458Q458.675 204.831 459.249 205.893Q459.822 206.955 460.848 207.547Q461.873 208.133 463.124 208.133ZM478.1 196.707Q480.853 196.707 482.311 198.056Q483.776 199.405 483.776 202.078L483.776 210.08L481.5 210.08L481.5 208.328Q480.901 209.256 479.784 209.744Q478.674 210.233 477.154 210.233Q474.926 210.233 473.589 209.158Q472.253 208.078 472.253 206.333Q472.253 204.581 473.528 203.519Q474.804 202.457 477.575 202.457L481.377 202.457L481.377 201.981Q481.377 200.43 480.474 199.606Q479.577 198.782 477.825 198.782Q476.653 198.782 475.524 199.173Q474.401 199.558 473.626 200.205L472.625 198.404Q473.65 197.58 475.073 197.147Q476.501 196.707 478.1 196.707ZM477.551 208.377Q478.924 208.377 479.925 207.767Q480.926 207.156 481.377 206.027L481.377 204.178L477.679 204.178Q474.627 204.178 474.627 206.229Q474.627 207.23 475.402 207.803Q476.177 208.377 477.551 208.377ZM500.375 196.829L500.375 210.08L497.976 210.08L497.976 198.929L490.499 198.929L490.499 210.08L488.101 210.08L488.101 196.829L500.375 196.829ZM505.026 196.829L507.424 196.829L507.424 210.08L505.026 210.08L505.026 196.829ZM506.222 194.278Q505.526 194.278 505.062 193.833Q504.598 193.381 504.598 192.728Q504.598 192.081 505.062 191.617Q505.526 191.153 506.222 191.153Q506.924 191.153 507.382 191.593Q507.846 192.032 507.846 192.679Q507.846 193.356 507.382 193.82Q506.924 194.278 506.222 194.278ZM512.052 196.829L514.451 196.829L514.451 210.08L512.052 210.08L512.052 196.829ZM511.472 194.455Q510.923 194.455 510.575 194.095Q510.227 193.729 510.227 193.204Q510.227 192.655 510.575 192.294Q510.923 191.928 511.472 191.928Q511.997 191.928 512.345 192.294Q512.699 192.655 512.699 193.204Q512.699 193.753 512.345 194.107Q511.997 194.455 511.472 194.455ZM515.024 194.455Q514.499 194.455 514.145 194.095Q513.797 193.729 513.797 193.204Q513.797 192.655 514.145 192.294Q514.499 191.928 515.024 191.928Q515.574 191.928 515.922 192.294Q516.276 192.655 516.276 193.204Q516.276 193.753 515.922 194.107Q515.574 194.455 515.024 194.455ZM519.601 200.131Q518.899 200.131 518.398 199.643Q517.898 199.155 517.898 198.404Q517.898 197.678 518.398 197.189Q518.899 196.701 519.601 196.701Q520.303 196.701 520.773 197.177Q521.249 197.653 521.249 198.404Q521.249 199.155 520.76 199.643Q520.278 200.131 519.601 200.131ZM519.601 210.233Q518.899 210.233 518.398 209.744Q517.898 209.256 517.898 208.505Q517.898 207.779 518.398 207.291Q518.899 206.802 519.601 206.802Q520.303 206.802 520.773 207.279Q521.249 207.755 521.249 208.505Q521.249 209.256 520.76 209.744Q520.278 210.233 519.601 210.233Z" fill="#000000" fill-opacity="1.000000" fill-rule="evenodd"/>
	<path id="Максимальна тривалість курсу терапії: 6 місяців" d="M538.55 199.106Q540.228 199.106 541.601 199.783Q542.975 200.455 543.774 201.694Q544.574 202.933 544.574 204.556Q544.574 206.308 543.701 207.633Q542.828 208.957 541.315 209.671Q539.801 210.379 537.952 210.379Q534.277 210.379 532.202 208.133Q530.127 205.881 530.127 201.706Q530.127 198.728 531.25 196.604Q532.373 194.479 534.387 193.381Q536.401 192.282 539.05 192.282Q540.448 192.282 541.736 192.594Q543.024 192.905 543.927 193.479L542.425 196.457Q541.125 195.578 539.148 195.578Q536.926 195.578 535.626 196.878Q534.326 198.178 534.222 200.656Q535.773 199.106 538.55 199.106ZM537.726 207.358Q539.026 207.358 539.838 206.656Q540.649 205.954 540.649 204.758Q540.649 203.555 539.838 202.841Q539.026 202.127 537.677 202.127Q536.352 202.127 535.498 202.866Q534.65 203.604 534.65 204.758Q534.65 205.905 535.474 206.632Q536.297 207.358 537.726 207.358ZM567.153 210.08L567.153 202.03L563.124 208.78L561.476 208.78L557.552 202.005L557.552 210.08L554.024 210.08L554.024 196.628L558.101 196.628L562.398 204.404L566.976 196.628L570.626 196.628L570.674 210.08L567.153 210.08ZM574.375 196.628L578.275 196.628L578.275 210.08L574.375 210.08L574.375 196.628ZM576.322 194.754Q575.247 194.754 574.57 194.132Q573.899 193.503 573.899 192.581Q573.899 191.654 574.57 191.031Q575.247 190.402 576.322 190.402Q577.396 190.402 578.073 191.007Q578.751 191.605 578.751 192.508Q578.751 193.479 578.073 194.119Q577.396 194.754 576.322 194.754ZM588.427 210.281Q586.278 210.281 584.563 209.396Q582.848 208.505 581.884 206.931Q580.925 205.356 580.925 203.354Q580.925 201.352 581.884 199.777Q582.848 198.203 584.563 197.318Q586.278 196.433 588.427 196.433Q590.551 196.433 592.138 197.318Q593.724 198.203 594.451 199.857L591.423 201.48Q590.374 199.631 588.402 199.631Q586.876 199.631 585.875 200.632Q584.874 201.633 584.874 203.354Q584.874 205.081 585.875 206.082Q586.876 207.077 588.402 207.077Q590.398 207.077 591.423 205.228L594.451 206.882Q593.724 208.481 592.138 209.384Q590.551 210.281 588.427 210.281ZM608.425 196.628L608.425 210.08L604.952 210.08L604.952 206.229L602.077 206.229L599.526 210.08L595.375 210.08L598.452 205.679Q597.048 205.13 596.309 204.093Q595.577 203.055 595.577 201.578Q595.577 199.204 597.286 197.916Q599.001 196.628 601.998 196.628L608.425 196.628ZM602.077 199.808Q600.826 199.808 600.185 200.26Q599.55 200.705 599.55 201.706Q599.55 202.707 600.161 203.171Q600.777 203.629 602.028 203.629L604.952 203.629L604.952 199.808L602.077 199.808ZM627.323 206.882L627.323 213.028L623.698 213.028L623.698 210.08L612.174 210.08L612.174 196.628L616.05 196.628L616.05 206.882L621.476 206.882L621.476 196.628L625.376 196.628L625.376 206.882L627.323 206.882ZM629.75 196.628L633.65 196.628L633.65 210.08L629.75 210.08L629.75 196.628ZM631.697 194.754Q630.622 194.754 629.945 194.132Q629.274 193.503 629.274 192.581Q629.274 191.654 629.945 191.031Q630.622 190.402 631.697 190.402Q632.771 190.402 633.448 191.007Q634.126 191.605 634.126 192.508Q634.126 193.479 633.448 194.119Q632.771 194.754 631.697 194.754ZM647.677 203.055Q650.052 203.854 650.052 206.253Q650.052 208.078 648.672 209.079Q647.299 210.08 644.577 210.08L637.399 210.08L637.399 196.628L644.278 196.628Q646.798 196.628 648.221 197.543Q649.649 198.453 649.649 200.107Q649.649 201.108 649.136 201.871Q648.623 202.628 647.677 203.055ZM640.976 202.158L643.924 202.158Q645.974 202.158 645.974 200.705Q645.974 199.283 643.924 199.283L640.976 199.283L640.976 202.158ZM644.253 207.431Q646.402 207.431 646.402 205.954Q646.402 205.179 645.901 204.819Q645.401 204.453 644.327 204.453L640.976 204.453L640.976 207.431L644.253 207.431Z" fill="#67A600" fill-opacity="1.000000" fill-rule="evenodd"/>
	<path id="х 1" d="M102.19 54.0801L99.2357 49.9541L96.1901 54.0801L91.9359 54.0801L97.1117 47.3052L92.1129 40.6279L96.4892 40.6279L99.3395 44.5525L102.263 40.6279L106.413 40.6279L101.415 47.2075L106.615 54.0801L102.19 54.0801ZM121.465 36.5813L121.465 54.0801L117.412 54.0801L117.412 39.8284L113.915 39.8284L113.915 36.5813L121.465 36.5813Z" fill="#000000" fill-opacity="1.000000" fill-rule="evenodd"/>
	<g filter="url(#filter_76_3805_dd)">
		<path id="Vector" d="M61.6187 22.1611L47.3418 50.2207L17.7817 65.999C12.1714 60.3887 8.7002 52.6377 8.7002 44.0791C8.7002 26.959 22.5801 13.0801 39.7007 13.0801C48.2632 13.0801 56.0117 16.5518 61.6187 22.1611Z" fill="#D0CFD5" fill-opacity="1.000000" fill-rule="nonzero"/>
		<path id="Vector" d="M24.3843 62.4727C23.8369 61.9971 23.3052 61.502 22.793 60.9873C17.1821 55.377 13.7114 47.626 13.7114 39.0684C13.7114 31.7842 16.2246 25.0889 20.4292 19.7979C19.1592 20.8066 17.9688 21.9141 16.8706 23.1094C11.6616 28.7832 8.7002 36.375 8.7002 44.0791C8.7002 51.4248 11.4004 58.7529 16.2612 64.3643C16.749 64.9268 17.2554 65.4727 17.7817 65.998L24.3843 62.4727Z" fill="#B5B4B9" fill-opacity="1.000000" fill-rule="nonzero"/>
		<path id="Vector" d="M70.6997 44.0791C70.6997 61.1992 56.8198 75.0801 39.7002 75.0801C31.1396 75.0801 23.3911 71.6113 17.7812 66.001L17.7812 65.998L61.6182 22.1611C67.2285 27.7715 70.6997 35.5225 70.6997 44.0791Z" fill="#E6E6E6" fill-opacity="1.000000" fill-rule="nonzero"/>
		<path id="Vector" d="M33.6846 25.7793C33.2036 25.7793 32.7222 25.5967 32.3555 25.2285C31.6216 24.4951 31.6216 23.3047 32.3555 22.5713L34.5054 20.4229C35.2388 19.6885 36.4292 19.6895 37.1626 20.4229C37.896 21.1562 37.896 22.3467 37.1626 23.0801L35.0127 25.2295C34.646 25.5967 34.165 25.7793 33.6846 25.7793Z" fill="#334151" fill-opacity="1.000000" fill-rule="nonzero"/>
		<path id="Vector" d="M57.4351 49.5303C56.9546 49.5303 56.4736 49.3467 56.1069 48.9805C55.3726 48.2461 55.3726 47.0566 56.1069 46.3223L58.2559 44.1729C58.9902 43.4385 60.1797 43.4385 60.9131 44.1729C61.6475 44.9062 61.6475 46.0967 60.9131 46.8301L58.7642 48.9805C58.3975 49.3467 57.916 49.5303 57.4351 49.5303Z" fill="#334151" fill-opacity="1.000000" fill-rule="nonzero"/>
		<path id="Vector" d="M48.2935 40.4482C46.3706 40.4482 44.4941 39.6621 43.0835 38.252C41.5576 36.7256 40.7632 34.6553 40.9028 32.5693C40.9722 31.5332 41.873 30.751 42.9038 30.8203C43.9395 30.8896 44.7222 31.7861 44.6528 32.8213C44.5854 33.8242 44.9814 34.8359 45.7407 35.5947C46.4995 36.3535 47.5103 36.751 48.5137 36.6826C49.5503 36.6133 50.4448 37.3955 50.5142 38.4316C50.584 39.4668 49.8008 40.3623 48.7656 40.4316C48.6079 40.4424 48.4512 40.4482 48.2935 40.4482Z" fill="#334151" fill-opacity="1.000000" fill-rule="nonzero"/>
		<path id="Vector" d="M44.7109 70.0674C36.1509 70.0674 28.4019 66.5996 22.7915 60.9873C22.7915 60.9873 17.7812 65.998 17.7812 66.001C23.3911 71.6104 31.1396 75.0791 39.7002 75.0791L39.7241 75.0791C44.6992 75.0791 49.6602 73.8633 54.0674 71.5537C57.8916 69.5488 61.2954 66.7305 63.9819 63.3496C58.6904 67.5547 51.9946 70.0674 44.7109 70.0674Z" fill="#D0CFD5" fill-opacity="1.000000" fill-rule="nonzero"/>
	</g>
	<path id="х 1" d="M279.19 54.0801L276.236 49.9541L273.19 54.0801L268.936 54.0801L274.112 47.3052L269.113 40.6279L273.489 40.6279L276.34 44.5525L279.263 40.6279L283.413 40.6279L278.415 47.2075L283.615 54.0801L279.19 54.0801ZM298.465 36.5813L298.465 54.0801L294.412 54.0801L294.412 39.8284L290.915 39.8284L290.915 36.5813L298.465 36.5813Z" fill="#000000" fill-opacity="1.000000" fill-rule="evenodd"/>
	<g filter="url(#filter_76_3828_dd)">
		<path id="Vector" d="M238.619 22.1611L224.342 50.2207L194.782 65.999C189.171 60.3887 185.7 52.6377 185.7 44.0791C185.7 26.959 199.58 13.0801 216.701 13.0801C225.263 13.0801 233.012 16.5518 238.619 22.1611Z" fill="#D0CFD5" fill-opacity="1.000000" fill-rule="nonzero"/>
		<path id="Vector" d="M201.384 62.4727C200.837 61.9971 200.305 61.502 199.793 60.9873C194.182 55.377 190.711 47.626 190.711 39.0684C190.711 31.7842 193.225 25.0889 197.429 19.7979C196.159 20.8066 194.969 21.9141 193.871 23.1094C188.662 28.7832 185.7 36.375 185.7 44.0791C185.7 51.4248 188.4 58.7529 193.261 64.3643C193.749 64.9268 194.255 65.4727 194.782 65.998L201.384 62.4727Z" fill="#B5B4B9" fill-opacity="1.000000" fill-rule="nonzero"/>
		<path id="Vector" d="M247.7 44.0791C247.7 61.1992 233.82 75.0801 216.7 75.0801C208.14 75.0801 200.391 71.6113 194.781 66.001L194.781 65.998L238.618 22.1611C244.229 27.7715 247.7 35.5225 247.7 44.0791Z" fill="#E6E6E6" fill-opacity="1.000000" fill-rule="nonzero"/>
		<path id="Vector" d="M210.685 25.7793C210.204 25.7793 209.722 25.5967 209.355 25.2285C208.622 24.4951 208.622 23.3047 209.355 22.5713L211.505 20.4229C212.239 19.6885 213.429 19.6895 214.163 20.4229C214.896 21.1562 214.896 22.3467 214.163 23.0801L212.013 25.2295C211.646 25.5967 211.165 25.7793 210.685 25.7793Z" fill="#334151" fill-opacity="1.000000" fill-rule="nonzero"/>
		<path id="Vector" d="M234.435 49.5303C233.955 49.5303 233.474 49.3467 233.107 48.9805C232.373 48.2461 232.373 47.0566 233.107 46.3223L235.256 44.1729C235.99 43.4385 237.18 43.4385 237.913 44.1729C238.647 44.9062 238.647 46.0967 237.913 46.8301L235.764 48.9805C235.397 49.3467 234.916 49.5303 234.435 49.5303Z" fill="#334151" fill-opacity="1.000000" fill-rule="nonzero"/>
		<path id="Vector" d="M225.293 40.4482C223.371 40.4482 221.494 39.6621 220.083 38.252C218.558 36.7256 217.763 34.6553 217.903 32.5693C217.972 31.5332 218.873 30.751 219.904 30.8203C220.939 30.8896 221.722 31.7861 221.653 32.8213C221.585 33.8242 221.981 34.8359 222.741 35.5947C223.5 36.3535 224.51 36.751 225.514 36.6826C226.55 36.6133 227.445 37.3955 227.514 38.4316C227.584 39.4668 226.801 40.3623 225.766 40.4316C225.608 40.4424 225.451 40.4482 225.293 40.4482Z" fill="#334151" fill-opacity="1.000000" fill-rule="nonzero"/>
		<path id="Vector" d="M221.711 70.0674C213.151 70.0674 205.402 66.5996 199.792 60.9873C199.792 60.9873 194.781 65.998 194.781 66.001C200.391 71.6104 208.14 75.0791 216.7 75.0791L216.724 75.0791C221.699 75.0791 226.66 73.8633 231.067 71.5537C234.892 69.5488 238.295 66.7305 240.982 63.3496C235.69 67.5547 228.995 70.0674 221.711 70.0674Z" fill="#D0CFD5" fill-opacity="1.000000" fill-rule="nonzero"/>
	</g>
	<path id="х 1" d="M454.19 54.0801L451.236 49.9541L448.19 54.0801L443.936 54.0801L449.112 47.3052L444.113 40.6279L448.489 40.6279L451.34 44.5525L454.263 40.6279L458.413 40.6279L453.415 47.2075L458.615 54.0801L454.19 54.0801ZM473.465 36.5813L473.465 54.0801L469.412 54.0801L469.412 39.8284L465.915 39.8284L465.915 36.5813L473.465 36.5813Z" fill="#000000" fill-opacity="1.000000" fill-rule="evenodd"/>
	<g filter="url(#filter_76_3837_dd)">
		<path id="Vector" d="M413.619 22.1611L399.342 50.2207L369.782 65.999C364.171 60.3887 360.7 52.6377 360.7 44.0791C360.7 26.959 374.58 13.0801 391.7 13.0801C400.263 13.0801 408.012 16.5518 413.619 22.1611Z" fill="#D0CFD5" fill-opacity="1.000000" fill-rule="nonzero"/>
		<path id="Vector" d="M376.384 62.4727C375.837 61.9971 375.305 61.502 374.793 60.9873C369.182 55.377 365.711 47.626 365.711 39.0684C365.711 31.7842 368.225 25.0889 372.429 19.7979C371.159 20.8066 369.969 21.9141 368.871 23.1094C363.662 28.7832 360.7 36.375 360.7 44.0791C360.7 51.4248 363.4 58.7529 368.261 64.3643C368.749 64.9268 369.255 65.4727 369.782 65.998L376.384 62.4727Z" fill="#B5B4B9" fill-opacity="1.000000" fill-rule="nonzero"/>
		<path id="Vector" d="M422.7 44.0791C422.7 61.1992 408.819 75.0801 391.7 75.0801C383.14 75.0801 375.391 71.6113 369.781 66.001L369.781 65.998L413.618 22.1611C419.229 27.7715 422.7 35.5225 422.7 44.0791Z" fill="#E6E6E6" fill-opacity="1.000000" fill-rule="nonzero"/>
		<path id="Vector" d="M385.684 25.7793C385.203 25.7793 384.722 25.5967 384.354 25.2285C383.621 24.4951 383.621 23.3047 384.354 22.5713L386.505 20.4229C387.238 19.6885 388.429 19.6895 389.162 20.4229C389.896 21.1562 389.896 22.3467 389.162 23.0801L387.012 25.2295C386.646 25.5967 386.165 25.7793 385.684 25.7793Z" fill="#334151" fill-opacity="1.000000" fill-rule="nonzero"/>
		<path id="Vector" d="M409.435 49.5303C408.954 49.5303 408.474 49.3467 408.106 48.9805C407.372 48.2461 407.372 47.0566 408.106 46.3223L410.256 44.1729C410.99 43.4385 412.18 43.4385 412.913 44.1729C413.647 44.9062 413.647 46.0967 412.913 46.8301L410.764 48.9805C410.396 49.3467 409.915 49.5303 409.435 49.5303Z" fill="#334151" fill-opacity="1.000000" fill-rule="nonzero"/>
		<path id="Vector" d="M400.293 40.4482C398.37 40.4482 396.493 39.6621 395.083 38.252C393.557 36.7256 392.763 34.6553 392.902 32.5693C392.972 31.5332 393.872 30.751 394.903 30.8203C395.938 30.8896 396.722 31.7861 396.652 32.8213C396.585 33.8242 396.98 34.8359 397.74 35.5947C398.499 36.3535 399.51 36.751 400.513 36.6826C401.55 36.6133 402.444 37.3955 402.514 38.4316C402.583 39.4668 401.801 40.3623 400.765 40.4316C400.607 40.4424 400.45 40.4482 400.293 40.4482Z" fill="#334151" fill-opacity="1.000000" fill-rule="nonzero"/>
		<path id="Vector" d="M396.711 70.0674C388.151 70.0674 380.401 66.5996 374.792 60.9873C374.792 60.9873 369.781 65.998 369.781 66.001C375.391 71.6104 383.14 75.0791 391.7 75.0791L391.724 75.0791C396.699 75.0791 401.66 73.8633 406.067 71.5537C409.892 69.5488 413.295 66.7305 415.982 63.3496C410.69 67.5547 403.994 70.0674 396.711 70.0674Z" fill="#D0CFD5" fill-opacity="1.000000" fill-rule="nonzero"/>
	</g>
</svg>
