<svg width="689.349609" height="427.829102" viewBox="0 0 689.35 427.829" fill="none" xmlns="http://www.w3.org/2000/svg" >
	<desc>
			Created with Pixso.
	</desc>
	<defs>
		<linearGradient id="paint_linear_76_3757_0" x1="53.796509" y1="300.486694" x2="46.386551" y2="423.104706" gradientUnits="userSpaceOnUse">
			<stop stop-color="#7CC700"/>
			<stop offset="1.000000" stop-color="#C6F579"/>
		</linearGradient>
		<linearGradient id="paint_linear_76_3756_0" x1="53.796509" y1="186.486710" x2="46.386551" y2="309.104706" gradientUnits="userSpaceOnUse">
			<stop stop-color="#7CC700"/>
			<stop offset="1.000000" stop-color="#C6F579"/>
		</linearGradient>
		<linearGradient id="paint_linear_76_3755_0" x1="53.796509" y1="72.486710" x2="46.386551" y2="195.104706" gradientUnits="userSpaceOnUse">
			<stop stop-color="#7CC700"/>
			<stop offset="1.000000" stop-color="#C6F579"/>
		</linearGradient>
		<linearGradient id="paint_linear_76_3716_0" x1="53.796509" y1="-34.513290" x2="46.386551" y2="88.104706" gradientUnits="userSpaceOnUse">
			<stop stop-color="#7CC700"/>
			<stop offset="1.000000" stop-color="#C6F579"/>
		</linearGradient>
	</defs>
	<path id="Потрійна допомога нервовій системі: ноотропна, вегетотропна, протитривожна" d="M120.798 20.5012L120.798 38L118.35 38L118.35 22.6741L108.2 22.6741L108.2 38L105.722 38L105.722 20.5012L120.798 20.5012ZM131.527 38.1526Q129.549 38.1526 127.974 37.2798Q126.4 36.4009 125.509 34.8628Q124.624 33.3247 124.624 31.3777Q124.624 29.4246 125.509 27.8865Q126.4 26.3484 127.974 25.4878Q129.549 24.6272 131.527 24.6272Q133.498 24.6272 135.061 25.4878Q136.623 26.3484 137.508 27.8865Q138.399 29.4246 138.399 31.3777Q138.399 33.3247 137.508 34.8628Q136.623 36.4009 135.061 37.2798Q133.498 38.1526 131.527 38.1526ZM131.527 36.053Q132.796 36.053 133.809 35.467Q134.823 34.875 135.396 33.813Q135.976 32.751 135.976 31.3777Q135.976 29.9983 135.396 28.9363Q134.823 27.8743 133.809 27.3005Q132.796 26.7268 131.527 26.7268Q130.251 26.7268 129.238 27.3005Q128.225 27.8743 127.633 28.9363Q127.047 29.9983 127.047 31.3777Q127.047 32.751 127.633 33.813Q128.225 34.875 129.238 35.467Q130.251 36.053 131.527 36.053ZM151.251 26.8489L146.399 26.8489L146.399 38L144 38L144 26.8489L139.148 26.8489L139.148 24.7493L151.251 24.7493L151.251 26.8489ZM160.726 24.6272Q162.648 24.6272 164.174 25.4756Q165.7 26.324 166.561 27.8499Q167.421 29.3757 167.421 31.3777Q167.421 33.3735 166.561 34.9116Q165.7 36.4497 164.174 37.3042Q162.648 38.1526 160.726 38.1526Q159.297 38.1526 158.107 37.6033Q156.923 37.0479 156.099 35.998L156.099 42.8523L153.7 42.8523L153.7 24.7493L156.001 24.7493L156.001 26.8489Q156.801 25.7502 158.022 25.1887Q159.249 24.6272 160.726 24.6272ZM160.524 36.053Q161.8 36.053 162.813 35.467Q163.826 34.875 164.412 33.813Q164.998 32.751 164.998 31.3777Q164.998 29.9983 164.412 28.9363Q163.826 27.8743 162.813 27.3005Q161.8 26.7268 160.524 26.7268Q159.273 26.7268 158.26 27.3127Q157.247 27.8987 156.661 28.9485Q156.075 29.9983 156.075 31.3777Q156.075 32.751 156.648 33.813Q157.222 34.875 158.248 35.467Q159.273 36.053 160.524 36.053ZM170.9 24.7493L173.299 24.7493L173.299 38L170.9 38L170.9 24.7493ZM172.097 22.198Q171.401 22.198 170.937 21.7524Q170.473 21.3008 170.473 20.6477Q170.473 20.0007 170.937 19.5369Q171.401 19.073 172.097 19.073Q172.799 19.073 173.256 19.5125Q173.72 19.9519 173.72 20.5989Q173.72 21.2764 173.256 21.7402Q172.799 22.198 172.097 22.198ZM177.975 24.7493L180.374 24.7493L180.374 34.3989L188.498 24.7493L190.677 24.7493L190.677 38L188.272 38L188.272 28.3503L180.173 38L177.975 38L177.975 24.7493ZM184.171 23.0281Q182.321 23.0281 181.296 22.1431Q180.276 21.252 180.246 19.5735L181.876 19.5735Q181.9 20.5012 182.51 21.0627Q183.121 21.6243 184.146 21.6243Q185.171 21.6243 185.794 21.0627Q186.423 20.5012 186.447 19.5735L188.126 19.5735Q188.101 21.252 187.051 22.1431Q186.002 23.0281 184.171 23.0281ZM195.325 24.7493L197.724 24.7493L197.724 30.3767L205.274 30.3767L205.274 24.7493L207.673 24.7493L207.673 38L205.274 38L205.274 32.4519L197.724 32.4519L197.724 38L195.325 38L195.325 24.7493ZM217.075 24.6272Q219.827 24.6272 221.286 25.9761Q222.751 27.325 222.751 29.9983L222.751 38L220.474 38L220.474 36.2483Q219.876 37.176 218.759 37.6643Q217.648 38.1526 216.129 38.1526Q213.901 38.1526 212.564 37.0784Q211.227 35.998 211.227 34.2524Q211.227 32.5007 212.503 31.4387Q213.779 30.3767 216.55 30.3767L220.352 30.3767L220.352 29.9006Q220.352 28.3503 219.449 27.5264Q218.552 26.7024 216.8 26.7024Q215.628 26.7024 214.499 27.093Q213.376 27.4775 212.601 28.1245L211.6 26.324Q212.625 25.5 214.047 25.0667Q215.475 24.6272 217.075 24.6272ZM216.525 36.2971Q217.899 36.2971 218.9 35.6868Q219.9 35.0764 220.352 33.9473L220.352 32.0979L216.653 32.0979Q213.602 32.0979 213.602 34.1487Q213.602 35.1497 214.377 35.7234Q215.152 36.2971 216.525 36.2971ZM247.277 35.9004L247.277 41.0762L245.025 41.0762L245.025 38L233.953 38L233.953 41.0762L231.676 41.0762L231.676 35.9004L232.372 35.9004Q233.648 35.8271 234.124 34.0999Q234.6 32.3726 234.777 29.2231L234.972 24.7493L245.251 24.7493L245.251 35.9004L247.277 35.9004ZM236.974 29.4001Q236.877 31.9026 236.559 33.5383Q236.248 35.1741 235.424 35.9004L242.852 35.9004L242.852 26.8489L237.102 26.8489L236.974 29.4001ZM256.077 38.1526Q254.099 38.1526 252.524 37.2798Q250.95 36.4009 250.059 34.8628Q249.174 33.3247 249.174 31.3777Q249.174 29.4246 250.059 27.8865Q250.95 26.3484 252.524 25.4878Q254.099 24.6272 256.077 24.6272Q258.048 24.6272 259.611 25.4878Q261.173 26.3484 262.058 27.8865Q262.949 29.4246 262.949 31.3777Q262.949 33.3247 262.058 34.8628Q261.173 36.4009 259.611 37.2798Q258.048 38.1526 256.077 38.1526ZM256.077 36.053Q257.346 36.053 258.359 35.467Q259.373 34.875 259.946 33.813Q260.526 32.751 260.526 31.3777Q260.526 29.9983 259.946 28.9363Q259.373 27.8743 258.359 27.3005Q257.346 26.7268 256.077 26.7268Q254.801 26.7268 253.788 27.3005Q252.775 27.8743 252.183 28.9363Q251.597 29.9983 251.597 31.3777Q251.597 32.751 252.183 33.813Q252.775 34.875 253.788 35.467Q254.801 36.053 256.077 36.053ZM278.7 24.7493L278.7 38L276.301 38L276.301 26.8489L268.824 26.8489L268.824 38L266.425 38L266.425 24.7493L278.7 24.7493ZM289.027 38.1526Q287.049 38.1526 285.474 37.2798Q283.9 36.4009 283.009 34.8628Q282.124 33.3247 282.124 31.3777Q282.124 29.4246 283.009 27.8865Q283.9 26.3484 285.474 25.4878Q287.049 24.6272 289.027 24.6272Q290.998 24.6272 292.561 25.4878Q294.123 26.3484 295.008 27.8865Q295.899 29.4246 295.899 31.3777Q295.899 33.3247 295.008 34.8628Q294.123 36.4009 292.561 37.2798Q290.998 38.1526 289.027 38.1526ZM289.027 36.053Q290.296 36.053 291.309 35.467Q292.323 34.875 292.896 33.813Q293.476 32.751 293.476 31.3777Q293.476 29.9983 292.896 28.9363Q292.323 27.8743 291.309 27.3005Q290.296 26.7268 289.027 26.7268Q287.751 26.7268 286.738 27.3005Q285.725 27.8743 285.133 28.9363Q284.547 29.9983 284.547 31.3777Q284.547 32.751 285.133 33.813Q285.725 34.875 286.738 35.467Q287.751 36.053 289.027 36.053ZM314.653 24.7493L314.653 38L312.474 38L312.474 28.3259L307.524 36.4985L306.474 36.4985L301.573 28.3015L301.573 38L299.375 38L299.375 24.7493L301.847 24.7493L307.048 33.697L312.4 24.7493L314.653 24.7493ZM325.002 38.1526Q323.024 38.1526 321.449 37.2798Q319.875 36.4009 318.984 34.8628Q318.099 33.3247 318.099 31.3777Q318.099 29.4246 318.984 27.8865Q319.875 26.3484 321.449 25.4878Q323.024 24.6272 325.002 24.6272Q326.973 24.6272 328.536 25.4878Q330.098 26.3484 330.983 27.8865Q331.874 29.4246 331.874 31.3777Q331.874 33.3247 330.983 34.8628Q330.098 36.4009 328.536 37.2798Q326.973 38.1526 325.002 38.1526ZM325.002 36.053Q326.271 36.053 327.284 35.467Q328.298 34.875 328.871 33.813Q329.451 32.751 329.451 31.3777Q329.451 29.9983 328.871 28.9363Q328.298 27.8743 327.284 27.3005Q326.271 26.7268 325.002 26.7268Q323.726 26.7268 322.713 27.3005Q321.7 27.8743 321.108 28.9363Q320.522 29.9983 320.522 31.3777Q320.522 32.751 321.108 33.813Q321.7 34.875 322.713 35.467Q323.726 36.053 325.002 36.053ZM345.098 26.8489L337.749 26.8489L337.749 38L335.35 38L335.35 24.7493L345.098 24.7493L345.098 26.8489ZM352.275 24.6272Q355.027 24.6272 356.486 25.9761Q357.951 27.325 357.951 29.9983L357.951 38L355.674 38L355.674 36.2483Q355.076 37.176 353.959 37.6643Q352.848 38.1526 351.328 38.1526Q349.101 38.1526 347.764 37.0784Q346.427 35.998 346.427 34.2524Q346.427 32.5007 347.703 31.4387Q348.979 30.3767 351.75 30.3767L355.552 30.3767L355.552 29.9006Q355.552 28.3503 354.649 27.5264Q353.752 26.7024 352 26.7024Q350.828 26.7024 349.699 27.093Q348.576 27.4775 347.801 28.1245L346.8 26.324Q347.825 25.5 349.247 25.0667Q350.675 24.6272 352.275 24.6272ZM351.725 36.2971Q353.099 36.2971 354.099 35.6868Q355.1 35.0764 355.552 33.9473L355.552 32.0979L351.853 32.0979Q348.802 32.0979 348.802 34.1487Q348.802 35.1497 349.577 35.7234Q350.352 36.2971 351.725 36.2971ZM369 24.7493L371.399 24.7493L371.399 30.3767L378.949 30.3767L378.949 24.7493L381.348 24.7493L381.348 38L378.949 38L378.949 32.4519L371.399 32.4519L371.399 38L369 38L369 24.7493ZM398.001 31.4509Q398.001 31.7256 397.952 32.1772L387.197 32.1772Q387.423 33.9229 388.735 34.991Q390.048 36.053 392.001 36.053Q394.375 36.053 395.822 34.4478L397.146 35.998Q396.249 37.0479 394.912 37.6033Q393.575 38.1526 391.921 38.1526Q389.822 38.1526 388.198 37.292Q386.575 36.4253 385.684 34.875Q384.799 33.3247 384.799 31.3777Q384.799 29.449 385.659 27.8987Q386.526 26.3484 388.033 25.4878Q389.547 24.6272 391.451 24.6272Q393.35 24.6272 394.833 25.4878Q396.322 26.3484 397.158 27.8987Q398.001 29.449 398.001 31.4509ZM391.451 26.6475Q389.724 26.6475 388.558 27.6973Q387.399 28.7471 387.197 30.45L395.699 30.45Q395.498 28.7776 394.332 27.7156Q393.173 26.6475 391.451 26.6475ZM408.751 24.6272Q410.673 24.6272 412.199 25.4756Q413.725 26.324 414.586 27.8499Q415.446 29.3757 415.446 31.3777Q415.446 33.3735 414.586 34.9116Q413.725 36.4497 412.199 37.3042Q410.673 38.1526 408.751 38.1526Q407.322 38.1526 406.132 37.6033Q404.948 37.0479 404.124 35.998L404.124 42.8523L401.725 42.8523L401.725 24.7493L404.026 24.7493L404.026 26.8489Q404.826 25.7502 406.047 25.1887Q407.274 24.6272 408.751 24.6272ZM408.549 36.053Q409.825 36.053 410.838 35.467Q411.851 34.875 412.437 33.813Q413.023 32.751 413.023 31.3777Q413.023 29.9983 412.437 28.9363Q411.851 27.8743 410.838 27.3005Q409.825 26.7268 408.549 26.7268Q407.298 26.7268 406.285 27.3127Q405.272 27.8987 404.686 28.9485Q404.1 29.9983 404.1 31.3777Q404.1 32.751 404.673 33.813Q405.247 34.875 406.273 35.467Q407.298 36.053 408.549 36.053ZM427.953 31.1274Q430.522 31.7744 430.522 34.3501Q430.522 36.1018 429.21 37.054Q427.898 38 425.298 38L418.925 38L418.925 24.7493L425.078 24.7493Q427.428 24.7493 428.752 25.6404Q430.077 26.5254 430.077 28.1489Q430.077 29.1987 429.509 29.9617Q428.947 30.7246 427.953 31.1274ZM421.275 30.45L424.876 30.45Q426.25 30.45 426.964 29.9495Q427.678 29.449 427.678 28.5029Q427.678 26.5986 424.876 26.5986L421.275 26.5986L421.275 30.45ZM425.127 36.1506Q426.622 36.1506 427.373 35.6746Q428.123 35.1985 428.123 34.1975Q428.123 33.1721 427.434 32.6777Q426.75 32.1772 425.273 32.1772L421.275 32.1772L421.275 36.1506L425.127 36.1506ZM439.952 38.1526Q437.974 38.1526 436.399 37.2798Q434.825 36.4009 433.934 34.8628Q433.049 33.3247 433.049 31.3777Q433.049 29.4246 433.934 27.8865Q434.825 26.3484 436.399 25.4878Q437.974 24.6272 439.952 24.6272Q441.923 24.6272 443.486 25.4878Q445.048 26.3484 445.933 27.8865Q446.824 29.4246 446.824 31.3777Q446.824 33.3247 445.933 34.8628Q445.048 36.4009 443.486 37.2798Q441.923 38.1526 439.952 38.1526ZM439.952 36.053Q441.221 36.053 442.234 35.467Q443.248 34.875 443.821 33.813Q444.401 32.751 444.401 31.3777Q444.401 29.9983 443.821 28.9363Q443.248 27.8743 442.234 27.3005Q441.221 26.7268 439.952 26.7268Q438.676 26.7268 437.663 27.3005Q436.65 27.8743 436.058 28.9363Q435.472 29.9983 435.472 31.3777Q435.472 32.751 436.058 33.813Q436.65 34.875 437.663 35.467Q438.676 36.053 439.952 36.053ZM459.328 31.1274Q461.897 31.7744 461.897 34.3501Q461.897 36.1018 460.585 37.054Q459.273 38 456.673 38L450.3 38L450.3 24.7493L456.453 24.7493Q458.803 24.7493 460.127 25.6404Q461.452 26.5254 461.452 28.1489Q461.452 29.1987 460.884 29.9617Q460.322 30.7246 459.328 31.1274ZM452.65 30.45L456.251 30.45Q457.625 30.45 458.339 29.9495Q459.053 29.449 459.053 28.5029Q459.053 26.5986 456.251 26.5986L452.65 26.5986L452.65 30.45ZM456.502 36.1506Q457.997 36.1506 458.748 35.6746Q459.498 35.1985 459.498 34.1975Q459.498 33.1721 458.809 32.6777Q458.125 32.1772 456.648 32.1772L452.65 32.1772L452.65 36.1506L456.502 36.1506ZM465.65 24.7493L468.049 24.7493L468.049 38L465.65 38L465.65 24.7493ZM466.847 22.198Q466.151 22.198 465.687 21.7524Q465.223 21.3008 465.223 20.6477Q465.223 20.0007 465.687 19.5369Q466.151 19.073 466.847 19.073Q467.549 19.073 468.006 19.5125Q468.47 19.9519 468.47 20.5989Q468.47 21.2764 468.006 21.7402Q467.549 22.198 466.847 22.198ZM472.725 24.7493L475.124 24.7493L475.124 34.3989L483.248 24.7493L485.427 24.7493L485.427 38L483.022 38L483.022 28.3503L474.923 38L472.725 38L472.725 24.7493ZM478.921 23.0281Q477.071 23.0281 476.046 22.1431Q475.026 21.252 474.996 19.5735L476.626 19.5735Q476.65 20.5012 477.26 21.0627Q477.871 21.6243 478.896 21.6243Q479.922 21.6243 480.544 21.0627Q481.173 20.5012 481.197 19.5735L482.876 19.5735Q482.851 21.252 481.801 22.1431Q480.752 23.0281 478.921 23.0281ZM502.574 38.1526Q500.548 38.1526 498.961 37.2798Q497.374 36.4009 496.471 34.8628Q495.574 33.3247 495.574 31.3777Q495.574 29.4246 496.471 27.8865Q497.374 26.3484 498.961 25.4878Q500.548 24.6272 502.574 24.6272Q504.375 24.6272 505.785 25.3535Q507.201 26.0737 507.976 27.447L506.151 28.625Q505.522 27.6729 504.595 27.2029Q503.673 26.7268 502.55 26.7268Q501.25 26.7268 500.212 27.3005Q499.175 27.8743 498.583 28.9363Q497.997 29.9983 497.997 31.3777Q497.997 32.7754 498.583 33.8374Q499.175 34.8994 500.212 35.4792Q501.25 36.053 502.55 36.053Q503.673 36.053 504.595 35.5769Q505.522 35.1008 506.151 34.1487L507.976 35.3022Q507.201 36.6755 505.785 37.4141Q504.375 38.1526 502.574 38.1526ZM511.075 24.7493L513.474 24.7493L513.474 34.3989L521.598 24.7493L523.777 24.7493L523.777 38L521.372 38L521.372 28.3503L513.273 38L511.075 38L511.075 24.7493ZM534.199 38.1526Q532.173 38.1526 530.586 37.2798Q528.999 36.4009 528.096 34.8628Q527.199 33.3247 527.199 31.3777Q527.199 29.4246 528.096 27.8865Q528.999 26.3484 530.586 25.4878Q532.173 24.6272 534.199 24.6272Q536 24.6272 537.41 25.3535Q538.826 26.0737 539.601 27.447L537.776 28.625Q537.147 27.6729 536.22 27.2029Q535.298 26.7268 534.175 26.7268Q532.875 26.7268 531.837 27.3005Q530.8 27.8743 530.208 28.9363Q529.622 29.9983 529.622 31.3777Q529.622 32.7754 530.208 33.8374Q530.8 34.8994 531.837 35.4792Q532.875 36.053 534.175 36.053Q535.298 36.053 536.22 35.5769Q537.147 35.1008 537.776 34.1487L539.601 35.3022Q538.826 36.6755 537.41 37.4141Q536 38.1526 534.199 38.1526ZM552.401 26.8489L547.549 26.8489L547.549 38L545.15 38L545.15 26.8489L540.298 26.8489L540.298 24.7493L552.401 24.7493L552.401 26.8489ZM566.251 31.4509Q566.251 31.7256 566.202 32.1772L555.447 32.1772Q555.673 33.9229 556.985 34.991Q558.298 36.053 560.251 36.053Q562.625 36.053 564.072 34.4478L565.396 35.998Q564.499 37.0479 563.162 37.6033Q561.826 38.1526 560.172 38.1526Q558.072 38.1526 556.448 37.292Q554.825 36.4253 553.934 34.875Q553.049 33.3247 553.049 31.3777Q553.049 29.449 553.909 27.8987Q554.776 26.3484 556.284 25.4878Q557.797 24.6272 559.702 24.6272Q561.6 24.6272 563.083 25.4878Q564.572 26.3484 565.408 27.8987Q566.251 29.449 566.251 31.4509ZM559.702 26.6475Q557.974 26.6475 556.808 27.6973Q555.649 28.7471 555.447 30.45L563.95 30.45Q563.748 28.7776 562.582 27.7156Q561.423 26.6475 559.702 26.6475ZM585.253 24.7493L585.253 38L583.074 38L583.074 28.3259L578.124 36.4985L577.074 36.4985L572.173 28.3015L572.173 38L569.975 38L569.975 24.7493L572.447 24.7493L577.648 33.697L583 24.7493L585.253 24.7493ZM589.926 24.7493L592.324 24.7493L592.324 38L589.926 38L589.926 24.7493ZM591.122 22.198Q590.426 22.198 589.962 21.7524Q589.498 21.3008 589.498 20.6477Q589.498 20.0007 589.962 19.5369Q590.426 19.073 591.122 19.073Q591.824 19.073 592.281 19.5125Q592.745 19.9519 592.745 20.5989Q592.745 21.2764 592.281 21.7402Q591.824 22.198 591.122 22.198ZM597.525 28.0513Q596.823 28.0513 596.323 27.563Q595.823 27.0747 595.823 26.324Q595.823 25.5977 596.323 25.1094Q596.823 24.6211 597.525 24.6211Q598.227 24.6211 598.697 25.0972Q599.173 25.5732 599.173 26.324Q599.173 27.0747 598.685 27.563Q598.203 28.0513 597.525 28.0513ZM597.525 38.1526Q596.823 38.1526 596.323 37.6643Q595.823 37.176 595.823 36.4253Q595.823 35.699 596.323 35.2107Q596.823 34.7224 597.525 34.7224Q598.227 34.7224 598.697 35.1985Q599.173 35.6746 599.173 36.4253Q599.173 37.176 598.685 37.6643Q598.203 38.1526 597.525 38.1526ZM105.325 59.7493L107.724 59.7493L107.724 65.3767L115.274 65.3767L115.274 59.7493L117.673 59.7493L117.673 73L115.274 73L115.274 67.4519L107.724 67.4519L107.724 73L105.325 73L105.325 59.7493ZM128.027 73.1526Q126.049 73.1526 124.474 72.2798Q122.9 71.4009 122.009 69.8628Q121.124 68.3247 121.124 66.3777Q121.124 64.4246 122.009 62.8865Q122.9 61.3484 124.474 60.4878Q126.049 59.6272 128.027 59.6272Q129.998 59.6272 131.561 60.4878Q133.123 61.3484 134.008 62.8865Q134.899 64.4246 134.899 66.3777Q134.899 68.3247 134.008 69.8628Q133.123 71.4009 131.561 72.2798Q129.998 73.1526 128.027 73.1526ZM128.027 71.053Q129.296 71.053 130.309 70.467Q131.323 69.875 131.896 68.813Q132.476 67.751 132.476 66.3777Q132.476 64.9983 131.896 63.9363Q131.323 62.8743 130.309 62.3005Q129.296 61.7268 128.027 61.7268Q126.751 61.7268 125.738 62.3005Q124.725 62.8743 124.133 63.9363Q123.547 64.9983 123.547 66.3777Q123.547 67.751 124.133 68.813Q124.725 69.875 125.738 70.467Q126.751 71.053 128.027 71.053ZM144.052 73.1526Q142.074 73.1526 140.499 72.2798Q138.925 71.4009 138.034 69.8628Q137.149 68.3247 137.149 66.3777Q137.149 64.4246 138.034 62.8865Q138.925 61.3484 140.499 60.4878Q142.074 59.6272 144.052 59.6272Q146.023 59.6272 147.586 60.4878Q149.148 61.3484 150.033 62.8865Q150.924 64.4246 150.924 66.3777Q150.924 68.3247 150.033 69.8628Q149.148 71.4009 147.586 72.2798Q146.023 73.1526 144.052 73.1526ZM144.052 71.053Q145.321 71.053 146.334 70.467Q147.348 69.875 147.921 68.813Q148.501 67.751 148.501 66.3777Q148.501 64.9983 147.921 63.9363Q147.348 62.8743 146.334 62.3005Q145.321 61.7268 144.052 61.7268Q142.776 61.7268 141.763 62.3005Q140.75 62.8743 140.158 63.9363Q139.572 64.9983 139.572 66.3777Q139.572 67.751 140.158 68.813Q140.75 69.875 141.763 70.467Q142.776 71.053 144.052 71.053ZM163.776 61.8489L158.924 61.8489L158.924 73L156.525 73L156.525 61.8489L151.673 61.8489L151.673 59.7493L163.776 59.7493L163.776 61.8489ZM173.251 59.6272Q175.173 59.6272 176.699 60.4756Q178.225 61.324 179.086 62.8499Q179.946 64.3757 179.946 66.3777Q179.946 68.3735 179.086 69.9116Q178.225 71.4497 176.699 72.3042Q175.173 73.1526 173.251 73.1526Q171.822 73.1526 170.632 72.6033Q169.448 72.0479 168.624 70.998L168.624 77.8523L166.225 77.8523L166.225 59.7493L168.526 59.7493L168.526 61.8489Q169.326 60.7502 170.547 60.1887Q171.774 59.6272 173.251 59.6272ZM173.049 71.053Q174.325 71.053 175.338 70.467Q176.351 69.875 176.937 68.813Q177.523 67.751 177.523 66.3777Q177.523 64.9983 176.937 63.9363Q176.351 62.8743 175.338 62.3005Q174.325 61.7268 173.049 61.7268Q171.798 61.7268 170.785 62.3127Q169.772 62.8987 169.186 63.9485Q168.6 64.9983 168.6 66.3777Q168.6 67.751 169.173 68.813Q169.747 69.875 170.773 70.467Q171.798 71.053 173.049 71.053ZM189.102 73.1526Q187.124 73.1526 185.549 72.2798Q183.975 71.4009 183.084 69.8628Q182.199 68.3247 182.199 66.3777Q182.199 64.4246 183.084 62.8865Q183.975 61.3484 185.549 60.4878Q187.124 59.6272 189.102 59.6272Q191.073 59.6272 192.636 60.4878Q194.198 61.3484 195.083 62.8865Q195.974 64.4246 195.974 66.3777Q195.974 68.3247 195.083 69.8628Q194.198 71.4009 192.636 72.2798Q191.073 73.1526 189.102 73.1526ZM189.102 71.053Q190.371 71.053 191.384 70.467Q192.398 69.875 192.971 68.813Q193.551 67.751 193.551 66.3777Q193.551 64.9983 192.971 63.9363Q192.398 62.8743 191.384 62.3005Q190.371 61.7268 189.102 61.7268Q187.826 61.7268 186.813 62.3005Q185.8 62.8743 185.208 63.9363Q184.622 64.9983 184.622 66.3777Q184.622 67.751 185.208 68.813Q185.8 69.875 186.813 70.467Q187.826 71.053 189.102 71.053ZM211.725 59.7493L211.725 73L209.326 73L209.326 61.8489L201.849 61.8489L201.849 73L199.45 73L199.45 59.7493L211.725 59.7493ZM216.375 59.7493L218.774 59.7493L218.774 65.3767L226.324 65.3767L226.324 59.7493L228.723 59.7493L228.723 73L226.324 73L226.324 67.4519L218.774 67.4519L218.774 73L216.375 73L216.375 59.7493ZM238.125 59.6272Q240.877 59.6272 242.336 60.9761Q243.801 62.325 243.801 64.9983L243.801 73L241.524 73L241.524 71.2483Q240.926 72.176 239.809 72.6643Q238.698 73.1526 237.179 73.1526Q234.951 73.1526 233.614 72.0784Q232.277 70.998 232.277 69.2524Q232.277 67.5007 233.553 66.4387Q234.829 65.3767 237.6 65.3767L241.402 65.3767L241.402 64.9006Q241.402 63.3503 240.499 62.5264Q239.602 61.7024 237.85 61.7024Q236.678 61.7024 235.549 62.093Q234.426 62.4775 233.651 63.1245L232.65 61.324Q233.675 60.5 235.097 60.0667Q236.525 59.6272 238.125 59.6272ZM237.575 71.2971Q238.949 71.2971 239.95 70.6868Q240.951 70.0764 241.402 68.9473L241.402 67.0979L237.703 67.0979Q234.652 67.0979 234.652 69.1487Q234.652 70.1497 235.427 70.7234Q236.202 71.2971 237.575 71.2971ZM248.675 69.7224Q249.377 69.7224 249.834 70.2107Q250.298 70.699 250.298 71.4253Q250.298 71.7976 250.213 72.1516Q250.127 72.4995 249.877 73.2258L248.699 76.6987L247.124 76.6987L248.052 72.9756Q247.576 72.7986 247.289 72.3896Q247.002 71.9746 247.002 71.4253Q247.002 70.6746 247.472 70.1985Q247.948 69.7224 248.675 69.7224ZM269.553 66.1274Q272.122 66.7744 272.122 69.3501Q272.122 71.1018 270.81 72.054Q269.498 73 266.898 73L260.525 73L260.525 59.7493L266.678 59.7493Q269.028 59.7493 270.352 60.6404Q271.677 61.5254 271.677 63.1489Q271.677 64.1987 271.109 64.9617Q270.547 65.7246 269.553 66.1274ZM262.875 65.45L266.476 65.45Q267.85 65.45 268.564 64.9495Q269.278 64.449 269.278 63.5029Q269.278 61.5986 266.476 61.5986L262.875 61.5986L262.875 65.45ZM266.727 71.1506Q268.222 71.1506 268.973 70.6746Q269.723 70.1985 269.723 69.1975Q269.723 68.1721 269.034 67.6777Q268.35 67.1772 266.873 67.1772L262.875 67.1772L262.875 71.1506L266.727 71.1506ZM287.851 66.4509Q287.851 66.7256 287.802 67.1772L277.047 67.1772Q277.273 68.9229 278.585 69.991Q279.898 71.053 281.851 71.053Q284.225 71.053 285.672 69.4478L286.996 70.998Q286.099 72.0479 284.762 72.6033Q283.426 73.1526 281.771 73.1526Q279.672 73.1526 278.048 72.292Q276.425 71.4253 275.534 69.875Q274.649 68.3247 274.649 66.3777Q274.649 64.449 275.509 62.8987Q276.376 61.3484 277.884 60.4878Q279.397 59.6272 281.302 59.6272Q283.2 59.6272 284.683 60.4878Q286.172 61.3484 287.008 62.8987Q287.851 64.449 287.851 66.4509ZM281.302 61.6475Q279.574 61.6475 278.408 62.6973Q277.249 63.7471 277.047 65.45L285.55 65.45Q285.348 63.7776 284.182 62.7156Q283.023 61.6475 281.302 61.6475ZM301.323 61.8489L293.974 61.8489L293.974 73L291.575 73L291.575 59.7493L301.323 59.7493L301.323 61.8489ZM315.176 66.4509Q315.176 66.7256 315.127 67.1772L304.372 67.1772Q304.598 68.9229 305.91 69.991Q307.223 71.053 309.176 71.053Q311.55 71.053 312.997 69.4478L314.321 70.998Q313.424 72.0479 312.087 72.6033Q310.751 73.1526 309.096 73.1526Q306.997 73.1526 305.373 72.292Q303.75 71.4253 302.859 69.875Q301.974 68.3247 301.974 66.3777Q301.974 64.449 302.834 62.8987Q303.701 61.3484 305.209 60.4878Q306.722 59.6272 308.626 59.6272Q310.525 59.6272 312.008 60.4878Q313.497 61.3484 314.333 62.8987Q315.176 64.449 315.176 66.4509ZM308.626 61.6475Q306.899 61.6475 305.733 62.6973Q304.574 63.7471 304.372 65.45L312.875 65.45Q312.673 63.7776 311.507 62.7156Q310.348 61.6475 308.626 61.6475ZM328.226 61.8489L323.374 61.8489L323.374 73L320.975 73L320.975 61.8489L316.123 61.8489L316.123 59.7493L328.226 59.7493L328.226 61.8489ZM335.777 73.1526Q333.799 73.1526 332.224 72.2798Q330.65 71.4009 329.759 69.8628Q328.874 68.3247 328.874 66.3777Q328.874 64.4246 329.759 62.8865Q330.65 61.3484 332.224 60.4878Q333.799 59.6272 335.777 59.6272Q337.748 59.6272 339.311 60.4878Q340.873 61.3484 341.758 62.8865Q342.649 64.4246 342.649 66.3777Q342.649 68.3247 341.758 69.8628Q340.873 71.4009 339.311 72.2798Q337.748 73.1526 335.777 73.1526ZM335.777 71.053Q337.046 71.053 338.059 70.467Q339.073 69.875 339.646 68.813Q340.226 67.751 340.226 66.3777Q340.226 64.9983 339.646 63.9363Q339.073 62.8743 338.059 62.3005Q337.046 61.7268 335.777 61.7268Q334.501 61.7268 333.488 62.3005Q332.475 62.8743 331.883 63.9363Q331.297 64.9983 331.297 66.3777Q331.297 67.751 331.883 68.813Q332.475 69.875 333.488 70.467Q334.501 71.053 335.777 71.053ZM355.501 61.8489L350.649 61.8489L350.649 73L348.25 73L348.25 61.8489L343.398 61.8489L343.398 59.7493L355.501 59.7493L355.501 61.8489ZM364.976 59.6272Q366.898 59.6272 368.424 60.4756Q369.95 61.324 370.811 62.8499Q371.671 64.3757 371.671 66.3777Q371.671 68.3735 370.811 69.9116Q369.95 71.4497 368.424 72.3042Q366.898 73.1526 364.976 73.1526Q363.547 73.1526 362.357 72.6033Q361.173 72.0479 360.349 70.998L360.349 77.8523L357.95 77.8523L357.95 59.7493L360.251 59.7493L360.251 61.8489Q361.051 60.7502 362.272 60.1887Q363.499 59.6272 364.976 59.6272ZM364.774 71.053Q366.05 71.053 367.063 70.467Q368.076 69.875 368.662 68.813Q369.248 67.751 369.248 66.3777Q369.248 64.9983 368.662 63.9363Q368.076 62.8743 367.063 62.3005Q366.05 61.7268 364.774 61.7268Q363.523 61.7268 362.51 62.3127Q361.497 62.8987 360.911 63.9485Q360.325 64.9983 360.325 66.3777Q360.325 67.751 360.898 68.813Q361.472 69.875 362.498 70.467Q363.523 71.053 364.774 71.053ZM380.827 73.1526Q378.849 73.1526 377.274 72.2798Q375.7 71.4009 374.809 69.8628Q373.924 68.3247 373.924 66.3777Q373.924 64.4246 374.809 62.8865Q375.7 61.3484 377.274 60.4878Q378.849 59.6272 380.827 59.6272Q382.798 59.6272 384.361 60.4878Q385.923 61.3484 386.808 62.8865Q387.699 64.4246 387.699 66.3777Q387.699 68.3247 386.808 69.8628Q385.923 71.4009 384.361 72.2798Q382.798 73.1526 380.827 73.1526ZM380.827 71.053Q382.096 71.053 383.109 70.467Q384.123 69.875 384.696 68.813Q385.276 67.751 385.276 66.3777Q385.276 64.9983 384.696 63.9363Q384.123 62.8743 383.109 62.3005Q382.096 61.7268 380.827 61.7268Q379.551 61.7268 378.538 62.3005Q377.525 62.8743 376.933 63.9363Q376.347 64.9983 376.347 66.3777Q376.347 67.751 376.933 68.813Q377.525 69.875 378.538 70.467Q379.551 71.053 380.827 71.053ZM403.45 59.7493L403.45 73L401.051 73L401.051 61.8489L393.574 61.8489L393.574 73L391.175 73L391.175 59.7493L403.45 59.7493ZM408.1 59.7493L410.499 59.7493L410.499 65.3767L418.049 65.3767L418.049 59.7493L420.448 59.7493L420.448 73L418.049 73L418.049 67.4519L410.499 67.4519L410.499 73L408.1 73L408.1 59.7493ZM429.85 59.6272Q432.602 59.6272 434.061 60.9761Q435.526 62.325 435.526 64.9983L435.526 73L433.249 73L433.249 71.2483Q432.651 72.176 431.534 72.6643Q430.423 73.1526 428.904 73.1526Q426.676 73.1526 425.339 72.0784Q424.002 70.998 424.002 69.2524Q424.002 67.5007 425.278 66.4387Q426.554 65.3767 429.325 65.3767L433.127 65.3767L433.127 64.9006Q433.127 63.3503 432.224 62.5264Q431.327 61.7024 429.575 61.7024Q428.403 61.7024 427.274 62.093Q426.151 62.4775 425.376 63.1245L424.375 61.324Q425.4 60.5 426.822 60.0667Q428.25 59.6272 429.85 59.6272ZM429.3 71.2971Q430.674 71.2971 431.674 70.6868Q432.675 70.0764 433.127 68.9473L433.127 67.0979L429.428 67.0979Q426.377 67.0979 426.377 69.1487Q426.377 70.1497 427.152 70.7234Q427.927 71.2971 429.3 71.2971ZM440.4 69.7224Q441.102 69.7224 441.559 70.2107Q442.023 70.699 442.023 71.4253Q442.023 71.7976 441.938 72.1516Q441.852 72.4995 441.602 73.2258L440.424 76.6987L438.849 76.6987L439.777 72.9756Q439.301 72.7986 439.014 72.3896Q438.727 71.9746 438.727 71.4253Q438.727 70.6746 439.197 70.1985Q439.673 69.7224 440.4 69.7224ZM464.525 59.7493L464.525 73L462.126 73L462.126 61.8489L454.649 61.8489L454.649 73L452.25 73L452.25 59.7493L464.525 59.7493ZM476.201 59.6272Q478.123 59.6272 479.649 60.4756Q481.175 61.324 482.036 62.8499Q482.896 64.3757 482.896 66.3777Q482.896 68.3735 482.036 69.9116Q481.175 71.4497 479.649 72.3042Q478.123 73.1526 476.201 73.1526Q474.772 73.1526 473.582 72.6033Q472.398 72.0479 471.574 70.998L471.574 77.8523L469.175 77.8523L469.175 59.7493L471.476 59.7493L471.476 61.8489Q472.276 60.7502 473.497 60.1887Q474.724 59.6272 476.201 59.6272ZM475.999 71.053Q477.275 71.053 478.288 70.467Q479.301 69.875 479.887 68.813Q480.473 67.751 480.473 66.3777Q480.473 64.9983 479.887 63.9363Q479.301 62.8743 478.288 62.3005Q477.275 61.7268 475.999 61.7268Q474.748 61.7268 473.735 62.3127Q472.722 62.8987 472.136 63.9485Q471.55 64.9983 471.55 66.3777Q471.55 67.751 472.123 68.813Q472.697 69.875 473.723 70.467Q474.748 71.053 475.999 71.053ZM492.052 73.1526Q490.074 73.1526 488.499 72.2798Q486.925 71.4009 486.034 69.8628Q485.149 68.3247 485.149 66.3777Q485.149 64.4246 486.034 62.8865Q486.925 61.3484 488.499 60.4878Q490.074 59.6272 492.052 59.6272Q494.023 59.6272 495.586 60.4878Q497.148 61.3484 498.033 62.8865Q498.924 64.4246 498.924 66.3777Q498.924 68.3247 498.033 69.8628Q497.148 71.4009 495.586 72.2798Q494.023 73.1526 492.052 73.1526ZM492.052 71.053Q493.321 71.053 494.334 70.467Q495.348 69.875 495.921 68.813Q496.501 67.751 496.501 66.3777Q496.501 64.9983 495.921 63.9363Q495.348 62.8743 494.334 62.3005Q493.321 61.7268 492.052 61.7268Q490.776 61.7268 489.763 62.3005Q488.75 62.8743 488.158 63.9363Q487.572 64.9983 487.572 66.3777Q487.572 67.751 488.158 68.813Q488.75 69.875 489.763 70.467Q490.776 71.053 492.052 71.053ZM511.776 61.8489L506.924 61.8489L506.924 73L504.525 73L504.525 61.8489L499.673 61.8489L499.673 59.7493L511.776 59.7493L511.776 61.8489ZM514.225 59.7493L516.624 59.7493L516.624 69.3989L524.748 59.7493L526.927 59.7493L526.927 73L524.522 73L524.522 63.3503L516.423 73L514.225 73L514.225 59.7493ZM541.451 61.8489L536.599 61.8489L536.599 73L534.2 73L534.2 61.8489L529.348 61.8489L529.348 59.7493L541.451 59.7493L541.451 61.8489ZM550.926 59.6272Q552.848 59.6272 554.374 60.4756Q555.9 61.324 556.761 62.8499Q557.621 64.3757 557.621 66.3777Q557.621 68.3735 556.761 69.9116Q555.9 71.4497 554.374 72.3042Q552.848 73.1526 550.926 73.1526Q549.497 73.1526 548.307 72.6033Q547.123 72.0479 546.299 70.998L546.299 77.8523L543.9 77.8523L543.9 59.7493L546.201 59.7493L546.201 61.8489Q547.001 60.7502 548.222 60.1887Q549.449 59.6272 550.926 59.6272ZM550.724 71.053Q552 71.053 553.013 70.467Q554.026 69.875 554.612 68.813Q555.198 67.751 555.198 66.3777Q555.198 64.9983 554.612 63.9363Q554.026 62.8743 553.013 62.3005Q552 61.7268 550.724 61.7268Q549.473 61.7268 548.46 62.3127Q547.447 62.8987 546.861 63.9485Q546.275 64.9983 546.275 66.3777Q546.275 67.751 546.848 68.813Q547.422 69.875 548.448 70.467Q549.473 71.053 550.724 71.053ZM561.1 59.7493L563.499 59.7493L563.499 69.3989L571.623 59.7493L573.802 59.7493L573.802 73L571.397 73L571.397 63.3503L563.298 73L561.1 73L561.1 59.7493ZM587.478 66.1274Q590.047 66.7744 590.047 69.3501Q590.047 71.1018 588.735 72.054Q587.423 73 584.823 73L578.45 73L578.45 59.7493L584.603 59.7493Q586.953 59.7493 588.277 60.6404Q589.602 61.5254 589.602 63.1489Q589.602 64.1987 589.034 64.9617Q588.472 65.7246 587.478 66.1274ZM580.8 65.45L584.401 65.45Q585.775 65.45 586.489 64.9495Q587.203 64.449 587.203 63.5029Q587.203 61.5986 584.401 61.5986L580.8 61.5986L580.8 65.45ZM584.652 71.1506Q586.147 71.1506 586.898 70.6746Q587.648 70.1985 587.648 69.1975Q587.648 68.1721 586.959 67.6777Q586.275 67.1772 584.798 67.1772L580.8 67.1772L580.8 71.1506L584.652 71.1506ZM599.477 73.1526Q597.499 73.1526 595.924 72.2798Q594.35 71.4009 593.459 69.8628Q592.574 68.3247 592.574 66.3777Q592.574 64.4246 593.459 62.8865Q594.35 61.3484 595.924 60.4878Q597.499 59.6272 599.477 59.6272Q601.448 59.6272 603.011 60.4878Q604.573 61.3484 605.458 62.8865Q606.349 64.4246 606.349 66.3777Q606.349 68.3247 605.458 69.8628Q604.573 71.4009 603.011 72.2798Q601.448 73.1526 599.477 73.1526ZM599.477 71.053Q600.746 71.053 601.759 70.467Q602.773 69.875 603.346 68.813Q603.926 67.751 603.926 66.3777Q603.926 64.9983 603.346 63.9363Q602.773 62.8743 601.759 62.3005Q600.746 61.7268 599.477 61.7268Q598.201 61.7268 597.188 62.3005Q596.175 62.8743 595.583 63.9363Q594.997 64.9983 594.997 66.3777Q594.997 67.751 595.583 68.813Q596.175 69.875 597.188 70.467Q598.201 71.053 599.477 71.053ZM621.424 67.397L618.848 67.397L618.848 73L616.449 73L616.449 67.397L613.874 67.397L610.224 73L607.374 73L611.927 66.1519L607.728 59.7493L610.273 59.7493L613.849 65.3523L616.449 65.3523L616.449 59.7493L618.848 59.7493L618.848 65.3523L621.448 65.3523L625.025 59.7493L627.601 59.7493L623.401 66.1763L627.948 73L625.098 73L621.424 67.397ZM630.6 59.7493L632.999 59.7493L632.999 65.3767L640.549 65.3767L640.549 59.7493L642.948 59.7493L642.948 73L640.549 73L640.549 67.4519L632.999 67.4519L632.999 73L630.6 73L630.6 59.7493ZM652.35 59.6272Q655.102 59.6272 656.561 60.9761Q658.026 62.325 658.026 64.9983L658.026 73L655.749 73L655.749 71.2483Q655.151 72.176 654.034 72.6643Q652.923 73.1526 651.404 73.1526Q649.176 73.1526 647.839 72.0784Q646.502 70.998 646.502 69.2524Q646.502 67.5007 647.778 66.4387Q649.054 65.3767 651.825 65.3767L655.627 65.3767L655.627 64.9006Q655.627 63.3503 654.724 62.5264Q653.827 61.7024 652.075 61.7024Q650.903 61.7024 649.774 62.093Q648.651 62.4775 647.876 63.1245L646.875 61.324Q647.9 60.5 649.322 60.0667Q650.75 59.6272 652.35 59.6272ZM651.8 71.2971Q653.174 71.2971 654.175 70.6868Q655.176 70.0764 655.627 68.9473L655.627 67.0979L651.928 67.0979Q648.877 67.0979 648.877 69.1487Q648.877 70.1497 649.652 70.7234Q650.427 71.2971 651.8 71.2971Z" fill="#000000" fill-opacity="1.000000" fill-rule="evenodd"/>
	<path id="Не викликає седації" d="M120.773 135.501L120.773 153L118.271 153L118.271 145.2L108.225 145.2L108.225 153L105.722 153L105.722 135.501L108.225 135.501L108.225 143.027L118.271 143.027L118.271 135.501L120.773 135.501ZM137.801 146.451Q137.801 146.726 137.752 147.177L126.997 147.177Q127.223 148.923 128.535 149.991Q129.848 151.053 131.801 151.053Q134.175 151.053 135.622 149.448L136.946 150.998Q136.049 152.048 134.712 152.603Q133.375 153.153 131.721 153.153Q129.622 153.153 127.998 152.292Q126.375 151.425 125.484 149.875Q124.599 148.325 124.599 146.378Q124.599 144.449 125.459 142.899Q126.326 141.348 127.833 140.488Q129.347 139.627 131.251 139.627Q133.15 139.627 134.633 140.488Q136.122 141.348 136.958 142.899Q137.801 144.449 137.801 146.451ZM131.251 141.647Q129.524 141.647 128.358 142.697Q127.199 143.747 126.997 145.45L135.5 145.45Q135.298 143.778 134.132 142.716Q132.973 141.647 131.251 141.647ZM157.278 146.127Q159.847 146.774 159.847 149.35Q159.847 151.102 158.535 152.054Q157.223 153 154.623 153L148.25 153L148.25 139.749L154.403 139.749Q156.753 139.749 158.077 140.64Q159.402 141.525 159.402 143.149Q159.402 144.199 158.834 144.962Q158.272 145.725 157.278 146.127ZM150.6 145.45L154.201 145.45Q155.575 145.45 156.289 144.949Q157.003 144.449 157.003 143.503Q157.003 141.599 154.201 141.599L150.6 141.599L150.6 145.45ZM154.452 151.151Q155.947 151.151 156.698 150.675Q157.448 150.198 157.448 149.198Q157.448 148.172 156.759 147.678Q156.075 147.177 154.598 147.177L150.6 147.177L150.6 151.151L154.452 151.151ZM163.6 139.749L165.999 139.749L165.999 149.399L174.123 139.749L176.302 139.749L176.302 153L173.897 153L173.897 143.35L165.798 153L163.6 153L163.6 139.749ZM186.102 147.397L183.349 147.397L183.349 153L180.95 153L180.95 139.749L183.349 139.749L183.349 145.352L186.151 145.352L190.448 139.749L193.023 139.749L188 146.127L193.377 153L190.551 153L186.102 147.397ZM207.277 139.749L207.277 153L204.873 153L204.873 141.849L199.178 141.849L199.025 144.803Q198.897 147.476 198.549 149.265Q198.201 151.053 197.402 152.127Q196.602 153.201 195.174 153.201Q194.527 153.201 193.697 152.976L193.85 150.949Q194.173 151.022 194.448 151.022Q195.449 151.022 195.949 150.15Q196.45 149.277 196.596 148.074Q196.749 146.872 196.877 144.65L197.103 139.749L207.277 139.749ZM211.925 139.749L214.324 139.749L214.324 149.399L222.448 139.749L224.627 139.749L224.627 153L222.222 153L222.222 143.35L214.123 153L211.925 153L211.925 139.749ZM234.427 147.397L231.674 147.397L231.674 153L229.275 153L229.275 139.749L231.674 139.749L231.674 145.352L234.476 145.352L238.773 139.749L241.348 139.749L236.325 146.127L241.702 153L238.876 153L234.427 147.397ZM248.7 139.627Q251.452 139.627 252.911 140.976Q254.376 142.325 254.376 144.998L254.376 153L252.099 153L252.099 151.248Q251.501 152.176 250.384 152.664Q249.273 153.153 247.754 153.153Q245.526 153.153 244.189 152.078Q242.852 150.998 242.852 149.252Q242.852 147.501 244.128 146.439Q245.404 145.377 248.175 145.377L251.977 145.377L251.977 144.901Q251.977 143.35 251.074 142.526Q250.177 141.702 248.425 141.702Q247.253 141.702 246.124 142.093Q245.001 142.478 244.226 143.125L243.225 141.324Q244.25 140.5 245.672 140.067Q247.1 139.627 248.7 139.627ZM248.15 151.297Q249.524 151.297 250.525 150.687Q251.525 150.076 251.977 148.947L251.977 147.098L248.278 147.098Q245.227 147.098 245.227 149.149Q245.227 150.15 246.002 150.723Q246.777 151.297 248.15 151.297ZM264.621 153.146Q262.601 153.146 260.959 152.274Q259.323 151.401 258.395 149.851Q257.474 148.3 257.474 146.372Q257.474 144.425 258.395 142.874Q259.323 141.324 260.959 140.451Q262.601 139.572 264.621 139.572Q266.373 139.572 267.782 140.128Q269.198 140.677 270.175 141.727L268.771 143.125Q267.172 141.55 264.725 141.55Q262.771 141.55 261.398 142.661Q260.025 143.771 259.75 145.572L266.397 145.572L266.397 147.348L259.799 147.348Q260.123 149.075 261.471 150.137Q262.82 151.199 264.725 151.199Q267.148 151.199 268.771 149.6L270.175 150.974Q269.198 152.048 267.77 152.597Q266.348 153.146 264.621 153.146ZM285.624 153.153Q283.598 153.153 282.011 152.28Q280.424 151.401 279.521 149.863Q278.624 148.325 278.624 146.378Q278.624 144.425 279.521 142.886Q280.424 141.348 282.011 140.488Q283.598 139.627 285.624 139.627Q287.425 139.627 288.835 140.354Q290.251 141.074 291.026 142.447L289.201 143.625Q288.572 142.673 287.645 142.203Q286.723 141.727 285.6 141.727Q284.3 141.727 283.262 142.301Q282.225 142.874 281.633 143.936Q281.047 144.998 281.047 146.378Q281.047 147.775 281.633 148.837Q282.225 149.899 283.262 150.479Q284.3 151.053 285.6 151.053Q286.723 151.053 287.645 150.577Q288.572 150.101 289.201 149.149L291.026 150.302Q290.251 151.676 288.835 152.414Q287.425 153.153 285.624 153.153ZM305.901 146.451Q305.901 146.726 305.852 147.177L295.097 147.177Q295.323 148.923 296.635 149.991Q297.948 151.053 299.901 151.053Q302.275 151.053 303.722 149.448L305.046 150.998Q304.149 152.048 302.812 152.603Q301.475 153.153 299.821 153.153Q297.722 153.153 296.098 152.292Q294.475 151.425 293.584 149.875Q292.699 148.325 292.699 146.378Q292.699 144.449 293.559 142.899Q294.426 141.348 295.934 140.488Q297.447 139.627 299.351 139.627Q301.25 139.627 302.733 140.488Q304.222 141.348 305.058 142.899Q305.901 144.449 305.901 146.451ZM299.351 141.647Q297.624 141.647 296.458 142.697Q295.299 143.747 295.097 145.45L303.6 145.45Q303.398 143.778 302.232 142.716Q301.073 141.647 299.351 141.647ZM322.877 150.9L322.877 156.076L320.625 156.076L320.625 153L309.553 153L309.553 156.076L307.276 156.076L307.276 150.9L307.972 150.9Q309.248 150.827 309.724 149.1Q310.2 147.373 310.377 144.223L310.572 139.749L320.851 139.749L320.851 150.9L322.877 150.9ZM312.574 144.4Q312.477 146.903 312.159 148.538Q311.848 150.174 311.024 150.9L318.452 150.9L318.452 141.849L312.702 141.849L312.574 144.4ZM330.725 139.627Q333.477 139.627 334.936 140.976Q336.401 142.325 336.401 144.998L336.401 153L334.124 153L334.124 151.248Q333.526 152.176 332.409 152.664Q331.298 153.153 329.779 153.153Q327.551 153.153 326.214 152.078Q324.877 150.998 324.877 149.252Q324.877 147.501 326.153 146.439Q327.429 145.377 330.2 145.377L334.002 145.377L334.002 144.901Q334.002 143.35 333.099 142.526Q332.202 141.702 330.45 141.702Q329.278 141.702 328.149 142.093Q327.026 142.478 326.251 143.125L325.25 141.324Q326.275 140.5 327.697 140.067Q329.125 139.627 330.725 139.627ZM330.175 151.297Q331.549 151.297 332.55 150.687Q333.551 150.076 334.002 148.947L334.002 147.098L330.303 147.098Q327.252 147.098 327.252 149.149Q327.252 150.15 328.027 150.723Q328.802 151.297 330.175 151.297ZM354.873 150.9L354.873 156.174L352.603 156.174L352.603 153L340.725 153L340.725 139.749L343.124 139.749L343.124 150.9L350.375 150.9L350.375 139.749L352.774 139.749L352.774 150.9L354.873 150.9ZM357.975 139.749L360.374 139.749L360.374 153L357.975 153L357.975 139.749ZM359.172 137.198Q358.476 137.198 358.012 136.752Q357.548 136.301 357.548 135.648Q357.548 135.001 358.012 134.537Q358.476 134.073 359.172 134.073Q359.874 134.073 360.331 134.512Q360.795 134.952 360.795 135.599Q360.795 136.276 360.331 136.74Q359.874 137.198 359.172 137.198ZM365.002 139.749L367.4 139.749L367.4 153L365.002 153L365.002 139.749ZM364.422 137.375Q363.872 137.375 363.525 137.015Q363.177 136.649 363.177 136.124Q363.177 135.574 363.525 135.214Q363.872 134.848 364.422 134.848Q364.947 134.848 365.295 135.214Q365.649 135.574 365.649 136.124Q365.649 136.673 365.295 137.027Q364.947 137.375 364.422 137.375ZM367.974 137.375Q367.449 137.375 367.095 137.015Q366.747 136.649 366.747 136.124Q366.747 135.574 367.095 135.214Q367.449 134.848 367.974 134.848Q368.523 134.848 368.871 135.214Q369.225 135.574 369.225 136.124Q369.225 136.673 368.871 137.027Q368.523 137.375 367.974 137.375Z" fill="#000000" fill-opacity="1.000000" fill-rule="evenodd"/>
	<path id="Високий рівень безпеки" d="M116.623 257.924Q118.399 258.351 119.309 259.438Q120.224 260.524 120.224 262.227Q120.224 264.498 118.558 265.749Q116.898 267 113.724 267L105.722 267L105.722 249.501L113.248 249.501Q116.123 249.501 117.734 250.667Q119.351 251.827 119.351 254Q119.351 255.428 118.637 256.429Q117.923 257.424 116.623 257.924ZM108.2 257.198L113.077 257.198Q114.902 257.198 115.86 256.478Q116.824 255.751 116.824 254.347Q116.824 252.95 115.848 252.211Q114.877 251.473 113.077 251.473L108.2 251.473L108.2 257.198ZM113.675 265.022Q117.697 265.022 117.697 262.026Q117.697 260.524 116.684 259.816Q115.677 259.102 113.675 259.102L108.2 259.102L108.2 265.022L113.675 265.022ZM124 253.749L126.399 253.749L126.399 263.399L134.523 253.749L136.702 253.749L136.702 267L134.297 267L134.297 257.35L126.198 267L124 267L124 253.749ZM147.124 267.153Q145.098 267.153 143.511 266.28Q141.924 265.401 141.021 263.863Q140.124 262.325 140.124 260.378Q140.124 258.425 141.021 256.886Q141.924 255.348 143.511 254.488Q145.098 253.627 147.124 253.627Q148.925 253.627 150.335 254.354Q151.751 255.074 152.526 256.447L150.701 257.625Q150.072 256.673 149.145 256.203Q148.223 255.727 147.1 255.727Q145.8 255.727 144.762 256.301Q143.725 256.874 143.133 257.936Q142.547 258.998 142.547 260.378Q142.547 261.775 143.133 262.837Q143.725 263.899 144.762 264.479Q145.8 265.053 147.1 265.053Q148.223 265.053 149.145 264.577Q150.072 264.101 150.701 263.149L152.526 264.302Q151.751 265.676 150.335 266.414Q148.925 267.153 147.124 267.153ZM161.102 267.153Q159.124 267.153 157.549 266.28Q155.975 265.401 155.084 263.863Q154.199 262.325 154.199 260.378Q154.199 258.425 155.084 256.886Q155.975 255.348 157.549 254.488Q159.124 253.627 161.102 253.627Q163.073 253.627 164.636 254.488Q166.198 255.348 167.083 256.886Q167.974 258.425 167.974 260.378Q167.974 262.325 167.083 263.863Q166.198 265.401 164.636 266.28Q163.073 267.153 161.102 267.153ZM161.102 265.053Q162.371 265.053 163.384 264.467Q164.398 263.875 164.971 262.813Q165.551 261.751 165.551 260.378Q165.551 258.998 164.971 257.936Q164.398 256.874 163.384 256.301Q162.371 255.727 161.102 255.727Q159.826 255.727 158.813 256.301Q157.8 256.874 157.208 257.936Q156.622 258.998 156.622 260.378Q156.622 261.751 157.208 262.813Q157.8 263.875 158.813 264.467Q159.826 265.053 161.102 265.053ZM176.602 261.397L173.849 261.397L173.849 267L171.45 267L171.45 253.749L173.849 253.749L173.849 259.352L176.651 259.352L180.948 253.749L183.523 253.749L178.5 260.127L183.877 267L181.051 267L176.602 261.397ZM186.4 253.749L188.799 253.749L188.799 263.399L196.923 253.749L199.102 253.749L199.102 267L196.697 267L196.697 257.35L188.598 267L186.4 267L186.4 253.749ZM203.75 253.749L206.149 253.749L206.149 263.399L214.273 253.749L216.452 253.749L216.452 267L214.047 267L214.047 257.35L205.948 267L203.75 267L203.75 253.749ZM209.945 252.028Q208.096 252.028 207.071 251.143Q206.051 250.252 206.021 248.573L207.651 248.573Q207.675 249.501 208.285 250.063Q208.896 250.624 209.921 250.624Q210.946 250.624 211.569 250.063Q212.198 249.501 212.222 248.573L213.901 248.573Q213.876 250.252 212.826 251.143Q211.777 252.028 209.945 252.028ZM234.851 253.627Q236.773 253.627 238.299 254.476Q239.825 255.324 240.686 256.85Q241.546 258.376 241.546 260.378Q241.546 262.374 240.686 263.912Q239.825 265.45 238.299 266.304Q236.773 267.153 234.851 267.153Q233.422 267.153 232.232 266.603Q231.048 266.048 230.224 264.998L230.224 271.852L227.825 271.852L227.825 253.749L230.126 253.749L230.126 255.849Q230.926 254.75 232.147 254.189Q233.374 253.627 234.851 253.627ZM234.649 265.053Q235.925 265.053 236.938 264.467Q237.951 263.875 238.537 262.813Q239.123 261.751 239.123 260.378Q239.123 258.998 238.537 257.936Q237.951 256.874 236.938 256.301Q235.925 255.727 234.649 255.727Q233.398 255.727 232.385 256.313Q231.372 256.899 230.786 257.948Q230.2 258.998 230.2 260.378Q230.2 261.751 230.773 262.813Q231.347 263.875 232.373 264.467Q233.398 265.053 234.649 265.053ZM245.025 253.749L247.424 253.749L247.424 267L245.025 267L245.025 253.749ZM246.222 251.198Q245.526 251.198 245.062 250.752Q244.598 250.301 244.598 249.648Q244.598 249.001 245.062 248.537Q245.526 248.073 246.222 248.073Q246.924 248.073 247.381 248.512Q247.845 248.952 247.845 249.599Q247.845 250.276 247.381 250.74Q246.924 251.198 246.222 251.198ZM261.128 260.127Q263.697 260.774 263.697 263.35Q263.697 265.102 262.385 266.054Q261.073 267 258.473 267L252.1 267L252.1 253.749L258.253 253.749Q260.603 253.749 261.927 254.64Q263.252 255.525 263.252 257.149Q263.252 258.199 262.684 258.962Q262.122 259.725 261.128 260.127ZM254.45 259.45L258.051 259.45Q259.425 259.45 260.139 258.949Q260.853 258.449 260.853 257.503Q260.853 255.599 258.051 255.599L254.45 255.599L254.45 259.45ZM258.302 265.151Q259.797 265.151 260.548 264.675Q261.298 264.198 261.298 263.198Q261.298 262.172 260.609 261.678Q259.925 261.177 258.448 261.177L254.45 261.177L254.45 265.151L258.302 265.151ZM279.426 260.451Q279.426 260.726 279.377 261.177L268.622 261.177Q268.848 262.923 270.16 263.991Q271.473 265.053 273.426 265.053Q275.8 265.053 277.247 263.448L278.571 264.998Q277.674 266.048 276.337 266.603Q275 267.153 273.346 267.153Q271.247 267.153 269.623 266.292Q268 265.425 267.109 263.875Q266.224 262.325 266.224 260.378Q266.224 258.449 267.084 256.899Q267.951 255.348 269.458 254.488Q270.972 253.627 272.876 253.627Q274.775 253.627 276.258 254.488Q277.747 255.348 278.583 256.899Q279.426 258.449 279.426 260.451ZM272.876 255.647Q271.149 255.647 269.983 256.697Q268.824 257.747 268.622 259.45L277.125 259.45Q276.923 257.778 275.757 256.716Q274.598 255.647 272.876 255.647ZM283.15 253.749L285.549 253.749L285.549 259.377L293.099 259.377L293.099 253.749L295.498 253.749L295.498 267L293.099 267L293.099 261.452L285.549 261.452L285.549 267L283.15 267L283.15 253.749ZM306.297 258.248Q308.824 258.272 310.149 259.401Q311.473 260.524 311.473 262.575Q311.473 264.723 310.033 265.889Q308.598 267.049 305.925 267.024L300.175 267L300.175 253.749L302.574 253.749L302.574 258.223L306.297 258.248ZM305.724 265.199Q307.347 265.224 308.183 264.552Q309.026 263.875 309.026 262.551Q309.026 261.25 308.214 260.652Q307.402 260.048 305.724 260.024L302.574 259.975L302.574 265.175L305.724 265.199ZM328.026 254.201Q329.875 254.201 331.322 255.025Q332.774 255.849 333.586 257.314Q334.398 258.772 334.398 260.652Q334.398 262.575 333.537 264.064Q332.677 265.547 331.114 266.377Q329.552 267.201 327.55 267.201Q324.175 267.201 322.337 264.888Q320.5 262.575 320.5 258.376Q320.5 254.299 322.173 251.985Q323.851 249.672 327.3 248.927L333.348 247.573L333.702 249.776L328.124 250.972Q325.523 251.552 324.248 252.925Q322.972 254.299 322.801 256.874Q323.65 255.599 324.999 254.903Q326.347 254.201 328.026 254.201ZM327.599 265.199Q328.874 265.199 329.863 264.626Q330.852 264.052 331.401 263.039Q331.951 262.026 331.951 260.726Q331.951 258.748 330.748 257.552Q329.552 256.349 327.599 256.349Q325.652 256.349 324.437 257.552Q323.222 258.748 323.222 260.726Q323.222 262.026 323.784 263.039Q324.352 264.052 325.346 264.626Q326.347 265.199 327.599 265.199ZM349.801 260.451Q349.801 260.726 349.752 261.177L338.997 261.177Q339.223 262.923 340.535 263.991Q341.848 265.053 343.801 265.053Q346.175 265.053 347.622 263.448L348.946 264.998Q348.049 266.048 346.712 266.603Q345.375 267.153 343.721 267.153Q341.622 267.153 339.998 266.292Q338.375 265.425 337.484 263.875Q336.599 262.325 336.599 260.378Q336.599 258.449 337.459 256.899Q338.326 255.348 339.833 254.488Q341.347 253.627 343.251 253.627Q345.15 253.627 346.633 254.488Q348.122 255.348 348.958 256.899Q349.801 258.449 349.801 260.451ZM343.251 255.647Q341.524 255.647 340.358 256.697Q339.199 257.747 338.997 259.45L347.5 259.45Q347.298 257.778 346.132 256.716Q344.973 255.647 343.251 255.647ZM360.397 260.103Q361.728 260.451 362.448 261.226Q363.174 262.001 363.174 263.149Q363.174 264.327 362.375 265.242Q361.575 266.152 360.159 266.664Q358.749 267.177 356.997 267.177Q355.526 267.177 354.11 266.792Q352.701 266.402 351.602 265.676L352.322 263.851Q353.274 264.449 354.501 264.791Q355.728 265.126 356.973 265.126Q358.676 265.126 359.689 264.54Q360.702 263.948 360.702 262.947Q360.702 262.026 359.884 261.525Q359.073 261.025 357.602 261.025L355.172 261.025L355.172 259.297L357.425 259.297Q358.774 259.297 359.549 258.827Q360.324 258.351 360.324 257.527Q360.324 256.624 359.408 256.124Q358.499 255.623 356.949 255.623Q354.977 255.623 352.774 256.648L352.127 254.799Q354.55 253.572 357.199 253.572Q358.798 253.572 360.074 254.024Q361.349 254.476 362.076 255.3Q362.802 256.124 362.802 257.173Q362.802 258.15 362.149 258.925Q361.502 259.7 360.397 260.103ZM379.1 253.749L379.1 267L376.701 267L376.701 255.849L369.224 255.849L369.224 267L366.825 267L366.825 253.749L379.1 253.749ZM395.726 260.451Q395.726 260.726 395.677 261.177L384.922 261.177Q385.148 262.923 386.46 263.991Q387.773 265.053 389.726 265.053Q392.1 265.053 393.547 263.448L394.871 264.998Q393.974 266.048 392.637 266.603Q391.3 267.153 389.646 267.153Q387.547 267.153 385.923 266.292Q384.3 265.425 383.409 263.875Q382.524 262.325 382.524 260.378Q382.524 258.449 383.384 256.899Q384.251 255.348 385.758 254.488Q387.272 253.627 389.176 253.627Q391.075 253.627 392.558 254.488Q394.047 255.348 394.883 256.899Q395.726 258.449 395.726 260.451ZM389.176 255.647Q387.449 255.647 386.283 256.697Q385.124 257.747 384.922 259.45L393.424 259.45Q393.223 257.778 392.057 256.716Q390.898 255.647 389.176 255.647ZM404.602 261.397L401.849 261.397L401.849 267L399.45 267L399.45 253.749L401.849 253.749L401.849 259.352L404.651 259.352L408.948 253.749L411.523 253.749L406.5 260.127L411.877 267L409.051 267L404.602 261.397ZM414.4 253.749L416.799 253.749L416.799 263.399L424.923 253.749L427.102 253.749L427.102 267L424.697 267L424.697 257.35L416.598 267L414.4 267L414.4 253.749Z" fill="#000000" fill-opacity="1.000000" fill-rule="evenodd"/>
	<path id="Сприяє зниженню рівня тривоги з високого до помірного більш ніж у 60% пацієнтів" d="M113.547 370.201Q110.922 370.201 108.811 369.042Q106.699 367.876 105.496 365.837Q104.3 363.799 104.3 361.248Q104.3 358.702 105.496 356.664Q106.699 354.625 108.823 353.466Q110.947 352.3 113.571 352.3Q115.622 352.3 117.319 352.99Q119.022 353.673 120.224 355.028L118.601 356.603Q116.623 354.528 113.675 354.528Q111.722 354.528 110.147 355.4Q108.573 356.273 107.681 357.811Q106.796 359.349 106.796 361.248Q106.796 363.152 107.681 364.69Q108.573 366.228 110.147 367.101Q111.722 367.974 113.675 367.974Q116.599 367.974 118.601 365.874L120.224 367.449Q119.022 368.798 117.307 369.5Q115.598 370.201 113.547 370.201ZM135.55 356.749L135.55 370L133.151 370L133.151 358.849L125.674 358.849L125.674 370L123.275 370L123.275 356.749L135.55 356.749ZM147.226 356.627Q149.148 356.627 150.674 357.476Q152.2 358.324 153.061 359.85Q153.921 361.376 153.921 363.378Q153.921 365.374 153.061 366.912Q152.2 368.45 150.674 369.304Q149.148 370.153 147.226 370.153Q145.797 370.153 144.607 369.603Q143.423 369.048 142.599 367.998L142.599 374.852L140.2 374.852L140.2 356.749L142.501 356.749L142.501 358.849Q143.301 357.75 144.522 357.189Q145.749 356.627 147.226 356.627ZM147.024 368.053Q148.3 368.053 149.313 367.467Q150.326 366.875 150.912 365.813Q151.498 364.751 151.498 363.378Q151.498 361.998 150.912 360.936Q150.326 359.874 149.313 359.301Q148.3 358.727 147.024 358.727Q145.773 358.727 144.76 359.313Q143.747 359.899 143.161 360.948Q142.575 361.998 142.575 363.378Q142.575 364.751 143.148 365.813Q143.722 366.875 144.748 367.467Q145.773 368.053 147.024 368.053ZM157.4 356.749L159.799 356.749L159.799 366.399L167.923 356.749L170.102 356.749L170.102 370L167.697 370L167.697 360.35L159.598 370L157.4 370L157.4 356.749ZM185.377 356.749L185.377 370L183.222 370L183.222 365.801L179.377 365.801L179.102 365.801L176.197 370L173.627 370L176.85 365.477Q175.349 365.026 174.549 363.988Q173.749 362.95 173.749 361.4Q173.749 359.124 175.3 357.939Q176.85 356.749 179.572 356.749L185.377 356.749ZM176.197 361.473Q176.197 362.798 177.033 363.439Q177.875 364.073 179.548 364.073L183.222 364.073L183.222 358.849L179.652 358.849Q176.197 358.849 176.197 361.473ZM195.971 370.146Q193.951 370.146 192.309 369.274Q190.673 368.401 189.745 366.851Q188.824 365.3 188.824 363.372Q188.824 361.425 189.745 359.874Q190.673 358.324 192.309 357.451Q193.951 356.572 195.971 356.572Q197.723 356.572 199.132 357.128Q200.548 357.677 201.525 358.727L200.121 360.125Q198.522 358.55 196.075 358.55Q194.121 358.55 192.748 359.661Q191.375 360.771 191.1 362.572L197.747 362.572L197.747 364.348L191.149 364.348Q191.473 366.075 192.821 367.137Q194.17 368.199 196.075 368.199Q198.498 368.199 200.121 366.6L201.525 367.974Q200.548 369.048 199.12 369.597Q197.698 370.146 195.971 370.146ZM218.372 363.103Q219.703 363.451 220.423 364.226Q221.149 365.001 221.149 366.149Q221.149 367.327 220.35 368.242Q219.55 369.152 218.134 369.664Q216.724 370.177 214.972 370.177Q213.501 370.177 212.085 369.792Q210.676 369.402 209.577 368.676L210.297 366.851Q211.249 367.449 212.476 367.791Q213.703 368.126 214.948 368.126Q216.651 368.126 217.664 367.54Q218.677 366.948 218.677 365.947Q218.677 365.026 217.859 364.525Q217.048 364.025 215.577 364.025L213.147 364.025L213.147 362.297L215.4 362.297Q216.749 362.297 217.524 361.827Q218.299 361.351 218.299 360.527Q218.299 359.624 217.383 359.124Q216.474 358.623 214.924 358.623Q212.952 358.623 210.749 359.648L210.102 357.799Q212.525 356.572 215.174 356.572Q216.773 356.572 218.049 357.024Q219.324 357.476 220.051 358.3Q220.777 359.124 220.777 360.173Q220.777 361.15 220.124 361.925Q219.477 362.7 218.372 363.103ZM224.8 356.749L227.199 356.749L227.199 362.377L234.749 362.377L234.749 356.749L237.148 356.749L237.148 370L234.749 370L234.749 364.452L227.199 364.452L227.199 370L224.8 370L224.8 356.749ZM241.825 356.749L244.224 356.749L244.224 366.399L252.348 356.749L254.527 356.749L254.527 370L252.122 370L252.122 360.35L244.023 370L241.825 370L241.825 356.749ZM271.224 364.397L268.648 364.397L268.648 370L266.249 370L266.249 364.397L263.674 364.397L260.024 370L257.173 370L261.727 363.152L257.527 356.749L260.073 356.749L263.649 362.352L266.249 362.352L266.249 356.749L268.648 356.749L268.648 362.352L271.248 362.352L274.825 356.749L277.401 356.749L273.201 363.176L277.748 370L274.898 370L271.224 364.397ZM291.926 363.451Q291.926 363.726 291.877 364.177L281.122 364.177Q281.348 365.923 282.66 366.991Q283.973 368.053 285.926 368.053Q288.3 368.053 289.747 366.448L291.071 367.998Q290.174 369.048 288.837 369.603Q287.5 370.153 285.846 370.153Q283.747 370.153 282.123 369.292Q280.5 368.425 279.609 366.875Q278.724 365.325 278.724 363.378Q278.724 361.449 279.584 359.899Q280.451 358.348 281.958 357.488Q283.472 356.627 285.376 356.627Q287.275 356.627 288.758 357.488Q290.247 358.348 291.083 359.899Q291.926 361.449 291.926 363.451ZM285.376 358.647Q283.649 358.647 282.483 359.697Q281.324 360.747 281.122 362.45L289.625 362.45Q289.423 360.778 288.257 359.716Q287.098 358.647 285.376 358.647ZM295.65 356.749L298.049 356.749L298.049 362.377L305.599 362.377L305.599 356.749L307.998 356.749L307.998 370L305.599 370L305.599 364.452L298.049 364.452L298.049 370L295.65 370L295.65 356.749ZM312.675 356.749L315.074 356.749L315.074 362.377L322.624 362.377L322.624 356.749L325.023 356.749L325.023 370L322.624 370L322.624 364.452L315.074 364.452L315.074 370L312.675 370L312.675 356.749ZM341.425 356.627Q343.348 356.627 344.874 357.488Q346.4 358.348 347.272 359.886Q348.151 361.425 348.151 363.378Q348.151 365.325 347.272 366.863Q346.4 368.401 344.874 369.28Q343.348 370.153 341.425 370.153Q339.674 370.153 338.245 369.426Q336.823 368.7 335.908 367.388Q334.998 366.075 334.772 364.397L332.099 364.397L332.099 370L329.7 370L329.7 356.749L332.099 356.749L332.099 362.175L334.803 362.175Q335.047 360.527 335.957 359.264Q336.872 358 338.282 357.317Q339.698 356.627 341.425 356.627ZM341.425 368.053Q342.652 368.053 343.635 367.479Q344.624 366.899 345.197 365.837Q345.777 364.775 345.777 363.378Q345.777 361.998 345.197 360.936Q344.624 359.874 343.635 359.301Q342.652 358.727 341.425 358.727Q340.198 358.727 339.198 359.301Q338.203 359.874 337.635 360.936Q337.073 361.998 337.073 363.378Q337.073 364.775 337.635 365.837Q338.203 366.899 339.198 367.479Q340.198 368.053 341.425 368.053ZM365.351 356.627Q367.273 356.627 368.799 357.476Q370.325 358.324 371.186 359.85Q372.046 361.376 372.046 363.378Q372.046 365.374 371.186 366.912Q370.325 368.45 368.799 369.304Q367.273 370.153 365.351 370.153Q363.922 370.153 362.732 369.603Q361.548 369.048 360.724 367.998L360.724 374.852L358.325 374.852L358.325 356.749L360.626 356.749L360.626 358.849Q361.426 357.75 362.647 357.189Q363.874 356.627 365.351 356.627ZM365.149 368.053Q366.425 368.053 367.438 367.467Q368.451 366.875 369.037 365.813Q369.623 364.751 369.623 363.378Q369.623 361.998 369.037 360.936Q368.451 359.874 367.438 359.301Q366.425 358.727 365.149 358.727Q363.898 358.727 362.885 359.313Q361.872 359.899 361.286 360.948Q360.7 361.998 360.7 363.378Q360.7 364.751 361.273 365.813Q361.847 366.875 362.873 367.467Q363.898 368.053 365.149 368.053ZM375.525 356.749L377.924 356.749L377.924 370L375.525 370L375.525 356.749ZM376.722 354.198Q376.026 354.198 375.562 353.752Q375.098 353.301 375.098 352.648Q375.098 352.001 375.562 351.537Q376.026 351.073 376.722 351.073Q377.424 351.073 377.881 351.512Q378.345 351.952 378.345 352.599Q378.345 353.276 377.881 353.74Q377.424 354.198 376.722 354.198ZM391.628 363.127Q394.197 363.774 394.197 366.35Q394.197 368.102 392.885 369.054Q391.573 370 388.973 370L382.6 370L382.6 356.749L388.753 356.749Q391.103 356.749 392.427 357.64Q393.752 358.525 393.752 360.149Q393.752 361.199 393.184 361.962Q392.622 362.725 391.628 363.127ZM384.95 362.45L388.551 362.45Q389.925 362.45 390.639 361.949Q391.353 361.449 391.353 360.503Q391.353 358.599 388.551 358.599L384.95 358.599L384.95 362.45ZM388.802 368.151Q390.297 368.151 391.048 367.675Q391.798 367.198 391.798 366.198Q391.798 365.172 391.109 364.678Q390.425 364.177 388.948 364.177L384.95 364.177L384.95 368.151L388.802 368.151ZM397.95 356.749L400.349 356.749L400.349 362.377L407.899 362.377L407.899 356.749L410.298 356.749L410.298 370L407.899 370L407.899 364.452L400.349 364.452L400.349 370L397.95 370L397.95 356.749ZM425.602 356.749L425.602 370L423.447 370L423.447 365.801L419.602 365.801L419.327 365.801L416.422 370L413.852 370L417.075 365.477Q415.574 365.026 414.774 363.988Q413.974 362.95 413.974 361.4Q413.974 359.124 415.525 357.939Q417.075 356.749 419.797 356.749L425.602 356.749ZM416.422 361.473Q416.422 362.798 417.258 363.439Q418.1 364.073 419.773 364.073L423.447 364.073L423.447 358.849L419.877 358.849Q416.422 358.849 416.422 361.473ZM446.876 358.849L442.024 358.849L442.024 370L439.625 370L439.625 358.849L434.773 358.849L434.773 356.749L446.876 356.749L446.876 358.849ZM456.351 356.627Q458.273 356.627 459.799 357.476Q461.325 358.324 462.186 359.85Q463.046 361.376 463.046 363.378Q463.046 365.374 462.186 366.912Q461.325 368.45 459.799 369.304Q458.273 370.153 456.351 370.153Q454.922 370.153 453.732 369.603Q452.548 369.048 451.724 367.998L451.724 374.852L449.325 374.852L449.325 356.749L451.626 356.749L451.626 358.849Q452.426 357.75 453.647 357.189Q454.874 356.627 456.351 356.627ZM456.149 368.053Q457.425 368.053 458.438 367.467Q459.451 366.875 460.037 365.813Q460.623 364.751 460.623 363.378Q460.623 361.998 460.037 360.936Q459.451 359.874 458.438 359.301Q457.425 358.727 456.149 358.727Q454.898 358.727 453.885 359.313Q452.872 359.899 452.286 360.948Q451.7 361.998 451.7 363.378Q451.7 364.751 452.273 365.813Q452.847 366.875 453.873 367.467Q454.898 368.053 456.149 368.053ZM466.525 356.749L468.924 356.749L468.924 366.399L477.048 356.749L479.227 356.749L479.227 370L476.822 370L476.822 360.35L468.723 370L466.525 370L466.525 356.749ZM492.903 363.127Q495.472 363.774 495.472 366.35Q495.472 368.102 494.16 369.054Q492.848 370 490.248 370L483.875 370L483.875 356.749L490.028 356.749Q492.378 356.749 493.702 357.64Q495.027 358.525 495.027 360.149Q495.027 361.199 494.459 361.962Q493.897 362.725 492.903 363.127ZM486.225 362.45L489.826 362.45Q491.2 362.45 491.914 361.949Q492.628 361.449 492.628 360.503Q492.628 358.599 489.826 358.599L486.225 358.599L486.225 362.45ZM490.077 368.151Q491.572 368.151 492.323 367.675Q493.073 367.198 493.073 366.198Q493.073 365.172 492.384 364.678Q491.7 364.177 490.223 364.177L486.225 364.177L486.225 368.151L490.077 368.151ZM504.902 370.153Q502.924 370.153 501.349 369.28Q499.775 368.401 498.884 366.863Q497.999 365.325 497.999 363.378Q497.999 361.425 498.884 359.886Q499.775 358.348 501.349 357.488Q502.924 356.627 504.902 356.627Q506.873 356.627 508.436 357.488Q509.998 358.348 510.883 359.886Q511.774 361.425 511.774 363.378Q511.774 365.325 510.883 366.863Q509.998 368.401 508.436 369.28Q506.873 370.153 504.902 370.153ZM504.902 368.053Q506.171 368.053 507.184 367.467Q508.198 366.875 508.771 365.813Q509.351 364.751 509.351 363.378Q509.351 361.998 508.771 360.936Q508.198 359.874 507.184 359.301Q506.171 358.727 504.902 358.727Q503.626 358.727 502.613 359.301Q501.6 359.874 501.008 360.936Q500.422 361.998 500.422 363.378Q500.422 364.751 501.008 365.813Q501.6 366.875 502.613 367.467Q503.626 368.053 504.902 368.053ZM524.998 358.849L517.649 358.849L517.649 370L515.25 370L515.25 356.749L524.998 356.749L524.998 358.849ZM527.45 356.749L529.849 356.749L529.849 366.399L537.973 356.749L540.152 356.749L540.152 370L537.747 370L537.747 360.35L529.648 370L527.45 370L527.45 356.749ZM558.697 363.103Q560.028 363.451 560.748 364.226Q561.474 365.001 561.474 366.149Q561.474 367.327 560.675 368.242Q559.875 369.152 558.459 369.664Q557.049 370.177 555.297 370.177Q553.827 370.177 552.411 369.792Q551.001 369.402 549.902 368.676L550.622 366.851Q551.574 367.449 552.801 367.791Q554.028 368.126 555.273 368.126Q556.976 368.126 557.989 367.54Q559.002 366.948 559.002 365.947Q559.002 365.026 558.184 364.525Q557.373 364.025 555.902 364.025L553.473 364.025L553.473 362.297L555.725 362.297Q557.074 362.297 557.849 361.827Q558.624 361.351 558.624 360.527Q558.624 359.624 557.708 359.124Q556.799 358.623 555.249 358.623Q553.277 358.623 551.074 359.648L550.427 357.799Q552.85 356.572 555.499 356.572Q557.098 356.572 558.374 357.024Q559.649 357.476 560.376 358.3Q561.102 359.124 561.102 360.173Q561.102 361.15 560.449 361.925Q559.802 362.7 558.697 363.103ZM580.878 363.127Q583.447 363.774 583.447 366.35Q583.447 368.102 582.135 369.054Q580.823 370 578.223 370L571.85 370L571.85 356.749L578.003 356.749Q580.353 356.749 581.677 357.64Q583.002 358.525 583.002 360.149Q583.002 361.199 582.434 361.962Q581.872 362.725 580.878 363.127ZM574.2 362.45L577.801 362.45Q579.175 362.45 579.889 361.949Q580.603 361.449 580.603 360.503Q580.603 358.599 577.801 358.599L574.2 358.599L574.2 362.45ZM578.052 368.151Q579.547 368.151 580.298 367.675Q581.048 367.198 581.048 366.198Q581.048 365.172 580.359 364.678Q579.675 364.177 578.198 364.177L574.2 364.177L574.2 368.151L578.052 368.151ZM587.201 356.749L589.599 356.749L589.599 366.399L597.723 356.749L599.902 356.749L599.902 370L597.497 370L597.497 360.35L589.398 370L587.201 370L587.201 356.749ZM610.324 370.153Q608.298 370.153 606.711 369.28Q605.124 368.401 604.221 366.863Q603.324 365.325 603.324 363.378Q603.324 361.425 604.221 359.886Q605.124 358.348 606.711 357.488Q608.298 356.627 610.324 356.627Q612.125 356.627 613.535 357.354Q614.951 358.074 615.726 359.447L613.901 360.625Q613.272 359.673 612.345 359.203Q611.423 358.727 610.3 358.727Q609 358.727 607.962 359.301Q606.925 359.874 606.333 360.936Q605.747 361.998 605.747 363.378Q605.747 364.775 606.333 365.837Q606.925 366.899 607.962 367.479Q609 368.053 610.3 368.053Q611.423 368.053 612.345 367.577Q613.272 367.101 613.901 366.149L615.726 367.302Q614.951 368.676 613.535 369.414Q612.125 370.153 610.324 370.153ZM624.302 370.153Q622.324 370.153 620.75 369.28Q619.175 368.401 618.284 366.863Q617.399 365.325 617.399 363.378Q617.399 361.425 618.284 359.886Q619.175 358.348 620.75 357.488Q622.324 356.627 624.302 356.627Q626.273 356.627 627.836 357.488Q629.398 358.348 630.283 359.886Q631.174 361.425 631.174 363.378Q631.174 365.325 630.283 366.863Q629.398 368.401 627.836 369.28Q626.273 370.153 624.302 370.153ZM624.302 368.053Q625.571 368.053 626.584 367.467Q627.598 366.875 628.171 365.813Q628.751 364.751 628.751 363.378Q628.751 361.998 628.171 360.936Q627.598 359.874 626.584 359.301Q625.571 358.727 624.302 358.727Q623.026 358.727 622.013 359.301Q621 359.874 620.408 360.936Q619.822 361.998 619.822 363.378Q619.822 364.751 620.408 365.813Q621 366.875 622.013 367.467Q623.026 368.053 624.302 368.053ZM639.802 364.397L637.049 364.397L637.049 370L634.651 370L634.651 356.749L637.049 356.749L637.049 362.352L639.851 362.352L644.148 356.749L646.723 356.749L641.7 363.127L647.077 370L644.251 370L639.802 364.397ZM654.827 370.153Q652.849 370.153 651.275 369.28Q649.7 368.401 648.809 366.863Q647.924 365.325 647.924 363.378Q647.924 361.425 648.809 359.886Q649.7 358.348 651.275 357.488Q652.849 356.627 654.827 356.627Q656.798 356.627 658.361 357.488Q659.923 358.348 660.808 359.886Q661.699 361.425 661.699 363.378Q661.699 365.325 660.808 366.863Q659.923 368.401 658.361 369.28Q656.798 370.153 654.827 370.153ZM654.827 368.053Q656.096 368.053 657.109 367.467Q658.123 366.875 658.696 365.813Q659.276 364.751 659.276 363.378Q659.276 361.998 658.696 360.936Q658.123 359.874 657.109 359.301Q656.096 358.727 654.827 358.727Q653.551 358.727 652.538 359.301Q651.525 359.874 650.933 360.936Q650.347 361.998 650.347 363.378Q650.347 364.751 650.933 365.813Q651.525 366.875 652.538 367.467Q653.551 368.053 654.827 368.053ZM674.923 358.849L667.574 358.849L667.574 370L665.176 370L665.176 356.749L674.923 356.749L674.923 358.849ZM682.477 370.153Q680.499 370.153 678.925 369.28Q677.35 368.401 676.459 366.863Q675.574 365.325 675.574 363.378Q675.574 361.425 676.459 359.886Q677.35 358.348 678.925 357.488Q680.499 356.627 682.477 356.627Q684.448 356.627 686.011 357.488Q687.573 358.348 688.458 359.886Q689.349 361.425 689.349 363.378Q689.349 365.325 688.458 366.863Q687.573 368.401 686.011 369.28Q684.448 370.153 682.477 370.153ZM682.477 368.053Q683.746 368.053 684.76 367.467Q685.773 366.875 686.346 365.813Q686.926 364.751 686.926 363.378Q686.926 361.998 686.346 360.936Q685.773 359.874 684.76 359.301Q683.746 358.727 682.477 358.727Q681.201 358.727 680.188 359.301Q679.175 359.874 678.583 360.936Q677.997 361.998 677.997 363.378Q677.997 364.751 678.583 365.813Q679.175 366.875 680.188 367.467Q681.201 368.053 682.477 368.053ZM118.802 402.9L118.802 408.076L116.55 408.076L116.55 405L105.478 405L105.478 408.076L103.201 408.076L103.201 402.9L103.897 402.9Q105.173 402.827 105.649 401.1Q106.125 399.373 106.302 396.223L106.497 391.749L116.776 391.749L116.776 402.9L118.802 402.9ZM108.499 396.4Q108.402 398.903 108.084 400.538Q107.773 402.174 106.949 402.9L114.377 402.9L114.377 393.849L108.627 393.849L108.499 396.4ZM127.602 405.153Q125.624 405.153 124.049 404.28Q122.475 403.401 121.584 401.863Q120.699 400.325 120.699 398.378Q120.699 396.425 121.584 394.886Q122.475 393.348 124.049 392.488Q125.624 391.627 127.602 391.627Q129.573 391.627 131.136 392.488Q132.698 393.348 133.583 394.886Q134.474 396.425 134.474 398.378Q134.474 400.325 133.583 401.863Q132.698 403.401 131.136 404.28Q129.573 405.153 127.602 405.153ZM127.602 403.053Q128.871 403.053 129.884 402.467Q130.898 401.875 131.471 400.813Q132.051 399.751 132.051 398.378Q132.051 396.998 131.471 395.936Q130.898 394.874 129.884 394.301Q128.871 393.727 127.602 393.727Q126.326 393.727 125.313 394.301Q124.3 394.874 123.708 395.936Q123.122 396.998 123.122 398.378Q123.122 399.751 123.708 400.813Q124.3 401.875 125.313 402.467Q126.326 403.053 127.602 403.053ZM156.95 391.749L156.95 405L154.551 405L154.551 393.849L147.074 393.849L147.074 405L144.675 405L144.675 391.749L156.95 391.749ZM167.277 405.153Q165.299 405.153 163.724 404.28Q162.15 403.401 161.259 401.863Q160.374 400.325 160.374 398.378Q160.374 396.425 161.259 394.886Q162.15 393.348 163.724 392.488Q165.299 391.627 167.277 391.627Q169.248 391.627 170.811 392.488Q172.373 393.348 173.258 394.886Q174.149 396.425 174.149 398.378Q174.149 400.325 173.258 401.863Q172.373 403.401 170.811 404.28Q169.248 405.153 167.277 405.153ZM167.277 403.053Q168.546 403.053 169.559 402.467Q170.573 401.875 171.146 400.813Q171.726 399.751 171.726 398.378Q171.726 396.998 171.146 395.936Q170.573 394.874 169.559 394.301Q168.546 393.727 167.277 393.727Q166.001 393.727 164.988 394.301Q163.975 394.874 163.383 395.936Q162.797 396.998 162.797 398.378Q162.797 399.751 163.383 400.813Q163.975 401.875 164.988 402.467Q166.001 403.053 167.277 403.053ZM192.903 391.749L192.903 405L190.724 405L190.724 395.326L185.774 403.499L184.724 403.499L179.823 395.302L179.823 405L177.625 405L177.625 391.749L180.097 391.749L185.298 400.697L190.65 391.749L192.903 391.749ZM197.575 391.749L199.974 391.749L199.974 405L197.575 405L197.575 391.749ZM198.772 389.198Q198.076 389.198 197.612 388.752Q197.148 388.301 197.148 387.648Q197.148 387.001 197.612 386.537Q198.076 386.073 198.772 386.073Q199.474 386.073 199.931 386.512Q200.395 386.952 200.395 387.599Q200.395 388.276 199.931 388.74Q199.474 389.198 198.772 389.198ZM211.676 391.627Q213.598 391.627 215.124 392.476Q216.65 393.324 217.511 394.85Q218.371 396.376 218.371 398.378Q218.371 400.374 217.511 401.912Q216.65 403.45 215.124 404.304Q213.598 405.153 211.676 405.153Q210.247 405.153 209.057 404.603Q207.873 404.048 207.049 402.998L207.049 409.852L204.65 409.852L204.65 391.749L206.951 391.749L206.951 393.849Q207.751 392.75 208.972 392.189Q210.199 391.627 211.676 391.627ZM211.474 403.053Q212.75 403.053 213.763 402.467Q214.776 401.875 215.362 400.813Q215.948 399.751 215.948 398.378Q215.948 396.998 215.362 395.936Q214.776 394.874 213.763 394.301Q212.75 393.727 211.474 393.727Q210.223 393.727 209.21 394.313Q208.197 394.899 207.611 395.948Q207.025 396.998 207.025 398.378Q207.025 399.751 207.598 400.813Q208.172 401.875 209.198 402.467Q210.223 403.053 211.474 403.053ZM221.85 391.749L224.249 391.749L224.249 397.377L231.799 397.377L231.799 391.749L234.198 391.749L234.198 405L231.799 405L231.799 399.452L224.249 399.452L224.249 405L221.85 405L221.85 391.749ZM244.552 405.153Q242.574 405.153 240.999 404.28Q239.425 403.401 238.534 401.863Q237.649 400.325 237.649 398.378Q237.649 396.425 238.534 394.886Q239.425 393.348 240.999 392.488Q242.574 391.627 244.552 391.627Q246.523 391.627 248.086 392.488Q249.648 393.348 250.533 394.886Q251.424 396.425 251.424 398.378Q251.424 400.325 250.533 401.863Q249.648 403.401 248.086 404.28Q246.523 405.153 244.552 405.153ZM244.552 403.053Q245.821 403.053 246.834 402.467Q247.848 401.875 248.421 400.813Q249.001 399.751 249.001 398.378Q249.001 396.998 248.421 395.936Q247.848 394.874 246.834 394.301Q245.821 393.727 244.552 393.727Q243.276 393.727 242.263 394.301Q241.25 394.874 240.658 395.936Q240.072 396.998 240.072 398.378Q240.072 399.751 240.658 400.813Q241.25 401.875 242.263 402.467Q243.276 403.053 244.552 403.053ZM264.648 393.849L257.299 393.849L257.299 405L254.9 405L254.9 391.749L264.648 391.749L264.648 393.849ZM272.202 405.153Q270.224 405.153 268.649 404.28Q267.075 403.401 266.184 401.863Q265.299 400.325 265.299 398.378Q265.299 396.425 266.184 394.886Q267.075 393.348 268.649 392.488Q270.224 391.627 272.202 391.627Q274.173 391.627 275.736 392.488Q277.298 393.348 278.183 394.886Q279.074 396.425 279.074 398.378Q279.074 400.325 278.183 401.863Q277.298 403.401 275.736 404.28Q274.173 405.153 272.202 405.153ZM272.202 403.053Q273.471 403.053 274.484 402.467Q275.498 401.875 276.071 400.813Q276.651 399.751 276.651 398.378Q276.651 396.998 276.071 395.936Q275.498 394.874 274.484 394.301Q273.471 393.727 272.202 393.727Q270.926 393.727 269.913 394.301Q268.9 394.874 268.308 395.936Q267.722 396.998 267.722 398.378Q267.722 399.751 268.308 400.813Q268.9 401.875 269.913 402.467Q270.926 403.053 272.202 403.053ZM296.026 392.201Q297.875 392.201 299.322 393.025Q300.774 393.849 301.586 395.314Q302.398 396.772 302.398 398.652Q302.398 400.575 301.537 402.064Q300.677 403.547 299.114 404.377Q297.552 405.201 295.55 405.201Q292.175 405.201 290.337 402.888Q288.5 400.575 288.5 396.376Q288.5 392.299 290.173 389.985Q291.851 387.672 295.3 386.927L301.348 385.573L301.702 387.776L296.124 388.972Q293.523 389.552 292.248 390.925Q290.972 392.299 290.801 394.874Q291.65 393.599 292.999 392.903Q294.347 392.201 296.026 392.201ZM295.599 403.199Q296.874 403.199 297.863 402.626Q298.852 402.052 299.401 401.039Q299.95 400.026 299.95 398.726Q299.95 396.748 298.748 395.552Q297.552 394.349 295.599 394.349Q293.652 394.349 292.437 395.552Q291.222 396.748 291.222 398.726Q291.222 400.026 291.784 401.039Q292.352 402.052 293.346 402.626Q294.347 403.199 295.599 403.199ZM305.825 391.749L308.224 391.749L308.224 405L305.825 405L305.825 391.749ZM307.022 389.198Q306.326 389.198 305.862 388.752Q305.398 388.301 305.398 387.648Q305.398 387.001 305.862 386.537Q306.326 386.073 307.022 386.073Q307.724 386.073 308.181 386.512Q308.645 386.952 308.645 387.599Q308.645 388.276 308.181 388.74Q307.724 389.198 307.022 389.198ZM324.277 391.749L324.277 405L321.873 405L321.873 393.849L316.178 393.849L316.025 396.803Q315.897 399.476 315.549 401.265Q315.201 403.053 314.402 404.127Q313.602 405.201 312.174 405.201Q311.527 405.201 310.697 404.976L310.85 402.949Q311.173 403.022 311.448 403.022Q312.449 403.022 312.949 402.15Q313.45 401.277 313.596 400.074Q313.749 398.872 313.877 396.65L314.103 391.749L324.277 391.749ZM335.047 396.248Q337.574 396.272 338.899 397.401Q340.223 398.524 340.223 400.575Q340.223 402.723 338.783 403.889Q337.348 405.049 334.675 405.024L328.925 405L328.925 391.749L331.324 391.749L331.324 396.223L335.047 396.248ZM334.474 403.199Q336.097 403.224 336.933 402.552Q337.776 401.875 337.776 400.551Q337.776 399.25 336.964 398.652Q336.152 398.048 334.474 398.024L331.324 397.975L331.324 403.175L334.474 403.199ZM362.172 391.749L362.172 405L343.3 405L343.3 391.749L345.699 391.749L345.699 402.9L351.552 402.9L351.552 391.749L353.951 391.749L353.951 402.9L359.774 402.9L359.774 391.749L362.172 391.749ZM373.55 391.749L375.949 391.749L375.949 397.377L383.499 397.377L383.499 391.749L385.898 391.749L385.898 405L383.499 405L383.499 399.452L375.949 399.452L375.949 405L373.55 405L373.55 391.749ZM390.575 391.749L392.974 391.749L392.974 405L390.575 405L390.575 391.749ZM391.772 389.198Q391.076 389.198 390.612 388.752Q390.148 388.301 390.148 387.648Q390.148 387.001 390.612 386.537Q391.076 386.073 391.772 386.073Q392.474 386.073 392.931 386.512Q393.395 386.952 393.395 387.599Q393.395 388.276 392.931 388.74Q392.474 389.198 391.772 389.198ZM409.699 399.397L407.123 399.397L407.123 405L404.724 405L404.724 399.397L402.149 399.397L398.499 405L395.648 405L400.202 398.152L396.002 391.749L398.548 391.749L402.124 397.352L404.724 397.352L404.724 391.749L407.123 391.749L407.123 397.352L409.723 397.352L413.3 391.749L415.876 391.749L411.676 398.176L416.223 405L413.373 405L409.699 399.397ZM437.429 391.749L431.002 406.324Q430.154 408.351 429.012 409.175Q427.877 409.999 426.278 409.999Q425.301 409.999 424.386 409.688Q423.476 409.376 422.878 408.772L423.904 406.978Q424.929 407.948 426.278 407.948Q427.151 407.948 427.737 407.484Q428.329 407.026 428.805 405.897L429.226 404.976L423.379 391.749L425.875 391.749L430.502 402.351L435.079 391.749L437.429 391.749ZM453.027 394.374Q454.749 394.374 456.11 395.027Q457.477 395.674 458.252 396.888Q459.027 398.103 459.027 399.678Q459.027 401.326 458.209 402.577Q457.398 403.822 455.988 404.512Q454.578 405.201 452.826 405.201Q449.298 405.201 447.388 402.925Q445.477 400.648 445.477 396.473Q445.477 393.55 446.515 391.487Q447.553 389.424 449.414 388.362Q451.276 387.3 453.748 387.3Q455.023 387.3 456.146 387.562Q457.275 387.825 458.099 388.325L457.147 390.272Q455.902 389.448 453.803 389.448Q451.074 389.448 449.524 391.139Q447.974 392.823 447.974 396.052Q447.974 396.449 447.998 396.675Q448.749 395.552 450.061 394.966Q451.373 394.374 453.027 394.374ZM452.722 403.175Q454.45 403.175 455.524 402.253Q456.598 401.326 456.598 399.775Q456.598 398.225 455.512 397.316Q454.425 396.4 452.6 396.4Q451.422 396.4 450.507 396.852Q449.597 397.297 449.085 398.073Q448.578 398.848 448.578 399.8Q448.578 400.728 449.06 401.49Q449.548 402.247 450.482 402.711Q451.422 403.175 452.722 403.175ZM468.05 405.201Q465.974 405.201 464.363 404.139Q462.752 403.077 461.824 401.051Q460.902 399.025 460.902 396.248Q460.902 393.477 461.824 391.45Q462.752 389.424 464.363 388.362Q465.974 387.3 468.05 387.3Q470.1 387.3 471.712 388.362Q473.323 389.424 474.245 391.45Q475.172 393.477 475.172 396.248Q475.172 399.025 474.245 401.051Q473.323 403.077 471.712 404.139Q470.1 405.201 468.05 405.201ZM468.05 402.974Q470.149 402.974 471.413 401.252Q472.676 399.525 472.676 396.248Q472.676 392.976 471.413 391.255Q470.149 389.528 468.05 389.528Q465.926 389.528 464.662 391.255Q463.399 392.976 463.399 396.248Q463.399 399.525 464.662 401.252Q465.926 402.974 468.05 402.974ZM481.374 396.901Q479.549 396.901 478.426 395.576Q477.303 394.252 477.303 392.128Q477.303 389.998 478.426 388.673Q479.549 387.349 481.374 387.349Q483.199 387.349 484.31 388.661Q485.426 389.973 485.426 392.128Q485.426 394.276 484.31 395.588Q483.199 396.901 481.374 396.901ZM491.927 387.501L493.849 387.501L481.899 405L479.976 405L491.927 387.501ZM481.374 395.472Q482.527 395.472 483.174 394.587Q483.827 393.702 483.827 392.128Q483.827 390.553 483.174 389.668Q482.527 388.777 481.374 388.777Q480.251 388.777 479.585 389.68Q478.926 390.577 478.926 392.128Q478.926 393.678 479.585 394.575Q480.251 395.472 481.374 395.472ZM492.452 405.153Q490.627 405.153 489.51 403.84Q488.399 402.522 488.399 400.374Q488.399 398.225 489.51 396.913Q490.627 395.601 492.452 395.601Q494.277 395.601 495.4 396.925Q496.523 398.25 496.523 400.374Q496.523 402.498 495.4 403.828Q494.277 405.153 492.452 405.153ZM492.452 403.724Q493.575 403.724 494.234 402.827Q494.899 401.924 494.899 400.374Q494.899 398.823 494.234 397.926Q493.575 397.023 492.452 397.023Q491.298 397.023 490.645 397.914Q489.998 398.799 489.998 400.374Q489.998 401.948 490.645 402.839Q491.298 403.724 492.452 403.724ZM518.775 391.749L518.775 405L516.376 405L516.376 393.849L508.899 393.849L508.899 405L506.5 405L506.5 391.749L518.775 391.749ZM528.15 391.627Q530.902 391.627 532.361 392.976Q533.826 394.325 533.826 396.998L533.826 405L531.549 405L531.549 403.248Q530.951 404.176 529.834 404.664Q528.723 405.153 527.203 405.153Q524.976 405.153 523.639 404.078Q522.302 402.998 522.302 401.252Q522.302 399.501 523.578 398.439Q524.854 397.377 527.625 397.377L531.427 397.377L531.427 396.901Q531.427 395.35 530.524 394.526Q529.627 393.702 527.875 393.702Q526.703 393.702 525.574 394.093Q524.451 394.478 523.676 395.125L522.675 393.324Q523.7 392.5 525.122 392.067Q526.55 391.627 528.15 391.627ZM527.6 403.297Q528.974 403.297 529.974 402.687Q530.975 402.076 531.427 400.947L531.427 399.098L527.728 399.098Q524.677 399.098 524.677 401.149Q524.677 402.15 525.452 402.723Q526.227 403.297 527.6 403.297ZM552.298 402.9L552.298 408.174L550.028 408.174L550.028 405L538.15 405L538.15 391.749L540.549 391.749L540.549 402.9L547.8 402.9L547.8 391.749L550.199 391.749L550.199 402.9L552.298 402.9ZM555.4 391.749L557.799 391.749L557.799 405L555.4 405L555.4 391.749ZM556.597 389.198Q555.901 389.198 555.437 388.752Q554.973 388.301 554.973 387.648Q554.973 387.001 555.437 386.537Q555.901 386.073 556.597 386.073Q557.299 386.073 557.756 386.512Q558.22 386.952 558.22 387.599Q558.22 388.276 557.756 388.74Q557.299 389.198 556.597 389.198ZM568.396 405.146Q566.376 405.146 564.734 404.274Q563.098 403.401 562.17 401.851Q561.249 400.3 561.249 398.372Q561.249 396.425 562.17 394.874Q563.098 393.324 564.734 392.451Q566.376 391.572 568.396 391.572Q570.148 391.572 571.557 392.128Q572.974 392.677 573.95 393.727L572.546 395.125Q570.947 393.55 568.5 393.55Q566.547 393.55 565.173 394.661Q563.8 395.771 563.525 397.572L570.172 397.572L570.172 399.348L563.574 399.348Q563.898 401.075 565.246 402.137Q566.595 403.199 568.5 403.199Q570.923 403.199 572.546 401.6L573.95 402.974Q572.974 404.048 571.545 404.597Q570.123 405.146 568.396 405.146ZM576.9 391.749L579.299 391.749L579.299 397.377L586.849 397.377L586.849 391.749L589.248 391.749L589.248 405L586.849 405L586.849 399.452L579.299 399.452L579.299 405L576.9 405L576.9 391.749ZM603.801 393.849L598.949 393.849L598.949 405L596.55 405L596.55 393.849L591.698 393.849L591.698 391.749L603.801 391.749L603.801 393.849ZM606.25 391.749L608.649 391.749L608.649 405L606.25 405L606.25 391.749ZM607.447 389.198Q606.751 389.198 606.287 388.752Q605.823 388.301 605.823 387.648Q605.823 387.001 606.287 386.537Q606.751 386.073 607.447 386.073Q608.149 386.073 608.606 386.512Q609.07 386.952 609.07 387.599Q609.07 388.276 608.606 388.74Q608.149 389.198 607.447 389.198ZM622.353 398.127Q624.922 398.774 624.922 401.35Q624.922 403.102 623.61 404.054Q622.298 405 619.698 405L613.325 405L613.325 391.749L619.478 391.749Q621.828 391.749 623.152 392.64Q624.477 393.525 624.477 395.149Q624.477 396.199 623.909 396.962Q623.347 397.725 622.353 398.127ZM615.675 397.45L619.276 397.45Q620.65 397.45 621.364 396.949Q622.078 396.449 622.078 395.503Q622.078 393.599 619.276 393.599L615.675 393.599L615.675 397.45ZM619.527 403.151Q621.022 403.151 621.773 402.675Q622.523 402.198 622.523 401.198Q622.523 400.172 621.834 399.678Q621.15 399.177 619.673 399.177L615.675 399.177L615.675 403.151L619.527 403.151Z" fill="#000000" fill-opacity="1.000000" fill-rule="evenodd"/>
	<ellipse id="Ellipse 19" cx="46.000000" cy="381.414062" rx="46.000000" ry="46.414413" fill="url(#paint_linear_76_3757_0)" fill-opacity="1.000000"/>
	<path id="Vector" d="M61.9277 392.188L77.0547 370.036L80.8203 370.036L65.6934 392.188L61.9277 392.188ZM63.8579 381.999C62.7822 381.999 61.8325 381.756 61.0098 381.271C60.187 380.765 59.5332 380.058 59.0479 379.15C58.5835 378.223 58.3516 377.136 58.3516 375.891C58.3516 374.646 58.5835 373.57 59.0479 372.663C59.5332 371.756 60.187 371.049 61.0098 370.543C61.8325 370.036 62.7822 369.783 63.8579 369.783C64.9341 369.783 65.8833 370.036 66.7061 370.543C67.5288 371.049 68.1724 371.756 68.6367 372.663C69.1006 373.57 69.333 374.646 69.333 375.891C69.333 377.136 69.1006 378.223 68.6367 379.15C68.1724 380.058 67.5288 380.765 66.7061 381.271C65.8833 381.756 64.9341 381.999 63.8579 381.999ZM63.8579 379.403C64.5542 379.403 65.1133 379.119 65.5352 378.549C65.957 377.958 66.168 377.072 66.168 375.891C66.168 374.709 65.957 373.834 65.5352 373.265C65.1133 372.674 64.5542 372.378 63.8579 372.378C63.1831 372.378 62.624 372.674 62.1807 373.265C61.7588 373.834 61.5479 374.709 61.5479 375.891C61.5479 377.052 61.7588 377.927 62.1807 378.518C62.624 379.108 63.1831 379.403 63.8579 379.403ZM78.8901 392.441C77.835 392.441 76.8857 392.199 76.042 391.714C75.2188 391.208 74.5757 390.501 74.1113 389.594C73.6475 388.665 73.415 387.579 73.415 386.334C73.415 385.09 73.6475 384.014 74.1113 383.106C74.5757 382.199 75.2188 381.492 76.042 380.986C76.8857 380.479 77.835 380.227 78.8901 380.227C79.9868 380.227 80.9468 380.479 81.7695 380.986C82.5928 381.492 83.2358 382.199 83.7002 383.106C84.1641 384.014 84.3965 385.09 84.3965 386.334C84.3965 387.579 84.1641 388.665 83.7002 389.594C83.2358 390.501 82.5928 391.208 81.7695 391.714C80.9468 392.199 79.9868 392.441 78.8901 392.441ZM78.8901 389.847C79.5859 389.847 80.145 389.562 80.5674 388.992C80.9893 388.401 81.2002 387.516 81.2002 386.334C81.2002 385.174 80.9893 384.298 80.5674 383.708C80.145 383.117 79.5859 382.821 78.8901 382.821C78.2148 382.821 77.6558 383.117 77.2129 383.708C76.7905 384.277 76.5796 385.152 76.5796 386.334C76.5796 387.516 76.7905 388.401 77.2129 388.992C77.6558 389.562 78.2148 389.847 78.8901 389.847Z" fill="#FFFFFF" fill-opacity="1.000000" fill-rule="nonzero"/>
	<path id="Vector" d="M46.7466 392.568C44.9326 392.568 43.3081 392.125 41.873 391.239C40.4385 390.332 39.3101 389.023 38.4873 387.314C37.6646 385.605 37.2529 383.538 37.2529 381.112C37.2529 378.686 37.6646 376.618 38.4873 374.909C39.3101 373.2 40.4385 371.903 41.873 371.017C43.3081 370.109 44.9326 369.656 46.7466 369.656C48.582 369.656 50.2065 370.109 51.6201 371.017C53.0547 371.903 54.1836 373.2 55.0063 374.909C55.8291 376.618 56.2407 378.686 56.2407 381.112C56.2407 383.538 55.8291 385.605 55.0063 387.314C54.1836 389.023 53.0547 390.332 51.6201 391.239C50.2065 392.125 48.582 392.568 46.7466 392.568ZM46.7466 388.232C47.6118 388.232 48.3608 387.99 48.9937 387.505C49.6475 387.02 50.1538 386.249 50.5127 385.194C50.8926 384.14 51.0825 382.779 51.0825 381.112C51.0825 379.445 50.8926 378.085 50.5127 377.03C50.1538 375.975 49.6475 375.205 48.9937 374.72C48.3608 374.234 47.6118 373.992 46.7466 373.992C45.9028 373.992 45.1538 374.234 44.5 374.72C43.8672 375.205 43.3608 375.975 42.981 377.03C42.6221 378.085 42.4429 379.445 42.4429 381.112C42.4429 382.779 42.6221 384.14 42.981 385.194C43.3608 386.249 43.8672 387.02 44.5 387.505C45.1538 387.99 45.9028 388.232 46.7466 388.232Z" fill="#FFFFFF" fill-opacity="1.000000" fill-rule="nonzero"/>
	<path id="Vector" d="M27.0083 392.568C24.9829 392.568 23.2212 392.146 21.7231 391.302C20.2466 390.458 19.1074 389.225 18.3057 387.6C17.5039 385.976 17.103 383.971 17.103 381.587C17.103 379.034 17.5776 376.871 18.5273 375.1C19.4976 373.327 20.8267 371.977 22.5146 371.049C24.2236 370.12 26.1855 369.656 28.4009 369.656C29.582 369.656 30.7109 369.783 31.7866 370.036C32.8628 370.289 33.791 370.669 34.5718 371.175L32.6729 374.941C32.061 374.52 31.4072 374.234 30.7109 374.087C30.0146 373.918 29.2866 373.834 28.5273 373.834C26.6074 373.834 25.0884 374.414 23.9702 375.574C22.8521 376.734 22.293 378.454 22.293 380.732C22.293 381.112 22.293 381.534 22.293 381.998C22.314 382.463 22.3774 382.927 22.4829 383.391L21.0586 382.062C21.4595 381.238 21.9766 380.553 22.6094 380.005C23.2422 379.435 23.9912 379.013 24.8564 378.738C25.7427 378.443 26.7129 378.296 27.7676 378.296C29.2026 378.296 30.4893 378.58 31.6284 379.15C32.7681 379.72 33.6753 380.521 34.3501 381.556C35.0464 382.589 35.3945 383.802 35.3945 385.194C35.3945 386.692 35.0146 388.001 34.2554 389.119C33.5171 390.216 32.5146 391.07 31.249 391.682C30.0039 392.272 28.5908 392.568 27.0083 392.568ZM26.7236 388.739C27.4409 388.739 28.0737 388.612 28.6221 388.359C29.1919 388.085 29.6348 387.694 29.9512 387.188C30.2681 386.682 30.4263 386.102 30.4263 385.447C30.4263 384.435 30.0781 383.634 29.3818 383.043C28.7065 382.431 27.7993 382.125 26.6602 382.125C25.9009 382.125 25.2363 382.272 24.6665 382.568C24.0967 382.842 23.6431 383.232 23.3057 383.739C22.9893 384.224 22.8311 384.794 22.8311 385.447C22.8311 386.081 22.9893 386.65 23.3057 387.156C23.6221 387.642 24.0654 388.032 24.6348 388.327C25.2046 388.602 25.9009 388.739 26.7236 388.739Z" fill="#FFFFFF" fill-opacity="1.000000" fill-rule="nonzero"/>
	<ellipse id="Ellipse 18" cx="46.000000" cy="267.414062" rx="46.000000" ry="46.414413" fill="url(#paint_linear_76_3756_0)" fill-opacity="1.000000"/>
	<path id="Vector" d="M46.4146 258.667C41.5059 258.667 37.5127 262.66 37.5127 267.568C37.5127 272.477 41.5059 276.47 46.4146 276.47C51.3228 276.47 55.3159 272.477 55.3159 267.568C55.3159 262.66 51.3228 258.667 46.4146 258.667ZM51.6992 265.892L45.3223 272.269C45.0547 272.537 44.7036 272.671 44.3525 272.671C44.002 272.671 43.6514 272.537 43.3838 272.269L40.9468 269.832C40.4111 269.297 40.4111 268.429 40.9468 267.894C41.4814 267.358 42.3496 267.358 42.8848 267.894L44.3525 269.361L49.7607 263.954C50.2959 263.418 51.1641 263.418 51.6992 263.954C52.2349 264.488 52.2349 265.356 51.6992 265.892Z" fill="#FFFFFF" fill-opacity="1.000000" fill-rule="evenodd"/>
	<path id="Vector" d="M66.2598 256.884L66.2583 256.848C66.2383 256.399 66.2246 255.924 66.2163 255.396C66.1782 252.82 64.1304 250.689 61.5542 250.545C56.1826 250.245 52.0273 248.494 48.4771 245.033L48.4468 245.004C47.2886 243.942 45.5415 243.942 44.3833 245.004L44.353 245.033C40.8022 248.494 36.647 250.245 31.2754 250.546C28.6997 250.689 26.6514 252.82 26.6133 255.396C26.6055 255.921 26.5918 256.396 26.5713 256.848L26.5693 256.933C26.4648 262.409 26.335 269.227 28.6152 275.414C29.8696 278.816 31.7686 281.774 34.2598 284.205C37.0967 286.975 40.813 289.172 45.3047 290.738C45.4512 290.789 45.603 290.831 45.7578 290.862C45.9756 290.905 46.1953 290.927 46.415 290.927C46.6343 290.927 46.8545 290.905 47.0723 290.862C47.2271 290.831 47.3799 290.789 47.5264 290.738C52.0132 289.169 55.7256 286.97 58.5601 284.201C61.0503 281.77 62.9492 278.811 64.2041 275.407C66.4932 269.201 66.3638 262.372 66.2598 256.884ZM46.4141 279.211C39.9941 279.211 34.771 273.988 34.771 267.568C34.771 261.148 39.9941 255.925 46.4141 255.925C52.834 255.925 58.0571 261.148 58.0571 267.568C58.0571 273.988 52.834 279.211 46.4141 279.211Z" fill="#FFFFFF" fill-opacity="1.000000" fill-rule="evenodd"/>
	<ellipse id="Ellipse 17" cx="46.000000" cy="153.414062" rx="46.000000" ry="46.414413" fill="url(#paint_linear_76_3755_0)" fill-opacity="1.000000"/>
	<path id="Vector" d="M66.0903 139.488C63.3115 136.764 59.6245 135.214 55.7241 135.214C52.3579 135.214 49.0449 136.336 46.4268 138.474C40.0679 133.344 30.7705 134.306 25.6406 140.664C21.8472 145.366 21.3125 151.992 24.3052 157.229L31.4653 157.229L38.8926 144.351L43.7549 159.099L49.2051 149.427L53.8003 157.282L58.1821 157.282C59.0903 157.282 59.7852 157.977 59.7852 158.885C59.7852 159.793 59.0903 160.488 58.1821 160.488L51.9839 160.488L49.2588 155.893L42.9536 166.953L38.0376 152.152L33.2817 160.435L26.7627 160.435L46.4268 180.099L66.1973 160.328C71.9146 154.557 71.8608 145.206 66.0903 139.488Z" fill="#FFFFFF" fill-opacity="1.000000" fill-rule="evenodd"/>
	<ellipse id="Ellipse 16" cx="46.000000" cy="46.414062" rx="46.000000" ry="46.414413" fill="url(#paint_linear_76_3716_0)" fill-opacity="1.000000"/>
	<path id="Vector" d="M45.4722 57.0176C43.6133 57.0176 41.9238 56.0889 40.938 54.5957C39.9805 55.3281 38.7979 55.75 37.5586 55.75C36.3193 55.75 35.165 55.3281 34.2354 54.624C34.1509 53.6943 34.0947 50.1465 37.8965 47.3867C37.8965 47.3584 37.9248 47.3301 37.9526 47.3301C38.46 46.7949 38.5161 46.2041 38.5444 45.7246C38.5723 45.3311 38.6006 44.9648 38.8823 44.627C39.3325 44.0352 40.2622 43.4434 41.2759 43.3877C42.0645 43.3311 42.7686 43.6123 43.3599 44.2041C43.585 44.4297 43.9233 44.4297 44.1484 44.2041C44.3735 44.0068 44.3735 43.6406 44.1484 43.416C43.3315 42.5986 42.3179 42.2051 41.2197 42.2607C40.0088 42.3174 38.7412 42.9648 38.0093 43.9229C37.5024 44.542 37.4458 45.1621 37.418 45.6406C37.3896 46.0068 37.3613 46.2314 37.249 46.4004L35.8125 44.8232C35.6997 44.542 35.2773 43.3594 36.1787 42.458C37.1079 41.5283 38.1216 39.4443 37.4741 37.6992C37.3896 37.4736 37.2769 37.2197 37.0796 36.9668C39.896 35.5586 40.6846 29.8418 40.8535 27.7578C41.8394 26.2646 43.5288 25.3076 45.4155 25.3076C47.5562 25.3076 49.4146 26.5186 50.3159 28.3486C50.147 28.7148 49.978 29.1943 49.8936 29.6445C49.1895 29.6162 47.9785 29.7295 47.0488 30.5459C46.4014 31.1367 45.979 32.0098 45.8379 33.1084C44.8809 33.1367 42.9658 33.418 41.5293 35.2207C41.332 35.4736 41.3604 35.8115 41.6138 36.0088C41.7266 36.0938 41.8394 36.1494 41.9517 36.1494C42.1206 36.1494 42.2896 36.0654 42.4023 35.9248C43.5288 34.5166 45.0215 34.2627 45.8101 34.2354C45.8101 34.4043 45.8101 34.5732 45.8379 34.7422C45.8662 35.0234 46.0918 35.249 46.4014 35.249L46.4297 35.249C46.7393 35.2207 46.9644 34.9385 46.9644 34.6289C46.9365 34.3193 46.9082 34.0098 46.9365 33.7275C46.9365 33.7275 46.9365 33.7002 46.9365 33.6719C46.9644 32.6299 47.2744 31.8691 47.8096 31.3906C48.7671 30.5459 50.2593 30.7988 50.2593 30.7988C50.4287 30.8555 50.5977 30.7988 50.7383 30.6865C50.8511 30.6016 50.9355 30.4326 50.9355 30.2637C50.9355 29.7295 51.3579 28.6592 51.6396 28.0957C52.5122 27.5605 53.498 27.251 54.54 27.251C57.0186 27.251 59.1021 28.9121 59.7783 31.1367C59.75 31.1934 59.75 31.25 59.75 31.334C59.6655 33.165 58.4263 34.207 57.2153 35.1924C55.7227 36.4316 54.0332 37.8398 55.9199 40.6836C56.1172 40.9941 56.4268 41.5566 56.2578 41.8672C56.0327 42.3174 55.0469 42.458 54.6245 42.458C54.2866 42.458 54.0615 42.7119 54.0615 43.0215C54.0615 43.3311 54.2866 43.585 54.6245 43.585C54.8218 43.585 56.6523 43.5566 57.2437 42.4014C57.6099 41.7539 57.4688 40.9658 56.8491 40.0361C55.5259 38.0645 56.4268 37.3047 57.9478 36.0654C59.0176 35.1641 60.3413 34.0938 60.7358 32.292C61.1582 32.207 61.6089 32.1514 62.0312 32.1514C65.0444 32.1514 67.4946 34.5732 67.4946 37.5859C67.4946 37.9238 67.4663 38.2617 67.4102 38.5723C69.2686 39.501 70.4517 41.3594 70.4517 43.4434C70.4517 44.8232 69.9443 46.0908 69.0435 47.1045C69.0996 47.4424 69.1279 47.7803 69.1279 48.1182C69.1279 49.583 68.5645 50.9629 67.5508 51.9766C66.5088 53.0186 65.1572 53.582 63.6929 53.582C62.0874 53.582 60.5947 52.8779 59.5811 51.7236C58.9897 53.1318 57.8066 54.2012 56.3706 54.708C56.3706 54.1455 56.3423 53.3281 56.3145 52.9629C56.2017 50.9629 56.061 48.2314 57.2153 47.3584C57.7788 46.9639 58.708 46.9922 59.9473 47.4424C61.2705 47.9492 62.397 47.415 62.9321 46.0068C63.8052 43.7539 63.0732 39.6143 61.2427 38.8535C60.9326 38.7412 60.623 38.8818 60.5103 39.1914C60.3696 39.4727 60.5103 39.8105 60.8203 39.9238C61.834 40.3174 62.6226 43.6689 61.8901 45.584C61.4678 46.6543 60.8481 46.5693 60.3413 46.4004C58.708 45.7812 57.4409 45.8096 56.5679 46.457C54.8779 47.6963 55.0469 50.6533 55.188 53.0469C55.2158 53.4131 55.2441 54.4268 55.2725 54.9619C55.0469 54.9902 54.8218 55.0186 54.5962 55.0186C53.0757 55.0186 51.6396 54.3701 50.6255 53.3008C49.8936 55.4688 47.8374 57.0176 45.4722 57.0176ZM30.9126 50.1465C30.8843 50.1465 30.856 50.1465 30.8281 50.1182C30.5181 50.0898 30.293 49.7803 30.3491 49.4707C30.5181 48.5977 30.2646 47.9492 29.645 47.4707C29.2227 47.1895 28.772 47.0762 28.6313 47.0488C27.2793 47.0205 26.3501 46.6543 25.8149 45.9219C25.083 44.9365 25.4771 43.6973 25.5054 43.6406C25.6182 43.3594 25.9277 43.1904 26.2095 43.2744C26.519 43.3877 26.6602 43.6973 26.5757 44.0068C26.5757 44.0068 26.3501 44.7393 26.7163 45.2744C27.1104 45.8096 28.0117 45.9219 28.6875 45.9219L28.8003 45.9219C28.8286 45.9219 29.5889 46.0625 30.293 46.5693C30.9971 47.0762 31.7573 48.0059 31.4756 49.668C31.4194 49.9492 31.1938 50.1465 30.9126 50.1465ZM33.0811 53.4131C32.771 52.9629 32.5176 52.4551 32.3486 51.9209C31.7573 52.1455 31.0815 52.2588 30.4336 52.2861C27.4204 52.2861 24.9702 49.8369 24.9702 46.8232C24.9702 46.7109 24.9702 46.626 24.9985 46.5137C23.3652 45.5273 22.3794 43.7812 22.3794 41.8672C22.3794 40.0928 23.2524 38.4307 24.6885 37.417C24.6323 37.0791 24.604 36.7695 24.604 36.4316C24.604 35.1641 25.0264 34.0098 25.7588 33.0801C26.125 33.249 28.5752 34.6289 28.5752 36.7412C28.5752 37.502 28.4058 38.2061 28.2651 38.8535C27.9272 40.3457 27.561 41.8945 29.7861 42.9932C29.8423 43.0215 29.9551 43.0498 30.0396 43.0498C30.2363 43.0498 30.4336 42.9365 30.5181 42.7393C30.6592 42.458 30.5464 42.1201 30.2646 41.9795C28.8564 41.2754 29.0254 40.5996 29.3633 39.1064C29.5327 38.4307 29.7017 37.6426 29.7017 36.7412C29.7017 34.3193 27.5049 32.7705 26.5757 32.2354C27.5049 31.4473 28.7441 30.9678 30.0396 30.9678C30.4897 30.9678 30.9126 31.0244 31.335 31.1094C31.8979 28.7148 34.0664 26.9688 36.6294 26.9688C37.7275 26.9688 38.8257 27.3066 39.6987 27.9268C39.4736 30.0107 38.6289 35.5586 36.1504 36.1221C35.4746 35.7275 34.5171 35.3896 33.1655 35.2773C32.8555 35.2773 32.6021 35.502 32.5737 35.8115C32.5459 36.1221 32.771 36.375 33.0811 36.4033C34.3481 36.5156 35.9814 36.8818 36.4321 38.0928C36.8828 39.3037 36.0942 40.9375 35.3901 41.6416C33.7847 43.2471 34.7988 45.3027 34.8267 45.3867C34.855 45.4434 34.8833 45.5 34.9111 45.5273L36.376 47.1328C33.8413 49.3291 33.1934 51.7793 33.0811 53.4131ZM47.3027 52.3428C46.9927 52.3428 46.7676 52.1172 46.7393 51.8359C46.5703 50.0059 46.9927 48.6533 47.9785 47.7803C49.4712 46.4004 51.7241 46.7949 51.8364 46.7949C52.1182 46.8516 52.3433 47.1611 52.2871 47.4707C52.231 47.7803 51.9209 47.9775 51.6113 47.9219C51.583 47.9219 49.8091 47.6113 48.7104 48.5977C48.0347 49.2451 47.7251 50.2871 47.8657 51.752C47.894 52.0615 47.6406 52.3145 47.3306 52.3428L47.3027 52.3428ZM43.7822 53.1035C43.3599 53.1035 42.9658 52.9629 42.543 52.709C42.0361 52.3428 41.7266 51.9482 41.4731 51.582C41.0225 50.9346 40.6284 50.3994 38.7979 50.1182C38.4878 50.0898 38.291 49.8086 38.3188 49.499C38.3755 49.1885 38.6567 48.9639 38.9668 49.0195C41.2759 49.3574 41.8672 50.1748 42.4023 50.9062C42.6274 51.2441 42.8247 51.5264 43.1909 51.752C43.9512 52.2861 44.4863 51.667 44.627 51.4697C44.7959 51.2168 45.1343 51.1602 45.3877 51.3291C45.6411 51.498 45.7256 51.8359 45.5566 52.0898C45.5283 52.1455 45.2466 52.54 44.7397 52.8213C44.4302 53.0186 44.1201 53.1035 43.7822 53.1035Z" fill="#FFFFFF" fill-opacity="1.000000" fill-rule="evenodd"/>
	<path id="Vector" d="M55.8638 61.1572C52.6812 61.1572 51.2168 58.9316 49.7524 56.5381C50.231 56.1162 50.6538 55.6094 51.0195 55.0742C52.0615 55.75 53.3008 56.1445 54.5962 56.1445C55.7788 56.1162 55.582 56.1719 56.7646 55.75C58.0039 55.3271 59.0742 54.5107 59.8623 53.4688C60.9609 54.2568 62.2563 54.6797 63.6362 54.708C62.876 58.3125 59.6934 61.0439 55.8916 61.1289C55.8916 61.1572 55.8916 61.1572 55.8638 61.1572Z" fill="#FFFFFF" fill-opacity="1.000000" fill-rule="evenodd"/>
	<path id="Vector" d="M56.7646 67.7754C56.7368 67.7754 56.7085 67.7754 56.6802 67.7754C56.3706 67.7471 56.1733 67.4658 56.2017 67.1562C56.624 63.8047 55.3564 60.8193 55.3564 60.791C55.2441 60.5098 55.3564 60.2002 55.6665 60.0596C55.9482 59.9463 56.2578 60.0596 56.3984 60.3691C56.4551 60.4814 57.7788 63.6357 57.3281 67.2969C57.2715 67.5781 57.0464 67.7754 56.7646 67.7754Z" fill="#FFFFFF" fill-opacity="1.000000" fill-rule="evenodd"/>
</svg>
