<svg width="391.000000" height="262.123047" viewBox="0 0 391 262.123" fill="none" xmlns="http://www.w3.org/2000/svg" xmlns:xlink="http://www.w3.org/1999/xlink">
	<desc>
			Created with Pixso.
	</desc>
	<defs>
		<filter id="filter_93_202_dd" x="8.289551" y="0.000000" width="188.949219" height="188.949219" filterUnits="userSpaceOnUse" color-interpolation-filters="sRGB">
			<feFlood flood-opacity="0" result="BackgroundImageFix"/>
			<feColorMatrix in="SourceAlpha" type="matrix" values="0 0 0 0 0 0 0 0 0 0 0 0 0 0 0 0 0 0 127 0" result="hardAlpha"/>
			<feOffset dx="4.53119" dy="20.3904"/>
			<feGaussianBlur stdDeviation="8.08062"/>
			<feComposite in2="hardAlpha" operator="out" k2="-1" k3="1"/>
			<feColorMatrix type="matrix" values="0 0 0 0 0 0 0 0 0 0 0 0 0 0 0 0 0 0 0.25 0"/>
			<feBlend mode="normal" in2="BackgroundImageFix" result="effect_dropShadow_1"/>
			<feBlend mode="normal" in="SourceGraphic" in2="effect_dropShadow_1" result="shape"/>
		</filter>
	</defs>
	<path id="х 3" d="M246.052 104.905L235.55 90.7408L224.992 104.905L214.434 104.905L230.355 84.1631L215.126 64.0376L225.758 64.0376L235.793 77.4359L245.809 64.0376L256.143 64.0376L240.838 84.0136L256.834 104.905L246.052 104.905ZM304.516 73.4557Q311.934 74.3713 315.84 78.5011Q319.745 82.6308 319.745 88.8348Q319.745 93.5064 317.372 97.3372Q314.999 101.149 310.215 103.41Q305.431 105.671 298.536 105.671Q292.799 105.671 287.473 104.027Q282.166 102.383 278.41 99.4675L282.69 91.7312Q285.605 94.1978 289.772 95.618Q293.958 97.0195 298.386 97.0195Q303.675 97.0195 306.683 94.8519Q309.71 92.6655 309.71 88.9095Q309.71 85.1535 306.833 83.0606Q303.974 80.949 298.087 80.949L293.191 80.949L293.191 74.1284L305.356 59.665L281.008 59.665L281.008 51.3307L317.521 51.3307L317.521 57.9832L304.516 73.4557Z" fill="#000000" fill-opacity="1.000000" fill-rule="evenodd"/>
	<g filter="url(#filter_93_202_dd)">
		<path id="Vector" d="M147.892 24.4258L115.546 87.9971L48.5747 123.743C35.8647 111.033 28 93.4727 28 74.084C28 35.2959 59.4463 3.85156 98.2344 3.85156C117.634 3.85156 135.188 11.7168 147.892 24.4258Z" fill="#D0CFD5" fill-opacity="1.000000" fill-rule="nonzero"/>
		<path id="Vector" d="M63.5337 115.755C62.2939 114.677 61.0884 113.556 59.9282 112.389C47.2163 99.6787 39.354 82.1182 39.354 62.7295C39.354 46.2266 45.0469 31.0566 54.5732 19.0703C51.6953 21.3564 48.9985 23.8662 46.5103 26.5732C34.709 39.4277 28 56.627 28 74.0811C28 90.7256 34.1172 107.326 45.1309 120.041C46.2349 121.314 47.3823 122.55 48.5747 123.74L63.5337 115.755Z" fill="#B5B4B9" fill-opacity="1.000000" fill-rule="nonzero"/>
		<path id="Vector" d="M168.465 74.082C168.465 112.87 137.02 144.316 98.2334 144.316C78.8384 144.316 61.2837 136.458 48.5737 123.748L48.5737 123.742L147.891 24.4248C160.601 37.1348 168.465 54.6963 168.465 74.082Z" fill="#E6E6E6" fill-opacity="1.000000" fill-rule="nonzero"/>
		<path id="Vector" d="M84.604 32.624C83.5151 32.624 82.4238 32.208 81.5928 31.375C79.9312 29.7139 79.9312 27.0166 81.5928 25.3545L86.4639 20.4863C88.1255 18.8223 90.8223 18.8242 92.4839 20.4863C94.1455 22.1475 94.1455 24.8447 92.4839 26.5068L87.6133 31.377C86.7822 32.208 85.6934 32.624 84.604 32.624Z" fill="#334151" fill-opacity="1.000000" fill-rule="nonzero"/>
		<path id="Vector" d="M138.414 86.4326C137.325 86.4326 136.235 86.0176 135.405 85.1865C133.741 83.5225 133.741 80.8281 135.405 79.1641L140.273 74.2959C141.937 72.6318 144.632 72.6318 146.293 74.2959C147.957 75.957 147.957 78.6543 146.293 80.3154L141.425 85.1865C140.594 86.0176 139.503 86.4326 138.414 86.4326Z" fill="#334151" fill-opacity="1.000000" fill-rule="nonzero"/>
		<path id="Vector" d="M117.702 65.8574C113.346 65.8574 109.095 64.0771 105.898 60.8809C102.441 57.4238 100.642 52.7314 100.958 48.0078C101.116 45.6592 103.156 43.8877 105.491 44.0449C107.837 44.2021 109.611 46.2314 109.454 48.5781C109.301 50.8506 110.199 53.1406 111.918 54.8604C113.638 56.5801 115.928 57.4805 118.201 57.3252C120.549 57.168 122.577 58.9414 122.734 61.2871C122.891 63.6338 121.118 65.6631 118.771 65.8203C118.415 65.8438 118.059 65.8574 117.702 65.8574Z" fill="#334151" fill-opacity="1.000000" fill-rule="nonzero"/>
		<path id="Vector" d="M109.585 132.961C90.1924 132.961 72.6353 125.103 59.9253 112.389C59.9253 112.389 48.5737 123.74 48.5737 123.747C61.2837 136.457 78.8384 144.314 98.2334 144.314L98.2871 144.314C109.559 144.314 120.799 141.56 130.784 136.327C139.447 131.786 147.159 125.399 153.246 117.741C141.257 127.269 126.087 132.961 109.585 132.961Z" fill="#D0CFD5" fill-opacity="1.000000" fill-rule="nonzero"/>
	</g>
	<path id="ДО КIНЦЯ ДНЯ ЧЕРЕЗ РIВНI ПРОМIЖКИ ЧАСУ" d="M40.3363 207.516L40.3363 214.715L37.5531 214.715L37.5531 210.123L20.268 210.123L20.2387 214.715L17.4482 214.715L17.4775 207.516L18.5029 207.516Q20.4804 207.391 21.2861 204.381Q22.099 201.363 22.2822 195.87L22.4872 189.125L37.2529 189.125L37.2529 207.516L40.3363 207.516ZM24.9189 196.141Q24.7724 200.58 24.2157 203.495Q23.6591 206.402 22.4286 207.516L34.2792 207.516L34.2792 191.732L25.0727 191.732L24.9189 196.141ZM53.8948 210.365Q50.7161 210.365 48.1673 208.973Q45.6185 207.574 44.1609 205.113Q42.7107 202.652 42.7107 199.62Q42.7107 196.595 44.1609 194.134Q45.6185 191.673 48.1673 190.282Q50.7161 188.883 53.8948 188.883Q57.0442 188.883 59.5931 190.282Q62.1492 191.673 63.5848 194.12Q65.0276 196.566 65.0276 199.62Q65.0276 202.682 63.5848 205.128Q62.1492 207.574 59.5931 208.973Q57.0442 210.365 53.8948 210.365ZM53.8948 207.691Q56.2093 207.691 58.055 206.644Q59.9007 205.597 60.9627 203.751Q62.0247 201.905 62.0247 199.62Q62.0247 197.342 60.9627 195.497Q59.9007 193.651 58.055 192.604Q56.2093 191.556 53.8948 191.556Q51.5877 191.556 49.7127 192.604Q47.8377 193.651 46.7684 195.497Q45.7063 197.342 45.7063 199.62Q45.7063 201.905 46.7684 203.751Q47.8377 205.597 49.7127 206.644Q51.5877 207.691 53.8948 207.691ZM85.2808 200.88L80.9009 200.88L80.9009 210.123L77.9566 210.123L77.9566 189.125L80.9009 189.125L80.9009 198.243L85.3394 198.243L91.9385 189.125L95.1465 189.125L87.6465 199.291L95.5127 210.123L92.0923 210.123L85.2808 200.88ZM99.1694 189.125L102.172 189.125L102.172 210.123L99.1694 210.123L99.1694 189.125ZM126.648 189.125L126.648 210.123L123.645 210.123L123.645 200.763L111.59 200.763L111.59 210.123L108.587 210.123L108.587 189.125L111.59 189.125L111.59 198.155L123.645 198.155L123.645 189.125L126.648 189.125ZM154.068 207.516L154.068 214.891L151.277 214.891L151.277 210.123L133.187 210.123L133.187 189.125L136.16 189.125L136.16 207.516L147.857 207.516L147.857 189.125L150.831 189.125L150.831 207.516L154.068 207.516ZM173.452 189.125L173.452 210.123L170.508 210.123L170.508 204L164.722 204Q164.18 204 163.909 203.971L159.712 210.123L156.533 210.123L161.177 203.465Q158.928 202.711 157.727 200.96Q156.533 199.203 156.533 196.683Q156.533 193.116 158.826 191.124Q161.118 189.125 165.022 189.125L173.452 189.125ZM159.558 196.654Q159.558 198.99 160.92 200.235Q162.29 201.48 164.963 201.48L170.508 201.48L170.508 191.732L165.139 191.732Q162.436 191.732 160.994 192.992Q159.558 194.251 159.558 196.654ZM208.066 207.516L208.066 214.715L205.283 214.715L205.283 210.123L187.998 210.123L187.969 214.715L185.178 214.715L185.207 207.516L186.233 207.516Q188.21 207.391 189.016 204.381Q189.829 201.363 190.012 195.87L190.217 189.125L204.983 189.125L204.983 207.516L208.066 207.516ZM192.649 196.141Q192.502 200.58 191.946 203.495Q191.389 206.402 190.159 207.516L202.009 207.516L202.009 191.732L192.803 191.732L192.649 196.141ZM230.238 189.125L230.238 210.123L227.235 210.123L227.235 200.763L215.18 200.763L215.18 210.123L212.177 210.123L212.177 189.125L215.18 189.125L215.18 198.155L227.235 198.155L227.235 189.125L230.238 189.125ZM252.172 189.125L252.172 210.123L249.228 210.123L249.228 204L243.442 204Q242.9 204 242.629 203.971L238.432 210.123L235.253 210.123L239.897 203.465Q237.648 202.711 236.447 200.96Q235.253 199.203 235.253 196.683Q235.253 193.116 237.546 191.124Q239.838 189.125 243.742 189.125L252.172 189.125ZM238.278 196.654Q238.278 198.99 239.64 200.235Q241.01 201.48 243.683 201.48L249.228 201.48L249.228 191.732L243.859 191.732Q241.156 191.732 239.714 192.992Q238.278 194.251 238.278 196.654ZM282.319 189.125L282.319 210.123L279.352 210.123L279.352 201.81Q276.02 203.106 273.2 203.106Q269.362 203.106 267.245 201.246Q265.129 199.386 265.129 195.936L265.129 189.125L268.073 189.125L268.073 195.606Q268.073 197.943 269.494 199.203Q270.922 200.462 273.53 200.462Q276.437 200.462 279.352 199.144L279.352 189.125L282.319 189.125ZM304.098 207.516L304.098 210.123L288.857 210.123L288.857 189.125L303.673 189.125L303.673 191.732L291.859 191.732L291.859 198.185L302.384 198.185L302.384 200.733L291.859 200.733L291.859 207.516L304.098 207.516ZM316.995 189.125Q321.075 189.125 323.411 191.073Q325.755 193.021 325.755 196.441Q325.755 199.862 323.411 201.817Q321.075 203.766 316.995 203.766L311.81 203.766L311.81 210.123L308.807 210.123L308.807 189.125L316.995 189.125ZM316.907 201.151Q319.756 201.151 321.258 199.942Q322.759 198.727 322.759 196.441Q322.759 194.164 321.258 192.948Q319.756 191.732 316.907 191.732L311.81 191.732L311.81 201.151L316.907 201.151ZM345.168 207.516L345.168 210.123L329.927 210.123L329.927 189.125L344.743 189.125L344.743 191.732L332.93 191.732L332.93 198.185L343.454 198.185L343.454 200.733L332.93 200.733L332.93 207.516L345.168 207.516ZM359.933 199.173Q361.91 199.715 363.016 201.048Q364.13 202.381 364.13 204.242Q364.13 206.102 362.943 207.501Q361.756 208.893 359.794 209.632Q357.831 210.365 355.524 210.365Q353.422 210.365 351.349 209.735Q349.283 209.105 347.569 207.845L348.617 205.626Q350.001 206.703 351.708 207.245Q353.422 207.787 355.157 207.787Q357.677 207.787 359.383 206.725Q361.097 205.655 361.097 203.795Q361.097 202.206 359.808 201.349Q358.519 200.492 356.183 200.492L351.503 200.492L351.503 198.06L355.97 198.06Q357.977 198.06 359.105 197.24Q360.233 196.412 360.233 194.94Q360.233 193.292 358.761 192.333Q357.289 191.373 355.04 191.373Q353.568 191.373 352.052 191.798Q350.543 192.215 349.188 193.05L348.229 190.597Q349.818 189.696 351.59 189.249Q353.363 188.795 355.128 188.795Q357.347 188.795 359.208 189.483Q361.068 190.172 362.159 191.498Q363.258 192.816 363.258 194.581Q363.258 196.17 362.372 197.372Q361.493 198.573 359.933 199.173ZM16.0668 231.125Q18.8573 231.125 20.9081 232.055Q22.9662 232.985 24.0722 234.699Q25.1854 236.405 25.1854 238.742Q25.1854 241.056 24.0722 242.785Q22.9662 244.506 20.9081 245.421Q18.8573 246.33 16.0668 246.33L11.8407 246.33L11.8407 252.123L6.97743 252.123L6.97743 231.125L16.0668 231.125ZM15.7958 242.375Q17.9857 242.375 19.121 241.43Q20.2636 240.485 20.2636 238.742Q20.2636 236.977 19.121 236.032Q17.9857 235.08 15.7958 235.08L11.8407 235.08L11.8407 242.375L15.7958 242.375ZM28.5802 231.125L33.4435 231.125L33.4435 252.123L28.5802 252.123L28.5802 231.125ZM53.0907 241.173Q55.0096 241.745 56.0277 243.034Q57.0531 244.323 57.0531 246.212Q57.0531 249.003 54.9364 250.563Q52.8197 252.123 48.8866 252.123L38.5374 252.123L38.5374 231.125L48.3226 231.125Q51.9774 231.125 54.0135 232.538Q56.057 233.944 56.057 236.552Q56.057 238.112 55.2733 239.298Q54.4969 240.485 53.0907 241.173ZM43.3714 239.826L47.8978 239.826Q49.4871 239.826 50.3001 239.181Q51.1131 238.537 51.1131 237.27Q51.1131 236.046 50.2855 235.387Q49.4578 234.721 47.8978 234.721L43.3714 234.721L43.3714 239.826ZM48.7108 248.52Q52.1312 248.52 52.1312 245.824Q52.1312 243.209 48.7108 243.209L43.3714 243.209L43.3714 248.52L48.7108 248.52ZM80.1501 231.125L80.1501 252.123L75.2868 252.123L75.2868 243.51L65.7507 243.51L65.7507 252.123L60.8874 252.123L60.8874 231.125L65.7507 231.125L65.7507 239.401L75.2868 239.401L75.2868 231.125L80.1501 231.125ZM85.2802 231.125L90.1435 231.125L90.1435 252.123L85.2802 252.123L85.2802 231.125ZM122.873 231.125L122.873 252.123L118.039 252.123L118.039 235.08L108.561 235.08L108.561 252.123L103.727 252.123L103.727 231.125L122.873 231.125ZM137.177 231.125Q139.967 231.125 142.018 232.055Q144.076 232.985 145.182 234.699Q146.295 236.405 146.295 238.742Q146.295 241.056 145.182 242.785Q144.076 244.506 142.018 245.421Q139.967 246.33 137.177 246.33L132.951 246.33L132.951 252.123L128.087 252.123L128.087 231.125L137.177 231.125ZM136.906 242.375Q139.096 242.375 140.231 241.43Q141.374 240.485 141.374 238.742Q141.374 236.977 140.231 236.032Q139.096 235.08 136.906 235.08L132.951 235.08L132.951 242.375L136.906 242.375ZM159.834 252.482Q156.56 252.482 153.931 251.076Q151.309 249.662 149.822 247.187Q148.343 244.711 148.343 241.62Q148.343 238.537 149.822 236.061Q151.309 233.585 153.931 232.179Q156.56 230.766 159.834 230.766Q163.101 230.766 165.708 232.179Q168.323 233.585 169.817 236.061Q171.319 238.537 171.319 241.62Q171.319 244.711 169.817 247.187Q168.323 249.662 165.708 251.076Q163.101 252.482 159.834 252.482ZM159.834 248.344Q161.687 248.344 163.189 247.487Q164.69 246.63 165.547 245.106Q166.404 243.576 166.404 241.62Q166.404 239.672 165.547 238.141Q164.69 236.61 163.189 235.761Q161.687 234.904 159.834 234.904Q157.974 234.904 156.472 235.761Q154.971 236.61 154.114 238.141Q153.257 239.672 153.257 241.62Q153.257 243.576 154.114 245.106Q154.971 246.63 156.472 247.487Q157.974 248.344 159.834 248.344ZM194.176 252.123L194.147 239.555L187.973 249.904L185.812 249.904L179.63 239.796L179.63 252.123L175.067 252.123L175.067 231.125L179.088 231.125L186.947 244.176L194.689 231.125L198.71 231.125L198.739 252.123L194.176 252.123ZM203.84 231.125L208.704 231.125L208.704 252.123L203.84 252.123L203.84 231.125ZM232.848 243.664L229.794 243.664L229.794 252.123L225.018 252.123L225.018 243.664L221.898 243.664L217.189 252.123L211.578 252.123L217.877 241.144L211.966 231.125L217.101 231.125L221.81 239.613L225.018 239.613L225.018 231.125L229.794 231.125L229.794 239.613L232.906 239.613L237.652 231.125L242.779 231.125L236.898 241.144L243.168 252.123L237.557 252.123L232.848 243.664ZM253.637 243.664L250.283 243.664L250.283 252.123L245.449 252.123L245.449 231.125L250.283 231.125L250.283 239.613L253.762 239.613L259.277 231.125L264.411 231.125L257.541 241.261L264.616 252.123L259.101 252.123L253.637 243.664ZM266.897 231.125L271.731 231.125L271.731 244.806L281.751 231.125L286.307 231.125L286.307 252.123L281.509 252.123L281.509 238.471L271.49 252.123L266.897 252.123L266.897 231.125ZM317.273 231.125L317.273 252.123L312.469 252.123L312.469 244.564Q309.737 245.553 307.4 245.553Q303.167 245.553 300.918 243.532Q298.67 241.503 298.67 237.694L298.67 231.125L303.467 231.125L303.467 237.152Q303.467 239.313 304.624 240.412Q305.782 241.503 307.971 241.503Q310.367 241.503 312.469 240.573L312.469 231.125L317.273 231.125ZM336.711 247.626L326.963 247.626L325.102 252.123L320.122 252.123L329.482 231.125L334.279 231.125L343.669 252.123L338.571 252.123L336.711 247.626ZM335.18 243.935L331.855 235.893L328.523 243.935L335.18 243.935ZM356.089 252.482Q352.881 252.482 350.281 251.09Q347.688 249.691 346.201 247.216Q344.722 244.74 344.722 241.62Q344.722 238.5 346.201 236.032Q347.688 233.556 350.281 232.165Q352.881 230.766 356.118 230.766Q358.85 230.766 361.055 231.725Q363.259 232.685 364.761 234.486L361.641 237.365Q359.509 234.904 356.36 234.904Q354.412 234.904 352.881 235.761Q351.35 236.61 350.493 238.141Q349.636 239.672 349.636 241.62Q349.636 243.576 350.493 245.106Q351.35 246.63 352.881 247.487Q354.412 248.344 356.36 248.344Q359.509 248.344 361.641 245.854L364.761 248.732Q363.259 250.563 361.04 251.522Q358.821 252.482 356.089 252.482ZM386.48 231.125L377.537 247.743Q376.248 250.146 374.431 251.376Q372.622 252.606 370.491 252.606Q368.843 252.606 367.071 251.881L368.242 248.19Q369.502 248.585 370.337 248.585Q371.238 248.585 371.956 248.153Q372.681 247.714 373.282 246.784L373.457 246.542L365.181 231.125L370.367 231.125L375.948 242.404L381.712 231.125L386.48 231.125Z" fill="#000000" fill-opacity="1.000000" fill-rule="evenodd"/>
</svg>
