<svg width="320.171875" height="363.418945" viewBox="0 0 320.172 363.419" fill="none" xmlns="http://www.w3.org/2000/svg" xmlns:xlink="http://www.w3.org/1999/xlink">
	<desc>
			Created with Pixso.
	</desc>
	<defs/>
	<g opacity="0.070000">
		<path id="Vector" d="M160.086 91.4453C118.572 91.4453 84.7969 125.22 84.7969 166.734C84.7969 208.25 118.572 242.024 160.086 242.024C201.601 242.024 235.376 208.25 235.376 166.734C235.376 125.22 201.601 91.4453 160.086 91.4453ZM206.958 177.368L170.719 177.368L170.719 213.605L149.453 213.605L149.453 177.368L113.215 177.368L113.215 156.102L149.453 156.102L149.453 119.864L170.719 119.864L170.719 156.102L206.958 156.102L206.958 177.368Z" fill="#E10920" fill-opacity="1.000000" fill-rule="evenodd"/>
		<path id="Vector" d="M309.948 57.3164C284.7 56.3438 264.675 35.7793 264.358 10.5L264.227 0L55.9438 0L55.8125 10.5C55.4956 35.7793 35.4712 56.3438 10.2231 57.3164L0 57.71L0 143.345C0 220.703 40.1099 292.477 104.677 330.656L160.085 363.419L215.494 330.656C280.062 292.478 320.172 220.704 320.172 143.345L320.172 57.71L309.948 57.3164ZM160.085 263.289C106.845 263.289 63.5303 219.975 63.5303 166.734C63.5303 113.493 106.844 70.1777 160.085 70.1777C213.326 70.1777 256.641 113.492 256.641 166.733C256.641 219.975 213.326 263.289 160.085 263.289Z" fill="#E10920" fill-opacity="1.000000" fill-rule="evenodd"/>
	</g>
</svg>
