<svg width="169.217773" height="192.074219" viewBox="0 0 169.218 192.074" fill="none" xmlns="http://www.w3.org/2000/svg" xmlns:xlink="http://www.w3.org/1999/xlink">
	<desc>
			Created with Pixso.
	</desc>
	<defs>
		<linearGradient id="paint_linear_67_640_0" x1="91.353973" y1="18.742065" x2="84.943863" y2="123.865150" gradientUnits="userSpaceOnUse">
			<stop stop-color="#008083"/>
			<stop offset="1.000000" stop-color="#3FBEC1"/>
		</linearGradient>
		<linearGradient id="paint_linear_67_641_0" x1="98.949249" y1="-71.412407" x2="85.319794" y2="182.299927" gradientUnits="userSpaceOnUse">
			<stop stop-color="#008083"/>
			<stop offset="1.000000" stop-color="#3FBEC1"/>
		</linearGradient>
	</defs>
	<g opacity="0.500000">
		<path id="Vector" d="M84.6094 48.3311C62.668 48.3311 44.8174 66.1816 44.8174 88.123C44.8174 110.064 62.668 127.915 84.6094 127.915C106.551 127.915 124.401 110.064 124.401 88.123C124.401 66.1816 106.551 48.3311 84.6094 48.3311ZM109.382 93.7432L90.229 93.7432L90.229 112.896L78.9897 112.896L78.9897 93.7432L59.8369 93.7432L59.8369 82.5029L78.9897 82.5029L78.9897 63.3506L90.229 63.3506L90.229 82.5029L109.382 82.5029L109.382 93.7432Z" fill="url(#paint_linear_67_640_0)" fill-opacity="1.000000" fill-rule="evenodd"/>
		<path id="Vector" d="M163.814 30.293C150.47 29.7783 139.886 18.9102 139.719 5.5498L139.649 0L29.5674 0L29.498 5.5498C29.3306 18.9102 18.7471 29.7783 5.40332 30.293L0 30.501L0 75.7607C0 116.646 21.1987 154.58 55.3242 174.759L84.6084 192.074L113.893 174.759C148.019 154.58 169.218 116.646 169.218 75.7607L169.218 30.501L163.814 30.293ZM84.6084 139.154C56.4697 139.154 33.5771 116.262 33.5771 88.1221C33.5771 59.9834 56.4692 37.0908 84.6084 37.0908C112.747 37.0908 135.64 59.9834 135.64 88.1221C135.64 116.261 112.747 139.154 84.6084 139.154Z" fill="url(#paint_linear_67_641_0)" fill-opacity="1.000000" fill-rule="evenodd"/>
	</g>
</svg>
