<svg width="305.423340" height="358.666016" viewBox="0 0 305.423 358.666" fill="none" xmlns="http://www.w3.org/2000/svg" xmlns:xlink="http://www.w3.org/1999/xlink">
	<desc>
			Created with Pixso.
	</desc>
	<defs/>
	<g opacity="0.070000">
		<path id="Vector" d="M152.71 111.003C115.027 111.003 84.3711 141.659 84.3711 179.339C84.3711 217.022 115.027 247.678 152.71 247.678C190.39 247.678 221.046 217.022 221.046 179.339C221.046 141.659 190.39 111.003 152.71 111.003ZM193.283 166.47L144.326 215.427C142.271 217.481 139.575 218.511 136.883 218.511C134.19 218.511 131.498 217.484 129.442 215.427L110.733 196.718C106.624 192.61 106.624 185.947 110.733 181.837C114.841 177.728 121.504 177.728 125.614 181.837L136.883 193.105L178.402 151.589C182.509 147.479 189.172 147.479 193.283 151.589C197.393 155.696 197.393 162.359 193.283 166.47Z" fill="#E10920" fill-opacity="1.000000" fill-rule="evenodd"/>
		<path id="Vector" d="M305.067 97.3154L305.057 97.0361C304.9 93.5908 304.796 89.9463 304.733 85.8906C304.441 66.1152 288.72 49.7568 268.941 48.6514C227.704 46.3496 195.803 32.9033 168.546 6.33594L168.313 6.11426C159.422 -2.03809 146.011 -2.03809 137.118 6.11426L136.886 6.33594C109.628 32.9033 77.7275 46.3496 36.4897 48.6543C16.7139 49.7568 0.990479 66.1152 0.697754 85.8936C0.637451 89.9219 0.530762 93.5664 0.374756 97.0361L0.358398 97.6846C-0.443359 139.735 -1.43945 192.068 16.0679 239.569C25.6948 265.691 40.2744 288.398 59.3989 307.063C81.1807 328.319 109.71 345.194 144.194 357.219C145.316 357.609 146.482 357.928 147.67 358.165C149.344 358.499 151.03 358.666 152.716 358.666C154.401 358.666 156.089 358.499 157.762 358.165C158.949 357.928 160.123 357.607 161.25 357.213C195.693 345.167 224.193 328.284 245.956 307.03C265.072 288.359 279.652 265.647 289.287 239.521C306.86 191.877 305.866 139.445 305.067 97.3154ZM152.71 268.724C103.422 268.724 63.3257 228.627 63.3257 179.339C63.3257 130.051 103.422 89.9541 152.71 89.9541C201.996 89.9541 242.095 130.051 242.095 179.339C242.095 228.627 201.996 268.724 152.71 268.724Z" fill="#E10920" fill-opacity="1.000000" fill-rule="evenodd"/>
	</g>
</svg>
