<svg width="94.522461" height="94.485352" viewBox="0 0 94.5225 94.4854" fill="none" xmlns="http://www.w3.org/2000/svg" xmlns:xlink="http://www.w3.org/1999/xlink">
	<desc>
			Created with Pixso.
	</desc>
	<defs/>
	<path id="Vector" d="M82.127 53.4922C82.127 67.7061 74.8809 80.2295 63.875 87.584C57.3506 91.9434 41.0635 92.7734 41.0635 92.7734C41.0635 92.7734 2.65234 79.3789 2.65234 56.7393C2.65234 44.1104 5.7207 29.5684 14.7148 22.0488C21.8457 16.0869 31.0352 12.498 41.0635 12.498C63.7422 12.498 82.127 30.8516 82.127 53.4922Z" fill="#FFD764" fill-opacity="1.000000" fill-rule="nonzero"/>
	<path id="Vector" d="M66.6104 85.5859C59.5986 91.1582 50.7217 94.4854 41.0645 94.4854C18.3857 94.4854 0 76.1318 0 53.4922C0 38.0332 8.57227 24.5723 21.2314 17.5889C11.7754 25.0967 5.71387 36.6826 5.71387 49.6826C5.71387 72.3232 24.0996 90.6768 46.7773 90.6768C53.9707 90.6768 60.7314 88.8311 66.6104 85.5859Z" fill="#FFAA4D" fill-opacity="1.000000" fill-rule="nonzero"/>
	<path id="Vector" d="M51.8428 45.5303C48.5693 47.6768 44.8154 48.751 41.0635 48.751C37.3096 48.751 33.5576 47.6768 30.2842 45.5303C29.623 45.0986 29.4404 44.2129 29.873 43.5518C30.3057 42.8926 31.1904 42.708 31.8496 43.1426C37.4473 46.8125 44.6797 46.8125 50.2754 43.1426C50.9346 42.71 51.8203 42.8926 52.2539 43.5518C52.6865 44.2129 52.502 45.0986 51.8428 45.5303Z" fill="#FFD764" fill-opacity="1.000000" fill-rule="nonzero"/>
	<path id="Vector" d="M52.7939 35.3506L47.3623 35.3506L45.7676 35.0059C44.9707 35.0059 44.8193 34.8018 44.3232 34.1797C43.626 33.3027 43.5859 32.1025 44.1787 31.1943L48.1162 24.9893C48.1992 24.8623 47.7119 24.5967 47.5605 24.5967L45.8281 24.5967C44.417 24.5967 44.0078 22.0488 44.0078 22.0488C44.0078 22.0488 44.417 19.4961 45.8281 19.4961L52.5547 19.4961C53.3506 19.4961 54.126 19.8311 54.6221 20.4541C55.3193 21.3301 55.3594 22.5303 54.7666 23.4385L50.5137 29.9551C50.4307 30.082 50.5215 30.25 50.6729 30.25L52.793 30.25C54.2041 30.25 55.3477 31.3916 55.3477 32.7998C55.3486 34.208 54.2041 35.3506 52.7939 35.3506Z" fill="#86BFF2" fill-opacity="1.000000" fill-rule="nonzero"/>
	<path id="Vector" d="M45.9434 31.4082C45.3496 32.3164 45.3896 33.5166 46.0879 34.3926C46.583 35.0146 47.3584 35.3506 48.1543 35.3506L45.6787 35.3506C44.8828 35.3506 44.1074 35.0146 43.6123 34.3926C42.9131 33.5166 42.874 32.3164 43.4678 31.4082L47.7207 24.8906C47.8027 24.7656 47.7129 24.5977 47.5605 24.5977L50.0361 24.5977C50.1885 24.5977 50.2783 24.7656 50.1963 24.8906L45.9434 31.4082Z" fill="#62A4FB" fill-opacity="1.000000" fill-rule="nonzero"/>
	<path id="Vector" d="M47.5898 24.6016C47.5801 24.5986 47.5713 24.5986 47.5596 24.5986L45.8262 24.5986C44.417 24.5986 43.2725 23.4551 43.2725 22.0459C43.2725 20.6387 44.417 19.4961 45.8262 19.4961L48.2607 19.4961C46.832 19.4961 45.6738 20.6523 45.6738 22.0781C45.6738 23.2764 46.4854 24.3027 47.5898 24.6016Z" fill="#62A4FB" fill-opacity="1.000000" fill-rule="nonzero"/>
	<path id="Vector" d="M91.9678 15.8574L84.8535 15.8574C84.0576 15.8574 84.084 15.1621 83.5879 14.5391C82.8906 13.6621 82.8506 12.4619 83.4434 11.5537L87.4355 5.61621C87.5186 5.48926 86.8867 5.10352 86.7354 5.10352L86.3838 5.10352L85.1201 4.7168C83.709 4.7168 83.1748 3.81543 83.1748 2.40723C83.1748 0.998047 83.5312 0.364258 84.9424 0.364258L86.5781 0.00292969L91.7295 0.00292969C92.5254 0.00292969 93.3008 0.337891 93.7969 0.960938C94.4941 1.83691 94.5342 3.03711 93.9414 3.94531L89.6885 10.4619C89.6055 10.5889 89.6963 10.7568 89.8477 10.7568L91.9678 10.7568C93.3789 10.7568 94.5225 11.8984 94.5225 13.3066C94.5225 14.7148 93.3789 15.8574 91.9678 15.8574Z" fill="#86BFF2" fill-opacity="1.000000" fill-rule="nonzero"/>
	<path id="Vector" d="M85.1182 11.9131C84.5244 12.8213 84.5645 14.0215 85.2627 14.8975C85.7578 15.5195 86.5332 15.8555 87.3291 15.8555L84.8535 15.8555C84.0576 15.8555 83.2822 15.5195 82.7871 14.8975C82.0879 14.0215 82.0488 12.8213 82.6426 11.9131L86.8955 5.39551C86.9775 5.27051 86.8877 5.10254 86.7354 5.10254L89.2109 5.10254C89.3633 5.10254 89.4531 5.27051 89.3711 5.39551L85.1182 11.9131Z" fill="#62A4FB" fill-opacity="1.000000" fill-rule="nonzero"/>
	<path id="Vector" d="M86.7656 5.10547C86.7559 5.10254 86.7471 5.10254 86.7354 5.10254L85.002 5.10254C83.5928 5.10254 82.4482 3.95898 82.4482 2.5498C82.4482 1.14258 83.5928 0 85.002 0L87.4365 0C86.0078 0 84.8496 1.15625 84.8496 2.58203C84.8496 3.78027 85.6611 4.80664 86.7656 5.10547Z" fill="#62A4FB" fill-opacity="1.000000" fill-rule="nonzero"/>
	<path id="Vector" d="M74.6719 28.9082L65.3301 28.9082L63.5469 28.4131C62.6699 28.4131 62.2129 28.5762 61.667 27.8896C60.8975 26.9248 60.8535 25.6025 61.5068 24.6016L69.6406 12.501C69.7236 12.374 69.0146 11.9111 68.8633 11.9111L65.7832 11.9111L63.709 11.5244C62.1543 11.5244 61.7314 10.6523 61.7314 9.10156C61.7314 7.5498 61.9922 6.88867 63.5469 6.88867L65.751 6.29199L74.3281 6.29199C75.2051 6.29199 76.0586 6.66113 76.6055 7.34668C77.374 8.3125 77.418 9.63379 76.7646 10.6348L68.6982 22.9941C68.6152 23.1211 68.7061 23.2891 68.8574 23.2891L74.6719 23.2891C76.2256 23.2891 77.4854 24.5469 77.4854 26.0986C77.4863 27.6504 76.2256 28.9082 74.6719 28.9082Z" fill="#86BFF2" fill-opacity="1.000000" fill-rule="nonzero"/>
	<path id="Vector" d="M66.9004 11.9102L63.6621 11.9102C62.1084 11.9102 60.8477 10.6533 60.8477 9.10156C60.8477 7.54883 62.1084 6.29199 63.6621 6.29199L66.9004 6.29199C65.3457 6.29199 64.085 7.54883 64.085 9.10156C64.085 10.6533 65.3457 11.9102 66.9004 11.9102Z" fill="#62A4FB" fill-opacity="1.000000" fill-rule="nonzero"/>
	<path id="Vector" d="M64.1904 24.5645C63.5381 25.5645 63.5811 26.8877 64.3506 27.8516C64.8975 28.5391 65.751 28.9062 66.6289 28.9062L63.3906 28.9062C62.5127 28.9062 61.6602 28.5391 61.1133 27.8516C60.3438 26.8877 60.2998 25.5645 60.9531 24.5645L69.0205 12.2041C69.1045 12.0771 69.0127 11.9092 68.8623 11.9092L72.1006 11.9092C72.251 11.9092 72.3418 12.0771 72.2578 12.2041L64.1904 24.5645Z" fill="#62A4FB" fill-opacity="1.000000" fill-rule="nonzero"/>
	<path id="Vector" d="M81.3965 45.7578C78.207 47.752 74.5898 48.75 70.9736 48.75C67.2197 48.75 63.4678 47.6758 60.1943 45.5293C59.5332 45.0977 59.3506 44.2119 59.7832 43.5508C60.2158 42.8916 61.1006 42.707 61.7598 43.1416C67.3574 46.8115 74.5879 46.8115 80.1855 43.1416C80.2959 43.0693 80.4844 42.9609 80.7246 42.833C80.9834 43.7949 81.208 44.7695 81.3965 45.7578Z" fill="#B36D3C" fill-opacity="1.000000" fill-rule="nonzero"/>
	<path id="Vector" d="M51.8438 45.5303C48.5703 47.6768 44.8164 48.751 41.0645 48.751C37.3105 48.751 33.5586 47.6768 30.2852 45.5303C29.624 45.0986 29.4414 44.2129 29.874 43.5518C30.3066 42.8926 31.1914 42.708 31.8506 43.1426C37.4482 46.8125 44.6807 46.8125 50.2764 43.1426C50.9355 42.71 51.8213 42.8926 52.2549 43.5518C52.6875 44.2129 52.5029 45.0986 51.8438 45.5303Z" fill="#B36D3C" fill-opacity="1.000000" fill-rule="nonzero"/>
	<path id="Vector" d="M56.0176 66.4346C59.7236 66.4346 63.1201 67.2246 65.7695 68.5391C66.8154 69.0576 68.042 68.3096 68.042 67.1416C68.042 60.8916 62.9746 55.8252 56.7246 55.8252L55.1104 56.0371C48.8604 56.0371 45.1494 66.6143 45.1494 66.6143C45.1494 67.7812 45.0762 68.3486 46.1221 67.8291C46.5117 67.6367 47.0615 68.1641 47.4814 67.9941C49.9209 67.0098 52.8564 66.4346 56.0176 66.4346Z" fill="#B36D3C" fill-opacity="1.000000" fill-rule="nonzero"/>
	<path id="Vector" d="M47.2314 67.1416C47.2314 67.4639 47.3252 67.7549 47.4814 67.9951C47.0605 68.1641 46.6543 68.3467 46.2666 68.5391C46.0361 68.6533 45.7959 68.707 45.5615 68.707C44.7393 68.707 43.9941 68.0518 43.9941 67.1416C43.9941 60.8906 49.0596 55.8252 55.3105 55.8252L56.7256 55.8252C57.0322 55.8252 57.335 55.8369 57.6357 55.8613C51.8115 56.3262 47.2314 61.1973 47.2314 67.1416Z" fill="#995E34" fill-opacity="1.000000" fill-rule="nonzero"/>
	<path id="Vector" d="M47.7686 73.3633C47.7686 74.2598 47.4512 75.082 46.9219 75.7236C46.2412 76.5498 45.1494 76.6455 43.9941 76.6455C41.9434 76.6455 40.8867 75.3896 40.8867 73.3389C40.8867 71.6592 42.9014 67.8418 43.8037 66.4014C43.9531 66.1631 44.2275 65.8818 44.376 66.1191C45.2793 67.5596 47.7686 71.6846 47.7686 73.3633Z" fill="#86BFF2" fill-opacity="1.000000" fill-rule="nonzero"/>
	<path id="Vector" d="M46.9219 75.7236C46.2402 76.5508 45.208 77.0781 44.0537 77.0781C42.0029 77.0781 40.3398 75.415 40.3398 73.3643C40.3398 71.6846 42.8281 67.5605 43.7314 66.1201C43.8809 65.8818 44.2266 65.8818 44.376 66.1201C44.5176 66.3467 44.6973 66.6387 44.9004 66.9766C43.9033 68.7422 42.8154 70.9209 42.8154 72.0312C42.8154 74.082 44.4785 75.7451 46.5293 75.7451C46.6631 75.7451 46.792 75.7373 46.9219 75.7236Z" fill="#62A4FB" fill-opacity="1.000000" fill-rule="nonzero"/>
</svg>
