<svg width="332.000000" height="261.851562" viewBox="0 0 332 261.852" fill="none" xmlns="http://www.w3.org/2000/svg" xmlns:xlink="http://www.w3.org/1999/xlink">
	<desc>
			Created with Pixso.
	</desc>
	<defs>
		<filter id="filter_93_224_dd" x="8.289551" y="0.000000" width="188.949219" height="188.949219" filterUnits="userSpaceOnUse" color-interpolation-filters="sRGB">
			<feFlood flood-opacity="0" result="BackgroundImageFix"/>
			<feColorMatrix in="SourceAlpha" type="matrix" values="0 0 0 0 0 0 0 0 0 0 0 0 0 0 0 0 0 0 127 0" result="hardAlpha"/>
			<feOffset dx="4.53119" dy="20.3904"/>
			<feGaussianBlur stdDeviation="8.08062"/>
			<feComposite in2="hardAlpha" operator="out" k2="-1" k3="1"/>
			<feColorMatrix type="matrix" values="0 0 0 0 0 0 0 0 0 0 0 0 0 0 0 0 0 0 0.25 0"/>
			<feBlend mode="normal" in2="BackgroundImageFix" result="effect_dropShadow_1"/>
			<feBlend mode="normal" in="SourceGraphic" in2="effect_dropShadow_1" result="shape"/>
		</filter>
	</defs>
	<path id="х 3" d="M246.052 104.904L235.55 90.7398L224.992 104.904L214.434 104.904L230.355 84.1622L215.126 64.0367L225.758 64.0367L235.793 77.435L245.809 64.0367L256.143 64.0367L240.838 84.0127L256.834 104.904L246.052 104.904ZM304.516 73.4547Q311.934 74.3704 315.84 78.5001Q319.745 82.6299 319.745 88.8338Q319.745 93.5055 317.372 97.3362Q314.999 101.148 310.215 103.409Q305.431 105.67 298.536 105.67Q292.799 105.67 287.473 104.026Q282.166 102.382 278.41 99.4665L282.69 91.7302Q285.605 94.1969 289.772 95.6171Q293.958 97.0185 298.386 97.0185Q303.675 97.0185 306.683 94.8509Q309.71 92.6646 309.71 88.9086Q309.71 85.1525 306.833 83.0596Q303.974 80.9481 298.087 80.9481L293.191 80.9481L293.191 74.1274L305.356 59.664L281.008 59.664L281.008 51.3298L317.521 51.3298L317.521 57.9822L304.516 73.4547Z" fill="#000000" fill-opacity="1.000000" fill-rule="evenodd"/>
	<g filter="url(#filter_93_224_dd)">
		<path id="Vector" d="M147.892 24.4258L115.546 87.9971L48.5747 123.743C35.8647 111.033 28 93.4727 28 74.084C28 35.2959 59.4463 3.85156 98.2344 3.85156C117.634 3.85156 135.188 11.7168 147.892 24.4258Z" fill="#D0CFD5" fill-opacity="1.000000" fill-rule="nonzero"/>
		<path id="Vector" d="M63.5337 115.755C62.2939 114.677 61.0884 113.556 59.9282 112.389C47.2163 99.6787 39.354 82.1182 39.354 62.7295C39.354 46.2266 45.0469 31.0566 54.5732 19.0703C51.6953 21.3564 48.9985 23.8662 46.5103 26.5732C34.709 39.4277 28 56.627 28 74.0811C28 90.7256 34.1172 107.326 45.1309 120.041C46.2349 121.314 47.3823 122.55 48.5747 123.74L63.5337 115.755Z" fill="#B5B4B9" fill-opacity="1.000000" fill-rule="nonzero"/>
		<path id="Vector" d="M168.465 74.082C168.465 112.87 137.02 144.316 98.2334 144.316C78.8384 144.316 61.2837 136.458 48.5737 123.748L48.5737 123.742L147.891 24.4248C160.601 37.1348 168.465 54.6963 168.465 74.082Z" fill="#E6E6E6" fill-opacity="1.000000" fill-rule="nonzero"/>
		<path id="Vector" d="M84.604 32.624C83.5151 32.624 82.4238 32.208 81.5928 31.375C79.9312 29.7139 79.9312 27.0166 81.5928 25.3545L86.4639 20.4863C88.1255 18.8223 90.8223 18.8242 92.4839 20.4863C94.1455 22.1475 94.1455 24.8447 92.4839 26.5068L87.6133 31.377C86.7822 32.208 85.6934 32.624 84.604 32.624Z" fill="#334151" fill-opacity="1.000000" fill-rule="nonzero"/>
		<path id="Vector" d="M138.414 86.4326C137.325 86.4326 136.235 86.0176 135.405 85.1865C133.741 83.5225 133.741 80.8281 135.405 79.1641L140.273 74.2959C141.937 72.6318 144.632 72.6318 146.293 74.2959C147.957 75.957 147.957 78.6543 146.293 80.3154L141.425 85.1865C140.594 86.0176 139.503 86.4326 138.414 86.4326Z" fill="#334151" fill-opacity="1.000000" fill-rule="nonzero"/>
		<path id="Vector" d="M117.702 65.8574C113.346 65.8574 109.095 64.0771 105.898 60.8809C102.441 57.4238 100.642 52.7314 100.958 48.0078C101.116 45.6592 103.156 43.8877 105.491 44.0449C107.837 44.2021 109.611 46.2314 109.454 48.5781C109.301 50.8506 110.199 53.1406 111.918 54.8604C113.638 56.5801 115.928 57.4805 118.201 57.3252C120.549 57.168 122.577 58.9414 122.734 61.2871C122.891 63.6338 121.118 65.6631 118.771 65.8203C118.415 65.8438 118.059 65.8574 117.702 65.8574Z" fill="#334151" fill-opacity="1.000000" fill-rule="nonzero"/>
		<path id="Vector" d="M109.585 132.961C90.1924 132.961 72.6353 125.103 59.9253 112.389C59.9253 112.389 48.5737 123.74 48.5737 123.747C61.2837 136.457 78.8384 144.314 98.2334 144.314L98.2871 144.314C109.559 144.314 120.799 141.56 130.784 136.327C139.447 131.786 147.159 125.399 153.246 117.741C141.257 127.269 126.087 132.961 109.585 132.961Z" fill="#D0CFD5" fill-opacity="1.000000" fill-rule="nonzero"/>
	</g>
	<path id="ВРАНЦI, ВДЕНЬ I ВВЕЧЕРI" d="M41.6357 198.902Q43.5546 199.473 44.5727 200.762Q45.5981 202.051 45.5981 203.941Q45.5981 206.731 43.4814 208.292Q41.3647 209.852 37.4315 209.852L27.0824 209.852L27.0824 188.853L36.8676 188.853Q40.5224 188.853 42.5585 190.267Q44.602 191.673 44.602 194.28Q44.602 195.84 43.8183 197.027Q43.0419 198.213 41.6357 198.902ZM31.9164 197.554L36.4428 197.554Q38.0321 197.554 38.8451 196.91Q39.6581 196.265 39.6581 194.998Q39.6581 193.775 38.8305 193.116Q38.0028 192.449 36.4428 192.449L31.9164 192.449L31.9164 197.554ZM37.2558 206.248Q40.6762 206.248 40.6762 203.553Q40.6762 200.938 37.2558 200.938L31.9164 200.938L31.9164 206.248L37.2558 206.248ZM58.5218 188.853Q61.3123 188.853 63.3631 189.783Q65.4212 190.713 66.5272 192.427Q67.6404 194.134 67.6404 196.47Q67.6404 198.785 66.5272 200.513Q65.4212 202.234 63.3631 203.15Q61.3123 204.058 58.5218 204.058L54.2957 204.058L54.2957 209.852L49.4324 209.852L49.4324 188.853L58.5218 188.853ZM58.2508 200.103Q60.4407 200.103 61.576 199.158Q62.7186 198.213 62.7186 196.47Q62.7186 194.705 61.576 193.76Q60.4407 192.808 58.2508 192.808L54.2957 192.808L54.2957 200.103L58.2508 200.103ZM84.0261 205.354L74.2775 205.354L72.4172 209.852L67.4367 209.852L76.7971 188.853L81.5944 188.853L90.9841 209.852L85.8864 209.852L84.0261 205.354ZM82.4953 201.663L79.1701 193.621L75.8376 201.663L82.4953 201.663ZM113.035 188.853L113.035 209.852L108.172 209.852L108.172 201.238L98.6357 201.238L98.6357 209.852L93.7724 209.852L93.7724 188.853L98.6357 188.853L98.6357 197.129L108.172 197.129L108.172 188.853L113.035 188.853ZM140.306 205.889L140.306 214.29L135.839 214.29L135.839 209.852L118.282 209.852L118.282 188.853L123.116 188.853L123.116 205.889L132.477 205.889L132.477 188.853L137.303 188.853L137.303 205.889L140.306 205.889ZM143.395 188.853L148.259 188.853L148.259 209.852L143.395 209.852L143.395 188.853ZM154.707 204.271Q155.967 204.271 156.773 205.069Q157.586 205.86 157.586 207.149Q157.586 207.75 157.432 208.35Q157.286 208.951 156.773 210.152L155.066 214.473L152.093 214.473L153.418 209.705Q152.664 209.405 152.225 208.731Q151.792 208.05 151.792 207.149Q151.792 205.86 152.62 205.069Q153.448 204.271 154.707 204.271ZM184.256 198.902Q186.175 199.473 187.193 200.762Q188.218 202.051 188.218 203.941Q188.218 206.731 186.101 208.292Q183.985 209.852 180.052 209.852L169.702 209.852L169.702 188.853L179.488 188.853Q183.142 188.853 185.179 190.267Q187.222 191.673 187.222 194.28Q187.222 195.84 186.438 197.027Q185.662 198.213 184.256 198.902ZM174.536 197.554L179.063 197.554Q180.652 197.554 181.465 196.91Q182.278 196.265 182.278 194.998Q182.278 193.775 181.45 193.116Q180.623 192.449 179.063 192.449L174.536 192.449L174.536 197.554ZM179.876 206.248Q183.296 206.248 183.296 203.553Q183.296 200.938 179.876 200.938L174.536 200.938L174.536 206.248L179.876 206.248ZM213.717 205.889L213.717 214.202L209.213 214.202L209.213 209.852L194.396 209.852L194.396 214.202L189.892 214.202L189.928 205.889L190.763 205.889Q192.653 205.831 193.429 203.135Q194.213 200.433 194.396 195.423L194.638 188.853L210.773 188.853L210.773 205.889L213.717 205.889ZM198.688 195.87Q198.534 199.62 198.051 202.154Q197.575 204.688 196.586 205.889L205.976 205.889L205.976 192.808L198.776 192.808L198.688 195.87ZM233.242 205.955L233.242 209.852L216.982 209.852L216.982 188.853L232.854 188.853L232.854 192.75L221.809 192.75L221.809 197.312L231.565 197.312L231.565 201.092L221.809 201.092L221.809 205.955L233.242 205.955ZM256.435 188.853L256.435 209.852L251.572 209.852L251.572 201.238L242.036 201.238L242.036 209.852L237.172 209.852L237.172 188.853L242.036 188.853L242.036 197.129L251.572 197.129L251.572 188.853L256.435 188.853ZM271.856 195.752Q275.694 195.752 277.744 197.466Q279.803 199.173 279.803 202.535Q279.803 206.102 277.539 207.977Q275.276 209.852 271.167 209.852L261.682 209.852L261.682 188.853L266.516 188.853L266.516 195.752L271.856 195.752ZM270.896 206.248Q272.786 206.248 273.848 205.325Q274.917 204.395 274.917 202.623Q274.917 199.349 270.896 199.349L266.516 199.349L266.516 206.248L270.896 206.248ZM291.685 188.853L296.549 188.853L296.549 209.852L291.685 209.852L291.685 188.853ZM113.606 240.902Q115.525 241.473 116.543 242.762Q117.568 244.051 117.568 245.941Q117.568 248.731 115.451 250.292Q113.335 251.852 109.402 251.852L99.0524 251.852L99.0524 230.853L108.838 230.853Q112.492 230.853 114.528 232.267Q116.572 233.673 116.572 236.28Q116.572 237.84 115.788 239.027Q115.012 240.213 113.606 240.902ZM103.886 239.554L108.413 239.554Q110.002 239.554 110.815 238.91Q111.628 238.265 111.628 236.998Q111.628 235.775 110.8 235.116Q109.973 234.449 108.413 234.449L103.886 234.449L103.886 239.554ZM109.226 248.248Q112.646 248.248 112.646 245.553Q112.646 242.938 109.226 242.938L103.886 242.938L103.886 248.248L109.226 248.248ZM135.956 240.902Q137.875 241.473 138.893 242.762Q139.918 244.051 139.918 245.941Q139.918 248.731 137.801 250.292Q135.685 251.852 131.752 251.852L121.402 251.852L121.402 230.853L131.188 230.853Q134.842 230.853 136.878 232.267Q138.922 233.673 138.922 236.28Q138.922 237.84 138.138 239.027Q137.362 240.213 135.956 240.902ZM126.236 239.554L130.763 239.554Q132.352 239.554 133.165 238.91Q133.978 238.265 133.978 236.998Q133.978 235.775 133.15 235.116Q132.323 234.449 130.763 234.449L126.236 234.449L126.236 239.554ZM131.576 248.248Q134.996 248.248 134.996 245.553Q134.996 242.938 131.576 242.938L126.236 242.938L126.236 248.248L131.576 248.248ZM160.012 247.955L160.012 251.852L143.752 251.852L143.752 230.853L159.624 230.853L159.624 234.75L148.579 234.75L148.579 239.312L158.335 239.312L158.335 243.092L148.579 243.092L148.579 247.955L160.012 247.955ZM181.198 230.853L181.198 251.852L176.394 251.852L176.394 244.293Q173.662 245.282 171.325 245.282Q167.092 245.282 164.843 243.26Q162.595 241.231 162.595 237.423L162.595 230.853L167.392 230.853L167.392 236.881Q167.392 239.042 168.549 240.14Q169.707 241.231 171.897 241.231Q174.292 241.231 176.394 240.301L176.394 230.853L181.198 230.853ZM202.672 247.955L202.672 251.852L186.412 251.852L186.412 230.853L202.284 230.853L202.284 234.75L191.239 234.75L191.239 239.312L200.995 239.312L200.995 243.092L191.239 243.092L191.239 247.955L202.672 247.955ZM215.692 230.853Q218.482 230.853 220.533 231.783Q222.591 232.713 223.697 234.427Q224.81 236.134 224.81 238.47Q224.81 240.785 223.697 242.513Q222.591 244.234 220.533 245.15Q218.482 246.058 215.692 246.058L211.466 246.058L211.466 251.852L206.602 251.852L206.602 230.853L215.692 230.853ZM215.421 242.103Q217.611 242.103 218.746 241.158Q219.889 240.213 219.889 238.47Q219.889 236.705 218.746 235.76Q217.611 234.808 215.421 234.808L211.466 234.808L211.466 242.103L215.421 242.103ZM228.205 230.853L233.069 230.853L233.069 251.852L228.205 251.852L228.205 230.853Z" fill="#000000" fill-opacity="1.000000" fill-rule="evenodd"/>
</svg>
